<?xml version="1.0" encoding="UTF-8" standalone="no"?>
<!DOCTYPE svg PUBLIC "-//W3C//DTD SVG 1.1//EN"
 "http://www.w3.org/Graphics/SVG/1.1/DTD/svg11.dtd">
<!-- Generated by graphviz version 2.40.1 (20161225.0304)
 -->
<!-- Title: .inner_id.b9cd26f9&#45;5548&#45;4c71&#45;b1f8&#45;b62716652d67 Pages: 1 -->
<svg width="612pt" height="195pt"
 viewBox="0.00 0.00 612.00 195.00" xmlns="http://www.w3.org/2000/svg" xmlns:xlink="http://www.w3.org/1999/xlink">
<g id="graph0" class="graph" transform="scale(1 1) rotate(0) translate(4 191)">
<title>.inner_id.b9cd26f9&#45;5548&#45;4c71&#45;b1f8&#45;b62716652d67</title>
<polygon fill="#ffffff" stroke="transparent" points="-4,4 -4,-191 608,-191 608,4 -4,4"/>
<!-- .inner_id.b9cd26f9&#45;5548&#45;4c71&#45;b1f8&#45;b62716652d67 -->
<g id="node1" class="node">
<title>.inner_id.b9cd26f9&#45;5548&#45;4c71&#45;b1f8&#45;b62716652d67</title>
<polygon fill="#efefef" stroke="transparent" points="46,-105.5 46,-140.5 558,-140.5 558,-105.5 46,-105.5"/>
<polygon fill="none" stroke="#000000" points="46,-105.5 46,-140.5 558,-140.5 558,-105.5 46,-105.5"/>
<text text-anchor="start" x="52.6521" y="-118.3" font-family="Arial Bold" font-size="18.00" fill="#000000">.inner_id.b9cd26f9&#45;5548&#45;4c71&#45;b1f8&#45;b62716652d67</text>
<text text-anchor="start" x="458.8149" y="-118.3" font-family="Arial" font-size="14.00" fill="#000000">    </text>
<text text-anchor="start" x="493.0197" y="-118.3" font-family="Arial" font-size="14.00" fill="#666666">[Memory]</text>
<polygon fill="none" stroke="#000000" points="46,-75.5 46,-105.5 558,-105.5 558,-75.5 46,-75.5"/>
<text text-anchor="start" x="53" y="-86.9" font-family="Arial" font-size="14.00" fill="#000000">name1 </text>
<text text-anchor="start" x="99.6816" y="-86.9" font-family="Arial" font-size="14.00" fill="#666666">[UInt64]</text>
<polygon fill="none" stroke="#000000" points="46,-45.5 46,-75.5 558,-75.5 558,-45.5 46,-45.5"/>
<text text-anchor="start" x="53" y="-56.9" font-family="Arial" font-size="14.00" fill="#000000">name2 </text>
<text text-anchor="start" x="99.6816" y="-56.9" font-family="Arial" font-size="14.00" fill="#666666">[Nullable(String)]</text>
<polygon fill="none" stroke="#000000" stroke-width="3" points="44.5,-44.5 44.5,-142.5 559.5,-142.5 559.5,-44.5 44.5,-44.5"/>
</g>
</g>
</svg>
