<?xml version="1.0" encoding="UTF-8" standalone="no"?>
<!DOCTYPE svg PUBLIC "-//W3C//DTD SVG 1.1//EN"
 "http://www.w3.org/Graphics/SVG/1.1/DTD/svg11.dtd">
<!-- Generated by graphviz version 2.40.1 (20161225.0304)
 -->
<!-- Title: materialized_view Pages: 1 -->
<svg width="404pt" height="195pt"
 viewBox="0.00 0.00 404.00 195.00" xmlns="http://www.w3.org/2000/svg" xmlns:xlink="http://www.w3.org/1999/xlink">
<g id="graph0" class="graph" transform="scale(1 1) rotate(0) translate(4 191)">
<title>materialized_view</title>
<polygon fill="#ffffff" stroke="transparent" points="-4,4 -4,-191 400,-191 400,4 -4,4"/>
<!-- materialized_view -->
<g id="node1" class="node">
<title>materialized_view</title>
<polygon fill="#efefef" stroke="transparent" points="46,-105.5 46,-140.5 350,-140.5 350,-105.5 46,-105.5"/>
<polygon fill="none" stroke="#000000" points="46,-105.5 46,-140.5 350,-140.5 350,-105.5 46,-105.5"/>
<text text-anchor="start" x="52.618" y="-118.3" font-family="Arial Bold" font-size="18.00" fill="#000000">materialized_view</text>
<text text-anchor="start" x="195.619" y="-118.3" font-family="Arial" font-size="14.00" fill="#000000">    </text>
<text text-anchor="start" x="229.8238" y="-118.3" font-family="Arial" font-size="14.00" fill="#666666">[MaterializedView]</text>
<polygon fill="none" stroke="#000000" points="46,-75.5 46,-105.5 350,-105.5 350,-75.5 46,-75.5"/>
<text text-anchor="start" x="53" y="-86.9" font-family="Arial" font-size="14.00" fill="#000000">name1 </text>
<text text-anchor="start" x="99.6816" y="-86.9" font-family="Arial" font-size="14.00" fill="#666666">[UInt64]</text>
<polygon fill="none" stroke="#000000" points="46,-45.5 46,-75.5 350,-75.5 350,-45.5 46,-45.5"/>
<text text-anchor="start" x="53" y="-56.9" font-family="Arial" font-size="14.00" fill="#000000">name2 </text>
<text text-anchor="start" x="99.6816" y="-56.9" font-family="Arial" font-size="14.00" fill="#666666">[Nullable(String)]</text>
<polygon fill="none" stroke="#000000" stroke-width="3" points="44.5,-44.5 44.5,-142.5 351.5,-142.5 351.5,-44.5 44.5,-44.5"/>
</g>
</g>
</svg>
