<?xml version="1.0" encoding="UTF-8" standalone="no"?>
<!DOCTYPE svg PUBLIC "-//W3C//DTD SVG 1.1//EN"
 "http://www.w3.org/Graphics/SVG/1.1/DTD/svg11.dtd">
<!-- Generated by graphviz version 12.1.2 (20240928.0832)
 -->
<!-- Title: numbers_table Pages: 1 -->
<svg width="363pt" height="167pt"
 viewBox="0.00 0.00 362.73 166.80" xmlns="http://www.w3.org/2000/svg" xmlns:xlink="http://www.w3.org/1999/xlink">
<g id="graph0" class="graph" transform="scale(1 1) rotate(0) translate(4 162.8)">
<title>numbers_table</title>
<polygon fill="white" stroke="none" points="-4,4 -4,-162.8 358.73,-162.8 358.73,4 -4,4"/>
<!-- numbers_table -->
<g id="node1" class="node">
<title>numbers_table</title>
<polygon fill="#efefef" stroke="none" points="46.2,-77 46.2,-112.6 308.53,-112.6 308.53,-77 46.2,-77"/>
<polygon fill="none" stroke="black" points="46.2,-77 46.2,-112.6 308.53,-112.6 308.53,-77 46.2,-77"/>
<text text-anchor="start" x="53.2" y="-90.4" font-family="Arial Bold" font-size="18.00">numbers_table</text>
<text text-anchor="start" x="159.17" y="-90.4" font-family="Arial" font-size="14.00">    </text>
<text text-anchor="start" x="190.29" y="-90.4" font-family="Arial" font-size="14.00" fill="#666666">[SystemNumbers]</text>
<polygon fill="none" stroke="black" points="46.2,-46.2 46.2,-77 308.53,-77 308.53,-46.2 46.2,-46.2"/>
<text text-anchor="start" x="53.2" y="-58.4" font-family="Arial" font-size="14.00">number </text>
<text text-anchor="start" x="104.56" y="-58.4" font-family="Arial" font-size="14.00" fill="#666666">[UInt64]</text>
<polygon fill="none" stroke="black" stroke-width="3" points="44.7,-44.7 44.7,-114.1 310.03,-114.1 310.03,-44.7 44.7,-44.7"/>
</g>
</g>
</svg>
