<?xml version="1.0" encoding="UTF-8" standalone="no"?>
<!DOCTYPE svg PUBLIC "-//W3C//DTD SVG 1.1//EN"
 "http://www.w3.org/Graphics/SVG/1.1/DTD/svg11.dtd">
<!-- Generated by graphviz version 2.40.1 (20161225.0304)
 -->
<!-- Title: source_table Pages: 1 -->
<svg width="327pt" height="195pt"
 viewBox="0.00 0.00 327.00 195.00" xmlns="http://www.w3.org/2000/svg" xmlns:xlink="http://www.w3.org/1999/xlink">
<g id="graph0" class="graph" transform="scale(1 1) rotate(0) translate(4 191)">
<title>source_table</title>
<polygon fill="#ffffff" stroke="transparent" points="-4,4 -4,-191 323,-191 323,4 -4,4"/>
<!-- source_table -->
<g id="node1" class="node">
<title>source_table</title>
<polygon fill="#efefef" stroke="transparent" points="46.5,-105.5 46.5,-140.5 273.5,-140.5 273.5,-105.5 46.5,-105.5"/>
<polygon fill="none" stroke="#000000" points="46.5,-105.5 46.5,-140.5 273.5,-140.5 273.5,-105.5 46.5,-105.5"/>
<text text-anchor="start" x="53.2673" y="-118.3" font-family="Arial Bold" font-size="18.00" fill="#000000">source_table</text>
<text text-anchor="start" x="156.2993" y="-118.3" font-family="Arial" font-size="14.00" fill="#000000">    </text>
<text text-anchor="start" x="190.5041" y="-118.3" font-family="Arial" font-size="14.00" fill="#666666">[MergeTree]</text>
<polygon fill="none" stroke="#000000" points="46.5,-75.5 46.5,-105.5 273.5,-105.5 273.5,-75.5 46.5,-75.5"/>
<text text-anchor="start" x="53.5" y="-86.9" font-family="Arial" font-size="14.00" fill="#000000">id </text>
<text text-anchor="start" x="68.2798" y="-86.9" font-family="Arial" font-size="14.00" fill="#666666">[UInt64]</text>
<polygon fill="none" stroke="#000000" points="46.5,-45.5 46.5,-75.5 273.5,-75.5 273.5,-45.5 46.5,-45.5"/>
<text text-anchor="start" x="53.5" y="-56.9" font-family="Arial" font-size="14.00" fill="#000000">value </text>
<text text-anchor="start" x="90.845" y="-56.9" font-family="Arial" font-size="14.00" fill="#666666">[String]</text>
<polygon fill="none" stroke="#000000" stroke-width="3" points="44.5,-44.5 44.5,-142.5 274.5,-142.5 274.5,-44.5 44.5,-44.5"/>
</g>
</g>
</svg>
