<?xml version="1.0" encoding="UTF-8" standalone="no"?>
<!DOCTYPE svg PUBLIC "-//W3C//DTD SVG 1.1//EN"
 "http://www.w3.org/Graphics/SVG/1.1/DTD/svg11.dtd">
<!-- Generated by graphviz version 12.1.2 (20240928.0832)
 -->
<!-- Title: t1 Pages: 1 -->
<svg width="218pt" height="167pt"
 viewBox="0.00 0.00 217.86 166.80" xmlns="http://www.w3.org/2000/svg" xmlns:xlink="http://www.w3.org/1999/xlink">
<g id="graph0" class="graph" transform="scale(1 1) rotate(0) translate(4 162.8)">
<title>t1</title>
<polygon fill="white" stroke="none" points="-4,4 -4,-162.8 213.86,-162.8 213.86,4 -4,4"/>
<!-- t1 -->
<g id="node1" class="node">
<title>t1</title>
<polygon fill="#efefef" stroke="none" points="46.2,-77 46.2,-112.6 163.66,-112.6 163.66,-77 46.2,-77"/>
<polygon fill="none" stroke="black" points="46.2,-77 46.2,-112.6 163.66,-112.6 163.66,-77 46.2,-77"/>
<text text-anchor="start" x="53.2" y="-90.4" font-family="Arial Bold" font-size="18.00">t1</text>
<text text-anchor="start" x="67.2" y="-90.4" font-family="Arial" font-size="14.00">    </text>
<text text-anchor="start" x="98.32" y="-90.4" font-family="Arial" font-size="14.00" fill="#666666">[Memory]</text>
<polygon fill="none" stroke="black" points="46.2,-46.2 46.2,-77 163.66,-77 163.66,-46.2 46.2,-46.2"/>
<text text-anchor="start" x="53.2" y="-58.4" font-family="Arial" font-size="14.00">x </text>
<text text-anchor="start" x="64.09" y="-58.4" font-family="Arial" font-size="14.00" fill="#666666">[String]</text>
<polygon fill="none" stroke="black" stroke-width="3" points="44.7,-44.7 44.7,-114.1 165.16,-114.1 165.16,-44.7 44.7,-44.7"/>
</g>
</g>
</svg>
