<?xml version="1.0" encoding="UTF-8" standalone="no"?>
<!DOCTYPE svg PUBLIC "-//W3C//DTD SVG 1.1//EN"
 "http://www.w3.org/Graphics/SVG/1.1/DTD/svg11.dtd">
<!-- Generated by graphviz version 2.40.1 (20161225.0304)
 -->
<!-- Title: table_name Pages: 1 -->
<svg width="419pt" height="375pt"
 viewBox="0.00 0.00 419.00 375.00" xmlns="http://www.w3.org/2000/svg" xmlns:xlink="http://www.w3.org/1999/xlink">
<g id="graph0" class="graph" transform="scale(1 1) rotate(0) translate(4 371)">
<title>table_name</title>
<polygon fill="#ffffff" stroke="transparent" points="-4,4 -4,-371 415,-371 415,4 -4,4"/>
<!-- table_name -->
<g id="node1" class="node">
<title>table_name</title>
<polygon fill="#efefef" stroke="transparent" points="46.5,-285.5 46.5,-320.5 365.5,-320.5 365.5,-285.5 46.5,-285.5"/>
<polygon fill="none" stroke="#000000" points="46.5,-285.5 46.5,-320.5 365.5,-320.5 365.5,-285.5 46.5,-285.5"/>
<text text-anchor="start" x="103.7673" y="-298.3" font-family="Arial Bold" font-size="18.00" fill="#000000">table_name</text>
<text text-anchor="start" x="197.7993" y="-298.3" font-family="Arial" font-size="14.00" fill="#000000">    </text>
<text text-anchor="start" x="232.0041" y="-298.3" font-family="Arial" font-size="14.00" fill="#666666">[MergeTree]</text>
<polygon fill="none" stroke="#000000" points="46.5,-255.5 46.5,-285.5 365.5,-285.5 365.5,-255.5 46.5,-255.5"/>
<text text-anchor="start" x="53.5" y="-266.9" font-family="Arial" font-size="14.00" fill="#000000">name1 </text>
<text text-anchor="start" x="100.1816" y="-266.9" font-family="Arial" font-size="14.00" fill="#666666">[UInt64]</text>
<polygon fill="none" stroke="#000000" points="46.5,-225.5 46.5,-255.5 365.5,-255.5 365.5,-225.5 46.5,-225.5"/>
<text text-anchor="start" x="53.5" y="-236.9" font-family="Arial" font-size="14.00" fill="#000000">name2 </text>
<text text-anchor="start" x="100.1816" y="-236.9" font-family="Arial" font-size="14.00" fill="#666666">[Nullable(String)]</text>
<polygon fill="none" stroke="#000000" points="46.5,-195.5 46.5,-225.5 365.5,-225.5 365.5,-195.5 46.5,-195.5"/>
<text text-anchor="start" x="53.5" y="-206.9" font-family="Arial" font-size="14.00" fill="#000000">name3 </text>
<text text-anchor="start" x="100.1816" y="-206.9" font-family="Arial" font-size="14.00" fill="#666666">[LowCardinality(String)]</text>
<polygon fill="none" stroke="#000000" points="46.5,-165.5 46.5,-195.5 365.5,-195.5 365.5,-165.5 46.5,-165.5"/>
<text text-anchor="start" x="53.1361" y="-176.9" font-family="Arial" font-size="14.00" fill="#000000">name4 </text>
<text text-anchor="start" x="99.8177" y="-176.9" font-family="Arial" font-size="14.00" fill="#666666">[SimpleAggregateFunction(sum, Float64)]</text>
<polygon fill="none" stroke="#000000" points="46.5,-135.5 46.5,-165.5 365.5,-165.5 365.5,-135.5 46.5,-135.5"/>
<text text-anchor="start" x="53.5" y="-146.9" font-family="Arial" font-size="14.00" fill="#000000">name5 </text>
<text text-anchor="start" x="100.1816" y="-146.9" font-family="Arial" font-size="14.00" fill="#666666">[DateTime]</text>
<polygon fill="none" stroke="#000000" points="46.5,-105.5 46.5,-135.5 365.5,-135.5 365.5,-105.5 46.5,-105.5"/>
<text text-anchor="start" x="53.5" y="-116.9" font-family="Arial" font-size="14.00" fill="#000000">name6 </text>
<text text-anchor="start" x="100.1816" y="-116.9" font-family="Arial" font-size="14.00" fill="#666666">[String]</text>
<polygon fill="none" stroke="#000000" points="46.5,-75.5 46.5,-105.5 365.5,-105.5 365.5,-75.5 46.5,-75.5"/>
<text text-anchor="start" x="53.5" y="-86.9" font-family="Arial" font-size="14.00" fill="#000000">name7 </text>
<text text-anchor="start" x="100.1816" y="-86.9" font-family="Arial" font-size="14.00" fill="#666666">[String]</text>
<polygon fill="none" stroke="#000000" points="46.5,-45.5 46.5,-75.5 365.5,-75.5 365.5,-45.5 46.5,-45.5"/>
<text text-anchor="start" x="53.5" y="-56.9" font-family="Arial" font-size="14.00" fill="#000000">name8 </text>
<text text-anchor="start" x="100.1816" y="-56.9" font-family="Arial" font-size="14.00" fill="#666666">[FixedString(4)]</text>
<polygon fill="none" stroke="#000000" stroke-width="3" points="44.5,-44.5 44.5,-322.5 366.5,-322.5 366.5,-44.5 44.5,-44.5"/>
</g>
</g>
</svg>
