<?xml version="1.0" encoding="UTF-8" standalone="no"?>
<!DOCTYPE svg PUBLIC "-//W3C//DTD SVG 1.1//EN"
 "http://www.w3.org/Graphics/SVG/1.1/DTD/svg11.dtd">
<!-- Generated by graphviz version 12.1.2 (20240928.0832)
 -->
<!-- Title: table_name Pages: 1 -->
<svg width="420pt" height="382pt"
 viewBox="0.00 0.00 420.22 382.40" xmlns="http://www.w3.org/2000/svg" xmlns:xlink="http://www.w3.org/1999/xlink">
<g id="graph0" class="graph" transform="scale(1 1) rotate(0) translate(4 378.4)">
<title>table_name</title>
<polygon fill="white" stroke="none" points="-4,4 -4,-378.4 416.22,-378.4 416.22,4 -4,4"/>
<!-- table_name -->
<g id="node1" class="node">
<title>table_name</title>
<polygon fill="#efefef" stroke="none" points="46.2,-292.6 46.2,-328.2 366.02,-328.2 366.02,-292.6 46.2,-292.6"/>
<polygon fill="none" stroke="black" points="46.2,-292.6 46.2,-328.2 366.02,-328.2 366.02,-292.6 46.2,-292.6"/>
<text text-anchor="start" x="110.95" y="-306" font-family="Arial Bold" font-size="18.00">table_name</text>
<text text-anchor="start" x="193.91" y="-306" font-family="Arial" font-size="14.00">    </text>
<text text-anchor="start" x="225.02" y="-306" font-family="Arial" font-size="14.00" fill="#666666">[MergeTree]</text>
<polygon fill="none" stroke="black" points="46.2,-261.8 46.2,-292.6 366.02,-292.6 366.02,-261.8 46.2,-261.8"/>
<text text-anchor="start" x="53.2" y="-274" font-family="Arial" font-size="14.00">name1 </text>
<text text-anchor="start" x="99.9" y="-274" font-family="Arial" font-size="14.00" fill="#666666">[UInt64]</text>
<polygon fill="none" stroke="black" points="46.2,-231 46.2,-261.8 366.02,-261.8 366.02,-231 46.2,-231"/>
<text text-anchor="start" x="53.2" y="-243.2" font-family="Arial" font-size="14.00">name2 </text>
<text text-anchor="start" x="99.9" y="-243.2" font-family="Arial" font-size="14.00" fill="#666666">[Nullable(String)]</text>
<polygon fill="none" stroke="black" points="46.2,-200.2 46.2,-231 366.02,-231 366.02,-200.2 46.2,-200.2"/>
<text text-anchor="start" x="53.2" y="-212.4" font-family="Arial" font-size="14.00">name3 </text>
<text text-anchor="start" x="99.9" y="-212.4" font-family="Arial" font-size="14.00" fill="#666666">[LowCardinality(String)]</text>
<polygon fill="none" stroke="black" points="46.2,-169.4 46.2,-200.2 366.02,-200.2 366.02,-169.4 46.2,-169.4"/>
<text text-anchor="start" x="53.2" y="-181.6" font-family="Arial" font-size="14.00">name4 </text>
<text text-anchor="start" x="99.9" y="-181.6" font-family="Arial" font-size="14.00" fill="#666666">[SimpleAggregateFunction(sum, Float64)]</text>
<polygon fill="none" stroke="black" points="46.2,-138.6 46.2,-169.4 366.02,-169.4 366.02,-138.6 46.2,-138.6"/>
<text text-anchor="start" x="53.2" y="-150.8" font-family="Arial" font-size="14.00">name5 </text>
<text text-anchor="start" x="99.9" y="-150.8" font-family="Arial" font-size="14.00" fill="#666666">[DateTime]</text>
<polygon fill="none" stroke="black" points="46.2,-107.8 46.2,-138.6 366.02,-138.6 366.02,-107.8 46.2,-107.8"/>
<text text-anchor="start" x="53.2" y="-120" font-family="Arial" font-size="14.00">name6 </text>
<text text-anchor="start" x="99.9" y="-120" font-family="Arial" font-size="14.00" fill="#666666">[String]</text>
<polygon fill="none" stroke="black" points="46.2,-77 46.2,-107.8 366.02,-107.8 366.02,-77 46.2,-77"/>
<text text-anchor="start" x="53.2" y="-89.2" font-family="Arial" font-size="14.00">name7 </text>
<text text-anchor="start" x="99.9" y="-89.2" font-family="Arial" font-size="14.00" fill="#666666">[String]</text>
<polygon fill="none" stroke="black" points="46.2,-46.2 46.2,-77 366.02,-77 366.02,-46.2 46.2,-46.2"/>
<text text-anchor="start" x="53.2" y="-58.4" font-family="Arial" font-size="14.00">name8 </text>
<text text-anchor="start" x="99.9" y="-58.4" font-family="Arial" font-size="14.00" fill="#666666">[FixedString(4)]</text>
<polygon fill="none" stroke="black" stroke-width="3" points="44.7,-44.7 44.7,-329.7 367.52,-329.7 367.52,-44.7 44.7,-44.7"/>
</g>
</g>
</svg>
