<?xml version="1.0" encoding="UTF-8" standalone="no"?>
<!DOCTYPE svg PUBLIC "-//W3C//DTD SVG 1.1//EN"
 "http://www.w3.org/Graphics/SVG/1.1/DTD/svg11.dtd">
<!-- Generated by graphviz version 2.40.1 (20161225.0304)
 -->
<!-- Title: view Pages: 1 -->
<svg width="419pt" height="285pt"
 viewBox="0.00 0.00 419.00 285.00" xmlns="http://www.w3.org/2000/svg" xmlns:xlink="http://www.w3.org/1999/xlink">
<g id="graph0" class="graph" transform="scale(1 1) rotate(0) translate(4 281)">
<title>view</title>
<polygon fill="#ffffff" stroke="transparent" points="-4,4 -4,-281 415,-281 415,4 -4,4"/>
<!-- view -->
<g id="node1" class="node">
<title>view</title>
<polygon fill="#efefef" stroke="transparent" points="46.5,-195.5 46.5,-230.5 365.5,-230.5 365.5,-195.5 46.5,-195.5"/>
<polygon fill="none" stroke="#000000" points="46.5,-195.5 46.5,-230.5 365.5,-230.5 365.5,-195.5 46.5,-195.5"/>
<text text-anchor="start" x="151.8435" y="-208.3" font-family="Arial Bold" font-size="18.00" fill="#000000">view</text>
<text text-anchor="start" x="187.8381" y="-208.3" font-family="Arial" font-size="14.00" fill="#000000">    </text>
<text text-anchor="start" x="222.0429" y="-208.3" font-family="Arial" font-size="14.00" fill="#666666">[View]</text>
<polygon fill="none" stroke="#000000" points="46.5,-165.5 46.5,-195.5 365.5,-195.5 365.5,-165.5 46.5,-165.5"/>
<text text-anchor="start" x="53.5" y="-176.9" font-family="Arial" font-size="14.00" fill="#000000">name1 </text>
<text text-anchor="start" x="100.1816" y="-176.9" font-family="Arial" font-size="14.00" fill="#666666">[UInt64]</text>
<polygon fill="none" stroke="#000000" points="46.5,-135.5 46.5,-165.5 365.5,-165.5 365.5,-135.5 46.5,-135.5"/>
<text text-anchor="start" x="53.5" y="-146.9" font-family="Arial" font-size="14.00" fill="#000000">name2 </text>
<text text-anchor="start" x="100.1816" y="-146.9" font-family="Arial" font-size="14.00" fill="#666666">[Nullable(String)]</text>
<polygon fill="none" stroke="#000000" points="46.5,-105.5 46.5,-135.5 365.5,-135.5 365.5,-105.5 46.5,-105.5"/>
<text text-anchor="start" x="53.1361" y="-116.9" font-family="Arial" font-size="14.00" fill="#000000">name4 </text>
<text text-anchor="start" x="99.8177" y="-116.9" font-family="Arial" font-size="14.00" fill="#666666">[SimpleAggregateFunction(sum, Float64)]</text>
<polygon fill="none" stroke="#000000" points="46.5,-75.5 46.5,-105.5 365.5,-105.5 365.5,-75.5 46.5,-75.5"/>
<text text-anchor="start" x="53.5" y="-86.9" font-family="Arial" font-size="14.00" fill="#000000">name5 </text>
<text text-anchor="start" x="100.1816" y="-86.9" font-family="Arial" font-size="14.00" fill="#666666">[DateTime]</text>
<polygon fill="none" stroke="#000000" points="46.5,-45.5 46.5,-75.5 365.5,-75.5 365.5,-45.5 46.5,-45.5"/>
<text text-anchor="start" x="53.5" y="-56.9" font-family="Arial" font-size="14.00" fill="#000000">name8 </text>
<text text-anchor="start" x="100.1816" y="-56.9" font-family="Arial" font-size="14.00" fill="#666666">[FixedString(4)]</text>
<polygon fill="none" stroke="#000000" stroke-width="3" points="44.5,-44.5 44.5,-232.5 366.5,-232.5 366.5,-44.5 44.5,-44.5"/>
</g>
</g>
</svg>
