<?xml version="1.0" encoding="UTF-8" standalone="no"?>
<!DOCTYPE svg PUBLIC "-//W3C//DTD SVG 1.1//EN"
 "http://www.w3.org/Graphics/SVG/1.1/DTD/svg11.dtd">
<!-- Generated by graphviz version 2.40.1 (20161225.0304)
 -->
<!-- Title: comment_stars Pages: 1 -->
<svg width="983pt" height="1019pt"
 viewBox="0.00 0.00 983.00 1019.00" xmlns="http://www.w3.org/2000/svg" xmlns:xlink="http://www.w3.org/1999/xlink">
<g id="graph0" class="graph" transform="scale(1 1) rotate(0) translate(4 1015)">
<title>comment_stars</title>
<polygon fill="#ffffff" stroke="transparent" points="-4,4 -4,-1015 979,-1015 979,4 -4,4"/>
<!-- comment_stars -->
<g id="node1" class="node">
<title>comment_stars</title>
<polygon fill="#efefef" stroke="transparent" points="455,-562.5 455,-597.5 689,-597.5 689,-562.5 455,-562.5"/>
<polygon fill="none" stroke="#000000" points="455,-562.5 455,-597.5 689,-597.5 689,-562.5 455,-562.5"/>
<text text-anchor="start" x="461.8671" y="-575.3" font-family="Arial Bold" font-size="18.00" fill="#000000">comment_stars</text>
<text text-anchor="start" x="584.8791" y="-575.3" font-family="Arial" font-size="14.00" fill="#000000"> </text>
<text text-anchor="start" x="588.7697" y="-575.3" font-family="Arial" font-size="14.00" fill="#666666">[BASE TABLE]</text>
<polygon fill="none" stroke="#000000" points="455,-532.5 455,-562.5 689,-562.5 689,-532.5 455,-532.5"/>
<text text-anchor="start" x="462" y="-543.9" font-family="Arial" font-size="14.00" fill="#000000">id </text>
<text text-anchor="start" x="476.7798" y="-543.9" font-family="Arial" font-size="14.00" fill="#666666">[bigint]</text>
<polygon fill="none" stroke="#000000" points="455,-502.5 455,-532.5 689,-532.5 689,-502.5 455,-502.5"/>
<text text-anchor="start" x="462" y="-513.9" font-family="Arial" font-size="14.00" fill="#000000">user_id </text>
<text text-anchor="start" x="511.7882" y="-513.9" font-family="Arial" font-size="14.00" fill="#666666">[int]</text>
<polygon fill="none" stroke="#000000" points="455,-472.5 455,-502.5 689,-502.5 689,-472.5 455,-472.5"/>
<text text-anchor="start" x="462" y="-483.9" font-family="Arial" font-size="14.00" fill="#000000">comment_post_id </text>
<text text-anchor="start" x="576.3604" y="-483.9" font-family="Arial" font-size="14.00" fill="#666666">[bigint]</text>
<polygon fill="none" stroke="#000000" points="455,-442.5 455,-472.5 689,-472.5 689,-442.5 455,-442.5"/>
<text text-anchor="start" x="462" y="-453.9" font-family="Arial" font-size="14.00" fill="#000000">comment_user_id </text>
<text text-anchor="start" x="577.1304" y="-453.9" font-family="Arial" font-size="14.00" fill="#666666">[int]</text>
<polygon fill="none" stroke="#000000" points="455,-412.5 455,-442.5 689,-442.5 689,-412.5 455,-412.5"/>
<text text-anchor="start" x="462" y="-423.9" font-family="Arial" font-size="14.00" fill="#000000">created </text>
<text text-anchor="start" x="512.5722" y="-423.9" font-family="Arial" font-size="14.00" fill="#666666">[timestamp]</text>
<polygon fill="none" stroke="#000000" points="455,-382.5 455,-412.5 689,-412.5 689,-382.5 455,-382.5"/>
<text text-anchor="start" x="462" y="-393.9" font-family="Arial" font-size="14.00" fill="#000000">updated </text>
<text text-anchor="start" x="516.4768" y="-393.9" font-family="Arial" font-size="14.00" fill="#666666">[timestamp]</text>
<polygon fill="none" stroke="#000000" stroke-width="3" points="453.5,-381.5 453.5,-599.5 690.5,-599.5 690.5,-381.5 453.5,-381.5"/>
</g>
<!-- comments -->
<g id="node3" class="node">
<title>comments</title>
<polygon fill="#efefef" stroke="transparent" points="334,-222.5 334,-257.5 528,-257.5 528,-222.5 334,-222.5"/>
<polygon fill="none" stroke="#000000" points="334,-222.5 334,-257.5 528,-257.5 528,-222.5 334,-222.5"/>
<text text-anchor="start" x="340.8705" y="-235.3" font-family="Arial Bold" font-size="18.00" fill="#000000">comments</text>
<text text-anchor="start" x="423.8757" y="-235.3" font-family="Arial" font-size="14.00" fill="#000000"> </text>
<text text-anchor="start" x="427.7663" y="-235.3" font-family="Arial" font-size="14.00" fill="#666666">[BASE TABLE]</text>
<polygon fill="none" stroke="#000000" points="334,-192.5 334,-222.5 528,-222.5 528,-192.5 334,-192.5"/>
<text text-anchor="start" x="341" y="-203.9" font-family="Arial" font-size="14.00" fill="#000000">id </text>
<text text-anchor="start" x="355.7798" y="-203.9" font-family="Arial" font-size="14.00" fill="#666666">[bigint]</text>
<polygon fill="none" stroke="#000000" points="334,-162.5 334,-192.5 528,-192.5 528,-162.5 334,-162.5"/>
<text text-anchor="start" x="341" y="-173.9" font-family="Arial" font-size="14.00" fill="#000000">post_id </text>
<text text-anchor="start" x="390.0182" y="-173.9" font-family="Arial" font-size="14.00" fill="#666666">[bigint]</text>
<polygon fill="none" stroke="#000000" points="334,-132.5 334,-162.5 528,-162.5 528,-132.5 334,-132.5"/>
<text text-anchor="start" x="341" y="-143.9" font-family="Arial" font-size="14.00" fill="#000000">user_id </text>
<text text-anchor="start" x="390.7882" y="-143.9" font-family="Arial" font-size="14.00" fill="#666666">[int]</text>
<polygon fill="none" stroke="#000000" points="334,-102.5 334,-132.5 528,-132.5 528,-102.5 334,-102.5"/>
<text text-anchor="start" x="341" y="-113.9" font-family="Arial" font-size="14.00" fill="#000000">comment </text>
<text text-anchor="start" x="402.4502" y="-113.9" font-family="Arial" font-size="14.00" fill="#666666">[text]</text>
<polygon fill="none" stroke="#000000" points="334,-72.5 334,-102.5 528,-102.5 528,-72.5 334,-72.5"/>
<text text-anchor="start" x="341" y="-83.9" font-family="Arial" font-size="14.00" fill="#000000">created </text>
<text text-anchor="start" x="391.5722" y="-83.9" font-family="Arial" font-size="14.00" fill="#666666">[datetime]</text>
<polygon fill="none" stroke="#000000" points="334,-42.5 334,-72.5 528,-72.5 528,-42.5 334,-42.5"/>
<text text-anchor="start" x="341" y="-53.9" font-family="Arial" font-size="14.00" fill="#000000">updated </text>
<text text-anchor="start" x="395.4768" y="-53.9" font-family="Arial" font-size="14.00" fill="#666666">[datetime]</text>
</g>
<!-- comment_stars&#45;&gt;comments -->
<g id="edge2" class="edge">
<title>comment_stars:comment_post_id&#45;&gt;comments:post_id</title>
<path fill="none" stroke="#000000" d="M444.8939,-486.6807C391.575,-477.3622 421.6099,-390.6959 455,-337 474.1029,-306.2799 508.8971,-331.7201 528,-301 556.985,-254.3882 582.8889,-177.5 528,-177.5"/>
<polygon fill="#000000" stroke="#000000" points="445.0327,-486.6918 454.6363,-491.9853 450.0164,-487.0959 455,-487.5 455,-487.5 455,-487.5 450.0164,-487.0959 455.3637,-483.0147 445.0327,-486.6918 445.0327,-486.6918"/>
<text text-anchor="start" x="7.1435" y="-497.5" font-family="Arial" font-size="10.00" fill="#000000">FOREIGN KEY (comment_post_id, comment_user_id) REFERENCES comments (post_id, user_id)</text>
</g>
<!-- users -->
<g id="node4" class="node">
<title>users</title>
<polygon fill="#efefef" stroke="transparent" points="633,-222.5 633,-257.5 792,-257.5 792,-222.5 633,-222.5"/>
<polygon fill="none" stroke="#000000" points="633,-222.5 633,-257.5 792,-257.5 792,-222.5 633,-222.5"/>
<text text-anchor="start" x="641.8708" y="-235.3" font-family="Arial Bold" font-size="18.00" fill="#000000">users</text>
<text text-anchor="start" x="685.8754" y="-235.3" font-family="Arial" font-size="14.00" fill="#000000"> </text>
<text text-anchor="start" x="689.766" y="-235.3" font-family="Arial" font-size="14.00" fill="#666666">[BASE TABLE]</text>
<polygon fill="none" stroke="#000000" points="633,-192.5 633,-222.5 792,-222.5 792,-192.5 633,-192.5"/>
<text text-anchor="start" x="640" y="-203.9" font-family="Arial" font-size="14.00" fill="#000000">id </text>
<text text-anchor="start" x="654.7798" y="-203.9" font-family="Arial" font-size="14.00" fill="#666666">[int]</text>
<polygon fill="none" stroke="#000000" points="633,-162.5 633,-192.5 792,-192.5 792,-162.5 633,-162.5"/>
<text text-anchor="start" x="639.7693" y="-173.9" font-family="Arial" font-size="14.00" fill="#000000">username </text>
<text text-anchor="start" x="705.8941" y="-173.9" font-family="Arial" font-size="14.00" fill="#666666">[varchar(50)]</text>
<polygon fill="none" stroke="#000000" points="633,-132.5 633,-162.5 792,-162.5 792,-132.5 633,-132.5"/>
<text text-anchor="start" x="640" y="-143.9" font-family="Arial" font-size="14.00" fill="#000000">password </text>
<text text-anchor="start" x="703.7882" y="-143.9" font-family="Arial" font-size="14.00" fill="#666666">[varchar(50)]</text>
<polygon fill="none" stroke="#000000" points="633,-102.5 633,-132.5 792,-132.5 792,-102.5 633,-102.5"/>
<text text-anchor="start" x="640" y="-113.9" font-family="Arial" font-size="14.00" fill="#000000">email </text>
<text text-anchor="start" x="677.3296" y="-113.9" font-family="Arial" font-size="14.00" fill="#666666">[varchar(355)]</text>
<polygon fill="none" stroke="#000000" points="633,-72.5 633,-102.5 792,-102.5 792,-72.5 633,-72.5"/>
<text text-anchor="start" x="640" y="-83.9" font-family="Arial" font-size="14.00" fill="#000000">created </text>
<text text-anchor="start" x="690.5722" y="-83.9" font-family="Arial" font-size="14.00" fill="#666666">[timestamp]</text>
<polygon fill="none" stroke="#000000" points="633,-42.5 633,-72.5 792,-72.5 792,-42.5 633,-42.5"/>
<text text-anchor="start" x="640" y="-53.9" font-family="Arial" font-size="14.00" fill="#000000">updated </text>
<text text-anchor="start" x="694.4768" y="-53.9" font-family="Arial" font-size="14.00" fill="#666666">[timestamp]</text>
</g>
<!-- comment_stars&#45;&gt;users -->
<g id="edge3" class="edge">
<title>comment_stars:comment_user_id&#45;&gt;users:id</title>
<path fill="none" stroke="#000000" d="M699.118,-456.4447C738.6442,-447.2959 712.8587,-380.7012 689,-337 674.8217,-311.0301 647.1783,-326.9699 633,-301 613.0871,-264.5262 591.4444,-207.5 633,-207.5"/>
<polygon fill="#000000" stroke="#000000" points="698.9461,-456.4626 688.5332,-453.0243 693.973,-456.9813 689,-457.5 689,-457.5 689,-457.5 693.973,-456.9813 689.4668,-461.9757 698.9461,-456.4626 698.9461,-456.4626"/>
<text text-anchor="start" x="695.6085" y="-467.5" font-family="Arial" font-size="10.00" fill="#000000">FOREIGN KEY (comment_user_id) REFERENCES users (id)</text>
</g>
<!-- logs -->
<g id="node2" class="node">
<title>logs</title>
<polygon fill="#efefef" stroke="transparent" points="489,-932.5 489,-967.5 655,-967.5 655,-932.5 489,-932.5"/>
<polygon fill="none" stroke="#000000" points="489,-932.5 489,-967.5 655,-967.5 655,-932.5 489,-932.5"/>
<text text-anchor="start" x="506.8698" y="-945.3" font-family="Arial Bold" font-size="18.00" fill="#000000">logs</text>
<text text-anchor="start" x="539.8764" y="-945.3" font-family="Arial" font-size="14.00" fill="#000000"> </text>
<text text-anchor="start" x="543.767" y="-945.3" font-family="Arial" font-size="14.00" fill="#666666">[BASE TABLE]</text>
<polygon fill="none" stroke="#000000" points="489,-902.5 489,-932.5 655,-932.5 655,-902.5 489,-902.5"/>
<text text-anchor="start" x="496" y="-913.9" font-family="Arial" font-size="14.00" fill="#000000">id </text>
<text text-anchor="start" x="510.7798" y="-913.9" font-family="Arial" font-size="14.00" fill="#666666">[bigint]</text>
<polygon fill="none" stroke="#000000" points="489,-872.5 489,-902.5 655,-902.5 655,-872.5 489,-872.5"/>
<text text-anchor="start" x="496" y="-883.9" font-family="Arial" font-size="14.00" fill="#000000">user_id </text>
<text text-anchor="start" x="545.7882" y="-883.9" font-family="Arial" font-size="14.00" fill="#666666">[int]</text>
<polygon fill="none" stroke="#000000" points="489,-842.5 489,-872.5 655,-872.5 655,-842.5 489,-842.5"/>
<text text-anchor="start" x="496" y="-853.9" font-family="Arial" font-size="14.00" fill="#000000">post_id </text>
<text text-anchor="start" x="545.0182" y="-853.9" font-family="Arial" font-size="14.00" fill="#666666">[bigint]</text>
<polygon fill="none" stroke="#000000" points="489,-812.5 489,-842.5 655,-842.5 655,-812.5 489,-812.5"/>
<text text-anchor="start" x="496" y="-823.9" font-family="Arial" font-size="14.00" fill="#000000">comment_id </text>
<text text-anchor="start" x="576.122" y="-823.9" font-family="Arial" font-size="14.00" fill="#666666">[bigint]</text>
<polygon fill="none" stroke="#000000" points="489,-782.5 489,-812.5 655,-812.5 655,-782.5 489,-782.5"/>
<text text-anchor="start" x="495.7644" y="-793.9" font-family="Arial" font-size="14.00" fill="#000000">comment_star_id </text>
<text text-anchor="start" x="607.0028" y="-793.9" font-family="Arial" font-size="14.00" fill="#666666">[bigint]</text>
<polygon fill="none" stroke="#000000" points="489,-752.5 489,-782.5 655,-782.5 655,-752.5 489,-752.5"/>
<text text-anchor="start" x="496" y="-763.9" font-family="Arial" font-size="14.00" fill="#000000">payload </text>
<text text-anchor="start" x="548.9102" y="-763.9" font-family="Arial" font-size="14.00" fill="#666666">[text]</text>
<polygon fill="none" stroke="#000000" points="489,-722.5 489,-752.5 655,-752.5 655,-722.5 489,-722.5"/>
<text text-anchor="start" x="496" y="-733.9" font-family="Arial" font-size="14.00" fill="#000000">created </text>
<text text-anchor="start" x="546.5722" y="-733.9" font-family="Arial" font-size="14.00" fill="#666666">[datetime]</text>
</g>
<!-- logs&#45;&gt;comment_stars -->
<g id="edge1" class="edge">
<title>logs:comment_star_id&#45;&gt;comment_stars:id</title>
<path fill="none" stroke="#000000" stroke-dasharray="5,2" d="M665.2816,-796.7828C769.1162,-782.1191 797.6298,-547.5 689,-547.5"/>
<polygon fill="#000000" stroke="#000000" points="664.9758,-796.8041 654.6868,-793.0109 659.9879,-797.152 655,-797.5 655,-797.5 655,-797.5 659.9879,-797.152 655.3132,-801.9891 664.9758,-796.8041 664.9758,-796.8041"/>
<text text-anchor="start" x="662.3245" y="-807.5" font-family="Arial" font-size="10.00" fill="#000000">Additional Relation</text>
</g>
</g>
</svg>
