<?xml version="1.0" encoding="UTF-8" standalone="no"?>
<!DOCTYPE svg PUBLIC "-//W3C//DTD SVG 1.1//EN"
 "http://www.w3.org/Graphics/SVG/1.1/DTD/svg11.dtd">
<!-- Generated by graphviz version 2.40.1 (20161225.0304)
 -->
<!-- Title: posts Pages: 1 -->
<svg width="648pt" height="1049pt"
 viewBox="0.00 0.00 648.00 1049.00" xmlns="http://www.w3.org/2000/svg" xmlns:xlink="http://www.w3.org/1999/xlink">
<g id="graph0" class="graph" transform="scale(1 1) rotate(0) translate(4 1045)">
<title>posts</title>
<polygon fill="#ffffff" stroke="transparent" points="-4,4 -4,-1045 644,-1045 644,4 -4,4"/>
<!-- posts -->
<g id="node1" class="node">
<title>posts</title>
<polygon fill="#efefef" stroke="transparent" points="240,-592.5 240,-627.5 503,-627.5 503,-592.5 240,-592.5"/>
<polygon fill="none" stroke="#000000" points="240,-592.5 240,-627.5 503,-627.5 503,-592.5 240,-592.5"/>
<text text-anchor="start" x="301.3658" y="-605.3" font-family="Arial Bold" font-size="18.00" fill="#000000">posts</text>
<text text-anchor="start" x="344.3804" y="-605.3" font-family="Arial" font-size="14.00" fill="#000000"> </text>
<text text-anchor="start" x="348.271" y="-605.3" font-family="Arial" font-size="14.00" fill="#666666">[BASE TABLE]</text>
<polygon fill="none" stroke="#000000" points="240,-562.5 240,-592.5 503,-592.5 503,-562.5 240,-562.5"/>
<text text-anchor="start" x="247" y="-573.9" font-family="Arial" font-size="14.00" fill="#000000">id </text>
<text text-anchor="start" x="261.7798" y="-573.9" font-family="Arial" font-size="14.00" fill="#666666">[bigint]</text>
<polygon fill="none" stroke="#000000" points="240,-532.5 240,-562.5 503,-562.5 503,-532.5 240,-532.5"/>
<text text-anchor="start" x="247" y="-543.9" font-family="Arial" font-size="14.00" fill="#000000">user_id </text>
<text text-anchor="start" x="296.7882" y="-543.9" font-family="Arial" font-size="14.00" fill="#666666">[int]</text>
<polygon fill="none" stroke="#000000" points="240,-502.5 240,-532.5 503,-532.5 503,-502.5 240,-502.5"/>
<text text-anchor="start" x="247" y="-513.9" font-family="Arial" font-size="14.00" fill="#000000">title </text>
<text text-anchor="start" x="272.6676" y="-513.9" font-family="Arial" font-size="14.00" fill="#666666">[varchar(255)]</text>
<polygon fill="none" stroke="#000000" points="240,-472.5 240,-502.5 503,-502.5 503,-472.5 240,-472.5"/>
<text text-anchor="start" x="247" y="-483.9" font-family="Arial" font-size="14.00" fill="#000000">body </text>
<text text-anchor="start" x="281.2384" y="-483.9" font-family="Arial" font-size="14.00" fill="#666666">[text]</text>
<polygon fill="none" stroke="#000000" points="240,-442.5 240,-472.5 503,-472.5 503,-442.5 240,-442.5"/>
<text text-anchor="start" x="246.697" y="-453.9" font-family="Arial" font-size="14.00" fill="#000000">post_type </text>
<text text-anchor="start" x="311.2818" y="-453.9" font-family="Arial" font-size="14.00" fill="#666666">[enum(&#39;public&#39;,&#39;private&#39;,&#39;draft&#39;)]</text>
<polygon fill="none" stroke="#000000" points="240,-412.5 240,-442.5 503,-442.5 503,-412.5 240,-412.5"/>
<text text-anchor="start" x="247" y="-423.9" font-family="Arial" font-size="14.00" fill="#000000">created </text>
<text text-anchor="start" x="297.5722" y="-423.9" font-family="Arial" font-size="14.00" fill="#666666">[datetime]</text>
<polygon fill="none" stroke="#000000" points="240,-382.5 240,-412.5 503,-412.5 503,-382.5 240,-382.5"/>
<text text-anchor="start" x="247" y="-393.9" font-family="Arial" font-size="14.00" fill="#000000">updated </text>
<text text-anchor="start" x="301.4768" y="-393.9" font-family="Arial" font-size="14.00" fill="#666666">[datetime]</text>
<polygon fill="none" stroke="#000000" stroke-width="3" points="238,-381.5 238,-629.5 504,-629.5 504,-381.5 238,-381.5"/>
</g>
<!-- users -->
<g id="node4" class="node">
<title>users</title>
<polygon fill="#efefef" stroke="transparent" points="292,-222.5 292,-257.5 451,-257.5 451,-222.5 292,-222.5"/>
<polygon fill="none" stroke="#000000" points="292,-222.5 292,-257.5 451,-257.5 451,-222.5 292,-222.5"/>
<text text-anchor="start" x="300.8708" y="-235.3" font-family="Arial Bold" font-size="18.00" fill="#000000">users</text>
<text text-anchor="start" x="344.8754" y="-235.3" font-family="Arial" font-size="14.00" fill="#000000"> </text>
<text text-anchor="start" x="348.766" y="-235.3" font-family="Arial" font-size="14.00" fill="#666666">[BASE TABLE]</text>
<polygon fill="none" stroke="#000000" points="292,-192.5 292,-222.5 451,-222.5 451,-192.5 292,-192.5"/>
<text text-anchor="start" x="299" y="-203.9" font-family="Arial" font-size="14.00" fill="#000000">id </text>
<text text-anchor="start" x="313.7798" y="-203.9" font-family="Arial" font-size="14.00" fill="#666666">[int]</text>
<polygon fill="none" stroke="#000000" points="292,-162.5 292,-192.5 451,-192.5 451,-162.5 292,-162.5"/>
<text text-anchor="start" x="298.7693" y="-173.9" font-family="Arial" font-size="14.00" fill="#000000">username </text>
<text text-anchor="start" x="364.8941" y="-173.9" font-family="Arial" font-size="14.00" fill="#666666">[varchar(50)]</text>
<polygon fill="none" stroke="#000000" points="292,-132.5 292,-162.5 451,-162.5 451,-132.5 292,-132.5"/>
<text text-anchor="start" x="299" y="-143.9" font-family="Arial" font-size="14.00" fill="#000000">password </text>
<text text-anchor="start" x="362.7882" y="-143.9" font-family="Arial" font-size="14.00" fill="#666666">[varchar(50)]</text>
<polygon fill="none" stroke="#000000" points="292,-102.5 292,-132.5 451,-132.5 451,-102.5 292,-102.5"/>
<text text-anchor="start" x="299" y="-113.9" font-family="Arial" font-size="14.00" fill="#000000">email </text>
<text text-anchor="start" x="336.3296" y="-113.9" font-family="Arial" font-size="14.00" fill="#666666">[varchar(355)]</text>
<polygon fill="none" stroke="#000000" points="292,-72.5 292,-102.5 451,-102.5 451,-72.5 292,-72.5"/>
<text text-anchor="start" x="299" y="-83.9" font-family="Arial" font-size="14.00" fill="#000000">created </text>
<text text-anchor="start" x="349.5722" y="-83.9" font-family="Arial" font-size="14.00" fill="#666666">[timestamp]</text>
<polygon fill="none" stroke="#000000" points="292,-42.5 292,-72.5 451,-72.5 451,-42.5 292,-42.5"/>
<text text-anchor="start" x="299" y="-53.9" font-family="Arial" font-size="14.00" fill="#000000">updated </text>
<text text-anchor="start" x="353.4768" y="-53.9" font-family="Arial" font-size="14.00" fill="#666666">[timestamp]</text>
</g>
<!-- posts&#45;&gt;users -->
<g id="edge3" class="edge">
<title>posts:user_id&#45;&gt;users:id</title>
<path fill="none" stroke="#000000" d="M230.0082,-546.9931C89.5186,-532.3981 142.5653,-207.5 292,-207.5"/>
<polygon fill="#000000" stroke="#000000" points="230.0128,-546.9933 239.772,-551.9942 235.0064,-547.2466 240,-547.5 240,-547.5 240,-547.5 235.0064,-547.2466 240.228,-543.0058 230.0128,-546.9933 230.0128,-546.9933"/>
<text text-anchor="start" x="6.945" y="-557.5" font-family="Arial" font-size="10.00" fill="#000000">FOREIGN KEY (user_id) REFERENCES users (id)</text>
</g>
<!-- comments -->
<g id="node2" class="node">
<title>comments</title>
<polygon fill="#efefef" stroke="transparent" points="133,-962.5 133,-997.5 327,-997.5 327,-962.5 133,-962.5"/>
<polygon fill="none" stroke="#000000" points="133,-962.5 133,-997.5 327,-997.5 327,-962.5 133,-962.5"/>
<text text-anchor="start" x="139.8705" y="-975.3" font-family="Arial Bold" font-size="18.00" fill="#000000">comments</text>
<text text-anchor="start" x="222.8757" y="-975.3" font-family="Arial" font-size="14.00" fill="#000000"> </text>
<text text-anchor="start" x="226.7663" y="-975.3" font-family="Arial" font-size="14.00" fill="#666666">[BASE TABLE]</text>
<polygon fill="none" stroke="#000000" points="133,-932.5 133,-962.5 327,-962.5 327,-932.5 133,-932.5"/>
<text text-anchor="start" x="140" y="-943.9" font-family="Arial" font-size="14.00" fill="#000000">id </text>
<text text-anchor="start" x="154.7798" y="-943.9" font-family="Arial" font-size="14.00" fill="#666666">[bigint]</text>
<polygon fill="none" stroke="#000000" points="133,-902.5 133,-932.5 327,-932.5 327,-902.5 133,-902.5"/>
<text text-anchor="start" x="140" y="-913.9" font-family="Arial" font-size="14.00" fill="#000000">post_id </text>
<text text-anchor="start" x="189.0182" y="-913.9" font-family="Arial" font-size="14.00" fill="#666666">[bigint]</text>
<polygon fill="none" stroke="#000000" points="133,-872.5 133,-902.5 327,-902.5 327,-872.5 133,-872.5"/>
<text text-anchor="start" x="140" y="-883.9" font-family="Arial" font-size="14.00" fill="#000000">user_id </text>
<text text-anchor="start" x="189.7882" y="-883.9" font-family="Arial" font-size="14.00" fill="#666666">[int]</text>
<polygon fill="none" stroke="#000000" points="133,-842.5 133,-872.5 327,-872.5 327,-842.5 133,-842.5"/>
<text text-anchor="start" x="140" y="-853.9" font-family="Arial" font-size="14.00" fill="#000000">comment </text>
<text text-anchor="start" x="201.4502" y="-853.9" font-family="Arial" font-size="14.00" fill="#666666">[text]</text>
<polygon fill="none" stroke="#000000" points="133,-812.5 133,-842.5 327,-842.5 327,-812.5 133,-812.5"/>
<text text-anchor="start" x="140" y="-823.9" font-family="Arial" font-size="14.00" fill="#000000">post_id_desc </text>
<text text-anchor="start" x="226.366" y="-823.9" font-family="Arial" font-size="14.00" fill="#666666">[bigint]</text>
<polygon fill="none" stroke="#000000" points="133,-782.5 133,-812.5 327,-812.5 327,-782.5 133,-782.5"/>
<text text-anchor="start" x="140" y="-793.9" font-family="Arial" font-size="14.00" fill="#000000">created </text>
<text text-anchor="start" x="190.5722" y="-793.9" font-family="Arial" font-size="14.00" fill="#666666">[datetime]</text>
<polygon fill="none" stroke="#000000" points="133,-752.5 133,-782.5 327,-782.5 327,-752.5 133,-752.5"/>
<text text-anchor="start" x="140" y="-763.9" font-family="Arial" font-size="14.00" fill="#000000">updated </text>
<text text-anchor="start" x="194.4768" y="-763.9" font-family="Arial" font-size="14.00" fill="#666666">[datetime]</text>
</g>
<!-- comments&#45;&gt;posts -->
<g id="edge1" class="edge">
<title>comments:post_id&#45;&gt;posts:id</title>
<path fill="none" stroke="#000000" d="M336.6172,-914.5456C369.8788,-891.8665 350.6229,-745.3404 327,-710 303.7452,-675.2103 263.2548,-708.7897 240,-674 216.1658,-638.3435 197.1111,-577.5 240,-577.5"/>
<polygon fill="#000000" stroke="#000000" points="336.5591,-914.5633 325.6785,-913.1984 331.7796,-916.0317 327,-917.5 327,-917.5 327,-917.5 331.7796,-916.0317 328.3215,-921.8016 336.5591,-914.5633 336.5591,-914.5633"/>
<text text-anchor="start" x="334.495" y="-927.5" font-family="Arial" font-size="10.00" fill="#000000">FOREIGN KEY (post_id) REFERENCES posts (id)</text>
</g>
<!-- logs -->
<g id="node3" class="node">
<title>logs</title>
<polygon fill="#efefef" stroke="transparent" points="431,-962.5 431,-997.5 597,-997.5 597,-962.5 431,-962.5"/>
<polygon fill="none" stroke="#000000" points="431,-962.5 431,-997.5 597,-997.5 597,-962.5 431,-962.5"/>
<text text-anchor="start" x="448.8698" y="-975.3" font-family="Arial Bold" font-size="18.00" fill="#000000">logs</text>
<text text-anchor="start" x="481.8764" y="-975.3" font-family="Arial" font-size="14.00" fill="#000000"> </text>
<text text-anchor="start" x="485.767" y="-975.3" font-family="Arial" font-size="14.00" fill="#666666">[BASE TABLE]</text>
<polygon fill="none" stroke="#000000" points="431,-932.5 431,-962.5 597,-962.5 597,-932.5 431,-932.5"/>
<text text-anchor="start" x="438" y="-943.9" font-family="Arial" font-size="14.00" fill="#000000">id </text>
<text text-anchor="start" x="452.7798" y="-943.9" font-family="Arial" font-size="14.00" fill="#666666">[bigint]</text>
<polygon fill="none" stroke="#000000" points="431,-902.5 431,-932.5 597,-932.5 597,-902.5 431,-902.5"/>
<text text-anchor="start" x="438" y="-913.9" font-family="Arial" font-size="14.00" fill="#000000">user_id </text>
<text text-anchor="start" x="487.7882" y="-913.9" font-family="Arial" font-size="14.00" fill="#666666">[int]</text>
<polygon fill="none" stroke="#000000" points="431,-872.5 431,-902.5 597,-902.5 597,-872.5 431,-872.5"/>
<text text-anchor="start" x="438" y="-883.9" font-family="Arial" font-size="14.00" fill="#000000">post_id </text>
<text text-anchor="start" x="487.0182" y="-883.9" font-family="Arial" font-size="14.00" fill="#666666">[bigint]</text>
<polygon fill="none" stroke="#000000" points="431,-842.5 431,-872.5 597,-872.5 597,-842.5 431,-842.5"/>
<text text-anchor="start" x="438" y="-853.9" font-family="Arial" font-size="14.00" fill="#000000">comment_id </text>
<text text-anchor="start" x="518.122" y="-853.9" font-family="Arial" font-size="14.00" fill="#666666">[bigint]</text>
<polygon fill="none" stroke="#000000" points="431,-812.5 431,-842.5 597,-842.5 597,-812.5 431,-812.5"/>
<text text-anchor="start" x="437.7644" y="-823.9" font-family="Arial" font-size="14.00" fill="#000000">comment_star_id </text>
<text text-anchor="start" x="549.0028" y="-823.9" font-family="Arial" font-size="14.00" fill="#666666">[bigint]</text>
<polygon fill="none" stroke="#000000" points="431,-782.5 431,-812.5 597,-812.5 597,-782.5 431,-782.5"/>
<text text-anchor="start" x="438" y="-793.9" font-family="Arial" font-size="14.00" fill="#000000">payload </text>
<text text-anchor="start" x="490.9102" y="-793.9" font-family="Arial" font-size="14.00" fill="#666666">[text]</text>
<polygon fill="none" stroke="#000000" points="431,-752.5 431,-782.5 597,-782.5 597,-752.5 431,-752.5"/>
<text text-anchor="start" x="438" y="-763.9" font-family="Arial" font-size="14.00" fill="#000000">created </text>
<text text-anchor="start" x="488.5722" y="-763.9" font-family="Arial" font-size="14.00" fill="#666666">[datetime]</text>
</g>
<!-- logs&#45;&gt;posts -->
<g id="edge2" class="edge">
<title>logs:post_id&#45;&gt;posts:id</title>
<path fill="none" stroke="#000000" stroke-dasharray="5,2" d="M420.6613,-886.7881C355.6276,-877.2458 391.4698,-773.9613 431,-710 449.8091,-679.5662 484.1909,-704.4338 503,-674 525.548,-637.5165 545.8889,-577.5 503,-577.5"/>
<polygon fill="#000000" stroke="#000000" points="421.0236,-886.813 430.6908,-891.9894 426.0118,-887.1565 431,-887.5 431,-887.5 431,-887.5 426.0118,-887.1565 431.3092,-883.0106 421.0236,-886.813 421.0236,-886.813"/>
<text text-anchor="start" x="341.3245" y="-897.5" font-family="Arial" font-size="10.00" fill="#000000">Additional Relation</text>
</g>
</g>
</svg>
