<?xml version="1.0" encoding="UTF-8" standalone="no"?>
<!DOCTYPE svg PUBLIC "-//W3C//DTD SVG 1.1//EN"
 "http://www.w3.org/Graphics/SVG/1.1/DTD/svg11.dtd">
<!-- Generated by graphviz version 2.40.1 (20161225.0304)
 -->
<!-- Title: users Pages: 1 -->
<svg width="1582pt" height="682pt"
 viewBox="0.00 0.00 1582.00 682.00" xmlns="http://www.w3.org/2000/svg" xmlns:xlink="http://www.w3.org/1999/xlink">
<g id="graph0" class="graph" transform="scale(1 1) rotate(0) translate(4 678)">
<title>users</title>
<polygon fill="#ffffff" stroke="transparent" points="-4,4 -4,-678 1578,-678 1578,4 -4,4"/>
<!-- users -->
<g id="node1" class="node">
<title>users</title>
<polygon fill="#efefef" stroke="transparent" points="732,-225.5 732,-260.5 891,-260.5 891,-225.5 732,-225.5"/>
<polygon fill="none" stroke="#000000" points="732,-225.5 732,-260.5 891,-260.5 891,-225.5 732,-225.5"/>
<text text-anchor="start" x="740.8708" y="-238.3" font-family="Arial Bold" font-size="18.00" fill="#000000">users</text>
<text text-anchor="start" x="784.8754" y="-238.3" font-family="Arial" font-size="14.00" fill="#000000"> </text>
<text text-anchor="start" x="788.766" y="-238.3" font-family="Arial" font-size="14.00" fill="#666666">[BASE TABLE]</text>
<polygon fill="none" stroke="#000000" points="732,-195.5 732,-225.5 891,-225.5 891,-195.5 732,-195.5"/>
<text text-anchor="start" x="739" y="-206.9" font-family="Arial" font-size="14.00" fill="#000000">id </text>
<text text-anchor="start" x="753.7798" y="-206.9" font-family="Arial" font-size="14.00" fill="#666666">[int]</text>
<polygon fill="none" stroke="#000000" points="732,-165.5 732,-195.5 891,-195.5 891,-165.5 732,-165.5"/>
<text text-anchor="start" x="738.7693" y="-176.9" font-family="Arial" font-size="14.00" fill="#000000">username </text>
<text text-anchor="start" x="804.8941" y="-176.9" font-family="Arial" font-size="14.00" fill="#666666">[varchar(50)]</text>
<polygon fill="none" stroke="#000000" points="732,-135.5 732,-165.5 891,-165.5 891,-135.5 732,-135.5"/>
<text text-anchor="start" x="739" y="-146.9" font-family="Arial" font-size="14.00" fill="#000000">password </text>
<text text-anchor="start" x="802.7882" y="-146.9" font-family="Arial" font-size="14.00" fill="#666666">[varchar(50)]</text>
<polygon fill="none" stroke="#000000" points="732,-105.5 732,-135.5 891,-135.5 891,-105.5 732,-105.5"/>
<text text-anchor="start" x="739" y="-116.9" font-family="Arial" font-size="14.00" fill="#000000">email </text>
<text text-anchor="start" x="776.3296" y="-116.9" font-family="Arial" font-size="14.00" fill="#666666">[varchar(355)]</text>
<polygon fill="none" stroke="#000000" points="732,-75.5 732,-105.5 891,-105.5 891,-75.5 732,-75.5"/>
<text text-anchor="start" x="739" y="-86.9" font-family="Arial" font-size="14.00" fill="#000000">created </text>
<text text-anchor="start" x="789.5722" y="-86.9" font-family="Arial" font-size="14.00" fill="#666666">[timestamp]</text>
<polygon fill="none" stroke="#000000" points="732,-45.5 732,-75.5 891,-75.5 891,-45.5 732,-45.5"/>
<text text-anchor="start" x="739" y="-56.9" font-family="Arial" font-size="14.00" fill="#000000">updated </text>
<text text-anchor="start" x="793.4768" y="-56.9" font-family="Arial" font-size="14.00" fill="#666666">[timestamp]</text>
<polygon fill="none" stroke="#000000" stroke-width="3" points="730,-44.5 730,-262.5 892,-262.5 892,-44.5 730,-44.5"/>
</g>
<!-- comment_stars -->
<g id="node2" class="node">
<title>comment_stars</title>
<polygon fill="#efefef" stroke="transparent" points="43,-580.5 43,-615.5 277,-615.5 277,-580.5 43,-580.5"/>
<polygon fill="none" stroke="#000000" points="43,-580.5 43,-615.5 277,-615.5 277,-580.5 43,-580.5"/>
<text text-anchor="start" x="49.8671" y="-593.3" font-family="Arial Bold" font-size="18.00" fill="#000000">comment_stars</text>
<text text-anchor="start" x="172.8791" y="-593.3" font-family="Arial" font-size="14.00" fill="#000000"> </text>
<text text-anchor="start" x="176.7697" y="-593.3" font-family="Arial" font-size="14.00" fill="#666666">[BASE TABLE]</text>
<polygon fill="none" stroke="#000000" points="43,-550.5 43,-580.5 277,-580.5 277,-550.5 43,-550.5"/>
<text text-anchor="start" x="50" y="-561.9" font-family="Arial" font-size="14.00" fill="#000000">id </text>
<text text-anchor="start" x="64.7798" y="-561.9" font-family="Arial" font-size="14.00" fill="#666666">[bigint]</text>
<polygon fill="none" stroke="#000000" points="43,-520.5 43,-550.5 277,-550.5 277,-520.5 43,-520.5"/>
<text text-anchor="start" x="50" y="-531.9" font-family="Arial" font-size="14.00" fill="#000000">user_id </text>
<text text-anchor="start" x="99.7882" y="-531.9" font-family="Arial" font-size="14.00" fill="#666666">[int]</text>
<polygon fill="none" stroke="#000000" points="43,-490.5 43,-520.5 277,-520.5 277,-490.5 43,-490.5"/>
<text text-anchor="start" x="50" y="-501.9" font-family="Arial" font-size="14.00" fill="#000000">comment_post_id </text>
<text text-anchor="start" x="164.3604" y="-501.9" font-family="Arial" font-size="14.00" fill="#666666">[bigint]</text>
<polygon fill="none" stroke="#000000" points="43,-460.5 43,-490.5 277,-490.5 277,-460.5 43,-460.5"/>
<text text-anchor="start" x="50" y="-471.9" font-family="Arial" font-size="14.00" fill="#000000">comment_user_id </text>
<text text-anchor="start" x="165.1304" y="-471.9" font-family="Arial" font-size="14.00" fill="#666666">[int]</text>
<polygon fill="none" stroke="#000000" points="43,-430.5 43,-460.5 277,-460.5 277,-430.5 43,-430.5"/>
<text text-anchor="start" x="50" y="-441.9" font-family="Arial" font-size="14.00" fill="#000000">created </text>
<text text-anchor="start" x="100.5722" y="-441.9" font-family="Arial" font-size="14.00" fill="#666666">[timestamp]</text>
<polygon fill="none" stroke="#000000" points="43,-400.5 43,-430.5 277,-430.5 277,-400.5 43,-400.5"/>
<text text-anchor="start" x="50" y="-411.9" font-family="Arial" font-size="14.00" fill="#000000">updated </text>
<text text-anchor="start" x="104.4768" y="-411.9" font-family="Arial" font-size="14.00" fill="#666666">[timestamp]</text>
</g>
<!-- comment_stars&#45;&gt;users -->
<g id="edge1" class="edge">
<title>comment_stars:comment_user_id&#45;&gt;users:id</title>
<path fill="none" stroke="#000000" d="M287.2153,-474.5506C333.709,-464.8844 285.8089,-383.8241 329,-343 466.0222,-213.4871 543.4564,-210.5 732,-210.5"/>
<polygon fill="#000000" stroke="#000000" points="286.9571,-474.5745 276.5835,-471.0193 281.9785,-475.0372 277,-475.5 277,-475.5 277,-475.5 281.9785,-475.0372 277.4165,-479.9807 286.9571,-474.5745 286.9571,-474.5745"/>
<text text-anchor="start" x="140.6085" y="-459.5" font-family="Arial" font-size="10.00" fill="#000000">FOREIGN KEY (comment_user_id) REFERENCES users (id)</text>
</g>
<!-- comments -->
<g id="node3" class="node">
<title>comments</title>
<polygon fill="#efefef" stroke="transparent" points="381,-595.5 381,-630.5 575,-630.5 575,-595.5 381,-595.5"/>
<polygon fill="none" stroke="#000000" points="381,-595.5 381,-630.5 575,-630.5 575,-595.5 381,-595.5"/>
<text text-anchor="start" x="387.8705" y="-608.3" font-family="Arial Bold" font-size="18.00" fill="#000000">comments</text>
<text text-anchor="start" x="470.8757" y="-608.3" font-family="Arial" font-size="14.00" fill="#000000"> </text>
<text text-anchor="start" x="474.7663" y="-608.3" font-family="Arial" font-size="14.00" fill="#666666">[BASE TABLE]</text>
<polygon fill="none" stroke="#000000" points="381,-565.5 381,-595.5 575,-595.5 575,-565.5 381,-565.5"/>
<text text-anchor="start" x="388" y="-576.9" font-family="Arial" font-size="14.00" fill="#000000">id </text>
<text text-anchor="start" x="402.7798" y="-576.9" font-family="Arial" font-size="14.00" fill="#666666">[bigint]</text>
<polygon fill="none" stroke="#000000" points="381,-535.5 381,-565.5 575,-565.5 575,-535.5 381,-535.5"/>
<text text-anchor="start" x="388" y="-546.9" font-family="Arial" font-size="14.00" fill="#000000">post_id </text>
<text text-anchor="start" x="437.0182" y="-546.9" font-family="Arial" font-size="14.00" fill="#666666">[bigint]</text>
<polygon fill="none" stroke="#000000" points="381,-505.5 381,-535.5 575,-535.5 575,-505.5 381,-505.5"/>
<text text-anchor="start" x="388" y="-516.9" font-family="Arial" font-size="14.00" fill="#000000">user_id </text>
<text text-anchor="start" x="437.7882" y="-516.9" font-family="Arial" font-size="14.00" fill="#666666">[int]</text>
<polygon fill="none" stroke="#000000" points="381,-475.5 381,-505.5 575,-505.5 575,-475.5 381,-475.5"/>
<text text-anchor="start" x="388" y="-486.9" font-family="Arial" font-size="14.00" fill="#000000">comment </text>
<text text-anchor="start" x="449.4502" y="-486.9" font-family="Arial" font-size="14.00" fill="#666666">[text]</text>
<polygon fill="none" stroke="#000000" points="381,-445.5 381,-475.5 575,-475.5 575,-445.5 381,-445.5"/>
<text text-anchor="start" x="388" y="-456.9" font-family="Arial" font-size="14.00" fill="#000000">post_id_desc </text>
<text text-anchor="start" x="474.366" y="-456.9" font-family="Arial" font-size="14.00" fill="#666666">[bigint]</text>
<polygon fill="none" stroke="#000000" points="381,-415.5 381,-445.5 575,-445.5 575,-415.5 381,-415.5"/>
<text text-anchor="start" x="388" y="-426.9" font-family="Arial" font-size="14.00" fill="#000000">created </text>
<text text-anchor="start" x="438.5722" y="-426.9" font-family="Arial" font-size="14.00" fill="#666666">[datetime]</text>
<polygon fill="none" stroke="#000000" points="381,-385.5 381,-415.5 575,-415.5 575,-385.5 381,-385.5"/>
<text text-anchor="start" x="388" y="-396.9" font-family="Arial" font-size="14.00" fill="#000000">updated </text>
<text text-anchor="start" x="442.4768" y="-396.9" font-family="Arial" font-size="14.00" fill="#666666">[datetime]</text>
</g>
<!-- comments&#45;&gt;users -->
<g id="edge2" class="edge">
<title>comments:user_id&#45;&gt;users:id</title>
<path fill="none" stroke="#000000" d="M585.1923,-519.8797C651.3098,-511.1756 590.9155,-412.728 627,-343 661.5338,-276.2685 656.8623,-210.5 732,-210.5"/>
<polygon fill="#000000" stroke="#000000" points="584.9815,-519.8925 574.7266,-516.0083 579.9908,-520.1962 575,-520.5 575,-520.5 575,-520.5 579.9908,-520.1962 575.2734,-524.9917 584.9815,-519.8925 584.9815,-519.8925"/>
<text text-anchor="start" x="581.945" y="-530.5" font-family="Arial" font-size="10.00" fill="#000000">FOREIGN KEY (user_id) REFERENCES users (id)</text>
</g>
<!-- posts -->
<g id="node4" class="node">
<title>posts</title>
<polygon fill="#efefef" stroke="transparent" points="680,-595.5 680,-630.5 943,-630.5 943,-595.5 680,-595.5"/>
<polygon fill="none" stroke="#000000" points="680,-595.5 680,-630.5 943,-630.5 943,-595.5 680,-595.5"/>
<text text-anchor="start" x="741.3658" y="-608.3" font-family="Arial Bold" font-size="18.00" fill="#000000">posts</text>
<text text-anchor="start" x="784.3804" y="-608.3" font-family="Arial" font-size="14.00" fill="#000000"> </text>
<text text-anchor="start" x="788.271" y="-608.3" font-family="Arial" font-size="14.00" fill="#666666">[BASE TABLE]</text>
<polygon fill="none" stroke="#000000" points="680,-565.5 680,-595.5 943,-595.5 943,-565.5 680,-565.5"/>
<text text-anchor="start" x="687" y="-576.9" font-family="Arial" font-size="14.00" fill="#000000">id </text>
<text text-anchor="start" x="701.7798" y="-576.9" font-family="Arial" font-size="14.00" fill="#666666">[bigint]</text>
<polygon fill="none" stroke="#000000" points="680,-535.5 680,-565.5 943,-565.5 943,-535.5 680,-535.5"/>
<text text-anchor="start" x="687" y="-546.9" font-family="Arial" font-size="14.00" fill="#000000">user_id </text>
<text text-anchor="start" x="736.7882" y="-546.9" font-family="Arial" font-size="14.00" fill="#666666">[int]</text>
<polygon fill="none" stroke="#000000" points="680,-505.5 680,-535.5 943,-535.5 943,-505.5 680,-505.5"/>
<text text-anchor="start" x="687" y="-516.9" font-family="Arial" font-size="14.00" fill="#000000">title </text>
<text text-anchor="start" x="712.6676" y="-516.9" font-family="Arial" font-size="14.00" fill="#666666">[varchar(255)]</text>
<polygon fill="none" stroke="#000000" points="680,-475.5 680,-505.5 943,-505.5 943,-475.5 680,-475.5"/>
<text text-anchor="start" x="687" y="-486.9" font-family="Arial" font-size="14.00" fill="#000000">body </text>
<text text-anchor="start" x="721.2384" y="-486.9" font-family="Arial" font-size="14.00" fill="#666666">[text]</text>
<polygon fill="none" stroke="#000000" points="680,-445.5 680,-475.5 943,-475.5 943,-445.5 680,-445.5"/>
<text text-anchor="start" x="686.697" y="-456.9" font-family="Arial" font-size="14.00" fill="#000000">post_type </text>
<text text-anchor="start" x="751.2818" y="-456.9" font-family="Arial" font-size="14.00" fill="#666666">[enum(&#39;public&#39;,&#39;private&#39;,&#39;draft&#39;)]</text>
<polygon fill="none" stroke="#000000" points="680,-415.5 680,-445.5 943,-445.5 943,-415.5 680,-415.5"/>
<text text-anchor="start" x="687" y="-426.9" font-family="Arial" font-size="14.00" fill="#000000">created </text>
<text text-anchor="start" x="737.5722" y="-426.9" font-family="Arial" font-size="14.00" fill="#666666">[datetime]</text>
<polygon fill="none" stroke="#000000" points="680,-385.5 680,-415.5 943,-415.5 943,-385.5 680,-385.5"/>
<text text-anchor="start" x="687" y="-396.9" font-family="Arial" font-size="14.00" fill="#000000">updated </text>
<text text-anchor="start" x="741.4768" y="-396.9" font-family="Arial" font-size="14.00" fill="#666666">[datetime]</text>
</g>
<!-- posts&#45;&gt;users -->
<g id="edge3" class="edge">
<title>posts:user_id&#45;&gt;users:id</title>
<path fill="none" stroke="#000000" d="M670.0874,-548.3288C608.4946,-519.3721 659.1487,-210.5 732,-210.5"/>
<polygon fill="#000000" stroke="#000000" points="670.2316,-548.3603 679.0372,-554.8958 675.1158,-549.4302 680,-550.5 680,-550.5 680,-550.5 675.1158,-549.4302 680.9628,-546.1042 670.2316,-548.3603 670.2316,-548.3603"/>
<text text-anchor="start" x="686.945" y="-560.5" font-family="Arial" font-size="10.00" fill="#000000">FOREIGN KEY (user_id) REFERENCES users (id)</text>
</g>
<!-- user_options -->
<g id="node5" class="node">
<title>user_options</title>
<polygon fill="#efefef" stroke="transparent" points="1047,-550.5 1047,-585.5 1261,-585.5 1261,-550.5 1047,-550.5"/>
<polygon fill="none" stroke="#000000" points="1047,-550.5 1047,-585.5 1261,-585.5 1261,-550.5 1047,-550.5"/>
<text text-anchor="start" x="1053.8571" y="-563.3" font-family="Arial Bold" font-size="18.00" fill="#000000">user_options</text>
<text text-anchor="start" x="1156.8891" y="-563.3" font-family="Arial" font-size="14.00" fill="#000000"> </text>
<text text-anchor="start" x="1160.7797" y="-563.3" font-family="Arial" font-size="14.00" fill="#666666">[BASE TABLE]</text>
<polygon fill="none" stroke="#000000" points="1047,-520.5 1047,-550.5 1261,-550.5 1261,-520.5 1047,-520.5"/>
<text text-anchor="start" x="1054" y="-531.9" font-family="Arial" font-size="14.00" fill="#000000">user_id </text>
<text text-anchor="start" x="1103.7882" y="-531.9" font-family="Arial" font-size="14.00" fill="#666666">[int]</text>
<polygon fill="none" stroke="#000000" points="1047,-490.5 1047,-520.5 1261,-520.5 1261,-490.5 1047,-490.5"/>
<text text-anchor="start" x="1054" y="-501.9" font-family="Arial" font-size="14.00" fill="#000000">show_email </text>
<text text-anchor="start" x="1131.784" y="-501.9" font-family="Arial" font-size="14.00" fill="#666666">[tinyint(1)]</text>
<polygon fill="none" stroke="#000000" points="1047,-460.5 1047,-490.5 1261,-490.5 1261,-460.5 1047,-460.5"/>
<text text-anchor="start" x="1054" y="-471.9" font-family="Arial" font-size="14.00" fill="#000000">created </text>
<text text-anchor="start" x="1104.5722" y="-471.9" font-family="Arial" font-size="14.00" fill="#666666">[timestamp]</text>
<polygon fill="none" stroke="#000000" points="1047,-430.5 1047,-460.5 1261,-460.5 1261,-430.5 1047,-430.5"/>
<text text-anchor="start" x="1054" y="-441.9" font-family="Arial" font-size="14.00" fill="#000000">updated </text>
<text text-anchor="start" x="1108.4768" y="-441.9" font-family="Arial" font-size="14.00" fill="#666666">[timestamp]</text>
</g>
<!-- user_options&#45;&gt;users -->
<g id="edge4" class="edge">
<title>user_options:user_id&#45;&gt;users:id</title>
<path fill="none" stroke="#000000" d="M1036.9084,-534.9385C964.4445,-526.2653 1033.0837,-418.9767 995,-343 961.4533,-276.0746 965.8625,-210.5 891,-210.5"/>
<polygon fill="#000000" stroke="#000000" points="1037.0154,-534.9443 1046.75,-539.9931 1042.0077,-535.2222 1047,-535.5 1047,-535.5 1047,-535.5 1042.0077,-535.2222 1047.25,-531.0069 1037.0154,-534.9443 1037.0154,-534.9443"/>
<text text-anchor="start" x="993.945" y="-519.5" font-family="Arial" font-size="10.00" fill="#000000">FOREIGN KEY (user_id) REFERENCES users (id)</text>
</g>
<!-- logs -->
<g id="node6" class="node">
<title>logs</title>
<polygon fill="#efefef" stroke="transparent" points="1365,-595.5 1365,-630.5 1531,-630.5 1531,-595.5 1365,-595.5"/>
<polygon fill="none" stroke="#000000" points="1365,-595.5 1365,-630.5 1531,-630.5 1531,-595.5 1365,-595.5"/>
<text text-anchor="start" x="1382.8698" y="-608.3" font-family="Arial Bold" font-size="18.00" fill="#000000">logs</text>
<text text-anchor="start" x="1415.8764" y="-608.3" font-family="Arial" font-size="14.00" fill="#000000"> </text>
<text text-anchor="start" x="1419.767" y="-608.3" font-family="Arial" font-size="14.00" fill="#666666">[BASE TABLE]</text>
<polygon fill="none" stroke="#000000" points="1365,-565.5 1365,-595.5 1531,-595.5 1531,-565.5 1365,-565.5"/>
<text text-anchor="start" x="1372" y="-576.9" font-family="Arial" font-size="14.00" fill="#000000">id </text>
<text text-anchor="start" x="1386.7798" y="-576.9" font-family="Arial" font-size="14.00" fill="#666666">[bigint]</text>
<polygon fill="none" stroke="#000000" points="1365,-535.5 1365,-565.5 1531,-565.5 1531,-535.5 1365,-535.5"/>
<text text-anchor="start" x="1372" y="-546.9" font-family="Arial" font-size="14.00" fill="#000000">user_id </text>
<text text-anchor="start" x="1421.7882" y="-546.9" font-family="Arial" font-size="14.00" fill="#666666">[int]</text>
<polygon fill="none" stroke="#000000" points="1365,-505.5 1365,-535.5 1531,-535.5 1531,-505.5 1365,-505.5"/>
<text text-anchor="start" x="1372" y="-516.9" font-family="Arial" font-size="14.00" fill="#000000">post_id </text>
<text text-anchor="start" x="1421.0182" y="-516.9" font-family="Arial" font-size="14.00" fill="#666666">[bigint]</text>
<polygon fill="none" stroke="#000000" points="1365,-475.5 1365,-505.5 1531,-505.5 1531,-475.5 1365,-475.5"/>
<text text-anchor="start" x="1372" y="-486.9" font-family="Arial" font-size="14.00" fill="#000000">comment_id </text>
<text text-anchor="start" x="1452.122" y="-486.9" font-family="Arial" font-size="14.00" fill="#666666">[bigint]</text>
<polygon fill="none" stroke="#000000" points="1365,-445.5 1365,-475.5 1531,-475.5 1531,-445.5 1365,-445.5"/>
<text text-anchor="start" x="1371.7644" y="-456.9" font-family="Arial" font-size="14.00" fill="#000000">comment_star_id </text>
<text text-anchor="start" x="1483.0028" y="-456.9" font-family="Arial" font-size="14.00" fill="#666666">[bigint]</text>
<polygon fill="none" stroke="#000000" points="1365,-415.5 1365,-445.5 1531,-445.5 1531,-415.5 1365,-415.5"/>
<text text-anchor="start" x="1372" y="-426.9" font-family="Arial" font-size="14.00" fill="#000000">payload </text>
<text text-anchor="start" x="1424.9102" y="-426.9" font-family="Arial" font-size="14.00" fill="#666666">[text]</text>
<polygon fill="none" stroke="#000000" points="1365,-385.5 1365,-415.5 1531,-415.5 1531,-385.5 1365,-385.5"/>
<text text-anchor="start" x="1372" y="-396.9" font-family="Arial" font-size="14.00" fill="#000000">created </text>
<text text-anchor="start" x="1422.5722" y="-396.9" font-family="Arial" font-size="14.00" fill="#666666">[datetime]</text>
</g>
<!-- logs&#45;&gt;users -->
<g id="edge5" class="edge">
<title>logs:user_id&#45;&gt;users:id</title>
<path fill="none" stroke="#000000" stroke-dasharray="5,2" d="M1354.767,-549.8791C1278.1222,-539.7986 1375.6782,-409.469 1313,-343 1245.5664,-271.488 989.2916,-210.5 891,-210.5"/>
<polygon fill="#000000" stroke="#000000" points="1355.0184,-549.8943 1364.7274,-554.9917 1360.0092,-550.1972 1365,-550.5 1365,-550.5 1365,-550.5 1360.0092,-550.1972 1365.2726,-546.0083 1355.0184,-549.8943 1355.0184,-549.8943"/>
<text text-anchor="start" x="1323.274" y="-534.5" font-family="Arial" font-size="10.00" fill="#000000">logs&#45;&gt;users</text>
</g>
</g>
</svg>
