<?xml version="1.0" encoding="UTF-8" standalone="no"?>
<!DOCTYPE svg PUBLIC "-//W3C//DTD SVG 1.1//EN"
 "http://www.w3.org/Graphics/SVG/1.1/DTD/svg11.dtd">
<!-- Generated by graphviz version 2.40.1 (20161225.0304)
 -->
<!-- Title: CamelizeTable Pages: 1 -->
<svg width="333pt" height="194pt"
 viewBox="0.00 0.00 333.00 194.00" xmlns="http://www.w3.org/2000/svg" xmlns:xlink="http://www.w3.org/1999/xlink">
<g id="graph0" class="graph" transform="scale(1 1) rotate(0) translate(4 190)">
<title>CamelizeTable</title>
<polygon fill="#ffffff" stroke="transparent" points="-4,4 -4,-190 329,-190 329,4 -4,4"/>
<!-- CamelizeTable -->
<g id="node1" class="node">
<title>CamelizeTable</title>
<polygon fill="#efefef" stroke="transparent" points="46.5,-106 46.5,-140 279.5,-140 279.5,-106 46.5,-106"/>
<polygon fill="none" stroke="#000000" points="46.5,-106 46.5,-140 279.5,-140 279.5,-106 46.5,-106"/>
<text text-anchor="start" x="53.1577" y="-119.6" font-family="Arial Bold" font-size="18.00" fill="#000000">CamelizeTable</text>
<text text-anchor="start" x="176.8726" y="-119.6" font-family="Arial" font-size="14.00" fill="#000000"> </text>
<text text-anchor="start" x="180.7622" y="-119.6" font-family="Arial" font-size="14.00" fill="#666666">[BASE TABLE]</text>
<polygon fill="none" stroke="#000000" points="46.5,-76 46.5,-106 279.5,-106 279.5,-76 46.5,-76"/>
<text text-anchor="start" x="53.5" y="-88.8" font-family="Arial" font-size="14.00" fill="#000000">id </text>
<text text-anchor="start" x="68.2861" y="-88.8" font-family="Arial" font-size="14.00" fill="#666666">[bigint(20)]</text>
<polygon fill="none" stroke="#000000" points="46.5,-46 46.5,-76 279.5,-76 279.5,-46 46.5,-46"/>
<text text-anchor="start" x="53.5" y="-58.8" font-family="Arial" font-size="14.00" fill="#000000">created </text>
<text text-anchor="start" x="104.0859" y="-58.8" font-family="Arial" font-size="14.00" fill="#666666">[datetime]</text>
<polygon fill="none" stroke="#000000" stroke-width="3" points="44.5,-44.5 44.5,-141.5 280.5,-141.5 280.5,-44.5 44.5,-44.5"/>
</g>
</g>
</svg>
