<?xml version="1.0" encoding="UTF-8" standalone="no"?>
<!DOCTYPE svg PUBLIC "-//W3C//DTD SVG 1.1//EN"
 "http://www.w3.org/Graphics/SVG/1.1/DTD/svg11.dtd">
<!-- Generated by graphviz version 2.40.1 (20161225.0304)
 -->
<!-- Title: comments Pages: 1 -->
<svg width="958pt" height="1124pt"
 viewBox="0.00 0.00 957.50 1124.00" xmlns="http://www.w3.org/2000/svg" xmlns:xlink="http://www.w3.org/1999/xlink">
<g id="graph0" class="graph" transform="scale(1 1) rotate(0) translate(4 1120)">
<title>comments</title>
<polygon fill="#ffffff" stroke="transparent" points="-4,4 -4,-1120 953.5,-1120 953.5,4 -4,4"/>
<!-- comments -->
<g id="node1" class="node">
<title>comments</title>
<polygon fill="#efefef" stroke="transparent" points="283.5,-604 283.5,-692 623.5,-692 623.5,-604 283.5,-604"/>
<polygon fill="none" stroke="#000000" points="283.5,-604 283.5,-692 623.5,-692 623.5,-604 283.5,-604"/>
<text text-anchor="start" x="363.3705" y="-669.8" font-family="Arial Bold" font-size="18.00" fill="#000000">comments</text>
<text text-anchor="start" x="446.3757" y="-669.8" font-family="Arial" font-size="14.00" fill="#000000"> </text>
<text text-anchor="start" x="450.2663" y="-669.8" font-family="Arial" font-size="14.00" fill="#666666">[BASE TABLE]</text>
<text text-anchor="start" x="419.6669" y="-655.4" font-family="Arial" font-size="14.00" fill="#333333">Comments</text>
<text text-anchor="start" x="425.507" y="-641.4" font-family="Arial" font-size="14.00" fill="#333333">Multi&#45;line</text>
<text text-anchor="start" x="438.3275" y="-627.4" font-family="Arial" font-size="14.00" fill="#333333">table</text>
<text text-anchor="start" x="424.7202" y="-613.4" font-family="Arial" font-size="14.00" fill="#333333">comment</text>
<polygon fill="none" stroke="#000000" points="283.5,-574 283.5,-604 623.5,-604 623.5,-574 283.5,-574"/>
<text text-anchor="start" x="290.5" y="-585.4" font-family="Arial" font-size="14.00" fill="#000000">id </text>
<text text-anchor="start" x="305.2798" y="-585.4" font-family="Arial" font-size="14.00" fill="#666666">[bigint(20)]</text>
<polygon fill="none" stroke="#000000" points="283.5,-544 283.5,-574 623.5,-574 623.5,-544 283.5,-544"/>
<text text-anchor="start" x="290.5" y="-555.4" font-family="Arial" font-size="14.00" fill="#000000">post_id </text>
<text text-anchor="start" x="339.5182" y="-555.4" font-family="Arial" font-size="14.00" fill="#666666">[bigint(20)]</text>
<polygon fill="none" stroke="#000000" points="283.5,-514 283.5,-544 623.5,-544 623.5,-514 283.5,-514"/>
<text text-anchor="start" x="290.5" y="-525.4" font-family="Arial" font-size="14.00" fill="#000000">user_id </text>
<text text-anchor="start" x="340.2882" y="-525.4" font-family="Arial" font-size="14.00" fill="#666666">[int(11)]</text>
<polygon fill="none" stroke="#000000" points="283.5,-484 283.5,-514 623.5,-514 623.5,-484 283.5,-484"/>
<text text-anchor="start" x="290.1578" y="-495.4" font-family="Arial" font-size="14.00" fill="#000000">comment </text>
<text text-anchor="start" x="351.608" y="-495.4" font-family="Arial" font-size="14.00" fill="#666666">[text]</text>
<text text-anchor="start" x="381.953" y="-495.4" font-family="Arial" font-size="14.00" fill="#000000"> Comment Multi&#45;line column comment</text>
<polygon fill="none" stroke="#000000" points="283.5,-454 283.5,-484 623.5,-484 623.5,-454 283.5,-454"/>
<text text-anchor="start" x="290.5" y="-465.4" font-family="Arial" font-size="14.00" fill="#000000">created </text>
<text text-anchor="start" x="341.0722" y="-465.4" font-family="Arial" font-size="14.00" fill="#666666">[datetime]</text>
<polygon fill="none" stroke="#000000" points="283.5,-424 283.5,-454 623.5,-454 623.5,-424 283.5,-424"/>
<text text-anchor="start" x="290.5" y="-435.4" font-family="Arial" font-size="14.00" fill="#000000">updated </text>
<text text-anchor="start" x="344.9768" y="-435.4" font-family="Arial" font-size="14.00" fill="#666666">[datetime]</text>
<polygon fill="none" stroke="#000000" stroke-width="3" points="282,-422.5 282,-693.5 625,-693.5 625,-422.5 282,-422.5"/>
</g>
<!-- posts -->
<g id="node3" class="node">
<title>posts</title>
<polygon fill="#efefef" stroke="transparent" points="43.5,-253 43.5,-299 424.5,-299 424.5,-253 43.5,-253"/>
<polygon fill="none" stroke="#000000" points="43.5,-253 43.5,-299 424.5,-299 424.5,-253 43.5,-253"/>
<text text-anchor="start" x="163.8658" y="-276.8" font-family="Arial Bold" font-size="18.00" fill="#000000">posts</text>
<text text-anchor="start" x="206.8804" y="-276.8" font-family="Arial" font-size="14.00" fill="#000000"> </text>
<text text-anchor="start" x="210.771" y="-276.8" font-family="Arial" font-size="14.00" fill="#666666">[BASE TABLE]</text>
<text text-anchor="start" x="199.3773" y="-262.4" font-family="Arial" font-size="14.00" fill="#333333">Posts table</text>
<polygon fill="none" stroke="#000000" points="43.5,-223 43.5,-253 424.5,-253 424.5,-223 43.5,-223"/>
<text text-anchor="start" x="50.5" y="-234.4" font-family="Arial" font-size="14.00" fill="#000000">id </text>
<text text-anchor="start" x="65.2798" y="-234.4" font-family="Arial" font-size="14.00" fill="#666666">[bigint(20)]</text>
<polygon fill="none" stroke="#000000" points="43.5,-193 43.5,-223 424.5,-223 424.5,-193 43.5,-193"/>
<text text-anchor="start" x="50.5" y="-204.4" font-family="Arial" font-size="14.00" fill="#000000">user_id </text>
<text text-anchor="start" x="100.2882" y="-204.4" font-family="Arial" font-size="14.00" fill="#666666">[int(11)]</text>
<polygon fill="none" stroke="#000000" points="43.5,-163 43.5,-193 424.5,-193 424.5,-163 43.5,-163"/>
<text text-anchor="start" x="50.5" y="-174.4" font-family="Arial" font-size="14.00" fill="#000000">title </text>
<text text-anchor="start" x="76.1676" y="-174.4" font-family="Arial" font-size="14.00" fill="#666666">[varchar(255)]</text>
<polygon fill="none" stroke="#000000" points="43.5,-133 43.5,-163 424.5,-163 424.5,-133 43.5,-133"/>
<text text-anchor="start" x="50.5" y="-144.4" font-family="Arial" font-size="14.00" fill="#000000">body </text>
<text text-anchor="start" x="84.7384" y="-144.4" font-family="Arial" font-size="14.00" fill="#666666">[text]</text>
<text text-anchor="start" x="115.0834" y="-144.4" font-family="Arial" font-size="14.00" fill="#000000"> post body</text>
<polygon fill="none" stroke="#000000" points="43.5,-103 43.5,-133 424.5,-133 424.5,-103 43.5,-103"/>
<text text-anchor="start" x="50.0743" y="-114.4" font-family="Arial" font-size="14.00" fill="#000000">post_type </text>
<text text-anchor="start" x="114.6591" y="-114.4" font-family="Arial" font-size="14.00" fill="#666666">[enum(&#39;public&#39;,&#39;private&#39;,&#39;draft&#39;)]</text>
<text text-anchor="start" x="299.6803" y="-114.4" font-family="Arial" font-size="14.00" fill="#000000"> public/private/draft</text>
<polygon fill="none" stroke="#000000" points="43.5,-73 43.5,-103 424.5,-103 424.5,-73 43.5,-73"/>
<text text-anchor="start" x="50.5" y="-84.4" font-family="Arial" font-size="14.00" fill="#000000">created </text>
<text text-anchor="start" x="101.0722" y="-84.4" font-family="Arial" font-size="14.00" fill="#666666">[datetime]</text>
<polygon fill="none" stroke="#000000" points="43.5,-43 43.5,-73 424.5,-73 424.5,-43 43.5,-43"/>
<text text-anchor="start" x="50.5" y="-54.4" font-family="Arial" font-size="14.00" fill="#000000">updated </text>
<text text-anchor="start" x="104.9768" y="-54.4" font-family="Arial" font-size="14.00" fill="#666666">[datetime]</text>
</g>
<!-- comments&#45;&gt;posts -->
<g id="edge2" class="edge">
<title>comments:post_id&#45;&gt;posts:id</title>
<path fill="none" stroke="#000000" d="M273.3257,-558.3044C205.8862,-548.5549 236.369,-438.6764 283.5,-378 323.1754,-326.9219 384.8246,-393.0781 424.5,-342 452.8546,-305.4964 470.7222,-238 424.5,-238"/>
<polygon fill="#000000" stroke="#000000" points="273.5233,-558.3178 283.193,-563.4895 278.5116,-558.6589 283.5,-559 283.5,-559 283.5,-559 278.5116,-558.6589 283.807,-554.5105 273.5233,-558.3178 273.5233,-558.3178"/>
<text text-anchor="start" x="51.995" y="-569" font-family="Arial" font-size="10.00" fill="#000000">FOREIGN KEY (post_id) REFERENCES posts (id)</text>
</g>
<!-- users -->
<g id="node5" class="node">
<title>users</title>
<polygon fill="#efefef" stroke="transparent" points="528.5,-238 528.5,-284 817.5,-284 817.5,-238 528.5,-238"/>
<polygon fill="none" stroke="#000000" points="528.5,-238 528.5,-284 817.5,-284 817.5,-238 528.5,-238"/>
<text text-anchor="start" x="602.3708" y="-261.8" font-family="Arial Bold" font-size="18.00" fill="#000000">users</text>
<text text-anchor="start" x="646.3754" y="-261.8" font-family="Arial" font-size="14.00" fill="#000000"> </text>
<text text-anchor="start" x="650.266" y="-261.8" font-family="Arial" font-size="14.00" fill="#666666">[BASE TABLE]</text>
<text text-anchor="start" x="637.6073" y="-247.4" font-family="Arial" font-size="14.00" fill="#333333">Users table</text>
<polygon fill="none" stroke="#000000" points="528.5,-208 528.5,-238 817.5,-238 817.5,-208 528.5,-208"/>
<text text-anchor="start" x="535.5" y="-219.4" font-family="Arial" font-size="14.00" fill="#000000">id </text>
<text text-anchor="start" x="550.2798" y="-219.4" font-family="Arial" font-size="14.00" fill="#666666">[int(11)]</text>
<polygon fill="none" stroke="#000000" points="528.5,-178 528.5,-208 817.5,-208 817.5,-178 528.5,-178"/>
<text text-anchor="start" x="535.5" y="-189.4" font-family="Arial" font-size="14.00" fill="#000000">username </text>
<text text-anchor="start" x="601.6248" y="-189.4" font-family="Arial" font-size="14.00" fill="#666666">[varchar(50)]</text>
<polygon fill="none" stroke="#000000" points="528.5,-148 528.5,-178 817.5,-178 817.5,-148 528.5,-148"/>
<text text-anchor="start" x="535.5" y="-159.4" font-family="Arial" font-size="14.00" fill="#000000">password </text>
<text text-anchor="start" x="599.2882" y="-159.4" font-family="Arial" font-size="14.00" fill="#666666">[varchar(50)]</text>
<polygon fill="none" stroke="#000000" points="528.5,-118 528.5,-148 817.5,-148 817.5,-118 528.5,-118"/>
<text text-anchor="start" x="535.2155" y="-129.4" font-family="Arial" font-size="14.00" fill="#000000">email </text>
<text text-anchor="start" x="572.5451" y="-129.4" font-family="Arial" font-size="14.00" fill="#666666">[varchar(355)]</text>
<text text-anchor="start" x="659.6643" y="-129.4" font-family="Arial" font-size="14.00" fill="#000000"> ex. user@example.com</text>
<polygon fill="none" stroke="#000000" points="528.5,-88 528.5,-118 817.5,-118 817.5,-88 528.5,-88"/>
<text text-anchor="start" x="535.5" y="-99.4" font-family="Arial" font-size="14.00" fill="#000000">created </text>
<text text-anchor="start" x="586.0722" y="-99.4" font-family="Arial" font-size="14.00" fill="#666666">[timestamp]</text>
<polygon fill="none" stroke="#000000" points="528.5,-58 528.5,-88 817.5,-88 817.5,-58 528.5,-58"/>
<text text-anchor="start" x="535.5" y="-69.4" font-family="Arial" font-size="14.00" fill="#000000">updated </text>
<text text-anchor="start" x="589.9768" y="-69.4" font-family="Arial" font-size="14.00" fill="#666666">[timestamp]</text>
</g>
<!-- comments&#45;&gt;users -->
<g id="edge4" class="edge">
<title>comments:user_id&#45;&gt;users:id</title>
<path fill="none" stroke="#000000" d="M633.6313,-528.1831C687.0334,-518.8909 656.0659,-432.4447 623.5,-378 598.9005,-336.8739 553.0995,-368.1261 528.5,-327 504.7729,-287.3324 482.2778,-223 528.5,-223"/>
<polygon fill="#000000" stroke="#000000" points="633.4676,-528.1962 623.1383,-524.5146 628.4838,-528.5981 623.5,-529 623.5,-529 623.5,-529 628.4838,-528.5981 623.8617,-533.4854 633.4676,-528.1962 633.4676,-528.1962"/>
<text text-anchor="start" x="630.445" y="-539" font-family="Arial" font-size="10.00" fill="#000000">FOREIGN KEY (user_id) REFERENCES users (id)</text>
</g>
<!-- logs -->
<g id="node2" class="node">
<title>logs</title>
<polygon fill="#efefef" stroke="transparent" points="199.5,-1027 199.5,-1073 390.5,-1073 390.5,-1027 199.5,-1027"/>
<polygon fill="none" stroke="#000000" points="199.5,-1027 199.5,-1073 390.5,-1073 390.5,-1027 199.5,-1027"/>
<text text-anchor="start" x="229.8698" y="-1050.8" font-family="Arial Bold" font-size="18.00" fill="#000000">logs</text>
<text text-anchor="start" x="262.8764" y="-1050.8" font-family="Arial" font-size="14.00" fill="#000000"> </text>
<text text-anchor="start" x="266.767" y="-1050.8" font-family="Arial" font-size="14.00" fill="#666666">[BASE TABLE]</text>
<text text-anchor="start" x="265.7057" y="-1036.4" font-family="Arial" font-size="14.00" fill="#333333">Auditログ</text>
<polygon fill="none" stroke="#000000" points="199.5,-997 199.5,-1027 390.5,-1027 390.5,-997 199.5,-997"/>
<text text-anchor="start" x="206.5" y="-1008.4" font-family="Arial" font-size="14.00" fill="#000000">id </text>
<text text-anchor="start" x="221.2798" y="-1008.4" font-family="Arial" font-size="14.00" fill="#666666">[bigint(20)]</text>
<polygon fill="none" stroke="#000000" points="199.5,-967 199.5,-997 390.5,-997 390.5,-967 199.5,-967"/>
<text text-anchor="start" x="206.5" y="-978.4" font-family="Arial" font-size="14.00" fill="#000000">user_id </text>
<text text-anchor="start" x="256.2882" y="-978.4" font-family="Arial" font-size="14.00" fill="#666666">[int(11)]</text>
<polygon fill="none" stroke="#000000" points="199.5,-937 199.5,-967 390.5,-967 390.5,-937 199.5,-937"/>
<text text-anchor="start" x="206.5" y="-948.4" font-family="Arial" font-size="14.00" fill="#000000">post_id </text>
<text text-anchor="start" x="255.5182" y="-948.4" font-family="Arial" font-size="14.00" fill="#666666">[bigint(20)]</text>
<polygon fill="none" stroke="#000000" points="199.5,-907 199.5,-937 390.5,-937 390.5,-907 199.5,-907"/>
<text text-anchor="start" x="206.5" y="-918.4" font-family="Arial" font-size="14.00" fill="#000000">comment_id </text>
<text text-anchor="start" x="286.622" y="-918.4" font-family="Arial" font-size="14.00" fill="#666666">[bigint(20)]</text>
<polygon fill="none" stroke="#000000" points="199.5,-877 199.5,-907 390.5,-907 390.5,-877 199.5,-877"/>
<text text-anchor="start" x="206.3212" y="-888.4" font-family="Arial" font-size="14.00" fill="#000000">comment_star_id </text>
<text text-anchor="start" x="317.5596" y="-888.4" font-family="Arial" font-size="14.00" fill="#666666">[bigint(20)]</text>
<polygon fill="none" stroke="#000000" points="199.5,-847 199.5,-877 390.5,-877 390.5,-847 199.5,-847"/>
<text text-anchor="start" x="206.5" y="-858.4" font-family="Arial" font-size="14.00" fill="#000000">payload </text>
<text text-anchor="start" x="259.4102" y="-858.4" font-family="Arial" font-size="14.00" fill="#666666">[text]</text>
<polygon fill="none" stroke="#000000" points="199.5,-817 199.5,-847 390.5,-847 390.5,-817 199.5,-817"/>
<text text-anchor="start" x="206.5" y="-828.4" font-family="Arial" font-size="14.00" fill="#000000">created </text>
<text text-anchor="start" x="257.0722" y="-828.4" font-family="Arial" font-size="14.00" fill="#666666">[datetime]</text>
</g>
<!-- logs&#45;&gt;comments -->
<g id="edge1" class="edge">
<title>logs:comment_id&#45;&gt;comments:id</title>
<path fill="none" stroke="#000000" stroke-dasharray="5,2" d="M400.4692,-921.1736C453.2489,-911.7779 426.7869,-824.4944 390.5,-774 361.2192,-733.2549 312.7808,-778.7451 283.5,-738 244.8545,-684.2236 217.2778,-589 283.5,-589"/>
<polygon fill="#000000" stroke="#000000" points="400.4658,-921.1738 390.1282,-917.5154 395.4829,-921.5869 390.5,-922 390.5,-922 390.5,-922 395.4829,-921.5869 390.8718,-926.4846 400.4658,-921.1738 400.4658,-921.1738"/>
<text text-anchor="start" x="397.8245" y="-932" font-family="Arial" font-size="10.00" fill="#000000">Additional Relation</text>
</g>
<!-- comment_stars -->
<g id="node4" class="node">
<title>comment_stars</title>
<polygon fill="#efefef" stroke="transparent" points="494.5,-1017 494.5,-1052 728.5,-1052 728.5,-1017 494.5,-1017"/>
<polygon fill="none" stroke="#000000" points="494.5,-1017 494.5,-1052 728.5,-1052 728.5,-1017 494.5,-1017"/>
<text text-anchor="start" x="501.3671" y="-1029.8" font-family="Arial Bold" font-size="18.00" fill="#000000">comment_stars</text>
<text text-anchor="start" x="624.3791" y="-1029.8" font-family="Arial" font-size="14.00" fill="#000000"> </text>
<text text-anchor="start" x="628.2697" y="-1029.8" font-family="Arial" font-size="14.00" fill="#666666">[BASE TABLE]</text>
<polygon fill="none" stroke="#000000" points="494.5,-987 494.5,-1017 728.5,-1017 728.5,-987 494.5,-987"/>
<text text-anchor="start" x="501.5" y="-998.4" font-family="Arial" font-size="14.00" fill="#000000">id </text>
<text text-anchor="start" x="516.2798" y="-998.4" font-family="Arial" font-size="14.00" fill="#666666">[bigint(20)]</text>
<polygon fill="none" stroke="#000000" points="494.5,-957 494.5,-987 728.5,-987 728.5,-957 494.5,-957"/>
<text text-anchor="start" x="501.5" y="-968.4" font-family="Arial" font-size="14.00" fill="#000000">user_id </text>
<text text-anchor="start" x="551.2882" y="-968.4" font-family="Arial" font-size="14.00" fill="#666666">[int(11)]</text>
<polygon fill="none" stroke="#000000" points="494.5,-927 494.5,-957 728.5,-957 728.5,-927 494.5,-927"/>
<text text-anchor="start" x="501.5" y="-938.4" font-family="Arial" font-size="14.00" fill="#000000">comment_post_id </text>
<text text-anchor="start" x="615.8604" y="-938.4" font-family="Arial" font-size="14.00" fill="#666666">[bigint(20)]</text>
<polygon fill="none" stroke="#000000" points="494.5,-897 494.5,-927 728.5,-927 728.5,-897 494.5,-897"/>
<text text-anchor="start" x="501.5" y="-908.4" font-family="Arial" font-size="14.00" fill="#000000">comment_user_id </text>
<text text-anchor="start" x="616.6304" y="-908.4" font-family="Arial" font-size="14.00" fill="#666666">[int(11)]</text>
<polygon fill="none" stroke="#000000" points="494.5,-867 494.5,-897 728.5,-897 728.5,-867 494.5,-867"/>
<text text-anchor="start" x="501.5" y="-878.4" font-family="Arial" font-size="14.00" fill="#000000">created </text>
<text text-anchor="start" x="552.0722" y="-878.4" font-family="Arial" font-size="14.00" fill="#666666">[timestamp]</text>
<polygon fill="none" stroke="#000000" points="494.5,-837 494.5,-867 728.5,-867 728.5,-837 494.5,-837"/>
<text text-anchor="start" x="501.5" y="-848.4" font-family="Arial" font-size="14.00" fill="#000000">updated </text>
<text text-anchor="start" x="555.9768" y="-848.4" font-family="Arial" font-size="14.00" fill="#666666">[timestamp]</text>
</g>
<!-- comment_stars&#45;&gt;comments -->
<g id="edge3" class="edge">
<title>comment_stars:comment_post_id&#45;&gt;comments:post_id</title>
<path fill="none" stroke="#000000" d="M484.2611,-941.1322C432.327,-931.628 460.6611,-846.2631 494.5,-794.5 528.7487,-742.11 589.2513,-790.39 623.5,-738 667.0311,-671.4107 703.0556,-559 623.5,-559"/>
<polygon fill="#000000" stroke="#000000" points="484.5357,-941.1554 494.1199,-946.4839 489.5179,-941.5777 494.5,-942 494.5,-942 494.5,-942 489.5179,-941.5777 494.8801,-937.5161 484.5357,-941.1554 484.5357,-941.1554"/>
<text text-anchor="start" x="501.6435" y="-952" font-family="Arial" font-size="10.00" fill="#000000">FOREIGN KEY (comment_post_id, comment_user_id) REFERENCES comments (post_id, user_id)</text>
</g>
</g>
</svg>
