<?xml version="1.0" encoding="UTF-8" standalone="no"?>
<!DOCTYPE svg PUBLIC "-//W3C//DTD SVG 1.1//EN"
 "http://www.w3.org/Graphics/SVG/1.1/DTD/svg11.dtd">
<!-- Generated by graphviz version 2.40.1 (20161225.0304)
 -->
<!-- Title: comment_stars Pages: 1 -->
<svg width="992pt" height="1016pt"
 viewBox="0.00 0.00 992.00 1016.00" xmlns="http://www.w3.org/2000/svg" xmlns:xlink="http://www.w3.org/1999/xlink">
<g id="graph0" class="graph" transform="scale(1 1) rotate(0) translate(4 1012)">
<title>comment_stars</title>
<polygon fill="#ffffff" stroke="transparent" points="-4,4 -4,-1012 988,-1012 988,4 -4,4"/>
<!-- comment_stars -->
<g id="node1" class="node">
<title>comment_stars</title>
<polygon fill="#efefef" stroke="transparent" points="455,-562 455,-596 698,-596 698,-562 455,-562"/>
<polygon fill="none" stroke="#000000" points="455,-562 455,-596 698,-596 698,-562 455,-562"/>
<text text-anchor="start" x="461.9863" y="-575.6" font-family="Arial Bold" font-size="18.00" fill="#000000">comment_stars</text>
<text text-anchor="start" x="595.0439" y="-575.6" font-family="Arial" font-size="14.00" fill="#000000"> </text>
<text text-anchor="start" x="598.9336" y="-575.6" font-family="Arial" font-size="14.00" fill="#666666">[BASE TABLE]</text>
<polygon fill="none" stroke="#000000" points="455,-532 455,-562 698,-562 698,-532 455,-532"/>
<text text-anchor="start" x="462" y="-544.8" font-family="Arial" font-size="14.00" fill="#000000">id </text>
<text text-anchor="start" x="476.7861" y="-544.8" font-family="Arial" font-size="14.00" fill="#666666">[bigint(20)]</text>
<polygon fill="none" stroke="#000000" points="455,-502 455,-532 698,-532 698,-502 455,-502"/>
<text text-anchor="start" x="462" y="-514.8" font-family="Arial" font-size="14.00" fill="#000000">user_id </text>
<text text-anchor="start" x="511.8066" y="-514.8" font-family="Arial" font-size="14.00" fill="#666666">[int(11)]</text>
<polygon fill="none" stroke="#000000" points="455,-472 455,-502 698,-502 698,-472 455,-472"/>
<text text-anchor="start" x="462" y="-484.8" font-family="Arial" font-size="14.00" fill="#000000">comment_post_id </text>
<text text-anchor="start" x="576.3926" y="-484.8" font-family="Arial" font-size="14.00" fill="#666666">[bigint(20)]</text>
<polygon fill="none" stroke="#000000" points="455,-442 455,-472 698,-472 698,-442 455,-442"/>
<text text-anchor="start" x="462" y="-454.8" font-family="Arial" font-size="14.00" fill="#000000">comment_user_id </text>
<text text-anchor="start" x="577.165" y="-454.8" font-family="Arial" font-size="14.00" fill="#666666">[int(11)]</text>
<polygon fill="none" stroke="#000000" points="455,-412 455,-442 698,-442 698,-412 455,-412"/>
<text text-anchor="start" x="462" y="-424.8" font-family="Arial" font-size="14.00" fill="#000000">created </text>
<text text-anchor="start" x="512.5859" y="-424.8" font-family="Arial" font-size="14.00" fill="#666666">[timestamp]</text>
<polygon fill="none" stroke="#000000" points="455,-382 455,-412 698,-412 698,-382 455,-382"/>
<text text-anchor="start" x="462" y="-394.8" font-family="Arial" font-size="14.00" fill="#000000">updated </text>
<text text-anchor="start" x="516.4961" y="-394.8" font-family="Arial" font-size="14.00" fill="#666666">[timestamp]</text>
<polygon fill="none" stroke="#000000" stroke-width="3" points="453,-380.5 453,-597.5 699,-597.5 699,-380.5 453,-380.5"/>
</g>
<!-- comments -->
<g id="node3" class="node">
<title>comments</title>
<polygon fill="#efefef" stroke="transparent" points="336,-223 336,-257 535,-257 535,-223 336,-223"/>
<polygon fill="none" stroke="#000000" points="336,-223 336,-257 535,-257 535,-223 336,-223"/>
<text text-anchor="start" x="342.502" y="-236.6" font-family="Arial Bold" font-size="18.00" fill="#000000">comments</text>
<text text-anchor="start" x="432.5283" y="-236.6" font-family="Arial" font-size="14.00" fill="#000000"> </text>
<text text-anchor="start" x="436.418" y="-236.6" font-family="Arial" font-size="14.00" fill="#666666">[BASE TABLE]</text>
<polygon fill="none" stroke="#000000" points="336,-193 336,-223 535,-223 535,-193 336,-193"/>
<text text-anchor="start" x="343" y="-205.8" font-family="Arial" font-size="14.00" fill="#000000">id </text>
<text text-anchor="start" x="357.7861" y="-205.8" font-family="Arial" font-size="14.00" fill="#666666">[bigint(20)]</text>
<polygon fill="none" stroke="#000000" points="336,-163 336,-193 535,-193 535,-163 336,-163"/>
<text text-anchor="start" x="343" y="-175.8" font-family="Arial" font-size="14.00" fill="#000000">post_id </text>
<text text-anchor="start" x="392.0342" y="-175.8" font-family="Arial" font-size="14.00" fill="#666666">[bigint(20)]</text>
<polygon fill="none" stroke="#000000" points="336,-133 336,-163 535,-163 535,-133 336,-133"/>
<text text-anchor="start" x="343" y="-145.8" font-family="Arial" font-size="14.00" fill="#000000">user_id </text>
<text text-anchor="start" x="392.8066" y="-145.8" font-family="Arial" font-size="14.00" fill="#666666">[int(11)]</text>
<polygon fill="none" stroke="#000000" points="336,-103 336,-133 535,-133 535,-103 336,-103"/>
<text text-anchor="start" x="343" y="-115.8" font-family="Arial" font-size="14.00" fill="#000000">comment </text>
<text text-anchor="start" x="404.4619" y="-115.8" font-family="Arial" font-size="14.00" fill="#666666">[text]</text>
<polygon fill="none" stroke="#000000" points="336,-73 336,-103 535,-103 535,-73 336,-73"/>
<text text-anchor="start" x="343" y="-85.8" font-family="Arial" font-size="14.00" fill="#000000">created </text>
<text text-anchor="start" x="393.5859" y="-85.8" font-family="Arial" font-size="14.00" fill="#666666">[datetime]</text>
<polygon fill="none" stroke="#000000" points="336,-43 336,-73 535,-73 535,-43 336,-43"/>
<text text-anchor="start" x="343" y="-55.8" font-family="Arial" font-size="14.00" fill="#000000">updated </text>
<text text-anchor="start" x="397.4961" y="-55.8" font-family="Arial" font-size="14.00" fill="#666666">[datetime]</text>
</g>
<!-- comment_stars&#45;&gt;comments -->
<g id="edge2" class="edge">
<title>comment_stars:comment_post_id&#45;&gt;comments:post_id</title>
<path fill="none" stroke="#000000" d="M444.8519,-486.1726C391.2609,-476.7629 420.5534,-389.2746 455,-336 476.1703,-303.2583 513.8297,-332.7417 535,-300 564.4411,-254.4668 589.2222,-178 535,-178"/>
<polygon fill="#000000" stroke="#000000" points="445.0331,-486.1873 454.6343,-491.4851 450.0165,-486.5936 455,-487 455,-487 455,-487 450.0165,-486.5936 455.3657,-482.5149 445.0331,-486.1873 445.0331,-486.1873"/>
<text text-anchor="start" x="7.1821" y="-496.5" font-family="Arial" font-size="10.00" fill="#000000">FOREIGN KEY (comment_post_id, comment_user_id) REFERENCES comments (post_id, user_id)</text>
</g>
<!-- users -->
<g id="node4" class="node">
<title>users</title>
<polygon fill="#efefef" stroke="transparent" points="639,-223 639,-257 798,-257 798,-223 639,-223"/>
<polygon fill="none" stroke="#000000" points="639,-223 639,-257 798,-257 798,-223 639,-223"/>
<text text-anchor="start" x="646.499" y="-236.6" font-family="Arial Bold" font-size="18.00" fill="#000000">users</text>
<text text-anchor="start" x="694.5313" y="-236.6" font-family="Arial" font-size="14.00" fill="#000000"> </text>
<text text-anchor="start" x="698.4209" y="-236.6" font-family="Arial" font-size="14.00" fill="#666666">[BASE TABLE]</text>
<polygon fill="none" stroke="#000000" points="639,-193 639,-223 798,-223 798,-193 639,-193"/>
<text text-anchor="start" x="646" y="-205.8" font-family="Arial" font-size="14.00" fill="#000000">id </text>
<text text-anchor="start" x="660.7861" y="-205.8" font-family="Arial" font-size="14.00" fill="#666666">[int(11)]</text>
<polygon fill="none" stroke="#000000" points="639,-163 639,-193 798,-193 798,-163 639,-163"/>
<text text-anchor="start" x="645.7485" y="-175.8" font-family="Arial" font-size="14.00" fill="#000000">username </text>
<text text-anchor="start" x="711.8931" y="-175.8" font-family="Arial" font-size="14.00" fill="#666666">[varchar(50)]</text>
<polygon fill="none" stroke="#000000" points="639,-133 639,-163 798,-163 798,-133 639,-133"/>
<text text-anchor="start" x="646" y="-145.8" font-family="Arial" font-size="14.00" fill="#000000">password </text>
<text text-anchor="start" x="709.8066" y="-145.8" font-family="Arial" font-size="14.00" fill="#666666">[varchar(50)]</text>
<polygon fill="none" stroke="#000000" points="639,-103 639,-133 798,-133 798,-103 639,-103"/>
<text text-anchor="start" x="646" y="-115.8" font-family="Arial" font-size="14.00" fill="#000000">email </text>
<text text-anchor="start" x="683.3447" y="-115.8" font-family="Arial" font-size="14.00" fill="#666666">[varchar(355)]</text>
<polygon fill="none" stroke="#000000" points="639,-73 639,-103 798,-103 798,-73 639,-73"/>
<text text-anchor="start" x="646" y="-85.8" font-family="Arial" font-size="14.00" fill="#000000">created </text>
<text text-anchor="start" x="696.5859" y="-85.8" font-family="Arial" font-size="14.00" fill="#666666">[timestamp]</text>
<polygon fill="none" stroke="#000000" points="639,-43 639,-73 798,-73 798,-43 639,-43"/>
<text text-anchor="start" x="646" y="-55.8" font-family="Arial" font-size="14.00" fill="#000000">updated </text>
<text text-anchor="start" x="700.4961" y="-55.8" font-family="Arial" font-size="14.00" fill="#666666">[timestamp]</text>
</g>
<!-- comment_stars&#45;&gt;users -->
<g id="edge3" class="edge">
<title>comment_stars:comment_user_id&#45;&gt;users:id</title>
<path fill="none" stroke="#000000" d="M708.1676,-455.9361C747.9224,-446.7136 722.4711,-379.5984 698,-336 682.9648,-309.2129 654.0352,-326.7871 639,-300 618.9867,-264.3438 598.1111,-208 639,-208"/>
<polygon fill="#000000" stroke="#000000" points="707.9457,-455.9593 697.5317,-452.5244 702.9729,-456.4796 698,-457 698,-457 698,-457 702.9729,-456.4796 698.4683,-461.4756 707.9457,-455.9593 707.9457,-455.9593"/>
<text text-anchor="start" x="704.6694" y="-466.5" font-family="Arial" font-size="10.00" fill="#000000">FOREIGN KEY (comment_user_id) REFERENCES users (id)</text>
</g>
<!-- logs -->
<g id="node2" class="node">
<title>logs</title>
<polygon fill="#efefef" stroke="transparent" points="481,-931 481,-965 672,-965 672,-931 481,-931"/>
<polygon fill="none" stroke="#000000" points="481,-931 481,-965 672,-965 672,-931 481,-931"/>
<text text-anchor="start" x="510.0142" y="-944.6" font-family="Arial Bold" font-size="18.00" fill="#000000">logs</text>
<text text-anchor="start" x="547.0161" y="-944.6" font-family="Arial" font-size="14.00" fill="#000000"> </text>
<text text-anchor="start" x="550.9058" y="-944.6" font-family="Arial" font-size="14.00" fill="#666666">[BASE TABLE]</text>
<polygon fill="none" stroke="#000000" points="481,-901 481,-931 672,-931 672,-901 481,-901"/>
<text text-anchor="start" x="488" y="-913.8" font-family="Arial" font-size="14.00" fill="#000000">id </text>
<text text-anchor="start" x="502.7861" y="-913.8" font-family="Arial" font-size="14.00" fill="#666666">[bigint(20)]</text>
<polygon fill="none" stroke="#000000" points="481,-871 481,-901 672,-901 672,-871 481,-871"/>
<text text-anchor="start" x="488" y="-883.8" font-family="Arial" font-size="14.00" fill="#000000">user_id </text>
<text text-anchor="start" x="537.8066" y="-883.8" font-family="Arial" font-size="14.00" fill="#666666">[int(11)]</text>
<polygon fill="none" stroke="#000000" points="481,-841 481,-871 672,-871 672,-841 481,-841"/>
<text text-anchor="start" x="488" y="-853.8" font-family="Arial" font-size="14.00" fill="#000000">post_id </text>
<text text-anchor="start" x="537.0342" y="-853.8" font-family="Arial" font-size="14.00" fill="#666666">[bigint(20)]</text>
<polygon fill="none" stroke="#000000" points="481,-811 481,-841 672,-841 672,-811 481,-811"/>
<text text-anchor="start" x="488" y="-823.8" font-family="Arial" font-size="14.00" fill="#000000">comment_id </text>
<text text-anchor="start" x="568.1445" y="-823.8" font-family="Arial" font-size="14.00" fill="#666666">[bigint(20)]</text>
<polygon fill="none" stroke="#000000" points="481,-781 481,-811 672,-811 672,-781 481,-781"/>
<text text-anchor="start" x="487.7935" y="-793.8" font-family="Arial" font-size="14.00" fill="#000000">comment_star_id </text>
<text text-anchor="start" x="599.062" y="-793.8" font-family="Arial" font-size="14.00" fill="#666666">[bigint(20)]</text>
<polygon fill="none" stroke="#000000" points="481,-751 481,-781 672,-781 672,-751 481,-751"/>
<text text-anchor="start" x="488" y="-763.8" font-family="Arial" font-size="14.00" fill="#000000">payload </text>
<text text-anchor="start" x="540.9307" y="-763.8" font-family="Arial" font-size="14.00" fill="#666666">[text]</text>
<polygon fill="none" stroke="#000000" points="481,-721 481,-751 672,-751 672,-721 481,-721"/>
<text text-anchor="start" x="488" y="-733.8" font-family="Arial" font-size="14.00" fill="#000000">created </text>
<text text-anchor="start" x="538.5859" y="-733.8" font-family="Arial" font-size="14.00" fill="#666666">[datetime]</text>
</g>
<!-- logs&#45;&gt;comment_stars -->
<g id="edge1" class="edge">
<title>logs:comment_star_id&#45;&gt;comment_stars:id</title>
<path fill="none" stroke="#000000" stroke-dasharray="5,2" d="M470.82,-795.2857C368.2407,-780.6807 347.2088,-547 455,-547"/>
<polygon fill="#000000" stroke="#000000" points="471.0245,-795.3 480.685,-800.489 476.0123,-795.65 481,-796 481,-796 481,-796 476.0123,-795.65 481.315,-791.511 471.0245,-795.3 471.0245,-795.3"/>
<text text-anchor="start" x="391.3057" y="-805.5" font-family="Arial" font-size="10.00" fill="#000000">Additional Relation</text>
</g>
</g>
</svg>
