<?xml version="1.0" encoding="UTF-8" standalone="no"?>
<!DOCTYPE svg PUBLIC "-//W3C//DTD SVG 1.1//EN"
 "http://www.w3.org/Graphics/SVG/1.1/DTD/svg11.dtd">
<!-- Generated by graphviz version 2.40.1 (20161225.0304)
 -->
<!-- Title: logs Pages: 1 -->
<svg width="1268pt" height="710pt"
 viewBox="0.00 0.00 1268.00 710.00" xmlns="http://www.w3.org/2000/svg" xmlns:xlink="http://www.w3.org/1999/xlink">
<g id="graph0" class="graph" transform="scale(1 1) rotate(0) translate(4 706)">
<title>logs</title>
<polygon fill="#ffffff" stroke="transparent" points="-4,4 -4,-706 1264,-706 1264,4 -4,4"/>
<!-- logs -->
<g id="node1" class="node">
<title>logs</title>
<polygon fill="#efefef" stroke="transparent" points="508.5,-622 508.5,-656 699.5,-656 699.5,-622 508.5,-622"/>
<polygon fill="none" stroke="#000000" points="508.5,-622 508.5,-656 699.5,-656 699.5,-622 508.5,-622"/>
<text text-anchor="start" x="537.5142" y="-635.6" font-family="Arial Bold" font-size="18.00" fill="#000000">logs</text>
<text text-anchor="start" x="574.5161" y="-635.6" font-family="Arial" font-size="14.00" fill="#000000"> </text>
<text text-anchor="start" x="578.4058" y="-635.6" font-family="Arial" font-size="14.00" fill="#666666">[BASE TABLE]</text>
<polygon fill="none" stroke="#000000" points="508.5,-592 508.5,-622 699.5,-622 699.5,-592 508.5,-592"/>
<text text-anchor="start" x="515.5" y="-604.8" font-family="Arial" font-size="14.00" fill="#000000">id </text>
<text text-anchor="start" x="530.2861" y="-604.8" font-family="Arial" font-size="14.00" fill="#666666">[bigint(20)]</text>
<polygon fill="none" stroke="#000000" points="508.5,-562 508.5,-592 699.5,-592 699.5,-562 508.5,-562"/>
<text text-anchor="start" x="515.5" y="-574.8" font-family="Arial" font-size="14.00" fill="#000000">user_id </text>
<text text-anchor="start" x="565.3066" y="-574.8" font-family="Arial" font-size="14.00" fill="#666666">[int(11)]</text>
<polygon fill="none" stroke="#000000" points="508.5,-532 508.5,-562 699.5,-562 699.5,-532 508.5,-532"/>
<text text-anchor="start" x="515.5" y="-544.8" font-family="Arial" font-size="14.00" fill="#000000">post_id </text>
<text text-anchor="start" x="564.5342" y="-544.8" font-family="Arial" font-size="14.00" fill="#666666">[bigint(20)]</text>
<polygon fill="none" stroke="#000000" points="508.5,-502 508.5,-532 699.5,-532 699.5,-502 508.5,-502"/>
<text text-anchor="start" x="515.5" y="-514.8" font-family="Arial" font-size="14.00" fill="#000000">comment_id </text>
<text text-anchor="start" x="595.6445" y="-514.8" font-family="Arial" font-size="14.00" fill="#666666">[bigint(20)]</text>
<polygon fill="none" stroke="#000000" points="508.5,-472 508.5,-502 699.5,-502 699.5,-472 508.5,-472"/>
<text text-anchor="start" x="515.2935" y="-484.8" font-family="Arial" font-size="14.00" fill="#000000">comment_star_id </text>
<text text-anchor="start" x="626.562" y="-484.8" font-family="Arial" font-size="14.00" fill="#666666">[bigint(20)]</text>
<polygon fill="none" stroke="#000000" points="508.5,-442 508.5,-472 699.5,-472 699.5,-442 508.5,-442"/>
<text text-anchor="start" x="515.5" y="-454.8" font-family="Arial" font-size="14.00" fill="#000000">payload </text>
<text text-anchor="start" x="568.4307" y="-454.8" font-family="Arial" font-size="14.00" fill="#666666">[text]</text>
<polygon fill="none" stroke="#000000" points="508.5,-412 508.5,-442 699.5,-442 699.5,-412 508.5,-412"/>
<text text-anchor="start" x="515.5" y="-424.8" font-family="Arial" font-size="14.00" fill="#000000">created </text>
<text text-anchor="start" x="566.0859" y="-424.8" font-family="Arial" font-size="14.00" fill="#666666">[datetime]</text>
<polygon fill="none" stroke="#000000" stroke-width="3" points="506.5,-410.5 506.5,-657.5 700.5,-657.5 700.5,-410.5 506.5,-410.5"/>
</g>
<!-- users -->
<g id="node2" class="node">
<title>users</title>
<polygon fill="#efefef" stroke="transparent" points="43.5,-238 43.5,-272 202.5,-272 202.5,-238 43.5,-238"/>
<polygon fill="none" stroke="#000000" points="43.5,-238 43.5,-272 202.5,-272 202.5,-238 43.5,-238"/>
<text text-anchor="start" x="50.999" y="-251.6" font-family="Arial Bold" font-size="18.00" fill="#000000">users</text>
<text text-anchor="start" x="99.0313" y="-251.6" font-family="Arial" font-size="14.00" fill="#000000"> </text>
<text text-anchor="start" x="102.9209" y="-251.6" font-family="Arial" font-size="14.00" fill="#666666">[BASE TABLE]</text>
<polygon fill="none" stroke="#000000" points="43.5,-208 43.5,-238 202.5,-238 202.5,-208 43.5,-208"/>
<text text-anchor="start" x="50.5" y="-220.8" font-family="Arial" font-size="14.00" fill="#000000">id </text>
<text text-anchor="start" x="65.2861" y="-220.8" font-family="Arial" font-size="14.00" fill="#666666">[int(11)]</text>
<polygon fill="none" stroke="#000000" points="43.5,-178 43.5,-208 202.5,-208 202.5,-178 43.5,-178"/>
<text text-anchor="start" x="50.2485" y="-190.8" font-family="Arial" font-size="14.00" fill="#000000">username </text>
<text text-anchor="start" x="116.3931" y="-190.8" font-family="Arial" font-size="14.00" fill="#666666">[varchar(50)]</text>
<polygon fill="none" stroke="#000000" points="43.5,-148 43.5,-178 202.5,-178 202.5,-148 43.5,-148"/>
<text text-anchor="start" x="50.5" y="-160.8" font-family="Arial" font-size="14.00" fill="#000000">password </text>
<text text-anchor="start" x="114.3066" y="-160.8" font-family="Arial" font-size="14.00" fill="#666666">[varchar(50)]</text>
<polygon fill="none" stroke="#000000" points="43.5,-118 43.5,-148 202.5,-148 202.5,-118 43.5,-118"/>
<text text-anchor="start" x="50.5" y="-130.8" font-family="Arial" font-size="14.00" fill="#000000">email </text>
<text text-anchor="start" x="87.8447" y="-130.8" font-family="Arial" font-size="14.00" fill="#666666">[varchar(355)]</text>
<polygon fill="none" stroke="#000000" points="43.5,-88 43.5,-118 202.5,-118 202.5,-88 43.5,-88"/>
<text text-anchor="start" x="50.5" y="-100.8" font-family="Arial" font-size="14.00" fill="#000000">created </text>
<text text-anchor="start" x="101.0859" y="-100.8" font-family="Arial" font-size="14.00" fill="#666666">[timestamp]</text>
<polygon fill="none" stroke="#000000" points="43.5,-58 43.5,-88 202.5,-88 202.5,-58 43.5,-58"/>
<text text-anchor="start" x="50.5" y="-70.8" font-family="Arial" font-size="14.00" fill="#000000">updated </text>
<text text-anchor="start" x="104.9961" y="-70.8" font-family="Arial" font-size="14.00" fill="#666666">[timestamp]</text>
</g>
<!-- logs&#45;&gt;users -->
<g id="edge1" class="edge">
<title>logs:user_id&#45;&gt;users:id</title>
<path fill="none" stroke="#000000" stroke-dasharray="5,2" d="M498.0964,-576.8213C350.4415,-571.6557 343.5019,-455.2576 253.5,-330 222.7594,-287.2177 255.1812,-223 202.5,-223"/>
<polygon fill="#000000" stroke="#000000" points="498.5015,-576.8282 508.4227,-581.4993 503.5007,-576.9141 508.5,-577 508.5,-577 508.5,-577 503.5007,-576.9141 508.5773,-572.5007 498.5015,-576.8282 498.5015,-576.8282"/>
<text text-anchor="start" x="450.5161" y="-586.5" font-family="Arial" font-size="10.00" fill="#000000">logs&#45;&gt;users</text>
</g>
<!-- posts -->
<g id="node3" class="node">
<title>posts</title>
<polygon fill="#efefef" stroke="transparent" points="306.5,-253 306.5,-287 567.5,-287 567.5,-253 306.5,-253"/>
<polygon fill="none" stroke="#000000" points="306.5,-253 306.5,-287 567.5,-287 567.5,-253 306.5,-253"/>
<text text-anchor="start" x="365.0122" y="-266.6" font-family="Arial Bold" font-size="18.00" fill="#000000">posts</text>
<text text-anchor="start" x="413.0181" y="-266.6" font-family="Arial" font-size="14.00" fill="#000000"> </text>
<text text-anchor="start" x="416.9077" y="-266.6" font-family="Arial" font-size="14.00" fill="#666666">[BASE TABLE]</text>
<polygon fill="none" stroke="#000000" points="306.5,-223 306.5,-253 567.5,-253 567.5,-223 306.5,-223"/>
<text text-anchor="start" x="313.5" y="-235.8" font-family="Arial" font-size="14.00" fill="#000000">id </text>
<text text-anchor="start" x="328.2861" y="-235.8" font-family="Arial" font-size="14.00" fill="#666666">[bigint(20)]</text>
<polygon fill="none" stroke="#000000" points="306.5,-193 306.5,-223 567.5,-223 567.5,-193 306.5,-193"/>
<text text-anchor="start" x="313.5" y="-205.8" font-family="Arial" font-size="14.00" fill="#000000">user_id </text>
<text text-anchor="start" x="363.3066" y="-205.8" font-family="Arial" font-size="14.00" fill="#666666">[int(11)]</text>
<polygon fill="none" stroke="#000000" points="306.5,-163 306.5,-193 567.5,-193 567.5,-163 306.5,-163"/>
<text text-anchor="start" x="313.5" y="-175.8" font-family="Arial" font-size="14.00" fill="#000000">title </text>
<text text-anchor="start" x="339.1758" y="-175.8" font-family="Arial" font-size="14.00" fill="#666666">[varchar(255)]</text>
<polygon fill="none" stroke="#000000" points="306.5,-133 306.5,-163 567.5,-163 567.5,-133 306.5,-133"/>
<text text-anchor="start" x="313.5" y="-145.8" font-family="Arial" font-size="14.00" fill="#000000">body </text>
<text text-anchor="start" x="347.748" y="-145.8" font-family="Arial" font-size="14.00" fill="#666666">[text]</text>
<polygon fill="none" stroke="#000000" points="306.5,-103 306.5,-133 567.5,-133 567.5,-103 306.5,-103"/>
<text text-anchor="start" x="313.4233" y="-115.8" font-family="Arial" font-size="14.00" fill="#000000">post_type </text>
<text text-anchor="start" x="378.0229" y="-115.8" font-family="Arial" font-size="14.00" fill="#666666">[enum(&#39;public&#39;,&#39;private&#39;,&#39;draft&#39;)]</text>
<polygon fill="none" stroke="#000000" points="306.5,-73 306.5,-103 567.5,-103 567.5,-73 306.5,-73"/>
<text text-anchor="start" x="313.5" y="-85.8" font-family="Arial" font-size="14.00" fill="#000000">created </text>
<text text-anchor="start" x="364.0859" y="-85.8" font-family="Arial" font-size="14.00" fill="#666666">[datetime]</text>
<polygon fill="none" stroke="#000000" points="306.5,-43 306.5,-73 567.5,-73 567.5,-43 306.5,-43"/>
<text text-anchor="start" x="313.5" y="-55.8" font-family="Arial" font-size="14.00" fill="#000000">updated </text>
<text text-anchor="start" x="367.9961" y="-55.8" font-family="Arial" font-size="14.00" fill="#666666">[datetime]</text>
</g>
<!-- logs&#45;&gt;posts -->
<g id="edge2" class="edge">
<title>logs:post_id&#45;&gt;posts:id</title>
<path fill="none" stroke="#000000" stroke-dasharray="5,2" d="M498.2705,-546.9558C109.8867,-543.5443 559.7182,-343.8642 567.5,-330 587.5133,-294.3438 608.3889,-238 567.5,-238"/>
<polygon fill="#000000" stroke="#000000" points="498.5001,-546.9567 508.4805,-551.5 503.5,-546.9783 508.5,-547 508.5,-547 508.5,-547 503.5,-546.9783 508.5195,-542.5 498.5001,-546.9567 498.5001,-546.9567"/>
<text text-anchor="start" x="418.8057" y="-556.5" font-family="Arial" font-size="10.00" fill="#000000">Additional Relation</text>
</g>
<!-- comments -->
<g id="node4" class="node">
<title>comments</title>
<polygon fill="#efefef" stroke="transparent" points="671.5,-238 671.5,-272 870.5,-272 870.5,-238 671.5,-238"/>
<polygon fill="none" stroke="#000000" points="671.5,-238 671.5,-272 870.5,-272 870.5,-238 671.5,-238"/>
<text text-anchor="start" x="678.002" y="-251.6" font-family="Arial Bold" font-size="18.00" fill="#000000">comments</text>
<text text-anchor="start" x="768.0283" y="-251.6" font-family="Arial" font-size="14.00" fill="#000000"> </text>
<text text-anchor="start" x="771.918" y="-251.6" font-family="Arial" font-size="14.00" fill="#666666">[BASE TABLE]</text>
<polygon fill="none" stroke="#000000" points="671.5,-208 671.5,-238 870.5,-238 870.5,-208 671.5,-208"/>
<text text-anchor="start" x="678.5" y="-220.8" font-family="Arial" font-size="14.00" fill="#000000">id </text>
<text text-anchor="start" x="693.2861" y="-220.8" font-family="Arial" font-size="14.00" fill="#666666">[bigint(20)]</text>
<polygon fill="none" stroke="#000000" points="671.5,-178 671.5,-208 870.5,-208 870.5,-178 671.5,-178"/>
<text text-anchor="start" x="678.5" y="-190.8" font-family="Arial" font-size="14.00" fill="#000000">post_id </text>
<text text-anchor="start" x="727.5342" y="-190.8" font-family="Arial" font-size="14.00" fill="#666666">[bigint(20)]</text>
<polygon fill="none" stroke="#000000" points="671.5,-148 671.5,-178 870.5,-178 870.5,-148 671.5,-148"/>
<text text-anchor="start" x="678.5" y="-160.8" font-family="Arial" font-size="14.00" fill="#000000">user_id </text>
<text text-anchor="start" x="728.3066" y="-160.8" font-family="Arial" font-size="14.00" fill="#666666">[int(11)]</text>
<polygon fill="none" stroke="#000000" points="671.5,-118 671.5,-148 870.5,-148 870.5,-118 671.5,-118"/>
<text text-anchor="start" x="678.5" y="-130.8" font-family="Arial" font-size="14.00" fill="#000000">comment </text>
<text text-anchor="start" x="739.9619" y="-130.8" font-family="Arial" font-size="14.00" fill="#666666">[text]</text>
<polygon fill="none" stroke="#000000" points="671.5,-88 671.5,-118 870.5,-118 870.5,-88 671.5,-88"/>
<text text-anchor="start" x="678.5" y="-100.8" font-family="Arial" font-size="14.00" fill="#000000">created </text>
<text text-anchor="start" x="729.0859" y="-100.8" font-family="Arial" font-size="14.00" fill="#666666">[datetime]</text>
<polygon fill="none" stroke="#000000" points="671.5,-58 671.5,-88 870.5,-88 870.5,-58 671.5,-58"/>
<text text-anchor="start" x="678.5" y="-70.8" font-family="Arial" font-size="14.00" fill="#000000">updated </text>
<text text-anchor="start" x="732.9961" y="-70.8" font-family="Arial" font-size="14.00" fill="#666666">[datetime]</text>
</g>
<!-- logs&#45;&gt;comments -->
<g id="edge3" class="edge">
<title>logs:comment_id&#45;&gt;comments:id</title>
<path fill="none" stroke="#000000" stroke-dasharray="5,2" d="M709.4805,-516.246C761.1953,-507.6573 715.2598,-427.4523 699.5,-366 693.0764,-340.9525 677.9236,-340.0475 671.5,-315 661.3425,-275.3928 630.6111,-223 671.5,-223"/>
<polygon fill="#000000" stroke="#000000" points="709.4716,-516.2465 699.1609,-512.5128 704.4858,-516.6233 699.5,-517 699.5,-517 699.5,-517 704.4858,-516.6233 699.8391,-521.4872 709.4716,-516.2465 709.4716,-516.2465"/>
<text text-anchor="start" x="706.8057" y="-526.5" font-family="Arial" font-size="10.00" fill="#000000">Additional Relation</text>
</g>
<!-- comment_stars -->
<g id="node5" class="node">
<title>comment_stars</title>
<polygon fill="#efefef" stroke="transparent" points="974.5,-238 974.5,-272 1217.5,-272 1217.5,-238 974.5,-238"/>
<polygon fill="none" stroke="#000000" points="974.5,-238 974.5,-272 1217.5,-272 1217.5,-238 974.5,-238"/>
<text text-anchor="start" x="981.4863" y="-251.6" font-family="Arial Bold" font-size="18.00" fill="#000000">comment_stars</text>
<text text-anchor="start" x="1114.5439" y="-251.6" font-family="Arial" font-size="14.00" fill="#000000"> </text>
<text text-anchor="start" x="1118.4336" y="-251.6" font-family="Arial" font-size="14.00" fill="#666666">[BASE TABLE]</text>
<polygon fill="none" stroke="#000000" points="974.5,-208 974.5,-238 1217.5,-238 1217.5,-208 974.5,-208"/>
<text text-anchor="start" x="981.5" y="-220.8" font-family="Arial" font-size="14.00" fill="#000000">id </text>
<text text-anchor="start" x="996.2861" y="-220.8" font-family="Arial" font-size="14.00" fill="#666666">[bigint(20)]</text>
<polygon fill="none" stroke="#000000" points="974.5,-178 974.5,-208 1217.5,-208 1217.5,-178 974.5,-178"/>
<text text-anchor="start" x="981.5" y="-190.8" font-family="Arial" font-size="14.00" fill="#000000">user_id </text>
<text text-anchor="start" x="1031.3066" y="-190.8" font-family="Arial" font-size="14.00" fill="#666666">[int(11)]</text>
<polygon fill="none" stroke="#000000" points="974.5,-148 974.5,-178 1217.5,-178 1217.5,-148 974.5,-148"/>
<text text-anchor="start" x="981.5" y="-160.8" font-family="Arial" font-size="14.00" fill="#000000">comment_post_id </text>
<text text-anchor="start" x="1095.8926" y="-160.8" font-family="Arial" font-size="14.00" fill="#666666">[bigint(20)]</text>
<polygon fill="none" stroke="#000000" points="974.5,-118 974.5,-148 1217.5,-148 1217.5,-118 974.5,-118"/>
<text text-anchor="start" x="981.5" y="-130.8" font-family="Arial" font-size="14.00" fill="#000000">comment_user_id </text>
<text text-anchor="start" x="1096.665" y="-130.8" font-family="Arial" font-size="14.00" fill="#666666">[int(11)]</text>
<polygon fill="none" stroke="#000000" points="974.5,-88 974.5,-118 1217.5,-118 1217.5,-88 974.5,-88"/>
<text text-anchor="start" x="981.5" y="-100.8" font-family="Arial" font-size="14.00" fill="#000000">created </text>
<text text-anchor="start" x="1032.0859" y="-100.8" font-family="Arial" font-size="14.00" fill="#666666">[timestamp]</text>
<polygon fill="none" stroke="#000000" points="974.5,-58 974.5,-88 1217.5,-88 1217.5,-58 974.5,-58"/>
<text text-anchor="start" x="981.5" y="-70.8" font-family="Arial" font-size="14.00" fill="#000000">updated </text>
<text text-anchor="start" x="1035.9961" y="-70.8" font-family="Arial" font-size="14.00" fill="#666666">[timestamp]</text>
</g>
<!-- logs&#45;&gt;comment_stars -->
<g id="edge4" class="edge">
<title>logs:comment_star_id&#45;&gt;comment_stars:id</title>
<path fill="none" stroke="#000000" stroke-dasharray="5,2" d="M709.5659,-486.8452C822.0718,-483.3146 846.1879,-419.7109 922.5,-330 956.7588,-289.7261 921.6261,-223 974.5,-223"/>
<polygon fill="#000000" stroke="#000000" points="709.4988,-486.8462 699.4308,-482.5005 704.4994,-486.9231 699.5,-487 699.5,-487 699.5,-487 704.4994,-486.9231 699.5692,-491.4995 709.4988,-486.8462 709.4988,-486.8462"/>
<text text-anchor="start" x="706.8057" y="-496.5" font-family="Arial" font-size="10.00" fill="#000000">Additional Relation</text>
</g>
</g>
</svg>
