<?xml version="1.0" encoding="UTF-8" standalone="no"?>
<!DOCTYPE svg PUBLIC "-//W3C//DTD SVG 1.1//EN"
 "http://www.w3.org/Graphics/SVG/1.1/DTD/svg11.dtd">
<!-- Generated by graphviz version 2.40.1 (20161225.0304)
 -->
<!-- Title: post_comments Pages: 1 -->
<svg width="462pt" height="356pt"
 viewBox="0.00 0.00 462.00 356.00" xmlns="http://www.w3.org/2000/svg" xmlns:xlink="http://www.w3.org/1999/xlink">
<g id="graph0" class="graph" transform="scale(1 1) rotate(0) translate(4 352)">
<title>post_comments</title>
<polygon fill="#ffffff" stroke="transparent" points="-4,4 -4,-352 458,-352 458,4 -4,4"/>
<!-- post_comments -->
<g id="node1" class="node">
<title>post_comments</title>
<polygon fill="#efefef" stroke="transparent" points="46,-256 46,-302 408,-302 408,-256 46,-256"/>
<polygon fill="none" stroke="#000000" points="46,-256 46,-302 408,-302 408,-256 46,-256"/>
<text text-anchor="start" x="139.7619" y="-279.8" font-family="Arial Bold" font-size="18.00" fill="#000000">post_comments</text>
<text text-anchor="start" x="266.7879" y="-279.8" font-family="Arial" font-size="14.00" fill="#000000"> </text>
<text text-anchor="start" x="270.6785" y="-279.8" font-family="Arial" font-size="14.00" fill="#666666">[VIEW]</text>
<text text-anchor="start" x="131.6985" y="-265.4" font-family="Arial" font-size="14.00" fill="#333333">post and comments View table</text>
<polygon fill="none" stroke="#000000" points="46,-226 46,-256 408,-256 408,-226 46,-226"/>
<text text-anchor="start" x="53" y="-237.4" font-family="Arial" font-size="14.00" fill="#000000">id </text>
<text text-anchor="start" x="67.7798" y="-237.4" font-family="Arial" font-size="14.00" fill="#666666">[bigint(20)]</text>
<text text-anchor="start" x="133.899" y="-237.4" font-family="Arial" font-size="14.00" fill="#000000"> comments.id</text>
<polygon fill="none" stroke="#000000" points="46,-196 46,-226 408,-226 408,-196 46,-196"/>
<text text-anchor="start" x="53" y="-207.4" font-family="Arial" font-size="14.00" fill="#000000">title </text>
<text text-anchor="start" x="78.6676" y="-207.4" font-family="Arial" font-size="14.00" fill="#666666">[varchar(255)]</text>
<text text-anchor="start" x="165.7868" y="-207.4" font-family="Arial" font-size="14.00" fill="#000000"> posts.title</text>
<polygon fill="none" stroke="#000000" points="46,-166 46,-196 408,-196 408,-166 46,-166"/>
<text text-anchor="start" x="53" y="-177.4" font-family="Arial" font-size="14.00" fill="#000000">post_user </text>
<text text-anchor="start" x="118.3548" y="-177.4" font-family="Arial" font-size="14.00" fill="#666666">[varchar(50)]</text>
<text text-anchor="start" x="197.6914" y="-177.4" font-family="Arial" font-size="14.00" fill="#000000"> posts.users.username</text>
<polygon fill="none" stroke="#000000" points="46,-136 46,-166 408,-166 408,-136 46,-136"/>
<text text-anchor="start" x="53" y="-147.4" font-family="Arial" font-size="14.00" fill="#000000">comment </text>
<text text-anchor="start" x="114.4502" y="-147.4" font-family="Arial" font-size="14.00" fill="#666666">[text]</text>
<text text-anchor="start" x="144.7952" y="-147.4" font-family="Arial" font-size="14.00" fill="#000000"> Comment Multi&#45;line column comment</text>
<polygon fill="none" stroke="#000000" points="46,-106 46,-136 408,-136 408,-106 46,-106"/>
<text text-anchor="start" x="52.7567" y="-117.4" font-family="Arial" font-size="14.00" fill="#000000">comment_user </text>
<text text-anchor="start" x="149.2153" y="-117.4" font-family="Arial" font-size="14.00" fill="#666666">[varchar(50)]</text>
<text text-anchor="start" x="228.5519" y="-117.4" font-family="Arial" font-size="14.00" fill="#000000"> comments.users.username</text>
<polygon fill="none" stroke="#000000" points="46,-76 46,-106 408,-106 408,-76 46,-76"/>
<text text-anchor="start" x="53" y="-87.4" font-family="Arial" font-size="14.00" fill="#000000">created </text>
<text text-anchor="start" x="103.5722" y="-87.4" font-family="Arial" font-size="14.00" fill="#666666">[datetime]</text>
<text text-anchor="start" x="165.0322" y="-87.4" font-family="Arial" font-size="14.00" fill="#000000"> comments.created</text>
<polygon fill="none" stroke="#000000" points="46,-46 46,-76 408,-76 408,-46 46,-46"/>
<text text-anchor="start" x="53" y="-57.4" font-family="Arial" font-size="14.00" fill="#000000">updated </text>
<text text-anchor="start" x="107.4768" y="-57.4" font-family="Arial" font-size="14.00" fill="#666666">[datetime]</text>
<text text-anchor="start" x="168.9368" y="-57.4" font-family="Arial" font-size="14.00" fill="#000000"> comments.updated</text>
<polygon fill="none" stroke="#000000" stroke-width="3" points="44.5,-44.5 44.5,-303.5 409.5,-303.5 409.5,-44.5 44.5,-44.5"/>
</g>
</g>
</svg>
