<?xml version="1.0" encoding="UTF-8" standalone="no"?>
<!DOCTYPE svg PUBLIC "-//W3C//DTD SVG 1.1//EN"
 "http://www.w3.org/Graphics/SVG/1.1/DTD/svg11.dtd">
<!-- Generated by graphviz version 2.40.1 (20161225.0304)
 -->
<!-- Title: posts Pages: 1 -->
<svg width="667pt" height="1049pt"
 viewBox="0.00 0.00 666.50 1049.00" xmlns="http://www.w3.org/2000/svg" xmlns:xlink="http://www.w3.org/1999/xlink">
<g id="graph0" class="graph" transform="scale(1 1) rotate(0) translate(4 1045)">
<title>posts</title>
<polygon fill="#ffffff" stroke="transparent" points="-4,4 -4,-1045 662.5,-1045 662.5,4 -4,4"/>
<!-- posts -->
<g id="node1" class="node">
<title>posts</title>
<polygon fill="#efefef" stroke="transparent" points="240,-592.5 240,-627.5 503,-627.5 503,-592.5 240,-592.5"/>
<polygon fill="none" stroke="#000000" points="240,-592.5 240,-627.5 503,-627.5 503,-592.5 240,-592.5"/>
<text text-anchor="start" x="301.3658" y="-605.3" font-family="Arial Bold" font-size="18.00" fill="#000000">posts</text>
<text text-anchor="start" x="344.3804" y="-605.3" font-family="Arial" font-size="14.00" fill="#000000"> </text>
<text text-anchor="start" x="348.271" y="-605.3" font-family="Arial" font-size="14.00" fill="#666666">[BASE TABLE]</text>
<polygon fill="none" stroke="#000000" points="240,-562.5 240,-592.5 503,-592.5 503,-562.5 240,-562.5"/>
<text text-anchor="start" x="247" y="-573.9" font-family="Arial" font-size="14.00" fill="#000000">id </text>
<text text-anchor="start" x="261.7798" y="-573.9" font-family="Arial" font-size="14.00" fill="#666666">[bigint(20)]</text>
<polygon fill="none" stroke="#000000" points="240,-532.5 240,-562.5 503,-562.5 503,-532.5 240,-532.5"/>
<text text-anchor="start" x="247" y="-543.9" font-family="Arial" font-size="14.00" fill="#000000">user_id </text>
<text text-anchor="start" x="296.7882" y="-543.9" font-family="Arial" font-size="14.00" fill="#666666">[int(11)]</text>
<polygon fill="none" stroke="#000000" points="240,-502.5 240,-532.5 503,-532.5 503,-502.5 240,-502.5"/>
<text text-anchor="start" x="247" y="-513.9" font-family="Arial" font-size="14.00" fill="#000000">title </text>
<text text-anchor="start" x="272.6676" y="-513.9" font-family="Arial" font-size="14.00" fill="#666666">[varchar(255)]</text>
<polygon fill="none" stroke="#000000" points="240,-472.5 240,-502.5 503,-502.5 503,-472.5 240,-472.5"/>
<text text-anchor="start" x="247" y="-483.9" font-family="Arial" font-size="14.00" fill="#000000">body </text>
<text text-anchor="start" x="281.2384" y="-483.9" font-family="Arial" font-size="14.00" fill="#666666">[text]</text>
<polygon fill="none" stroke="#000000" points="240,-442.5 240,-472.5 503,-472.5 503,-442.5 240,-442.5"/>
<text text-anchor="start" x="246.697" y="-453.9" font-family="Arial" font-size="14.00" fill="#000000">post_type </text>
<text text-anchor="start" x="311.2818" y="-453.9" font-family="Arial" font-size="14.00" fill="#666666">[enum(&#39;public&#39;,&#39;private&#39;,&#39;draft&#39;)]</text>
<polygon fill="none" stroke="#000000" points="240,-412.5 240,-442.5 503,-442.5 503,-412.5 240,-412.5"/>
<text text-anchor="start" x="247" y="-423.9" font-family="Arial" font-size="14.00" fill="#000000">created </text>
<text text-anchor="start" x="297.5722" y="-423.9" font-family="Arial" font-size="14.00" fill="#666666">[datetime]</text>
<polygon fill="none" stroke="#000000" points="240,-382.5 240,-412.5 503,-412.5 503,-382.5 240,-382.5"/>
<text text-anchor="start" x="247" y="-393.9" font-family="Arial" font-size="14.00" fill="#000000">updated </text>
<text text-anchor="start" x="301.4768" y="-393.9" font-family="Arial" font-size="14.00" fill="#666666">[datetime]</text>
<polygon fill="none" stroke="#000000" stroke-width="3" points="238,-381.5 238,-629.5 504,-629.5 504,-381.5 238,-381.5"/>
</g>
<!-- users -->
<g id="node4" class="node">
<title>users</title>
<polygon fill="#efefef" stroke="transparent" points="292,-222.5 292,-257.5 451,-257.5 451,-222.5 292,-222.5"/>
<polygon fill="none" stroke="#000000" points="292,-222.5 292,-257.5 451,-257.5 451,-222.5 292,-222.5"/>
<text text-anchor="start" x="300.8708" y="-235.3" font-family="Arial Bold" font-size="18.00" fill="#000000">users</text>
<text text-anchor="start" x="344.8754" y="-235.3" font-family="Arial" font-size="14.00" fill="#000000"> </text>
<text text-anchor="start" x="348.766" y="-235.3" font-family="Arial" font-size="14.00" fill="#666666">[BASE TABLE]</text>
<polygon fill="none" stroke="#000000" points="292,-192.5 292,-222.5 451,-222.5 451,-192.5 292,-192.5"/>
<text text-anchor="start" x="299" y="-203.9" font-family="Arial" font-size="14.00" fill="#000000">id </text>
<text text-anchor="start" x="313.7798" y="-203.9" font-family="Arial" font-size="14.00" fill="#666666">[int(11)]</text>
<polygon fill="none" stroke="#000000" points="292,-162.5 292,-192.5 451,-192.5 451,-162.5 292,-162.5"/>
<text text-anchor="start" x="298.7693" y="-173.9" font-family="Arial" font-size="14.00" fill="#000000">username </text>
<text text-anchor="start" x="364.8941" y="-173.9" font-family="Arial" font-size="14.00" fill="#666666">[varchar(50)]</text>
<polygon fill="none" stroke="#000000" points="292,-132.5 292,-162.5 451,-162.5 451,-132.5 292,-132.5"/>
<text text-anchor="start" x="299" y="-143.9" font-family="Arial" font-size="14.00" fill="#000000">password </text>
<text text-anchor="start" x="362.7882" y="-143.9" font-family="Arial" font-size="14.00" fill="#666666">[varchar(50)]</text>
<polygon fill="none" stroke="#000000" points="292,-102.5 292,-132.5 451,-132.5 451,-102.5 292,-102.5"/>
<text text-anchor="start" x="299" y="-113.9" font-family="Arial" font-size="14.00" fill="#000000">email </text>
<text text-anchor="start" x="336.3296" y="-113.9" font-family="Arial" font-size="14.00" fill="#666666">[varchar(355)]</text>
<polygon fill="none" stroke="#000000" points="292,-72.5 292,-102.5 451,-102.5 451,-72.5 292,-72.5"/>
<text text-anchor="start" x="299" y="-83.9" font-family="Arial" font-size="14.00" fill="#000000">created </text>
<text text-anchor="start" x="349.5722" y="-83.9" font-family="Arial" font-size="14.00" fill="#666666">[timestamp]</text>
<polygon fill="none" stroke="#000000" points="292,-42.5 292,-72.5 451,-72.5 451,-42.5 292,-42.5"/>
<text text-anchor="start" x="299" y="-53.9" font-family="Arial" font-size="14.00" fill="#000000">updated </text>
<text text-anchor="start" x="353.4768" y="-53.9" font-family="Arial" font-size="14.00" fill="#666666">[timestamp]</text>
</g>
<!-- posts&#45;&gt;users -->
<g id="edge3" class="edge">
<title>posts:user_id&#45;&gt;users:id</title>
<path fill="none" stroke="#000000" d="M230.0082,-546.9931C89.5186,-532.3981 142.5653,-207.5 292,-207.5"/>
<polygon fill="#000000" stroke="#000000" points="230.0128,-546.9933 239.772,-551.9942 235.0064,-547.2466 240,-547.5 240,-547.5 240,-547.5 235.0064,-547.2466 240.228,-543.0058 230.0128,-546.9933 230.0128,-546.9933"/>
<text text-anchor="start" x="6.945" y="-557.5" font-family="Arial" font-size="10.00" fill="#000000">FOREIGN KEY (user_id) REFERENCES users (id)</text>
</g>
<!-- comments -->
<g id="node2" class="node">
<title>comments</title>
<polygon fill="#efefef" stroke="transparent" points="126,-947.5 126,-982.5 320,-982.5 320,-947.5 126,-947.5"/>
<polygon fill="none" stroke="#000000" points="126,-947.5 126,-982.5 320,-982.5 320,-947.5 126,-947.5"/>
<text text-anchor="start" x="132.8705" y="-960.3" font-family="Arial Bold" font-size="18.00" fill="#000000">comments</text>
<text text-anchor="start" x="215.8757" y="-960.3" font-family="Arial" font-size="14.00" fill="#000000"> </text>
<text text-anchor="start" x="219.7663" y="-960.3" font-family="Arial" font-size="14.00" fill="#666666">[BASE TABLE]</text>
<polygon fill="none" stroke="#000000" points="126,-917.5 126,-947.5 320,-947.5 320,-917.5 126,-917.5"/>
<text text-anchor="start" x="133" y="-928.9" font-family="Arial" font-size="14.00" fill="#000000">id </text>
<text text-anchor="start" x="147.7798" y="-928.9" font-family="Arial" font-size="14.00" fill="#666666">[bigint(20)]</text>
<polygon fill="none" stroke="#000000" points="126,-887.5 126,-917.5 320,-917.5 320,-887.5 126,-887.5"/>
<text text-anchor="start" x="133" y="-898.9" font-family="Arial" font-size="14.00" fill="#000000">post_id </text>
<text text-anchor="start" x="182.0182" y="-898.9" font-family="Arial" font-size="14.00" fill="#666666">[bigint(20)]</text>
<polygon fill="none" stroke="#000000" points="126,-857.5 126,-887.5 320,-887.5 320,-857.5 126,-857.5"/>
<text text-anchor="start" x="133" y="-868.9" font-family="Arial" font-size="14.00" fill="#000000">user_id </text>
<text text-anchor="start" x="182.7882" y="-868.9" font-family="Arial" font-size="14.00" fill="#666666">[int(11)]</text>
<polygon fill="none" stroke="#000000" points="126,-827.5 126,-857.5 320,-857.5 320,-827.5 126,-827.5"/>
<text text-anchor="start" x="133" y="-838.9" font-family="Arial" font-size="14.00" fill="#000000">comment </text>
<text text-anchor="start" x="194.4502" y="-838.9" font-family="Arial" font-size="14.00" fill="#666666">[text]</text>
<polygon fill="none" stroke="#000000" points="126,-797.5 126,-827.5 320,-827.5 320,-797.5 126,-797.5"/>
<text text-anchor="start" x="133" y="-808.9" font-family="Arial" font-size="14.00" fill="#000000">created </text>
<text text-anchor="start" x="183.5722" y="-808.9" font-family="Arial" font-size="14.00" fill="#666666">[datetime]</text>
<polygon fill="none" stroke="#000000" points="126,-767.5 126,-797.5 320,-797.5 320,-767.5 126,-767.5"/>
<text text-anchor="start" x="133" y="-778.9" font-family="Arial" font-size="14.00" fill="#000000">updated </text>
<text text-anchor="start" x="187.4768" y="-778.9" font-family="Arial" font-size="14.00" fill="#666666">[datetime]</text>
</g>
<!-- comments&#45;&gt;posts -->
<g id="edge1" class="edge">
<title>comments:post_id&#45;&gt;posts:id</title>
<path fill="none" stroke="#000000" d="M330.3164,-901.8011C395.056,-892.4301 356.1559,-790.9275 320,-725 299.7243,-688.0288 260.2757,-710.9712 240,-674 219.3767,-636.395 197.1111,-577.5 240,-577.5"/>
<polygon fill="#000000" stroke="#000000" points="329.9771,-901.824 319.6958,-898.0103 324.9886,-902.162 320,-902.5 320,-902.5 320,-902.5 324.9886,-902.162 320.3042,-906.9897 329.9771,-901.824 329.9771,-901.824"/>
<text text-anchor="start" x="327.495" y="-912.5" font-family="Arial" font-size="10.00" fill="#000000">FOREIGN KEY (post_id) REFERENCES posts (id)</text>
</g>
<!-- logs -->
<g id="node3" class="node">
<title>logs</title>
<polygon fill="#efefef" stroke="transparent" points="425,-962.5 425,-997.5 616,-997.5 616,-962.5 425,-962.5"/>
<polygon fill="none" stroke="#000000" points="425,-962.5 425,-997.5 616,-997.5 616,-962.5 425,-962.5"/>
<text text-anchor="start" x="455.3698" y="-975.3" font-family="Arial Bold" font-size="18.00" fill="#000000">logs</text>
<text text-anchor="start" x="488.3764" y="-975.3" font-family="Arial" font-size="14.00" fill="#000000"> </text>
<text text-anchor="start" x="492.267" y="-975.3" font-family="Arial" font-size="14.00" fill="#666666">[BASE TABLE]</text>
<polygon fill="none" stroke="#000000" points="425,-932.5 425,-962.5 616,-962.5 616,-932.5 425,-932.5"/>
<text text-anchor="start" x="432" y="-943.9" font-family="Arial" font-size="14.00" fill="#000000">id </text>
<text text-anchor="start" x="446.7798" y="-943.9" font-family="Arial" font-size="14.00" fill="#666666">[bigint(20)]</text>
<polygon fill="none" stroke="#000000" points="425,-902.5 425,-932.5 616,-932.5 616,-902.5 425,-902.5"/>
<text text-anchor="start" x="432" y="-913.9" font-family="Arial" font-size="14.00" fill="#000000">user_id </text>
<text text-anchor="start" x="481.7882" y="-913.9" font-family="Arial" font-size="14.00" fill="#666666">[int(11)]</text>
<polygon fill="none" stroke="#000000" points="425,-872.5 425,-902.5 616,-902.5 616,-872.5 425,-872.5"/>
<text text-anchor="start" x="432" y="-883.9" font-family="Arial" font-size="14.00" fill="#000000">post_id </text>
<text text-anchor="start" x="481.0182" y="-883.9" font-family="Arial" font-size="14.00" fill="#666666">[bigint(20)]</text>
<polygon fill="none" stroke="#000000" points="425,-842.5 425,-872.5 616,-872.5 616,-842.5 425,-842.5"/>
<text text-anchor="start" x="432" y="-853.9" font-family="Arial" font-size="14.00" fill="#000000">comment_id </text>
<text text-anchor="start" x="512.122" y="-853.9" font-family="Arial" font-size="14.00" fill="#666666">[bigint(20)]</text>
<polygon fill="none" stroke="#000000" points="425,-812.5 425,-842.5 616,-842.5 616,-812.5 425,-812.5"/>
<text text-anchor="start" x="431.8212" y="-823.9" font-family="Arial" font-size="14.00" fill="#000000">comment_star_id </text>
<text text-anchor="start" x="543.0596" y="-823.9" font-family="Arial" font-size="14.00" fill="#666666">[bigint(20)]</text>
<polygon fill="none" stroke="#000000" points="425,-782.5 425,-812.5 616,-812.5 616,-782.5 425,-782.5"/>
<text text-anchor="start" x="432" y="-793.9" font-family="Arial" font-size="14.00" fill="#000000">payload </text>
<text text-anchor="start" x="484.9102" y="-793.9" font-family="Arial" font-size="14.00" fill="#666666">[text]</text>
<polygon fill="none" stroke="#000000" points="425,-752.5 425,-782.5 616,-782.5 616,-752.5 425,-752.5"/>
<text text-anchor="start" x="432" y="-763.9" font-family="Arial" font-size="14.00" fill="#000000">created </text>
<text text-anchor="start" x="482.5722" y="-763.9" font-family="Arial" font-size="14.00" fill="#666666">[datetime]</text>
</g>
<!-- logs&#45;&gt;posts -->
<g id="edge2" class="edge">
<title>logs:post_id&#45;&gt;posts:id</title>
<path fill="none" stroke="#000000" stroke-dasharray="5,2" d="M414.6548,-886.784C349.5344,-877.1871 384.4756,-773.336 425,-710 445.5777,-677.8389 482.4223,-706.1611 503,-674 526.1151,-637.8732 545.8889,-577.5 503,-577.5"/>
<polygon fill="#000000" stroke="#000000" points="415.0239,-886.8095 424.6893,-891.9893 420.0119,-887.1547 425,-887.5 425,-887.5 425,-887.5 420.0119,-887.1547 425.3107,-883.0107 415.0239,-886.8095 415.0239,-886.8095"/>
<text text-anchor="start" x="335.3245" y="-871.5" font-family="Arial" font-size="10.00" fill="#000000">Additional Relation</text>
</g>
</g>
</svg>
ial" font-size="14.00" fill="#666666">[datetime]</text>
</g>
<!-- logs&#45;&gt;posts -->
<g id="edge5" class="edge">
<title>logs:post_id&#45;&gt;posts:id</title>
<path fill="none" stroke="#000000" stroke-dasharray="5,2" d="M372.2396,-1558.8492C269.9693,-1502.8237 230.8658,-577.5 337,-577.5"/>
<polygon fill="#000000" stroke="#000000" points="372.3496,-1558.8789 380.8205,-1565.8427 377.1748,-1560.1895 382,-1561.5 382,-1561.5 382,-1561.5 377.1748,-1560.1895 383.1795,-1557.1573 372.3496,-1558.8789 372.3496,-1558.8789"/>
<text text-anchor="start" x="292.3245" y="-1571.5" font-family="Arial" font-size="10.00" fill="#000000">Additional Relation</text>
</g>
<!-- logs&#45;&gt;comments -->
<g id="edge2" class="edge">
<title>logs:comment_id&#45;&gt;comments:id</title>
<path fill="none" stroke="#000000" stroke-dasharray="5,2" d="M376.0674,-1523.2846C353.8993,-1450.4239 395.1355,-917.5 427,-917.5"/>
<polygon fill="#000000" stroke="#000000" points="376.1455,-1523.3928 378.3518,-1534.1345 379.0728,-1527.4464 382,-1531.5 382,-1531.5 382,-1531.5 379.0728,-1527.4464 385.6482,-1528.8655 376.1455,-1523.3928 376.1455,-1523.3928"/>
<text text-anchor="start" x="292.3245" y="-1541.5" font-family="Arial" font-size="10.00" fill="#000000">Additional Relation</text>
</g>
<!-- comment_stars -->
<g id="node4" class="node">
<title>comment_stars</title>
<polygon fill="#efefef" stroke="transparent" points="455,-1269.5 455,-1304.5 689,-1304.5 689,-1269.5 455,-1269.5"/>
<polygon fill="none" stroke="#000000" points="455,-1269.5 455,-1304.5 689,-1304.5 689,-1269.5 455,-1269.5"/>
<text text-anchor="start" x="461.8671" y="-1282.3" font-family="Arial Bold" font-size="18.00" fill="#000000">comment_stars</text>
<text text-anchor="start" x="584.8791" y="-1282.3" font-family="Arial" font-size="14.00" fill="#000000"> </text>
<text text-anchor="start" x="588.7697" y="-1282.3" font-family="Arial" font-size="14.00" fill="#666666">[BASE TABLE]</text>
<polygon fill="none" stroke="#000000" points="455,-1239.5 455,-1269.5 689,-1269.5 689,-1239.5 455,-1239.5"/>
<text text-anchor="start" x="462" y="-1250.9" font-family="Arial" font-size="14.00" fill="#000000">id </text>
<text text-anchor="start" x="476.7798" y="-1250.9" font-family="Arial" font-size="14.00" fill="#666666">[bigint(20)]</text>
<polygon fill="none" stroke="#000000" points="455,-1209.5 455,-1239.5 689,-1239.5 689,-1209.5 455,-1209.5"/>
<text text-anchor="start" x="462" y="-1220.9" font-family="Arial" font-size="14.00" fill="#000000">user_id </text>
<text text-anchor="start" x="511.7882" y="-1220.9" font-family="Arial" font-size="14.00" fill="#666666">[int(11)]</text>
<polygon fill="none" stroke="#000000" points="455,-1179.5 455,-1209.5 689,-1209.5 689,-1179.5 455,-1179.5"/>
<text text-anchor="start" x="462" y="-1190.9" font-family="Arial" font-size="14.00" fill="#000000">comment_post_id </text>
<text text-anchor="start" x="576.3604" y="-1190.9" font-family="Arial" font-size="14.00" fill="#666666">[bigint(20)]</text>
<polygon fill="none" stroke="#000000" points="455,-1149.5 455,-1179.5 689,-1179.5 689,-1149.5 455,-1149.5"/>
<text text-anchor="start" x="462" y="-1160.9" font-family="Arial" font-size="14.00" fill="#000000">comment_user_id </text>
<text text-anchor="start" x="577.1304" y="-1160.9" font-family="Arial" font-size="14.00" fill="#666666">[int(11)]</text>
<polygon fill="none" stroke="#000000" points="455,-1119.5 455,-1149.5 689,-1149.5 689,-1119.5 455,-1119.5"/>
<text text-anchor="start" x="462" y="-1130.9" font-family="Arial" font-size="14.00" fill="#000000">created </text>
<text text-anchor="start" x="512.5722" y="-1130.9" font-family="Arial" font-size="14.00" fill="#666666">[timestamp]</text>
<polygon fill="none" stroke="#000000" points="455,-1089.5 455,-1119.5 689,-1119.5 689,-1089.5 455,-1089.5"/>
<text text-anchor="start" x="462" y="-1100.9" font-family="Arial" font-size="14.00" fill="#000000">updated </text>
<text text-anchor="start" x="516.4768" y="-1100.9" font-family="Arial" font-size="14.00" fill="#666666">[timestamp]</text>
</g>
<!-- logs&#45;&gt;comment_stars -->
<g id="edge7" class="edge">
<title>logs:comment_star_id&#45;&gt;comment_stars:id</title>
<path fill="none" stroke="#000000" stroke-dasharray="5,2" d="M582.9495,-1500.4177C622.1994,-1491.0445 601.8904,-1423.019 573,-1384 540.3724,-1339.9335 487.6276,-1392.0665 455,-1348 430.2719,-1314.6026 413.4444,-1254.5 455,-1254.5"/>
<polygon fill="#000000" stroke="#000000" points="582.9414,-1500.4185 572.5133,-1497.0264 577.9707,-1500.9592 573,-1501.5 573,-1501.5 573,-1501.5 577.9707,-1500.9592 573.4867,-1505.9736 582.9414,-1500.4185 582.9414,-1500.4185"/>
<text text-anchor="start" x="580.3245" y="-1511.5" font-family="Arial" font-size="10.00" fill="#000000">Additional Relation</text>
</g>
<!-- logs&#45;&gt;users -->
<g id="edge6" class="edge">
<title>logs:user_id&#45;&gt;users:id</title>
<path fill="none" stroke="#000000" stroke-dasharray="5,2" d="M583.1192,-1591.2544C704.2527,-1585.2349 700.6394,-1469.4849 741,-1348 882.7673,-921.2826 698.6498,-779.4133 779,-337 782.0138,-320.406 788.2984,-317.6477 791,-301 797.6565,-259.981 832.5556,-207.5 791,-207.5"/>
<polygon fill="#000000" stroke="#000000" points="582.9971,-1591.2573 572.8908,-1587.0013 577.9985,-1591.3787 573,-1591.5 573,-1591.5 573,-1591.5 577.9985,-1591.3787 573.1092,-1595.9987 582.9971,-1591.2573 582.9971,-1591.2573"/>
<text text-anchor="start" x="580.024" y="-1601.5" font-family="Arial" font-size="10.00" fill="#000000">logs&#45;&gt;users</text>
</g>
<!-- comment_stars&#45;&gt;comments -->
<g id="edge3" class="edge">
<title>comment_stars:comment_post_id&#45;&gt;comments:post_id</title>
<path fill="none" stroke="#000000" d="M444.7132,-1193.5973C392.2628,-1183.7177 416.1804,-1095.1407 455,-1047 502.3882,-988.2333 573.6118,-1069.7667 621,-1011 655.4547,-968.2722 675.8889,-887.5 621,-887.5"/>
<polygon fill="#000000" stroke="#000000" points="445.0383,-1193.6258 454.6066,-1198.9828 450.0191,-1194.0629 455,-1194.5 455,-1194.5 455,-1194.5 450.0191,-1194.0629 455.3934,-1190.0172 445.0383,-1193.6258 445.0383,-1193.6258"/>
<text text-anchor="start" x="7.1435" y="-1204.5" font-family="Arial" font-size="10.00" fill="#000000">FOREIGN KEY (comment_post_id, comment_user_id) REFERENCES comments (post_id, user_id)</text>
</g>
<!-- comment_stars&#45;&gt;users -->
<g id="edge9" class="edge">
<title>comment_stars:comment_user_id&#45;&gt;users:id</title>
<path fill="none" stroke="#000000" d="M698.5725,-1161.4907C775.5455,-1110.0582 704.8308,-415.6147 746,-337 757.8821,-314.3105 779.905,-324.0846 791,-301 809.0014,-263.5458 832.5556,-207.5 791,-207.5"/>
<polygon fill="#000000" stroke="#000000" points="698.5397,-1161.5009 687.6504,-1160.2071 693.7699,-1163.0005 689,-1164.5 689,-1164.5 689,-1164.5 693.7699,-1163.0005 690.3496,-1168.7929 698.5397,-1161.5009 698.5397,-1161.5009"/>
<text text-anchor="start" x="695.6085" y="-1174.5" font-family="Arial" font-size="10.00" fill="#000000">FOREIGN KEY (comment_user_id) REFERENCES users (id)</text>
</g>
<!-- user_options -->
<g id="node6" class="node">
<title>user_options</title>
<polygon fill="#efefef" stroke="transparent" points="831,-547.5 831,-582.5 1045,-582.5 1045,-547.5 831,-547.5"/>
<polygon fill="none" stroke="#000000" points="831,-547.5 831,-582.5 1045,-582.5 1045,-547.5 831,-547.5"/>
<text text-anchor="start" x="837.8571" y="-560.3" font-family="Arial Bold" font-size="18.00" fill="#000000">user_options</text>
<text text-anchor="start" x="940.8891" y="-560.3" font-family="Arial" font-size="14.00" fill="#000000"> </text>
<text text-anchor="start" x="944.7797" y="-560.3" font-family="Arial" font-size="14.00" fill="#666666">[BASE TABLE]</text>
<polygon fill="none" stroke="#000000" points="831,-517.5 831,-547.5 1045,-547.5 1045,-517.5 831,-517.5"/>
<text text-anchor="start" x="838" y="-528.9" font-family="Arial" font-size="14.00" fill="#000000">user_id </text>
<text text-anchor="start" x="887.7882" y="-528.9" font-family="Arial" font-size="14.00" fill="#666666">[int(11)]</text>
<polygon fill="none" stroke="#000000" points="831,-487.5 831,-517.5 1045,-517.5 1045,-487.5 831,-487.5"/>
<text text-anchor="start" x="838" y="-498.9" font-family="Arial" font-size="14.00" fill="#000000">show_email </text>
<text text-anchor="start" x="915.784" y="-498.9" font-family="Arial" font-size="14.00" fill="#666666">[tinyint(1)]</text>
<polygon fill="none" stroke="#000000" points="831,-457.5 831,-487.5 1045,-487.5 1045,-457.5 831,-457.5"/>
<text text-anchor="start" x="838" y="-468.9" font-family="Arial" font-size="14.00" fill="#000000">created </text>
<text text-anchor="start" x="888.5722" y="-468.9" font-family="Arial" font-size="14.00" fill="#666666">[timestamp]</text>
<polygon fill="none" stroke="#000000" points="831,-427.5 831,-457.5 1045,-457.5 1045,-427.5 831,-427.5"/>
<text text-anchor="start" x="838" y="-438.9" font-family="Arial" font-size="14.00" fill="#000000">updated </text>
<text text-anchor="start" x="892.4768" y="-438.9" font-family="Arial" font-size="14.00" fill="#666666">[timestamp]</text>
</g>
<!-- user_options&#45;&gt;users -->
<g id="edge10" class="edge">
<title>user_options:user_id&#45;&gt;users:id</title>
<path fill="none" stroke="#000000" d="M820.6684,-531.8821C697.9595,-516.2056 932.8391,-207.5 791,-207.5"/>
<polygon fill="#000000" stroke="#000000" points="821.0178,-531.9029 830.7313,-536.992 826.0089,-532.2014 831,-532.5 831,-532.5 831,-532.5 826.0089,-532.2014 831.2687,-528.008 821.0178,-531.9029 821.0178,-531.9029"/>
<text text-anchor="start" x="597.945" y="-516.5" font-family="Arial" font-size="10.00" fill="#000000">FOREIGN KEY (user_id) REFERENCES users (id)</text>
</g>
</g>
</svg>
