<?xml version="1.0" encoding="UTF-8" standalone="no"?>
<!DOCTYPE svg PUBLIC "-//W3C//DTD SVG 1.1//EN"
 "http://www.w3.org/Graphics/SVG/1.1/DTD/svg11.dtd">
<!-- Generated by graphviz version 2.40.1 (20161225.0304)
 -->
<!-- Title: post_comments Pages: 1 -->
<svg width="299pt" height="344pt"
 viewBox="0.00 0.00 299.00 344.00" xmlns="http://www.w3.org/2000/svg" xmlns:xlink="http://www.w3.org/1999/xlink">
<g id="graph0" class="graph" transform="scale(1 1) rotate(0) translate(4 340)">
<title>post_comments</title>
<polygon fill="#ffffff" stroke="transparent" points="-4,4 -4,-340 295,-340 295,4 -4,4"/>
<!-- post_comments -->
<g id="node1" class="node">
<title>post_comments</title>
<polygon fill="#efefef" stroke="transparent" points="46.5,-256 46.5,-290 245.5,-290 245.5,-256 46.5,-256"/>
<polygon fill="none" stroke="#000000" points="46.5,-256 46.5,-290 245.5,-290 245.5,-256 46.5,-256"/>
<text text-anchor="start" x="53.2598" y="-269.6" font-family="Arial Bold" font-size="18.00" fill="#000000">post_comments</text>
<text text-anchor="start" x="191.292" y="-269.6" font-family="Arial" font-size="14.00" fill="#000000"> </text>
<text text-anchor="start" x="195.1816" y="-269.6" font-family="Arial" font-size="14.00" fill="#666666">[VIEW]</text>
<polygon fill="none" stroke="#000000" points="46.5,-226 46.5,-256 245.5,-256 245.5,-226 46.5,-226"/>
<text text-anchor="start" x="53.5" y="-238.8" font-family="Arial" font-size="14.00" fill="#000000">id </text>
<text text-anchor="start" x="68.2861" y="-238.8" font-family="Arial" font-size="14.00" fill="#666666">[bigint(20)]</text>
<polygon fill="none" stroke="#000000" points="46.5,-196 46.5,-226 245.5,-226 245.5,-196 46.5,-196"/>
<text text-anchor="start" x="53.5" y="-208.8" font-family="Arial" font-size="14.00" fill="#000000">title </text>
<text text-anchor="start" x="79.1758" y="-208.8" font-family="Arial" font-size="14.00" fill="#666666">[varchar(255)]</text>
<polygon fill="none" stroke="#000000" points="46.5,-166 46.5,-196 245.5,-196 245.5,-166 46.5,-166"/>
<text text-anchor="start" x="53.5" y="-178.8" font-family="Arial" font-size="14.00" fill="#000000">post_user </text>
<text text-anchor="start" x="118.8721" y="-178.8" font-family="Arial" font-size="14.00" fill="#666666">[varchar(50)]</text>
<polygon fill="none" stroke="#000000" points="46.5,-136 46.5,-166 245.5,-166 245.5,-136 46.5,-136"/>
<text text-anchor="start" x="53.5" y="-148.8" font-family="Arial" font-size="14.00" fill="#000000">comment </text>
<text text-anchor="start" x="114.9619" y="-148.8" font-family="Arial" font-size="14.00" fill="#666666">[text]</text>
<polygon fill="none" stroke="#000000" points="46.5,-106 46.5,-136 245.5,-136 245.5,-106 46.5,-106"/>
<text text-anchor="start" x="53.5" y="-118.8" font-family="Arial" font-size="14.00" fill="#000000">comment_user </text>
<text text-anchor="start" x="149.9824" y="-118.8" font-family="Arial" font-size="14.00" fill="#666666">[varchar(50)]</text>
<polygon fill="none" stroke="#000000" points="46.5,-76 46.5,-106 245.5,-106 245.5,-76 46.5,-76"/>
<text text-anchor="start" x="53.5" y="-88.8" font-family="Arial" font-size="14.00" fill="#000000">created </text>
<text text-anchor="start" x="104.0859" y="-88.8" font-family="Arial" font-size="14.00" fill="#666666">[datetime]</text>
<polygon fill="none" stroke="#000000" points="46.5,-46 46.5,-76 245.5,-76 245.5,-46 46.5,-46"/>
<text text-anchor="start" x="53.5" y="-58.8" font-family="Arial" font-size="14.00" fill="#000000">updated </text>
<text text-anchor="start" x="107.9961" y="-58.8" font-family="Arial" font-size="14.00" fill="#666666">[datetime]</text>
<polygon fill="none" stroke="#000000" stroke-width="3" points="44.5,-44.5 44.5,-291.5 246.5,-291.5 246.5,-44.5 44.5,-44.5"/>
</g>
</g>
</svg>
