<?xml version="1.0" encoding="UTF-8" standalone="no"?>
<!DOCTYPE svg PUBLIC "-//W3C//DTD SVG 1.1//EN"
 "http://www.w3.org/Graphics/SVG/1.1/DTD/svg11.dtd">
<!-- Generated by graphviz version 2.40.1 (20161225.0304)
 -->
<!-- Title: testdb Pages: 1 -->
<svg width="1547pt" height="1803pt"
 viewBox="0.00 0.00 1547.00 1803.00" xmlns="http://www.w3.org/2000/svg" xmlns:xlink="http://www.w3.org/1999/xlink">
<g id="graph0" class="graph" transform="scale(1 1) rotate(0) translate(4 1799)">
<title>testdb</title>
<polygon fill="#ffffff" stroke="transparent" points="-4,4 -4,-1799 1543,-1799 1543,4 -4,4"/>
<!-- CamelizeTable -->
<g id="node1" class="node">
<title>CamelizeTable</title>
<polygon fill="#efefef" stroke="transparent" points="205,-1636 205,-1671 425,-1671 425,-1636 205,-1636"/>
<polygon fill="none" stroke="#000000" points="205,-1636 205,-1671 425,-1671 425,-1636 205,-1636"/>
<text text-anchor="start" x="211.8979" y="-1648.8" font-family="Bold" font-size="18.00" fill="#000000">CamelizeTable</text>
<text text-anchor="start" x="320.8483" y="-1648.8" font-family="Arial" font-size="14.00" fill="#000000"> </text>
<text text-anchor="start" x="324.7389" y="-1648.8" font-family="Arial" font-size="14.00" fill="#666666">[BASE TABLE]</text>
<polygon fill="none" stroke="#000000" points="205,-1606 205,-1636 425,-1636 425,-1606 205,-1606"/>
<text text-anchor="start" x="212" y="-1617.4" font-family="Arial" font-size="14.00" fill="#000000">id </text>
<text text-anchor="start" x="226.7798" y="-1617.4" font-family="Arial" font-size="14.00" fill="#666666">[bigint(20)]</text>
<polygon fill="none" stroke="#000000" points="205,-1576 205,-1606 425,-1606 425,-1576 205,-1576"/>
<text text-anchor="start" x="212" y="-1587.4" font-family="Arial" font-size="14.00" fill="#000000">created </text>
<text text-anchor="start" x="262.5722" y="-1587.4" font-family="Arial" font-size="14.00" fill="#666666">[datetime]</text>
</g>
<!-- comment_stars -->
<g id="node2" class="node">
<title>comment_stars</title>
<polygon fill="#efefef" stroke="transparent" points="300,-1338.5 300,-1373.5 520,-1373.5 520,-1338.5 300,-1338.5"/>
<polygon fill="none" stroke="#000000" points="300,-1338.5 300,-1373.5 520,-1373.5 520,-1338.5 300,-1338.5"/>
<text text-anchor="start" x="306.8871" y="-1351.3" font-family="Bold" font-size="18.00" fill="#000000">comment_stars</text>
<text text-anchor="start" x="415.8591" y="-1351.3" font-family="Arial" font-size="14.00" fill="#000000"> </text>
<text text-anchor="start" x="419.7497" y="-1351.3" font-family="Arial" font-size="14.00" fill="#666666">[BASE TABLE]</text>
<polygon fill="none" stroke="#000000" points="300,-1308.5 300,-1338.5 520,-1338.5 520,-1308.5 300,-1308.5"/>
<text text-anchor="start" x="307" y="-1319.9" font-family="Arial" font-size="14.00" fill="#000000">id </text>
<text text-anchor="start" x="321.7798" y="-1319.9" font-family="Arial" font-size="14.00" fill="#666666">[bigint(20)]</text>
<polygon fill="none" stroke="#000000" points="300,-1278.5 300,-1308.5 520,-1308.5 520,-1278.5 300,-1278.5"/>
<text text-anchor="start" x="307" y="-1289.9" font-family="Arial" font-size="14.00" fill="#000000">user_id </text>
<text text-anchor="start" x="356.7882" y="-1289.9" font-family="Arial" font-size="14.00" fill="#666666">[int(11)]</text>
<polygon fill="none" stroke="#000000" points="300,-1248.5 300,-1278.5 520,-1278.5 520,-1248.5 300,-1248.5"/>
<text text-anchor="start" x="307" y="-1259.9" font-family="Arial" font-size="14.00" fill="#000000">comment_post_id </text>
<text text-anchor="start" x="421.3604" y="-1259.9" font-family="Arial" font-size="14.00" fill="#666666">[bigint(20)]</text>
<polygon fill="none" stroke="#000000" points="300,-1218.5 300,-1248.5 520,-1248.5 520,-1218.5 300,-1218.5"/>
<text text-anchor="start" x="307" y="-1229.9" font-family="Arial" font-size="14.00" fill="#000000">comment_user_id </text>
<text text-anchor="start" x="422.1304" y="-1229.9" font-family="Arial" font-size="14.00" fill="#666666">[int(11)]</text>
<polygon fill="none" stroke="#000000" points="300,-1188.5 300,-1218.5 520,-1218.5 520,-1188.5 300,-1188.5"/>
<text text-anchor="start" x="307" y="-1199.9" font-family="Arial" font-size="14.00" fill="#000000">created </text>
<text text-anchor="start" x="357.5722" y="-1199.9" font-family="Arial" font-size="14.00" fill="#666666">[timestamp]</text>
<polygon fill="none" stroke="#000000" points="300,-1158.5 300,-1188.5 520,-1188.5 520,-1158.5 300,-1158.5"/>
<text text-anchor="start" x="307" y="-1169.9" font-family="Arial" font-size="14.00" fill="#000000">updated </text>
<text text-anchor="start" x="361.4768" y="-1169.9" font-family="Arial" font-size="14.00" fill="#666666">[timestamp]</text>
</g>
<!-- comments -->
<g id="node3" class="node">
<title>comments</title>
<polygon fill="#efefef" stroke="transparent" points="240,-949 240,-1037 580,-1037 580,-949 240,-949"/>
<polygon fill="none" stroke="#000000" points="240,-949 240,-1037 580,-1037 580,-949 240,-949"/>
<text text-anchor="start" x="324.3795" y="-1014.8" font-family="Bold" font-size="18.00" fill="#000000">comments</text>
<text text-anchor="start" x="398.3667" y="-1014.8" font-family="Arial" font-size="14.00" fill="#000000"> </text>
<text text-anchor="start" x="402.2573" y="-1014.8" font-family="Arial" font-size="14.00" fill="#666666">[BASE TABLE]</text>
<text text-anchor="start" x="376.1669" y="-1000.4" font-family="Arial" font-size="14.00" fill="#333333">Comments</text>
<text text-anchor="start" x="382.007" y="-986.4" font-family="Arial" font-size="14.00" fill="#333333">Multi&#45;line</text>
<text text-anchor="start" x="394.8275" y="-972.4" font-family="Arial" font-size="14.00" fill="#333333">table</text>
<text text-anchor="start" x="381.2202" y="-958.4" font-family="Arial" font-size="14.00" fill="#333333">comment</text>
<polygon fill="none" stroke="#000000" points="240,-919 240,-949 580,-949 580,-919 240,-919"/>
<text text-anchor="start" x="247" y="-930.4" font-family="Arial" font-size="14.00" fill="#000000">id </text>
<text text-anchor="start" x="261.7798" y="-930.4" font-family="Arial" font-size="14.00" fill="#666666">[bigint(20)]</text>
<polygon fill="none" stroke="#000000" points="240,-889 240,-919 580,-919 580,-889 240,-889"/>
<text text-anchor="start" x="247" y="-900.4" font-family="Arial" font-size="14.00" fill="#000000">post_id </text>
<text text-anchor="start" x="296.0182" y="-900.4" font-family="Arial" font-size="14.00" fill="#666666">[bigint(20)]</text>
<polygon fill="none" stroke="#000000" points="240,-859 240,-889 580,-889 580,-859 240,-859"/>
<text text-anchor="start" x="247" y="-870.4" font-family="Arial" font-size="14.00" fill="#000000">user_id </text>
<text text-anchor="start" x="296.7882" y="-870.4" font-family="Arial" font-size="14.00" fill="#666666">[int(11)]</text>
<polygon fill="none" stroke="#000000" points="240,-829 240,-859 580,-859 580,-829 240,-829"/>
<text text-anchor="start" x="246.6578" y="-840.4" font-family="Arial" font-size="14.00" fill="#000000">comment </text>
<text text-anchor="start" x="308.108" y="-840.4" font-family="Arial" font-size="14.00" fill="#666666">[text]</text>
<text text-anchor="start" x="338.453" y="-840.4" font-family="Arial" font-size="14.00" fill="#000000"> Comment Multi&#45;line column comment</text>
<polygon fill="none" stroke="#000000" points="240,-799 240,-829 580,-829 580,-799 240,-799"/>
<text text-anchor="start" x="247" y="-810.4" font-family="Arial" font-size="14.00" fill="#000000">created </text>
<text text-anchor="start" x="297.5722" y="-810.4" font-family="Arial" font-size="14.00" fill="#666666">[datetime]</text>
<polygon fill="none" stroke="#000000" points="240,-769 240,-799 580,-799 580,-769 240,-769"/>
<text text-anchor="start" x="247" y="-780.4" font-family="Arial" font-size="14.00" fill="#000000">updated </text>
<text text-anchor="start" x="301.4768" y="-780.4" font-family="Arial" font-size="14.00" fill="#666666">[datetime]</text>
</g>
<!-- comment_stars&#45;&gt;comments -->
<g id="edge2" class="edge">
<title>comment_stars:comment_post_id&#45;&gt;comments:post_id</title>
<path fill="none" stroke="#000000" d="M528.7899,-1258.418C568.4376,-1214.7226 617.6495,-904 580,-904"/>
<polygon fill="#000000" stroke="#000000" points="528.6572,-1258.4947 517.7476,-1259.6043 524.3286,-1260.9973 520,-1263.5 520,-1263.5 520,-1263.5 524.3286,-1260.9973 522.2524,-1267.3957 528.6572,-1258.4947 528.6572,-1258.4947"/>
<text text-anchor="start" x="527.1435" y="-1273.5" font-family="Arial" font-size="10.00" fill="#000000">FOREIGN KEY (comment_post_id, comment_user_id) REFERENCES comments (post_id, user_id)</text>
</g>
<!-- users -->
<g id="node9" class="node">
<title>users</title>
<polygon fill="#efefef" stroke="transparent" points="325,-223 325,-269 614,-269 614,-223 325,-223"/>
<polygon fill="none" stroke="#000000" points="325,-223 325,-269 614,-269 614,-223 325,-223"/>
<text text-anchor="start" x="402.3817" y="-246.8" font-family="Bold" font-size="18.00" fill="#000000">users</text>
<text text-anchor="start" x="439.3645" y="-246.8" font-family="Arial" font-size="14.00" fill="#000000"> </text>
<text text-anchor="start" x="443.2551" y="-246.8" font-family="Arial" font-size="14.00" fill="#666666">[BASE TABLE]</text>
<text text-anchor="start" x="434.1073" y="-232.4" font-family="Arial" font-size="14.00" fill="#333333">Users table</text>
<polygon fill="none" stroke="#000000" points="325,-193 325,-223 614,-223 614,-193 325,-193"/>
<text text-anchor="start" x="332" y="-204.4" font-family="Arial" font-size="14.00" fill="#000000">id </text>
<text text-anchor="start" x="346.7798" y="-204.4" font-family="Arial" font-size="14.00" fill="#666666">[int(11)]</text>
<polygon fill="none" stroke="#000000" points="325,-163 325,-193 614,-193 614,-163 325,-163"/>
<text text-anchor="start" x="332" y="-174.4" font-family="Arial" font-size="14.00" fill="#000000">username </text>
<text text-anchor="start" x="398.1248" y="-174.4" font-family="Arial" font-size="14.00" fill="#666666">[varchar(50)]</text>
<polygon fill="none" stroke="#000000" points="325,-133 325,-163 614,-163 614,-133 325,-133"/>
<text text-anchor="start" x="332" y="-144.4" font-family="Arial" font-size="14.00" fill="#000000">password </text>
<text text-anchor="start" x="395.7882" y="-144.4" font-family="Arial" font-size="14.00" fill="#666666">[varchar(50)]</text>
<polygon fill="none" stroke="#000000" points="325,-103 325,-133 614,-133 614,-103 325,-103"/>
<text text-anchor="start" x="331.7155" y="-114.4" font-family="Arial" font-size="14.00" fill="#000000">email </text>
<text text-anchor="start" x="369.0451" y="-114.4" font-family="Arial" font-size="14.00" fill="#666666">[varchar(355)]</text>
<text text-anchor="start" x="456.1643" y="-114.4" font-family="Arial" font-size="14.00" fill="#000000"> ex. user@example.com</text>
<polygon fill="none" stroke="#000000" points="325,-73 325,-103 614,-103 614,-73 325,-73"/>
<text text-anchor="start" x="332" y="-84.4" font-family="Arial" font-size="14.00" fill="#000000">created </text>
<text text-anchor="start" x="382.5722" y="-84.4" font-family="Arial" font-size="14.00" fill="#666666">[timestamp]</text>
<polygon fill="none" stroke="#000000" points="325,-43 325,-73 614,-73 614,-43 325,-43"/>
<text text-anchor="start" x="332" y="-54.4" font-family="Arial" font-size="14.00" fill="#000000">updated </text>
<text text-anchor="start" x="386.4768" y="-54.4" font-family="Arial" font-size="14.00" fill="#666666">[timestamp]</text>
</g>
<!-- comment_stars&#45;&gt;users -->
<g id="edge1" class="edge">
<title>comment_stars:comment_user_id&#45;&gt;users:id</title>
<path fill="none" stroke="#000000" d="M290.0114,-1232.891C101.9913,-1209.6588 113.0316,-528.4084 187,-348 220.1442,-267.1616 237.6308,-208 325,-208"/>
<polygon fill="#000000" stroke="#000000" points="290.0185,-1232.8914 299.7261,-1237.9917 295.0093,-1233.1957 300,-1233.5 300,-1233.5 300,-1233.5 295.0093,-1233.1957 300.2739,-1229.0083 290.0185,-1232.8914 290.0185,-1232.8914"/>
<text text-anchor="start" x="20.6085" y="-1243.5" font-family="Arial" font-size="10.00" fill="#000000">FOREIGN KEY (comment_user_id) REFERENCES users (id)</text>
</g>
<!-- posts -->
<g id="node7" class="node">
<title>posts</title>
<polygon fill="#efefef" stroke="transparent" points="279,-601 279,-647 660,-647 660,-601 279,-601"/>
<polygon fill="none" stroke="#000000" points="279,-601 279,-647 660,-647 660,-601 279,-601"/>
<text text-anchor="start" x="402.3718" y="-624.8" font-family="Bold" font-size="18.00" fill="#000000">posts</text>
<text text-anchor="start" x="439.3744" y="-624.8" font-family="Arial" font-size="14.00" fill="#000000"> </text>
<text text-anchor="start" x="443.265" y="-624.8" font-family="Arial" font-size="14.00" fill="#666666">[BASE TABLE]</text>
<text text-anchor="start" x="434.8773" y="-610.4" font-family="Arial" font-size="14.00" fill="#333333">Posts table</text>
<polygon fill="none" stroke="#000000" points="279,-571 279,-601 660,-601 660,-571 279,-571"/>
<text text-anchor="start" x="286" y="-582.4" font-family="Arial" font-size="14.00" fill="#000000">id </text>
<text text-anchor="start" x="300.7798" y="-582.4" font-family="Arial" font-size="14.00" fill="#666666">[bigint(20)]</text>
<polygon fill="none" stroke="#000000" points="279,-541 279,-571 660,-571 660,-541 279,-541"/>
<text text-anchor="start" x="286" y="-552.4" font-family="Arial" font-size="14.00" fill="#000000">user_id </text>
<text text-anchor="start" x="335.7882" y="-552.4" font-family="Arial" font-size="14.00" fill="#666666">[int(11)]</text>
<polygon fill="none" stroke="#000000" points="279,-511 279,-541 660,-541 660,-511 279,-511"/>
<text text-anchor="start" x="286" y="-522.4" font-family="Arial" font-size="14.00" fill="#000000">title </text>
<text text-anchor="start" x="311.6676" y="-522.4" font-family="Arial" font-size="14.00" fill="#666666">[varchar(255)]</text>
<polygon fill="none" stroke="#000000" points="279,-481 279,-511 660,-511 660,-481 279,-481"/>
<text text-anchor="start" x="286" y="-492.4" font-family="Arial" font-size="14.00" fill="#000000">body </text>
<text text-anchor="start" x="320.2384" y="-492.4" font-family="Arial" font-size="14.00" fill="#666666">[text]</text>
<text text-anchor="start" x="350.5834" y="-492.4" font-family="Arial" font-size="14.00" fill="#000000"> post body</text>
<polygon fill="none" stroke="#000000" points="279,-451 279,-481 660,-481 660,-451 279,-451"/>
<text text-anchor="start" x="285.5743" y="-462.4" font-family="Arial" font-size="14.00" fill="#000000">post_type </text>
<text text-anchor="start" x="350.1591" y="-462.4" font-family="Arial" font-size="14.00" fill="#666666">[enum(&#39;public&#39;,&#39;private&#39;,&#39;draft&#39;)]</text>
<text text-anchor="start" x="535.1803" y="-462.4" font-family="Arial" font-size="14.00" fill="#000000"> public/private/draft</text>
<polygon fill="none" stroke="#000000" points="279,-421 279,-451 660,-451 660,-421 279,-421"/>
<text text-anchor="start" x="286" y="-432.4" font-family="Arial" font-size="14.00" fill="#000000">created </text>
<text text-anchor="start" x="336.5722" y="-432.4" font-family="Arial" font-size="14.00" fill="#666666">[datetime]</text>
<polygon fill="none" stroke="#000000" points="279,-391 279,-421 660,-421 660,-391 279,-391"/>
<text text-anchor="start" x="286" y="-402.4" font-family="Arial" font-size="14.00" fill="#000000">updated </text>
<text text-anchor="start" x="340.4768" y="-402.4" font-family="Arial" font-size="14.00" fill="#666666">[datetime]</text>
</g>
<!-- comments&#45;&gt;posts -->
<g id="edge3" class="edge">
<title>comments:post_id&#45;&gt;posts:id</title>
<path fill="none" stroke="#000000" d="M590.0287,-903.2968C656.6692,-893.4441 630.1545,-782.5105 580,-726 490.5662,-625.2325 368.4338,-790.7675 279,-690 248.318,-655.4297 232.7778,-586 279,-586"/>
<polygon fill="#000000" stroke="#000000" points="589.9755,-903.3004 579.6852,-899.511 584.9878,-903.6502 580,-904 580,-904 580,-904 584.9878,-903.6502 580.3148,-908.489 589.9755,-903.3004 589.9755,-903.3004"/>
<text text-anchor="start" x="587.495" y="-914" font-family="Arial" font-size="10.00" fill="#000000">FOREIGN KEY (post_id) REFERENCES posts (id)</text>
</g>
<!-- comments&#45;&gt;users -->
<g id="edge4" class="edge">
<title>comments:user_id&#45;&gt;users:id</title>
<path fill="none" stroke="#000000" d="M229.8538,-873.3933C164.2264,-864.8724 228.9735,-768.2735 226,-690 217.6981,-471.4634 106.3058,-208 325,-208"/>
<polygon fill="#000000" stroke="#000000" points="230.0178,-873.403 239.7314,-878.492 235.0089,-873.7015 240,-874 240,-874 240,-874 235.0089,-873.7015 240.2686,-869.508 230.0178,-873.403 230.0178,-873.403"/>
<text text-anchor="start" x="6.945" y="-884" font-family="Arial" font-size="10.00" fill="#000000">FOREIGN KEY (user_id) REFERENCES users (id)</text>
</g>
<!-- hyphen&#45;table -->
<g id="node4" class="node">
<title>hyphen&#45;table</title>
<polygon fill="#efefef" stroke="transparent" points="825,-1651 825,-1686 1030,-1686 1030,-1651 825,-1651"/>
<polygon fill="none" stroke="#000000" points="825,-1651 825,-1686 1030,-1686 1030,-1651 825,-1651"/>
<text text-anchor="start" x="831.8895" y="-1663.8" font-family="Bold" font-size="18.00" fill="#000000">hyphen&#45;table</text>
<text text-anchor="start" x="925.8567" y="-1663.8" font-family="Arial" font-size="14.00" fill="#000000"> </text>
<text text-anchor="start" x="929.7473" y="-1663.8" font-family="Arial" font-size="14.00" fill="#666666">[BASE TABLE]</text>
<polygon fill="none" stroke="#000000" points="825,-1621 825,-1651 1030,-1651 1030,-1621 825,-1621"/>
<text text-anchor="start" x="832" y="-1632.4" font-family="Arial" font-size="14.00" fill="#000000">id </text>
<text text-anchor="start" x="846.7798" y="-1632.4" font-family="Arial" font-size="14.00" fill="#666666">[bigint(20)]</text>
<polygon fill="none" stroke="#000000" points="825,-1591 825,-1621 1030,-1621 1030,-1591 825,-1591"/>
<text text-anchor="start" x="832" y="-1602.4" font-family="Arial" font-size="14.00" fill="#000000">hyphen&#45;column </text>
<text text-anchor="start" x="931.5792" y="-1602.4" font-family="Arial" font-size="14.00" fill="#666666">[text]</text>
<polygon fill="none" stroke="#000000" points="825,-1561 825,-1591 1030,-1591 1030,-1561 825,-1561"/>
<text text-anchor="start" x="832" y="-1572.4" font-family="Arial" font-size="14.00" fill="#000000">created </text>
<text text-anchor="start" x="882.5722" y="-1572.4" font-family="Arial" font-size="14.00" fill="#666666">[datetime]</text>
</g>
<!-- logs -->
<g id="node5" class="node">
<title>logs</title>
<polygon fill="#efefef" stroke="transparent" points="530,-1706 530,-1752 721,-1752 721,-1706 530,-1706"/>
<polygon fill="none" stroke="#000000" points="530,-1706 530,-1752 721,-1752 721,-1706 530,-1706"/>
<text text-anchor="start" x="561.8719" y="-1729.8" font-family="Bold" font-size="18.00" fill="#000000">logs</text>
<text text-anchor="start" x="591.8743" y="-1729.8" font-family="Arial" font-size="14.00" fill="#000000"> </text>
<text text-anchor="start" x="595.7649" y="-1729.8" font-family="Arial" font-size="14.00" fill="#666666">[BASE TABLE]</text>
<text text-anchor="start" x="596.2057" y="-1715.4" font-family="Arial" font-size="14.00" fill="#333333">Auditログ</text>
<polygon fill="none" stroke="#000000" points="530,-1676 530,-1706 721,-1706 721,-1676 530,-1676"/>
<text text-anchor="start" x="537" y="-1687.4" font-family="Arial" font-size="14.00" fill="#000000">id </text>
<text text-anchor="start" x="551.7798" y="-1687.4" font-family="Arial" font-size="14.00" fill="#666666">[bigint(20)]</text>
<polygon fill="none" stroke="#000000" points="530,-1646 530,-1676 721,-1676 721,-1646 530,-1646"/>
<text text-anchor="start" x="537" y="-1657.4" font-family="Arial" font-size="14.00" fill="#000000">user_id </text>
<text text-anchor="start" x="586.7882" y="-1657.4" font-family="Arial" font-size="14.00" fill="#666666">[int(11)]</text>
<polygon fill="none" stroke="#000000" points="530,-1616 530,-1646 721,-1646 721,-1616 530,-1616"/>
<text text-anchor="start" x="537" y="-1627.4" font-family="Arial" font-size="14.00" fill="#000000">post_id </text>
<text text-anchor="start" x="586.0182" y="-1627.4" font-family="Arial" font-size="14.00" fill="#666666">[bigint(20)]</text>
<polygon fill="none" stroke="#000000" points="530,-1586 530,-1616 721,-1616 721,-1586 530,-1586"/>
<text text-anchor="start" x="537" y="-1597.4" font-family="Arial" font-size="14.00" fill="#000000">comment_id </text>
<text text-anchor="start" x="617.122" y="-1597.4" font-family="Arial" font-size="14.00" fill="#666666">[bigint(20)]</text>
<polygon fill="none" stroke="#000000" points="530,-1556 530,-1586 721,-1586 721,-1556 530,-1556"/>
<text text-anchor="start" x="536.8212" y="-1567.4" font-family="Arial" font-size="14.00" fill="#000000">comment_star_id </text>
<text text-anchor="start" x="648.0596" y="-1567.4" font-family="Arial" font-size="14.00" fill="#666666">[bigint(20)]</text>
<polygon fill="none" stroke="#000000" points="530,-1526 530,-1556 721,-1556 721,-1526 530,-1526"/>
<text text-anchor="start" x="537" y="-1537.4" font-family="Arial" font-size="14.00" fill="#000000">payload </text>
<text text-anchor="start" x="589.9102" y="-1537.4" font-family="Arial" font-size="14.00" fill="#666666">[text]</text>
<polygon fill="none" stroke="#000000" points="530,-1496 530,-1526 721,-1526 721,-1496 530,-1496"/>
<text text-anchor="start" x="537" y="-1507.4" font-family="Arial" font-size="14.00" fill="#000000">created </text>
<text text-anchor="start" x="587.5722" y="-1507.4" font-family="Arial" font-size="14.00" fill="#666666">[datetime]</text>
</g>
<!-- logs&#45;&gt;comment_stars -->
<g id="edge10" class="edge">
<title>logs:comment_star_id&#45;&gt;comment_stars:id</title>
<path fill="none" stroke="#000000" stroke-dasharray="5,2" d="M519.8084,-1570.1523C433.9038,-1554.3702 626.3269,-1323.5 520,-1323.5"/>
<polygon fill="#000000" stroke="#000000" points="520.0344,-1570.171 529.627,-1575.4845 525.0172,-1570.5855 530,-1571 530,-1571 530,-1571 525.0172,-1570.5855 530.373,-1566.5155 520.0344,-1570.171 520.0344,-1570.171"/>
<text text-anchor="start" x="440.3245" y="-1581" font-family="Arial" font-size="10.00" fill="#000000">Additional Relation</text>
</g>
<!-- logs&#45;&gt;comments -->
<g id="edge9" class="edge">
<title>logs:comment_id&#45;&gt;comments:id</title>
<path fill="none" stroke="#000000" stroke-dasharray="5,2" d="M519.8037,-1600.1719C468.5253,-1591.0954 504.0711,-1509.3751 530,-1453 540.2732,-1430.6638 561.4625,-1439.2127 572,-1417 636.2141,-1281.6391 578.2221,-1229.8094 580,-1080 580.77,-1015.1157 644.8889,-934 580,-934"/>
<polygon fill="#000000" stroke="#000000" points="520.0328,-1600.1905 529.6357,-1605.4852 525.0164,-1600.5952 530,-1601 530,-1601 530,-1601 525.0164,-1600.5952 530.3643,-1596.5148 520.0328,-1600.1905 520.0328,-1600.1905"/>
<text text-anchor="start" x="440.3245" y="-1611" font-family="Arial" font-size="10.00" fill="#000000">Additional Relation</text>
</g>
<!-- logs&#45;&gt;posts -->
<g id="edge8" class="edge">
<title>logs:post_id&#45;&gt;posts:id</title>
<path fill="none" stroke="#000000" stroke-dasharray="5,2" d="M731.3135,-1630.4627C809.1734,-1621.7207 725.1769,-1508.0453 717,-1417 712.8606,-1370.9104 706.2751,-586 660,-586"/>
<polygon fill="#000000" stroke="#000000" points="730.9865,-1630.4796 720.7658,-1626.5061 725.9932,-1630.7398 721,-1631 721,-1631 721,-1631 725.9932,-1630.7398 721.2342,-1635.4939 730.9865,-1630.4796 730.9865,-1630.4796"/>
<text text-anchor="start" x="728.3245" y="-1641" font-family="Arial" font-size="10.00" fill="#000000">Additional Relation</text>
</g>
<!-- logs&#45;&gt;users -->
<g id="edge7" class="edge">
<title>logs:user_id&#45;&gt;users:id</title>
<path fill="none" stroke="#000000" stroke-dasharray="5,2" d="M731.0053,-1660.4793C806.3947,-1652.0074 721.4019,-1541.8324 721,-1453 719.8889,-1207.4369 785.323,-582.0482 711,-348 688.0892,-275.8524 689.6979,-208 614,-208"/>
<polygon fill="#000000" stroke="#000000" points="730.9865,-1660.4802 720.7661,-1656.5061 725.9932,-1660.7401 721,-1661 721,-1661 721,-1661 725.9932,-1660.7401 721.2339,-1665.4939 730.9865,-1660.4802 730.9865,-1660.4802"/>
<text text-anchor="start" x="663.024" y="-1671" font-family="Arial" font-size="10.00" fill="#000000">logs&#45;&gt;users</text>
</g>
<!-- post_comments -->
<g id="node6" class="node">
<title>post_comments</title>
<polygon fill="#efefef" stroke="transparent" points="1134,-1706 1134,-1752 1496,-1752 1496,-1706 1134,-1706"/>
<polygon fill="none" stroke="#000000" points="1134,-1706 1134,-1752 1496,-1752 1496,-1706 1134,-1706"/>
<text text-anchor="start" x="1234.7801" y="-1729.8" font-family="Bold" font-size="18.00" fill="#000000">post_comments</text>
<text text-anchor="start" x="1347.7697" y="-1729.8" font-family="Arial" font-size="14.00" fill="#000000"> </text>
<text text-anchor="start" x="1351.6603" y="-1729.8" font-family="Arial" font-size="14.00" fill="#666666">[VIEW]</text>
<text text-anchor="start" x="1219.6985" y="-1715.4" font-family="Arial" font-size="14.00" fill="#333333">post and comments View table</text>
<polygon fill="none" stroke="#000000" points="1134,-1676 1134,-1706 1496,-1706 1496,-1676 1134,-1676"/>
<text text-anchor="start" x="1141" y="-1687.4" font-family="Arial" font-size="14.00" fill="#000000">id </text>
<text text-anchor="start" x="1155.7798" y="-1687.4" font-family="Arial" font-size="14.00" fill="#666666">[bigint(20)]</text>
<text text-anchor="start" x="1221.899" y="-1687.4" font-family="Arial" font-size="14.00" fill="#000000"> comments.id</text>
<polygon fill="none" stroke="#000000" points="1134,-1646 1134,-1676 1496,-1676 1496,-1646 1134,-1646"/>
<text text-anchor="start" x="1141" y="-1657.4" font-family="Arial" font-size="14.00" fill="#000000">title </text>
<text text-anchor="start" x="1166.6676" y="-1657.4" font-family="Arial" font-size="14.00" fill="#666666">[varchar(255)]</text>
<text text-anchor="start" x="1253.7868" y="-1657.4" font-family="Arial" font-size="14.00" fill="#000000"> posts.title</text>
<polygon fill="none" stroke="#000000" points="1134,-1616 1134,-1646 1496,-1646 1496,-1616 1134,-1616"/>
<text text-anchor="start" x="1141" y="-1627.4" font-family="Arial" font-size="14.00" fill="#000000">post_user </text>
<text text-anchor="start" x="1206.3548" y="-1627.4" font-family="Arial" font-size="14.00" fill="#666666">[varchar(50)]</text>
<text text-anchor="start" x="1285.6914" y="-1627.4" font-family="Arial" font-size="14.00" fill="#000000"> posts.users.username</text>
<polygon fill="none" stroke="#000000" points="1134,-1586 1134,-1616 1496,-1616 1496,-1586 1134,-1586"/>
<text text-anchor="start" x="1141" y="-1597.4" font-family="Arial" font-size="14.00" fill="#000000">comment </text>
<text text-anchor="start" x="1202.4502" y="-1597.4" font-family="Arial" font-size="14.00" fill="#666666">[text]</text>
<text text-anchor="start" x="1232.7952" y="-1597.4" font-family="Arial" font-size="14.00" fill="#000000"> Comment Multi&#45;line column comment</text>
<polygon fill="none" stroke="#000000" points="1134,-1556 1134,-1586 1496,-1586 1496,-1556 1134,-1556"/>
<text text-anchor="start" x="1140.7567" y="-1567.4" font-family="Arial" font-size="14.00" fill="#000000">comment_user </text>
<text text-anchor="start" x="1237.2153" y="-1567.4" font-family="Arial" font-size="14.00" fill="#666666">[varchar(50)]</text>
<text text-anchor="start" x="1316.5519" y="-1567.4" font-family="Arial" font-size="14.00" fill="#000000"> comments.users.username</text>
<polygon fill="none" stroke="#000000" points="1134,-1526 1134,-1556 1496,-1556 1496,-1526 1134,-1526"/>
<text text-anchor="start" x="1141" y="-1537.4" font-family="Arial" font-size="14.00" fill="#000000">created </text>
<text text-anchor="start" x="1191.5722" y="-1537.4" font-family="Arial" font-size="14.00" fill="#666666">[datetime]</text>
<text text-anchor="start" x="1253.0322" y="-1537.4" font-family="Arial" font-size="14.00" fill="#000000"> comments.created</text>
<polygon fill="none" stroke="#000000" points="1134,-1496 1134,-1526 1496,-1526 1496,-1496 1134,-1496"/>
<text text-anchor="start" x="1141" y="-1507.4" font-family="Arial" font-size="14.00" fill="#000000">updated </text>
<text text-anchor="start" x="1195.4768" y="-1507.4" font-family="Arial" font-size="14.00" fill="#666666">[datetime]</text>
<text text-anchor="start" x="1256.9368" y="-1507.4" font-family="Arial" font-size="14.00" fill="#000000"> comments.updated</text>
</g>
<!-- posts&#45;&gt;users -->
<g id="edge5" class="edge">
<title>posts:user_id&#45;&gt;users:id</title>
<path fill="none" stroke="#000000" d="M268.8384,-553.7777C205.3768,-524.1396 250.6505,-208 325,-208"/>
<polygon fill="#000000" stroke="#000000" points="269.2309,-553.8635 278.0386,-560.3961 274.1154,-554.9318 279,-556 279,-556 279,-556 274.1154,-554.9318 279.9614,-551.6039 269.2309,-553.8635 269.2309,-553.8635"/>
<text text-anchor="start" x="45.945" y="-566" font-family="Arial" font-size="10.00" fill="#000000">FOREIGN KEY (user_id) REFERENCES users (id)</text>
</g>
<!-- user_options -->
<g id="node8" class="node">
<title>user_options</title>
<polygon fill="#efefef" stroke="transparent" points="803,-556 803,-602 1006,-602 1006,-556 803,-556"/>
<polygon fill="none" stroke="#000000" points="803,-556 803,-602 1006,-602 1006,-556 803,-556"/>
<text text-anchor="start" x="809.8795" y="-579.8" font-family="Bold" font-size="18.00" fill="#000000">user_options</text>
<text text-anchor="start" x="901.8667" y="-579.8" font-family="Arial" font-size="14.00" fill="#000000"> </text>
<text text-anchor="start" x="905.7573" y="-579.8" font-family="Arial" font-size="14.00" fill="#666666">[BASE TABLE]</text>
<text text-anchor="start" x="848.0982" y="-565.4" font-family="Arial" font-size="14.00" fill="#333333">User options table</text>
<polygon fill="none" stroke="#000000" points="803,-526 803,-556 1006,-556 1006,-526 803,-526"/>
<text text-anchor="start" x="810" y="-537.4" font-family="Arial" font-size="14.00" fill="#000000">user_id </text>
<text text-anchor="start" x="859.7882" y="-537.4" font-family="Arial" font-size="14.00" fill="#666666">[int(11)]</text>
<polygon fill="none" stroke="#000000" points="803,-496 803,-526 1006,-526 1006,-496 803,-496"/>
<text text-anchor="start" x="810" y="-507.4" font-family="Arial" font-size="14.00" fill="#000000">show_email </text>
<text text-anchor="start" x="887.784" y="-507.4" font-family="Arial" font-size="14.00" fill="#666666">[tinyint(1)]</text>
<polygon fill="none" stroke="#000000" points="803,-466 803,-496 1006,-496 1006,-466 803,-466"/>
<text text-anchor="start" x="810" y="-477.4" font-family="Arial" font-size="14.00" fill="#000000">created </text>
<text text-anchor="start" x="860.5722" y="-477.4" font-family="Arial" font-size="14.00" fill="#666666">[timestamp]</text>
<polygon fill="none" stroke="#000000" points="803,-436 803,-466 1006,-466 1006,-436 803,-436"/>
<text text-anchor="start" x="810" y="-447.4" font-family="Arial" font-size="14.00" fill="#000000">updated </text>
<text text-anchor="start" x="864.4768" y="-447.4" font-family="Arial" font-size="14.00" fill="#666666">[timestamp]</text>
</g>
<!-- user_options&#45;&gt;users -->
<g id="edge6" class="edge">
<title>user_options:user_id&#45;&gt;users:id</title>
<path fill="none" stroke="#000000" d="M792.796,-540.4283C719.4826,-531.6 787.8328,-422.4519 745,-348 702.5061,-274.1373 699.214,-208 614,-208"/>
<polygon fill="#000000" stroke="#000000" points="793.0157,-540.4406 802.7482,-545.493 798.0078,-540.7203 803,-541 803,-541 803,-541 798.0078,-540.7203 803.2518,-536.507 793.0157,-540.4406 793.0157,-540.4406"/>
<text text-anchor="start" x="629.945" y="-525" font-family="Arial" font-size="10.00" fill="#000000">FOREIGN KEY (user_id) REFERENCES users (id)</text>
</g>
</g>
</svg>
