<?xml version="1.0" encoding="UTF-8" standalone="no"?>
<!DOCTYPE svg PUBLIC "-//W3C//DTD SVG 1.1//EN"
 "http://www.w3.org/Graphics/SVG/1.1/DTD/svg11.dtd">
<!-- Generated by graphviz version 2.40.1 (20161225.0304)
 -->
<!-- Title: testdb Pages: 1 -->
<svg width="1068pt" height="1712pt"
 viewBox="0.00 0.00 1067.50 1712.00" xmlns="http://www.w3.org/2000/svg" xmlns:xlink="http://www.w3.org/1999/xlink">
<g id="graph0" class="graph" transform="scale(1 1) rotate(0) translate(4 1708)">
<title>testdb</title>
<polygon fill="#ffffff" stroke="transparent" points="-4,4 -4,-1708 1063.5,-1708 1063.5,4 -4,4"/>
<!-- CamelizeTable -->
<g id="node1" class="node">
<title>CamelizeTable</title>
<polygon fill="#efefef" stroke="transparent" points="186,-1552 186,-1586 419,-1586 419,-1552 186,-1552"/>
<polygon fill="none" stroke="#000000" points="186,-1552 186,-1586 419,-1586 419,-1552 186,-1552"/>
<text text-anchor="start" x="192.6577" y="-1565.6" font-family="Arial Bold" font-size="18.00" fill="#000000">CamelizeTable</text>
<text text-anchor="start" x="316.3726" y="-1565.6" font-family="Arial" font-size="14.00" fill="#000000"> </text>
<text text-anchor="start" x="320.2622" y="-1565.6" font-family="Arial" font-size="14.00" fill="#666666">[BASE TABLE]</text>
<polygon fill="none" stroke="#000000" points="186,-1522 186,-1552 419,-1552 419,-1522 186,-1522"/>
<text text-anchor="start" x="193" y="-1534.8" font-family="Arial" font-size="14.00" fill="#000000">id </text>
<text text-anchor="start" x="207.7861" y="-1534.8" font-family="Arial" font-size="14.00" fill="#666666">[bigint(20)]</text>
<polygon fill="none" stroke="#000000" points="186,-1492 186,-1522 419,-1522 419,-1492 186,-1492"/>
<text text-anchor="start" x="193" y="-1504.8" font-family="Arial" font-size="14.00" fill="#000000">created </text>
<text text-anchor="start" x="243.5859" y="-1504.8" font-family="Arial" font-size="14.00" fill="#666666">[datetime]</text>
</g>
<!-- comment_stars -->
<g id="node2" class="node">
<title>comment_stars</title>
<polygon fill="#efefef" stroke="transparent" points="286,-1261 286,-1295 529,-1295 529,-1261 286,-1261"/>
<polygon fill="none" stroke="#000000" points="286,-1261 286,-1295 529,-1295 529,-1261 286,-1261"/>
<text text-anchor="start" x="292.9863" y="-1274.6" font-family="Arial Bold" font-size="18.00" fill="#000000">comment_stars</text>
<text text-anchor="start" x="426.0439" y="-1274.6" font-family="Arial" font-size="14.00" fill="#000000"> </text>
<text text-anchor="start" x="429.9336" y="-1274.6" font-family="Arial" font-size="14.00" fill="#666666">[BASE TABLE]</text>
<polygon fill="none" stroke="#000000" points="286,-1231 286,-1261 529,-1261 529,-1231 286,-1231"/>
<text text-anchor="start" x="293" y="-1243.8" font-family="Arial" font-size="14.00" fill="#000000">id </text>
<text text-anchor="start" x="307.7861" y="-1243.8" font-family="Arial" font-size="14.00" fill="#666666">[bigint(20)]</text>
<polygon fill="none" stroke="#000000" points="286,-1201 286,-1231 529,-1231 529,-1201 286,-1201"/>
<text text-anchor="start" x="293" y="-1213.8" font-family="Arial" font-size="14.00" fill="#000000">user_id </text>
<text text-anchor="start" x="342.8066" y="-1213.8" font-family="Arial" font-size="14.00" fill="#666666">[int(11)]</text>
<polygon fill="none" stroke="#000000" points="286,-1171 286,-1201 529,-1201 529,-1171 286,-1171"/>
<text text-anchor="start" x="293" y="-1183.8" font-family="Arial" font-size="14.00" fill="#000000">comment_post_id </text>
<text text-anchor="start" x="407.3926" y="-1183.8" font-family="Arial" font-size="14.00" fill="#666666">[bigint(20)]</text>
<polygon fill="none" stroke="#000000" points="286,-1141 286,-1171 529,-1171 529,-1141 286,-1141"/>
<text text-anchor="start" x="293" y="-1153.8" font-family="Arial" font-size="14.00" fill="#000000">comment_user_id </text>
<text text-anchor="start" x="408.165" y="-1153.8" font-family="Arial" font-size="14.00" fill="#666666">[int(11)]</text>
<polygon fill="none" stroke="#000000" points="286,-1111 286,-1141 529,-1141 529,-1111 286,-1111"/>
<text text-anchor="start" x="293" y="-1123.8" font-family="Arial" font-size="14.00" fill="#000000">created </text>
<text text-anchor="start" x="343.5859" y="-1123.8" font-family="Arial" font-size="14.00" fill="#666666">[timestamp]</text>
<polygon fill="none" stroke="#000000" points="286,-1081 286,-1111 529,-1111 529,-1081 286,-1081"/>
<text text-anchor="start" x="293" y="-1093.8" font-family="Arial" font-size="14.00" fill="#000000">updated </text>
<text text-anchor="start" x="347.4961" y="-1093.8" font-family="Arial" font-size="14.00" fill="#666666">[timestamp]</text>
</g>
<!-- comments -->
<g id="node3" class="node">
<title>comments</title>
<polygon fill="#efefef" stroke="transparent" points="368,-925 368,-959 567,-959 567,-925 368,-925"/>
<polygon fill="none" stroke="#000000" points="368,-925 368,-959 567,-959 567,-925 368,-925"/>
<text text-anchor="start" x="374.502" y="-938.6" font-family="Arial Bold" font-size="18.00" fill="#000000">comments</text>
<text text-anchor="start" x="464.5283" y="-938.6" font-family="Arial" font-size="14.00" fill="#000000"> </text>
<text text-anchor="start" x="468.418" y="-938.6" font-family="Arial" font-size="14.00" fill="#666666">[BASE TABLE]</text>
<polygon fill="none" stroke="#000000" points="368,-895 368,-925 567,-925 567,-895 368,-895"/>
<text text-anchor="start" x="375" y="-907.8" font-family="Arial" font-size="14.00" fill="#000000">id </text>
<text text-anchor="start" x="389.7861" y="-907.8" font-family="Arial" font-size="14.00" fill="#666666">[bigint(20)]</text>
<polygon fill="none" stroke="#000000" points="368,-865 368,-895 567,-895 567,-865 368,-865"/>
<text text-anchor="start" x="375" y="-877.8" font-family="Arial" font-size="14.00" fill="#000000">post_id </text>
<text text-anchor="start" x="424.0342" y="-877.8" font-family="Arial" font-size="14.00" fill="#666666">[bigint(20)]</text>
<polygon fill="none" stroke="#000000" points="368,-835 368,-865 567,-865 567,-835 368,-835"/>
<text text-anchor="start" x="375" y="-847.8" font-family="Arial" font-size="14.00" fill="#000000">user_id </text>
<text text-anchor="start" x="424.8066" y="-847.8" font-family="Arial" font-size="14.00" fill="#666666">[int(11)]</text>
<polygon fill="none" stroke="#000000" points="368,-805 368,-835 567,-835 567,-805 368,-805"/>
<text text-anchor="start" x="375" y="-817.8" font-family="Arial" font-size="14.00" fill="#000000">comment </text>
<text text-anchor="start" x="436.4619" y="-817.8" font-family="Arial" font-size="14.00" fill="#666666">[text]</text>
<polygon fill="none" stroke="#000000" points="368,-775 368,-805 567,-805 567,-775 368,-775"/>
<text text-anchor="start" x="375" y="-787.8" font-family="Arial" font-size="14.00" fill="#000000">created </text>
<text text-anchor="start" x="425.5859" y="-787.8" font-family="Arial" font-size="14.00" fill="#666666">[datetime]</text>
<polygon fill="none" stroke="#000000" points="368,-745 368,-775 567,-775 567,-745 368,-745"/>
<text text-anchor="start" x="375" y="-757.8" font-family="Arial" font-size="14.00" fill="#000000">updated </text>
<text text-anchor="start" x="429.4961" y="-757.8" font-family="Arial" font-size="14.00" fill="#666666">[datetime]</text>
</g>
<!-- comment_stars&#45;&gt;comments -->
<g id="edge2" class="edge">
<title>comment_stars:comment_post_id&#45;&gt;comments:post_id</title>
<path fill="none" stroke="#000000" d="M538.9924,-1185.1559C592.0321,-1175.563 567.8762,-1086.529 529,-1038 483.1577,-980.7752 413.8423,-1059.2248 368,-1002 334.0995,-959.6821 313.7778,-880 368,-880"/>
<polygon fill="#000000" stroke="#000000" points="538.9645,-1185.1582 528.6212,-1181.516 533.9823,-1185.5791 529,-1186 529,-1186 529,-1186 533.9823,-1185.5791 529.3788,-1190.484 538.9645,-1185.1582 538.9645,-1185.1582"/>
<text text-anchor="start" x="536.1821" y="-1195.5" font-family="Arial" font-size="10.00" fill="#000000">FOREIGN KEY (comment_post_id, comment_user_id) REFERENCES comments (post_id, user_id)</text>
</g>
<!-- users -->
<g id="node7" class="node">
<title>users</title>
<polygon fill="#efefef" stroke="transparent" points="355,-223 355,-257 514,-257 514,-223 355,-223"/>
<polygon fill="none" stroke="#000000" points="355,-223 355,-257 514,-257 514,-223 355,-223"/>
<text text-anchor="start" x="362.499" y="-236.6" font-family="Arial Bold" font-size="18.00" fill="#000000">users</text>
<text text-anchor="start" x="410.5313" y="-236.6" font-family="Arial" font-size="14.00" fill="#000000"> </text>
<text text-anchor="start" x="414.4209" y="-236.6" font-family="Arial" font-size="14.00" fill="#666666">[BASE TABLE]</text>
<polygon fill="none" stroke="#000000" points="355,-193 355,-223 514,-223 514,-193 355,-193"/>
<text text-anchor="start" x="362" y="-205.8" font-family="Arial" font-size="14.00" fill="#000000">id </text>
<text text-anchor="start" x="376.7861" y="-205.8" font-family="Arial" font-size="14.00" fill="#666666">[int(11)]</text>
<polygon fill="none" stroke="#000000" points="355,-163 355,-193 514,-193 514,-163 355,-163"/>
<text text-anchor="start" x="361.7485" y="-175.8" font-family="Arial" font-size="14.00" fill="#000000">username </text>
<text text-anchor="start" x="427.8931" y="-175.8" font-family="Arial" font-size="14.00" fill="#666666">[varchar(50)]</text>
<polygon fill="none" stroke="#000000" points="355,-133 355,-163 514,-163 514,-133 355,-133"/>
<text text-anchor="start" x="362" y="-145.8" font-family="Arial" font-size="14.00" fill="#000000">password </text>
<text text-anchor="start" x="425.8066" y="-145.8" font-family="Arial" font-size="14.00" fill="#666666">[varchar(50)]</text>
<polygon fill="none" stroke="#000000" points="355,-103 355,-133 514,-133 514,-103 355,-103"/>
<text text-anchor="start" x="362" y="-115.8" font-family="Arial" font-size="14.00" fill="#000000">email </text>
<text text-anchor="start" x="399.3447" y="-115.8" font-family="Arial" font-size="14.00" fill="#666666">[varchar(355)]</text>
<polygon fill="none" stroke="#000000" points="355,-73 355,-103 514,-103 514,-73 355,-73"/>
<text text-anchor="start" x="362" y="-85.8" font-family="Arial" font-size="14.00" fill="#000000">created </text>
<text text-anchor="start" x="412.5859" y="-85.8" font-family="Arial" font-size="14.00" fill="#666666">[timestamp]</text>
<polygon fill="none" stroke="#000000" points="355,-43 355,-73 514,-73 514,-43 355,-43"/>
<text text-anchor="start" x="362" y="-55.8" font-family="Arial" font-size="14.00" fill="#000000">updated </text>
<text text-anchor="start" x="416.4961" y="-55.8" font-family="Arial" font-size="14.00" fill="#666666">[timestamp]</text>
</g>
<!-- comment_stars&#45;&gt;users -->
<g id="edge1" class="edge">
<title>comment_stars:comment_user_id&#45;&gt;users:id</title>
<path fill="none" stroke="#000000" d="M276.0072,-1155.2695C77.0366,-1125.6954 147.1796,-208 355,-208"/>
<polygon fill="#000000" stroke="#000000" points="276.0266,-1155.2709 285.6719,-1160.488 281.0133,-1155.6354 286,-1156 286,-1156 286,-1156 281.0133,-1155.6354 286.3281,-1151.512 276.0266,-1155.2709 276.0266,-1155.2709"/>
<text text-anchor="start" x="6.6694" y="-1165.5" font-family="Arial" font-size="10.00" fill="#000000">FOREIGN KEY (comment_user_id) REFERENCES users (id)</text>
</g>
<!-- posts -->
<g id="node6" class="node">
<title>posts</title>
<polygon fill="#efefef" stroke="transparent" points="406,-589 406,-623 667,-623 667,-589 406,-589"/>
<polygon fill="none" stroke="#000000" points="406,-589 406,-623 667,-623 667,-589 406,-589"/>
<text text-anchor="start" x="464.5122" y="-602.6" font-family="Arial Bold" font-size="18.00" fill="#000000">posts</text>
<text text-anchor="start" x="512.5181" y="-602.6" font-family="Arial" font-size="14.00" fill="#000000"> </text>
<text text-anchor="start" x="516.4077" y="-602.6" font-family="Arial" font-size="14.00" fill="#666666">[BASE TABLE]</text>
<polygon fill="none" stroke="#000000" points="406,-559 406,-589 667,-589 667,-559 406,-559"/>
<text text-anchor="start" x="413" y="-571.8" font-family="Arial" font-size="14.00" fill="#000000">id </text>
<text text-anchor="start" x="427.7861" y="-571.8" font-family="Arial" font-size="14.00" fill="#666666">[bigint(20)]</text>
<polygon fill="none" stroke="#000000" points="406,-529 406,-559 667,-559 667,-529 406,-529"/>
<text text-anchor="start" x="413" y="-541.8" font-family="Arial" font-size="14.00" fill="#000000">user_id </text>
<text text-anchor="start" x="462.8066" y="-541.8" font-family="Arial" font-size="14.00" fill="#666666">[int(11)]</text>
<polygon fill="none" stroke="#000000" points="406,-499 406,-529 667,-529 667,-499 406,-499"/>
<text text-anchor="start" x="413" y="-511.8" font-family="Arial" font-size="14.00" fill="#000000">title </text>
<text text-anchor="start" x="438.6758" y="-511.8" font-family="Arial" font-size="14.00" fill="#666666">[varchar(255)]</text>
<polygon fill="none" stroke="#000000" points="406,-469 406,-499 667,-499 667,-469 406,-469"/>
<text text-anchor="start" x="413" y="-481.8" font-family="Arial" font-size="14.00" fill="#000000">body </text>
<text text-anchor="start" x="447.248" y="-481.8" font-family="Arial" font-size="14.00" fill="#666666">[text]</text>
<polygon fill="none" stroke="#000000" points="406,-439 406,-469 667,-469 667,-439 406,-439"/>
<text text-anchor="start" x="412.9233" y="-451.8" font-family="Arial" font-size="14.00" fill="#000000">post_type </text>
<text text-anchor="start" x="477.5229" y="-451.8" font-family="Arial" font-size="14.00" fill="#666666">[enum(&#39;public&#39;,&#39;private&#39;,&#39;draft&#39;)]</text>
<polygon fill="none" stroke="#000000" points="406,-409 406,-439 667,-439 667,-409 406,-409"/>
<text text-anchor="start" x="413" y="-421.8" font-family="Arial" font-size="14.00" fill="#000000">created </text>
<text text-anchor="start" x="463.5859" y="-421.8" font-family="Arial" font-size="14.00" fill="#666666">[datetime]</text>
<polygon fill="none" stroke="#000000" points="406,-379 406,-409 667,-409 667,-379 406,-379"/>
<text text-anchor="start" x="413" y="-391.8" font-family="Arial" font-size="14.00" fill="#000000">updated </text>
<text text-anchor="start" x="467.4961" y="-391.8" font-family="Arial" font-size="14.00" fill="#666666">[datetime]</text>
</g>
<!-- comments&#45;&gt;posts -->
<g id="edge3" class="edge">
<title>comments:post_id&#45;&gt;posts:id</title>
<path fill="none" stroke="#000000" d="M577.0111,-879.3117C643.4073,-869.665 614.2395,-760.9689 567,-702 521.1577,-644.7752 451.8423,-723.2248 406,-666 380.4357,-634.0881 365.1111,-574 406,-574"/>
<polygon fill="#000000" stroke="#000000" points="576.9764,-879.314 566.6913,-875.5106 571.9882,-879.657 567,-880 567,-880 567,-880 571.9882,-879.657 567.3087,-884.4894 576.9764,-879.314 576.9764,-879.314"/>
<text text-anchor="start" x="573.5635" y="-889.5" font-family="Arial" font-size="10.00" fill="#000000">FOREIGN KEY (post_id) REFERENCES posts (id)</text>
</g>
<!-- comments&#45;&gt;users -->
<g id="edge4" class="edge">
<title>comments:user_id&#45;&gt;users:id</title>
<path fill="none" stroke="#000000" d="M361.3916,-842.3428C330.8524,-769.9092 321.6253,-208 355,-208"/>
<polygon fill="#000000" stroke="#000000" points="361.4664,-842.4295 364.5933,-852.9401 364.7332,-846.2147 368,-850 368,-850 368,-850 364.7332,-846.2147 371.4067,-847.0599 361.4664,-842.4295 361.4664,-842.4295"/>
<text text-anchor="start" x="136.0117" y="-859.5" font-family="Arial" font-size="10.00" fill="#000000">FOREIGN KEY (user_id) REFERENCES users (id)</text>
</g>
<!-- logs -->
<g id="node4" class="node">
<title>logs</title>
<polygon fill="#efefef" stroke="transparent" points="523,-1627 523,-1661 714,-1661 714,-1627 523,-1627"/>
<polygon fill="none" stroke="#000000" points="523,-1627 523,-1661 714,-1661 714,-1627 523,-1627"/>
<text text-anchor="start" x="552.0142" y="-1640.6" font-family="Arial Bold" font-size="18.00" fill="#000000">logs</text>
<text text-anchor="start" x="589.0161" y="-1640.6" font-family="Arial" font-size="14.00" fill="#000000"> </text>
<text text-anchor="start" x="592.9058" y="-1640.6" font-family="Arial" font-size="14.00" fill="#666666">[BASE TABLE]</text>
<polygon fill="none" stroke="#000000" points="523,-1597 523,-1627 714,-1627 714,-1597 523,-1597"/>
<text text-anchor="start" x="530" y="-1609.8" font-family="Arial" font-size="14.00" fill="#000000">id </text>
<text text-anchor="start" x="544.7861" y="-1609.8" font-family="Arial" font-size="14.00" fill="#666666">[bigint(20)]</text>
<polygon fill="none" stroke="#000000" points="523,-1567 523,-1597 714,-1597 714,-1567 523,-1567"/>
<text text-anchor="start" x="530" y="-1579.8" font-family="Arial" font-size="14.00" fill="#000000">user_id </text>
<text text-anchor="start" x="579.8066" y="-1579.8" font-family="Arial" font-size="14.00" fill="#666666">[int(11)]</text>
<polygon fill="none" stroke="#000000" points="523,-1537 523,-1567 714,-1567 714,-1537 523,-1537"/>
<text text-anchor="start" x="530" y="-1549.8" font-family="Arial" font-size="14.00" fill="#000000">post_id </text>
<text text-anchor="start" x="579.0342" y="-1549.8" font-family="Arial" font-size="14.00" fill="#666666">[bigint(20)]</text>
<polygon fill="none" stroke="#000000" points="523,-1507 523,-1537 714,-1537 714,-1507 523,-1507"/>
<text text-anchor="start" x="530" y="-1519.8" font-family="Arial" font-size="14.00" fill="#000000">comment_id </text>
<text text-anchor="start" x="610.1445" y="-1519.8" font-family="Arial" font-size="14.00" fill="#666666">[bigint(20)]</text>
<polygon fill="none" stroke="#000000" points="523,-1477 523,-1507 714,-1507 714,-1477 523,-1477"/>
<text text-anchor="start" x="529.7935" y="-1489.8" font-family="Arial" font-size="14.00" fill="#000000">comment_star_id </text>
<text text-anchor="start" x="641.062" y="-1489.8" font-family="Arial" font-size="14.00" fill="#666666">[bigint(20)]</text>
<polygon fill="none" stroke="#000000" points="523,-1447 523,-1477 714,-1477 714,-1447 523,-1447"/>
<text text-anchor="start" x="530" y="-1459.8" font-family="Arial" font-size="14.00" fill="#000000">payload </text>
<text text-anchor="start" x="582.9307" y="-1459.8" font-family="Arial" font-size="14.00" fill="#666666">[text]</text>
<polygon fill="none" stroke="#000000" points="523,-1417 523,-1447 714,-1447 714,-1417 523,-1417"/>
<text text-anchor="start" x="530" y="-1429.8" font-family="Arial" font-size="14.00" fill="#000000">created </text>
<text text-anchor="start" x="580.5859" y="-1429.8" font-family="Arial" font-size="14.00" fill="#666666">[datetime]</text>
</g>
<!-- logs&#45;&gt;comment_stars -->
<g id="edge9" class="edge">
<title>logs:comment_star_id&#45;&gt;comment_stars:id</title>
<path fill="none" stroke="#000000" stroke-dasharray="5,2" d="M512.9618,-1491.2476C461.8447,-1482.6748 523.6593,-1402.5299 529,-1338 532.3725,-1297.2504 569.8889,-1246 529,-1246"/>
<polygon fill="#000000" stroke="#000000" points="513.028,-1491.2525 522.6636,-1496.4874 518.014,-1491.6263 523,-1492 523,-1492 523,-1492 518.014,-1491.6263 523.3364,-1487.5126 513.028,-1491.2525 513.028,-1491.2525"/>
<text text-anchor="start" x="433.3057" y="-1501.5" font-family="Arial" font-size="10.00" fill="#000000">Additional Relation</text>
</g>
<!-- logs&#45;&gt;comments -->
<g id="edge8" class="edge">
<title>logs:comment_id&#45;&gt;comments:id</title>
<path fill="none" stroke="#000000" stroke-dasharray="5,2" d="M512.7629,-1521.1513C461.0454,-1511.852 492.8349,-1428.2266 523,-1374 537.7489,-1347.4865 566.2511,-1364.5135 581,-1338 645.8168,-1221.4815 588.2592,-1171.1356 581,-1038 577.8843,-980.8567 624.2282,-910 567,-910"/>
<polygon fill="#000000" stroke="#000000" points="513.0342,-1521.1737 522.6282,-1526.4846 518.0171,-1521.5868 523,-1522 523,-1522 523,-1522 518.0171,-1521.5868 523.3718,-1517.5154 513.0342,-1521.1737 513.0342,-1521.1737"/>
<text text-anchor="start" x="433.3057" y="-1531.5" font-family="Arial" font-size="10.00" fill="#000000">Additional Relation</text>
</g>
<!-- logs&#45;&gt;posts -->
<g id="edge7" class="edge">
<title>logs:post_id&#45;&gt;posts:id</title>
<path fill="none" stroke="#000000" stroke-dasharray="5,2" d="M717.9802,-1542.634C735.8477,-1442.5475 692.6309,-574 667,-574"/>
<polygon fill="#000000" stroke="#000000" points="717.9112,-1542.7966 709.8585,-1550.24 715.9556,-1547.3983 714,-1552 714,-1552 714,-1552 715.9556,-1547.3983 718.1415,-1553.76 717.9112,-1542.7966 717.9112,-1542.7966"/>
<text text-anchor="start" x="721.3057" y="-1561.5" font-family="Arial" font-size="10.00" fill="#000000">Additional Relation</text>
</g>
<!-- logs&#45;&gt;users -->
<g id="edge6" class="edge">
<title>logs:user_id&#45;&gt;users:id</title>
<path fill="none" stroke="#000000" stroke-dasharray="5,2" d="M724.1304,-1581.5578C815.958,-1573.0325 721.8511,-1442.9098 724,-1338 734.4611,-827.286 1024.8212,-208 514,-208"/>
<polygon fill="#000000" stroke="#000000" points="723.9905,-1581.5639 713.8037,-1577.5043 718.9952,-1581.7819 714,-1582 714,-1582 714,-1582 718.9952,-1581.7819 714.1963,-1586.4957 723.9905,-1581.5639 723.9905,-1581.5639"/>
<text text-anchor="start" x="721.0161" y="-1591.5" font-family="Arial" font-size="10.00" fill="#000000">logs&#45;&gt;users</text>
</g>
<!-- post_comments -->
<g id="node5" class="node">
<title>post_comments</title>
<polygon fill="#efefef" stroke="transparent" points="818,-1627 818,-1661 1017,-1661 1017,-1627 818,-1627"/>
<polygon fill="none" stroke="#000000" points="818,-1627 818,-1661 1017,-1661 1017,-1627 818,-1627"/>
<text text-anchor="start" x="824.7598" y="-1640.6" font-family="Arial Bold" font-size="18.00" fill="#000000">post_comments</text>
<text text-anchor="start" x="962.792" y="-1640.6" font-family="Arial" font-size="14.00" fill="#000000"> </text>
<text text-anchor="start" x="966.6816" y="-1640.6" font-family="Arial" font-size="14.00" fill="#666666">[VIEW]</text>
<polygon fill="none" stroke="#000000" points="818,-1597 818,-1627 1017,-1627 1017,-1597 818,-1597"/>
<text text-anchor="start" x="825" y="-1609.8" font-family="Arial" font-size="14.00" fill="#000000">id </text>
<text text-anchor="start" x="839.7861" y="-1609.8" font-family="Arial" font-size="14.00" fill="#666666">[bigint(20)]</text>
<polygon fill="none" stroke="#000000" points="818,-1567 818,-1597 1017,-1597 1017,-1567 818,-1567"/>
<text text-anchor="start" x="825" y="-1579.8" font-family="Arial" font-size="14.00" fill="#000000">title </text>
<text text-anchor="start" x="850.6758" y="-1579.8" font-family="Arial" font-size="14.00" fill="#666666">[varchar(255)]</text>
<polygon fill="none" stroke="#000000" points="818,-1537 818,-1567 1017,-1567 1017,-1537 818,-1537"/>
<text text-anchor="start" x="825" y="-1549.8" font-family="Arial" font-size="14.00" fill="#000000">post_user </text>
<text text-anchor="start" x="890.3721" y="-1549.8" font-family="Arial" font-size="14.00" fill="#666666">[varchar(50)]</text>
<polygon fill="none" stroke="#000000" points="818,-1507 818,-1537 1017,-1537 1017,-1507 818,-1507"/>
<text text-anchor="start" x="825" y="-1519.8" font-family="Arial" font-size="14.00" fill="#000000">comment </text>
<text text-anchor="start" x="886.4619" y="-1519.8" font-family="Arial" font-size="14.00" fill="#666666">[text]</text>
<polygon fill="none" stroke="#000000" points="818,-1477 818,-1507 1017,-1507 1017,-1477 818,-1477"/>
<text text-anchor="start" x="825" y="-1489.8" font-family="Arial" font-size="14.00" fill="#000000">comment_user </text>
<text text-anchor="start" x="921.4824" y="-1489.8" font-family="Arial" font-size="14.00" fill="#666666">[varchar(50)]</text>
<polygon fill="none" stroke="#000000" points="818,-1447 818,-1477 1017,-1477 1017,-1447 818,-1447"/>
<text text-anchor="start" x="825" y="-1459.8" font-family="Arial" font-size="14.00" fill="#000000">created </text>
<text text-anchor="start" x="875.5859" y="-1459.8" font-family="Arial" font-size="14.00" fill="#666666">[datetime]</text>
<polygon fill="none" stroke="#000000" points="818,-1417 818,-1447 1017,-1447 1017,-1417 818,-1417"/>
<text text-anchor="start" x="825" y="-1429.8" font-family="Arial" font-size="14.00" fill="#000000">updated </text>
<text text-anchor="start" x="879.4961" y="-1429.8" font-family="Arial" font-size="14.00" fill="#666666">[datetime]</text>
</g>
<!-- posts&#45;&gt;users -->
<g id="edge5" class="edge">
<title>posts:user_id&#45;&gt;users:id</title>
<path fill="none" stroke="#000000" d="M395.7587,-543.4025C316.5788,-533.6975 354.0582,-408.0653 406,-336 435.5843,-294.954 484.4157,-341.046 514,-300 537.9082,-266.8292 554.8889,-208 514,-208"/>
<polygon fill="#000000" stroke="#000000" points="396.017,-543.4175 405.7379,-548.4924 401.0085,-543.7088 406,-544 406,-544 406,-544 401.0085,-543.7088 406.2621,-539.5076 396.017,-543.4175 396.017,-543.4175"/>
<text text-anchor="start" x="174.0117" y="-553.5" font-family="Arial" font-size="10.00" fill="#000000">FOREIGN KEY (user_id) REFERENCES users (id)</text>
</g>
</g>
</svg>
