<?xml version="1.0" encoding="UTF-8" standalone="no"?>
<!DOCTYPE svg PUBLIC "-//W3C//DTD SVG 1.1//EN"
 "http://www.w3.org/Graphics/SVG/1.1/DTD/svg11.dtd">
<!-- Generated by graphviz version 2.40.1 (20161225.0304)
 -->
<!-- Title: user_options Pages: 1 -->
<svg width="542pt" height="614pt"
 viewBox="0.00 0.00 541.50 614.00" xmlns="http://www.w3.org/2000/svg" xmlns:xlink="http://www.w3.org/1999/xlink">
<g id="graph0" class="graph" transform="scale(1 1) rotate(0) translate(4 610)">
<title>user_options</title>
<polygon fill="#ffffff" stroke="transparent" points="-4,4 -4,-610 537.5,-610 537.5,4 -4,4"/>
<!-- user_options -->
<g id="node1" class="node">
<title>user_options</title>
<polygon fill="#efefef" stroke="transparent" points="240,-514 240,-560 454,-560 454,-514 240,-514"/>
<polygon fill="none" stroke="#000000" points="240,-514 240,-560 454,-560 454,-514 240,-514"/>
<text text-anchor="start" x="246.8571" y="-537.8" font-family="Arial Bold" font-size="18.00" fill="#000000">user_options</text>
<text text-anchor="start" x="349.8891" y="-537.8" font-family="Arial" font-size="14.00" fill="#000000"> </text>
<text text-anchor="start" x="353.7797" y="-537.8" font-family="Arial" font-size="14.00" fill="#666666">[BASE TABLE]</text>
<text text-anchor="start" x="290.5982" y="-523.4" font-family="Arial" font-size="14.00" fill="#333333">User options table</text>
<polygon fill="none" stroke="#000000" points="240,-484 240,-514 454,-514 454,-484 240,-484"/>
<text text-anchor="start" x="247" y="-495.4" font-family="Arial" font-size="14.00" fill="#000000">user_id </text>
<text text-anchor="start" x="296.7882" y="-495.4" font-family="Arial" font-size="14.00" fill="#666666">[int(11)]</text>
<polygon fill="none" stroke="#000000" points="240,-454 240,-484 454,-484 454,-454 240,-454"/>
<text text-anchor="start" x="247" y="-465.4" font-family="Arial" font-size="14.00" fill="#000000">show_email </text>
<text text-anchor="start" x="324.784" y="-465.4" font-family="Arial" font-size="14.00" fill="#666666">[tinyint(1)]</text>
<polygon fill="none" stroke="#000000" points="240,-424 240,-454 454,-454 454,-424 240,-424"/>
<text text-anchor="start" x="247" y="-435.4" font-family="Arial" font-size="14.00" fill="#000000">created </text>
<text text-anchor="start" x="297.5722" y="-435.4" font-family="Arial" font-size="14.00" fill="#666666">[timestamp]</text>
<polygon fill="none" stroke="#000000" points="240,-394 240,-424 454,-424 454,-394 240,-394"/>
<text text-anchor="start" x="247" y="-405.4" font-family="Arial" font-size="14.00" fill="#000000">updated </text>
<text text-anchor="start" x="301.4768" y="-405.4" font-family="Arial" font-size="14.00" fill="#666666">[timestamp]</text>
<polygon fill="none" stroke="#000000" stroke-width="3" points="238.5,-392.5 238.5,-561.5 455.5,-561.5 455.5,-392.5 238.5,-392.5"/>
</g>
<!-- users -->
<g id="node2" class="node">
<title>users</title>
<polygon fill="#efefef" stroke="transparent" points="202,-223 202,-269 491,-269 491,-223 202,-223"/>
<polygon fill="none" stroke="#000000" points="202,-223 202,-269 491,-269 491,-223 202,-223"/>
<text text-anchor="start" x="275.8708" y="-246.8" font-family="Arial Bold" font-size="18.00" fill="#000000">users</text>
<text text-anchor="start" x="319.8754" y="-246.8" font-family="Arial" font-size="14.00" fill="#000000"> </text>
<text text-anchor="start" x="323.766" y="-246.8" font-family="Arial" font-size="14.00" fill="#666666">[BASE TABLE]</text>
<text text-anchor="start" x="311.1073" y="-232.4" font-family="Arial" font-size="14.00" fill="#333333">Users table</text>
<polygon fill="none" stroke="#000000" points="202,-193 202,-223 491,-223 491,-193 202,-193"/>
<text text-anchor="start" x="209" y="-204.4" font-family="Arial" font-size="14.00" fill="#000000">id </text>
<text text-anchor="start" x="223.7798" y="-204.4" font-family="Arial" font-size="14.00" fill="#666666">[int(11)]</text>
<polygon fill="none" stroke="#000000" points="202,-163 202,-193 491,-193 491,-163 202,-163"/>
<text text-anchor="start" x="209" y="-174.4" font-family="Arial" font-size="14.00" fill="#000000">username </text>
<text text-anchor="start" x="275.1248" y="-174.4" font-family="Arial" font-size="14.00" fill="#666666">[varchar(50)]</text>
<polygon fill="none" stroke="#000000" points="202,-133 202,-163 491,-163 491,-133 202,-133"/>
<text text-anchor="start" x="209" y="-144.4" font-family="Arial" font-size="14.00" fill="#000000">password </text>
<text text-anchor="start" x="272.7882" y="-144.4" font-family="Arial" font-size="14.00" fill="#666666">[varchar(50)]</text>
<polygon fill="none" stroke="#000000" points="202,-103 202,-133 491,-133 491,-103 202,-103"/>
<text text-anchor="start" x="208.7155" y="-114.4" font-family="Arial" font-size="14.00" fill="#000000">email </text>
<text text-anchor="start" x="246.0451" y="-114.4" font-family="Arial" font-size="14.00" fill="#666666">[varchar(355)]</text>
<text text-anchor="start" x="333.1643" y="-114.4" font-family="Arial" font-size="14.00" fill="#000000"> ex. user@example.com</text>
<polygon fill="none" stroke="#000000" points="202,-73 202,-103 491,-103 491,-73 202,-73"/>
<text text-anchor="start" x="209" y="-84.4" font-family="Arial" font-size="14.00" fill="#000000">created </text>
<text text-anchor="start" x="259.5722" y="-84.4" font-family="Arial" font-size="14.00" fill="#666666">[timestamp]</text>
<polygon fill="none" stroke="#000000" points="202,-43 202,-73 491,-73 491,-43 202,-43"/>
<text text-anchor="start" x="209" y="-54.4" font-family="Arial" font-size="14.00" fill="#000000">updated </text>
<text text-anchor="start" x="263.4768" y="-54.4" font-family="Arial" font-size="14.00" fill="#666666">[timestamp]</text>
</g>
<!-- user_options&#45;&gt;users -->
<g id="edge1" class="edge">
<title>user_options:user_id&#45;&gt;users:id</title>
<path fill="none" stroke="#000000" d="M229.7881,-498.1247C175.4836,-488.1792 198.4467,-395.9383 240,-348 313.8156,-262.8419 417.1844,-397.1581 491,-312 521.2751,-277.0728 537.2222,-208 491,-208"/>
<polygon fill="#000000" stroke="#000000" points="230.0365,-498.1459 239.6157,-503.4836 235.0183,-498.573 240,-499 240,-499 240,-499 235.0183,-498.573 240.3843,-494.5164 230.0365,-498.1459 230.0365,-498.1459"/>
<text text-anchor="start" x="6.945" y="-509" font-family="Arial" font-size="10.00" fill="#000000">FOREIGN KEY (user_id) REFERENCES users (id)</text>
</g>
</g>
</svg>
