<?xml version="1.0" encoding="UTF-8" standalone="no"?>
<!DOCTYPE svg PUBLIC "-//W3C//DTD SVG 1.1//EN"
 "http://www.w3.org/Graphics/SVG/1.1/DTD/svg11.dtd">
<!-- Generated by graphviz version 2.40.1 (20161225.0304)
 -->
<!-- Title: user_options Pages: 1 -->
<svg width="322pt" height="254pt"
 viewBox="0.00 0.00 322.00 254.00" xmlns="http://www.w3.org/2000/svg" xmlns:xlink="http://www.w3.org/1999/xlink">
<g id="graph0" class="graph" transform="scale(1 1) rotate(0) translate(4 250)">
<title>user_options</title>
<polygon fill="#ffffff" stroke="transparent" points="-4,4 -4,-250 318,-250 318,4 -4,4"/>
<!-- user_options -->
<g id="node1" class="node">
<title>user_options</title>
<polygon fill="#efefef" stroke="transparent" points="46,-166 46,-200 268,-200 268,-166 46,-166"/>
<polygon fill="none" stroke="#000000" points="46,-166 46,-200 268,-200 268,-166 46,-166"/>
<text text-anchor="start" x="52.5059" y="-179.6" font-family="Arial Bold" font-size="18.00" fill="#000000">user_options</text>
<text text-anchor="start" x="165.5244" y="-179.6" font-family="Arial" font-size="14.00" fill="#000000"> </text>
<text text-anchor="start" x="169.4141" y="-179.6" font-family="Arial" font-size="14.00" fill="#666666">[BASE TABLE]</text>
<polygon fill="none" stroke="#000000" points="46,-136 46,-166 268,-166 268,-136 46,-136"/>
<text text-anchor="start" x="53" y="-148.8" font-family="Arial" font-size="14.00" fill="#000000">user_id </text>
<text text-anchor="start" x="102.8066" y="-148.8" font-family="Arial" font-size="14.00" fill="#666666">[int(11)]</text>
<polygon fill="none" stroke="#000000" points="46,-106 46,-136 268,-136 268,-106 46,-106"/>
<text text-anchor="start" x="53" y="-118.8" font-family="Arial" font-size="14.00" fill="#000000">show_email </text>
<text text-anchor="start" x="130.8135" y="-118.8" font-family="Arial" font-size="14.00" fill="#666666">[tinyint(1)]</text>
<polygon fill="none" stroke="#000000" points="46,-76 46,-106 268,-106 268,-76 46,-76"/>
<text text-anchor="start" x="53" y="-88.8" font-family="Arial" font-size="14.00" fill="#000000">created </text>
<text text-anchor="start" x="103.5859" y="-88.8" font-family="Arial" font-size="14.00" fill="#666666">[timestamp]</text>
<polygon fill="none" stroke="#000000" points="46,-46 46,-76 268,-76 268,-46 46,-46"/>
<text text-anchor="start" x="53" y="-58.8" font-family="Arial" font-size="14.00" fill="#000000">updated </text>
<text text-anchor="start" x="107.4961" y="-58.8" font-family="Arial" font-size="14.00" fill="#666666">[timestamp]</text>
<polygon fill="none" stroke="#000000" stroke-width="3" points="44.5,-44.5 44.5,-201.5 269.5,-201.5 269.5,-44.5 44.5,-44.5"/>
</g>
</g>
</svg>
