<?xml version="1.0" encoding="UTF-8" standalone="no"?>
<!DOCTYPE svg PUBLIC "-//W3C//DTD SVG 1.1//EN"
 "http://www.w3.org/Graphics/SVG/1.1/DTD/svg11.dtd">
<!-- Generated by graphviz version 2.40.1 (20161225.0304)
 -->
<!-- Title: users Pages: 1 -->
<svg width="1872pt" height="716pt"
 viewBox="0.00 0.00 1871.50 716.00" xmlns="http://www.w3.org/2000/svg" xmlns:xlink="http://www.w3.org/1999/xlink">
<g id="graph0" class="graph" transform="scale(1 1) rotate(0) translate(4 712)">
<title>users</title>
<polygon fill="#ffffff" stroke="transparent" points="-4,4 -4,-712 1867.5,-712 1867.5,4 -4,4"/>
<!-- users -->
<g id="node1" class="node">
<title>users</title>
<polygon fill="#efefef" stroke="transparent" points="872,-226 872,-272 1161,-272 1161,-226 872,-226"/>
<polygon fill="none" stroke="#000000" points="872,-226 872,-272 1161,-272 1161,-226 872,-226"/>
<text text-anchor="start" x="945.8708" y="-249.8" font-family="Arial Bold" font-size="18.00" fill="#000000">users</text>
<text text-anchor="start" x="989.8754" y="-249.8" font-family="Arial" font-size="14.00" fill="#000000"> </text>
<text text-anchor="start" x="993.766" y="-249.8" font-family="Arial" font-size="14.00" fill="#666666">[BASE TABLE]</text>
<text text-anchor="start" x="981.1073" y="-235.4" font-family="Arial" font-size="14.00" fill="#333333">Users table</text>
<polygon fill="none" stroke="#000000" points="872,-196 872,-226 1161,-226 1161,-196 872,-196"/>
<text text-anchor="start" x="879" y="-207.4" font-family="Arial" font-size="14.00" fill="#000000">id </text>
<text text-anchor="start" x="893.7798" y="-207.4" font-family="Arial" font-size="14.00" fill="#666666">[int(11)]</text>
<polygon fill="none" stroke="#000000" points="872,-166 872,-196 1161,-196 1161,-166 872,-166"/>
<text text-anchor="start" x="879" y="-177.4" font-family="Arial" font-size="14.00" fill="#000000">username </text>
<text text-anchor="start" x="945.1248" y="-177.4" font-family="Arial" font-size="14.00" fill="#666666">[varchar(50)]</text>
<polygon fill="none" stroke="#000000" points="872,-136 872,-166 1161,-166 1161,-136 872,-136"/>
<text text-anchor="start" x="879" y="-147.4" font-family="Arial" font-size="14.00" fill="#000000">password </text>
<text text-anchor="start" x="942.7882" y="-147.4" font-family="Arial" font-size="14.00" fill="#666666">[varchar(50)]</text>
<polygon fill="none" stroke="#000000" points="872,-106 872,-136 1161,-136 1161,-106 872,-106"/>
<text text-anchor="start" x="878.7155" y="-117.4" font-family="Arial" font-size="14.00" fill="#000000">email </text>
<text text-anchor="start" x="916.0451" y="-117.4" font-family="Arial" font-size="14.00" fill="#666666">[varchar(355)]</text>
<text text-anchor="start" x="1003.1643" y="-117.4" font-family="Arial" font-size="14.00" fill="#000000"> ex. user@example.com</text>
<polygon fill="none" stroke="#000000" points="872,-76 872,-106 1161,-106 1161,-76 872,-76"/>
<text text-anchor="start" x="879" y="-87.4" font-family="Arial" font-size="14.00" fill="#000000">created </text>
<text text-anchor="start" x="929.5722" y="-87.4" font-family="Arial" font-size="14.00" fill="#666666">[timestamp]</text>
<polygon fill="none" stroke="#000000" points="872,-46 872,-76 1161,-76 1161,-46 872,-46"/>
<text text-anchor="start" x="879" y="-57.4" font-family="Arial" font-size="14.00" fill="#000000">updated </text>
<text text-anchor="start" x="933.4768" y="-57.4" font-family="Arial" font-size="14.00" fill="#666666">[timestamp]</text>
<polygon fill="none" stroke="#000000" stroke-width="3" points="870,-44.5 870,-273.5 1162,-273.5 1162,-44.5 870,-44.5"/>
</g>
<!-- comment_stars -->
<g id="node2" class="node">
<title>comment_stars</title>
<polygon fill="#efefef" stroke="transparent" points="43,-603 43,-638 277,-638 277,-603 43,-603"/>
<polygon fill="none" stroke="#000000" points="43,-603 43,-638 277,-638 277,-603 43,-603"/>
<text text-anchor="start" x="49.8671" y="-615.8" font-family="Arial Bold" font-size="18.00" fill="#000000">comment_stars</text>
<text text-anchor="start" x="172.8791" y="-615.8" font-family="Arial" font-size="14.00" fill="#000000"> </text>
<text text-anchor="start" x="176.7697" y="-615.8" font-family="Arial" font-size="14.00" fill="#666666">[BASE TABLE]</text>
<polygon fill="none" stroke="#000000" points="43,-573 43,-603 277,-603 277,-573 43,-573"/>
<text text-anchor="start" x="50" y="-584.4" font-family="Arial" font-size="14.00" fill="#000000">id </text>
<text text-anchor="start" x="64.7798" y="-584.4" font-family="Arial" font-size="14.00" fill="#666666">[bigint(20)]</text>
<polygon fill="none" stroke="#000000" points="43,-543 43,-573 277,-573 277,-543 43,-543"/>
<text text-anchor="start" x="50" y="-554.4" font-family="Arial" font-size="14.00" fill="#000000">user_id </text>
<text text-anchor="start" x="99.7882" y="-554.4" font-family="Arial" font-size="14.00" fill="#666666">[int(11)]</text>
<polygon fill="none" stroke="#000000" points="43,-513 43,-543 277,-543 277,-513 43,-513"/>
<text text-anchor="start" x="50" y="-524.4" font-family="Arial" font-size="14.00" fill="#000000">comment_post_id </text>
<text text-anchor="start" x="164.3604" y="-524.4" font-family="Arial" font-size="14.00" fill="#666666">[bigint(20)]</text>
<polygon fill="none" stroke="#000000" points="43,-483 43,-513 277,-513 277,-483 43,-483"/>
<text text-anchor="start" x="50" y="-494.4" font-family="Arial" font-size="14.00" fill="#000000">comment_user_id </text>
<text text-anchor="start" x="165.1304" y="-494.4" font-family="Arial" font-size="14.00" fill="#666666">[int(11)]</text>
<polygon fill="none" stroke="#000000" points="43,-453 43,-483 277,-483 277,-453 43,-453"/>
<text text-anchor="start" x="50" y="-464.4" font-family="Arial" font-size="14.00" fill="#000000">created </text>
<text text-anchor="start" x="100.5722" y="-464.4" font-family="Arial" font-size="14.00" fill="#666666">[timestamp]</text>
<polygon fill="none" stroke="#000000" points="43,-423 43,-453 277,-453 277,-423 43,-423"/>
<text text-anchor="start" x="50" y="-434.4" font-family="Arial" font-size="14.00" fill="#000000">updated </text>
<text text-anchor="start" x="104.4768" y="-434.4" font-family="Arial" font-size="14.00" fill="#666666">[timestamp]</text>
</g>
<!-- comment_stars&#45;&gt;users -->
<g id="edge1" class="edge">
<title>comment_stars:comment_user_id&#45;&gt;users:id</title>
<path fill="none" stroke="#000000" d="M286.9997,-497.1446C338.1468,-487.4291 281.5371,-397.4146 329,-354 421.0726,-269.7806 747.2191,-211 872,-211"/>
<polygon fill="#000000" stroke="#000000" points="286.9636,-497.1476 276.6164,-493.5164 281.9818,-497.5738 277,-498 277,-498 277,-498 281.9818,-497.5738 277.3836,-502.4836 286.9636,-497.1476 286.9636,-497.1476"/>
<text text-anchor="start" x="140.6085" y="-482" font-family="Arial" font-size="10.00" fill="#000000">FOREIGN KEY (comment_user_id) REFERENCES users (id)</text>
</g>
<!-- comments -->
<g id="node3" class="node">
<title>comments</title>
<polygon fill="#efefef" stroke="transparent" points="381,-577 381,-665 721,-665 721,-577 381,-577"/>
<polygon fill="none" stroke="#000000" points="381,-577 381,-665 721,-665 721,-577 381,-577"/>
<text text-anchor="start" x="460.8705" y="-642.8" font-family="Arial Bold" font-size="18.00" fill="#000000">comments</text>
<text text-anchor="start" x="543.8757" y="-642.8" font-family="Arial" font-size="14.00" fill="#000000"> </text>
<text text-anchor="start" x="547.7663" y="-642.8" font-family="Arial" font-size="14.00" fill="#666666">[BASE TABLE]</text>
<text text-anchor="start" x="517.1669" y="-628.4" font-family="Arial" font-size="14.00" fill="#333333">Comments</text>
<text text-anchor="start" x="523.007" y="-614.4" font-family="Arial" font-size="14.00" fill="#333333">Multi&#45;line</text>
<text text-anchor="start" x="535.8275" y="-600.4" font-family="Arial" font-size="14.00" fill="#333333">table</text>
<text text-anchor="start" x="522.2202" y="-586.4" font-family="Arial" font-size="14.00" fill="#333333">comment</text>
<polygon fill="none" stroke="#000000" points="381,-547 381,-577 721,-577 721,-547 381,-547"/>
<text text-anchor="start" x="388" y="-558.4" font-family="Arial" font-size="14.00" fill="#000000">id </text>
<text text-anchor="start" x="402.7798" y="-558.4" font-family="Arial" font-size="14.00" fill="#666666">[bigint(20)]</text>
<polygon fill="none" stroke="#000000" points="381,-517 381,-547 721,-547 721,-517 381,-517"/>
<text text-anchor="start" x="388" y="-528.4" font-family="Arial" font-size="14.00" fill="#000000">post_id </text>
<text text-anchor="start" x="437.0182" y="-528.4" font-family="Arial" font-size="14.00" fill="#666666">[bigint(20)]</text>
<polygon fill="none" stroke="#000000" points="381,-487 381,-517 721,-517 721,-487 381,-487"/>
<text text-anchor="start" x="388" y="-498.4" font-family="Arial" font-size="14.00" fill="#000000">user_id </text>
<text text-anchor="start" x="437.7882" y="-498.4" font-family="Arial" font-size="14.00" fill="#666666">[int(11)]</text>
<polygon fill="none" stroke="#000000" points="381,-457 381,-487 721,-487 721,-457 381,-457"/>
<text text-anchor="start" x="387.6578" y="-468.4" font-family="Arial" font-size="14.00" fill="#000000">comment </text>
<text text-anchor="start" x="449.108" y="-468.4" font-family="Arial" font-size="14.00" fill="#666666">[text]</text>
<text text-anchor="start" x="479.453" y="-468.4" font-family="Arial" font-size="14.00" fill="#000000"> Comment Multi&#45;line column comment</text>
<polygon fill="none" stroke="#000000" points="381,-427 381,-457 721,-457 721,-427 381,-427"/>
<text text-anchor="start" x="388" y="-438.4" font-family="Arial" font-size="14.00" fill="#000000">created </text>
<text text-anchor="start" x="438.5722" y="-438.4" font-family="Arial" font-size="14.00" fill="#666666">[datetime]</text>
<polygon fill="none" stroke="#000000" points="381,-397 381,-427 721,-427 721,-397 381,-397"/>
<text text-anchor="start" x="388" y="-408.4" font-family="Arial" font-size="14.00" fill="#000000">updated </text>
<text text-anchor="start" x="442.4768" y="-408.4" font-family="Arial" font-size="14.00" fill="#666666">[datetime]</text>
</g>
<!-- comments&#45;&gt;users -->
<g id="edge2" class="edge">
<title>comments:user_id&#45;&gt;users:id</title>
<path fill="none" stroke="#000000" d="M731.0654,-501.2995C785.7349,-493.007 742.9893,-412.8307 773,-354 808.1261,-285.1417 794.6999,-211 872,-211"/>
<polygon fill="#000000" stroke="#000000" points="730.9759,-501.3056 720.6875,-497.5109 725.9879,-501.6528 721,-502 721,-502 721,-502 725.9879,-501.6528 721.3125,-506.4891 730.9759,-501.3056 730.9759,-501.3056"/>
<text text-anchor="start" x="727.945" y="-512" font-family="Arial" font-size="10.00" fill="#000000">FOREIGN KEY (user_id) REFERENCES users (id)</text>
</g>
<!-- posts -->
<g id="node4" class="node">
<title>posts</title>
<polygon fill="#efefef" stroke="transparent" points="826,-613 826,-659 1207,-659 1207,-613 826,-613"/>
<polygon fill="none" stroke="#000000" points="826,-613 826,-659 1207,-659 1207,-613 826,-613"/>
<text text-anchor="start" x="946.3658" y="-636.8" font-family="Arial Bold" font-size="18.00" fill="#000000">posts</text>
<text text-anchor="start" x="989.3804" y="-636.8" font-family="Arial" font-size="14.00" fill="#000000"> </text>
<text text-anchor="start" x="993.271" y="-636.8" font-family="Arial" font-size="14.00" fill="#666666">[BASE TABLE]</text>
<text text-anchor="start" x="981.8773" y="-622.4" font-family="Arial" font-size="14.00" fill="#333333">Posts table</text>
<polygon fill="none" stroke="#000000" points="826,-583 826,-613 1207,-613 1207,-583 826,-583"/>
<text text-anchor="start" x="833" y="-594.4" font-family="Arial" font-size="14.00" fill="#000000">id </text>
<text text-anchor="start" x="847.7798" y="-594.4" font-family="Arial" font-size="14.00" fill="#666666">[bigint(20)]</text>
<polygon fill="none" stroke="#000000" points="826,-553 826,-583 1207,-583 1207,-553 826,-553"/>
<text text-anchor="start" x="833" y="-564.4" font-family="Arial" font-size="14.00" fill="#000000">user_id </text>
<text text-anchor="start" x="882.7882" y="-564.4" font-family="Arial" font-size="14.00" fill="#666666">[int(11)]</text>
<polygon fill="none" stroke="#000000" points="826,-523 826,-553 1207,-553 1207,-523 826,-523"/>
<text text-anchor="start" x="833" y="-534.4" font-family="Arial" font-size="14.00" fill="#000000">title </text>
<text text-anchor="start" x="858.6676" y="-534.4" font-family="Arial" font-size="14.00" fill="#666666">[varchar(255)]</text>
<polygon fill="none" stroke="#000000" points="826,-493 826,-523 1207,-523 1207,-493 826,-493"/>
<text text-anchor="start" x="833" y="-504.4" font-family="Arial" font-size="14.00" fill="#000000">body </text>
<text text-anchor="start" x="867.2384" y="-504.4" font-family="Arial" font-size="14.00" fill="#666666">[text]</text>
<text text-anchor="start" x="897.5834" y="-504.4" font-family="Arial" font-size="14.00" fill="#000000"> post body</text>
<polygon fill="none" stroke="#000000" points="826,-463 826,-493 1207,-493 1207,-463 826,-463"/>
<text text-anchor="start" x="832.5743" y="-474.4" font-family="Arial" font-size="14.00" fill="#000000">post_type </text>
<text text-anchor="start" x="897.1591" y="-474.4" font-family="Arial" font-size="14.00" fill="#666666">[enum(&#39;public&#39;,&#39;private&#39;,&#39;draft&#39;)]</text>
<text text-anchor="start" x="1082.1803" y="-474.4" font-family="Arial" font-size="14.00" fill="#000000"> public/private/draft</text>
<polygon fill="none" stroke="#000000" points="826,-433 826,-463 1207,-463 1207,-433 826,-433"/>
<text text-anchor="start" x="833" y="-444.4" font-family="Arial" font-size="14.00" fill="#000000">created </text>
<text text-anchor="start" x="883.5722" y="-444.4" font-family="Arial" font-size="14.00" fill="#666666">[datetime]</text>
<polygon fill="none" stroke="#000000" points="826,-403 826,-433 1207,-433 1207,-403 826,-403"/>
<text text-anchor="start" x="833" y="-414.4" font-family="Arial" font-size="14.00" fill="#000000">updated </text>
<text text-anchor="start" x="887.4768" y="-414.4" font-family="Arial" font-size="14.00" fill="#666666">[datetime]</text>
</g>
<!-- posts&#45;&gt;users -->
<g id="edge3" class="edge">
<title>posts:user_id&#45;&gt;users:id</title>
<path fill="none" stroke="#000000" d="M815.9746,-565.9035C750.2122,-536.6462 795.6041,-211 872,-211"/>
<polygon fill="#000000" stroke="#000000" points="816.2117,-565.953 825.0788,-572.4047 821.1059,-566.9765 826,-568 826,-568 826,-568 821.1059,-566.9765 826.9212,-563.5953 816.2117,-565.953 816.2117,-565.953"/>
<text text-anchor="start" x="772.945" y="-552" font-family="Arial" font-size="10.00" fill="#000000">FOREIGN KEY (user_id) REFERENCES users (id)</text>
</g>
<!-- user_options -->
<g id="node5" class="node">
<title>user_options</title>
<polygon fill="#efefef" stroke="transparent" points="1311,-568 1311,-614 1525,-614 1525,-568 1311,-568"/>
<polygon fill="none" stroke="#000000" points="1311,-568 1311,-614 1525,-614 1525,-568 1311,-568"/>
<text text-anchor="start" x="1317.8571" y="-591.8" font-family="Arial Bold" font-size="18.00" fill="#000000">user_options</text>
<text text-anchor="start" x="1420.8891" y="-591.8" font-family="Arial" font-size="14.00" fill="#000000"> </text>
<text text-anchor="start" x="1424.7797" y="-591.8" font-family="Arial" font-size="14.00" fill="#666666">[BASE TABLE]</text>
<text text-anchor="start" x="1361.5982" y="-577.4" font-family="Arial" font-size="14.00" fill="#333333">User options table</text>
<polygon fill="none" stroke="#000000" points="1311,-538 1311,-568 1525,-568 1525,-538 1311,-538"/>
<text text-anchor="start" x="1318" y="-549.4" font-family="Arial" font-size="14.00" fill="#000000">user_id </text>
<text text-anchor="start" x="1367.7882" y="-549.4" font-family="Arial" font-size="14.00" fill="#666666">[int(11)]</text>
<polygon fill="none" stroke="#000000" points="1311,-508 1311,-538 1525,-538 1525,-508 1311,-508"/>
<text text-anchor="start" x="1318" y="-519.4" font-family="Arial" font-size="14.00" fill="#000000">show_email </text>
<text text-anchor="start" x="1395.784" y="-519.4" font-family="Arial" font-size="14.00" fill="#666666">[tinyint(1)]</text>
<polygon fill="none" stroke="#000000" points="1311,-478 1311,-508 1525,-508 1525,-478 1311,-478"/>
<text text-anchor="start" x="1318" y="-489.4" font-family="Arial" font-size="14.00" fill="#000000">created </text>
<text text-anchor="start" x="1368.5722" y="-489.4" font-family="Arial" font-size="14.00" fill="#666666">[timestamp]</text>
<polygon fill="none" stroke="#000000" points="1311,-448 1311,-478 1525,-478 1525,-448 1311,-448"/>
<text text-anchor="start" x="1318" y="-459.4" font-family="Arial" font-size="14.00" fill="#000000">updated </text>
<text text-anchor="start" x="1372.4768" y="-459.4" font-family="Arial" font-size="14.00" fill="#666666">[timestamp]</text>
</g>
<!-- user_options&#45;&gt;users -->
<g id="edge4" class="edge">
<title>user_options:user_id&#45;&gt;users:id</title>
<path fill="none" stroke="#000000" d="M1300.584,-552.4256C1225.7388,-543.5525 1295.4011,-433.75 1259,-354 1227.0073,-283.9082 1238.048,-211 1161,-211"/>
<polygon fill="#000000" stroke="#000000" points="1301.0152,-552.4493 1310.7522,-557.4932 1306.0076,-552.7247 1311,-553 1311,-553 1311,-553 1306.0076,-552.7247 1311.2478,-548.5068 1301.0152,-552.4493 1301.0152,-552.4493"/>
<text text-anchor="start" x="1077.945" y="-563" font-family="Arial" font-size="10.00" fill="#000000">FOREIGN KEY (user_id) REFERENCES users (id)</text>
</g>
<!-- logs -->
<g id="node6" class="node">
<title>logs</title>
<polygon fill="#efefef" stroke="transparent" points="1630,-613 1630,-659 1821,-659 1821,-613 1630,-613"/>
<polygon fill="none" stroke="#000000" points="1630,-613 1630,-659 1821,-659 1821,-613 1630,-613"/>
<text text-anchor="start" x="1660.3698" y="-636.8" font-family="Arial Bold" font-size="18.00" fill="#000000">logs</text>
<text text-anchor="start" x="1693.3764" y="-636.8" font-family="Arial" font-size="14.00" fill="#000000"> </text>
<text text-anchor="start" x="1697.267" y="-636.8" font-family="Arial" font-size="14.00" fill="#666666">[BASE TABLE]</text>
<text text-anchor="start" x="1696.2057" y="-622.4" font-family="Arial" font-size="14.00" fill="#333333">Auditログ</text>
<polygon fill="none" stroke="#000000" points="1630,-583 1630,-613 1821,-613 1821,-583 1630,-583"/>
<text text-anchor="start" x="1637" y="-594.4" font-family="Arial" font-size="14.00" fill="#000000">id </text>
<text text-anchor="start" x="1651.7798" y="-594.4" font-family="Arial" font-size="14.00" fill="#666666">[bigint(20)]</text>
<polygon fill="none" stroke="#000000" points="1630,-553 1630,-583 1821,-583 1821,-553 1630,-553"/>
<text text-anchor="start" x="1637" y="-564.4" font-family="Arial" font-size="14.00" fill="#000000">user_id </text>
<text text-anchor="start" x="1686.7882" y="-564.4" font-family="Arial" font-size="14.00" fill="#666666">[int(11)]</text>
<polygon fill="none" stroke="#000000" points="1630,-523 1630,-553 1821,-553 1821,-523 1630,-523"/>
<text text-anchor="start" x="1637" y="-534.4" font-family="Arial" font-size="14.00" fill="#000000">post_id </text>
<text text-anchor="start" x="1686.0182" y="-534.4" font-family="Arial" font-size="14.00" fill="#666666">[bigint(20)]</text>
<polygon fill="none" stroke="#000000" points="1630,-493 1630,-523 1821,-523 1821,-493 1630,-493"/>
<text text-anchor="start" x="1637" y="-504.4" font-family="Arial" font-size="14.00" fill="#000000">comment_id </text>
<text text-anchor="start" x="1717.122" y="-504.4" font-family="Arial" font-size="14.00" fill="#666666">[bigint(20)]</text>
<polygon fill="none" stroke="#000000" points="1630,-463 1630,-493 1821,-493 1821,-463 1630,-463"/>
<text text-anchor="start" x="1636.8212" y="-474.4" font-family="Arial" font-size="14.00" fill="#000000">comment_star_id </text>
<text text-anchor="start" x="1748.0596" y="-474.4" font-family="Arial" font-size="14.00" fill="#666666">[bigint(20)]</text>
<polygon fill="none" stroke="#000000" points="1630,-433 1630,-463 1821,-463 1821,-433 1630,-433"/>
<text text-anchor="start" x="1637" y="-444.4" font-family="Arial" font-size="14.00" fill="#000000">payload </text>
<text text-anchor="start" x="1689.9102" y="-444.4" font-family="Arial" font-size="14.00" fill="#666666">[text]</text>
<polygon fill="none" stroke="#000000" points="1630,-403 1630,-433 1821,-433 1821,-403 1630,-403"/>
<text text-anchor="start" x="1637" y="-414.4" font-family="Arial" font-size="14.00" fill="#000000">created </text>
<text text-anchor="start" x="1687.5722" y="-414.4" font-family="Arial" font-size="14.00" fill="#666666">[datetime]</text>
</g>
<!-- logs&#45;&gt;users -->
<g id="edge5" class="edge">
<title>logs:user_id&#45;&gt;users:id</title>
<path fill="none" stroke="#000000" stroke-dasharray="5,2" d="M1619.9358,-567.4253C1540.0202,-557.5771 1640.7043,-423.5945 1577,-354 1510.9964,-281.8936 1258.7538,-211 1161,-211"/>
<polygon fill="#000000" stroke="#000000" points="1620.0163,-567.4298 1629.7434,-572.4927 1625.0081,-567.7149 1630,-568 1630,-568 1630,-568 1625.0081,-567.7149 1630.2566,-563.5073 1620.0163,-567.4298 1620.0163,-567.4298"/>
<text text-anchor="start" x="1588.274" y="-552" font-family="Arial" font-size="10.00" fill="#000000">logs&#45;&gt;users</text>
</g>
</g>
</svg>
