<?xml version="1.0" encoding="UTF-8" standalone="no"?>
<!DOCTYPE svg PUBLIC "-//W3C//DTD SVG 1.1//EN"
 "http://www.w3.org/Graphics/SVG/1.1/DTD/svg11.dtd">
<!-- Generated by graphviz version 2.40.1 (20161225.0304)
 -->
<!-- Title: users Pages: 1 -->
<svg width="1608pt" height="682pt"
 viewBox="0.00 0.00 1607.50 682.00" xmlns="http://www.w3.org/2000/svg" xmlns:xlink="http://www.w3.org/1999/xlink">
<g id="graph0" class="graph" transform="scale(1 1) rotate(0) translate(4 678)">
<title>users</title>
<polygon fill="#ffffff" stroke="transparent" points="-4,4 -4,-678 1603.5,-678 1603.5,4 -4,4"/>
<!-- users -->
<g id="node1" class="node">
<title>users</title>
<polygon fill="#efefef" stroke="transparent" points="732,-225.5 732,-260.5 891,-260.5 891,-225.5 732,-225.5"/>
<polygon fill="none" stroke="#000000" points="732,-225.5 732,-260.5 891,-260.5 891,-225.5 732,-225.5"/>
<text text-anchor="start" x="740.8708" y="-238.3" font-family="Arial Bold" font-size="18.00" fill="#000000">users</text>
<text text-anchor="start" x="784.8754" y="-238.3" font-family="Arial" font-size="14.00" fill="#000000"> </text>
<text text-anchor="start" x="788.766" y="-238.3" font-family="Arial" font-size="14.00" fill="#666666">[BASE TABLE]</text>
<polygon fill="none" stroke="#000000" points="732,-195.5 732,-225.5 891,-225.5 891,-195.5 732,-195.5"/>
<text text-anchor="start" x="739" y="-206.9" font-family="Arial" font-size="14.00" fill="#000000">id </text>
<text text-anchor="start" x="753.7798" y="-206.9" font-family="Arial" font-size="14.00" fill="#666666">[int(11)]</text>
<polygon fill="none" stroke="#000000" points="732,-165.5 732,-195.5 891,-195.5 891,-165.5 732,-165.5"/>
<text text-anchor="start" x="738.7693" y="-176.9" font-family="Arial" font-size="14.00" fill="#000000">username </text>
<text text-anchor="start" x="804.8941" y="-176.9" font-family="Arial" font-size="14.00" fill="#666666">[varchar(50)]</text>
<polygon fill="none" stroke="#000000" points="732,-135.5 732,-165.5 891,-165.5 891,-135.5 732,-135.5"/>
<text text-anchor="start" x="739" y="-146.9" font-family="Arial" font-size="14.00" fill="#000000">password </text>
<text text-anchor="start" x="802.7882" y="-146.9" font-family="Arial" font-size="14.00" fill="#666666">[varchar(50)]</text>
<polygon fill="none" stroke="#000000" points="732,-105.5 732,-135.5 891,-135.5 891,-105.5 732,-105.5"/>
<text text-anchor="start" x="739" y="-116.9" font-family="Arial" font-size="14.00" fill="#000000">email </text>
<text text-anchor="start" x="776.3296" y="-116.9" font-family="Arial" font-size="14.00" fill="#666666">[varchar(355)]</text>
<polygon fill="none" stroke="#000000" points="732,-75.5 732,-105.5 891,-105.5 891,-75.5 732,-75.5"/>
<text text-anchor="start" x="739" y="-86.9" font-family="Arial" font-size="14.00" fill="#000000">created </text>
<text text-anchor="start" x="789.5722" y="-86.9" font-family="Arial" font-size="14.00" fill="#666666">[timestamp]</text>
<polygon fill="none" stroke="#000000" points="732,-45.5 732,-75.5 891,-75.5 891,-45.5 732,-45.5"/>
<text text-anchor="start" x="739" y="-56.9" font-family="Arial" font-size="14.00" fill="#000000">updated </text>
<text text-anchor="start" x="793.4768" y="-56.9" font-family="Arial" font-size="14.00" fill="#666666">[timestamp]</text>
<polygon fill="none" stroke="#000000" stroke-width="3" points="730,-44.5 730,-262.5 892,-262.5 892,-44.5 730,-44.5"/>
</g>
<!-- comment_stars -->
<g id="node2" class="node">
<title>comment_stars</title>
<polygon fill="#efefef" stroke="transparent" points="43,-580.5 43,-615.5 277,-615.5 277,-580.5 43,-580.5"/>
<polygon fill="none" stroke="#000000" points="43,-580.5 43,-615.5 277,-615.5 277,-580.5 43,-580.5"/>
<text text-anchor="start" x="49.8671" y="-593.3" font-family="Arial Bold" font-size="18.00" fill="#000000">comment_stars</text>
<text text-anchor="start" x="172.8791" y="-593.3" font-family="Arial" font-size="14.00" fill="#000000"> </text>
<text text-anchor="start" x="176.7697" y="-593.3" font-family="Arial" font-size="14.00" fill="#666666">[BASE TABLE]</text>
<polygon fill="none" stroke="#000000" points="43,-550.5 43,-580.5 277,-580.5 277,-550.5 43,-550.5"/>
<text text-anchor="start" x="50" y="-561.9" font-family="Arial" font-size="14.00" fill="#000000">id </text>
<text text-anchor="start" x="64.7798" y="-561.9" font-family="Arial" font-size="14.00" fill="#666666">[bigint(20)]</text>
<polygon fill="none" stroke="#000000" points="43,-520.5 43,-550.5 277,-550.5 277,-520.5 43,-520.5"/>
<text text-anchor="start" x="50" y="-531.9" font-family="Arial" font-size="14.00" fill="#000000">user_id </text>
<text text-anchor="start" x="99.7882" y="-531.9" font-family="Arial" font-size="14.00" fill="#666666">[int(11)]</text>
<polygon fill="none" stroke="#000000" points="43,-490.5 43,-520.5 277,-520.5 277,-490.5 43,-490.5"/>
<text text-anchor="start" x="50" y="-501.9" font-family="Arial" font-size="14.00" fill="#000000">comment_post_id </text>
<text text-anchor="start" x="164.3604" y="-501.9" font-family="Arial" font-size="14.00" fill="#666666">[bigint(20)]</text>
<polygon fill="none" stroke="#000000" points="43,-460.5 43,-490.5 277,-490.5 277,-460.5 43,-460.5"/>
<text text-anchor="start" x="50" y="-471.9" font-family="Arial" font-size="14.00" fill="#000000">comment_user_id </text>
<text text-anchor="start" x="165.1304" y="-471.9" font-family="Arial" font-size="14.00" fill="#666666">[int(11)]</text>
<polygon fill="none" stroke="#000000" points="43,-430.5 43,-460.5 277,-460.5 277,-430.5 43,-430.5"/>
<text text-anchor="start" x="50" y="-441.9" font-family="Arial" font-size="14.00" fill="#000000">created </text>
<text text-anchor="start" x="100.5722" y="-441.9" font-family="Arial" font-size="14.00" fill="#666666">[timestamp]</text>
<polygon fill="none" stroke="#000000" points="43,-400.5 43,-430.5 277,-430.5 277,-400.5 43,-400.5"/>
<text text-anchor="start" x="50" y="-411.9" font-family="Arial" font-size="14.00" fill="#000000">updated </text>
<text text-anchor="start" x="104.4768" y="-411.9" font-family="Arial" font-size="14.00" fill="#666666">[timestamp]</text>
</g>
<!-- comment_stars&#45;&gt;users -->
<g id="edge1" class="edge">
<title>comment_stars:comment_user_id&#45;&gt;users:id</title>
<path fill="none" stroke="#000000" d="M287.2153,-474.5506C333.709,-464.8844 285.8089,-383.8241 329,-343 466.0222,-213.4871 543.4564,-210.5 732,-210.5"/>
<polygon fill="#000000" stroke="#000000" points="286.9571,-474.5745 276.5835,-471.0193 281.9785,-475.0372 277,-475.5 277,-475.5 277,-475.5 281.9785,-475.0372 277.4165,-479.9807 286.9571,-474.5745 286.9571,-474.5745"/>
<text text-anchor="start" x="140.6085" y="-459.5" font-family="Arial" font-size="10.00" fill="#000000">FOREIGN KEY (comment_user_id) REFERENCES users (id)</text>
</g>
<!-- comments -->
<g id="node3" class="node">
<title>comments</title>
<polygon fill="#efefef" stroke="transparent" points="381,-580.5 381,-615.5 575,-615.5 575,-580.5 381,-580.5"/>
<polygon fill="none" stroke="#000000" points="381,-580.5 381,-615.5 575,-615.5 575,-580.5 381,-580.5"/>
<text text-anchor="start" x="387.8705" y="-593.3" font-family="Arial Bold" font-size="18.00" fill="#000000">comments</text>
<text text-anchor="start" x="470.8757" y="-593.3" font-family="Arial" font-size="14.00" fill="#000000"> </text>
<text text-anchor="start" x="474.7663" y="-593.3" font-family="Arial" font-size="14.00" fill="#666666">[BASE TABLE]</text>
<polygon fill="none" stroke="#000000" points="381,-550.5 381,-580.5 575,-580.5 575,-550.5 381,-550.5"/>
<text text-anchor="start" x="388" y="-561.9" font-family="Arial" font-size="14.00" fill="#000000">id </text>
<text text-anchor="start" x="402.7798" y="-561.9" font-family="Arial" font-size="14.00" fill="#666666">[bigint(20)]</text>
<polygon fill="none" stroke="#000000" points="381,-520.5 381,-550.5 575,-550.5 575,-520.5 381,-520.5"/>
<text text-anchor="start" x="388" y="-531.9" font-family="Arial" font-size="14.00" fill="#000000">post_id </text>
<text text-anchor="start" x="437.0182" y="-531.9" font-family="Arial" font-size="14.00" fill="#666666">[bigint(20)]</text>
<polygon fill="none" stroke="#000000" points="381,-490.5 381,-520.5 575,-520.5 575,-490.5 381,-490.5"/>
<text text-anchor="start" x="388" y="-501.9" font-family="Arial" font-size="14.00" fill="#000000">user_id </text>
<text text-anchor="start" x="437.7882" y="-501.9" font-family="Arial" font-size="14.00" fill="#666666">[int(11)]</text>
<polygon fill="none" stroke="#000000" points="381,-460.5 381,-490.5 575,-490.5 575,-460.5 381,-460.5"/>
<text text-anchor="start" x="388" y="-471.9" font-family="Arial" font-size="14.00" fill="#000000">comment </text>
<text text-anchor="start" x="449.4502" y="-471.9" font-family="Arial" font-size="14.00" fill="#666666">[text]</text>
<polygon fill="none" stroke="#000000" points="381,-430.5 381,-460.5 575,-460.5 575,-430.5 381,-430.5"/>
<text text-anchor="start" x="388" y="-441.9" font-family="Arial" font-size="14.00" fill="#000000">created </text>
<text text-anchor="start" x="438.5722" y="-441.9" font-family="Arial" font-size="14.00" fill="#666666">[datetime]</text>
<polygon fill="none" stroke="#000000" points="381,-400.5 381,-430.5 575,-430.5 575,-400.5 381,-400.5"/>
<text text-anchor="start" x="388" y="-411.9" font-family="Arial" font-size="14.00" fill="#000000">updated </text>
<text text-anchor="start" x="442.4768" y="-411.9" font-family="Arial" font-size="14.00" fill="#666666">[datetime]</text>
</g>
<!-- comments&#45;&gt;users -->
<g id="edge2" class="edge">
<title>comments:user_id&#45;&gt;users:id</title>
<path fill="none" stroke="#000000" d="M585.1667,-504.8308C645.2452,-496.2334 593.0606,-406.6432 627,-343 662.356,-276.7004 656.8623,-210.5 732,-210.5"/>
<polygon fill="#000000" stroke="#000000" points="584.9784,-504.8431 574.7044,-501.0097 579.9892,-505.1715 575,-505.5 575,-505.5 575,-505.5 579.9892,-505.1715 575.2956,-509.9903 584.9784,-504.8431 584.9784,-504.8431"/>
<text text-anchor="start" x="581.945" y="-515.5" font-family="Arial" font-size="10.00" fill="#000000">FOREIGN KEY (user_id) REFERENCES users (id)</text>
</g>
<!-- posts -->
<g id="node4" class="node">
<title>posts</title>
<polygon fill="#efefef" stroke="transparent" points="680,-595.5 680,-630.5 943,-630.5 943,-595.5 680,-595.5"/>
<polygon fill="none" stroke="#000000" points="680,-595.5 680,-630.5 943,-630.5 943,-595.5 680,-595.5"/>
<text text-anchor="start" x="741.3658" y="-608.3" font-family="Arial Bold" font-size="18.00" fill="#000000">posts</text>
<text text-anchor="start" x="784.3804" y="-608.3" font-family="Arial" font-size="14.00" fill="#000000"> </text>
<text text-anchor="start" x="788.271" y="-608.3" font-family="Arial" font-size="14.00" fill="#666666">[BASE TABLE]</text>
<polygon fill="none" stroke="#000000" points="680,-565.5 680,-595.5 943,-595.5 943,-565.5 680,-565.5"/>
<text text-anchor="start" x="687" y="-576.9" font-family="Arial" font-size="14.00" fill="#000000">id </text>
<text text-anchor="start" x="701.7798" y="-576.9" font-family="Arial" font-size="14.00" fill="#666666">[bigint(20)]</text>
<polygon fill="none" stroke="#000000" points="680,-535.5 680,-565.5 943,-565.5 943,-535.5 680,-535.5"/>
<text text-anchor="start" x="687" y="-546.9" font-family="Arial" font-size="14.00" fill="#000000">user_id </text>
<text text-anchor="start" x="736.7882" y="-546.9" font-family="Arial" font-size="14.00" fill="#666666">[int(11)]</text>
<polygon fill="none" stroke="#000000" points="680,-505.5 680,-535.5 943,-535.5 943,-505.5 680,-505.5"/>
<text text-anchor="start" x="687" y="-516.9" font-family="Arial" font-size="14.00" fill="#000000">title </text>
<text text-anchor="start" x="712.6676" y="-516.9" font-family="Arial" font-size="14.00" fill="#666666">[varchar(255)]</text>
<polygon fill="none" stroke="#000000" points="680,-475.5 680,-505.5 943,-505.5 943,-475.5 680,-475.5"/>
<text text-anchor="start" x="687" y="-486.9" font-family="Arial" font-size="14.00" fill="#000000">body </text>
<text text-anchor="start" x="721.2384" y="-486.9" font-family="Arial" font-size="14.00" fill="#666666">[text]</text>
<polygon fill="none" stroke="#000000" points="680,-445.5 680,-475.5 943,-475.5 943,-445.5 680,-445.5"/>
<text text-anchor="start" x="686.697" y="-456.9" font-family="Arial" font-size="14.00" fill="#000000">post_type </text>
<text text-anchor="start" x="751.2818" y="-456.9" font-family="Arial" font-size="14.00" fill="#666666">[enum(&#39;public&#39;,&#39;private&#39;,&#39;draft&#39;)]</text>
<polygon fill="none" stroke="#000000" points="680,-415.5 680,-445.5 943,-445.5 943,-415.5 680,-415.5"/>
<text text-anchor="start" x="687" y="-426.9" font-family="Arial" font-size="14.00" fill="#000000">created </text>
<text text-anchor="start" x="737.5722" y="-426.9" font-family="Arial" font-size="14.00" fill="#666666">[datetime]</text>
<polygon fill="none" stroke="#000000" points="680,-385.5 680,-415.5 943,-415.5 943,-385.5 680,-385.5"/>
<text text-anchor="start" x="687" y="-396.9" font-family="Arial" font-size="14.00" fill="#000000">updated </text>
<text text-anchor="start" x="741.4768" y="-396.9" font-family="Arial" font-size="14.00" fill="#666666">[datetime]</text>
</g>
<!-- posts&#45;&gt;users -->
<g id="edge3" class="edge">
<title>posts:user_id&#45;&gt;users:id</title>
<path fill="none" stroke="#000000" d="M670.0874,-548.3288C608.4946,-519.3721 659.1487,-210.5 732,-210.5"/>
<polygon fill="#000000" stroke="#000000" points="670.2316,-548.3603 679.0372,-554.8958 675.1158,-549.4302 680,-550.5 680,-550.5 680,-550.5 675.1158,-549.4302 680.9628,-546.1042 670.2316,-548.3603 670.2316,-548.3603"/>
<text text-anchor="start" x="686.945" y="-560.5" font-family="Arial" font-size="10.00" fill="#000000">FOREIGN KEY (user_id) REFERENCES users (id)</text>
</g>
<!-- user_options -->
<g id="node5" class="node">
<title>user_options</title>
<polygon fill="#efefef" stroke="transparent" points="1047,-550.5 1047,-585.5 1261,-585.5 1261,-550.5 1047,-550.5"/>
<polygon fill="none" stroke="#000000" points="1047,-550.5 1047,-585.5 1261,-585.5 1261,-550.5 1047,-550.5"/>
<text text-anchor="start" x="1053.8571" y="-563.3" font-family="Arial Bold" font-size="18.00" fill="#000000">user_options</text>
<text text-anchor="start" x="1156.8891" y="-563.3" font-family="Arial" font-size="14.00" fill="#000000"> </text>
<text text-anchor="start" x="1160.7797" y="-563.3" font-family="Arial" font-size="14.00" fill="#666666">[BASE TABLE]</text>
<polygon fill="none" stroke="#000000" points="1047,-520.5 1047,-550.5 1261,-550.5 1261,-520.5 1047,-520.5"/>
<text text-anchor="start" x="1054" y="-531.9" font-family="Arial" font-size="14.00" fill="#000000">user_id </text>
<text text-anchor="start" x="1103.7882" y="-531.9" font-family="Arial" font-size="14.00" fill="#666666">[int(11)]</text>
<polygon fill="none" stroke="#000000" points="1047,-490.5 1047,-520.5 1261,-520.5 1261,-490.5 1047,-490.5"/>
<text text-anchor="start" x="1054" y="-501.9" font-family="Arial" font-size="14.00" fill="#000000">show_email </text>
<text text-anchor="start" x="1131.784" y="-501.9" font-family="Arial" font-size="14.00" fill="#666666">[tinyint(1)]</text>
<polygon fill="none" stroke="#000000" points="1047,-460.5 1047,-490.5 1261,-490.5 1261,-460.5 1047,-460.5"/>
<text text-anchor="start" x="1054" y="-471.9" font-family="Arial" font-size="14.00" fill="#000000">created </text>
<text text-anchor="start" x="1104.5722" y="-471.9" font-family="Arial" font-size="14.00" fill="#666666">[timestamp]</text>
<polygon fill="none" stroke="#000000" points="1047,-430.5 1047,-460.5 1261,-460.5 1261,-430.5 1047,-430.5"/>
<text text-anchor="start" x="1054" y="-441.9" font-family="Arial" font-size="14.00" fill="#000000">updated </text>
<text text-anchor="start" x="1108.4768" y="-441.9" font-family="Arial" font-size="14.00" fill="#666666">[timestamp]</text>
</g>
<!-- user_options&#45;&gt;users -->
<g id="edge4" class="edge">
<title>user_options:user_id&#45;&gt;users:id</title>
<path fill="none" stroke="#000000" d="M1036.9084,-534.9385C964.4445,-526.2653 1033.0837,-418.9767 995,-343 961.4533,-276.0746 965.8625,-210.5 891,-210.5"/>
<polygon fill="#000000" stroke="#000000" points="1037.0154,-534.9443 1046.75,-539.9931 1042.0077,-535.2222 1047,-535.5 1047,-535.5 1047,-535.5 1042.0077,-535.2222 1047.25,-531.0069 1037.0154,-534.9443 1037.0154,-534.9443"/>
<text text-anchor="start" x="993.945" y="-519.5" font-family="Arial" font-size="10.00" fill="#000000">FOREIGN KEY (user_id) REFERENCES users (id)</text>
</g>
<!-- logs -->
<g id="node6" class="node">
<title>logs</title>
<polygon fill="#efefef" stroke="transparent" points="1366,-595.5 1366,-630.5 1557,-630.5 1557,-595.5 1366,-595.5"/>
<polygon fill="none" stroke="#000000" points="1366,-595.5 1366,-630.5 1557,-630.5 1557,-595.5 1366,-595.5"/>
<text text-anchor="start" x="1396.3698" y="-608.3" font-family="Arial Bold" font-size="18.00" fill="#000000">logs</text>
<text text-anchor="start" x="1429.3764" y="-608.3" font-family="Arial" font-size="14.00" fill="#000000"> </text>
<text text-anchor="start" x="1433.267" y="-608.3" font-family="Arial" font-size="14.00" fill="#666666">[BASE TABLE]</text>
<polygon fill="none" stroke="#000000" points="1366,-565.5 1366,-595.5 1557,-595.5 1557,-565.5 1366,-565.5"/>
<text text-anchor="start" x="1373" y="-576.9" font-family="Arial" font-size="14.00" fill="#000000">id </text>
<text text-anchor="start" x="1387.7798" y="-576.9" font-family="Arial" font-size="14.00" fill="#666666">[bigint(20)]</text>
<polygon fill="none" stroke="#000000" points="1366,-535.5 1366,-565.5 1557,-565.5 1557,-535.5 1366,-535.5"/>
<text text-anchor="start" x="1373" y="-546.9" font-family="Arial" font-size="14.00" fill="#000000">user_id </text>
<text text-anchor="start" x="1422.7882" y="-546.9" font-family="Arial" font-size="14.00" fill="#666666">[int(11)]</text>
<polygon fill="none" stroke="#000000" points="1366,-505.5 1366,-535.5 1557,-535.5 1557,-505.5 1366,-505.5"/>
<text text-anchor="start" x="1373" y="-516.9" font-family="Arial" font-size="14.00" fill="#000000">post_id </text>
<text text-anchor="start" x="1422.0182" y="-516.9" font-family="Arial" font-size="14.00" fill="#666666">[bigint(20)]</text>
<polygon fill="none" stroke="#000000" points="1366,-475.5 1366,-505.5 1557,-505.5 1557,-475.5 1366,-475.5"/>
<text text-anchor="start" x="1373" y="-486.9" font-family="Arial" font-size="14.00" fill="#000000">comment_id </text>
<text text-anchor="start" x="1453.122" y="-486.9" font-family="Arial" font-size="14.00" fill="#666666">[bigint(20)]</text>
<polygon fill="none" stroke="#000000" points="1366,-445.5 1366,-475.5 1557,-475.5 1557,-445.5 1366,-445.5"/>
<text text-anchor="start" x="1372.8212" y="-456.9" font-family="Arial" font-size="14.00" fill="#000000">comment_star_id </text>
<text text-anchor="start" x="1484.0596" y="-456.9" font-family="Arial" font-size="14.00" fill="#666666">[bigint(20)]</text>
<polygon fill="none" stroke="#000000" points="1366,-415.5 1366,-445.5 1557,-445.5 1557,-415.5 1366,-415.5"/>
<text text-anchor="start" x="1373" y="-426.9" font-family="Arial" font-size="14.00" fill="#000000">payload </text>
<text text-anchor="start" x="1425.9102" y="-426.9" font-family="Arial" font-size="14.00" fill="#666666">[text]</text>
<polygon fill="none" stroke="#000000" points="1366,-385.5 1366,-415.5 1557,-415.5 1557,-385.5 1366,-385.5"/>
<text text-anchor="start" x="1373" y="-396.9" font-family="Arial" font-size="14.00" fill="#000000">created </text>
<text text-anchor="start" x="1423.5722" y="-396.9" font-family="Arial" font-size="14.00" fill="#666666">[datetime]</text>
</g>
<!-- logs&#45;&gt;users -->
<g id="edge5" class="edge">
<title>logs:user_id&#45;&gt;users:id</title>
<path fill="none" stroke="#000000" stroke-dasharray="5,2" d="M1355.7518,-549.8788C1278.9623,-539.7934 1375.9006,-409.4029 1313,-343 1245.4047,-271.6409 989.2916,-210.5 891,-210.5"/>
<polygon fill="#000000" stroke="#000000" points="1356.0183,-549.8949 1365.7277,-554.9918 1361.0092,-550.1975 1366,-550.5 1366,-550.5 1366,-550.5 1361.0092,-550.1975 1366.2723,-546.0082 1356.0183,-549.8949 1356.0183,-549.8949"/>
<text text-anchor="start" x="1324.274" y="-534.5" font-family="Arial" font-size="10.00" fill="#000000">logs&#45;&gt;users</text>
</g>
</g>
</svg>
67.9765,-886.815 567.9765,-886.815"/>
<text text-anchor="start" x="565.495" y="-897.5" font-family="Arial" font-size="10.00" fill="#000000">FOREIGN KEY (post_id) REFERENCES posts (id)</text>
</g>
<!-- posts&#45;&gt;users -->
<g id="edge7" class="edge">
<title>posts:user_id&#45;&gt;users:id</title>
<path fill="none" stroke="#000000" d="M392.9816,-549.9787C317.1781,-541.4972 394.5034,-431.2115 403,-343 404.5628,-326.7754 408.4372,-323.2246 410,-307 414.112,-264.3087 452.8889,-210.5 410,-210.5"/>
<polygon fill="#000000" stroke="#000000" points="393.0135,-549.9802 402.7661,-554.9939 398.0068,-550.2401 403,-550.5 403,-550.5 403,-550.5 398.0068,-550.2401 403.2339,-546.0061 393.0135,-549.9802 393.0135,-549.9802"/>
<text text-anchor="start" x="169.945" y="-560.5" font-family="Arial" font-size="10.00" fill="#000000">FOREIGN KEY (user_id) REFERENCES users (id)</text>
</g>
<!-- user_options -->
<g id="node6" class="node">
<title>user_options</title>
<polygon fill="#efefef" stroke="transparent" points="770,-550.5 770,-585.5 984,-585.5 984,-550.5 770,-550.5"/>
<polygon fill="none" stroke="#000000" points="770,-550.5 770,-585.5 984,-585.5 984,-550.5 770,-550.5"/>
<text text-anchor="start" x="776.8571" y="-563.3" font-family="Arial Bold" font-size="18.00" fill="#000000">user_options</text>
<text text-anchor="start" x="879.8891" y="-563.3" font-family="Arial" font-size="14.00" fill="#000000"> </text>
<text text-anchor="start" x="883.7797" y="-563.3" font-family="Arial" font-size="14.00" fill="#666666">[BASE TABLE]</text>
<polygon fill="none" stroke="#000000" points="770,-520.5 770,-550.5 984,-550.5 984,-520.5 770,-520.5"/>
<text text-anchor="start" x="777" y="-531.9" font-family="Arial" font-size="14.00" fill="#000000">user_id </text>
<text text-anchor="start" x="826.7882" y="-531.9" font-family="Arial" font-size="14.00" fill="#666666">[int(11)]</text>
<polygon fill="none" stroke="#000000" points="770,-490.5 770,-520.5 984,-520.5 984,-490.5 770,-490.5"/>
<text text-anchor="start" x="777" y="-501.9" font-family="Arial" font-size="14.00" fill="#000000">show_email </text>
<text text-anchor="start" x="854.784" y="-501.9" font-family="Arial" font-size="14.00" fill="#666666">[tinyint(1)]</text>
<polygon fill="none" stroke="#000000" points="770,-460.5 770,-490.5 984,-490.5 984,-460.5 770,-460.5"/>
<text text-anchor="start" x="777" y="-471.9" font-family="Arial" font-size="14.00" fill="#000000">created </text>
<text text-anchor="start" x="827.5722" y="-471.9" font-family="Arial" font-size="14.00" fill="#666666">[timestamp]</text>
<polygon fill="none" stroke="#000000" points="770,-430.5 770,-460.5 984,-460.5 984,-430.5 770,-430.5"/>
<text text-anchor="start" x="777" y="-441.9" font-family="Arial" font-size="14.00" fill="#000000">updated </text>
<text text-anchor="start" x="831.4768" y="-441.9" font-family="Arial" font-size="14.00" fill="#666666">[timestamp]</text>
</g>
<!-- user_options&#45;&gt;users -->
<g id="edge9" class="edge">
<title>user_options:user_id&#45;&gt;users:id</title>
<path fill="none" stroke="#000000" d="M759.9972,-534.8791C688.8869,-525.3008 773.6667,-407.2187 718,-343 620.3929,-230.3975 559.0184,-210.5 410,-210.5"/>
<polygon fill="#000000" stroke="#000000" points="760.0192,-534.8804 769.7212,-539.9914 765.0096,-535.1902 770,-535.5 770,-535.5 770,-535.5 765.0096,-535.1902 770.2788,-531.0086 760.0192,-534.8804 760.0192,-534.8804"/>
<text text-anchor="start" x="716.945" y="-519.5" font-family="Arial" font-size="10.00" fill="#000000">FOREIGN KEY (user_id) REFERENCES users (id)</text>
</g>
</g>
</svg>
