<?xml version="1.0" encoding="UTF-8" standalone="no"?>
<!DOCTYPE svg PUBLIC "-//W3C//DTD SVG 1.1//EN"
 "http://www.w3.org/Graphics/SVG/1.1/DTD/svg11.dtd">
<!-- Generated by graphviz version 2.40.1 (20161225.0304)
 -->
<!-- Title: Forum Pages: 1 -->
<svg width="338pt" height="382pt"
 viewBox="0.00 0.00 337.50 382.00" xmlns="http://www.w3.org/2000/svg" xmlns:xlink="http://www.w3.org/1999/xlink">
<g id="graph0" class="graph" transform="scale(1 1) rotate(0) translate(4 378)">
<title>Forum</title>
<polygon fill="#ffffff" stroke="transparent" points="-4,4 -4,-378 333.5,-378 333.5,4 -4,4"/>
<!-- Forum -->
<g id="node1" class="node">
<title>Forum</title>
<polygon fill="#efefef" stroke="transparent" points="46.5,-75.5 46.5,-110.5 244.5,-110.5 244.5,-75.5 46.5,-75.5"/>
<polygon fill="none" stroke="#000000" points="46.5,-75.5 46.5,-110.5 244.5,-110.5 244.5,-75.5 46.5,-75.5"/>
<text text-anchor="start" x="53.3892" y="-88.3" font-family="Arial Bold" font-size="18.00" fill="#000000">Forum</text>
<text text-anchor="start" x="105.3822" y="-88.3" font-family="Arial" font-size="14.00" fill="#000000">    </text>
<text text-anchor="start" x="139.587" y="-88.3" font-family="Arial" font-size="14.00" fill="#666666">[BASIC TABLE]</text>
<polygon fill="none" stroke="#000000" points="46.5,-45.5 46.5,-75.5 244.5,-75.5 244.5,-45.5 46.5,-45.5"/>
<text text-anchor="start" x="53.5" y="-56.9" font-family="Arial" font-size="14.00" fill="#000000">Name </text>
<text text-anchor="start" x="94.723" y="-56.9" font-family="Arial" font-size="14.00" fill="#666666">[S]</text>
<polygon fill="none" stroke="#000000" stroke-width="3" points="45,-44.5 45,-112.5 246,-112.5 246,-44.5 45,-44.5"/>
</g>
<!-- Thread -->
<g id="node2" class="node">
<title>Thread</title>
<polygon fill="#efefef" stroke="transparent" points="43.5,-295.5 43.5,-330.5 246.5,-330.5 246.5,-295.5 43.5,-295.5"/>
<polygon fill="none" stroke="#000000" points="43.5,-295.5 43.5,-330.5 246.5,-330.5 246.5,-295.5 43.5,-295.5"/>
<text text-anchor="start" x="50.3791" y="-308.3" font-family="Arial Bold" font-size="18.00" fill="#000000">Thread</text>
<text text-anchor="start" x="107.3923" y="-308.3" font-family="Arial" font-size="14.00" fill="#000000">    </text>
<text text-anchor="start" x="141.5971" y="-308.3" font-family="Arial" font-size="14.00" fill="#666666">[BASIC TABLE]</text>
<polygon fill="none" stroke="#000000" points="43.5,-265.5 43.5,-295.5 246.5,-295.5 246.5,-265.5 43.5,-265.5"/>
<text text-anchor="start" x="50.5" y="-276.9" font-family="Arial" font-size="14.00" fill="#000000">ForumName    </text>
<text text-anchor="start" x="162.4762" y="-276.9" font-family="Arial" font-size="14.00" fill="#666666">[S]</text>
<polygon fill="none" stroke="#000000" points="43.5,-235.5 43.5,-265.5 246.5,-265.5 246.5,-235.5 43.5,-235.5"/>
<text text-anchor="start" x="50.5" y="-246.9" font-family="Arial" font-size="14.00" fill="#000000">Subject    </text>
<text text-anchor="start" x="131.3864" y="-246.9" font-family="Arial" font-size="14.00" fill="#666666">[S]</text>
</g>
<!-- Thread&#45;&gt;Forum -->
<g id="edge1" class="edge">
<title>Thread:ForumName&#45;&gt;Forum:Name</title>
<path fill="none" stroke="#000000" stroke-dasharray="5,2" d="M256.4543,-278.1352C303.0214,-255.7139 325.647,-80.647 290.5,-45.5 244.9309,.0691 145.5,18.9444 145.5,-45.5"/>
<polygon fill="#000000" stroke="#000000" points="256.2292,-278.1886 245.4599,-276.1219 251.3646,-279.3443 246.5,-280.5 246.5,-280.5 246.5,-280.5 251.3646,-279.3443 247.5401,-284.8781 256.2292,-278.1886 256.2292,-278.1886"/>
<text text-anchor="start" x="253.6365" y="-290.5" font-family="Arial" font-size="10.00" fill="#000000">Thread&#45;&gt;Forum</text>
</g>
</g>
</svg>
