<?xml version="1.0" encoding="UTF-8" standalone="no"?>
<!DOCTYPE svg PUBLIC "-//W3C//DTD SVG 1.1//EN"
 "http://www.w3.org/Graphics/SVG/1.1/DTD/svg11.dtd">
<!-- Generated by graphviz version 2.40.1 (20161225.0304)
 -->
<!-- Title: Forum Pages: 1 -->
<svg width="306pt" height="382pt"
 viewBox="0.00 0.00 306.00 382.00" xmlns="http://www.w3.org/2000/svg" xmlns:xlink="http://www.w3.org/1999/xlink">
<g id="graph0" class="graph" transform="scale(1 1) rotate(0) translate(4 378)">
<title>Forum</title>
<polygon fill="#ffffff" stroke="transparent" points="-4,4 -4,-378 302,-378 302,4 -4,4"/>
<!-- Forum -->
<g id="node1" class="node">
<title>Forum</title>
<polygon fill="#efefef" stroke="transparent" points="85,-75.5 85,-110.5 252,-110.5 252,-75.5 85,-75.5"/>
<polygon fill="none" stroke="#000000" points="85,-75.5 85,-110.5 252,-110.5 252,-75.5 85,-75.5"/>
<text text-anchor="start" x="91.5463" y="-88.3" font-family="Arial Bold" font-size="18.00" fill="#000000">Forum</text>
<text text-anchor="start" x="143.5393" y="-88.3" font-family="Arial" font-size="14.00" fill="#000000"> </text>
<text text-anchor="start" x="147.4299" y="-88.3" font-family="Arial" font-size="14.00" fill="#666666">[BASIC TABLE]</text>
<polygon fill="none" stroke="#000000" points="85,-45.5 85,-75.5 252,-75.5 252,-45.5 85,-45.5"/>
<text text-anchor="start" x="92" y="-56.9" font-family="Arial" font-size="14.00" fill="#000000">Name </text>
<text text-anchor="start" x="133.223" y="-56.9" font-family="Arial" font-size="14.00" fill="#666666">[S]</text>
<polygon fill="none" stroke="#000000" stroke-width="3" points="83,-44.5 83,-112.5 253,-112.5 253,-44.5 83,-44.5"/>
</g>
<!-- Thread -->
<g id="node2" class="node">
<title>Thread</title>
<polygon fill="#efefef" stroke="transparent" points="83,-295.5 83,-330.5 255,-330.5 255,-295.5 83,-295.5"/>
<polygon fill="none" stroke="#000000" points="83,-295.5 83,-330.5 255,-330.5 255,-295.5 83,-295.5"/>
<text text-anchor="start" x="89.5362" y="-308.3" font-family="Arial Bold" font-size="18.00" fill="#000000">Thread</text>
<text text-anchor="start" x="146.5494" y="-308.3" font-family="Arial" font-size="14.00" fill="#000000"> </text>
<text text-anchor="start" x="150.44" y="-308.3" font-family="Arial" font-size="14.00" fill="#666666">[BASIC TABLE]</text>
<polygon fill="none" stroke="#000000" points="83,-265.5 83,-295.5 255,-295.5 255,-265.5 83,-265.5"/>
<text text-anchor="start" x="90" y="-276.9" font-family="Arial" font-size="14.00" fill="#000000">ForumName </text>
<text text-anchor="start" x="171.662" y="-276.9" font-family="Arial" font-size="14.00" fill="#666666">[S]</text>
<polygon fill="none" stroke="#000000" points="83,-235.5 83,-265.5 255,-265.5 255,-235.5 83,-235.5"/>
<text text-anchor="start" x="90" y="-246.9" font-family="Arial" font-size="14.00" fill="#000000">Subject </text>
<text text-anchor="start" x="140.5722" y="-246.9" font-family="Arial" font-size="14.00" fill="#666666">[S]</text>
</g>
<!-- Thread&#45;&gt;Forum -->
<g id="edge1" class="edge">
<title>Thread:ForumName&#45;&gt;Forum:Name</title>
<path fill="none" stroke="#000000" stroke-dasharray="5,2" d="M73.0917,-278.94C47.0237,-269.5719 60.9224,-220.2758 83,-193 131.3163,-133.3074 203.6837,-216.6926 252,-157 278.9835,-123.6631 294.8889,-60.5 252,-60.5"/>
<polygon fill="#000000" stroke="#000000" points="73.1217,-278.9446 82.3001,-284.9452 78.0608,-279.7223 83,-280.5 83,-280.5 83,-280.5 78.0608,-279.7223 83.6999,-276.0548 73.1217,-278.9446 73.1217,-278.9446"/>
<text text-anchor="start" x="7.1365" y="-290.5" font-family="Arial" font-size="10.00" fill="#000000">Thread&#45;&gt;Forum</text>
</g>
</g>
</svg>
