<?xml version="1.0" encoding="UTF-8" standalone="no"?>
<!DOCTYPE svg PUBLIC "-//W3C//DTD SVG 1.1//EN"
 "http://www.w3.org/Graphics/SVG/1.1/DTD/svg11.dtd">
<!-- Generated by graphviz version 2.40.1 (20161225.0304)
 -->
<!-- Title: Forum Pages: 1 -->
<svg width="322pt" height="382pt"
 viewBox="0.00 0.00 322.00 382.00" xmlns="http://www.w3.org/2000/svg" xmlns:xlink="http://www.w3.org/1999/xlink">
<g id="graph0" class="graph" transform="scale(1 1) rotate(0) translate(4 378)">
<title>Forum</title>
<polygon fill="#ffffff" stroke="transparent" points="-4,4 -4,-378 318,-378 318,4 -4,4"/>
<!-- Forum -->
<g id="node1" class="node">
<title>Forum</title>
<polygon fill="#efefef" stroke="transparent" points="46,-75.5 46,-110.5 244,-110.5 244,-75.5 46,-75.5"/>
<polygon fill="none" stroke="#000000" points="46,-75.5 46,-110.5 244,-110.5 244,-75.5 46,-75.5"/>
<text text-anchor="start" x="52.8892" y="-88.3" font-family="Arial Bold" font-size="18.00" fill="#000000">Forum</text>
<text text-anchor="start" x="104.8822" y="-88.3" font-family="Arial" font-size="14.00" fill="#000000">    </text>
<text text-anchor="start" x="139.087" y="-88.3" font-family="Arial" font-size="14.00" fill="#666666">[BASIC TABLE]</text>
<polygon fill="none" stroke="#000000" points="46,-45.5 46,-75.5 244,-75.5 244,-45.5 46,-45.5"/>
<text text-anchor="start" x="53" y="-56.9" font-family="Arial" font-size="14.00" fill="#000000">Name </text>
<text text-anchor="start" x="94.223" y="-56.9" font-family="Arial" font-size="14.00" fill="#666666">[S]</text>
<polygon fill="none" stroke="#000000" stroke-width="3" points="44.5,-44.5 44.5,-112.5 245.5,-112.5 245.5,-44.5 44.5,-44.5"/>
</g>
<!-- Thread -->
<g id="node2" class="node">
<title>Thread</title>
<polygon fill="#efefef" stroke="transparent" points="59,-295.5 59,-330.5 231,-330.5 231,-295.5 59,-295.5"/>
<polygon fill="none" stroke="#000000" points="59,-295.5 59,-330.5 231,-330.5 231,-295.5 59,-295.5"/>
<text text-anchor="start" x="65.5362" y="-308.3" font-family="Arial Bold" font-size="18.00" fill="#000000">Thread</text>
<text text-anchor="start" x="122.5494" y="-308.3" font-family="Arial" font-size="14.00" fill="#000000"> </text>
<text text-anchor="start" x="126.44" y="-308.3" font-family="Arial" font-size="14.00" fill="#666666">[BASIC TABLE]</text>
<polygon fill="none" stroke="#000000" points="59,-265.5 59,-295.5 231,-295.5 231,-265.5 59,-265.5"/>
<text text-anchor="start" x="66" y="-276.9" font-family="Arial" font-size="14.00" fill="#000000">ForumName </text>
<text text-anchor="start" x="147.662" y="-276.9" font-family="Arial" font-size="14.00" fill="#666666">[S]</text>
<polygon fill="none" stroke="#000000" points="59,-235.5 59,-265.5 231,-265.5 231,-235.5 59,-235.5"/>
<text text-anchor="start" x="66" y="-246.9" font-family="Arial" font-size="14.00" fill="#000000">Subject </text>
<text text-anchor="start" x="116.5722" y="-246.9" font-family="Arial" font-size="14.00" fill="#666666">[S]</text>
</g>
<!-- Thread&#45;&gt;Forum -->
<g id="edge1" class="edge">
<title>Thread:ForumName&#45;&gt;Forum:Name</title>
<path fill="none" stroke="#000000" stroke-dasharray="5,2" d="M240.9539,-278.2791C289.9291,-256.5046 325.6932,-81.1932 290,-45.5 244.4309,.0691 145,18.9444 145,-45.5"/>
<polygon fill="#000000" stroke="#000000" points="240.76,-278.3223 230.02,-276.108 235.88,-279.4112 231,-280.5 231,-280.5 231,-280.5 235.88,-279.4112 231.98,-284.892 240.76,-278.3223 240.76,-278.3223"/>
<text text-anchor="start" x="238.1365" y="-290.5" font-family="Arial" font-size="10.00" fill="#000000">Thread&#45;&gt;Forum</text>
</g>
</g>
</svg>
