<?xml version="1.0" encoding="UTF-8" standalone="no"?>
<!DOCTYPE svg PUBLIC "-//W3C//DTD SVG 1.1//EN"
 "http://www.w3.org/Graphics/SVG/1.1/DTD/svg11.dtd">
<!-- Generated by graphviz version 12.1.2 (20240928.0832)
 -->
<!-- Title: Reply Pages: 1 -->
<svg width="287pt" height="228pt"
 viewBox="0.00 0.00 286.55 228.40" xmlns="http://www.w3.org/2000/svg" xmlns:xlink="http://www.w3.org/1999/xlink">
<g id="graph0" class="graph" transform="scale(1 1) rotate(0) translate(4 224.4)">
<title>Reply</title>
<polygon fill="white" stroke="none" points="-4,4 -4,-224.4 282.55,-224.4 282.55,4 -4,4"/>
<!-- Reply -->
<g id="node1" class="node">
<title>Reply</title>
<polygon fill="#efefef" stroke="none" points="46.2,-138.6 46.2,-174.2 232.35,-174.2 232.35,-138.6 46.2,-138.6"/>
<polygon fill="none" stroke="black" points="46.2,-138.6 46.2,-174.2 232.35,-174.2 232.35,-138.6 46.2,-138.6"/>
<text text-anchor="start" x="53.2" y="-152" font-family="Arial Bold" font-size="18.00">Reply</text>
<text text-anchor="start" x="96.2" y="-152" font-family="Arial" font-size="14.00">    </text>
<text text-anchor="start" x="127.31" y="-152" font-family="Arial" font-size="14.00" fill="#666666">[BASIC TABLE]</text>
<polygon fill="none" stroke="black" points="46.2,-107.8 46.2,-138.6 232.35,-138.6 232.35,-107.8 46.2,-107.8"/>
<text text-anchor="start" x="53.2" y="-120" font-family="Arial" font-size="14.00">Id </text>
<text text-anchor="start" x="68.77" y="-120" font-family="Arial" font-size="14.00" fill="#666666">[S]</text>
<polygon fill="none" stroke="black" points="46.2,-77 46.2,-107.8 232.35,-107.8 232.35,-77 46.2,-77"/>
<text text-anchor="start" x="53.2" y="-89.2" font-family="Arial" font-size="14.00">ReplyDateTime </text>
<text text-anchor="start" x="153.57" y="-89.2" font-family="Arial" font-size="14.00" fill="#666666">[S]</text>
<polygon fill="none" stroke="black" points="46.2,-46.2 46.2,-77 232.35,-77 232.35,-46.2 46.2,-46.2"/>
<text text-anchor="start" x="53.2" y="-58.4" font-family="Arial" font-size="14.00">PostedBy </text>
<text text-anchor="start" x="117.01" y="-58.4" font-family="Arial" font-size="14.00" fill="#666666">[S]</text>
<polygon fill="none" stroke="black" stroke-width="3" points="44.7,-44.7 44.7,-175.7 233.85,-175.7 233.85,-44.7 44.7,-44.7"/>
</g>
</g>
</svg>
