<?xml version="1.0" encoding="UTF-8" standalone="no"?>
<!DOCTYPE svg PUBLIC "-//W3C//DTD SVG 1.1//EN"
 "http://www.w3.org/Graphics/SVG/1.1/DTD/svg11.dtd">
<!-- Generated by graphviz version 2.40.1 (20161225.0304)
 -->
<!-- Title: Reply Pages: 1 -->
<svg width="261pt" height="225pt"
 viewBox="0.00 0.00 261.00 225.00" xmlns="http://www.w3.org/2000/svg" xmlns:xlink="http://www.w3.org/1999/xlink">
<g id="graph0" class="graph" transform="scale(1 1) rotate(0) translate(4 221)">
<title>Reply</title>
<polygon fill="#ffffff" stroke="transparent" points="-4,4 -4,-221 257,-221 257,4 -4,4"/>
<!-- Reply -->
<g id="node1" class="node">
<title>Reply</title>
<polygon fill="#efefef" stroke="transparent" points="46.5,-135.5 46.5,-170.5 207.5,-170.5 207.5,-135.5 46.5,-135.5"/>
<polygon fill="none" stroke="#000000" points="46.5,-135.5 46.5,-170.5 207.5,-170.5 207.5,-135.5 46.5,-135.5"/>
<text text-anchor="start" x="53.0424" y="-148.3" font-family="Arial Bold" font-size="18.00" fill="#000000">Reply</text>
<text text-anchor="start" x="99.0432" y="-148.3" font-family="Arial" font-size="14.00" fill="#000000"> </text>
<text text-anchor="start" x="102.9338" y="-148.3" font-family="Arial" font-size="14.00" fill="#666666">[BASIC TABLE]</text>
<polygon fill="none" stroke="#000000" points="46.5,-105.5 46.5,-135.5 207.5,-135.5 207.5,-105.5 46.5,-105.5"/>
<text text-anchor="start" x="53.5" y="-116.9" font-family="Arial" font-size="14.00" fill="#000000">Id </text>
<text text-anchor="start" x="69.0638" y="-116.9" font-family="Arial" font-size="14.00" fill="#666666">[S]</text>
<polygon fill="none" stroke="#000000" points="46.5,-75.5 46.5,-105.5 207.5,-105.5 207.5,-75.5 46.5,-75.5"/>
<text text-anchor="start" x="53.5" y="-86.9" font-family="Arial" font-size="14.00" fill="#000000">ReplyDateTime </text>
<text text-anchor="start" x="153.8338" y="-86.9" font-family="Arial" font-size="14.00" fill="#666666">[S]</text>
<polygon fill="none" stroke="#000000" points="46.5,-45.5 46.5,-75.5 207.5,-75.5 207.5,-45.5 46.5,-45.5"/>
<text text-anchor="start" x="53.5" y="-56.9" font-family="Arial" font-size="14.00" fill="#000000">PostedBy </text>
<text text-anchor="start" x="117.3022" y="-56.9" font-family="Arial" font-size="14.00" fill="#666666">[S]</text>
<polygon fill="none" stroke="#000000" stroke-width="3" points="44.5,-44.5 44.5,-172.5 208.5,-172.5 208.5,-44.5 44.5,-44.5"/>
</g>
</g>
</svg>
