<?xml version="1.0" encoding="UTF-8" standalone="no"?>
<!DOCTYPE svg PUBLIC "-//W3C//DTD SVG 1.1//EN"
 "http://www.w3.org/Graphics/SVG/1.1/DTD/svg11.dtd">
<!-- Generated by graphviz version 12.1.2 (20240928.0832)
 -->
<!-- Title: Amazon DynamoDB (ap&#45;northeast&#45;1) Pages: 1 -->
<svg width="939pt" height="411pt"
 viewBox="0.00 0.00 938.53 411.20" xmlns="http://www.w3.org/2000/svg" xmlns:xlink="http://www.w3.org/1999/xlink">
<g id="graph0" class="graph" transform="scale(1 1) rotate(0) translate(4 407.2)">
<title>Amazon DynamoDB (ap&#45;northeast&#45;1)</title>
<polygon fill="white" stroke="none" points="-4,4 -4,-407.2 934.53,-407.2 934.53,4 -4,4"/>
<!-- Forum -->
<g id="node1" class="node">
<title>Forum</title>
<polygon fill="#efefef" stroke="none" points="44.68,-74 44.68,-109.6 235.84,-109.6 235.84,-74 44.68,-74"/>
<polygon fill="none" stroke="black" points="44.68,-74 44.68,-109.6 235.84,-109.6 235.84,-74 44.68,-74"/>
<text text-anchor="start" x="51.68" y="-87.4" font-family="Arial Bold" font-size="18.00">Forum</text>
<text text-anchor="start" x="99.69" y="-87.4" font-family="Arial" font-size="14.00">    </text>
<text text-anchor="start" x="130.8" y="-87.4" font-family="Arial" font-size="14.00" fill="#666666">[BASIC TABLE]</text>
<polygon fill="none" stroke="black" points="44.68,-43.2 44.68,-74 235.84,-74 235.84,-43.2 44.68,-43.2"/>
<text text-anchor="start" x="51.68" y="-55.4" font-family="Arial" font-size="14.00">Name </text>
<text text-anchor="start" x="92.92" y="-55.4" font-family="Arial" font-size="14.00" fill="#666666">[S]</text>
</g>
<!-- ProductCatalog -->
<g id="node2" class="node">
<title>ProductCatalog</title>
<polygon fill="#efefef" stroke="none" points="341.69,-293.6 341.69,-329.2 596.83,-329.2 596.83,-293.6 341.69,-293.6"/>
<polygon fill="none" stroke="black" points="341.69,-293.6 341.69,-329.2 596.83,-329.2 596.83,-293.6 341.69,-293.6"/>
<text text-anchor="start" x="348.69" y="-307" font-family="Arial Bold" font-size="18.00">ProductCatalog</text>
<text text-anchor="start" x="460.67" y="-307" font-family="Arial" font-size="14.00">    </text>
<text text-anchor="start" x="491.79" y="-307" font-family="Arial" font-size="14.00" fill="#666666">[BASIC TABLE]</text>
<polygon fill="none" stroke="black" points="341.69,-262.8 341.69,-293.6 596.83,-293.6 596.83,-262.8 341.69,-262.8"/>
<text text-anchor="start" x="348.69" y="-275" font-family="Arial" font-size="14.00">Id </text>
<text text-anchor="start" x="364.26" y="-275" font-family="Arial" font-size="14.00" fill="#666666">[N]</text>
</g>
<!-- Reply -->
<g id="node3" class="node">
<title>Reply</title>
<polygon fill="#efefef" stroke="none" points="701.19,-324.4 701.19,-360 887.33,-360 887.33,-324.4 701.19,-324.4"/>
<polygon fill="none" stroke="black" points="701.19,-324.4 701.19,-360 887.33,-360 887.33,-324.4 701.19,-324.4"/>
<text text-anchor="start" x="708.19" y="-337.8" font-family="Arial Bold" font-size="18.00">Reply</text>
<text text-anchor="start" x="751.18" y="-337.8" font-family="Arial" font-size="14.00">    </text>
<text text-anchor="start" x="782.3" y="-337.8" font-family="Arial" font-size="14.00" fill="#666666">[BASIC TABLE]</text>
<polygon fill="none" stroke="black" points="701.19,-293.6 701.19,-324.4 887.33,-324.4 887.33,-293.6 701.19,-293.6"/>
<text text-anchor="start" x="708.19" y="-305.8" font-family="Arial" font-size="14.00">Id </text>
<text text-anchor="start" x="723.75" y="-305.8" font-family="Arial" font-size="14.00" fill="#666666">[S]</text>
<polygon fill="none" stroke="black" points="701.19,-262.8 701.19,-293.6 887.33,-293.6 887.33,-262.8 701.19,-262.8"/>
<text text-anchor="start" x="708.19" y="-275" font-family="Arial" font-size="14.00">ReplyDateTime </text>
<text text-anchor="start" x="808.55" y="-275" font-family="Arial" font-size="14.00" fill="#666666">[S]</text>
<polygon fill="none" stroke="black" points="701.19,-232 701.19,-262.8 887.33,-262.8 887.33,-232 701.19,-232"/>
<text text-anchor="start" x="708.19" y="-244.2" font-family="Arial" font-size="14.00">PostedBy </text>
<text text-anchor="start" x="772" y="-244.2" font-family="Arial" font-size="14.00" fill="#666666">[S]</text>
</g>
<!-- Thread -->
<g id="node4" class="node">
<title>Thread</title>
<polygon fill="#efefef" stroke="none" points="43.2,-309 43.2,-344.6 237.32,-344.6 237.32,-309 43.2,-309"/>
<polygon fill="none" stroke="black" points="43.2,-309 43.2,-344.6 237.32,-344.6 237.32,-309 43.2,-309"/>
<text text-anchor="start" x="50.2" y="-322.4" font-family="Arial Bold" font-size="18.00">Thread</text>
<text text-anchor="start" x="101.17" y="-322.4" font-family="Arial" font-size="14.00">    </text>
<text text-anchor="start" x="132.28" y="-322.4" font-family="Arial" font-size="14.00" fill="#666666">[BASIC TABLE]</text>
<polygon fill="none" stroke="black" points="43.2,-278.2 43.2,-309 237.32,-309 237.32,-278.2 43.2,-278.2"/>
<text text-anchor="start" x="50.2" y="-290.4" font-family="Arial" font-size="14.00">ForumName </text>
<text text-anchor="start" x="131.88" y="-290.4" font-family="Arial" font-size="14.00" fill="#666666">[S]</text>
<polygon fill="none" stroke="black" points="43.2,-247.4 43.2,-278.2 237.32,-278.2 237.32,-247.4 43.2,-247.4"/>
<text text-anchor="start" x="50.2" y="-259.6" font-family="Arial" font-size="14.00">Subject </text>
<text text-anchor="start" x="100.79" y="-259.6" font-family="Arial" font-size="14.00" fill="#666666">[S]</text>
</g>
<!-- Thread&#45;&gt;Forum -->
<g id="edge1" class="edge">
<title>Thread:ForumName&#45;&gt;Forum:Name</title>
<path fill="none" stroke="black" stroke-dasharray="5,2" d="M246.64,-287.42C272.33,-250.61 296.96,-61.25 279.04,-43.2 235.58,0.57 140.26,19.48 140.26,-42.2"/>
<polygon fill="black" stroke="black" points="246.62,-287.44 235.91,-289.79 242.33,-290.62 238.86,-293.2 238.86,-293.2 238.86,-293.2 242.33,-290.62 241.27,-297.01 246.62,-287.44"/>
<text text-anchor="start" x="203.45" y="-277.6" font-family="Arial" font-size="10.00">Thread&#45;&gt;Forum</text>
</g>
</g>
</svg>
