<?xml version="1.0" encoding="UTF-8" standalone="no"?>
<!DOCTYPE svg PUBLIC "-//W3C//DTD SVG 1.1//EN"
 "http://www.w3.org/Graphics/SVG/1.1/DTD/svg11.dtd">
<!-- Generated by graphviz version 2.40.1 (20161225.0304)
 -->
<!-- Title: Amazon DynamoDB (ap&#45;northeast&#45;1) Pages: 1 -->
<svg width="915pt" height="406pt"
 viewBox="0.00 0.00 914.50 406.00" xmlns="http://www.w3.org/2000/svg" xmlns:xlink="http://www.w3.org/1999/xlink">
<g id="graph0" class="graph" transform="scale(1 1) rotate(0) translate(4 402)">
<title>Amazon DynamoDB (ap&#45;northeast&#45;1)</title>
<polygon fill="#ffffff" stroke="transparent" points="-4,4 -4,-402 910.5,-402 910.5,4 -4,4"/>
<!-- Forum -->
<g id="node1" class="node">
<title>Forum</title>
<polygon fill="#efefef" stroke="transparent" points="85,-72.5 85,-107.5 252,-107.5 252,-72.5 85,-72.5"/>
<polygon fill="none" stroke="#000000" points="85,-72.5 85,-107.5 252,-107.5 252,-72.5 85,-72.5"/>
<text text-anchor="start" x="91.5463" y="-85.3" font-family="Arial Bold" font-size="18.00" fill="#000000">Forum</text>
<text text-anchor="start" x="143.5393" y="-85.3" font-family="Arial" font-size="14.00" fill="#000000"> </text>
<text text-anchor="start" x="147.4299" y="-85.3" font-family="Arial" font-size="14.00" fill="#666666">[BASIC TABLE]</text>
<polygon fill="none" stroke="#000000" points="85,-42.5 85,-72.5 252,-72.5 252,-42.5 85,-42.5"/>
<text text-anchor="start" x="92" y="-53.9" font-family="Arial" font-size="14.00" fill="#000000">Name </text>
<text text-anchor="start" x="133.223" y="-53.9" font-family="Arial" font-size="14.00" fill="#666666">[S]</text>
</g>
<!-- ProductCatalog -->
<g id="node2" class="node">
<title>ProductCatalog</title>
<polygon fill="#efefef" stroke="transparent" points="360,-289.5 360,-324.5 599,-324.5 599,-289.5 360,-289.5"/>
<polygon fill="none" stroke="#000000" points="360,-289.5 360,-324.5 599,-324.5 599,-289.5 360,-289.5"/>
<text text-anchor="start" x="366.5265" y="-302.3" font-family="Arial Bold" font-size="18.00" fill="#000000">ProductCatalog</text>
<text text-anchor="start" x="490.5591" y="-302.3" font-family="Arial" font-size="14.00" fill="#000000"> </text>
<text text-anchor="start" x="494.4497" y="-302.3" font-family="Arial" font-size="14.00" fill="#666666">[BASIC TABLE]</text>
<polygon fill="none" stroke="#000000" points="360,-259.5 360,-289.5 599,-289.5 599,-259.5 360,-259.5"/>
<text text-anchor="start" x="367" y="-270.9" font-family="Arial" font-size="14.00" fill="#000000">Id </text>
<text text-anchor="start" x="382.5638" y="-270.9" font-family="Arial" font-size="14.00" fill="#666666">[N]</text>
</g>
<!-- Reply -->
<g id="node3" class="node">
<title>Reply</title>
<polygon fill="#efefef" stroke="transparent" points="703,-319.5 703,-354.5 864,-354.5 864,-319.5 703,-319.5"/>
<polygon fill="none" stroke="#000000" points="703,-319.5 703,-354.5 864,-354.5 864,-319.5 703,-319.5"/>
<text text-anchor="start" x="709.5424" y="-332.3" font-family="Arial Bold" font-size="18.00" fill="#000000">Reply</text>
<text text-anchor="start" x="755.5432" y="-332.3" font-family="Arial" font-size="14.00" fill="#000000"> </text>
<text text-anchor="start" x="759.4338" y="-332.3" font-family="Arial" font-size="14.00" fill="#666666">[BASIC TABLE]</text>
<polygon fill="none" stroke="#000000" points="703,-289.5 703,-319.5 864,-319.5 864,-289.5 703,-289.5"/>
<text text-anchor="start" x="710" y="-300.9" font-family="Arial" font-size="14.00" fill="#000000">Id </text>
<text text-anchor="start" x="725.5638" y="-300.9" font-family="Arial" font-size="14.00" fill="#666666">[S]</text>
<polygon fill="none" stroke="#000000" points="703,-259.5 703,-289.5 864,-289.5 864,-259.5 703,-259.5"/>
<text text-anchor="start" x="710" y="-270.9" font-family="Arial" font-size="14.00" fill="#000000">ReplyDateTime </text>
<text text-anchor="start" x="810.3338" y="-270.9" font-family="Arial" font-size="14.00" fill="#666666">[S]</text>
<polygon fill="none" stroke="#000000" points="703,-229.5 703,-259.5 864,-259.5 864,-229.5 703,-229.5"/>
<text text-anchor="start" x="710" y="-240.9" font-family="Arial" font-size="14.00" fill="#000000">PostedBy </text>
<text text-anchor="start" x="773.8022" y="-240.9" font-family="Arial" font-size="14.00" fill="#666666">[S]</text>
</g>
<!-- Thread -->
<g id="node4" class="node">
<title>Thread</title>
<polygon fill="#efefef" stroke="transparent" points="83,-304.5 83,-339.5 255,-339.5 255,-304.5 83,-304.5"/>
<polygon fill="none" stroke="#000000" points="83,-304.5 83,-339.5 255,-339.5 255,-304.5 83,-304.5"/>
<text text-anchor="start" x="89.5362" y="-317.3" font-family="Arial Bold" font-size="18.00" fill="#000000">Thread</text>
<text text-anchor="start" x="146.5494" y="-317.3" font-family="Arial" font-size="14.00" fill="#000000"> </text>
<text text-anchor="start" x="150.44" y="-317.3" font-family="Arial" font-size="14.00" fill="#666666">[BASIC TABLE]</text>
<polygon fill="none" stroke="#000000" points="83,-274.5 83,-304.5 255,-304.5 255,-274.5 83,-274.5"/>
<text text-anchor="start" x="90" y="-285.9" font-family="Arial" font-size="14.00" fill="#000000">ForumName </text>
<text text-anchor="start" x="171.662" y="-285.9" font-family="Arial" font-size="14.00" fill="#666666">[S]</text>
<polygon fill="none" stroke="#000000" points="83,-244.5 83,-274.5 255,-274.5 255,-244.5 83,-244.5"/>
<text text-anchor="start" x="90" y="-255.9" font-family="Arial" font-size="14.00" fill="#000000">Subject </text>
<text text-anchor="start" x="140.5722" y="-255.9" font-family="Arial" font-size="14.00" fill="#666666">[S]</text>
</g>
<!-- Thread&#45;&gt;Forum -->
<g id="edge1" class="edge">
<title>Thread:ForumName&#45;&gt;Forum:Name</title>
<path fill="none" stroke="#000000" stroke-dasharray="5,2" d="M72.791,-287.8436C47.3775,-278.3265 62.1665,-230.0485 83,-202 129.782,-139.0166 205.218,-213.9834 252,-151 276.7786,-117.6401 293.5556,-57.5 252,-57.5"/>
<polygon fill="#000000" stroke="#000000" points="73.1291,-287.8984 82.2793,-293.9419 78.0645,-288.6992 83,-289.5 83,-289.5 83,-289.5 78.0645,-288.6992 83.7207,-285.0581 73.1291,-287.8984 73.1291,-287.8984"/>
<text text-anchor="start" x="7.1365" y="-299.5" font-family="Arial" font-size="10.00" fill="#000000">Thread&#45;&gt;Forum</text>
</g>
</g>
</svg>
