<?xml version="1.0" encoding="UTF-8" standalone="no"?>
<!DOCTYPE svg PUBLIC "-//W3C//DTD SVG 1.1//EN"
 "http://www.w3.org/Graphics/SVG/1.1/DTD/svg11.dtd">
<!-- Generated by graphviz version 2.40.1 (20161225.0304)
 -->
<!-- Title: Thread Pages: 1 -->
<svg width="340pt" height="382pt"
 viewBox="0.00 0.00 339.50 382.00" xmlns="http://www.w3.org/2000/svg" xmlns:xlink="http://www.w3.org/1999/xlink">
<g id="graph0" class="graph" transform="scale(1 1) rotate(0) translate(4 378)">
<title>Thread</title>
<polygon fill="#ffffff" stroke="transparent" points="-4,4 -4,-378 335.5,-378 335.5,4 -4,4"/>
<!-- Thread -->
<g id="node1" class="node">
<title>Thread</title>
<polygon fill="#efefef" stroke="transparent" points="83,-292.5 83,-327.5 286,-327.5 286,-292.5 83,-292.5"/>
<polygon fill="none" stroke="#000000" points="83,-292.5 83,-327.5 286,-327.5 286,-292.5 83,-292.5"/>
<text text-anchor="start" x="89.8791" y="-305.3" font-family="Arial Bold" font-size="18.00" fill="#000000">Thread</text>
<text text-anchor="start" x="146.8923" y="-305.3" font-family="Arial" font-size="14.00" fill="#000000">    </text>
<text text-anchor="start" x="181.0971" y="-305.3" font-family="Arial" font-size="14.00" fill="#666666">[BASIC TABLE]</text>
<polygon fill="none" stroke="#000000" points="83,-262.5 83,-292.5 286,-292.5 286,-262.5 83,-262.5"/>
<text text-anchor="start" x="90" y="-273.9" font-family="Arial" font-size="14.00" fill="#000000">ForumName </text>
<text text-anchor="start" x="171.662" y="-273.9" font-family="Arial" font-size="14.00" fill="#666666">[S]</text>
<polygon fill="none" stroke="#000000" points="83,-232.5 83,-262.5 286,-262.5 286,-232.5 83,-232.5"/>
<text text-anchor="start" x="90" y="-243.9" font-family="Arial" font-size="14.00" fill="#000000">Subject </text>
<text text-anchor="start" x="140.5722" y="-243.9" font-family="Arial" font-size="14.00" fill="#666666">[S]</text>
<polygon fill="none" stroke="#000000" stroke-width="3" points="81,-231.5 81,-329.5 287,-329.5 287,-231.5 81,-231.5"/>
</g>
<!-- Forum -->
<g id="node2" class="node">
<title>Forum</title>
<polygon fill="#efefef" stroke="transparent" points="101,-72.5 101,-107.5 268,-107.5 268,-72.5 101,-72.5"/>
<polygon fill="none" stroke="#000000" points="101,-72.5 101,-107.5 268,-107.5 268,-72.5 101,-72.5"/>
<text text-anchor="start" x="107.5463" y="-85.3" font-family="Arial Bold" font-size="18.00" fill="#000000">Forum</text>
<text text-anchor="start" x="159.5393" y="-85.3" font-family="Arial" font-size="14.00" fill="#000000"> </text>
<text text-anchor="start" x="163.4299" y="-85.3" font-family="Arial" font-size="14.00" fill="#666666">[BASIC TABLE]</text>
<polygon fill="none" stroke="#000000" points="101,-42.5 101,-72.5 268,-72.5 268,-42.5 101,-42.5"/>
<text text-anchor="start" x="108" y="-53.9" font-family="Arial" font-size="14.00" fill="#000000">Name </text>
<text text-anchor="start" x="149.223" y="-53.9" font-family="Arial" font-size="14.00" fill="#666666">[S]</text>
</g>
<!-- Thread&#45;&gt;Forum -->
<g id="edge1" class="edge">
<title>Thread:ForumName&#45;&gt;Forum:Name</title>
<path fill="none" stroke="#000000" stroke-dasharray="5,2" d="M72.8187,-276.6591C-13.6991,-261.8888 6.4403,-57.5 101,-57.5"/>
<polygon fill="#000000" stroke="#000000" points="73.0339,-276.6768 82.6295,-281.9847 78.017,-277.0884 83,-277.5 83,-277.5 83,-277.5 78.017,-277.0884 83.3705,-273.0153 73.0339,-276.6768 73.0339,-276.6768"/>
<text text-anchor="start" x="7.1365" y="-287.5" font-family="Arial" font-size="10.00" fill="#000000">Thread&#45;&gt;Forum</text>
</g>
</g>
</svg>
