<?xml version="1.0" encoding="UTF-8" standalone="no"?>
<!DOCTYPE svg PUBLIC "-//W3C//DTD SVG 1.1//EN"
 "http://www.w3.org/Graphics/SVG/1.1/DTD/svg11.dtd">
<!-- Generated by graphviz version 2.40.1 (20161225.0304)
 -->
<!-- Title: administrator.blogs Pages: 1 -->
<svg width="367pt" height="652pt"
 viewBox="0.00 0.00 367.00 652.00" xmlns="http://www.w3.org/2000/svg" xmlns:xlink="http://www.w3.org/1999/xlink">
<g id="graph0" class="graph" transform="scale(1 1) rotate(0) translate(4 648)">
<title>administrator.blogs</title>
<polygon fill="#ffffff" stroke="transparent" points="-4,4 -4,-648 363,-648 363,4 -4,4"/>
<!-- administrator.blogs -->
<g id="node1" class="node">
<title>administrator.blogs</title>
<polygon fill="#efefef" stroke="transparent" points="46.5,-562.5 46.5,-597.5 313.5,-597.5 313.5,-562.5 46.5,-562.5"/>
<polygon fill="none" stroke="#000000" points="46.5,-562.5 46.5,-597.5 313.5,-597.5 313.5,-562.5 46.5,-562.5"/>
<text text-anchor="start" x="53.0351" y="-575.3" font-family="Arial Bold" font-size="18.00" fill="#000000">administrator.blogs</text>
<text text-anchor="start" x="205.0505" y="-575.3" font-family="Arial" font-size="14.00" fill="#000000"> </text>
<text text-anchor="start" x="208.9411" y="-575.3" font-family="Arial" font-size="14.00" fill="#666666">[BASIC TABLE]</text>
<polygon fill="none" stroke="#000000" points="46.5,-532.5 46.5,-562.5 313.5,-562.5 313.5,-532.5 46.5,-532.5"/>
<text text-anchor="start" x="53.5" y="-543.9" font-family="Arial" font-size="14.00" fill="#000000">id </text>
<text text-anchor="start" x="68.2798" y="-543.9" font-family="Arial" font-size="14.00" fill="#666666">[int]</text>
<polygon fill="none" stroke="#000000" points="46.5,-502.5 46.5,-532.5 313.5,-532.5 313.5,-502.5 46.5,-502.5"/>
<text text-anchor="start" x="53.5" y="-513.9" font-family="Arial" font-size="14.00" fill="#000000">user_id </text>
<text text-anchor="start" x="103.2882" y="-513.9" font-family="Arial" font-size="14.00" fill="#666666">[int]</text>
<polygon fill="none" stroke="#000000" points="46.5,-472.5 46.5,-502.5 313.5,-502.5 313.5,-472.5 46.5,-472.5"/>
<text text-anchor="start" x="53.5" y="-483.9" font-family="Arial" font-size="14.00" fill="#000000">name </text>
<text text-anchor="start" x="92.399" y="-483.9" font-family="Arial" font-size="14.00" fill="#666666">[text]</text>
<polygon fill="none" stroke="#000000" points="46.5,-442.5 46.5,-472.5 313.5,-472.5 313.5,-442.5 46.5,-442.5"/>
<text text-anchor="start" x="53.5" y="-453.9" font-family="Arial" font-size="14.00" fill="#000000">description </text>
<text text-anchor="start" x="125.068" y="-453.9" font-family="Arial" font-size="14.00" fill="#666666">[text]</text>
<polygon fill="none" stroke="#000000" points="46.5,-412.5 46.5,-442.5 313.5,-442.5 313.5,-412.5 46.5,-412.5"/>
<text text-anchor="start" x="53.5" y="-423.9" font-family="Arial" font-size="14.00" fill="#000000">created </text>
<text text-anchor="start" x="104.0722" y="-423.9" font-family="Arial" font-size="14.00" fill="#666666">[date]</text>
<polygon fill="none" stroke="#000000" points="46.5,-382.5 46.5,-412.5 313.5,-412.5 313.5,-382.5 46.5,-382.5"/>
<text text-anchor="start" x="53.5" y="-393.9" font-family="Arial" font-size="14.00" fill="#000000">updated </text>
<text text-anchor="start" x="107.9768" y="-393.9" font-family="Arial" font-size="14.00" fill="#666666">[date]</text>
<polygon fill="none" stroke="#000000" stroke-width="3" points="44.5,-381.5 44.5,-599.5 314.5,-599.5 314.5,-381.5 44.5,-381.5"/>
</g>
<!-- users -->
<g id="node2" class="node">
<title>users</title>
<polygon fill="#efefef" stroke="transparent" points="100.5,-222.5 100.5,-257.5 259.5,-257.5 259.5,-222.5 100.5,-222.5"/>
<polygon fill="none" stroke="#000000" points="100.5,-222.5 100.5,-257.5 259.5,-257.5 259.5,-222.5 100.5,-222.5"/>
<text text-anchor="start" x="107.0405" y="-235.3" font-family="Arial Bold" font-size="18.00" fill="#000000">users</text>
<text text-anchor="start" x="151.0451" y="-235.3" font-family="Arial" font-size="14.00" fill="#000000"> </text>
<text text-anchor="start" x="154.9357" y="-235.3" font-family="Arial" font-size="14.00" fill="#666666">[BASIC TABLE]</text>
<polygon fill="none" stroke="#000000" points="100.5,-192.5 100.5,-222.5 259.5,-222.5 259.5,-192.5 100.5,-192.5"/>
<text text-anchor="start" x="107.5" y="-203.9" font-family="Arial" font-size="14.00" fill="#000000">id </text>
<text text-anchor="start" x="122.2798" y="-203.9" font-family="Arial" font-size="14.00" fill="#666666">[int]</text>
<polygon fill="none" stroke="#000000" points="100.5,-162.5 100.5,-192.5 259.5,-192.5 259.5,-162.5 100.5,-162.5"/>
<text text-anchor="start" x="107.2693" y="-173.9" font-family="Arial" font-size="14.00" fill="#000000">username </text>
<text text-anchor="start" x="173.3941" y="-173.9" font-family="Arial" font-size="14.00" fill="#666666">[varchar(50)]</text>
<polygon fill="none" stroke="#000000" points="100.5,-132.5 100.5,-162.5 259.5,-162.5 259.5,-132.5 100.5,-132.5"/>
<text text-anchor="start" x="107.5" y="-143.9" font-family="Arial" font-size="14.00" fill="#000000">password </text>
<text text-anchor="start" x="171.2882" y="-143.9" font-family="Arial" font-size="14.00" fill="#666666">[varchar(50)]</text>
<polygon fill="none" stroke="#000000" points="100.5,-102.5 100.5,-132.5 259.5,-132.5 259.5,-102.5 100.5,-102.5"/>
<text text-anchor="start" x="107.5" y="-113.9" font-family="Arial" font-size="14.00" fill="#000000">email </text>
<text text-anchor="start" x="144.8296" y="-113.9" font-family="Arial" font-size="14.00" fill="#666666">[varchar(355)]</text>
<polygon fill="none" stroke="#000000" points="100.5,-72.5 100.5,-102.5 259.5,-102.5 259.5,-72.5 100.5,-72.5"/>
<text text-anchor="start" x="107.5" y="-83.9" font-family="Arial" font-size="14.00" fill="#000000">created </text>
<text text-anchor="start" x="158.0722" y="-83.9" font-family="Arial" font-size="14.00" fill="#666666">[date]</text>
<polygon fill="none" stroke="#000000" points="100.5,-42.5 100.5,-72.5 259.5,-72.5 259.5,-42.5 100.5,-42.5"/>
<text text-anchor="start" x="107.5" y="-53.9" font-family="Arial" font-size="14.00" fill="#000000">updated </text>
<text text-anchor="start" x="161.9768" y="-53.9" font-family="Arial" font-size="14.00" fill="#666666">[date]</text>
</g>
<!-- administrator.blogs&#45;&gt;users -->
<g id="edge1" class="edge">
<title>administrator.blogs:user_id&#45;&gt;users:id</title>
<path fill="none" stroke="#000000" d="M36.4555,-515.0047C-17.6866,-485.6668 34.2613,-207.5 100.5,-207.5"/>
<polygon fill="#000000" stroke="#000000" points="36.795,-515.0889 45.415,-521.8673 41.6475,-516.2945 46.5,-517.5 46.5,-517.5 46.5,-517.5 41.6475,-516.2945 47.585,-513.1327 36.795,-515.0889 36.795,-515.0889"/>
</g>
</g>
</svg>
