<?xml version="1.0" encoding="UTF-8" standalone="no"?>
<!DOCTYPE svg PUBLIC "-//W3C//DTD SVG 1.1//EN"
 "http://www.w3.org/Graphics/SVG/1.1/DTD/svg11.dtd">
<!-- Generated by graphviz version 12.1.2 (20240928.0832)
 -->
<!-- Title: comment_stars Pages: 1 -->
<svg width="596pt" height="1037pt"
 viewBox="0.00 0.00 596.04 1037.20" xmlns="http://www.w3.org/2000/svg" xmlns:xlink="http://www.w3.org/1999/xlink">
<g id="graph0" class="graph" transform="scale(1 1) rotate(0) translate(4 1033.2)">
<title>comment_stars</title>
<polygon fill="white" stroke="none" points="-4,4 -4,-1033.2 592.04,-1033.2 592.04,4 -4,4"/>
<!-- comment_stars -->
<g id="node1" class="node">
<title>comment_stars</title>
<polygon fill="#efefef" stroke="none" points="176.71,-573.8 176.71,-609.4 428.83,-609.4 428.83,-573.8 176.71,-573.8"/>
<polygon fill="none" stroke="black" points="176.71,-573.8 176.71,-609.4 428.83,-609.4 428.83,-573.8 176.71,-573.8"/>
<text text-anchor="start" x="183.71" y="-587.2" font-family="Arial Bold" font-size="18.00">comment_stars</text>
<text text-anchor="start" x="292.68" y="-587.2" font-family="Arial" font-size="14.00">    </text>
<text text-anchor="start" x="323.8" y="-587.2" font-family="Arial" font-size="14.00" fill="#666666">[BASIC TABLE]</text>
<polygon fill="none" stroke="black" points="176.71,-543 176.71,-573.8 428.83,-573.8 428.83,-543 176.71,-543"/>
<text text-anchor="start" x="183.71" y="-555.2" font-family="Arial" font-size="14.00">id </text>
<text text-anchor="start" x="198.49" y="-555.2" font-family="Arial" font-size="14.00" fill="#666666">[int]</text>
<polygon fill="none" stroke="black" points="176.71,-512.2 176.71,-543 428.83,-543 428.83,-512.2 176.71,-512.2"/>
<text text-anchor="start" x="183.71" y="-524.4" font-family="Arial" font-size="14.00">user_id </text>
<text text-anchor="start" x="233.51" y="-524.4" font-family="Arial" font-size="14.00" fill="#666666">[int]</text>
<polygon fill="none" stroke="black" points="176.71,-481.4 176.71,-512.2 428.83,-512.2 428.83,-481.4 176.71,-481.4"/>
<text text-anchor="start" x="183.71" y="-493.6" font-family="Arial" font-size="14.00">comment_post_id </text>
<text text-anchor="start" x="298.1" y="-493.6" font-family="Arial" font-size="14.00" fill="#666666">[int]</text>
<polygon fill="none" stroke="black" points="176.71,-450.6 176.71,-481.4 428.83,-481.4 428.83,-450.6 176.71,-450.6"/>
<text text-anchor="start" x="183.71" y="-462.8" font-family="Arial" font-size="14.00">comment_user_id </text>
<text text-anchor="start" x="298.87" y="-462.8" font-family="Arial" font-size="14.00" fill="#666666">[int]</text>
<polygon fill="none" stroke="black" points="176.71,-419.8 176.71,-450.6 428.83,-450.6 428.83,-419.8 176.71,-419.8"/>
<text text-anchor="start" x="183.71" y="-432" font-family="Arial" font-size="14.00">created </text>
<text text-anchor="start" x="234.29" y="-432" font-family="Arial" font-size="14.00" fill="#666666">[date]</text>
<polygon fill="none" stroke="black" points="176.71,-389 176.71,-419.8 428.83,-419.8 428.83,-389 176.71,-389"/>
<text text-anchor="start" x="183.71" y="-401.2" font-family="Arial" font-size="14.00">updated </text>
<text text-anchor="start" x="238.2" y="-401.2" font-family="Arial" font-size="14.00" fill="#666666">[date]</text>
<polygon fill="none" stroke="black" stroke-width="3" points="175.21,-387.5 175.21,-610.9 430.33,-610.9 430.33,-387.5 175.21,-387.5"/>
</g>
<!-- comments -->
<g id="node3" class="node">
<title>comments</title>
<polygon fill="#efefef" stroke="none" points="43.2,-228 43.2,-263.6 260.34,-263.6 260.34,-228 43.2,-228"/>
<polygon fill="none" stroke="black" points="43.2,-228 43.2,-263.6 260.34,-263.6 260.34,-228 43.2,-228"/>
<text text-anchor="start" x="50.2" y="-241.4" font-family="Arial Bold" font-size="18.00">comments</text>
<text text-anchor="start" x="124.19" y="-241.4" font-family="Arial" font-size="14.00">    </text>
<text text-anchor="start" x="155.3" y="-241.4" font-family="Arial" font-size="14.00" fill="#666666">[BASIC TABLE]</text>
<polygon fill="none" stroke="black" points="43.2,-197.2 43.2,-228 260.34,-228 260.34,-197.2 43.2,-197.2"/>
<text text-anchor="start" x="50.2" y="-209.4" font-family="Arial" font-size="14.00">id </text>
<text text-anchor="start" x="64.99" y="-209.4" font-family="Arial" font-size="14.00" fill="#666666">[int]</text>
<polygon fill="none" stroke="black" points="43.2,-166.4 43.2,-197.2 260.34,-197.2 260.34,-166.4 43.2,-166.4"/>
<text text-anchor="start" x="50.2" y="-178.6" font-family="Arial" font-size="14.00">post_id </text>
<text text-anchor="start" x="99.23" y="-178.6" font-family="Arial" font-size="14.00" fill="#666666">[int]</text>
<polygon fill="none" stroke="black" points="43.2,-135.6 43.2,-166.4 260.34,-166.4 260.34,-135.6 43.2,-135.6"/>
<text text-anchor="start" x="50.2" y="-147.8" font-family="Arial" font-size="14.00">user_id </text>
<text text-anchor="start" x="100.01" y="-147.8" font-family="Arial" font-size="14.00" fill="#666666">[int]</text>
<polygon fill="none" stroke="black" points="43.2,-104.8 43.2,-135.6 260.34,-135.6 260.34,-104.8 43.2,-104.8"/>
<text text-anchor="start" x="50.2" y="-117" font-family="Arial" font-size="14.00">comment </text>
<text text-anchor="start" x="111.66" y="-117" font-family="Arial" font-size="14.00" fill="#666666">[text]</text>
<polygon fill="none" stroke="black" points="43.2,-74 43.2,-104.8 260.34,-104.8 260.34,-74 43.2,-74"/>
<text text-anchor="start" x="50.2" y="-86.2" font-family="Arial" font-size="14.00">created </text>
<text text-anchor="start" x="100.79" y="-86.2" font-family="Arial" font-size="14.00" fill="#666666">[date]</text>
<polygon fill="none" stroke="black" points="43.2,-43.2 43.2,-74 260.34,-74 260.34,-43.2 43.2,-43.2"/>
<text text-anchor="start" x="50.2" y="-55.4" font-family="Arial" font-size="14.00">updated </text>
<text text-anchor="start" x="104.7" y="-55.4" font-family="Arial" font-size="14.00" fill="#666666">[date]</text>
</g>
<!-- comment_stars&#45;&gt;comments -->
<g id="edge2" class="edge">
<title>comment_stars:comment_post_id&#45;&gt;comments:post_id</title>
<path fill="none" stroke="black" d="M165.36,-495.95C110.74,-486.32 140.95,-396.73 176.71,-342.8 199.07,-309.07 237.95,-340.51 260.34,-306.8 291.07,-260.52 316.9,-181.8 261.34,-181.8"/>
<polygon fill="black" stroke="black" points="165.41,-495.96 175,-501.26 170.72,-496.39 175.04,-496.75 175.04,-496.75 175.04,-496.75 170.72,-496.39 175.74,-492.29 165.41,-495.96"/>
</g>
<!-- users -->
<g id="node4" class="node">
<title>users</title>
<polygon fill="#efefef" stroke="none" points="364.7,-228 364.7,-263.6 544.84,-263.6 544.84,-228 364.7,-228"/>
<polygon fill="none" stroke="black" points="364.7,-228 364.7,-263.6 544.84,-263.6 544.84,-228 364.7,-228"/>
<text text-anchor="start" x="371.7" y="-241.4" font-family="Arial Bold" font-size="18.00">users</text>
<text text-anchor="start" x="408.69" y="-241.4" font-family="Arial" font-size="14.00">    </text>
<text text-anchor="start" x="439.81" y="-241.4" font-family="Arial" font-size="14.00" fill="#666666">[BASIC TABLE]</text>
<polygon fill="none" stroke="black" points="364.7,-197.2 364.7,-228 544.84,-228 544.84,-197.2 364.7,-197.2"/>
<text text-anchor="start" x="371.7" y="-209.4" font-family="Arial" font-size="14.00">id </text>
<text text-anchor="start" x="386.48" y="-209.4" font-family="Arial" font-size="14.00" fill="#666666">[int]</text>
<polygon fill="none" stroke="black" points="364.7,-166.4 364.7,-197.2 544.84,-197.2 544.84,-166.4 364.7,-166.4"/>
<text text-anchor="start" x="371.7" y="-178.6" font-family="Arial" font-size="14.00">username </text>
<text text-anchor="start" x="437.84" y="-178.6" font-family="Arial" font-size="14.00" fill="#666666">[varchar(50)]</text>
<polygon fill="none" stroke="black" points="364.7,-135.6 364.7,-166.4 544.84,-166.4 544.84,-135.6 364.7,-135.6"/>
<text text-anchor="start" x="371.7" y="-147.8" font-family="Arial" font-size="14.00">password </text>
<text text-anchor="start" x="435.5" y="-147.8" font-family="Arial" font-size="14.00" fill="#666666">[varchar(50)]</text>
<polygon fill="none" stroke="black" points="364.7,-104.8 364.7,-135.6 544.84,-135.6 544.84,-104.8 364.7,-104.8"/>
<text text-anchor="start" x="371.7" y="-117" font-family="Arial" font-size="14.00">email </text>
<text text-anchor="start" x="409.04" y="-117" font-family="Arial" font-size="14.00" fill="#666666">[varchar(355)]</text>
<polygon fill="none" stroke="black" points="364.7,-74 364.7,-104.8 544.84,-104.8 544.84,-74 364.7,-74"/>
<text text-anchor="start" x="371.7" y="-86.2" font-family="Arial" font-size="14.00">created </text>
<text text-anchor="start" x="422.28" y="-86.2" font-family="Arial" font-size="14.00" fill="#666666">[date]</text>
<polygon fill="none" stroke="black" points="364.7,-43.2 364.7,-74 544.84,-74 544.84,-43.2 364.7,-43.2"/>
<text text-anchor="start" x="371.7" y="-55.4" font-family="Arial" font-size="14.00">updated </text>
<text text-anchor="start" x="426.19" y="-55.4" font-family="Arial" font-size="14.00" fill="#666666">[date]</text>
</g>
<!-- comment_stars&#45;&gt;users -->
<g id="edge3" class="edge">
<title>comment_stars:comment_user_id&#45;&gt;users:id</title>
<path fill="none" stroke="black" d="M440.19,-464.91C480.67,-455.45 454.73,-386.63 428.83,-342.8 412.2,-314.66 381.36,-334.92 364.7,-306.8 343.35,-270.78 321.83,-212.6 363.7,-212.6"/>
<polygon fill="black" stroke="black" points="440.11,-464.92 429.69,-461.49 434.8,-465.48 430.5,-465.93 430.5,-465.93 430.5,-465.93 434.8,-465.48 430.64,-470.44 440.11,-464.92"/>
</g>
<!-- logs -->
<g id="node2" class="node">
<title>logs</title>
<polygon fill="#efefef" stroke="none" points="216.19,-950.4 216.19,-986 389.35,-986 389.35,-950.4 216.19,-950.4"/>
<polygon fill="none" stroke="black" points="216.19,-950.4 216.19,-986 389.35,-986 389.35,-950.4 216.19,-950.4"/>
<text text-anchor="start" x="223.19" y="-963.8" font-family="Arial Bold" font-size="18.00">logs</text>
<text text-anchor="start" x="253.2" y="-963.8" font-family="Arial" font-size="14.00">    </text>
<text text-anchor="start" x="284.31" y="-963.8" font-family="Arial" font-size="14.00" fill="#666666">[BASIC TABLE]</text>
<polygon fill="none" stroke="black" points="216.19,-919.6 216.19,-950.4 389.35,-950.4 389.35,-919.6 216.19,-919.6"/>
<text text-anchor="start" x="223.19" y="-931.8" font-family="Arial" font-size="14.00">id </text>
<text text-anchor="start" x="237.98" y="-931.8" font-family="Arial" font-size="14.00" fill="#666666">[int]</text>
<polygon fill="none" stroke="black" points="216.19,-888.8 216.19,-919.6 389.35,-919.6 389.35,-888.8 216.19,-888.8"/>
<text text-anchor="start" x="223.19" y="-901" font-family="Arial" font-size="14.00">user_id </text>
<text text-anchor="start" x="273" y="-901" font-family="Arial" font-size="14.00" fill="#666666">[int]</text>
<polygon fill="none" stroke="black" points="216.19,-858 216.19,-888.8 389.35,-888.8 389.35,-858 216.19,-858"/>
<text text-anchor="start" x="223.19" y="-870.2" font-family="Arial" font-size="14.00">post_id </text>
<text text-anchor="start" x="272.22" y="-870.2" font-family="Arial" font-size="14.00" fill="#666666">[int]</text>
<polygon fill="none" stroke="black" points="216.19,-827.2 216.19,-858 389.35,-858 389.35,-827.2 216.19,-827.2"/>
<text text-anchor="start" x="223.19" y="-839.4" font-family="Arial" font-size="14.00">comment_id </text>
<text text-anchor="start" x="303.33" y="-839.4" font-family="Arial" font-size="14.00" fill="#666666">[int]</text>
<polygon fill="none" stroke="black" points="216.19,-796.4 216.19,-827.2 389.35,-827.2 389.35,-796.4 216.19,-796.4"/>
<text text-anchor="start" x="223.19" y="-808.6" font-family="Arial" font-size="14.00">comment_star_id </text>
<text text-anchor="start" x="334.46" y="-808.6" font-family="Arial" font-size="14.00" fill="#666666">[int]</text>
<polygon fill="none" stroke="black" points="216.19,-765.6 216.19,-796.4 389.35,-796.4 389.35,-765.6 216.19,-765.6"/>
<text text-anchor="start" x="223.19" y="-777.8" font-family="Arial" font-size="14.00">payload </text>
<text text-anchor="start" x="276.12" y="-777.8" font-family="Arial" font-size="14.00" fill="#666666">[text]</text>
<polygon fill="none" stroke="black" points="216.19,-734.8 216.19,-765.6 389.35,-765.6 389.35,-734.8 216.19,-734.8"/>
<text text-anchor="start" x="223.19" y="-747" font-family="Arial" font-size="14.00">created </text>
<text text-anchor="start" x="273.78" y="-747" font-family="Arial" font-size="14.00" fill="#666666">[date]</text>
</g>
<!-- logs&#45;&gt;comment_stars -->
<g id="edge1" class="edge">
<title>logs:comment_star_id&#45;&gt;comment_stars:id</title>
<path fill="none" stroke="black" stroke-dasharray="5,2" d="M400.49,-811.12C506.58,-796.69 540.36,-558.4 429.83,-558.4"/>
<polygon fill="black" stroke="black" points="400.66,-811.11 390.38,-807.29 395.34,-811.46 391.01,-811.76 391.01,-811.76 391.01,-811.76 395.34,-811.46 390.98,-816.27 400.66,-811.11"/>
<text text-anchor="start" x="397.35" y="-821.8" font-family="Arial" font-size="10.00">Additional Relation</text>
</g>
</g>
</svg>
