<?xml version="1.0" encoding="UTF-8" standalone="no"?>
<!DOCTYPE svg PUBLIC "-//W3C//DTD SVG 1.1//EN"
 "http://www.w3.org/Graphics/SVG/1.1/DTD/svg11.dtd">
<!-- Generated by graphviz version 12.1.2 (20240928.0832)
 -->
<!-- Title: comment_stars Pages: 1 -->
<svg width="602pt" height="1037pt"
 viewBox="0.00 0.00 602.33 1037.20" xmlns="http://www.w3.org/2000/svg" xmlns:xlink="http://www.w3.org/1999/xlink">
<g id="graph0" class="graph" transform="scale(1 1) rotate(0) translate(4 1033.2)">
<title>comment_stars</title>
<polygon fill="white" stroke="none" points="-4,4 -4,-1033.2 598.33,-1033.2 598.33,4 -4,4"/>
<!-- comment_stars -->
<g id="node1" class="node">
<title>comment_stars</title>
<polygon fill="#efefef" stroke="none" points="178.71,-573.8 178.71,-609.4 430.83,-609.4 430.83,-573.8 178.71,-573.8"/>
<polygon fill="none" stroke="black" points="178.71,-573.8 178.71,-609.4 430.83,-609.4 430.83,-573.8 178.71,-573.8"/>
<text text-anchor="start" x="185.71" y="-587.2" font-family="Arial Bold" font-size="18.00">comment_stars</text>
<text text-anchor="start" x="294.68" y="-587.2" font-family="Arial" font-size="14.00">    </text>
<text text-anchor="start" x="325.8" y="-587.2" font-family="Arial" font-size="14.00" fill="#666666">[BASIC TABLE]</text>
<polygon fill="none" stroke="black" points="178.71,-543 178.71,-573.8 430.83,-573.8 430.83,-543 178.71,-543"/>
<text text-anchor="start" x="185.71" y="-555.2" font-family="Arial" font-size="14.00">id </text>
<text text-anchor="start" x="200.49" y="-555.2" font-family="Arial" font-size="14.00" fill="#666666">[int]</text>
<polygon fill="none" stroke="black" points="178.71,-512.2 178.71,-543 430.83,-543 430.83,-512.2 178.71,-512.2"/>
<text text-anchor="start" x="185.71" y="-524.4" font-family="Arial" font-size="14.00">user_id </text>
<text text-anchor="start" x="235.51" y="-524.4" font-family="Arial" font-size="14.00" fill="#666666">[int]</text>
<polygon fill="none" stroke="black" points="178.71,-481.4 178.71,-512.2 430.83,-512.2 430.83,-481.4 178.71,-481.4"/>
<text text-anchor="start" x="185.71" y="-493.6" font-family="Arial" font-size="14.00">comment_post_id </text>
<text text-anchor="start" x="300.1" y="-493.6" font-family="Arial" font-size="14.00" fill="#666666">[int]</text>
<polygon fill="none" stroke="black" points="178.71,-450.6 178.71,-481.4 430.83,-481.4 430.83,-450.6 178.71,-450.6"/>
<text text-anchor="start" x="185.71" y="-462.8" font-family="Arial" font-size="14.00">comment_user_id </text>
<text text-anchor="start" x="300.87" y="-462.8" font-family="Arial" font-size="14.00" fill="#666666">[int]</text>
<polygon fill="none" stroke="black" points="178.71,-419.8 178.71,-450.6 430.83,-450.6 430.83,-419.8 178.71,-419.8"/>
<text text-anchor="start" x="185.71" y="-432" font-family="Arial" font-size="14.00">created </text>
<text text-anchor="start" x="236.29" y="-432" font-family="Arial" font-size="14.00" fill="#666666">[date]</text>
<polygon fill="none" stroke="black" points="178.71,-389 178.71,-419.8 430.83,-419.8 430.83,-389 178.71,-389"/>
<text text-anchor="start" x="185.71" y="-401.2" font-family="Arial" font-size="14.00">updated </text>
<text text-anchor="start" x="240.2" y="-401.2" font-family="Arial" font-size="14.00" fill="#666666">[date]</text>
<polygon fill="none" stroke="black" stroke-width="3" points="177.21,-387.5 177.21,-610.9 432.33,-610.9 432.33,-387.5 177.21,-387.5"/>
</g>
<!-- comments -->
<g id="node3" class="node">
<title>comments</title>
<polygon fill="#efefef" stroke="none" points="43.2,-228 43.2,-263.6 260.34,-263.6 260.34,-228 43.2,-228"/>
<polygon fill="none" stroke="black" points="43.2,-228 43.2,-263.6 260.34,-263.6 260.34,-228 43.2,-228"/>
<text text-anchor="start" x="50.2" y="-241.4" font-family="Arial Bold" font-size="18.00">comments</text>
<text text-anchor="start" x="124.19" y="-241.4" font-family="Arial" font-size="14.00">    </text>
<text text-anchor="start" x="155.3" y="-241.4" font-family="Arial" font-size="14.00" fill="#666666">[BASIC TABLE]</text>
<polygon fill="none" stroke="black" points="43.2,-197.2 43.2,-228 260.34,-228 260.34,-197.2 43.2,-197.2"/>
<text text-anchor="start" x="50.2" y="-209.4" font-family="Arial" font-size="14.00">id    </text>
<text text-anchor="start" x="92.21" y="-209.4" font-family="Arial" font-size="14.00" fill="#666666">[int]</text>
<polygon fill="none" stroke="black" points="43.2,-166.4 43.2,-197.2 260.34,-197.2 260.34,-166.4 43.2,-166.4"/>
<text text-anchor="start" x="50.2" y="-178.6" font-family="Arial" font-size="14.00">post_id    </text>
<text text-anchor="start" x="126.46" y="-178.6" font-family="Arial" font-size="14.00" fill="#666666">[int]</text>
<polygon fill="none" stroke="black" points="43.2,-135.6 43.2,-166.4 260.34,-166.4 260.34,-135.6 43.2,-135.6"/>
<text text-anchor="start" x="50.2" y="-147.8" font-family="Arial" font-size="14.00">user_id    </text>
<text text-anchor="start" x="127.23" y="-147.8" font-family="Arial" font-size="14.00" fill="#666666">[int]</text>
<polygon fill="none" stroke="black" points="43.2,-104.8 43.2,-135.6 260.34,-135.6 260.34,-104.8 43.2,-104.8"/>
<text text-anchor="start" x="50.2" y="-117" font-family="Arial" font-size="14.00">comment    </text>
<text text-anchor="start" x="138.89" y="-117" font-family="Arial" font-size="14.00" fill="#666666">[text]</text>
<polygon fill="none" stroke="black" points="43.2,-74 43.2,-104.8 260.34,-104.8 260.34,-74 43.2,-74"/>
<text text-anchor="start" x="50.2" y="-86.2" font-family="Arial" font-size="14.00">created    </text>
<text text-anchor="start" x="128.01" y="-86.2" font-family="Arial" font-size="14.00" fill="#666666">[date]</text>
<polygon fill="none" stroke="black" points="43.2,-43.2 43.2,-74 260.34,-74 260.34,-43.2 43.2,-43.2"/>
<text text-anchor="start" x="50.2" y="-55.4" font-family="Arial" font-size="14.00">updated    </text>
<text text-anchor="start" x="131.92" y="-55.4" font-family="Arial" font-size="14.00" fill="#666666">[date]</text>
</g>
<!-- comment_stars&#45;&gt;comments -->
<g id="edge2" class="edge">
<title>comment_stars:comment_post_id&#45;&gt;comments:post_id</title>
<path fill="none" stroke="black" d="M167.36,-495.95C112.76,-486.33 143.19,-396.89 178.71,-342.8 200.47,-309.65 238.55,-339.93 260.34,-306.8 290.86,-260.38 316.9,-181.8 261.34,-181.8"/>
<polygon fill="black" stroke="black" points="167.41,-495.96 177.01,-501.26 172.72,-496.39 177.04,-496.75 177.04,-496.75 177.04,-496.75 172.72,-496.39 177.74,-492.29 167.41,-495.96"/>
</g>
<!-- users -->
<g id="node4" class="node">
<title>users</title>
<polygon fill="#efefef" stroke="none" points="364.4,-228 364.4,-263.6 551.13,-263.6 551.13,-228 364.4,-228"/>
<polygon fill="none" stroke="black" points="364.4,-228 364.4,-263.6 551.13,-263.6 551.13,-228 364.4,-228"/>
<text text-anchor="start" x="374.7" y="-241.4" font-family="Arial Bold" font-size="18.00">users</text>
<text text-anchor="start" x="411.69" y="-241.4" font-family="Arial" font-size="14.00">    </text>
<text text-anchor="start" x="442.81" y="-241.4" font-family="Arial" font-size="14.00" fill="#666666">[BASIC TABLE]</text>
<polygon fill="none" stroke="black" points="364.4,-197.2 364.4,-228 551.13,-228 551.13,-197.2 364.4,-197.2"/>
<text text-anchor="start" x="371.4" y="-209.4" font-family="Arial" font-size="14.00">id    </text>
<text text-anchor="start" x="413.42" y="-209.4" font-family="Arial" font-size="14.00" fill="#666666">[int]</text>
<polygon fill="none" stroke="black" points="364.4,-166.4 364.4,-197.2 551.13,-197.2 551.13,-166.4 364.4,-166.4"/>
<text text-anchor="start" x="371.4" y="-178.6" font-family="Arial" font-size="14.00">username    </text>
<text text-anchor="start" x="464.78" y="-178.6" font-family="Arial" font-size="14.00" fill="#666666">[varchar(50)]</text>
<polygon fill="none" stroke="black" points="364.4,-135.6 364.4,-166.4 551.13,-166.4 551.13,-135.6 364.4,-135.6"/>
<text text-anchor="start" x="371.4" y="-147.8" font-family="Arial" font-size="14.00">password    </text>
<text text-anchor="start" x="462.44" y="-147.8" font-family="Arial" font-size="14.00" fill="#666666">[varchar(50)]</text>
<polygon fill="none" stroke="black" points="364.4,-104.8 364.4,-135.6 551.13,-135.6 551.13,-104.8 364.4,-104.8"/>
<text text-anchor="start" x="371.4" y="-117" font-family="Arial" font-size="14.00">email    </text>
<text text-anchor="start" x="435.98" y="-117" font-family="Arial" font-size="14.00" fill="#666666">[varchar(355)]</text>
<polygon fill="none" stroke="black" points="364.4,-74 364.4,-104.8 551.13,-104.8 551.13,-74 364.4,-74"/>
<text text-anchor="start" x="371.4" y="-86.2" font-family="Arial" font-size="14.00">created    </text>
<text text-anchor="start" x="449.22" y="-86.2" font-family="Arial" font-size="14.00" fill="#666666">[date]</text>
<polygon fill="none" stroke="black" points="364.4,-43.2 364.4,-74 551.13,-74 551.13,-43.2 364.4,-43.2"/>
<text text-anchor="start" x="371.4" y="-55.4" font-family="Arial" font-size="14.00">updated    </text>
<text text-anchor="start" x="453.13" y="-55.4" font-family="Arial" font-size="14.00" fill="#666666">[date]</text>
</g>
<!-- comment_stars&#45;&gt;users -->
<g id="edge3" class="edge">
<title>comment_stars:comment_user_id&#45;&gt;users:id</title>
<path fill="none" stroke="black" d="M442.19,-464.91C482.71,-455.42 457.06,-386.43 430.83,-342.8 413.53,-314.02 381.74,-335.56 364.4,-306.8 342.79,-270.94 321.53,-212.6 363.4,-212.6"/>
<polygon fill="black" stroke="black" points="442.11,-464.91 431.69,-461.49 436.8,-465.47 432.5,-465.93 432.5,-465.93 432.5,-465.93 436.8,-465.47 432.64,-470.44 442.11,-464.91"/>
</g>
<!-- logs -->
<g id="node2" class="node">
<title>logs</title>
<polygon fill="#efefef" stroke="none" points="217.24,-950.4 217.24,-986 392.3,-986 392.3,-950.4 217.24,-950.4"/>
<polygon fill="none" stroke="black" points="217.24,-950.4 217.24,-986 392.3,-986 392.3,-950.4 217.24,-950.4"/>
<text text-anchor="start" x="225.19" y="-963.8" font-family="Arial Bold" font-size="18.00">logs</text>
<text text-anchor="start" x="255.2" y="-963.8" font-family="Arial" font-size="14.00">    </text>
<text text-anchor="start" x="286.31" y="-963.8" font-family="Arial" font-size="14.00" fill="#666666">[BASIC TABLE]</text>
<polygon fill="none" stroke="black" points="217.24,-919.6 217.24,-950.4 392.3,-950.4 392.3,-919.6 217.24,-919.6"/>
<text text-anchor="start" x="224.24" y="-931.8" font-family="Arial" font-size="14.00">id    </text>
<text text-anchor="start" x="266.25" y="-931.8" font-family="Arial" font-size="14.00" fill="#666666">[int]</text>
<polygon fill="none" stroke="black" points="217.24,-888.8 217.24,-919.6 392.3,-919.6 392.3,-888.8 217.24,-888.8"/>
<text text-anchor="start" x="224.24" y="-901" font-family="Arial" font-size="14.00">user_id    </text>
<text text-anchor="start" x="301.27" y="-901" font-family="Arial" font-size="14.00" fill="#666666">[int]</text>
<polygon fill="none" stroke="black" points="217.24,-858 217.24,-888.8 392.3,-888.8 392.3,-858 217.24,-858"/>
<text text-anchor="start" x="224.24" y="-870.2" font-family="Arial" font-size="14.00">post_id    </text>
<text text-anchor="start" x="300.5" y="-870.2" font-family="Arial" font-size="14.00" fill="#666666">[int]</text>
<polygon fill="none" stroke="black" points="217.24,-827.2 217.24,-858 392.3,-858 392.3,-827.2 217.24,-827.2"/>
<text text-anchor="start" x="224.24" y="-839.4" font-family="Arial" font-size="14.00">comment_id    </text>
<text text-anchor="start" x="331.61" y="-839.4" font-family="Arial" font-size="14.00" fill="#666666">[int]</text>
<polygon fill="none" stroke="black" points="217.24,-796.4 217.24,-827.2 392.3,-827.2 392.3,-796.4 217.24,-796.4"/>
<text text-anchor="start" x="224.24" y="-808.6" font-family="Arial" font-size="14.00">comment_star_id    </text>
<text text-anchor="start" x="362.73" y="-808.6" font-family="Arial" font-size="14.00" fill="#666666">[int]</text>
<polygon fill="none" stroke="black" points="217.24,-765.6 217.24,-796.4 392.3,-796.4 392.3,-765.6 217.24,-765.6"/>
<text text-anchor="start" x="224.24" y="-777.8" font-family="Arial" font-size="14.00">payload    </text>
<text text-anchor="start" x="304.4" y="-777.8" font-family="Arial" font-size="14.00" fill="#666666">[text]</text>
<polygon fill="none" stroke="black" points="217.24,-734.8 217.24,-765.6 392.3,-765.6 392.3,-734.8 217.24,-734.8"/>
<text text-anchor="start" x="224.24" y="-747" font-family="Arial" font-size="14.00">created    </text>
<text text-anchor="start" x="302.05" y="-747" font-family="Arial" font-size="14.00" fill="#666666">[date]</text>
</g>
<!-- logs&#45;&gt;comment_stars -->
<g id="edge1" class="edge">
<title>logs:comment_star_id&#45;&gt;comment_stars:id</title>
<path fill="none" stroke="black" stroke-dasharray="5,2" d="M403.44,-811.12C509.41,-796.69 542.3,-558.4 431.83,-558.4"/>
<polygon fill="black" stroke="black" points="403.61,-811.11 393.33,-807.29 398.29,-811.46 393.97,-811.76 393.97,-811.76 393.97,-811.76 398.29,-811.46 393.94,-816.27 403.61,-811.11"/>
<text text-anchor="start" x="400.3" y="-821.8" font-family="Arial" font-size="10.00">Additional Relation</text>
</g>
</g>
</svg>
