<?xml version="1.0" encoding="UTF-8" standalone="no"?>
<!DOCTYPE svg PUBLIC "-//W3C//DTD SVG 1.1//EN"
 "http://www.w3.org/Graphics/SVG/1.1/DTD/svg11.dtd">
<!-- Generated by graphviz version 12.1.2 (20240928.0832)
 -->
<!-- Title: comments Pages: 1 -->
<svg width="624pt" height="1037pt"
 viewBox="0.00 0.00 624.04 1037.20" xmlns="http://www.w3.org/2000/svg" xmlns:xlink="http://www.w3.org/1999/xlink">
<g id="graph0" class="graph" transform="scale(1 1) rotate(0) translate(4 1033.2)">
<title>comments</title>
<polygon fill="white" stroke="none" points="-4,4 -4,-1033.2 620.04,-1033.2 620.04,4 -4,4"/>
<!-- comments -->
<g id="node1" class="node">
<title>comments</title>
<polygon fill="#efefef" stroke="none" points="179.21,-573.8 179.21,-609.4 396.35,-609.4 396.35,-573.8 179.21,-573.8"/>
<polygon fill="none" stroke="black" points="179.21,-573.8 179.21,-609.4 396.35,-609.4 396.35,-573.8 179.21,-573.8"/>
<text text-anchor="start" x="186.21" y="-587.2" font-family="Arial Bold" font-size="18.00">comments</text>
<text text-anchor="start" x="260.2" y="-587.2" font-family="Arial" font-size="14.00">    </text>
<text text-anchor="start" x="291.31" y="-587.2" font-family="Arial" font-size="14.00" fill="#666666">[BASIC TABLE]</text>
<polygon fill="none" stroke="black" points="179.21,-543 179.21,-573.8 396.35,-573.8 396.35,-543 179.21,-543"/>
<text text-anchor="start" x="186.21" y="-555.2" font-family="Arial" font-size="14.00">id </text>
<text text-anchor="start" x="201" y="-555.2" font-family="Arial" font-size="14.00" fill="#666666">[int]</text>
<polygon fill="none" stroke="black" points="179.21,-512.2 179.21,-543 396.35,-543 396.35,-512.2 179.21,-512.2"/>
<text text-anchor="start" x="186.21" y="-524.4" font-family="Arial" font-size="14.00">post_id </text>
<text text-anchor="start" x="235.24" y="-524.4" font-family="Arial" font-size="14.00" fill="#666666">[int]</text>
<polygon fill="none" stroke="black" points="179.21,-481.4 179.21,-512.2 396.35,-512.2 396.35,-481.4 179.21,-481.4"/>
<text text-anchor="start" x="186.21" y="-493.6" font-family="Arial" font-size="14.00">user_id </text>
<text text-anchor="start" x="236.02" y="-493.6" font-family="Arial" font-size="14.00" fill="#666666">[int]</text>
<polygon fill="none" stroke="black" points="179.21,-450.6 179.21,-481.4 396.35,-481.4 396.35,-450.6 179.21,-450.6"/>
<text text-anchor="start" x="186.21" y="-462.8" font-family="Arial" font-size="14.00">comment </text>
<text text-anchor="start" x="247.67" y="-462.8" font-family="Arial" font-size="14.00" fill="#666666">[text]</text>
<polygon fill="none" stroke="black" points="179.21,-419.8 179.21,-450.6 396.35,-450.6 396.35,-419.8 179.21,-419.8"/>
<text text-anchor="start" x="186.21" y="-432" font-family="Arial" font-size="14.00">created </text>
<text text-anchor="start" x="236.8" y="-432" font-family="Arial" font-size="14.00" fill="#666666">[date]</text>
<polygon fill="none" stroke="black" points="179.21,-389 179.21,-419.8 396.35,-419.8 396.35,-389 179.21,-389"/>
<text text-anchor="start" x="186.21" y="-401.2" font-family="Arial" font-size="14.00">updated </text>
<text text-anchor="start" x="240.71" y="-401.2" font-family="Arial" font-size="14.00" fill="#666666">[date]</text>
<polygon fill="none" stroke="black" stroke-width="3" points="177.71,-387.5 177.71,-610.9 397.85,-610.9 397.85,-387.5 177.71,-387.5"/>
</g>
<!-- posts -->
<g id="node3" class="node">
<title>posts</title>
<polygon fill="#efefef" stroke="none" points="55.7,-228 55.7,-263.6 235.86,-263.6 235.86,-228 55.7,-228"/>
<polygon fill="none" stroke="black" points="55.7,-228 55.7,-263.6 235.86,-263.6 235.86,-228 55.7,-228"/>
<text text-anchor="start" x="62.7" y="-241.4" font-family="Arial Bold" font-size="18.00">posts</text>
<text text-anchor="start" x="99.71" y="-241.4" font-family="Arial" font-size="14.00">    </text>
<text text-anchor="start" x="130.83" y="-241.4" font-family="Arial" font-size="14.00" fill="#666666">[BASIC TABLE]</text>
<polygon fill="none" stroke="black" points="55.7,-197.2 55.7,-228 235.86,-228 235.86,-197.2 55.7,-197.2"/>
<text text-anchor="start" x="62.7" y="-209.4" font-family="Arial" font-size="14.00">id </text>
<text text-anchor="start" x="77.48" y="-209.4" font-family="Arial" font-size="14.00" fill="#666666">[int]</text>
<polygon fill="none" stroke="black" points="55.7,-166.4 55.7,-197.2 235.86,-197.2 235.86,-166.4 55.7,-166.4"/>
<text text-anchor="start" x="62.7" y="-178.6" font-family="Arial" font-size="14.00">user_id </text>
<text text-anchor="start" x="112.5" y="-178.6" font-family="Arial" font-size="14.00" fill="#666666">[int]</text>
<polygon fill="none" stroke="black" points="55.7,-135.6 55.7,-166.4 235.86,-166.4 235.86,-135.6 55.7,-135.6"/>
<text text-anchor="start" x="62.7" y="-147.8" font-family="Arial" font-size="14.00">title </text>
<text text-anchor="start" x="88.37" y="-147.8" font-family="Arial" font-size="14.00" fill="#666666">[varchar(255)]</text>
<polygon fill="none" stroke="black" points="55.7,-104.8 55.7,-135.6 235.86,-135.6 235.86,-104.8 55.7,-104.8"/>
<text text-anchor="start" x="62.7" y="-117" font-family="Arial" font-size="14.00">body </text>
<text text-anchor="start" x="96.95" y="-117" font-family="Arial" font-size="14.00" fill="#666666">[text]</text>
<polygon fill="none" stroke="black" points="55.7,-74 55.7,-104.8 235.86,-104.8 235.86,-74 55.7,-74"/>
<text text-anchor="start" x="62.7" y="-86.2" font-family="Arial" font-size="14.00">created </text>
<text text-anchor="start" x="113.28" y="-86.2" font-family="Arial" font-size="14.00" fill="#666666">[date]</text>
<polygon fill="none" stroke="black" points="55.7,-43.2 55.7,-74 235.86,-74 235.86,-43.2 55.7,-43.2"/>
<text text-anchor="start" x="62.7" y="-55.4" font-family="Arial" font-size="14.00">updated </text>
<text text-anchor="start" x="117.19" y="-55.4" font-family="Arial" font-size="14.00" fill="#666666">[date]</text>
</g>
<!-- comments&#45;&gt;posts -->
<g id="edge2" class="edge">
<title>comments:post_id&#45;&gt;posts:id</title>
<path fill="none" stroke="black" d="M167.89,-527.55C-223.92,-523.98 231.3,-315 235.86,-306.8 256.21,-270.21 278.73,-212.6 236.86,-212.6"/>
<polygon fill="black" stroke="black" points="167.88,-527.55 177.86,-532.1 173.21,-527.58 177.54,-527.6 177.54,-527.6 177.54,-527.6 173.21,-527.58 177.9,-523.1 167.88,-527.55"/>
</g>
<!-- users -->
<g id="node5" class="node">
<title>users</title>
<polygon fill="#efefef" stroke="none" points="340.71,-228 340.71,-263.6 520.85,-263.6 520.85,-228 340.71,-228"/>
<polygon fill="none" stroke="black" points="340.71,-228 340.71,-263.6 520.85,-263.6 520.85,-228 340.71,-228"/>
<text text-anchor="start" x="347.71" y="-241.4" font-family="Arial Bold" font-size="18.00">users</text>
<text text-anchor="start" x="384.7" y="-241.4" font-family="Arial" font-size="14.00">    </text>
<text text-anchor="start" x="415.82" y="-241.4" font-family="Arial" font-size="14.00" fill="#666666">[BASIC TABLE]</text>
<polygon fill="none" stroke="black" points="340.71,-197.2 340.71,-228 520.85,-228 520.85,-197.2 340.71,-197.2"/>
<text text-anchor="start" x="347.71" y="-209.4" font-family="Arial" font-size="14.00">id </text>
<text text-anchor="start" x="362.49" y="-209.4" font-family="Arial" font-size="14.00" fill="#666666">[int]</text>
<polygon fill="none" stroke="black" points="340.71,-166.4 340.71,-197.2 520.85,-197.2 520.85,-166.4 340.71,-166.4"/>
<text text-anchor="start" x="347.71" y="-178.6" font-family="Arial" font-size="14.00">username </text>
<text text-anchor="start" x="413.85" y="-178.6" font-family="Arial" font-size="14.00" fill="#666666">[varchar(50)]</text>
<polygon fill="none" stroke="black" points="340.71,-135.6 340.71,-166.4 520.85,-166.4 520.85,-135.6 340.71,-135.6"/>
<text text-anchor="start" x="347.71" y="-147.8" font-family="Arial" font-size="14.00">password </text>
<text text-anchor="start" x="411.51" y="-147.8" font-family="Arial" font-size="14.00" fill="#666666">[varchar(50)]</text>
<polygon fill="none" stroke="black" points="340.71,-104.8 340.71,-135.6 520.85,-135.6 520.85,-104.8 340.71,-104.8"/>
<text text-anchor="start" x="347.71" y="-117" font-family="Arial" font-size="14.00">email </text>
<text text-anchor="start" x="385.05" y="-117" font-family="Arial" font-size="14.00" fill="#666666">[varchar(355)]</text>
<polygon fill="none" stroke="black" points="340.71,-74 340.71,-104.8 520.85,-104.8 520.85,-74 340.71,-74"/>
<text text-anchor="start" x="347.71" y="-86.2" font-family="Arial" font-size="14.00">created </text>
<text text-anchor="start" x="398.29" y="-86.2" font-family="Arial" font-size="14.00" fill="#666666">[date]</text>
<polygon fill="none" stroke="black" points="340.71,-43.2 340.71,-74 520.85,-74 520.85,-43.2 340.71,-43.2"/>
<text text-anchor="start" x="347.71" y="-55.4" font-family="Arial" font-size="14.00">updated </text>
<text text-anchor="start" x="402.2" y="-55.4" font-family="Arial" font-size="14.00" fill="#666666">[date]</text>
</g>
<!-- comments&#45;&gt;users -->
<g id="edge4" class="edge">
<title>comments:user_id&#45;&gt;users:id</title>
<path fill="none" stroke="black" d="M407.57,-496.74C714.1,-493.08 349.35,-322.48 340.71,-306.8 320.5,-270.13 297.84,-212.6 339.71,-212.6"/>
<polygon fill="black" stroke="black" points="407.68,-496.74 397.66,-492.3 402.35,-496.77 398.02,-496.8 398.02,-496.8 398.02,-496.8 402.35,-496.77 397.71,-501.3 407.68,-496.74"/>
</g>
<!-- logs -->
<g id="node2" class="node">
<title>logs</title>
<polygon fill="#efefef" stroke="none" points="43.2,-950.4 43.2,-986 216.36,-986 216.36,-950.4 43.2,-950.4"/>
<polygon fill="none" stroke="black" points="43.2,-950.4 43.2,-986 216.36,-986 216.36,-950.4 43.2,-950.4"/>
<text text-anchor="start" x="50.2" y="-963.8" font-family="Arial Bold" font-size="18.00">logs</text>
<text text-anchor="start" x="80.21" y="-963.8" font-family="Arial" font-size="14.00">    </text>
<text text-anchor="start" x="111.32" y="-963.8" font-family="Arial" font-size="14.00" fill="#666666">[BASIC TABLE]</text>
<polygon fill="none" stroke="black" points="43.2,-919.6 43.2,-950.4 216.36,-950.4 216.36,-919.6 43.2,-919.6"/>
<text text-anchor="start" x="50.2" y="-931.8" font-family="Arial" font-size="14.00">id </text>
<text text-anchor="start" x="64.99" y="-931.8" font-family="Arial" font-size="14.00" fill="#666666">[int]</text>
<polygon fill="none" stroke="black" points="43.2,-888.8 43.2,-919.6 216.36,-919.6 216.36,-888.8 43.2,-888.8"/>
<text text-anchor="start" x="50.2" y="-901" font-family="Arial" font-size="14.00">user_id </text>
<text text-anchor="start" x="100.01" y="-901" font-family="Arial" font-size="14.00" fill="#666666">[int]</text>
<polygon fill="none" stroke="black" points="43.2,-858 43.2,-888.8 216.36,-888.8 216.36,-858 43.2,-858"/>
<text text-anchor="start" x="50.2" y="-870.2" font-family="Arial" font-size="14.00">post_id </text>
<text text-anchor="start" x="99.23" y="-870.2" font-family="Arial" font-size="14.00" fill="#666666">[int]</text>
<polygon fill="none" stroke="black" points="43.2,-827.2 43.2,-858 216.36,-858 216.36,-827.2 43.2,-827.2"/>
<text text-anchor="start" x="50.2" y="-839.4" font-family="Arial" font-size="14.00">comment_id </text>
<text text-anchor="start" x="130.34" y="-839.4" font-family="Arial" font-size="14.00" fill="#666666">[int]</text>
<polygon fill="none" stroke="black" points="43.2,-796.4 43.2,-827.2 216.36,-827.2 216.36,-796.4 43.2,-796.4"/>
<text text-anchor="start" x="50.2" y="-808.6" font-family="Arial" font-size="14.00">comment_star_id </text>
<text text-anchor="start" x="161.47" y="-808.6" font-family="Arial" font-size="14.00" fill="#666666">[int]</text>
<polygon fill="none" stroke="black" points="43.2,-765.6 43.2,-796.4 216.36,-796.4 216.36,-765.6 43.2,-765.6"/>
<text text-anchor="start" x="50.2" y="-777.8" font-family="Arial" font-size="14.00">payload </text>
<text text-anchor="start" x="103.13" y="-777.8" font-family="Arial" font-size="14.00" fill="#666666">[text]</text>
<polygon fill="none" stroke="black" points="43.2,-734.8 43.2,-765.6 216.36,-765.6 216.36,-734.8 43.2,-734.8"/>
<text text-anchor="start" x="50.2" y="-747" font-family="Arial" font-size="14.00">created </text>
<text text-anchor="start" x="100.79" y="-747" font-family="Arial" font-size="14.00" fill="#666666">[date]</text>
</g>
<!-- logs&#45;&gt;comments -->
<g id="edge1" class="edge">
<title>logs:comment_id&#45;&gt;comments:id</title>
<path fill="none" stroke="black" stroke-dasharray="5,2" d="M227.74,-841.76C279.79,-832.57 241.24,-749.82 216.36,-691.6 207.32,-670.46 188.28,-676.72 179.21,-655.6 162.16,-615.9 135.01,-558.4 178.21,-558.4"/>
<polygon fill="black" stroke="black" points="227.66,-841.77 217.33,-838.09 222.34,-842.2 218.02,-842.55 218.02,-842.55 218.02,-842.55 222.34,-842.2 218.05,-847.06 227.66,-841.77"/>
<text text-anchor="start" x="224.36" y="-852.6" font-family="Arial" font-size="10.00">Additional Relation</text>
</g>
<!-- comment_stars -->
<g id="node4" class="node">
<title>comment_stars</title>
<polygon fill="#efefef" stroke="none" points="320.72,-935 320.72,-970.6 572.84,-970.6 572.84,-935 320.72,-935"/>
<polygon fill="none" stroke="black" points="320.72,-935 320.72,-970.6 572.84,-970.6 572.84,-935 320.72,-935"/>
<text text-anchor="start" x="327.72" y="-948.4" font-family="Arial Bold" font-size="18.00">comment_stars</text>
<text text-anchor="start" x="436.69" y="-948.4" font-family="Arial" font-size="14.00">    </text>
<text text-anchor="start" x="467.81" y="-948.4" font-family="Arial" font-size="14.00" fill="#666666">[BASIC TABLE]</text>
<polygon fill="none" stroke="black" points="320.72,-904.2 320.72,-935 572.84,-935 572.84,-904.2 320.72,-904.2"/>
<text text-anchor="start" x="327.72" y="-916.4" font-family="Arial" font-size="14.00">id </text>
<text text-anchor="start" x="342.5" y="-916.4" font-family="Arial" font-size="14.00" fill="#666666">[int]</text>
<polygon fill="none" stroke="black" points="320.72,-873.4 320.72,-904.2 572.84,-904.2 572.84,-873.4 320.72,-873.4"/>
<text text-anchor="start" x="327.72" y="-885.6" font-family="Arial" font-size="14.00">user_id </text>
<text text-anchor="start" x="377.52" y="-885.6" font-family="Arial" font-size="14.00" fill="#666666">[int]</text>
<polygon fill="none" stroke="black" points="320.72,-842.6 320.72,-873.4 572.84,-873.4 572.84,-842.6 320.72,-842.6"/>
<text text-anchor="start" x="327.72" y="-854.8" font-family="Arial" font-size="14.00">comment_post_id </text>
<text text-anchor="start" x="442.11" y="-854.8" font-family="Arial" font-size="14.00" fill="#666666">[int]</text>
<polygon fill="none" stroke="black" points="320.72,-811.8 320.72,-842.6 572.84,-842.6 572.84,-811.8 320.72,-811.8"/>
<text text-anchor="start" x="327.72" y="-824" font-family="Arial" font-size="14.00">comment_user_id </text>
<text text-anchor="start" x="442.88" y="-824" font-family="Arial" font-size="14.00" fill="#666666">[int]</text>
<polygon fill="none" stroke="black" points="320.72,-781 320.72,-811.8 572.84,-811.8 572.84,-781 320.72,-781"/>
<text text-anchor="start" x="327.72" y="-793.2" font-family="Arial" font-size="14.00">created </text>
<text text-anchor="start" x="378.3" y="-793.2" font-family="Arial" font-size="14.00" fill="#666666">[date]</text>
<polygon fill="none" stroke="black" points="320.72,-750.2 320.72,-781 572.84,-781 572.84,-750.2 320.72,-750.2"/>
<text text-anchor="start" x="327.72" y="-762.4" font-family="Arial" font-size="14.00">updated </text>
<text text-anchor="start" x="382.21" y="-762.4" font-family="Arial" font-size="14.00" fill="#666666">[date]</text>
</g>
<!-- comment_stars&#45;&gt;comments -->
<g id="edge3" class="edge">
<title>comment_stars:comment_post_id&#45;&gt;comments:post_id</title>
<path fill="none" stroke="black" d="M309.62,-857.2C256.58,-848.06 290.84,-762.97 320.72,-707 339.85,-671.14 377.19,-691.44 396.35,-655.6 423.16,-605.43 454.24,-527.6 397.35,-527.6"/>
<polygon fill="black" stroke="black" points="309.41,-857.18 319.02,-862.46 314.73,-857.6 319.05,-857.95 319.05,-857.95 319.05,-857.95 314.73,-857.6 319.74,-853.49 309.41,-857.18"/>
</g>
</g>
</svg>
