<?xml version="1.0" encoding="UTF-8" standalone="no"?>
<!DOCTYPE svg PUBLIC "-//W3C//DTD SVG 1.1//EN"
 "http://www.w3.org/Graphics/SVG/1.1/DTD/svg11.dtd">
<!-- Generated by graphviz version 2.40.1 (20161225.0304)
 -->
<!-- Title: logs Pages: 1 -->
<svg width="1160pt" height="682pt"
 viewBox="0.00 0.00 1159.50 682.00" xmlns="http://www.w3.org/2000/svg" xmlns:xlink="http://www.w3.org/1999/xlink">
<g id="graph0" class="graph" transform="scale(1 1) rotate(0) translate(4 678)">
<title>logs</title>
<polygon fill="#ffffff" stroke="transparent" points="-4,4 -4,-678 1155.5,-678 1155.5,4 -4,4"/>
<!-- logs -->
<g id="node1" class="node">
<title>logs</title>
<polygon fill="#efefef" stroke="transparent" points="436.5,-592.5 436.5,-627.5 615.5,-627.5 615.5,-592.5 436.5,-592.5"/>
<polygon fill="none" stroke="#000000" points="436.5,-592.5 436.5,-627.5 615.5,-627.5 615.5,-592.5 436.5,-592.5"/>
<text text-anchor="start" x="443.3824" y="-605.3" font-family="Arial Bold" font-size="18.00" fill="#000000">logs</text>
<text text-anchor="start" x="476.389" y="-605.3" font-family="Arial" font-size="14.00" fill="#000000">    </text>
<text text-anchor="start" x="510.5938" y="-605.3" font-family="Arial" font-size="14.00" fill="#666666">[BASIC TABLE]</text>
<polygon fill="none" stroke="#000000" points="436.5,-562.5 436.5,-592.5 615.5,-592.5 615.5,-562.5 436.5,-562.5"/>
<text text-anchor="start" x="443.5" y="-573.9" font-family="Arial" font-size="14.00" fill="#000000">id </text>
<text text-anchor="start" x="458.2798" y="-573.9" font-family="Arial" font-size="14.00" fill="#666666">[int]</text>
<polygon fill="none" stroke="#000000" points="436.5,-532.5 436.5,-562.5 615.5,-562.5 615.5,-532.5 436.5,-532.5"/>
<text text-anchor="start" x="443.5" y="-543.9" font-family="Arial" font-size="14.00" fill="#000000">user_id </text>
<text text-anchor="start" x="493.2882" y="-543.9" font-family="Arial" font-size="14.00" fill="#666666">[int]</text>
<polygon fill="none" stroke="#000000" points="436.5,-502.5 436.5,-532.5 615.5,-532.5 615.5,-502.5 436.5,-502.5"/>
<text text-anchor="start" x="443.5" y="-513.9" font-family="Arial" font-size="14.00" fill="#000000">post_id </text>
<text text-anchor="start" x="492.5182" y="-513.9" font-family="Arial" font-size="14.00" fill="#666666">[int]</text>
<polygon fill="none" stroke="#000000" points="436.5,-472.5 436.5,-502.5 615.5,-502.5 615.5,-472.5 436.5,-472.5"/>
<text text-anchor="start" x="443.5" y="-483.9" font-family="Arial" font-size="14.00" fill="#000000">comment_id </text>
<text text-anchor="start" x="523.622" y="-483.9" font-family="Arial" font-size="14.00" fill="#666666">[int]</text>
<polygon fill="none" stroke="#000000" points="436.5,-442.5 436.5,-472.5 615.5,-472.5 615.5,-442.5 436.5,-442.5"/>
<text text-anchor="start" x="443.5" y="-453.9" font-family="Arial" font-size="14.00" fill="#000000">comment_star_id </text>
<text text-anchor="start" x="554.7384" y="-453.9" font-family="Arial" font-size="14.00" fill="#666666">[int]</text>
<polygon fill="none" stroke="#000000" points="436.5,-412.5 436.5,-442.5 615.5,-442.5 615.5,-412.5 436.5,-412.5"/>
<text text-anchor="start" x="443.5" y="-423.9" font-family="Arial" font-size="14.00" fill="#000000">payload </text>
<text text-anchor="start" x="496.4102" y="-423.9" font-family="Arial" font-size="14.00" fill="#666666">[text]</text>
<polygon fill="none" stroke="#000000" points="436.5,-382.5 436.5,-412.5 615.5,-412.5 615.5,-382.5 436.5,-382.5"/>
<text text-anchor="start" x="443.5" y="-393.9" font-family="Arial" font-size="14.00" fill="#000000">created </text>
<text text-anchor="start" x="494.0722" y="-393.9" font-family="Arial" font-size="14.00" fill="#666666">[date]</text>
<polygon fill="none" stroke="#000000" stroke-width="3" points="434.5,-381.5 434.5,-629.5 616.5,-629.5 616.5,-381.5 434.5,-381.5"/>
</g>
<!-- users -->
<g id="node2" class="node">
<title>users</title>
<polygon fill="#efefef" stroke="transparent" points="43.5,-222.5 43.5,-257.5 202.5,-257.5 202.5,-222.5 43.5,-222.5"/>
<polygon fill="none" stroke="#000000" points="43.5,-222.5 43.5,-257.5 202.5,-257.5 202.5,-222.5 43.5,-222.5"/>
<text text-anchor="start" x="50.0405" y="-235.3" font-family="Arial Bold" font-size="18.00" fill="#000000">users</text>
<text text-anchor="start" x="94.0451" y="-235.3" font-family="Arial" font-size="14.00" fill="#000000"> </text>
<text text-anchor="start" x="97.9357" y="-235.3" font-family="Arial" font-size="14.00" fill="#666666">[BASIC TABLE]</text>
<polygon fill="none" stroke="#000000" points="43.5,-192.5 43.5,-222.5 202.5,-222.5 202.5,-192.5 43.5,-192.5"/>
<text text-anchor="start" x="50.5" y="-203.9" font-family="Arial" font-size="14.00" fill="#000000">id </text>
<text text-anchor="start" x="65.2798" y="-203.9" font-family="Arial" font-size="14.00" fill="#666666">[int]</text>
<polygon fill="none" stroke="#000000" points="43.5,-162.5 43.5,-192.5 202.5,-192.5 202.5,-162.5 43.5,-162.5"/>
<text text-anchor="start" x="50.2693" y="-173.9" font-family="Arial" font-size="14.00" fill="#000000">username </text>
<text text-anchor="start" x="116.3941" y="-173.9" font-family="Arial" font-size="14.00" fill="#666666">[varchar(50)]</text>
<polygon fill="none" stroke="#000000" points="43.5,-132.5 43.5,-162.5 202.5,-162.5 202.5,-132.5 43.5,-132.5"/>
<text text-anchor="start" x="50.5" y="-143.9" font-family="Arial" font-size="14.00" fill="#000000">password </text>
<text text-anchor="start" x="114.2882" y="-143.9" font-family="Arial" font-size="14.00" fill="#666666">[varchar(50)]</text>
<polygon fill="none" stroke="#000000" points="43.5,-102.5 43.5,-132.5 202.5,-132.5 202.5,-102.5 43.5,-102.5"/>
<text text-anchor="start" x="50.5" y="-113.9" font-family="Arial" font-size="14.00" fill="#000000">email </text>
<text text-anchor="start" x="87.8296" y="-113.9" font-family="Arial" font-size="14.00" fill="#666666">[varchar(355)]</text>
<polygon fill="none" stroke="#000000" points="43.5,-72.5 43.5,-102.5 202.5,-102.5 202.5,-72.5 43.5,-72.5"/>
<text text-anchor="start" x="50.5" y="-83.9" font-family="Arial" font-size="14.00" fill="#000000">created </text>
<text text-anchor="start" x="101.0722" y="-83.9" font-family="Arial" font-size="14.00" fill="#666666">[date]</text>
<polygon fill="none" stroke="#000000" points="43.5,-42.5 43.5,-72.5 202.5,-72.5 202.5,-42.5 43.5,-42.5"/>
<text text-anchor="start" x="50.5" y="-53.9" font-family="Arial" font-size="14.00" fill="#000000">updated </text>
<text text-anchor="start" x="104.9768" y="-53.9" font-family="Arial" font-size="14.00" fill="#666666">[date]</text>
</g>
<!-- logs&#45;&gt;users -->
<g id="edge1" class="edge">
<title>logs:user_id&#45;&gt;users:id</title>
<path fill="none" stroke="#000000" stroke-dasharray="5,2" d="M426.4397,-547.2472C301.6683,-540.8092 326.3201,-412.6132 254.5,-301 228.7696,-261.0133 250.0498,-207.5 202.5,-207.5"/>
<polygon fill="#000000" stroke="#000000" points="426.5032,-547.2487 436.3869,-551.9986 431.5016,-547.3743 436.5,-547.5 436.5,-547.5 436.5,-547.5 431.5016,-547.3743 436.6131,-543.0014 426.5032,-547.2487 426.5032,-547.2487"/>
<text text-anchor="start" x="378.524" y="-557.5" font-family="Arial" font-size="10.00" fill="#000000">logs&#45;&gt;users</text>
</g>
<!-- posts -->
<g id="node3" class="node">
<title>posts</title>
<polygon fill="#efefef" stroke="transparent" points="306.5,-222.5 306.5,-257.5 464.5,-257.5 464.5,-222.5 306.5,-222.5"/>
<polygon fill="none" stroke="#000000" points="306.5,-222.5 306.5,-257.5 464.5,-257.5 464.5,-222.5 306.5,-222.5"/>
<text text-anchor="start" x="313.0355" y="-235.3" font-family="Arial Bold" font-size="18.00" fill="#000000">posts</text>
<text text-anchor="start" x="356.0501" y="-235.3" font-family="Arial" font-size="14.00" fill="#000000"> </text>
<text text-anchor="start" x="359.9407" y="-235.3" font-family="Arial" font-size="14.00" fill="#666666">[BASIC TABLE]</text>
<polygon fill="none" stroke="#000000" points="306.5,-192.5 306.5,-222.5 464.5,-222.5 464.5,-192.5 306.5,-192.5"/>
<text text-anchor="start" x="313.5" y="-203.9" font-family="Arial" font-size="14.00" fill="#000000">id </text>
<text text-anchor="start" x="328.2798" y="-203.9" font-family="Arial" font-size="14.00" fill="#666666">[int]</text>
<polygon fill="none" stroke="#000000" points="306.5,-162.5 306.5,-192.5 464.5,-192.5 464.5,-162.5 306.5,-162.5"/>
<text text-anchor="start" x="313.5" y="-173.9" font-family="Arial" font-size="14.00" fill="#000000">user_id </text>
<text text-anchor="start" x="363.2882" y="-173.9" font-family="Arial" font-size="14.00" fill="#666666">[int]</text>
<polygon fill="none" stroke="#000000" points="306.5,-132.5 306.5,-162.5 464.5,-162.5 464.5,-132.5 306.5,-132.5"/>
<text text-anchor="start" x="313.5" y="-143.9" font-family="Arial" font-size="14.00" fill="#000000">title </text>
<text text-anchor="start" x="339.1676" y="-143.9" font-family="Arial" font-size="14.00" fill="#666666">[varchar(255)]</text>
<polygon fill="none" stroke="#000000" points="306.5,-102.5 306.5,-132.5 464.5,-132.5 464.5,-102.5 306.5,-102.5"/>
<text text-anchor="start" x="313.5" y="-113.9" font-family="Arial" font-size="14.00" fill="#000000">body </text>
<text text-anchor="start" x="347.7384" y="-113.9" font-family="Arial" font-size="14.00" fill="#666666">[text]</text>
<polygon fill="none" stroke="#000000" points="306.5,-72.5 306.5,-102.5 464.5,-102.5 464.5,-72.5 306.5,-72.5"/>
<text text-anchor="start" x="313.5" y="-83.9" font-family="Arial" font-size="14.00" fill="#000000">created </text>
<text text-anchor="start" x="364.0722" y="-83.9" font-family="Arial" font-size="14.00" fill="#666666">[date]</text>
<polygon fill="none" stroke="#000000" points="306.5,-42.5 306.5,-72.5 464.5,-72.5 464.5,-42.5 306.5,-42.5"/>
<text text-anchor="start" x="313.5" y="-53.9" font-family="Arial" font-size="14.00" fill="#000000">updated </text>
<text text-anchor="start" x="367.9768" y="-53.9" font-family="Arial" font-size="14.00" fill="#666666">[date]</text>
</g>
<!-- logs&#45;&gt;posts -->
<g id="edge2" class="edge">
<title>logs:post_id&#45;&gt;posts:id</title>
<path fill="none" stroke="#000000" stroke-dasharray="5,2" d="M426.4878,-516.8787C361.0893,-508.1585 411.6345,-409.4714 436.5,-337 443.0783,-317.8274 457.9217,-320.1726 464.5,-301 477.9863,-261.6937 506.0556,-207.5 464.5,-207.5"/>
<polygon fill="#000000" stroke="#000000" points="426.5192,-516.8806 436.2213,-521.9914 431.5096,-517.1903 436.5,-517.5 436.5,-517.5 436.5,-517.5 431.5096,-517.1903 436.7787,-513.0086 426.5192,-516.8806 426.5192,-516.8806"/>
<text text-anchor="start" x="346.8245" y="-527.5" font-family="Arial" font-size="10.00" fill="#000000">Additional Relation</text>
</g>
<!-- comments -->
<g id="node4" class="node">
<title>comments</title>
<polygon fill="#efefef" stroke="transparent" points="568.5,-222.5 568.5,-257.5 766.5,-257.5 766.5,-222.5 568.5,-222.5"/>
<polygon fill="none" stroke="#000000" points="568.5,-222.5 568.5,-257.5 766.5,-257.5 766.5,-222.5 568.5,-222.5"/>
<text text-anchor="start" x="575.0402" y="-235.3" font-family="Arial Bold" font-size="18.00" fill="#000000">comments</text>
<text text-anchor="start" x="658.0454" y="-235.3" font-family="Arial" font-size="14.00" fill="#000000"> </text>
<text text-anchor="start" x="661.936" y="-235.3" font-family="Arial" font-size="14.00" fill="#666666">[BASIC TABLE]</text>
<polygon fill="none" stroke="#000000" points="568.5,-192.5 568.5,-222.5 766.5,-222.5 766.5,-192.5 568.5,-192.5"/>
<text text-anchor="start" x="575.5" y="-203.9" font-family="Arial" font-size="14.00" fill="#000000">id </text>
<text text-anchor="start" x="590.2798" y="-203.9" font-family="Arial" font-size="14.00" fill="#666666">[int]</text>
<polygon fill="none" stroke="#000000" points="568.5,-162.5 568.5,-192.5 766.5,-192.5 766.5,-162.5 568.5,-162.5"/>
<text text-anchor="start" x="575.5" y="-173.9" font-family="Arial" font-size="14.00" fill="#000000">post_id </text>
<text text-anchor="start" x="624.5182" y="-173.9" font-family="Arial" font-size="14.00" fill="#666666">[int]</text>
<polygon fill="none" stroke="#000000" points="568.5,-132.5 568.5,-162.5 766.5,-162.5 766.5,-132.5 568.5,-132.5"/>
<text text-anchor="start" x="575.5" y="-143.9" font-family="Arial" font-size="14.00" fill="#000000">user_id </text>
<text text-anchor="start" x="625.2882" y="-143.9" font-family="Arial" font-size="14.00" fill="#666666">[int]</text>
<polygon fill="none" stroke="#000000" points="568.5,-102.5 568.5,-132.5 766.5,-132.5 766.5,-102.5 568.5,-102.5"/>
<text text-anchor="start" x="575.5" y="-113.9" font-family="Arial" font-size="14.00" fill="#000000">comment </text>
<text text-anchor="start" x="636.9502" y="-113.9" font-family="Arial" font-size="14.00" fill="#666666">[text]</text>
<polygon fill="none" stroke="#000000" points="568.5,-72.5 568.5,-102.5 766.5,-102.5 766.5,-72.5 568.5,-72.5"/>
<text text-anchor="start" x="575.5" y="-83.9" font-family="Arial" font-size="14.00" fill="#000000">created </text>
<text text-anchor="start" x="626.0722" y="-83.9" font-family="Arial" font-size="14.00" fill="#666666">[date]</text>
<polygon fill="none" stroke="#000000" points="568.5,-42.5 568.5,-72.5 766.5,-72.5 766.5,-42.5 568.5,-42.5"/>
<text text-anchor="start" x="575.5" y="-53.9" font-family="Arial" font-size="14.00" fill="#000000">updated </text>
<text text-anchor="start" x="629.9768" y="-53.9" font-family="Arial" font-size="14.00" fill="#666666">[date]</text>
</g>
<!-- logs&#45;&gt;comments -->
<g id="edge3" class="edge">
<title>logs:comment_id&#45;&gt;comments:id</title>
<path fill="none" stroke="#000000" stroke-dasharray="5,2" d="M625.6126,-487.424C902.6025,-483.1688 568.7998,-301.6073 568.5,-301 550.1044,-263.7379 526.9444,-207.5 568.5,-207.5"/>
<polygon fill="#000000" stroke="#000000" points="625.4997,-487.4248 615.4661,-483.0001 620.4999,-487.4624 615.5,-487.5 615.5,-487.5 615.5,-487.5 620.4999,-487.4624 615.5339,-491.9999 625.4997,-487.4248 625.4997,-487.4248"/>
<text text-anchor="start" x="622.8245" y="-497.5" font-family="Arial" font-size="10.00" fill="#000000">Additional Relation</text>
</g>
<!-- comment_stars -->
<g id="node5" class="node">
<title>comment_stars</title>
<polygon fill="#efefef" stroke="transparent" points="870.5,-222.5 870.5,-257.5 1108.5,-257.5 1108.5,-222.5 870.5,-222.5"/>
<polygon fill="none" stroke="#000000" points="870.5,-222.5 870.5,-257.5 1108.5,-257.5 1108.5,-222.5 870.5,-222.5"/>
<text text-anchor="start" x="877.0368" y="-235.3" font-family="Arial Bold" font-size="18.00" fill="#000000">comment_stars</text>
<text text-anchor="start" x="1000.0488" y="-235.3" font-family="Arial" font-size="14.00" fill="#000000"> </text>
<text text-anchor="start" x="1003.9394" y="-235.3" font-family="Arial" font-size="14.00" fill="#666666">[BASIC TABLE]</text>
<polygon fill="none" stroke="#000000" points="870.5,-192.5 870.5,-222.5 1108.5,-222.5 1108.5,-192.5 870.5,-192.5"/>
<text text-anchor="start" x="877.5" y="-203.9" font-family="Arial" font-size="14.00" fill="#000000">id </text>
<text text-anchor="start" x="892.2798" y="-203.9" font-family="Arial" font-size="14.00" fill="#666666">[int]</text>
<polygon fill="none" stroke="#000000" points="870.5,-162.5 870.5,-192.5 1108.5,-192.5 1108.5,-162.5 870.5,-162.5"/>
<text text-anchor="start" x="877.5" y="-173.9" font-family="Arial" font-size="14.00" fill="#000000">user_id </text>
<text text-anchor="start" x="927.2882" y="-173.9" font-family="Arial" font-size="14.00" fill="#666666">[int]</text>
<polygon fill="none" stroke="#000000" points="870.5,-132.5 870.5,-162.5 1108.5,-162.5 1108.5,-132.5 870.5,-132.5"/>
<text text-anchor="start" x="877.5" y="-143.9" font-family="Arial" font-size="14.00" fill="#000000">comment_post_id </text>
<text text-anchor="start" x="991.8604" y="-143.9" font-family="Arial" font-size="14.00" fill="#666666">[int]</text>
<polygon fill="none" stroke="#000000" points="870.5,-102.5 870.5,-132.5 1108.5,-132.5 1108.5,-102.5 870.5,-102.5"/>
<text text-anchor="start" x="877.5" y="-113.9" font-family="Arial" font-size="14.00" fill="#000000">comment_user_id </text>
<text text-anchor="start" x="992.6304" y="-113.9" font-family="Arial" font-size="14.00" fill="#666666">[int]</text>
<polygon fill="none" stroke="#000000" points="870.5,-72.5 870.5,-102.5 1108.5,-102.5 1108.5,-72.5 870.5,-72.5"/>
<text text-anchor="start" x="877.5" y="-83.9" font-family="Arial" font-size="14.00" fill="#000000">created </text>
<text text-anchor="start" x="928.0722" y="-83.9" font-family="Arial" font-size="14.00" fill="#666666">[date]</text>
<polygon fill="none" stroke="#000000" points="870.5,-42.5 870.5,-72.5 1108.5,-72.5 1108.5,-42.5 870.5,-42.5"/>
<text text-anchor="start" x="877.5" y="-53.9" font-family="Arial" font-size="14.00" fill="#000000">updated </text>
<text text-anchor="start" x="931.9768" y="-53.9" font-family="Arial" font-size="14.00" fill="#666666">[date]</text>
</g>
<!-- logs&#45;&gt;comment_stars -->
<g id="edge4" class="edge">
<title>logs:comment_star_id&#45;&gt;comment_stars:id</title>
<path fill="none" stroke="#000000" stroke-dasharray="5,2" d="M625.5781,-457.3086C730.369,-453.2369 746.4241,-384.721 818.5,-301 849.5231,-264.9646 822.9502,-207.5 870.5,-207.5"/>
<polygon fill="#000000" stroke="#000000" points="625.4982,-457.31 615.4145,-453.0008 620.4991,-457.405 615.5,-457.5 615.5,-457.5 615.5,-457.5 620.4991,-457.405 615.5855,-461.9992 625.4982,-457.31 625.4982,-457.31"/>
<text text-anchor="start" x="622.8245" y="-467.5" font-family="Arial" font-size="10.00" fill="#000000">Additional Relation</text>
</g>
</g>
</svg>
