<?xml version="1.0" encoding="UTF-8" standalone="no"?>
<!DOCTYPE svg PUBLIC "-//W3C//DTD SVG 1.1//EN"
 "http://www.w3.org/Graphics/SVG/1.1/DTD/svg11.dtd">
<!-- Generated by graphviz version 12.1.2 (20240928.0832)
 -->
<!-- Title: logs Pages: 1 -->
<svg width="1244pt" height="694pt"
 viewBox="0.00 0.00 1243.83 694.40" xmlns="http://www.w3.org/2000/svg" xmlns:xlink="http://www.w3.org/1999/xlink">
<g id="graph0" class="graph" transform="scale(1 1) rotate(0) translate(4 690.4)">
<title>logs</title>
<polygon fill="white" stroke="none" points="-4,4 -4,-690.4 1239.83,-690.4 1239.83,4 -4,4"/>
<!-- logs -->
<g id="node1" class="node">
<title>logs</title>
<polygon fill="#efefef" stroke="none" points="488.99,-604.6 488.99,-640.2 662.14,-640.2 662.14,-604.6 488.99,-604.6"/>
<polygon fill="none" stroke="black" points="488.99,-604.6 488.99,-640.2 662.14,-640.2 662.14,-604.6 488.99,-604.6"/>
<text text-anchor="start" x="495.99" y="-618" font-family="Arial Bold" font-size="18.00">logs</text>
<text text-anchor="start" x="525.99" y="-618" font-family="Arial" font-size="14.00">    </text>
<text text-anchor="start" x="557.11" y="-618" font-family="Arial" font-size="14.00" fill="#666666">[BASIC TABLE]</text>
<polygon fill="none" stroke="black" points="488.99,-573.8 488.99,-604.6 662.14,-604.6 662.14,-573.8 488.99,-573.8"/>
<text text-anchor="start" x="495.99" y="-586" font-family="Arial" font-size="14.00">id </text>
<text text-anchor="start" x="510.77" y="-586" font-family="Arial" font-size="14.00" fill="#666666">[int]</text>
<polygon fill="none" stroke="black" points="488.99,-543 488.99,-573.8 662.14,-573.8 662.14,-543 488.99,-543"/>
<text text-anchor="start" x="495.99" y="-555.2" font-family="Arial" font-size="14.00">user_id </text>
<text text-anchor="start" x="545.79" y="-555.2" font-family="Arial" font-size="14.00" fill="#666666">[int]</text>
<polygon fill="none" stroke="black" points="488.99,-512.2 488.99,-543 662.14,-543 662.14,-512.2 488.99,-512.2"/>
<text text-anchor="start" x="495.99" y="-524.4" font-family="Arial" font-size="14.00">post_id </text>
<text text-anchor="start" x="545.02" y="-524.4" font-family="Arial" font-size="14.00" fill="#666666">[int]</text>
<polygon fill="none" stroke="black" points="488.99,-481.4 488.99,-512.2 662.14,-512.2 662.14,-481.4 488.99,-481.4"/>
<text text-anchor="start" x="495.99" y="-493.6" font-family="Arial" font-size="14.00">comment_id </text>
<text text-anchor="start" x="576.13" y="-493.6" font-family="Arial" font-size="14.00" fill="#666666">[int]</text>
<polygon fill="none" stroke="black" points="488.99,-450.6 488.99,-481.4 662.14,-481.4 662.14,-450.6 488.99,-450.6"/>
<text text-anchor="start" x="495.99" y="-462.8" font-family="Arial" font-size="14.00">comment_star_id </text>
<text text-anchor="start" x="607.26" y="-462.8" font-family="Arial" font-size="14.00" fill="#666666">[int]</text>
<polygon fill="none" stroke="black" points="488.99,-419.8 488.99,-450.6 662.14,-450.6 662.14,-419.8 488.99,-419.8"/>
<text text-anchor="start" x="495.99" y="-432" font-family="Arial" font-size="14.00">payload </text>
<text text-anchor="start" x="548.92" y="-432" font-family="Arial" font-size="14.00" fill="#666666">[text]</text>
<polygon fill="none" stroke="black" points="488.99,-389 488.99,-419.8 662.14,-419.8 662.14,-389 488.99,-389"/>
<text text-anchor="start" x="495.99" y="-401.2" font-family="Arial" font-size="14.00">created </text>
<text text-anchor="start" x="546.57" y="-401.2" font-family="Arial" font-size="14.00" fill="#666666">[date]</text>
<polygon fill="none" stroke="black" stroke-width="3" points="487.49,-387.5 487.49,-641.7 663.64,-641.7 663.64,-387.5 487.49,-387.5"/>
</g>
<!-- users -->
<g id="node2" class="node">
<title>users</title>
<polygon fill="#efefef" stroke="none" points="43.2,-228 43.2,-263.6 229.93,-263.6 229.93,-228 43.2,-228"/>
<polygon fill="none" stroke="black" points="43.2,-228 43.2,-263.6 229.93,-263.6 229.93,-228 43.2,-228"/>
<text text-anchor="start" x="53.49" y="-241.4" font-family="Arial Bold" font-size="18.00">users</text>
<text text-anchor="start" x="90.49" y="-241.4" font-family="Arial" font-size="14.00">    </text>
<text text-anchor="start" x="121.6" y="-241.4" font-family="Arial" font-size="14.00" fill="#666666">[BASIC TABLE]</text>
<polygon fill="none" stroke="black" points="43.2,-197.2 43.2,-228 229.93,-228 229.93,-197.2 43.2,-197.2"/>
<text text-anchor="start" x="50.2" y="-209.4" font-family="Arial" font-size="14.00">id    </text>
<text text-anchor="start" x="92.21" y="-209.4" font-family="Arial" font-size="14.00" fill="#666666">[int]</text>
<polygon fill="none" stroke="black" points="43.2,-166.4 43.2,-197.2 229.93,-197.2 229.93,-166.4 43.2,-166.4"/>
<text text-anchor="start" x="50.2" y="-178.6" font-family="Arial" font-size="14.00">username    </text>
<text text-anchor="start" x="143.57" y="-178.6" font-family="Arial" font-size="14.00" fill="#666666">[varchar(50)]</text>
<polygon fill="none" stroke="black" points="43.2,-135.6 43.2,-166.4 229.93,-166.4 229.93,-135.6 43.2,-135.6"/>
<text text-anchor="start" x="50.2" y="-147.8" font-family="Arial" font-size="14.00">password    </text>
<text text-anchor="start" x="141.23" y="-147.8" font-family="Arial" font-size="14.00" fill="#666666">[varchar(50)]</text>
<polygon fill="none" stroke="black" points="43.2,-104.8 43.2,-135.6 229.93,-135.6 229.93,-104.8 43.2,-104.8"/>
<text text-anchor="start" x="50.2" y="-117" font-family="Arial" font-size="14.00">email    </text>
<text text-anchor="start" x="114.77" y="-117" font-family="Arial" font-size="14.00" fill="#666666">[varchar(355)]</text>
<polygon fill="none" stroke="black" points="43.2,-74 43.2,-104.8 229.93,-104.8 229.93,-74 43.2,-74"/>
<text text-anchor="start" x="50.2" y="-86.2" font-family="Arial" font-size="14.00">created    </text>
<text text-anchor="start" x="128.01" y="-86.2" font-family="Arial" font-size="14.00" fill="#666666">[date]</text>
<polygon fill="none" stroke="black" points="43.2,-43.2 43.2,-74 229.93,-74 229.93,-43.2 43.2,-43.2"/>
<text text-anchor="start" x="50.2" y="-55.4" font-family="Arial" font-size="14.00">updated    </text>
<text text-anchor="start" x="131.92" y="-55.4" font-family="Arial" font-size="14.00" fill="#666666">[date]</text>
</g>
<!-- logs&#45;&gt;users -->
<g id="edge1" class="edge">
<title>logs:user_id&#45;&gt;users:id</title>
<path fill="none" stroke="black" stroke-dasharray="5,2" d="M477.7,-558.17C344.53,-551.97 361.28,-423.59 282.57,-306.8 255.88,-267.21 278.67,-212.6 230.93,-212.6"/>
<polygon fill="black" stroke="black" points="477.65,-558.17 487.55,-562.89 482.99,-558.29 487.32,-558.38 487.32,-558.38 487.32,-558.38 482.99,-558.29 487.75,-553.89 477.65,-558.17"/>
<text text-anchor="start" x="429.02" y="-568.4" font-family="Arial" font-size="10.00">logs&#45;&gt;users</text>
</g>
<!-- posts -->
<g id="node3" class="node">
<title>posts</title>
<polygon fill="#efefef" stroke="none" points="334.48,-228 334.48,-263.6 514.65,-263.6 514.65,-228 334.48,-228"/>
<polygon fill="none" stroke="black" points="334.48,-228 334.48,-263.6 514.65,-263.6 514.65,-228 334.48,-228"/>
<text text-anchor="start" x="341.48" y="-241.4" font-family="Arial Bold" font-size="18.00">posts</text>
<text text-anchor="start" x="378.49" y="-241.4" font-family="Arial" font-size="14.00">    </text>
<text text-anchor="start" x="409.61" y="-241.4" font-family="Arial" font-size="14.00" fill="#666666">[BASIC TABLE]</text>
<polygon fill="none" stroke="black" points="334.48,-197.2 334.48,-228 514.65,-228 514.65,-197.2 334.48,-197.2"/>
<text text-anchor="start" x="341.48" y="-209.4" font-family="Arial" font-size="14.00">id    </text>
<text text-anchor="start" x="383.5" y="-209.4" font-family="Arial" font-size="14.00" fill="#666666">[int]</text>
<polygon fill="none" stroke="black" points="334.48,-166.4 334.48,-197.2 514.65,-197.2 514.65,-166.4 334.48,-166.4"/>
<text text-anchor="start" x="341.48" y="-178.6" font-family="Arial" font-size="14.00">user_id    </text>
<text text-anchor="start" x="418.52" y="-178.6" font-family="Arial" font-size="14.00" fill="#666666">[int]</text>
<polygon fill="none" stroke="black" points="334.48,-135.6 334.48,-166.4 514.65,-166.4 514.65,-135.6 334.48,-135.6"/>
<text text-anchor="start" x="341.48" y="-147.8" font-family="Arial" font-size="14.00">title    </text>
<text text-anchor="start" x="394.39" y="-147.8" font-family="Arial" font-size="14.00" fill="#666666">[varchar(255)]</text>
<polygon fill="none" stroke="black" points="334.48,-104.8 334.48,-135.6 514.65,-135.6 514.65,-104.8 334.48,-104.8"/>
<text text-anchor="start" x="341.48" y="-117" font-family="Arial" font-size="14.00">body    </text>
<text text-anchor="start" x="402.96" y="-117" font-family="Arial" font-size="14.00" fill="#666666">[text]</text>
<polygon fill="none" stroke="black" points="334.48,-74 334.48,-104.8 514.65,-104.8 514.65,-74 334.48,-74"/>
<text text-anchor="start" x="341.48" y="-86.2" font-family="Arial" font-size="14.00">created    </text>
<text text-anchor="start" x="419.3" y="-86.2" font-family="Arial" font-size="14.00" fill="#666666">[date]</text>
<polygon fill="none" stroke="black" points="334.48,-43.2 334.48,-74 514.65,-74 514.65,-43.2 334.48,-43.2"/>
<text text-anchor="start" x="341.48" y="-55.4" font-family="Arial" font-size="14.00">updated    </text>
<text text-anchor="start" x="423.21" y="-55.4" font-family="Arial" font-size="14.00" fill="#666666">[date]</text>
</g>
<!-- logs&#45;&gt;posts -->
<g id="edge2" class="edge">
<title>logs:post_id&#45;&gt;posts:id</title>
<path fill="none" stroke="black" stroke-dasharray="5,2" d="M477.75,-526.97C410.99,-518.08 464.88,-417.45 488.99,-342.8 495.02,-324.1 508.56,-325.48 514.65,-306.8 527.62,-266.99 557.52,-212.6 515.65,-212.6"/>
<polygon fill="black" stroke="black" points="477.67,-526.96 487.37,-532.07 483,-527.29 487.32,-527.56 487.32,-527.56 487.32,-527.56 483,-527.29 487.93,-523.09 477.67,-526.96"/>
<text text-anchor="start" x="397.6" y="-537.6" font-family="Arial" font-size="10.00">Additional Relation</text>
</g>
<!-- comments -->
<g id="node4" class="node">
<title>comments</title>
<polygon fill="#efefef" stroke="none" points="619,-228 619,-263.6 836.13,-263.6 836.13,-228 619,-228"/>
<polygon fill="none" stroke="black" points="619,-228 619,-263.6 836.13,-263.6 836.13,-228 619,-228"/>
<text text-anchor="start" x="626" y="-241.4" font-family="Arial Bold" font-size="18.00">comments</text>
<text text-anchor="start" x="699.98" y="-241.4" font-family="Arial" font-size="14.00">    </text>
<text text-anchor="start" x="731.1" y="-241.4" font-family="Arial" font-size="14.00" fill="#666666">[BASIC TABLE]</text>
<polygon fill="none" stroke="black" points="619,-197.2 619,-228 836.13,-228 836.13,-197.2 619,-197.2"/>
<text text-anchor="start" x="626" y="-209.4" font-family="Arial" font-size="14.00">id    </text>
<text text-anchor="start" x="668.01" y="-209.4" font-family="Arial" font-size="14.00" fill="#666666">[int]</text>
<polygon fill="none" stroke="black" points="619,-166.4 619,-197.2 836.13,-197.2 836.13,-166.4 619,-166.4"/>
<text text-anchor="start" x="626" y="-178.6" font-family="Arial" font-size="14.00">post_id    </text>
<text text-anchor="start" x="702.26" y="-178.6" font-family="Arial" font-size="14.00" fill="#666666">[int]</text>
<polygon fill="none" stroke="black" points="619,-135.6 619,-166.4 836.13,-166.4 836.13,-135.6 619,-135.6"/>
<text text-anchor="start" x="626" y="-147.8" font-family="Arial" font-size="14.00">user_id    </text>
<text text-anchor="start" x="703.03" y="-147.8" font-family="Arial" font-size="14.00" fill="#666666">[int]</text>
<polygon fill="none" stroke="black" points="619,-104.8 619,-135.6 836.13,-135.6 836.13,-104.8 619,-104.8"/>
<text text-anchor="start" x="626" y="-117" font-family="Arial" font-size="14.00">comment    </text>
<text text-anchor="start" x="714.69" y="-117" font-family="Arial" font-size="14.00" fill="#666666">[text]</text>
<polygon fill="none" stroke="black" points="619,-74 619,-104.8 836.13,-104.8 836.13,-74 619,-74"/>
<text text-anchor="start" x="626" y="-86.2" font-family="Arial" font-size="14.00">created    </text>
<text text-anchor="start" x="703.81" y="-86.2" font-family="Arial" font-size="14.00" fill="#666666">[date]</text>
<polygon fill="none" stroke="black" points="619,-43.2 619,-74 836.13,-74 836.13,-43.2 619,-43.2"/>
<text text-anchor="start" x="626" y="-55.4" font-family="Arial" font-size="14.00">updated    </text>
<text text-anchor="start" x="707.72" y="-55.4" font-family="Arial" font-size="14.00" fill="#666666">[date]</text>
</g>
<!-- logs&#45;&gt;comments -->
<g id="edge3" class="edge">
<title>logs:comment_id&#45;&gt;comments:id</title>
<path fill="none" stroke="black" stroke-dasharray="5,2" d="M673.42,-495.99C727.22,-486.82 689.76,-401.31 662.14,-342.8 651.48,-320.21 629.7,-329.36 619,-306.8 601.05,-268.97 576.13,-212.6 618,-212.6"/>
<polygon fill="black" stroke="black" points="673.45,-495.99 663.13,-492.29 668.13,-496.41 663.81,-496.75 663.81,-496.75 663.81,-496.75 668.13,-496.41 663.83,-501.26 673.45,-495.99"/>
<text text-anchor="start" x="670.14" y="-506.8" font-family="Arial" font-size="10.00">Additional Relation</text>
</g>
<!-- comment_stars -->
<g id="node5" class="node">
<title>comment_stars</title>
<polygon fill="#efefef" stroke="none" points="940.5,-228 940.5,-263.6 1192.63,-263.6 1192.63,-228 940.5,-228"/>
<polygon fill="none" stroke="black" points="940.5,-228 940.5,-263.6 1192.63,-263.6 1192.63,-228 940.5,-228"/>
<text text-anchor="start" x="947.5" y="-241.4" font-family="Arial Bold" font-size="18.00">comment_stars</text>
<text text-anchor="start" x="1056.48" y="-241.4" font-family="Arial" font-size="14.00">    </text>
<text text-anchor="start" x="1087.59" y="-241.4" font-family="Arial" font-size="14.00" fill="#666666">[BASIC TABLE]</text>
<polygon fill="none" stroke="black" points="940.5,-197.2 940.5,-228 1192.63,-228 1192.63,-197.2 940.5,-197.2"/>
<text text-anchor="start" x="947.5" y="-209.4" font-family="Arial" font-size="14.00">id    </text>
<text text-anchor="start" x="989.52" y="-209.4" font-family="Arial" font-size="14.00" fill="#666666">[int]</text>
<polygon fill="none" stroke="black" points="940.5,-166.4 940.5,-197.2 1192.63,-197.2 1192.63,-166.4 940.5,-166.4"/>
<text text-anchor="start" x="947.5" y="-178.6" font-family="Arial" font-size="14.00">user_id    </text>
<text text-anchor="start" x="1024.54" y="-178.6" font-family="Arial" font-size="14.00" fill="#666666">[int]</text>
<polygon fill="none" stroke="black" points="940.5,-135.6 940.5,-166.4 1192.63,-166.4 1192.63,-135.6 940.5,-135.6"/>
<text text-anchor="start" x="947.5" y="-147.8" font-family="Arial" font-size="14.00">comment_post_id    </text>
<text text-anchor="start" x="1089.12" y="-147.8" font-family="Arial" font-size="14.00" fill="#666666">[int]</text>
<polygon fill="none" stroke="black" points="940.5,-104.8 940.5,-135.6 1192.63,-135.6 1192.63,-104.8 940.5,-104.8"/>
<text text-anchor="start" x="947.5" y="-117" font-family="Arial" font-size="14.00">comment_user_id    </text>
<text text-anchor="start" x="1089.89" y="-117" font-family="Arial" font-size="14.00" fill="#666666">[int]</text>
<polygon fill="none" stroke="black" points="940.5,-74 940.5,-104.8 1192.63,-104.8 1192.63,-74 940.5,-74"/>
<text text-anchor="start" x="947.5" y="-86.2" font-family="Arial" font-size="14.00">created    </text>
<text text-anchor="start" x="1025.32" y="-86.2" font-family="Arial" font-size="14.00" fill="#666666">[date]</text>
<polygon fill="none" stroke="black" points="940.5,-43.2 940.5,-74 1192.63,-74 1192.63,-43.2 940.5,-43.2"/>
<text text-anchor="start" x="947.5" y="-55.4" font-family="Arial" font-size="14.00">updated    </text>
<text text-anchor="start" x="1029.23" y="-55.4" font-family="Arial" font-size="14.00" fill="#666666">[date]</text>
</g>
<!-- logs&#45;&gt;comment_stars -->
<g id="edge4" class="edge">
<title>logs:comment_star_id&#45;&gt;comment_stars:id</title>
<path fill="none" stroke="black" stroke-dasharray="5,2" d="M673.32,-465.84C787.06,-462.16 809.46,-395.94 888.57,-306.8 920.16,-271.2 891.91,-212.6 939.5,-212.6"/>
<polygon fill="black" stroke="black" points="673.48,-465.84 663.41,-461.5 668.14,-465.92 663.81,-465.99 663.81,-465.99 663.81,-465.99 668.14,-465.92 663.55,-470.49 673.48,-465.84"/>
<text text-anchor="start" x="670.14" y="-476" font-family="Arial" font-size="10.00">Additional Relation</text>
</g>
</g>
</svg>
