<?xml version="1.0" encoding="UTF-8" standalone="no"?>
<!DOCTYPE svg PUBLIC "-//W3C//DTD SVG 1.1//EN"
 "http://www.w3.org/Graphics/SVG/1.1/DTD/svg11.dtd">
<!-- Generated by graphviz version 12.1.2 (20240928.0832)
 -->
<!-- Title: logs Pages: 1 -->
<svg width="1238pt" height="694pt"
 viewBox="0.00 0.00 1237.54 694.40" xmlns="http://www.w3.org/2000/svg" xmlns:xlink="http://www.w3.org/1999/xlink">
<g id="graph0" class="graph" transform="scale(1 1) rotate(0) translate(4 690.4)">
<title>logs</title>
<polygon fill="white" stroke="none" points="-4,4 -4,-690.4 1233.54,-690.4 1233.54,4 -4,4"/>
<!-- logs -->
<g id="node1" class="node">
<title>logs</title>
<polygon fill="#efefef" stroke="none" points="482.69,-604.6 482.69,-640.2 655.85,-640.2 655.85,-604.6 482.69,-604.6"/>
<polygon fill="none" stroke="black" points="482.69,-604.6 482.69,-640.2 655.85,-640.2 655.85,-604.6 482.69,-604.6"/>
<text text-anchor="start" x="489.69" y="-618" font-family="Arial Bold" font-size="18.00">logs</text>
<text text-anchor="start" x="519.7" y="-618" font-family="Arial" font-size="14.00">    </text>
<text text-anchor="start" x="550.82" y="-618" font-family="Arial" font-size="14.00" fill="#666666">[BASIC TABLE]</text>
<polygon fill="none" stroke="black" points="482.69,-573.8 482.69,-604.6 655.85,-604.6 655.85,-573.8 482.69,-573.8"/>
<text text-anchor="start" x="489.69" y="-586" font-family="Arial" font-size="14.00">id </text>
<text text-anchor="start" x="504.48" y="-586" font-family="Arial" font-size="14.00" fill="#666666">[int]</text>
<polygon fill="none" stroke="black" points="482.69,-543 482.69,-573.8 655.85,-573.8 655.85,-543 482.69,-543"/>
<text text-anchor="start" x="489.69" y="-555.2" font-family="Arial" font-size="14.00">user_id </text>
<text text-anchor="start" x="539.5" y="-555.2" font-family="Arial" font-size="14.00" fill="#666666">[int]</text>
<polygon fill="none" stroke="black" points="482.69,-512.2 482.69,-543 655.85,-543 655.85,-512.2 482.69,-512.2"/>
<text text-anchor="start" x="489.69" y="-524.4" font-family="Arial" font-size="14.00">post_id </text>
<text text-anchor="start" x="538.73" y="-524.4" font-family="Arial" font-size="14.00" fill="#666666">[int]</text>
<polygon fill="none" stroke="black" points="482.69,-481.4 482.69,-512.2 655.85,-512.2 655.85,-481.4 482.69,-481.4"/>
<text text-anchor="start" x="489.69" y="-493.6" font-family="Arial" font-size="14.00">comment_id </text>
<text text-anchor="start" x="569.84" y="-493.6" font-family="Arial" font-size="14.00" fill="#666666">[int]</text>
<polygon fill="none" stroke="black" points="482.69,-450.6 482.69,-481.4 655.85,-481.4 655.85,-450.6 482.69,-450.6"/>
<text text-anchor="start" x="489.69" y="-462.8" font-family="Arial" font-size="14.00">comment_star_id </text>
<text text-anchor="start" x="600.96" y="-462.8" font-family="Arial" font-size="14.00" fill="#666666">[int]</text>
<polygon fill="none" stroke="black" points="482.69,-419.8 482.69,-450.6 655.85,-450.6 655.85,-419.8 482.69,-419.8"/>
<text text-anchor="start" x="489.69" y="-432" font-family="Arial" font-size="14.00">payload </text>
<text text-anchor="start" x="542.62" y="-432" font-family="Arial" font-size="14.00" fill="#666666">[text]</text>
<polygon fill="none" stroke="black" points="482.69,-389 482.69,-419.8 655.85,-419.8 655.85,-389 482.69,-389"/>
<text text-anchor="start" x="489.69" y="-401.2" font-family="Arial" font-size="14.00">created </text>
<text text-anchor="start" x="540.28" y="-401.2" font-family="Arial" font-size="14.00" fill="#666666">[date]</text>
<polygon fill="none" stroke="black" stroke-width="3" points="481.19,-387.5 481.19,-641.7 657.35,-641.7 657.35,-387.5 481.19,-387.5"/>
</g>
<!-- users -->
<g id="node2" class="node">
<title>users</title>
<polygon fill="#efefef" stroke="none" points="43.2,-228 43.2,-263.6 223.34,-263.6 223.34,-228 43.2,-228"/>
<polygon fill="none" stroke="black" points="43.2,-228 43.2,-263.6 223.34,-263.6 223.34,-228 43.2,-228"/>
<text text-anchor="start" x="50.2" y="-241.4" font-family="Arial Bold" font-size="18.00">users</text>
<text text-anchor="start" x="87.19" y="-241.4" font-family="Arial" font-size="14.00">    </text>
<text text-anchor="start" x="118.31" y="-241.4" font-family="Arial" font-size="14.00" fill="#666666">[BASIC TABLE]</text>
<polygon fill="none" stroke="black" points="43.2,-197.2 43.2,-228 223.34,-228 223.34,-197.2 43.2,-197.2"/>
<text text-anchor="start" x="50.2" y="-209.4" font-family="Arial" font-size="14.00">id </text>
<text text-anchor="start" x="64.99" y="-209.4" font-family="Arial" font-size="14.00" fill="#666666">[int]</text>
<polygon fill="none" stroke="black" points="43.2,-166.4 43.2,-197.2 223.34,-197.2 223.34,-166.4 43.2,-166.4"/>
<text text-anchor="start" x="50.2" y="-178.6" font-family="Arial" font-size="14.00">username </text>
<text text-anchor="start" x="116.34" y="-178.6" font-family="Arial" font-size="14.00" fill="#666666">[varchar(50)]</text>
<polygon fill="none" stroke="black" points="43.2,-135.6 43.2,-166.4 223.34,-166.4 223.34,-135.6 43.2,-135.6"/>
<text text-anchor="start" x="50.2" y="-147.8" font-family="Arial" font-size="14.00">password </text>
<text text-anchor="start" x="114.01" y="-147.8" font-family="Arial" font-size="14.00" fill="#666666">[varchar(50)]</text>
<polygon fill="none" stroke="black" points="43.2,-104.8 43.2,-135.6 223.34,-135.6 223.34,-104.8 43.2,-104.8"/>
<text text-anchor="start" x="50.2" y="-117" font-family="Arial" font-size="14.00">email </text>
<text text-anchor="start" x="87.54" y="-117" font-family="Arial" font-size="14.00" fill="#666666">[varchar(355)]</text>
<polygon fill="none" stroke="black" points="43.2,-74 43.2,-104.8 223.34,-104.8 223.34,-74 43.2,-74"/>
<text text-anchor="start" x="50.2" y="-86.2" font-family="Arial" font-size="14.00">created </text>
<text text-anchor="start" x="100.79" y="-86.2" font-family="Arial" font-size="14.00" fill="#666666">[date]</text>
<polygon fill="none" stroke="black" points="43.2,-43.2 43.2,-74 223.34,-74 223.34,-43.2 43.2,-43.2"/>
<text text-anchor="start" x="50.2" y="-55.4" font-family="Arial" font-size="14.00">updated </text>
<text text-anchor="start" x="104.7" y="-55.4" font-family="Arial" font-size="14.00" fill="#666666">[date]</text>
</g>
<!-- logs&#45;&gt;users -->
<g id="edge1" class="edge">
<title>logs:user_id&#45;&gt;users:id</title>
<path fill="none" stroke="black" stroke-dasharray="5,2" d="M471.41,-558.17C338.24,-551.96 355.12,-423.49 276.27,-306.8 249.51,-267.19 272.15,-212.6 224.34,-212.6"/>
<polygon fill="black" stroke="black" points="471.36,-558.16 481.26,-562.89 476.69,-558.29 481.02,-558.38 481.02,-558.38 481.02,-558.38 476.69,-558.29 481.46,-553.89 471.36,-558.16"/>
<text text-anchor="start" x="422.73" y="-568.4" font-family="Arial" font-size="10.00">logs&#45;&gt;users</text>
</g>
<!-- posts -->
<g id="node3" class="node">
<title>posts</title>
<polygon fill="#efefef" stroke="none" points="328.19,-228 328.19,-263.6 508.35,-263.6 508.35,-228 328.19,-228"/>
<polygon fill="none" stroke="black" points="328.19,-228 328.19,-263.6 508.35,-263.6 508.35,-228 328.19,-228"/>
<text text-anchor="start" x="335.19" y="-241.4" font-family="Arial Bold" font-size="18.00">posts</text>
<text text-anchor="start" x="372.2" y="-241.4" font-family="Arial" font-size="14.00">    </text>
<text text-anchor="start" x="403.32" y="-241.4" font-family="Arial" font-size="14.00" fill="#666666">[BASIC TABLE]</text>
<polygon fill="none" stroke="black" points="328.19,-197.2 328.19,-228 508.35,-228 508.35,-197.2 328.19,-197.2"/>
<text text-anchor="start" x="335.19" y="-209.4" font-family="Arial" font-size="14.00">id </text>
<text text-anchor="start" x="349.98" y="-209.4" font-family="Arial" font-size="14.00" fill="#666666">[int]</text>
<polygon fill="none" stroke="black" points="328.19,-166.4 328.19,-197.2 508.35,-197.2 508.35,-166.4 328.19,-166.4"/>
<text text-anchor="start" x="335.19" y="-178.6" font-family="Arial" font-size="14.00">user_id </text>
<text text-anchor="start" x="385" y="-178.6" font-family="Arial" font-size="14.00" fill="#666666">[int]</text>
<polygon fill="none" stroke="black" points="328.19,-135.6 328.19,-166.4 508.35,-166.4 508.35,-135.6 328.19,-135.6"/>
<text text-anchor="start" x="335.19" y="-147.8" font-family="Arial" font-size="14.00">title </text>
<text text-anchor="start" x="360.87" y="-147.8" font-family="Arial" font-size="14.00" fill="#666666">[varchar(255)]</text>
<polygon fill="none" stroke="black" points="328.19,-104.8 328.19,-135.6 508.35,-135.6 508.35,-104.8 328.19,-104.8"/>
<text text-anchor="start" x="335.19" y="-117" font-family="Arial" font-size="14.00">body </text>
<text text-anchor="start" x="369.44" y="-117" font-family="Arial" font-size="14.00" fill="#666666">[text]</text>
<polygon fill="none" stroke="black" points="328.19,-74 328.19,-104.8 508.35,-104.8 508.35,-74 328.19,-74"/>
<text text-anchor="start" x="335.19" y="-86.2" font-family="Arial" font-size="14.00">created </text>
<text text-anchor="start" x="385.78" y="-86.2" font-family="Arial" font-size="14.00" fill="#666666">[date]</text>
<polygon fill="none" stroke="black" points="328.19,-43.2 328.19,-74 508.35,-74 508.35,-43.2 328.19,-43.2"/>
<text text-anchor="start" x="335.19" y="-55.4" font-family="Arial" font-size="14.00">updated </text>
<text text-anchor="start" x="389.69" y="-55.4" font-family="Arial" font-size="14.00" fill="#666666">[date]</text>
</g>
<!-- logs&#45;&gt;posts -->
<g id="edge2" class="edge">
<title>logs:post_id&#45;&gt;posts:id</title>
<path fill="none" stroke="black" stroke-dasharray="5,2" d="M471.46,-526.97C404.69,-518.08 458.59,-417.45 482.69,-342.8 488.73,-324.1 502.27,-325.48 508.35,-306.8 521.32,-266.99 551.22,-212.6 509.35,-212.6"/>
<polygon fill="black" stroke="black" points="471.38,-526.96 481.08,-532.07 476.7,-527.29 481.03,-527.56 481.03,-527.56 481.03,-527.56 476.7,-527.29 481.64,-523.09 471.38,-526.96"/>
<text text-anchor="start" x="391.3" y="-537.6" font-family="Arial" font-size="10.00">Additional Relation</text>
</g>
<!-- comments -->
<g id="node4" class="node">
<title>comments</title>
<polygon fill="#efefef" stroke="none" points="612.7,-228 612.7,-263.6 829.84,-263.6 829.84,-228 612.7,-228"/>
<polygon fill="none" stroke="black" points="612.7,-228 612.7,-263.6 829.84,-263.6 829.84,-228 612.7,-228"/>
<text text-anchor="start" x="619.7" y="-241.4" font-family="Arial Bold" font-size="18.00">comments</text>
<text text-anchor="start" x="693.69" y="-241.4" font-family="Arial" font-size="14.00">    </text>
<text text-anchor="start" x="724.81" y="-241.4" font-family="Arial" font-size="14.00" fill="#666666">[BASIC TABLE]</text>
<polygon fill="none" stroke="black" points="612.7,-197.2 612.7,-228 829.84,-228 829.84,-197.2 612.7,-197.2"/>
<text text-anchor="start" x="619.7" y="-209.4" font-family="Arial" font-size="14.00">id </text>
<text text-anchor="start" x="634.49" y="-209.4" font-family="Arial" font-size="14.00" fill="#666666">[int]</text>
<polygon fill="none" stroke="black" points="612.7,-166.4 612.7,-197.2 829.84,-197.2 829.84,-166.4 612.7,-166.4"/>
<text text-anchor="start" x="619.7" y="-178.6" font-family="Arial" font-size="14.00">post_id </text>
<text text-anchor="start" x="668.74" y="-178.6" font-family="Arial" font-size="14.00" fill="#666666">[int]</text>
<polygon fill="none" stroke="black" points="612.7,-135.6 612.7,-166.4 829.84,-166.4 829.84,-135.6 612.7,-135.6"/>
<text text-anchor="start" x="619.7" y="-147.8" font-family="Arial" font-size="14.00">user_id </text>
<text text-anchor="start" x="669.51" y="-147.8" font-family="Arial" font-size="14.00" fill="#666666">[int]</text>
<polygon fill="none" stroke="black" points="612.7,-104.8 612.7,-135.6 829.84,-135.6 829.84,-104.8 612.7,-104.8"/>
<text text-anchor="start" x="619.7" y="-117" font-family="Arial" font-size="14.00">comment </text>
<text text-anchor="start" x="681.17" y="-117" font-family="Arial" font-size="14.00" fill="#666666">[text]</text>
<polygon fill="none" stroke="black" points="612.7,-74 612.7,-104.8 829.84,-104.8 829.84,-74 612.7,-74"/>
<text text-anchor="start" x="619.7" y="-86.2" font-family="Arial" font-size="14.00">created </text>
<text text-anchor="start" x="670.29" y="-86.2" font-family="Arial" font-size="14.00" fill="#666666">[date]</text>
<polygon fill="none" stroke="black" points="612.7,-43.2 612.7,-74 829.84,-74 829.84,-43.2 612.7,-43.2"/>
<text text-anchor="start" x="619.7" y="-55.4" font-family="Arial" font-size="14.00">updated </text>
<text text-anchor="start" x="674.2" y="-55.4" font-family="Arial" font-size="14.00" fill="#666666">[date]</text>
</g>
<!-- logs&#45;&gt;comments -->
<g id="edge3" class="edge">
<title>logs:comment_id&#45;&gt;comments:id</title>
<path fill="none" stroke="black" stroke-dasharray="5,2" d="M667.12,-495.99C720.93,-486.82 683.47,-401.31 655.85,-342.8 645.19,-320.21 623.41,-329.36 612.7,-306.8 594.75,-268.97 569.83,-212.6 611.7,-212.6"/>
<polygon fill="black" stroke="black" points="667.15,-495.99 656.83,-492.29 661.84,-496.41 657.52,-496.75 657.52,-496.75 657.52,-496.75 661.84,-496.41 657.54,-501.26 667.15,-495.99"/>
<text text-anchor="start" x="663.85" y="-506.8" font-family="Arial" font-size="10.00">Additional Relation</text>
</g>
<!-- comment_stars -->
<g id="node5" class="node">
<title>comment_stars</title>
<polygon fill="#efefef" stroke="none" points="934.21,-228 934.21,-263.6 1186.34,-263.6 1186.34,-228 934.21,-228"/>
<polygon fill="none" stroke="black" points="934.21,-228 934.21,-263.6 1186.34,-263.6 1186.34,-228 934.21,-228"/>
<text text-anchor="start" x="941.21" y="-241.4" font-family="Arial Bold" font-size="18.00">comment_stars</text>
<text text-anchor="start" x="1050.18" y="-241.4" font-family="Arial" font-size="14.00">    </text>
<text text-anchor="start" x="1081.3" y="-241.4" font-family="Arial" font-size="14.00" fill="#666666">[BASIC TABLE]</text>
<polygon fill="none" stroke="black" points="934.21,-197.2 934.21,-228 1186.34,-228 1186.34,-197.2 934.21,-197.2"/>
<text text-anchor="start" x="941.21" y="-209.4" font-family="Arial" font-size="14.00">id </text>
<text text-anchor="start" x="955.99" y="-209.4" font-family="Arial" font-size="14.00" fill="#666666">[int]</text>
<polygon fill="none" stroke="black" points="934.21,-166.4 934.21,-197.2 1186.34,-197.2 1186.34,-166.4 934.21,-166.4"/>
<text text-anchor="start" x="941.21" y="-178.6" font-family="Arial" font-size="14.00">user_id </text>
<text text-anchor="start" x="991.02" y="-178.6" font-family="Arial" font-size="14.00" fill="#666666">[int]</text>
<polygon fill="none" stroke="black" points="934.21,-135.6 934.21,-166.4 1186.34,-166.4 1186.34,-135.6 934.21,-135.6"/>
<text text-anchor="start" x="941.21" y="-147.8" font-family="Arial" font-size="14.00">comment_post_id </text>
<text text-anchor="start" x="1055.6" y="-147.8" font-family="Arial" font-size="14.00" fill="#666666">[int]</text>
<polygon fill="none" stroke="black" points="934.21,-104.8 934.21,-135.6 1186.34,-135.6 1186.34,-104.8 934.21,-104.8"/>
<text text-anchor="start" x="941.21" y="-117" font-family="Arial" font-size="14.00">comment_user_id </text>
<text text-anchor="start" x="1056.37" y="-117" font-family="Arial" font-size="14.00" fill="#666666">[int]</text>
<polygon fill="none" stroke="black" points="934.21,-74 934.21,-104.8 1186.34,-104.8 1186.34,-74 934.21,-74"/>
<text text-anchor="start" x="941.21" y="-86.2" font-family="Arial" font-size="14.00">created </text>
<text text-anchor="start" x="991.79" y="-86.2" font-family="Arial" font-size="14.00" fill="#666666">[date]</text>
<polygon fill="none" stroke="black" points="934.21,-43.2 934.21,-74 1186.34,-74 1186.34,-43.2 934.21,-43.2"/>
<text text-anchor="start" x="941.21" y="-55.4" font-family="Arial" font-size="14.00">updated </text>
<text text-anchor="start" x="995.7" y="-55.4" font-family="Arial" font-size="14.00" fill="#666666">[date]</text>
</g>
<!-- logs&#45;&gt;comment_stars -->
<g id="edge4" class="edge">
<title>logs:comment_star_id&#45;&gt;comment_stars:id</title>
<path fill="none" stroke="black" stroke-dasharray="5,2" d="M667.03,-465.84C780.76,-462.16 803.17,-395.94 882.27,-306.8 913.86,-271.2 885.61,-212.6 933.21,-212.6"/>
<polygon fill="black" stroke="black" points="667.18,-465.84 657.11,-461.5 661.85,-465.92 657.52,-465.99 657.52,-465.99 657.52,-465.99 661.85,-465.92 657.26,-470.49 667.18,-465.84"/>
<text text-anchor="start" x="663.85" y="-476" font-family="Arial" font-size="10.00">Additional Relation</text>
</g>
</g>
</svg>
