<?xml version="1.0" encoding="UTF-8" standalone="no"?>
<!DOCTYPE svg PUBLIC "-//W3C//DTD SVG 1.1//EN"
 "http://www.w3.org/Graphics/SVG/1.1/DTD/svg11.dtd">
<!-- Generated by graphviz version 2.40.1 (20161225.0304)
 -->
<!-- Title: logs Pages: 1 -->
<svg width="1160pt" height="682pt"
 viewBox="0.00 0.00 1159.50 682.00" xmlns="http://www.w3.org/2000/svg" xmlns:xlink="http://www.w3.org/1999/xlink">
<g id="graph0" class="graph" transform="scale(1 1) rotate(0) translate(4 678)">
<title>logs</title>
<polygon fill="#ffffff" stroke="transparent" points="-4,4 -4,-678 1155.5,-678 1155.5,4 -4,4"/>
<!-- logs -->
<g id="node1" class="node">
<title>logs</title>
<polygon fill="#efefef" stroke="transparent" points="452.5,-592.5 452.5,-627.5 600.5,-627.5 600.5,-592.5 452.5,-592.5"/>
<polygon fill="none" stroke="#000000" points="452.5,-592.5 452.5,-627.5 600.5,-627.5 600.5,-592.5 452.5,-592.5"/>
<text text-anchor="start" x="459.0395" y="-605.3" font-family="Arial Bold" font-size="18.00" fill="#000000">logs</text>
<text text-anchor="start" x="492.0461" y="-605.3" font-family="Arial" font-size="14.00" fill="#000000"> </text>
<text text-anchor="start" x="495.9367" y="-605.3" font-family="Arial" font-size="14.00" fill="#666666">[BASIC TABLE]</text>
<polygon fill="none" stroke="#000000" points="452.5,-562.5 452.5,-592.5 600.5,-592.5 600.5,-562.5 452.5,-562.5"/>
<text text-anchor="start" x="459.5" y="-573.9" font-family="Arial" font-size="14.00" fill="#000000">id </text>
<text text-anchor="start" x="474.2798" y="-573.9" font-family="Arial" font-size="14.00" fill="#666666">[int]</text>
<polygon fill="none" stroke="#000000" points="452.5,-532.5 452.5,-562.5 600.5,-562.5 600.5,-532.5 452.5,-532.5"/>
<text text-anchor="start" x="459.5" y="-543.9" font-family="Arial" font-size="14.00" fill="#000000">user_id </text>
<text text-anchor="start" x="509.2882" y="-543.9" font-family="Arial" font-size="14.00" fill="#666666">[int]</text>
<polygon fill="none" stroke="#000000" points="452.5,-502.5 452.5,-532.5 600.5,-532.5 600.5,-502.5 452.5,-502.5"/>
<text text-anchor="start" x="459.5" y="-513.9" font-family="Arial" font-size="14.00" fill="#000000">post_id </text>
<text text-anchor="start" x="508.5182" y="-513.9" font-family="Arial" font-size="14.00" fill="#666666">[int]</text>
<polygon fill="none" stroke="#000000" points="452.5,-472.5 452.5,-502.5 600.5,-502.5 600.5,-472.5 452.5,-472.5"/>
<text text-anchor="start" x="459.5" y="-483.9" font-family="Arial" font-size="14.00" fill="#000000">comment_id </text>
<text text-anchor="start" x="539.622" y="-483.9" font-family="Arial" font-size="14.00" fill="#666666">[int]</text>
<polygon fill="none" stroke="#000000" points="452.5,-442.5 452.5,-472.5 600.5,-472.5 600.5,-442.5 452.5,-442.5"/>
<text text-anchor="start" x="459.5" y="-453.9" font-family="Arial" font-size="14.00" fill="#000000">comment_star_id </text>
<text text-anchor="start" x="570.7384" y="-453.9" font-family="Arial" font-size="14.00" fill="#666666">[int]</text>
<polygon fill="none" stroke="#000000" points="452.5,-412.5 452.5,-442.5 600.5,-442.5 600.5,-412.5 452.5,-412.5"/>
<text text-anchor="start" x="459.5" y="-423.9" font-family="Arial" font-size="14.00" fill="#000000">payload </text>
<text text-anchor="start" x="512.4102" y="-423.9" font-family="Arial" font-size="14.00" fill="#666666">[text]</text>
<polygon fill="none" stroke="#000000" points="452.5,-382.5 452.5,-412.5 600.5,-412.5 600.5,-382.5 452.5,-382.5"/>
<text text-anchor="start" x="459.5" y="-393.9" font-family="Arial" font-size="14.00" fill="#000000">created </text>
<text text-anchor="start" x="510.0722" y="-393.9" font-family="Arial" font-size="14.00" fill="#666666">[date]</text>
<polygon fill="none" stroke="#000000" stroke-width="3" points="451,-381.5 451,-629.5 602,-629.5 602,-381.5 451,-381.5"/>
</g>
<!-- users -->
<g id="node2" class="node">
<title>users</title>
<polygon fill="#efefef" stroke="transparent" points="43.5,-222.5 43.5,-257.5 202.5,-257.5 202.5,-222.5 43.5,-222.5"/>
<polygon fill="none" stroke="#000000" points="43.5,-222.5 43.5,-257.5 202.5,-257.5 202.5,-222.5 43.5,-222.5"/>
<text text-anchor="start" x="50.0405" y="-235.3" font-family="Arial Bold" font-size="18.00" fill="#000000">users</text>
<text text-anchor="start" x="94.0451" y="-235.3" font-family="Arial" font-size="14.00" fill="#000000"> </text>
<text text-anchor="start" x="97.9357" y="-235.3" font-family="Arial" font-size="14.00" fill="#666666">[BASIC TABLE]</text>
<polygon fill="none" stroke="#000000" points="43.5,-192.5 43.5,-222.5 202.5,-222.5 202.5,-192.5 43.5,-192.5"/>
<text text-anchor="start" x="50.5" y="-203.9" font-family="Arial" font-size="14.00" fill="#000000">id </text>
<text text-anchor="start" x="65.2798" y="-203.9" font-family="Arial" font-size="14.00" fill="#666666">[int]</text>
<polygon fill="none" stroke="#000000" points="43.5,-162.5 43.5,-192.5 202.5,-192.5 202.5,-162.5 43.5,-162.5"/>
<text text-anchor="start" x="50.2693" y="-173.9" font-family="Arial" font-size="14.00" fill="#000000">username </text>
<text text-anchor="start" x="116.3941" y="-173.9" font-family="Arial" font-size="14.00" fill="#666666">[varchar(50)]</text>
<polygon fill="none" stroke="#000000" points="43.5,-132.5 43.5,-162.5 202.5,-162.5 202.5,-132.5 43.5,-132.5"/>
<text text-anchor="start" x="50.5" y="-143.9" font-family="Arial" font-size="14.00" fill="#000000">password </text>
<text text-anchor="start" x="114.2882" y="-143.9" font-family="Arial" font-size="14.00" fill="#666666">[varchar(50)]</text>
<polygon fill="none" stroke="#000000" points="43.5,-102.5 43.5,-132.5 202.5,-132.5 202.5,-102.5 43.5,-102.5"/>
<text text-anchor="start" x="50.5" y="-113.9" font-family="Arial" font-size="14.00" fill="#000000">email </text>
<text text-anchor="start" x="87.8296" y="-113.9" font-family="Arial" font-size="14.00" fill="#666666">[varchar(355)]</text>
<polygon fill="none" stroke="#000000" points="43.5,-72.5 43.5,-102.5 202.5,-102.5 202.5,-72.5 43.5,-72.5"/>
<text text-anchor="start" x="50.5" y="-83.9" font-family="Arial" font-size="14.00" fill="#000000">created </text>
<text text-anchor="start" x="101.0722" y="-83.9" font-family="Arial" font-size="14.00" fill="#666666">[date]</text>
<polygon fill="none" stroke="#000000" points="43.5,-42.5 43.5,-72.5 202.5,-72.5 202.5,-42.5 43.5,-42.5"/>
<text text-anchor="start" x="50.5" y="-53.9" font-family="Arial" font-size="14.00" fill="#000000">updated </text>
<text text-anchor="start" x="104.9768" y="-53.9" font-family="Arial" font-size="14.00" fill="#666666">[date]</text>
</g>
<!-- logs&#45;&gt;users -->
<g id="edge1" class="edge">
<title>logs:user_id&#45;&gt;users:id</title>
<path fill="none" stroke="#000000" stroke-dasharray="5,2" d="M442.4928,-547.2698C312.9419,-541.1651 331.0152,-414.7516 254.5,-301 227.9608,-261.5455 250.0498,-207.5 202.5,-207.5"/>
<polygon fill="#000000" stroke="#000000" points="442.5026,-547.2699 452.3965,-551.9988 447.5013,-547.385 452.5,-547.5 452.5,-547.5 452.5,-547.5 447.5013,-547.385 452.6035,-543.0012 442.5026,-547.2699 442.5026,-547.2699"/>
<text text-anchor="start" x="394.524" y="-557.5" font-family="Arial" font-size="10.00" fill="#000000">logs&#45;&gt;users</text>
</g>
<!-- posts -->
<g id="node3" class="node">
<title>posts</title>
<polygon fill="#efefef" stroke="transparent" points="306.5,-222.5 306.5,-257.5 464.5,-257.5 464.5,-222.5 306.5,-222.5"/>
<polygon fill="none" stroke="#000000" points="306.5,-222.5 306.5,-257.5 464.5,-257.5 464.5,-222.5 306.5,-222.5"/>
<text text-anchor="start" x="313.0355" y="-235.3" font-family="Arial Bold" font-size="18.00" fill="#000000">posts</text>
<text text-anchor="start" x="356.0501" y="-235.3" font-family="Arial" font-size="14.00" fill="#000000"> </text>
<text text-anchor="start" x="359.9407" y="-235.3" font-family="Arial" font-size="14.00" fill="#666666">[BASIC TABLE]</text>
<polygon fill="none" stroke="#000000" points="306.5,-192.5 306.5,-222.5 464.5,-222.5 464.5,-192.5 306.5,-192.5"/>
<text text-anchor="start" x="313.5" y="-203.9" font-family="Arial" font-size="14.00" fill="#000000">id </text>
<text text-anchor="start" x="328.2798" y="-203.9" font-family="Arial" font-size="14.00" fill="#666666">[int]</text>
<polygon fill="none" stroke="#000000" points="306.5,-162.5 306.5,-192.5 464.5,-192.5 464.5,-162.5 306.5,-162.5"/>
<text text-anchor="start" x="313.5" y="-173.9" font-family="Arial" font-size="14.00" fill="#000000">user_id </text>
<text text-anchor="start" x="363.2882" y="-173.9" font-family="Arial" font-size="14.00" fill="#666666">[int]</text>
<polygon fill="none" stroke="#000000" points="306.5,-132.5 306.5,-162.5 464.5,-162.5 464.5,-132.5 306.5,-132.5"/>
<text text-anchor="start" x="313.5" y="-143.9" font-family="Arial" font-size="14.00" fill="#000000">title </text>
<text text-anchor="start" x="339.1676" y="-143.9" font-family="Arial" font-size="14.00" fill="#666666">[varchar(255)]</text>
<polygon fill="none" stroke="#000000" points="306.5,-102.5 306.5,-132.5 464.5,-132.5 464.5,-102.5 306.5,-102.5"/>
<text text-anchor="start" x="313.5" y="-113.9" font-family="Arial" font-size="14.00" fill="#000000">body </text>
<text text-anchor="start" x="347.7384" y="-113.9" font-family="Arial" font-size="14.00" fill="#666666">[text]</text>
<polygon fill="none" stroke="#000000" points="306.5,-72.5 306.5,-102.5 464.5,-102.5 464.5,-72.5 306.5,-72.5"/>
<text text-anchor="start" x="313.5" y="-83.9" font-family="Arial" font-size="14.00" fill="#000000">created </text>
<text text-anchor="start" x="364.0722" y="-83.9" font-family="Arial" font-size="14.00" fill="#666666">[date]</text>
<polygon fill="none" stroke="#000000" points="306.5,-42.5 306.5,-72.5 464.5,-72.5 464.5,-42.5 306.5,-42.5"/>
<text text-anchor="start" x="313.5" y="-53.9" font-family="Arial" font-size="14.00" fill="#000000">updated </text>
<text text-anchor="start" x="367.9768" y="-53.9" font-family="Arial" font-size="14.00" fill="#666666">[date]</text>
</g>
<!-- logs&#45;&gt;posts -->
<g id="edge2" class="edge">
<title>logs:post_id&#45;&gt;posts:id</title>
<path fill="none" stroke="#000000" stroke-dasharray="5,2" d="M442.1708,-516.8449C378.4741,-508.0505 440.2522,-412.4745 452.5,-337 455.2016,-320.3523 461.7984,-317.6477 464.5,-301 471.1565,-259.981 506.0556,-207.5 464.5,-207.5"/>
<polygon fill="#000000" stroke="#000000" points="442.5201,-516.8669 452.2151,-521.991 447.51,-517.1835 452.5,-517.5 452.5,-517.5 452.5,-517.5 447.51,-517.1835 452.7849,-513.009 442.5201,-516.8669 442.5201,-516.8669"/>
<text text-anchor="start" x="362.8245" y="-527.5" font-family="Arial" font-size="10.00" fill="#000000">Additional Relation</text>
</g>
<!-- comments -->
<g id="node4" class="node">
<title>comments</title>
<polygon fill="#efefef" stroke="transparent" points="568.5,-222.5 568.5,-257.5 766.5,-257.5 766.5,-222.5 568.5,-222.5"/>
<polygon fill="none" stroke="#000000" points="568.5,-222.5 568.5,-257.5 766.5,-257.5 766.5,-222.5 568.5,-222.5"/>
<text text-anchor="start" x="575.0402" y="-235.3" font-family="Arial Bold" font-size="18.00" fill="#000000">comments</text>
<text text-anchor="start" x="658.0454" y="-235.3" font-family="Arial" font-size="14.00" fill="#000000"> </text>
<text text-anchor="start" x="661.936" y="-235.3" font-family="Arial" font-size="14.00" fill="#666666">[BASIC TABLE]</text>
<polygon fill="none" stroke="#000000" points="568.5,-192.5 568.5,-222.5 766.5,-222.5 766.5,-192.5 568.5,-192.5"/>
<text text-anchor="start" x="575.5" y="-203.9" font-family="Arial" font-size="14.00" fill="#000000">id </text>
<text text-anchor="start" x="590.2798" y="-203.9" font-family="Arial" font-size="14.00" fill="#666666">[int]</text>
<polygon fill="none" stroke="#000000" points="568.5,-162.5 568.5,-192.5 766.5,-192.5 766.5,-162.5 568.5,-162.5"/>
<text text-anchor="start" x="575.5" y="-173.9" font-family="Arial" font-size="14.00" fill="#000000">post_id </text>
<text text-anchor="start" x="624.5182" y="-173.9" font-family="Arial" font-size="14.00" fill="#666666">[int]</text>
<polygon fill="none" stroke="#000000" points="568.5,-132.5 568.5,-162.5 766.5,-162.5 766.5,-132.5 568.5,-132.5"/>
<text text-anchor="start" x="575.5" y="-143.9" font-family="Arial" font-size="14.00" fill="#000000">user_id </text>
<text text-anchor="start" x="625.2882" y="-143.9" font-family="Arial" font-size="14.00" fill="#666666">[int]</text>
<polygon fill="none" stroke="#000000" points="568.5,-102.5 568.5,-132.5 766.5,-132.5 766.5,-102.5 568.5,-102.5"/>
<text text-anchor="start" x="575.5" y="-113.9" font-family="Arial" font-size="14.00" fill="#000000">comment </text>
<text text-anchor="start" x="636.9502" y="-113.9" font-family="Arial" font-size="14.00" fill="#666666">[text]</text>
<polygon fill="none" stroke="#000000" points="568.5,-72.5 568.5,-102.5 766.5,-102.5 766.5,-72.5 568.5,-72.5"/>
<text text-anchor="start" x="575.5" y="-83.9" font-family="Arial" font-size="14.00" fill="#000000">created </text>
<text text-anchor="start" x="626.0722" y="-83.9" font-family="Arial" font-size="14.00" fill="#666666">[date]</text>
<polygon fill="none" stroke="#000000" points="568.5,-42.5 568.5,-72.5 766.5,-72.5 766.5,-42.5 568.5,-42.5"/>
<text text-anchor="start" x="575.5" y="-53.9" font-family="Arial" font-size="14.00" fill="#000000">updated </text>
<text text-anchor="start" x="629.9768" y="-53.9" font-family="Arial" font-size="14.00" fill="#666666">[date]</text>
</g>
<!-- logs&#45;&gt;comments -->
<g id="edge3" class="edge">
<title>logs:comment_id&#45;&gt;comments:id</title>
<path fill="none" stroke="#000000" stroke-dasharray="5,2" d="M610.5081,-486.7292C662.7307,-477.9536 622.971,-396.1033 600.5,-337 592.8923,-316.9902 576.1077,-321.0098 568.5,-301 553.732,-262.1571 526.9444,-207.5 568.5,-207.5"/>
<polygon fill="#000000" stroke="#000000" points="610.4705,-486.732 600.1544,-483.0133 605.4852,-487.116 600.5,-487.5 600.5,-487.5 600.5,-487.5 605.4852,-487.116 600.8456,-491.9867 610.4705,-486.732 610.4705,-486.732"/>
<text text-anchor="start" x="607.8245" y="-497.5" font-family="Arial" font-size="10.00" fill="#000000">Additional Relation</text>
</g>
<!-- comment_stars -->
<g id="node5" class="node">
<title>comment_stars</title>
<polygon fill="#efefef" stroke="transparent" points="870.5,-222.5 870.5,-257.5 1108.5,-257.5 1108.5,-222.5 870.5,-222.5"/>
<polygon fill="none" stroke="#000000" points="870.5,-222.5 870.5,-257.5 1108.5,-257.5 1108.5,-222.5 870.5,-222.5"/>
<text text-anchor="start" x="877.0368" y="-235.3" font-family="Arial Bold" font-size="18.00" fill="#000000">comment_stars</text>
<text text-anchor="start" x="1000.0488" y="-235.3" font-family="Arial" font-size="14.00" fill="#000000"> </text>
<text text-anchor="start" x="1003.9394" y="-235.3" font-family="Arial" font-size="14.00" fill="#666666">[BASIC TABLE]</text>
<polygon fill="none" stroke="#000000" points="870.5,-192.5 870.5,-222.5 1108.5,-222.5 1108.5,-192.5 870.5,-192.5"/>
<text text-anchor="start" x="877.5" y="-203.9" font-family="Arial" font-size="14.00" fill="#000000">id </text>
<text text-anchor="start" x="892.2798" y="-203.9" font-family="Arial" font-size="14.00" fill="#666666">[int]</text>
<polygon fill="none" stroke="#000000" points="870.5,-162.5 870.5,-192.5 1108.5,-192.5 1108.5,-162.5 870.5,-162.5"/>
<text text-anchor="start" x="877.5" y="-173.9" font-family="Arial" font-size="14.00" fill="#000000">user_id </text>
<text text-anchor="start" x="927.2882" y="-173.9" font-family="Arial" font-size="14.00" fill="#666666">[int]</text>
<polygon fill="none" stroke="#000000" points="870.5,-132.5 870.5,-162.5 1108.5,-162.5 1108.5,-132.5 870.5,-132.5"/>
<text text-anchor="start" x="877.5" y="-143.9" font-family="Arial" font-size="14.00" fill="#000000">comment_post_id </text>
<text text-anchor="start" x="991.8604" y="-143.9" font-family="Arial" font-size="14.00" fill="#666666">[int]</text>
<polygon fill="none" stroke="#000000" points="870.5,-102.5 870.5,-132.5 1108.5,-132.5 1108.5,-102.5 870.5,-102.5"/>
<text text-anchor="start" x="877.5" y="-113.9" font-family="Arial" font-size="14.00" fill="#000000">comment_user_id </text>
<text text-anchor="start" x="992.6304" y="-113.9" font-family="Arial" font-size="14.00" fill="#666666">[int]</text>
<polygon fill="none" stroke="#000000" points="870.5,-72.5 870.5,-102.5 1108.5,-102.5 1108.5,-72.5 870.5,-72.5"/>
<text text-anchor="start" x="877.5" y="-83.9" font-family="Arial" font-size="14.00" fill="#000000">created </text>
<text text-anchor="start" x="928.0722" y="-83.9" font-family="Arial" font-size="14.00" fill="#666666">[date]</text>
<polygon fill="none" stroke="#000000" points="870.5,-42.5 870.5,-72.5 1108.5,-72.5 1108.5,-42.5 870.5,-42.5"/>
<text text-anchor="start" x="877.5" y="-53.9" font-family="Arial" font-size="14.00" fill="#000000">updated </text>
<text text-anchor="start" x="931.9768" y="-53.9" font-family="Arial" font-size="14.00" fill="#666666">[date]</text>
</g>
<!-- logs&#45;&gt;comment_stars -->
<g id="edge4" class="edge">
<title>logs:comment_star_id&#45;&gt;comment_stars:id</title>
<path fill="none" stroke="#000000" stroke-dasharray="5,2" d="M610.7296,-457.3275C720.9576,-453.5292 741.4773,-387.4386 818.5,-301 850.1336,-265.4992 822.9502,-207.5 870.5,-207.5"/>
<polygon fill="#000000" stroke="#000000" points="610.4986,-457.3313 600.4241,-453.0006 605.4993,-457.4156 600.5,-457.5 600.5,-457.5 600.5,-457.5 605.4993,-457.4156 600.5759,-461.9994 610.4986,-457.3313 610.4986,-457.3313"/>
<text text-anchor="start" x="607.8245" y="-467.5" font-family="Arial" font-size="10.00" fill="#000000">Additional Relation</text>
</g>
</g>
</svg>
