<?xml version="1.0" encoding="UTF-8" standalone="no"?>
<!DOCTYPE svg PUBLIC "-//W3C//DTD SVG 1.1//EN"
 "http://www.w3.org/Graphics/SVG/1.1/DTD/svg11.dtd">
<!-- Generated by graphviz version 12.1.2 (20240928.0832)
 -->
<!-- Title: name with spaces Pages: 1 -->
<svg width="316pt" height="167pt"
 viewBox="0.00 0.00 316.03 166.80" xmlns="http://www.w3.org/2000/svg" xmlns:xlink="http://www.w3.org/1999/xlink">
<g id="graph0" class="graph" transform="scale(1 1) rotate(0) translate(4 162.8)">
<title>name with spaces</title>
<polygon fill="white" stroke="none" points="-4,4 -4,-162.8 312.03,-162.8 312.03,4 -4,4"/>
<!-- name with spaces -->
<g id="node1" class="node">
<title>name with spaces</title>
<polygon fill="#efefef" stroke="none" points="46.2,-77 46.2,-112.6 261.83,-112.6 261.83,-77 46.2,-77"/>
<polygon fill="none" stroke="black" points="46.2,-77 46.2,-112.6 261.83,-112.6 261.83,-77 46.2,-77"/>
<text text-anchor="start" x="53.2" y="-90.4" font-family="Arial Bold" font-size="18.00">name with spaces</text>
<text text-anchor="start" x="180.16" y="-90.4" font-family="Arial" font-size="14.00">    </text>
<text text-anchor="start" x="211.28" y="-90.4" font-family="Arial" font-size="14.00" fill="#666666">[VIEW]</text>
<polygon fill="none" stroke="black" points="46.2,-46.2 46.2,-77 261.83,-77 261.83,-46.2 46.2,-46.2"/>
<text text-anchor="start" x="53.2" y="-58.4" font-family="Arial" font-size="14.00">title </text>
<text text-anchor="start" x="78.88" y="-58.4" font-family="Arial" font-size="14.00" fill="#666666">[varchar(255)]</text>
<polygon fill="none" stroke="black" stroke-width="3" points="44.7,-44.7 44.7,-114.1 263.33,-114.1 263.33,-44.7 44.7,-44.7"/>
</g>
</g>
</svg>
