<?xml version="1.0" encoding="UTF-8" standalone="no"?>
<!DOCTYPE svg PUBLIC "-//W3C//DTD SVG 1.1//EN"
 "http://www.w3.org/Graphics/SVG/1.1/DTD/svg11.dtd">
<!-- Generated by graphviz version 2.40.1 (20161225.0304)
 -->
<!-- Title: posts Pages: 1 -->
<svg width="544pt" height="1019pt"
 viewBox="0.00 0.00 544.00 1019.00" xmlns="http://www.w3.org/2000/svg" xmlns:xlink="http://www.w3.org/1999/xlink">
<g id="graph0" class="graph" transform="scale(1 1) rotate(0) translate(4 1015)">
<title>posts</title>
<polygon fill="#ffffff" stroke="transparent" points="-4,4 -4,-1015 540,-1015 540,4 -4,4"/>
<!-- posts -->
<g id="node1" class="node">
<title>posts</title>
<polygon fill="#efefef" stroke="transparent" points="201,-562.5 201,-597.5 359,-597.5 359,-562.5 201,-562.5"/>
<polygon fill="none" stroke="#000000" points="201,-562.5 201,-597.5 359,-597.5 359,-562.5 201,-562.5"/>
<text text-anchor="start" x="207.5355" y="-575.3" font-family="Arial Bold" font-size="18.00" fill="#000000">posts</text>
<text text-anchor="start" x="250.5501" y="-575.3" font-family="Arial" font-size="14.00" fill="#000000"> </text>
<text text-anchor="start" x="254.4407" y="-575.3" font-family="Arial" font-size="14.00" fill="#666666">[BASIC TABLE]</text>
<polygon fill="none" stroke="#000000" points="201,-532.5 201,-562.5 359,-562.5 359,-532.5 201,-532.5"/>
<text text-anchor="start" x="208" y="-543.9" font-family="Arial" font-size="14.00" fill="#000000">id </text>
<text text-anchor="start" x="222.7798" y="-543.9" font-family="Arial" font-size="14.00" fill="#666666">[int]</text>
<polygon fill="none" stroke="#000000" points="201,-502.5 201,-532.5 359,-532.5 359,-502.5 201,-502.5"/>
<text text-anchor="start" x="208" y="-513.9" font-family="Arial" font-size="14.00" fill="#000000">user_id </text>
<text text-anchor="start" x="257.7882" y="-513.9" font-family="Arial" font-size="14.00" fill="#666666">[int]</text>
<polygon fill="none" stroke="#000000" points="201,-472.5 201,-502.5 359,-502.5 359,-472.5 201,-472.5"/>
<text text-anchor="start" x="208" y="-483.9" font-family="Arial" font-size="14.00" fill="#000000">title </text>
<text text-anchor="start" x="233.6676" y="-483.9" font-family="Arial" font-size="14.00" fill="#666666">[varchar(255)]</text>
<polygon fill="none" stroke="#000000" points="201,-442.5 201,-472.5 359,-472.5 359,-442.5 201,-442.5"/>
<text text-anchor="start" x="208" y="-453.9" font-family="Arial" font-size="14.00" fill="#000000">body </text>
<text text-anchor="start" x="242.2384" y="-453.9" font-family="Arial" font-size="14.00" fill="#666666">[text]</text>
<polygon fill="none" stroke="#000000" points="201,-412.5 201,-442.5 359,-442.5 359,-412.5 201,-412.5"/>
<text text-anchor="start" x="208" y="-423.9" font-family="Arial" font-size="14.00" fill="#000000">created </text>
<text text-anchor="start" x="258.5722" y="-423.9" font-family="Arial" font-size="14.00" fill="#666666">[date]</text>
<polygon fill="none" stroke="#000000" points="201,-382.5 201,-412.5 359,-412.5 359,-382.5 201,-382.5"/>
<text text-anchor="start" x="208" y="-393.9" font-family="Arial" font-size="14.00" fill="#000000">updated </text>
<text text-anchor="start" x="262.4768" y="-393.9" font-family="Arial" font-size="14.00" fill="#666666">[date]</text>
<polygon fill="none" stroke="#000000" stroke-width="3" points="199.5,-381.5 199.5,-599.5 360.5,-599.5 360.5,-381.5 199.5,-381.5"/>
</g>
<!-- users -->
<g id="node4" class="node">
<title>users</title>
<polygon fill="#efefef" stroke="transparent" points="200,-222.5 200,-257.5 359,-257.5 359,-222.5 200,-222.5"/>
<polygon fill="none" stroke="#000000" points="200,-222.5 200,-257.5 359,-257.5 359,-222.5 200,-222.5"/>
<text text-anchor="start" x="206.5405" y="-235.3" font-family="Arial Bold" font-size="18.00" fill="#000000">users</text>
<text text-anchor="start" x="250.5451" y="-235.3" font-family="Arial" font-size="14.00" fill="#000000"> </text>
<text text-anchor="start" x="254.4357" y="-235.3" font-family="Arial" font-size="14.00" fill="#666666">[BASIC TABLE]</text>
<polygon fill="none" stroke="#000000" points="200,-192.5 200,-222.5 359,-222.5 359,-192.5 200,-192.5"/>
<text text-anchor="start" x="207" y="-203.9" font-family="Arial" font-size="14.00" fill="#000000">id </text>
<text text-anchor="start" x="221.7798" y="-203.9" font-family="Arial" font-size="14.00" fill="#666666">[int]</text>
<polygon fill="none" stroke="#000000" points="200,-162.5 200,-192.5 359,-192.5 359,-162.5 200,-162.5"/>
<text text-anchor="start" x="206.7693" y="-173.9" font-family="Arial" font-size="14.00" fill="#000000">username </text>
<text text-anchor="start" x="272.8941" y="-173.9" font-family="Arial" font-size="14.00" fill="#666666">[varchar(50)]</text>
<polygon fill="none" stroke="#000000" points="200,-132.5 200,-162.5 359,-162.5 359,-132.5 200,-132.5"/>
<text text-anchor="start" x="207" y="-143.9" font-family="Arial" font-size="14.00" fill="#000000">password </text>
<text text-anchor="start" x="270.7882" y="-143.9" font-family="Arial" font-size="14.00" fill="#666666">[varchar(50)]</text>
<polygon fill="none" stroke="#000000" points="200,-102.5 200,-132.5 359,-132.5 359,-102.5 200,-102.5"/>
<text text-anchor="start" x="207" y="-113.9" font-family="Arial" font-size="14.00" fill="#000000">email </text>
<text text-anchor="start" x="244.3296" y="-113.9" font-family="Arial" font-size="14.00" fill="#666666">[varchar(355)]</text>
<polygon fill="none" stroke="#000000" points="200,-72.5 200,-102.5 359,-102.5 359,-72.5 200,-72.5"/>
<text text-anchor="start" x="207" y="-83.9" font-family="Arial" font-size="14.00" fill="#000000">created </text>
<text text-anchor="start" x="257.5722" y="-83.9" font-family="Arial" font-size="14.00" fill="#666666">[date]</text>
<polygon fill="none" stroke="#000000" points="200,-42.5 200,-72.5 359,-72.5 359,-42.5 200,-42.5"/>
<text text-anchor="start" x="207" y="-53.9" font-family="Arial" font-size="14.00" fill="#000000">updated </text>
<text text-anchor="start" x="261.4768" y="-53.9" font-family="Arial" font-size="14.00" fill="#666666">[date]</text>
</g>
<!-- posts&#45;&gt;users -->
<g id="edge3" class="edge">
<title>posts:user_id&#45;&gt;users:id</title>
<path fill="none" stroke="#000000" d="M190.849,-516.8026C123.5304,-507.0285 153.2179,-396.8938 201,-337 245.9155,-280.6994 314.0845,-357.3006 359,-301 384.9156,-268.5154 400.5556,-207.5 359,-207.5"/>
<polygon fill="#000000" stroke="#000000" points="191.0235,-516.8145 200.6915,-521.9894 196.0118,-517.1572 201,-517.5 201,-517.5 201,-517.5 196.0118,-517.1572 201.3085,-513.0106 191.0235,-516.8145 191.0235,-516.8145"/>
</g>
<!-- comments -->
<g id="node2" class="node">
<title>comments</title>
<polygon fill="#efefef" stroke="transparent" points="43,-917.5 43,-952.5 241,-952.5 241,-917.5 43,-917.5"/>
<polygon fill="none" stroke="#000000" points="43,-917.5 43,-952.5 241,-952.5 241,-917.5 43,-917.5"/>
<text text-anchor="start" x="49.5402" y="-930.3" font-family="Arial Bold" font-size="18.00" fill="#000000">comments</text>
<text text-anchor="start" x="132.5454" y="-930.3" font-family="Arial" font-size="14.00" fill="#000000"> </text>
<text text-anchor="start" x="136.436" y="-930.3" font-family="Arial" font-size="14.00" fill="#666666">[BASIC TABLE]</text>
<polygon fill="none" stroke="#000000" points="43,-887.5 43,-917.5 241,-917.5 241,-887.5 43,-887.5"/>
<text text-anchor="start" x="50" y="-898.9" font-family="Arial" font-size="14.00" fill="#000000">id </text>
<text text-anchor="start" x="64.7798" y="-898.9" font-family="Arial" font-size="14.00" fill="#666666">[int]</text>
<polygon fill="none" stroke="#000000" points="43,-857.5 43,-887.5 241,-887.5 241,-857.5 43,-857.5"/>
<text text-anchor="start" x="50" y="-868.9" font-family="Arial" font-size="14.00" fill="#000000">post_id </text>
<text text-anchor="start" x="99.0182" y="-868.9" font-family="Arial" font-size="14.00" fill="#666666">[int]</text>
<polygon fill="none" stroke="#000000" points="43,-827.5 43,-857.5 241,-857.5 241,-827.5 43,-827.5"/>
<text text-anchor="start" x="50" y="-838.9" font-family="Arial" font-size="14.00" fill="#000000">user_id </text>
<text text-anchor="start" x="99.7882" y="-838.9" font-family="Arial" font-size="14.00" fill="#666666">[int]</text>
<polygon fill="none" stroke="#000000" points="43,-797.5 43,-827.5 241,-827.5 241,-797.5 43,-797.5"/>
<text text-anchor="start" x="50" y="-808.9" font-family="Arial" font-size="14.00" fill="#000000">comment </text>
<text text-anchor="start" x="111.4502" y="-808.9" font-family="Arial" font-size="14.00" fill="#666666">[text]</text>
<polygon fill="none" stroke="#000000" points="43,-767.5 43,-797.5 241,-797.5 241,-767.5 43,-767.5"/>
<text text-anchor="start" x="50" y="-778.9" font-family="Arial" font-size="14.00" fill="#000000">created </text>
<text text-anchor="start" x="100.5722" y="-778.9" font-family="Arial" font-size="14.00" fill="#666666">[date]</text>
<polygon fill="none" stroke="#000000" points="43,-737.5 43,-767.5 241,-767.5 241,-737.5 43,-737.5"/>
<text text-anchor="start" x="50" y="-748.9" font-family="Arial" font-size="14.00" fill="#000000">updated </text>
<text text-anchor="start" x="104.4768" y="-748.9" font-family="Arial" font-size="14.00" fill="#666666">[date]</text>
</g>
<!-- comments&#45;&gt;posts -->
<g id="edge1" class="edge">
<title>comments:post_id&#45;&gt;posts:id</title>
<path fill="none" stroke="#000000" d="M251.2399,-871.835C314.9676,-862.9123 265.5465,-766.0714 241,-695 231.5959,-667.7715 210.4041,-671.2285 201,-644 186.9987,-603.4609 158.1111,-547.5 201,-547.5"/>
<polygon fill="#000000" stroke="#000000" points="250.979,-871.8519 240.7083,-868.0095 245.9895,-872.1759 241,-872.5 241,-872.5 241,-872.5 245.9895,-872.1759 241.2917,-876.9905 250.979,-871.8519 250.979,-871.8519"/>
</g>
<!-- logs -->
<g id="node3" class="node">
<title>logs</title>
<polygon fill="#efefef" stroke="transparent" points="345,-932.5 345,-967.5 493,-967.5 493,-932.5 345,-932.5"/>
<polygon fill="none" stroke="#000000" points="345,-932.5 345,-967.5 493,-967.5 493,-932.5 345,-932.5"/>
<text text-anchor="start" x="351.5395" y="-945.3" font-family="Arial Bold" font-size="18.00" fill="#000000">logs</text>
<text text-anchor="start" x="384.5461" y="-945.3" font-family="Arial" font-size="14.00" fill="#000000"> </text>
<text text-anchor="start" x="388.4367" y="-945.3" font-family="Arial" font-size="14.00" fill="#666666">[BASIC TABLE]</text>
<polygon fill="none" stroke="#000000" points="345,-902.5 345,-932.5 493,-932.5 493,-902.5 345,-902.5"/>
<text text-anchor="start" x="352" y="-913.9" font-family="Arial" font-size="14.00" fill="#000000">id </text>
<text text-anchor="start" x="366.7798" y="-913.9" font-family="Arial" font-size="14.00" fill="#666666">[int]</text>
<polygon fill="none" stroke="#000000" points="345,-872.5 345,-902.5 493,-902.5 493,-872.5 345,-872.5"/>
<text text-anchor="start" x="352" y="-883.9" font-family="Arial" font-size="14.00" fill="#000000">user_id </text>
<text text-anchor="start" x="401.7882" y="-883.9" font-family="Arial" font-size="14.00" fill="#666666">[int]</text>
<polygon fill="none" stroke="#000000" points="345,-842.5 345,-872.5 493,-872.5 493,-842.5 345,-842.5"/>
<text text-anchor="start" x="352" y="-853.9" font-family="Arial" font-size="14.00" fill="#000000">post_id </text>
<text text-anchor="start" x="401.0182" y="-853.9" font-family="Arial" font-size="14.00" fill="#666666">[int]</text>
<polygon fill="none" stroke="#000000" points="345,-812.5 345,-842.5 493,-842.5 493,-812.5 345,-812.5"/>
<text text-anchor="start" x="352" y="-823.9" font-family="Arial" font-size="14.00" fill="#000000">comment_id </text>
<text text-anchor="start" x="432.122" y="-823.9" font-family="Arial" font-size="14.00" fill="#666666">[int]</text>
<polygon fill="none" stroke="#000000" points="345,-782.5 345,-812.5 493,-812.5 493,-782.5 345,-782.5"/>
<text text-anchor="start" x="352" y="-793.9" font-family="Arial" font-size="14.00" fill="#000000">comment_star_id </text>
<text text-anchor="start" x="463.2384" y="-793.9" font-family="Arial" font-size="14.00" fill="#666666">[int]</text>
<polygon fill="none" stroke="#000000" points="345,-752.5 345,-782.5 493,-782.5 493,-752.5 345,-752.5"/>
<text text-anchor="start" x="352" y="-763.9" font-family="Arial" font-size="14.00" fill="#000000">payload </text>
<text text-anchor="start" x="404.9102" y="-763.9" font-family="Arial" font-size="14.00" fill="#666666">[text]</text>
<polygon fill="none" stroke="#000000" points="345,-722.5 345,-752.5 493,-752.5 493,-722.5 345,-722.5"/>
<text text-anchor="start" x="352" y="-733.9" font-family="Arial" font-size="14.00" fill="#000000">created </text>
<text text-anchor="start" x="402.5722" y="-733.9" font-family="Arial" font-size="14.00" fill="#666666">[date]</text>
</g>
<!-- logs&#45;&gt;posts -->
<g id="edge2" class="edge">
<title>logs:post_id&#45;&gt;posts:id</title>
<path fill="none" stroke="#000000" stroke-dasharray="5,2" d="M334.8305,-856.8537C272.0338,-848.1777 331.1359,-753.9018 345,-680 348.1654,-663.1271 355.8346,-660.8729 359,-644 366.908,-601.8465 401.8889,-547.5 359,-547.5"/>
<polygon fill="#000000" stroke="#000000" points="335.0201,-856.8656 344.7145,-861.9909 340.0101,-857.1828 345,-857.5 345,-857.5 345,-857.5 340.0101,-857.1828 345.2855,-853.0091 335.0201,-856.8656 335.0201,-856.8656"/>
<text text-anchor="start" x="255.3245" y="-867.5" font-family="Arial" font-size="10.00" fill="#000000">Additional Relation</text>
</g>
</g>
</svg>
