<?xml version="1.0" encoding="UTF-8" standalone="no"?>
<!DOCTYPE svg PUBLIC "-//W3C//DTD SVG 1.1//EN"
 "http://www.w3.org/Graphics/SVG/1.1/DTD/svg11.dtd">
<!-- Generated by graphviz version 2.40.1 (20161225.0304)
 -->
<!-- Title: posts Pages: 1 -->
<svg width="606pt" height="1019pt"
 viewBox="0.00 0.00 606.00 1019.00" xmlns="http://www.w3.org/2000/svg" xmlns:xlink="http://www.w3.org/1999/xlink">
<g id="graph0" class="graph" transform="scale(1 1) rotate(0) translate(4 1015)">
<title>posts</title>
<polygon fill="#ffffff" stroke="transparent" points="-4,4 -4,-1015 602,-1015 602,4 -4,4"/>
<!-- posts -->
<g id="node1" class="node">
<title>posts</title>
<polygon fill="#efefef" stroke="transparent" points="217.5,-562.5 217.5,-597.5 406.5,-597.5 406.5,-562.5 217.5,-562.5"/>
<polygon fill="none" stroke="#000000" points="217.5,-562.5 217.5,-597.5 406.5,-597.5 406.5,-562.5 217.5,-562.5"/>
<text text-anchor="start" x="224.3784" y="-575.3" font-family="Arial Bold" font-size="18.00" fill="#000000">posts</text>
<text text-anchor="start" x="267.393" y="-575.3" font-family="Arial" font-size="14.00" fill="#000000">    </text>
<text text-anchor="start" x="301.5978" y="-575.3" font-family="Arial" font-size="14.00" fill="#666666">[BASIC TABLE]</text>
<polygon fill="none" stroke="#000000" points="217.5,-532.5 217.5,-562.5 406.5,-562.5 406.5,-532.5 217.5,-532.5"/>
<text text-anchor="start" x="224.5" y="-543.9" font-family="Arial" font-size="14.00" fill="#000000">id </text>
<text text-anchor="start" x="239.2798" y="-543.9" font-family="Arial" font-size="14.00" fill="#666666">[int]</text>
<polygon fill="none" stroke="#000000" points="217.5,-502.5 217.5,-532.5 406.5,-532.5 406.5,-502.5 217.5,-502.5"/>
<text text-anchor="start" x="224.5" y="-513.9" font-family="Arial" font-size="14.00" fill="#000000">user_id </text>
<text text-anchor="start" x="274.2882" y="-513.9" font-family="Arial" font-size="14.00" fill="#666666">[int]</text>
<polygon fill="none" stroke="#000000" points="217.5,-472.5 217.5,-502.5 406.5,-502.5 406.5,-472.5 217.5,-472.5"/>
<text text-anchor="start" x="224.5" y="-483.9" font-family="Arial" font-size="14.00" fill="#000000">title </text>
<text text-anchor="start" x="250.1676" y="-483.9" font-family="Arial" font-size="14.00" fill="#666666">[varchar(255)]</text>
<polygon fill="none" stroke="#000000" points="217.5,-442.5 217.5,-472.5 406.5,-472.5 406.5,-442.5 217.5,-442.5"/>
<text text-anchor="start" x="224.5" y="-453.9" font-family="Arial" font-size="14.00" fill="#000000">body </text>
<text text-anchor="start" x="258.7384" y="-453.9" font-family="Arial" font-size="14.00" fill="#666666">[text]</text>
<polygon fill="none" stroke="#000000" points="217.5,-412.5 217.5,-442.5 406.5,-442.5 406.5,-412.5 217.5,-412.5"/>
<text text-anchor="start" x="224.5" y="-423.9" font-family="Arial" font-size="14.00" fill="#000000">created </text>
<text text-anchor="start" x="275.0722" y="-423.9" font-family="Arial" font-size="14.00" fill="#666666">[date]</text>
<polygon fill="none" stroke="#000000" points="217.5,-382.5 217.5,-412.5 406.5,-412.5 406.5,-382.5 217.5,-382.5"/>
<text text-anchor="start" x="224.5" y="-393.9" font-family="Arial" font-size="14.00" fill="#000000">updated </text>
<text text-anchor="start" x="278.9768" y="-393.9" font-family="Arial" font-size="14.00" fill="#666666">[date]</text>
<polygon fill="none" stroke="#000000" stroke-width="3" points="215.5,-381.5 215.5,-599.5 407.5,-599.5 407.5,-381.5 215.5,-381.5"/>
</g>
<!-- users -->
<g id="node4" class="node">
<title>users</title>
<polygon fill="#efefef" stroke="transparent" points="217.5,-222.5 217.5,-257.5 407.5,-257.5 407.5,-222.5 217.5,-222.5"/>
<polygon fill="none" stroke="#000000" points="217.5,-222.5 217.5,-257.5 407.5,-257.5 407.5,-222.5 217.5,-222.5"/>
<text text-anchor="start" x="224.3834" y="-235.3" font-family="Arial Bold" font-size="18.00" fill="#000000">users</text>
<text text-anchor="start" x="268.388" y="-235.3" font-family="Arial" font-size="14.00" fill="#000000">    </text>
<text text-anchor="start" x="302.5928" y="-235.3" font-family="Arial" font-size="14.00" fill="#666666">[BASIC TABLE]</text>
<polygon fill="none" stroke="#000000" points="217.5,-192.5 217.5,-222.5 407.5,-222.5 407.5,-192.5 217.5,-192.5"/>
<text text-anchor="start" x="224.5" y="-203.9" font-family="Arial" font-size="14.00" fill="#000000">id    </text>
<text text-anchor="start" x="269.594" y="-203.9" font-family="Arial" font-size="14.00" fill="#666666">[int]</text>
<polygon fill="none" stroke="#000000" points="217.5,-162.5 217.5,-192.5 407.5,-192.5 407.5,-162.5 217.5,-162.5"/>
<text text-anchor="start" x="224.5" y="-173.9" font-family="Arial" font-size="14.00" fill="#000000">username    </text>
<text text-anchor="start" x="320.939" y="-173.9" font-family="Arial" font-size="14.00" fill="#666666">[varchar(50)]</text>
<polygon fill="none" stroke="#000000" points="217.5,-132.5 217.5,-162.5 407.5,-162.5 407.5,-132.5 217.5,-132.5"/>
<text text-anchor="start" x="224.5" y="-143.9" font-family="Arial" font-size="14.00" fill="#000000">password    </text>
<text text-anchor="start" x="318.6024" y="-143.9" font-family="Arial" font-size="14.00" fill="#666666">[varchar(50)]</text>
<polygon fill="none" stroke="#000000" points="217.5,-102.5 217.5,-132.5 407.5,-132.5 407.5,-102.5 217.5,-102.5"/>
<text text-anchor="start" x="224.5" y="-113.9" font-family="Arial" font-size="14.00" fill="#000000">email    </text>
<text text-anchor="start" x="292.1438" y="-113.9" font-family="Arial" font-size="14.00" fill="#666666">[varchar(355)]</text>
<polygon fill="none" stroke="#000000" points="217.5,-72.5 217.5,-102.5 407.5,-102.5 407.5,-72.5 217.5,-72.5"/>
<text text-anchor="start" x="224.5" y="-83.9" font-family="Arial" font-size="14.00" fill="#000000">created    </text>
<text text-anchor="start" x="305.3864" y="-83.9" font-family="Arial" font-size="14.00" fill="#666666">[date]</text>
<polygon fill="none" stroke="#000000" points="217.5,-42.5 217.5,-72.5 407.5,-72.5 407.5,-42.5 217.5,-42.5"/>
<text text-anchor="start" x="224.5" y="-53.9" font-family="Arial" font-size="14.00" fill="#000000">updated    </text>
<text text-anchor="start" x="309.291" y="-53.9" font-family="Arial" font-size="14.00" fill="#666666">[date]</text>
</g>
<!-- posts&#45;&gt;users -->
<g id="edge3" class="edge">
<title>posts:user_id&#45;&gt;users:id</title>
<path fill="none" stroke="#000000" d="M416.6574,-516.7973C484.0652,-506.9508 455.3466,-396.0289 406.5,-337 351.9847,-271.1207 272.0153,-366.8793 217.5,-301 191.0071,-268.9845 175.9444,-207.5 217.5,-207.5"/>
<polygon fill="#000000" stroke="#000000" points="416.4762,-516.8098 406.1894,-513.0107 411.4881,-517.1549 406.5,-517.5 406.5,-517.5 406.5,-517.5 411.4881,-517.1549 406.8106,-521.9893 416.4762,-516.8098 416.4762,-516.8098"/>
</g>
<!-- comments -->
<g id="node2" class="node">
<title>comments</title>
<polygon fill="#efefef" stroke="transparent" points="43.5,-917.5 43.5,-952.5 272.5,-952.5 272.5,-917.5 43.5,-917.5"/>
<polygon fill="none" stroke="#000000" points="43.5,-917.5 43.5,-952.5 272.5,-952.5 272.5,-917.5 43.5,-917.5"/>
<text text-anchor="start" x="50.3831" y="-930.3" font-family="Arial Bold" font-size="18.00" fill="#000000">comments</text>
<text text-anchor="start" x="133.3883" y="-930.3" font-family="Arial" font-size="14.00" fill="#000000">    </text>
<text text-anchor="start" x="167.5931" y="-930.3" font-family="Arial" font-size="14.00" fill="#666666">[BASIC TABLE]</text>
<polygon fill="none" stroke="#000000" points="43.5,-887.5 43.5,-917.5 272.5,-917.5 272.5,-887.5 43.5,-887.5"/>
<text text-anchor="start" x="50.5" y="-898.9" font-family="Arial" font-size="14.00" fill="#000000">id    </text>
<text text-anchor="start" x="95.594" y="-898.9" font-family="Arial" font-size="14.00" fill="#666666">[int]</text>
<polygon fill="none" stroke="#000000" points="43.5,-857.5 43.5,-887.5 272.5,-887.5 272.5,-857.5 43.5,-857.5"/>
<text text-anchor="start" x="50.5" y="-868.9" font-family="Arial" font-size="14.00" fill="#000000">post_id    </text>
<text text-anchor="start" x="129.8324" y="-868.9" font-family="Arial" font-size="14.00" fill="#666666">[int]</text>
<polygon fill="none" stroke="#000000" points="43.5,-827.5 43.5,-857.5 272.5,-857.5 272.5,-827.5 43.5,-827.5"/>
<text text-anchor="start" x="50.5" y="-838.9" font-family="Arial" font-size="14.00" fill="#000000">user_id    </text>
<text text-anchor="start" x="130.6024" y="-838.9" font-family="Arial" font-size="14.00" fill="#666666">[int]</text>
<polygon fill="none" stroke="#000000" points="43.5,-797.5 43.5,-827.5 272.5,-827.5 272.5,-797.5 43.5,-797.5"/>
<text text-anchor="start" x="50.5" y="-808.9" font-family="Arial" font-size="14.00" fill="#000000">comment    </text>
<text text-anchor="start" x="142.2644" y="-808.9" font-family="Arial" font-size="14.00" fill="#666666">[text]</text>
<polygon fill="none" stroke="#000000" points="43.5,-767.5 43.5,-797.5 272.5,-797.5 272.5,-767.5 43.5,-767.5"/>
<text text-anchor="start" x="50.5" y="-778.9" font-family="Arial" font-size="14.00" fill="#000000">created    </text>
<text text-anchor="start" x="131.3864" y="-778.9" font-family="Arial" font-size="14.00" fill="#666666">[date]</text>
<polygon fill="none" stroke="#000000" points="43.5,-737.5 43.5,-767.5 272.5,-767.5 272.5,-737.5 43.5,-737.5"/>
<text text-anchor="start" x="50.5" y="-748.9" font-family="Arial" font-size="14.00" fill="#000000">updated    </text>
<text text-anchor="start" x="135.291" y="-748.9" font-family="Arial" font-size="14.00" fill="#666666">[date]</text>
</g>
<!-- comments&#45;&gt;posts -->
<g id="edge1" class="edge">
<title>comments:post_id&#45;&gt;posts:id</title>
<path fill="none" stroke="#000000" d="M282.7764,-871.8208C346.9863,-862.7099 302.5792,-763.9124 272.5,-695 259.1642,-664.4473 230.8358,-674.5527 217.5,-644 200.3428,-604.6924 174.6111,-547.5 217.5,-547.5"/>
<polygon fill="#000000" stroke="#000000" points="282.4782,-871.8404 272.2032,-868.0098 277.4891,-872.1702 272.5,-872.5 272.5,-872.5 272.5,-872.5 277.4891,-872.1702 272.7968,-876.9902 282.4782,-871.8404 282.4782,-871.8404"/>
</g>
<!-- logs -->
<g id="node3" class="node">
<title>logs</title>
<polygon fill="#efefef" stroke="transparent" points="376.5,-932.5 376.5,-967.5 555.5,-967.5 555.5,-932.5 376.5,-932.5"/>
<polygon fill="none" stroke="#000000" points="376.5,-932.5 376.5,-967.5 555.5,-967.5 555.5,-932.5 376.5,-932.5"/>
<text text-anchor="start" x="383.3824" y="-945.3" font-family="Arial Bold" font-size="18.00" fill="#000000">logs</text>
<text text-anchor="start" x="416.389" y="-945.3" font-family="Arial" font-size="14.00" fill="#000000">    </text>
<text text-anchor="start" x="450.5938" y="-945.3" font-family="Arial" font-size="14.00" fill="#666666">[BASIC TABLE]</text>
<polygon fill="none" stroke="#000000" points="376.5,-902.5 376.5,-932.5 555.5,-932.5 555.5,-902.5 376.5,-902.5"/>
<text text-anchor="start" x="383.5" y="-913.9" font-family="Arial" font-size="14.00" fill="#000000">id    </text>
<text text-anchor="start" x="428.594" y="-913.9" font-family="Arial" font-size="14.00" fill="#666666">[int]</text>
<polygon fill="none" stroke="#000000" points="376.5,-872.5 376.5,-902.5 555.5,-902.5 555.5,-872.5 376.5,-872.5"/>
<text text-anchor="start" x="383.5" y="-883.9" font-family="Arial" font-size="14.00" fill="#000000">user_id    </text>
<text text-anchor="start" x="463.6024" y="-883.9" font-family="Arial" font-size="14.00" fill="#666666">[int]</text>
<polygon fill="none" stroke="#000000" points="376.5,-842.5 376.5,-872.5 555.5,-872.5 555.5,-842.5 376.5,-842.5"/>
<text text-anchor="start" x="383.5" y="-853.9" font-family="Arial" font-size="14.00" fill="#000000">post_id    </text>
<text text-anchor="start" x="462.8324" y="-853.9" font-family="Arial" font-size="14.00" fill="#666666">[int]</text>
<polygon fill="none" stroke="#000000" points="376.5,-812.5 376.5,-842.5 555.5,-842.5 555.5,-812.5 376.5,-812.5"/>
<text text-anchor="start" x="383.5" y="-823.9" font-family="Arial" font-size="14.00" fill="#000000">comment_id    </text>
<text text-anchor="start" x="493.9362" y="-823.9" font-family="Arial" font-size="14.00" fill="#666666">[int]</text>
<polygon fill="none" stroke="#000000" points="376.5,-782.5 376.5,-812.5 555.5,-812.5 555.5,-782.5 376.5,-782.5"/>
<text text-anchor="start" x="383.5" y="-793.9" font-family="Arial" font-size="14.00" fill="#000000">comment_star_id    </text>
<text text-anchor="start" x="525.0526" y="-793.9" font-family="Arial" font-size="14.00" fill="#666666">[int]</text>
<polygon fill="none" stroke="#000000" points="376.5,-752.5 376.5,-782.5 555.5,-782.5 555.5,-752.5 376.5,-752.5"/>
<text text-anchor="start" x="383.5" y="-763.9" font-family="Arial" font-size="14.00" fill="#000000">payload    </text>
<text text-anchor="start" x="466.7244" y="-763.9" font-family="Arial" font-size="14.00" fill="#666666">[text]</text>
<polygon fill="none" stroke="#000000" points="376.5,-722.5 376.5,-752.5 555.5,-752.5 555.5,-722.5 376.5,-722.5"/>
<text text-anchor="start" x="383.5" y="-733.9" font-family="Arial" font-size="14.00" fill="#000000">created    </text>
<text text-anchor="start" x="464.3864" y="-733.9" font-family="Arial" font-size="14.00" fill="#666666">[date]</text>
</g>
<!-- logs&#45;&gt;posts -->
<g id="edge2" class="edge">
<title>logs:post_id&#45;&gt;posts:id</title>
<path fill="none" stroke="#000000" stroke-dasharray="5,2" d="M366.2532,-856.8326C302.4339,-847.8775 350.9031,-750.6999 376.5,-680 383.5902,-660.4167 399.4098,-663.5833 406.5,-644 421.1005,-603.6728 449.3889,-547.5 406.5,-547.5"/>
<polygon fill="#000000" stroke="#000000" points="366.5211,-856.8499 376.2075,-861.9905 371.5106,-857.175 376.5,-857.5 376.5,-857.5 376.5,-857.5 371.5106,-857.175 376.7925,-853.0095 366.5211,-856.8499 366.5211,-856.8499"/>
<text text-anchor="start" x="286.8245" y="-867.5" font-family="Arial" font-size="10.00" fill="#000000">Additional Relation</text>
</g>
</g>
</svg>
