<?xml version="1.0" encoding="UTF-8" standalone="no"?>
<!DOCTYPE svg PUBLIC "-//W3C//DTD SVG 1.1//EN"
 "http://www.w3.org/Graphics/SVG/1.1/DTD/svg11.dtd">
<!-- Generated by graphviz version 12.1.2 (20240928.0832)
 -->
<!-- Title: Rabbits.Running Pages: 1 -->
<svg width="365pt" height="453pt"
 viewBox="0.00 0.00 365.06 452.75" xmlns="http://www.w3.org/2000/svg" xmlns:xlink="http://www.w3.org/1999/xlink">
<g id="graph0" class="graph" transform="scale(1 1) rotate(0) translate(4 448.75)">
<title>Rabbits.Running</title>
<polygon fill="white" stroke="none" points="-4,4 -4,-448.75 361.06,-448.75 361.06,4 -4,4"/>
<!-- Rabbits.Running -->
<g id="node1" class="node">
<title>Rabbits.Running</title>
<polygon fill="#efefef" stroke="none" points="46.2,-362.95 46.2,-398.55 310.86,-398.55 310.86,-362.95 46.2,-362.95"/>
<polygon fill="none" stroke="black" points="46.2,-362.95 46.2,-398.55 310.86,-398.55 310.86,-362.95 46.2,-362.95"/>
<text text-anchor="start" x="53.2" y="-376.35" font-family="Arial Bold" font-size="18.00">Rabbits.Running</text>
<text text-anchor="start" x="174.71" y="-376.35" font-family="Arial" font-size="14.00">    </text>
<text text-anchor="start" x="205.83" y="-376.35" font-family="Arial" font-size="14.00" fill="#666666">[BASIC TABLE]</text>
<polygon fill="none" stroke="black" points="46.2,-332.15 46.2,-362.95 310.86,-362.95 310.86,-332.15 46.2,-332.15"/>
<text text-anchor="start" x="53.2" y="-344.35" font-family="Arial" font-size="14.00">LocationID </text>
<text text-anchor="start" x="124.02" y="-344.35" font-family="Arial" font-size="14.00" fill="#666666">[int]</text>
<polygon fill="none" stroke="black" points="46.2,-301.35 46.2,-332.15 310.86,-332.15 310.86,-301.35 46.2,-301.35"/>
<text text-anchor="start" x="53.2" y="-313.55" font-family="Arial" font-size="14.00">ProductID </text>
<text text-anchor="start" x="119.34" y="-313.55" font-family="Arial" font-size="14.00" fill="#666666">[int]</text>
<polygon fill="none" stroke="black" points="46.2,-270.55 46.2,-301.35 310.86,-301.35 310.86,-270.55 46.2,-270.55"/>
<text text-anchor="start" x="53.2" y="-282.75" font-family="Arial" font-size="14.00">EmployeeID </text>
<text text-anchor="start" x="133.34" y="-282.75" font-family="Arial" font-size="14.00" fill="#666666">[int]</text>
<polygon fill="none" stroke="black" stroke-width="3" points="44.7,-269.05 44.7,-400.05 312.36,-400.05 312.36,-269.05 44.7,-269.05"/>
</g>
<!-- Sales.Product -->
<g id="node2" class="node">
<title>Sales.Product</title>
<polygon fill="#efefef" stroke="none" points="57.71,-109.55 57.71,-145.15 299.35,-145.15 299.35,-109.55 57.71,-109.55"/>
<polygon fill="none" stroke="black" points="57.71,-109.55 57.71,-145.15 299.35,-145.15 299.35,-109.55 57.71,-109.55"/>
<text text-anchor="start" x="64.71" y="-122.95" font-family="Arial Bold" font-size="18.00">Sales.Product</text>
<text text-anchor="start" x="163.2" y="-122.95" font-family="Arial" font-size="14.00">    </text>
<text text-anchor="start" x="194.32" y="-122.95" font-family="Arial" font-size="14.00" fill="#666666">[BASIC TABLE]</text>
<polygon fill="none" stroke="black" points="57.71,-78.75 57.71,-109.55 299.35,-109.55 299.35,-78.75 57.71,-78.75"/>
<text text-anchor="start" x="64.71" y="-90.95" font-family="Arial" font-size="14.00">ProductID </text>
<text text-anchor="start" x="130.85" y="-90.95" font-family="Arial" font-size="14.00" fill="#666666">[int]</text>
<polygon fill="none" stroke="black" points="57.71,-47.95 57.71,-78.75 299.35,-78.75 299.35,-47.95 57.71,-47.95"/>
<text text-anchor="start" x="64.71" y="-60.15" font-family="Arial" font-size="14.00">SalesPersonID </text>
<text text-anchor="start" x="161.98" y="-60.15" font-family="Arial" font-size="14.00" fill="#666666">[int]</text>
</g>
<!-- Rabbits.Running&#45;&gt;Sales.Product -->
<g id="edge1" class="edge">
<title>Rabbits.Running:ProductID&#45;&gt;Sales.Product:SalesPersonID</title>
<path fill="none" stroke="black" d="M321.73,-313.55C364.9,-283.31 343.24,-48.64 342.55,-47.95 291.16,3.75 178.53,25.95 178.53,-46.95"/>
<polygon fill="black" stroke="black" points="321.69,-313.57 310.79,-312.37 316.62,-315.21 312.5,-316.55 312.5,-316.55 312.5,-316.55 316.62,-315.21 313.56,-320.93 321.69,-313.57"/>
</g>
</g>
</svg>
