<?xml version="1.0" encoding="UTF-8" standalone="no"?>
<!DOCTYPE svg PUBLIC "-//W3C//DTD SVG 1.1//EN"
 "http://www.w3.org/Graphics/SVG/1.1/DTD/svg11.dtd">
<!-- Generated by graphviz version 2.40.1 (20161225.0304)
 -->
<!-- Title: Rabbits.Running Pages: 1 -->
<svg width="348pt" height="442pt"
 viewBox="0.00 0.00 348.00 442.00" xmlns="http://www.w3.org/2000/svg" xmlns:xlink="http://www.w3.org/1999/xlink">
<g id="graph0" class="graph" transform="scale(1 1) rotate(0) translate(4 438)">
<title>Rabbits.Running</title>
<polygon fill="#ffffff" stroke="transparent" points="-4,4 -4,-438 344,-438 344,4 -4,4"/>
<!-- Rabbits.Running -->
<g id="node1" class="node">
<title>Rabbits.Running</title>
<polygon fill="#efefef" stroke="transparent" points="46,-352.5 46,-387.5 294,-387.5 294,-352.5 46,-352.5"/>
<polygon fill="none" stroke="#000000" points="46,-352.5 46,-387.5 294,-387.5 294,-352.5 46,-352.5"/>
<text text-anchor="start" x="52.5274" y="-365.3" font-family="Arial Bold" font-size="18.00" fill="#000000">Rabbits.Running</text>
<text text-anchor="start" x="185.5582" y="-365.3" font-family="Arial" font-size="14.00" fill="#000000"> </text>
<text text-anchor="start" x="189.4488" y="-365.3" font-family="Arial" font-size="14.00" fill="#666666">[BASIC TABLE]</text>
<polygon fill="none" stroke="#000000" points="46,-322.5 46,-352.5 294,-352.5 294,-322.5 46,-322.5"/>
<text text-anchor="start" x="53" y="-333.9" font-family="Arial" font-size="14.00" fill="#000000">LocationID </text>
<text text-anchor="start" x="123.798" y="-333.9" font-family="Arial" font-size="14.00" fill="#666666">[int]</text>
<polygon fill="none" stroke="#000000" points="46,-292.5 46,-322.5 294,-322.5 294,-292.5 46,-292.5"/>
<text text-anchor="start" x="53" y="-303.9" font-family="Arial" font-size="14.00" fill="#000000">ProductID </text>
<text text-anchor="start" x="119.1234" y="-303.9" font-family="Arial" font-size="14.00" fill="#666666">[int]</text>
<polygon fill="none" stroke="#000000" points="46,-262.5 46,-292.5 294,-292.5 294,-262.5 46,-262.5"/>
<text text-anchor="start" x="53" y="-273.9" font-family="Arial" font-size="14.00" fill="#000000">EmployeeID </text>
<text text-anchor="start" x="133.122" y="-273.9" font-family="Arial" font-size="14.00" fill="#666666">[int]</text>
<polygon fill="none" stroke="#000000" stroke-width="3" points="44.5,-261.5 44.5,-389.5 295.5,-389.5 295.5,-261.5 44.5,-261.5"/>
</g>
<!-- Sales.Product -->
<g id="node2" class="node">
<title>Sales.Product</title>
<polygon fill="#efefef" stroke="transparent" points="56,-102.5 56,-137.5 283,-137.5 283,-102.5 56,-102.5"/>
<polygon fill="none" stroke="#000000" points="56,-102.5 56,-137.5 283,-137.5 283,-102.5 56,-102.5"/>
<text text-anchor="start" x="62.5277" y="-115.3" font-family="Arial Bold" font-size="18.00" fill="#000000">Sales.Product</text>
<text text-anchor="start" x="174.5579" y="-115.3" font-family="Arial" font-size="14.00" fill="#000000"> </text>
<text text-anchor="start" x="178.4485" y="-115.3" font-family="Arial" font-size="14.00" fill="#666666">[BASIC TABLE]</text>
<polygon fill="none" stroke="#000000" points="56,-72.5 56,-102.5 283,-102.5 283,-72.5 56,-72.5"/>
<text text-anchor="start" x="63" y="-83.9" font-family="Arial" font-size="14.00" fill="#000000">ProductID </text>
<text text-anchor="start" x="129.1234" y="-83.9" font-family="Arial" font-size="14.00" fill="#666666">[int]</text>
<polygon fill="none" stroke="#000000" points="56,-42.5 56,-72.5 283,-72.5 283,-42.5 56,-42.5"/>
<text text-anchor="start" x="63" y="-53.9" font-family="Arial" font-size="14.00" fill="#000000">SalesPersonID </text>
<text text-anchor="start" x="160.2412" y="-53.9" font-family="Arial" font-size="14.00" fill="#666666">[int]</text>
</g>
<!-- Rabbits.Running&#45;&gt;Sales.Product -->
<g id="edge1" class="edge">
<title>Rabbits.Running:ProductID&#45;&gt;Sales.Product:SalesPersonID</title>
<path fill="none" stroke="#000000" d="M36.0744,-305.9846C8.4523,-296.4589 21.9275,-244.3719 46,-217 128.7139,-122.9491 242.7861,-275.0509 325.5,-181 325.5,-181 170,-42.5 170,-42.5"/>
<polygon fill="#000000" stroke="#000000" points="36.1145,-305.9907 45.3208,-311.9485 41.0573,-306.7453 46,-307.5 46,-307.5 46,-307.5 41.0573,-306.7453 46.6792,-303.0515 36.1145,-305.9907 36.1145,-305.9907"/>
</g>
</g>
</svg>
