<?xml version="1.0" encoding="UTF-8" standalone="no"?>
<!DOCTYPE svg PUBLIC "-//W3C//DTD SVG 1.1//EN"
 "http://www.w3.org/Graphics/SVG/1.1/DTD/svg11.dtd">
<!-- Generated by graphviz version 2.40.1 (20161225.0304)
 -->
<!-- Title: Rabbits.Running Pages: 1 -->
<svg width="390pt" height="449pt"
 viewBox="0.00 0.00 390.38 449.14" xmlns="http://www.w3.org/2000/svg" xmlns:xlink="http://www.w3.org/1999/xlink">
<g id="graph0" class="graph" transform="scale(1 1) rotate(0) translate(4 445.1368)">
<title>Rabbits.Running</title>
<polygon fill="#ffffff" stroke="transparent" points="-4,4 -4,-445.1368 386.3796,-445.1368 386.3796,4 -4,4"/>
<!-- Rabbits.Running -->
<g id="node1" class="node">
<title>Rabbits.Running</title>
<polygon fill="#efefef" stroke="transparent" points="46.5,-359.6368 46.5,-394.6368 325.5,-394.6368 325.5,-359.6368 46.5,-359.6368"/>
<polygon fill="none" stroke="#000000" points="46.5,-359.6368 46.5,-394.6368 325.5,-394.6368 325.5,-359.6368 46.5,-359.6368"/>
<text text-anchor="start" x="53.3703" y="-372.4368" font-family="Arial Bold" font-size="18.00" fill="#000000">Rabbits.Running</text>
<text text-anchor="start" x="186.4011" y="-372.4368" font-family="Arial" font-size="14.00" fill="#000000">    </text>
<text text-anchor="start" x="220.6059" y="-372.4368" font-family="Arial" font-size="14.00" fill="#666666">[BASIC TABLE]</text>
<polygon fill="none" stroke="#000000" points="46.5,-329.6368 46.5,-359.6368 325.5,-359.6368 325.5,-329.6368 46.5,-329.6368"/>
<text text-anchor="start" x="53.5" y="-341.0368" font-family="Arial" font-size="14.00" fill="#000000">LocationID </text>
<text text-anchor="start" x="124.298" y="-341.0368" font-family="Arial" font-size="14.00" fill="#666666">[int]</text>
<polygon fill="none" stroke="#000000" points="46.5,-299.6368 46.5,-329.6368 325.5,-329.6368 325.5,-299.6368 46.5,-299.6368"/>
<text text-anchor="start" x="53.5" y="-311.0368" font-family="Arial" font-size="14.00" fill="#000000">ProductID </text>
<text text-anchor="start" x="119.6234" y="-311.0368" font-family="Arial" font-size="14.00" fill="#666666">[int]</text>
<polygon fill="none" stroke="#000000" points="46.5,-269.6368 46.5,-299.6368 325.5,-299.6368 325.5,-269.6368 46.5,-269.6368"/>
<text text-anchor="start" x="53.5" y="-281.0368" font-family="Arial" font-size="14.00" fill="#000000">EmployeeID </text>
<text text-anchor="start" x="133.622" y="-281.0368" font-family="Arial" font-size="14.00" fill="#666666">[int]</text>
<polygon fill="none" stroke="#000000" stroke-width="3" points="44.5,-268.6368 44.5,-396.6368 326.5,-396.6368 326.5,-268.6368 44.5,-268.6368"/>
</g>
<!-- Sales.Product -->
<g id="node2" class="node">
<title>Sales.Product</title>
<polygon fill="#efefef" stroke="transparent" points="57.5,-109.6368 57.5,-144.6368 315.5,-144.6368 315.5,-109.6368 57.5,-109.6368"/>
<polygon fill="none" stroke="#000000" points="57.5,-109.6368 57.5,-144.6368 315.5,-144.6368 315.5,-109.6368 57.5,-109.6368"/>
<text text-anchor="start" x="64.3706" y="-122.4368" font-family="Arial Bold" font-size="18.00" fill="#000000">Sales.Product</text>
<text text-anchor="start" x="176.4008" y="-122.4368" font-family="Arial" font-size="14.00" fill="#000000">    </text>
<text text-anchor="start" x="210.6056" y="-122.4368" font-family="Arial" font-size="14.00" fill="#666666">[BASIC TABLE]</text>
<polygon fill="none" stroke="#000000" points="57.5,-79.6368 57.5,-109.6368 315.5,-109.6368 315.5,-79.6368 57.5,-79.6368"/>
<text text-anchor="start" x="64.5" y="-91.0368" font-family="Arial" font-size="14.00" fill="#000000">ProductID    </text>
<text text-anchor="start" x="160.9376" y="-91.0368" font-family="Arial" font-size="14.00" fill="#666666">[int]</text>
<polygon fill="none" stroke="#000000" points="57.5,-49.6368 57.5,-79.6368 315.5,-79.6368 315.5,-49.6368 57.5,-49.6368"/>
<text text-anchor="start" x="64.5" y="-61.0368" font-family="Arial" font-size="14.00" fill="#000000">SalesPersonID    </text>
<text text-anchor="start" x="192.0554" y="-61.0368" font-family="Arial" font-size="14.00" fill="#666666">[int]</text>
</g>
<!-- Rabbits.Running&#45;&gt;Sales.Product -->
<g id="edge1" class="edge">
<title>Rabbits.Running:ProductID&#45;&gt;Sales.Product:SalesPersonID</title>
<path fill="none" stroke="#000000" d="M335.4784,-312.4208C386.4764,-289.1212 398.0036,-89.1404 358.5,-49.6368 304.4456,4.4176 186.5,26.8077 186.5,-49.6368"/>
<polygon fill="#000000" stroke="#000000" points="335.2622,-312.4688 324.5244,-310.2438 330.3811,-313.5528 325.5,-314.6368 325.5,-314.6368 325.5,-314.6368 330.3811,-313.5528 326.4756,-319.0297 335.2622,-312.4688 335.2622,-312.4688"/>
</g>
</g>
</svg>
