<?xml version="1.0" encoding="UTF-8" standalone="no"?>
<!DOCTYPE svg PUBLIC "-//W3C//DTD SVG 1.1//EN"
 "http://www.w3.org/Graphics/SVG/1.1/DTD/svg11.dtd">
<!-- Generated by graphviz version 12.1.2 (20240928.0832)
 -->
<!-- Title: Sales.Product Pages: 1 -->
<svg width="359pt" height="451pt"
 viewBox="0.00 0.00 359.48 450.62" xmlns="http://www.w3.org/2000/svg" xmlns:xlink="http://www.w3.org/1999/xlink">
<g id="graph0" class="graph" transform="scale(1 1) rotate(0) translate(4 446.62)">
<title>Sales.Product</title>
<polygon fill="white" stroke="none" points="-4,4 -4,-446.62 355.48,-446.62 355.48,4 -4,4"/>
<!-- Sales.Product -->
<g id="node1" class="node">
<title>Sales.Product</title>
<polygon fill="#efefef" stroke="none" points="54.71,-110.42 54.71,-146.02 296.35,-146.02 296.35,-110.42 54.71,-110.42"/>
<polygon fill="none" stroke="black" points="54.71,-110.42 54.71,-146.02 296.35,-146.02 296.35,-110.42 54.71,-110.42"/>
<text text-anchor="start" x="61.71" y="-123.82" font-family="Arial Bold" font-size="18.00">Sales.Product</text>
<text text-anchor="start" x="160.2" y="-123.82" font-family="Arial" font-size="14.00">    </text>
<text text-anchor="start" x="191.32" y="-123.82" font-family="Arial" font-size="14.00" fill="#666666">[BASIC TABLE]</text>
<polygon fill="none" stroke="black" points="54.71,-79.62 54.71,-110.42 296.35,-110.42 296.35,-79.62 54.71,-79.62"/>
<text text-anchor="start" x="61.71" y="-91.82" font-family="Arial" font-size="14.00">ProductID </text>
<text text-anchor="start" x="127.85" y="-91.82" font-family="Arial" font-size="14.00" fill="#666666">[int]</text>
<polygon fill="none" stroke="black" points="54.71,-48.82 54.71,-79.62 296.35,-79.62 296.35,-48.82 54.71,-48.82"/>
<text text-anchor="start" x="61.71" y="-61.02" font-family="Arial" font-size="14.00">SalesPersonID </text>
<text text-anchor="start" x="158.98" y="-61.02" font-family="Arial" font-size="14.00" fill="#666666">[int]</text>
<polygon fill="none" stroke="black" stroke-width="3" points="53.21,-47.32 53.21,-147.52 297.85,-147.52 297.85,-47.32 53.21,-47.32"/>
</g>
<!-- Rabbits.Running -->
<g id="node2" class="node">
<title>Rabbits.Running</title>
<polygon fill="#efefef" stroke="none" points="43.2,-363.82 43.2,-399.42 307.86,-399.42 307.86,-363.82 43.2,-363.82"/>
<polygon fill="none" stroke="black" points="43.2,-363.82 43.2,-399.42 307.86,-399.42 307.86,-363.82 43.2,-363.82"/>
<text text-anchor="start" x="50.2" y="-377.22" font-family="Arial Bold" font-size="18.00">Rabbits.Running</text>
<text text-anchor="start" x="171.71" y="-377.22" font-family="Arial" font-size="14.00">    </text>
<text text-anchor="start" x="202.83" y="-377.22" font-family="Arial" font-size="14.00" fill="#666666">[BASIC TABLE]</text>
<polygon fill="none" stroke="black" points="43.2,-333.02 43.2,-363.82 307.86,-363.82 307.86,-333.02 43.2,-333.02"/>
<text text-anchor="start" x="50.2" y="-345.22" font-family="Arial" font-size="14.00">LocationID </text>
<text text-anchor="start" x="121.02" y="-345.22" font-family="Arial" font-size="14.00" fill="#666666">[int]</text>
<polygon fill="none" stroke="black" points="43.2,-302.22 43.2,-333.02 307.86,-333.02 307.86,-302.22 43.2,-302.22"/>
<text text-anchor="start" x="50.2" y="-314.42" font-family="Arial" font-size="14.00">ProductID </text>
<text text-anchor="start" x="116.34" y="-314.42" font-family="Arial" font-size="14.00" fill="#666666">[int]</text>
<polygon fill="none" stroke="black" points="43.2,-271.42 43.2,-302.22 307.86,-302.22 307.86,-271.42 43.2,-271.42"/>
<text text-anchor="start" x="50.2" y="-283.62" font-family="Arial" font-size="14.00">EmployeeID </text>
<text text-anchor="start" x="130.34" y="-283.62" font-family="Arial" font-size="14.00" fill="#666666">[int]</text>
</g>
<!-- Rabbits.Running&#45;&gt;Sales.Product -->
<g id="edge1" class="edge">
<title>Rabbits.Running:ProductID&#45;&gt;Sales.Product:SalesPersonID</title>
<path fill="none" stroke="black" d="M319.01,-315.16C370.63,-288.43 346.04,-52.32 342.55,-48.82 290.22,3.83 175.53,26.42 175.53,-47.82"/>
<polygon fill="black" stroke="black" points="318.9,-315.19 308.13,-313.16 313.72,-316.44 309.51,-317.46 309.51,-317.46 309.51,-317.46 313.72,-316.44 310.24,-321.91 318.9,-315.19"/>
</g>
</g>
</svg>
