<?xml version="1.0" encoding="UTF-8" standalone="no"?>
<!DOCTYPE svg PUBLIC "-//W3C//DTD SVG 1.1//EN"
 "http://www.w3.org/Graphics/SVG/1.1/DTD/svg11.dtd">
<!-- Generated by graphviz version 2.40.1 (20161225.0304)
 -->
<!-- Title: Sales.Product Pages: 1 -->
<svg width="342pt" height="442pt"
 viewBox="0.00 0.00 342.00 442.00" xmlns="http://www.w3.org/2000/svg" xmlns:xlink="http://www.w3.org/1999/xlink">
<g id="graph0" class="graph" transform="scale(1 1) rotate(0) translate(4 438)">
<title>Sales.Product</title>
<polygon fill="#ffffff" stroke="transparent" points="-4,4 -4,-438 338,-438 338,4 -4,4"/>
<!-- Sales.Product -->
<g id="node1" class="node">
<title>Sales.Product</title>
<polygon fill="#efefef" stroke="transparent" points="53,-105.5 53,-140.5 280,-140.5 280,-105.5 53,-105.5"/>
<polygon fill="none" stroke="#000000" points="53,-105.5 53,-140.5 280,-140.5 280,-105.5 53,-105.5"/>
<text text-anchor="start" x="59.5277" y="-118.3" font-family="Arial Bold" font-size="18.00" fill="#000000">Sales.Product</text>
<text text-anchor="start" x="171.5579" y="-118.3" font-family="Arial" font-size="14.00" fill="#000000"> </text>
<text text-anchor="start" x="175.4485" y="-118.3" font-family="Arial" font-size="14.00" fill="#666666">[BASIC TABLE]</text>
<polygon fill="none" stroke="#000000" points="53,-75.5 53,-105.5 280,-105.5 280,-75.5 53,-75.5"/>
<text text-anchor="start" x="60" y="-86.9" font-family="Arial" font-size="14.00" fill="#000000">ProductID </text>
<text text-anchor="start" x="126.1234" y="-86.9" font-family="Arial" font-size="14.00" fill="#666666">[int]</text>
<polygon fill="none" stroke="#000000" points="53,-45.5 53,-75.5 280,-75.5 280,-45.5 53,-45.5"/>
<text text-anchor="start" x="60" y="-56.9" font-family="Arial" font-size="14.00" fill="#000000">SalesPersonID </text>
<text text-anchor="start" x="157.2412" y="-56.9" font-family="Arial" font-size="14.00" fill="#666666">[int]</text>
<polygon fill="none" stroke="#000000" stroke-width="3" points="51,-44.5 51,-142.5 281,-142.5 281,-44.5 51,-44.5"/>
</g>
<!-- Rabbits.Running -->
<g id="node2" class="node">
<title>Rabbits.Running</title>
<polygon fill="#efefef" stroke="transparent" points="43,-355.5 43,-390.5 291,-390.5 291,-355.5 43,-355.5"/>
<polygon fill="none" stroke="#000000" points="43,-355.5 43,-390.5 291,-390.5 291,-355.5 43,-355.5"/>
<text text-anchor="start" x="49.5274" y="-368.3" font-family="Arial Bold" font-size="18.00" fill="#000000">Rabbits.Running</text>
<text text-anchor="start" x="182.5582" y="-368.3" font-family="Arial" font-size="14.00" fill="#000000"> </text>
<text text-anchor="start" x="186.4488" y="-368.3" font-family="Arial" font-size="14.00" fill="#666666">[BASIC TABLE]</text>
<polygon fill="none" stroke="#000000" points="43,-325.5 43,-355.5 291,-355.5 291,-325.5 43,-325.5"/>
<text text-anchor="start" x="50" y="-336.9" font-family="Arial" font-size="14.00" fill="#000000">LocationID </text>
<text text-anchor="start" x="120.798" y="-336.9" font-family="Arial" font-size="14.00" fill="#666666">[int]</text>
<polygon fill="none" stroke="#000000" points="43,-295.5 43,-325.5 291,-325.5 291,-295.5 43,-295.5"/>
<text text-anchor="start" x="50" y="-306.9" font-family="Arial" font-size="14.00" fill="#000000">ProductID </text>
<text text-anchor="start" x="116.1234" y="-306.9" font-family="Arial" font-size="14.00" fill="#666666">[int]</text>
<polygon fill="none" stroke="#000000" points="43,-265.5 43,-295.5 291,-295.5 291,-265.5 43,-265.5"/>
<text text-anchor="start" x="50" y="-276.9" font-family="Arial" font-size="14.00" fill="#000000">EmployeeID </text>
<text text-anchor="start" x="130.122" y="-276.9" font-family="Arial" font-size="14.00" fill="#666666">[int]</text>
</g>
<!-- Rabbits.Running&#45;&gt;Sales.Product -->
<g id="edge1" class="edge">
<title>Rabbits.Running:ProductID&#45;&gt;Sales.Product:SalesPersonID</title>
<path fill="none" stroke="#000000" d="M33.0598,-308.913C6.8061,-299.3881 19.8081,-249.3349 43,-223 126.6512,-128.0123 241.8488,-281.9877 325.5,-187 325.5,-187 167,-45.5 167,-45.5"/>
<polygon fill="#000000" stroke="#000000" points="33.1251,-308.9234 42.2905,-314.9437 38.0625,-309.7117 43,-310.5 43,-310.5 43,-310.5 38.0625,-309.7117 43.7095,-306.0563 33.1251,-308.9234 33.1251,-308.9234"/>
</g>
</g>
</svg>
