<?xml version="1.0" encoding="UTF-8" standalone="no"?>
<!DOCTYPE svg PUBLIC "-//W3C//DTD SVG 1.1//EN"
 "http://www.w3.org/Graphics/SVG/1.1/DTD/svg11.dtd">
<!-- Generated by graphviz version 2.40.1 (20161225.0304)
 -->
<!-- Title: Sales.Product Pages: 1 -->
<svg width="374pt" height="447pt"
 viewBox="0.00 0.00 374.39 447.00" xmlns="http://www.w3.org/2000/svg" xmlns:xlink="http://www.w3.org/1999/xlink">
<g id="graph0" class="graph" transform="scale(1 1) rotate(0) translate(4 443.0025)">
<title>Sales.Product</title>
<polygon fill="#ffffff" stroke="transparent" points="-4,4 -4,-443.0025 370.3877,-443.0025 370.3877,4 -4,4"/>
<!-- Sales.Product -->
<g id="node1" class="node">
<title>Sales.Product</title>
<polygon fill="#efefef" stroke="transparent" points="54.5,-110.5025 54.5,-145.5025 312.5,-145.5025 312.5,-110.5025 54.5,-110.5025"/>
<polygon fill="none" stroke="#000000" points="54.5,-110.5025 54.5,-145.5025 312.5,-145.5025 312.5,-110.5025 54.5,-110.5025"/>
<text text-anchor="start" x="61.3706" y="-123.3025" font-family="Arial Bold" font-size="18.00" fill="#000000">Sales.Product</text>
<text text-anchor="start" x="173.4008" y="-123.3025" font-family="Arial" font-size="14.00" fill="#000000">    </text>
<text text-anchor="start" x="207.6056" y="-123.3025" font-family="Arial" font-size="14.00" fill="#666666">[BASIC TABLE]</text>
<polygon fill="none" stroke="#000000" points="54.5,-80.5025 54.5,-110.5025 312.5,-110.5025 312.5,-80.5025 54.5,-80.5025"/>
<text text-anchor="start" x="61.5" y="-91.9025" font-family="Arial" font-size="14.00" fill="#000000">ProductID </text>
<text text-anchor="start" x="127.6234" y="-91.9025" font-family="Arial" font-size="14.00" fill="#666666">[int]</text>
<polygon fill="none" stroke="#000000" points="54.5,-50.5025 54.5,-80.5025 312.5,-80.5025 312.5,-50.5025 54.5,-50.5025"/>
<text text-anchor="start" x="61.5" y="-61.9025" font-family="Arial" font-size="14.00" fill="#000000">SalesPersonID </text>
<text text-anchor="start" x="158.7412" y="-61.9025" font-family="Arial" font-size="14.00" fill="#666666">[int]</text>
<polygon fill="none" stroke="#000000" stroke-width="3" points="53,-49.5025 53,-147.5025 314,-147.5025 314,-49.5025 53,-49.5025"/>
</g>
<!-- Rabbits.Running -->
<g id="node2" class="node">
<title>Rabbits.Running</title>
<polygon fill="#efefef" stroke="transparent" points="43.5,-360.5025 43.5,-395.5025 322.5,-395.5025 322.5,-360.5025 43.5,-360.5025"/>
<polygon fill="none" stroke="#000000" points="43.5,-360.5025 43.5,-395.5025 322.5,-395.5025 322.5,-360.5025 43.5,-360.5025"/>
<text text-anchor="start" x="50.3703" y="-373.3025" font-family="Arial Bold" font-size="18.00" fill="#000000">Rabbits.Running</text>
<text text-anchor="start" x="183.4011" y="-373.3025" font-family="Arial" font-size="14.00" fill="#000000">    </text>
<text text-anchor="start" x="217.6059" y="-373.3025" font-family="Arial" font-size="14.00" fill="#666666">[BASIC TABLE]</text>
<polygon fill="none" stroke="#000000" points="43.5,-330.5025 43.5,-360.5025 322.5,-360.5025 322.5,-330.5025 43.5,-330.5025"/>
<text text-anchor="start" x="50.5" y="-341.9025" font-family="Arial" font-size="14.00" fill="#000000">LocationID    </text>
<text text-anchor="start" x="151.6122" y="-341.9025" font-family="Arial" font-size="14.00" fill="#666666">[int]</text>
<polygon fill="none" stroke="#000000" points="43.5,-300.5025 43.5,-330.5025 322.5,-330.5025 322.5,-300.5025 43.5,-300.5025"/>
<text text-anchor="start" x="50.5" y="-311.9025" font-family="Arial" font-size="14.00" fill="#000000">ProductID    </text>
<text text-anchor="start" x="146.9376" y="-311.9025" font-family="Arial" font-size="14.00" fill="#666666">[int]</text>
<polygon fill="none" stroke="#000000" points="43.5,-270.5025 43.5,-300.5025 322.5,-300.5025 322.5,-270.5025 43.5,-270.5025"/>
<text text-anchor="start" x="50.5" y="-281.9025" font-family="Arial" font-size="14.00" fill="#000000">EmployeeID    </text>
<text text-anchor="start" x="160.9362" y="-281.9025" font-family="Arial" font-size="14.00" fill="#666666">[int]</text>
</g>
<!-- Rabbits.Running&#45;&gt;Sales.Product -->
<g id="edge1" class="edge">
<title>Rabbits.Running:ProductID&#45;&gt;Sales.Product:SalesPersonID</title>
<path fill="none" stroke="#000000" d="M332.335,-313.3828C386.6166,-288.4601 360.1104,-52.1129 358.5,-50.5025 303.5028,4.4947 183.5,27.2753 183.5,-50.5025"/>
<polygon fill="#000000" stroke="#000000" points="332.2755,-313.3956 321.5519,-311.1035 327.3878,-314.449 322.5,-315.5025 322.5,-315.5025 322.5,-315.5025 327.3878,-314.449 323.4481,-319.9015 332.2755,-313.3956 332.2755,-313.3956"/>
</g>
</g>
</svg>
