<?xml version="1.0" encoding="UTF-8" standalone="no"?>
<!DOCTYPE svg PUBLIC "-//W3C//DTD SVG 1.1//EN"
 "http://www.w3.org/Graphics/SVG/1.1/DTD/svg11.dtd">
<!-- Generated by graphviz version 2.40.1 (20161225.0304)
 -->
<!-- Title: testdb Pages: 1 -->
<svg width="2361pt" height="1687pt"
 viewBox="0.00 0.00 2360.96 1687.00" xmlns="http://www.w3.org/2000/svg" xmlns:xlink="http://www.w3.org/1999/xlink">
<g id="graph0" class="graph" transform="scale(1 1) rotate(0) translate(4 1683)">
<title>testdb</title>
<polygon fill="#ffffff" stroke="transparent" points="-4,4 -4,-1683 2356.9578,-1683 2356.9578,4 -4,4"/>
<!-- users -->
<g id="node1" class="node">
<title>users</title>
<polygon fill="#efefef" stroke="transparent" points="517.5,-222.5 517.5,-257.5 707.5,-257.5 707.5,-222.5 517.5,-222.5"/>
<polygon fill="none" stroke="#000000" points="517.5,-222.5 517.5,-257.5 707.5,-257.5 707.5,-222.5 517.5,-222.5"/>
<text text-anchor="start" x="524.3834" y="-235.3" font-family="Arial Bold" font-size="18.00" fill="#000000">users</text>
<text text-anchor="start" x="568.388" y="-235.3" font-family="Arial" font-size="14.00" fill="#000000">    </text>
<text text-anchor="start" x="602.5928" y="-235.3" font-family="Arial" font-size="14.00" fill="#666666">[BASIC TABLE]</text>
<polygon fill="none" stroke="#000000" points="517.5,-192.5 517.5,-222.5 707.5,-222.5 707.5,-192.5 517.5,-192.5"/>
<text text-anchor="start" x="524.5" y="-203.9" font-family="Arial" font-size="14.00" fill="#000000">id    </text>
<text text-anchor="start" x="569.594" y="-203.9" font-family="Arial" font-size="14.00" fill="#666666">[int]</text>
<polygon fill="none" stroke="#000000" points="517.5,-162.5 517.5,-192.5 707.5,-192.5 707.5,-162.5 517.5,-162.5"/>
<text text-anchor="start" x="524.5" y="-173.9" font-family="Arial" font-size="14.00" fill="#000000">username    </text>
<text text-anchor="start" x="620.939" y="-173.9" font-family="Arial" font-size="14.00" fill="#666666">[varchar(50)]</text>
<polygon fill="none" stroke="#000000" points="517.5,-132.5 517.5,-162.5 707.5,-162.5 707.5,-132.5 517.5,-132.5"/>
<text text-anchor="start" x="524.5" y="-143.9" font-family="Arial" font-size="14.00" fill="#000000">password    </text>
<text text-anchor="start" x="618.6024" y="-143.9" font-family="Arial" font-size="14.00" fill="#666666">[varchar(50)]</text>
<polygon fill="none" stroke="#000000" points="517.5,-102.5 517.5,-132.5 707.5,-132.5 707.5,-102.5 517.5,-102.5"/>
<text text-anchor="start" x="524.5" y="-113.9" font-family="Arial" font-size="14.00" fill="#000000">email    </text>
<text text-anchor="start" x="592.1438" y="-113.9" font-family="Arial" font-size="14.00" fill="#666666">[varchar(355)]</text>
<polygon fill="none" stroke="#000000" points="517.5,-72.5 517.5,-102.5 707.5,-102.5 707.5,-72.5 517.5,-72.5"/>
<text text-anchor="start" x="524.5" y="-83.9" font-family="Arial" font-size="14.00" fill="#000000">created    </text>
<text text-anchor="start" x="605.3864" y="-83.9" font-family="Arial" font-size="14.00" fill="#666666">[date]</text>
<polygon fill="none" stroke="#000000" points="517.5,-42.5 517.5,-72.5 707.5,-72.5 707.5,-42.5 517.5,-42.5"/>
<text text-anchor="start" x="524.5" y="-53.9" font-family="Arial" font-size="14.00" fill="#000000">updated    </text>
<text text-anchor="start" x="609.291" y="-53.9" font-family="Arial" font-size="14.00" fill="#666666">[date]</text>
</g>
<!-- user_options -->
<g id="node2" class="node">
<title>user_options</title>
<polygon fill="#efefef" stroke="transparent" points="43.5,-529.5 43.5,-564.5 292.5,-564.5 292.5,-529.5 43.5,-529.5"/>
<polygon fill="none" stroke="#000000" points="43.5,-529.5 43.5,-564.5 292.5,-564.5 292.5,-529.5 43.5,-529.5"/>
<text text-anchor="start" x="50.3697" y="-542.3" font-family="Arial Bold" font-size="18.00" fill="#000000">user_options</text>
<text text-anchor="start" x="153.4017" y="-542.3" font-family="Arial" font-size="14.00" fill="#000000">    </text>
<text text-anchor="start" x="187.6065" y="-542.3" font-family="Arial" font-size="14.00" fill="#666666">[BASIC TABLE]</text>
<polygon fill="none" stroke="#000000" points="43.5,-499.5 43.5,-529.5 292.5,-529.5 292.5,-499.5 43.5,-499.5"/>
<text text-anchor="start" x="50.5" y="-510.9" font-family="Arial" font-size="14.00" fill="#000000">user_id    </text>
<text text-anchor="start" x="130.6024" y="-510.9" font-family="Arial" font-size="14.00" fill="#666666">[int]</text>
<polygon fill="none" stroke="#000000" points="43.5,-469.5 43.5,-499.5 292.5,-499.5 292.5,-469.5 43.5,-469.5"/>
<text text-anchor="start" x="50.5" y="-480.9" font-family="Arial" font-size="14.00" fill="#000000">show_email    </text>
<text text-anchor="start" x="158.5982" y="-480.9" font-family="Arial" font-size="14.00" fill="#666666">[bit]</text>
<polygon fill="none" stroke="#000000" points="43.5,-439.5 43.5,-469.5 292.5,-469.5 292.5,-439.5 43.5,-439.5"/>
<text text-anchor="start" x="50.5" y="-450.9" font-family="Arial" font-size="14.00" fill="#000000">created    </text>
<text text-anchor="start" x="131.3864" y="-450.9" font-family="Arial" font-size="14.00" fill="#666666">[date]</text>
<polygon fill="none" stroke="#000000" points="43.5,-409.5 43.5,-439.5 292.5,-439.5 292.5,-409.5 43.5,-409.5"/>
<text text-anchor="start" x="50.5" y="-420.9" font-family="Arial" font-size="14.00" fill="#000000">updated    </text>
<text text-anchor="start" x="135.291" y="-420.9" font-family="Arial" font-size="14.00" fill="#666666">[date]</text>
</g>
<!-- user_options&#45;&gt;users -->
<g id="edge1" class="edge">
<title>user_options:user_id&#45;&gt;users:id</title>
<path fill="none" stroke="#000000" d="M302.7449,-513.8496C368.9988,-504.7286 304.0102,-401.7531 349.5,-337 403.6931,-259.8581 423.2251,-207.5 517.5,-207.5"/>
<polygon fill="#000000" stroke="#000000" points="302.4799,-513.8664 292.2149,-510.009 297.49,-514.1832 292.5,-514.5 292.5,-514.5 292.5,-514.5 297.49,-514.1832 292.7851,-518.991 302.4799,-513.8664 302.4799,-513.8664"/>
</g>
<!-- posts -->
<g id="node3" class="node">
<title>posts</title>
<polygon fill="#efefef" stroke="transparent" points="435.5,-559.5 435.5,-594.5 624.5,-594.5 624.5,-559.5 435.5,-559.5"/>
<polygon fill="none" stroke="#000000" points="435.5,-559.5 435.5,-594.5 624.5,-594.5 624.5,-559.5 435.5,-559.5"/>
<text text-anchor="start" x="442.3784" y="-572.3" font-family="Arial Bold" font-size="18.00" fill="#000000">posts</text>
<text text-anchor="start" x="485.393" y="-572.3" font-family="Arial" font-size="14.00" fill="#000000">    </text>
<text text-anchor="start" x="519.5978" y="-572.3" font-family="Arial" font-size="14.00" fill="#666666">[BASIC TABLE]</text>
<polygon fill="none" stroke="#000000" points="435.5,-529.5 435.5,-559.5 624.5,-559.5 624.5,-529.5 435.5,-529.5"/>
<text text-anchor="start" x="442.5" y="-540.9" font-family="Arial" font-size="14.00" fill="#000000">id    </text>
<text text-anchor="start" x="487.594" y="-540.9" font-family="Arial" font-size="14.00" fill="#666666">[int]</text>
<polygon fill="none" stroke="#000000" points="435.5,-499.5 435.5,-529.5 624.5,-529.5 624.5,-499.5 435.5,-499.5"/>
<text text-anchor="start" x="442.5" y="-510.9" font-family="Arial" font-size="14.00" fill="#000000">user_id    </text>
<text text-anchor="start" x="522.6024" y="-510.9" font-family="Arial" font-size="14.00" fill="#666666">[int]</text>
<polygon fill="none" stroke="#000000" points="435.5,-469.5 435.5,-499.5 624.5,-499.5 624.5,-469.5 435.5,-469.5"/>
<text text-anchor="start" x="442.5" y="-480.9" font-family="Arial" font-size="14.00" fill="#000000">title    </text>
<text text-anchor="start" x="498.4818" y="-480.9" font-family="Arial" font-size="14.00" fill="#666666">[varchar(255)]</text>
<polygon fill="none" stroke="#000000" points="435.5,-439.5 435.5,-469.5 624.5,-469.5 624.5,-439.5 435.5,-439.5"/>
<text text-anchor="start" x="442.5" y="-450.9" font-family="Arial" font-size="14.00" fill="#000000">body    </text>
<text text-anchor="start" x="507.0526" y="-450.9" font-family="Arial" font-size="14.00" fill="#666666">[text]</text>
<polygon fill="none" stroke="#000000" points="435.5,-409.5 435.5,-439.5 624.5,-439.5 624.5,-409.5 435.5,-409.5"/>
<text text-anchor="start" x="442.5" y="-420.9" font-family="Arial" font-size="14.00" fill="#000000">created    </text>
<text text-anchor="start" x="523.3864" y="-420.9" font-family="Arial" font-size="14.00" fill="#666666">[date]</text>
<polygon fill="none" stroke="#000000" points="435.5,-379.5 435.5,-409.5 624.5,-409.5 624.5,-379.5 435.5,-379.5"/>
<text text-anchor="start" x="442.5" y="-390.9" font-family="Arial" font-size="14.00" fill="#000000">updated    </text>
<text text-anchor="start" x="527.291" y="-390.9" font-family="Arial" font-size="14.00" fill="#666666">[date]</text>
</g>
<!-- posts&#45;&gt;users -->
<g id="edge2" class="edge">
<title>posts:user_id&#45;&gt;users:id</title>
<path fill="none" stroke="#000000" d="M634.8673,-513.769C700.2801,-503.9737 668.3795,-398.0596 624.5,-337 595.2192,-296.2549 546.7808,-341.7451 517.5,-301 493.2493,-267.2544 475.9444,-207.5 517.5,-207.5"/>
<polygon fill="#000000" stroke="#000000" points="634.4752,-513.7966 624.1835,-510.0111 629.4876,-514.1483 624.5,-514.5 624.5,-514.5 624.5,-514.5 629.4876,-514.1483 624.8165,-518.9889 634.4752,-513.7966 634.4752,-513.7966"/>
</g>
<!-- comments -->
<g id="node4" class="node">
<title>comments</title>
<polygon fill="#efefef" stroke="transparent" points="473.5,-896.5 473.5,-931.5 702.5,-931.5 702.5,-896.5 473.5,-896.5"/>
<polygon fill="none" stroke="#000000" points="473.5,-896.5 473.5,-931.5 702.5,-931.5 702.5,-896.5 473.5,-896.5"/>
<text text-anchor="start" x="480.3831" y="-909.3" font-family="Arial Bold" font-size="18.00" fill="#000000">comments</text>
<text text-anchor="start" x="563.3883" y="-909.3" font-family="Arial" font-size="14.00" fill="#000000">    </text>
<text text-anchor="start" x="597.5931" y="-909.3" font-family="Arial" font-size="14.00" fill="#666666">[BASIC TABLE]</text>
<polygon fill="none" stroke="#000000" points="473.5,-866.5 473.5,-896.5 702.5,-896.5 702.5,-866.5 473.5,-866.5"/>
<text text-anchor="start" x="480.5" y="-877.9" font-family="Arial" font-size="14.00" fill="#000000">id    </text>
<text text-anchor="start" x="525.594" y="-877.9" font-family="Arial" font-size="14.00" fill="#666666">[int]</text>
<polygon fill="none" stroke="#000000" points="473.5,-836.5 473.5,-866.5 702.5,-866.5 702.5,-836.5 473.5,-836.5"/>
<text text-anchor="start" x="480.5" y="-847.9" font-family="Arial" font-size="14.00" fill="#000000">post_id    </text>
<text text-anchor="start" x="559.8324" y="-847.9" font-family="Arial" font-size="14.00" fill="#666666">[int]</text>
<polygon fill="none" stroke="#000000" points="473.5,-806.5 473.5,-836.5 702.5,-836.5 702.5,-806.5 473.5,-806.5"/>
<text text-anchor="start" x="480.5" y="-817.9" font-family="Arial" font-size="14.00" fill="#000000">user_id    </text>
<text text-anchor="start" x="560.6024" y="-817.9" font-family="Arial" font-size="14.00" fill="#666666">[int]</text>
<polygon fill="none" stroke="#000000" points="473.5,-776.5 473.5,-806.5 702.5,-806.5 702.5,-776.5 473.5,-776.5"/>
<text text-anchor="start" x="480.5" y="-787.9" font-family="Arial" font-size="14.00" fill="#000000">comment    </text>
<text text-anchor="start" x="572.2644" y="-787.9" font-family="Arial" font-size="14.00" fill="#666666">[text]</text>
<polygon fill="none" stroke="#000000" points="473.5,-746.5 473.5,-776.5 702.5,-776.5 702.5,-746.5 473.5,-746.5"/>
<text text-anchor="start" x="480.5" y="-757.9" font-family="Arial" font-size="14.00" fill="#000000">created    </text>
<text text-anchor="start" x="561.3864" y="-757.9" font-family="Arial" font-size="14.00" fill="#666666">[date]</text>
<polygon fill="none" stroke="#000000" points="473.5,-716.5 473.5,-746.5 702.5,-746.5 702.5,-716.5 473.5,-716.5"/>
<text text-anchor="start" x="480.5" y="-727.9" font-family="Arial" font-size="14.00" fill="#000000">updated    </text>
<text text-anchor="start" x="565.291" y="-727.9" font-family="Arial" font-size="14.00" fill="#666666">[date]</text>
</g>
<!-- comments&#45;&gt;users -->
<g id="edge4" class="edge">
<title>comments:user_id&#45;&gt;users:id</title>
<path fill="none" stroke="#000000" d="M712.0404,-817.2513C771.0382,-763.003 772.3932,-207.5 707.5,-207.5"/>
<polygon fill="#000000" stroke="#000000" points="711.6351,-817.4318 700.6693,-817.3892 707.0675,-819.4659 702.5,-821.5 702.5,-821.5 702.5,-821.5 707.0675,-819.4659 704.3307,-825.6108 711.6351,-817.4318 711.6351,-817.4318"/>
</g>
<!-- comments&#45;&gt;posts -->
<g id="edge3" class="edge">
<title>comments:post_id&#45;&gt;posts:id</title>
<path fill="none" stroke="#000000" d="M463.5195,-850.8156C397.3446,-841.2236 426.8077,-733.1329 473.5,-674 516.2553,-619.8531 581.7447,-692.1469 624.5,-638 650.2525,-605.386 666.0556,-544.5 624.5,-544.5"/>
<polygon fill="#000000" stroke="#000000" points="463.5234,-850.8158 473.1921,-855.9895 468.5117,-851.1579 473.5,-851.5 473.5,-851.5 473.5,-851.5 468.5117,-851.1579 473.8079,-847.0105 463.5234,-850.8158 463.5234,-850.8158"/>
</g>
<!-- comment_stars -->
<g id="node5" class="node">
<title>comment_stars</title>
<polygon fill="#efefef" stroke="transparent" points="511.5,-1233.5 511.5,-1268.5 780.5,-1268.5 780.5,-1233.5 511.5,-1233.5"/>
<polygon fill="none" stroke="#000000" points="511.5,-1233.5 511.5,-1268.5 780.5,-1268.5 780.5,-1233.5 511.5,-1233.5"/>
<text text-anchor="start" x="518.3797" y="-1246.3" font-family="Arial Bold" font-size="18.00" fill="#000000">comment_stars</text>
<text text-anchor="start" x="641.3917" y="-1246.3" font-family="Arial" font-size="14.00" fill="#000000">    </text>
<text text-anchor="start" x="675.5965" y="-1246.3" font-family="Arial" font-size="14.00" fill="#666666">[BASIC TABLE]</text>
<polygon fill="none" stroke="#000000" points="511.5,-1203.5 511.5,-1233.5 780.5,-1233.5 780.5,-1203.5 511.5,-1203.5"/>
<text text-anchor="start" x="518.5" y="-1214.9" font-family="Arial" font-size="14.00" fill="#000000">id    </text>
<text text-anchor="start" x="563.594" y="-1214.9" font-family="Arial" font-size="14.00" fill="#666666">[int]</text>
<polygon fill="none" stroke="#000000" points="511.5,-1173.5 511.5,-1203.5 780.5,-1203.5 780.5,-1173.5 511.5,-1173.5"/>
<text text-anchor="start" x="518.5" y="-1184.9" font-family="Arial" font-size="14.00" fill="#000000">user_id    </text>
<text text-anchor="start" x="598.6024" y="-1184.9" font-family="Arial" font-size="14.00" fill="#666666">[int]</text>
<polygon fill="none" stroke="#000000" points="511.5,-1143.5 511.5,-1173.5 780.5,-1173.5 780.5,-1143.5 511.5,-1143.5"/>
<text text-anchor="start" x="518.5" y="-1154.9" font-family="Arial" font-size="14.00" fill="#000000">comment_post_id    </text>
<text text-anchor="start" x="663.1746" y="-1154.9" font-family="Arial" font-size="14.00" fill="#666666">[int]</text>
<polygon fill="none" stroke="#000000" points="511.5,-1113.5 511.5,-1143.5 780.5,-1143.5 780.5,-1113.5 511.5,-1113.5"/>
<text text-anchor="start" x="518.5" y="-1124.9" font-family="Arial" font-size="14.00" fill="#000000">comment_user_id    </text>
<text text-anchor="start" x="663.9446" y="-1124.9" font-family="Arial" font-size="14.00" fill="#666666">[int]</text>
<polygon fill="none" stroke="#000000" points="511.5,-1083.5 511.5,-1113.5 780.5,-1113.5 780.5,-1083.5 511.5,-1083.5"/>
<text text-anchor="start" x="518.5" y="-1094.9" font-family="Arial" font-size="14.00" fill="#000000">created    </text>
<text text-anchor="start" x="599.3864" y="-1094.9" font-family="Arial" font-size="14.00" fill="#666666">[date]</text>
<polygon fill="none" stroke="#000000" points="511.5,-1053.5 511.5,-1083.5 780.5,-1083.5 780.5,-1053.5 511.5,-1053.5"/>
<text text-anchor="start" x="518.5" y="-1064.9" font-family="Arial" font-size="14.00" fill="#000000">updated    </text>
<text text-anchor="start" x="603.291" y="-1064.9" font-family="Arial" font-size="14.00" fill="#666666">[date]</text>
</g>
<!-- comment_stars&#45;&gt;users -->
<g id="edge5" class="edge">
<title>comment_stars:comment_user_id&#45;&gt;users:id</title>
<path fill="none" stroke="#000000" d="M790.4781,-1127.4532C825.3699,-1118.8814 781.2529,-1059.3405 780.5,-1011 775.8328,-711.3354 820.947,-630.3341 759.5,-337 746.7837,-276.2953 769.5223,-207.5 707.5,-207.5"/>
<polygon fill="#000000" stroke="#000000" points="790.4454,-1127.4565 780.0304,-1124.0246 785.4727,-1127.9783 780.5,-1128.5 780.5,-1128.5 780.5,-1128.5 785.4727,-1127.9783 780.9696,-1132.9754 790.4454,-1127.4565 790.4454,-1127.4565"/>
</g>
<!-- comment_stars&#45;&gt;comments -->
<g id="edge6" class="edge">
<title>comment_stars:comment_post_id&#45;&gt;comments:post_id</title>
<path fill="none" stroke="#000000" d="M501.5341,-1157.6529C448.5923,-1148.0261 471.946,-1058.7056 511.5,-1011 566.6361,-944.5009 647.3639,-1041.4991 702.5,-975 737.534,-932.7459 757.3889,-851.5 702.5,-851.5"/>
<polygon fill="#000000" stroke="#000000" points="501.5359,-1157.6529 511.1188,-1162.9838 506.518,-1158.0765 511.5,-1158.5 511.5,-1158.5 511.5,-1158.5 506.518,-1158.0765 511.8812,-1154.0162 501.5359,-1157.6529 501.5359,-1157.6529"/>
</g>
<!-- logs -->
<g id="node6" class="node">
<title>logs</title>
<polygon fill="#efefef" stroke="transparent" points="330.5,-1600.5 330.5,-1635.5 509.5,-1635.5 509.5,-1600.5 330.5,-1600.5"/>
<polygon fill="none" stroke="#000000" points="330.5,-1600.5 330.5,-1635.5 509.5,-1635.5 509.5,-1600.5 330.5,-1600.5"/>
<text text-anchor="start" x="337.3824" y="-1613.3" font-family="Arial Bold" font-size="18.00" fill="#000000">logs</text>
<text text-anchor="start" x="370.389" y="-1613.3" font-family="Arial" font-size="14.00" fill="#000000">    </text>
<text text-anchor="start" x="404.5938" y="-1613.3" font-family="Arial" font-size="14.00" fill="#666666">[BASIC TABLE]</text>
<polygon fill="none" stroke="#000000" points="330.5,-1570.5 330.5,-1600.5 509.5,-1600.5 509.5,-1570.5 330.5,-1570.5"/>
<text text-anchor="start" x="337.5" y="-1581.9" font-family="Arial" font-size="14.00" fill="#000000">id    </text>
<text text-anchor="start" x="382.594" y="-1581.9" font-family="Arial" font-size="14.00" fill="#666666">[int]</text>
<polygon fill="none" stroke="#000000" points="330.5,-1540.5 330.5,-1570.5 509.5,-1570.5 509.5,-1540.5 330.5,-1540.5"/>
<text text-anchor="start" x="337.5" y="-1551.9" font-family="Arial" font-size="14.00" fill="#000000">user_id    </text>
<text text-anchor="start" x="417.6024" y="-1551.9" font-family="Arial" font-size="14.00" fill="#666666">[int]</text>
<polygon fill="none" stroke="#000000" points="330.5,-1510.5 330.5,-1540.5 509.5,-1540.5 509.5,-1510.5 330.5,-1510.5"/>
<text text-anchor="start" x="337.5" y="-1521.9" font-family="Arial" font-size="14.00" fill="#000000">post_id    </text>
<text text-anchor="start" x="416.8324" y="-1521.9" font-family="Arial" font-size="14.00" fill="#666666">[int]</text>
<polygon fill="none" stroke="#000000" points="330.5,-1480.5 330.5,-1510.5 509.5,-1510.5 509.5,-1480.5 330.5,-1480.5"/>
<text text-anchor="start" x="337.5" y="-1491.9" font-family="Arial" font-size="14.00" fill="#000000">comment_id    </text>
<text text-anchor="start" x="447.9362" y="-1491.9" font-family="Arial" font-size="14.00" fill="#666666">[int]</text>
<polygon fill="none" stroke="#000000" points="330.5,-1450.5 330.5,-1480.5 509.5,-1480.5 509.5,-1450.5 330.5,-1450.5"/>
<text text-anchor="start" x="337.5" y="-1461.9" font-family="Arial" font-size="14.00" fill="#000000">comment_star_id    </text>
<text text-anchor="start" x="479.0526" y="-1461.9" font-family="Arial" font-size="14.00" fill="#666666">[int]</text>
<polygon fill="none" stroke="#000000" points="330.5,-1420.5 330.5,-1450.5 509.5,-1450.5 509.5,-1420.5 330.5,-1420.5"/>
<text text-anchor="start" x="337.5" y="-1431.9" font-family="Arial" font-size="14.00" fill="#000000">payload    </text>
<text text-anchor="start" x="420.7244" y="-1431.9" font-family="Arial" font-size="14.00" fill="#666666">[text]</text>
<polygon fill="none" stroke="#000000" points="330.5,-1390.5 330.5,-1420.5 509.5,-1420.5 509.5,-1390.5 330.5,-1390.5"/>
<text text-anchor="start" x="337.5" y="-1401.9" font-family="Arial" font-size="14.00" fill="#000000">created    </text>
<text text-anchor="start" x="418.3864" y="-1401.9" font-family="Arial" font-size="14.00" fill="#666666">[date]</text>
</g>
<!-- logs&#45;&gt;users -->
<g id="edge9" class="edge">
<title>logs:user_id&#45;&gt;users:id</title>
<path fill="none" stroke="#000000" stroke-dasharray="5,2" d="M320.5101,-1554.9804C245.164,-1546.5268 328.2232,-1436.5905 330.5,-1348 333.3898,-1235.5553 335.7335,-439.2988 382.5,-337 417.0681,-261.3846 434.3577,-207.5 517.5,-207.5"/>
<polygon fill="#000000" stroke="#000000" points="320.5135,-1554.9805 330.2662,-1559.9939 325.5067,-1555.2402 330.5,-1555.5 330.5,-1555.5 330.5,-1555.5 325.5067,-1555.2402 330.7338,-1551.0061 320.5135,-1554.9805 320.5135,-1554.9805"/>
<text text-anchor="start" x="272.524" y="-1565.5" font-family="Arial" font-size="10.00" fill="#000000">logs&#45;&gt;users</text>
</g>
<!-- logs&#45;&gt;posts -->
<g id="edge10" class="edge">
<title>logs:post_id&#45;&gt;posts:id</title>
<path fill="none" stroke="#000000" stroke-dasharray="5,2" d="M320.2025,-1524.811C255.7131,-1515.5702 297.2148,-1415.4224 330.5,-1348 342.1479,-1324.4061 365.065,-1335.1887 377.5,-1312 417.9164,-1236.6319 349.9791,-544.5 435.5,-544.5"/>
<polygon fill="#000000" stroke="#000000" points="320.5223,-1524.8323 330.1995,-1529.99 325.5112,-1525.1661 330.5,-1525.5 330.5,-1525.5 330.5,-1525.5 325.5112,-1525.1661 330.8005,-1521.01 320.5223,-1524.8323 320.5223,-1524.8323"/>
<text text-anchor="start" x="240.8245" y="-1535.5" font-family="Arial" font-size="10.00" fill="#000000">Additional Relation</text>
</g>
<!-- logs&#45;&gt;comments -->
<g id="edge11" class="edge">
<title>logs:comment_id&#45;&gt;comments:id</title>
<path fill="none" stroke="#000000" stroke-dasharray="5,2" d="M519.687,-1494.6625C571.0627,-1485.4844 537.9515,-1402.909 509.5,-1348 496.7356,-1323.3657 471.2644,-1336.6343 458.5,-1312 396.9537,-1193.2206 450.7909,-1144.5555 458.5,-1011 461.8389,-953.1559 415.5596,-881.5 473.5,-881.5"/>
<polygon fill="#000000" stroke="#000000" points="519.4664,-1494.6805 509.1312,-1491.0151 514.4832,-1495.0903 509.5,-1495.5 509.5,-1495.5 509.5,-1495.5 514.4832,-1495.0903 509.8688,-1499.9849 519.4664,-1494.6805 519.4664,-1494.6805"/>
<text text-anchor="start" x="516.8245" y="-1505.5" font-family="Arial" font-size="10.00" fill="#000000">Additional Relation</text>
</g>
<!-- logs&#45;&gt;comment_stars -->
<g id="edge12" class="edge">
<title>logs:comment_star_id&#45;&gt;comment_stars:id</title>
<path fill="none" stroke="#000000" stroke-dasharray="5,2" d="M519.6358,-1464.6541C604.7913,-1448.9038 405.4709,-1218.5 511.5,-1218.5"/>
<polygon fill="#000000" stroke="#000000" points="519.4654,-1464.6682 509.1257,-1461.0156 514.4827,-1465.0841 509.5,-1465.5 509.5,-1465.5 509.5,-1465.5 514.4827,-1465.0841 509.8743,-1469.9844 519.4654,-1464.6682 519.4654,-1464.6682"/>
<text text-anchor="start" x="516.8245" y="-1475.5" font-family="Arial" font-size="10.00" fill="#000000">Additional Relation</text>
</g>
<!-- post_comments -->
<g id="node7" class="node">
<title>post_comments</title>
<polygon fill="#efefef" stroke="transparent" points="613.5,-1600.5 613.5,-1635.5 833.5,-1635.5 833.5,-1600.5 613.5,-1600.5"/>
<polygon fill="none" stroke="#000000" points="613.5,-1600.5 613.5,-1635.5 833.5,-1635.5 833.5,-1600.5 613.5,-1600.5"/>
<text text-anchor="start" x="621.1048" y="-1613.3" font-family="Arial Bold" font-size="18.00" fill="#000000">post_comments</text>
<text text-anchor="start" x="748.1308" y="-1613.3" font-family="Arial" font-size="14.00" fill="#000000">    </text>
<text text-anchor="start" x="782.3356" y="-1613.3" font-family="Arial" font-size="14.00" fill="#666666">[VIEW]</text>
<polygon fill="none" stroke="#000000" points="613.5,-1570.5 613.5,-1600.5 833.5,-1600.5 833.5,-1570.5 613.5,-1570.5"/>
<text text-anchor="start" x="620.5" y="-1581.9" font-family="Arial" font-size="14.00" fill="#000000">id    </text>
<text text-anchor="start" x="665.594" y="-1581.9" font-family="Arial" font-size="14.00" fill="#666666">[int]</text>
<polygon fill="none" stroke="#000000" points="613.5,-1540.5 613.5,-1570.5 833.5,-1570.5 833.5,-1540.5 613.5,-1540.5"/>
<text text-anchor="start" x="620.5" y="-1551.9" font-family="Arial" font-size="14.00" fill="#000000">title    </text>
<text text-anchor="start" x="676.4818" y="-1551.9" font-family="Arial" font-size="14.00" fill="#666666">[varchar(255)]</text>
<polygon fill="none" stroke="#000000" points="613.5,-1510.5 613.5,-1540.5 833.5,-1540.5 833.5,-1510.5 613.5,-1510.5"/>
<text text-anchor="start" x="620.5" y="-1521.9" font-family="Arial" font-size="14.00" fill="#000000">post_user    </text>
<text text-anchor="start" x="716.169" y="-1521.9" font-family="Arial" font-size="14.00" fill="#666666">[varchar(50)]</text>
<polygon fill="none" stroke="#000000" points="613.5,-1480.5 613.5,-1510.5 833.5,-1510.5 833.5,-1480.5 613.5,-1480.5"/>
<text text-anchor="start" x="620.5" y="-1491.9" font-family="Arial" font-size="14.00" fill="#000000">comment    </text>
<text text-anchor="start" x="712.2644" y="-1491.9" font-family="Arial" font-size="14.00" fill="#666666">[text]</text>
<polygon fill="none" stroke="#000000" points="613.5,-1450.5 613.5,-1480.5 833.5,-1480.5 833.5,-1450.5 613.5,-1450.5"/>
<text text-anchor="start" x="620.4453" y="-1461.9" font-family="Arial" font-size="14.00" fill="#000000">comment_user    </text>
<text text-anchor="start" x="747.2181" y="-1461.9" font-family="Arial" font-size="14.00" fill="#666666">[varchar(50)]</text>
<polygon fill="none" stroke="#000000" points="613.5,-1420.5 613.5,-1450.5 833.5,-1450.5 833.5,-1420.5 613.5,-1420.5"/>
<text text-anchor="start" x="620.5" y="-1431.9" font-family="Arial" font-size="14.00" fill="#000000">created    </text>
<text text-anchor="start" x="701.3864" y="-1431.9" font-family="Arial" font-size="14.00" fill="#666666">[date]</text>
<polygon fill="none" stroke="#000000" points="613.5,-1390.5 613.5,-1420.5 833.5,-1420.5 833.5,-1390.5 613.5,-1390.5"/>
<text text-anchor="start" x="620.5" y="-1401.9" font-family="Arial" font-size="14.00" fill="#000000">updated    </text>
<text text-anchor="start" x="705.291" y="-1401.9" font-family="Arial" font-size="14.00" fill="#666666">[date]</text>
</g>
<!-- CamelizeTable -->
<g id="node8" class="node">
<title>CamelizeTable</title>
<polygon fill="#efefef" stroke="transparent" points="937.5,-1525.5 937.5,-1560.5 1203.5,-1560.5 1203.5,-1525.5 937.5,-1525.5"/>
<polygon fill="none" stroke="#000000" points="937.5,-1525.5 937.5,-1560.5 1203.5,-1560.5 1203.5,-1525.5 937.5,-1525.5"/>
<text text-anchor="start" x="944.3845" y="-1538.3" font-family="Arial Bold" font-size="18.00" fill="#000000">CamelizeTable</text>
<text text-anchor="start" x="1064.3869" y="-1538.3" font-family="Arial" font-size="14.00" fill="#000000">    </text>
<text text-anchor="start" x="1098.5917" y="-1538.3" font-family="Arial" font-size="14.00" fill="#666666">[BASIC TABLE]</text>
<polygon fill="none" stroke="#000000" points="937.5,-1495.5 937.5,-1525.5 1203.5,-1525.5 1203.5,-1495.5 937.5,-1495.5"/>
<text text-anchor="start" x="944.5" y="-1506.9" font-family="Arial" font-size="14.00" fill="#000000">id    </text>
<text text-anchor="start" x="989.594" y="-1506.9" font-family="Arial" font-size="14.00" fill="#666666">[int]</text>
<polygon fill="none" stroke="#000000" points="937.5,-1465.5 937.5,-1495.5 1203.5,-1495.5 1203.5,-1465.5 937.5,-1465.5"/>
<text text-anchor="start" x="944.5" y="-1476.9" font-family="Arial" font-size="14.00" fill="#000000">created    </text>
<text text-anchor="start" x="1025.3864" y="-1476.9" font-family="Arial" font-size="14.00" fill="#666666">[date]</text>
</g>
<!-- hyphen&#45;table -->
<g id="node9" class="node">
<title>hyphen&#45;table</title>
<polygon fill="#efefef" stroke="transparent" points="1307.5,-1540.5 1307.5,-1575.5 1557.5,-1575.5 1557.5,-1540.5 1307.5,-1540.5"/>
<polygon fill="none" stroke="#000000" points="1307.5,-1540.5 1307.5,-1575.5 1557.5,-1575.5 1557.5,-1540.5 1307.5,-1540.5"/>
<text text-anchor="start" x="1314.3666" y="-1553.3" font-family="Arial Bold" font-size="18.00" fill="#000000">hyphen&#45;table</text>
<text text-anchor="start" x="1418.4048" y="-1553.3" font-family="Arial" font-size="14.00" fill="#000000">    </text>
<text text-anchor="start" x="1452.6096" y="-1553.3" font-family="Arial" font-size="14.00" fill="#666666">[BASIC TABLE]</text>
<polygon fill="none" stroke="#000000" points="1307.5,-1510.5 1307.5,-1540.5 1557.5,-1540.5 1557.5,-1510.5 1307.5,-1510.5"/>
<text text-anchor="start" x="1314.5" y="-1521.9" font-family="Arial" font-size="14.00" fill="#000000">id    </text>
<text text-anchor="start" x="1359.594" y="-1521.9" font-family="Arial" font-size="14.00" fill="#666666">[int]</text>
<polygon fill="none" stroke="#000000" points="1307.5,-1480.5 1307.5,-1510.5 1557.5,-1510.5 1557.5,-1480.5 1307.5,-1480.5"/>
<text text-anchor="start" x="1314.5" y="-1491.9" font-family="Arial" font-size="14.00" fill="#000000">hyphen&#45;column    </text>
<text text-anchor="start" x="1444.3934" y="-1491.9" font-family="Arial" font-size="14.00" fill="#666666">[text]</text>
<polygon fill="none" stroke="#000000" points="1307.5,-1450.5 1307.5,-1480.5 1557.5,-1480.5 1557.5,-1450.5 1307.5,-1450.5"/>
<text text-anchor="start" x="1314.5" y="-1461.9" font-family="Arial" font-size="14.00" fill="#000000">created    </text>
<text text-anchor="start" x="1395.3864" y="-1461.9" font-family="Arial" font-size="14.00" fill="#666666">[date]</text>
</g>
<!-- administrator.blogs -->
<g id="node10" class="node">
<title>administrator.blogs</title>
<polygon fill="#efefef" stroke="transparent" points="844.5,-559.5 844.5,-594.5 1142.5,-594.5 1142.5,-559.5 844.5,-559.5"/>
<polygon fill="none" stroke="#000000" points="844.5,-559.5 844.5,-594.5 1142.5,-594.5 1142.5,-559.5 844.5,-559.5"/>
<text text-anchor="start" x="851.378" y="-572.3" font-family="Arial Bold" font-size="18.00" fill="#000000">administrator.blogs</text>
<text text-anchor="start" x="1003.3934" y="-572.3" font-family="Arial" font-size="14.00" fill="#000000">    </text>
<text text-anchor="start" x="1037.5982" y="-572.3" font-family="Arial" font-size="14.00" fill="#666666">[BASIC TABLE]</text>
<polygon fill="none" stroke="#000000" points="844.5,-529.5 844.5,-559.5 1142.5,-559.5 1142.5,-529.5 844.5,-529.5"/>
<text text-anchor="start" x="851.5" y="-540.9" font-family="Arial" font-size="14.00" fill="#000000">id    </text>
<text text-anchor="start" x="896.594" y="-540.9" font-family="Arial" font-size="14.00" fill="#666666">[int]</text>
<polygon fill="none" stroke="#000000" points="844.5,-499.5 844.5,-529.5 1142.5,-529.5 1142.5,-499.5 844.5,-499.5"/>
<text text-anchor="start" x="851.5" y="-510.9" font-family="Arial" font-size="14.00" fill="#000000">user_id    </text>
<text text-anchor="start" x="931.6024" y="-510.9" font-family="Arial" font-size="14.00" fill="#666666">[int]</text>
<polygon fill="none" stroke="#000000" points="844.5,-469.5 844.5,-499.5 1142.5,-499.5 1142.5,-469.5 844.5,-469.5"/>
<text text-anchor="start" x="851.5" y="-480.9" font-family="Arial" font-size="14.00" fill="#000000">name    </text>
<text text-anchor="start" x="920.7132" y="-480.9" font-family="Arial" font-size="14.00" fill="#666666">[text]</text>
<polygon fill="none" stroke="#000000" points="844.5,-439.5 844.5,-469.5 1142.5,-469.5 1142.5,-439.5 844.5,-439.5"/>
<text text-anchor="start" x="851.5" y="-450.9" font-family="Arial" font-size="14.00" fill="#000000">description    </text>
<text text-anchor="start" x="953.3822" y="-450.9" font-family="Arial" font-size="14.00" fill="#666666">[text]</text>
<polygon fill="none" stroke="#000000" points="844.5,-409.5 844.5,-439.5 1142.5,-439.5 1142.5,-409.5 844.5,-409.5"/>
<text text-anchor="start" x="851.5" y="-420.9" font-family="Arial" font-size="14.00" fill="#000000">created    </text>
<text text-anchor="start" x="932.3864" y="-420.9" font-family="Arial" font-size="14.00" fill="#666666">[date]</text>
<polygon fill="none" stroke="#000000" points="844.5,-379.5 844.5,-409.5 1142.5,-409.5 1142.5,-379.5 844.5,-379.5"/>
<text text-anchor="start" x="851.5" y="-390.9" font-family="Arial" font-size="14.00" fill="#000000">updated    </text>
<text text-anchor="start" x="936.291" y="-390.9" font-family="Arial" font-size="14.00" fill="#666666">[date]</text>
</g>
<!-- administrator.blogs&#45;&gt;users -->
<g id="edge7" class="edge">
<title>administrator.blogs:user_id&#45;&gt;users:id</title>
<path fill="none" stroke="#000000" d="M834.1803,-513.8927C766.8913,-505.3674 820.6364,-408.8629 787.5,-337 759.1717,-275.5643 775.1523,-207.5 707.5,-207.5"/>
<polygon fill="#000000" stroke="#000000" points="834.5173,-513.9124 844.2356,-518.9922 839.5086,-514.2062 844.5,-514.5 844.5,-514.5 844.5,-514.5 839.5086,-514.2062 844.7644,-510.0078 834.5173,-513.9124 834.5173,-513.9124"/>
</g>
<!-- name with spaces -->
<g id="node11" class="node">
<title>name with spaces</title>
<polygon fill="#efefef" stroke="transparent" points="1662.5,-1510.5 1662.5,-1545.5 1897.5,-1545.5 1897.5,-1510.5 1662.5,-1510.5"/>
<polygon fill="none" stroke="#000000" points="1662.5,-1510.5 1662.5,-1545.5 1897.5,-1545.5 1897.5,-1510.5 1662.5,-1510.5"/>
<text text-anchor="start" x="1669.1025" y="-1523.3" font-family="Arial Bold" font-size="18.00" fill="#000000">name with spaces</text>
<text text-anchor="start" x="1813.1331" y="-1523.3" font-family="Arial" font-size="14.00" fill="#000000">    </text>
<text text-anchor="start" x="1847.3379" y="-1523.3" font-family="Arial" font-size="14.00" fill="#666666">[VIEW]</text>
<polygon fill="none" stroke="#000000" points="1662.5,-1480.5 1662.5,-1510.5 1897.5,-1510.5 1897.5,-1480.5 1662.5,-1480.5"/>
<text text-anchor="start" x="1669.5" y="-1491.9" font-family="Arial" font-size="14.00" fill="#000000">title    </text>
<text text-anchor="start" x="1725.4818" y="-1491.9" font-family="Arial" font-size="14.00" fill="#666666">[varchar(255)]</text>
</g>
<!-- Sales.Product -->
<g id="node12" class="node">
<title>Sales.Product</title>
<polygon fill="#efefef" stroke="transparent" points="2012.5,-1173.5 2012.5,-1208.5 2270.5,-1208.5 2270.5,-1173.5 2012.5,-1173.5"/>
<polygon fill="none" stroke="#000000" points="2012.5,-1173.5 2012.5,-1208.5 2270.5,-1208.5 2270.5,-1173.5 2012.5,-1173.5"/>
<text text-anchor="start" x="2019.3706" y="-1186.3" font-family="Arial Bold" font-size="18.00" fill="#000000">Sales.Product</text>
<text text-anchor="start" x="2131.4008" y="-1186.3" font-family="Arial" font-size="14.00" fill="#000000">    </text>
<text text-anchor="start" x="2165.6056" y="-1186.3" font-family="Arial" font-size="14.00" fill="#666666">[BASIC TABLE]</text>
<polygon fill="none" stroke="#000000" points="2012.5,-1143.5 2012.5,-1173.5 2270.5,-1173.5 2270.5,-1143.5 2012.5,-1143.5"/>
<text text-anchor="start" x="2019.5" y="-1154.9" font-family="Arial" font-size="14.00" fill="#000000">ProductID    </text>
<text text-anchor="start" x="2115.9376" y="-1154.9" font-family="Arial" font-size="14.00" fill="#666666">[int]</text>
<polygon fill="none" stroke="#000000" points="2012.5,-1113.5 2012.5,-1143.5 2270.5,-1143.5 2270.5,-1113.5 2012.5,-1113.5"/>
<text text-anchor="start" x="2019.5" y="-1124.9" font-family="Arial" font-size="14.00" fill="#000000">SalesPersonID    </text>
<text text-anchor="start" x="2147.0554" y="-1124.9" font-family="Arial" font-size="14.00" fill="#666666">[int]</text>
</g>
<!-- Rabbits.Running -->
<g id="node13" class="node">
<title>Rabbits.Running</title>
<polygon fill="#efefef" stroke="transparent" points="2001.5,-1540.5 2001.5,-1575.5 2280.5,-1575.5 2280.5,-1540.5 2001.5,-1540.5"/>
<polygon fill="none" stroke="#000000" points="2001.5,-1540.5 2001.5,-1575.5 2280.5,-1575.5 2280.5,-1540.5 2001.5,-1540.5"/>
<text text-anchor="start" x="2008.3703" y="-1553.3" font-family="Arial Bold" font-size="18.00" fill="#000000">Rabbits.Running</text>
<text text-anchor="start" x="2141.4011" y="-1553.3" font-family="Arial" font-size="14.00" fill="#000000">    </text>
<text text-anchor="start" x="2175.6059" y="-1553.3" font-family="Arial" font-size="14.00" fill="#666666">[BASIC TABLE]</text>
<polygon fill="none" stroke="#000000" points="2001.5,-1510.5 2001.5,-1540.5 2280.5,-1540.5 2280.5,-1510.5 2001.5,-1510.5"/>
<text text-anchor="start" x="2008.5" y="-1521.9" font-family="Arial" font-size="14.00" fill="#000000">LocationID    </text>
<text text-anchor="start" x="2109.6122" y="-1521.9" font-family="Arial" font-size="14.00" fill="#666666">[int]</text>
<polygon fill="none" stroke="#000000" points="2001.5,-1480.5 2001.5,-1510.5 2280.5,-1510.5 2280.5,-1480.5 2001.5,-1480.5"/>
<text text-anchor="start" x="2008.5" y="-1491.9" font-family="Arial" font-size="14.00" fill="#000000">ProductID    </text>
<text text-anchor="start" x="2104.9376" y="-1491.9" font-family="Arial" font-size="14.00" fill="#666666">[int]</text>
<polygon fill="none" stroke="#000000" points="2001.5,-1450.5 2001.5,-1480.5 2280.5,-1480.5 2280.5,-1450.5 2001.5,-1450.5"/>
<text text-anchor="start" x="2008.5" y="-1461.9" font-family="Arial" font-size="14.00" fill="#000000">EmployeeID    </text>
<text text-anchor="start" x="2118.9362" y="-1461.9" font-family="Arial" font-size="14.00" fill="#666666">[int]</text>
</g>
<!-- Rabbits.Running&#45;&gt;Sales.Product -->
<g id="edge8" class="edge">
<title>Rabbits.Running:ProductID&#45;&gt;Sales.Product:SalesPersonID</title>
<path fill="none" stroke="#000000" d="M2290.5954,-1493.9164C2366.25,-1469.5463 2371.2779,-1171.2779 2313.5,-1113.5 2259.4456,-1059.4456 2141.5,-1037.0556 2141.5,-1113.5"/>
<polygon fill="#000000" stroke="#000000" points="2290.3792,-1493.9502 2279.8026,-1491.0544 2285.4396,-1494.7251 2280.5,-1495.5 2280.5,-1495.5 2280.5,-1495.5 2285.4396,-1494.7251 2281.1974,-1499.9456 2290.3792,-1493.9502 2290.3792,-1493.9502"/>
</g>
</g>
</svg>
