<?xml version="1.0" encoding="UTF-8" standalone="no"?>
<!DOCTYPE svg PUBLIC "-//W3C//DTD SVG 1.1//EN"
 "http://www.w3.org/Graphics/SVG/1.1/DTD/svg11.dtd">
<!-- Generated by graphviz version 2.40.1 (20161225.0304)
 -->
<!-- Title: testdb Pages: 1 -->
<svg width="1252pt" height="1687pt"
 viewBox="0.00 0.00 1251.50 1687.00" xmlns="http://www.w3.org/2000/svg" xmlns:xlink="http://www.w3.org/1999/xlink">
<g id="graph0" class="graph" transform="scale(1 1) rotate(0) translate(4 1683)">
<title>testdb</title>
<polygon fill="#ffffff" stroke="transparent" points="-4,4 -4,-1683 1247.5,-1683 1247.5,4 -4,4"/>
<!-- posts -->
<g id="node1" class="node">
<title>posts</title>
<polygon fill="#efefef" stroke="transparent" points="151,-559.5 151,-594.5 309,-594.5 309,-559.5 151,-559.5"/>
<polygon fill="none" stroke="#000000" points="151,-559.5 151,-594.5 309,-594.5 309,-559.5 151,-559.5"/>
<text text-anchor="start" x="157.5355" y="-572.3" font-family="Arial Bold" font-size="18.00" fill="#000000">posts</text>
<text text-anchor="start" x="200.5501" y="-572.3" font-family="Arial" font-size="14.00" fill="#000000"> </text>
<text text-anchor="start" x="204.4407" y="-572.3" font-family="Arial" font-size="14.00" fill="#666666">[BASIC TABLE]</text>
<polygon fill="none" stroke="#000000" points="151,-529.5 151,-559.5 309,-559.5 309,-529.5 151,-529.5"/>
<text text-anchor="start" x="158" y="-540.9" font-family="Arial" font-size="14.00" fill="#000000">id </text>
<text text-anchor="start" x="172.7798" y="-540.9" font-family="Arial" font-size="14.00" fill="#666666">[int]</text>
<polygon fill="none" stroke="#000000" points="151,-499.5 151,-529.5 309,-529.5 309,-499.5 151,-499.5"/>
<text text-anchor="start" x="158" y="-510.9" font-family="Arial" font-size="14.00" fill="#000000">user_id </text>
<text text-anchor="start" x="207.7882" y="-510.9" font-family="Arial" font-size="14.00" fill="#666666">[int]</text>
<polygon fill="none" stroke="#000000" points="151,-469.5 151,-499.5 309,-499.5 309,-469.5 151,-469.5"/>
<text text-anchor="start" x="158" y="-480.9" font-family="Arial" font-size="14.00" fill="#000000">title </text>
<text text-anchor="start" x="183.6676" y="-480.9" font-family="Arial" font-size="14.00" fill="#666666">[varchar(255)]</text>
<polygon fill="none" stroke="#000000" points="151,-439.5 151,-469.5 309,-469.5 309,-439.5 151,-439.5"/>
<text text-anchor="start" x="158" y="-450.9" font-family="Arial" font-size="14.00" fill="#000000">body </text>
<text text-anchor="start" x="192.2384" y="-450.9" font-family="Arial" font-size="14.00" fill="#666666">[text]</text>
<polygon fill="none" stroke="#000000" points="151,-409.5 151,-439.5 309,-439.5 309,-409.5 151,-409.5"/>
<text text-anchor="start" x="158" y="-420.9" font-family="Arial" font-size="14.00" fill="#000000">created </text>
<text text-anchor="start" x="208.5722" y="-420.9" font-family="Arial" font-size="14.00" fill="#666666">[date]</text>
<polygon fill="none" stroke="#000000" points="151,-379.5 151,-409.5 309,-409.5 309,-379.5 151,-379.5"/>
<text text-anchor="start" x="158" y="-390.9" font-family="Arial" font-size="14.00" fill="#000000">updated </text>
<text text-anchor="start" x="212.4768" y="-390.9" font-family="Arial" font-size="14.00" fill="#666666">[date]</text>
</g>
<!-- users -->
<g id="node9" class="node">
<title>users</title>
<polygon fill="#efefef" stroke="transparent" points="357,-222.5 357,-257.5 516,-257.5 516,-222.5 357,-222.5"/>
<polygon fill="none" stroke="#000000" points="357,-222.5 357,-257.5 516,-257.5 516,-222.5 357,-222.5"/>
<text text-anchor="start" x="363.5405" y="-235.3" font-family="Arial Bold" font-size="18.00" fill="#000000">users</text>
<text text-anchor="start" x="407.5451" y="-235.3" font-family="Arial" font-size="14.00" fill="#000000"> </text>
<text text-anchor="start" x="411.4357" y="-235.3" font-family="Arial" font-size="14.00" fill="#666666">[BASIC TABLE]</text>
<polygon fill="none" stroke="#000000" points="357,-192.5 357,-222.5 516,-222.5 516,-192.5 357,-192.5"/>
<text text-anchor="start" x="364" y="-203.9" font-family="Arial" font-size="14.00" fill="#000000">id </text>
<text text-anchor="start" x="378.7798" y="-203.9" font-family="Arial" font-size="14.00" fill="#666666">[int]</text>
<polygon fill="none" stroke="#000000" points="357,-162.5 357,-192.5 516,-192.5 516,-162.5 357,-162.5"/>
<text text-anchor="start" x="363.7693" y="-173.9" font-family="Arial" font-size="14.00" fill="#000000">username </text>
<text text-anchor="start" x="429.8941" y="-173.9" font-family="Arial" font-size="14.00" fill="#666666">[varchar(50)]</text>
<polygon fill="none" stroke="#000000" points="357,-132.5 357,-162.5 516,-162.5 516,-132.5 357,-132.5"/>
<text text-anchor="start" x="364" y="-143.9" font-family="Arial" font-size="14.00" fill="#000000">password </text>
<text text-anchor="start" x="427.7882" y="-143.9" font-family="Arial" font-size="14.00" fill="#666666">[varchar(50)]</text>
<polygon fill="none" stroke="#000000" points="357,-102.5 357,-132.5 516,-132.5 516,-102.5 357,-102.5"/>
<text text-anchor="start" x="364" y="-113.9" font-family="Arial" font-size="14.00" fill="#000000">email </text>
<text text-anchor="start" x="401.3296" y="-113.9" font-family="Arial" font-size="14.00" fill="#666666">[varchar(355)]</text>
<polygon fill="none" stroke="#000000" points="357,-72.5 357,-102.5 516,-102.5 516,-72.5 357,-72.5"/>
<text text-anchor="start" x="364" y="-83.9" font-family="Arial" font-size="14.00" fill="#000000">created </text>
<text text-anchor="start" x="414.5722" y="-83.9" font-family="Arial" font-size="14.00" fill="#666666">[date]</text>
<polygon fill="none" stroke="#000000" points="357,-42.5 357,-72.5 516,-72.5 516,-42.5 357,-42.5"/>
<text text-anchor="start" x="364" y="-53.9" font-family="Arial" font-size="14.00" fill="#000000">updated </text>
<text text-anchor="start" x="418.4768" y="-53.9" font-family="Arial" font-size="14.00" fill="#666666">[date]</text>
</g>
<!-- posts&#45;&gt;users -->
<g id="edge1" class="edge">
<title>posts:user_id&#45;&gt;users:id</title>
<path fill="none" stroke="#000000" d="M319.1735,-513.8709C435.3226,-498.524 222.5392,-207.5 357,-207.5"/>
<polygon fill="#000000" stroke="#000000" points="318.9809,-513.8828 308.7222,-510.0086 313.9905,-514.1914 309,-514.5 309,-514.5 309,-514.5 313.9905,-514.1914 309.2778,-518.9914 318.9809,-513.8828 318.9809,-513.8828"/>
</g>
<!-- comments -->
<g id="node2" class="node">
<title>comments</title>
<polygon fill="#efefef" stroke="transparent" points="140,-896.5 140,-931.5 338,-931.5 338,-896.5 140,-896.5"/>
<polygon fill="none" stroke="#000000" points="140,-896.5 140,-931.5 338,-931.5 338,-896.5 140,-896.5"/>
<text text-anchor="start" x="146.5402" y="-909.3" font-family="Arial Bold" font-size="18.00" fill="#000000">comments</text>
<text text-anchor="start" x="229.5454" y="-909.3" font-family="Arial" font-size="14.00" fill="#000000"> </text>
<text text-anchor="start" x="233.436" y="-909.3" font-family="Arial" font-size="14.00" fill="#666666">[BASIC TABLE]</text>
<polygon fill="none" stroke="#000000" points="140,-866.5 140,-896.5 338,-896.5 338,-866.5 140,-866.5"/>
<text text-anchor="start" x="147" y="-877.9" font-family="Arial" font-size="14.00" fill="#000000">id </text>
<text text-anchor="start" x="161.7798" y="-877.9" font-family="Arial" font-size="14.00" fill="#666666">[int]</text>
<polygon fill="none" stroke="#000000" points="140,-836.5 140,-866.5 338,-866.5 338,-836.5 140,-836.5"/>
<text text-anchor="start" x="147" y="-847.9" font-family="Arial" font-size="14.00" fill="#000000">post_id </text>
<text text-anchor="start" x="196.0182" y="-847.9" font-family="Arial" font-size="14.00" fill="#666666">[int]</text>
<polygon fill="none" stroke="#000000" points="140,-806.5 140,-836.5 338,-836.5 338,-806.5 140,-806.5"/>
<text text-anchor="start" x="147" y="-817.9" font-family="Arial" font-size="14.00" fill="#000000">user_id </text>
<text text-anchor="start" x="196.7882" y="-817.9" font-family="Arial" font-size="14.00" fill="#666666">[int]</text>
<polygon fill="none" stroke="#000000" points="140,-776.5 140,-806.5 338,-806.5 338,-776.5 140,-776.5"/>
<text text-anchor="start" x="147" y="-787.9" font-family="Arial" font-size="14.00" fill="#000000">comment </text>
<text text-anchor="start" x="208.4502" y="-787.9" font-family="Arial" font-size="14.00" fill="#666666">[text]</text>
<polygon fill="none" stroke="#000000" points="140,-746.5 140,-776.5 338,-776.5 338,-746.5 140,-746.5"/>
<text text-anchor="start" x="147" y="-757.9" font-family="Arial" font-size="14.00" fill="#000000">created </text>
<text text-anchor="start" x="197.5722" y="-757.9" font-family="Arial" font-size="14.00" fill="#666666">[date]</text>
<polygon fill="none" stroke="#000000" points="140,-716.5 140,-746.5 338,-746.5 338,-716.5 140,-716.5"/>
<text text-anchor="start" x="147" y="-727.9" font-family="Arial" font-size="14.00" fill="#000000">updated </text>
<text text-anchor="start" x="201.4768" y="-727.9" font-family="Arial" font-size="14.00" fill="#666666">[date]</text>
</g>
<!-- comments&#45;&gt;posts -->
<g id="edge2" class="edge">
<title>comments:post_id&#45;&gt;posts:id</title>
<path fill="none" stroke="#000000" d="M130.0152,-850.8122C63.7807,-841.1726 92.5967,-732.5646 140,-674 188.3163,-614.3074 260.6837,-697.6926 309,-638 335.1446,-605.6995 350.5556,-544.5 309,-544.5"/>
<polygon fill="#000000" stroke="#000000" points="130.0236,-850.8126 139.6907,-855.9894 135.0118,-851.1563 140,-851.5 140,-851.5 140,-851.5 135.0118,-851.1563 140.3093,-847.0106 130.0236,-850.8126 130.0236,-850.8126"/>
</g>
<!-- comments&#45;&gt;users -->
<g id="edge3" class="edge">
<title>comments:user_id&#45;&gt;users:id</title>
<path fill="none" stroke="#000000" d="M347.1173,-817.2456C387.0393,-776.8241 367.7741,-459.3093 361,-337 357.8156,-279.5051 299.417,-207.5 357,-207.5"/>
<polygon fill="#000000" stroke="#000000" points="347.062,-817.2714 336.0971,-817.4221 342.531,-819.3857 338,-821.5 338,-821.5 338,-821.5 342.531,-819.3857 339.9029,-825.5779 347.062,-817.2714 347.062,-817.2714"/>
</g>
<!-- comment_stars -->
<g id="node3" class="node">
<title>comment_stars</title>
<polygon fill="#efefef" stroke="transparent" points="147,-1233.5 147,-1268.5 385,-1268.5 385,-1233.5 147,-1233.5"/>
<polygon fill="none" stroke="#000000" points="147,-1233.5 147,-1268.5 385,-1268.5 385,-1233.5 147,-1233.5"/>
<text text-anchor="start" x="153.5368" y="-1246.3" font-family="Arial Bold" font-size="18.00" fill="#000000">comment_stars</text>
<text text-anchor="start" x="276.5488" y="-1246.3" font-family="Arial" font-size="14.00" fill="#000000"> </text>
<text text-anchor="start" x="280.4394" y="-1246.3" font-family="Arial" font-size="14.00" fill="#666666">[BASIC TABLE]</text>
<polygon fill="none" stroke="#000000" points="147,-1203.5 147,-1233.5 385,-1233.5 385,-1203.5 147,-1203.5"/>
<text text-anchor="start" x="154" y="-1214.9" font-family="Arial" font-size="14.00" fill="#000000">id </text>
<text text-anchor="start" x="168.7798" y="-1214.9" font-family="Arial" font-size="14.00" fill="#666666">[int]</text>
<polygon fill="none" stroke="#000000" points="147,-1173.5 147,-1203.5 385,-1203.5 385,-1173.5 147,-1173.5"/>
<text text-anchor="start" x="154" y="-1184.9" font-family="Arial" font-size="14.00" fill="#000000">user_id </text>
<text text-anchor="start" x="203.7882" y="-1184.9" font-family="Arial" font-size="14.00" fill="#666666">[int]</text>
<polygon fill="none" stroke="#000000" points="147,-1143.5 147,-1173.5 385,-1173.5 385,-1143.5 147,-1143.5"/>
<text text-anchor="start" x="154" y="-1154.9" font-family="Arial" font-size="14.00" fill="#000000">comment_post_id </text>
<text text-anchor="start" x="268.3604" y="-1154.9" font-family="Arial" font-size="14.00" fill="#666666">[int]</text>
<polygon fill="none" stroke="#000000" points="147,-1113.5 147,-1143.5 385,-1143.5 385,-1113.5 147,-1113.5"/>
<text text-anchor="start" x="154" y="-1124.9" font-family="Arial" font-size="14.00" fill="#000000">comment_user_id </text>
<text text-anchor="start" x="269.1304" y="-1124.9" font-family="Arial" font-size="14.00" fill="#666666">[int]</text>
<polygon fill="none" stroke="#000000" points="147,-1083.5 147,-1113.5 385,-1113.5 385,-1083.5 147,-1083.5"/>
<text text-anchor="start" x="154" y="-1094.9" font-family="Arial" font-size="14.00" fill="#000000">created </text>
<text text-anchor="start" x="204.5722" y="-1094.9" font-family="Arial" font-size="14.00" fill="#666666">[date]</text>
<polygon fill="none" stroke="#000000" points="147,-1053.5 147,-1083.5 385,-1083.5 385,-1053.5 147,-1053.5"/>
<text text-anchor="start" x="154" y="-1064.9" font-family="Arial" font-size="14.00" fill="#000000">updated </text>
<text text-anchor="start" x="208.4768" y="-1064.9" font-family="Arial" font-size="14.00" fill="#666666">[date]</text>
</g>
<!-- comment_stars&#45;&gt;comments -->
<g id="edge5" class="edge">
<title>comment_stars:comment_post_id&#45;&gt;comments:post_id</title>
<path fill="none" stroke="#000000" d="M137.0341,-1157.6529C84.0923,-1148.0261 107.446,-1058.7056 147,-1011 202.1361,-944.5009 282.8639,-1041.4991 338,-975 373.034,-932.7459 392.8889,-851.5 338,-851.5"/>
<polygon fill="#000000" stroke="#000000" points="137.0359,-1157.6529 146.6188,-1162.9838 142.018,-1158.0765 147,-1158.5 147,-1158.5 147,-1158.5 142.018,-1158.0765 147.3812,-1154.0162 137.0359,-1157.6529 137.0359,-1157.6529"/>
</g>
<!-- comment_stars&#45;&gt;users -->
<g id="edge4" class="edge">
<title>comment_stars:comment_user_id&#45;&gt;users:id</title>
<path fill="none" stroke="#000000" d="M395.0411,-1127.7518C446.4138,-1119.2266 388.9495,-1039.517 390,-975 394.6168,-691.4538 466.794,-607.2945 381,-337 375.1824,-318.6715 362.5724,-319.4045 357,-301 344.9579,-261.2275 315.4444,-207.5 357,-207.5"/>
<polygon fill="#000000" stroke="#000000" points="394.9724,-1127.7569 384.6656,-1124.0124 389.9862,-1128.1284 385,-1128.5 385,-1128.5 385,-1128.5 389.9862,-1128.1284 385.3344,-1132.9876 394.9724,-1127.7569 394.9724,-1127.7569"/>
</g>
<!-- logs -->
<g id="node4" class="node">
<title>logs</title>
<polygon fill="#efefef" stroke="transparent" points="97,-1600.5 97,-1635.5 245,-1635.5 245,-1600.5 97,-1600.5"/>
<polygon fill="none" stroke="#000000" points="97,-1600.5 97,-1635.5 245,-1635.5 245,-1600.5 97,-1600.5"/>
<text text-anchor="start" x="103.5395" y="-1613.3" font-family="Arial Bold" font-size="18.00" fill="#000000">logs</text>
<text text-anchor="start" x="136.5461" y="-1613.3" font-family="Arial" font-size="14.00" fill="#000000"> </text>
<text text-anchor="start" x="140.4367" y="-1613.3" font-family="Arial" font-size="14.00" fill="#666666">[BASIC TABLE]</text>
<polygon fill="none" stroke="#000000" points="97,-1570.5 97,-1600.5 245,-1600.5 245,-1570.5 97,-1570.5"/>
<text text-anchor="start" x="104" y="-1581.9" font-family="Arial" font-size="14.00" fill="#000000">id </text>
<text text-anchor="start" x="118.7798" y="-1581.9" font-family="Arial" font-size="14.00" fill="#666666">[int]</text>
<polygon fill="none" stroke="#000000" points="97,-1540.5 97,-1570.5 245,-1570.5 245,-1540.5 97,-1540.5"/>
<text text-anchor="start" x="104" y="-1551.9" font-family="Arial" font-size="14.00" fill="#000000">user_id </text>
<text text-anchor="start" x="153.7882" y="-1551.9" font-family="Arial" font-size="14.00" fill="#666666">[int]</text>
<polygon fill="none" stroke="#000000" points="97,-1510.5 97,-1540.5 245,-1540.5 245,-1510.5 97,-1510.5"/>
<text text-anchor="start" x="104" y="-1521.9" font-family="Arial" font-size="14.00" fill="#000000">post_id </text>
<text text-anchor="start" x="153.0182" y="-1521.9" font-family="Arial" font-size="14.00" fill="#666666">[int]</text>
<polygon fill="none" stroke="#000000" points="97,-1480.5 97,-1510.5 245,-1510.5 245,-1480.5 97,-1480.5"/>
<text text-anchor="start" x="104" y="-1491.9" font-family="Arial" font-size="14.00" fill="#000000">comment_id </text>
<text text-anchor="start" x="184.122" y="-1491.9" font-family="Arial" font-size="14.00" fill="#666666">[int]</text>
<polygon fill="none" stroke="#000000" points="97,-1450.5 97,-1480.5 245,-1480.5 245,-1450.5 97,-1450.5"/>
<text text-anchor="start" x="104" y="-1461.9" font-family="Arial" font-size="14.00" fill="#000000">comment_star_id </text>
<text text-anchor="start" x="215.2384" y="-1461.9" font-family="Arial" font-size="14.00" fill="#666666">[int]</text>
<polygon fill="none" stroke="#000000" points="97,-1420.5 97,-1450.5 245,-1450.5 245,-1420.5 97,-1420.5"/>
<text text-anchor="start" x="104" y="-1431.9" font-family="Arial" font-size="14.00" fill="#000000">payload </text>
<text text-anchor="start" x="156.9102" y="-1431.9" font-family="Arial" font-size="14.00" fill="#666666">[text]</text>
<polygon fill="none" stroke="#000000" points="97,-1390.5 97,-1420.5 245,-1420.5 245,-1390.5 97,-1390.5"/>
<text text-anchor="start" x="104" y="-1401.9" font-family="Arial" font-size="14.00" fill="#000000">created </text>
<text text-anchor="start" x="154.5722" y="-1401.9" font-family="Arial" font-size="14.00" fill="#666666">[date]</text>
</g>
<!-- logs&#45;&gt;posts -->
<g id="edge9" class="edge">
<title>logs:post_id&#45;&gt;posts:id</title>
<path fill="none" stroke="#000000" stroke-dasharray="5,2" d="M87.2405,-1522.6859C-8.7361,-1465.1455 45.2464,-544.5 151,-544.5"/>
<polygon fill="#000000" stroke="#000000" points="87.3915,-1522.7293 95.7532,-1529.8238 92.1957,-1524.1147 97,-1525.5 97,-1525.5 97,-1525.5 92.1957,-1524.1147 98.2468,-1521.1762 87.3915,-1522.7293 87.3915,-1522.7293"/>
<text text-anchor="start" x="7.3245" y="-1535.5" font-family="Arial" font-size="10.00" fill="#000000">Additional Relation</text>
</g>
<!-- logs&#45;&gt;comments -->
<g id="edge10" class="edge">
<title>logs:comment_id&#45;&gt;comments:id</title>
<path fill="none" stroke="#000000" stroke-dasharray="5,2" d="M87.7687,-1491.2513C32.8704,-1437.003 74.95,-881.5 140,-881.5"/>
<polygon fill="#000000" stroke="#000000" points="87.916,-1491.319 95.1185,-1499.5878 92.458,-1493.4095 97,-1495.5 97,-1495.5 97,-1495.5 92.458,-1493.4095 98.8815,-1491.4122 87.916,-1491.319 87.916,-1491.319"/>
<text text-anchor="start" x="7.3245" y="-1505.5" font-family="Arial" font-size="10.00" fill="#000000">Additional Relation</text>
</g>
<!-- logs&#45;&gt;comment_stars -->
<g id="edge11" class="edge">
<title>logs:comment_star_id&#45;&gt;comment_stars:id</title>
<path fill="none" stroke="#000000" stroke-dasharray="5,2" d="M255.423,-1464.3095C293.8656,-1454.5905 272.6713,-1387.6443 245,-1348 218.4419,-1309.9506 173.5581,-1350.0494 147,-1312 123.2154,-1277.9242 105.4444,-1218.5 147,-1218.5"/>
<polygon fill="#000000" stroke="#000000" points="254.9354,-1464.3651 244.4893,-1461.0291 249.9677,-1464.9325 245,-1465.5 245,-1465.5 245,-1465.5 249.9677,-1464.9325 245.5107,-1469.9709 254.9354,-1464.3651 254.9354,-1464.3651"/>
<text text-anchor="start" x="252.3245" y="-1475.5" font-family="Arial" font-size="10.00" fill="#000000">Additional Relation</text>
</g>
<!-- logs&#45;&gt;users -->
<g id="edge8" class="edge">
<title>logs:user_id&#45;&gt;users:id</title>
<path fill="none" stroke="#000000" stroke-dasharray="5,2" d="M255.2251,-1554.8715C331.7431,-1544.6681 232.5974,-1412.7995 297,-1348 342.2893,-1302.4316 396.6507,-1361.9954 437,-1312 709.3568,-974.5318 288.4838,-728.5032 475,-337 485.4297,-315.1077 505.9987,-323.0912 516,-301 533.1388,-263.1434 557.5556,-207.5 516,-207.5"/>
<polygon fill="#000000" stroke="#000000" points="254.9812,-1554.8864 244.7239,-1551.0085 249.9906,-1555.1932 245,-1555.5 245,-1555.5 245,-1555.5 249.9906,-1555.1932 245.2761,-1559.9915 254.9812,-1554.8864 254.9812,-1554.8864"/>
<text text-anchor="start" x="235.774" y="-1539.5" font-family="Arial" font-size="10.00" fill="#000000">logs&#45;&gt;users</text>
</g>
<!-- post_comments -->
<g id="node5" class="node">
<title>post_comments</title>
<polygon fill="#efefef" stroke="transparent" points="350,-1600.5 350,-1635.5 539,-1635.5 539,-1600.5 350,-1600.5"/>
<polygon fill="none" stroke="#000000" points="350,-1600.5 350,-1635.5 539,-1635.5 539,-1600.5 350,-1600.5"/>
<text text-anchor="start" x="357.2619" y="-1613.3" font-family="Arial Bold" font-size="18.00" fill="#000000">post_comments</text>
<text text-anchor="start" x="484.2879" y="-1613.3" font-family="Arial" font-size="14.00" fill="#000000"> </text>
<text text-anchor="start" x="488.1785" y="-1613.3" font-family="Arial" font-size="14.00" fill="#666666">[VIEW]</text>
<polygon fill="none" stroke="#000000" points="350,-1570.5 350,-1600.5 539,-1600.5 539,-1570.5 350,-1570.5"/>
<text text-anchor="start" x="357" y="-1581.9" font-family="Arial" font-size="14.00" fill="#000000">id </text>
<text text-anchor="start" x="371.7798" y="-1581.9" font-family="Arial" font-size="14.00" fill="#666666">[int]</text>
<polygon fill="none" stroke="#000000" points="350,-1540.5 350,-1570.5 539,-1570.5 539,-1540.5 350,-1540.5"/>
<text text-anchor="start" x="357" y="-1551.9" font-family="Arial" font-size="14.00" fill="#000000">title </text>
<text text-anchor="start" x="382.6676" y="-1551.9" font-family="Arial" font-size="14.00" fill="#666666">[varchar(255)]</text>
<polygon fill="none" stroke="#000000" points="350,-1510.5 350,-1540.5 539,-1540.5 539,-1510.5 350,-1510.5"/>
<text text-anchor="start" x="357" y="-1521.9" font-family="Arial" font-size="14.00" fill="#000000">post_user </text>
<text text-anchor="start" x="422.3548" y="-1521.9" font-family="Arial" font-size="14.00" fill="#666666">[varchar(50)]</text>
<polygon fill="none" stroke="#000000" points="350,-1480.5 350,-1510.5 539,-1510.5 539,-1480.5 350,-1480.5"/>
<text text-anchor="start" x="357" y="-1491.9" font-family="Arial" font-size="14.00" fill="#000000">comment </text>
<text text-anchor="start" x="418.4502" y="-1491.9" font-family="Arial" font-size="14.00" fill="#666666">[text]</text>
<polygon fill="none" stroke="#000000" points="350,-1450.5 350,-1480.5 539,-1480.5 539,-1450.5 350,-1450.5"/>
<text text-anchor="start" x="356.6024" y="-1461.9" font-family="Arial" font-size="14.00" fill="#000000">comment_user </text>
<text text-anchor="start" x="453.061" y="-1461.9" font-family="Arial" font-size="14.00" fill="#666666">[varchar(50)]</text>
<polygon fill="none" stroke="#000000" points="350,-1420.5 350,-1450.5 539,-1450.5 539,-1420.5 350,-1420.5"/>
<text text-anchor="start" x="357" y="-1431.9" font-family="Arial" font-size="14.00" fill="#000000">created </text>
<text text-anchor="start" x="407.5722" y="-1431.9" font-family="Arial" font-size="14.00" fill="#666666">[date]</text>
<polygon fill="none" stroke="#000000" points="350,-1390.5 350,-1420.5 539,-1420.5 539,-1390.5 350,-1390.5"/>
<text text-anchor="start" x="357" y="-1401.9" font-family="Arial" font-size="14.00" fill="#000000">updated </text>
<text text-anchor="start" x="411.4768" y="-1401.9" font-family="Arial" font-size="14.00" fill="#666666">[date]</text>
</g>
<!-- CamelizeTable -->
<g id="node6" class="node">
<title>CamelizeTable</title>
<polygon fill="#efefef" stroke="transparent" points="643,-1525.5 643,-1560.5 878,-1560.5 878,-1525.5 643,-1525.5"/>
<polygon fill="none" stroke="#000000" points="643,-1525.5 643,-1560.5 878,-1560.5 878,-1525.5 643,-1525.5"/>
<text text-anchor="start" x="649.5416" y="-1538.3" font-family="Arial Bold" font-size="18.00" fill="#000000">CamelizeTable</text>
<text text-anchor="start" x="769.544" y="-1538.3" font-family="Arial" font-size="14.00" fill="#000000"> </text>
<text text-anchor="start" x="773.4346" y="-1538.3" font-family="Arial" font-size="14.00" fill="#666666">[BASIC TABLE]</text>
<polygon fill="none" stroke="#000000" points="643,-1495.5 643,-1525.5 878,-1525.5 878,-1495.5 643,-1495.5"/>
<text text-anchor="start" x="650" y="-1506.9" font-family="Arial" font-size="14.00" fill="#000000">id </text>
<text text-anchor="start" x="664.7798" y="-1506.9" font-family="Arial" font-size="14.00" fill="#666666">[int]</text>
<polygon fill="none" stroke="#000000" points="643,-1465.5 643,-1495.5 878,-1495.5 878,-1465.5 643,-1465.5"/>
<text text-anchor="start" x="650" y="-1476.9" font-family="Arial" font-size="14.00" fill="#000000">created </text>
<text text-anchor="start" x="700.5722" y="-1476.9" font-family="Arial" font-size="14.00" fill="#666666">[date]</text>
</g>
<!-- hyphen&#45;table -->
<g id="node7" class="node">
<title>hyphen&#45;table</title>
<polygon fill="#efefef" stroke="transparent" points="982,-1540.5 982,-1575.5 1201,-1575.5 1201,-1540.5 982,-1540.5"/>
<polygon fill="none" stroke="#000000" points="982,-1540.5 982,-1575.5 1201,-1575.5 1201,-1540.5 982,-1540.5"/>
<text text-anchor="start" x="988.5237" y="-1553.3" font-family="Arial Bold" font-size="18.00" fill="#000000">hyphen&#45;table</text>
<text text-anchor="start" x="1092.5619" y="-1553.3" font-family="Arial" font-size="14.00" fill="#000000"> </text>
<text text-anchor="start" x="1096.4525" y="-1553.3" font-family="Arial" font-size="14.00" fill="#666666">[BASIC TABLE]</text>
<polygon fill="none" stroke="#000000" points="982,-1510.5 982,-1540.5 1201,-1540.5 1201,-1510.5 982,-1510.5"/>
<text text-anchor="start" x="989" y="-1521.9" font-family="Arial" font-size="14.00" fill="#000000">id </text>
<text text-anchor="start" x="1003.7798" y="-1521.9" font-family="Arial" font-size="14.00" fill="#666666">[int]</text>
<polygon fill="none" stroke="#000000" points="982,-1480.5 982,-1510.5 1201,-1510.5 1201,-1480.5 982,-1480.5"/>
<text text-anchor="start" x="989" y="-1491.9" font-family="Arial" font-size="14.00" fill="#000000">hyphen&#45;column </text>
<text text-anchor="start" x="1088.5792" y="-1491.9" font-family="Arial" font-size="14.00" fill="#666666">[text]</text>
<polygon fill="none" stroke="#000000" points="982,-1450.5 982,-1480.5 1201,-1480.5 1201,-1450.5 982,-1450.5"/>
<text text-anchor="start" x="989" y="-1461.9" font-family="Arial" font-size="14.00" fill="#000000">created </text>
<text text-anchor="start" x="1039.5722" y="-1461.9" font-family="Arial" font-size="14.00" fill="#666666">[date]</text>
</g>
<!-- administrator.blogs -->
<g id="node8" class="node">
<title>administrator.blogs</title>
<polygon fill="#efefef" stroke="transparent" points="528,-559.5 528,-594.5 795,-594.5 795,-559.5 528,-559.5"/>
<polygon fill="none" stroke="#000000" points="528,-559.5 528,-594.5 795,-594.5 795,-559.5 528,-559.5"/>
<text text-anchor="start" x="534.5351" y="-572.3" font-family="Arial Bold" font-size="18.00" fill="#000000">administrator.blogs</text>
<text text-anchor="start" x="686.5505" y="-572.3" font-family="Arial" font-size="14.00" fill="#000000"> </text>
<text text-anchor="start" x="690.4411" y="-572.3" font-family="Arial" font-size="14.00" fill="#666666">[BASIC TABLE]</text>
<polygon fill="none" stroke="#000000" points="528,-529.5 528,-559.5 795,-559.5 795,-529.5 528,-529.5"/>
<text text-anchor="start" x="535" y="-540.9" font-family="Arial" font-size="14.00" fill="#000000">id </text>
<text text-anchor="start" x="549.7798" y="-540.9" font-family="Arial" font-size="14.00" fill="#666666">[int]</text>
<polygon fill="none" stroke="#000000" points="528,-499.5 528,-529.5 795,-529.5 795,-499.5 528,-499.5"/>
<text text-anchor="start" x="535" y="-510.9" font-family="Arial" font-size="14.00" fill="#000000">user_id </text>
<text text-anchor="start" x="584.7882" y="-510.9" font-family="Arial" font-size="14.00" fill="#666666">[int]</text>
<polygon fill="none" stroke="#000000" points="528,-469.5 528,-499.5 795,-499.5 795,-469.5 528,-469.5"/>
<text text-anchor="start" x="535" y="-480.9" font-family="Arial" font-size="14.00" fill="#000000">name </text>
<text text-anchor="start" x="573.899" y="-480.9" font-family="Arial" font-size="14.00" fill="#666666">[text]</text>
<polygon fill="none" stroke="#000000" points="528,-439.5 528,-469.5 795,-469.5 795,-439.5 528,-439.5"/>
<text text-anchor="start" x="535" y="-450.9" font-family="Arial" font-size="14.00" fill="#000000">description </text>
<text text-anchor="start" x="606.568" y="-450.9" font-family="Arial" font-size="14.00" fill="#666666">[text]</text>
<polygon fill="none" stroke="#000000" points="528,-409.5 528,-439.5 795,-439.5 795,-409.5 528,-409.5"/>
<text text-anchor="start" x="535" y="-420.9" font-family="Arial" font-size="14.00" fill="#000000">created </text>
<text text-anchor="start" x="585.5722" y="-420.9" font-family="Arial" font-size="14.00" fill="#666666">[date]</text>
<polygon fill="none" stroke="#000000" points="528,-379.5 528,-409.5 795,-409.5 795,-379.5 528,-379.5"/>
<text text-anchor="start" x="535" y="-390.9" font-family="Arial" font-size="14.00" fill="#000000">updated </text>
<text text-anchor="start" x="589.4768" y="-390.9" font-family="Arial" font-size="14.00" fill="#666666">[date]</text>
</g>
<!-- administrator.blogs&#45;&gt;users -->
<g id="edge6" class="edge">
<title>administrator.blogs:user_id&#45;&gt;users:id</title>
<path fill="none" stroke="#000000" d="M518.1844,-511.6569C473.2161,-480.7076 580.4072,-207.5 516,-207.5"/>
<polygon fill="#000000" stroke="#000000" points="518.3948,-511.7177 526.748,-518.8223 523.1974,-513.1089 528,-514.5 528,-514.5 528,-514.5 523.1974,-513.1089 529.252,-510.1777 518.3948,-511.7177 518.3948,-511.7177"/>
</g>
<!-- user_options -->
<g id="node10" class="node">
<title>user_options</title>
<polygon fill="#efefef" stroke="transparent" points="899,-529.5 899,-564.5 1117,-564.5 1117,-529.5 899,-529.5"/>
<polygon fill="none" stroke="#000000" points="899,-529.5 899,-564.5 1117,-564.5 1117,-529.5 899,-529.5"/>
<text text-anchor="start" x="905.5268" y="-542.3" font-family="Arial Bold" font-size="18.00" fill="#000000">user_options</text>
<text text-anchor="start" x="1008.5588" y="-542.3" font-family="Arial" font-size="14.00" fill="#000000"> </text>
<text text-anchor="start" x="1012.4494" y="-542.3" font-family="Arial" font-size="14.00" fill="#666666">[BASIC TABLE]</text>
<polygon fill="none" stroke="#000000" points="899,-499.5 899,-529.5 1117,-529.5 1117,-499.5 899,-499.5"/>
<text text-anchor="start" x="906" y="-510.9" font-family="Arial" font-size="14.00" fill="#000000">user_id </text>
<text text-anchor="start" x="955.7882" y="-510.9" font-family="Arial" font-size="14.00" fill="#666666">[int]</text>
<polygon fill="none" stroke="#000000" points="899,-469.5 899,-499.5 1117,-499.5 1117,-469.5 899,-469.5"/>
<text text-anchor="start" x="906" y="-480.9" font-family="Arial" font-size="14.00" fill="#000000">show_email </text>
<text text-anchor="start" x="983.784" y="-480.9" font-family="Arial" font-size="14.00" fill="#666666">[bit]</text>
<polygon fill="none" stroke="#000000" points="899,-439.5 899,-469.5 1117,-469.5 1117,-439.5 899,-439.5"/>
<text text-anchor="start" x="906" y="-450.9" font-family="Arial" font-size="14.00" fill="#000000">created </text>
<text text-anchor="start" x="956.5722" y="-450.9" font-family="Arial" font-size="14.00" fill="#666666">[date]</text>
<polygon fill="none" stroke="#000000" points="899,-409.5 899,-439.5 1117,-439.5 1117,-409.5 899,-409.5"/>
<text text-anchor="start" x="906" y="-420.9" font-family="Arial" font-size="14.00" fill="#000000">updated </text>
<text text-anchor="start" x="960.4768" y="-420.9" font-family="Arial" font-size="14.00" fill="#666666">[date]</text>
</g>
<!-- user_options&#45;&gt;users -->
<g id="edge7" class="edge">
<title>user_options:user_id&#45;&gt;users:id</title>
<path fill="none" stroke="#000000" d="M888.9102,-513.8081C824.2119,-504.1131 900.022,-394.903 847,-337 740.3171,-220.4964 673.9694,-207.5 516,-207.5"/>
<polygon fill="#000000" stroke="#000000" points="889.0234,-513.8158 898.6921,-518.9895 894.0117,-514.1579 899,-514.5 899,-514.5 899,-514.5 894.0117,-514.1579 899.3079,-510.0105 889.0234,-513.8158 889.0234,-513.8158"/>
</g>
</g>
</svg>
