<?xml version="1.0" encoding="UTF-8" standalone="no"?>
<!DOCTYPE svg PUBLIC "-//W3C//DTD SVG 1.1//EN"
 "http://www.w3.org/Graphics/SVG/1.1/DTD/svg11.dtd">
<!-- Generated by graphviz version 2.40.1 (20161225.0304)
 -->
<!-- Title: testdb Pages: 1 -->
<svg width="2125pt" height="1687pt"
 viewBox="0.00 0.00 2125.46 1687.00" xmlns="http://www.w3.org/2000/svg" xmlns:xlink="http://www.w3.org/1999/xlink">
<g id="graph0" class="graph" transform="scale(1 1) rotate(0) translate(4 1683)">
<title>testdb</title>
<polygon fill="#ffffff" stroke="transparent" points="-4,4 -4,-1683 2121.4578,-1683 2121.4578,4 -4,4"/>
<!-- logs -->
<g id="node1" class="node">
<title>logs</title>
<polygon fill="#efefef" stroke="transparent" points="97,-1600.5 97,-1635.5 276,-1635.5 276,-1600.5 97,-1600.5"/>
<polygon fill="none" stroke="#000000" points="97,-1600.5 97,-1635.5 276,-1635.5 276,-1600.5 97,-1600.5"/>
<text text-anchor="start" x="103.8824" y="-1613.3" font-family="Arial Bold" font-size="18.00" fill="#000000">logs</text>
<text text-anchor="start" x="136.889" y="-1613.3" font-family="Arial" font-size="14.00" fill="#000000">    </text>
<text text-anchor="start" x="171.0938" y="-1613.3" font-family="Arial" font-size="14.00" fill="#666666">[BASIC TABLE]</text>
<polygon fill="none" stroke="#000000" points="97,-1570.5 97,-1600.5 276,-1600.5 276,-1570.5 97,-1570.5"/>
<text text-anchor="start" x="104" y="-1581.9" font-family="Arial" font-size="14.00" fill="#000000">id </text>
<text text-anchor="start" x="118.7798" y="-1581.9" font-family="Arial" font-size="14.00" fill="#666666">[int]</text>
<polygon fill="none" stroke="#000000" points="97,-1540.5 97,-1570.5 276,-1570.5 276,-1540.5 97,-1540.5"/>
<text text-anchor="start" x="104" y="-1551.9" font-family="Arial" font-size="14.00" fill="#000000">user_id </text>
<text text-anchor="start" x="153.7882" y="-1551.9" font-family="Arial" font-size="14.00" fill="#666666">[int]</text>
<polygon fill="none" stroke="#000000" points="97,-1510.5 97,-1540.5 276,-1540.5 276,-1510.5 97,-1510.5"/>
<text text-anchor="start" x="104" y="-1521.9" font-family="Arial" font-size="14.00" fill="#000000">post_id </text>
<text text-anchor="start" x="153.0182" y="-1521.9" font-family="Arial" font-size="14.00" fill="#666666">[int]</text>
<polygon fill="none" stroke="#000000" points="97,-1480.5 97,-1510.5 276,-1510.5 276,-1480.5 97,-1480.5"/>
<text text-anchor="start" x="104" y="-1491.9" font-family="Arial" font-size="14.00" fill="#000000">comment_id </text>
<text text-anchor="start" x="184.122" y="-1491.9" font-family="Arial" font-size="14.00" fill="#666666">[int]</text>
<polygon fill="none" stroke="#000000" points="97,-1450.5 97,-1480.5 276,-1480.5 276,-1450.5 97,-1450.5"/>
<text text-anchor="start" x="104" y="-1461.9" font-family="Arial" font-size="14.00" fill="#000000">comment_star_id </text>
<text text-anchor="start" x="215.2384" y="-1461.9" font-family="Arial" font-size="14.00" fill="#666666">[int]</text>
<polygon fill="none" stroke="#000000" points="97,-1420.5 97,-1450.5 276,-1450.5 276,-1420.5 97,-1420.5"/>
<text text-anchor="start" x="104" y="-1431.9" font-family="Arial" font-size="14.00" fill="#000000">payload </text>
<text text-anchor="start" x="156.9102" y="-1431.9" font-family="Arial" font-size="14.00" fill="#666666">[text]</text>
<polygon fill="none" stroke="#000000" points="97,-1390.5 97,-1420.5 276,-1420.5 276,-1390.5 97,-1390.5"/>
<text text-anchor="start" x="104" y="-1401.9" font-family="Arial" font-size="14.00" fill="#000000">created </text>
<text text-anchor="start" x="154.5722" y="-1401.9" font-family="Arial" font-size="14.00" fill="#666666">[date]</text>
</g>
<!-- users -->
<g id="node9" class="node">
<title>users</title>
<polygon fill="#efefef" stroke="transparent" points="426,-222.5 426,-257.5 616,-257.5 616,-222.5 426,-222.5"/>
<polygon fill="none" stroke="#000000" points="426,-222.5 426,-257.5 616,-257.5 616,-222.5 426,-222.5"/>
<text text-anchor="start" x="432.8834" y="-235.3" font-family="Arial Bold" font-size="18.00" fill="#000000">users</text>
<text text-anchor="start" x="476.888" y="-235.3" font-family="Arial" font-size="14.00" fill="#000000">    </text>
<text text-anchor="start" x="511.0928" y="-235.3" font-family="Arial" font-size="14.00" fill="#666666">[BASIC TABLE]</text>
<polygon fill="none" stroke="#000000" points="426,-192.5 426,-222.5 616,-222.5 616,-192.5 426,-192.5"/>
<text text-anchor="start" x="433" y="-203.9" font-family="Arial" font-size="14.00" fill="#000000">id </text>
<text text-anchor="start" x="447.7798" y="-203.9" font-family="Arial" font-size="14.00" fill="#666666">[int]</text>
<polygon fill="none" stroke="#000000" points="426,-162.5 426,-192.5 616,-192.5 616,-162.5 426,-162.5"/>
<text text-anchor="start" x="433" y="-173.9" font-family="Arial" font-size="14.00" fill="#000000">username </text>
<text text-anchor="start" x="499.1248" y="-173.9" font-family="Arial" font-size="14.00" fill="#666666">[varchar(50)]</text>
<polygon fill="none" stroke="#000000" points="426,-132.5 426,-162.5 616,-162.5 616,-132.5 426,-132.5"/>
<text text-anchor="start" x="433" y="-143.9" font-family="Arial" font-size="14.00" fill="#000000">password </text>
<text text-anchor="start" x="496.7882" y="-143.9" font-family="Arial" font-size="14.00" fill="#666666">[varchar(50)]</text>
<polygon fill="none" stroke="#000000" points="426,-102.5 426,-132.5 616,-132.5 616,-102.5 426,-102.5"/>
<text text-anchor="start" x="433" y="-113.9" font-family="Arial" font-size="14.00" fill="#000000">email </text>
<text text-anchor="start" x="470.3296" y="-113.9" font-family="Arial" font-size="14.00" fill="#666666">[varchar(355)]</text>
<polygon fill="none" stroke="#000000" points="426,-72.5 426,-102.5 616,-102.5 616,-72.5 426,-72.5"/>
<text text-anchor="start" x="433" y="-83.9" font-family="Arial" font-size="14.00" fill="#000000">created </text>
<text text-anchor="start" x="483.5722" y="-83.9" font-family="Arial" font-size="14.00" fill="#666666">[date]</text>
<polygon fill="none" stroke="#000000" points="426,-42.5 426,-72.5 616,-72.5 616,-42.5 426,-42.5"/>
<text text-anchor="start" x="433" y="-53.9" font-family="Arial" font-size="14.00" fill="#000000">updated </text>
<text text-anchor="start" x="487.4768" y="-53.9" font-family="Arial" font-size="14.00" fill="#666666">[date]</text>
</g>
<!-- logs&#45;&gt;users -->
<g id="edge9" class="edge">
<title>logs:user_id&#45;&gt;users:id</title>
<path fill="none" stroke="#000000" stroke-dasharray="5,2" d="M87.0037,-1554.9802C11.555,-1546.5232 93.328,-1436.5437 97,-1348 118.8599,-820.8952 -101.5578,-207.5 426,-207.5"/>
<polygon fill="#000000" stroke="#000000" points="87.0135,-1554.9806 96.7663,-1559.9939 92.0067,-1555.2403 97,-1555.5 97,-1555.5 97,-1555.5 92.0067,-1555.2403 97.2337,-1551.0061 87.0135,-1554.9806 87.0135,-1554.9806"/>
<text text-anchor="start" x="39.024" y="-1565.5" font-family="Arial" font-size="10.00" fill="#000000">logs&#45;&gt;users</text>
</g>
<!-- posts -->
<g id="node11" class="node">
<title>posts</title>
<polygon fill="#efefef" stroke="transparent" points="242,-559.5 242,-594.5 431,-594.5 431,-559.5 242,-559.5"/>
<polygon fill="none" stroke="#000000" points="242,-559.5 242,-594.5 431,-594.5 431,-559.5 242,-559.5"/>
<text text-anchor="start" x="248.8784" y="-572.3" font-family="Arial Bold" font-size="18.00" fill="#000000">posts</text>
<text text-anchor="start" x="291.893" y="-572.3" font-family="Arial" font-size="14.00" fill="#000000">    </text>
<text text-anchor="start" x="326.0978" y="-572.3" font-family="Arial" font-size="14.00" fill="#666666">[BASIC TABLE]</text>
<polygon fill="none" stroke="#000000" points="242,-529.5 242,-559.5 431,-559.5 431,-529.5 242,-529.5"/>
<text text-anchor="start" x="249" y="-540.9" font-family="Arial" font-size="14.00" fill="#000000">id </text>
<text text-anchor="start" x="263.7798" y="-540.9" font-family="Arial" font-size="14.00" fill="#666666">[int]</text>
<polygon fill="none" stroke="#000000" points="242,-499.5 242,-529.5 431,-529.5 431,-499.5 242,-499.5"/>
<text text-anchor="start" x="249" y="-510.9" font-family="Arial" font-size="14.00" fill="#000000">user_id </text>
<text text-anchor="start" x="298.7882" y="-510.9" font-family="Arial" font-size="14.00" fill="#666666">[int]</text>
<polygon fill="none" stroke="#000000" points="242,-469.5 242,-499.5 431,-499.5 431,-469.5 242,-469.5"/>
<text text-anchor="start" x="249" y="-480.9" font-family="Arial" font-size="14.00" fill="#000000">title </text>
<text text-anchor="start" x="274.6676" y="-480.9" font-family="Arial" font-size="14.00" fill="#666666">[varchar(255)]</text>
<polygon fill="none" stroke="#000000" points="242,-439.5 242,-469.5 431,-469.5 431,-439.5 242,-439.5"/>
<text text-anchor="start" x="249" y="-450.9" font-family="Arial" font-size="14.00" fill="#000000">body </text>
<text text-anchor="start" x="283.2384" y="-450.9" font-family="Arial" font-size="14.00" fill="#666666">[text]</text>
<polygon fill="none" stroke="#000000" points="242,-409.5 242,-439.5 431,-439.5 431,-409.5 242,-409.5"/>
<text text-anchor="start" x="249" y="-420.9" font-family="Arial" font-size="14.00" fill="#000000">created </text>
<text text-anchor="start" x="299.5722" y="-420.9" font-family="Arial" font-size="14.00" fill="#666666">[date]</text>
<polygon fill="none" stroke="#000000" points="242,-379.5 242,-409.5 431,-409.5 431,-379.5 242,-379.5"/>
<text text-anchor="start" x="249" y="-390.9" font-family="Arial" font-size="14.00" fill="#000000">updated </text>
<text text-anchor="start" x="303.4768" y="-390.9" font-family="Arial" font-size="14.00" fill="#666666">[date]</text>
</g>
<!-- logs&#45;&gt;posts -->
<g id="edge10" class="edge">
<title>logs:post_id&#45;&gt;posts:id</title>
<path fill="none" stroke="#000000" stroke-dasharray="5,2" d="M86.7025,-1524.811C22.2131,-1515.5702 63.7148,-1415.4224 97,-1348 108.6479,-1324.4061 131.565,-1335.1887 144,-1312 225.2574,-1160.4721 70.0597,-544.5 242,-544.5"/>
<polygon fill="#000000" stroke="#000000" points="87.0223,-1524.8323 96.6995,-1529.99 92.0112,-1525.1661 97,-1525.5 97,-1525.5 97,-1525.5 92.0112,-1525.1661 97.3005,-1521.01 87.0223,-1524.8323 87.0223,-1524.8323"/>
<text text-anchor="start" x="7.3245" y="-1535.5" font-family="Arial" font-size="10.00" fill="#000000">Additional Relation</text>
</g>
<!-- comments -->
<g id="node12" class="node">
<title>comments</title>
<polygon fill="#efefef" stroke="transparent" points="240,-896.5 240,-931.5 469,-931.5 469,-896.5 240,-896.5"/>
<polygon fill="none" stroke="#000000" points="240,-896.5 240,-931.5 469,-931.5 469,-896.5 240,-896.5"/>
<text text-anchor="start" x="246.8831" y="-909.3" font-family="Arial Bold" font-size="18.00" fill="#000000">comments</text>
<text text-anchor="start" x="329.8883" y="-909.3" font-family="Arial" font-size="14.00" fill="#000000">    </text>
<text text-anchor="start" x="364.0931" y="-909.3" font-family="Arial" font-size="14.00" fill="#666666">[BASIC TABLE]</text>
<polygon fill="none" stroke="#000000" points="240,-866.5 240,-896.5 469,-896.5 469,-866.5 240,-866.5"/>
<text text-anchor="start" x="247" y="-877.9" font-family="Arial" font-size="14.00" fill="#000000">id </text>
<text text-anchor="start" x="261.7798" y="-877.9" font-family="Arial" font-size="14.00" fill="#666666">[int]</text>
<polygon fill="none" stroke="#000000" points="240,-836.5 240,-866.5 469,-866.5 469,-836.5 240,-836.5"/>
<text text-anchor="start" x="247" y="-847.9" font-family="Arial" font-size="14.00" fill="#000000">post_id </text>
<text text-anchor="start" x="296.0182" y="-847.9" font-family="Arial" font-size="14.00" fill="#666666">[int]</text>
<polygon fill="none" stroke="#000000" points="240,-806.5 240,-836.5 469,-836.5 469,-806.5 240,-806.5"/>
<text text-anchor="start" x="247" y="-817.9" font-family="Arial" font-size="14.00" fill="#000000">user_id </text>
<text text-anchor="start" x="296.7882" y="-817.9" font-family="Arial" font-size="14.00" fill="#666666">[int]</text>
<polygon fill="none" stroke="#000000" points="240,-776.5 240,-806.5 469,-806.5 469,-776.5 240,-776.5"/>
<text text-anchor="start" x="247" y="-787.9" font-family="Arial" font-size="14.00" fill="#000000">comment </text>
<text text-anchor="start" x="308.4502" y="-787.9" font-family="Arial" font-size="14.00" fill="#666666">[text]</text>
<polygon fill="none" stroke="#000000" points="240,-746.5 240,-776.5 469,-776.5 469,-746.5 240,-746.5"/>
<text text-anchor="start" x="247" y="-757.9" font-family="Arial" font-size="14.00" fill="#000000">created </text>
<text text-anchor="start" x="297.5722" y="-757.9" font-family="Arial" font-size="14.00" fill="#666666">[date]</text>
<polygon fill="none" stroke="#000000" points="240,-716.5 240,-746.5 469,-746.5 469,-716.5 240,-716.5"/>
<text text-anchor="start" x="247" y="-727.9" font-family="Arial" font-size="14.00" fill="#000000">updated </text>
<text text-anchor="start" x="301.4768" y="-727.9" font-family="Arial" font-size="14.00" fill="#666666">[date]</text>
</g>
<!-- logs&#45;&gt;comments -->
<g id="edge11" class="edge">
<title>logs:comment_id&#45;&gt;comments:id</title>
<path fill="none" stroke="#000000" stroke-dasharray="5,2" d="M286.187,-1494.6625C337.5627,-1485.4844 304.4515,-1402.909 276,-1348 263.2356,-1323.3657 237.7644,-1336.6343 225,-1312 163.4537,-1193.2206 217.2909,-1144.5555 225,-1011 228.3389,-953.1559 182.0596,-881.5 240,-881.5"/>
<polygon fill="#000000" stroke="#000000" points="285.9664,-1494.6805 275.6312,-1491.0151 280.9832,-1495.0903 276,-1495.5 276,-1495.5 276,-1495.5 280.9832,-1495.0903 276.3688,-1499.9849 285.9664,-1494.6805 285.9664,-1494.6805"/>
<text text-anchor="start" x="283.3245" y="-1505.5" font-family="Arial" font-size="10.00" fill="#000000">Additional Relation</text>
</g>
<!-- comment_stars -->
<g id="node13" class="node">
<title>comment_stars</title>
<polygon fill="#efefef" stroke="transparent" points="278,-1233.5 278,-1268.5 547,-1268.5 547,-1233.5 278,-1233.5"/>
<polygon fill="none" stroke="#000000" points="278,-1233.5 278,-1268.5 547,-1268.5 547,-1233.5 278,-1233.5"/>
<text text-anchor="start" x="284.8797" y="-1246.3" font-family="Arial Bold" font-size="18.00" fill="#000000">comment_stars</text>
<text text-anchor="start" x="407.8917" y="-1246.3" font-family="Arial" font-size="14.00" fill="#000000">    </text>
<text text-anchor="start" x="442.0965" y="-1246.3" font-family="Arial" font-size="14.00" fill="#666666">[BASIC TABLE]</text>
<polygon fill="none" stroke="#000000" points="278,-1203.5 278,-1233.5 547,-1233.5 547,-1203.5 278,-1203.5"/>
<text text-anchor="start" x="285" y="-1214.9" font-family="Arial" font-size="14.00" fill="#000000">id </text>
<text text-anchor="start" x="299.7798" y="-1214.9" font-family="Arial" font-size="14.00" fill="#666666">[int]</text>
<polygon fill="none" stroke="#000000" points="278,-1173.5 278,-1203.5 547,-1203.5 547,-1173.5 278,-1173.5"/>
<text text-anchor="start" x="285" y="-1184.9" font-family="Arial" font-size="14.00" fill="#000000">user_id </text>
<text text-anchor="start" x="334.7882" y="-1184.9" font-family="Arial" font-size="14.00" fill="#666666">[int]</text>
<polygon fill="none" stroke="#000000" points="278,-1143.5 278,-1173.5 547,-1173.5 547,-1143.5 278,-1143.5"/>
<text text-anchor="start" x="285" y="-1154.9" font-family="Arial" font-size="14.00" fill="#000000">comment_post_id </text>
<text text-anchor="start" x="399.3604" y="-1154.9" font-family="Arial" font-size="14.00" fill="#666666">[int]</text>
<polygon fill="none" stroke="#000000" points="278,-1113.5 278,-1143.5 547,-1143.5 547,-1113.5 278,-1113.5"/>
<text text-anchor="start" x="285" y="-1124.9" font-family="Arial" font-size="14.00" fill="#000000">comment_user_id </text>
<text text-anchor="start" x="400.1304" y="-1124.9" font-family="Arial" font-size="14.00" fill="#666666">[int]</text>
<polygon fill="none" stroke="#000000" points="278,-1083.5 278,-1113.5 547,-1113.5 547,-1083.5 278,-1083.5"/>
<text text-anchor="start" x="285" y="-1094.9" font-family="Arial" font-size="14.00" fill="#000000">created </text>
<text text-anchor="start" x="335.5722" y="-1094.9" font-family="Arial" font-size="14.00" fill="#666666">[date]</text>
<polygon fill="none" stroke="#000000" points="278,-1053.5 278,-1083.5 547,-1083.5 547,-1053.5 278,-1053.5"/>
<text text-anchor="start" x="285" y="-1064.9" font-family="Arial" font-size="14.00" fill="#000000">updated </text>
<text text-anchor="start" x="339.4768" y="-1064.9" font-family="Arial" font-size="14.00" fill="#666666">[date]</text>
</g>
<!-- logs&#45;&gt;comment_stars -->
<g id="edge12" class="edge">
<title>logs:comment_star_id&#45;&gt;comment_stars:id</title>
<path fill="none" stroke="#000000" stroke-dasharray="5,2" d="M286.1358,-1464.6541C371.2913,-1448.9038 171.9709,-1218.5 278,-1218.5"/>
<polygon fill="#000000" stroke="#000000" points="285.9654,-1464.6682 275.6257,-1461.0156 280.9827,-1465.0841 276,-1465.5 276,-1465.5 276,-1465.5 280.9827,-1465.0841 276.3743,-1469.9844 285.9654,-1464.6682 285.9654,-1464.6682"/>
<text text-anchor="start" x="283.3245" y="-1475.5" font-family="Arial" font-size="10.00" fill="#000000">Additional Relation</text>
</g>
<!-- post_comments -->
<g id="node2" class="node">
<title>post_comments</title>
<polygon fill="#efefef" stroke="transparent" points="380,-1600.5 380,-1635.5 598,-1635.5 598,-1600.5 380,-1600.5"/>
<polygon fill="none" stroke="#000000" points="380,-1600.5 380,-1635.5 598,-1635.5 598,-1600.5 380,-1600.5"/>
<text text-anchor="start" x="386.6048" y="-1613.3" font-family="Arial Bold" font-size="18.00" fill="#000000">post_comments</text>
<text text-anchor="start" x="513.6308" y="-1613.3" font-family="Arial" font-size="14.00" fill="#000000">    </text>
<text text-anchor="start" x="547.8356" y="-1613.3" font-family="Arial" font-size="14.00" fill="#666666">[VIEW]</text>
<polygon fill="none" stroke="#000000" points="380,-1570.5 380,-1600.5 598,-1600.5 598,-1570.5 380,-1570.5"/>
<text text-anchor="start" x="387" y="-1581.9" font-family="Arial" font-size="14.00" fill="#000000">id </text>
<text text-anchor="start" x="401.7798" y="-1581.9" font-family="Arial" font-size="14.00" fill="#666666">[int]</text>
<polygon fill="none" stroke="#000000" points="380,-1540.5 380,-1570.5 598,-1570.5 598,-1540.5 380,-1540.5"/>
<text text-anchor="start" x="387" y="-1551.9" font-family="Arial" font-size="14.00" fill="#000000">title </text>
<text text-anchor="start" x="412.6676" y="-1551.9" font-family="Arial" font-size="14.00" fill="#666666">[varchar(255)]</text>
<polygon fill="none" stroke="#000000" points="380,-1510.5 380,-1540.5 598,-1540.5 598,-1510.5 380,-1510.5"/>
<text text-anchor="start" x="387" y="-1521.9" font-family="Arial" font-size="14.00" fill="#000000">post_user </text>
<text text-anchor="start" x="452.3548" y="-1521.9" font-family="Arial" font-size="14.00" fill="#666666">[varchar(50)]</text>
<polygon fill="none" stroke="#000000" points="380,-1480.5 380,-1510.5 598,-1510.5 598,-1480.5 380,-1480.5"/>
<text text-anchor="start" x="387" y="-1491.9" font-family="Arial" font-size="14.00" fill="#000000">comment </text>
<text text-anchor="start" x="448.4502" y="-1491.9" font-family="Arial" font-size="14.00" fill="#666666">[text]</text>
<polygon fill="none" stroke="#000000" points="380,-1450.5 380,-1480.5 598,-1480.5 598,-1450.5 380,-1450.5"/>
<text text-anchor="start" x="387" y="-1461.9" font-family="Arial" font-size="14.00" fill="#000000">comment_user </text>
<text text-anchor="start" x="483.4586" y="-1461.9" font-family="Arial" font-size="14.00" fill="#666666">[varchar(50)]</text>
<polygon fill="none" stroke="#000000" points="380,-1420.5 380,-1450.5 598,-1450.5 598,-1420.5 380,-1420.5"/>
<text text-anchor="start" x="387" y="-1431.9" font-family="Arial" font-size="14.00" fill="#000000">created </text>
<text text-anchor="start" x="437.5722" y="-1431.9" font-family="Arial" font-size="14.00" fill="#666666">[date]</text>
<polygon fill="none" stroke="#000000" points="380,-1390.5 380,-1420.5 598,-1420.5 598,-1390.5 380,-1390.5"/>
<text text-anchor="start" x="387" y="-1401.9" font-family="Arial" font-size="14.00" fill="#000000">updated </text>
<text text-anchor="start" x="441.4768" y="-1401.9" font-family="Arial" font-size="14.00" fill="#666666">[date]</text>
</g>
<!-- CamelizeTable -->
<g id="node3" class="node">
<title>CamelizeTable</title>
<polygon fill="#efefef" stroke="transparent" points="702,-1525.5 702,-1560.5 968,-1560.5 968,-1525.5 702,-1525.5"/>
<polygon fill="none" stroke="#000000" points="702,-1525.5 702,-1560.5 968,-1560.5 968,-1525.5 702,-1525.5"/>
<text text-anchor="start" x="708.8845" y="-1538.3" font-family="Arial Bold" font-size="18.00" fill="#000000">CamelizeTable</text>
<text text-anchor="start" x="828.8869" y="-1538.3" font-family="Arial" font-size="14.00" fill="#000000">    </text>
<text text-anchor="start" x="863.0917" y="-1538.3" font-family="Arial" font-size="14.00" fill="#666666">[BASIC TABLE]</text>
<polygon fill="none" stroke="#000000" points="702,-1495.5 702,-1525.5 968,-1525.5 968,-1495.5 702,-1495.5"/>
<text text-anchor="start" x="709" y="-1506.9" font-family="Arial" font-size="14.00" fill="#000000">id </text>
<text text-anchor="start" x="723.7798" y="-1506.9" font-family="Arial" font-size="14.00" fill="#666666">[int]</text>
<polygon fill="none" stroke="#000000" points="702,-1465.5 702,-1495.5 968,-1495.5 968,-1465.5 702,-1465.5"/>
<text text-anchor="start" x="709" y="-1476.9" font-family="Arial" font-size="14.00" fill="#000000">created </text>
<text text-anchor="start" x="759.5722" y="-1476.9" font-family="Arial" font-size="14.00" fill="#666666">[date]</text>
</g>
<!-- hyphen&#45;table -->
<g id="node4" class="node">
<title>hyphen&#45;table</title>
<polygon fill="#efefef" stroke="transparent" points="1072,-1540.5 1072,-1575.5 1322,-1575.5 1322,-1540.5 1072,-1540.5"/>
<polygon fill="none" stroke="#000000" points="1072,-1540.5 1072,-1575.5 1322,-1575.5 1322,-1540.5 1072,-1540.5"/>
<text text-anchor="start" x="1078.8666" y="-1553.3" font-family="Arial Bold" font-size="18.00" fill="#000000">hyphen&#45;table</text>
<text text-anchor="start" x="1182.9048" y="-1553.3" font-family="Arial" font-size="14.00" fill="#000000">    </text>
<text text-anchor="start" x="1217.1096" y="-1553.3" font-family="Arial" font-size="14.00" fill="#666666">[BASIC TABLE]</text>
<polygon fill="none" stroke="#000000" points="1072,-1510.5 1072,-1540.5 1322,-1540.5 1322,-1510.5 1072,-1510.5"/>
<text text-anchor="start" x="1079" y="-1521.9" font-family="Arial" font-size="14.00" fill="#000000">id </text>
<text text-anchor="start" x="1093.7798" y="-1521.9" font-family="Arial" font-size="14.00" fill="#666666">[int]</text>
<polygon fill="none" stroke="#000000" points="1072,-1480.5 1072,-1510.5 1322,-1510.5 1322,-1480.5 1072,-1480.5"/>
<text text-anchor="start" x="1079" y="-1491.9" font-family="Arial" font-size="14.00" fill="#000000">hyphen&#45;column </text>
<text text-anchor="start" x="1178.5792" y="-1491.9" font-family="Arial" font-size="14.00" fill="#666666">[text]</text>
<polygon fill="none" stroke="#000000" points="1072,-1450.5 1072,-1480.5 1322,-1480.5 1322,-1450.5 1072,-1450.5"/>
<text text-anchor="start" x="1079" y="-1461.9" font-family="Arial" font-size="14.00" fill="#000000">created </text>
<text text-anchor="start" x="1129.5722" y="-1461.9" font-family="Arial" font-size="14.00" fill="#666666">[date]</text>
</g>
<!-- administrator.blogs -->
<g id="node5" class="node">
<title>administrator.blogs</title>
<polygon fill="#efefef" stroke="transparent" points="611,-559.5 611,-594.5 909,-594.5 909,-559.5 611,-559.5"/>
<polygon fill="none" stroke="#000000" points="611,-559.5 611,-594.5 909,-594.5 909,-559.5 611,-559.5"/>
<text text-anchor="start" x="617.878" y="-572.3" font-family="Arial Bold" font-size="18.00" fill="#000000">administrator.blogs</text>
<text text-anchor="start" x="769.8934" y="-572.3" font-family="Arial" font-size="14.00" fill="#000000">    </text>
<text text-anchor="start" x="804.0982" y="-572.3" font-family="Arial" font-size="14.00" fill="#666666">[BASIC TABLE]</text>
<polygon fill="none" stroke="#000000" points="611,-529.5 611,-559.5 909,-559.5 909,-529.5 611,-529.5"/>
<text text-anchor="start" x="618" y="-540.9" font-family="Arial" font-size="14.00" fill="#000000">id </text>
<text text-anchor="start" x="632.7798" y="-540.9" font-family="Arial" font-size="14.00" fill="#666666">[int]</text>
<polygon fill="none" stroke="#000000" points="611,-499.5 611,-529.5 909,-529.5 909,-499.5 611,-499.5"/>
<text text-anchor="start" x="618" y="-510.9" font-family="Arial" font-size="14.00" fill="#000000">user_id </text>
<text text-anchor="start" x="667.7882" y="-510.9" font-family="Arial" font-size="14.00" fill="#666666">[int]</text>
<polygon fill="none" stroke="#000000" points="611,-469.5 611,-499.5 909,-499.5 909,-469.5 611,-469.5"/>
<text text-anchor="start" x="618" y="-480.9" font-family="Arial" font-size="14.00" fill="#000000">name </text>
<text text-anchor="start" x="656.899" y="-480.9" font-family="Arial" font-size="14.00" fill="#666666">[text]</text>
<polygon fill="none" stroke="#000000" points="611,-439.5 611,-469.5 909,-469.5 909,-439.5 611,-439.5"/>
<text text-anchor="start" x="618" y="-450.9" font-family="Arial" font-size="14.00" fill="#000000">description </text>
<text text-anchor="start" x="689.568" y="-450.9" font-family="Arial" font-size="14.00" fill="#666666">[text]</text>
<polygon fill="none" stroke="#000000" points="611,-409.5 611,-439.5 909,-439.5 909,-409.5 611,-409.5"/>
<text text-anchor="start" x="618" y="-420.9" font-family="Arial" font-size="14.00" fill="#000000">created </text>
<text text-anchor="start" x="668.5722" y="-420.9" font-family="Arial" font-size="14.00" fill="#666666">[date]</text>
<polygon fill="none" stroke="#000000" points="611,-379.5 611,-409.5 909,-409.5 909,-379.5 611,-379.5"/>
<text text-anchor="start" x="618" y="-390.9" font-family="Arial" font-size="14.00" fill="#000000">updated </text>
<text text-anchor="start" x="672.4768" y="-390.9" font-family="Arial" font-size="14.00" fill="#666666">[date]</text>
</g>
<!-- administrator.blogs&#45;&gt;users -->
<g id="edge1" class="edge">
<title>administrator.blogs:user_id&#45;&gt;users:id</title>
<path fill="none" stroke="#000000" d="M600.7227,-513.9646C523.2472,-505.2547 609.7114,-391.9902 616,-301 618.8652,-259.5433 657.5556,-207.5 616,-207.5"/>
<polygon fill="#000000" stroke="#000000" points="601.0135,-513.9797 610.7659,-518.9939 606.0068,-514.2399 611,-514.5 611,-514.5 611,-514.5 606.0068,-514.2399 611.2341,-510.0061 601.0135,-513.9797 601.0135,-513.9797"/>
</g>
<!-- name with spaces -->
<g id="node6" class="node">
<title>name with spaces</title>
<polygon fill="#efefef" stroke="transparent" points="1427,-1510.5 1427,-1545.5 1662,-1545.5 1662,-1510.5 1427,-1510.5"/>
<polygon fill="none" stroke="#000000" points="1427,-1510.5 1427,-1545.5 1662,-1545.5 1662,-1510.5 1427,-1510.5"/>
<text text-anchor="start" x="1433.6025" y="-1523.3" font-family="Arial Bold" font-size="18.00" fill="#000000">name with spaces</text>
<text text-anchor="start" x="1577.6331" y="-1523.3" font-family="Arial" font-size="14.00" fill="#000000">    </text>
<text text-anchor="start" x="1611.8379" y="-1523.3" font-family="Arial" font-size="14.00" fill="#666666">[VIEW]</text>
<polygon fill="none" stroke="#000000" points="1427,-1480.5 1427,-1510.5 1662,-1510.5 1662,-1480.5 1427,-1480.5"/>
<text text-anchor="start" x="1434" y="-1491.9" font-family="Arial" font-size="14.00" fill="#000000">title </text>
<text text-anchor="start" x="1459.6676" y="-1491.9" font-family="Arial" font-size="14.00" fill="#666666">[varchar(255)]</text>
</g>
<!-- Sales.Product -->
<g id="node7" class="node">
<title>Sales.Product</title>
<polygon fill="#efefef" stroke="transparent" points="1777,-1173.5 1777,-1208.5 2035,-1208.5 2035,-1173.5 1777,-1173.5"/>
<polygon fill="none" stroke="#000000" points="1777,-1173.5 1777,-1208.5 2035,-1208.5 2035,-1173.5 1777,-1173.5"/>
<text text-anchor="start" x="1783.8706" y="-1186.3" font-family="Arial Bold" font-size="18.00" fill="#000000">Sales.Product</text>
<text text-anchor="start" x="1895.9008" y="-1186.3" font-family="Arial" font-size="14.00" fill="#000000">    </text>
<text text-anchor="start" x="1930.1056" y="-1186.3" font-family="Arial" font-size="14.00" fill="#666666">[BASIC TABLE]</text>
<polygon fill="none" stroke="#000000" points="1777,-1143.5 1777,-1173.5 2035,-1173.5 2035,-1143.5 1777,-1143.5"/>
<text text-anchor="start" x="1784" y="-1154.9" font-family="Arial" font-size="14.00" fill="#000000">ProductID </text>
<text text-anchor="start" x="1850.1234" y="-1154.9" font-family="Arial" font-size="14.00" fill="#666666">[int]</text>
<polygon fill="none" stroke="#000000" points="1777,-1113.5 1777,-1143.5 2035,-1143.5 2035,-1113.5 1777,-1113.5"/>
<text text-anchor="start" x="1784" y="-1124.9" font-family="Arial" font-size="14.00" fill="#000000">SalesPersonID </text>
<text text-anchor="start" x="1881.2412" y="-1124.9" font-family="Arial" font-size="14.00" fill="#666666">[int]</text>
</g>
<!-- Rabbits.Running -->
<g id="node8" class="node">
<title>Rabbits.Running</title>
<polygon fill="#efefef" stroke="transparent" points="1766,-1540.5 1766,-1575.5 2045,-1575.5 2045,-1540.5 1766,-1540.5"/>
<polygon fill="none" stroke="#000000" points="1766,-1540.5 1766,-1575.5 2045,-1575.5 2045,-1540.5 1766,-1540.5"/>
<text text-anchor="start" x="1772.8703" y="-1553.3" font-family="Arial Bold" font-size="18.00" fill="#000000">Rabbits.Running</text>
<text text-anchor="start" x="1905.9011" y="-1553.3" font-family="Arial" font-size="14.00" fill="#000000">    </text>
<text text-anchor="start" x="1940.1059" y="-1553.3" font-family="Arial" font-size="14.00" fill="#666666">[BASIC TABLE]</text>
<polygon fill="none" stroke="#000000" points="1766,-1510.5 1766,-1540.5 2045,-1540.5 2045,-1510.5 1766,-1510.5"/>
<text text-anchor="start" x="1773" y="-1521.9" font-family="Arial" font-size="14.00" fill="#000000">LocationID </text>
<text text-anchor="start" x="1843.798" y="-1521.9" font-family="Arial" font-size="14.00" fill="#666666">[int]</text>
<polygon fill="none" stroke="#000000" points="1766,-1480.5 1766,-1510.5 2045,-1510.5 2045,-1480.5 1766,-1480.5"/>
<text text-anchor="start" x="1773" y="-1491.9" font-family="Arial" font-size="14.00" fill="#000000">ProductID </text>
<text text-anchor="start" x="1839.1234" y="-1491.9" font-family="Arial" font-size="14.00" fill="#666666">[int]</text>
<polygon fill="none" stroke="#000000" points="1766,-1450.5 1766,-1480.5 2045,-1480.5 2045,-1450.5 1766,-1450.5"/>
<text text-anchor="start" x="1773" y="-1461.9" font-family="Arial" font-size="14.00" fill="#000000">EmployeeID </text>
<text text-anchor="start" x="1853.122" y="-1461.9" font-family="Arial" font-size="14.00" fill="#666666">[int]</text>
</g>
<!-- Rabbits.Running&#45;&gt;Sales.Product -->
<g id="edge2" class="edge">
<title>Rabbits.Running:ProductID&#45;&gt;Sales.Product:SalesPersonID</title>
<path fill="none" stroke="#000000" d="M2055.0954,-1493.9164C2130.75,-1469.5463 2135.7779,-1171.2779 2078,-1113.5 2023.9456,-1059.4456 1906,-1037.0556 1906,-1113.5"/>
<polygon fill="#000000" stroke="#000000" points="2054.8792,-1493.9502 2044.3026,-1491.0544 2049.9396,-1494.7251 2045,-1495.5 2045,-1495.5 2045,-1495.5 2049.9396,-1494.7251 2045.6974,-1499.9456 2054.8792,-1493.9502 2054.8792,-1493.9502"/>
</g>
<!-- user_options -->
<g id="node10" class="node">
<title>user_options</title>
<polygon fill="#efefef" stroke="transparent" points="1014,-529.5 1014,-564.5 1263,-564.5 1263,-529.5 1014,-529.5"/>
<polygon fill="none" stroke="#000000" points="1014,-529.5 1014,-564.5 1263,-564.5 1263,-529.5 1014,-529.5"/>
<text text-anchor="start" x="1020.8697" y="-542.3" font-family="Arial Bold" font-size="18.00" fill="#000000">user_options</text>
<text text-anchor="start" x="1123.9017" y="-542.3" font-family="Arial" font-size="14.00" fill="#000000">    </text>
<text text-anchor="start" x="1158.1065" y="-542.3" font-family="Arial" font-size="14.00" fill="#666666">[BASIC TABLE]</text>
<polygon fill="none" stroke="#000000" points="1014,-499.5 1014,-529.5 1263,-529.5 1263,-499.5 1014,-499.5"/>
<text text-anchor="start" x="1021" y="-510.9" font-family="Arial" font-size="14.00" fill="#000000">user_id </text>
<text text-anchor="start" x="1070.7882" y="-510.9" font-family="Arial" font-size="14.00" fill="#666666">[int]</text>
<polygon fill="none" stroke="#000000" points="1014,-469.5 1014,-499.5 1263,-499.5 1263,-469.5 1014,-469.5"/>
<text text-anchor="start" x="1021" y="-480.9" font-family="Arial" font-size="14.00" fill="#000000">show_email </text>
<text text-anchor="start" x="1098.784" y="-480.9" font-family="Arial" font-size="14.00" fill="#666666">[bit]</text>
<polygon fill="none" stroke="#000000" points="1014,-439.5 1014,-469.5 1263,-469.5 1263,-439.5 1014,-439.5"/>
<text text-anchor="start" x="1021" y="-450.9" font-family="Arial" font-size="14.00" fill="#000000">created </text>
<text text-anchor="start" x="1071.5722" y="-450.9" font-family="Arial" font-size="14.00" fill="#666666">[date]</text>
<polygon fill="none" stroke="#000000" points="1014,-409.5 1014,-439.5 1263,-439.5 1263,-409.5 1014,-409.5"/>
<text text-anchor="start" x="1021" y="-420.9" font-family="Arial" font-size="14.00" fill="#000000">updated </text>
<text text-anchor="start" x="1075.4768" y="-420.9" font-family="Arial" font-size="14.00" fill="#666666">[date]</text>
</g>
<!-- user_options&#45;&gt;users -->
<g id="edge3" class="edge">
<title>user_options:user_id&#45;&gt;users:id</title>
<path fill="none" stroke="#000000" d="M1003.8927,-513.8056C939.0658,-504.0755 1014.6525,-394.484 961,-337 849.2494,-217.2689 779.7796,-207.5 616,-207.5"/>
<polygon fill="#000000" stroke="#000000" points="1004.0235,-513.8145 1013.6915,-518.9894 1009.0118,-514.1573 1014,-514.5 1014,-514.5 1014,-514.5 1009.0118,-514.1573 1014.3085,-510.0106 1004.0235,-513.8145 1004.0235,-513.8145"/>
</g>
<!-- posts&#45;&gt;users -->
<g id="edge4" class="edge">
<title>posts:user_id&#45;&gt;users:id</title>
<path fill="none" stroke="#000000" d="M441.2773,-513.9646C518.7528,-505.2547 432.2886,-391.9902 426,-301 423.1348,-259.5433 384.4444,-207.5 426,-207.5"/>
<polygon fill="#000000" stroke="#000000" points="440.9865,-513.9797 430.7659,-510.0061 435.9932,-514.2399 431,-514.5 431,-514.5 431,-514.5 435.9932,-514.2399 431.2341,-518.9939 440.9865,-513.9797 440.9865,-513.9797"/>
</g>
<!-- comments&#45;&gt;users -->
<g id="edge6" class="edge">
<title>comments:user_id&#45;&gt;users:id</title>
<path fill="none" stroke="#000000" d="M476.6428,-814.9268C506.8095,-761.5666 516.2632,-399.7588 482,-337 467.8217,-311.0301 440.1783,-326.9699 426,-301 406.0871,-264.5262 384.4444,-207.5 426,-207.5"/>
<polygon fill="#000000" stroke="#000000" points="476.5817,-814.9793 466.0657,-818.0883 472.7908,-818.2397 469,-821.5 469,-821.5 469,-821.5 472.7908,-818.2397 471.9343,-824.9117 476.5817,-814.9793 476.5817,-814.9793"/>
</g>
<!-- comments&#45;&gt;posts -->
<g id="edge5" class="edge">
<title>comments:post_id&#45;&gt;posts:id</title>
<path fill="none" stroke="#000000" d="M230.0111,-850.8087C163.719,-841.122 191.9094,-732.0015 240,-674 295.1361,-607.5009 375.8639,-704.4991 431,-638 457.5237,-606.01 472.5556,-544.5 431,-544.5"/>
<polygon fill="#000000" stroke="#000000" points="230.0239,-850.8095 239.6893,-855.9893 235.0119,-851.1548 240,-851.5 240,-851.5 240,-851.5 235.0119,-851.1548 240.3107,-847.0107 230.0239,-850.8095 230.0239,-850.8095"/>
</g>
<!-- comment_stars&#45;&gt;users -->
<g id="edge7" class="edge">
<title>comment_stars:comment_user_id&#45;&gt;users:id</title>
<path fill="none" stroke="#000000" d="M557.0615,-1128.3619C888.884,-1119.0506 388.5264,-640.8241 559,-337 573.6617,-310.8693 601.5368,-327.241 616,-301 636.059,-264.6063 657.5556,-207.5 616,-207.5"/>
<polygon fill="#000000" stroke="#000000" points="556.9991,-1128.3627 546.9382,-1124.0004 551.9995,-1128.4314 547,-1128.5 547,-1128.5 547,-1128.5 551.9995,-1128.4314 547.0618,-1132.9996 556.9991,-1128.3627 556.9991,-1128.3627"/>
</g>
<!-- comment_stars&#45;&gt;comments -->
<g id="edge8" class="edge">
<title>comment_stars:comment_post_id&#45;&gt;comments:post_id</title>
<path fill="none" stroke="#000000" d="M268.0341,-1157.6529C215.0923,-1148.0261 238.446,-1058.7056 278,-1011 333.1361,-944.5009 413.8639,-1041.4991 469,-975 504.034,-932.7459 523.8889,-851.5 469,-851.5"/>
<polygon fill="#000000" stroke="#000000" points="268.0359,-1157.6529 277.6188,-1162.9838 273.018,-1158.0765 278,-1158.5 278,-1158.5 278,-1158.5 273.018,-1158.0765 278.3812,-1154.0162 268.0359,-1157.6529 268.0359,-1157.6529"/>
</g>
</g>
</svg>
