<?xml version="1.0" encoding="UTF-8" standalone="no"?>
<!DOCTYPE svg PUBLIC "-//W3C//DTD SVG 1.1//EN"
 "http://www.w3.org/Graphics/SVG/1.1/DTD/svg11.dtd">
<!-- Generated by graphviz version 12.1.2 (20240928.0832)
 -->
<!-- Title: testdb Pages: 1 -->
<svg width="2268pt" height="1717pt"
 viewBox="0.00 0.00 2268.06 1716.80" xmlns="http://www.w3.org/2000/svg" xmlns:xlink="http://www.w3.org/1999/xlink">
<g id="graph0" class="graph" transform="scale(1 1) rotate(0) translate(4 1712.8)">
<title>testdb</title>
<polygon fill="white" stroke="none" points="-4,4 -4,-1712.8 2264.06,-1712.8 2264.06,4 -4,4"/>
<!-- users -->
<g id="node1" class="node">
<title>users</title>
<polygon fill="#efefef" stroke="none" points="500.7,-228 500.7,-263.6 680.85,-263.6 680.85,-228 500.7,-228"/>
<polygon fill="none" stroke="black" points="500.7,-228 500.7,-263.6 680.85,-263.6 680.85,-228 500.7,-228"/>
<text text-anchor="start" x="507.7" y="-241.4" font-family="Arial Bold" font-size="18.00">users</text>
<text text-anchor="start" x="544.69" y="-241.4" font-family="Arial" font-size="14.00">    </text>
<text text-anchor="start" x="575.81" y="-241.4" font-family="Arial" font-size="14.00" fill="#666666">[BASIC TABLE]</text>
<polygon fill="none" stroke="black" points="500.7,-197.2 500.7,-228 680.85,-228 680.85,-197.2 500.7,-197.2"/>
<text text-anchor="start" x="507.7" y="-209.4" font-family="Arial" font-size="14.00">id </text>
<text text-anchor="start" x="522.49" y="-209.4" font-family="Arial" font-size="14.00" fill="#666666">[int]</text>
<polygon fill="none" stroke="black" points="500.7,-166.4 500.7,-197.2 680.85,-197.2 680.85,-166.4 500.7,-166.4"/>
<text text-anchor="start" x="507.7" y="-178.6" font-family="Arial" font-size="14.00">username </text>
<text text-anchor="start" x="573.85" y="-178.6" font-family="Arial" font-size="14.00" fill="#666666">[varchar(50)]</text>
<polygon fill="none" stroke="black" points="500.7,-135.6 500.7,-166.4 680.85,-166.4 680.85,-135.6 500.7,-135.6"/>
<text text-anchor="start" x="507.7" y="-147.8" font-family="Arial" font-size="14.00">password </text>
<text text-anchor="start" x="571.51" y="-147.8" font-family="Arial" font-size="14.00" fill="#666666">[varchar(50)]</text>
<polygon fill="none" stroke="black" points="500.7,-104.8 500.7,-135.6 680.85,-135.6 680.85,-104.8 500.7,-104.8"/>
<text text-anchor="start" x="507.7" y="-117" font-family="Arial" font-size="14.00">email </text>
<text text-anchor="start" x="545.05" y="-117" font-family="Arial" font-size="14.00" fill="#666666">[varchar(355)]</text>
<polygon fill="none" stroke="black" points="500.7,-74 500.7,-104.8 680.85,-104.8 680.85,-74 500.7,-74"/>
<text text-anchor="start" x="507.7" y="-86.2" font-family="Arial" font-size="14.00">created </text>
<text text-anchor="start" x="558.29" y="-86.2" font-family="Arial" font-size="14.00" fill="#666666">[date]</text>
<polygon fill="none" stroke="black" points="500.7,-43.2 500.7,-74 680.85,-74 680.85,-43.2 500.7,-43.2"/>
<text text-anchor="start" x="507.7" y="-55.4" font-family="Arial" font-size="14.00">updated </text>
<text text-anchor="start" x="562.2" y="-55.4" font-family="Arial" font-size="14.00" fill="#666666">[date]</text>
</g>
<!-- user_options -->
<g id="node2" class="node">
<title>user_options</title>
<polygon fill="#efefef" stroke="none" points="43.2,-540 43.2,-575.6 278.35,-575.6 278.35,-540 43.2,-540"/>
<polygon fill="none" stroke="black" points="43.2,-540 43.2,-575.6 278.35,-575.6 278.35,-540 43.2,-540"/>
<text text-anchor="start" x="50.2" y="-553.4" font-family="Arial Bold" font-size="18.00">user_options</text>
<text text-anchor="start" x="142.2" y="-553.4" font-family="Arial" font-size="14.00">    </text>
<text text-anchor="start" x="173.31" y="-553.4" font-family="Arial" font-size="14.00" fill="#666666">[BASIC TABLE]</text>
<polygon fill="none" stroke="black" points="43.2,-509.2 43.2,-540 278.35,-540 278.35,-509.2 43.2,-509.2"/>
<text text-anchor="start" x="50.2" y="-521.4" font-family="Arial" font-size="14.00">user_id </text>
<text text-anchor="start" x="100.01" y="-521.4" font-family="Arial" font-size="14.00" fill="#666666">[int]</text>
<polygon fill="none" stroke="black" points="43.2,-478.4 43.2,-509.2 278.35,-509.2 278.35,-478.4 43.2,-478.4"/>
<text text-anchor="start" x="50.2" y="-490.6" font-family="Arial" font-size="14.00">show_email </text>
<text text-anchor="start" x="128.01" y="-490.6" font-family="Arial" font-size="14.00" fill="#666666">[bit]</text>
<polygon fill="none" stroke="black" points="43.2,-447.6 43.2,-478.4 278.35,-478.4 278.35,-447.6 43.2,-447.6"/>
<text text-anchor="start" x="50.2" y="-459.8" font-family="Arial" font-size="14.00">created </text>
<text text-anchor="start" x="100.79" y="-459.8" font-family="Arial" font-size="14.00" fill="#666666">[date]</text>
<polygon fill="none" stroke="black" points="43.2,-416.8 43.2,-447.6 278.35,-447.6 278.35,-416.8 43.2,-416.8"/>
<text text-anchor="start" x="50.2" y="-429" font-family="Arial" font-size="14.00">updated </text>
<text text-anchor="start" x="104.7" y="-429" font-family="Arial" font-size="14.00" fill="#666666">[date]</text>
</g>
<!-- user_options&#45;&gt;users -->
<g id="edge1" class="edge">
<title>user_options:user_id&#45;&gt;users:id</title>
<path fill="none" stroke="black" d="M289.39,-523.99C357.65,-515.05 290.04,-409.61 335.77,-342.8 388.33,-266.02 406.66,-212.6 499.7,-212.6"/>
<polygon fill="black" stroke="black" points="289.66,-523.98 279.41,-520.09 284.34,-524.3 280.01,-524.56 280.01,-524.56 280.01,-524.56 284.34,-524.3 279.95,-529.07 289.66,-523.98"/>
</g>
<!-- posts -->
<g id="node3" class="node">
<title>posts</title>
<polygon fill="#efefef" stroke="none" points="420.69,-570.8 420.69,-606.4 600.85,-606.4 600.85,-570.8 420.69,-570.8"/>
<polygon fill="none" stroke="black" points="420.69,-570.8 420.69,-606.4 600.85,-606.4 600.85,-570.8 420.69,-570.8"/>
<text text-anchor="start" x="427.69" y="-584.2" font-family="Arial Bold" font-size="18.00">posts</text>
<text text-anchor="start" x="464.7" y="-584.2" font-family="Arial" font-size="14.00">    </text>
<text text-anchor="start" x="495.82" y="-584.2" font-family="Arial" font-size="14.00" fill="#666666">[BASIC TABLE]</text>
<polygon fill="none" stroke="black" points="420.69,-540 420.69,-570.8 600.85,-570.8 600.85,-540 420.69,-540"/>
<text text-anchor="start" x="427.69" y="-552.2" font-family="Arial" font-size="14.00">id </text>
<text text-anchor="start" x="442.48" y="-552.2" font-family="Arial" font-size="14.00" fill="#666666">[int]</text>
<polygon fill="none" stroke="black" points="420.69,-509.2 420.69,-540 600.85,-540 600.85,-509.2 420.69,-509.2"/>
<text text-anchor="start" x="427.69" y="-521.4" font-family="Arial" font-size="14.00">user_id </text>
<text text-anchor="start" x="477.5" y="-521.4" font-family="Arial" font-size="14.00" fill="#666666">[int]</text>
<polygon fill="none" stroke="black" points="420.69,-478.4 420.69,-509.2 600.85,-509.2 600.85,-478.4 420.69,-478.4"/>
<text text-anchor="start" x="427.69" y="-490.6" font-family="Arial" font-size="14.00">title </text>
<text text-anchor="start" x="453.37" y="-490.6" font-family="Arial" font-size="14.00" fill="#666666">[varchar(255)]</text>
<polygon fill="none" stroke="black" points="420.69,-447.6 420.69,-478.4 600.85,-478.4 600.85,-447.6 420.69,-447.6"/>
<text text-anchor="start" x="427.69" y="-459.8" font-family="Arial" font-size="14.00">body </text>
<text text-anchor="start" x="461.94" y="-459.8" font-family="Arial" font-size="14.00" fill="#666666">[text]</text>
<polygon fill="none" stroke="black" points="420.69,-416.8 420.69,-447.6 600.85,-447.6 600.85,-416.8 420.69,-416.8"/>
<text text-anchor="start" x="427.69" y="-429" font-family="Arial" font-size="14.00">created </text>
<text text-anchor="start" x="478.28" y="-429" font-family="Arial" font-size="14.00" fill="#666666">[date]</text>
<polygon fill="none" stroke="black" points="420.69,-386 420.69,-416.8 600.85,-416.8 600.85,-386 420.69,-386"/>
<text text-anchor="start" x="427.69" y="-398.2" font-family="Arial" font-size="14.00">updated </text>
<text text-anchor="start" x="482.19" y="-398.2" font-family="Arial" font-size="14.00" fill="#666666">[date]</text>
</g>
<!-- posts&#45;&gt;users -->
<g id="edge2" class="edge">
<title>posts:user_id&#45;&gt;users:id</title>
<path fill="none" stroke="black" d="M612.05,-523.91C679.48,-514.29 645.42,-405.8 600.85,-342.8 573.54,-304.18 528.11,-345.35 500.7,-306.8 476.44,-272.68 457.83,-212.6 499.7,-212.6"/>
<polygon fill="black" stroke="black" points="612.17,-523.91 601.89,-520.09 606.84,-524.26 602.52,-524.56 602.52,-524.56 602.52,-524.56 606.84,-524.26 602.49,-529.07 612.17,-523.91"/>
</g>
<!-- comments -->
<g id="node4" class="node">
<title>comments</title>
<polygon fill="#efefef" stroke="none" points="459.2,-913.6 459.2,-949.2 676.34,-949.2 676.34,-913.6 459.2,-913.6"/>
<polygon fill="none" stroke="black" points="459.2,-913.6 459.2,-949.2 676.34,-949.2 676.34,-913.6 459.2,-913.6"/>
<text text-anchor="start" x="466.2" y="-927" font-family="Arial Bold" font-size="18.00">comments</text>
<text text-anchor="start" x="540.19" y="-927" font-family="Arial" font-size="14.00">    </text>
<text text-anchor="start" x="571.31" y="-927" font-family="Arial" font-size="14.00" fill="#666666">[BASIC TABLE]</text>
<polygon fill="none" stroke="black" points="459.2,-882.8 459.2,-913.6 676.34,-913.6 676.34,-882.8 459.2,-882.8"/>
<text text-anchor="start" x="466.2" y="-895" font-family="Arial" font-size="14.00">id </text>
<text text-anchor="start" x="480.99" y="-895" font-family="Arial" font-size="14.00" fill="#666666">[int]</text>
<polygon fill="none" stroke="black" points="459.2,-852 459.2,-882.8 676.34,-882.8 676.34,-852 459.2,-852"/>
<text text-anchor="start" x="466.2" y="-864.2" font-family="Arial" font-size="14.00">post_id </text>
<text text-anchor="start" x="515.24" y="-864.2" font-family="Arial" font-size="14.00" fill="#666666">[int]</text>
<polygon fill="none" stroke="black" points="459.2,-821.2 459.2,-852 676.34,-852 676.34,-821.2 459.2,-821.2"/>
<text text-anchor="start" x="466.2" y="-833.4" font-family="Arial" font-size="14.00">user_id </text>
<text text-anchor="start" x="516.01" y="-833.4" font-family="Arial" font-size="14.00" fill="#666666">[int]</text>
<polygon fill="none" stroke="black" points="459.2,-790.4 459.2,-821.2 676.34,-821.2 676.34,-790.4 459.2,-790.4"/>
<text text-anchor="start" x="466.2" y="-802.6" font-family="Arial" font-size="14.00">comment </text>
<text text-anchor="start" x="527.67" y="-802.6" font-family="Arial" font-size="14.00" fill="#666666">[text]</text>
<polygon fill="none" stroke="black" points="459.2,-759.6 459.2,-790.4 676.34,-790.4 676.34,-759.6 459.2,-759.6"/>
<text text-anchor="start" x="466.2" y="-771.8" font-family="Arial" font-size="14.00">created </text>
<text text-anchor="start" x="516.79" y="-771.8" font-family="Arial" font-size="14.00" fill="#666666">[date]</text>
<polygon fill="none" stroke="black" points="459.2,-728.8 459.2,-759.6 676.34,-759.6 676.34,-728.8 459.2,-728.8"/>
<text text-anchor="start" x="466.2" y="-741" font-family="Arial" font-size="14.00">updated </text>
<text text-anchor="start" x="520.7" y="-741" font-family="Arial" font-size="14.00" fill="#666666">[date]</text>
</g>
<!-- comments&#45;&gt;users -->
<g id="edge4" class="edge">
<title>comments:user_id&#45;&gt;users:id</title>
<path fill="none" stroke="black" d="M686.66,-832.62C746.94,-779.47 747.93,-212.6 681.85,-212.6"/>
<polygon fill="black" stroke="black" points="686.84,-832.54 675.88,-832.33 681.94,-834.63 677.96,-836.34 677.96,-836.34 677.96,-836.34 681.94,-834.63 679.42,-840.61 686.84,-832.54"/>
</g>
<!-- comments&#45;&gt;posts -->
<g id="edge3" class="edge">
<title>comments:post_id&#45;&gt;posts:id</title>
<path fill="none" stroke="black" d="M447.99,-866.7C380.32,-856.89 411.66,-746.39 459.2,-685.6 499.22,-634.43 560.71,-700.66 600.85,-649.6 626.73,-616.69 643.72,-555.4 601.85,-555.4"/>
<polygon fill="black" stroke="black" points="447.89,-866.69 457.56,-871.87 453.22,-867.06 457.54,-867.35 457.54,-867.35 457.54,-867.35 453.22,-867.06 458.18,-862.89 447.89,-866.69"/>
</g>
<!-- comment_stars -->
<g id="node5" class="node">
<title>comment_stars</title>
<polygon fill="#efefef" stroke="none" points="496.71,-1256.4 496.71,-1292 748.84,-1292 748.84,-1256.4 496.71,-1256.4"/>
<polygon fill="none" stroke="black" points="496.71,-1256.4 496.71,-1292 748.84,-1292 748.84,-1256.4 496.71,-1256.4"/>
<text text-anchor="start" x="503.71" y="-1269.8" font-family="Arial Bold" font-size="18.00">comment_stars</text>
<text text-anchor="start" x="612.69" y="-1269.8" font-family="Arial" font-size="14.00">    </text>
<text text-anchor="start" x="643.8" y="-1269.8" font-family="Arial" font-size="14.00" fill="#666666">[BASIC TABLE]</text>
<polygon fill="none" stroke="black" points="496.71,-1225.6 496.71,-1256.4 748.84,-1256.4 748.84,-1225.6 496.71,-1225.6"/>
<text text-anchor="start" x="503.71" y="-1237.8" font-family="Arial" font-size="14.00">id </text>
<text text-anchor="start" x="518.5" y="-1237.8" font-family="Arial" font-size="14.00" fill="#666666">[int]</text>
<polygon fill="none" stroke="black" points="496.71,-1194.8 496.71,-1225.6 748.84,-1225.6 748.84,-1194.8 496.71,-1194.8"/>
<text text-anchor="start" x="503.71" y="-1207" font-family="Arial" font-size="14.00">user_id </text>
<text text-anchor="start" x="553.52" y="-1207" font-family="Arial" font-size="14.00" fill="#666666">[int]</text>
<polygon fill="none" stroke="black" points="496.71,-1164 496.71,-1194.8 748.84,-1194.8 748.84,-1164 496.71,-1164"/>
<text text-anchor="start" x="503.71" y="-1176.2" font-family="Arial" font-size="14.00">comment_post_id </text>
<text text-anchor="start" x="618.1" y="-1176.2" font-family="Arial" font-size="14.00" fill="#666666">[int]</text>
<polygon fill="none" stroke="black" points="496.71,-1133.2 496.71,-1164 748.84,-1164 748.84,-1133.2 496.71,-1133.2"/>
<text text-anchor="start" x="503.71" y="-1145.4" font-family="Arial" font-size="14.00">comment_user_id </text>
<text text-anchor="start" x="618.87" y="-1145.4" font-family="Arial" font-size="14.00" fill="#666666">[int]</text>
<polygon fill="none" stroke="black" points="496.71,-1102.4 496.71,-1133.2 748.84,-1133.2 748.84,-1102.4 496.71,-1102.4"/>
<text text-anchor="start" x="503.71" y="-1114.6" font-family="Arial" font-size="14.00">created </text>
<text text-anchor="start" x="554.3" y="-1114.6" font-family="Arial" font-size="14.00" fill="#666666">[date]</text>
<polygon fill="none" stroke="black" points="496.71,-1071.6 496.71,-1102.4 748.84,-1102.4 748.84,-1071.6 496.71,-1071.6"/>
<text text-anchor="start" x="503.71" y="-1083.8" font-family="Arial" font-size="14.00">updated </text>
<text text-anchor="start" x="558.21" y="-1083.8" font-family="Arial" font-size="14.00" fill="#666666">[date]</text>
</g>
<!-- comment_stars&#45;&gt;users -->
<g id="edge5" class="edge">
<title>comment_stars:comment_user_id&#45;&gt;users:id</title>
<path fill="none" stroke="black" d="M760.03,-1147.53C795.59,-1138.76 749.59,-1077.85 748.84,-1028.4 744.22,-723.65 794.54,-641.46 733.77,-342.8 721.35,-281.75 744.14,-212.6 681.85,-212.6"/>
<polygon fill="black" stroke="black" points="760.11,-1147.52 749.7,-1144.09 754.81,-1148.08 750.5,-1148.53 750.5,-1148.53 750.5,-1148.53 754.81,-1148.08 750.64,-1153.04 760.11,-1147.52"/>
</g>
<!-- comment_stars&#45;&gt;comments -->
<g id="edge6" class="edge">
<title>comment_stars:comment_post_id&#45;&gt;comments:post_id</title>
<path fill="none" stroke="black" d="M485.52,-1178.53C431.43,-1168.69 456.34,-1077.34 496.71,-1028.4 548.53,-965.59 624.48,-1055.17 676.34,-992.4 711.73,-949.57 732.9,-867.4 677.34,-867.4"/>
<polygon fill="black" stroke="black" points="485.41,-1178.52 495,-1183.86 490.73,-1178.98 495.04,-1179.34 495.04,-1179.34 495.04,-1179.34 490.73,-1178.98 495.76,-1174.89 485.41,-1178.52"/>
</g>
<!-- logs -->
<g id="node6" class="node">
<title>logs</title>
<polygon fill="#efefef" stroke="none" points="320.19,-1630 320.19,-1665.6 493.35,-1665.6 493.35,-1630 320.19,-1630"/>
<polygon fill="none" stroke="black" points="320.19,-1630 320.19,-1665.6 493.35,-1665.6 493.35,-1630 320.19,-1630"/>
<text text-anchor="start" x="327.19" y="-1643.4" font-family="Arial Bold" font-size="18.00">logs</text>
<text text-anchor="start" x="357.2" y="-1643.4" font-family="Arial" font-size="14.00">    </text>
<text text-anchor="start" x="388.32" y="-1643.4" font-family="Arial" font-size="14.00" fill="#666666">[BASIC TABLE]</text>
<polygon fill="none" stroke="black" points="320.19,-1599.2 320.19,-1630 493.35,-1630 493.35,-1599.2 320.19,-1599.2"/>
<text text-anchor="start" x="327.19" y="-1611.4" font-family="Arial" font-size="14.00">id </text>
<text text-anchor="start" x="341.98" y="-1611.4" font-family="Arial" font-size="14.00" fill="#666666">[int]</text>
<polygon fill="none" stroke="black" points="320.19,-1568.4 320.19,-1599.2 493.35,-1599.2 493.35,-1568.4 320.19,-1568.4"/>
<text text-anchor="start" x="327.19" y="-1580.6" font-family="Arial" font-size="14.00">user_id </text>
<text text-anchor="start" x="377" y="-1580.6" font-family="Arial" font-size="14.00" fill="#666666">[int]</text>
<polygon fill="none" stroke="black" points="320.19,-1537.6 320.19,-1568.4 493.35,-1568.4 493.35,-1537.6 320.19,-1537.6"/>
<text text-anchor="start" x="327.19" y="-1549.8" font-family="Arial" font-size="14.00">post_id </text>
<text text-anchor="start" x="376.23" y="-1549.8" font-family="Arial" font-size="14.00" fill="#666666">[int]</text>
<polygon fill="none" stroke="black" points="320.19,-1506.8 320.19,-1537.6 493.35,-1537.6 493.35,-1506.8 320.19,-1506.8"/>
<text text-anchor="start" x="327.19" y="-1519" font-family="Arial" font-size="14.00">comment_id </text>
<text text-anchor="start" x="407.34" y="-1519" font-family="Arial" font-size="14.00" fill="#666666">[int]</text>
<polygon fill="none" stroke="black" points="320.19,-1476 320.19,-1506.8 493.35,-1506.8 493.35,-1476 320.19,-1476"/>
<text text-anchor="start" x="327.19" y="-1488.2" font-family="Arial" font-size="14.00">comment_star_id </text>
<text text-anchor="start" x="438.46" y="-1488.2" font-family="Arial" font-size="14.00" fill="#666666">[int]</text>
<polygon fill="none" stroke="black" points="320.19,-1445.2 320.19,-1476 493.35,-1476 493.35,-1445.2 320.19,-1445.2"/>
<text text-anchor="start" x="327.19" y="-1457.4" font-family="Arial" font-size="14.00">payload </text>
<text text-anchor="start" x="380.13" y="-1457.4" font-family="Arial" font-size="14.00" fill="#666666">[text]</text>
<polygon fill="none" stroke="black" points="320.19,-1414.4 320.19,-1445.2 493.35,-1445.2 493.35,-1414.4 320.19,-1414.4"/>
<text text-anchor="start" x="327.19" y="-1426.6" font-family="Arial" font-size="14.00">created </text>
<text text-anchor="start" x="377.78" y="-1426.6" font-family="Arial" font-size="14.00" fill="#666666">[date]</text>
</g>
<!-- logs&#45;&gt;users -->
<g id="edge9" class="edge">
<title>logs:user_id&#45;&gt;users:id</title>
<path fill="none" stroke="black" stroke-dasharray="5,2" d="M308.96,-1583.27C231.84,-1574.61 317.84,-1461.97 320.19,-1371.2 323.16,-1256.84 322.37,-447.36 368.77,-342.8 402.06,-267.79 417.64,-212.6 499.7,-212.6"/>
<polygon fill="black" stroke="black" points="308.87,-1583.26 318.63,-1588.28 314.2,-1583.54 318.53,-1583.77 318.53,-1583.77 318.53,-1583.77 314.2,-1583.54 319.09,-1579.29 308.87,-1583.26"/>
<text text-anchor="start" x="260.23" y="-1593.8" font-family="Arial" font-size="10.00">logs&#45;&gt;users</text>
</g>
<!-- logs&#45;&gt;posts -->
<g id="edge10" class="edge">
<title>logs:post_id&#45;&gt;posts:id</title>
<path fill="none" stroke="black" stroke-dasharray="5,2" d="M309.07,-1552.35C242.61,-1543.3 287.12,-1440.92 320.19,-1371.2 330.96,-1348.5 352.32,-1357.56 363.77,-1335.2 403.36,-1257.88 332.83,-555.4 419.69,-555.4"/>
<polygon fill="black" stroke="black" points="308.88,-1552.34 318.57,-1557.47 314.2,-1552.68 318.53,-1552.96 318.53,-1552.96 318.53,-1552.96 314.2,-1552.68 319.15,-1548.49 308.88,-1552.34"/>
<text text-anchor="start" x="228.81" y="-1563" font-family="Arial" font-size="10.00">Additional Relation</text>
</g>
<!-- logs&#45;&gt;comments -->
<g id="edge11" class="edge">
<title>logs:comment_id&#45;&gt;comments:id</title>
<path fill="none" stroke="black" stroke-dasharray="5,2" d="M504.44,-1521.4C557.36,-1512.32 522.07,-1427.77 493.35,-1371.2 481.19,-1347.24 456.86,-1359.2 444.77,-1335.2 383.44,-1213.42 437.77,-1164.58 444.77,-1028.4 447.76,-970.3 400.03,-898.2 458.2,-898.2"/>
<polygon fill="black" stroke="black" points="504.65,-1521.39 494.33,-1517.69 499.34,-1521.81 495.02,-1522.15 495.02,-1522.15 495.02,-1522.15 499.34,-1521.81 495.04,-1526.66 504.65,-1521.39"/>
<text text-anchor="start" x="501.35" y="-1532.2" font-family="Arial" font-size="10.00">Additional Relation</text>
</g>
<!-- logs&#45;&gt;comment_stars -->
<g id="edge12" class="edge">
<title>logs:comment_star_id&#45;&gt;comment_stars:id</title>
<path fill="none" stroke="black" stroke-dasharray="5,2" d="M504.62,-1490.54C590.91,-1474.58 388.22,-1241 495.71,-1241"/>
<polygon fill="black" stroke="black" points="504.65,-1490.54 494.31,-1486.89 499.33,-1490.98 495.02,-1491.34 495.02,-1491.34 495.02,-1491.34 499.33,-1490.98 495.06,-1495.86 504.65,-1490.54"/>
<text text-anchor="start" x="501.35" y="-1501.4" font-family="Arial" font-size="10.00">Additional Relation</text>
</g>
<!-- post_comments -->
<g id="node7" class="node">
<title>post_comments</title>
<polygon fill="#efefef" stroke="none" points="597.94,-1630 597.94,-1665.6 799.61,-1665.6 799.61,-1630 597.94,-1630"/>
<polygon fill="none" stroke="black" points="597.94,-1630 597.94,-1665.6 799.61,-1665.6 799.61,-1630 597.94,-1630"/>
<text text-anchor="start" x="604.94" y="-1643.4" font-family="Arial Bold" font-size="18.00">post_comments</text>
<text text-anchor="start" x="717.93" y="-1643.4" font-family="Arial" font-size="14.00">    </text>
<text text-anchor="start" x="749.05" y="-1643.4" font-family="Arial" font-size="14.00" fill="#666666">[VIEW]</text>
<polygon fill="none" stroke="black" points="597.94,-1599.2 597.94,-1630 799.61,-1630 799.61,-1599.2 597.94,-1599.2"/>
<text text-anchor="start" x="604.94" y="-1611.4" font-family="Arial" font-size="14.00">id </text>
<text text-anchor="start" x="619.73" y="-1611.4" font-family="Arial" font-size="14.00" fill="#666666">[int]</text>
<polygon fill="none" stroke="black" points="597.94,-1568.4 597.94,-1599.2 799.61,-1599.2 799.61,-1568.4 597.94,-1568.4"/>
<text text-anchor="start" x="604.94" y="-1580.6" font-family="Arial" font-size="14.00">title </text>
<text text-anchor="start" x="630.62" y="-1580.6" font-family="Arial" font-size="14.00" fill="#666666">[varchar(255)]</text>
<polygon fill="none" stroke="black" points="597.94,-1537.6 597.94,-1568.4 799.61,-1568.4 799.61,-1537.6 597.94,-1537.6"/>
<text text-anchor="start" x="604.94" y="-1549.8" font-family="Arial" font-size="14.00">post_user </text>
<text text-anchor="start" x="670.31" y="-1549.8" font-family="Arial" font-size="14.00" fill="#666666">[varchar(50)]</text>
<polygon fill="none" stroke="black" points="597.94,-1506.8 597.94,-1537.6 799.61,-1537.6 799.61,-1506.8 597.94,-1506.8"/>
<text text-anchor="start" x="604.94" y="-1519" font-family="Arial" font-size="14.00">comment </text>
<text text-anchor="start" x="666.4" y="-1519" font-family="Arial" font-size="14.00" fill="#666666">[text]</text>
<polygon fill="none" stroke="black" points="597.94,-1476 597.94,-1506.8 799.61,-1506.8 799.61,-1476 597.94,-1476"/>
<text text-anchor="start" x="604.94" y="-1488.2" font-family="Arial" font-size="14.00">comment_user </text>
<text text-anchor="start" x="701.42" y="-1488.2" font-family="Arial" font-size="14.00" fill="#666666">[varchar(50)]</text>
<polygon fill="none" stroke="black" points="597.94,-1445.2 597.94,-1476 799.61,-1476 799.61,-1445.2 597.94,-1445.2"/>
<text text-anchor="start" x="604.94" y="-1457.4" font-family="Arial" font-size="14.00">created </text>
<text text-anchor="start" x="655.53" y="-1457.4" font-family="Arial" font-size="14.00" fill="#666666">[date]</text>
<polygon fill="none" stroke="black" points="597.94,-1414.4 597.94,-1445.2 799.61,-1445.2 799.61,-1414.4 597.94,-1414.4"/>
<text text-anchor="start" x="604.94" y="-1426.6" font-family="Arial" font-size="14.00">updated </text>
<text text-anchor="start" x="659.44" y="-1426.6" font-family="Arial" font-size="14.00" fill="#666666">[date]</text>
</g>
<!-- CamelizeTable -->
<g id="node8" class="node">
<title>CamelizeTable</title>
<polygon fill="#efefef" stroke="none" points="903.73,-1553 903.73,-1588.6 1155.82,-1588.6 1155.82,-1553 903.73,-1553"/>
<polygon fill="none" stroke="black" points="903.73,-1553 903.73,-1588.6 1155.82,-1588.6 1155.82,-1553 903.73,-1553"/>
<text text-anchor="start" x="910.73" y="-1566.4" font-family="Arial Bold" font-size="18.00">CamelizeTable</text>
<text text-anchor="start" x="1019.67" y="-1566.4" font-family="Arial" font-size="14.00">    </text>
<text text-anchor="start" x="1050.78" y="-1566.4" font-family="Arial" font-size="14.00" fill="#666666">[BASIC TABLE]</text>
<polygon fill="none" stroke="black" points="903.73,-1522.2 903.73,-1553 1155.82,-1553 1155.82,-1522.2 903.73,-1522.2"/>
<text text-anchor="start" x="910.73" y="-1534.4" font-family="Arial" font-size="14.00">id </text>
<text text-anchor="start" x="925.51" y="-1534.4" font-family="Arial" font-size="14.00" fill="#666666">[int]</text>
<polygon fill="none" stroke="black" points="903.73,-1491.4 903.73,-1522.2 1155.82,-1522.2 1155.82,-1491.4 903.73,-1491.4"/>
<text text-anchor="start" x="910.73" y="-1503.6" font-family="Arial" font-size="14.00">created </text>
<text text-anchor="start" x="961.31" y="-1503.6" font-family="Arial" font-size="14.00" fill="#666666">[date]</text>
</g>
<!-- hyphen&#45;table -->
<g id="node9" class="node">
<title>hyphen&#45;table</title>
<polygon fill="#efefef" stroke="none" points="1260.22,-1568.4 1260.22,-1604 1497.33,-1604 1497.33,-1568.4 1260.22,-1568.4"/>
<polygon fill="none" stroke="black" points="1260.22,-1568.4 1260.22,-1604 1497.33,-1604 1497.33,-1568.4 1260.22,-1568.4"/>
<text text-anchor="start" x="1267.22" y="-1581.8" font-family="Arial Bold" font-size="18.00">hyphen&#45;table</text>
<text text-anchor="start" x="1361.18" y="-1581.8" font-family="Arial" font-size="14.00">    </text>
<text text-anchor="start" x="1392.3" y="-1581.8" font-family="Arial" font-size="14.00" fill="#666666">[BASIC TABLE]</text>
<polygon fill="none" stroke="black" points="1260.22,-1537.6 1260.22,-1568.4 1497.33,-1568.4 1497.33,-1537.6 1260.22,-1537.6"/>
<text text-anchor="start" x="1267.22" y="-1549.8" font-family="Arial" font-size="14.00">id </text>
<text text-anchor="start" x="1282" y="-1549.8" font-family="Arial" font-size="14.00" fill="#666666">[int]</text>
<polygon fill="none" stroke="black" points="1260.22,-1506.8 1260.22,-1537.6 1497.33,-1537.6 1497.33,-1506.8 1260.22,-1506.8"/>
<text text-anchor="start" x="1267.22" y="-1519" font-family="Arial" font-size="14.00">hyphen&#45;column </text>
<text text-anchor="start" x="1366.83" y="-1519" font-family="Arial" font-size="14.00" fill="#666666">[text]</text>
<polygon fill="none" stroke="black" points="1260.22,-1476 1260.22,-1506.8 1497.33,-1506.8 1497.33,-1476 1260.22,-1476"/>
<text text-anchor="start" x="1267.22" y="-1488.2" font-family="Arial" font-size="14.00">created </text>
<text text-anchor="start" x="1317.8" y="-1488.2" font-family="Arial" font-size="14.00" fill="#666666">[date]</text>
</g>
<!-- administrator.blogs -->
<g id="node10" class="node">
<title>administrator.blogs</title>
<polygon fill="#efefef" stroke="none" points="819.46,-570.8 819.46,-606.4 1102.09,-606.4 1102.09,-570.8 819.46,-570.8"/>
<polygon fill="none" stroke="black" points="819.46,-570.8 819.46,-606.4 1102.09,-606.4 1102.09,-570.8 819.46,-570.8"/>
<text text-anchor="start" x="826.46" y="-584.2" font-family="Arial Bold" font-size="18.00">administrator.blogs</text>
<text text-anchor="start" x="965.94" y="-584.2" font-family="Arial" font-size="14.00">    </text>
<text text-anchor="start" x="997.06" y="-584.2" font-family="Arial" font-size="14.00" fill="#666666">[BASIC TABLE]</text>
<polygon fill="none" stroke="black" points="819.46,-540 819.46,-570.8 1102.09,-570.8 1102.09,-540 819.46,-540"/>
<text text-anchor="start" x="826.46" y="-552.2" font-family="Arial" font-size="14.00">id </text>
<text text-anchor="start" x="841.24" y="-552.2" font-family="Arial" font-size="14.00" fill="#666666">[int]</text>
<polygon fill="none" stroke="black" points="819.46,-509.2 819.46,-540 1102.09,-540 1102.09,-509.2 819.46,-509.2"/>
<text text-anchor="start" x="826.46" y="-521.4" font-family="Arial" font-size="14.00">user_id </text>
<text text-anchor="start" x="876.26" y="-521.4" font-family="Arial" font-size="14.00" fill="#666666">[int]</text>
<polygon fill="none" stroke="black" points="819.46,-478.4 819.46,-509.2 1102.09,-509.2 1102.09,-478.4 819.46,-478.4"/>
<text text-anchor="start" x="826.46" y="-490.6" font-family="Arial" font-size="14.00">name </text>
<text text-anchor="start" x="865.37" y="-490.6" font-family="Arial" font-size="14.00" fill="#666666">[text]</text>
<polygon fill="none" stroke="black" points="819.46,-447.6 819.46,-478.4 1102.09,-478.4 1102.09,-447.6 819.46,-447.6"/>
<text text-anchor="start" x="826.46" y="-459.8" font-family="Arial" font-size="14.00">description </text>
<text text-anchor="start" x="898.05" y="-459.8" font-family="Arial" font-size="14.00" fill="#666666">[text]</text>
<polygon fill="none" stroke="black" points="819.46,-416.8 819.46,-447.6 1102.09,-447.6 1102.09,-416.8 819.46,-416.8"/>
<text text-anchor="start" x="826.46" y="-429" font-family="Arial" font-size="14.00">created </text>
<text text-anchor="start" x="877.04" y="-429" font-family="Arial" font-size="14.00" fill="#666666">[date]</text>
<polygon fill="none" stroke="black" points="819.46,-386 819.46,-416.8 1102.09,-416.8 1102.09,-386 819.46,-386"/>
<text text-anchor="start" x="826.46" y="-398.2" font-family="Arial" font-size="14.00">updated </text>
<text text-anchor="start" x="880.95" y="-398.2" font-family="Arial" font-size="14.00" fill="#666666">[date]</text>
</g>
<!-- administrator.blogs&#45;&gt;users -->
<g id="edge7" class="edge">
<title>administrator.blogs:user_id&#45;&gt;users:id</title>
<path fill="none" stroke="black" d="M808.34,-524.03C739.05,-515.65 795.27,-416.55 761.77,-342.8 733.69,-280.98 749.75,-212.6 681.85,-212.6"/>
<polygon fill="black" stroke="black" points="808.14,-524.02 817.87,-529.07 813.46,-524.32 817.79,-524.56 817.79,-524.56 817.79,-524.56 813.46,-524.32 818.38,-520.09 808.14,-524.02"/>
</g>
<!-- name with spaces -->
<g id="node11" class="node">
<title>name with spaces</title>
<polygon fill="#efefef" stroke="none" points="1601.96,-1537.6 1601.96,-1573.2 1817.59,-1573.2 1817.59,-1537.6 1601.96,-1537.6"/>
<polygon fill="none" stroke="black" points="1601.96,-1537.6 1601.96,-1573.2 1817.59,-1573.2 1817.59,-1537.6 1601.96,-1537.6"/>
<text text-anchor="start" x="1608.96" y="-1551" font-family="Arial Bold" font-size="18.00">name with spaces</text>
<text text-anchor="start" x="1735.91" y="-1551" font-family="Arial" font-size="14.00">    </text>
<text text-anchor="start" x="1767.03" y="-1551" font-family="Arial" font-size="14.00" fill="#666666">[VIEW]</text>
<polygon fill="none" stroke="black" points="1601.96,-1506.8 1601.96,-1537.6 1817.59,-1537.6 1817.59,-1506.8 1601.96,-1506.8"/>
<text text-anchor="start" x="1608.96" y="-1519" font-family="Arial" font-size="14.00">title </text>
<text text-anchor="start" x="1634.63" y="-1519" font-family="Arial" font-size="14.00" fill="#666666">[varchar(255)]</text>
</g>
<!-- Sales.Product -->
<g id="node12" class="node">
<title>Sales.Product</title>
<polygon fill="#efefef" stroke="none" points="1933.95,-1194.8 1933.95,-1230.4 2175.59,-1230.4 2175.59,-1194.8 1933.95,-1194.8"/>
<polygon fill="none" stroke="black" points="1933.95,-1194.8 1933.95,-1230.4 2175.59,-1230.4 2175.59,-1194.8 1933.95,-1194.8"/>
<text text-anchor="start" x="1940.95" y="-1208.2" font-family="Arial Bold" font-size="18.00">Sales.Product</text>
<text text-anchor="start" x="2039.44" y="-1208.2" font-family="Arial" font-size="14.00">    </text>
<text text-anchor="start" x="2070.56" y="-1208.2" font-family="Arial" font-size="14.00" fill="#666666">[BASIC TABLE]</text>
<polygon fill="none" stroke="black" points="1933.95,-1164 1933.95,-1194.8 2175.59,-1194.8 2175.59,-1164 1933.95,-1164"/>
<text text-anchor="start" x="1940.95" y="-1176.2" font-family="Arial" font-size="14.00">ProductID </text>
<text text-anchor="start" x="2007.09" y="-1176.2" font-family="Arial" font-size="14.00" fill="#666666">[int]</text>
<polygon fill="none" stroke="black" points="1933.95,-1133.2 1933.95,-1164 2175.59,-1164 2175.59,-1133.2 1933.95,-1133.2"/>
<text text-anchor="start" x="1940.95" y="-1145.4" font-family="Arial" font-size="14.00">SalesPersonID </text>
<text text-anchor="start" x="2038.22" y="-1145.4" font-family="Arial" font-size="14.00" fill="#666666">[int]</text>
</g>
<!-- Rabbits.Running -->
<g id="node13" class="node">
<title>Rabbits.Running</title>
<polygon fill="#efefef" stroke="none" points="1922.44,-1568.4 1922.44,-1604 2187.1,-1604 2187.1,-1568.4 1922.44,-1568.4"/>
<polygon fill="none" stroke="black" points="1922.44,-1568.4 1922.44,-1604 2187.1,-1604 2187.1,-1568.4 1922.44,-1568.4"/>
<text text-anchor="start" x="1929.44" y="-1581.8" font-family="Arial Bold" font-size="18.00">Rabbits.Running</text>
<text text-anchor="start" x="2050.95" y="-1581.8" font-family="Arial" font-size="14.00">    </text>
<text text-anchor="start" x="2082.07" y="-1581.8" font-family="Arial" font-size="14.00" fill="#666666">[BASIC TABLE]</text>
<polygon fill="none" stroke="black" points="1922.44,-1537.6 1922.44,-1568.4 2187.1,-1568.4 2187.1,-1537.6 1922.44,-1537.6"/>
<text text-anchor="start" x="1929.44" y="-1549.8" font-family="Arial" font-size="14.00">LocationID </text>
<text text-anchor="start" x="2000.26" y="-1549.8" font-family="Arial" font-size="14.00" fill="#666666">[int]</text>
<polygon fill="none" stroke="black" points="1922.44,-1506.8 1922.44,-1537.6 2187.1,-1537.6 2187.1,-1506.8 1922.44,-1506.8"/>
<text text-anchor="start" x="1929.44" y="-1519" font-family="Arial" font-size="14.00">ProductID </text>
<text text-anchor="start" x="1995.58" y="-1519" font-family="Arial" font-size="14.00" fill="#666666">[int]</text>
<polygon fill="none" stroke="black" points="1922.44,-1476 1922.44,-1506.8 2187.1,-1506.8 2187.1,-1476 1922.44,-1476"/>
<text text-anchor="start" x="1929.44" y="-1488.2" font-family="Arial" font-size="14.00">EmployeeID </text>
<text text-anchor="start" x="2009.59" y="-1488.2" font-family="Arial" font-size="14.00" fill="#666666">[int]</text>
</g>
<!-- Rabbits.Running&#45;&gt;Sales.Product -->
<g id="edge8" class="edge">
<title>Rabbits.Running:ProductID&#45;&gt;Sales.Product:SalesPersonID</title>
<path fill="none" stroke="black" d="M2198.36,-1520.59C2275.12,-1495.78 2277.42,-1192.18 2218.79,-1133.2 2167.4,-1081.5 2054.77,-1059.3 2054.77,-1132.2"/>
<polygon fill="black" stroke="black" points="2198.31,-1520.6 2187.74,-1517.7 2193.04,-1521.42 2188.76,-1522.1 2188.76,-1522.1 2188.76,-1522.1 2193.04,-1521.42 2189.13,-1526.59 2198.31,-1520.6"/>
</g>
</g>
</svg>
