<?xml version="1.0" encoding="UTF-8" standalone="no"?>
<!DOCTYPE svg PUBLIC "-//W3C//DTD SVG 1.1//EN"
 "http://www.w3.org/Graphics/SVG/1.1/DTD/svg11.dtd">
<!-- Generated by graphviz version 12.1.2 (20240928.0832)
 -->
<!-- Title: testdb Pages: 1 -->
<svg width="2284pt" height="1717pt"
 viewBox="0.00 0.00 2284.06 1716.80" xmlns="http://www.w3.org/2000/svg" xmlns:xlink="http://www.w3.org/1999/xlink">
<g id="graph0" class="graph" transform="scale(1 1) rotate(0) translate(4 1712.8)">
<title>testdb</title>
<polygon fill="white" stroke="none" points="-4,4 -4,-1712.8 2280.06,-1712.8 2280.06,4 -4,4"/>
<!-- users -->
<g id="node1" class="node">
<title>users</title>
<polygon fill="#efefef" stroke="none" points="497.41,-228 497.41,-263.6 684.14,-263.6 684.14,-228 497.41,-228"/>
<polygon fill="none" stroke="black" points="497.41,-228 497.41,-263.6 684.14,-263.6 684.14,-228 497.41,-228"/>
<text text-anchor="start" x="507.7" y="-241.4" font-family="Arial Bold" font-size="18.00">users</text>
<text text-anchor="start" x="544.69" y="-241.4" font-family="Arial" font-size="14.00">    </text>
<text text-anchor="start" x="575.81" y="-241.4" font-family="Arial" font-size="14.00" fill="#666666">[BASIC TABLE]</text>
<polygon fill="none" stroke="black" points="497.41,-197.2 497.41,-228 684.14,-228 684.14,-197.2 497.41,-197.2"/>
<text text-anchor="start" x="504.41" y="-209.4" font-family="Arial" font-size="14.00">id    </text>
<text text-anchor="start" x="546.42" y="-209.4" font-family="Arial" font-size="14.00" fill="#666666">[int]</text>
<polygon fill="none" stroke="black" points="497.41,-166.4 497.41,-197.2 684.14,-197.2 684.14,-166.4 497.41,-166.4"/>
<text text-anchor="start" x="504.41" y="-178.6" font-family="Arial" font-size="14.00">username    </text>
<text text-anchor="start" x="597.78" y="-178.6" font-family="Arial" font-size="14.00" fill="#666666">[varchar(50)]</text>
<polygon fill="none" stroke="black" points="497.41,-135.6 497.41,-166.4 684.14,-166.4 684.14,-135.6 497.41,-135.6"/>
<text text-anchor="start" x="504.41" y="-147.8" font-family="Arial" font-size="14.00">password    </text>
<text text-anchor="start" x="595.44" y="-147.8" font-family="Arial" font-size="14.00" fill="#666666">[varchar(50)]</text>
<polygon fill="none" stroke="black" points="497.41,-104.8 497.41,-135.6 684.14,-135.6 684.14,-104.8 497.41,-104.8"/>
<text text-anchor="start" x="504.41" y="-117" font-family="Arial" font-size="14.00">email    </text>
<text text-anchor="start" x="568.98" y="-117" font-family="Arial" font-size="14.00" fill="#666666">[varchar(355)]</text>
<polygon fill="none" stroke="black" points="497.41,-74 497.41,-104.8 684.14,-104.8 684.14,-74 497.41,-74"/>
<text text-anchor="start" x="504.41" y="-86.2" font-family="Arial" font-size="14.00">created    </text>
<text text-anchor="start" x="582.22" y="-86.2" font-family="Arial" font-size="14.00" fill="#666666">[date]</text>
<polygon fill="none" stroke="black" points="497.41,-43.2 497.41,-74 684.14,-74 684.14,-43.2 497.41,-43.2"/>
<text text-anchor="start" x="504.41" y="-55.4" font-family="Arial" font-size="14.00">updated    </text>
<text text-anchor="start" x="586.13" y="-55.4" font-family="Arial" font-size="14.00" fill="#666666">[date]</text>
</g>
<!-- user_options -->
<g id="node2" class="node">
<title>user_options</title>
<polygon fill="#efefef" stroke="none" points="43.2,-540 43.2,-575.6 278.35,-575.6 278.35,-540 43.2,-540"/>
<polygon fill="none" stroke="black" points="43.2,-540 43.2,-575.6 278.35,-575.6 278.35,-540 43.2,-540"/>
<text text-anchor="start" x="50.2" y="-553.4" font-family="Arial Bold" font-size="18.00">user_options</text>
<text text-anchor="start" x="142.2" y="-553.4" font-family="Arial" font-size="14.00">    </text>
<text text-anchor="start" x="173.31" y="-553.4" font-family="Arial" font-size="14.00" fill="#666666">[BASIC TABLE]</text>
<polygon fill="none" stroke="black" points="43.2,-509.2 43.2,-540 278.35,-540 278.35,-509.2 43.2,-509.2"/>
<text text-anchor="start" x="50.2" y="-521.4" font-family="Arial" font-size="14.00">user_id    </text>
<text text-anchor="start" x="127.23" y="-521.4" font-family="Arial" font-size="14.00" fill="#666666">[int]</text>
<polygon fill="none" stroke="black" points="43.2,-478.4 43.2,-509.2 278.35,-509.2 278.35,-478.4 43.2,-478.4"/>
<text text-anchor="start" x="50.2" y="-490.6" font-family="Arial" font-size="14.00">show_email    </text>
<text text-anchor="start" x="155.24" y="-490.6" font-family="Arial" font-size="14.00" fill="#666666">[bit]</text>
<polygon fill="none" stroke="black" points="43.2,-447.6 43.2,-478.4 278.35,-478.4 278.35,-447.6 43.2,-447.6"/>
<text text-anchor="start" x="50.2" y="-459.8" font-family="Arial" font-size="14.00">created    </text>
<text text-anchor="start" x="128.01" y="-459.8" font-family="Arial" font-size="14.00" fill="#666666">[date]</text>
<polygon fill="none" stroke="black" points="43.2,-416.8 43.2,-447.6 278.35,-447.6 278.35,-416.8 43.2,-416.8"/>
<text text-anchor="start" x="50.2" y="-429" font-family="Arial" font-size="14.00">updated    </text>
<text text-anchor="start" x="131.92" y="-429" font-family="Arial" font-size="14.00" fill="#666666">[date]</text>
</g>
<!-- user_options&#45;&gt;users -->
<g id="edge1" class="edge">
<title>user_options:user_id&#45;&gt;users:id</title>
<path fill="none" stroke="black" d="M289.39,-523.99C357.68,-515.07 290.37,-409.84 335.77,-342.8 387.31,-266.71 404.51,-212.6 496.41,-212.6"/>
<polygon fill="black" stroke="black" points="289.66,-523.98 279.41,-520.09 284.34,-524.3 280.01,-524.56 280.01,-524.56 280.01,-524.56 284.34,-524.3 279.95,-529.07 289.66,-523.98"/>
</g>
<!-- posts -->
<g id="node3" class="node">
<title>posts</title>
<polygon fill="#efefef" stroke="none" points="420.69,-570.8 420.69,-606.4 600.85,-606.4 600.85,-570.8 420.69,-570.8"/>
<polygon fill="none" stroke="black" points="420.69,-570.8 420.69,-606.4 600.85,-606.4 600.85,-570.8 420.69,-570.8"/>
<text text-anchor="start" x="427.69" y="-584.2" font-family="Arial Bold" font-size="18.00">posts</text>
<text text-anchor="start" x="464.7" y="-584.2" font-family="Arial" font-size="14.00">    </text>
<text text-anchor="start" x="495.82" y="-584.2" font-family="Arial" font-size="14.00" fill="#666666">[BASIC TABLE]</text>
<polygon fill="none" stroke="black" points="420.69,-540 420.69,-570.8 600.85,-570.8 600.85,-540 420.69,-540"/>
<text text-anchor="start" x="427.69" y="-552.2" font-family="Arial" font-size="14.00">id    </text>
<text text-anchor="start" x="469.71" y="-552.2" font-family="Arial" font-size="14.00" fill="#666666">[int]</text>
<polygon fill="none" stroke="black" points="420.69,-509.2 420.69,-540 600.85,-540 600.85,-509.2 420.69,-509.2"/>
<text text-anchor="start" x="427.69" y="-521.4" font-family="Arial" font-size="14.00">user_id    </text>
<text text-anchor="start" x="504.73" y="-521.4" font-family="Arial" font-size="14.00" fill="#666666">[int]</text>
<polygon fill="none" stroke="black" points="420.69,-478.4 420.69,-509.2 600.85,-509.2 600.85,-478.4 420.69,-478.4"/>
<text text-anchor="start" x="427.69" y="-490.6" font-family="Arial" font-size="14.00">title    </text>
<text text-anchor="start" x="480.6" y="-490.6" font-family="Arial" font-size="14.00" fill="#666666">[varchar(255)]</text>
<polygon fill="none" stroke="black" points="420.69,-447.6 420.69,-478.4 600.85,-478.4 600.85,-447.6 420.69,-447.6"/>
<text text-anchor="start" x="427.69" y="-459.8" font-family="Arial" font-size="14.00">body    </text>
<text text-anchor="start" x="489.17" y="-459.8" font-family="Arial" font-size="14.00" fill="#666666">[text]</text>
<polygon fill="none" stroke="black" points="420.69,-416.8 420.69,-447.6 600.85,-447.6 600.85,-416.8 420.69,-416.8"/>
<text text-anchor="start" x="427.69" y="-429" font-family="Arial" font-size="14.00">created    </text>
<text text-anchor="start" x="505.51" y="-429" font-family="Arial" font-size="14.00" fill="#666666">[date]</text>
<polygon fill="none" stroke="black" points="420.69,-386 420.69,-416.8 600.85,-416.8 600.85,-386 420.69,-386"/>
<text text-anchor="start" x="427.69" y="-398.2" font-family="Arial" font-size="14.00">updated    </text>
<text text-anchor="start" x="509.42" y="-398.2" font-family="Arial" font-size="14.00" fill="#666666">[date]</text>
</g>
<!-- posts&#45;&gt;users -->
<g id="edge2" class="edge">
<title>posts:user_id&#45;&gt;users:id</title>
<path fill="none" stroke="black" d="M612.05,-523.91C679.5,-514.27 645.74,-405.58 600.85,-342.8 572.54,-303.2 525.82,-346.33 497.41,-306.8 472.97,-272.8 454.54,-212.6 496.41,-212.6"/>
<polygon fill="black" stroke="black" points="612.17,-523.9 601.89,-520.09 606.84,-524.26 602.52,-524.55 602.52,-524.55 602.52,-524.55 606.84,-524.26 602.49,-529.07 612.17,-523.9"/>
</g>
<!-- comments -->
<g id="node4" class="node">
<title>comments</title>
<polygon fill="#efefef" stroke="none" points="459.2,-913.6 459.2,-949.2 676.34,-949.2 676.34,-913.6 459.2,-913.6"/>
<polygon fill="none" stroke="black" points="459.2,-913.6 459.2,-949.2 676.34,-949.2 676.34,-913.6 459.2,-913.6"/>
<text text-anchor="start" x="466.2" y="-927" font-family="Arial Bold" font-size="18.00">comments</text>
<text text-anchor="start" x="540.19" y="-927" font-family="Arial" font-size="14.00">    </text>
<text text-anchor="start" x="571.31" y="-927" font-family="Arial" font-size="14.00" fill="#666666">[BASIC TABLE]</text>
<polygon fill="none" stroke="black" points="459.2,-882.8 459.2,-913.6 676.34,-913.6 676.34,-882.8 459.2,-882.8"/>
<text text-anchor="start" x="466.2" y="-895" font-family="Arial" font-size="14.00">id    </text>
<text text-anchor="start" x="508.22" y="-895" font-family="Arial" font-size="14.00" fill="#666666">[int]</text>
<polygon fill="none" stroke="black" points="459.2,-852 459.2,-882.8 676.34,-882.8 676.34,-852 459.2,-852"/>
<text text-anchor="start" x="466.2" y="-864.2" font-family="Arial" font-size="14.00">post_id    </text>
<text text-anchor="start" x="542.47" y="-864.2" font-family="Arial" font-size="14.00" fill="#666666">[int]</text>
<polygon fill="none" stroke="black" points="459.2,-821.2 459.2,-852 676.34,-852 676.34,-821.2 459.2,-821.2"/>
<text text-anchor="start" x="466.2" y="-833.4" font-family="Arial" font-size="14.00">user_id    </text>
<text text-anchor="start" x="543.24" y="-833.4" font-family="Arial" font-size="14.00" fill="#666666">[int]</text>
<polygon fill="none" stroke="black" points="459.2,-790.4 459.2,-821.2 676.34,-821.2 676.34,-790.4 459.2,-790.4"/>
<text text-anchor="start" x="466.2" y="-802.6" font-family="Arial" font-size="14.00">comment    </text>
<text text-anchor="start" x="554.89" y="-802.6" font-family="Arial" font-size="14.00" fill="#666666">[text]</text>
<polygon fill="none" stroke="black" points="459.2,-759.6 459.2,-790.4 676.34,-790.4 676.34,-759.6 459.2,-759.6"/>
<text text-anchor="start" x="466.2" y="-771.8" font-family="Arial" font-size="14.00">created    </text>
<text text-anchor="start" x="544.02" y="-771.8" font-family="Arial" font-size="14.00" fill="#666666">[date]</text>
<polygon fill="none" stroke="black" points="459.2,-728.8 459.2,-759.6 676.34,-759.6 676.34,-728.8 459.2,-728.8"/>
<text text-anchor="start" x="466.2" y="-741" font-family="Arial" font-size="14.00">updated    </text>
<text text-anchor="start" x="547.93" y="-741" font-family="Arial" font-size="14.00" fill="#666666">[date]</text>
</g>
<!-- comments&#45;&gt;users -->
<g id="edge4" class="edge">
<title>comments:user_id&#45;&gt;users:id</title>
<path fill="none" stroke="black" d="M686.69,-832.62C747.24,-779.47 751.23,-212.6 685.14,-212.6"/>
<polygon fill="black" stroke="black" points="686.85,-832.55 675.88,-832.33 681.94,-834.64 677.96,-836.34 677.96,-836.34 677.96,-836.34 681.94,-834.64 679.42,-840.61 686.85,-832.55"/>
</g>
<!-- comments&#45;&gt;posts -->
<g id="edge3" class="edge">
<title>comments:post_id&#45;&gt;posts:id</title>
<path fill="none" stroke="black" d="M447.99,-866.7C380.32,-856.89 411.66,-746.39 459.2,-685.6 499.22,-634.43 560.71,-700.66 600.85,-649.6 626.73,-616.69 643.72,-555.4 601.85,-555.4"/>
<polygon fill="black" stroke="black" points="447.89,-866.69 457.56,-871.87 453.22,-867.06 457.54,-867.35 457.54,-867.35 457.54,-867.35 453.22,-867.06 458.18,-862.89 447.89,-866.69"/>
</g>
<!-- comment_stars -->
<g id="node5" class="node">
<title>comment_stars</title>
<polygon fill="#efefef" stroke="none" points="496.71,-1256.4 496.71,-1292 748.84,-1292 748.84,-1256.4 496.71,-1256.4"/>
<polygon fill="none" stroke="black" points="496.71,-1256.4 496.71,-1292 748.84,-1292 748.84,-1256.4 496.71,-1256.4"/>
<text text-anchor="start" x="503.71" y="-1269.8" font-family="Arial Bold" font-size="18.00">comment_stars</text>
<text text-anchor="start" x="612.69" y="-1269.8" font-family="Arial" font-size="14.00">    </text>
<text text-anchor="start" x="643.8" y="-1269.8" font-family="Arial" font-size="14.00" fill="#666666">[BASIC TABLE]</text>
<polygon fill="none" stroke="black" points="496.71,-1225.6 496.71,-1256.4 748.84,-1256.4 748.84,-1225.6 496.71,-1225.6"/>
<text text-anchor="start" x="503.71" y="-1237.8" font-family="Arial" font-size="14.00">id    </text>
<text text-anchor="start" x="545.72" y="-1237.8" font-family="Arial" font-size="14.00" fill="#666666">[int]</text>
<polygon fill="none" stroke="black" points="496.71,-1194.8 496.71,-1225.6 748.84,-1225.6 748.84,-1194.8 496.71,-1194.8"/>
<text text-anchor="start" x="503.71" y="-1207" font-family="Arial" font-size="14.00">user_id    </text>
<text text-anchor="start" x="580.74" y="-1207" font-family="Arial" font-size="14.00" fill="#666666">[int]</text>
<polygon fill="none" stroke="black" points="496.71,-1164 496.71,-1194.8 748.84,-1194.8 748.84,-1164 496.71,-1164"/>
<text text-anchor="start" x="503.71" y="-1176.2" font-family="Arial" font-size="14.00">comment_post_id    </text>
<text text-anchor="start" x="645.33" y="-1176.2" font-family="Arial" font-size="14.00" fill="#666666">[int]</text>
<polygon fill="none" stroke="black" points="496.71,-1133.2 496.71,-1164 748.84,-1164 748.84,-1133.2 496.71,-1133.2"/>
<text text-anchor="start" x="503.71" y="-1145.4" font-family="Arial" font-size="14.00">comment_user_id    </text>
<text text-anchor="start" x="646.1" y="-1145.4" font-family="Arial" font-size="14.00" fill="#666666">[int]</text>
<polygon fill="none" stroke="black" points="496.71,-1102.4 496.71,-1133.2 748.84,-1133.2 748.84,-1102.4 496.71,-1102.4"/>
<text text-anchor="start" x="503.71" y="-1114.6" font-family="Arial" font-size="14.00">created    </text>
<text text-anchor="start" x="581.52" y="-1114.6" font-family="Arial" font-size="14.00" fill="#666666">[date]</text>
<polygon fill="none" stroke="black" points="496.71,-1071.6 496.71,-1102.4 748.84,-1102.4 748.84,-1071.6 496.71,-1071.6"/>
<text text-anchor="start" x="503.71" y="-1083.8" font-family="Arial" font-size="14.00">updated    </text>
<text text-anchor="start" x="585.43" y="-1083.8" font-family="Arial" font-size="14.00" fill="#666666">[date]</text>
</g>
<!-- comment_stars&#45;&gt;users -->
<g id="edge5" class="edge">
<title>comment_stars:comment_user_id&#45;&gt;users:id</title>
<path fill="none" stroke="black" d="M760.03,-1147.53C795.59,-1138.76 749.59,-1077.85 748.84,-1028.4 747.46,-937.49 776.06,-212.6 685.14,-212.6"/>
<polygon fill="black" stroke="black" points="760.11,-1147.52 749.7,-1144.09 754.81,-1148.08 750.5,-1148.53 750.5,-1148.53 750.5,-1148.53 754.81,-1148.08 750.64,-1153.04 760.11,-1147.52"/>
</g>
<!-- comment_stars&#45;&gt;comments -->
<g id="edge6" class="edge">
<title>comment_stars:comment_post_id&#45;&gt;comments:post_id</title>
<path fill="none" stroke="black" d="M485.52,-1178.53C431.43,-1168.69 456.34,-1077.34 496.71,-1028.4 548.53,-965.59 624.48,-1055.17 676.34,-992.4 711.73,-949.57 732.9,-867.4 677.34,-867.4"/>
<polygon fill="black" stroke="black" points="485.41,-1178.52 495,-1183.86 490.73,-1178.98 495.04,-1179.34 495.04,-1179.34 495.04,-1179.34 490.73,-1178.98 495.76,-1174.89 485.41,-1178.52"/>
</g>
<!-- logs -->
<g id="node6" class="node">
<title>logs</title>
<polygon fill="#efefef" stroke="none" points="319.24,-1630 319.24,-1665.6 494.3,-1665.6 494.3,-1630 319.24,-1630"/>
<polygon fill="none" stroke="black" points="319.24,-1630 319.24,-1665.6 494.3,-1665.6 494.3,-1630 319.24,-1630"/>
<text text-anchor="start" x="327.19" y="-1643.4" font-family="Arial Bold" font-size="18.00">logs</text>
<text text-anchor="start" x="357.2" y="-1643.4" font-family="Arial" font-size="14.00">    </text>
<text text-anchor="start" x="388.32" y="-1643.4" font-family="Arial" font-size="14.00" fill="#666666">[BASIC TABLE]</text>
<polygon fill="none" stroke="black" points="319.24,-1599.2 319.24,-1630 494.3,-1630 494.3,-1599.2 319.24,-1599.2"/>
<text text-anchor="start" x="326.24" y="-1611.4" font-family="Arial" font-size="14.00">id    </text>
<text text-anchor="start" x="368.26" y="-1611.4" font-family="Arial" font-size="14.00" fill="#666666">[int]</text>
<polygon fill="none" stroke="black" points="319.24,-1568.4 319.24,-1599.2 494.3,-1599.2 494.3,-1568.4 319.24,-1568.4"/>
<text text-anchor="start" x="326.24" y="-1580.6" font-family="Arial" font-size="14.00">user_id    </text>
<text text-anchor="start" x="403.28" y="-1580.6" font-family="Arial" font-size="14.00" fill="#666666">[int]</text>
<polygon fill="none" stroke="black" points="319.24,-1537.6 319.24,-1568.4 494.3,-1568.4 494.3,-1537.6 319.24,-1537.6"/>
<text text-anchor="start" x="326.24" y="-1549.8" font-family="Arial" font-size="14.00">post_id    </text>
<text text-anchor="start" x="402.5" y="-1549.8" font-family="Arial" font-size="14.00" fill="#666666">[int]</text>
<polygon fill="none" stroke="black" points="319.24,-1506.8 319.24,-1537.6 494.3,-1537.6 494.3,-1506.8 319.24,-1506.8"/>
<text text-anchor="start" x="326.24" y="-1519" font-family="Arial" font-size="14.00">comment_id    </text>
<text text-anchor="start" x="433.61" y="-1519" font-family="Arial" font-size="14.00" fill="#666666">[int]</text>
<polygon fill="none" stroke="black" points="319.24,-1476 319.24,-1506.8 494.3,-1506.8 494.3,-1476 319.24,-1476"/>
<text text-anchor="start" x="326.24" y="-1488.2" font-family="Arial" font-size="14.00">comment_star_id    </text>
<text text-anchor="start" x="464.74" y="-1488.2" font-family="Arial" font-size="14.00" fill="#666666">[int]</text>
<polygon fill="none" stroke="black" points="319.24,-1445.2 319.24,-1476 494.3,-1476 494.3,-1445.2 319.24,-1445.2"/>
<text text-anchor="start" x="326.24" y="-1457.4" font-family="Arial" font-size="14.00">payload    </text>
<text text-anchor="start" x="406.4" y="-1457.4" font-family="Arial" font-size="14.00" fill="#666666">[text]</text>
<polygon fill="none" stroke="black" points="319.24,-1414.4 319.24,-1445.2 494.3,-1445.2 494.3,-1414.4 319.24,-1414.4"/>
<text text-anchor="start" x="326.24" y="-1426.6" font-family="Arial" font-size="14.00">created    </text>
<text text-anchor="start" x="404.06" y="-1426.6" font-family="Arial" font-size="14.00" fill="#666666">[date]</text>
</g>
<!-- logs&#45;&gt;users -->
<g id="edge9" class="edge">
<title>logs:user_id&#45;&gt;users:id</title>
<path fill="none" stroke="black" stroke-dasharray="5,2" d="M308.01,-1583.27C230.88,-1574.61 316.84,-1461.97 319.24,-1371.2 322.26,-1256.84 322.99,-447.64 368.77,-342.8 401.21,-268.54 415.37,-212.6 496.41,-212.6"/>
<polygon fill="black" stroke="black" points="307.92,-1583.26 317.67,-1588.28 313.25,-1583.54 317.57,-1583.77 317.57,-1583.77 317.57,-1583.77 313.25,-1583.54 318.14,-1579.29 307.92,-1583.26"/>
<text text-anchor="start" x="259.27" y="-1593.8" font-family="Arial" font-size="10.00">logs&#45;&gt;users</text>
</g>
<!-- logs&#45;&gt;posts -->
<g id="edge10" class="edge">
<title>logs:post_id&#45;&gt;posts:id</title>
<path fill="none" stroke="black" stroke-dasharray="5,2" d="M308.11,-1552.35C241.62,-1543.28 285.8,-1440.75 319.24,-1371.2 330.27,-1348.26 352.05,-1357.79 363.77,-1335.2 403.77,-1258.09 332.83,-555.4 419.69,-555.4"/>
<polygon fill="black" stroke="black" points="307.93,-1552.34 317.62,-1557.47 313.25,-1552.68 317.57,-1552.96 317.57,-1552.96 317.57,-1552.96 313.25,-1552.68 318.2,-1548.49 307.93,-1552.34"/>
<text text-anchor="start" x="227.85" y="-1563" font-family="Arial" font-size="10.00">Additional Relation</text>
</g>
<!-- logs&#45;&gt;comments -->
<g id="edge11" class="edge">
<title>logs:comment_id&#45;&gt;comments:id</title>
<path fill="none" stroke="black" stroke-dasharray="5,2" d="M505.39,-1521.4C558.34,-1512.31 523.29,-1427.63 494.3,-1371.2 481.87,-1346.99 457.13,-1359.45 444.77,-1335.2 382.88,-1213.7 437.77,-1164.58 444.77,-1028.4 447.76,-970.3 400.03,-898.2 458.2,-898.2"/>
<polygon fill="black" stroke="black" points="505.61,-1521.38 495.28,-1517.69 500.29,-1521.81 495.97,-1522.15 495.97,-1522.15 495.97,-1522.15 500.29,-1521.81 495.99,-1526.66 505.61,-1521.38"/>
<text text-anchor="start" x="502.3" y="-1532.2" font-family="Arial" font-size="10.00">Additional Relation</text>
</g>
<!-- logs&#45;&gt;comment_stars -->
<g id="edge12" class="edge">
<title>logs:comment_star_id&#45;&gt;comment_stars:id</title>
<path fill="none" stroke="black" stroke-dasharray="5,2" d="M505.57,-1490.54C591.8,-1474.58 388.22,-1241 495.71,-1241"/>
<polygon fill="black" stroke="black" points="505.6,-1490.54 495.26,-1486.89 500.29,-1490.98 495.97,-1491.34 495.97,-1491.34 495.97,-1491.34 500.29,-1490.98 496.01,-1495.86 505.6,-1490.54"/>
<text text-anchor="start" x="502.3" y="-1501.4" font-family="Arial" font-size="10.00">Additional Relation</text>
</g>
<!-- post_comments -->
<g id="node7" class="node">
<title>post_comments</title>
<polygon fill="#efefef" stroke="none" points="598.24,-1630 598.24,-1665.6 815.31,-1665.6 815.31,-1630 598.24,-1630"/>
<polygon fill="none" stroke="black" points="598.24,-1630 598.24,-1665.6 815.31,-1665.6 815.31,-1630 598.24,-1630"/>
<text text-anchor="start" x="612.94" y="-1643.4" font-family="Arial Bold" font-size="18.00">post_comments</text>
<text text-anchor="start" x="725.93" y="-1643.4" font-family="Arial" font-size="14.00">    </text>
<text text-anchor="start" x="757.05" y="-1643.4" font-family="Arial" font-size="14.00" fill="#666666">[VIEW]</text>
<polygon fill="none" stroke="black" points="598.24,-1599.2 598.24,-1630 815.31,-1630 815.31,-1599.2 598.24,-1599.2"/>
<text text-anchor="start" x="605.24" y="-1611.4" font-family="Arial" font-size="14.00">id    </text>
<text text-anchor="start" x="647.25" y="-1611.4" font-family="Arial" font-size="14.00" fill="#666666">[int]</text>
<polygon fill="none" stroke="black" points="598.24,-1568.4 598.24,-1599.2 815.31,-1599.2 815.31,-1568.4 598.24,-1568.4"/>
<text text-anchor="start" x="605.24" y="-1580.6" font-family="Arial" font-size="14.00">title    </text>
<text text-anchor="start" x="658.14" y="-1580.6" font-family="Arial" font-size="14.00" fill="#666666">[varchar(255)]</text>
<polygon fill="none" stroke="black" points="598.24,-1537.6 598.24,-1568.4 815.31,-1568.4 815.31,-1537.6 598.24,-1537.6"/>
<text text-anchor="start" x="605.24" y="-1549.8" font-family="Arial" font-size="14.00">post_user    </text>
<text text-anchor="start" x="697.84" y="-1549.8" font-family="Arial" font-size="14.00" fill="#666666">[varchar(50)]</text>
<polygon fill="none" stroke="black" points="598.24,-1506.8 598.24,-1537.6 815.31,-1537.6 815.31,-1506.8 598.24,-1506.8"/>
<text text-anchor="start" x="605.24" y="-1519" font-family="Arial" font-size="14.00">comment    </text>
<text text-anchor="start" x="693.93" y="-1519" font-family="Arial" font-size="14.00" fill="#666666">[text]</text>
<polygon fill="none" stroke="black" points="598.24,-1476 598.24,-1506.8 815.31,-1506.8 815.31,-1476 598.24,-1476"/>
<text text-anchor="start" x="605.24" y="-1488.2" font-family="Arial" font-size="14.00">comment_user    </text>
<text text-anchor="start" x="728.95" y="-1488.2" font-family="Arial" font-size="14.00" fill="#666666">[varchar(50)]</text>
<polygon fill="none" stroke="black" points="598.24,-1445.2 598.24,-1476 815.31,-1476 815.31,-1445.2 598.24,-1445.2"/>
<text text-anchor="start" x="605.24" y="-1457.4" font-family="Arial" font-size="14.00">created    </text>
<text text-anchor="start" x="683.05" y="-1457.4" font-family="Arial" font-size="14.00" fill="#666666">[date]</text>
<polygon fill="none" stroke="black" points="598.24,-1414.4 598.24,-1445.2 815.31,-1445.2 815.31,-1414.4 598.24,-1414.4"/>
<text text-anchor="start" x="605.24" y="-1426.6" font-family="Arial" font-size="14.00">updated    </text>
<text text-anchor="start" x="686.96" y="-1426.6" font-family="Arial" font-size="14.00" fill="#666666">[date]</text>
</g>
<!-- CamelizeTable -->
<g id="node8" class="node">
<title>CamelizeTable</title>
<polygon fill="#efefef" stroke="none" points="919.73,-1553 919.73,-1588.6 1171.82,-1588.6 1171.82,-1553 919.73,-1553"/>
<polygon fill="none" stroke="black" points="919.73,-1553 919.73,-1588.6 1171.82,-1588.6 1171.82,-1553 919.73,-1553"/>
<text text-anchor="start" x="926.73" y="-1566.4" font-family="Arial Bold" font-size="18.00">CamelizeTable</text>
<text text-anchor="start" x="1035.67" y="-1566.4" font-family="Arial" font-size="14.00">    </text>
<text text-anchor="start" x="1066.78" y="-1566.4" font-family="Arial" font-size="14.00" fill="#666666">[BASIC TABLE]</text>
<polygon fill="none" stroke="black" points="919.73,-1522.2 919.73,-1553 1171.82,-1553 1171.82,-1522.2 919.73,-1522.2"/>
<text text-anchor="start" x="926.73" y="-1534.4" font-family="Arial" font-size="14.00">id    </text>
<text text-anchor="start" x="968.74" y="-1534.4" font-family="Arial" font-size="14.00" fill="#666666">[int]</text>
<polygon fill="none" stroke="black" points="919.73,-1491.4 919.73,-1522.2 1171.82,-1522.2 1171.82,-1491.4 919.73,-1491.4"/>
<text text-anchor="start" x="926.73" y="-1503.6" font-family="Arial" font-size="14.00">created    </text>
<text text-anchor="start" x="1004.54" y="-1503.6" font-family="Arial" font-size="14.00" fill="#666666">[date]</text>
</g>
<!-- hyphen&#45;table -->
<g id="node9" class="node">
<title>hyphen&#45;table</title>
<polygon fill="#efefef" stroke="none" points="1276.22,-1568.4 1276.22,-1604 1513.33,-1604 1513.33,-1568.4 1276.22,-1568.4"/>
<polygon fill="none" stroke="black" points="1276.22,-1568.4 1276.22,-1604 1513.33,-1604 1513.33,-1568.4 1276.22,-1568.4"/>
<text text-anchor="start" x="1283.22" y="-1581.8" font-family="Arial Bold" font-size="18.00">hyphen&#45;table</text>
<text text-anchor="start" x="1377.18" y="-1581.8" font-family="Arial" font-size="14.00">    </text>
<text text-anchor="start" x="1408.3" y="-1581.8" font-family="Arial" font-size="14.00" fill="#666666">[BASIC TABLE]</text>
<polygon fill="none" stroke="black" points="1276.22,-1537.6 1276.22,-1568.4 1513.33,-1568.4 1513.33,-1537.6 1276.22,-1537.6"/>
<text text-anchor="start" x="1283.22" y="-1549.8" font-family="Arial" font-size="14.00">id    </text>
<text text-anchor="start" x="1325.23" y="-1549.8" font-family="Arial" font-size="14.00" fill="#666666">[int]</text>
<polygon fill="none" stroke="black" points="1276.22,-1506.8 1276.22,-1537.6 1513.33,-1537.6 1513.33,-1506.8 1276.22,-1506.8"/>
<text text-anchor="start" x="1283.22" y="-1519" font-family="Arial" font-size="14.00">hyphen&#45;column    </text>
<text text-anchor="start" x="1410.06" y="-1519" font-family="Arial" font-size="14.00" fill="#666666">[text]</text>
<polygon fill="none" stroke="black" points="1276.22,-1476 1276.22,-1506.8 1513.33,-1506.8 1513.33,-1476 1276.22,-1476"/>
<text text-anchor="start" x="1283.22" y="-1488.2" font-family="Arial" font-size="14.00">created    </text>
<text text-anchor="start" x="1361.03" y="-1488.2" font-family="Arial" font-size="14.00" fill="#666666">[date]</text>
</g>
<!-- administrator.blogs -->
<g id="node10" class="node">
<title>administrator.blogs</title>
<polygon fill="#efefef" stroke="none" points="819.46,-570.8 819.46,-606.4 1102.09,-606.4 1102.09,-570.8 819.46,-570.8"/>
<polygon fill="none" stroke="black" points="819.46,-570.8 819.46,-606.4 1102.09,-606.4 1102.09,-570.8 819.46,-570.8"/>
<text text-anchor="start" x="826.46" y="-584.2" font-family="Arial Bold" font-size="18.00">administrator.blogs</text>
<text text-anchor="start" x="965.94" y="-584.2" font-family="Arial" font-size="14.00">    </text>
<text text-anchor="start" x="997.06" y="-584.2" font-family="Arial" font-size="14.00" fill="#666666">[BASIC TABLE]</text>
<polygon fill="none" stroke="black" points="819.46,-540 819.46,-570.8 1102.09,-570.8 1102.09,-540 819.46,-540"/>
<text text-anchor="start" x="826.46" y="-552.2" font-family="Arial" font-size="14.00">id    </text>
<text text-anchor="start" x="868.47" y="-552.2" font-family="Arial" font-size="14.00" fill="#666666">[int]</text>
<polygon fill="none" stroke="black" points="819.46,-509.2 819.46,-540 1102.09,-540 1102.09,-509.2 819.46,-509.2"/>
<text text-anchor="start" x="826.46" y="-521.4" font-family="Arial" font-size="14.00">user_id    </text>
<text text-anchor="start" x="903.49" y="-521.4" font-family="Arial" font-size="14.00" fill="#666666">[int]</text>
<polygon fill="none" stroke="black" points="819.46,-478.4 819.46,-509.2 1102.09,-509.2 1102.09,-478.4 819.46,-478.4"/>
<text text-anchor="start" x="826.46" y="-490.6" font-family="Arial" font-size="14.00">name    </text>
<text text-anchor="start" x="892.59" y="-490.6" font-family="Arial" font-size="14.00" fill="#666666">[text]</text>
<polygon fill="none" stroke="black" points="819.46,-447.6 819.46,-478.4 1102.09,-478.4 1102.09,-447.6 819.46,-447.6"/>
<text text-anchor="start" x="826.46" y="-459.8" font-family="Arial" font-size="14.00">description    </text>
<text text-anchor="start" x="925.28" y="-459.8" font-family="Arial" font-size="14.00" fill="#666666">[text]</text>
<polygon fill="none" stroke="black" points="819.46,-416.8 819.46,-447.6 1102.09,-447.6 1102.09,-416.8 819.46,-416.8"/>
<text text-anchor="start" x="826.46" y="-429" font-family="Arial" font-size="14.00">created    </text>
<text text-anchor="start" x="904.27" y="-429" font-family="Arial" font-size="14.00" fill="#666666">[date]</text>
<polygon fill="none" stroke="black" points="819.46,-386 819.46,-416.8 1102.09,-416.8 1102.09,-386 819.46,-386"/>
<text text-anchor="start" x="826.46" y="-398.2" font-family="Arial" font-size="14.00">updated    </text>
<text text-anchor="start" x="908.18" y="-398.2" font-family="Arial" font-size="14.00" fill="#666666">[date]</text>
</g>
<!-- administrator.blogs&#45;&gt;users -->
<g id="edge7" class="edge">
<title>administrator.blogs:user_id&#45;&gt;users:id</title>
<path fill="none" stroke="black" d="M808.34,-524.03C738.99,-515.68 794.59,-416.85 761.77,-342.8 734.57,-281.41 752.28,-212.6 685.14,-212.6"/>
<polygon fill="black" stroke="black" points="808.14,-524.02 817.87,-529.07 813.46,-524.32 817.79,-524.56 817.79,-524.56 817.79,-524.56 813.46,-524.32 818.37,-520.09 808.14,-524.02"/>
</g>
<!-- name with spaces -->
<g id="node11" class="node">
<title>name with spaces</title>
<polygon fill="#efefef" stroke="none" points="1617.96,-1537.6 1617.96,-1573.2 1833.59,-1573.2 1833.59,-1537.6 1617.96,-1537.6"/>
<polygon fill="none" stroke="black" points="1617.96,-1537.6 1617.96,-1573.2 1833.59,-1573.2 1833.59,-1537.6 1617.96,-1537.6"/>
<text text-anchor="start" x="1624.96" y="-1551" font-family="Arial Bold" font-size="18.00">name with spaces</text>
<text text-anchor="start" x="1751.91" y="-1551" font-family="Arial" font-size="14.00">    </text>
<text text-anchor="start" x="1783.03" y="-1551" font-family="Arial" font-size="14.00" fill="#666666">[VIEW]</text>
<polygon fill="none" stroke="black" points="1617.96,-1506.8 1617.96,-1537.6 1833.59,-1537.6 1833.59,-1506.8 1617.96,-1506.8"/>
<text text-anchor="start" x="1624.96" y="-1519" font-family="Arial" font-size="14.00">title    </text>
<text text-anchor="start" x="1677.86" y="-1519" font-family="Arial" font-size="14.00" fill="#666666">[varchar(255)]</text>
</g>
<!-- Sales.Product -->
<g id="node12" class="node">
<title>Sales.Product</title>
<polygon fill="#efefef" stroke="none" points="1949.95,-1194.8 1949.95,-1230.4 2191.59,-1230.4 2191.59,-1194.8 1949.95,-1194.8"/>
<polygon fill="none" stroke="black" points="1949.95,-1194.8 1949.95,-1230.4 2191.59,-1230.4 2191.59,-1194.8 1949.95,-1194.8"/>
<text text-anchor="start" x="1956.95" y="-1208.2" font-family="Arial Bold" font-size="18.00">Sales.Product</text>
<text text-anchor="start" x="2055.44" y="-1208.2" font-family="Arial" font-size="14.00">    </text>
<text text-anchor="start" x="2086.56" y="-1208.2" font-family="Arial" font-size="14.00" fill="#666666">[BASIC TABLE]</text>
<polygon fill="none" stroke="black" points="1949.95,-1164 1949.95,-1194.8 2191.59,-1194.8 2191.59,-1164 1949.95,-1164"/>
<text text-anchor="start" x="1956.95" y="-1176.2" font-family="Arial" font-size="14.00">ProductID    </text>
<text text-anchor="start" x="2050.32" y="-1176.2" font-family="Arial" font-size="14.00" fill="#666666">[int]</text>
<polygon fill="none" stroke="black" points="1949.95,-1133.2 1949.95,-1164 2191.59,-1164 2191.59,-1133.2 1949.95,-1133.2"/>
<text text-anchor="start" x="1956.95" y="-1145.4" font-family="Arial" font-size="14.00">SalesPersonID    </text>
<text text-anchor="start" x="2081.45" y="-1145.4" font-family="Arial" font-size="14.00" fill="#666666">[int]</text>
</g>
<!-- Rabbits.Running -->
<g id="node13" class="node">
<title>Rabbits.Running</title>
<polygon fill="#efefef" stroke="none" points="1938.44,-1568.4 1938.44,-1604 2203.1,-1604 2203.1,-1568.4 1938.44,-1568.4"/>
<polygon fill="none" stroke="black" points="1938.44,-1568.4 1938.44,-1604 2203.1,-1604 2203.1,-1568.4 1938.44,-1568.4"/>
<text text-anchor="start" x="1945.44" y="-1581.8" font-family="Arial Bold" font-size="18.00">Rabbits.Running</text>
<text text-anchor="start" x="2066.95" y="-1581.8" font-family="Arial" font-size="14.00">    </text>
<text text-anchor="start" x="2098.07" y="-1581.8" font-family="Arial" font-size="14.00" fill="#666666">[BASIC TABLE]</text>
<polygon fill="none" stroke="black" points="1938.44,-1537.6 1938.44,-1568.4 2203.1,-1568.4 2203.1,-1537.6 1938.44,-1537.6"/>
<text text-anchor="start" x="1945.44" y="-1549.8" font-family="Arial" font-size="14.00">LocationID    </text>
<text text-anchor="start" x="2043.49" y="-1549.8" font-family="Arial" font-size="14.00" fill="#666666">[int]</text>
<polygon fill="none" stroke="black" points="1938.44,-1506.8 1938.44,-1537.6 2203.1,-1537.6 2203.1,-1506.8 1938.44,-1506.8"/>
<text text-anchor="start" x="1945.44" y="-1519" font-family="Arial" font-size="14.00">ProductID    </text>
<text text-anchor="start" x="2038.81" y="-1519" font-family="Arial" font-size="14.00" fill="#666666">[int]</text>
<polygon fill="none" stroke="black" points="1938.44,-1476 1938.44,-1506.8 2203.1,-1506.8 2203.1,-1476 1938.44,-1476"/>
<text text-anchor="start" x="1945.44" y="-1488.2" font-family="Arial" font-size="14.00">EmployeeID    </text>
<text text-anchor="start" x="2052.82" y="-1488.2" font-family="Arial" font-size="14.00" fill="#666666">[int]</text>
</g>
<!-- Rabbits.Running&#45;&gt;Sales.Product -->
<g id="edge8" class="edge">
<title>Rabbits.Running:ProductID&#45;&gt;Sales.Product:SalesPersonID</title>
<path fill="none" stroke="black" d="M2214.36,-1520.59C2291.12,-1495.78 2293.42,-1192.18 2234.79,-1133.2 2183.4,-1081.5 2070.77,-1059.3 2070.77,-1132.2"/>
<polygon fill="black" stroke="black" points="2214.31,-1520.6 2203.74,-1517.7 2209.04,-1521.42 2204.76,-1522.1 2204.76,-1522.1 2204.76,-1522.1 2209.04,-1521.42 2205.13,-1526.59 2214.31,-1520.6"/>
</g>
</g>
</svg>
