<?xml version="1.0" encoding="UTF-8" standalone="no"?>
<!DOCTYPE svg PUBLIC "-//W3C//DTD SVG 1.1//EN"
 "http://www.w3.org/Graphics/SVG/1.1/DTD/svg11.dtd">
<!-- Generated by graphviz version 2.40.1 (20161225.0304)
 -->
<!-- Title: users Pages: 1 -->
<svg width="1842pt" height="682pt"
 viewBox="0.00 0.00 1842.00 682.00" xmlns="http://www.w3.org/2000/svg" xmlns:xlink="http://www.w3.org/1999/xlink">
<g id="graph0" class="graph" transform="scale(1 1) rotate(0) translate(4 678)">
<title>users</title>
<polygon fill="#ffffff" stroke="transparent" points="-4,4 -4,-678 1838,-678 1838,4 -4,4"/>
<!-- users -->
<g id="node1" class="node">
<title>users</title>
<polygon fill="#efefef" stroke="transparent" points="825,-225.5 825,-260.5 984,-260.5 984,-225.5 825,-225.5"/>
<polygon fill="none" stroke="#000000" points="825,-225.5 825,-260.5 984,-260.5 984,-225.5 825,-225.5"/>
<text text-anchor="start" x="831.5405" y="-238.3" font-family="Arial Bold" font-size="18.00" fill="#000000">users</text>
<text text-anchor="start" x="875.5451" y="-238.3" font-family="Arial" font-size="14.00" fill="#000000"> </text>
<text text-anchor="start" x="879.4357" y="-238.3" font-family="Arial" font-size="14.00" fill="#666666">[BASIC TABLE]</text>
<polygon fill="none" stroke="#000000" points="825,-195.5 825,-225.5 984,-225.5 984,-195.5 825,-195.5"/>
<text text-anchor="start" x="832" y="-206.9" font-family="Arial" font-size="14.00" fill="#000000">id </text>
<text text-anchor="start" x="846.7798" y="-206.9" font-family="Arial" font-size="14.00" fill="#666666">[int]</text>
<polygon fill="none" stroke="#000000" points="825,-165.5 825,-195.5 984,-195.5 984,-165.5 825,-165.5"/>
<text text-anchor="start" x="831.7693" y="-176.9" font-family="Arial" font-size="14.00" fill="#000000">username </text>
<text text-anchor="start" x="897.8941" y="-176.9" font-family="Arial" font-size="14.00" fill="#666666">[varchar(50)]</text>
<polygon fill="none" stroke="#000000" points="825,-135.5 825,-165.5 984,-165.5 984,-135.5 825,-135.5"/>
<text text-anchor="start" x="832" y="-146.9" font-family="Arial" font-size="14.00" fill="#000000">password </text>
<text text-anchor="start" x="895.7882" y="-146.9" font-family="Arial" font-size="14.00" fill="#666666">[varchar(50)]</text>
<polygon fill="none" stroke="#000000" points="825,-105.5 825,-135.5 984,-135.5 984,-105.5 825,-105.5"/>
<text text-anchor="start" x="832" y="-116.9" font-family="Arial" font-size="14.00" fill="#000000">email </text>
<text text-anchor="start" x="869.3296" y="-116.9" font-family="Arial" font-size="14.00" fill="#666666">[varchar(355)]</text>
<polygon fill="none" stroke="#000000" points="825,-75.5 825,-105.5 984,-105.5 984,-75.5 825,-75.5"/>
<text text-anchor="start" x="832" y="-86.9" font-family="Arial" font-size="14.00" fill="#000000">created </text>
<text text-anchor="start" x="882.5722" y="-86.9" font-family="Arial" font-size="14.00" fill="#666666">[date]</text>
<polygon fill="none" stroke="#000000" points="825,-45.5 825,-75.5 984,-75.5 984,-45.5 825,-45.5"/>
<text text-anchor="start" x="832" y="-56.9" font-family="Arial" font-size="14.00" fill="#000000">updated </text>
<text text-anchor="start" x="886.4768" y="-56.9" font-family="Arial" font-size="14.00" fill="#666666">[date]</text>
<polygon fill="none" stroke="#000000" stroke-width="3" points="823,-44.5 823,-262.5 985,-262.5 985,-44.5 823,-44.5"/>
</g>
<!-- posts -->
<g id="node2" class="node">
<title>posts</title>
<polygon fill="#efefef" stroke="transparent" points="43,-580.5 43,-615.5 201,-615.5 201,-580.5 43,-580.5"/>
<polygon fill="none" stroke="#000000" points="43,-580.5 43,-615.5 201,-615.5 201,-580.5 43,-580.5"/>
<text text-anchor="start" x="49.5355" y="-593.3" font-family="Arial Bold" font-size="18.00" fill="#000000">posts</text>
<text text-anchor="start" x="92.5501" y="-593.3" font-family="Arial" font-size="14.00" fill="#000000"> </text>
<text text-anchor="start" x="96.4407" y="-593.3" font-family="Arial" font-size="14.00" fill="#666666">[BASIC TABLE]</text>
<polygon fill="none" stroke="#000000" points="43,-550.5 43,-580.5 201,-580.5 201,-550.5 43,-550.5"/>
<text text-anchor="start" x="50" y="-561.9" font-family="Arial" font-size="14.00" fill="#000000">id </text>
<text text-anchor="start" x="64.7798" y="-561.9" font-family="Arial" font-size="14.00" fill="#666666">[int]</text>
<polygon fill="none" stroke="#000000" points="43,-520.5 43,-550.5 201,-550.5 201,-520.5 43,-520.5"/>
<text text-anchor="start" x="50" y="-531.9" font-family="Arial" font-size="14.00" fill="#000000">user_id </text>
<text text-anchor="start" x="99.7882" y="-531.9" font-family="Arial" font-size="14.00" fill="#666666">[int]</text>
<polygon fill="none" stroke="#000000" points="43,-490.5 43,-520.5 201,-520.5 201,-490.5 43,-490.5"/>
<text text-anchor="start" x="50" y="-501.9" font-family="Arial" font-size="14.00" fill="#000000">title </text>
<text text-anchor="start" x="75.6676" y="-501.9" font-family="Arial" font-size="14.00" fill="#666666">[varchar(255)]</text>
<polygon fill="none" stroke="#000000" points="43,-460.5 43,-490.5 201,-490.5 201,-460.5 43,-460.5"/>
<text text-anchor="start" x="50" y="-471.9" font-family="Arial" font-size="14.00" fill="#000000">body </text>
<text text-anchor="start" x="84.2384" y="-471.9" font-family="Arial" font-size="14.00" fill="#666666">[text]</text>
<polygon fill="none" stroke="#000000" points="43,-430.5 43,-460.5 201,-460.5 201,-430.5 43,-430.5"/>
<text text-anchor="start" x="50" y="-441.9" font-family="Arial" font-size="14.00" fill="#000000">created </text>
<text text-anchor="start" x="100.5722" y="-441.9" font-family="Arial" font-size="14.00" fill="#666666">[date]</text>
<polygon fill="none" stroke="#000000" points="43,-400.5 43,-430.5 201,-430.5 201,-400.5 43,-400.5"/>
<text text-anchor="start" x="50" y="-411.9" font-family="Arial" font-size="14.00" fill="#000000">updated </text>
<text text-anchor="start" x="104.4768" y="-411.9" font-family="Arial" font-size="14.00" fill="#666666">[date]</text>
</g>
<!-- posts&#45;&gt;users -->
<g id="edge1" class="edge">
<title>posts:user_id&#45;&gt;users:id</title>
<path fill="none" stroke="#000000" d="M211.4049,-534.7904C281.2962,-524.3722 191.9516,-401.8772 253,-343 346.916,-252.4241 694.5231,-210.5 825,-210.5"/>
<polygon fill="#000000" stroke="#000000" points="210.9768,-534.8195 200.6938,-531.0104 205.9884,-535.1598 201,-535.5 201,-535.5 201,-535.5 205.9884,-535.1598 201.3062,-539.9896 210.9768,-534.8195 210.9768,-534.8195"/>
</g>
<!-- comments -->
<g id="node3" class="node">
<title>comments</title>
<polygon fill="#efefef" stroke="transparent" points="305,-580.5 305,-615.5 503,-615.5 503,-580.5 305,-580.5"/>
<polygon fill="none" stroke="#000000" points="305,-580.5 305,-615.5 503,-615.5 503,-580.5 305,-580.5"/>
<text text-anchor="start" x="311.5402" y="-593.3" font-family="Arial Bold" font-size="18.00" fill="#000000">comments</text>
<text text-anchor="start" x="394.5454" y="-593.3" font-family="Arial" font-size="14.00" fill="#000000"> </text>
<text text-anchor="start" x="398.436" y="-593.3" font-family="Arial" font-size="14.00" fill="#666666">[BASIC TABLE]</text>
<polygon fill="none" stroke="#000000" points="305,-550.5 305,-580.5 503,-580.5 503,-550.5 305,-550.5"/>
<text text-anchor="start" x="312" y="-561.9" font-family="Arial" font-size="14.00" fill="#000000">id </text>
<text text-anchor="start" x="326.7798" y="-561.9" font-family="Arial" font-size="14.00" fill="#666666">[int]</text>
<polygon fill="none" stroke="#000000" points="305,-520.5 305,-550.5 503,-550.5 503,-520.5 305,-520.5"/>
<text text-anchor="start" x="312" y="-531.9" font-family="Arial" font-size="14.00" fill="#000000">post_id </text>
<text text-anchor="start" x="361.0182" y="-531.9" font-family="Arial" font-size="14.00" fill="#666666">[int]</text>
<polygon fill="none" stroke="#000000" points="305,-490.5 305,-520.5 503,-520.5 503,-490.5 305,-490.5"/>
<text text-anchor="start" x="312" y="-501.9" font-family="Arial" font-size="14.00" fill="#000000">user_id </text>
<text text-anchor="start" x="361.7882" y="-501.9" font-family="Arial" font-size="14.00" fill="#666666">[int]</text>
<polygon fill="none" stroke="#000000" points="305,-460.5 305,-490.5 503,-490.5 503,-460.5 305,-460.5"/>
<text text-anchor="start" x="312" y="-471.9" font-family="Arial" font-size="14.00" fill="#000000">comment </text>
<text text-anchor="start" x="373.4502" y="-471.9" font-family="Arial" font-size="14.00" fill="#666666">[text]</text>
<polygon fill="none" stroke="#000000" points="305,-430.5 305,-460.5 503,-460.5 503,-430.5 305,-430.5"/>
<text text-anchor="start" x="312" y="-441.9" font-family="Arial" font-size="14.00" fill="#000000">created </text>
<text text-anchor="start" x="362.5722" y="-441.9" font-family="Arial" font-size="14.00" fill="#666666">[date]</text>
<polygon fill="none" stroke="#000000" points="305,-400.5 305,-430.5 503,-430.5 503,-400.5 305,-400.5"/>
<text text-anchor="start" x="312" y="-411.9" font-family="Arial" font-size="14.00" fill="#000000">updated </text>
<text text-anchor="start" x="366.4768" y="-411.9" font-family="Arial" font-size="14.00" fill="#666666">[date]</text>
</g>
<!-- comments&#45;&gt;users -->
<g id="edge2" class="edge">
<title>comments:user_id&#45;&gt;users:id</title>
<path fill="none" stroke="#000000" d="M513.0723,-504.7661C571.9568,-495.3501 507.8679,-397.5977 555,-343 642.3482,-241.8161 691.3291,-210.5 825,-210.5"/>
<polygon fill="#000000" stroke="#000000" points="512.9736,-504.7732 502.6729,-501.0119 507.9868,-505.1366 503,-505.5 503,-505.5 503,-505.5 507.9868,-505.1366 503.3271,-509.9881 512.9736,-504.7732 512.9736,-504.7732"/>
</g>
<!-- comment_stars -->
<g id="node4" class="node">
<title>comment_stars</title>
<polygon fill="#efefef" stroke="transparent" points="607,-580.5 607,-615.5 845,-615.5 845,-580.5 607,-580.5"/>
<polygon fill="none" stroke="#000000" points="607,-580.5 607,-615.5 845,-615.5 845,-580.5 607,-580.5"/>
<text text-anchor="start" x="613.5368" y="-593.3" font-family="Arial Bold" font-size="18.00" fill="#000000">comment_stars</text>
<text text-anchor="start" x="736.5488" y="-593.3" font-family="Arial" font-size="14.00" fill="#000000"> </text>
<text text-anchor="start" x="740.4394" y="-593.3" font-family="Arial" font-size="14.00" fill="#666666">[BASIC TABLE]</text>
<polygon fill="none" stroke="#000000" points="607,-550.5 607,-580.5 845,-580.5 845,-550.5 607,-550.5"/>
<text text-anchor="start" x="614" y="-561.9" font-family="Arial" font-size="14.00" fill="#000000">id </text>
<text text-anchor="start" x="628.7798" y="-561.9" font-family="Arial" font-size="14.00" fill="#666666">[int]</text>
<polygon fill="none" stroke="#000000" points="607,-520.5 607,-550.5 845,-550.5 845,-520.5 607,-520.5"/>
<text text-anchor="start" x="614" y="-531.9" font-family="Arial" font-size="14.00" fill="#000000">user_id </text>
<text text-anchor="start" x="663.7882" y="-531.9" font-family="Arial" font-size="14.00" fill="#666666">[int]</text>
<polygon fill="none" stroke="#000000" points="607,-490.5 607,-520.5 845,-520.5 845,-490.5 607,-490.5"/>
<text text-anchor="start" x="614" y="-501.9" font-family="Arial" font-size="14.00" fill="#000000">comment_post_id </text>
<text text-anchor="start" x="728.3604" y="-501.9" font-family="Arial" font-size="14.00" fill="#666666">[int]</text>
<polygon fill="none" stroke="#000000" points="607,-460.5 607,-490.5 845,-490.5 845,-460.5 607,-460.5"/>
<text text-anchor="start" x="614" y="-471.9" font-family="Arial" font-size="14.00" fill="#000000">comment_user_id </text>
<text text-anchor="start" x="729.1304" y="-471.9" font-family="Arial" font-size="14.00" fill="#666666">[int]</text>
<polygon fill="none" stroke="#000000" points="607,-430.5 607,-460.5 845,-460.5 845,-430.5 607,-430.5"/>
<text text-anchor="start" x="614" y="-441.9" font-family="Arial" font-size="14.00" fill="#000000">created </text>
<text text-anchor="start" x="664.5722" y="-441.9" font-family="Arial" font-size="14.00" fill="#666666">[date]</text>
<polygon fill="none" stroke="#000000" points="607,-400.5 607,-430.5 845,-430.5 845,-400.5 607,-400.5"/>
<text text-anchor="start" x="614" y="-411.9" font-family="Arial" font-size="14.00" fill="#000000">updated </text>
<text text-anchor="start" x="668.4768" y="-411.9" font-family="Arial" font-size="14.00" fill="#666666">[date]</text>
</g>
<!-- comment_stars&#45;&gt;users -->
<g id="edge3" class="edge">
<title>comment_stars:comment_user_id&#45;&gt;users:id</title>
<path fill="none" stroke="#000000" d="M855.1141,-474.4394C891.0914,-465.7573 853.9817,-405.5047 845,-358 840.4768,-334.0766 829.5232,-330.9234 825,-307 817.0322,-264.8577 782.1111,-210.5 825,-210.5"/>
<polygon fill="#000000" stroke="#000000" points="854.9455,-474.457 844.5306,-471.0245 849.9727,-474.9785 845,-475.5 845,-475.5 845,-475.5 849.9727,-474.9785 845.4694,-479.9755 854.9455,-474.457 854.9455,-474.457"/>
</g>
<!-- administrator.blogs -->
<g id="node5" class="node">
<title>administrator.blogs</title>
<polygon fill="#efefef" stroke="transparent" points="950,-580.5 950,-615.5 1217,-615.5 1217,-580.5 950,-580.5"/>
<polygon fill="none" stroke="#000000" points="950,-580.5 950,-615.5 1217,-615.5 1217,-580.5 950,-580.5"/>
<text text-anchor="start" x="956.5351" y="-593.3" font-family="Arial Bold" font-size="18.00" fill="#000000">administrator.blogs</text>
<text text-anchor="start" x="1108.5505" y="-593.3" font-family="Arial" font-size="14.00" fill="#000000"> </text>
<text text-anchor="start" x="1112.4411" y="-593.3" font-family="Arial" font-size="14.00" fill="#666666">[BASIC TABLE]</text>
<polygon fill="none" stroke="#000000" points="950,-550.5 950,-580.5 1217,-580.5 1217,-550.5 950,-550.5"/>
<text text-anchor="start" x="957" y="-561.9" font-family="Arial" font-size="14.00" fill="#000000">id </text>
<text text-anchor="start" x="971.7798" y="-561.9" font-family="Arial" font-size="14.00" fill="#666666">[int]</text>
<polygon fill="none" stroke="#000000" points="950,-520.5 950,-550.5 1217,-550.5 1217,-520.5 950,-520.5"/>
<text text-anchor="start" x="957" y="-531.9" font-family="Arial" font-size="14.00" fill="#000000">user_id </text>
<text text-anchor="start" x="1006.7882" y="-531.9" font-family="Arial" font-size="14.00" fill="#666666">[int]</text>
<polygon fill="none" stroke="#000000" points="950,-490.5 950,-520.5 1217,-520.5 1217,-490.5 950,-490.5"/>
<text text-anchor="start" x="957" y="-501.9" font-family="Arial" font-size="14.00" fill="#000000">name </text>
<text text-anchor="start" x="995.899" y="-501.9" font-family="Arial" font-size="14.00" fill="#666666">[text]</text>
<polygon fill="none" stroke="#000000" points="950,-460.5 950,-490.5 1217,-490.5 1217,-460.5 950,-460.5"/>
<text text-anchor="start" x="957" y="-471.9" font-family="Arial" font-size="14.00" fill="#000000">description </text>
<text text-anchor="start" x="1028.568" y="-471.9" font-family="Arial" font-size="14.00" fill="#666666">[text]</text>
<polygon fill="none" stroke="#000000" points="950,-430.5 950,-460.5 1217,-460.5 1217,-430.5 950,-430.5"/>
<text text-anchor="start" x="957" y="-441.9" font-family="Arial" font-size="14.00" fill="#000000">created </text>
<text text-anchor="start" x="1007.5722" y="-441.9" font-family="Arial" font-size="14.00" fill="#666666">[date]</text>
<polygon fill="none" stroke="#000000" points="950,-400.5 950,-430.5 1217,-430.5 1217,-400.5 950,-400.5"/>
<text text-anchor="start" x="957" y="-411.9" font-family="Arial" font-size="14.00" fill="#000000">updated </text>
<text text-anchor="start" x="1011.4768" y="-411.9" font-family="Arial" font-size="14.00" fill="#666666">[date]</text>
</g>
<!-- administrator.blogs&#45;&gt;users -->
<g id="edge4" class="edge">
<title>administrator.blogs:user_id&#45;&gt;users:id</title>
<path fill="none" stroke="#000000" d="M939.7783,-534.8409C876.2909,-525.9961 928.2108,-429.9647 950,-358 957.8943,-331.927 976.1057,-333.073 984,-307 996.4285,-265.9514 1026.8889,-210.5 984,-210.5"/>
<polygon fill="#000000" stroke="#000000" points="940.0207,-534.8564 949.7104,-539.9907 945.0104,-535.1782 950,-535.5 950,-535.5 950,-535.5 945.0104,-535.1782 950.2896,-531.0093 940.0207,-534.8564 940.0207,-534.8564"/>
</g>
<!-- user_options -->
<g id="node6" class="node">
<title>user_options</title>
<polygon fill="#efefef" stroke="transparent" points="1321,-550.5 1321,-585.5 1539,-585.5 1539,-550.5 1321,-550.5"/>
<polygon fill="none" stroke="#000000" points="1321,-550.5 1321,-585.5 1539,-585.5 1539,-550.5 1321,-550.5"/>
<text text-anchor="start" x="1327.5268" y="-563.3" font-family="Arial Bold" font-size="18.00" fill="#000000">user_options</text>
<text text-anchor="start" x="1430.5588" y="-563.3" font-family="Arial" font-size="14.00" fill="#000000"> </text>
<text text-anchor="start" x="1434.4494" y="-563.3" font-family="Arial" font-size="14.00" fill="#666666">[BASIC TABLE]</text>
<polygon fill="none" stroke="#000000" points="1321,-520.5 1321,-550.5 1539,-550.5 1539,-520.5 1321,-520.5"/>
<text text-anchor="start" x="1328" y="-531.9" font-family="Arial" font-size="14.00" fill="#000000">user_id </text>
<text text-anchor="start" x="1377.7882" y="-531.9" font-family="Arial" font-size="14.00" fill="#666666">[int]</text>
<polygon fill="none" stroke="#000000" points="1321,-490.5 1321,-520.5 1539,-520.5 1539,-490.5 1321,-490.5"/>
<text text-anchor="start" x="1328" y="-501.9" font-family="Arial" font-size="14.00" fill="#000000">show_email </text>
<text text-anchor="start" x="1405.784" y="-501.9" font-family="Arial" font-size="14.00" fill="#666666">[bit]</text>
<polygon fill="none" stroke="#000000" points="1321,-460.5 1321,-490.5 1539,-490.5 1539,-460.5 1321,-460.5"/>
<text text-anchor="start" x="1328" y="-471.9" font-family="Arial" font-size="14.00" fill="#000000">created </text>
<text text-anchor="start" x="1378.5722" y="-471.9" font-family="Arial" font-size="14.00" fill="#666666">[date]</text>
<polygon fill="none" stroke="#000000" points="1321,-430.5 1321,-460.5 1539,-460.5 1539,-430.5 1321,-430.5"/>
<text text-anchor="start" x="1328" y="-441.9" font-family="Arial" font-size="14.00" fill="#000000">updated </text>
<text text-anchor="start" x="1382.4768" y="-441.9" font-family="Arial" font-size="14.00" fill="#666666">[date]</text>
</g>
<!-- user_options&#45;&gt;users -->
<g id="edge5" class="edge">
<title>user_options:user_id&#45;&gt;users:id</title>
<path fill="none" stroke="#000000" d="M1310.9925,-534.8832C1239.8102,-525.3663 1323.7322,-408.017 1269,-343 1179.0411,-236.1368 1123.6866,-210.5 984,-210.5"/>
<polygon fill="#000000" stroke="#000000" points="1311.0189,-534.8847 1320.7231,-539.9915 1316.0095,-535.1924 1321,-535.5 1321,-535.5 1321,-535.5 1316.0095,-535.1924 1321.2769,-531.0085 1311.0189,-534.8847 1311.0189,-534.8847"/>
</g>
<!-- logs -->
<g id="node7" class="node">
<title>logs</title>
<polygon fill="#efefef" stroke="transparent" points="1643,-595.5 1643,-630.5 1791,-630.5 1791,-595.5 1643,-595.5"/>
<polygon fill="none" stroke="#000000" points="1643,-595.5 1643,-630.5 1791,-630.5 1791,-595.5 1643,-595.5"/>
<text text-anchor="start" x="1649.5395" y="-608.3" font-family="Arial Bold" font-size="18.00" fill="#000000">logs</text>
<text text-anchor="start" x="1682.5461" y="-608.3" font-family="Arial" font-size="14.00" fill="#000000"> </text>
<text text-anchor="start" x="1686.4367" y="-608.3" font-family="Arial" font-size="14.00" fill="#666666">[BASIC TABLE]</text>
<polygon fill="none" stroke="#000000" points="1643,-565.5 1643,-595.5 1791,-595.5 1791,-565.5 1643,-565.5"/>
<text text-anchor="start" x="1650" y="-576.9" font-family="Arial" font-size="14.00" fill="#000000">id </text>
<text text-anchor="start" x="1664.7798" y="-576.9" font-family="Arial" font-size="14.00" fill="#666666">[int]</text>
<polygon fill="none" stroke="#000000" points="1643,-535.5 1643,-565.5 1791,-565.5 1791,-535.5 1643,-535.5"/>
<text text-anchor="start" x="1650" y="-546.9" font-family="Arial" font-size="14.00" fill="#000000">user_id </text>
<text text-anchor="start" x="1699.7882" y="-546.9" font-family="Arial" font-size="14.00" fill="#666666">[int]</text>
<polygon fill="none" stroke="#000000" points="1643,-505.5 1643,-535.5 1791,-535.5 1791,-505.5 1643,-505.5"/>
<text text-anchor="start" x="1650" y="-516.9" font-family="Arial" font-size="14.00" fill="#000000">post_id </text>
<text text-anchor="start" x="1699.0182" y="-516.9" font-family="Arial" font-size="14.00" fill="#666666">[int]</text>
<polygon fill="none" stroke="#000000" points="1643,-475.5 1643,-505.5 1791,-505.5 1791,-475.5 1643,-475.5"/>
<text text-anchor="start" x="1650" y="-486.9" font-family="Arial" font-size="14.00" fill="#000000">comment_id </text>
<text text-anchor="start" x="1730.122" y="-486.9" font-family="Arial" font-size="14.00" fill="#666666">[int]</text>
<polygon fill="none" stroke="#000000" points="1643,-445.5 1643,-475.5 1791,-475.5 1791,-445.5 1643,-445.5"/>
<text text-anchor="start" x="1650" y="-456.9" font-family="Arial" font-size="14.00" fill="#000000">comment_star_id </text>
<text text-anchor="start" x="1761.2384" y="-456.9" font-family="Arial" font-size="14.00" fill="#666666">[int]</text>
<polygon fill="none" stroke="#000000" points="1643,-415.5 1643,-445.5 1791,-445.5 1791,-415.5 1643,-415.5"/>
<text text-anchor="start" x="1650" y="-426.9" font-family="Arial" font-size="14.00" fill="#000000">payload </text>
<text text-anchor="start" x="1702.9102" y="-426.9" font-family="Arial" font-size="14.00" fill="#666666">[text]</text>
<polygon fill="none" stroke="#000000" points="1643,-385.5 1643,-415.5 1791,-415.5 1791,-385.5 1643,-385.5"/>
<text text-anchor="start" x="1650" y="-396.9" font-family="Arial" font-size="14.00" fill="#000000">created </text>
<text text-anchor="start" x="1700.5722" y="-396.9" font-family="Arial" font-size="14.00" fill="#666666">[date]</text>
</g>
<!-- logs&#45;&gt;users -->
<g id="edge6" class="edge">
<title>logs:user_id&#45;&gt;users:id</title>
<path fill="none" stroke="#000000" stroke-dasharray="5,2" d="M1632.7803,-549.866C1556.3491,-539.5748 1656.5831,-406.6045 1591,-343 1491.8895,-246.8797 1122.0652,-210.5 984,-210.5"/>
<polygon fill="#000000" stroke="#000000" points="1633.0192,-549.8808 1642.7213,-554.9914 1638.0096,-550.1904 1643,-550.5 1643,-550.5 1643,-550.5 1638.0096,-550.1904 1643.2787,-546.0086 1633.0192,-549.8808 1633.0192,-549.8808"/>
<text text-anchor="start" x="1585.024" y="-560.5" font-family="Arial" font-size="10.00" fill="#000000">logs&#45;&gt;users</text>
</g>
</g>
</svg>
