<?xml version="1.0" encoding="UTF-8" standalone="no"?>
<!DOCTYPE svg PUBLIC "-//W3C//DTD SVG 1.1//EN"
 "http://www.w3.org/Graphics/SVG/1.1/DTD/svg11.dtd">
<!-- Generated by graphviz version 12.1.2 (20240928.0832)
 -->
<!-- Title: user_options Pages: 1 -->
<svg width="336pt" height="602pt"
 viewBox="0.00 0.00 335.55 602.00" xmlns="http://www.w3.org/2000/svg" xmlns:xlink="http://www.w3.org/1999/xlink">
<g id="graph0" class="graph" transform="scale(1 1) rotate(0) translate(4 598)">
<title>user_options</title>
<polygon fill="white" stroke="none" points="-4,4 -4,-598 331.55,-598 331.55,4 -4,4"/>
<!-- user_options -->
<g id="node1" class="node">
<title>user_options</title>
<polygon fill="#efefef" stroke="none" points="46.2,-512.2 46.2,-547.8 281.35,-547.8 281.35,-512.2 46.2,-512.2"/>
<polygon fill="none" stroke="black" points="46.2,-512.2 46.2,-547.8 281.35,-547.8 281.35,-512.2 46.2,-512.2"/>
<text text-anchor="start" x="53.2" y="-525.6" font-family="Arial Bold" font-size="18.00">user_options</text>
<text text-anchor="start" x="145.2" y="-525.6" font-family="Arial" font-size="14.00">    </text>
<text text-anchor="start" x="176.31" y="-525.6" font-family="Arial" font-size="14.00" fill="#666666">[BASIC TABLE]</text>
<polygon fill="none" stroke="black" points="46.2,-481.4 46.2,-512.2 281.35,-512.2 281.35,-481.4 46.2,-481.4"/>
<text text-anchor="start" x="53.2" y="-493.6" font-family="Arial" font-size="14.00">user_id </text>
<text text-anchor="start" x="103.01" y="-493.6" font-family="Arial" font-size="14.00" fill="#666666">[int]</text>
<polygon fill="none" stroke="black" points="46.2,-450.6 46.2,-481.4 281.35,-481.4 281.35,-450.6 46.2,-450.6"/>
<text text-anchor="start" x="53.2" y="-462.8" font-family="Arial" font-size="14.00">show_email </text>
<text text-anchor="start" x="131.01" y="-462.8" font-family="Arial" font-size="14.00" fill="#666666">[bit]</text>
<polygon fill="none" stroke="black" points="46.2,-419.8 46.2,-450.6 281.35,-450.6 281.35,-419.8 46.2,-419.8"/>
<text text-anchor="start" x="53.2" y="-432" font-family="Arial" font-size="14.00">created </text>
<text text-anchor="start" x="103.79" y="-432" font-family="Arial" font-size="14.00" fill="#666666">[date]</text>
<polygon fill="none" stroke="black" points="46.2,-389 46.2,-419.8 281.35,-419.8 281.35,-389 46.2,-389"/>
<text text-anchor="start" x="53.2" y="-401.2" font-family="Arial" font-size="14.00">updated </text>
<text text-anchor="start" x="107.7" y="-401.2" font-family="Arial" font-size="14.00" fill="#666666">[date]</text>
<polygon fill="none" stroke="black" stroke-width="3" points="44.7,-387.5 44.7,-549.3 282.85,-549.3 282.85,-387.5 44.7,-387.5"/>
</g>
<!-- users -->
<g id="node2" class="node">
<title>users</title>
<polygon fill="#efefef" stroke="none" points="70.41,-228 70.41,-263.6 257.14,-263.6 257.14,-228 70.41,-228"/>
<polygon fill="none" stroke="black" points="70.41,-228 70.41,-263.6 257.14,-263.6 257.14,-228 70.41,-228"/>
<text text-anchor="start" x="80.7" y="-241.4" font-family="Arial Bold" font-size="18.00">users</text>
<text text-anchor="start" x="117.69" y="-241.4" font-family="Arial" font-size="14.00">    </text>
<text text-anchor="start" x="148.81" y="-241.4" font-family="Arial" font-size="14.00" fill="#666666">[BASIC TABLE]</text>
<polygon fill="none" stroke="black" points="70.41,-197.2 70.41,-228 257.14,-228 257.14,-197.2 70.41,-197.2"/>
<text text-anchor="start" x="77.41" y="-209.4" font-family="Arial" font-size="14.00">id    </text>
<text text-anchor="start" x="119.42" y="-209.4" font-family="Arial" font-size="14.00" fill="#666666">[int]</text>
<polygon fill="none" stroke="black" points="70.41,-166.4 70.41,-197.2 257.14,-197.2 257.14,-166.4 70.41,-166.4"/>
<text text-anchor="start" x="77.41" y="-178.6" font-family="Arial" font-size="14.00">username    </text>
<text text-anchor="start" x="170.78" y="-178.6" font-family="Arial" font-size="14.00" fill="#666666">[varchar(50)]</text>
<polygon fill="none" stroke="black" points="70.41,-135.6 70.41,-166.4 257.14,-166.4 257.14,-135.6 70.41,-135.6"/>
<text text-anchor="start" x="77.41" y="-147.8" font-family="Arial" font-size="14.00">password    </text>
<text text-anchor="start" x="168.44" y="-147.8" font-family="Arial" font-size="14.00" fill="#666666">[varchar(50)]</text>
<polygon fill="none" stroke="black" points="70.41,-104.8 70.41,-135.6 257.14,-135.6 257.14,-104.8 70.41,-104.8"/>
<text text-anchor="start" x="77.41" y="-117" font-family="Arial" font-size="14.00">email    </text>
<text text-anchor="start" x="141.98" y="-117" font-family="Arial" font-size="14.00" fill="#666666">[varchar(355)]</text>
<polygon fill="none" stroke="black" points="70.41,-74 70.41,-104.8 257.14,-104.8 257.14,-74 70.41,-74"/>
<text text-anchor="start" x="77.41" y="-86.2" font-family="Arial" font-size="14.00">created    </text>
<text text-anchor="start" x="155.22" y="-86.2" font-family="Arial" font-size="14.00" fill="#666666">[date]</text>
<polygon fill="none" stroke="black" points="70.41,-43.2 70.41,-74 257.14,-74 257.14,-43.2 70.41,-43.2"/>
<text text-anchor="start" x="77.41" y="-55.4" font-family="Arial" font-size="14.00">updated    </text>
<text text-anchor="start" x="159.13" y="-55.4" font-family="Arial" font-size="14.00" fill="#666666">[date]</text>
</g>
<!-- user_options&#45;&gt;users -->
<g id="edge1" class="edge">
<title>user_options:user_id&#45;&gt;users:id</title>
<path fill="none" stroke="black" d="M292.28,-494.17C342.86,-465.52 317.93,-212.6 258.14,-212.6"/>
<polygon fill="black" stroke="black" points="292.34,-494.15 281.52,-492.36 287.18,-495.52 282.99,-496.63 282.99,-496.63 282.99,-496.63 287.18,-495.52 283.82,-501.06 292.34,-494.15"/>
</g>
</g>
</svg>
