<?xml version="1.0" encoding="UTF-8" standalone="no"?>
<!DOCTYPE svg PUBLIC "-//W3C//DTD SVG 1.1//EN"
 "http://www.w3.org/Graphics/SVG/1.1/DTD/svg11.dtd">
<!-- Generated by graphviz version 2.40.1 (20161225.0304)
 -->
<!-- Title: user_options Pages: 1 -->
<svg width="378pt" height="592pt"
 viewBox="0.00 0.00 377.99 592.00" xmlns="http://www.w3.org/2000/svg" xmlns:xlink="http://www.w3.org/1999/xlink">
<g id="graph0" class="graph" transform="scale(1 1) rotate(0) translate(4 588)">
<title>user_options</title>
<polygon fill="#ffffff" stroke="transparent" points="-4,4 -4,-588 373.9874,-588 373.9874,4 -4,4"/>
<!-- user_options -->
<g id="node1" class="node">
<title>user_options</title>
<polygon fill="#efefef" stroke="transparent" points="75.4874,-502.5 75.4874,-537.5 324.4874,-537.5 324.4874,-502.5 75.4874,-502.5"/>
<polygon fill="none" stroke="#000000" points="75.4874,-502.5 75.4874,-537.5 324.4874,-537.5 324.4874,-502.5 75.4874,-502.5"/>
<text text-anchor="start" x="82.3571" y="-515.3" font-family="Arial Bold" font-size="18.00" fill="#000000">user_options</text>
<text text-anchor="start" x="185.3891" y="-515.3" font-family="Arial" font-size="14.00" fill="#000000">    </text>
<text text-anchor="start" x="219.5939" y="-515.3" font-family="Arial" font-size="14.00" fill="#666666">[BASIC TABLE]</text>
<polygon fill="none" stroke="#000000" points="75.4874,-472.5 75.4874,-502.5 324.4874,-502.5 324.4874,-472.5 75.4874,-472.5"/>
<text text-anchor="start" x="82.4874" y="-483.9" font-family="Arial" font-size="14.00" fill="#000000">user_id </text>
<text text-anchor="start" x="132.2756" y="-483.9" font-family="Arial" font-size="14.00" fill="#666666">[int]</text>
<polygon fill="none" stroke="#000000" points="75.4874,-442.5 75.4874,-472.5 324.4874,-472.5 324.4874,-442.5 75.4874,-442.5"/>
<text text-anchor="start" x="82.4874" y="-453.9" font-family="Arial" font-size="14.00" fill="#000000">show_email </text>
<text text-anchor="start" x="160.2714" y="-453.9" font-family="Arial" font-size="14.00" fill="#666666">[bit]</text>
<polygon fill="none" stroke="#000000" points="75.4874,-412.5 75.4874,-442.5 324.4874,-442.5 324.4874,-412.5 75.4874,-412.5"/>
<text text-anchor="start" x="82.4874" y="-423.9" font-family="Arial" font-size="14.00" fill="#000000">created </text>
<text text-anchor="start" x="133.0596" y="-423.9" font-family="Arial" font-size="14.00" fill="#666666">[date]</text>
<polygon fill="none" stroke="#000000" points="75.4874,-382.5 75.4874,-412.5 324.4874,-412.5 324.4874,-382.5 75.4874,-382.5"/>
<text text-anchor="start" x="82.4874" y="-393.9" font-family="Arial" font-size="14.00" fill="#000000">updated </text>
<text text-anchor="start" x="136.9642" y="-393.9" font-family="Arial" font-size="14.00" fill="#666666">[date]</text>
<polygon fill="none" stroke="#000000" stroke-width="3" points="73.4874,-381.5 73.4874,-539.5 325.4874,-539.5 325.4874,-381.5 73.4874,-381.5"/>
</g>
<!-- users -->
<g id="node2" class="node">
<title>users</title>
<polygon fill="#efefef" stroke="transparent" points="120.4874,-222.5 120.4874,-257.5 279.4874,-257.5 279.4874,-222.5 120.4874,-222.5"/>
<polygon fill="none" stroke="#000000" points="120.4874,-222.5 120.4874,-257.5 279.4874,-257.5 279.4874,-222.5 120.4874,-222.5"/>
<text text-anchor="start" x="127.0279" y="-235.3" font-family="Arial Bold" font-size="18.00" fill="#000000">users</text>
<text text-anchor="start" x="171.0325" y="-235.3" font-family="Arial" font-size="14.00" fill="#000000"> </text>
<text text-anchor="start" x="174.9231" y="-235.3" font-family="Arial" font-size="14.00" fill="#666666">[BASIC TABLE]</text>
<polygon fill="none" stroke="#000000" points="120.4874,-192.5 120.4874,-222.5 279.4874,-222.5 279.4874,-192.5 120.4874,-192.5"/>
<text text-anchor="start" x="127.4874" y="-203.9" font-family="Arial" font-size="14.00" fill="#000000">id </text>
<text text-anchor="start" x="142.2672" y="-203.9" font-family="Arial" font-size="14.00" fill="#666666">[int]</text>
<polygon fill="none" stroke="#000000" points="120.4874,-162.5 120.4874,-192.5 279.4874,-192.5 279.4874,-162.5 120.4874,-162.5"/>
<text text-anchor="start" x="127.2567" y="-173.9" font-family="Arial" font-size="14.00" fill="#000000">username </text>
<text text-anchor="start" x="193.3815" y="-173.9" font-family="Arial" font-size="14.00" fill="#666666">[varchar(50)]</text>
<polygon fill="none" stroke="#000000" points="120.4874,-132.5 120.4874,-162.5 279.4874,-162.5 279.4874,-132.5 120.4874,-132.5"/>
<text text-anchor="start" x="127.4874" y="-143.9" font-family="Arial" font-size="14.00" fill="#000000">password </text>
<text text-anchor="start" x="191.2756" y="-143.9" font-family="Arial" font-size="14.00" fill="#666666">[varchar(50)]</text>
<polygon fill="none" stroke="#000000" points="120.4874,-102.5 120.4874,-132.5 279.4874,-132.5 279.4874,-102.5 120.4874,-102.5"/>
<text text-anchor="start" x="127.4874" y="-113.9" font-family="Arial" font-size="14.00" fill="#000000">email </text>
<text text-anchor="start" x="164.817" y="-113.9" font-family="Arial" font-size="14.00" fill="#666666">[varchar(355)]</text>
<polygon fill="none" stroke="#000000" points="120.4874,-72.5 120.4874,-102.5 279.4874,-102.5 279.4874,-72.5 120.4874,-72.5"/>
<text text-anchor="start" x="127.4874" y="-83.9" font-family="Arial" font-size="14.00" fill="#000000">created </text>
<text text-anchor="start" x="178.0596" y="-83.9" font-family="Arial" font-size="14.00" fill="#666666">[date]</text>
<polygon fill="none" stroke="#000000" points="120.4874,-42.5 120.4874,-72.5 279.4874,-72.5 279.4874,-42.5 120.4874,-42.5"/>
<text text-anchor="start" x="127.4874" y="-53.9" font-family="Arial" font-size="14.00" fill="#000000">updated </text>
<text text-anchor="start" x="181.9642" y="-53.9" font-family="Arial" font-size="14.00" fill="#666666">[date]</text>
</g>
<!-- user_options&#45;&gt;users -->
<g id="edge1" class="edge">
<title>user_options:user_id&#45;&gt;users:id</title>
<path fill="none" stroke="#000000" d="M65.1883,-486.839C-47.9401,-471.8652 -1.9844,-207.5 120.4874,-207.5"/>
<polygon fill="#000000" stroke="#000000" points="65.508,-486.8594 75.1992,-491.9908 70.4977,-487.1797 75.4874,-487.5 75.4874,-487.5 75.4874,-487.5 70.4977,-487.1797 75.7757,-483.0092 65.508,-486.8594 65.508,-486.8594"/>
</g>
</g>
</svg>
