<?xml version="1.0" encoding="UTF-8" standalone="no"?>
<!DOCTYPE svg PUBLIC "-//W3C//DTD SVG 1.1//EN"
 "http://www.w3.org/Graphics/SVG/1.1/DTD/svg11.dtd">
<!-- Generated by graphviz version 2.40.1 (20161225.0304)
 -->
<!-- Title: user_options Pages: 1 -->
<svg width="349pt" height="592pt"
 viewBox="0.00 0.00 349.00 592.00" xmlns="http://www.w3.org/2000/svg" xmlns:xlink="http://www.w3.org/1999/xlink">
<g id="graph0" class="graph" transform="scale(1 1) rotate(0) translate(4 588)">
<title>user_options</title>
<polygon fill="#ffffff" stroke="transparent" points="-4,4 -4,-588 345,-588 345,4 -4,4"/>
<!-- user_options -->
<g id="node1" class="node">
<title>user_options</title>
<polygon fill="#efefef" stroke="transparent" points="46.5,-502.5 46.5,-537.5 295.5,-537.5 295.5,-502.5 46.5,-502.5"/>
<polygon fill="none" stroke="#000000" points="46.5,-502.5 46.5,-537.5 295.5,-537.5 295.5,-502.5 46.5,-502.5"/>
<text text-anchor="start" x="53.3697" y="-515.3" font-family="Arial Bold" font-size="18.00" fill="#000000">user_options</text>
<text text-anchor="start" x="156.4017" y="-515.3" font-family="Arial" font-size="14.00" fill="#000000">    </text>
<text text-anchor="start" x="190.6065" y="-515.3" font-family="Arial" font-size="14.00" fill="#666666">[BASIC TABLE]</text>
<polygon fill="none" stroke="#000000" points="46.5,-472.5 46.5,-502.5 295.5,-502.5 295.5,-472.5 46.5,-472.5"/>
<text text-anchor="start" x="53.5" y="-483.9" font-family="Arial" font-size="14.00" fill="#000000">user_id </text>
<text text-anchor="start" x="103.2882" y="-483.9" font-family="Arial" font-size="14.00" fill="#666666">[int]</text>
<polygon fill="none" stroke="#000000" points="46.5,-442.5 46.5,-472.5 295.5,-472.5 295.5,-442.5 46.5,-442.5"/>
<text text-anchor="start" x="53.5" y="-453.9" font-family="Arial" font-size="14.00" fill="#000000">show_email </text>
<text text-anchor="start" x="131.284" y="-453.9" font-family="Arial" font-size="14.00" fill="#666666">[bit]</text>
<polygon fill="none" stroke="#000000" points="46.5,-412.5 46.5,-442.5 295.5,-442.5 295.5,-412.5 46.5,-412.5"/>
<text text-anchor="start" x="53.5" y="-423.9" font-family="Arial" font-size="14.00" fill="#000000">created </text>
<text text-anchor="start" x="104.0722" y="-423.9" font-family="Arial" font-size="14.00" fill="#666666">[date]</text>
<polygon fill="none" stroke="#000000" points="46.5,-382.5 46.5,-412.5 295.5,-412.5 295.5,-382.5 46.5,-382.5"/>
<text text-anchor="start" x="53.5" y="-393.9" font-family="Arial" font-size="14.00" fill="#000000">updated </text>
<text text-anchor="start" x="107.9768" y="-393.9" font-family="Arial" font-size="14.00" fill="#666666">[date]</text>
<polygon fill="none" stroke="#000000" stroke-width="3" points="44.5,-381.5 44.5,-539.5 296.5,-539.5 296.5,-381.5 44.5,-381.5"/>
</g>
<!-- users -->
<g id="node2" class="node">
<title>users</title>
<polygon fill="#efefef" stroke="transparent" points="76.5,-222.5 76.5,-257.5 266.5,-257.5 266.5,-222.5 76.5,-222.5"/>
<polygon fill="none" stroke="#000000" points="76.5,-222.5 76.5,-257.5 266.5,-257.5 266.5,-222.5 76.5,-222.5"/>
<text text-anchor="start" x="83.3834" y="-235.3" font-family="Arial Bold" font-size="18.00" fill="#000000">users</text>
<text text-anchor="start" x="127.388" y="-235.3" font-family="Arial" font-size="14.00" fill="#000000">    </text>
<text text-anchor="start" x="161.5928" y="-235.3" font-family="Arial" font-size="14.00" fill="#666666">[BASIC TABLE]</text>
<polygon fill="none" stroke="#000000" points="76.5,-192.5 76.5,-222.5 266.5,-222.5 266.5,-192.5 76.5,-192.5"/>
<text text-anchor="start" x="83.5" y="-203.9" font-family="Arial" font-size="14.00" fill="#000000">id    </text>
<text text-anchor="start" x="128.594" y="-203.9" font-family="Arial" font-size="14.00" fill="#666666">[int]</text>
<polygon fill="none" stroke="#000000" points="76.5,-162.5 76.5,-192.5 266.5,-192.5 266.5,-162.5 76.5,-162.5"/>
<text text-anchor="start" x="83.5" y="-173.9" font-family="Arial" font-size="14.00" fill="#000000">username    </text>
<text text-anchor="start" x="179.939" y="-173.9" font-family="Arial" font-size="14.00" fill="#666666">[varchar(50)]</text>
<polygon fill="none" stroke="#000000" points="76.5,-132.5 76.5,-162.5 266.5,-162.5 266.5,-132.5 76.5,-132.5"/>
<text text-anchor="start" x="83.5" y="-143.9" font-family="Arial" font-size="14.00" fill="#000000">password    </text>
<text text-anchor="start" x="177.6024" y="-143.9" font-family="Arial" font-size="14.00" fill="#666666">[varchar(50)]</text>
<polygon fill="none" stroke="#000000" points="76.5,-102.5 76.5,-132.5 266.5,-132.5 266.5,-102.5 76.5,-102.5"/>
<text text-anchor="start" x="83.5" y="-113.9" font-family="Arial" font-size="14.00" fill="#000000">email    </text>
<text text-anchor="start" x="151.1438" y="-113.9" font-family="Arial" font-size="14.00" fill="#666666">[varchar(355)]</text>
<polygon fill="none" stroke="#000000" points="76.5,-72.5 76.5,-102.5 266.5,-102.5 266.5,-72.5 76.5,-72.5"/>
<text text-anchor="start" x="83.5" y="-83.9" font-family="Arial" font-size="14.00" fill="#000000">created    </text>
<text text-anchor="start" x="164.3864" y="-83.9" font-family="Arial" font-size="14.00" fill="#666666">[date]</text>
<polygon fill="none" stroke="#000000" points="76.5,-42.5 76.5,-72.5 266.5,-72.5 266.5,-42.5 76.5,-42.5"/>
<text text-anchor="start" x="83.5" y="-53.9" font-family="Arial" font-size="14.00" fill="#000000">updated    </text>
<text text-anchor="start" x="168.291" y="-53.9" font-family="Arial" font-size="14.00" fill="#666666">[date]</text>
</g>
<!-- user_options&#45;&gt;users -->
<g id="edge1" class="edge">
<title>user_options:user_id&#45;&gt;users:id</title>
<path fill="none" stroke="#000000" d="M305.6737,-486.6314C359.7491,-476.7612 336.4245,-385.201 295.5,-337 231.6582,-261.8069 140.3418,-376.1931 76.5,-301 49.6043,-269.3221 34.9444,-207.5 76.5,-207.5"/>
<polygon fill="#000000" stroke="#000000" points="305.4638,-486.6492 295.1171,-483.0163 300.4819,-487.0746 295.5,-487.5 295.5,-487.5 295.5,-487.5 300.4819,-487.0746 295.8829,-491.9837 305.4638,-486.6492 305.4638,-486.6492"/>
</g>
</g>
</svg>
