<?xml version="1.0" encoding="UTF-8" standalone="no"?>
<!DOCTYPE svg PUBLIC "-//W3C//DTD SVG 1.1//EN"
 "http://www.w3.org/Graphics/SVG/1.1/DTD/svg11.dtd">
<!-- Generated by graphviz version 12.1.2 (20240928.0832)
 -->
<!-- Title: users Pages: 1 -->
<svg width="1957pt" height="694pt"
 viewBox="0.00 0.00 1956.55 694.40" xmlns="http://www.w3.org/2000/svg" xmlns:xlink="http://www.w3.org/1999/xlink">
<g id="graph0" class="graph" transform="scale(1 1) rotate(0) translate(4 690.4)">
<title>users</title>
<polygon fill="white" stroke="none" points="-4,4 -4,-690.4 1952.55,-690.4 1952.55,4 -4,4"/>
<!-- users -->
<g id="node1" class="node">
<title>users</title>
<polygon fill="#efefef" stroke="none" points="854.7,-231 854.7,-266.6 1034.85,-266.6 1034.85,-231 854.7,-231"/>
<polygon fill="none" stroke="black" points="854.7,-231 854.7,-266.6 1034.85,-266.6 1034.85,-231 854.7,-231"/>
<text text-anchor="start" x="861.7" y="-244.4" font-family="Arial Bold" font-size="18.00">users</text>
<text text-anchor="start" x="898.69" y="-244.4" font-family="Arial" font-size="14.00">    </text>
<text text-anchor="start" x="929.81" y="-244.4" font-family="Arial" font-size="14.00" fill="#666666">[BASIC TABLE]</text>
<polygon fill="none" stroke="black" points="854.7,-200.2 854.7,-231 1034.85,-231 1034.85,-200.2 854.7,-200.2"/>
<text text-anchor="start" x="861.7" y="-212.4" font-family="Arial" font-size="14.00">id </text>
<text text-anchor="start" x="876.49" y="-212.4" font-family="Arial" font-size="14.00" fill="#666666">[int]</text>
<polygon fill="none" stroke="black" points="854.7,-169.4 854.7,-200.2 1034.85,-200.2 1034.85,-169.4 854.7,-169.4"/>
<text text-anchor="start" x="861.7" y="-181.6" font-family="Arial" font-size="14.00">username </text>
<text text-anchor="start" x="927.85" y="-181.6" font-family="Arial" font-size="14.00" fill="#666666">[varchar(50)]</text>
<polygon fill="none" stroke="black" points="854.7,-138.6 854.7,-169.4 1034.85,-169.4 1034.85,-138.6 854.7,-138.6"/>
<text text-anchor="start" x="861.7" y="-150.8" font-family="Arial" font-size="14.00">password </text>
<text text-anchor="start" x="925.51" y="-150.8" font-family="Arial" font-size="14.00" fill="#666666">[varchar(50)]</text>
<polygon fill="none" stroke="black" points="854.7,-107.8 854.7,-138.6 1034.85,-138.6 1034.85,-107.8 854.7,-107.8"/>
<text text-anchor="start" x="861.7" y="-120" font-family="Arial" font-size="14.00">email </text>
<text text-anchor="start" x="899.05" y="-120" font-family="Arial" font-size="14.00" fill="#666666">[varchar(355)]</text>
<polygon fill="none" stroke="black" points="854.7,-77 854.7,-107.8 1034.85,-107.8 1034.85,-77 854.7,-77"/>
<text text-anchor="start" x="861.7" y="-89.2" font-family="Arial" font-size="14.00">created </text>
<text text-anchor="start" x="912.29" y="-89.2" font-family="Arial" font-size="14.00" fill="#666666">[date]</text>
<polygon fill="none" stroke="black" points="854.7,-46.2 854.7,-77 1034.85,-77 1034.85,-46.2 854.7,-46.2"/>
<text text-anchor="start" x="861.7" y="-58.4" font-family="Arial" font-size="14.00">updated </text>
<text text-anchor="start" x="916.2" y="-58.4" font-family="Arial" font-size="14.00" fill="#666666">[date]</text>
<polygon fill="none" stroke="black" stroke-width="3" points="853.2,-44.7 853.2,-268.1 1036.35,-268.1 1036.35,-44.7 853.2,-44.7"/>
</g>
<!-- user_options -->
<g id="node2" class="node">
<title>user_options</title>
<polygon fill="#efefef" stroke="none" points="43.2,-561.4 43.2,-597 278.35,-597 278.35,-561.4 43.2,-561.4"/>
<polygon fill="none" stroke="black" points="43.2,-561.4 43.2,-597 278.35,-597 278.35,-561.4 43.2,-561.4"/>
<text text-anchor="start" x="50.2" y="-574.8" font-family="Arial Bold" font-size="18.00">user_options</text>
<text text-anchor="start" x="142.2" y="-574.8" font-family="Arial" font-size="14.00">    </text>
<text text-anchor="start" x="173.31" y="-574.8" font-family="Arial" font-size="14.00" fill="#666666">[BASIC TABLE]</text>
<polygon fill="none" stroke="black" points="43.2,-530.6 43.2,-561.4 278.35,-561.4 278.35,-530.6 43.2,-530.6"/>
<text text-anchor="start" x="50.2" y="-542.8" font-family="Arial" font-size="14.00">user_id </text>
<text text-anchor="start" x="100.01" y="-542.8" font-family="Arial" font-size="14.00" fill="#666666">[int]</text>
<polygon fill="none" stroke="black" points="43.2,-499.8 43.2,-530.6 278.35,-530.6 278.35,-499.8 43.2,-499.8"/>
<text text-anchor="start" x="50.2" y="-512" font-family="Arial" font-size="14.00">show_email </text>
<text text-anchor="start" x="128.01" y="-512" font-family="Arial" font-size="14.00" fill="#666666">[bit]</text>
<polygon fill="none" stroke="black" points="43.2,-469 43.2,-499.8 278.35,-499.8 278.35,-469 43.2,-469"/>
<text text-anchor="start" x="50.2" y="-481.2" font-family="Arial" font-size="14.00">created </text>
<text text-anchor="start" x="100.79" y="-481.2" font-family="Arial" font-size="14.00" fill="#666666">[date]</text>
<polygon fill="none" stroke="black" points="43.2,-438.2 43.2,-469 278.35,-469 278.35,-438.2 43.2,-438.2"/>
<text text-anchor="start" x="50.2" y="-450.4" font-family="Arial" font-size="14.00">updated </text>
<text text-anchor="start" x="104.7" y="-450.4" font-family="Arial" font-size="14.00" fill="#666666">[date]</text>
</g>
<!-- user_options&#45;&gt;users -->
<g id="edge1" class="edge">
<title>user_options:user_id&#45;&gt;users:id</title>
<path fill="none" stroke="black" d="M289.54,-545.34C361.72,-535.18 269.18,-410.04 330.77,-348.8 415.81,-264.25 733.78,-215.6 853.7,-215.6"/>
<polygon fill="black" stroke="black" points="289.66,-545.33 279.39,-541.49 284.34,-545.68 280.01,-545.96 280.01,-545.96 280.01,-545.96 284.34,-545.68 279.97,-550.47 289.66,-545.33"/>
</g>
<!-- posts -->
<g id="node3" class="node">
<title>posts</title>
<polygon fill="#efefef" stroke="none" points="382.69,-592.2 382.69,-627.8 562.85,-627.8 562.85,-592.2 382.69,-592.2"/>
<polygon fill="none" stroke="black" points="382.69,-592.2 382.69,-627.8 562.85,-627.8 562.85,-592.2 382.69,-592.2"/>
<text text-anchor="start" x="389.69" y="-605.6" font-family="Arial Bold" font-size="18.00">posts</text>
<text text-anchor="start" x="426.7" y="-605.6" font-family="Arial" font-size="14.00">    </text>
<text text-anchor="start" x="457.82" y="-605.6" font-family="Arial" font-size="14.00" fill="#666666">[BASIC TABLE]</text>
<polygon fill="none" stroke="black" points="382.69,-561.4 382.69,-592.2 562.85,-592.2 562.85,-561.4 382.69,-561.4"/>
<text text-anchor="start" x="389.69" y="-573.6" font-family="Arial" font-size="14.00">id </text>
<text text-anchor="start" x="404.48" y="-573.6" font-family="Arial" font-size="14.00" fill="#666666">[int]</text>
<polygon fill="none" stroke="black" points="382.69,-530.6 382.69,-561.4 562.85,-561.4 562.85,-530.6 382.69,-530.6"/>
<text text-anchor="start" x="389.69" y="-542.8" font-family="Arial" font-size="14.00">user_id </text>
<text text-anchor="start" x="439.5" y="-542.8" font-family="Arial" font-size="14.00" fill="#666666">[int]</text>
<polygon fill="none" stroke="black" points="382.69,-499.8 382.69,-530.6 562.85,-530.6 562.85,-499.8 382.69,-499.8"/>
<text text-anchor="start" x="389.69" y="-512" font-family="Arial" font-size="14.00">title </text>
<text text-anchor="start" x="415.37" y="-512" font-family="Arial" font-size="14.00" fill="#666666">[varchar(255)]</text>
<polygon fill="none" stroke="black" points="382.69,-469 382.69,-499.8 562.85,-499.8 562.85,-469 382.69,-469"/>
<text text-anchor="start" x="389.69" y="-481.2" font-family="Arial" font-size="14.00">body </text>
<text text-anchor="start" x="423.94" y="-481.2" font-family="Arial" font-size="14.00" fill="#666666">[text]</text>
<polygon fill="none" stroke="black" points="382.69,-438.2 382.69,-469 562.85,-469 562.85,-438.2 382.69,-438.2"/>
<text text-anchor="start" x="389.69" y="-450.4" font-family="Arial" font-size="14.00">created </text>
<text text-anchor="start" x="440.28" y="-450.4" font-family="Arial" font-size="14.00" fill="#666666">[date]</text>
<polygon fill="none" stroke="black" points="382.69,-407.4 382.69,-438.2 562.85,-438.2 562.85,-407.4 382.69,-407.4"/>
<text text-anchor="start" x="389.69" y="-419.6" font-family="Arial" font-size="14.00">updated </text>
<text text-anchor="start" x="444.19" y="-419.6" font-family="Arial" font-size="14.00" fill="#666666">[date]</text>
</g>
<!-- posts&#45;&gt;users -->
<g id="edge2" class="edge">
<title>posts:user_id&#45;&gt;users:id</title>
<path fill="none" stroke="black" d="M574.08,-545.38C646.84,-535.79 561.73,-417.51 614.77,-348.8 689.07,-252.57 732.12,-215.6 853.7,-215.6"/>
<polygon fill="black" stroke="black" points="574.17,-545.37 563.92,-541.49 568.85,-545.7 564.52,-545.96 564.52,-545.96 564.52,-545.96 568.85,-545.7 564.46,-550.47 574.17,-545.37"/>
</g>
<!-- comments -->
<g id="node4" class="node">
<title>comments</title>
<polygon fill="#efefef" stroke="none" points="667.2,-592.2 667.2,-627.8 884.34,-627.8 884.34,-592.2 667.2,-592.2"/>
<polygon fill="none" stroke="black" points="667.2,-592.2 667.2,-627.8 884.34,-627.8 884.34,-592.2 667.2,-592.2"/>
<text text-anchor="start" x="674.2" y="-605.6" font-family="Arial Bold" font-size="18.00">comments</text>
<text text-anchor="start" x="748.19" y="-605.6" font-family="Arial" font-size="14.00">    </text>
<text text-anchor="start" x="779.31" y="-605.6" font-family="Arial" font-size="14.00" fill="#666666">[BASIC TABLE]</text>
<polygon fill="none" stroke="black" points="667.2,-561.4 667.2,-592.2 884.34,-592.2 884.34,-561.4 667.2,-561.4"/>
<text text-anchor="start" x="674.2" y="-573.6" font-family="Arial" font-size="14.00">id </text>
<text text-anchor="start" x="688.99" y="-573.6" font-family="Arial" font-size="14.00" fill="#666666">[int]</text>
<polygon fill="none" stroke="black" points="667.2,-530.6 667.2,-561.4 884.34,-561.4 884.34,-530.6 667.2,-530.6"/>
<text text-anchor="start" x="674.2" y="-542.8" font-family="Arial" font-size="14.00">post_id </text>
<text text-anchor="start" x="723.24" y="-542.8" font-family="Arial" font-size="14.00" fill="#666666">[int]</text>
<polygon fill="none" stroke="black" points="667.2,-499.8 667.2,-530.6 884.34,-530.6 884.34,-499.8 667.2,-499.8"/>
<text text-anchor="start" x="674.2" y="-512" font-family="Arial" font-size="14.00">user_id </text>
<text text-anchor="start" x="724.01" y="-512" font-family="Arial" font-size="14.00" fill="#666666">[int]</text>
<polygon fill="none" stroke="black" points="667.2,-469 667.2,-499.8 884.34,-499.8 884.34,-469 667.2,-469"/>
<text text-anchor="start" x="674.2" y="-481.2" font-family="Arial" font-size="14.00">comment </text>
<text text-anchor="start" x="735.67" y="-481.2" font-family="Arial" font-size="14.00" fill="#666666">[text]</text>
<polygon fill="none" stroke="black" points="667.2,-438.2 667.2,-469 884.34,-469 884.34,-438.2 667.2,-438.2"/>
<text text-anchor="start" x="674.2" y="-450.4" font-family="Arial" font-size="14.00">created </text>
<text text-anchor="start" x="724.79" y="-450.4" font-family="Arial" font-size="14.00" fill="#666666">[date]</text>
<polygon fill="none" stroke="black" points="667.2,-407.4 667.2,-438.2 884.34,-438.2 884.34,-407.4 667.2,-407.4"/>
<text text-anchor="start" x="674.2" y="-419.6" font-family="Arial" font-size="14.00">updated </text>
<text text-anchor="start" x="728.7" y="-419.6" font-family="Arial" font-size="14.00" fill="#666666">[date]</text>
</g>
<!-- comments&#45;&gt;users -->
<g id="edge3" class="edge">
<title>comments:user_id&#45;&gt;users:id</title>
<path fill="none" stroke="black" d="M895.64,-514.39C946.83,-505.5 900.92,-425.3 884.34,-364.2 877.44,-338.75 861.65,-338.24 854.7,-312.8 843.32,-271.12 810.5,-215.6 853.7,-215.6"/>
<polygon fill="black" stroke="black" points="895.64,-514.39 885.32,-510.69 890.33,-514.81 886.01,-515.15 886.01,-515.15 886.01,-515.15 890.33,-514.81 886.03,-519.66 895.64,-514.39"/>
</g>
<!-- comment_stars -->
<g id="node5" class="node">
<title>comment_stars</title>
<polygon fill="#efefef" stroke="none" points="988.71,-592.2 988.71,-627.8 1240.84,-627.8 1240.84,-592.2 988.71,-592.2"/>
<polygon fill="none" stroke="black" points="988.71,-592.2 988.71,-627.8 1240.84,-627.8 1240.84,-592.2 988.71,-592.2"/>
<text text-anchor="start" x="995.71" y="-605.6" font-family="Arial Bold" font-size="18.00">comment_stars</text>
<text text-anchor="start" x="1104.69" y="-605.6" font-family="Arial" font-size="14.00">    </text>
<text text-anchor="start" x="1135.8" y="-605.6" font-family="Arial" font-size="14.00" fill="#666666">[BASIC TABLE]</text>
<polygon fill="none" stroke="black" points="988.71,-561.4 988.71,-592.2 1240.84,-592.2 1240.84,-561.4 988.71,-561.4"/>
<text text-anchor="start" x="995.71" y="-573.6" font-family="Arial" font-size="14.00">id </text>
<text text-anchor="start" x="1010.5" y="-573.6" font-family="Arial" font-size="14.00" fill="#666666">[int]</text>
<polygon fill="none" stroke="black" points="988.71,-530.6 988.71,-561.4 1240.84,-561.4 1240.84,-530.6 988.71,-530.6"/>
<text text-anchor="start" x="995.71" y="-542.8" font-family="Arial" font-size="14.00">user_id </text>
<text text-anchor="start" x="1045.52" y="-542.8" font-family="Arial" font-size="14.00" fill="#666666">[int]</text>
<polygon fill="none" stroke="black" points="988.71,-499.8 988.71,-530.6 1240.84,-530.6 1240.84,-499.8 988.71,-499.8"/>
<text text-anchor="start" x="995.71" y="-512" font-family="Arial" font-size="14.00">comment_post_id </text>
<text text-anchor="start" x="1110.1" y="-512" font-family="Arial" font-size="14.00" fill="#666666">[int]</text>
<polygon fill="none" stroke="black" points="988.71,-469 988.71,-499.8 1240.84,-499.8 1240.84,-469 988.71,-469"/>
<text text-anchor="start" x="995.71" y="-481.2" font-family="Arial" font-size="14.00">comment_user_id </text>
<text text-anchor="start" x="1110.87" y="-481.2" font-family="Arial" font-size="14.00" fill="#666666">[int]</text>
<polygon fill="none" stroke="black" points="988.71,-438.2 988.71,-469 1240.84,-469 1240.84,-438.2 988.71,-438.2"/>
<text text-anchor="start" x="995.71" y="-450.4" font-family="Arial" font-size="14.00">created </text>
<text text-anchor="start" x="1046.3" y="-450.4" font-family="Arial" font-size="14.00" fill="#666666">[date]</text>
<polygon fill="none" stroke="black" points="988.71,-407.4 988.71,-438.2 1240.84,-438.2 1240.84,-407.4 988.71,-407.4"/>
<text text-anchor="start" x="995.71" y="-419.6" font-family="Arial" font-size="14.00">updated </text>
<text text-anchor="start" x="1050.21" y="-419.6" font-family="Arial" font-size="14.00" fill="#666666">[date]</text>
</g>
<!-- comment_stars&#45;&gt;users -->
<g id="edge4" class="edge">
<title>comment_stars:comment_user_id&#45;&gt;users:id</title>
<path fill="none" stroke="black" d="M977.72,-483.39C939.14,-474.6 970.75,-410.51 988.71,-364.2 999.81,-335.58 1023.72,-341.41 1034.85,-312.8 1050.5,-272.54 1079.05,-215.6 1035.85,-215.6"/>
<polygon fill="black" stroke="black" points="977.43,-483.36 986.92,-488.84 982.74,-483.9 987.04,-484.33 987.04,-484.33 987.04,-484.33 982.74,-483.9 987.83,-479.89 977.43,-483.36"/>
</g>
<!-- administrator.blogs -->
<g id="node6" class="node">
<title>administrator.blogs</title>
<polygon fill="#efefef" stroke="none" points="1345.46,-592.2 1345.46,-627.8 1628.09,-627.8 1628.09,-592.2 1345.46,-592.2"/>
<polygon fill="none" stroke="black" points="1345.46,-592.2 1345.46,-627.8 1628.09,-627.8 1628.09,-592.2 1345.46,-592.2"/>
<text text-anchor="start" x="1352.46" y="-605.6" font-family="Arial Bold" font-size="18.00">administrator.blogs</text>
<text text-anchor="start" x="1491.94" y="-605.6" font-family="Arial" font-size="14.00">    </text>
<text text-anchor="start" x="1523.06" y="-605.6" font-family="Arial" font-size="14.00" fill="#666666">[BASIC TABLE]</text>
<polygon fill="none" stroke="black" points="1345.46,-561.4 1345.46,-592.2 1628.09,-592.2 1628.09,-561.4 1345.46,-561.4"/>
<text text-anchor="start" x="1352.46" y="-573.6" font-family="Arial" font-size="14.00">id </text>
<text text-anchor="start" x="1367.24" y="-573.6" font-family="Arial" font-size="14.00" fill="#666666">[int]</text>
<polygon fill="none" stroke="black" points="1345.46,-530.6 1345.46,-561.4 1628.09,-561.4 1628.09,-530.6 1345.46,-530.6"/>
<text text-anchor="start" x="1352.46" y="-542.8" font-family="Arial" font-size="14.00">user_id </text>
<text text-anchor="start" x="1402.26" y="-542.8" font-family="Arial" font-size="14.00" fill="#666666">[int]</text>
<polygon fill="none" stroke="black" points="1345.46,-499.8 1345.46,-530.6 1628.09,-530.6 1628.09,-499.8 1345.46,-499.8"/>
<text text-anchor="start" x="1352.46" y="-512" font-family="Arial" font-size="14.00">name </text>
<text text-anchor="start" x="1391.37" y="-512" font-family="Arial" font-size="14.00" fill="#666666">[text]</text>
<polygon fill="none" stroke="black" points="1345.46,-469 1345.46,-499.8 1628.09,-499.8 1628.09,-469 1345.46,-469"/>
<text text-anchor="start" x="1352.46" y="-481.2" font-family="Arial" font-size="14.00">description </text>
<text text-anchor="start" x="1424.05" y="-481.2" font-family="Arial" font-size="14.00" fill="#666666">[text]</text>
<polygon fill="none" stroke="black" points="1345.46,-438.2 1345.46,-469 1628.09,-469 1628.09,-438.2 1345.46,-438.2"/>
<text text-anchor="start" x="1352.46" y="-450.4" font-family="Arial" font-size="14.00">created </text>
<text text-anchor="start" x="1403.04" y="-450.4" font-family="Arial" font-size="14.00" fill="#666666">[date]</text>
<polygon fill="none" stroke="black" points="1345.46,-407.4 1345.46,-438.2 1628.09,-438.2 1628.09,-407.4 1345.46,-407.4"/>
<text text-anchor="start" x="1352.46" y="-419.6" font-family="Arial" font-size="14.00">updated </text>
<text text-anchor="start" x="1406.95" y="-419.6" font-family="Arial" font-size="14.00" fill="#666666">[date]</text>
</g>
<!-- administrator.blogs&#45;&gt;users -->
<g id="edge5" class="edge">
<title>administrator.blogs:user_id&#45;&gt;users:id</title>
<path fill="none" stroke="black" d="M1334.22,-545.37C1261.43,-535.72 1347.03,-416.67 1292.77,-348.8 1212.46,-248.34 1164.47,-215.6 1035.85,-215.6"/>
<polygon fill="black" stroke="black" points="1334.14,-545.37 1343.85,-550.47 1339.47,-545.69 1343.79,-545.96 1343.79,-545.96 1343.79,-545.96 1339.47,-545.69 1344.4,-541.49 1334.14,-545.37"/>
</g>
<!-- logs -->
<g id="node7" class="node">
<title>logs</title>
<polygon fill="#efefef" stroke="none" points="1732.19,-607.6 1732.19,-643.2 1905.35,-643.2 1905.35,-607.6 1732.19,-607.6"/>
<polygon fill="none" stroke="black" points="1732.19,-607.6 1732.19,-643.2 1905.35,-643.2 1905.35,-607.6 1732.19,-607.6"/>
<text text-anchor="start" x="1739.19" y="-621" font-family="Arial Bold" font-size="18.00">logs</text>
<text text-anchor="start" x="1769.2" y="-621" font-family="Arial" font-size="14.00">    </text>
<text text-anchor="start" x="1800.32" y="-621" font-family="Arial" font-size="14.00" fill="#666666">[BASIC TABLE]</text>
<polygon fill="none" stroke="black" points="1732.19,-576.8 1732.19,-607.6 1905.35,-607.6 1905.35,-576.8 1732.19,-576.8"/>
<text text-anchor="start" x="1739.19" y="-589" font-family="Arial" font-size="14.00">id </text>
<text text-anchor="start" x="1753.98" y="-589" font-family="Arial" font-size="14.00" fill="#666666">[int]</text>
<polygon fill="none" stroke="black" points="1732.19,-546 1732.19,-576.8 1905.35,-576.8 1905.35,-546 1732.19,-546"/>
<text text-anchor="start" x="1739.19" y="-558.2" font-family="Arial" font-size="14.00">user_id </text>
<text text-anchor="start" x="1789" y="-558.2" font-family="Arial" font-size="14.00" fill="#666666">[int]</text>
<polygon fill="none" stroke="black" points="1732.19,-515.2 1732.19,-546 1905.35,-546 1905.35,-515.2 1732.19,-515.2"/>
<text text-anchor="start" x="1739.19" y="-527.4" font-family="Arial" font-size="14.00">post_id </text>
<text text-anchor="start" x="1788.23" y="-527.4" font-family="Arial" font-size="14.00" fill="#666666">[int]</text>
<polygon fill="none" stroke="black" points="1732.19,-484.4 1732.19,-515.2 1905.35,-515.2 1905.35,-484.4 1732.19,-484.4"/>
<text text-anchor="start" x="1739.19" y="-496.6" font-family="Arial" font-size="14.00">comment_id </text>
<text text-anchor="start" x="1819.34" y="-496.6" font-family="Arial" font-size="14.00" fill="#666666">[int]</text>
<polygon fill="none" stroke="black" points="1732.19,-453.6 1732.19,-484.4 1905.35,-484.4 1905.35,-453.6 1732.19,-453.6"/>
<text text-anchor="start" x="1739.19" y="-465.8" font-family="Arial" font-size="14.00">comment_star_id </text>
<text text-anchor="start" x="1850.46" y="-465.8" font-family="Arial" font-size="14.00" fill="#666666">[int]</text>
<polygon fill="none" stroke="black" points="1732.19,-422.8 1732.19,-453.6 1905.35,-453.6 1905.35,-422.8 1732.19,-422.8"/>
<text text-anchor="start" x="1739.19" y="-435" font-family="Arial" font-size="14.00">payload </text>
<text text-anchor="start" x="1792.13" y="-435" font-family="Arial" font-size="14.00" fill="#666666">[text]</text>
<polygon fill="none" stroke="black" points="1732.19,-392 1732.19,-422.8 1905.35,-422.8 1905.35,-392 1732.19,-392"/>
<text text-anchor="start" x="1739.19" y="-404.2" font-family="Arial" font-size="14.00">created </text>
<text text-anchor="start" x="1789.78" y="-404.2" font-family="Arial" font-size="14.00" fill="#666666">[date]</text>
</g>
<!-- logs&#45;&gt;users -->
<g id="edge6" class="edge">
<title>logs:user_id&#45;&gt;users:id</title>
<path fill="none" stroke="black" stroke-dasharray="5,2" d="M1721.25,-560.81C1642.46,-550.75 1747.85,-413.95 1680.77,-348.8 1575.79,-246.84 1182.19,-215.6 1035.85,-215.6"/>
<polygon fill="black" stroke="black" points="1720.88,-560.79 1730.6,-565.87 1726.2,-561.11 1730.53,-561.36 1730.53,-561.36 1730.53,-561.36 1726.2,-561.11 1731.13,-556.89 1720.88,-560.79"/>
<text text-anchor="start" x="1688.72" y="-545.4" font-family="Arial" font-size="10.00">logs&#45;&gt;users</text>
</g>
</g>
</svg>
