<?xml version="1.0" encoding="UTF-8" standalone="no"?>
<!DOCTYPE svg PUBLIC "-//W3C//DTD SVG 1.1//EN"
 "http://www.w3.org/Graphics/SVG/1.1/DTD/svg11.dtd">
<!-- Generated by graphviz version 2.40.1 (20161225.0304)
 -->
<!-- Title: hyphen&#45;table Pages: 1 -->
<svg width="793pt" height="502pt"
 viewBox="0.00 0.00 792.50 502.00" xmlns="http://www.w3.org/2000/svg" xmlns:xlink="http://www.w3.org/1999/xlink">
<g id="graph0" class="graph" transform="scale(1 1) rotate(0) translate(4 498)">
<title>hyphen&#45;table</title>
<polygon fill="#ffffff" stroke="transparent" points="-4,4 -4,-498 788.5,-498 788.5,4 -4,4"/>
<!-- hyphen&#45;table -->
<g id="node1" class="node">
<title>hyphen&#45;table</title>
<polygon fill="#efefef" stroke="transparent" points="466,-412.5 466,-447.5 739,-447.5 739,-412.5 466,-412.5"/>
<polygon fill="none" stroke="#000000" points="466,-412.5 466,-447.5 739,-447.5 739,-412.5 466,-412.5"/>
<text text-anchor="start" x="501.854" y="-425.3" font-family="Arial Bold" font-size="18.00" fill="#000000">hyphen&#45;table</text>
<text text-anchor="start" x="605.8922" y="-425.3" font-family="Arial" font-size="14.00" fill="#000000"> </text>
<text text-anchor="start" x="609.7828" y="-425.3" font-family="Arial" font-size="14.00" fill="#666666">[BASE TABLE]</text>
<polygon fill="none" stroke="#000000" points="466,-382.5 466,-412.5 739,-412.5 739,-382.5 466,-382.5"/>
<text text-anchor="start" x="473" y="-393.9" font-family="Arial" font-size="14.00" fill="#000000">id </text>
<text text-anchor="start" x="487.7798" y="-393.9" font-family="Arial" font-size="14.00" fill="#666666">[bigint(20)]</text>
<polygon fill="none" stroke="#000000" points="466,-352.5 466,-382.5 739,-382.5 739,-352.5 466,-352.5"/>
<text text-anchor="start" x="473" y="-363.9" font-family="Arial" font-size="14.00" fill="#000000">hyphen&#45;column </text>
<text text-anchor="start" x="572.5792" y="-363.9" font-family="Arial" font-size="14.00" fill="#666666">[text]</text>
<polygon fill="none" stroke="#000000" points="466,-322.5 466,-352.5 739,-352.5 739,-322.5 466,-322.5"/>
<text text-anchor="start" x="472.9972" y="-333.9" font-family="Arial" font-size="14.00" fill="#000000">CamelizeTable_CamelizeColumn </text>
<text text-anchor="start" x="684.5554" y="-333.9" font-family="Arial" font-size="14.00" fill="#666666">[int(11)]</text>
<polygon fill="none" stroke="#000000" points="466,-292.5 466,-322.5 739,-322.5 739,-292.5 466,-292.5"/>
<text text-anchor="start" x="473" y="-303.9" font-family="Arial" font-size="14.00" fill="#000000">created </text>
<text text-anchor="start" x="523.5722" y="-303.9" font-family="Arial" font-size="14.00" fill="#666666">[datetime]</text>
<polygon fill="none" stroke="#000000" stroke-width="3" points="464,-291.5 464,-449.5 740,-449.5 740,-291.5 464,-291.5"/>
</g>
<!-- CamelizeTable -->
<g id="node2" class="node">
<title>CamelizeTable</title>
<polygon fill="#efefef" stroke="transparent" points="487,-132.5 487,-167.5 718,-167.5 718,-132.5 487,-132.5"/>
<polygon fill="none" stroke="#000000" points="487,-132.5 487,-167.5 718,-167.5 718,-132.5 487,-132.5"/>
<text text-anchor="start" x="493.8719" y="-145.3" font-family="Arial Bold" font-size="18.00" fill="#000000">CamelizeTable</text>
<text text-anchor="start" x="613.8743" y="-145.3" font-family="Arial" font-size="14.00" fill="#000000"> </text>
<text text-anchor="start" x="617.7649" y="-145.3" font-family="Arial" font-size="14.00" fill="#666666">[BASE TABLE]</text>
<polygon fill="none" stroke="#000000" points="487,-102.5 487,-132.5 718,-132.5 718,-102.5 487,-102.5"/>
<text text-anchor="start" x="494" y="-113.9" font-family="Arial" font-size="14.00" fill="#000000">id </text>
<text text-anchor="start" x="508.7798" y="-113.9" font-family="Arial" font-size="14.00" fill="#666666">[bigint(20)]</text>
<polygon fill="none" stroke="#000000" points="487,-72.5 487,-102.5 718,-102.5 718,-72.5 487,-72.5"/>
<text text-anchor="start" x="494" y="-83.9" font-family="Arial" font-size="14.00" fill="#000000">CamelizeColumn </text>
<text text-anchor="start" x="604.4404" y="-83.9" font-family="Arial" font-size="14.00" fill="#666666">[int(11)]</text>
<polygon fill="none" stroke="#000000" points="487,-42.5 487,-72.5 718,-72.5 718,-42.5 487,-42.5"/>
<text text-anchor="start" x="494" y="-53.9" font-family="Arial" font-size="14.00" fill="#000000">created </text>
<text text-anchor="start" x="544.5722" y="-53.9" font-family="Arial" font-size="14.00" fill="#666666">[datetime]</text>
</g>
<!-- hyphen&#45;table&#45;&gt;CamelizeTable -->
<g id="edge1" class="edge">
<title>hyphen&#45;table:CamelizeTable_CamelizeColumn&#45;&gt;CamelizeTable:CamelizeColumn</title>
<path fill="none" stroke="#000000" d="M455.9336,-336.7828C355.8985,-322.1191 378.982,-87.5 487,-87.5"/>
<polygon fill="#000000" stroke="#000000" points="456.0253,-336.7893 465.6802,-341.9886 461.0126,-337.1446 466,-337.5 466,-337.5 466,-337.5 461.0126,-337.1446 466.3198,-333.0114 456.0253,-336.7893 456.0253,-336.7893"/>
<text text-anchor="start" x="6.895" y="-347.5" font-family="Arial" font-size="10.00" fill="#000000">FOREIGN KEY (CamelizeTable_CamelizeColumn) REFERENCES CamelizeTable (CamelizeColumn)</text>
</g>
</g>
</svg>
