<?xml version="1.0" encoding="UTF-8" standalone="no"?>
<!DOCTYPE svg PUBLIC "-//W3C//DTD SVG 1.1//EN"
 "http://www.w3.org/Graphics/SVG/1.1/DTD/svg11.dtd">
<!-- Generated by graphviz version 12.1.2 (20240928.0832)
 -->
<!-- Title: logs Pages: 1 -->
<svg width="1304pt" height="725pt"
 viewBox="0.00 0.00 1303.87 725.20" xmlns="http://www.w3.org/2000/svg" xmlns:xlink="http://www.w3.org/1999/xlink">
<g id="graph0" class="graph" transform="scale(1 1) rotate(0) translate(4 721.2)">
<title>logs</title>
<polygon fill="white" stroke="none" points="-4,4 -4,-721.2 1299.87,-721.2 1299.87,4 -4,4"/>
<!-- logs -->
<g id="node1" class="node">
<title>logs</title>
<polygon fill="#efefef" stroke="none" points="539.69,-635.4 539.69,-671 708.19,-671 708.19,-635.4 539.69,-635.4"/>
<polygon fill="none" stroke="black" points="539.69,-635.4 539.69,-671 708.19,-671 708.19,-635.4 539.69,-635.4"/>
<text text-anchor="start" x="546.69" y="-648.8" font-family="Arial Bold" font-size="18.00">logs</text>
<text text-anchor="start" x="576.7" y="-648.8" font-family="Arial" font-size="14.00">    </text>
<text text-anchor="start" x="607.82" y="-648.8" font-family="Arial" font-size="14.00" fill="#666666">[BASE TABLE]</text>
<polygon fill="none" stroke="black" points="539.69,-604.6 539.69,-635.4 708.19,-635.4 708.19,-604.6 539.69,-604.6"/>
<text text-anchor="start" x="546.69" y="-616.8" font-family="Arial" font-size="14.00">id </text>
<text text-anchor="start" x="561.48" y="-616.8" font-family="Arial" font-size="14.00" fill="#666666">[bigint]</text>
<polygon fill="none" stroke="black" points="539.69,-573.8 539.69,-604.6 708.19,-604.6 708.19,-573.8 539.69,-573.8"/>
<text text-anchor="start" x="546.69" y="-586" font-family="Arial" font-size="14.00">user_id </text>
<text text-anchor="start" x="596.5" y="-586" font-family="Arial" font-size="14.00" fill="#666666">[int]</text>
<polygon fill="none" stroke="black" points="539.69,-543 539.69,-573.8 708.19,-573.8 708.19,-543 539.69,-543"/>
<text text-anchor="start" x="546.69" y="-555.2" font-family="Arial" font-size="14.00">post_id </text>
<text text-anchor="start" x="595.73" y="-555.2" font-family="Arial" font-size="14.00" fill="#666666">[bigint]</text>
<polygon fill="none" stroke="black" points="539.69,-512.2 539.69,-543 708.19,-543 708.19,-512.2 539.69,-512.2"/>
<text text-anchor="start" x="546.69" y="-524.4" font-family="Arial" font-size="14.00">comment_id </text>
<text text-anchor="start" x="626.84" y="-524.4" font-family="Arial" font-size="14.00" fill="#666666">[bigint]</text>
<polygon fill="none" stroke="black" points="539.69,-481.4 539.69,-512.2 708.19,-512.2 708.19,-481.4 539.69,-481.4"/>
<text text-anchor="start" x="546.69" y="-493.6" font-family="Arial" font-size="14.00">comment_star_id </text>
<text text-anchor="start" x="657.96" y="-493.6" font-family="Arial" font-size="14.00" fill="#666666">[bigint]</text>
<polygon fill="none" stroke="black" points="539.69,-450.6 539.69,-481.4 708.19,-481.4 708.19,-450.6 539.69,-450.6"/>
<text text-anchor="start" x="546.69" y="-462.8" font-family="Arial" font-size="14.00">payload </text>
<text text-anchor="start" x="599.62" y="-462.8" font-family="Arial" font-size="14.00" fill="#666666">[text]</text>
<polygon fill="none" stroke="black" points="539.69,-419.8 539.69,-450.6 708.19,-450.6 708.19,-419.8 539.69,-419.8"/>
<text text-anchor="start" x="546.69" y="-432" font-family="Arial" font-size="14.00">created </text>
<text text-anchor="start" x="597.28" y="-432" font-family="Arial" font-size="14.00" fill="#666666">[datetime]</text>
<polygon fill="none" stroke="black" stroke-width="3" points="538.19,-418.3 538.19,-672.5 709.69,-672.5 709.69,-418.3 538.19,-418.3"/>
</g>
<!-- users -->
<g id="node2" class="node">
<title>users</title>
<polygon fill="#efefef" stroke="none" points="43.2,-243.4 43.2,-279 218.68,-279 218.68,-243.4 43.2,-243.4"/>
<polygon fill="none" stroke="black" points="43.2,-243.4 43.2,-279 218.68,-279 218.68,-243.4 43.2,-243.4"/>
<text text-anchor="start" x="50.2" y="-256.8" font-family="Arial Bold" font-size="18.00">users</text>
<text text-anchor="start" x="87.19" y="-256.8" font-family="Arial" font-size="14.00">    </text>
<text text-anchor="start" x="118.31" y="-256.8" font-family="Arial" font-size="14.00" fill="#666666">[BASE TABLE]</text>
<polygon fill="none" stroke="black" points="43.2,-212.6 43.2,-243.4 218.68,-243.4 218.68,-212.6 43.2,-212.6"/>
<text text-anchor="start" x="50.2" y="-224.8" font-family="Arial" font-size="14.00">id </text>
<text text-anchor="start" x="64.99" y="-224.8" font-family="Arial" font-size="14.00" fill="#666666">[int]</text>
<polygon fill="none" stroke="black" points="43.2,-181.8 43.2,-212.6 218.68,-212.6 218.68,-181.8 43.2,-181.8"/>
<text text-anchor="start" x="50.2" y="-194" font-family="Arial" font-size="14.00">username </text>
<text text-anchor="start" x="116.34" y="-194" font-family="Arial" font-size="14.00" fill="#666666">[varchar(50)]</text>
<polygon fill="none" stroke="black" points="43.2,-151 43.2,-181.8 218.68,-181.8 218.68,-151 43.2,-151"/>
<text text-anchor="start" x="50.2" y="-163.2" font-family="Arial" font-size="14.00">password </text>
<text text-anchor="start" x="114.01" y="-163.2" font-family="Arial" font-size="14.00" fill="#666666">[varchar(50)]</text>
<polygon fill="none" stroke="black" points="43.2,-120.2 43.2,-151 218.68,-151 218.68,-120.2 43.2,-120.2"/>
<text text-anchor="start" x="50.2" y="-132.4" font-family="Arial" font-size="14.00">email </text>
<text text-anchor="start" x="87.54" y="-132.4" font-family="Arial" font-size="14.00" fill="#666666">[varchar(355)]</text>
<polygon fill="none" stroke="black" points="43.2,-89.4 43.2,-120.2 218.68,-120.2 218.68,-89.4 43.2,-89.4"/>
<text text-anchor="start" x="50.2" y="-101.6" font-family="Arial" font-size="14.00">created </text>
<text text-anchor="start" x="100.79" y="-101.6" font-family="Arial" font-size="14.00" fill="#666666">[timestamp]</text>
<polygon fill="none" stroke="black" points="43.2,-58.6 43.2,-89.4 218.68,-89.4 218.68,-58.6 43.2,-58.6"/>
<text text-anchor="start" x="50.2" y="-70.8" font-family="Arial" font-size="14.00">updated </text>
<text text-anchor="start" x="104.7" y="-70.8" font-family="Arial" font-size="14.00" fill="#666666">[timestamp]</text>
</g>
<!-- logs&#45;&gt;users -->
<g id="edge1" class="edge">
<title>logs:user_id&#45;&gt;users:id</title>
<path fill="none" stroke="black" stroke-dasharray="5,2" d="M528.38,-589.04C374.99,-584.07 364.69,-467 270.94,-337.6 239.39,-294.05 273.46,-228 219.68,-228"/>
<polygon fill="black" stroke="black" points="528.36,-589.04 538.29,-593.69 533.69,-589.12 538.02,-589.19 538.02,-589.19 538.02,-589.19 533.69,-589.12 538.43,-584.7 528.36,-589.04"/>
<text text-anchor="start" x="479.73" y="-599.2" font-family="Arial" font-size="10.00">logs&#45;&gt;users</text>
</g>
<!-- posts -->
<g id="node3" class="node">
<title>posts</title>
<polygon fill="#efefef" stroke="none" points="323.36,-258.8 323.36,-294.4 584.52,-294.4 584.52,-258.8 323.36,-258.8"/>
<polygon fill="none" stroke="black" points="323.36,-258.8 323.36,-294.4 584.52,-294.4 584.52,-258.8 323.36,-258.8"/>
<text text-anchor="start" x="373.19" y="-272.2" font-family="Arial Bold" font-size="18.00">posts</text>
<text text-anchor="start" x="410.2" y="-272.2" font-family="Arial" font-size="14.00">    </text>
<text text-anchor="start" x="441.32" y="-272.2" font-family="Arial" font-size="14.00" fill="#666666">[BASE TABLE]</text>
<polygon fill="none" stroke="black" points="323.36,-228 323.36,-258.8 584.52,-258.8 584.52,-228 323.36,-228"/>
<text text-anchor="start" x="330.36" y="-240.2" font-family="Arial" font-size="14.00">id </text>
<text text-anchor="start" x="345.15" y="-240.2" font-family="Arial" font-size="14.00" fill="#666666">[bigint]</text>
<polygon fill="none" stroke="black" points="323.36,-197.2 323.36,-228 584.52,-228 584.52,-197.2 323.36,-197.2"/>
<text text-anchor="start" x="330.36" y="-209.4" font-family="Arial" font-size="14.00">user_id </text>
<text text-anchor="start" x="380.17" y="-209.4" font-family="Arial" font-size="14.00" fill="#666666">[int]</text>
<polygon fill="none" stroke="black" points="323.36,-166.4 323.36,-197.2 584.52,-197.2 584.52,-166.4 323.36,-166.4"/>
<text text-anchor="start" x="330.36" y="-178.6" font-family="Arial" font-size="14.00">title </text>
<text text-anchor="start" x="356.04" y="-178.6" font-family="Arial" font-size="14.00" fill="#666666">[varchar(255)]</text>
<polygon fill="none" stroke="black" points="323.36,-135.6 323.36,-166.4 584.52,-166.4 584.52,-135.6 323.36,-135.6"/>
<text text-anchor="start" x="330.36" y="-147.8" font-family="Arial" font-size="14.00">body </text>
<text text-anchor="start" x="364.61" y="-147.8" font-family="Arial" font-size="14.00" fill="#666666">[text]</text>
<polygon fill="none" stroke="black" points="323.36,-104.8 323.36,-135.6 584.52,-135.6 584.52,-104.8 323.36,-104.8"/>
<text text-anchor="start" x="330.36" y="-117" font-family="Arial" font-size="14.00">post_type </text>
<text text-anchor="start" x="394.96" y="-117" font-family="Arial" font-size="14.00" fill="#666666">[enum(&#39;public&#39;,&#39;private&#39;,&#39;draft&#39;)]</text>
<polygon fill="none" stroke="black" points="323.36,-74 323.36,-104.8 584.52,-104.8 584.52,-74 323.36,-74"/>
<text text-anchor="start" x="330.36" y="-86.2" font-family="Arial" font-size="14.00">created </text>
<text text-anchor="start" x="380.95" y="-86.2" font-family="Arial" font-size="14.00" fill="#666666">[datetime]</text>
<polygon fill="none" stroke="black" points="323.36,-43.2 323.36,-74 584.52,-74 584.52,-43.2 323.36,-43.2"/>
<text text-anchor="start" x="330.36" y="-55.4" font-family="Arial" font-size="14.00">updated </text>
<text text-anchor="start" x="384.86" y="-55.4" font-family="Arial" font-size="14.00" fill="#666666">[datetime]</text>
</g>
<!-- logs&#45;&gt;posts -->
<g id="edge2" class="edge">
<title>logs:post_id&#45;&gt;posts:id</title>
<path fill="none" stroke="black" stroke-dasharray="5,2" d="M528.4,-557.74C460.8,-548.52 505.59,-444.24 539.69,-373.6 550.8,-350.59 573.35,-360.58 584.52,-337.6 602.82,-299.94 627.39,-243.4 585.52,-243.4"/>
<polygon fill="black" stroke="black" points="528.38,-557.74 538.07,-562.87 533.7,-558.08 538.03,-558.36 538.03,-558.36 538.03,-558.36 533.7,-558.08 538.65,-553.89 528.38,-557.74"/>
<text text-anchor="start" x="448.3" y="-568.4" font-family="Arial" font-size="10.00">Additional Relation</text>
</g>
<!-- comments -->
<g id="node4" class="node">
<title>comments</title>
<polygon fill="#efefef" stroke="none" points="688.7,-258.8 688.7,-294.4 901.18,-294.4 901.18,-258.8 688.7,-258.8"/>
<polygon fill="none" stroke="black" points="688.7,-258.8 688.7,-294.4 901.18,-294.4 901.18,-258.8 688.7,-258.8"/>
<text text-anchor="start" x="695.7" y="-272.2" font-family="Arial Bold" font-size="18.00">comments</text>
<text text-anchor="start" x="769.69" y="-272.2" font-family="Arial" font-size="14.00">    </text>
<text text-anchor="start" x="800.81" y="-272.2" font-family="Arial" font-size="14.00" fill="#666666">[BASE TABLE]</text>
<polygon fill="none" stroke="black" points="688.7,-228 688.7,-258.8 901.18,-258.8 901.18,-228 688.7,-228"/>
<text text-anchor="start" x="695.7" y="-240.2" font-family="Arial" font-size="14.00">id </text>
<text text-anchor="start" x="710.49" y="-240.2" font-family="Arial" font-size="14.00" fill="#666666">[bigint]</text>
<polygon fill="none" stroke="black" points="688.7,-197.2 688.7,-228 901.18,-228 901.18,-197.2 688.7,-197.2"/>
<text text-anchor="start" x="695.7" y="-209.4" font-family="Arial" font-size="14.00">post_id </text>
<text text-anchor="start" x="744.74" y="-209.4" font-family="Arial" font-size="14.00" fill="#666666">[bigint]</text>
<polygon fill="none" stroke="black" points="688.7,-166.4 688.7,-197.2 901.18,-197.2 901.18,-166.4 688.7,-166.4"/>
<text text-anchor="start" x="695.7" y="-178.6" font-family="Arial" font-size="14.00">user_id </text>
<text text-anchor="start" x="745.51" y="-178.6" font-family="Arial" font-size="14.00" fill="#666666">[int]</text>
<polygon fill="none" stroke="black" points="688.7,-135.6 688.7,-166.4 901.18,-166.4 901.18,-135.6 688.7,-135.6"/>
<text text-anchor="start" x="695.7" y="-147.8" font-family="Arial" font-size="14.00">comment </text>
<text text-anchor="start" x="757.17" y="-147.8" font-family="Arial" font-size="14.00" fill="#666666">[text]</text>
<polygon fill="none" stroke="black" points="688.7,-104.8 688.7,-135.6 901.18,-135.6 901.18,-104.8 688.7,-104.8"/>
<text text-anchor="start" x="695.7" y="-117" font-family="Arial" font-size="14.00">post_id_desc </text>
<text text-anchor="start" x="782.1" y="-117" font-family="Arial" font-size="14.00" fill="#666666">[bigint]</text>
<polygon fill="none" stroke="black" points="688.7,-74 688.7,-104.8 901.18,-104.8 901.18,-74 688.7,-74"/>
<text text-anchor="start" x="695.7" y="-86.2" font-family="Arial" font-size="14.00">created </text>
<text text-anchor="start" x="746.29" y="-86.2" font-family="Arial" font-size="14.00" fill="#666666">[datetime]</text>
<polygon fill="none" stroke="black" points="688.7,-43.2 688.7,-74 901.18,-74 901.18,-43.2 688.7,-43.2"/>
<text text-anchor="start" x="695.7" y="-55.4" font-family="Arial" font-size="14.00">updated </text>
<text text-anchor="start" x="750.2" y="-55.4" font-family="Arial" font-size="14.00" fill="#666666">[datetime]</text>
</g>
<!-- logs&#45;&gt;comments -->
<g id="edge3" class="edge">
<title>logs:comment_id&#45;&gt;comments:id</title>
<path fill="none" stroke="black" stroke-dasharray="5,2" d="M719.36,-526.83C772.01,-518.07 724.28,-436.27 708.19,-373.6 703.66,-355.98 693.26,-355.21 688.7,-337.6 678.21,-297.07 645.83,-243.4 687.7,-243.4"/>
<polygon fill="black" stroke="black" points="719.49,-526.82 709.18,-523.09 714.17,-527.22 709.86,-527.55 709.86,-527.55 709.86,-527.55 714.17,-527.22 709.86,-532.06 719.49,-526.82"/>
<text text-anchor="start" x="716.19" y="-537.6" font-family="Arial" font-size="10.00">Additional Relation</text>
</g>
<!-- comment_stars -->
<g id="node5" class="node">
<title>comment_stars</title>
<polygon fill="#efefef" stroke="none" points="1005.21,-243.4 1005.21,-279 1252.67,-279 1252.67,-243.4 1005.21,-243.4"/>
<polygon fill="none" stroke="black" points="1005.21,-243.4 1005.21,-279 1252.67,-279 1252.67,-243.4 1005.21,-243.4"/>
<text text-anchor="start" x="1012.21" y="-256.8" font-family="Arial Bold" font-size="18.00">comment_stars</text>
<text text-anchor="start" x="1121.18" y="-256.8" font-family="Arial" font-size="14.00">    </text>
<text text-anchor="start" x="1152.3" y="-256.8" font-family="Arial" font-size="14.00" fill="#666666">[BASE TABLE]</text>
<polygon fill="none" stroke="black" points="1005.21,-212.6 1005.21,-243.4 1252.67,-243.4 1252.67,-212.6 1005.21,-212.6"/>
<text text-anchor="start" x="1012.21" y="-224.8" font-family="Arial" font-size="14.00">id </text>
<text text-anchor="start" x="1026.99" y="-224.8" font-family="Arial" font-size="14.00" fill="#666666">[bigint]</text>
<polygon fill="none" stroke="black" points="1005.21,-181.8 1005.21,-212.6 1252.67,-212.6 1252.67,-181.8 1005.21,-181.8"/>
<text text-anchor="start" x="1012.21" y="-194" font-family="Arial" font-size="14.00">user_id </text>
<text text-anchor="start" x="1062.02" y="-194" font-family="Arial" font-size="14.00" fill="#666666">[int]</text>
<polygon fill="none" stroke="black" points="1005.21,-151 1005.21,-181.8 1252.67,-181.8 1252.67,-151 1005.21,-151"/>
<text text-anchor="start" x="1012.21" y="-163.2" font-family="Arial" font-size="14.00">comment_post_id </text>
<text text-anchor="start" x="1126.6" y="-163.2" font-family="Arial" font-size="14.00" fill="#666666">[bigint]</text>
<polygon fill="none" stroke="black" points="1005.21,-120.2 1005.21,-151 1252.67,-151 1252.67,-120.2 1005.21,-120.2"/>
<text text-anchor="start" x="1012.21" y="-132.4" font-family="Arial" font-size="14.00">comment_user_id </text>
<text text-anchor="start" x="1127.37" y="-132.4" font-family="Arial" font-size="14.00" fill="#666666">[int]</text>
<polygon fill="none" stroke="black" points="1005.21,-89.4 1005.21,-120.2 1252.67,-120.2 1252.67,-89.4 1005.21,-89.4"/>
<text text-anchor="start" x="1012.21" y="-101.6" font-family="Arial" font-size="14.00">created </text>
<text text-anchor="start" x="1062.79" y="-101.6" font-family="Arial" font-size="14.00" fill="#666666">[timestamp]</text>
<polygon fill="none" stroke="black" points="1005.21,-58.6 1005.21,-89.4 1252.67,-89.4 1252.67,-58.6 1005.21,-58.6"/>
<text text-anchor="start" x="1012.21" y="-70.8" font-family="Arial" font-size="14.00">updated </text>
<text text-anchor="start" x="1066.7" y="-70.8" font-family="Arial" font-size="14.00" fill="#666666">[timestamp]</text>
</g>
<!-- logs&#45;&gt;comment_stars -->
<g id="edge4" class="edge">
<title>logs:comment_star_id&#45;&gt;comment_stars:id</title>
<path fill="none" stroke="black" stroke-dasharray="5,2" d="M719.58,-496.66C840.24,-493.41 870.44,-432.64 952.94,-337.6 988.19,-296.99 950.43,-228 1004.21,-228"/>
<polygon fill="black" stroke="black" points="719.52,-496.66 709.46,-492.3 714.19,-496.73 709.86,-496.79 709.86,-496.79 709.86,-496.79 714.19,-496.73 709.58,-501.3 719.52,-496.66"/>
<text text-anchor="start" x="716.19" y="-506.8" font-family="Arial" font-size="10.00">Additional Relation</text>
</g>
</g>
</svg>
