<?xml version="1.0" encoding="UTF-8" standalone="no"?>
<!DOCTYPE svg PUBLIC "-//W3C//DTD SVG 1.1//EN"
 "http://www.w3.org/Graphics/SVG/1.1/DTD/svg11.dtd">
<!-- Generated by graphviz version 2.40.1 (20161225.0304)
 -->
<!-- Title: long_long_long_long_long_long_long_long_table_name Pages: 1 -->
<svg width="657pt" height="195pt"
 viewBox="0.00 0.00 657.00 195.00" xmlns="http://www.w3.org/2000/svg" xmlns:xlink="http://www.w3.org/1999/xlink">
<g id="graph0" class="graph" transform="scale(1 1) rotate(0) translate(4 191)">
<title>long_long_long_long_long_long_long_long_table_name</title>
<polygon fill="#ffffff" stroke="transparent" points="-4,4 -4,-191 653,-191 653,4 -4,4"/>
<!-- long_long_long_long_long_long_long_long_table_name -->
<g id="node1" class="node">
<title>long_long_long_long_long_long_long_long_table_name</title>
<polygon fill="#efefef" stroke="transparent" points="46.5,-105.5 46.5,-140.5 603.5,-140.5 603.5,-105.5 46.5,-105.5"/>
<polygon fill="none" stroke="#000000" points="46.5,-105.5 46.5,-140.5 603.5,-140.5 603.5,-105.5 46.5,-105.5"/>
<text text-anchor="start" x="53.2811" y="-118.3" font-family="Arial Bold" font-size="18.00" fill="#000000">long_long_long_long_long_long_long_long_table_name</text>
<text text-anchor="start" x="499.4651" y="-118.3" font-family="Arial" font-size="14.00" fill="#000000"> </text>
<text text-anchor="start" x="503.3557" y="-118.3" font-family="Arial" font-size="14.00" fill="#666666">[BASE TABLE]</text>
<polygon fill="none" stroke="#000000" points="46.5,-75.5 46.5,-105.5 603.5,-105.5 603.5,-75.5 46.5,-75.5"/>
<text text-anchor="start" x="53.5" y="-86.9" font-family="Arial" font-size="14.00" fill="#000000">id </text>
<text text-anchor="start" x="68.2798" y="-86.9" font-family="Arial" font-size="14.00" fill="#666666">[bigint]</text>
<polygon fill="none" stroke="#000000" points="46.5,-45.5 46.5,-75.5 603.5,-75.5 603.5,-45.5 46.5,-45.5"/>
<text text-anchor="start" x="53.5" y="-56.9" font-family="Arial" font-size="14.00" fill="#000000">created </text>
<text text-anchor="start" x="104.0722" y="-56.9" font-family="Arial" font-size="14.00" fill="#666666">[datetime]</text>
<polygon fill="none" stroke="#000000" stroke-width="3" points="44.5,-44.5 44.5,-142.5 604.5,-142.5 604.5,-44.5 44.5,-44.5"/>
</g>
</g>
</svg>
