<?xml version="1.0" encoding="UTF-8" standalone="no"?>
<!DOCTYPE svg PUBLIC "-//W3C//DTD SVG 1.1//EN"
 "http://www.w3.org/Graphics/SVG/1.1/DTD/svg11.dtd">
<!-- Generated by graphviz version 12.1.2 (20240928.0832)
 -->
<!-- Title: testdb Pages: 1 -->
<svg width="1952pt" height="1778pt"
 viewBox="0.00 0.00 1951.65 1778.40" xmlns="http://www.w3.org/2000/svg" xmlns:xlink="http://www.w3.org/1999/xlink">
<g id="graph0" class="graph" transform="scale(1 1) rotate(0) translate(4 1774.4)">
<title>testdb</title>
<polygon fill="white" stroke="none" points="-4,4 -4,-1774.4 1947.65,-1774.4 1947.65,4 -4,4"/>
<!-- CamelizeTable -->
<g id="node1" class="node">
<title>CamelizeTable</title>
<polygon fill="#efefef" stroke="none" points="43.2,-1614.6 43.2,-1650.2 290.63,-1650.2 290.63,-1614.6 43.2,-1614.6"/>
<polygon fill="none" stroke="black" points="43.2,-1614.6 43.2,-1650.2 290.63,-1650.2 290.63,-1614.6 43.2,-1614.6"/>
<text text-anchor="start" x="50.2" y="-1628" font-family="Arial Bold" font-size="18.00">CamelizeTable</text>
<text text-anchor="start" x="159.14" y="-1628" font-family="Arial" font-size="14.00">    </text>
<text text-anchor="start" x="190.26" y="-1628" font-family="Arial" font-size="14.00" fill="#666666">[BASE TABLE]</text>
<polygon fill="none" stroke="black" points="43.2,-1583.8 43.2,-1614.6 290.63,-1614.6 290.63,-1583.8 43.2,-1583.8"/>
<text text-anchor="start" x="50.2" y="-1596" font-family="Arial" font-size="14.00">id    </text>
<text text-anchor="start" x="92.21" y="-1596" font-family="Arial" font-size="14.00" fill="#666666">[bigint]</text>
<polygon fill="none" stroke="black" points="43.2,-1553 43.2,-1583.8 290.63,-1583.8 290.63,-1553 43.2,-1553"/>
<text text-anchor="start" x="50.2" y="-1565.2" font-family="Arial" font-size="14.00">created    </text>
<text text-anchor="start" x="128.01" y="-1565.2" font-family="Arial" font-size="14.00" fill="#666666">[datetime]</text>
</g>
<!-- comment_stars -->
<g id="node2" class="node">
<title>comment_stars</title>
<polygon fill="#efefef" stroke="none" points="582.18,-1318 582.18,-1353.6 829.65,-1353.6 829.65,-1318 582.18,-1318"/>
<polygon fill="none" stroke="black" points="582.18,-1318 582.18,-1353.6 829.65,-1353.6 829.65,-1318 582.18,-1318"/>
<text text-anchor="start" x="589.18" y="-1331.4" font-family="Arial Bold" font-size="18.00">comment_stars</text>
<text text-anchor="start" x="698.16" y="-1331.4" font-family="Arial" font-size="14.00">    </text>
<text text-anchor="start" x="729.28" y="-1331.4" font-family="Arial" font-size="14.00" fill="#666666">[BASE TABLE]</text>
<polygon fill="none" stroke="black" points="582.18,-1287.2 582.18,-1318 829.65,-1318 829.65,-1287.2 582.18,-1287.2"/>
<text text-anchor="start" x="589.18" y="-1299.4" font-family="Arial" font-size="14.00">id    </text>
<text text-anchor="start" x="631.2" y="-1299.4" font-family="Arial" font-size="14.00" fill="#666666">[bigint]</text>
<polygon fill="none" stroke="black" points="582.18,-1256.4 582.18,-1287.2 829.65,-1287.2 829.65,-1256.4 582.18,-1256.4"/>
<text text-anchor="start" x="589.18" y="-1268.6" font-family="Arial" font-size="14.00">user_id    </text>
<text text-anchor="start" x="666.22" y="-1268.6" font-family="Arial" font-size="14.00" fill="#666666">[int]</text>
<polygon fill="none" stroke="black" points="582.18,-1225.6 582.18,-1256.4 829.65,-1256.4 829.65,-1225.6 582.18,-1225.6"/>
<text text-anchor="start" x="589.18" y="-1237.8" font-family="Arial" font-size="14.00">comment_post_id    </text>
<text text-anchor="start" x="730.8" y="-1237.8" font-family="Arial" font-size="14.00" fill="#666666">[bigint]</text>
<polygon fill="none" stroke="black" points="582.18,-1194.8 582.18,-1225.6 829.65,-1225.6 829.65,-1194.8 582.18,-1194.8"/>
<text text-anchor="start" x="589.18" y="-1207" font-family="Arial" font-size="14.00">comment_user_id    </text>
<text text-anchor="start" x="731.58" y="-1207" font-family="Arial" font-size="14.00" fill="#666666">[int]</text>
<polygon fill="none" stroke="black" points="582.18,-1164 582.18,-1194.8 829.65,-1194.8 829.65,-1164 582.18,-1164"/>
<text text-anchor="start" x="589.18" y="-1176.2" font-family="Arial" font-size="14.00">created    </text>
<text text-anchor="start" x="667" y="-1176.2" font-family="Arial" font-size="14.00" fill="#666666">[timestamp]</text>
<polygon fill="none" stroke="black" points="582.18,-1133.2 582.18,-1164 829.65,-1164 829.65,-1133.2 582.18,-1133.2"/>
<text text-anchor="start" x="589.18" y="-1145.4" font-family="Arial" font-size="14.00">updated    </text>
<text text-anchor="start" x="670.91" y="-1145.4" font-family="Arial" font-size="14.00" fill="#666666">[timestamp]</text>
</g>
<!-- comments -->
<g id="node3" class="node">
<title>comments</title>
<polygon fill="#efefef" stroke="none" points="543.68,-975.2 543.68,-1010.8 756.15,-1010.8 756.15,-975.2 543.68,-975.2"/>
<polygon fill="none" stroke="black" points="543.68,-975.2 543.68,-1010.8 756.15,-1010.8 756.15,-975.2 543.68,-975.2"/>
<text text-anchor="start" x="550.68" y="-988.6" font-family="Arial Bold" font-size="18.00">comments</text>
<text text-anchor="start" x="624.66" y="-988.6" font-family="Arial" font-size="14.00">    </text>
<text text-anchor="start" x="655.78" y="-988.6" font-family="Arial" font-size="14.00" fill="#666666">[BASE TABLE]</text>
<polygon fill="none" stroke="black" points="543.68,-944.4 543.68,-975.2 756.15,-975.2 756.15,-944.4 543.68,-944.4"/>
<text text-anchor="start" x="550.68" y="-956.6" font-family="Arial" font-size="14.00">id    </text>
<text text-anchor="start" x="592.69" y="-956.6" font-family="Arial" font-size="14.00" fill="#666666">[bigint]</text>
<polygon fill="none" stroke="black" points="543.68,-913.6 543.68,-944.4 756.15,-944.4 756.15,-913.6 543.68,-913.6"/>
<text text-anchor="start" x="550.68" y="-925.8" font-family="Arial" font-size="14.00">post_id    </text>
<text text-anchor="start" x="626.94" y="-925.8" font-family="Arial" font-size="14.00" fill="#666666">[bigint]</text>
<polygon fill="none" stroke="black" points="543.68,-882.8 543.68,-913.6 756.15,-913.6 756.15,-882.8 543.68,-882.8"/>
<text text-anchor="start" x="550.68" y="-895" font-family="Arial" font-size="14.00">user_id    </text>
<text text-anchor="start" x="627.71" y="-895" font-family="Arial" font-size="14.00" fill="#666666">[int]</text>
<polygon fill="none" stroke="black" points="543.68,-852 543.68,-882.8 756.15,-882.8 756.15,-852 543.68,-852"/>
<text text-anchor="start" x="550.68" y="-864.2" font-family="Arial" font-size="14.00">comment    </text>
<text text-anchor="start" x="639.37" y="-864.2" font-family="Arial" font-size="14.00" fill="#666666">[text]</text>
<polygon fill="none" stroke="black" points="543.68,-821.2 543.68,-852 756.15,-852 756.15,-821.2 543.68,-821.2"/>
<text text-anchor="start" x="550.68" y="-833.4" font-family="Arial" font-size="14.00">post_id_desc    </text>
<text text-anchor="start" x="664.3" y="-833.4" font-family="Arial" font-size="14.00" fill="#666666">[bigint]</text>
<polygon fill="none" stroke="black" points="543.68,-790.4 543.68,-821.2 756.15,-821.2 756.15,-790.4 543.68,-790.4"/>
<text text-anchor="start" x="550.68" y="-802.6" font-family="Arial" font-size="14.00">created    </text>
<text text-anchor="start" x="628.49" y="-802.6" font-family="Arial" font-size="14.00" fill="#666666">[datetime]</text>
<polygon fill="none" stroke="black" points="543.68,-759.6 543.68,-790.4 756.15,-790.4 756.15,-759.6 543.68,-759.6"/>
<text text-anchor="start" x="550.68" y="-771.8" font-family="Arial" font-size="14.00">updated    </text>
<text text-anchor="start" x="632.4" y="-771.8" font-family="Arial" font-size="14.00" fill="#666666">[datetime]</text>
</g>
<!-- comment_stars&#45;&gt;comments -->
<g id="edge2" class="edge">
<title>comment_stars:comment_post_id&#45;&gt;comments:post_id</title>
<path fill="none" stroke="black" d="M570.99,-1240.13C516.92,-1230.3 541.96,-1139.06 582.18,-1090 632.24,-1028.94 706.05,-1115.03 756.15,-1054 791.4,-1011.06 812.71,-929 757.15,-929"/>
<polygon fill="black" stroke="black" points="570.88,-1240.13 580.47,-1245.46 576.2,-1240.58 580.52,-1240.94 580.52,-1240.94 580.52,-1240.94 576.2,-1240.58 581.23,-1236.49 570.88,-1240.13"/>
<text text-anchor="start" x="132.37" y="-1251" font-family="Arial" font-size="10.00">FOREIGN KEY (comment_post_id, comment_user_id) REFERENCES comments (post_id, user_id)</text>
</g>
<!-- users -->
<g id="node10" class="node">
<title>users</title>
<polygon fill="#efefef" stroke="none" points="695.55,-228 695.55,-263.6 882.28,-263.6 882.28,-228 695.55,-228"/>
<polygon fill="none" stroke="black" points="695.55,-228 695.55,-263.6 882.28,-263.6 882.28,-228 695.55,-228"/>
<text text-anchor="start" x="708.17" y="-241.4" font-family="Arial Bold" font-size="18.00">users</text>
<text text-anchor="start" x="745.17" y="-241.4" font-family="Arial" font-size="14.00">    </text>
<text text-anchor="start" x="776.28" y="-241.4" font-family="Arial" font-size="14.00" fill="#666666">[BASE TABLE]</text>
<polygon fill="none" stroke="black" points="695.55,-197.2 695.55,-228 882.28,-228 882.28,-197.2 695.55,-197.2"/>
<text text-anchor="start" x="702.55" y="-209.4" font-family="Arial" font-size="14.00">id    </text>
<text text-anchor="start" x="744.56" y="-209.4" font-family="Arial" font-size="14.00" fill="#666666">[int]</text>
<polygon fill="none" stroke="black" points="695.55,-166.4 695.55,-197.2 882.28,-197.2 882.28,-166.4 695.55,-166.4"/>
<text text-anchor="start" x="702.55" y="-178.6" font-family="Arial" font-size="14.00">username    </text>
<text text-anchor="start" x="795.92" y="-178.6" font-family="Arial" font-size="14.00" fill="#666666">[varchar(50)]</text>
<polygon fill="none" stroke="black" points="695.55,-135.6 695.55,-166.4 882.28,-166.4 882.28,-135.6 695.55,-135.6"/>
<text text-anchor="start" x="702.55" y="-147.8" font-family="Arial" font-size="14.00">password    </text>
<text text-anchor="start" x="793.58" y="-147.8" font-family="Arial" font-size="14.00" fill="#666666">[varchar(50)]</text>
<polygon fill="none" stroke="black" points="695.55,-104.8 695.55,-135.6 882.28,-135.6 882.28,-104.8 695.55,-104.8"/>
<text text-anchor="start" x="702.55" y="-117" font-family="Arial" font-size="14.00">email    </text>
<text text-anchor="start" x="767.12" y="-117" font-family="Arial" font-size="14.00" fill="#666666">[varchar(355)]</text>
<polygon fill="none" stroke="black" points="695.55,-74 695.55,-104.8 882.28,-104.8 882.28,-74 695.55,-74"/>
<text text-anchor="start" x="702.55" y="-86.2" font-family="Arial" font-size="14.00">created    </text>
<text text-anchor="start" x="780.36" y="-86.2" font-family="Arial" font-size="14.00" fill="#666666">[timestamp]</text>
<polygon fill="none" stroke="black" points="695.55,-43.2 695.55,-74 882.28,-74 882.28,-43.2 695.55,-43.2"/>
<text text-anchor="start" x="702.55" y="-55.4" font-family="Arial" font-size="14.00">updated    </text>
<text text-anchor="start" x="784.27" y="-55.4" font-family="Arial" font-size="14.00" fill="#666666">[timestamp]</text>
</g>
<!-- comment_stars&#45;&gt;users -->
<g id="edge1" class="edge">
<title>comment_stars:comment_user_id&#45;&gt;users:id</title>
<path fill="none" stroke="black" d="M834.69,-1200.7C852.57,-1107.76 837.03,-363.57 845.91,-342.8 854.86,-321.89 873.41,-327.74 882.28,-306.8 898.61,-268.24 925.15,-212.6 883.28,-212.6"/>
<polygon fill="black" stroke="black" points="834.69,-1200.69 826.64,-1208.13 832.6,-1205.6 830.91,-1209.58 830.91,-1209.58 830.91,-1209.58 832.6,-1205.6 834.92,-1211.65 834.69,-1200.69"/>
<text text-anchor="start" x="837.65" y="-1220.2" font-family="Arial" font-size="10.00">FOREIGN KEY (comment_user_id) REFERENCES users (id)</text>
</g>
<!-- posts -->
<g id="node8" class="node">
<title>posts</title>
<polygon fill="#efefef" stroke="none" points="429.72,-601.6 429.72,-637.2 718.11,-637.2 718.11,-601.6 429.72,-601.6"/>
<polygon fill="none" stroke="black" points="429.72,-601.6 429.72,-637.2 718.11,-637.2 718.11,-601.6 429.72,-601.6"/>
<text text-anchor="start" x="493.16" y="-615" font-family="Arial Bold" font-size="18.00">posts</text>
<text text-anchor="start" x="530.18" y="-615" font-family="Arial" font-size="14.00">    </text>
<text text-anchor="start" x="561.29" y="-615" font-family="Arial" font-size="14.00" fill="#666666">[BASE TABLE]</text>
<polygon fill="none" stroke="black" points="429.72,-570.8 429.72,-601.6 718.11,-601.6 718.11,-570.8 429.72,-570.8"/>
<text text-anchor="start" x="436.72" y="-583" font-family="Arial" font-size="14.00">id    </text>
<text text-anchor="start" x="478.74" y="-583" font-family="Arial" font-size="14.00" fill="#666666">[bigint]</text>
<polygon fill="none" stroke="black" points="429.72,-540 429.72,-570.8 718.11,-570.8 718.11,-540 429.72,-540"/>
<text text-anchor="start" x="436.72" y="-552.2" font-family="Arial" font-size="14.00">user_id    </text>
<text text-anchor="start" x="513.76" y="-552.2" font-family="Arial" font-size="14.00" fill="#666666">[int]</text>
<polygon fill="none" stroke="black" points="429.72,-509.2 429.72,-540 718.11,-540 718.11,-509.2 429.72,-509.2"/>
<text text-anchor="start" x="436.72" y="-521.4" font-family="Arial" font-size="14.00">title    </text>
<text text-anchor="start" x="489.63" y="-521.4" font-family="Arial" font-size="14.00" fill="#666666">[varchar(255)]</text>
<polygon fill="none" stroke="black" points="429.72,-478.4 429.72,-509.2 718.11,-509.2 718.11,-478.4 429.72,-478.4"/>
<text text-anchor="start" x="436.72" y="-490.6" font-family="Arial" font-size="14.00">body    </text>
<text text-anchor="start" x="498.2" y="-490.6" font-family="Arial" font-size="14.00" fill="#666666">[text]</text>
<polygon fill="none" stroke="black" points="429.72,-447.6 429.72,-478.4 718.11,-478.4 718.11,-447.6 429.72,-447.6"/>
<text text-anchor="start" x="436.72" y="-459.8" font-family="Arial" font-size="14.00">post_type    </text>
<text text-anchor="start" x="528.55" y="-459.8" font-family="Arial" font-size="14.00" fill="#666666">[enum(&#39;public&#39;,&#39;private&#39;,&#39;draft&#39;)]</text>
<polygon fill="none" stroke="black" points="429.72,-416.8 429.72,-447.6 718.11,-447.6 718.11,-416.8 429.72,-416.8"/>
<text text-anchor="start" x="436.72" y="-429" font-family="Arial" font-size="14.00">created    </text>
<text text-anchor="start" x="514.54" y="-429" font-family="Arial" font-size="14.00" fill="#666666">[datetime]</text>
<polygon fill="none" stroke="black" points="429.72,-386 429.72,-416.8 718.11,-416.8 718.11,-386 429.72,-386"/>
<text text-anchor="start" x="436.72" y="-398.2" font-family="Arial" font-size="14.00">updated    </text>
<text text-anchor="start" x="518.45" y="-398.2" font-family="Arial" font-size="14.00" fill="#666666">[datetime]</text>
</g>
<!-- comments&#45;&gt;posts -->
<g id="edge3" class="edge">
<title>comments:post_id&#45;&gt;posts:id</title>
<path fill="none" stroke="black" d="M532.78,-925.93C498.37,-902.34 516.09,-750.1 543.68,-716.4 593.82,-655.15 667.78,-741.5 718.11,-680.4 744.72,-648.08 760.97,-586.2 719.11,-586.2"/>
<polygon fill="black" stroke="black" points="532.81,-925.94 541.02,-933.2 537.9,-927.52 542.04,-928.8 542.04,-928.8 542.04,-928.8 537.9,-927.52 543.69,-924.6 532.81,-925.94"/>
<text text-anchor="start" x="310.62" y="-939" font-family="Arial" font-size="10.00">FOREIGN KEY (post_id) REFERENCES posts (id)</text>
</g>
<!-- comments&#45;&gt;users -->
<g id="edge4" class="edge">
<title>comments:user_id&#45;&gt;users:id</title>
<path fill="none" stroke="black" d="M767.39,-897.05C873.29,-871.97 745.32,-442.44 812.91,-342.8 832.41,-314.06 864.09,-336.39 882.28,-306.8 904.21,-271.14 925.15,-212.6 883.28,-212.6"/>
<polygon fill="black" stroke="black" points="767.42,-897.05 756.98,-893.69 762.12,-897.64 757.82,-898.13 757.82,-898.13 757.82,-898.13 762.12,-897.64 757.99,-902.63 767.42,-897.05"/>
<text text-anchor="start" x="764.15" y="-908.2" font-family="Arial" font-size="10.00">FOREIGN KEY (user_id) REFERENCES users (id)</text>
</g>
<!-- hyphen&#45;table -->
<g id="node4" class="node">
<title>hyphen&#45;table</title>
<polygon fill="#efefef" stroke="none" points="692.69,-1630 692.69,-1665.6 925.14,-1665.6 925.14,-1630 692.69,-1630"/>
<polygon fill="none" stroke="black" points="692.69,-1630 692.69,-1665.6 925.14,-1665.6 925.14,-1630 692.69,-1630"/>
<text text-anchor="start" x="699.69" y="-1643.4" font-family="Arial Bold" font-size="18.00">hyphen&#45;table</text>
<text text-anchor="start" x="793.65" y="-1643.4" font-family="Arial" font-size="14.00">    </text>
<text text-anchor="start" x="824.77" y="-1643.4" font-family="Arial" font-size="14.00" fill="#666666">[BASE TABLE]</text>
<polygon fill="none" stroke="black" points="692.69,-1599.2 692.69,-1630 925.14,-1630 925.14,-1599.2 692.69,-1599.2"/>
<text text-anchor="start" x="699.69" y="-1611.4" font-family="Arial" font-size="14.00">id    </text>
<text text-anchor="start" x="741.7" y="-1611.4" font-family="Arial" font-size="14.00" fill="#666666">[bigint]</text>
<polygon fill="none" stroke="black" points="692.69,-1568.4 692.69,-1599.2 925.14,-1599.2 925.14,-1568.4 692.69,-1568.4"/>
<text text-anchor="start" x="699.69" y="-1580.6" font-family="Arial" font-size="14.00">hyphen&#45;column    </text>
<text text-anchor="start" x="826.53" y="-1580.6" font-family="Arial" font-size="14.00" fill="#666666">[text]</text>
<polygon fill="none" stroke="black" points="692.69,-1537.6 692.69,-1568.4 925.14,-1568.4 925.14,-1537.6 692.69,-1537.6"/>
<text text-anchor="start" x="699.69" y="-1549.8" font-family="Arial" font-size="14.00">created    </text>
<text text-anchor="start" x="777.5" y="-1549.8" font-family="Arial" font-size="14.00" fill="#666666">[datetime]</text>
</g>
<!-- logs -->
<g id="node5" class="node">
<title>logs</title>
<polygon fill="#efefef" stroke="none" points="395.04,-1691.6 395.04,-1727.2 588.79,-1727.2 588.79,-1691.6 395.04,-1691.6"/>
<polygon fill="none" stroke="black" points="395.04,-1691.6 395.04,-1727.2 588.79,-1727.2 588.79,-1691.6 395.04,-1691.6"/>
<text text-anchor="start" x="414.67" y="-1705" font-family="Arial Bold" font-size="18.00">logs</text>
<text text-anchor="start" x="444.67" y="-1705" font-family="Arial" font-size="14.00">    </text>
<text text-anchor="start" x="475.79" y="-1705" font-family="Arial" font-size="14.00" fill="#666666">[BASE TABLE]</text>
<polygon fill="none" stroke="black" points="395.04,-1660.8 395.04,-1691.6 588.79,-1691.6 588.79,-1660.8 395.04,-1660.8"/>
<text text-anchor="start" x="402.04" y="-1673" font-family="Arial" font-size="14.00">id    </text>
<text text-anchor="start" x="444.06" y="-1673" font-family="Arial" font-size="14.00" fill="#666666">[bigint]</text>
<polygon fill="none" stroke="black" points="395.04,-1630 395.04,-1660.8 588.79,-1660.8 588.79,-1630 395.04,-1630"/>
<text text-anchor="start" x="402.04" y="-1642.2" font-family="Arial" font-size="14.00">user_id    </text>
<text text-anchor="start" x="479.08" y="-1642.2" font-family="Arial" font-size="14.00" fill="#666666">[int]</text>
<polygon fill="none" stroke="black" points="395.04,-1599.2 395.04,-1630 588.79,-1630 588.79,-1599.2 395.04,-1599.2"/>
<text text-anchor="start" x="402.04" y="-1611.4" font-family="Arial" font-size="14.00">post_id    </text>
<text text-anchor="start" x="478.3" y="-1611.4" font-family="Arial" font-size="14.00" fill="#666666">[bigint]</text>
<polygon fill="none" stroke="black" points="395.04,-1568.4 395.04,-1599.2 588.79,-1599.2 588.79,-1568.4 395.04,-1568.4"/>
<text text-anchor="start" x="402.04" y="-1580.6" font-family="Arial" font-size="14.00">comment_id    </text>
<text text-anchor="start" x="509.41" y="-1580.6" font-family="Arial" font-size="14.00" fill="#666666">[bigint]</text>
<polygon fill="none" stroke="black" points="395.04,-1537.6 395.04,-1568.4 588.79,-1568.4 588.79,-1537.6 395.04,-1537.6"/>
<text text-anchor="start" x="402.04" y="-1549.8" font-family="Arial" font-size="14.00">comment_star_id    </text>
<text text-anchor="start" x="540.54" y="-1549.8" font-family="Arial" font-size="14.00" fill="#666666">[bigint]</text>
<polygon fill="none" stroke="black" points="395.04,-1506.8 395.04,-1537.6 588.79,-1537.6 588.79,-1506.8 395.04,-1506.8"/>
<text text-anchor="start" x="402.04" y="-1519" font-family="Arial" font-size="14.00">payload    </text>
<text text-anchor="start" x="482.2" y="-1519" font-family="Arial" font-size="14.00" fill="#666666">[text]</text>
<polygon fill="none" stroke="black" points="395.04,-1476 395.04,-1506.8 588.79,-1506.8 588.79,-1476 395.04,-1476"/>
<text text-anchor="start" x="402.04" y="-1488.2" font-family="Arial" font-size="14.00">created    </text>
<text text-anchor="start" x="479.86" y="-1488.2" font-family="Arial" font-size="14.00" fill="#666666">[datetime]</text>
</g>
<!-- logs&#45;&gt;comment_stars -->
<g id="edge10" class="edge">
<title>logs:comment_star_id&#45;&gt;comment_stars:id</title>
<path fill="none" stroke="black" stroke-dasharray="5,2" d="M599.97,-1552.24C651.78,-1543.54 588.48,-1462.2 582.18,-1396.8 578.17,-1355.12 539.31,-1302.6 581.18,-1302.6"/>
<polygon fill="black" stroke="black" points="600.09,-1552.23 589.78,-1548.49 594.77,-1552.63 590.45,-1552.95 590.45,-1552.95 590.45,-1552.95 594.77,-1552.63 590.46,-1557.46 600.09,-1552.23"/>
<text text-anchor="start" x="596.79" y="-1563" font-family="Arial" font-size="10.00">Additional Relation</text>
</g>
<!-- logs&#45;&gt;comments -->
<g id="edge9" class="edge">
<title>logs:comment_id&#45;&gt;comments:id</title>
<path fill="none" stroke="black" stroke-dasharray="5,2" d="M599.9,-1582.99C653.07,-1573.78 620,-1488.04 588.79,-1432.8 573.7,-1406.1 544.91,-1423.55 529.91,-1396.8 463.23,-1277.86 523.26,-1226.19 529.91,-1090 532.75,-1031.93 484.53,-959.8 542.68,-959.8"/>
<polygon fill="black" stroke="black" points="600.09,-1582.97 589.76,-1579.29 594.77,-1583.4 590.45,-1583.75 590.45,-1583.75 590.45,-1583.75 594.77,-1583.4 590.48,-1588.26 600.09,-1582.97"/>
<text text-anchor="start" x="596.79" y="-1593.8" font-family="Arial" font-size="10.00">Additional Relation</text>
</g>
<!-- logs&#45;&gt;posts -->
<g id="edge8" class="edge">
<title>logs:post_id&#45;&gt;posts:id</title>
<path fill="none" stroke="black" stroke-dasharray="5,2" d="M389.78,-1605.08C369.37,-1501.4 401.76,-586.2 428.72,-586.2"/>
<polygon fill="black" stroke="black" points="389.82,-1605.17 389.8,-1616.13 392,-1610.04 393.77,-1613.99 393.77,-1613.99 393.77,-1613.99 392,-1610.04 398.01,-1612.46 389.82,-1605.17"/>
<text text-anchor="start" x="303.65" y="-1624.6" font-family="Arial" font-size="10.00">Additional Relation</text>
</g>
<!-- logs&#45;&gt;users -->
<g id="edge7" class="edge">
<title>logs:user_id&#45;&gt;users:id</title>
<path fill="none" stroke="black" stroke-dasharray="5,2" d="M385.58,-1639.3C323.02,-1545.47 339.28,-400.46 377.91,-342.8 462.61,-216.39 542.39,-212.6 694.55,-212.6"/>
<polygon fill="black" stroke="black" points="385.66,-1639.36 391.14,-1648.85 389.99,-1642.48 393.5,-1645.01 393.5,-1645.01 393.5,-1645.01 389.99,-1642.48 396.4,-1641.55 385.66,-1639.36"/>
<text text-anchor="start" x="401.04" y="-1655.4" font-family="Arial" font-size="10.00">logs&#45;&gt;users</text>
</g>
<!-- long_long_long_long_long_long_long_long_table_name -->
<g id="node6" class="node">
<title>long_long_long_long_long_long_long_long_table_name</title>
<polygon fill="#efefef" stroke="none" points="1029.19,-1614.6 1029.19,-1650.2 1578.64,-1650.2 1578.64,-1614.6 1029.19,-1614.6"/>
<polygon fill="none" stroke="black" points="1029.19,-1614.6 1029.19,-1650.2 1578.64,-1650.2 1578.64,-1614.6 1029.19,-1614.6"/>
<text text-anchor="start" x="1036.19" y="-1628" font-family="Arial Bold" font-size="18.00">long_long_long_long_long_long_long_long_table_name</text>
<text text-anchor="start" x="1447.15" y="-1628" font-family="Arial" font-size="14.00">    </text>
<text text-anchor="start" x="1478.27" y="-1628" font-family="Arial" font-size="14.00" fill="#666666">[BASE TABLE]</text>
<polygon fill="none" stroke="black" points="1029.19,-1583.8 1029.19,-1614.6 1578.64,-1614.6 1578.64,-1583.8 1029.19,-1583.8"/>
<text text-anchor="start" x="1036.19" y="-1596" font-family="Arial" font-size="14.00">id    </text>
<text text-anchor="start" x="1078.2" y="-1596" font-family="Arial" font-size="14.00" fill="#666666">[bigint]</text>
<polygon fill="none" stroke="black" points="1029.19,-1553 1029.19,-1583.8 1578.64,-1583.8 1578.64,-1553 1029.19,-1553"/>
<text text-anchor="start" x="1036.19" y="-1565.2" font-family="Arial" font-size="14.00">created    </text>
<text text-anchor="start" x="1114" y="-1565.2" font-family="Arial" font-size="14.00" fill="#666666">[datetime]</text>
</g>
<!-- post_comments -->
<g id="node7" class="node">
<title>post_comments</title>
<polygon fill="#efefef" stroke="none" points="1683.38,-1691.6 1683.38,-1727.2 1900.45,-1727.2 1900.45,-1691.6 1683.38,-1691.6"/>
<polygon fill="none" stroke="black" points="1683.38,-1691.6 1683.38,-1727.2 1900.45,-1727.2 1900.45,-1691.6 1683.38,-1691.6"/>
<text text-anchor="start" x="1698.08" y="-1705" font-family="Arial Bold" font-size="18.00">post_comments</text>
<text text-anchor="start" x="1811.07" y="-1705" font-family="Arial" font-size="14.00">    </text>
<text text-anchor="start" x="1842.19" y="-1705" font-family="Arial" font-size="14.00" fill="#666666">[VIEW]</text>
<polygon fill="none" stroke="black" points="1683.38,-1660.8 1683.38,-1691.6 1900.45,-1691.6 1900.45,-1660.8 1683.38,-1660.8"/>
<text text-anchor="start" x="1690.38" y="-1673" font-family="Arial" font-size="14.00">id    </text>
<text text-anchor="start" x="1732.39" y="-1673" font-family="Arial" font-size="14.00" fill="#666666">[bigint]</text>
<polygon fill="none" stroke="black" points="1683.38,-1630 1683.38,-1660.8 1900.45,-1660.8 1900.45,-1630 1683.38,-1630"/>
<text text-anchor="start" x="1690.38" y="-1642.2" font-family="Arial" font-size="14.00">title    </text>
<text text-anchor="start" x="1743.28" y="-1642.2" font-family="Arial" font-size="14.00" fill="#666666">[varchar(255)]</text>
<polygon fill="none" stroke="black" points="1683.38,-1599.2 1683.38,-1630 1900.45,-1630 1900.45,-1599.2 1683.38,-1599.2"/>
<text text-anchor="start" x="1690.38" y="-1611.4" font-family="Arial" font-size="14.00">post_user    </text>
<text text-anchor="start" x="1782.98" y="-1611.4" font-family="Arial" font-size="14.00" fill="#666666">[varchar(50)]</text>
<polygon fill="none" stroke="black" points="1683.38,-1568.4 1683.38,-1599.2 1900.45,-1599.2 1900.45,-1568.4 1683.38,-1568.4"/>
<text text-anchor="start" x="1690.38" y="-1580.6" font-family="Arial" font-size="14.00">comment    </text>
<text text-anchor="start" x="1779.07" y="-1580.6" font-family="Arial" font-size="14.00" fill="#666666">[text]</text>
<polygon fill="none" stroke="black" points="1683.38,-1537.6 1683.38,-1568.4 1900.45,-1568.4 1900.45,-1537.6 1683.38,-1537.6"/>
<text text-anchor="start" x="1690.38" y="-1549.8" font-family="Arial" font-size="14.00">comment_user    </text>
<text text-anchor="start" x="1814.09" y="-1549.8" font-family="Arial" font-size="14.00" fill="#666666">[varchar(50)]</text>
<polygon fill="none" stroke="black" points="1683.38,-1506.8 1683.38,-1537.6 1900.45,-1537.6 1900.45,-1506.8 1683.38,-1506.8"/>
<text text-anchor="start" x="1690.38" y="-1519" font-family="Arial" font-size="14.00">created    </text>
<text text-anchor="start" x="1768.19" y="-1519" font-family="Arial" font-size="14.00" fill="#666666">[datetime]</text>
<polygon fill="none" stroke="black" points="1683.38,-1476 1683.38,-1506.8 1900.45,-1506.8 1900.45,-1476 1683.38,-1476"/>
<text text-anchor="start" x="1690.38" y="-1488.2" font-family="Arial" font-size="14.00">updated    </text>
<text text-anchor="start" x="1772.1" y="-1488.2" font-family="Arial" font-size="14.00" fill="#666666">[datetime]</text>
</g>
<!-- posts&#45;&gt;users -->
<g id="edge5" class="edge">
<title>posts:user_id&#45;&gt;users:id</title>
<path fill="none" stroke="black" d="M729.44,-554.85C808.26,-545.93 743.39,-430.01 718.11,-342.8 712.85,-324.67 700.86,-324.92 695.55,-306.8 683.77,-266.62 652.68,-212.6 694.55,-212.6"/>
<polygon fill="black" stroke="black" points="729.43,-554.85 719.2,-550.89 724.1,-555.13 719.77,-555.36 719.77,-555.36 719.77,-555.36 724.1,-555.13 719.68,-559.88 729.43,-554.85"/>
<text text-anchor="start" x="726.11" y="-565.4" font-family="Arial" font-size="10.00">FOREIGN KEY (user_id) REFERENCES users (id)</text>
</g>
<!-- user_options -->
<g id="node9" class="node">
<title>user_options</title>
<polygon fill="#efefef" stroke="none" points="897.67,-555.4 897.67,-591 1128.16,-591 1128.16,-555.4 897.67,-555.4"/>
<polygon fill="none" stroke="black" points="897.67,-555.4 897.67,-591 1128.16,-591 1128.16,-555.4 897.67,-555.4"/>
<text text-anchor="start" x="904.67" y="-568.8" font-family="Arial Bold" font-size="18.00">user_options</text>
<text text-anchor="start" x="996.67" y="-568.8" font-family="Arial" font-size="14.00">    </text>
<text text-anchor="start" x="1027.78" y="-568.8" font-family="Arial" font-size="14.00" fill="#666666">[BASE TABLE]</text>
<polygon fill="none" stroke="black" points="897.67,-524.6 897.67,-555.4 1128.16,-555.4 1128.16,-524.6 897.67,-524.6"/>
<text text-anchor="start" x="904.67" y="-536.8" font-family="Arial" font-size="14.00">user_id    </text>
<text text-anchor="start" x="981.71" y="-536.8" font-family="Arial" font-size="14.00" fill="#666666">[int]</text>
<polygon fill="none" stroke="black" points="897.67,-493.8 897.67,-524.6 1128.16,-524.6 1128.16,-493.8 897.67,-493.8"/>
<text text-anchor="start" x="904.67" y="-506" font-family="Arial" font-size="14.00">show_email    </text>
<text text-anchor="start" x="1009.71" y="-506" font-family="Arial" font-size="14.00" fill="#666666">[tinyint(1)]</text>
<polygon fill="none" stroke="black" points="897.67,-463 897.67,-493.8 1128.16,-493.8 1128.16,-463 897.67,-463"/>
<text text-anchor="start" x="904.67" y="-475.2" font-family="Arial" font-size="14.00">created    </text>
<text text-anchor="start" x="982.49" y="-475.2" font-family="Arial" font-size="14.00" fill="#666666">[timestamp]</text>
<polygon fill="none" stroke="black" points="897.67,-432.2 897.67,-463 1128.16,-463 1128.16,-432.2 897.67,-432.2"/>
<text text-anchor="start" x="904.67" y="-444.4" font-family="Arial" font-size="14.00">updated    </text>
<text text-anchor="start" x="986.4" y="-444.4" font-family="Arial" font-size="14.00" fill="#666666">[timestamp]</text>
</g>
<!-- user_options&#45;&gt;users -->
<g id="edge6" class="edge">
<title>user_options:user_id&#45;&gt;users:id</title>
<path fill="none" stroke="black" d="M886.38,-539.38C764.88,-523.59 1025.22,-212.6 883.28,-212.6"/>
<polygon fill="black" stroke="black" points="886.36,-539.38 896.07,-544.47 891.68,-539.7 896,-539.96 896,-539.96 896,-539.96 891.68,-539.7 896.61,-535.49 886.36,-539.38"/>
<text text-anchor="start" x="783.59" y="-524" font-family="Arial" font-size="10.00">FOREIGN KEY (user_id) REFERENCES users (id)</text>
</g>
</g>
</svg>
