<?xml version="1.0" encoding="UTF-8" standalone="no"?>
<!DOCTYPE svg PUBLIC "-//W3C//DTD SVG 1.1//EN"
 "http://www.w3.org/Graphics/SVG/1.1/DTD/svg11.dtd">
<!-- Generated by graphviz version 2.40.1 (20161225.0304)
 -->
<!-- Title: testdb Pages: 1 -->
<svg width="1208pt" height="1747pt"
 viewBox="0.00 0.00 1208.00 1747.00" xmlns="http://www.w3.org/2000/svg" xmlns:xlink="http://www.w3.org/1999/xlink">
<g id="graph0" class="graph" transform="scale(1 1) rotate(0) translate(4 1743)">
<title>testdb</title>
<polygon fill="#ffffff" stroke="transparent" points="-4,4 -4,-1743 1204,-1743 1204,4 -4,4"/>
<!-- CamelizeTable -->
<g id="node1" class="node">
<title>CamelizeTable</title>
<polygon fill="#efefef" stroke="transparent" points="43.5,-1585.5 43.5,-1620.5 274.5,-1620.5 274.5,-1585.5 43.5,-1585.5"/>
<polygon fill="none" stroke="#000000" points="43.5,-1585.5 43.5,-1620.5 274.5,-1620.5 274.5,-1585.5 43.5,-1585.5"/>
<text text-anchor="start" x="50.3719" y="-1598.3" font-family="Arial Bold" font-size="18.00" fill="#000000">CamelizeTable</text>
<text text-anchor="start" x="170.3743" y="-1598.3" font-family="Arial" font-size="14.00" fill="#000000"> </text>
<text text-anchor="start" x="174.2649" y="-1598.3" font-family="Arial" font-size="14.00" fill="#666666">[BASE TABLE]</text>
<polygon fill="none" stroke="#000000" points="43.5,-1555.5 43.5,-1585.5 274.5,-1585.5 274.5,-1555.5 43.5,-1555.5"/>
<text text-anchor="start" x="50.5" y="-1566.9" font-family="Arial" font-size="14.00" fill="#000000">id </text>
<text text-anchor="start" x="65.2798" y="-1566.9" font-family="Arial" font-size="14.00" fill="#666666">[bigint]</text>
<polygon fill="none" stroke="#000000" points="43.5,-1525.5 43.5,-1555.5 274.5,-1555.5 274.5,-1525.5 43.5,-1525.5"/>
<text text-anchor="start" x="50.5" y="-1536.9" font-family="Arial" font-size="14.00" fill="#000000">created </text>
<text text-anchor="start" x="101.0722" y="-1536.9" font-family="Arial" font-size="14.00" fill="#666666">[datetime]</text>
</g>
<!-- comment_stars -->
<g id="node2" class="node">
<title>comment_stars</title>
<polygon fill="#efefef" stroke="transparent" points="551.5,-1293.5 551.5,-1328.5 785.5,-1328.5 785.5,-1293.5 551.5,-1293.5"/>
<polygon fill="none" stroke="#000000" points="551.5,-1293.5 551.5,-1328.5 785.5,-1328.5 785.5,-1293.5 551.5,-1293.5"/>
<text text-anchor="start" x="558.3671" y="-1306.3" font-family="Arial Bold" font-size="18.00" fill="#000000">comment_stars</text>
<text text-anchor="start" x="681.3791" y="-1306.3" font-family="Arial" font-size="14.00" fill="#000000"> </text>
<text text-anchor="start" x="685.2697" y="-1306.3" font-family="Arial" font-size="14.00" fill="#666666">[BASE TABLE]</text>
<polygon fill="none" stroke="#000000" points="551.5,-1263.5 551.5,-1293.5 785.5,-1293.5 785.5,-1263.5 551.5,-1263.5"/>
<text text-anchor="start" x="558.5" y="-1274.9" font-family="Arial" font-size="14.00" fill="#000000">id </text>
<text text-anchor="start" x="573.2798" y="-1274.9" font-family="Arial" font-size="14.00" fill="#666666">[bigint]</text>
<polygon fill="none" stroke="#000000" points="551.5,-1233.5 551.5,-1263.5 785.5,-1263.5 785.5,-1233.5 551.5,-1233.5"/>
<text text-anchor="start" x="558.5" y="-1244.9" font-family="Arial" font-size="14.00" fill="#000000">user_id </text>
<text text-anchor="start" x="608.2882" y="-1244.9" font-family="Arial" font-size="14.00" fill="#666666">[int]</text>
<polygon fill="none" stroke="#000000" points="551.5,-1203.5 551.5,-1233.5 785.5,-1233.5 785.5,-1203.5 551.5,-1203.5"/>
<text text-anchor="start" x="558.5" y="-1214.9" font-family="Arial" font-size="14.00" fill="#000000">comment_post_id </text>
<text text-anchor="start" x="672.8604" y="-1214.9" font-family="Arial" font-size="14.00" fill="#666666">[bigint]</text>
<polygon fill="none" stroke="#000000" points="551.5,-1173.5 551.5,-1203.5 785.5,-1203.5 785.5,-1173.5 551.5,-1173.5"/>
<text text-anchor="start" x="558.5" y="-1184.9" font-family="Arial" font-size="14.00" fill="#000000">comment_user_id </text>
<text text-anchor="start" x="673.6304" y="-1184.9" font-family="Arial" font-size="14.00" fill="#666666">[int]</text>
<polygon fill="none" stroke="#000000" points="551.5,-1143.5 551.5,-1173.5 785.5,-1173.5 785.5,-1143.5 551.5,-1143.5"/>
<text text-anchor="start" x="558.5" y="-1154.9" font-family="Arial" font-size="14.00" fill="#000000">created </text>
<text text-anchor="start" x="609.0722" y="-1154.9" font-family="Arial" font-size="14.00" fill="#666666">[timestamp]</text>
<polygon fill="none" stroke="#000000" points="551.5,-1113.5 551.5,-1143.5 785.5,-1143.5 785.5,-1113.5 551.5,-1113.5"/>
<text text-anchor="start" x="558.5" y="-1124.9" font-family="Arial" font-size="14.00" fill="#000000">updated </text>
<text text-anchor="start" x="612.9768" y="-1124.9" font-family="Arial" font-size="14.00" fill="#666666">[timestamp]</text>
</g>
<!-- comments -->
<g id="node3" class="node">
<title>comments</title>
<polygon fill="#efefef" stroke="transparent" points="513.5,-956.5 513.5,-991.5 707.5,-991.5 707.5,-956.5 513.5,-956.5"/>
<polygon fill="none" stroke="#000000" points="513.5,-956.5 513.5,-991.5 707.5,-991.5 707.5,-956.5 513.5,-956.5"/>
<text text-anchor="start" x="520.3705" y="-969.3" font-family="Arial Bold" font-size="18.00" fill="#000000">comments</text>
<text text-anchor="start" x="603.3757" y="-969.3" font-family="Arial" font-size="14.00" fill="#000000"> </text>
<text text-anchor="start" x="607.2663" y="-969.3" font-family="Arial" font-size="14.00" fill="#666666">[BASE TABLE]</text>
<polygon fill="none" stroke="#000000" points="513.5,-926.5 513.5,-956.5 707.5,-956.5 707.5,-926.5 513.5,-926.5"/>
<text text-anchor="start" x="520.5" y="-937.9" font-family="Arial" font-size="14.00" fill="#000000">id </text>
<text text-anchor="start" x="535.2798" y="-937.9" font-family="Arial" font-size="14.00" fill="#666666">[bigint]</text>
<polygon fill="none" stroke="#000000" points="513.5,-896.5 513.5,-926.5 707.5,-926.5 707.5,-896.5 513.5,-896.5"/>
<text text-anchor="start" x="520.5" y="-907.9" font-family="Arial" font-size="14.00" fill="#000000">post_id </text>
<text text-anchor="start" x="569.5182" y="-907.9" font-family="Arial" font-size="14.00" fill="#666666">[bigint]</text>
<polygon fill="none" stroke="#000000" points="513.5,-866.5 513.5,-896.5 707.5,-896.5 707.5,-866.5 513.5,-866.5"/>
<text text-anchor="start" x="520.5" y="-877.9" font-family="Arial" font-size="14.00" fill="#000000">user_id </text>
<text text-anchor="start" x="570.2882" y="-877.9" font-family="Arial" font-size="14.00" fill="#666666">[int]</text>
<polygon fill="none" stroke="#000000" points="513.5,-836.5 513.5,-866.5 707.5,-866.5 707.5,-836.5 513.5,-836.5"/>
<text text-anchor="start" x="520.5" y="-847.9" font-family="Arial" font-size="14.00" fill="#000000">comment </text>
<text text-anchor="start" x="581.9502" y="-847.9" font-family="Arial" font-size="14.00" fill="#666666">[text]</text>
<polygon fill="none" stroke="#000000" points="513.5,-806.5 513.5,-836.5 707.5,-836.5 707.5,-806.5 513.5,-806.5"/>
<text text-anchor="start" x="520.5" y="-817.9" font-family="Arial" font-size="14.00" fill="#000000">post_id_desc </text>
<text text-anchor="start" x="606.866" y="-817.9" font-family="Arial" font-size="14.00" fill="#666666">[bigint]</text>
<polygon fill="none" stroke="#000000" points="513.5,-776.5 513.5,-806.5 707.5,-806.5 707.5,-776.5 513.5,-776.5"/>
<text text-anchor="start" x="520.5" y="-787.9" font-family="Arial" font-size="14.00" fill="#000000">created </text>
<text text-anchor="start" x="571.0722" y="-787.9" font-family="Arial" font-size="14.00" fill="#666666">[datetime]</text>
<polygon fill="none" stroke="#000000" points="513.5,-746.5 513.5,-776.5 707.5,-776.5 707.5,-746.5 513.5,-746.5"/>
<text text-anchor="start" x="520.5" y="-757.9" font-family="Arial" font-size="14.00" fill="#000000">updated </text>
<text text-anchor="start" x="574.9768" y="-757.9" font-family="Arial" font-size="14.00" fill="#666666">[datetime]</text>
</g>
<!-- comment_stars&#45;&gt;comments -->
<g id="edge2" class="edge">
<title>comment_stars:comment_post_id&#45;&gt;comments:post_id</title>
<path fill="none" stroke="#000000" d="M541.2163,-1217.5998C488.799,-1207.7466 512.9999,-1119.3966 551.5,-1071 595.798,-1015.3152 663.202,-1090.6848 707.5,-1035 741.6712,-992.0451 762.3889,-911.5 707.5,-911.5"/>
<polygon fill="#000000" stroke="#000000" points="541.5381,-1217.6279 551.1075,-1222.9829 546.519,-1218.0639 551.5,-1218.5 551.5,-1218.5 551.5,-1218.5 546.519,-1218.0639 551.8925,-1214.0171 541.5381,-1217.6279 541.5381,-1217.6279"/>
<text text-anchor="start" x="103.6435" y="-1228.5" font-family="Arial" font-size="10.00" fill="#000000">FOREIGN KEY (comment_post_id, comment_user_id) REFERENCES comments (post_id, user_id)</text>
</g>
<!-- users -->
<g id="node9" class="node">
<title>users</title>
<polygon fill="#efefef" stroke="transparent" points="660.5,-222.5 660.5,-257.5 819.5,-257.5 819.5,-222.5 660.5,-222.5"/>
<polygon fill="none" stroke="#000000" points="660.5,-222.5 660.5,-257.5 819.5,-257.5 819.5,-222.5 660.5,-222.5"/>
<text text-anchor="start" x="669.3708" y="-235.3" font-family="Arial Bold" font-size="18.00" fill="#000000">users</text>
<text text-anchor="start" x="713.3754" y="-235.3" font-family="Arial" font-size="14.00" fill="#000000"> </text>
<text text-anchor="start" x="717.266" y="-235.3" font-family="Arial" font-size="14.00" fill="#666666">[BASE TABLE]</text>
<polygon fill="none" stroke="#000000" points="660.5,-192.5 660.5,-222.5 819.5,-222.5 819.5,-192.5 660.5,-192.5"/>
<text text-anchor="start" x="667.5" y="-203.9" font-family="Arial" font-size="14.00" fill="#000000">id </text>
<text text-anchor="start" x="682.2798" y="-203.9" font-family="Arial" font-size="14.00" fill="#666666">[int]</text>
<polygon fill="none" stroke="#000000" points="660.5,-162.5 660.5,-192.5 819.5,-192.5 819.5,-162.5 660.5,-162.5"/>
<text text-anchor="start" x="667.2693" y="-173.9" font-family="Arial" font-size="14.00" fill="#000000">username </text>
<text text-anchor="start" x="733.3941" y="-173.9" font-family="Arial" font-size="14.00" fill="#666666">[varchar(50)]</text>
<polygon fill="none" stroke="#000000" points="660.5,-132.5 660.5,-162.5 819.5,-162.5 819.5,-132.5 660.5,-132.5"/>
<text text-anchor="start" x="667.5" y="-143.9" font-family="Arial" font-size="14.00" fill="#000000">password </text>
<text text-anchor="start" x="731.2882" y="-143.9" font-family="Arial" font-size="14.00" fill="#666666">[varchar(50)]</text>
<polygon fill="none" stroke="#000000" points="660.5,-102.5 660.5,-132.5 819.5,-132.5 819.5,-102.5 660.5,-102.5"/>
<text text-anchor="start" x="667.5" y="-113.9" font-family="Arial" font-size="14.00" fill="#000000">email </text>
<text text-anchor="start" x="704.8296" y="-113.9" font-family="Arial" font-size="14.00" fill="#666666">[varchar(355)]</text>
<polygon fill="none" stroke="#000000" points="660.5,-72.5 660.5,-102.5 819.5,-102.5 819.5,-72.5 660.5,-72.5"/>
<text text-anchor="start" x="667.5" y="-83.9" font-family="Arial" font-size="14.00" fill="#000000">created </text>
<text text-anchor="start" x="718.0722" y="-83.9" font-family="Arial" font-size="14.00" fill="#666666">[timestamp]</text>
<polygon fill="none" stroke="#000000" points="660.5,-42.5 660.5,-72.5 819.5,-72.5 819.5,-42.5 660.5,-42.5"/>
<text text-anchor="start" x="667.5" y="-53.9" font-family="Arial" font-size="14.00" fill="#000000">updated </text>
<text text-anchor="start" x="721.9768" y="-53.9" font-family="Arial" font-size="14.00" fill="#666666">[timestamp]</text>
</g>
<!-- comment_stars&#45;&gt;users -->
<g id="edge1" class="edge">
<title>comment_stars:comment_user_id&#45;&gt;users:id</title>
<path fill="none" stroke="#000000" d="M789.4609,-1179.1869C806.9742,-1088.0518 791.3432,-358.3049 797.5,-337 802.7058,-318.986 814.4213,-319.0502 819.5,-301 830.7553,-260.9977 861.0556,-207.5 819.5,-207.5"/>
<polygon fill="#000000" stroke="#000000" points="789.4138,-1179.2977 781.359,-1186.7388 787.4569,-1183.8988 785.5,-1188.5 785.5,-1188.5 785.5,-1188.5 787.4569,-1183.8988 789.641,-1190.2612 789.4138,-1179.2977 789.4138,-1179.2977"/>
<text text-anchor="start" x="792.1085" y="-1198.5" font-family="Arial" font-size="10.00" fill="#000000">FOREIGN KEY (comment_user_id) REFERENCES users (id)</text>
</g>
<!-- posts -->
<g id="node7" class="node">
<title>posts</title>
<polygon fill="#efefef" stroke="transparent" points="406.5,-589.5 406.5,-624.5 669.5,-624.5 669.5,-589.5 406.5,-589.5"/>
<polygon fill="none" stroke="#000000" points="406.5,-589.5 406.5,-624.5 669.5,-624.5 669.5,-589.5 406.5,-589.5"/>
<text text-anchor="start" x="467.8658" y="-602.3" font-family="Arial Bold" font-size="18.00" fill="#000000">posts</text>
<text text-anchor="start" x="510.8804" y="-602.3" font-family="Arial" font-size="14.00" fill="#000000"> </text>
<text text-anchor="start" x="514.771" y="-602.3" font-family="Arial" font-size="14.00" fill="#666666">[BASE TABLE]</text>
<polygon fill="none" stroke="#000000" points="406.5,-559.5 406.5,-589.5 669.5,-589.5 669.5,-559.5 406.5,-559.5"/>
<text text-anchor="start" x="413.5" y="-570.9" font-family="Arial" font-size="14.00" fill="#000000">id </text>
<text text-anchor="start" x="428.2798" y="-570.9" font-family="Arial" font-size="14.00" fill="#666666">[bigint]</text>
<polygon fill="none" stroke="#000000" points="406.5,-529.5 406.5,-559.5 669.5,-559.5 669.5,-529.5 406.5,-529.5"/>
<text text-anchor="start" x="413.5" y="-540.9" font-family="Arial" font-size="14.00" fill="#000000">user_id </text>
<text text-anchor="start" x="463.2882" y="-540.9" font-family="Arial" font-size="14.00" fill="#666666">[int]</text>
<polygon fill="none" stroke="#000000" points="406.5,-499.5 406.5,-529.5 669.5,-529.5 669.5,-499.5 406.5,-499.5"/>
<text text-anchor="start" x="413.5" y="-510.9" font-family="Arial" font-size="14.00" fill="#000000">title </text>
<text text-anchor="start" x="439.1676" y="-510.9" font-family="Arial" font-size="14.00" fill="#666666">[varchar(255)]</text>
<polygon fill="none" stroke="#000000" points="406.5,-469.5 406.5,-499.5 669.5,-499.5 669.5,-469.5 406.5,-469.5"/>
<text text-anchor="start" x="413.5" y="-480.9" font-family="Arial" font-size="14.00" fill="#000000">body </text>
<text text-anchor="start" x="447.7384" y="-480.9" font-family="Arial" font-size="14.00" fill="#666666">[text]</text>
<polygon fill="none" stroke="#000000" points="406.5,-439.5 406.5,-469.5 669.5,-469.5 669.5,-439.5 406.5,-439.5"/>
<text text-anchor="start" x="413.197" y="-450.9" font-family="Arial" font-size="14.00" fill="#000000">post_type </text>
<text text-anchor="start" x="477.7818" y="-450.9" font-family="Arial" font-size="14.00" fill="#666666">[enum(&#39;public&#39;,&#39;private&#39;,&#39;draft&#39;)]</text>
<polygon fill="none" stroke="#000000" points="406.5,-409.5 406.5,-439.5 669.5,-439.5 669.5,-409.5 406.5,-409.5"/>
<text text-anchor="start" x="413.5" y="-420.9" font-family="Arial" font-size="14.00" fill="#000000">created </text>
<text text-anchor="start" x="464.0722" y="-420.9" font-family="Arial" font-size="14.00" fill="#666666">[datetime]</text>
<polygon fill="none" stroke="#000000" points="406.5,-379.5 406.5,-409.5 669.5,-409.5 669.5,-379.5 406.5,-379.5"/>
<text text-anchor="start" x="413.5" y="-390.9" font-family="Arial" font-size="14.00" fill="#000000">updated </text>
<text text-anchor="start" x="467.9768" y="-390.9" font-family="Arial" font-size="14.00" fill="#666666">[datetime]</text>
</g>
<!-- comments&#45;&gt;posts -->
<g id="edge3" class="edge">
<title>comments:post_id&#45;&gt;posts:id</title>
<path fill="none" stroke="#000000" d="M503.268,-910.8923C424.0317,-901.0238 458.3296,-773.352 513.5,-704 557.798,-648.3152 625.202,-723.6848 669.5,-668 695.3705,-635.4795 711.0556,-574.5 669.5,-574.5"/>
<polygon fill="#000000" stroke="#000000" points="503.5176,-910.9071 513.2332,-915.9921 508.5088,-911.2035 513.5,-911.5 513.5,-911.5 513.5,-911.5 508.5088,-911.2035 513.7668,-907.0079 503.5176,-910.9071 503.5176,-910.9071"/>
<text text-anchor="start" x="281.995" y="-921.5" font-family="Arial" font-size="10.00" fill="#000000">FOREIGN KEY (post_id) REFERENCES posts (id)</text>
</g>
<!-- comments&#45;&gt;users -->
<g id="edge4" class="edge">
<title>comments:user_id&#45;&gt;users:id</title>
<path fill="none" stroke="#000000" d="M717.5611,-880.3849C821.8243,-855.9704 702.9972,-437.818 764.5,-337 779.7148,-312.0593 805.606,-326.7 819.5,-301 839.2627,-264.4446 861.0556,-207.5 819.5,-207.5"/>
<polygon fill="#000000" stroke="#000000" points="717.4391,-880.3984 707.0043,-877.0274 712.4696,-880.9492 707.5,-881.5 707.5,-881.5 707.5,-881.5 712.4696,-880.9492 707.9957,-885.9726 717.4391,-880.3984 717.4391,-880.3984"/>
<text text-anchor="start" x="714.445" y="-891.5" font-family="Arial" font-size="10.00" fill="#000000">FOREIGN KEY (user_id) REFERENCES users (id)</text>
</g>
<!-- hyphen&#45;table -->
<g id="node4" class="node">
<title>hyphen&#45;table</title>
<polygon fill="#efefef" stroke="transparent" points="649.5,-1600.5 649.5,-1635.5 864.5,-1635.5 864.5,-1600.5 649.5,-1600.5"/>
<polygon fill="none" stroke="#000000" points="649.5,-1600.5 649.5,-1635.5 864.5,-1635.5 864.5,-1600.5 649.5,-1600.5"/>
<text text-anchor="start" x="656.354" y="-1613.3" font-family="Arial Bold" font-size="18.00" fill="#000000">hyphen&#45;table</text>
<text text-anchor="start" x="760.3922" y="-1613.3" font-family="Arial" font-size="14.00" fill="#000000"> </text>
<text text-anchor="start" x="764.2828" y="-1613.3" font-family="Arial" font-size="14.00" fill="#666666">[BASE TABLE]</text>
<polygon fill="none" stroke="#000000" points="649.5,-1570.5 649.5,-1600.5 864.5,-1600.5 864.5,-1570.5 649.5,-1570.5"/>
<text text-anchor="start" x="656.5" y="-1581.9" font-family="Arial" font-size="14.00" fill="#000000">id </text>
<text text-anchor="start" x="671.2798" y="-1581.9" font-family="Arial" font-size="14.00" fill="#666666">[bigint]</text>
<polygon fill="none" stroke="#000000" points="649.5,-1540.5 649.5,-1570.5 864.5,-1570.5 864.5,-1540.5 649.5,-1540.5"/>
<text text-anchor="start" x="656.5" y="-1551.9" font-family="Arial" font-size="14.00" fill="#000000">hyphen&#45;column </text>
<text text-anchor="start" x="756.0792" y="-1551.9" font-family="Arial" font-size="14.00" fill="#666666">[text]</text>
<polygon fill="none" stroke="#000000" points="649.5,-1510.5 649.5,-1540.5 864.5,-1540.5 864.5,-1510.5 649.5,-1510.5"/>
<text text-anchor="start" x="656.5" y="-1521.9" font-family="Arial" font-size="14.00" fill="#000000">created </text>
<text text-anchor="start" x="707.0722" y="-1521.9" font-family="Arial" font-size="14.00" fill="#666666">[datetime]</text>
</g>
<!-- logs -->
<g id="node5" class="node">
<title>logs</title>
<polygon fill="#efefef" stroke="transparent" points="378.5,-1660.5 378.5,-1695.5 544.5,-1695.5 544.5,-1660.5 378.5,-1660.5"/>
<polygon fill="none" stroke="#000000" points="378.5,-1660.5 378.5,-1695.5 544.5,-1695.5 544.5,-1660.5 378.5,-1660.5"/>
<text text-anchor="start" x="396.3698" y="-1673.3" font-family="Arial Bold" font-size="18.00" fill="#000000">logs</text>
<text text-anchor="start" x="429.3764" y="-1673.3" font-family="Arial" font-size="14.00" fill="#000000"> </text>
<text text-anchor="start" x="433.267" y="-1673.3" font-family="Arial" font-size="14.00" fill="#666666">[BASE TABLE]</text>
<polygon fill="none" stroke="#000000" points="378.5,-1630.5 378.5,-1660.5 544.5,-1660.5 544.5,-1630.5 378.5,-1630.5"/>
<text text-anchor="start" x="385.5" y="-1641.9" font-family="Arial" font-size="14.00" fill="#000000">id </text>
<text text-anchor="start" x="400.2798" y="-1641.9" font-family="Arial" font-size="14.00" fill="#666666">[bigint]</text>
<polygon fill="none" stroke="#000000" points="378.5,-1600.5 378.5,-1630.5 544.5,-1630.5 544.5,-1600.5 378.5,-1600.5"/>
<text text-anchor="start" x="385.5" y="-1611.9" font-family="Arial" font-size="14.00" fill="#000000">user_id </text>
<text text-anchor="start" x="435.2882" y="-1611.9" font-family="Arial" font-size="14.00" fill="#666666">[int]</text>
<polygon fill="none" stroke="#000000" points="378.5,-1570.5 378.5,-1600.5 544.5,-1600.5 544.5,-1570.5 378.5,-1570.5"/>
<text text-anchor="start" x="385.5" y="-1581.9" font-family="Arial" font-size="14.00" fill="#000000">post_id </text>
<text text-anchor="start" x="434.5182" y="-1581.9" font-family="Arial" font-size="14.00" fill="#666666">[bigint]</text>
<polygon fill="none" stroke="#000000" points="378.5,-1540.5 378.5,-1570.5 544.5,-1570.5 544.5,-1540.5 378.5,-1540.5"/>
<text text-anchor="start" x="385.5" y="-1551.9" font-family="Arial" font-size="14.00" fill="#000000">comment_id </text>
<text text-anchor="start" x="465.622" y="-1551.9" font-family="Arial" font-size="14.00" fill="#666666">[bigint]</text>
<polygon fill="none" stroke="#000000" points="378.5,-1510.5 378.5,-1540.5 544.5,-1540.5 544.5,-1510.5 378.5,-1510.5"/>
<text text-anchor="start" x="385.2644" y="-1521.9" font-family="Arial" font-size="14.00" fill="#000000">comment_star_id </text>
<text text-anchor="start" x="496.5028" y="-1521.9" font-family="Arial" font-size="14.00" fill="#666666">[bigint]</text>
<polygon fill="none" stroke="#000000" points="378.5,-1480.5 378.5,-1510.5 544.5,-1510.5 544.5,-1480.5 378.5,-1480.5"/>
<text text-anchor="start" x="385.5" y="-1491.9" font-family="Arial" font-size="14.00" fill="#000000">payload </text>
<text text-anchor="start" x="438.4102" y="-1491.9" font-family="Arial" font-size="14.00" fill="#666666">[text]</text>
<polygon fill="none" stroke="#000000" points="378.5,-1450.5 378.5,-1480.5 544.5,-1480.5 544.5,-1450.5 378.5,-1450.5"/>
<text text-anchor="start" x="385.5" y="-1461.9" font-family="Arial" font-size="14.00" fill="#000000">created </text>
<text text-anchor="start" x="436.0722" y="-1461.9" font-family="Arial" font-size="14.00" fill="#666666">[datetime]</text>
</g>
<!-- logs&#45;&gt;comment_stars -->
<g id="edge10" class="edge">
<title>logs:comment_star_id&#45;&gt;comment_stars:id</title>
<path fill="none" stroke="#000000" stroke-dasharray="5,2" d="M554.6566,-1524.6541C640.1624,-1508.9038 445.4318,-1278.5 551.5,-1278.5"/>
<polygon fill="#000000" stroke="#000000" points="554.4655,-1524.6699 544.1264,-1521.0155 549.4827,-1525.0849 544.5,-1525.5 544.5,-1525.5 544.5,-1525.5 549.4827,-1525.0849 544.8736,-1529.9845 554.4655,-1524.6699 554.4655,-1524.6699"/>
<text text-anchor="start" x="551.8245" y="-1535.5" font-family="Arial" font-size="10.00" fill="#000000">Additional Relation</text>
</g>
<!-- logs&#45;&gt;comments -->
<g id="edge9" class="edge">
<title>logs:comment_id&#45;&gt;comments:id</title>
<path fill="none" stroke="#000000" stroke-dasharray="5,2" d="M554.671,-1554.6705C605.8744,-1545.5784 571.2895,-1463.7388 544.5,-1408 533.405,-1384.9154 510.595,-1395.0846 499.5,-1372 441.549,-1251.4257 492.3002,-1204.5839 499.5,-1071 502.6156,-1013.193 455.6091,-941.5 513.5,-941.5"/>
<polygon fill="#000000" stroke="#000000" points="554.4669,-1554.687 544.1342,-1551.0149 549.4835,-1555.0935 544.5,-1555.5 544.5,-1555.5 544.5,-1555.5 549.4835,-1555.0935 544.8658,-1559.9851 554.4669,-1554.687 554.4669,-1554.687"/>
<text text-anchor="start" x="551.8245" y="-1565.5" font-family="Arial" font-size="10.00" fill="#000000">Additional Relation</text>
</g>
<!-- logs&#45;&gt;posts -->
<g id="edge8" class="edge">
<title>logs:post_id&#45;&gt;posts:id</title>
<path fill="none" stroke="#000000" stroke-dasharray="5,2" d="M374.2559,-1576.1371C353.5781,-1474.2161 379.9972,-574.5 406.5,-574.5"/>
<polygon fill="#000000" stroke="#000000" points="374.3714,-1576.392 374.4014,-1587.3579 376.4357,-1580.946 378.5,-1585.5 378.5,-1585.5 378.5,-1585.5 376.4357,-1580.946 382.5986,-1583.6421 374.3714,-1576.392 374.3714,-1576.392"/>
<text text-anchor="start" x="288.8245" y="-1595.5" font-family="Arial" font-size="10.00" fill="#000000">Additional Relation</text>
</g>
<!-- logs&#45;&gt;users -->
<g id="edge7" class="edge">
<title>logs:user_id&#45;&gt;users:id</title>
<path fill="none" stroke="#000000" stroke-dasharray="5,2" d="M370.1481,-1609.5105C308.0682,-1517.4306 315.834,-393.7683 353.5,-337 435.3734,-213.6044 512.4131,-207.5 660.5,-207.5"/>
<polygon fill="#000000" stroke="#000000" points="370.3736,-1609.6722 375.8775,-1619.1569 374.4368,-1612.5861 378.5,-1615.5 378.5,-1615.5 378.5,-1615.5 374.4368,-1612.5861 381.1225,-1611.8431 370.3736,-1609.6722 370.3736,-1609.6722"/>
<text text-anchor="start" x="385.524" y="-1625.5" font-family="Arial" font-size="10.00" fill="#000000">logs&#45;&gt;users</text>
</g>
<!-- post_comments -->
<g id="node6" class="node">
<title>post_comments</title>
<polygon fill="#efefef" stroke="transparent" points="968.5,-1660.5 968.5,-1695.5 1157.5,-1695.5 1157.5,-1660.5 968.5,-1660.5"/>
<polygon fill="none" stroke="#000000" points="968.5,-1660.5 968.5,-1695.5 1157.5,-1695.5 1157.5,-1660.5 968.5,-1660.5"/>
<text text-anchor="start" x="975.7619" y="-1673.3" font-family="Arial Bold" font-size="18.00" fill="#000000">post_comments</text>
<text text-anchor="start" x="1102.7879" y="-1673.3" font-family="Arial" font-size="14.00" fill="#000000"> </text>
<text text-anchor="start" x="1106.6785" y="-1673.3" font-family="Arial" font-size="14.00" fill="#666666">[VIEW]</text>
<polygon fill="none" stroke="#000000" points="968.5,-1630.5 968.5,-1660.5 1157.5,-1660.5 1157.5,-1630.5 968.5,-1630.5"/>
<text text-anchor="start" x="975.5" y="-1641.9" font-family="Arial" font-size="14.00" fill="#000000">id </text>
<text text-anchor="start" x="990.2798" y="-1641.9" font-family="Arial" font-size="14.00" fill="#666666">[bigint]</text>
<polygon fill="none" stroke="#000000" points="968.5,-1600.5 968.5,-1630.5 1157.5,-1630.5 1157.5,-1600.5 968.5,-1600.5"/>
<text text-anchor="start" x="975.5" y="-1611.9" font-family="Arial" font-size="14.00" fill="#000000">title </text>
<text text-anchor="start" x="1001.1676" y="-1611.9" font-family="Arial" font-size="14.00" fill="#666666">[varchar(255)]</text>
<polygon fill="none" stroke="#000000" points="968.5,-1570.5 968.5,-1600.5 1157.5,-1600.5 1157.5,-1570.5 968.5,-1570.5"/>
<text text-anchor="start" x="975.5" y="-1581.9" font-family="Arial" font-size="14.00" fill="#000000">post_user </text>
<text text-anchor="start" x="1040.8548" y="-1581.9" font-family="Arial" font-size="14.00" fill="#666666">[varchar(50)]</text>
<polygon fill="none" stroke="#000000" points="968.5,-1540.5 968.5,-1570.5 1157.5,-1570.5 1157.5,-1540.5 968.5,-1540.5"/>
<text text-anchor="start" x="975.5" y="-1551.9" font-family="Arial" font-size="14.00" fill="#000000">comment </text>
<text text-anchor="start" x="1036.9502" y="-1551.9" font-family="Arial" font-size="14.00" fill="#666666">[text]</text>
<polygon fill="none" stroke="#000000" points="968.5,-1510.5 968.5,-1540.5 1157.5,-1540.5 1157.5,-1510.5 968.5,-1510.5"/>
<text text-anchor="start" x="975.1024" y="-1521.9" font-family="Arial" font-size="14.00" fill="#000000">comment_user </text>
<text text-anchor="start" x="1071.561" y="-1521.9" font-family="Arial" font-size="14.00" fill="#666666">[varchar(50)]</text>
<polygon fill="none" stroke="#000000" points="968.5,-1480.5 968.5,-1510.5 1157.5,-1510.5 1157.5,-1480.5 968.5,-1480.5"/>
<text text-anchor="start" x="975.5" y="-1491.9" font-family="Arial" font-size="14.00" fill="#000000">created </text>
<text text-anchor="start" x="1026.0722" y="-1491.9" font-family="Arial" font-size="14.00" fill="#666666">[datetime]</text>
<polygon fill="none" stroke="#000000" points="968.5,-1450.5 968.5,-1480.5 1157.5,-1480.5 1157.5,-1450.5 968.5,-1450.5"/>
<text text-anchor="start" x="975.5" y="-1461.9" font-family="Arial" font-size="14.00" fill="#000000">updated </text>
<text text-anchor="start" x="1029.9768" y="-1461.9" font-family="Arial" font-size="14.00" fill="#666666">[datetime]</text>
</g>
<!-- posts&#45;&gt;users -->
<g id="edge5" class="edge">
<title>posts:user_id&#45;&gt;users:id</title>
<path fill="none" stroke="#000000" d="M679.529,-543.9775C755.504,-535.4772 680.3279,-424.9558 669.5,-337 667.4849,-320.6311 662.5151,-317.3689 660.5,-301 655.4226,-259.7558 618.9444,-207.5 660.5,-207.5"/>
<polygon fill="#000000" stroke="#000000" points="679.4865,-543.9796 669.2658,-540.0061 674.4932,-544.2398 669.5,-544.5 669.5,-544.5 669.5,-544.5 674.4932,-544.2398 669.7342,-548.9939 679.4865,-543.9796 679.4865,-543.9796"/>
<text text-anchor="start" x="676.445" y="-554.5" font-family="Arial" font-size="10.00" fill="#000000">FOREIGN KEY (user_id) REFERENCES users (id)</text>
</g>
<!-- user_options -->
<g id="node8" class="node">
<title>user_options</title>
<polygon fill="#efefef" stroke="transparent" points="849.5,-544.5 849.5,-579.5 1063.5,-579.5 1063.5,-544.5 849.5,-544.5"/>
<polygon fill="none" stroke="#000000" points="849.5,-544.5 849.5,-579.5 1063.5,-579.5 1063.5,-544.5 849.5,-544.5"/>
<text text-anchor="start" x="856.3571" y="-557.3" font-family="Arial Bold" font-size="18.00" fill="#000000">user_options</text>
<text text-anchor="start" x="959.3891" y="-557.3" font-family="Arial" font-size="14.00" fill="#000000"> </text>
<text text-anchor="start" x="963.2797" y="-557.3" font-family="Arial" font-size="14.00" fill="#666666">[BASE TABLE]</text>
<polygon fill="none" stroke="#000000" points="849.5,-514.5 849.5,-544.5 1063.5,-544.5 1063.5,-514.5 849.5,-514.5"/>
<text text-anchor="start" x="856.5" y="-525.9" font-family="Arial" font-size="14.00" fill="#000000">user_id </text>
<text text-anchor="start" x="906.2882" y="-525.9" font-family="Arial" font-size="14.00" fill="#666666">[int]</text>
<polygon fill="none" stroke="#000000" points="849.5,-484.5 849.5,-514.5 1063.5,-514.5 1063.5,-484.5 849.5,-484.5"/>
<text text-anchor="start" x="856.5" y="-495.9" font-family="Arial" font-size="14.00" fill="#000000">show_email </text>
<text text-anchor="start" x="934.284" y="-495.9" font-family="Arial" font-size="14.00" fill="#666666">[tinyint(1)]</text>
<polygon fill="none" stroke="#000000" points="849.5,-454.5 849.5,-484.5 1063.5,-484.5 1063.5,-454.5 849.5,-454.5"/>
<text text-anchor="start" x="856.5" y="-465.9" font-family="Arial" font-size="14.00" fill="#000000">created </text>
<text text-anchor="start" x="907.0722" y="-465.9" font-family="Arial" font-size="14.00" fill="#666666">[timestamp]</text>
<polygon fill="none" stroke="#000000" points="849.5,-424.5 849.5,-454.5 1063.5,-454.5 1063.5,-424.5 849.5,-424.5"/>
<text text-anchor="start" x="856.5" y="-435.9" font-family="Arial" font-size="14.00" fill="#000000">updated </text>
<text text-anchor="start" x="910.9768" y="-435.9" font-family="Arial" font-size="14.00" fill="#666666">[timestamp]</text>
</g>
<!-- user_options&#45;&gt;users -->
<g id="edge6" class="edge">
<title>user_options:user_id&#45;&gt;users:id</title>
<path fill="none" stroke="#000000" d="M839.3145,-528.8878C718.5847,-513.356 959.5815,-207.5 819.5,-207.5"/>
<polygon fill="#000000" stroke="#000000" points="839.518,-528.8999 849.23,-533.9919 844.509,-529.2 849.5,-529.5 849.5,-529.5 849.5,-529.5 844.509,-529.2 849.77,-525.0081 839.518,-528.8999 839.518,-528.8999"/>
<text text-anchor="start" x="736.445" y="-513.5" font-family="Arial" font-size="10.00" fill="#000000">FOREIGN KEY (user_id) REFERENCES users (id)</text>
</g>
</g>
</svg>
