<?xml version="1.0" encoding="UTF-8" standalone="no"?>
<!DOCTYPE svg PUBLIC "-//W3C//DTD SVG 1.1//EN"
 "http://www.w3.org/Graphics/SVG/1.1/DTD/svg11.dtd">
<!-- Generated by graphviz version 2.40.1 (20161225.0304)
 -->
<!-- Title: testdb Pages: 1 -->
<svg width="1997pt" height="1747pt"
 viewBox="0.00 0.00 1996.50 1747.00" xmlns="http://www.w3.org/2000/svg" xmlns:xlink="http://www.w3.org/1999/xlink">
<g id="graph0" class="graph" transform="scale(1 1) rotate(0) translate(4 1743)">
<title>testdb</title>
<polygon fill="#ffffff" stroke="transparent" points="-4,4 -4,-1743 1992.5,-1743 1992.5,4 -4,4"/>
<!-- CamelizeTable -->
<g id="node1" class="node">
<title>CamelizeTable</title>
<polygon fill="#efefef" stroke="transparent" points="43.5,-1585.5 43.5,-1620.5 304.5,-1620.5 304.5,-1585.5 43.5,-1585.5"/>
<polygon fill="none" stroke="#000000" points="43.5,-1585.5 43.5,-1620.5 304.5,-1620.5 304.5,-1585.5 43.5,-1585.5"/>
<text text-anchor="start" x="50.2148" y="-1598.3" font-family="Arial Bold" font-size="18.00" fill="#000000">CamelizeTable</text>
<text text-anchor="start" x="170.2172" y="-1598.3" font-family="Arial" font-size="14.00" fill="#000000">    </text>
<text text-anchor="start" x="204.422" y="-1598.3" font-family="Arial" font-size="14.00" fill="#666666">[BASE TABLE]</text>
<polygon fill="none" stroke="#000000" points="43.5,-1555.5 43.5,-1585.5 304.5,-1585.5 304.5,-1555.5 43.5,-1555.5"/>
<text text-anchor="start" x="50.5" y="-1566.9" font-family="Arial" font-size="14.00" fill="#000000">id </text>
<text text-anchor="start" x="65.2798" y="-1566.9" font-family="Arial" font-size="14.00" fill="#666666">[bigint]</text>
<polygon fill="none" stroke="#000000" points="43.5,-1525.5 43.5,-1555.5 304.5,-1555.5 304.5,-1525.5 43.5,-1525.5"/>
<text text-anchor="start" x="50.5" y="-1536.9" font-family="Arial" font-size="14.00" fill="#000000">created </text>
<text text-anchor="start" x="101.0722" y="-1536.9" font-family="Arial" font-size="14.00" fill="#666666">[datetime]</text>
</g>
<!-- comment_stars -->
<g id="node2" class="node">
<title>comment_stars</title>
<polygon fill="#efefef" stroke="transparent" points="585.5,-1293.5 585.5,-1328.5 849.5,-1328.5 849.5,-1293.5 585.5,-1293.5"/>
<polygon fill="none" stroke="#000000" points="585.5,-1293.5 585.5,-1328.5 849.5,-1328.5 849.5,-1293.5 585.5,-1293.5"/>
<text text-anchor="start" x="592.21" y="-1306.3" font-family="Arial Bold" font-size="18.00" fill="#000000">comment_stars</text>
<text text-anchor="start" x="715.222" y="-1306.3" font-family="Arial" font-size="14.00" fill="#000000">    </text>
<text text-anchor="start" x="749.4268" y="-1306.3" font-family="Arial" font-size="14.00" fill="#666666">[BASE TABLE]</text>
<polygon fill="none" stroke="#000000" points="585.5,-1263.5 585.5,-1293.5 849.5,-1293.5 849.5,-1263.5 585.5,-1263.5"/>
<text text-anchor="start" x="592.5" y="-1274.9" font-family="Arial" font-size="14.00" fill="#000000">id </text>
<text text-anchor="start" x="607.2798" y="-1274.9" font-family="Arial" font-size="14.00" fill="#666666">[bigint]</text>
<polygon fill="none" stroke="#000000" points="585.5,-1233.5 585.5,-1263.5 849.5,-1263.5 849.5,-1233.5 585.5,-1233.5"/>
<text text-anchor="start" x="592.5" y="-1244.9" font-family="Arial" font-size="14.00" fill="#000000">user_id </text>
<text text-anchor="start" x="642.2882" y="-1244.9" font-family="Arial" font-size="14.00" fill="#666666">[int]</text>
<polygon fill="none" stroke="#000000" points="585.5,-1203.5 585.5,-1233.5 849.5,-1233.5 849.5,-1203.5 585.5,-1203.5"/>
<text text-anchor="start" x="592.5" y="-1214.9" font-family="Arial" font-size="14.00" fill="#000000">comment_post_id </text>
<text text-anchor="start" x="706.8604" y="-1214.9" font-family="Arial" font-size="14.00" fill="#666666">[bigint]</text>
<polygon fill="none" stroke="#000000" points="585.5,-1173.5 585.5,-1203.5 849.5,-1203.5 849.5,-1173.5 585.5,-1173.5"/>
<text text-anchor="start" x="592.5" y="-1184.9" font-family="Arial" font-size="14.00" fill="#000000">comment_user_id </text>
<text text-anchor="start" x="707.6304" y="-1184.9" font-family="Arial" font-size="14.00" fill="#666666">[int]</text>
<polygon fill="none" stroke="#000000" points="585.5,-1143.5 585.5,-1173.5 849.5,-1173.5 849.5,-1143.5 585.5,-1143.5"/>
<text text-anchor="start" x="592.5" y="-1154.9" font-family="Arial" font-size="14.00" fill="#000000">created </text>
<text text-anchor="start" x="643.0722" y="-1154.9" font-family="Arial" font-size="14.00" fill="#666666">[timestamp]</text>
<polygon fill="none" stroke="#000000" points="585.5,-1113.5 585.5,-1143.5 849.5,-1143.5 849.5,-1113.5 585.5,-1113.5"/>
<text text-anchor="start" x="592.5" y="-1124.9" font-family="Arial" font-size="14.00" fill="#000000">updated </text>
<text text-anchor="start" x="646.9768" y="-1124.9" font-family="Arial" font-size="14.00" fill="#666666">[timestamp]</text>
</g>
<!-- comments -->
<g id="node3" class="node">
<title>comments</title>
<polygon fill="#efefef" stroke="transparent" points="547.5,-956.5 547.5,-991.5 771.5,-991.5 771.5,-956.5 547.5,-956.5"/>
<polygon fill="none" stroke="#000000" points="547.5,-956.5 547.5,-991.5 771.5,-991.5 771.5,-956.5 547.5,-956.5"/>
<text text-anchor="start" x="554.2134" y="-969.3" font-family="Arial Bold" font-size="18.00" fill="#000000">comments</text>
<text text-anchor="start" x="637.2186" y="-969.3" font-family="Arial" font-size="14.00" fill="#000000">    </text>
<text text-anchor="start" x="671.4234" y="-969.3" font-family="Arial" font-size="14.00" fill="#666666">[BASE TABLE]</text>
<polygon fill="none" stroke="#000000" points="547.5,-926.5 547.5,-956.5 771.5,-956.5 771.5,-926.5 547.5,-926.5"/>
<text text-anchor="start" x="554.5" y="-937.9" font-family="Arial" font-size="14.00" fill="#000000">id </text>
<text text-anchor="start" x="569.2798" y="-937.9" font-family="Arial" font-size="14.00" fill="#666666">[bigint]</text>
<polygon fill="none" stroke="#000000" points="547.5,-896.5 547.5,-926.5 771.5,-926.5 771.5,-896.5 547.5,-896.5"/>
<text text-anchor="start" x="554.5" y="-907.9" font-family="Arial" font-size="14.00" fill="#000000">post_id </text>
<text text-anchor="start" x="603.5182" y="-907.9" font-family="Arial" font-size="14.00" fill="#666666">[bigint]</text>
<polygon fill="none" stroke="#000000" points="547.5,-866.5 547.5,-896.5 771.5,-896.5 771.5,-866.5 547.5,-866.5"/>
<text text-anchor="start" x="554.5" y="-877.9" font-family="Arial" font-size="14.00" fill="#000000">user_id </text>
<text text-anchor="start" x="604.2882" y="-877.9" font-family="Arial" font-size="14.00" fill="#666666">[int]</text>
<polygon fill="none" stroke="#000000" points="547.5,-836.5 547.5,-866.5 771.5,-866.5 771.5,-836.5 547.5,-836.5"/>
<text text-anchor="start" x="554.5" y="-847.9" font-family="Arial" font-size="14.00" fill="#000000">comment </text>
<text text-anchor="start" x="615.9502" y="-847.9" font-family="Arial" font-size="14.00" fill="#666666">[text]</text>
<polygon fill="none" stroke="#000000" points="547.5,-806.5 547.5,-836.5 771.5,-836.5 771.5,-806.5 547.5,-806.5"/>
<text text-anchor="start" x="554.5" y="-817.9" font-family="Arial" font-size="14.00" fill="#000000">post_id_desc </text>
<text text-anchor="start" x="640.866" y="-817.9" font-family="Arial" font-size="14.00" fill="#666666">[bigint]</text>
<polygon fill="none" stroke="#000000" points="547.5,-776.5 547.5,-806.5 771.5,-806.5 771.5,-776.5 547.5,-776.5"/>
<text text-anchor="start" x="554.5" y="-787.9" font-family="Arial" font-size="14.00" fill="#000000">created </text>
<text text-anchor="start" x="605.0722" y="-787.9" font-family="Arial" font-size="14.00" fill="#666666">[datetime]</text>
<polygon fill="none" stroke="#000000" points="547.5,-746.5 547.5,-776.5 771.5,-776.5 771.5,-746.5 547.5,-746.5"/>
<text text-anchor="start" x="554.5" y="-757.9" font-family="Arial" font-size="14.00" fill="#000000">updated </text>
<text text-anchor="start" x="608.9768" y="-757.9" font-family="Arial" font-size="14.00" fill="#666666">[datetime]</text>
</g>
<!-- comment_stars&#45;&gt;comments -->
<g id="edge2" class="edge">
<title>comment_stars:comment_post_id&#45;&gt;comments:post_id</title>
<path fill="none" stroke="#000000" d="M575.5351,-1217.6537C522.6051,-1208.0367 546.0628,-1118.8021 585.5,-1071 639.0843,-1006.0501 717.9157,-1099.9499 771.5,-1035 806.4306,-992.6604 826.3889,-911.5 771.5,-911.5"/>
<polygon fill="#000000" stroke="#000000" points="575.5359,-1217.6537 585.1192,-1222.9839 580.5179,-1218.0769 585.5,-1218.5 585.5,-1218.5 585.5,-1218.5 580.5179,-1218.0769 585.8808,-1214.0161 575.5359,-1217.6537 575.5359,-1217.6537"/>
<text text-anchor="start" x="137.6435" y="-1228.5" font-family="Arial" font-size="10.00" fill="#000000">FOREIGN KEY (comment_post_id, comment_user_id) REFERENCES comments (post_id, user_id)</text>
</g>
<!-- users -->
<g id="node10" class="node">
<title>users</title>
<polygon fill="#efefef" stroke="transparent" points="711.5,-222.5 711.5,-257.5 896.5,-257.5 896.5,-222.5 711.5,-222.5"/>
<polygon fill="none" stroke="#000000" points="711.5,-222.5 711.5,-257.5 896.5,-257.5 896.5,-222.5 711.5,-222.5"/>
<text text-anchor="start" x="718.2137" y="-235.3" font-family="Arial Bold" font-size="18.00" fill="#000000">users</text>
<text text-anchor="start" x="762.2183" y="-235.3" font-family="Arial" font-size="14.00" fill="#000000">    </text>
<text text-anchor="start" x="796.4231" y="-235.3" font-family="Arial" font-size="14.00" fill="#666666">[BASE TABLE]</text>
<polygon fill="none" stroke="#000000" points="711.5,-192.5 711.5,-222.5 896.5,-222.5 896.5,-192.5 711.5,-192.5"/>
<text text-anchor="start" x="718.5" y="-203.9" font-family="Arial" font-size="14.00" fill="#000000">id </text>
<text text-anchor="start" x="733.2798" y="-203.9" font-family="Arial" font-size="14.00" fill="#666666">[int]</text>
<polygon fill="none" stroke="#000000" points="711.5,-162.5 711.5,-192.5 896.5,-192.5 896.5,-162.5 711.5,-162.5"/>
<text text-anchor="start" x="718.5" y="-173.9" font-family="Arial" font-size="14.00" fill="#000000">username </text>
<text text-anchor="start" x="784.6248" y="-173.9" font-family="Arial" font-size="14.00" fill="#666666">[varchar(50)]</text>
<polygon fill="none" stroke="#000000" points="711.5,-132.5 711.5,-162.5 896.5,-162.5 896.5,-132.5 711.5,-132.5"/>
<text text-anchor="start" x="718.5" y="-143.9" font-family="Arial" font-size="14.00" fill="#000000">password </text>
<text text-anchor="start" x="782.2882" y="-143.9" font-family="Arial" font-size="14.00" fill="#666666">[varchar(50)]</text>
<polygon fill="none" stroke="#000000" points="711.5,-102.5 711.5,-132.5 896.5,-132.5 896.5,-102.5 711.5,-102.5"/>
<text text-anchor="start" x="718.5" y="-113.9" font-family="Arial" font-size="14.00" fill="#000000">email </text>
<text text-anchor="start" x="755.8296" y="-113.9" font-family="Arial" font-size="14.00" fill="#666666">[varchar(355)]</text>
<polygon fill="none" stroke="#000000" points="711.5,-72.5 711.5,-102.5 896.5,-102.5 896.5,-72.5 711.5,-72.5"/>
<text text-anchor="start" x="718.5" y="-83.9" font-family="Arial" font-size="14.00" fill="#000000">created </text>
<text text-anchor="start" x="769.0722" y="-83.9" font-family="Arial" font-size="14.00" fill="#666666">[timestamp]</text>
<polygon fill="none" stroke="#000000" points="711.5,-42.5 711.5,-72.5 896.5,-72.5 896.5,-42.5 711.5,-42.5"/>
<text text-anchor="start" x="718.5" y="-53.9" font-family="Arial" font-size="14.00" fill="#000000">updated </text>
<text text-anchor="start" x="772.9768" y="-53.9" font-family="Arial" font-size="14.00" fill="#666666">[timestamp]</text>
</g>
<!-- comment_stars&#45;&gt;users -->
<g id="edge1" class="edge">
<title>comment_stars:comment_user_id&#45;&gt;users:id</title>
<path fill="none" stroke="#000000" d="M853.4336,-1179.1774C870.6829,-1087.9497 853.0133,-357.4885 861.5,-337 870.0398,-316.3833 888.1057,-321.6763 896.5,-301 912.1319,-262.4966 938.0556,-207.5 896.5,-207.5"/>
<polygon fill="#000000" stroke="#000000" points="853.3875,-1179.2866 845.3539,-1186.7506 851.4438,-1183.8933 849.5,-1188.5 849.5,-1188.5 849.5,-1188.5 851.4438,-1183.8933 853.6461,-1190.2494 853.3875,-1179.2866 853.3875,-1179.2866"/>
<text text-anchor="start" x="856.1085" y="-1198.5" font-family="Arial" font-size="10.00" fill="#000000">FOREIGN KEY (comment_user_id) REFERENCES users (id)</text>
</g>
<!-- posts -->
<g id="node8" class="node">
<title>posts</title>
<polygon fill="#efefef" stroke="transparent" points="470.5,-589.5 470.5,-624.5 733.5,-624.5 733.5,-589.5 470.5,-589.5"/>
<polygon fill="none" stroke="#000000" points="470.5,-589.5 470.5,-624.5 733.5,-624.5 733.5,-589.5 470.5,-589.5"/>
<text text-anchor="start" x="516.7087" y="-602.3" font-family="Arial Bold" font-size="18.00" fill="#000000">posts</text>
<text text-anchor="start" x="559.7233" y="-602.3" font-family="Arial" font-size="14.00" fill="#000000">    </text>
<text text-anchor="start" x="593.9281" y="-602.3" font-family="Arial" font-size="14.00" fill="#666666">[BASE TABLE]</text>
<polygon fill="none" stroke="#000000" points="470.5,-559.5 470.5,-589.5 733.5,-589.5 733.5,-559.5 470.5,-559.5"/>
<text text-anchor="start" x="477.5" y="-570.9" font-family="Arial" font-size="14.00" fill="#000000">id </text>
<text text-anchor="start" x="492.2798" y="-570.9" font-family="Arial" font-size="14.00" fill="#666666">[bigint]</text>
<polygon fill="none" stroke="#000000" points="470.5,-529.5 470.5,-559.5 733.5,-559.5 733.5,-529.5 470.5,-529.5"/>
<text text-anchor="start" x="477.5" y="-540.9" font-family="Arial" font-size="14.00" fill="#000000">user_id </text>
<text text-anchor="start" x="527.2882" y="-540.9" font-family="Arial" font-size="14.00" fill="#666666">[int]</text>
<polygon fill="none" stroke="#000000" points="470.5,-499.5 470.5,-529.5 733.5,-529.5 733.5,-499.5 470.5,-499.5"/>
<text text-anchor="start" x="477.5" y="-510.9" font-family="Arial" font-size="14.00" fill="#000000">title </text>
<text text-anchor="start" x="503.1676" y="-510.9" font-family="Arial" font-size="14.00" fill="#666666">[varchar(255)]</text>
<polygon fill="none" stroke="#000000" points="470.5,-469.5 470.5,-499.5 733.5,-499.5 733.5,-469.5 470.5,-469.5"/>
<text text-anchor="start" x="477.5" y="-480.9" font-family="Arial" font-size="14.00" fill="#000000">body </text>
<text text-anchor="start" x="511.7384" y="-480.9" font-family="Arial" font-size="14.00" fill="#666666">[text]</text>
<polygon fill="none" stroke="#000000" points="470.5,-439.5 470.5,-469.5 733.5,-469.5 733.5,-439.5 470.5,-439.5"/>
<text text-anchor="start" x="477.197" y="-450.9" font-family="Arial" font-size="14.00" fill="#000000">post_type </text>
<text text-anchor="start" x="541.7818" y="-450.9" font-family="Arial" font-size="14.00" fill="#666666">[enum(&#39;public&#39;,&#39;private&#39;,&#39;draft&#39;)]</text>
<polygon fill="none" stroke="#000000" points="470.5,-409.5 470.5,-439.5 733.5,-439.5 733.5,-409.5 470.5,-409.5"/>
<text text-anchor="start" x="477.5" y="-420.9" font-family="Arial" font-size="14.00" fill="#000000">created </text>
<text text-anchor="start" x="528.0722" y="-420.9" font-family="Arial" font-size="14.00" fill="#666666">[datetime]</text>
<polygon fill="none" stroke="#000000" points="470.5,-379.5 470.5,-409.5 733.5,-409.5 733.5,-379.5 470.5,-379.5"/>
<text text-anchor="start" x="477.5" y="-390.9" font-family="Arial" font-size="14.00" fill="#000000">updated </text>
<text text-anchor="start" x="531.9768" y="-390.9" font-family="Arial" font-size="14.00" fill="#666666">[datetime]</text>
</g>
<!-- comments&#45;&gt;posts -->
<g id="edge3" class="edge">
<title>comments:post_id&#45;&gt;posts:id</title>
<path fill="none" stroke="#000000" d="M537.82,-908.4988C504.0854,-885.468 520.448,-736.7899 547.5,-704 601.0843,-639.0501 679.9157,-732.9499 733.5,-668 759.9454,-635.9453 775.0556,-574.5 733.5,-574.5"/>
<polygon fill="#000000" stroke="#000000" points="537.9485,-908.5386 546.1674,-915.7982 542.7243,-910.0193 547.5,-911.5 547.5,-911.5 547.5,-911.5 542.7243,-910.0193 548.8326,-907.2018 537.9485,-908.5386 537.9485,-908.5386"/>
<text text-anchor="start" x="315.995" y="-921.5" font-family="Arial" font-size="10.00" fill="#000000">FOREIGN KEY (post_id) REFERENCES posts (id)</text>
</g>
<!-- comments&#45;&gt;users -->
<g id="edge4" class="edge">
<title>comments:user_id&#45;&gt;users:id</title>
<path fill="none" stroke="#000000" d="M781.5492,-880.3773C885.5545,-855.7971 762.3937,-434.8613 828.5,-337 847.6418,-308.6632 878.8614,-330.2961 896.5,-301 917.9346,-265.3991 938.0556,-207.5 896.5,-207.5"/>
<polygon fill="#000000" stroke="#000000" points="781.4382,-880.3896 771.0003,-877.0278 776.4691,-880.9448 771.5,-881.5 771.5,-881.5 771.5,-881.5 776.4691,-880.9448 771.9997,-885.9722 781.4382,-880.3896 781.4382,-880.3896"/>
<text text-anchor="start" x="778.445" y="-891.5" font-family="Arial" font-size="10.00" fill="#000000">FOREIGN KEY (user_id) REFERENCES users (id)</text>
</g>
<!-- hyphen&#45;table -->
<g id="node4" class="node">
<title>hyphen&#45;table</title>
<polygon fill="#efefef" stroke="transparent" points="687.5,-1600.5 687.5,-1635.5 932.5,-1635.5 932.5,-1600.5 687.5,-1600.5"/>
<polygon fill="none" stroke="#000000" points="687.5,-1600.5 687.5,-1635.5 932.5,-1635.5 932.5,-1600.5 687.5,-1600.5"/>
<text text-anchor="start" x="694.1969" y="-1613.3" font-family="Arial Bold" font-size="18.00" fill="#000000">hyphen&#45;table</text>
<text text-anchor="start" x="798.2351" y="-1613.3" font-family="Arial" font-size="14.00" fill="#000000">    </text>
<text text-anchor="start" x="832.4399" y="-1613.3" font-family="Arial" font-size="14.00" fill="#666666">[BASE TABLE]</text>
<polygon fill="none" stroke="#000000" points="687.5,-1570.5 687.5,-1600.5 932.5,-1600.5 932.5,-1570.5 687.5,-1570.5"/>
<text text-anchor="start" x="694.5" y="-1581.9" font-family="Arial" font-size="14.00" fill="#000000">id </text>
<text text-anchor="start" x="709.2798" y="-1581.9" font-family="Arial" font-size="14.00" fill="#666666">[bigint]</text>
<polygon fill="none" stroke="#000000" points="687.5,-1540.5 687.5,-1570.5 932.5,-1570.5 932.5,-1540.5 687.5,-1540.5"/>
<text text-anchor="start" x="694.5" y="-1551.9" font-family="Arial" font-size="14.00" fill="#000000">hyphen&#45;column </text>
<text text-anchor="start" x="794.0792" y="-1551.9" font-family="Arial" font-size="14.00" fill="#666666">[text]</text>
<polygon fill="none" stroke="#000000" points="687.5,-1510.5 687.5,-1540.5 932.5,-1540.5 932.5,-1510.5 687.5,-1510.5"/>
<text text-anchor="start" x="694.5" y="-1521.9" font-family="Arial" font-size="14.00" fill="#000000">created </text>
<text text-anchor="start" x="745.0722" y="-1521.9" font-family="Arial" font-size="14.00" fill="#666666">[datetime]</text>
</g>
<!-- logs -->
<g id="node5" class="node">
<title>logs</title>
<polygon fill="#efefef" stroke="transparent" points="408.5,-1660.5 408.5,-1695.5 582.5,-1695.5 582.5,-1660.5 408.5,-1660.5"/>
<polygon fill="none" stroke="#000000" points="408.5,-1660.5 408.5,-1695.5 582.5,-1695.5 582.5,-1660.5 408.5,-1660.5"/>
<text text-anchor="start" x="415.2127" y="-1673.3" font-family="Arial Bold" font-size="18.00" fill="#000000">logs</text>
<text text-anchor="start" x="448.2193" y="-1673.3" font-family="Arial" font-size="14.00" fill="#000000">    </text>
<text text-anchor="start" x="482.4241" y="-1673.3" font-family="Arial" font-size="14.00" fill="#666666">[BASE TABLE]</text>
<polygon fill="none" stroke="#000000" points="408.5,-1630.5 408.5,-1660.5 582.5,-1660.5 582.5,-1630.5 408.5,-1630.5"/>
<text text-anchor="start" x="415.5" y="-1641.9" font-family="Arial" font-size="14.00" fill="#000000">id </text>
<text text-anchor="start" x="430.2798" y="-1641.9" font-family="Arial" font-size="14.00" fill="#666666">[bigint]</text>
<polygon fill="none" stroke="#000000" points="408.5,-1600.5 408.5,-1630.5 582.5,-1630.5 582.5,-1600.5 408.5,-1600.5"/>
<text text-anchor="start" x="415.5" y="-1611.9" font-family="Arial" font-size="14.00" fill="#000000">user_id </text>
<text text-anchor="start" x="465.2882" y="-1611.9" font-family="Arial" font-size="14.00" fill="#666666">[int]</text>
<polygon fill="none" stroke="#000000" points="408.5,-1570.5 408.5,-1600.5 582.5,-1600.5 582.5,-1570.5 408.5,-1570.5"/>
<text text-anchor="start" x="415.5" y="-1581.9" font-family="Arial" font-size="14.00" fill="#000000">post_id </text>
<text text-anchor="start" x="464.5182" y="-1581.9" font-family="Arial" font-size="14.00" fill="#666666">[bigint]</text>
<polygon fill="none" stroke="#000000" points="408.5,-1540.5 408.5,-1570.5 582.5,-1570.5 582.5,-1540.5 408.5,-1540.5"/>
<text text-anchor="start" x="415.5" y="-1551.9" font-family="Arial" font-size="14.00" fill="#000000">comment_id </text>
<text text-anchor="start" x="495.622" y="-1551.9" font-family="Arial" font-size="14.00" fill="#666666">[bigint]</text>
<polygon fill="none" stroke="#000000" points="408.5,-1510.5 408.5,-1540.5 582.5,-1540.5 582.5,-1510.5 408.5,-1510.5"/>
<text text-anchor="start" x="415.5" y="-1521.9" font-family="Arial" font-size="14.00" fill="#000000">comment_star_id </text>
<text text-anchor="start" x="526.7384" y="-1521.9" font-family="Arial" font-size="14.00" fill="#666666">[bigint]</text>
<polygon fill="none" stroke="#000000" points="408.5,-1480.5 408.5,-1510.5 582.5,-1510.5 582.5,-1480.5 408.5,-1480.5"/>
<text text-anchor="start" x="415.5" y="-1491.9" font-family="Arial" font-size="14.00" fill="#000000">payload </text>
<text text-anchor="start" x="468.4102" y="-1491.9" font-family="Arial" font-size="14.00" fill="#666666">[text]</text>
<polygon fill="none" stroke="#000000" points="408.5,-1450.5 408.5,-1480.5 582.5,-1480.5 582.5,-1450.5 408.5,-1450.5"/>
<text text-anchor="start" x="415.5" y="-1461.9" font-family="Arial" font-size="14.00" fill="#000000">created </text>
<text text-anchor="start" x="466.0722" y="-1461.9" font-family="Arial" font-size="14.00" fill="#666666">[datetime]</text>
</g>
<!-- logs&#45;&gt;comment_stars -->
<g id="edge10" class="edge">
<title>logs:comment_star_id&#45;&gt;comment_stars:id</title>
<path fill="none" stroke="#000000" stroke-dasharray="5,2" d="M592.6396,-1524.6541C677.8624,-1508.9038 479.4666,-1278.5 585.5,-1278.5"/>
<polygon fill="#000000" stroke="#000000" points="592.4654,-1524.6685 582.1258,-1521.0156 587.4827,-1525.0842 582.5,-1525.5 582.5,-1525.5 582.5,-1525.5 587.4827,-1525.0842 582.8742,-1529.9844 592.4654,-1524.6685 592.4654,-1524.6685"/>
<text text-anchor="start" x="589.8245" y="-1535.5" font-family="Arial" font-size="10.00" fill="#000000">Additional Relation</text>
</g>
<!-- logs&#45;&gt;comments -->
<g id="edge9" class="edge">
<title>logs:comment_id&#45;&gt;comments:id</title>
<path fill="none" stroke="#000000" stroke-dasharray="5,2" d="M592.682,-1554.665C644.0035,-1545.5147 610.4294,-1463.1764 582.5,-1408 570.2956,-1383.8893 545.7044,-1396.1107 533.5,-1372 473.0831,-1252.6422 526.3002,-1204.5839 533.5,-1071 536.6156,-1013.193 489.6091,-941.5 547.5,-941.5"/>
<polygon fill="#000000" stroke="#000000" points="592.4665,-1554.6826 582.1322,-1551.0151 587.4833,-1555.0913 582.5,-1555.5 582.5,-1555.5 582.5,-1555.5 587.4833,-1555.0913 582.8678,-1559.9849 592.4665,-1554.6826 592.4665,-1554.6826"/>
<text text-anchor="start" x="589.8245" y="-1565.5" font-family="Arial" font-size="10.00" fill="#000000">Additional Relation</text>
</g>
<!-- logs&#45;&gt;posts -->
<g id="edge8" class="edge">
<title>logs:post_id&#45;&gt;posts:id</title>
<path fill="none" stroke="#000000" stroke-dasharray="5,2" d="M398.2098,-1584.9638C320.5186,-1576.2411 404.1553,-1462.8157 412.5,-1372 416.5647,-1327.7638 426.0774,-574.5 470.5,-574.5"/>
<polygon fill="#000000" stroke="#000000" points="398.5135,-1584.9796 408.2658,-1589.9939 403.5068,-1585.2398 408.5,-1585.5 408.5,-1585.5 408.5,-1585.5 403.5068,-1585.2398 408.7342,-1581.0061 398.5135,-1584.9796 398.5135,-1584.9796"/>
<text text-anchor="start" x="318.8245" y="-1595.5" font-family="Arial" font-size="10.00" fill="#000000">Additional Relation</text>
</g>
<!-- logs&#45;&gt;users -->
<g id="edge7" class="edge">
<title>logs:user_id&#45;&gt;users:id</title>
<path fill="none" stroke="#000000" stroke-dasharray="5,2" d="M401.7806,-1607.8324C356.1335,-1515.5963 232.9906,-617.3067 417.5,-337 496.0036,-217.7373 568.719,-207.5 711.5,-207.5"/>
<polygon fill="#000000" stroke="#000000" points="401.9092,-1607.9792 405.1156,-1618.4658 405.2046,-1611.7396 408.5,-1615.5 408.5,-1615.5 408.5,-1615.5 405.2046,-1611.7396 411.8844,-1612.5342 401.9092,-1607.9792 401.9092,-1607.9792"/>
<text text-anchor="start" x="415.524" y="-1625.5" font-family="Arial" font-size="10.00" fill="#000000">logs&#45;&gt;users</text>
</g>
<!-- long_long_long_long_long_long_long_long_table_name -->
<g id="node6" class="node">
<title>long_long_long_long_long_long_long_long_table_name</title>
<polygon fill="#efefef" stroke="transparent" points="1036.5,-1585.5 1036.5,-1620.5 1623.5,-1620.5 1623.5,-1585.5 1036.5,-1585.5"/>
<polygon fill="none" stroke="#000000" points="1036.5,-1585.5 1036.5,-1620.5 1623.5,-1620.5 1623.5,-1585.5 1036.5,-1585.5"/>
<text text-anchor="start" x="1043.124" y="-1598.3" font-family="Arial Bold" font-size="18.00" fill="#000000">long_long_long_long_long_long_long_long_table_name</text>
<text text-anchor="start" x="1489.308" y="-1598.3" font-family="Arial" font-size="14.00" fill="#000000">    </text>
<text text-anchor="start" x="1523.5128" y="-1598.3" font-family="Arial" font-size="14.00" fill="#666666">[BASE TABLE]</text>
<polygon fill="none" stroke="#000000" points="1036.5,-1555.5 1036.5,-1585.5 1623.5,-1585.5 1623.5,-1555.5 1036.5,-1555.5"/>
<text text-anchor="start" x="1043.5" y="-1566.9" font-family="Arial" font-size="14.00" fill="#000000">id </text>
<text text-anchor="start" x="1058.2798" y="-1566.9" font-family="Arial" font-size="14.00" fill="#666666">[bigint]</text>
<polygon fill="none" stroke="#000000" points="1036.5,-1525.5 1036.5,-1555.5 1623.5,-1555.5 1623.5,-1525.5 1036.5,-1525.5"/>
<text text-anchor="start" x="1043.5" y="-1536.9" font-family="Arial" font-size="14.00" fill="#000000">created </text>
<text text-anchor="start" x="1094.0722" y="-1536.9" font-family="Arial" font-size="14.00" fill="#666666">[datetime]</text>
</g>
<!-- post_comments -->
<g id="node7" class="node">
<title>post_comments</title>
<polygon fill="#efefef" stroke="transparent" points="1727.5,-1660.5 1727.5,-1695.5 1945.5,-1695.5 1945.5,-1660.5 1727.5,-1660.5"/>
<polygon fill="none" stroke="#000000" points="1727.5,-1660.5 1727.5,-1695.5 1945.5,-1695.5 1945.5,-1660.5 1727.5,-1660.5"/>
<text text-anchor="start" x="1734.1048" y="-1673.3" font-family="Arial Bold" font-size="18.00" fill="#000000">post_comments</text>
<text text-anchor="start" x="1861.1308" y="-1673.3" font-family="Arial" font-size="14.00" fill="#000000">    </text>
<text text-anchor="start" x="1895.3356" y="-1673.3" font-family="Arial" font-size="14.00" fill="#666666">[VIEW]</text>
<polygon fill="none" stroke="#000000" points="1727.5,-1630.5 1727.5,-1660.5 1945.5,-1660.5 1945.5,-1630.5 1727.5,-1630.5"/>
<text text-anchor="start" x="1734.5" y="-1641.9" font-family="Arial" font-size="14.00" fill="#000000">id </text>
<text text-anchor="start" x="1749.2798" y="-1641.9" font-family="Arial" font-size="14.00" fill="#666666">[bigint]</text>
<polygon fill="none" stroke="#000000" points="1727.5,-1600.5 1727.5,-1630.5 1945.5,-1630.5 1945.5,-1600.5 1727.5,-1600.5"/>
<text text-anchor="start" x="1734.5" y="-1611.9" font-family="Arial" font-size="14.00" fill="#000000">title </text>
<text text-anchor="start" x="1760.1676" y="-1611.9" font-family="Arial" font-size="14.00" fill="#666666">[varchar(255)]</text>
<polygon fill="none" stroke="#000000" points="1727.5,-1570.5 1727.5,-1600.5 1945.5,-1600.5 1945.5,-1570.5 1727.5,-1570.5"/>
<text text-anchor="start" x="1734.5" y="-1581.9" font-family="Arial" font-size="14.00" fill="#000000">post_user </text>
<text text-anchor="start" x="1799.8548" y="-1581.9" font-family="Arial" font-size="14.00" fill="#666666">[varchar(50)]</text>
<polygon fill="none" stroke="#000000" points="1727.5,-1540.5 1727.5,-1570.5 1945.5,-1570.5 1945.5,-1540.5 1727.5,-1540.5"/>
<text text-anchor="start" x="1734.5" y="-1551.9" font-family="Arial" font-size="14.00" fill="#000000">comment </text>
<text text-anchor="start" x="1795.9502" y="-1551.9" font-family="Arial" font-size="14.00" fill="#666666">[text]</text>
<polygon fill="none" stroke="#000000" points="1727.5,-1510.5 1727.5,-1540.5 1945.5,-1540.5 1945.5,-1510.5 1727.5,-1510.5"/>
<text text-anchor="start" x="1734.5" y="-1521.9" font-family="Arial" font-size="14.00" fill="#000000">comment_user </text>
<text text-anchor="start" x="1830.9586" y="-1521.9" font-family="Arial" font-size="14.00" fill="#666666">[varchar(50)]</text>
<polygon fill="none" stroke="#000000" points="1727.5,-1480.5 1727.5,-1510.5 1945.5,-1510.5 1945.5,-1480.5 1727.5,-1480.5"/>
<text text-anchor="start" x="1734.5" y="-1491.9" font-family="Arial" font-size="14.00" fill="#000000">created </text>
<text text-anchor="start" x="1785.0722" y="-1491.9" font-family="Arial" font-size="14.00" fill="#666666">[datetime]</text>
<polygon fill="none" stroke="#000000" points="1727.5,-1450.5 1727.5,-1480.5 1945.5,-1480.5 1945.5,-1450.5 1727.5,-1450.5"/>
<text text-anchor="start" x="1734.5" y="-1461.9" font-family="Arial" font-size="14.00" fill="#000000">updated </text>
<text text-anchor="start" x="1788.9768" y="-1461.9" font-family="Arial" font-size="14.00" fill="#666666">[datetime]</text>
</g>
<!-- posts&#45;&gt;users -->
<g id="edge5" class="edge">
<title>posts:user_id&#45;&gt;users:id</title>
<path fill="none" stroke="#000000" d="M743.5893,-543.9654C820.5333,-535.2703 757.5026,-422.3074 733.5,-337 728.4213,-318.9498 716.5787,-319.0502 711.5,-301 700.2447,-260.9977 669.9444,-207.5 711.5,-207.5"/>
<polygon fill="#000000" stroke="#000000" points="743.486,-543.9708 733.2618,-540.0063 738.493,-544.2354 733.5,-544.5 733.5,-544.5 733.5,-544.5 738.493,-544.2354 733.7382,-548.9937 743.486,-543.9708 743.486,-543.9708"/>
<text text-anchor="start" x="740.445" y="-554.5" font-family="Arial" font-size="10.00" fill="#000000">FOREIGN KEY (user_id) REFERENCES users (id)</text>
</g>
<!-- user_options -->
<g id="node9" class="node">
<title>user_options</title>
<polygon fill="#efefef" stroke="transparent" points="913.5,-544.5 913.5,-579.5 1157.5,-579.5 1157.5,-544.5 913.5,-544.5"/>
<polygon fill="none" stroke="#000000" points="913.5,-544.5 913.5,-579.5 1157.5,-579.5 1157.5,-544.5 913.5,-544.5"/>
<text text-anchor="start" x="920.2" y="-557.3" font-family="Arial Bold" font-size="18.00" fill="#000000">user_options</text>
<text text-anchor="start" x="1023.232" y="-557.3" font-family="Arial" font-size="14.00" fill="#000000">    </text>
<text text-anchor="start" x="1057.4368" y="-557.3" font-family="Arial" font-size="14.00" fill="#666666">[BASE TABLE]</text>
<polygon fill="none" stroke="#000000" points="913.5,-514.5 913.5,-544.5 1157.5,-544.5 1157.5,-514.5 913.5,-514.5"/>
<text text-anchor="start" x="920.5" y="-525.9" font-family="Arial" font-size="14.00" fill="#000000">user_id </text>
<text text-anchor="start" x="970.2882" y="-525.9" font-family="Arial" font-size="14.00" fill="#666666">[int]</text>
<polygon fill="none" stroke="#000000" points="913.5,-484.5 913.5,-514.5 1157.5,-514.5 1157.5,-484.5 913.5,-484.5"/>
<text text-anchor="start" x="920.5" y="-495.9" font-family="Arial" font-size="14.00" fill="#000000">show_email </text>
<text text-anchor="start" x="998.284" y="-495.9" font-family="Arial" font-size="14.00" fill="#666666">[tinyint(1)]</text>
<polygon fill="none" stroke="#000000" points="913.5,-454.5 913.5,-484.5 1157.5,-484.5 1157.5,-454.5 913.5,-454.5"/>
<text text-anchor="start" x="920.5" y="-465.9" font-family="Arial" font-size="14.00" fill="#000000">created </text>
<text text-anchor="start" x="971.0722" y="-465.9" font-family="Arial" font-size="14.00" fill="#666666">[timestamp]</text>
<polygon fill="none" stroke="#000000" points="913.5,-424.5 913.5,-454.5 1157.5,-454.5 1157.5,-424.5 913.5,-424.5"/>
<text text-anchor="start" x="920.5" y="-435.9" font-family="Arial" font-size="14.00" fill="#000000">updated </text>
<text text-anchor="start" x="974.9768" y="-435.9" font-family="Arial" font-size="14.00" fill="#666666">[timestamp]</text>
</g>
<!-- user_options&#45;&gt;users -->
<g id="edge6" class="edge">
<title>user_options:user_id&#45;&gt;users:id</title>
<path fill="none" stroke="#000000" d="M903.3689,-528.8878C783.6151,-513.356 1036.1717,-207.5 896.5,-207.5"/>
<polygon fill="#000000" stroke="#000000" points="903.5182,-528.8967 913.2285,-533.9918 908.5091,-529.1984 913.5,-529.5 913.5,-529.5 913.5,-529.5 908.5091,-529.1984 913.7715,-525.0082 903.5182,-528.8967 903.5182,-528.8967"/>
<text text-anchor="start" x="800.445" y="-513.5" font-family="Arial" font-size="10.00" fill="#000000">FOREIGN KEY (user_id) REFERENCES users (id)</text>
</g>
</g>
</svg>
