<?xml version="1.0" encoding="UTF-8" standalone="no"?>
<!DOCTYPE svg PUBLIC "-//W3C//DTD SVG 1.1//EN"
 "http://www.w3.org/Graphics/SVG/1.1/DTD/svg11.dtd">
<!-- Generated by graphviz version 2.40.1 (20161225.0304)
 -->
<!-- Title: users Pages: 1 -->
<svg width="1732pt" height="682pt"
 viewBox="0.00 0.00 1732.00 682.00" xmlns="http://www.w3.org/2000/svg" xmlns:xlink="http://www.w3.org/1999/xlink">
<g id="graph0" class="graph" transform="scale(1 1) rotate(0) translate(4 678)">
<title>users</title>
<polygon fill="#ffffff" stroke="transparent" points="-4,4 -4,-678 1728,-678 1728,4 -4,4"/>
<!-- users -->
<g id="node1" class="node">
<title>users</title>
<polygon fill="#efefef" stroke="transparent" points="794,-225.5 794,-260.5 979,-260.5 979,-225.5 794,-225.5"/>
<polygon fill="none" stroke="#000000" points="794,-225.5 794,-260.5 979,-260.5 979,-225.5 794,-225.5"/>
<text text-anchor="start" x="800.7137" y="-238.3" font-family="Arial Bold" font-size="18.00" fill="#000000">users</text>
<text text-anchor="start" x="844.7183" y="-238.3" font-family="Arial" font-size="14.00" fill="#000000">    </text>
<text text-anchor="start" x="878.9231" y="-238.3" font-family="Arial" font-size="14.00" fill="#666666">[BASE TABLE]</text>
<polygon fill="none" stroke="#000000" points="794,-195.5 794,-225.5 979,-225.5 979,-195.5 794,-195.5"/>
<text text-anchor="start" x="801" y="-206.9" font-family="Arial" font-size="14.00" fill="#000000">id </text>
<text text-anchor="start" x="815.7798" y="-206.9" font-family="Arial" font-size="14.00" fill="#666666">[int]</text>
<polygon fill="none" stroke="#000000" points="794,-165.5 794,-195.5 979,-195.5 979,-165.5 794,-165.5"/>
<text text-anchor="start" x="801" y="-176.9" font-family="Arial" font-size="14.00" fill="#000000">username </text>
<text text-anchor="start" x="867.1248" y="-176.9" font-family="Arial" font-size="14.00" fill="#666666">[varchar(50)]</text>
<polygon fill="none" stroke="#000000" points="794,-135.5 794,-165.5 979,-165.5 979,-135.5 794,-135.5"/>
<text text-anchor="start" x="801" y="-146.9" font-family="Arial" font-size="14.00" fill="#000000">password </text>
<text text-anchor="start" x="864.7882" y="-146.9" font-family="Arial" font-size="14.00" fill="#666666">[varchar(50)]</text>
<polygon fill="none" stroke="#000000" points="794,-105.5 794,-135.5 979,-135.5 979,-105.5 794,-105.5"/>
<text text-anchor="start" x="801" y="-116.9" font-family="Arial" font-size="14.00" fill="#000000">email </text>
<text text-anchor="start" x="838.3296" y="-116.9" font-family="Arial" font-size="14.00" fill="#666666">[varchar(355)]</text>
<polygon fill="none" stroke="#000000" points="794,-75.5 794,-105.5 979,-105.5 979,-75.5 794,-75.5"/>
<text text-anchor="start" x="801" y="-86.9" font-family="Arial" font-size="14.00" fill="#000000">created </text>
<text text-anchor="start" x="851.5722" y="-86.9" font-family="Arial" font-size="14.00" fill="#666666">[timestamp]</text>
<polygon fill="none" stroke="#000000" points="794,-45.5 794,-75.5 979,-75.5 979,-45.5 794,-45.5"/>
<text text-anchor="start" x="801" y="-56.9" font-family="Arial" font-size="14.00" fill="#000000">updated </text>
<text text-anchor="start" x="855.4768" y="-56.9" font-family="Arial" font-size="14.00" fill="#666666">[timestamp]</text>
<polygon fill="none" stroke="#000000" stroke-width="3" points="792,-44.5 792,-262.5 980,-262.5 980,-44.5 792,-44.5"/>
</g>
<!-- comment_stars -->
<g id="node2" class="node">
<title>comment_stars</title>
<polygon fill="#efefef" stroke="transparent" points="43,-580.5 43,-615.5 307,-615.5 307,-580.5 43,-580.5"/>
<polygon fill="none" stroke="#000000" points="43,-580.5 43,-615.5 307,-615.5 307,-580.5 43,-580.5"/>
<text text-anchor="start" x="49.71" y="-593.3" font-family="Arial Bold" font-size="18.00" fill="#000000">comment_stars</text>
<text text-anchor="start" x="172.722" y="-593.3" font-family="Arial" font-size="14.00" fill="#000000">    </text>
<text text-anchor="start" x="206.9268" y="-593.3" font-family="Arial" font-size="14.00" fill="#666666">[BASE TABLE]</text>
<polygon fill="none" stroke="#000000" points="43,-550.5 43,-580.5 307,-580.5 307,-550.5 43,-550.5"/>
<text text-anchor="start" x="50" y="-561.9" font-family="Arial" font-size="14.00" fill="#000000">id    </text>
<text text-anchor="start" x="95.094" y="-561.9" font-family="Arial" font-size="14.00" fill="#666666">[bigint]</text>
<polygon fill="none" stroke="#000000" points="43,-520.5 43,-550.5 307,-550.5 307,-520.5 43,-520.5"/>
<text text-anchor="start" x="50" y="-531.9" font-family="Arial" font-size="14.00" fill="#000000">user_id    </text>
<text text-anchor="start" x="130.1024" y="-531.9" font-family="Arial" font-size="14.00" fill="#666666">[int]</text>
<polygon fill="none" stroke="#000000" points="43,-490.5 43,-520.5 307,-520.5 307,-490.5 43,-490.5"/>
<text text-anchor="start" x="50" y="-501.9" font-family="Arial" font-size="14.00" fill="#000000">comment_post_id    </text>
<text text-anchor="start" x="194.6746" y="-501.9" font-family="Arial" font-size="14.00" fill="#666666">[bigint]</text>
<polygon fill="none" stroke="#000000" points="43,-460.5 43,-490.5 307,-490.5 307,-460.5 43,-460.5"/>
<text text-anchor="start" x="50" y="-471.9" font-family="Arial" font-size="14.00" fill="#000000">comment_user_id    </text>
<text text-anchor="start" x="195.4446" y="-471.9" font-family="Arial" font-size="14.00" fill="#666666">[int]</text>
<polygon fill="none" stroke="#000000" points="43,-430.5 43,-460.5 307,-460.5 307,-430.5 43,-430.5"/>
<text text-anchor="start" x="50" y="-441.9" font-family="Arial" font-size="14.00" fill="#000000">created    </text>
<text text-anchor="start" x="130.8864" y="-441.9" font-family="Arial" font-size="14.00" fill="#666666">[timestamp]</text>
<polygon fill="none" stroke="#000000" points="43,-400.5 43,-430.5 307,-430.5 307,-400.5 43,-400.5"/>
<text text-anchor="start" x="50" y="-411.9" font-family="Arial" font-size="14.00" fill="#000000">updated    </text>
<text text-anchor="start" x="134.791" y="-411.9" font-family="Arial" font-size="14.00" fill="#666666">[timestamp]</text>
</g>
<!-- comment_stars&#45;&gt;users -->
<g id="edge1" class="edge">
<title>comment_stars:comment_user_id&#45;&gt;users:id</title>
<path fill="none" stroke="#000000" d="M317.2104,-474.5453C363.655,-464.8266 315.3628,-383.3469 359,-343 433.1967,-274.3977 692.9484,-210.5 794,-210.5"/>
<polygon fill="#000000" stroke="#000000" points="316.9566,-474.569 306.581,-471.0195 311.9783,-475.0345 307,-475.5 307,-475.5 307,-475.5 311.9783,-475.0345 307.419,-479.9805 316.9566,-474.569 316.9566,-474.569"/>
<text text-anchor="start" x="170.6085" y="-459.5" font-family="Arial" font-size="10.00" fill="#000000">FOREIGN KEY (comment_user_id) REFERENCES users (id)</text>
</g>
<!-- comments -->
<g id="node3" class="node">
<title>comments</title>
<polygon fill="#efefef" stroke="transparent" points="411,-595.5 411,-630.5 635,-630.5 635,-595.5 411,-595.5"/>
<polygon fill="none" stroke="#000000" points="411,-595.5 411,-630.5 635,-630.5 635,-595.5 411,-595.5"/>
<text text-anchor="start" x="417.7134" y="-608.3" font-family="Arial Bold" font-size="18.00" fill="#000000">comments</text>
<text text-anchor="start" x="500.7186" y="-608.3" font-family="Arial" font-size="14.00" fill="#000000">    </text>
<text text-anchor="start" x="534.9234" y="-608.3" font-family="Arial" font-size="14.00" fill="#666666">[BASE TABLE]</text>
<polygon fill="none" stroke="#000000" points="411,-565.5 411,-595.5 635,-595.5 635,-565.5 411,-565.5"/>
<text text-anchor="start" x="418" y="-576.9" font-family="Arial" font-size="14.00" fill="#000000">id    </text>
<text text-anchor="start" x="463.094" y="-576.9" font-family="Arial" font-size="14.00" fill="#666666">[bigint]</text>
<polygon fill="none" stroke="#000000" points="411,-535.5 411,-565.5 635,-565.5 635,-535.5 411,-535.5"/>
<text text-anchor="start" x="418" y="-546.9" font-family="Arial" font-size="14.00" fill="#000000">post_id    </text>
<text text-anchor="start" x="497.3324" y="-546.9" font-family="Arial" font-size="14.00" fill="#666666">[bigint]</text>
<polygon fill="none" stroke="#000000" points="411,-505.5 411,-535.5 635,-535.5 635,-505.5 411,-505.5"/>
<text text-anchor="start" x="418" y="-516.9" font-family="Arial" font-size="14.00" fill="#000000">user_id    </text>
<text text-anchor="start" x="498.1024" y="-516.9" font-family="Arial" font-size="14.00" fill="#666666">[int]</text>
<polygon fill="none" stroke="#000000" points="411,-475.5 411,-505.5 635,-505.5 635,-475.5 411,-475.5"/>
<text text-anchor="start" x="418" y="-486.9" font-family="Arial" font-size="14.00" fill="#000000">comment    </text>
<text text-anchor="start" x="509.7644" y="-486.9" font-family="Arial" font-size="14.00" fill="#666666">[text]</text>
<polygon fill="none" stroke="#000000" points="411,-445.5 411,-475.5 635,-475.5 635,-445.5 411,-445.5"/>
<text text-anchor="start" x="418" y="-456.9" font-family="Arial" font-size="14.00" fill="#000000">post_id_desc    </text>
<text text-anchor="start" x="534.6802" y="-456.9" font-family="Arial" font-size="14.00" fill="#666666">[bigint]</text>
<polygon fill="none" stroke="#000000" points="411,-415.5 411,-445.5 635,-445.5 635,-415.5 411,-415.5"/>
<text text-anchor="start" x="418" y="-426.9" font-family="Arial" font-size="14.00" fill="#000000">created    </text>
<text text-anchor="start" x="498.8864" y="-426.9" font-family="Arial" font-size="14.00" fill="#666666">[datetime]</text>
<polygon fill="none" stroke="#000000" points="411,-385.5 411,-415.5 635,-415.5 635,-385.5 411,-385.5"/>
<text text-anchor="start" x="418" y="-396.9" font-family="Arial" font-size="14.00" fill="#000000">updated    </text>
<text text-anchor="start" x="502.791" y="-396.9" font-family="Arial" font-size="14.00" fill="#666666">[datetime]</text>
</g>
<!-- comments&#45;&gt;users -->
<g id="edge2" class="edge">
<title>comments:user_id&#45;&gt;users:id</title>
<path fill="none" stroke="#000000" d="M645.1904,-519.8787C711.281,-511.1606 650.5949,-412.5612 687,-343 722.098,-275.9362 718.307,-210.5 794,-210.5"/>
<polygon fill="#000000" stroke="#000000" points="644.9815,-519.8914 634.7261,-516.0083 639.9907,-520.1957 635,-520.5 635,-520.5 635,-520.5 639.9907,-520.1957 635.2739,-524.9917 644.9815,-519.8914 644.9815,-519.8914"/>
<text text-anchor="start" x="641.945" y="-530.5" font-family="Arial" font-size="10.00" fill="#000000">FOREIGN KEY (user_id) REFERENCES users (id)</text>
</g>
<!-- posts -->
<g id="node4" class="node">
<title>posts</title>
<polygon fill="#efefef" stroke="transparent" points="740,-595.5 740,-630.5 1033,-630.5 1033,-595.5 740,-595.5"/>
<polygon fill="none" stroke="#000000" points="740,-595.5 740,-630.5 1033,-630.5 1033,-595.5 740,-595.5"/>
<text text-anchor="start" x="801.2087" y="-608.3" font-family="Arial Bold" font-size="18.00" fill="#000000">posts</text>
<text text-anchor="start" x="844.2233" y="-608.3" font-family="Arial" font-size="14.00" fill="#000000">    </text>
<text text-anchor="start" x="878.4281" y="-608.3" font-family="Arial" font-size="14.00" fill="#666666">[BASE TABLE]</text>
<polygon fill="none" stroke="#000000" points="740,-565.5 740,-595.5 1033,-595.5 1033,-565.5 740,-565.5"/>
<text text-anchor="start" x="747" y="-576.9" font-family="Arial" font-size="14.00" fill="#000000">id    </text>
<text text-anchor="start" x="792.094" y="-576.9" font-family="Arial" font-size="14.00" fill="#666666">[bigint]</text>
<polygon fill="none" stroke="#000000" points="740,-535.5 740,-565.5 1033,-565.5 1033,-535.5 740,-535.5"/>
<text text-anchor="start" x="747" y="-546.9" font-family="Arial" font-size="14.00" fill="#000000">user_id    </text>
<text text-anchor="start" x="827.1024" y="-546.9" font-family="Arial" font-size="14.00" fill="#666666">[int]</text>
<polygon fill="none" stroke="#000000" points="740,-505.5 740,-535.5 1033,-535.5 1033,-505.5 740,-505.5"/>
<text text-anchor="start" x="747" y="-516.9" font-family="Arial" font-size="14.00" fill="#000000">title    </text>
<text text-anchor="start" x="802.9818" y="-516.9" font-family="Arial" font-size="14.00" fill="#666666">[varchar(255)]</text>
<polygon fill="none" stroke="#000000" points="740,-475.5 740,-505.5 1033,-505.5 1033,-475.5 740,-475.5"/>
<text text-anchor="start" x="747" y="-486.9" font-family="Arial" font-size="14.00" fill="#000000">body    </text>
<text text-anchor="start" x="811.5526" y="-486.9" font-family="Arial" font-size="14.00" fill="#666666">[text]</text>
<polygon fill="none" stroke="#000000" points="740,-445.5 740,-475.5 1033,-475.5 1033,-445.5 740,-445.5"/>
<text text-anchor="start" x="746.5399" y="-456.9" font-family="Arial" font-size="14.00" fill="#000000">post_type    </text>
<text text-anchor="start" x="841.4389" y="-456.9" font-family="Arial" font-size="14.00" fill="#666666">[enum(&#39;public&#39;,&#39;private&#39;,&#39;draft&#39;)]</text>
<polygon fill="none" stroke="#000000" points="740,-415.5 740,-445.5 1033,-445.5 1033,-415.5 740,-415.5"/>
<text text-anchor="start" x="747" y="-426.9" font-family="Arial" font-size="14.00" fill="#000000">created    </text>
<text text-anchor="start" x="827.8864" y="-426.9" font-family="Arial" font-size="14.00" fill="#666666">[datetime]</text>
<polygon fill="none" stroke="#000000" points="740,-385.5 740,-415.5 1033,-415.5 1033,-385.5 740,-385.5"/>
<text text-anchor="start" x="747" y="-396.9" font-family="Arial" font-size="14.00" fill="#000000">updated    </text>
<text text-anchor="start" x="831.791" y="-396.9" font-family="Arial" font-size="14.00" fill="#666666">[datetime]</text>
</g>
<!-- posts&#45;&gt;users -->
<g id="edge3" class="edge">
<title>posts:user_id&#45;&gt;users:id</title>
<path fill="none" stroke="#000000" d="M730.0909,-548.3288C668.6094,-519.3721 721.0835,-210.5 794,-210.5"/>
<polygon fill="#000000" stroke="#000000" points="730.2317,-548.3596 739.0368,-554.8957 735.1159,-549.4298 740,-550.5 740,-550.5 740,-550.5 735.1159,-549.4298 740.9632,-546.1043 730.2317,-548.3596 730.2317,-548.3596"/>
<text text-anchor="start" x="746.945" y="-560.5" font-family="Arial" font-size="10.00" fill="#000000">FOREIGN KEY (user_id) REFERENCES users (id)</text>
</g>
<!-- user_options -->
<g id="node5" class="node">
<title>user_options</title>
<polygon fill="#efefef" stroke="transparent" points="1137,-550.5 1137,-585.5 1381,-585.5 1381,-550.5 1137,-550.5"/>
<polygon fill="none" stroke="#000000" points="1137,-550.5 1137,-585.5 1381,-585.5 1381,-550.5 1137,-550.5"/>
<text text-anchor="start" x="1143.7" y="-563.3" font-family="Arial Bold" font-size="18.00" fill="#000000">user_options</text>
<text text-anchor="start" x="1246.732" y="-563.3" font-family="Arial" font-size="14.00" fill="#000000">    </text>
<text text-anchor="start" x="1280.9368" y="-563.3" font-family="Arial" font-size="14.00" fill="#666666">[BASE TABLE]</text>
<polygon fill="none" stroke="#000000" points="1137,-520.5 1137,-550.5 1381,-550.5 1381,-520.5 1137,-520.5"/>
<text text-anchor="start" x="1144" y="-531.9" font-family="Arial" font-size="14.00" fill="#000000">user_id    </text>
<text text-anchor="start" x="1224.1024" y="-531.9" font-family="Arial" font-size="14.00" fill="#666666">[int]</text>
<polygon fill="none" stroke="#000000" points="1137,-490.5 1137,-520.5 1381,-520.5 1381,-490.5 1137,-490.5"/>
<text text-anchor="start" x="1144" y="-501.9" font-family="Arial" font-size="14.00" fill="#000000">show_email    </text>
<text text-anchor="start" x="1252.0982" y="-501.9" font-family="Arial" font-size="14.00" fill="#666666">[tinyint(1)]</text>
<polygon fill="none" stroke="#000000" points="1137,-460.5 1137,-490.5 1381,-490.5 1381,-460.5 1137,-460.5"/>
<text text-anchor="start" x="1144" y="-471.9" font-family="Arial" font-size="14.00" fill="#000000">created    </text>
<text text-anchor="start" x="1224.8864" y="-471.9" font-family="Arial" font-size="14.00" fill="#666666">[timestamp]</text>
<polygon fill="none" stroke="#000000" points="1137,-430.5 1137,-460.5 1381,-460.5 1381,-430.5 1137,-430.5"/>
<text text-anchor="start" x="1144" y="-441.9" font-family="Arial" font-size="14.00" fill="#000000">updated    </text>
<text text-anchor="start" x="1228.791" y="-441.9" font-family="Arial" font-size="14.00" fill="#666666">[timestamp]</text>
</g>
<!-- user_options&#45;&gt;users -->
<g id="edge4" class="edge">
<title>user_options:user_id&#45;&gt;users:id</title>
<path fill="none" stroke="#000000" d="M1126.9102,-534.9376C1054.4734,-526.2507 1123.4355,-418.7993 1085,-343 1050.8937,-275.7384 1054.4146,-210.5 979,-210.5"/>
<polygon fill="#000000" stroke="#000000" points="1127.0155,-534.9434 1136.7495,-539.993 1132.0077,-535.2217 1137,-535.5 1137,-535.5 1137,-535.5 1132.0077,-535.2217 1137.2505,-531.007 1127.0155,-534.9434 1127.0155,-534.9434"/>
<text text-anchor="start" x="1083.945" y="-519.5" font-family="Arial" font-size="10.00" fill="#000000">FOREIGN KEY (user_id) REFERENCES users (id)</text>
</g>
<!-- logs -->
<g id="node6" class="node">
<title>logs</title>
<polygon fill="#efefef" stroke="transparent" points="1485,-595.5 1485,-630.5 1681,-630.5 1681,-595.5 1485,-595.5"/>
<polygon fill="none" stroke="#000000" points="1485,-595.5 1485,-630.5 1681,-630.5 1681,-595.5 1485,-595.5"/>
<text text-anchor="start" x="1502.7127" y="-608.3" font-family="Arial Bold" font-size="18.00" fill="#000000">logs</text>
<text text-anchor="start" x="1535.7193" y="-608.3" font-family="Arial" font-size="14.00" fill="#000000">    </text>
<text text-anchor="start" x="1569.9241" y="-608.3" font-family="Arial" font-size="14.00" fill="#666666">[BASE TABLE]</text>
<polygon fill="none" stroke="#000000" points="1485,-565.5 1485,-595.5 1681,-595.5 1681,-565.5 1485,-565.5"/>
<text text-anchor="start" x="1492" y="-576.9" font-family="Arial" font-size="14.00" fill="#000000">id    </text>
<text text-anchor="start" x="1537.094" y="-576.9" font-family="Arial" font-size="14.00" fill="#666666">[bigint]</text>
<polygon fill="none" stroke="#000000" points="1485,-535.5 1485,-565.5 1681,-565.5 1681,-535.5 1485,-535.5"/>
<text text-anchor="start" x="1492" y="-546.9" font-family="Arial" font-size="14.00" fill="#000000">user_id    </text>
<text text-anchor="start" x="1572.1024" y="-546.9" font-family="Arial" font-size="14.00" fill="#666666">[int]</text>
<polygon fill="none" stroke="#000000" points="1485,-505.5 1485,-535.5 1681,-535.5 1681,-505.5 1485,-505.5"/>
<text text-anchor="start" x="1492" y="-516.9" font-family="Arial" font-size="14.00" fill="#000000">post_id    </text>
<text text-anchor="start" x="1571.3324" y="-516.9" font-family="Arial" font-size="14.00" fill="#666666">[bigint]</text>
<polygon fill="none" stroke="#000000" points="1485,-475.5 1485,-505.5 1681,-505.5 1681,-475.5 1485,-475.5"/>
<text text-anchor="start" x="1492" y="-486.9" font-family="Arial" font-size="14.00" fill="#000000">comment_id    </text>
<text text-anchor="start" x="1602.4362" y="-486.9" font-family="Arial" font-size="14.00" fill="#666666">[bigint]</text>
<polygon fill="none" stroke="#000000" points="1485,-445.5 1485,-475.5 1681,-475.5 1681,-445.5 1485,-445.5"/>
<text text-anchor="start" x="1491.6073" y="-456.9" font-family="Arial" font-size="14.00" fill="#000000">comment_star_id    </text>
<text text-anchor="start" x="1633.1599" y="-456.9" font-family="Arial" font-size="14.00" fill="#666666">[bigint]</text>
<polygon fill="none" stroke="#000000" points="1485,-415.5 1485,-445.5 1681,-445.5 1681,-415.5 1485,-415.5"/>
<text text-anchor="start" x="1492" y="-426.9" font-family="Arial" font-size="14.00" fill="#000000">payload    </text>
<text text-anchor="start" x="1575.2244" y="-426.9" font-family="Arial" font-size="14.00" fill="#666666">[text]</text>
<polygon fill="none" stroke="#000000" points="1485,-385.5 1485,-415.5 1681,-415.5 1681,-385.5 1485,-385.5"/>
<text text-anchor="start" x="1492" y="-396.9" font-family="Arial" font-size="14.00" fill="#000000">created    </text>
<text text-anchor="start" x="1572.8864" y="-396.9" font-family="Arial" font-size="14.00" fill="#666666">[datetime]</text>
</g>
<!-- logs&#45;&gt;users -->
<g id="edge5" class="edge">
<title>logs:user_id&#45;&gt;users:id</title>
<path fill="none" stroke="#000000" stroke-dasharray="5,2" d="M1474.7701,-549.8762C1398.1746,-539.7487 1496.3486,-408.8303 1433,-343 1360.1258,-267.2709 1084.0978,-210.5 979,-210.5"/>
<polygon fill="#000000" stroke="#000000" points="1475.0185,-549.8913 1484.7261,-554.9917 1480.0093,-550.1956 1485,-550.5 1485,-550.5 1485,-550.5 1480.0093,-550.1956 1485.2739,-546.0083 1475.0185,-549.8913 1475.0185,-549.8913"/>
<text text-anchor="start" x="1443.274" y="-534.5" font-family="Arial" font-size="10.00" fill="#000000">logs&#45;&gt;users</text>
</g>
</g>
</svg>
