<?xml version="1.0" encoding="UTF-8" standalone="no"?>
<!DOCTYPE svg PUBLIC "-//W3C//DTD SVG 1.1//EN"
 "http://www.w3.org/Graphics/SVG/1.1/DTD/svg11.dtd">
<!-- Generated by graphviz version 2.40.1 (20161225.0304)
 -->
<!-- Title: backup.blog_options Pages: 1 -->
<svg width="676pt" height="562pt"
 viewBox="0.00 0.00 676.00 562.00" xmlns="http://www.w3.org/2000/svg" xmlns:xlink="http://www.w3.org/1999/xlink">
<g id="graph0" class="graph" transform="scale(1 1) rotate(0) translate(4 558)">
<title>backup.blog_options</title>
<polygon fill="#ffffff" stroke="transparent" points="-4,4 -4,-558 672,-558 672,4 -4,4"/>
<!-- backup.blog_options -->
<g id="node1" class="node">
<title>backup.blog_options</title>
<polygon fill="#efefef" stroke="transparent" points="346,-472.5 346,-507.5 622,-507.5 622,-472.5 346,-472.5"/>
<polygon fill="none" stroke="#000000" points="346,-472.5 346,-507.5 622,-507.5 622,-472.5 346,-472.5"/>
<text text-anchor="start" x="352.8395" y="-485.3" font-family="Arial Bold" font-size="18.00" fill="#000000">backup.blog_options</text>
<text text-anchor="start" x="517.9067" y="-485.3" font-family="Arial" font-size="14.00" fill="#000000"> </text>
<text text-anchor="start" x="521.7973" y="-485.3" font-family="Arial" font-size="14.00" fill="#666666">[BASE TABLE]</text>
<polygon fill="none" stroke="#000000" points="346,-442.5 346,-472.5 622,-472.5 622,-442.5 346,-442.5"/>
<text text-anchor="start" x="353" y="-453.9" font-family="Arial" font-size="14.00" fill="#000000">id </text>
<text text-anchor="start" x="367.7798" y="-453.9" font-family="Arial" font-size="14.00" fill="#666666">[integer]</text>
<polygon fill="none" stroke="#000000" points="346,-412.5 346,-442.5 622,-442.5 622,-412.5 346,-412.5"/>
<text text-anchor="start" x="353" y="-423.9" font-family="Arial" font-size="14.00" fill="#000000">blog_id </text>
<text text-anchor="start" x="402.0168" y="-423.9" font-family="Arial" font-size="14.00" fill="#666666">[integer]</text>
<polygon fill="none" stroke="#000000" points="346,-382.5 346,-412.5 622,-412.5 622,-382.5 346,-382.5"/>
<text text-anchor="start" x="353" y="-393.9" font-family="Arial" font-size="14.00" fill="#000000">label </text>
<text text-anchor="start" x="386.4516" y="-393.9" font-family="Arial" font-size="14.00" fill="#666666">[text]</text>
<polygon fill="none" stroke="#000000" points="346,-352.5 346,-382.5 622,-382.5 622,-352.5 346,-352.5"/>
<text text-anchor="start" x="353" y="-363.9" font-family="Arial" font-size="14.00" fill="#000000">updated </text>
<text text-anchor="start" x="407.4768" y="-363.9" font-family="Arial" font-size="14.00" fill="#666666">[timestamp without time zone]</text>
<polygon fill="none" stroke="#000000" stroke-width="3" points="344.5,-351.5 344.5,-509.5 623.5,-509.5 623.5,-351.5 344.5,-351.5"/>
</g>
<!-- backup.blogs -->
<g id="node2" class="node">
<title>backup.blogs</title>
<polygon fill="#efefef" stroke="transparent" points="357,-192.5 357,-227.5 610,-227.5 610,-192.5 357,-192.5"/>
<polygon fill="none" stroke="#000000" points="357,-192.5 357,-227.5 610,-227.5 610,-192.5 357,-192.5"/>
<text text-anchor="start" x="381.8532" y="-205.3" font-family="Arial Bold" font-size="18.00" fill="#000000">backup.blogs</text>
<text text-anchor="start" x="487.893" y="-205.3" font-family="Arial" font-size="14.00" fill="#000000"> </text>
<text text-anchor="start" x="491.7836" y="-205.3" font-family="Arial" font-size="14.00" fill="#666666">[BASE TABLE]</text>
<polygon fill="none" stroke="#000000" points="357,-162.5 357,-192.5 610,-192.5 610,-162.5 357,-162.5"/>
<text text-anchor="start" x="364" y="-173.9" font-family="Arial" font-size="14.00" fill="#000000">id </text>
<text text-anchor="start" x="378.7798" y="-173.9" font-family="Arial" font-size="14.00" fill="#666666">[integer]</text>
<polygon fill="none" stroke="#000000" points="357,-132.5 357,-162.5 610,-162.5 610,-132.5 357,-132.5"/>
<text text-anchor="start" x="364" y="-143.9" font-family="Arial" font-size="14.00" fill="#000000">user_id </text>
<text text-anchor="start" x="413.7882" y="-143.9" font-family="Arial" font-size="14.00" fill="#666666">[integer]</text>
<polygon fill="none" stroke="#000000" points="357,-102.5 357,-132.5 610,-132.5 610,-102.5 357,-102.5"/>
<text text-anchor="start" x="364" y="-113.9" font-family="Arial" font-size="14.00" fill="#000000">dump </text>
<text text-anchor="start" x="402.899" y="-113.9" font-family="Arial" font-size="14.00" fill="#666666">[text]</text>
<polygon fill="none" stroke="#000000" points="357,-72.5 357,-102.5 610,-102.5 610,-72.5 357,-72.5"/>
<text text-anchor="start" x="364" y="-83.9" font-family="Arial" font-size="14.00" fill="#000000">created </text>
<text text-anchor="start" x="414.5722" y="-83.9" font-family="Arial" font-size="14.00" fill="#666666">[timestamp without time zone]</text>
<polygon fill="none" stroke="#000000" points="357,-42.5 357,-72.5 610,-72.5 610,-42.5 357,-42.5"/>
<text text-anchor="start" x="363.6915" y="-53.9" font-family="Arial" font-size="14.00" fill="#000000">updated </text>
<text text-anchor="start" x="418.1683" y="-53.9" font-family="Arial" font-size="14.00" fill="#666666">[timestamp without time zone]</text>
</g>
<!-- backup.blog_options&#45;&gt;backup.blogs -->
<g id="edge1" class="edge">
<title>backup.blog_options:blog_id&#45;&gt;backup.blogs:id</title>
<path fill="none" stroke="#000000" d="M336.0072,-426.4147C295.0304,-416.7276 313.1891,-344.5887 346,-307 423.873,-217.7873 532.127,-360.2127 610,-271 637.3271,-239.6936 651.5556,-177.5 610,-177.5"/>
<polygon fill="#000000" stroke="#000000" points="336.0585,-426.4201 345.5141,-431.9737 341.0292,-426.9601 346,-427.5 346,-427.5 346,-427.5 341.0292,-426.9601 346.4859,-423.0263 336.0585,-426.4201 336.0585,-426.4201"/>
<text text-anchor="start" x="6.6045" y="-437.5" font-family="Arial" font-size="10.00" fill="#000000">FOREIGN KEY (blog_id) REFERENCES blogs(id) ON DELETE CASCADE</text>
</g>
</g>
</svg>
