<?xml version="1.0" encoding="UTF-8" standalone="no"?>
<!DOCTYPE svg PUBLIC "-//W3C//DTD SVG 1.1//EN"
 "http://www.w3.org/Graphics/SVG/1.1/DTD/svg11.dtd">
<!-- Generated by graphviz version 2.40.1 (20161225.0304)
 -->
<!-- Title: backup.blog_options Pages: 1 -->
<svg width="706pt" height="562pt"
 viewBox="0.00 0.00 706.00 562.00" xmlns="http://www.w3.org/2000/svg" xmlns:xlink="http://www.w3.org/1999/xlink">
<g id="graph0" class="graph" transform="scale(1 1) rotate(0) translate(4 558)">
<title>backup.blog_options</title>
<polygon fill="#ffffff" stroke="transparent" points="-4,4 -4,-558 702,-558 702,4 -4,4"/>
<!-- backup.blog_options -->
<g id="node1" class="node">
<title>backup.blog_options</title>
<polygon fill="#efefef" stroke="transparent" points="346,-472.5 346,-507.5 652,-507.5 652,-472.5 346,-472.5"/>
<polygon fill="none" stroke="#000000" points="346,-472.5 346,-507.5 652,-507.5 652,-472.5 346,-472.5"/>
<text text-anchor="start" x="352.6824" y="-485.3" font-family="Arial Bold" font-size="18.00" fill="#000000">backup.blog_options</text>
<text text-anchor="start" x="517.7496" y="-485.3" font-family="Arial" font-size="14.00" fill="#000000">    </text>
<text text-anchor="start" x="551.9544" y="-485.3" font-family="Arial" font-size="14.00" fill="#666666">[BASE TABLE]</text>
<polygon fill="none" stroke="#000000" points="346,-442.5 346,-472.5 652,-472.5 652,-442.5 346,-442.5"/>
<text text-anchor="start" x="353" y="-453.9" font-family="Arial" font-size="14.00" fill="#000000">id </text>
<text text-anchor="start" x="367.7798" y="-453.9" font-family="Arial" font-size="14.00" fill="#666666">[integer]</text>
<polygon fill="none" stroke="#000000" points="346,-412.5 346,-442.5 652,-442.5 652,-412.5 346,-412.5"/>
<text text-anchor="start" x="353" y="-423.9" font-family="Arial" font-size="14.00" fill="#000000">blog_id </text>
<text text-anchor="start" x="402.0168" y="-423.9" font-family="Arial" font-size="14.00" fill="#666666">[integer]</text>
<polygon fill="none" stroke="#000000" points="346,-382.5 346,-412.5 652,-412.5 652,-382.5 346,-382.5"/>
<text text-anchor="start" x="353" y="-393.9" font-family="Arial" font-size="14.00" fill="#000000">label </text>
<text text-anchor="start" x="386.4516" y="-393.9" font-family="Arial" font-size="14.00" fill="#666666">[text]</text>
<polygon fill="none" stroke="#000000" points="346,-352.5 346,-382.5 652,-382.5 652,-352.5 346,-352.5"/>
<text text-anchor="start" x="353" y="-363.9" font-family="Arial" font-size="14.00" fill="#000000">updated </text>
<text text-anchor="start" x="407.4768" y="-363.9" font-family="Arial" font-size="14.00" fill="#666666">[timestamp without time zone]</text>
<polygon fill="none" stroke="#000000" stroke-width="3" points="344.5,-351.5 344.5,-509.5 653.5,-509.5 653.5,-351.5 344.5,-351.5"/>
</g>
<!-- backup.blogs -->
<g id="node2" class="node">
<title>backup.blogs</title>
<polygon fill="#efefef" stroke="transparent" points="372,-192.5 372,-227.5 625,-227.5 625,-192.5 372,-192.5"/>
<polygon fill="none" stroke="#000000" points="372,-192.5 372,-227.5 625,-227.5 625,-192.5 372,-192.5"/>
<text text-anchor="start" x="396.8532" y="-205.3" font-family="Arial Bold" font-size="18.00" fill="#000000">backup.blogs</text>
<text text-anchor="start" x="502.893" y="-205.3" font-family="Arial" font-size="14.00" fill="#000000"> </text>
<text text-anchor="start" x="506.7836" y="-205.3" font-family="Arial" font-size="14.00" fill="#666666">[BASE TABLE]</text>
<polygon fill="none" stroke="#000000" points="372,-162.5 372,-192.5 625,-192.5 625,-162.5 372,-162.5"/>
<text text-anchor="start" x="379" y="-173.9" font-family="Arial" font-size="14.00" fill="#000000">id </text>
<text text-anchor="start" x="393.7798" y="-173.9" font-family="Arial" font-size="14.00" fill="#666666">[integer]</text>
<polygon fill="none" stroke="#000000" points="372,-132.5 372,-162.5 625,-162.5 625,-132.5 372,-132.5"/>
<text text-anchor="start" x="379" y="-143.9" font-family="Arial" font-size="14.00" fill="#000000">user_id </text>
<text text-anchor="start" x="428.7882" y="-143.9" font-family="Arial" font-size="14.00" fill="#666666">[integer]</text>
<polygon fill="none" stroke="#000000" points="372,-102.5 372,-132.5 625,-132.5 625,-102.5 372,-102.5"/>
<text text-anchor="start" x="379" y="-113.9" font-family="Arial" font-size="14.00" fill="#000000">dump </text>
<text text-anchor="start" x="417.899" y="-113.9" font-family="Arial" font-size="14.00" fill="#666666">[text]</text>
<polygon fill="none" stroke="#000000" points="372,-72.5 372,-102.5 625,-102.5 625,-72.5 372,-72.5"/>
<text text-anchor="start" x="379" y="-83.9" font-family="Arial" font-size="14.00" fill="#000000">created </text>
<text text-anchor="start" x="429.5722" y="-83.9" font-family="Arial" font-size="14.00" fill="#666666">[timestamp without time zone]</text>
<polygon fill="none" stroke="#000000" points="372,-42.5 372,-72.5 625,-72.5 625,-42.5 372,-42.5"/>
<text text-anchor="start" x="378.6915" y="-53.9" font-family="Arial" font-size="14.00" fill="#000000">updated </text>
<text text-anchor="start" x="433.1683" y="-53.9" font-family="Arial" font-size="14.00" fill="#666666">[timestamp without time zone]</text>
</g>
<!-- backup.blog_options&#45;&gt;backup.blogs -->
<g id="edge1" class="edge">
<title>backup.blog_options:blog_id&#45;&gt;backup.blogs:id</title>
<path fill="none" stroke="#000000" d="M336.0053,-426.413C295.0119,-416.7114 313.054,-344.4703 346,-307 428.5577,-213.1053 542.4423,-364.8947 625,-271 652.4397,-239.7922 666.5556,-177.5 625,-177.5"/>
<polygon fill="#000000" stroke="#000000" points="336.0586,-426.4187 345.5134,-431.9736 341.0293,-426.9593 346,-427.5 346,-427.5 346,-427.5 341.0293,-426.9593 346.4866,-423.0264 336.0586,-426.4187 336.0586,-426.4187"/>
<text text-anchor="start" x="6.6045" y="-437.5" font-family="Arial" font-size="10.00" fill="#000000">FOREIGN KEY (blog_id) REFERENCES blogs(id) ON DELETE CASCADE</text>
</g>
</g>
</svg>
