<?xml version="1.0" encoding="UTF-8" standalone="no"?>
<!DOCTYPE svg PUBLIC "-//W3C//DTD SVG 1.1//EN"
 "http://www.w3.org/Graphics/SVG/1.1/DTD/svg11.dtd">
<!-- Generated by graphviz version 12.1.2 (20240928.0832)
 -->
<!-- Title: public.hyphen&#45;table Pages: 1 -->
<svg width="788pt" height="479pt"
 viewBox="0.00 0.00 788.27 478.80" xmlns="http://www.w3.org/2000/svg" xmlns:xlink="http://www.w3.org/1999/xlink">
<g id="graph0" class="graph" transform="scale(1 1) rotate(0) translate(4 474.8)">
<title>public.hyphen&#45;table</title>
<polygon fill="white" stroke="none" points="-4,4 -4,-474.8 784.27,-474.8 784.27,4 -4,4"/>
<!-- public.hyphen&#45;table -->
<g id="node1" class="node">
<title>public.hyphen&#45;table</title>
<polygon fill="#efefef" stroke="none" points="50.69,-389 50.69,-424.6 332.63,-424.6 332.63,-389 50.69,-389"/>
<polygon fill="none" stroke="black" points="50.69,-389 50.69,-424.6 332.63,-424.6 332.63,-389 50.69,-389"/>
<text text-anchor="start" x="57.69" y="-402.4" font-family="Arial Bold" font-size="18.00">public.hyphen&#45;table</text>
<text text-anchor="start" x="201.14" y="-402.4" font-family="Arial" font-size="14.00">    </text>
<text text-anchor="start" x="232.26" y="-402.4" font-family="Arial" font-size="14.00" fill="#666666">[BASE TABLE]</text>
<polygon fill="none" stroke="black" points="50.69,-358.2 50.69,-389 332.63,-389 332.63,-358.2 50.69,-358.2"/>
<text text-anchor="start" x="57.69" y="-370.4" font-family="Arial" font-size="14.00">id </text>
<text text-anchor="start" x="72.47" y="-370.4" font-family="Arial" font-size="14.00" fill="#666666">[uuid]</text>
<polygon fill="none" stroke="black" points="50.69,-327.4 50.69,-358.2 332.63,-358.2 332.63,-327.4 50.69,-327.4"/>
<text text-anchor="start" x="57.69" y="-339.6" font-family="Arial" font-size="14.00">hyphen&#45;column </text>
<text text-anchor="start" x="157.3" y="-339.6" font-family="Arial" font-size="14.00" fill="#666666">[text]</text>
<polygon fill="none" stroke="black" points="50.69,-296.6 50.69,-327.4 332.63,-327.4 332.63,-296.6 50.69,-296.6"/>
<text text-anchor="start" x="57.69" y="-308.8" font-family="Arial" font-size="14.00">CamelizeTableId </text>
<text text-anchor="start" x="166.63" y="-308.8" font-family="Arial" font-size="14.00" fill="#666666">[uuid]</text>
<polygon fill="none" stroke="black" points="50.69,-265.8 50.69,-296.6 332.63,-296.6 332.63,-265.8 50.69,-265.8"/>
<text text-anchor="start" x="57.69" y="-278" font-family="Arial" font-size="14.00">created </text>
<text text-anchor="start" x="108.27" y="-278" font-family="Arial" font-size="14.00" fill="#666666">[timestamp without time zone]</text>
<polygon fill="none" stroke="black" stroke-width="3" points="49.19,-264.3 49.19,-426.1 334.13,-426.1 334.13,-264.3 49.19,-264.3"/>
</g>
<!-- public.CamelizeTable -->
<g id="node2" class="node">
<title>public.CamelizeTable</title>
<polygon fill="#efefef" stroke="none" points="43.2,-104.8 43.2,-140.4 340.12,-140.4 340.12,-104.8 43.2,-104.8"/>
<polygon fill="none" stroke="black" points="43.2,-104.8 43.2,-140.4 340.12,-140.4 340.12,-104.8 43.2,-104.8"/>
<text text-anchor="start" x="50.2" y="-118.2" font-family="Arial Bold" font-size="18.00">public.CamelizeTable</text>
<text text-anchor="start" x="208.63" y="-118.2" font-family="Arial" font-size="14.00">    </text>
<text text-anchor="start" x="239.75" y="-118.2" font-family="Arial" font-size="14.00" fill="#666666">[BASE TABLE]</text>
<polygon fill="none" stroke="black" points="43.2,-74 43.2,-104.8 340.12,-104.8 340.12,-74 43.2,-74"/>
<text text-anchor="start" x="50.2" y="-86.2" font-family="Arial" font-size="14.00">id </text>
<text text-anchor="start" x="64.99" y="-86.2" font-family="Arial" font-size="14.00" fill="#666666">[uuid]</text>
<polygon fill="none" stroke="black" points="43.2,-43.2 43.2,-74 340.12,-74 340.12,-43.2 43.2,-43.2"/>
<text text-anchor="start" x="50.2" y="-55.4" font-family="Arial" font-size="14.00">created </text>
<text text-anchor="start" x="100.79" y="-55.4" font-family="Arial" font-size="14.00" fill="#666666">[timestamp without time zone]</text>
</g>
<!-- public.hyphen&#45;table&#45;&gt;public.CamelizeTable -->
<g id="edge1" class="edge">
<title>public.hyphen&#45;table:CamelizeTableId&#45;&gt;public.CamelizeTable:id</title>
<path fill="none" stroke="black" d="M343.44,-308.85C383.9,-281.8 387.14,-89.4 341.12,-89.4"/>
<polygon fill="black" stroke="black" points="343.47,-308.84 332.58,-307.61 338.39,-310.47 334.27,-311.8 334.27,-311.8 334.27,-311.8 338.39,-310.47 335.33,-316.18 343.47,-308.84"/>
<text text-anchor="start" x="340.63" y="-322" font-family="Arial" font-size="10.00">FOREIGN KEY (&quot;CamelizeTableId&quot;) REFERENCES &quot;CamelizeTable&quot;(id) ON DELETE CASCADE</text>
</g>
</g>
</svg>
