<?xml version="1.0" encoding="UTF-8" standalone="no"?>
<!DOCTYPE svg PUBLIC "-//W3C//DTD SVG 1.1//EN"
 "http://www.w3.org/Graphics/SVG/1.1/DTD/svg11.dtd">
<!-- Generated by graphviz version 12.1.2 (20240928.0832)
 -->
<!-- Title: public.posts Pages: 1 -->
<svg width="858pt" height="1099pt"
 viewBox="0.00 0.00 858.46 1098.80" xmlns="http://www.w3.org/2000/svg" xmlns:xlink="http://www.w3.org/1999/xlink">
<g id="graph0" class="graph" transform="scale(1 1) rotate(0) translate(4 1094.8)">
<title>public.posts</title>
<polygon fill="white" stroke="none" points="-4,4 -4,-1094.8 854.46,-1094.8 854.46,4 -4,4"/>
<!-- public.posts -->
<g id="node1" class="node">
<title>public.posts</title>
<polygon fill="#efefef" stroke="none" points="247.81,-635.4 247.81,-671 501.5,-671 501.5,-635.4 247.81,-635.4"/>
<polygon fill="none" stroke="black" points="247.81,-635.4 247.81,-671 501.5,-671 501.5,-635.4 247.81,-635.4"/>
<text text-anchor="start" x="269.16" y="-648.8" font-family="Arial Bold" font-size="18.00">public.posts</text>
<text text-anchor="start" x="355.66" y="-648.8" font-family="Arial" font-size="14.00">    </text>
<text text-anchor="start" x="386.78" y="-648.8" font-family="Arial" font-size="14.00" fill="#666666">[BASE TABLE]</text>
<polygon fill="none" stroke="black" points="247.81,-604.6 247.81,-635.4 501.5,-635.4 501.5,-604.6 247.81,-604.6"/>
<text text-anchor="start" x="254.81" y="-616.8" font-family="Arial" font-size="14.00">id </text>
<text text-anchor="start" x="269.6" y="-616.8" font-family="Arial" font-size="14.00" fill="#666666">[bigint]</text>
<polygon fill="none" stroke="black" points="247.81,-573.8 247.81,-604.6 501.5,-604.6 501.5,-573.8 247.81,-573.8"/>
<text text-anchor="start" x="254.81" y="-586" font-family="Arial" font-size="14.00">user_id </text>
<text text-anchor="start" x="304.62" y="-586" font-family="Arial" font-size="14.00" fill="#666666">[integer]</text>
<polygon fill="none" stroke="black" points="247.81,-543 247.81,-573.8 501.5,-573.8 501.5,-543 247.81,-543"/>
<text text-anchor="start" x="254.81" y="-555.2" font-family="Arial" font-size="14.00">title </text>
<text text-anchor="start" x="280.49" y="-555.2" font-family="Arial" font-size="14.00" fill="#666666">[varchar(255)]</text>
<polygon fill="none" stroke="black" points="247.81,-512.2 247.81,-543 501.5,-543 501.5,-512.2 247.81,-512.2"/>
<text text-anchor="start" x="254.81" y="-524.4" font-family="Arial" font-size="14.00">body </text>
<text text-anchor="start" x="289.06" y="-524.4" font-family="Arial" font-size="14.00" fill="#666666">[text]</text>
<polygon fill="none" stroke="black" points="247.81,-481.4 247.81,-512.2 501.5,-512.2 501.5,-481.4 247.81,-481.4"/>
<text text-anchor="start" x="254.81" y="-493.6" font-family="Arial" font-size="14.00">post_type </text>
<text text-anchor="start" x="319.41" y="-493.6" font-family="Arial" font-size="14.00" fill="#666666">[post_types]</text>
<polygon fill="none" stroke="black" points="247.81,-450.6 247.81,-481.4 501.5,-481.4 501.5,-450.6 247.81,-450.6"/>
<text text-anchor="start" x="254.81" y="-462.8" font-family="Arial" font-size="14.00">labels </text>
<text text-anchor="start" x="295.28" y="-462.8" font-family="Arial" font-size="14.00" fill="#666666">[varchar(50)[]]</text>
<polygon fill="none" stroke="black" points="247.81,-419.8 247.81,-450.6 501.5,-450.6 501.5,-419.8 247.81,-419.8"/>
<text text-anchor="start" x="254.81" y="-432" font-family="Arial" font-size="14.00">created </text>
<text text-anchor="start" x="305.4" y="-432" font-family="Arial" font-size="14.00" fill="#666666">[timestamp without time zone]</text>
<polygon fill="none" stroke="black" points="247.81,-389 247.81,-419.8 501.5,-419.8 501.5,-389 247.81,-389"/>
<text text-anchor="start" x="254.81" y="-401.2" font-family="Arial" font-size="14.00">updated </text>
<text text-anchor="start" x="309.31" y="-401.2" font-family="Arial" font-size="14.00" fill="#666666">[timestamp without time zone]</text>
<polygon fill="none" stroke="black" stroke-width="3" points="246.31,-387.5 246.31,-672.5 503,-672.5 503,-387.5 246.31,-387.5"/>
</g>
<!-- public.users -->
<g id="node4" class="node">
<title>public.users</title>
<polygon fill="#efefef" stroke="none" points="234.2,-228 234.2,-263.6 515.11,-263.6 515.11,-228 234.2,-228"/>
<polygon fill="none" stroke="black" points="234.2,-228 234.2,-263.6 515.11,-263.6 515.11,-228 234.2,-228"/>
<text text-anchor="start" x="269.17" y="-241.4" font-family="Arial Bold" font-size="18.00">public.users</text>
<text text-anchor="start" x="355.65" y="-241.4" font-family="Arial" font-size="14.00">    </text>
<text text-anchor="start" x="386.77" y="-241.4" font-family="Arial" font-size="14.00" fill="#666666">[BASE TABLE]</text>
<polygon fill="none" stroke="black" points="234.2,-197.2 234.2,-228 515.11,-228 515.11,-197.2 234.2,-197.2"/>
<text text-anchor="start" x="241.2" y="-209.4" font-family="Arial" font-size="14.00">id    </text>
<text text-anchor="start" x="283.21" y="-209.4" font-family="Arial" font-size="14.00" fill="#666666">[integer]</text>
<polygon fill="none" stroke="black" points="234.2,-166.4 234.2,-197.2 515.11,-197.2 515.11,-166.4 234.2,-166.4"/>
<text text-anchor="start" x="241.2" y="-178.6" font-family="Arial" font-size="14.00">username    </text>
<text text-anchor="start" x="334.57" y="-178.6" font-family="Arial" font-size="14.00" fill="#666666">[varchar(50)]</text>
<polygon fill="none" stroke="black" points="234.2,-135.6 234.2,-166.4 515.11,-166.4 515.11,-135.6 234.2,-135.6"/>
<text text-anchor="start" x="241.2" y="-147.8" font-family="Arial" font-size="14.00">password    </text>
<text text-anchor="start" x="332.23" y="-147.8" font-family="Arial" font-size="14.00" fill="#666666">[varchar(50)]</text>
<polygon fill="none" stroke="black" points="234.2,-104.8 234.2,-135.6 515.11,-135.6 515.11,-104.8 234.2,-104.8"/>
<text text-anchor="start" x="241.2" y="-117" font-family="Arial" font-size="14.00">email    </text>
<text text-anchor="start" x="305.77" y="-117" font-family="Arial" font-size="14.00" fill="#666666">[varchar(355)]</text>
<polygon fill="none" stroke="black" points="234.2,-74 234.2,-104.8 515.11,-104.8 515.11,-74 234.2,-74"/>
<text text-anchor="start" x="241.2" y="-86.2" font-family="Arial" font-size="14.00">created    </text>
<text text-anchor="start" x="319.01" y="-86.2" font-family="Arial" font-size="14.00" fill="#666666">[timestamp without time zone]</text>
<polygon fill="none" stroke="black" points="234.2,-43.2 234.2,-74 515.11,-74 515.11,-43.2 234.2,-43.2"/>
<text text-anchor="start" x="241.2" y="-55.4" font-family="Arial" font-size="14.00">updated    </text>
<text text-anchor="start" x="322.92" y="-55.4" font-family="Arial" font-size="14.00" fill="#666666">[timestamp without time zone]</text>
</g>
<!-- public.posts&#45;&gt;public.users -->
<g id="edge3" class="edge">
<title>public.posts:user_id&#45;&gt;public.users:id</title>
<path fill="none" stroke="black" d="M512.61,-588.73C670.46,-573.91 680.16,-212.6 516.11,-212.6"/>
<polygon fill="black" stroke="black" points="512.82,-588.72 502.62,-584.69 507.49,-588.97 503.16,-589.17 503.16,-589.17 503.16,-589.17 507.49,-588.97 503.04,-593.68 512.82,-588.72"/>
<text text-anchor="start" x="509.5" y="-599.2" font-family="Arial" font-size="10.00">FOREIGN KEY (user_id) REFERENCES users(id) ON DELETE CASCADE</text>
</g>
<!-- public.comments -->
<g id="node2" class="node">
<title>public.comments</title>
<polygon fill="#efefef" stroke="none" points="43.2,-996.6 43.2,-1032.2 324.11,-1032.2 324.11,-996.6 43.2,-996.6"/>
<polygon fill="none" stroke="black" points="43.2,-996.6 43.2,-1032.2 324.11,-1032.2 324.11,-996.6 43.2,-996.6"/>
<text text-anchor="start" x="59.67" y="-1010" font-family="Arial Bold" font-size="18.00">public.comments</text>
<text text-anchor="start" x="183.15" y="-1010" font-family="Arial" font-size="14.00">    </text>
<text text-anchor="start" x="214.27" y="-1010" font-family="Arial" font-size="14.00" fill="#666666">[BASE TABLE]</text>
<polygon fill="none" stroke="black" points="43.2,-965.8 43.2,-996.6 324.11,-996.6 324.11,-965.8 43.2,-965.8"/>
<text text-anchor="start" x="50.2" y="-978" font-family="Arial" font-size="14.00">id    </text>
<text text-anchor="start" x="92.21" y="-978" font-family="Arial" font-size="14.00" fill="#666666">[bigint]</text>
<polygon fill="none" stroke="black" points="43.2,-935 43.2,-965.8 324.11,-965.8 324.11,-935 43.2,-935"/>
<text text-anchor="start" x="50.2" y="-947.2" font-family="Arial" font-size="14.00">post_id    </text>
<text text-anchor="start" x="126.46" y="-947.2" font-family="Arial" font-size="14.00" fill="#666666">[bigint]</text>
<polygon fill="none" stroke="black" points="43.2,-904.2 43.2,-935 324.11,-935 324.11,-904.2 43.2,-904.2"/>
<text text-anchor="start" x="50.2" y="-916.4" font-family="Arial" font-size="14.00">user_id    </text>
<text text-anchor="start" x="127.23" y="-916.4" font-family="Arial" font-size="14.00" fill="#666666">[integer]</text>
<polygon fill="none" stroke="black" points="43.2,-873.4 43.2,-904.2 324.11,-904.2 324.11,-873.4 43.2,-873.4"/>
<text text-anchor="start" x="50.2" y="-885.6" font-family="Arial" font-size="14.00">comment    </text>
<text text-anchor="start" x="138.89" y="-885.6" font-family="Arial" font-size="14.00" fill="#666666">[text]</text>
<polygon fill="none" stroke="black" points="43.2,-842.6 43.2,-873.4 324.11,-873.4 324.11,-842.6 43.2,-842.6"/>
<text text-anchor="start" x="50.2" y="-854.8" font-family="Arial" font-size="14.00">created    </text>
<text text-anchor="start" x="128.01" y="-854.8" font-family="Arial" font-size="14.00" fill="#666666">[timestamp without time zone]</text>
<polygon fill="none" stroke="black" points="43.2,-811.8 43.2,-842.6 324.11,-842.6 324.11,-811.8 43.2,-811.8"/>
<text text-anchor="start" x="50.2" y="-824" font-family="Arial" font-size="14.00">updated    </text>
<text text-anchor="start" x="131.92" y="-824" font-family="Arial" font-size="14.00" fill="#666666">[timestamp without time zone]</text>
</g>
<!-- public.comments&#45;&gt;public.posts -->
<g id="edge1" class="edge">
<title>public.comments:post_id&#45;&gt;public.posts:id</title>
<path fill="none" stroke="black" d="M335.26,-949.74C402,-940.55 360.55,-836.63 324.11,-768.6 304.8,-732.56 267.2,-753.2 247.81,-717.2 227.32,-679.17 203.61,-620 246.81,-620"/>
<polygon fill="black" stroke="black" points="335.42,-949.73 325.15,-945.89 330.1,-950.08 325.78,-950.36 325.78,-950.36 325.78,-950.36 330.1,-950.08 325.73,-954.87 335.42,-949.73"/>
<text text-anchor="start" x="332.11" y="-960.4" font-family="Arial" font-size="10.00">FOREIGN KEY (post_id) REFERENCES posts(id)</text>
</g>
<!-- public.logs -->
<g id="node3" class="node">
<title>public.logs</title>
<polygon fill="#efefef" stroke="none" points="428.16,-1012 428.16,-1047.6 705.15,-1047.6 705.15,-1012 428.16,-1012"/>
<polygon fill="none" stroke="black" points="428.16,-1012 428.16,-1047.6 705.15,-1047.6 705.15,-1012 428.16,-1012"/>
<text text-anchor="start" x="464.66" y="-1025.4" font-family="Arial Bold" font-size="18.00">public.logs</text>
<text text-anchor="start" x="544.16" y="-1025.4" font-family="Arial" font-size="14.00">    </text>
<text text-anchor="start" x="575.28" y="-1025.4" font-family="Arial" font-size="14.00" fill="#666666">[BASE TABLE]</text>
<polygon fill="none" stroke="black" points="428.16,-981.2 428.16,-1012 705.15,-1012 705.15,-981.2 428.16,-981.2"/>
<text text-anchor="start" x="435.16" y="-993.4" font-family="Arial" font-size="14.00">id    </text>
<text text-anchor="start" x="477.17" y="-993.4" font-family="Arial" font-size="14.00" fill="#666666">[uuid]</text>
<polygon fill="none" stroke="black" points="428.16,-950.4 428.16,-981.2 705.15,-981.2 705.15,-950.4 428.16,-950.4"/>
<text text-anchor="start" x="435.16" y="-962.6" font-family="Arial" font-size="14.00">user_id    </text>
<text text-anchor="start" x="512.19" y="-962.6" font-family="Arial" font-size="14.00" fill="#666666">[integer]</text>
<polygon fill="none" stroke="black" points="428.16,-919.6 428.16,-950.4 705.15,-950.4 705.15,-919.6 428.16,-919.6"/>
<text text-anchor="start" x="435.16" y="-931.8" font-family="Arial" font-size="14.00">post_id    </text>
<text text-anchor="start" x="511.42" y="-931.8" font-family="Arial" font-size="14.00" fill="#666666">[bigint]</text>
<polygon fill="none" stroke="black" points="428.16,-888.8 428.16,-919.6 705.15,-919.6 705.15,-888.8 428.16,-888.8"/>
<text text-anchor="start" x="435.16" y="-901" font-family="Arial" font-size="14.00">comment_id    </text>
<text text-anchor="start" x="542.53" y="-901" font-family="Arial" font-size="14.00" fill="#666666">[bigint]</text>
<polygon fill="none" stroke="black" points="428.16,-858 428.16,-888.8 705.15,-888.8 705.15,-858 428.16,-858"/>
<text text-anchor="start" x="435.16" y="-870.2" font-family="Arial" font-size="14.00">comment_star_id    </text>
<text text-anchor="start" x="573.65" y="-870.2" font-family="Arial" font-size="14.00" fill="#666666">[uuid]</text>
<polygon fill="none" stroke="black" points="428.16,-827.2 428.16,-858 705.15,-858 705.15,-827.2 428.16,-827.2"/>
<text text-anchor="start" x="435.16" y="-839.4" font-family="Arial" font-size="14.00">payload    </text>
<text text-anchor="start" x="515.31" y="-839.4" font-family="Arial" font-size="14.00" fill="#666666">[text]</text>
<polygon fill="none" stroke="black" points="428.16,-796.4 428.16,-827.2 705.15,-827.2 705.15,-796.4 428.16,-796.4"/>
<text text-anchor="start" x="435.16" y="-808.6" font-family="Arial" font-size="14.00">created    </text>
<text text-anchor="start" x="512.97" y="-808.6" font-family="Arial" font-size="14.00" fill="#666666">[timestamp without time zone]</text>
</g>
<!-- public.logs&#45;&gt;public.posts -->
<g id="edge2" class="edge">
<title>public.logs:post_id&#45;&gt;public.posts:id</title>
<path fill="none" stroke="black" stroke-dasharray="5,2" d="M416.98,-934.33C349.86,-924.91 387.16,-818.58 428.16,-753.2 447.44,-722.44 482.13,-747.92 501.5,-717.2 524.53,-680.65 545.7,-620 502.5,-620"/>
<polygon fill="black" stroke="black" points="416.84,-934.32 426.52,-939.47 422.17,-934.67 426.49,-934.96 426.49,-934.96 426.49,-934.96 422.17,-934.67 427.12,-930.49 416.84,-934.32"/>
<text text-anchor="start" x="336.77" y="-919" font-family="Arial" font-size="10.00">Additional Relation</text>
</g>
</g>
</svg>
