<?xml version="1.0" encoding="UTF-8" standalone="no"?>
<!DOCTYPE svg PUBLIC "-//W3C//DTD SVG 1.1//EN"
 "http://www.w3.org/Graphics/SVG/1.1/DTD/svg11.dtd">
<!-- Generated by graphviz version 2.40.1 (20161225.0304)
 -->
<!-- Title: public.posts Pages: 1 -->
<svg width="858pt" height="1079pt"
 viewBox="0.00 0.00 858.00 1079.00" xmlns="http://www.w3.org/2000/svg" xmlns:xlink="http://www.w3.org/1999/xlink">
<g id="graph0" class="graph" transform="scale(1 1) rotate(0) translate(4 1075)">
<title>public.posts</title>
<polygon fill="#ffffff" stroke="transparent" points="-4,4 -4,-1075 854,-1075 854,4 -4,4"/>
<!-- public.posts -->
<g id="node1" class="node">
<title>public.posts</title>
<polygon fill="#efefef" stroke="transparent" points="347,-622.5 347,-657.5 600,-657.5 600,-622.5 347,-622.5"/>
<polygon fill="none" stroke="#000000" points="347,-622.5 347,-657.5 600,-657.5 600,-622.5 347,-622.5"/>
<text text-anchor="start" x="362.2041" y="-635.3" font-family="Arial Bold" font-size="18.00" fill="#000000">public.posts</text>
<text text-anchor="start" x="457.2279" y="-635.3" font-family="Arial" font-size="14.00" fill="#000000">    </text>
<text text-anchor="start" x="491.4327" y="-635.3" font-family="Arial" font-size="14.00" fill="#666666">[BASE TABLE]</text>
<polygon fill="none" stroke="#000000" points="347,-592.5 347,-622.5 600,-622.5 600,-592.5 347,-592.5"/>
<text text-anchor="start" x="354" y="-603.9" font-family="Arial" font-size="14.00" fill="#000000">id </text>
<text text-anchor="start" x="368.7798" y="-603.9" font-family="Arial" font-size="14.00" fill="#666666">[bigint]</text>
<polygon fill="none" stroke="#000000" points="347,-562.5 347,-592.5 600,-592.5 600,-562.5 347,-562.5"/>
<text text-anchor="start" x="354" y="-573.9" font-family="Arial" font-size="14.00" fill="#000000">user_id </text>
<text text-anchor="start" x="403.7882" y="-573.9" font-family="Arial" font-size="14.00" fill="#666666">[integer]</text>
<polygon fill="none" stroke="#000000" points="347,-532.5 347,-562.5 600,-562.5 600,-532.5 347,-532.5"/>
<text text-anchor="start" x="354" y="-543.9" font-family="Arial" font-size="14.00" fill="#000000">title </text>
<text text-anchor="start" x="379.6676" y="-543.9" font-family="Arial" font-size="14.00" fill="#666666">[varchar(255)]</text>
<polygon fill="none" stroke="#000000" points="347,-502.5 347,-532.5 600,-532.5 600,-502.5 347,-502.5"/>
<text text-anchor="start" x="354" y="-513.9" font-family="Arial" font-size="14.00" fill="#000000">body </text>
<text text-anchor="start" x="388.2384" y="-513.9" font-family="Arial" font-size="14.00" fill="#666666">[text]</text>
<polygon fill="none" stroke="#000000" points="347,-472.5 347,-502.5 600,-502.5 600,-472.5 347,-472.5"/>
<text text-anchor="start" x="354" y="-483.9" font-family="Arial" font-size="14.00" fill="#000000">post_type </text>
<text text-anchor="start" x="418.5848" y="-483.9" font-family="Arial" font-size="14.00" fill="#666666">[post_types]</text>
<polygon fill="none" stroke="#000000" points="347,-442.5 347,-472.5 600,-472.5 600,-442.5 347,-442.5"/>
<text text-anchor="start" x="354" y="-453.9" font-family="Arial" font-size="14.00" fill="#000000">labels </text>
<text text-anchor="start" x="394.4516" y="-453.9" font-family="Arial" font-size="14.00" fill="#666666">[varchar(50)[]]</text>
<polygon fill="none" stroke="#000000" points="347,-412.5 347,-442.5 600,-442.5 600,-412.5 347,-412.5"/>
<text text-anchor="start" x="354" y="-423.9" font-family="Arial" font-size="14.00" fill="#000000">created </text>
<text text-anchor="start" x="404.5722" y="-423.9" font-family="Arial" font-size="14.00" fill="#666666">[timestamp without time zone]</text>
<polygon fill="none" stroke="#000000" points="347,-382.5 347,-412.5 600,-412.5 600,-382.5 347,-382.5"/>
<text text-anchor="start" x="353.6915" y="-393.9" font-family="Arial" font-size="14.00" fill="#000000">updated </text>
<text text-anchor="start" x="408.1683" y="-393.9" font-family="Arial" font-size="14.00" fill="#666666">[timestamp without time zone]</text>
<polygon fill="none" stroke="#000000" stroke-width="3" points="345,-381.5 345,-659.5 601,-659.5 601,-381.5 345,-381.5"/>
</g>
<!-- public.users -->
<g id="node4" class="node">
<title>public.users</title>
<polygon fill="#efefef" stroke="transparent" points="332,-222.5 332,-257.5 615,-257.5 615,-222.5 332,-222.5"/>
<polygon fill="none" stroke="#000000" points="332,-222.5 332,-257.5 615,-257.5 615,-222.5 332,-222.5"/>
<text text-anchor="start" x="361.7091" y="-235.3" font-family="Arial Bold" font-size="18.00" fill="#000000">public.users</text>
<text text-anchor="start" x="457.7229" y="-235.3" font-family="Arial" font-size="14.00" fill="#000000">    </text>
<text text-anchor="start" x="491.9277" y="-235.3" font-family="Arial" font-size="14.00" fill="#666666">[BASE TABLE]</text>
<polygon fill="none" stroke="#000000" points="332,-192.5 332,-222.5 615,-222.5 615,-192.5 332,-192.5"/>
<text text-anchor="start" x="339" y="-203.9" font-family="Arial" font-size="14.00" fill="#000000">id    </text>
<text text-anchor="start" x="384.094" y="-203.9" font-family="Arial" font-size="14.00" fill="#666666">[integer]</text>
<polygon fill="none" stroke="#000000" points="332,-162.5 332,-192.5 615,-192.5 615,-162.5 332,-162.5"/>
<text text-anchor="start" x="339" y="-173.9" font-family="Arial" font-size="14.00" fill="#000000">username    </text>
<text text-anchor="start" x="435.439" y="-173.9" font-family="Arial" font-size="14.00" fill="#666666">[varchar(50)]</text>
<polygon fill="none" stroke="#000000" points="332,-132.5 332,-162.5 615,-162.5 615,-132.5 332,-132.5"/>
<text text-anchor="start" x="339" y="-143.9" font-family="Arial" font-size="14.00" fill="#000000">password    </text>
<text text-anchor="start" x="433.1024" y="-143.9" font-family="Arial" font-size="14.00" fill="#666666">[varchar(50)]</text>
<polygon fill="none" stroke="#000000" points="332,-102.5 332,-132.5 615,-132.5 615,-102.5 332,-102.5"/>
<text text-anchor="start" x="339" y="-113.9" font-family="Arial" font-size="14.00" fill="#000000">email    </text>
<text text-anchor="start" x="406.6438" y="-113.9" font-family="Arial" font-size="14.00" fill="#666666">[varchar(355)]</text>
<polygon fill="none" stroke="#000000" points="332,-72.5 332,-102.5 615,-102.5 615,-72.5 332,-72.5"/>
<text text-anchor="start" x="339" y="-83.9" font-family="Arial" font-size="14.00" fill="#000000">created    </text>
<text text-anchor="start" x="419.8864" y="-83.9" font-family="Arial" font-size="14.00" fill="#666666">[timestamp without time zone]</text>
<polygon fill="none" stroke="#000000" points="332,-42.5 332,-72.5 615,-72.5 615,-42.5 332,-42.5"/>
<text text-anchor="start" x="338.5344" y="-53.9" font-family="Arial" font-size="14.00" fill="#000000">updated    </text>
<text text-anchor="start" x="423.3254" y="-53.9" font-family="Arial" font-size="14.00" fill="#666666">[timestamp without time zone]</text>
</g>
<!-- public.posts&#45;&gt;public.users -->
<g id="edge3" class="edge">
<title>public.posts:user_id&#45;&gt;public.users:id</title>
<path fill="none" stroke="#000000" d="M336.5998,-576.995C181.8588,-561.7723 170.9564,-207.5 332,-207.5"/>
<polygon fill="#000000" stroke="#000000" points="337.0118,-577.0149 346.7817,-581.9947 342.0059,-577.2575 347,-577.5 347,-577.5 347,-577.5 342.0059,-577.2575 347.2183,-573.0053 337.0118,-577.0149 337.0118,-577.0149"/>
<text text-anchor="start" x="7.0535" y="-587.5" font-family="Arial" font-size="10.00" fill="#000000">FOREIGN KEY (user_id) REFERENCES users(id) ON DELETE CASCADE</text>
</g>
<!-- public.comments -->
<g id="node2" class="node">
<title>public.comments</title>
<polygon fill="#efefef" stroke="transparent" points="140,-977.5 140,-1012.5 423,-1012.5 423,-977.5 140,-977.5"/>
<polygon fill="none" stroke="#000000" points="140,-977.5 140,-1012.5 423,-1012.5 423,-977.5 140,-977.5"/>
<text text-anchor="start" x="150.2088" y="-990.3" font-family="Arial Bold" font-size="18.00" fill="#000000">public.comments</text>
<text text-anchor="start" x="285.2232" y="-990.3" font-family="Arial" font-size="14.00" fill="#000000">    </text>
<text text-anchor="start" x="319.428" y="-990.3" font-family="Arial" font-size="14.00" fill="#666666">[BASE TABLE]</text>
<polygon fill="none" stroke="#000000" points="140,-947.5 140,-977.5 423,-977.5 423,-947.5 140,-947.5"/>
<text text-anchor="start" x="147" y="-958.9" font-family="Arial" font-size="14.00" fill="#000000">id    </text>
<text text-anchor="start" x="192.094" y="-958.9" font-family="Arial" font-size="14.00" fill="#666666">[bigint]</text>
<polygon fill="none" stroke="#000000" points="140,-917.5 140,-947.5 423,-947.5 423,-917.5 140,-917.5"/>
<text text-anchor="start" x="147" y="-928.9" font-family="Arial" font-size="14.00" fill="#000000">post_id    </text>
<text text-anchor="start" x="226.3324" y="-928.9" font-family="Arial" font-size="14.00" fill="#666666">[bigint]</text>
<polygon fill="none" stroke="#000000" points="140,-887.5 140,-917.5 423,-917.5 423,-887.5 140,-887.5"/>
<text text-anchor="start" x="147" y="-898.9" font-family="Arial" font-size="14.00" fill="#000000">user_id    </text>
<text text-anchor="start" x="227.1024" y="-898.9" font-family="Arial" font-size="14.00" fill="#666666">[integer]</text>
<polygon fill="none" stroke="#000000" points="140,-857.5 140,-887.5 423,-887.5 423,-857.5 140,-857.5"/>
<text text-anchor="start" x="147" y="-868.9" font-family="Arial" font-size="14.00" fill="#000000">comment    </text>
<text text-anchor="start" x="238.7644" y="-868.9" font-family="Arial" font-size="14.00" fill="#666666">[text]</text>
<polygon fill="none" stroke="#000000" points="140,-827.5 140,-857.5 423,-857.5 423,-827.5 140,-827.5"/>
<text text-anchor="start" x="147" y="-838.9" font-family="Arial" font-size="14.00" fill="#000000">created    </text>
<text text-anchor="start" x="227.8864" y="-838.9" font-family="Arial" font-size="14.00" fill="#666666">[timestamp without time zone]</text>
<polygon fill="none" stroke="#000000" points="140,-797.5 140,-827.5 423,-827.5 423,-797.5 140,-797.5"/>
<text text-anchor="start" x="146.5344" y="-808.9" font-family="Arial" font-size="14.00" fill="#000000">updated    </text>
<text text-anchor="start" x="231.3254" y="-808.9" font-family="Arial" font-size="14.00" fill="#666666">[timestamp without time zone]</text>
</g>
<!-- public.comments&#45;&gt;public.posts -->
<g id="edge1" class="edge">
<title>public.comments:post_id&#45;&gt;public.posts:id</title>
<path fill="none" stroke="#000000" d="M433.3113,-931.8039C497.9832,-922.4695 458.379,-821.3477 423,-755 403.86,-719.106 366.14,-739.894 347,-704 326.8199,-666.1553 304.1111,-607.5 347,-607.5"/>
<polygon fill="#000000" stroke="#000000" points="432.9773,-931.8263 422.6968,-928.0102 427.9886,-932.1632 423,-932.5 423,-932.5 423,-932.5 427.9886,-932.1632 423.3032,-936.9898 432.9773,-931.8263 432.9773,-931.8263"/>
<text text-anchor="start" x="429.8845" y="-942.5" font-family="Arial" font-size="10.00" fill="#000000">FOREIGN KEY (post_id) REFERENCES posts(id)</text>
</g>
<!-- public.logs -->
<g id="node3" class="node">
<title>public.logs</title>
<polygon fill="#efefef" stroke="transparent" points="527,-992.5 527,-1027.5 807,-1027.5 807,-992.5 527,-992.5"/>
<polygon fill="none" stroke="#000000" points="527,-992.5 527,-1027.5 807,-1027.5 807,-992.5 527,-992.5"/>
<text text-anchor="start" x="560.7081" y="-1005.3" font-family="Arial Bold" font-size="18.00" fill="#000000">public.logs</text>
<text text-anchor="start" x="645.7239" y="-1005.3" font-family="Arial" font-size="14.00" fill="#000000">    </text>
<text text-anchor="start" x="679.9287" y="-1005.3" font-family="Arial" font-size="14.00" fill="#666666">[BASE TABLE]</text>
<polygon fill="none" stroke="#000000" points="527,-962.5 527,-992.5 807,-992.5 807,-962.5 527,-962.5"/>
<text text-anchor="start" x="534" y="-973.9" font-family="Arial" font-size="14.00" fill="#000000">id    </text>
<text text-anchor="start" x="579.094" y="-973.9" font-family="Arial" font-size="14.00" fill="#666666">[uuid]</text>
<polygon fill="none" stroke="#000000" points="527,-932.5 527,-962.5 807,-962.5 807,-932.5 527,-932.5"/>
<text text-anchor="start" x="534" y="-943.9" font-family="Arial" font-size="14.00" fill="#000000">user_id    </text>
<text text-anchor="start" x="614.1024" y="-943.9" font-family="Arial" font-size="14.00" fill="#666666">[integer]</text>
<polygon fill="none" stroke="#000000" points="527,-902.5 527,-932.5 807,-932.5 807,-902.5 527,-902.5"/>
<text text-anchor="start" x="534" y="-913.9" font-family="Arial" font-size="14.00" fill="#000000">post_id    </text>
<text text-anchor="start" x="613.3324" y="-913.9" font-family="Arial" font-size="14.00" fill="#666666">[bigint]</text>
<polygon fill="none" stroke="#000000" points="527,-872.5 527,-902.5 807,-902.5 807,-872.5 527,-872.5"/>
<text text-anchor="start" x="534" y="-883.9" font-family="Arial" font-size="14.00" fill="#000000">comment_id    </text>
<text text-anchor="start" x="644.4362" y="-883.9" font-family="Arial" font-size="14.00" fill="#666666">[bigint]</text>
<polygon fill="none" stroke="#000000" points="527,-842.5 527,-872.5 807,-872.5 807,-842.5 527,-842.5"/>
<text text-anchor="start" x="534" y="-853.9" font-family="Arial" font-size="14.00" fill="#000000">comment_star_id    </text>
<text text-anchor="start" x="675.5526" y="-853.9" font-family="Arial" font-size="14.00" fill="#666666">[uuid]</text>
<polygon fill="none" stroke="#000000" points="527,-812.5 527,-842.5 807,-842.5 807,-812.5 527,-812.5"/>
<text text-anchor="start" x="534" y="-823.9" font-family="Arial" font-size="14.00" fill="#000000">payload    </text>
<text text-anchor="start" x="617.2244" y="-823.9" font-family="Arial" font-size="14.00" fill="#666666">[text]</text>
<polygon fill="none" stroke="#000000" points="527,-782.5 527,-812.5 807,-812.5 807,-782.5 527,-782.5"/>
<text text-anchor="start" x="533.9867" y="-793.9" font-family="Arial" font-size="14.00" fill="#000000">created    </text>
<text text-anchor="start" x="614.8731" y="-793.9" font-family="Arial" font-size="14.00" fill="#666666">[timestamp without time zone]</text>
</g>
<!-- public.logs&#45;&gt;public.posts -->
<g id="edge2" class="edge">
<title>public.logs:post_id&#45;&gt;public.posts:id</title>
<path fill="none" stroke="#000000" stroke-dasharray="5,2" d="M516.6602,-916.7874C451.6112,-907.2356 487.2942,-803.8524 527,-740 546.1029,-709.2799 580.8971,-734.7201 600,-704 622.6482,-667.5786 642.8889,-607.5 600,-607.5"/>
<polygon fill="#000000" stroke="#000000" points="517.0237,-916.8124 526.6906,-921.9894 522.0118,-917.1562 527,-917.5 527,-917.5 527,-917.5 522.0118,-917.1562 527.3094,-913.0106 517.0237,-916.8124 517.0237,-916.8124"/>
<text text-anchor="start" x="437.3245" y="-901.5" font-family="Arial" font-size="10.00" fill="#000000">Additional Relation</text>
</g>
</g>
</svg>
