<?xml version="1.0" encoding="UTF-8" standalone="no"?>
<!DOCTYPE svg PUBLIC "-//W3C//DTD SVG 1.1//EN"
 "http://www.w3.org/Graphics/SVG/1.1/DTD/svg11.dtd">
<!-- Generated by graphviz version 12.1.2 (20240928.0832)
 -->
<!-- Title: public.posts Pages: 1 -->
<svg width="838pt" height="1099pt"
 viewBox="0.00 0.00 837.98 1098.80" xmlns="http://www.w3.org/2000/svg" xmlns:xlink="http://www.w3.org/1999/xlink">
<g id="graph0" class="graph" transform="scale(1 1) rotate(0) translate(4 1094.8)">
<title>public.posts</title>
<polygon fill="white" stroke="none" points="-4,4 -4,-1094.8 833.98,-1094.8 833.98,4 -4,4"/>
<!-- public.posts -->
<g id="node1" class="node">
<title>public.posts</title>
<polygon fill="#efefef" stroke="none" points="227.34,-635.4 227.34,-671 481.02,-671 481.02,-635.4 227.34,-635.4"/>
<polygon fill="none" stroke="black" points="227.34,-635.4 227.34,-671 481.02,-671 481.02,-635.4 227.34,-635.4"/>
<text text-anchor="start" x="248.69" y="-648.8" font-family="Arial Bold" font-size="18.00">public.posts</text>
<text text-anchor="start" x="335.19" y="-648.8" font-family="Arial" font-size="14.00">    </text>
<text text-anchor="start" x="366.31" y="-648.8" font-family="Arial" font-size="14.00" fill="#666666">[BASE TABLE]</text>
<polygon fill="none" stroke="black" points="227.34,-604.6 227.34,-635.4 481.02,-635.4 481.02,-604.6 227.34,-604.6"/>
<text text-anchor="start" x="234.34" y="-616.8" font-family="Arial" font-size="14.00">id </text>
<text text-anchor="start" x="249.13" y="-616.8" font-family="Arial" font-size="14.00" fill="#666666">[bigint]</text>
<polygon fill="none" stroke="black" points="227.34,-573.8 227.34,-604.6 481.02,-604.6 481.02,-573.8 227.34,-573.8"/>
<text text-anchor="start" x="234.34" y="-586" font-family="Arial" font-size="14.00">user_id </text>
<text text-anchor="start" x="284.15" y="-586" font-family="Arial" font-size="14.00" fill="#666666">[integer]</text>
<polygon fill="none" stroke="black" points="227.34,-543 227.34,-573.8 481.02,-573.8 481.02,-543 227.34,-543"/>
<text text-anchor="start" x="234.34" y="-555.2" font-family="Arial" font-size="14.00">title </text>
<text text-anchor="start" x="260.02" y="-555.2" font-family="Arial" font-size="14.00" fill="#666666">[varchar(255)]</text>
<polygon fill="none" stroke="black" points="227.34,-512.2 227.34,-543 481.02,-543 481.02,-512.2 227.34,-512.2"/>
<text text-anchor="start" x="234.34" y="-524.4" font-family="Arial" font-size="14.00">body </text>
<text text-anchor="start" x="268.59" y="-524.4" font-family="Arial" font-size="14.00" fill="#666666">[text]</text>
<polygon fill="none" stroke="black" points="227.34,-481.4 227.34,-512.2 481.02,-512.2 481.02,-481.4 227.34,-481.4"/>
<text text-anchor="start" x="234.34" y="-493.6" font-family="Arial" font-size="14.00">post_type </text>
<text text-anchor="start" x="298.94" y="-493.6" font-family="Arial" font-size="14.00" fill="#666666">[post_types]</text>
<polygon fill="none" stroke="black" points="227.34,-450.6 227.34,-481.4 481.02,-481.4 481.02,-450.6 227.34,-450.6"/>
<text text-anchor="start" x="234.34" y="-462.8" font-family="Arial" font-size="14.00">labels </text>
<text text-anchor="start" x="274.81" y="-462.8" font-family="Arial" font-size="14.00" fill="#666666">[varchar(50)[]]</text>
<polygon fill="none" stroke="black" points="227.34,-419.8 227.34,-450.6 481.02,-450.6 481.02,-419.8 227.34,-419.8"/>
<text text-anchor="start" x="234.34" y="-432" font-family="Arial" font-size="14.00">created </text>
<text text-anchor="start" x="284.93" y="-432" font-family="Arial" font-size="14.00" fill="#666666">[timestamp without time zone]</text>
<polygon fill="none" stroke="black" points="227.34,-389 227.34,-419.8 481.02,-419.8 481.02,-389 227.34,-389"/>
<text text-anchor="start" x="234.34" y="-401.2" font-family="Arial" font-size="14.00">updated </text>
<text text-anchor="start" x="288.84" y="-401.2" font-family="Arial" font-size="14.00" fill="#666666">[timestamp without time zone]</text>
<polygon fill="none" stroke="black" stroke-width="3" points="225.84,-387.5 225.84,-672.5 482.52,-672.5 482.52,-387.5 225.84,-387.5"/>
</g>
<!-- public.users -->
<g id="node4" class="node">
<title>public.users</title>
<polygon fill="#efefef" stroke="none" points="227.34,-228 227.34,-263.6 481.02,-263.6 481.02,-228 227.34,-228"/>
<polygon fill="none" stroke="black" points="227.34,-228 227.34,-263.6 481.02,-263.6 481.02,-228 227.34,-228"/>
<text text-anchor="start" x="248.7" y="-241.4" font-family="Arial Bold" font-size="18.00">public.users</text>
<text text-anchor="start" x="335.18" y="-241.4" font-family="Arial" font-size="14.00">    </text>
<text text-anchor="start" x="366.3" y="-241.4" font-family="Arial" font-size="14.00" fill="#666666">[BASE TABLE]</text>
<polygon fill="none" stroke="black" points="227.34,-197.2 227.34,-228 481.02,-228 481.02,-197.2 227.34,-197.2"/>
<text text-anchor="start" x="234.34" y="-209.4" font-family="Arial" font-size="14.00">id </text>
<text text-anchor="start" x="249.13" y="-209.4" font-family="Arial" font-size="14.00" fill="#666666">[integer]</text>
<polygon fill="none" stroke="black" points="227.34,-166.4 227.34,-197.2 481.02,-197.2 481.02,-166.4 227.34,-166.4"/>
<text text-anchor="start" x="234.34" y="-178.6" font-family="Arial" font-size="14.00">username </text>
<text text-anchor="start" x="300.49" y="-178.6" font-family="Arial" font-size="14.00" fill="#666666">[varchar(50)]</text>
<polygon fill="none" stroke="black" points="227.34,-135.6 227.34,-166.4 481.02,-166.4 481.02,-135.6 227.34,-135.6"/>
<text text-anchor="start" x="234.34" y="-147.8" font-family="Arial" font-size="14.00">password </text>
<text text-anchor="start" x="298.15" y="-147.8" font-family="Arial" font-size="14.00" fill="#666666">[varchar(50)]</text>
<polygon fill="none" stroke="black" points="227.34,-104.8 227.34,-135.6 481.02,-135.6 481.02,-104.8 227.34,-104.8"/>
<text text-anchor="start" x="234.34" y="-117" font-family="Arial" font-size="14.00">email </text>
<text text-anchor="start" x="271.69" y="-117" font-family="Arial" font-size="14.00" fill="#666666">[varchar(355)]</text>
<polygon fill="none" stroke="black" points="227.34,-74 227.34,-104.8 481.02,-104.8 481.02,-74 227.34,-74"/>
<text text-anchor="start" x="234.34" y="-86.2" font-family="Arial" font-size="14.00">created </text>
<text text-anchor="start" x="284.93" y="-86.2" font-family="Arial" font-size="14.00" fill="#666666">[timestamp without time zone]</text>
<polygon fill="none" stroke="black" points="227.34,-43.2 227.34,-74 481.02,-74 481.02,-43.2 227.34,-43.2"/>
<text text-anchor="start" x="234.34" y="-55.4" font-family="Arial" font-size="14.00">updated </text>
<text text-anchor="start" x="288.84" y="-55.4" font-family="Arial" font-size="14.00" fill="#666666">[timestamp without time zone]</text>
</g>
<!-- public.posts&#45;&gt;public.users -->
<g id="edge3" class="edge">
<title>public.posts:user_id&#45;&gt;public.users:id</title>
<path fill="none" stroke="black" d="M492.11,-588.73C649.33,-573.91 645.97,-212.6 482.02,-212.6"/>
<polygon fill="black" stroke="black" points="492.35,-588.72 482.15,-584.69 487.02,-588.97 482.69,-589.17 482.69,-589.17 482.69,-589.17 487.02,-588.97 482.57,-593.68 492.35,-588.72"/>
<text text-anchor="start" x="489.02" y="-599.2" font-family="Arial" font-size="10.00">FOREIGN KEY (user_id) REFERENCES users(id) ON DELETE CASCADE</text>
</g>
<!-- public.comments -->
<g id="node2" class="node">
<title>public.comments</title>
<polygon fill="#efefef" stroke="none" points="43.2,-996.6 43.2,-1032.2 305.17,-1032.2 305.17,-996.6 43.2,-996.6"/>
<polygon fill="none" stroke="black" points="43.2,-996.6 43.2,-1032.2 305.17,-1032.2 305.17,-996.6 43.2,-996.6"/>
<text text-anchor="start" x="50.2" y="-1010" font-family="Arial Bold" font-size="18.00">public.comments</text>
<text text-anchor="start" x="173.68" y="-1010" font-family="Arial" font-size="14.00">    </text>
<text text-anchor="start" x="204.79" y="-1010" font-family="Arial" font-size="14.00" fill="#666666">[BASE TABLE]</text>
<polygon fill="none" stroke="black" points="43.2,-965.8 43.2,-996.6 305.17,-996.6 305.17,-965.8 43.2,-965.8"/>
<text text-anchor="start" x="50.2" y="-978" font-family="Arial" font-size="14.00">id </text>
<text text-anchor="start" x="64.99" y="-978" font-family="Arial" font-size="14.00" fill="#666666">[bigint]</text>
<polygon fill="none" stroke="black" points="43.2,-935 43.2,-965.8 305.17,-965.8 305.17,-935 43.2,-935"/>
<text text-anchor="start" x="50.2" y="-947.2" font-family="Arial" font-size="14.00">post_id </text>
<text text-anchor="start" x="99.23" y="-947.2" font-family="Arial" font-size="14.00" fill="#666666">[bigint]</text>
<polygon fill="none" stroke="black" points="43.2,-904.2 43.2,-935 305.17,-935 305.17,-904.2 43.2,-904.2"/>
<text text-anchor="start" x="50.2" y="-916.4" font-family="Arial" font-size="14.00">user_id </text>
<text text-anchor="start" x="100.01" y="-916.4" font-family="Arial" font-size="14.00" fill="#666666">[integer]</text>
<polygon fill="none" stroke="black" points="43.2,-873.4 43.2,-904.2 305.17,-904.2 305.17,-873.4 43.2,-873.4"/>
<text text-anchor="start" x="50.2" y="-885.6" font-family="Arial" font-size="14.00">comment </text>
<text text-anchor="start" x="111.66" y="-885.6" font-family="Arial" font-size="14.00" fill="#666666">[text]</text>
<polygon fill="none" stroke="black" points="43.2,-842.6 43.2,-873.4 305.17,-873.4 305.17,-842.6 43.2,-842.6"/>
<text text-anchor="start" x="50.2" y="-854.8" font-family="Arial" font-size="14.00">created </text>
<text text-anchor="start" x="100.79" y="-854.8" font-family="Arial" font-size="14.00" fill="#666666">[timestamp without time zone]</text>
<polygon fill="none" stroke="black" points="43.2,-811.8 43.2,-842.6 305.17,-842.6 305.17,-811.8 43.2,-811.8"/>
<text text-anchor="start" x="50.2" y="-824" font-family="Arial" font-size="14.00">updated </text>
<text text-anchor="start" x="104.7" y="-824" font-family="Arial" font-size="14.00" fill="#666666">[timestamp without time zone]</text>
</g>
<!-- public.comments&#45;&gt;public.posts -->
<g id="edge1" class="edge">
<title>public.comments:post_id&#45;&gt;public.posts:id</title>
<path fill="none" stroke="black" d="M316.32,-949.74C383.09,-940.53 341.91,-836.46 305.17,-768.6 285.43,-732.15 247.17,-753.6 227.34,-717.2 206.68,-679.26 183.14,-620 226.34,-620"/>
<polygon fill="black" stroke="black" points="316.48,-949.73 306.21,-945.89 311.16,-950.08 306.83,-950.36 306.83,-950.36 306.83,-950.36 311.16,-950.08 306.79,-954.87 316.48,-949.73"/>
<text text-anchor="start" x="313.17" y="-960.4" font-family="Arial" font-size="10.00">FOREIGN KEY (post_id) REFERENCES posts(id)</text>
</g>
<!-- public.logs -->
<g id="node3" class="node">
<title>public.logs</title>
<polygon fill="#efefef" stroke="none" points="409.3,-1012 409.3,-1047.6 659.07,-1047.6 659.07,-1012 409.3,-1012"/>
<polygon fill="none" stroke="black" points="409.3,-1012 409.3,-1047.6 659.07,-1047.6 659.07,-1012 409.3,-1012"/>
<text text-anchor="start" x="432.19" y="-1025.4" font-family="Arial Bold" font-size="18.00">public.logs</text>
<text text-anchor="start" x="511.69" y="-1025.4" font-family="Arial" font-size="14.00">    </text>
<text text-anchor="start" x="542.8" y="-1025.4" font-family="Arial" font-size="14.00" fill="#666666">[BASE TABLE]</text>
<polygon fill="none" stroke="black" points="409.3,-981.2 409.3,-1012 659.07,-1012 659.07,-981.2 409.3,-981.2"/>
<text text-anchor="start" x="416.3" y="-993.4" font-family="Arial" font-size="14.00">id </text>
<text text-anchor="start" x="431.08" y="-993.4" font-family="Arial" font-size="14.00" fill="#666666">[uuid]</text>
<polygon fill="none" stroke="black" points="409.3,-950.4 409.3,-981.2 659.07,-981.2 659.07,-950.4 409.3,-950.4"/>
<text text-anchor="start" x="416.3" y="-962.6" font-family="Arial" font-size="14.00">user_id </text>
<text text-anchor="start" x="466.1" y="-962.6" font-family="Arial" font-size="14.00" fill="#666666">[integer]</text>
<polygon fill="none" stroke="black" points="409.3,-919.6 409.3,-950.4 659.07,-950.4 659.07,-919.6 409.3,-919.6"/>
<text text-anchor="start" x="416.3" y="-931.8" font-family="Arial" font-size="14.00">post_id </text>
<text text-anchor="start" x="465.33" y="-931.8" font-family="Arial" font-size="14.00" fill="#666666">[bigint]</text>
<polygon fill="none" stroke="black" points="409.3,-888.8 409.3,-919.6 659.07,-919.6 659.07,-888.8 409.3,-888.8"/>
<text text-anchor="start" x="416.3" y="-901" font-family="Arial" font-size="14.00">comment_id </text>
<text text-anchor="start" x="496.44" y="-901" font-family="Arial" font-size="14.00" fill="#666666">[bigint]</text>
<polygon fill="none" stroke="black" points="409.3,-858 409.3,-888.8 659.07,-888.8 659.07,-858 409.3,-858"/>
<text text-anchor="start" x="416.3" y="-870.2" font-family="Arial" font-size="14.00">comment_star_id </text>
<text text-anchor="start" x="527.57" y="-870.2" font-family="Arial" font-size="14.00" fill="#666666">[uuid]</text>
<polygon fill="none" stroke="black" points="409.3,-827.2 409.3,-858 659.07,-858 659.07,-827.2 409.3,-827.2"/>
<text text-anchor="start" x="416.3" y="-839.4" font-family="Arial" font-size="14.00">payload </text>
<text text-anchor="start" x="469.23" y="-839.4" font-family="Arial" font-size="14.00" fill="#666666">[text]</text>
<polygon fill="none" stroke="black" points="409.3,-796.4 409.3,-827.2 659.07,-827.2 659.07,-796.4 409.3,-796.4"/>
<text text-anchor="start" x="416.3" y="-808.6" font-family="Arial" font-size="14.00">created </text>
<text text-anchor="start" x="466.88" y="-808.6" font-family="Arial" font-size="14.00" fill="#666666">[timestamp without time zone]</text>
</g>
<!-- public.logs&#45;&gt;public.posts -->
<g id="edge2" class="edge">
<title>public.logs:post_id&#45;&gt;public.posts:id</title>
<path fill="none" stroke="black" stroke-dasharray="5,2" d="M398.12,-934.33C331.02,-924.92 368.6,-818.77 409.3,-753.2 428.11,-722.9 462.14,-747.46 481.02,-717.2 503.9,-680.55 525.23,-620 482.02,-620"/>
<polygon fill="black" stroke="black" points="397.99,-934.32 407.67,-939.47 403.31,-934.67 407.63,-934.96 407.63,-934.96 407.63,-934.96 403.31,-934.67 408.26,-930.49 397.99,-934.32"/>
<text text-anchor="start" x="317.91" y="-919" font-family="Arial" font-size="10.00">Additional Relation</text>
</g>
</g>
</svg>
