<?xml version="1.0" encoding="UTF-8" standalone="no"?>
<!DOCTYPE svg PUBLIC "-//W3C//DTD SVG 1.1//EN"
 "http://www.w3.org/Graphics/SVG/1.1/DTD/svg11.dtd">
<!-- Generated by graphviz version 12.1.2 (20240928.0832)
 -->
<!-- Title: public.logs Pages: 1 -->
<svg width="1546pt" height="756pt"
 viewBox="0.00 0.00 1546.33 756.00" xmlns="http://www.w3.org/2000/svg" xmlns:xlink="http://www.w3.org/1999/xlink">
<g id="graph0" class="graph" transform="scale(1 1) rotate(0) translate(4 752)">
<title>public.logs</title>
<polygon fill="white" stroke="none" points="-4,4 -4,-752 1542.33,-752 1542.33,4 -4,4"/>
<!-- public.logs -->
<g id="node1" class="node">
<title>public.logs</title>
<polygon fill="#efefef" stroke="none" points="635.77,-666.2 635.77,-701.8 885.54,-701.8 885.54,-666.2 635.77,-666.2"/>
<polygon fill="none" stroke="black" points="635.77,-666.2 635.77,-701.8 885.54,-701.8 885.54,-666.2 635.77,-666.2"/>
<text text-anchor="start" x="658.66" y="-679.6" font-family="Arial Bold" font-size="18.00">public.logs</text>
<text text-anchor="start" x="738.16" y="-679.6" font-family="Arial" font-size="14.00">    </text>
<text text-anchor="start" x="769.28" y="-679.6" font-family="Arial" font-size="14.00" fill="#666666">[BASE TABLE]</text>
<polygon fill="none" stroke="black" points="635.77,-635.4 635.77,-666.2 885.54,-666.2 885.54,-635.4 635.77,-635.4"/>
<text text-anchor="start" x="642.77" y="-647.6" font-family="Arial" font-size="14.00">id </text>
<text text-anchor="start" x="657.55" y="-647.6" font-family="Arial" font-size="14.00" fill="#666666">[uuid]</text>
<polygon fill="none" stroke="black" points="635.77,-604.6 635.77,-635.4 885.54,-635.4 885.54,-604.6 635.77,-604.6"/>
<text text-anchor="start" x="642.77" y="-616.8" font-family="Arial" font-size="14.00">user_id </text>
<text text-anchor="start" x="692.58" y="-616.8" font-family="Arial" font-size="14.00" fill="#666666">[integer]</text>
<polygon fill="none" stroke="black" points="635.77,-573.8 635.77,-604.6 885.54,-604.6 885.54,-573.8 635.77,-573.8"/>
<text text-anchor="start" x="642.77" y="-586" font-family="Arial" font-size="14.00">post_id </text>
<text text-anchor="start" x="691.8" y="-586" font-family="Arial" font-size="14.00" fill="#666666">[bigint]</text>
<polygon fill="none" stroke="black" points="635.77,-543 635.77,-573.8 885.54,-573.8 885.54,-543 635.77,-543"/>
<text text-anchor="start" x="642.77" y="-555.2" font-family="Arial" font-size="14.00">comment_id </text>
<text text-anchor="start" x="722.91" y="-555.2" font-family="Arial" font-size="14.00" fill="#666666">[bigint]</text>
<polygon fill="none" stroke="black" points="635.77,-512.2 635.77,-543 885.54,-543 885.54,-512.2 635.77,-512.2"/>
<text text-anchor="start" x="642.77" y="-524.4" font-family="Arial" font-size="14.00">comment_star_id </text>
<text text-anchor="start" x="754.04" y="-524.4" font-family="Arial" font-size="14.00" fill="#666666">[uuid]</text>
<polygon fill="none" stroke="black" points="635.77,-481.4 635.77,-512.2 885.54,-512.2 885.54,-481.4 635.77,-481.4"/>
<text text-anchor="start" x="642.77" y="-493.6" font-family="Arial" font-size="14.00">payload </text>
<text text-anchor="start" x="695.7" y="-493.6" font-family="Arial" font-size="14.00" fill="#666666">[text]</text>
<polygon fill="none" stroke="black" points="635.77,-450.6 635.77,-481.4 885.54,-481.4 885.54,-450.6 635.77,-450.6"/>
<text text-anchor="start" x="642.77" y="-462.8" font-family="Arial" font-size="14.00">created </text>
<text text-anchor="start" x="693.35" y="-462.8" font-family="Arial" font-size="14.00" fill="#666666">[timestamp without time zone]</text>
<polygon fill="none" stroke="black" stroke-width="3" points="634.27,-449.1 634.27,-703.3 887.04,-703.3 887.04,-449.1 634.27,-449.1"/>
</g>
<!-- public.users -->
<g id="node2" class="node">
<title>public.users</title>
<polygon fill="#efefef" stroke="none" points="43.2,-258.8 43.2,-294.4 324.11,-294.4 324.11,-258.8 43.2,-258.8"/>
<polygon fill="none" stroke="black" points="43.2,-258.8 43.2,-294.4 324.11,-294.4 324.11,-258.8 43.2,-258.8"/>
<text text-anchor="start" x="78.17" y="-272.2" font-family="Arial Bold" font-size="18.00">public.users</text>
<text text-anchor="start" x="164.65" y="-272.2" font-family="Arial" font-size="14.00">    </text>
<text text-anchor="start" x="195.77" y="-272.2" font-family="Arial" font-size="14.00" fill="#666666">[BASE TABLE]</text>
<polygon fill="none" stroke="black" points="43.2,-228 43.2,-258.8 324.11,-258.8 324.11,-228 43.2,-228"/>
<text text-anchor="start" x="50.2" y="-240.2" font-family="Arial" font-size="14.00">id    </text>
<text text-anchor="start" x="92.21" y="-240.2" font-family="Arial" font-size="14.00" fill="#666666">[integer]</text>
<polygon fill="none" stroke="black" points="43.2,-197.2 43.2,-228 324.11,-228 324.11,-197.2 43.2,-197.2"/>
<text text-anchor="start" x="50.2" y="-209.4" font-family="Arial" font-size="14.00">username    </text>
<text text-anchor="start" x="143.57" y="-209.4" font-family="Arial" font-size="14.00" fill="#666666">[varchar(50)]</text>
<polygon fill="none" stroke="black" points="43.2,-166.4 43.2,-197.2 324.11,-197.2 324.11,-166.4 43.2,-166.4"/>
<text text-anchor="start" x="50.2" y="-178.6" font-family="Arial" font-size="14.00">password    </text>
<text text-anchor="start" x="141.23" y="-178.6" font-family="Arial" font-size="14.00" fill="#666666">[varchar(50)]</text>
<polygon fill="none" stroke="black" points="43.2,-135.6 43.2,-166.4 324.11,-166.4 324.11,-135.6 43.2,-135.6"/>
<text text-anchor="start" x="50.2" y="-147.8" font-family="Arial" font-size="14.00">email    </text>
<text text-anchor="start" x="114.77" y="-147.8" font-family="Arial" font-size="14.00" fill="#666666">[varchar(355)]</text>
<polygon fill="none" stroke="black" points="43.2,-104.8 43.2,-135.6 324.11,-135.6 324.11,-104.8 43.2,-104.8"/>
<text text-anchor="start" x="50.2" y="-117" font-family="Arial" font-size="14.00">created    </text>
<text text-anchor="start" x="128.01" y="-117" font-family="Arial" font-size="14.00" fill="#666666">[timestamp without time zone]</text>
<polygon fill="none" stroke="black" points="43.2,-74 43.2,-104.8 324.11,-104.8 324.11,-74 43.2,-74"/>
<text text-anchor="start" x="50.2" y="-86.2" font-family="Arial" font-size="14.00">updated    </text>
<text text-anchor="start" x="131.92" y="-86.2" font-family="Arial" font-size="14.00" fill="#666666">[timestamp without time zone]</text>
</g>
<!-- public.logs&#45;&gt;public.users -->
<g id="edge1" class="edge">
<title>public.logs:user_id&#45;&gt;public.users:id</title>
<path fill="none" stroke="black" stroke-dasharray="5,2" d="M624.63,-619.84C473.83,-614.91 463.33,-498.73 375.65,-368.4 342.21,-318.68 385.03,-243.4 325.11,-243.4"/>
<polygon fill="black" stroke="black" points="624.44,-619.83 634.36,-624.49 629.77,-619.92 634.1,-619.99 634.1,-619.99 634.1,-619.99 629.77,-619.92 634.51,-615.5 624.44,-619.83"/>
<text text-anchor="start" x="575.8" y="-630" font-family="Arial" font-size="10.00">logs&#45;&gt;users</text>
</g>
<!-- public.posts -->
<g id="node3" class="node">
<title>public.posts</title>
<polygon fill="#efefef" stroke="none" points="428.2,-289.6 428.2,-325.2 709.11,-325.2 709.11,-289.6 428.2,-289.6"/>
<polygon fill="none" stroke="black" points="428.2,-289.6 428.2,-325.2 709.11,-325.2 709.11,-289.6 428.2,-289.6"/>
<text text-anchor="start" x="463.16" y="-303" font-family="Arial Bold" font-size="18.00">public.posts</text>
<text text-anchor="start" x="549.66" y="-303" font-family="Arial" font-size="14.00">    </text>
<text text-anchor="start" x="580.78" y="-303" font-family="Arial" font-size="14.00" fill="#666666">[BASE TABLE]</text>
<polygon fill="none" stroke="black" points="428.2,-258.8 428.2,-289.6 709.11,-289.6 709.11,-258.8 428.2,-258.8"/>
<text text-anchor="start" x="435.2" y="-271" font-family="Arial" font-size="14.00">id    </text>
<text text-anchor="start" x="477.21" y="-271" font-family="Arial" font-size="14.00" fill="#666666">[bigint]</text>
<polygon fill="none" stroke="black" points="428.2,-228 428.2,-258.8 709.11,-258.8 709.11,-228 428.2,-228"/>
<text text-anchor="start" x="435.2" y="-240.2" font-family="Arial" font-size="14.00">user_id    </text>
<text text-anchor="start" x="512.23" y="-240.2" font-family="Arial" font-size="14.00" fill="#666666">[integer]</text>
<polygon fill="none" stroke="black" points="428.2,-197.2 428.2,-228 709.11,-228 709.11,-197.2 428.2,-197.2"/>
<text text-anchor="start" x="435.2" y="-209.4" font-family="Arial" font-size="14.00">title    </text>
<text text-anchor="start" x="488.1" y="-209.4" font-family="Arial" font-size="14.00" fill="#666666">[varchar(255)]</text>
<polygon fill="none" stroke="black" points="428.2,-166.4 428.2,-197.2 709.11,-197.2 709.11,-166.4 428.2,-166.4"/>
<text text-anchor="start" x="435.2" y="-178.6" font-family="Arial" font-size="14.00">body    </text>
<text text-anchor="start" x="496.68" y="-178.6" font-family="Arial" font-size="14.00" fill="#666666">[text]</text>
<polygon fill="none" stroke="black" points="428.2,-135.6 428.2,-166.4 709.11,-166.4 709.11,-135.6 428.2,-135.6"/>
<text text-anchor="start" x="435.2" y="-147.8" font-family="Arial" font-size="14.00">post_type    </text>
<text text-anchor="start" x="527.03" y="-147.8" font-family="Arial" font-size="14.00" fill="#666666">[post_types]</text>
<polygon fill="none" stroke="black" points="428.2,-104.8 428.2,-135.6 709.11,-135.6 709.11,-104.8 428.2,-104.8"/>
<text text-anchor="start" x="435.2" y="-117" font-family="Arial" font-size="14.00">labels    </text>
<text text-anchor="start" x="502.9" y="-117" font-family="Arial" font-size="14.00" fill="#666666">[varchar(50)[]]</text>
<polygon fill="none" stroke="black" points="428.2,-74 428.2,-104.8 709.11,-104.8 709.11,-74 428.2,-74"/>
<text text-anchor="start" x="435.2" y="-86.2" font-family="Arial" font-size="14.00">created    </text>
<text text-anchor="start" x="513.01" y="-86.2" font-family="Arial" font-size="14.00" fill="#666666">[timestamp without time zone]</text>
<polygon fill="none" stroke="black" points="428.2,-43.2 428.2,-74 709.11,-74 709.11,-43.2 428.2,-43.2"/>
<text text-anchor="start" x="435.2" y="-55.4" font-family="Arial" font-size="14.00">updated    </text>
<text text-anchor="start" x="516.92" y="-55.4" font-family="Arial" font-size="14.00" fill="#666666">[timestamp without time zone]</text>
</g>
<!-- public.logs&#45;&gt;public.posts -->
<g id="edge2" class="edge">
<title>public.logs:post_id&#45;&gt;public.posts:id</title>
<path fill="none" stroke="black" stroke-dasharray="5,2" d="M624.43,-588.52C556.19,-578.94 594.1,-470.86 635.77,-404.4 655.06,-373.63 689.74,-399.12 709.11,-368.4 731.44,-332.98 751.98,-274.2 710.11,-274.2"/>
<polygon fill="black" stroke="black" points="624.46,-588.52 634.14,-593.67 629.78,-588.87 634.1,-589.16 634.1,-589.16 634.1,-589.16 629.78,-588.87 634.73,-584.69 624.46,-588.52"/>
<text text-anchor="start" x="544.38" y="-599.2" font-family="Arial" font-size="10.00">Additional Relation</text>
</g>
<!-- public.comments -->
<g id="node4" class="node">
<title>public.comments</title>
<polygon fill="#efefef" stroke="none" points="813.2,-258.8 813.2,-294.4 1094.11,-294.4 1094.11,-258.8 813.2,-258.8"/>
<polygon fill="none" stroke="black" points="813.2,-258.8 813.2,-294.4 1094.11,-294.4 1094.11,-258.8 813.2,-258.8"/>
<text text-anchor="start" x="829.67" y="-272.2" font-family="Arial Bold" font-size="18.00">public.comments</text>
<text text-anchor="start" x="953.15" y="-272.2" font-family="Arial" font-size="14.00">    </text>
<text text-anchor="start" x="984.27" y="-272.2" font-family="Arial" font-size="14.00" fill="#666666">[BASE TABLE]</text>
<polygon fill="none" stroke="black" points="813.2,-228 813.2,-258.8 1094.11,-258.8 1094.11,-228 813.2,-228"/>
<text text-anchor="start" x="820.2" y="-240.2" font-family="Arial" font-size="14.00">id    </text>
<text text-anchor="start" x="862.21" y="-240.2" font-family="Arial" font-size="14.00" fill="#666666">[bigint]</text>
<polygon fill="none" stroke="black" points="813.2,-197.2 813.2,-228 1094.11,-228 1094.11,-197.2 813.2,-197.2"/>
<text text-anchor="start" x="820.2" y="-209.4" font-family="Arial" font-size="14.00">post_id    </text>
<text text-anchor="start" x="896.46" y="-209.4" font-family="Arial" font-size="14.00" fill="#666666">[bigint]</text>
<polygon fill="none" stroke="black" points="813.2,-166.4 813.2,-197.2 1094.11,-197.2 1094.11,-166.4 813.2,-166.4"/>
<text text-anchor="start" x="820.2" y="-178.6" font-family="Arial" font-size="14.00">user_id    </text>
<text text-anchor="start" x="897.23" y="-178.6" font-family="Arial" font-size="14.00" fill="#666666">[integer]</text>
<polygon fill="none" stroke="black" points="813.2,-135.6 813.2,-166.4 1094.11,-166.4 1094.11,-135.6 813.2,-135.6"/>
<text text-anchor="start" x="820.2" y="-147.8" font-family="Arial" font-size="14.00">comment    </text>
<text text-anchor="start" x="908.89" y="-147.8" font-family="Arial" font-size="14.00" fill="#666666">[text]</text>
<polygon fill="none" stroke="black" points="813.2,-104.8 813.2,-135.6 1094.11,-135.6 1094.11,-104.8 813.2,-104.8"/>
<text text-anchor="start" x="820.2" y="-117" font-family="Arial" font-size="14.00">created    </text>
<text text-anchor="start" x="898.01" y="-117" font-family="Arial" font-size="14.00" fill="#666666">[timestamp without time zone]</text>
<polygon fill="none" stroke="black" points="813.2,-74 813.2,-104.8 1094.11,-104.8 1094.11,-74 813.2,-74"/>
<text text-anchor="start" x="820.2" y="-86.2" font-family="Arial" font-size="14.00">updated    </text>
<text text-anchor="start" x="901.92" y="-86.2" font-family="Arial" font-size="14.00" fill="#666666">[timestamp without time zone]</text>
</g>
<!-- public.logs&#45;&gt;public.comments -->
<g id="edge3" class="edge">
<title>public.logs:comment_id&#45;&gt;public.comments:id</title>
<path fill="none" stroke="black" stroke-dasharray="5,2" d="M896.93,-558.27C1122,-552.66 823.6,-361.01 813.2,-337.6 796.21,-299.33 770.33,-243.4 812.2,-243.4"/>
<polygon fill="black" stroke="black" points="896.87,-558.27 886.82,-553.9 891.54,-558.34 887.21,-558.39 887.21,-558.39 887.21,-558.39 891.54,-558.34 886.93,-562.9 896.87,-558.27"/>
<text text-anchor="start" x="893.54" y="-568.4" font-family="Arial" font-size="10.00">Additional Relation</text>
</g>
<!-- public.comment_stars -->
<g id="node5" class="node">
<title>public.comment_stars</title>
<polygon fill="#efefef" stroke="none" points="1198.18,-258.8 1198.18,-294.4 1495.13,-294.4 1495.13,-258.8 1198.18,-258.8"/>
<polygon fill="none" stroke="black" points="1198.18,-258.8 1198.18,-294.4 1495.13,-294.4 1495.13,-258.8 1198.18,-258.8"/>
<text text-anchor="start" x="1205.18" y="-272.2" font-family="Arial Bold" font-size="18.00">public.comment_stars</text>
<text text-anchor="start" x="1363.64" y="-272.2" font-family="Arial" font-size="14.00">    </text>
<text text-anchor="start" x="1394.76" y="-272.2" font-family="Arial" font-size="14.00" fill="#666666">[BASE TABLE]</text>
<polygon fill="none" stroke="black" points="1198.18,-228 1198.18,-258.8 1495.13,-258.8 1495.13,-228 1198.18,-228"/>
<text text-anchor="start" x="1205.18" y="-240.2" font-family="Arial" font-size="14.00">id    </text>
<text text-anchor="start" x="1247.19" y="-240.2" font-family="Arial" font-size="14.00" fill="#666666">[uuid]</text>
<polygon fill="none" stroke="black" points="1198.18,-197.2 1198.18,-228 1495.13,-228 1495.13,-197.2 1198.18,-197.2"/>
<text text-anchor="start" x="1205.18" y="-209.4" font-family="Arial" font-size="14.00">user_id    </text>
<text text-anchor="start" x="1282.21" y="-209.4" font-family="Arial" font-size="14.00" fill="#666666">[integer]</text>
<polygon fill="none" stroke="black" points="1198.18,-166.4 1198.18,-197.2 1495.13,-197.2 1495.13,-166.4 1198.18,-166.4"/>
<text text-anchor="start" x="1205.18" y="-178.6" font-family="Arial" font-size="14.00">comment_post_id    </text>
<text text-anchor="start" x="1346.8" y="-178.6" font-family="Arial" font-size="14.00" fill="#666666">[bigint]</text>
<polygon fill="none" stroke="black" points="1198.18,-135.6 1198.18,-166.4 1495.13,-166.4 1495.13,-135.6 1198.18,-135.6"/>
<text text-anchor="start" x="1205.18" y="-147.8" font-family="Arial" font-size="14.00">comment_user_id    </text>
<text text-anchor="start" x="1347.57" y="-147.8" font-family="Arial" font-size="14.00" fill="#666666">[integer]</text>
<polygon fill="none" stroke="black" points="1198.18,-104.8 1198.18,-135.6 1495.13,-135.6 1495.13,-104.8 1198.18,-104.8"/>
<text text-anchor="start" x="1205.18" y="-117" font-family="Arial" font-size="14.00">created    </text>
<text text-anchor="start" x="1282.99" y="-117" font-family="Arial" font-size="14.00" fill="#666666">[timestamp without time zone]</text>
<polygon fill="none" stroke="black" points="1198.18,-74 1198.18,-104.8 1495.13,-104.8 1495.13,-74 1198.18,-74"/>
<text text-anchor="start" x="1205.18" y="-86.2" font-family="Arial" font-size="14.00">updated    </text>
<text text-anchor="start" x="1286.9" y="-86.2" font-family="Arial" font-size="14.00" fill="#666666">[timestamp without time zone]</text>
</g>
<!-- public.logs&#45;&gt;public.comment_stars -->
<g id="edge4" class="edge">
<title>public.logs:comment_star_id&#45;&gt;public.comment_stars:id</title>
<path fill="none" stroke="black" stroke-dasharray="5,2" d="M896.68,-527.49C1023.99,-524.74 1061.27,-469.19 1146.65,-368.4 1185.39,-322.68 1137.25,-243.4 1197.18,-243.4"/>
<polygon fill="black" stroke="black" points="896.87,-527.49 886.83,-523.1 891.54,-527.55 887.21,-527.59 887.21,-527.59 887.21,-527.59 891.54,-527.55 886.92,-532.1 896.87,-527.49"/>
<text text-anchor="start" x="893.54" y="-537.6" font-family="Arial" font-size="10.00">Additional Relation</text>
</g>
</g>
</svg>
