<?xml version="1.0" encoding="UTF-8" standalone="no"?>
<!DOCTYPE svg PUBLIC "-//W3C//DTD SVG 1.1//EN"
 "http://www.w3.org/Graphics/SVG/1.1/DTD/svg11.dtd">
<!-- Generated by graphviz version 2.40.1 (20161225.0304)
 -->
<!-- Title: public.comments Pages: 1 -->
<svg width="887pt" height="1079pt"
 viewBox="0.00 0.00 887.00 1079.00" xmlns="http://www.w3.org/2000/svg" xmlns:xlink="http://www.w3.org/1999/xlink">
<g id="graph0" class="graph" transform="scale(1 1) rotate(0) translate(4 1075)">
<title>public.comments</title>
<polygon fill="#ffffff" stroke="transparent" points="-4,4 -4,-1075 883,-1075 883,4 -4,4"/>
<!-- public.comments -->
<g id="node1" class="node">
<title>public.comments</title>
<polygon fill="#efefef" stroke="transparent" points="246,-622.5 246,-657.5 522,-657.5 522,-622.5 246,-622.5"/>
<polygon fill="none" stroke="#000000" points="246,-622.5 246,-657.5 522,-657.5 522,-622.5 246,-622.5"/>
<text text-anchor="start" x="252.7088" y="-635.3" font-family="Arial Bold" font-size="18.00" fill="#000000">public.comments</text>
<text text-anchor="start" x="387.7232" y="-635.3" font-family="Arial" font-size="14.00" fill="#000000">    </text>
<text text-anchor="start" x="421.928" y="-635.3" font-family="Arial" font-size="14.00" fill="#666666">[BASE TABLE]</text>
<polygon fill="none" stroke="#000000" points="246,-592.5 246,-622.5 522,-622.5 522,-592.5 246,-592.5"/>
<text text-anchor="start" x="253" y="-603.9" font-family="Arial" font-size="14.00" fill="#000000">id </text>
<text text-anchor="start" x="267.7798" y="-603.9" font-family="Arial" font-size="14.00" fill="#666666">[bigint]</text>
<polygon fill="none" stroke="#000000" points="246,-562.5 246,-592.5 522,-592.5 522,-562.5 246,-562.5"/>
<text text-anchor="start" x="253" y="-573.9" font-family="Arial" font-size="14.00" fill="#000000">post_id </text>
<text text-anchor="start" x="302.0182" y="-573.9" font-family="Arial" font-size="14.00" fill="#666666">[bigint]</text>
<polygon fill="none" stroke="#000000" points="246,-532.5 246,-562.5 522,-562.5 522,-532.5 246,-532.5"/>
<text text-anchor="start" x="253" y="-543.9" font-family="Arial" font-size="14.00" fill="#000000">user_id </text>
<text text-anchor="start" x="302.7882" y="-543.9" font-family="Arial" font-size="14.00" fill="#666666">[integer]</text>
<polygon fill="none" stroke="#000000" points="246,-502.5 246,-532.5 522,-532.5 522,-502.5 246,-502.5"/>
<text text-anchor="start" x="253" y="-513.9" font-family="Arial" font-size="14.00" fill="#000000">comment </text>
<text text-anchor="start" x="314.4502" y="-513.9" font-family="Arial" font-size="14.00" fill="#666666">[text]</text>
<polygon fill="none" stroke="#000000" points="246,-472.5 246,-502.5 522,-502.5 522,-472.5 246,-472.5"/>
<text text-anchor="start" x="253" y="-483.9" font-family="Arial" font-size="14.00" fill="#000000">created </text>
<text text-anchor="start" x="303.5722" y="-483.9" font-family="Arial" font-size="14.00" fill="#666666">[timestamp without time zone]</text>
<polygon fill="none" stroke="#000000" points="246,-442.5 246,-472.5 522,-472.5 522,-442.5 246,-442.5"/>
<text text-anchor="start" x="253" y="-453.9" font-family="Arial" font-size="14.00" fill="#000000">updated </text>
<text text-anchor="start" x="307.4768" y="-453.9" font-family="Arial" font-size="14.00" fill="#666666">[timestamp without time zone]</text>
<polygon fill="none" stroke="#000000" stroke-width="3" points="244.5,-441.5 244.5,-659.5 523.5,-659.5 523.5,-441.5 244.5,-441.5"/>
</g>
<!-- public.posts -->
<g id="node3" class="node">
<title>public.posts</title>
<polygon fill="#efefef" stroke="transparent" points="49,-282.5 49,-317.5 332,-317.5 332,-282.5 49,-282.5"/>
<polygon fill="none" stroke="#000000" points="49,-282.5 49,-317.5 332,-317.5 332,-282.5 49,-282.5"/>
<text text-anchor="start" x="79.2041" y="-295.3" font-family="Arial Bold" font-size="18.00" fill="#000000">public.posts</text>
<text text-anchor="start" x="174.2279" y="-295.3" font-family="Arial" font-size="14.00" fill="#000000">    </text>
<text text-anchor="start" x="208.4327" y="-295.3" font-family="Arial" font-size="14.00" fill="#666666">[BASE TABLE]</text>
<polygon fill="none" stroke="#000000" points="49,-252.5 49,-282.5 332,-282.5 332,-252.5 49,-252.5"/>
<text text-anchor="start" x="56" y="-263.9" font-family="Arial" font-size="14.00" fill="#000000">id    </text>
<text text-anchor="start" x="101.094" y="-263.9" font-family="Arial" font-size="14.00" fill="#666666">[bigint]</text>
<polygon fill="none" stroke="#000000" points="49,-222.5 49,-252.5 332,-252.5 332,-222.5 49,-222.5"/>
<text text-anchor="start" x="56" y="-233.9" font-family="Arial" font-size="14.00" fill="#000000">user_id    </text>
<text text-anchor="start" x="136.1024" y="-233.9" font-family="Arial" font-size="14.00" fill="#666666">[integer]</text>
<polygon fill="none" stroke="#000000" points="49,-192.5 49,-222.5 332,-222.5 332,-192.5 49,-192.5"/>
<text text-anchor="start" x="56" y="-203.9" font-family="Arial" font-size="14.00" fill="#000000">title    </text>
<text text-anchor="start" x="111.9818" y="-203.9" font-family="Arial" font-size="14.00" fill="#666666">[varchar(255)]</text>
<polygon fill="none" stroke="#000000" points="49,-162.5 49,-192.5 332,-192.5 332,-162.5 49,-162.5"/>
<text text-anchor="start" x="56" y="-173.9" font-family="Arial" font-size="14.00" fill="#000000">body    </text>
<text text-anchor="start" x="120.5526" y="-173.9" font-family="Arial" font-size="14.00" fill="#666666">[text]</text>
<polygon fill="none" stroke="#000000" points="49,-132.5 49,-162.5 332,-162.5 332,-132.5 49,-132.5"/>
<text text-anchor="start" x="56" y="-143.9" font-family="Arial" font-size="14.00" fill="#000000">post_type    </text>
<text text-anchor="start" x="150.899" y="-143.9" font-family="Arial" font-size="14.00" fill="#666666">[post_types]</text>
<polygon fill="none" stroke="#000000" points="49,-102.5 49,-132.5 332,-132.5 332,-102.5 49,-102.5"/>
<text text-anchor="start" x="56" y="-113.9" font-family="Arial" font-size="14.00" fill="#000000">labels    </text>
<text text-anchor="start" x="126.7658" y="-113.9" font-family="Arial" font-size="14.00" fill="#666666">[varchar(50)[]]</text>
<polygon fill="none" stroke="#000000" points="49,-72.5 49,-102.5 332,-102.5 332,-72.5 49,-72.5"/>
<text text-anchor="start" x="56" y="-83.9" font-family="Arial" font-size="14.00" fill="#000000">created    </text>
<text text-anchor="start" x="136.8864" y="-83.9" font-family="Arial" font-size="14.00" fill="#666666">[timestamp without time zone]</text>
<polygon fill="none" stroke="#000000" points="49,-42.5 49,-72.5 332,-72.5 332,-42.5 49,-42.5"/>
<text text-anchor="start" x="55.5344" y="-53.9" font-family="Arial" font-size="14.00" fill="#000000">updated    </text>
<text text-anchor="start" x="140.3254" y="-53.9" font-family="Arial" font-size="14.00" fill="#666666">[timestamp without time zone]</text>
</g>
<!-- public.comments&#45;&gt;public.posts -->
<g id="edge2" class="edge">
<title>public.comments:post_id&#45;&gt;public.posts:id</title>
<path fill="none" stroke="#000000" d="M235.8813,-576.8261C169.0097,-567.3782 203.5523,-460.7855 246,-397 268.9561,-362.5043 309.0439,-395.4957 332,-361 355.0223,-326.4047 373.5556,-267.5 332,-267.5"/>
<polygon fill="#000000" stroke="#000000" points="236.0221,-576.8354 245.7009,-581.9901 241.0111,-577.1677 246,-577.5 246,-577.5 246,-577.5 241.0111,-577.1677 246.2991,-573.0099 236.0221,-576.8354 236.0221,-576.8354"/>
<text text-anchor="start" x="16.8845" y="-587.5" font-family="Arial" font-size="10.00" fill="#000000">FOREIGN KEY (post_id) REFERENCES posts(id)</text>
</g>
<!-- public.users -->
<g id="node5" class="node">
<title>public.users</title>
<polygon fill="#efefef" stroke="transparent" points="436,-252.5 436,-287.5 719,-287.5 719,-252.5 436,-252.5"/>
<polygon fill="none" stroke="#000000" points="436,-252.5 436,-287.5 719,-287.5 719,-252.5 436,-252.5"/>
<text text-anchor="start" x="465.7091" y="-265.3" font-family="Arial Bold" font-size="18.00" fill="#000000">public.users</text>
<text text-anchor="start" x="561.7229" y="-265.3" font-family="Arial" font-size="14.00" fill="#000000">    </text>
<text text-anchor="start" x="595.9277" y="-265.3" font-family="Arial" font-size="14.00" fill="#666666">[BASE TABLE]</text>
<polygon fill="none" stroke="#000000" points="436,-222.5 436,-252.5 719,-252.5 719,-222.5 436,-222.5"/>
<text text-anchor="start" x="443" y="-233.9" font-family="Arial" font-size="14.00" fill="#000000">id    </text>
<text text-anchor="start" x="488.094" y="-233.9" font-family="Arial" font-size="14.00" fill="#666666">[integer]</text>
<polygon fill="none" stroke="#000000" points="436,-192.5 436,-222.5 719,-222.5 719,-192.5 436,-192.5"/>
<text text-anchor="start" x="443" y="-203.9" font-family="Arial" font-size="14.00" fill="#000000">username    </text>
<text text-anchor="start" x="539.439" y="-203.9" font-family="Arial" font-size="14.00" fill="#666666">[varchar(50)]</text>
<polygon fill="none" stroke="#000000" points="436,-162.5 436,-192.5 719,-192.5 719,-162.5 436,-162.5"/>
<text text-anchor="start" x="443" y="-173.9" font-family="Arial" font-size="14.00" fill="#000000">password    </text>
<text text-anchor="start" x="537.1024" y="-173.9" font-family="Arial" font-size="14.00" fill="#666666">[varchar(50)]</text>
<polygon fill="none" stroke="#000000" points="436,-132.5 436,-162.5 719,-162.5 719,-132.5 436,-132.5"/>
<text text-anchor="start" x="443" y="-143.9" font-family="Arial" font-size="14.00" fill="#000000">email    </text>
<text text-anchor="start" x="510.6438" y="-143.9" font-family="Arial" font-size="14.00" fill="#666666">[varchar(355)]</text>
<polygon fill="none" stroke="#000000" points="436,-102.5 436,-132.5 719,-132.5 719,-102.5 436,-102.5"/>
<text text-anchor="start" x="443" y="-113.9" font-family="Arial" font-size="14.00" fill="#000000">created    </text>
<text text-anchor="start" x="523.8864" y="-113.9" font-family="Arial" font-size="14.00" fill="#666666">[timestamp without time zone]</text>
<polygon fill="none" stroke="#000000" points="436,-72.5 436,-102.5 719,-102.5 719,-72.5 436,-72.5"/>
<text text-anchor="start" x="442.5344" y="-83.9" font-family="Arial" font-size="14.00" fill="#000000">updated    </text>
<text text-anchor="start" x="527.3254" y="-83.9" font-family="Arial" font-size="14.00" fill="#666666">[timestamp without time zone]</text>
</g>
<!-- public.comments&#45;&gt;public.users -->
<g id="edge4" class="edge">
<title>public.comments:user_id&#45;&gt;public.users:id</title>
<path fill="none" stroke="#000000" d="M532.0574,-546.7077C584.8316,-537.6919 549.9643,-453.7111 522,-397 500.6918,-353.7872 457.3082,-374.2128 436,-331 417.6218,-293.7293 394.4444,-237.5 436,-237.5"/>
<polygon fill="#000000" stroke="#000000" points="531.9691,-546.7146 521.6466,-543.0139 526.9846,-547.1073 522,-547.5 522,-547.5 522,-547.5 526.9846,-547.1073 522.3534,-551.9861 531.9691,-546.7146 531.9691,-546.7146"/>
<text text-anchor="start" x="529.3345" y="-557.5" font-family="Arial" font-size="10.00" fill="#000000">FOREIGN KEY (user_id) REFERENCES users(id)</text>
</g>
<!-- public.logs -->
<g id="node2" class="node">
<title>public.logs</title>
<polygon fill="#efefef" stroke="transparent" points="43,-992.5 43,-1027.5 323,-1027.5 323,-992.5 43,-992.5"/>
<polygon fill="none" stroke="#000000" points="43,-992.5 43,-1027.5 323,-1027.5 323,-992.5 43,-992.5"/>
<text text-anchor="start" x="76.7081" y="-1005.3" font-family="Arial Bold" font-size="18.00" fill="#000000">public.logs</text>
<text text-anchor="start" x="161.7239" y="-1005.3" font-family="Arial" font-size="14.00" fill="#000000">    </text>
<text text-anchor="start" x="195.9287" y="-1005.3" font-family="Arial" font-size="14.00" fill="#666666">[BASE TABLE]</text>
<polygon fill="none" stroke="#000000" points="43,-962.5 43,-992.5 323,-992.5 323,-962.5 43,-962.5"/>
<text text-anchor="start" x="50" y="-973.9" font-family="Arial" font-size="14.00" fill="#000000">id    </text>
<text text-anchor="start" x="95.094" y="-973.9" font-family="Arial" font-size="14.00" fill="#666666">[uuid]</text>
<polygon fill="none" stroke="#000000" points="43,-932.5 43,-962.5 323,-962.5 323,-932.5 43,-932.5"/>
<text text-anchor="start" x="50" y="-943.9" font-family="Arial" font-size="14.00" fill="#000000">user_id    </text>
<text text-anchor="start" x="130.1024" y="-943.9" font-family="Arial" font-size="14.00" fill="#666666">[integer]</text>
<polygon fill="none" stroke="#000000" points="43,-902.5 43,-932.5 323,-932.5 323,-902.5 43,-902.5"/>
<text text-anchor="start" x="50" y="-913.9" font-family="Arial" font-size="14.00" fill="#000000">post_id    </text>
<text text-anchor="start" x="129.3324" y="-913.9" font-family="Arial" font-size="14.00" fill="#666666">[bigint]</text>
<polygon fill="none" stroke="#000000" points="43,-872.5 43,-902.5 323,-902.5 323,-872.5 43,-872.5"/>
<text text-anchor="start" x="50" y="-883.9" font-family="Arial" font-size="14.00" fill="#000000">comment_id    </text>
<text text-anchor="start" x="160.4362" y="-883.9" font-family="Arial" font-size="14.00" fill="#666666">[bigint]</text>
<polygon fill="none" stroke="#000000" points="43,-842.5 43,-872.5 323,-872.5 323,-842.5 43,-842.5"/>
<text text-anchor="start" x="50" y="-853.9" font-family="Arial" font-size="14.00" fill="#000000">comment_star_id    </text>
<text text-anchor="start" x="191.5526" y="-853.9" font-family="Arial" font-size="14.00" fill="#666666">[uuid]</text>
<polygon fill="none" stroke="#000000" points="43,-812.5 43,-842.5 323,-842.5 323,-812.5 43,-812.5"/>
<text text-anchor="start" x="50" y="-823.9" font-family="Arial" font-size="14.00" fill="#000000">payload    </text>
<text text-anchor="start" x="133.2244" y="-823.9" font-family="Arial" font-size="14.00" fill="#666666">[text]</text>
<polygon fill="none" stroke="#000000" points="43,-782.5 43,-812.5 323,-812.5 323,-782.5 43,-782.5"/>
<text text-anchor="start" x="49.9867" y="-793.9" font-family="Arial" font-size="14.00" fill="#000000">created    </text>
<text text-anchor="start" x="130.8731" y="-793.9" font-family="Arial" font-size="14.00" fill="#666666">[timestamp without time zone]</text>
</g>
<!-- public.logs&#45;&gt;public.comments -->
<g id="edge1" class="edge">
<title>public.logs:comment_id&#45;&gt;public.comments:id</title>
<path fill="none" stroke="#000000" stroke-dasharray="5,2" d="M333.2327,-886.6361C385.1008,-877.1746 356.2017,-792.1741 323,-740 302.718,-708.1283 266.282,-735.8717 246,-704 222.974,-667.8163 203.1111,-607.5 246,-607.5"/>
<polygon fill="#000000" stroke="#000000" points="332.9646,-886.6587 322.6214,-883.016 327.9823,-887.0793 323,-887.5 323,-887.5 323,-887.5 327.9823,-887.0793 323.3786,-891.984 332.9646,-886.6587 332.9646,-886.6587"/>
<text text-anchor="start" x="330.3245" y="-897.5" font-family="Arial" font-size="10.00" fill="#000000">Additional Relation</text>
</g>
<!-- public.comment_stars -->
<g id="node4" class="node">
<title>public.comment_stars</title>
<polygon fill="#efefef" stroke="transparent" points="427,-977.5 427,-1012.5 743,-1012.5 743,-977.5 427,-977.5"/>
<polygon fill="none" stroke="#000000" points="427,-977.5 427,-1012.5 743,-1012.5 743,-977.5 427,-977.5"/>
<text text-anchor="start" x="433.7054" y="-990.3" font-family="Arial Bold" font-size="18.00" fill="#000000">public.comment_stars</text>
<text text-anchor="start" x="608.7266" y="-990.3" font-family="Arial" font-size="14.00" fill="#000000">    </text>
<text text-anchor="start" x="642.9314" y="-990.3" font-family="Arial" font-size="14.00" fill="#666666">[BASE TABLE]</text>
<polygon fill="none" stroke="#000000" points="427,-947.5 427,-977.5 743,-977.5 743,-947.5 427,-947.5"/>
<text text-anchor="start" x="434" y="-958.9" font-family="Arial" font-size="14.00" fill="#000000">id    </text>
<text text-anchor="start" x="479.094" y="-958.9" font-family="Arial" font-size="14.00" fill="#666666">[uuid]</text>
<polygon fill="none" stroke="#000000" points="427,-917.5 427,-947.5 743,-947.5 743,-917.5 427,-917.5"/>
<text text-anchor="start" x="434" y="-928.9" font-family="Arial" font-size="14.00" fill="#000000">user_id    </text>
<text text-anchor="start" x="514.1024" y="-928.9" font-family="Arial" font-size="14.00" fill="#666666">[integer]</text>
<polygon fill="none" stroke="#000000" points="427,-887.5 427,-917.5 743,-917.5 743,-887.5 427,-887.5"/>
<text text-anchor="start" x="434" y="-898.9" font-family="Arial" font-size="14.00" fill="#000000">comment_post_id    </text>
<text text-anchor="start" x="578.6746" y="-898.9" font-family="Arial" font-size="14.00" fill="#666666">[bigint]</text>
<polygon fill="none" stroke="#000000" points="427,-857.5 427,-887.5 743,-887.5 743,-857.5 427,-857.5"/>
<text text-anchor="start" x="434" y="-868.9" font-family="Arial" font-size="14.00" fill="#000000">comment_user_id    </text>
<text text-anchor="start" x="579.4446" y="-868.9" font-family="Arial" font-size="14.00" fill="#666666">[integer]</text>
<polygon fill="none" stroke="#000000" points="427,-827.5 427,-857.5 743,-857.5 743,-827.5 427,-827.5"/>
<text text-anchor="start" x="434" y="-838.9" font-family="Arial" font-size="14.00" fill="#000000">created    </text>
<text text-anchor="start" x="514.8864" y="-838.9" font-family="Arial" font-size="14.00" fill="#666666">[timestamp without time zone]</text>
<polygon fill="none" stroke="#000000" points="427,-797.5 427,-827.5 743,-827.5 743,-797.5 427,-797.5"/>
<text text-anchor="start" x="434" y="-808.9" font-family="Arial" font-size="14.00" fill="#000000">updated    </text>
<text text-anchor="start" x="518.791" y="-808.9" font-family="Arial" font-size="14.00" fill="#666666">[timestamp without time zone]</text>
</g>
<!-- public.comment_stars&#45;&gt;public.comments -->
<g id="edge3" class="edge">
<title>public.comment_stars:comment_post_id&#45;&gt;public.comments:post_id</title>
<path fill="none" stroke="#000000" d="M416.7813,-901.6448C365.0642,-892.2764 395.2547,-808.0728 427,-755 451.5995,-713.8739 497.4005,-745.1261 522,-704 550.8603,-655.7504 578.2222,-577.5 522,-577.5"/>
<polygon fill="#000000" stroke="#000000" points="417.0348,-901.6659 426.6247,-906.9843 422.0174,-902.083 427,-902.5 427,-902.5 427,-902.5 422.0174,-902.083 427.3753,-898.0157 417.0348,-901.6659 417.0348,-901.6659"/>
<text text-anchor="start" x="433.533" y="-912.5" font-family="Arial" font-size="10.00" fill="#000000">FOREIGN KEY (comment_post_id, comment_user_id) REFERENCES comments(post_id, user_id)</text>
</g>
</g>
</svg>
