<?xml version="1.0" encoding="UTF-8" standalone="no"?>
<!DOCTYPE svg PUBLIC "-//W3C//DTD SVG 1.1//EN"
 "http://www.w3.org/Graphics/SVG/1.1/DTD/svg11.dtd">
<!-- Generated by graphviz version 12.1.2 (20240928.0832)
 -->
<!-- Title: public.CamelizeTable Pages: 1 -->
<svg width="791pt" height="479pt"
 viewBox="0.00 0.00 791.27 478.80" xmlns="http://www.w3.org/2000/svg" xmlns:xlink="http://www.w3.org/1999/xlink">
<g id="graph0" class="graph" transform="scale(1 1) rotate(0) translate(4 474.8)">
<title>public.CamelizeTable</title>
<polygon fill="white" stroke="none" points="-4,4 -4,-474.8 787.27,-474.8 787.27,4 -4,4"/>
<!-- public.CamelizeTable -->
<g id="node1" class="node">
<title>public.CamelizeTable</title>
<polygon fill="#efefef" stroke="none" points="46.2,-107.8 46.2,-143.4 343.12,-143.4 343.12,-107.8 46.2,-107.8"/>
<polygon fill="none" stroke="black" points="46.2,-107.8 46.2,-143.4 343.12,-143.4 343.12,-107.8 46.2,-107.8"/>
<text text-anchor="start" x="53.2" y="-121.2" font-family="Arial Bold" font-size="18.00">public.CamelizeTable</text>
<text text-anchor="start" x="211.63" y="-121.2" font-family="Arial" font-size="14.00">    </text>
<text text-anchor="start" x="242.75" y="-121.2" font-family="Arial" font-size="14.00" fill="#666666">[BASE TABLE]</text>
<polygon fill="none" stroke="black" points="46.2,-77 46.2,-107.8 343.12,-107.8 343.12,-77 46.2,-77"/>
<text text-anchor="start" x="53.2" y="-89.2" font-family="Arial" font-size="14.00">id </text>
<text text-anchor="start" x="67.99" y="-89.2" font-family="Arial" font-size="14.00" fill="#666666">[uuid]</text>
<polygon fill="none" stroke="black" points="46.2,-46.2 46.2,-77 343.12,-77 343.12,-46.2 46.2,-46.2"/>
<text text-anchor="start" x="53.2" y="-58.4" font-family="Arial" font-size="14.00">created </text>
<text text-anchor="start" x="103.79" y="-58.4" font-family="Arial" font-size="14.00" fill="#666666">[timestamp without time zone]</text>
<polygon fill="none" stroke="black" stroke-width="3" points="44.7,-44.7 44.7,-144.9 344.62,-144.9 344.62,-44.7 44.7,-44.7"/>
</g>
<!-- public.hyphen&#45;table -->
<g id="node2" class="node">
<title>public.hyphen&#45;table</title>
<polygon fill="#efefef" stroke="none" points="53.69,-392 53.69,-427.6 335.63,-427.6 335.63,-392 53.69,-392"/>
<polygon fill="none" stroke="black" points="53.69,-392 53.69,-427.6 335.63,-427.6 335.63,-392 53.69,-392"/>
<text text-anchor="start" x="60.69" y="-405.4" font-family="Arial Bold" font-size="18.00">public.hyphen&#45;table</text>
<text text-anchor="start" x="204.14" y="-405.4" font-family="Arial" font-size="14.00">    </text>
<text text-anchor="start" x="235.26" y="-405.4" font-family="Arial" font-size="14.00" fill="#666666">[BASE TABLE]</text>
<polygon fill="none" stroke="black" points="53.69,-361.2 53.69,-392 335.63,-392 335.63,-361.2 53.69,-361.2"/>
<text text-anchor="start" x="60.69" y="-373.4" font-family="Arial" font-size="14.00">id </text>
<text text-anchor="start" x="75.47" y="-373.4" font-family="Arial" font-size="14.00" fill="#666666">[uuid]</text>
<polygon fill="none" stroke="black" points="53.69,-330.4 53.69,-361.2 335.63,-361.2 335.63,-330.4 53.69,-330.4"/>
<text text-anchor="start" x="60.69" y="-342.6" font-family="Arial" font-size="14.00">hyphen&#45;column </text>
<text text-anchor="start" x="160.3" y="-342.6" font-family="Arial" font-size="14.00" fill="#666666">[text]</text>
<polygon fill="none" stroke="black" points="53.69,-299.6 53.69,-330.4 335.63,-330.4 335.63,-299.6 53.69,-299.6"/>
<text text-anchor="start" x="60.69" y="-311.8" font-family="Arial" font-size="14.00">CamelizeTableId </text>
<text text-anchor="start" x="169.63" y="-311.8" font-family="Arial" font-size="14.00" fill="#666666">[uuid]</text>
<polygon fill="none" stroke="black" points="53.69,-268.8 53.69,-299.6 335.63,-299.6 335.63,-268.8 53.69,-268.8"/>
<text text-anchor="start" x="60.69" y="-281" font-family="Arial" font-size="14.00">created </text>
<text text-anchor="start" x="111.27" y="-281" font-family="Arial" font-size="14.00" fill="#666666">[timestamp without time zone]</text>
</g>
<!-- public.hyphen&#45;table&#45;&gt;public.CamelizeTable -->
<g id="edge1" class="edge">
<title>public.hyphen&#45;table:CamelizeTableId&#45;&gt;public.CamelizeTable:id</title>
<path fill="none" stroke="black" d="M346.44,-311.85C386.9,-284.8 390.14,-92.4 344.12,-92.4"/>
<polygon fill="black" stroke="black" points="346.47,-311.84 335.58,-310.61 341.39,-313.47 337.27,-314.8 337.27,-314.8 337.27,-314.8 341.39,-313.47 338.33,-319.18 346.47,-311.84"/>
<text text-anchor="start" x="343.63" y="-325" font-family="Arial" font-size="10.00">FOREIGN KEY (&quot;CamelizeTableId&quot;) REFERENCES &quot;CamelizeTable&quot;(id) ON DELETE CASCADE</text>
</g>
</g>
</svg>
