<?xml version="1.0" encoding="UTF-8" standalone="no"?>
<!DOCTYPE svg PUBLIC "-//W3C//DTD SVG 1.1//EN"
 "http://www.w3.org/Graphics/SVG/1.1/DTD/svg11.dtd">
<!-- Generated by graphviz version 12.1.2 (20240928.0832)
 -->
<!-- Title: public.comment_stars Pages: 1 -->
<svg width="1044pt" height="1037pt"
 viewBox="0.00 0.00 1044.06 1037.20" xmlns="http://www.w3.org/2000/svg" xmlns:xlink="http://www.w3.org/1999/xlink">
<g id="graph0" class="graph" transform="scale(1 1) rotate(0) translate(4 1033.2)">
<title>public.comment_stars</title>
<polygon fill="white" stroke="none" points="-4,4 -4,-1033.2 1040.06,-1033.2 1040.06,4 -4,4"/>
<!-- public.comment_stars -->
<g id="node1" class="node">
<title>public.comment_stars</title>
<polygon fill="#efefef" stroke="none" points="454.04,-573.8 454.04,-609.4 750.99,-609.4 750.99,-573.8 454.04,-573.8"/>
<polygon fill="none" stroke="black" points="454.04,-573.8 454.04,-609.4 750.99,-609.4 750.99,-573.8 454.04,-573.8"/>
<text text-anchor="start" x="461.04" y="-587.2" font-family="Arial Bold" font-size="18.00">public.comment_stars</text>
<text text-anchor="start" x="619.5" y="-587.2" font-family="Arial" font-size="14.00">    </text>
<text text-anchor="start" x="650.62" y="-587.2" font-family="Arial" font-size="14.00" fill="#666666">[BASE TABLE]</text>
<polygon fill="none" stroke="black" points="454.04,-543 454.04,-573.8 750.99,-573.8 750.99,-543 454.04,-543"/>
<text text-anchor="start" x="461.04" y="-555.2" font-family="Arial" font-size="14.00">id </text>
<text text-anchor="start" x="475.82" y="-555.2" font-family="Arial" font-size="14.00" fill="#666666">[uuid]</text>
<polygon fill="none" stroke="black" points="454.04,-512.2 454.04,-543 750.99,-543 750.99,-512.2 454.04,-512.2"/>
<text text-anchor="start" x="461.04" y="-524.4" font-family="Arial" font-size="14.00">user_id </text>
<text text-anchor="start" x="510.84" y="-524.4" font-family="Arial" font-size="14.00" fill="#666666">[integer]</text>
<polygon fill="none" stroke="black" points="454.04,-481.4 454.04,-512.2 750.99,-512.2 750.99,-481.4 454.04,-481.4"/>
<text text-anchor="start" x="461.04" y="-493.6" font-family="Arial" font-size="14.00">comment_post_id </text>
<text text-anchor="start" x="575.43" y="-493.6" font-family="Arial" font-size="14.00" fill="#666666">[bigint]</text>
<polygon fill="none" stroke="black" points="454.04,-450.6 454.04,-481.4 750.99,-481.4 750.99,-450.6 454.04,-450.6"/>
<text text-anchor="start" x="461.04" y="-462.8" font-family="Arial" font-size="14.00">comment_user_id </text>
<text text-anchor="start" x="576.2" y="-462.8" font-family="Arial" font-size="14.00" fill="#666666">[integer]</text>
<polygon fill="none" stroke="black" points="454.04,-419.8 454.04,-450.6 750.99,-450.6 750.99,-419.8 454.04,-419.8"/>
<text text-anchor="start" x="461.04" y="-432" font-family="Arial" font-size="14.00">created </text>
<text text-anchor="start" x="511.62" y="-432" font-family="Arial" font-size="14.00" fill="#666666">[timestamp without time zone]</text>
<polygon fill="none" stroke="black" points="454.04,-389 454.04,-419.8 750.99,-419.8 750.99,-389 454.04,-389"/>
<text text-anchor="start" x="461.04" y="-401.2" font-family="Arial" font-size="14.00">updated </text>
<text text-anchor="start" x="515.53" y="-401.2" font-family="Arial" font-size="14.00" fill="#666666">[timestamp without time zone]</text>
<polygon fill="none" stroke="black" stroke-width="3" points="452.54,-387.5 452.54,-610.9 752.49,-610.9 752.49,-387.5 452.54,-387.5"/>
</g>
<!-- public.comments -->
<g id="node3" class="node">
<title>public.comments</title>
<polygon fill="#efefef" stroke="none" points="270.06,-228 270.06,-263.6 550.97,-263.6 550.97,-228 270.06,-228"/>
<polygon fill="none" stroke="black" points="270.06,-228 270.06,-263.6 550.97,-263.6 550.97,-228 270.06,-228"/>
<text text-anchor="start" x="286.53" y="-241.4" font-family="Arial Bold" font-size="18.00">public.comments</text>
<text text-anchor="start" x="410.01" y="-241.4" font-family="Arial" font-size="14.00">    </text>
<text text-anchor="start" x="441.13" y="-241.4" font-family="Arial" font-size="14.00" fill="#666666">[BASE TABLE]</text>
<polygon fill="none" stroke="black" points="270.06,-197.2 270.06,-228 550.97,-228 550.97,-197.2 270.06,-197.2"/>
<text text-anchor="start" x="277.06" y="-209.4" font-family="Arial" font-size="14.00">id    </text>
<text text-anchor="start" x="319.08" y="-209.4" font-family="Arial" font-size="14.00" fill="#666666">[bigint]</text>
<polygon fill="none" stroke="black" points="270.06,-166.4 270.06,-197.2 550.97,-197.2 550.97,-166.4 270.06,-166.4"/>
<text text-anchor="start" x="277.06" y="-178.6" font-family="Arial" font-size="14.00">post_id    </text>
<text text-anchor="start" x="353.32" y="-178.6" font-family="Arial" font-size="14.00" fill="#666666">[bigint]</text>
<polygon fill="none" stroke="black" points="270.06,-135.6 270.06,-166.4 550.97,-166.4 550.97,-135.6 270.06,-135.6"/>
<text text-anchor="start" x="277.06" y="-147.8" font-family="Arial" font-size="14.00">user_id    </text>
<text text-anchor="start" x="354.1" y="-147.8" font-family="Arial" font-size="14.00" fill="#666666">[integer]</text>
<polygon fill="none" stroke="black" points="270.06,-104.8 270.06,-135.6 550.97,-135.6 550.97,-104.8 270.06,-104.8"/>
<text text-anchor="start" x="277.06" y="-117" font-family="Arial" font-size="14.00">comment    </text>
<text text-anchor="start" x="365.75" y="-117" font-family="Arial" font-size="14.00" fill="#666666">[text]</text>
<polygon fill="none" stroke="black" points="270.06,-74 270.06,-104.8 550.97,-104.8 550.97,-74 270.06,-74"/>
<text text-anchor="start" x="277.06" y="-86.2" font-family="Arial" font-size="14.00">created    </text>
<text text-anchor="start" x="354.88" y="-86.2" font-family="Arial" font-size="14.00" fill="#666666">[timestamp without time zone]</text>
<polygon fill="none" stroke="black" points="270.06,-43.2 270.06,-74 550.97,-74 550.97,-43.2 270.06,-43.2"/>
<text text-anchor="start" x="277.06" y="-55.4" font-family="Arial" font-size="14.00">updated    </text>
<text text-anchor="start" x="358.79" y="-55.4" font-family="Arial" font-size="14.00" fill="#666666">[timestamp without time zone]</text>
</g>
<!-- public.comment_stars&#45;&gt;public.comments -->
<g id="edge2" class="edge">
<title>public.comment_stars:comment_post_id&#45;&gt;public.comments:post_id</title>
<path fill="none" stroke="black" d="M442.68,-495.94C387.92,-486.21 416.93,-395.8 454.04,-342.8 480.4,-305.15 524.58,-344.43 550.97,-306.8 582.87,-261.31 607.53,-181.8 551.97,-181.8"/>
<polygon fill="black" stroke="black" points="442.74,-495.95 452.33,-501.26 448.06,-496.39 452.37,-496.74 452.37,-496.74 452.37,-496.74 448.06,-496.39 453.08,-492.29 442.74,-495.95"/>
<text text-anchor="start" x="7" y="-506.8" font-family="Arial" font-size="10.00">FOREIGN KEY (comment_post_id, comment_user_id) REFERENCES comments(post_id, user_id)</text>
</g>
<!-- public.users -->
<g id="node4" class="node">
<title>public.users</title>
<polygon fill="#efefef" stroke="none" points="655.06,-228 655.06,-263.6 935.97,-263.6 935.97,-228 655.06,-228"/>
<polygon fill="none" stroke="black" points="655.06,-228 655.06,-263.6 935.97,-263.6 935.97,-228 655.06,-228"/>
<text text-anchor="start" x="690.03" y="-241.4" font-family="Arial Bold" font-size="18.00">public.users</text>
<text text-anchor="start" x="776.51" y="-241.4" font-family="Arial" font-size="14.00">    </text>
<text text-anchor="start" x="807.63" y="-241.4" font-family="Arial" font-size="14.00" fill="#666666">[BASE TABLE]</text>
<polygon fill="none" stroke="black" points="655.06,-197.2 655.06,-228 935.97,-228 935.97,-197.2 655.06,-197.2"/>
<text text-anchor="start" x="662.06" y="-209.4" font-family="Arial" font-size="14.00">id    </text>
<text text-anchor="start" x="704.08" y="-209.4" font-family="Arial" font-size="14.00" fill="#666666">[integer]</text>
<polygon fill="none" stroke="black" points="655.06,-166.4 655.06,-197.2 935.97,-197.2 935.97,-166.4 655.06,-166.4"/>
<text text-anchor="start" x="662.06" y="-178.6" font-family="Arial" font-size="14.00">username    </text>
<text text-anchor="start" x="755.43" y="-178.6" font-family="Arial" font-size="14.00" fill="#666666">[varchar(50)]</text>
<polygon fill="none" stroke="black" points="655.06,-135.6 655.06,-166.4 935.97,-166.4 935.97,-135.6 655.06,-135.6"/>
<text text-anchor="start" x="662.06" y="-147.8" font-family="Arial" font-size="14.00">password    </text>
<text text-anchor="start" x="753.1" y="-147.8" font-family="Arial" font-size="14.00" fill="#666666">[varchar(50)]</text>
<polygon fill="none" stroke="black" points="655.06,-104.8 655.06,-135.6 935.97,-135.6 935.97,-104.8 655.06,-104.8"/>
<text text-anchor="start" x="662.06" y="-117" font-family="Arial" font-size="14.00">email    </text>
<text text-anchor="start" x="726.63" y="-117" font-family="Arial" font-size="14.00" fill="#666666">[varchar(355)]</text>
<polygon fill="none" stroke="black" points="655.06,-74 655.06,-104.8 935.97,-104.8 935.97,-74 655.06,-74"/>
<text text-anchor="start" x="662.06" y="-86.2" font-family="Arial" font-size="14.00">created    </text>
<text text-anchor="start" x="739.88" y="-86.2" font-family="Arial" font-size="14.00" fill="#666666">[timestamp without time zone]</text>
<polygon fill="none" stroke="black" points="655.06,-43.2 655.06,-74 935.97,-74 935.97,-43.2 655.06,-43.2"/>
<text text-anchor="start" x="662.06" y="-55.4" font-family="Arial" font-size="14.00">updated    </text>
<text text-anchor="start" x="743.79" y="-55.4" font-family="Arial" font-size="14.00" fill="#666666">[timestamp without time zone]</text>
</g>
<!-- public.comment_stars&#45;&gt;public.users -->
<g id="edge3" class="edge">
<title>public.comment_stars:comment_user_id&#45;&gt;public.users:id</title>
<path fill="none" stroke="black" d="M762.14,-464.94C803.38,-455.45 780.22,-384.61 750.99,-342.8 724.91,-305.47 681.19,-344.1 655.06,-306.8 631.03,-272.51 612.19,-212.6 654.06,-212.6"/>
<polygon fill="black" stroke="black" points="762.27,-464.92 751.86,-461.49 756.97,-465.48 752.66,-465.93 752.66,-465.93 752.66,-465.93 756.97,-465.48 752.8,-470.44 762.27,-464.92"/>
<text text-anchor="start" x="758.99" y="-476" font-family="Arial" font-size="10.00">FOREIGN KEY (comment_user_id) REFERENCES users(id)</text>
</g>
<!-- public.logs -->
<g id="node2" class="node">
<title>public.logs</title>
<polygon fill="#efefef" stroke="none" points="464.02,-950.4 464.02,-986 741.02,-986 741.02,-950.4 464.02,-950.4"/>
<polygon fill="none" stroke="black" points="464.02,-950.4 464.02,-986 741.02,-986 741.02,-950.4 464.02,-950.4"/>
<text text-anchor="start" x="500.52" y="-963.8" font-family="Arial Bold" font-size="18.00">public.logs</text>
<text text-anchor="start" x="580.02" y="-963.8" font-family="Arial" font-size="14.00">    </text>
<text text-anchor="start" x="611.14" y="-963.8" font-family="Arial" font-size="14.00" fill="#666666">[BASE TABLE]</text>
<polygon fill="none" stroke="black" points="464.02,-919.6 464.02,-950.4 741.02,-950.4 741.02,-919.6 464.02,-919.6"/>
<text text-anchor="start" x="471.02" y="-931.8" font-family="Arial" font-size="14.00">id    </text>
<text text-anchor="start" x="513.03" y="-931.8" font-family="Arial" font-size="14.00" fill="#666666">[uuid]</text>
<polygon fill="none" stroke="black" points="464.02,-888.8 464.02,-919.6 741.02,-919.6 741.02,-888.8 464.02,-888.8"/>
<text text-anchor="start" x="471.02" y="-901" font-family="Arial" font-size="14.00">user_id    </text>
<text text-anchor="start" x="548.05" y="-901" font-family="Arial" font-size="14.00" fill="#666666">[integer]</text>
<polygon fill="none" stroke="black" points="464.02,-858 464.02,-888.8 741.02,-888.8 741.02,-858 464.02,-858"/>
<text text-anchor="start" x="471.02" y="-870.2" font-family="Arial" font-size="14.00">post_id    </text>
<text text-anchor="start" x="547.28" y="-870.2" font-family="Arial" font-size="14.00" fill="#666666">[bigint]</text>
<polygon fill="none" stroke="black" points="464.02,-827.2 464.02,-858 741.02,-858 741.02,-827.2 464.02,-827.2"/>
<text text-anchor="start" x="471.02" y="-839.4" font-family="Arial" font-size="14.00">comment_id    </text>
<text text-anchor="start" x="578.39" y="-839.4" font-family="Arial" font-size="14.00" fill="#666666">[bigint]</text>
<polygon fill="none" stroke="black" points="464.02,-796.4 464.02,-827.2 741.02,-827.2 741.02,-796.4 464.02,-796.4"/>
<text text-anchor="start" x="471.02" y="-808.6" font-family="Arial" font-size="14.00">comment_star_id    </text>
<text text-anchor="start" x="609.51" y="-808.6" font-family="Arial" font-size="14.00" fill="#666666">[uuid]</text>
<polygon fill="none" stroke="black" points="464.02,-765.6 464.02,-796.4 741.02,-796.4 741.02,-765.6 464.02,-765.6"/>
<text text-anchor="start" x="471.02" y="-777.8" font-family="Arial" font-size="14.00">payload    </text>
<text text-anchor="start" x="551.17" y="-777.8" font-family="Arial" font-size="14.00" fill="#666666">[text]</text>
<polygon fill="none" stroke="black" points="464.02,-734.8 464.02,-765.6 741.02,-765.6 741.02,-734.8 464.02,-734.8"/>
<text text-anchor="start" x="471.02" y="-747" font-family="Arial" font-size="14.00">created    </text>
<text text-anchor="start" x="548.83" y="-747" font-family="Arial" font-size="14.00" fill="#666666">[timestamp without time zone]</text>
</g>
<!-- public.logs&#45;&gt;public.comment_stars -->
<g id="edge1" class="edge">
<title>public.logs:comment_star_id&#45;&gt;public.comment_stars:id</title>
<path fill="none" stroke="black" stroke-dasharray="5,2" d="M752.28,-811.07C855.23,-796.21 861.18,-558.4 751.99,-558.4"/>
<polygon fill="black" stroke="black" points="752.32,-811.07 742.03,-807.29 747,-811.45 742.68,-811.75 742.68,-811.75 742.68,-811.75 747,-811.45 742.67,-816.27 752.32,-811.07"/>
<text text-anchor="start" x="749.02" y="-821.8" font-family="Arial" font-size="10.00">Additional Relation</text>
</g>
</g>
</svg>
