<?xml version="1.0" encoding="UTF-8" standalone="no"?>
<!DOCTYPE svg PUBLIC "-//W3C//DTD SVG 1.1//EN"
 "http://www.w3.org/Graphics/SVG/1.1/DTD/svg11.dtd">
<!-- Generated by graphviz version 12.1.2 (20240928.0832)
 -->
<!-- Title: public.users Pages: 1 -->
<svg width="2260pt" height="725pt"
 viewBox="0.00 0.00 2260.06 725.20" xmlns="http://www.w3.org/2000/svg" xmlns:xlink="http://www.w3.org/1999/xlink">
<g id="graph0" class="graph" transform="scale(1 1) rotate(0) translate(4 721.2)">
<title>public.users</title>
<polygon fill="white" stroke="none" points="-4,4 -4,-721.2 2256.06,-721.2 2256.06,4 -4,4"/>
<!-- public.users -->
<g id="node1" class="node">
<title>public.users</title>
<polygon fill="#efefef" stroke="none" points="1005.13,-231 1005.13,-266.6 1258.81,-266.6 1258.81,-231 1005.13,-231"/>
<polygon fill="none" stroke="black" points="1005.13,-231 1005.13,-266.6 1258.81,-266.6 1258.81,-231 1005.13,-231"/>
<text text-anchor="start" x="1026.49" y="-244.4" font-family="Arial Bold" font-size="18.00">public.users</text>
<text text-anchor="start" x="1112.97" y="-244.4" font-family="Arial" font-size="14.00">    </text>
<text text-anchor="start" x="1144.09" y="-244.4" font-family="Arial" font-size="14.00" fill="#666666">[BASE TABLE]</text>
<polygon fill="none" stroke="black" points="1005.13,-200.2 1005.13,-231 1258.81,-231 1258.81,-200.2 1005.13,-200.2"/>
<text text-anchor="start" x="1012.13" y="-212.4" font-family="Arial" font-size="14.00">id </text>
<text text-anchor="start" x="1026.92" y="-212.4" font-family="Arial" font-size="14.00" fill="#666666">[integer]</text>
<polygon fill="none" stroke="black" points="1005.13,-169.4 1005.13,-200.2 1258.81,-200.2 1258.81,-169.4 1005.13,-169.4"/>
<text text-anchor="start" x="1012.13" y="-181.6" font-family="Arial" font-size="14.00">username </text>
<text text-anchor="start" x="1078.28" y="-181.6" font-family="Arial" font-size="14.00" fill="#666666">[varchar(50)]</text>
<polygon fill="none" stroke="black" points="1005.13,-138.6 1005.13,-169.4 1258.81,-169.4 1258.81,-138.6 1005.13,-138.6"/>
<text text-anchor="start" x="1012.13" y="-150.8" font-family="Arial" font-size="14.00">password </text>
<text text-anchor="start" x="1075.94" y="-150.8" font-family="Arial" font-size="14.00" fill="#666666">[varchar(50)]</text>
<polygon fill="none" stroke="black" points="1005.13,-107.8 1005.13,-138.6 1258.81,-138.6 1258.81,-107.8 1005.13,-107.8"/>
<text text-anchor="start" x="1012.13" y="-120" font-family="Arial" font-size="14.00">email </text>
<text text-anchor="start" x="1049.48" y="-120" font-family="Arial" font-size="14.00" fill="#666666">[varchar(355)]</text>
<polygon fill="none" stroke="black" points="1005.13,-77 1005.13,-107.8 1258.81,-107.8 1258.81,-77 1005.13,-77"/>
<text text-anchor="start" x="1012.13" y="-89.2" font-family="Arial" font-size="14.00">created </text>
<text text-anchor="start" x="1062.72" y="-89.2" font-family="Arial" font-size="14.00" fill="#666666">[timestamp without time zone]</text>
<polygon fill="none" stroke="black" points="1005.13,-46.2 1005.13,-77 1258.81,-77 1258.81,-46.2 1005.13,-46.2"/>
<text text-anchor="start" x="1012.13" y="-58.4" font-family="Arial" font-size="14.00">updated </text>
<text text-anchor="start" x="1066.63" y="-58.4" font-family="Arial" font-size="14.00" fill="#666666">[timestamp without time zone]</text>
<polygon fill="none" stroke="black" stroke-width="3" points="1003.63,-44.7 1003.63,-268.1 1260.31,-268.1 1260.31,-44.7 1003.63,-44.7"/>
</g>
<!-- public.user_options -->
<g id="node2" class="node">
<title>public.user_options</title>
<polygon fill="#efefef" stroke="none" points="66.98,-576.8 66.98,-612.4 346.96,-612.4 346.96,-576.8 66.98,-576.8"/>
<polygon fill="none" stroke="black" points="66.98,-576.8 66.98,-612.4 346.96,-612.4 346.96,-576.8 66.98,-576.8"/>
<text text-anchor="start" x="73.98" y="-590.2" font-family="Arial Bold" font-size="18.00">public.user_options</text>
<text text-anchor="start" x="215.47" y="-590.2" font-family="Arial" font-size="14.00">    </text>
<text text-anchor="start" x="246.59" y="-590.2" font-family="Arial" font-size="14.00" fill="#666666">[BASE TABLE]</text>
<polygon fill="none" stroke="black" points="66.98,-546 66.98,-576.8 346.96,-576.8 346.96,-546 66.98,-546"/>
<text text-anchor="start" x="73.98" y="-558.2" font-family="Arial" font-size="14.00">user_id </text>
<text text-anchor="start" x="123.79" y="-558.2" font-family="Arial" font-size="14.00" fill="#666666">[integer]</text>
<polygon fill="none" stroke="black" points="66.98,-515.2 66.98,-546 346.96,-546 346.96,-515.2 66.98,-515.2"/>
<text text-anchor="start" x="73.98" y="-527.4" font-family="Arial" font-size="14.00">show_email </text>
<text text-anchor="start" x="151.8" y="-527.4" font-family="Arial" font-size="14.00" fill="#666666">[boolean]</text>
<polygon fill="none" stroke="black" points="66.98,-484.4 66.98,-515.2 346.96,-515.2 346.96,-484.4 66.98,-484.4"/>
<text text-anchor="start" x="73.98" y="-496.6" font-family="Arial" font-size="14.00">created </text>
<text text-anchor="start" x="124.57" y="-496.6" font-family="Arial" font-size="14.00" fill="#666666">[timestamp without time zone]</text>
<polygon fill="none" stroke="black" points="66.98,-453.6 66.98,-484.4 346.96,-484.4 346.96,-453.6 66.98,-453.6"/>
<text text-anchor="start" x="73.98" y="-465.8" font-family="Arial" font-size="14.00">updated </text>
<text text-anchor="start" x="128.48" y="-465.8" font-family="Arial" font-size="14.00" fill="#666666">[timestamp without time zone]</text>
</g>
<!-- public.user_options&#45;&gt;public.users -->
<g id="edge1" class="edge">
<title>public.user_options:user_id&#45;&gt;public.users:id</title>
<path fill="none" stroke="black" d="M357.92,-560.81C436.81,-550.78 332.19,-414.33 398.97,-348.8 497.25,-252.35 866.43,-215.6 1004.13,-215.6"/>
<polygon fill="black" stroke="black" points="358.28,-560.79 348.03,-556.89 352.95,-561.11 348.63,-561.36 348.63,-561.36 348.63,-561.36 352.95,-561.11 348.56,-565.87 358.28,-560.79"/>
<text text-anchor="start" x="7" y="-571.4" font-family="Arial" font-size="10.00">FOREIGN KEY (user_id) REFERENCES users(id) ON DELETE CASCADE</text>
</g>
<!-- public.posts -->
<g id="node3" class="node">
<title>public.posts</title>
<polygon fill="#efefef" stroke="none" points="451.13,-638.4 451.13,-674 704.81,-674 704.81,-638.4 451.13,-638.4"/>
<polygon fill="none" stroke="black" points="451.13,-638.4 451.13,-674 704.81,-674 704.81,-638.4 451.13,-638.4"/>
<text text-anchor="start" x="472.48" y="-651.8" font-family="Arial Bold" font-size="18.00">public.posts</text>
<text text-anchor="start" x="558.98" y="-651.8" font-family="Arial" font-size="14.00">    </text>
<text text-anchor="start" x="590.1" y="-651.8" font-family="Arial" font-size="14.00" fill="#666666">[BASE TABLE]</text>
<polygon fill="none" stroke="black" points="451.13,-607.6 451.13,-638.4 704.81,-638.4 704.81,-607.6 451.13,-607.6"/>
<text text-anchor="start" x="458.13" y="-619.8" font-family="Arial" font-size="14.00">id </text>
<text text-anchor="start" x="472.92" y="-619.8" font-family="Arial" font-size="14.00" fill="#666666">[bigint]</text>
<polygon fill="none" stroke="black" points="451.13,-576.8 451.13,-607.6 704.81,-607.6 704.81,-576.8 451.13,-576.8"/>
<text text-anchor="start" x="458.13" y="-589" font-family="Arial" font-size="14.00">user_id </text>
<text text-anchor="start" x="507.94" y="-589" font-family="Arial" font-size="14.00" fill="#666666">[integer]</text>
<polygon fill="none" stroke="black" points="451.13,-546 451.13,-576.8 704.81,-576.8 704.81,-546 451.13,-546"/>
<text text-anchor="start" x="458.13" y="-558.2" font-family="Arial" font-size="14.00">title </text>
<text text-anchor="start" x="483.81" y="-558.2" font-family="Arial" font-size="14.00" fill="#666666">[varchar(255)]</text>
<polygon fill="none" stroke="black" points="451.13,-515.2 451.13,-546 704.81,-546 704.81,-515.2 451.13,-515.2"/>
<text text-anchor="start" x="458.13" y="-527.4" font-family="Arial" font-size="14.00">body </text>
<text text-anchor="start" x="492.38" y="-527.4" font-family="Arial" font-size="14.00" fill="#666666">[text]</text>
<polygon fill="none" stroke="black" points="451.13,-484.4 451.13,-515.2 704.81,-515.2 704.81,-484.4 451.13,-484.4"/>
<text text-anchor="start" x="458.13" y="-496.6" font-family="Arial" font-size="14.00">post_type </text>
<text text-anchor="start" x="522.73" y="-496.6" font-family="Arial" font-size="14.00" fill="#666666">[post_types]</text>
<polygon fill="none" stroke="black" points="451.13,-453.6 451.13,-484.4 704.81,-484.4 704.81,-453.6 451.13,-453.6"/>
<text text-anchor="start" x="458.13" y="-465.8" font-family="Arial" font-size="14.00">labels </text>
<text text-anchor="start" x="498.6" y="-465.8" font-family="Arial" font-size="14.00" fill="#666666">[varchar(50)[]]</text>
<polygon fill="none" stroke="black" points="451.13,-422.8 451.13,-453.6 704.81,-453.6 704.81,-422.8 451.13,-422.8"/>
<text text-anchor="start" x="458.13" y="-435" font-family="Arial" font-size="14.00">created </text>
<text text-anchor="start" x="508.72" y="-435" font-family="Arial" font-size="14.00" fill="#666666">[timestamp without time zone]</text>
<polygon fill="none" stroke="black" points="451.13,-392 451.13,-422.8 704.81,-422.8 704.81,-392 451.13,-392"/>
<text text-anchor="start" x="458.13" y="-404.2" font-family="Arial" font-size="14.00">updated </text>
<text text-anchor="start" x="512.63" y="-404.2" font-family="Arial" font-size="14.00" fill="#666666">[timestamp without time zone]</text>
</g>
<!-- public.posts&#45;&gt;public.users -->
<g id="edge2" class="edge">
<title>public.posts:user_id&#45;&gt;public.users:id</title>
<path fill="none" stroke="black" d="M716.06,-591.7C808.23,-581.99 692.99,-434.4 756.97,-348.8 831.68,-248.85 879.35,-215.6 1004.13,-215.6"/>
<polygon fill="black" stroke="black" points="716.13,-591.69 705.93,-587.69 710.81,-591.95 706.48,-592.17 706.48,-592.17 706.48,-592.17 710.81,-591.95 706.37,-596.68 716.13,-591.69"/>
<text text-anchor="start" x="712.81" y="-602.2" font-family="Arial" font-size="10.00">FOREIGN KEY (user_id) REFERENCES users(id) ON DELETE CASCADE</text>
</g>
<!-- public.comments -->
<g id="node4" class="node">
<title>public.comments</title>
<polygon fill="#efefef" stroke="none" points="808.99,-607.6 808.99,-643.2 1070.96,-643.2 1070.96,-607.6 808.99,-607.6"/>
<polygon fill="none" stroke="black" points="808.99,-607.6 808.99,-643.2 1070.96,-643.2 1070.96,-607.6 808.99,-607.6"/>
<text text-anchor="start" x="815.99" y="-621" font-family="Arial Bold" font-size="18.00">public.comments</text>
<text text-anchor="start" x="939.47" y="-621" font-family="Arial" font-size="14.00">    </text>
<text text-anchor="start" x="970.58" y="-621" font-family="Arial" font-size="14.00" fill="#666666">[BASE TABLE]</text>
<polygon fill="none" stroke="black" points="808.99,-576.8 808.99,-607.6 1070.96,-607.6 1070.96,-576.8 808.99,-576.8"/>
<text text-anchor="start" x="815.99" y="-589" font-family="Arial" font-size="14.00">id </text>
<text text-anchor="start" x="830.77" y="-589" font-family="Arial" font-size="14.00" fill="#666666">[bigint]</text>
<polygon fill="none" stroke="black" points="808.99,-546 808.99,-576.8 1070.96,-576.8 1070.96,-546 808.99,-546"/>
<text text-anchor="start" x="815.99" y="-558.2" font-family="Arial" font-size="14.00">post_id </text>
<text text-anchor="start" x="865.02" y="-558.2" font-family="Arial" font-size="14.00" fill="#666666">[bigint]</text>
<polygon fill="none" stroke="black" points="808.99,-515.2 808.99,-546 1070.96,-546 1070.96,-515.2 808.99,-515.2"/>
<text text-anchor="start" x="815.99" y="-527.4" font-family="Arial" font-size="14.00">user_id </text>
<text text-anchor="start" x="865.8" y="-527.4" font-family="Arial" font-size="14.00" fill="#666666">[integer]</text>
<polygon fill="none" stroke="black" points="808.99,-484.4 808.99,-515.2 1070.96,-515.2 1070.96,-484.4 808.99,-484.4"/>
<text text-anchor="start" x="815.99" y="-496.6" font-family="Arial" font-size="14.00">comment </text>
<text text-anchor="start" x="877.45" y="-496.6" font-family="Arial" font-size="14.00" fill="#666666">[text]</text>
<polygon fill="none" stroke="black" points="808.99,-453.6 808.99,-484.4 1070.96,-484.4 1070.96,-453.6 808.99,-453.6"/>
<text text-anchor="start" x="815.99" y="-465.8" font-family="Arial" font-size="14.00">created </text>
<text text-anchor="start" x="866.57" y="-465.8" font-family="Arial" font-size="14.00" fill="#666666">[timestamp without time zone]</text>
<polygon fill="none" stroke="black" points="808.99,-422.8 808.99,-453.6 1070.96,-453.6 1070.96,-422.8 808.99,-422.8"/>
<text text-anchor="start" x="815.99" y="-435" font-family="Arial" font-size="14.00">updated </text>
<text text-anchor="start" x="870.48" y="-435" font-family="Arial" font-size="14.00" fill="#666666">[timestamp without time zone]</text>
</g>
<!-- public.comments&#45;&gt;public.users -->
<g id="edge3" class="edge">
<title>public.comments:user_id&#45;&gt;public.users:id</title>
<path fill="none" stroke="black" d="M1082.33,-529.76C1134.31,-520.61 1095.16,-438.1 1070.96,-379.6 1055.02,-341.09 1021.14,-351.28 1005.13,-312.8 988.54,-272.91 960.93,-215.6 1004.13,-215.6"/>
<polygon fill="black" stroke="black" points="1082.26,-529.77 1071.93,-526.09 1076.94,-530.2 1072.62,-530.55 1072.62,-530.55 1072.62,-530.55 1076.94,-530.2 1072.65,-535.06 1082.26,-529.77"/>
<text text-anchor="start" x="1078.96" y="-540.6" font-family="Arial" font-size="10.00">FOREIGN KEY (user_id) REFERENCES users(id)</text>
</g>
<!-- public.comment_stars -->
<g id="node5" class="node">
<title>public.comment_stars</title>
<polygon fill="#efefef" stroke="none" points="1175.49,-607.6 1175.49,-643.2 1472.45,-643.2 1472.45,-607.6 1175.49,-607.6"/>
<polygon fill="none" stroke="black" points="1175.49,-607.6 1175.49,-643.2 1472.45,-643.2 1472.45,-607.6 1175.49,-607.6"/>
<text text-anchor="start" x="1182.49" y="-621" font-family="Arial Bold" font-size="18.00">public.comment_stars</text>
<text text-anchor="start" x="1340.96" y="-621" font-family="Arial" font-size="14.00">    </text>
<text text-anchor="start" x="1372.08" y="-621" font-family="Arial" font-size="14.00" fill="#666666">[BASE TABLE]</text>
<polygon fill="none" stroke="black" points="1175.49,-576.8 1175.49,-607.6 1472.45,-607.6 1472.45,-576.8 1175.49,-576.8"/>
<text text-anchor="start" x="1182.49" y="-589" font-family="Arial" font-size="14.00">id </text>
<text text-anchor="start" x="1197.28" y="-589" font-family="Arial" font-size="14.00" fill="#666666">[uuid]</text>
<polygon fill="none" stroke="black" points="1175.49,-546 1175.49,-576.8 1472.45,-576.8 1472.45,-546 1175.49,-546"/>
<text text-anchor="start" x="1182.49" y="-558.2" font-family="Arial" font-size="14.00">user_id </text>
<text text-anchor="start" x="1232.3" y="-558.2" font-family="Arial" font-size="14.00" fill="#666666">[integer]</text>
<polygon fill="none" stroke="black" points="1175.49,-515.2 1175.49,-546 1472.45,-546 1472.45,-515.2 1175.49,-515.2"/>
<text text-anchor="start" x="1182.49" y="-527.4" font-family="Arial" font-size="14.00">comment_post_id </text>
<text text-anchor="start" x="1296.89" y="-527.4" font-family="Arial" font-size="14.00" fill="#666666">[bigint]</text>
<polygon fill="none" stroke="black" points="1175.49,-484.4 1175.49,-515.2 1472.45,-515.2 1472.45,-484.4 1175.49,-484.4"/>
<text text-anchor="start" x="1182.49" y="-496.6" font-family="Arial" font-size="14.00">comment_user_id </text>
<text text-anchor="start" x="1297.66" y="-496.6" font-family="Arial" font-size="14.00" fill="#666666">[integer]</text>
<polygon fill="none" stroke="black" points="1175.49,-453.6 1175.49,-484.4 1472.45,-484.4 1472.45,-453.6 1175.49,-453.6"/>
<text text-anchor="start" x="1182.49" y="-465.8" font-family="Arial" font-size="14.00">created </text>
<text text-anchor="start" x="1233.08" y="-465.8" font-family="Arial" font-size="14.00" fill="#666666">[timestamp without time zone]</text>
<polygon fill="none" stroke="black" points="1175.49,-422.8 1175.49,-453.6 1472.45,-453.6 1472.45,-422.8 1175.49,-422.8"/>
<text text-anchor="start" x="1182.49" y="-435" font-family="Arial" font-size="14.00">updated </text>
<text text-anchor="start" x="1236.99" y="-435" font-family="Arial" font-size="14.00" fill="#666666">[timestamp without time zone]</text>
</g>
<!-- public.comment_stars&#45;&gt;public.users -->
<g id="edge4" class="edge">
<title>public.comment_stars:comment_user_id&#45;&gt;public.users:id</title>
<path fill="none" stroke="black" d="M1164.45,-498.76C1125.41,-489.78 1153.82,-424.29 1175.49,-379.6 1196.21,-336.9 1238.06,-355.48 1258.81,-312.8 1277.71,-273.95 1303.02,-215.6 1259.81,-215.6"/>
<polygon fill="black" stroke="black" points="1164.21,-498.74 1173.7,-504.24 1169.52,-499.29 1173.83,-499.73 1173.83,-499.73 1173.83,-499.73 1169.52,-499.29 1174.62,-495.29 1164.21,-498.74"/>
<text text-anchor="start" x="1181.49" y="-509.8" font-family="Arial" font-size="10.00">FOREIGN KEY (comment_user_id) REFERENCES users(id)</text>
</g>
<!-- administrator.blogs -->
<g id="node6" class="node">
<title>administrator.blogs</title>
<polygon fill="#efefef" stroke="none" points="1576.99,-607.6 1576.99,-643.2 1854.96,-643.2 1854.96,-607.6 1576.99,-607.6"/>
<polygon fill="none" stroke="black" points="1576.99,-607.6 1576.99,-643.2 1854.96,-643.2 1854.96,-607.6 1576.99,-607.6"/>
<text text-anchor="start" x="1583.99" y="-621" font-family="Arial Bold" font-size="18.00">administrator.blogs</text>
<text text-anchor="start" x="1723.47" y="-621" font-family="Arial" font-size="14.00">    </text>
<text text-anchor="start" x="1754.59" y="-621" font-family="Arial" font-size="14.00" fill="#666666">[BASE TABLE]</text>
<polygon fill="none" stroke="black" points="1576.99,-576.8 1576.99,-607.6 1854.96,-607.6 1854.96,-576.8 1576.99,-576.8"/>
<text text-anchor="start" x="1583.99" y="-589" font-family="Arial" font-size="14.00">id </text>
<text text-anchor="start" x="1598.77" y="-589" font-family="Arial" font-size="14.00" fill="#666666">[integer]</text>
<polygon fill="none" stroke="black" points="1576.99,-546 1576.99,-576.8 1854.96,-576.8 1854.96,-546 1576.99,-546"/>
<text text-anchor="start" x="1583.99" y="-558.2" font-family="Arial" font-size="14.00">user_id </text>
<text text-anchor="start" x="1633.79" y="-558.2" font-family="Arial" font-size="14.00" fill="#666666">[integer]</text>
<polygon fill="none" stroke="black" points="1576.99,-515.2 1576.99,-546 1854.96,-546 1854.96,-515.2 1576.99,-515.2"/>
<text text-anchor="start" x="1583.99" y="-527.4" font-family="Arial" font-size="14.00">name </text>
<text text-anchor="start" x="1622.9" y="-527.4" font-family="Arial" font-size="14.00" fill="#666666">[text]</text>
<polygon fill="none" stroke="black" points="1576.99,-484.4 1576.99,-515.2 1854.96,-515.2 1854.96,-484.4 1576.99,-484.4"/>
<text text-anchor="start" x="1583.99" y="-496.6" font-family="Arial" font-size="14.00">description </text>
<text text-anchor="start" x="1655.58" y="-496.6" font-family="Arial" font-size="14.00" fill="#666666">[text]</text>
<polygon fill="none" stroke="black" points="1576.99,-453.6 1576.99,-484.4 1854.96,-484.4 1854.96,-453.6 1576.99,-453.6"/>
<text text-anchor="start" x="1583.99" y="-465.8" font-family="Arial" font-size="14.00">created </text>
<text text-anchor="start" x="1634.57" y="-465.8" font-family="Arial" font-size="14.00" fill="#666666">[timestamp without time zone]</text>
<polygon fill="none" stroke="black" points="1576.99,-422.8 1576.99,-453.6 1854.96,-453.6 1854.96,-422.8 1576.99,-422.8"/>
<text text-anchor="start" x="1583.99" y="-435" font-family="Arial" font-size="14.00">updated </text>
<text text-anchor="start" x="1638.48" y="-435" font-family="Arial" font-size="14.00" fill="#666666">[timestamp without time zone]</text>
</g>
<!-- administrator.blogs&#45;&gt;public.users -->
<g id="edge5" class="edge">
<title>administrator.blogs:user_id&#45;&gt;public.users:id</title>
<path fill="none" stroke="black" d="M1565.99,-560.85C1486.49,-551.36 1583.1,-422.12 1524.97,-348.8 1443.03,-245.46 1391.7,-215.6 1259.81,-215.6"/>
<polygon fill="black" stroke="black" points="1565.67,-560.83 1575.4,-565.87 1570.99,-561.12 1575.32,-561.36 1575.32,-561.36 1575.32,-561.36 1570.99,-561.12 1575.9,-556.89 1565.67,-560.83"/>
<text text-anchor="start" x="1582.99" y="-571.4" font-family="Arial" font-size="10.00">FOREIGN KEY (user_id) REFERENCES users(id) ON DELETE CASCADE</text>
</g>
<!-- public.logs -->
<g id="node7" class="node">
<title>public.logs</title>
<polygon fill="#efefef" stroke="none" points="1959.09,-623 1959.09,-658.6 2208.86,-658.6 2208.86,-623 1959.09,-623"/>
<polygon fill="none" stroke="black" points="1959.09,-623 1959.09,-658.6 2208.86,-658.6 2208.86,-623 1959.09,-623"/>
<text text-anchor="start" x="1981.98" y="-636.4" font-family="Arial Bold" font-size="18.00">public.logs</text>
<text text-anchor="start" x="2061.48" y="-636.4" font-family="Arial" font-size="14.00">    </text>
<text text-anchor="start" x="2092.59" y="-636.4" font-family="Arial" font-size="14.00" fill="#666666">[BASE TABLE]</text>
<polygon fill="none" stroke="black" points="1959.09,-592.2 1959.09,-623 2208.86,-623 2208.86,-592.2 1959.09,-592.2"/>
<text text-anchor="start" x="1966.09" y="-604.4" font-family="Arial" font-size="14.00">id </text>
<text text-anchor="start" x="1980.87" y="-604.4" font-family="Arial" font-size="14.00" fill="#666666">[uuid]</text>
<polygon fill="none" stroke="black" points="1959.09,-561.4 1959.09,-592.2 2208.86,-592.2 2208.86,-561.4 1959.09,-561.4"/>
<text text-anchor="start" x="1966.09" y="-573.6" font-family="Arial" font-size="14.00">user_id </text>
<text text-anchor="start" x="2015.89" y="-573.6" font-family="Arial" font-size="14.00" fill="#666666">[integer]</text>
<polygon fill="none" stroke="black" points="1959.09,-530.6 1959.09,-561.4 2208.86,-561.4 2208.86,-530.6 1959.09,-530.6"/>
<text text-anchor="start" x="1966.09" y="-542.8" font-family="Arial" font-size="14.00">post_id </text>
<text text-anchor="start" x="2015.12" y="-542.8" font-family="Arial" font-size="14.00" fill="#666666">[bigint]</text>
<polygon fill="none" stroke="black" points="1959.09,-499.8 1959.09,-530.6 2208.86,-530.6 2208.86,-499.8 1959.09,-499.8"/>
<text text-anchor="start" x="1966.09" y="-512" font-family="Arial" font-size="14.00">comment_id </text>
<text text-anchor="start" x="2046.23" y="-512" font-family="Arial" font-size="14.00" fill="#666666">[bigint]</text>
<polygon fill="none" stroke="black" points="1959.09,-469 1959.09,-499.8 2208.86,-499.8 2208.86,-469 1959.09,-469"/>
<text text-anchor="start" x="1966.09" y="-481.2" font-family="Arial" font-size="14.00">comment_star_id </text>
<text text-anchor="start" x="2077.35" y="-481.2" font-family="Arial" font-size="14.00" fill="#666666">[uuid]</text>
<polygon fill="none" stroke="black" points="1959.09,-438.2 1959.09,-469 2208.86,-469 2208.86,-438.2 1959.09,-438.2"/>
<text text-anchor="start" x="1966.09" y="-450.4" font-family="Arial" font-size="14.00">payload </text>
<text text-anchor="start" x="2019.02" y="-450.4" font-family="Arial" font-size="14.00" fill="#666666">[text]</text>
<polygon fill="none" stroke="black" points="1959.09,-407.4 1959.09,-438.2 2208.86,-438.2 2208.86,-407.4 1959.09,-407.4"/>
<text text-anchor="start" x="1966.09" y="-419.6" font-family="Arial" font-size="14.00">created </text>
<text text-anchor="start" x="2016.67" y="-419.6" font-family="Arial" font-size="14.00" fill="#666666">[timestamp without time zone]</text>
</g>
<!-- public.logs&#45;&gt;public.users -->
<g id="edge6" class="edge">
<title>public.logs:user_id&#45;&gt;public.users:id</title>
<path fill="none" stroke="black" stroke-dasharray="5,2" d="M1947.71,-576.2C1863.14,-565.69 1978.37,-418.95 1906.97,-348.8 1802.24,-245.89 1406.64,-215.6 1259.81,-215.6"/>
<polygon fill="black" stroke="black" points="1947.77,-576.21 1957.49,-581.27 1953.09,-576.51 1957.42,-576.76 1957.42,-576.76 1957.42,-576.76 1953.09,-576.51 1958.01,-572.29 1947.77,-576.21"/>
<text text-anchor="start" x="1965.09" y="-586.8" font-family="Arial" font-size="10.00">logs&#45;&gt;users</text>
</g>
</g>
</svg>
