<?xml version="1.0" encoding="UTF-8" standalone="no"?>
<!DOCTYPE svg PUBLIC "-//W3C//DTD SVG 1.1//EN"
 "http://www.w3.org/Graphics/SVG/1.1/DTD/svg11.dtd">
<!-- Generated by graphviz version 2.40.1 (20161225.0304)
 -->
<!-- Title: public.comment_stars Pages: 1 -->
<svg width="1060pt" height="1019pt"
 viewBox="0.00 0.00 1060.00 1019.00" xmlns="http://www.w3.org/2000/svg" xmlns:xlink="http://www.w3.org/1999/xlink">
<g id="graph0" class="graph" transform="scale(1 1) rotate(0) translate(4 1015)">
<title>public.comment_stars</title>
<polygon fill="#ffffff" stroke="transparent" points="-4,4 -4,-1015 1056,-1015 1056,4 -4,4"/>
<!-- public.comment_stars -->
<g id="node1" class="node">
<title>public.comment_stars</title>
<polygon fill="#efefef" stroke="transparent" points="452,-562.5 452,-597.5 768,-597.5 768,-562.5 452,-562.5"/>
<polygon fill="none" stroke="#000000" points="452,-562.5 452,-597.5 768,-597.5 768,-562.5 452,-562.5"/>
<text text-anchor="start" x="458.7054" y="-575.3" font-family="Arial Bold" font-size="18.00" fill="#000000">public.comment_stars</text>
<text text-anchor="start" x="633.7266" y="-575.3" font-family="Arial" font-size="14.00" fill="#000000">    </text>
<text text-anchor="start" x="667.9314" y="-575.3" font-family="Arial" font-size="14.00" fill="#666666">[BASE TABLE]</text>
<polygon fill="none" stroke="#000000" points="452,-532.5 452,-562.5 768,-562.5 768,-532.5 452,-532.5"/>
<text text-anchor="start" x="459" y="-543.9" font-family="Arial" font-size="14.00" fill="#000000">id </text>
<text text-anchor="start" x="473.7798" y="-543.9" font-family="Arial" font-size="14.00" fill="#666666">[uuid]</text>
<polygon fill="none" stroke="#000000" points="452,-502.5 452,-532.5 768,-532.5 768,-502.5 452,-502.5"/>
<text text-anchor="start" x="459" y="-513.9" font-family="Arial" font-size="14.00" fill="#000000">user_id </text>
<text text-anchor="start" x="508.7882" y="-513.9" font-family="Arial" font-size="14.00" fill="#666666">[integer]</text>
<polygon fill="none" stroke="#000000" points="452,-472.5 452,-502.5 768,-502.5 768,-472.5 452,-472.5"/>
<text text-anchor="start" x="459" y="-483.9" font-family="Arial" font-size="14.00" fill="#000000">comment_post_id </text>
<text text-anchor="start" x="573.3604" y="-483.9" font-family="Arial" font-size="14.00" fill="#666666">[bigint]</text>
<polygon fill="none" stroke="#000000" points="452,-442.5 452,-472.5 768,-472.5 768,-442.5 452,-442.5"/>
<text text-anchor="start" x="459" y="-453.9" font-family="Arial" font-size="14.00" fill="#000000">comment_user_id </text>
<text text-anchor="start" x="574.1304" y="-453.9" font-family="Arial" font-size="14.00" fill="#666666">[integer]</text>
<polygon fill="none" stroke="#000000" points="452,-412.5 452,-442.5 768,-442.5 768,-412.5 452,-412.5"/>
<text text-anchor="start" x="459" y="-423.9" font-family="Arial" font-size="14.00" fill="#000000">created </text>
<text text-anchor="start" x="509.5722" y="-423.9" font-family="Arial" font-size="14.00" fill="#666666">[timestamp without time zone]</text>
<polygon fill="none" stroke="#000000" points="452,-382.5 452,-412.5 768,-412.5 768,-382.5 452,-382.5"/>
<text text-anchor="start" x="459" y="-393.9" font-family="Arial" font-size="14.00" fill="#000000">updated </text>
<text text-anchor="start" x="513.4768" y="-393.9" font-family="Arial" font-size="14.00" fill="#666666">[timestamp without time zone]</text>
<polygon fill="none" stroke="#000000" stroke-width="3" points="450.5,-381.5 450.5,-599.5 769.5,-599.5 769.5,-381.5 450.5,-381.5"/>
</g>
<!-- public.comments -->
<g id="node3" class="node">
<title>public.comments</title>
<polygon fill="#efefef" stroke="transparent" points="305,-222.5 305,-257.5 558,-257.5 558,-222.5 305,-222.5"/>
<polygon fill="none" stroke="#000000" points="305,-222.5 305,-257.5 558,-257.5 558,-222.5 305,-222.5"/>
<text text-anchor="start" x="315.3659" y="-235.3" font-family="Arial Bold" font-size="18.00" fill="#000000">public.comments</text>
<text text-anchor="start" x="450.3803" y="-235.3" font-family="Arial" font-size="14.00" fill="#000000"> </text>
<text text-anchor="start" x="454.2709" y="-235.3" font-family="Arial" font-size="14.00" fill="#666666">[BASE TABLE]</text>
<polygon fill="none" stroke="#000000" points="305,-192.5 305,-222.5 558,-222.5 558,-192.5 305,-192.5"/>
<text text-anchor="start" x="312" y="-203.9" font-family="Arial" font-size="14.00" fill="#000000">id </text>
<text text-anchor="start" x="326.7798" y="-203.9" font-family="Arial" font-size="14.00" fill="#666666">[bigint]</text>
<polygon fill="none" stroke="#000000" points="305,-162.5 305,-192.5 558,-192.5 558,-162.5 305,-162.5"/>
<text text-anchor="start" x="312" y="-173.9" font-family="Arial" font-size="14.00" fill="#000000">post_id </text>
<text text-anchor="start" x="361.0182" y="-173.9" font-family="Arial" font-size="14.00" fill="#666666">[bigint]</text>
<polygon fill="none" stroke="#000000" points="305,-132.5 305,-162.5 558,-162.5 558,-132.5 305,-132.5"/>
<text text-anchor="start" x="312" y="-143.9" font-family="Arial" font-size="14.00" fill="#000000">user_id </text>
<text text-anchor="start" x="361.7882" y="-143.9" font-family="Arial" font-size="14.00" fill="#666666">[integer]</text>
<polygon fill="none" stroke="#000000" points="305,-102.5 305,-132.5 558,-132.5 558,-102.5 305,-102.5"/>
<text text-anchor="start" x="312" y="-113.9" font-family="Arial" font-size="14.00" fill="#000000">comment </text>
<text text-anchor="start" x="373.4502" y="-113.9" font-family="Arial" font-size="14.00" fill="#666666">[text]</text>
<polygon fill="none" stroke="#000000" points="305,-72.5 305,-102.5 558,-102.5 558,-72.5 305,-72.5"/>
<text text-anchor="start" x="312" y="-83.9" font-family="Arial" font-size="14.00" fill="#000000">created </text>
<text text-anchor="start" x="362.5722" y="-83.9" font-family="Arial" font-size="14.00" fill="#666666">[timestamp without time zone]</text>
<polygon fill="none" stroke="#000000" points="305,-42.5 305,-72.5 558,-72.5 558,-42.5 305,-42.5"/>
<text text-anchor="start" x="311.6915" y="-53.9" font-family="Arial" font-size="14.00" fill="#000000">updated </text>
<text text-anchor="start" x="366.1683" y="-53.9" font-family="Arial" font-size="14.00" fill="#666666">[timestamp without time zone]</text>
</g>
<!-- public.comment_stars&#45;&gt;public.comments -->
<g id="edge2" class="edge">
<title>public.comment_stars:comment_post_id&#45;&gt;public.comments:post_id</title>
<path fill="none" stroke="#000000" d="M441.8631,-486.6601C388.1991,-477.111 415.1733,-388.3998 452,-337 480.9775,-296.5555 529.0225,-341.4445 558,-301 589.9682,-256.3813 612.8889,-177.5 558,-177.5"/>
<polygon fill="#000000" stroke="#000000" points="442.0342,-486.6742 451.6284,-491.9846 447.0171,-487.0871 452,-487.5 452,-487.5 452,-487.5 447.0171,-487.0871 452.3716,-483.0154 442.0342,-486.6742 442.0342,-486.6742"/>
<text text-anchor="start" x="6.533" y="-497.5" font-family="Arial" font-size="10.00" fill="#000000">FOREIGN KEY (comment_post_id, comment_user_id) REFERENCES comments(post_id, user_id)</text>
</g>
<!-- public.users -->
<g id="node4" class="node">
<title>public.users</title>
<polygon fill="#efefef" stroke="transparent" points="662,-222.5 662,-257.5 915,-257.5 915,-222.5 662,-222.5"/>
<polygon fill="none" stroke="#000000" points="662,-222.5 662,-257.5 915,-257.5 915,-222.5 662,-222.5"/>
<text text-anchor="start" x="691.8662" y="-235.3" font-family="Arial Bold" font-size="18.00" fill="#000000">public.users</text>
<text text-anchor="start" x="787.88" y="-235.3" font-family="Arial" font-size="14.00" fill="#000000"> </text>
<text text-anchor="start" x="791.7706" y="-235.3" font-family="Arial" font-size="14.00" fill="#666666">[BASE TABLE]</text>
<polygon fill="none" stroke="#000000" points="662,-192.5 662,-222.5 915,-222.5 915,-192.5 662,-192.5"/>
<text text-anchor="start" x="669" y="-203.9" font-family="Arial" font-size="14.00" fill="#000000">id </text>
<text text-anchor="start" x="683.7798" y="-203.9" font-family="Arial" font-size="14.00" fill="#666666">[integer]</text>
<polygon fill="none" stroke="#000000" points="662,-162.5 662,-192.5 915,-192.5 915,-162.5 662,-162.5"/>
<text text-anchor="start" x="669" y="-173.9" font-family="Arial" font-size="14.00" fill="#000000">username </text>
<text text-anchor="start" x="735.1248" y="-173.9" font-family="Arial" font-size="14.00" fill="#666666">[varchar(50)]</text>
<polygon fill="none" stroke="#000000" points="662,-132.5 662,-162.5 915,-162.5 915,-132.5 662,-132.5"/>
<text text-anchor="start" x="669" y="-143.9" font-family="Arial" font-size="14.00" fill="#000000">password </text>
<text text-anchor="start" x="732.7882" y="-143.9" font-family="Arial" font-size="14.00" fill="#666666">[varchar(50)]</text>
<polygon fill="none" stroke="#000000" points="662,-102.5 662,-132.5 915,-132.5 915,-102.5 662,-102.5"/>
<text text-anchor="start" x="669" y="-113.9" font-family="Arial" font-size="14.00" fill="#000000">email </text>
<text text-anchor="start" x="706.3296" y="-113.9" font-family="Arial" font-size="14.00" fill="#666666">[varchar(355)]</text>
<polygon fill="none" stroke="#000000" points="662,-72.5 662,-102.5 915,-102.5 915,-72.5 662,-72.5"/>
<text text-anchor="start" x="669" y="-83.9" font-family="Arial" font-size="14.00" fill="#000000">created </text>
<text text-anchor="start" x="719.5722" y="-83.9" font-family="Arial" font-size="14.00" fill="#666666">[timestamp without time zone]</text>
<polygon fill="none" stroke="#000000" points="662,-42.5 662,-72.5 915,-72.5 915,-42.5 662,-42.5"/>
<text text-anchor="start" x="668.6915" y="-53.9" font-family="Arial" font-size="14.00" fill="#000000">updated </text>
<text text-anchor="start" x="723.1683" y="-53.9" font-family="Arial" font-size="14.00" fill="#666666">[timestamp without time zone]</text>
</g>
<!-- public.comment_stars&#45;&gt;public.users -->
<g id="edge3" class="edge">
<title>public.comment_stars:comment_user_id&#45;&gt;public.users:id</title>
<path fill="none" stroke="#000000" d="M778.1942,-456.3969C818.367,-446.842 796.9985,-377.4738 768,-337 739.0225,-296.5555 690.9775,-341.4445 662,-301 637.7974,-267.2199 620.4444,-207.5 662,-207.5"/>
<polygon fill="#000000" stroke="#000000" points="777.942,-456.4241 767.5158,-453.0261 772.971,-456.962 768,-457.5 768,-457.5 768,-457.5 772.971,-456.962 768.4842,-461.9739 777.942,-456.4241 777.942,-456.4241"/>
<text text-anchor="start" x="774.998" y="-467.5" font-family="Arial" font-size="10.00" fill="#000000">FOREIGN KEY (comment_user_id) REFERENCES users(id)</text>
</g>
<!-- public.logs -->
<g id="node2" class="node">
<title>public.logs</title>
<polygon fill="#efefef" stroke="transparent" points="485,-932.5 485,-967.5 734,-967.5 734,-932.5 485,-932.5"/>
<polygon fill="none" stroke="#000000" points="485,-932.5 485,-967.5 734,-967.5 734,-932.5 485,-932.5"/>
<text text-anchor="start" x="518.3652" y="-945.3" font-family="Arial Bold" font-size="18.00" fill="#000000">public.logs</text>
<text text-anchor="start" x="603.381" y="-945.3" font-family="Arial" font-size="14.00" fill="#000000"> </text>
<text text-anchor="start" x="607.2716" y="-945.3" font-family="Arial" font-size="14.00" fill="#666666">[BASE TABLE]</text>
<polygon fill="none" stroke="#000000" points="485,-902.5 485,-932.5 734,-932.5 734,-902.5 485,-902.5"/>
<text text-anchor="start" x="492" y="-913.9" font-family="Arial" font-size="14.00" fill="#000000">id </text>
<text text-anchor="start" x="506.7798" y="-913.9" font-family="Arial" font-size="14.00" fill="#666666">[uuid]</text>
<polygon fill="none" stroke="#000000" points="485,-872.5 485,-902.5 734,-902.5 734,-872.5 485,-872.5"/>
<text text-anchor="start" x="492" y="-883.9" font-family="Arial" font-size="14.00" fill="#000000">user_id </text>
<text text-anchor="start" x="541.7882" y="-883.9" font-family="Arial" font-size="14.00" fill="#666666">[integer]</text>
<polygon fill="none" stroke="#000000" points="485,-842.5 485,-872.5 734,-872.5 734,-842.5 485,-842.5"/>
<text text-anchor="start" x="492" y="-853.9" font-family="Arial" font-size="14.00" fill="#000000">post_id </text>
<text text-anchor="start" x="541.0182" y="-853.9" font-family="Arial" font-size="14.00" fill="#666666">[bigint]</text>
<polygon fill="none" stroke="#000000" points="485,-812.5 485,-842.5 734,-842.5 734,-812.5 485,-812.5"/>
<text text-anchor="start" x="492" y="-823.9" font-family="Arial" font-size="14.00" fill="#000000">comment_id </text>
<text text-anchor="start" x="572.122" y="-823.9" font-family="Arial" font-size="14.00" fill="#666666">[bigint]</text>
<polygon fill="none" stroke="#000000" points="485,-782.5 485,-812.5 734,-812.5 734,-782.5 485,-782.5"/>
<text text-anchor="start" x="492" y="-793.9" font-family="Arial" font-size="14.00" fill="#000000">comment_star_id </text>
<text text-anchor="start" x="603.2384" y="-793.9" font-family="Arial" font-size="14.00" fill="#666666">[uuid]</text>
<polygon fill="none" stroke="#000000" points="485,-752.5 485,-782.5 734,-782.5 734,-752.5 485,-752.5"/>
<text text-anchor="start" x="492" y="-763.9" font-family="Arial" font-size="14.00" fill="#000000">payload </text>
<text text-anchor="start" x="544.9102" y="-763.9" font-family="Arial" font-size="14.00" fill="#666666">[text]</text>
<polygon fill="none" stroke="#000000" points="485,-722.5 485,-752.5 734,-752.5 734,-722.5 485,-722.5"/>
<text text-anchor="start" x="491.6438" y="-733.9" font-family="Arial" font-size="14.00" fill="#000000">created </text>
<text text-anchor="start" x="542.216" y="-733.9" font-family="Arial" font-size="14.00" fill="#666666">[timestamp without time zone]</text>
</g>
<!-- public.logs&#45;&gt;public.comment_stars -->
<g id="edge1" class="edge">
<title>public.logs:comment_star_id&#45;&gt;public.comment_stars:id</title>
<path fill="none" stroke="#000000" stroke-dasharray="5,2" d="M743.9969,-796.3794C783.6483,-786.6817 766.0831,-716.4392 734,-680 650.505,-585.1684 535.495,-738.8316 452,-644 423.6581,-611.81 409.1111,-547.5 452,-547.5"/>
<polygon fill="#000000" stroke="#000000" points="743.9378,-796.386 733.4987,-793.028 738.9689,-796.943 734,-797.5 734,-797.5 734,-797.5 738.9689,-796.943 734.5013,-801.972 743.9378,-796.386 743.9378,-796.386"/>
<text text-anchor="start" x="741.3245" y="-807.5" font-family="Arial" font-size="10.00" fill="#000000">Additional Relation</text>
</g>
</g>
</svg>
