<?xml version="1.0" encoding="UTF-8" standalone="no"?>
<!DOCTYPE svg PUBLIC "-//W3C//DTD SVG 1.1//EN"
 "http://www.w3.org/Graphics/SVG/1.1/DTD/svg11.dtd">
<!-- Generated by graphviz version 12.1.2 (20240928.0832)
 -->
<!-- Title: testdb Pages: 1 -->
<svg width="3100pt" height="1778pt"
 viewBox="0.00 0.00 3100.08 1778.40" xmlns="http://www.w3.org/2000/svg" xmlns:xlink="http://www.w3.org/1999/xlink">
<g id="graph0" class="graph" transform="scale(1 1) rotate(0) translate(4 1774.4)">
<title>testdb</title>
<polygon fill="white" stroke="none" points="-4,4 -4,-1774.4 3096.08,-1774.4 3096.08,4 -4,4"/>
<!-- public.users -->
<g id="node1" class="node">
<title>public.users</title>
<polygon fill="#efefef" stroke="none" points="573.2,-228 573.2,-263.6 854.11,-263.6 854.11,-228 573.2,-228"/>
<polygon fill="none" stroke="black" points="573.2,-228 573.2,-263.6 854.11,-263.6 854.11,-228 573.2,-228"/>
<text text-anchor="start" x="608.17" y="-241.4" font-family="Arial Bold" font-size="18.00">public.users</text>
<text text-anchor="start" x="694.65" y="-241.4" font-family="Arial" font-size="14.00">    </text>
<text text-anchor="start" x="725.77" y="-241.4" font-family="Arial" font-size="14.00" fill="#666666">[BASE TABLE]</text>
<polygon fill="none" stroke="black" points="573.2,-197.2 573.2,-228 854.11,-228 854.11,-197.2 573.2,-197.2"/>
<text text-anchor="start" x="580.2" y="-209.4" font-family="Arial" font-size="14.00">id    </text>
<text text-anchor="start" x="622.21" y="-209.4" font-family="Arial" font-size="14.00" fill="#666666">[integer]</text>
<polygon fill="none" stroke="black" points="573.2,-166.4 573.2,-197.2 854.11,-197.2 854.11,-166.4 573.2,-166.4"/>
<text text-anchor="start" x="580.2" y="-178.6" font-family="Arial" font-size="14.00">username    </text>
<text text-anchor="start" x="673.57" y="-178.6" font-family="Arial" font-size="14.00" fill="#666666">[varchar(50)]</text>
<polygon fill="none" stroke="black" points="573.2,-135.6 573.2,-166.4 854.11,-166.4 854.11,-135.6 573.2,-135.6"/>
<text text-anchor="start" x="580.2" y="-147.8" font-family="Arial" font-size="14.00">password    </text>
<text text-anchor="start" x="671.23" y="-147.8" font-family="Arial" font-size="14.00" fill="#666666">[varchar(50)]</text>
<polygon fill="none" stroke="black" points="573.2,-104.8 573.2,-135.6 854.11,-135.6 854.11,-104.8 573.2,-104.8"/>
<text text-anchor="start" x="580.2" y="-117" font-family="Arial" font-size="14.00">email    </text>
<text text-anchor="start" x="644.77" y="-117" font-family="Arial" font-size="14.00" fill="#666666">[varchar(355)]</text>
<polygon fill="none" stroke="black" points="573.2,-74 573.2,-104.8 854.11,-104.8 854.11,-74 573.2,-74"/>
<text text-anchor="start" x="580.2" y="-86.2" font-family="Arial" font-size="14.00">created    </text>
<text text-anchor="start" x="658.01" y="-86.2" font-family="Arial" font-size="14.00" fill="#666666">[timestamp without time zone]</text>
<polygon fill="none" stroke="black" points="573.2,-43.2 573.2,-74 854.11,-74 854.11,-43.2 573.2,-43.2"/>
<text text-anchor="start" x="580.2" y="-55.4" font-family="Arial" font-size="14.00">updated    </text>
<text text-anchor="start" x="661.92" y="-55.4" font-family="Arial" font-size="14.00" fill="#666666">[timestamp without time zone]</text>
</g>
<!-- public.user_options -->
<g id="node2" class="node">
<title>public.user_options</title>
<polygon fill="#efefef" stroke="none" points="43.2,-570.8 43.2,-606.4 324.11,-606.4 324.11,-570.8 43.2,-570.8"/>
<polygon fill="none" stroke="black" points="43.2,-570.8 43.2,-606.4 324.11,-606.4 324.11,-570.8 43.2,-570.8"/>
<text text-anchor="start" x="50.67" y="-584.2" font-family="Arial Bold" font-size="18.00">public.user_options</text>
<text text-anchor="start" x="192.15" y="-584.2" font-family="Arial" font-size="14.00">    </text>
<text text-anchor="start" x="223.27" y="-584.2" font-family="Arial" font-size="14.00" fill="#666666">[BASE TABLE]</text>
<polygon fill="none" stroke="black" points="43.2,-540 43.2,-570.8 324.11,-570.8 324.11,-540 43.2,-540"/>
<text text-anchor="start" x="50.2" y="-552.2" font-family="Arial" font-size="14.00">user_id    </text>
<text text-anchor="start" x="127.23" y="-552.2" font-family="Arial" font-size="14.00" fill="#666666">[integer]</text>
<polygon fill="none" stroke="black" points="43.2,-509.2 43.2,-540 324.11,-540 324.11,-509.2 43.2,-509.2"/>
<text text-anchor="start" x="50.2" y="-521.4" font-family="Arial" font-size="14.00">show_email    </text>
<text text-anchor="start" x="155.24" y="-521.4" font-family="Arial" font-size="14.00" fill="#666666">[boolean]</text>
<polygon fill="none" stroke="black" points="43.2,-478.4 43.2,-509.2 324.11,-509.2 324.11,-478.4 43.2,-478.4"/>
<text text-anchor="start" x="50.2" y="-490.6" font-family="Arial" font-size="14.00">created    </text>
<text text-anchor="start" x="128.01" y="-490.6" font-family="Arial" font-size="14.00" fill="#666666">[timestamp without time zone]</text>
<polygon fill="none" stroke="black" points="43.2,-447.6 43.2,-478.4 324.11,-478.4 324.11,-447.6 43.2,-447.6"/>
<text text-anchor="start" x="50.2" y="-459.8" font-family="Arial" font-size="14.00">updated    </text>
<text text-anchor="start" x="131.92" y="-459.8" font-family="Arial" font-size="14.00" fill="#666666">[timestamp without time zone]</text>
</g>
<!-- public.user_options&#45;&gt;public.users -->
<g id="edge1" class="edge">
<title>public.user_options:user_id&#45;&gt;public.users:id</title>
<path fill="none" stroke="black" d="M335.2,-554.86C415.84,-545.62 327.29,-419.66 381.65,-342.8 440.89,-259.06 469.63,-212.6 572.2,-212.6"/>
<polygon fill="black" stroke="black" points="335.43,-554.85 325.2,-550.89 330.1,-555.13 325.78,-555.36 325.78,-555.36 325.78,-555.36 330.1,-555.13 325.68,-559.88 335.43,-554.85"/>
<text text-anchor="start" x="158.13" y="-539.4" font-family="Arial" font-size="10.00">FOREIGN KEY (user_id) REFERENCES users(id) ON DELETE CASCADE</text>
</g>
<!-- public.posts -->
<g id="node3" class="node">
<title>public.posts</title>
<polygon fill="#efefef" stroke="none" points="467.2,-632.4 467.2,-668 748.11,-668 748.11,-632.4 467.2,-632.4"/>
<polygon fill="none" stroke="black" points="467.2,-632.4 467.2,-668 748.11,-668 748.11,-632.4 467.2,-632.4"/>
<text text-anchor="start" x="502.16" y="-645.8" font-family="Arial Bold" font-size="18.00">public.posts</text>
<text text-anchor="start" x="588.66" y="-645.8" font-family="Arial" font-size="14.00">    </text>
<text text-anchor="start" x="619.78" y="-645.8" font-family="Arial" font-size="14.00" fill="#666666">[BASE TABLE]</text>
<polygon fill="none" stroke="black" points="467.2,-601.6 467.2,-632.4 748.11,-632.4 748.11,-601.6 467.2,-601.6"/>
<text text-anchor="start" x="474.2" y="-613.8" font-family="Arial" font-size="14.00">id    </text>
<text text-anchor="start" x="516.21" y="-613.8" font-family="Arial" font-size="14.00" fill="#666666">[bigint]</text>
<polygon fill="none" stroke="black" points="467.2,-570.8 467.2,-601.6 748.11,-601.6 748.11,-570.8 467.2,-570.8"/>
<text text-anchor="start" x="474.2" y="-583" font-family="Arial" font-size="14.00">user_id    </text>
<text text-anchor="start" x="551.23" y="-583" font-family="Arial" font-size="14.00" fill="#666666">[integer]</text>
<polygon fill="none" stroke="black" points="467.2,-540 467.2,-570.8 748.11,-570.8 748.11,-540 467.2,-540"/>
<text text-anchor="start" x="474.2" y="-552.2" font-family="Arial" font-size="14.00">title    </text>
<text text-anchor="start" x="527.1" y="-552.2" font-family="Arial" font-size="14.00" fill="#666666">[varchar(255)]</text>
<polygon fill="none" stroke="black" points="467.2,-509.2 467.2,-540 748.11,-540 748.11,-509.2 467.2,-509.2"/>
<text text-anchor="start" x="474.2" y="-521.4" font-family="Arial" font-size="14.00">body    </text>
<text text-anchor="start" x="535.68" y="-521.4" font-family="Arial" font-size="14.00" fill="#666666">[text]</text>
<polygon fill="none" stroke="black" points="467.2,-478.4 467.2,-509.2 748.11,-509.2 748.11,-478.4 467.2,-478.4"/>
<text text-anchor="start" x="474.2" y="-490.6" font-family="Arial" font-size="14.00">post_type    </text>
<text text-anchor="start" x="566.03" y="-490.6" font-family="Arial" font-size="14.00" fill="#666666">[post_types]</text>
<polygon fill="none" stroke="black" points="467.2,-447.6 467.2,-478.4 748.11,-478.4 748.11,-447.6 467.2,-447.6"/>
<text text-anchor="start" x="474.2" y="-459.8" font-family="Arial" font-size="14.00">labels    </text>
<text text-anchor="start" x="541.9" y="-459.8" font-family="Arial" font-size="14.00" fill="#666666">[varchar(50)[]]</text>
<polygon fill="none" stroke="black" points="467.2,-416.8 467.2,-447.6 748.11,-447.6 748.11,-416.8 467.2,-416.8"/>
<text text-anchor="start" x="474.2" y="-429" font-family="Arial" font-size="14.00">created    </text>
<text text-anchor="start" x="552.01" y="-429" font-family="Arial" font-size="14.00" fill="#666666">[timestamp without time zone]</text>
<polygon fill="none" stroke="black" points="467.2,-386 467.2,-416.8 748.11,-416.8 748.11,-386 467.2,-386"/>
<text text-anchor="start" x="474.2" y="-398.2" font-family="Arial" font-size="14.00">updated    </text>
<text text-anchor="start" x="555.92" y="-398.2" font-family="Arial" font-size="14.00" fill="#666666">[timestamp without time zone]</text>
</g>
<!-- public.posts&#45;&gt;public.users -->
<g id="edge2" class="edge">
<title>public.posts:user_id&#45;&gt;public.users:id</title>
<path fill="none" stroke="black" d="M759.17,-583.49C800.29,-559.39 780.03,-381.79 748.11,-342.8 697.84,-281.38 623.67,-368.05 573.2,-306.8 546.57,-274.49 530.33,-212.6 572.2,-212.6"/>
<polygon fill="black" stroke="black" points="759.09,-583.51 748.26,-581.77 753.94,-584.9 749.76,-586.03 749.76,-586.03 749.76,-586.03 753.94,-584.9 750.6,-590.46 759.09,-583.51"/>
<text text-anchor="start" x="756.11" y="-596.2" font-family="Arial" font-size="10.00">FOREIGN KEY (user_id) REFERENCES users(id) ON DELETE CASCADE</text>
</g>
<!-- public.comments -->
<g id="node4" class="node">
<title>public.comments</title>
<polygon fill="#efefef" stroke="none" points="505.2,-975.2 505.2,-1010.8 786.11,-1010.8 786.11,-975.2 505.2,-975.2"/>
<polygon fill="none" stroke="black" points="505.2,-975.2 505.2,-1010.8 786.11,-1010.8 786.11,-975.2 505.2,-975.2"/>
<text text-anchor="start" x="521.67" y="-988.6" font-family="Arial Bold" font-size="18.00">public.comments</text>
<text text-anchor="start" x="645.15" y="-988.6" font-family="Arial" font-size="14.00">    </text>
<text text-anchor="start" x="676.27" y="-988.6" font-family="Arial" font-size="14.00" fill="#666666">[BASE TABLE]</text>
<polygon fill="none" stroke="black" points="505.2,-944.4 505.2,-975.2 786.11,-975.2 786.11,-944.4 505.2,-944.4"/>
<text text-anchor="start" x="512.2" y="-956.6" font-family="Arial" font-size="14.00">id    </text>
<text text-anchor="start" x="554.21" y="-956.6" font-family="Arial" font-size="14.00" fill="#666666">[bigint]</text>
<polygon fill="none" stroke="black" points="505.2,-913.6 505.2,-944.4 786.11,-944.4 786.11,-913.6 505.2,-913.6"/>
<text text-anchor="start" x="512.2" y="-925.8" font-family="Arial" font-size="14.00">post_id    </text>
<text text-anchor="start" x="588.46" y="-925.8" font-family="Arial" font-size="14.00" fill="#666666">[bigint]</text>
<polygon fill="none" stroke="black" points="505.2,-882.8 505.2,-913.6 786.11,-913.6 786.11,-882.8 505.2,-882.8"/>
<text text-anchor="start" x="512.2" y="-895" font-family="Arial" font-size="14.00">user_id    </text>
<text text-anchor="start" x="589.23" y="-895" font-family="Arial" font-size="14.00" fill="#666666">[integer]</text>
<polygon fill="none" stroke="black" points="505.2,-852 505.2,-882.8 786.11,-882.8 786.11,-852 505.2,-852"/>
<text text-anchor="start" x="512.2" y="-864.2" font-family="Arial" font-size="14.00">comment    </text>
<text text-anchor="start" x="600.89" y="-864.2" font-family="Arial" font-size="14.00" fill="#666666">[text]</text>
<polygon fill="none" stroke="black" points="505.2,-821.2 505.2,-852 786.11,-852 786.11,-821.2 505.2,-821.2"/>
<text text-anchor="start" x="512.2" y="-833.4" font-family="Arial" font-size="14.00">created    </text>
<text text-anchor="start" x="590.01" y="-833.4" font-family="Arial" font-size="14.00" fill="#666666">[timestamp without time zone]</text>
<polygon fill="none" stroke="black" points="505.2,-790.4 505.2,-821.2 786.11,-821.2 786.11,-790.4 505.2,-790.4"/>
<text text-anchor="start" x="512.2" y="-802.6" font-family="Arial" font-size="14.00">updated    </text>
<text text-anchor="start" x="593.92" y="-802.6" font-family="Arial" font-size="14.00" fill="#666666">[timestamp without time zone]</text>
</g>
<!-- public.comments&#45;&gt;public.users -->
<g id="edge3" class="edge">
<title>public.comments:user_id&#45;&gt;public.users:id</title>
<path fill="none" stroke="black" d="M796.59,-893.91C847.33,-845.41 832.46,-400.36 843.65,-342.8 854.74,-285.78 913.2,-212.6 855.11,-212.6"/>
<polygon fill="black" stroke="black" points="796.53,-893.94 785.56,-893.96 791.67,-896.14 787.72,-897.92 787.72,-897.92 787.72,-897.92 791.67,-896.14 789.27,-902.16 796.53,-893.94"/>
<text text-anchor="start" x="794.11" y="-908.2" font-family="Arial" font-size="10.00">FOREIGN KEY (user_id) REFERENCES users(id)</text>
</g>
<!-- public.comments&#45;&gt;public.posts -->
<g id="edge4" class="edge">
<title>public.comments:post_id&#45;&gt;public.posts:id</title>
<path fill="none" stroke="black" d="M493.97,-928.29C426.04,-918.27 454.63,-805.49 505.2,-747.2 576.72,-664.76 676.38,-793.46 748.11,-711.2 775.63,-679.64 790.98,-617 749.11,-617"/>
<polygon fill="black" stroke="black" points="493.89,-928.28 503.55,-933.47 499.21,-928.65 503.53,-928.95 503.53,-928.95 503.53,-928.95 499.21,-928.65 504.18,-924.49 493.89,-928.28"/>
<text text-anchor="start" x="274.92" y="-939" font-family="Arial" font-size="10.00">FOREIGN KEY (post_id) REFERENCES posts(id)</text>
</g>
<!-- public.comment_stars -->
<g id="node5" class="node">
<title>public.comment_stars</title>
<polygon fill="#efefef" stroke="none" points="543.18,-1318 543.18,-1353.6 840.13,-1353.6 840.13,-1318 543.18,-1318"/>
<polygon fill="none" stroke="black" points="543.18,-1318 543.18,-1353.6 840.13,-1353.6 840.13,-1318 543.18,-1318"/>
<text text-anchor="start" x="550.18" y="-1331.4" font-family="Arial Bold" font-size="18.00">public.comment_stars</text>
<text text-anchor="start" x="708.64" y="-1331.4" font-family="Arial" font-size="14.00">    </text>
<text text-anchor="start" x="739.76" y="-1331.4" font-family="Arial" font-size="14.00" fill="#666666">[BASE TABLE]</text>
<polygon fill="none" stroke="black" points="543.18,-1287.2 543.18,-1318 840.13,-1318 840.13,-1287.2 543.18,-1287.2"/>
<text text-anchor="start" x="550.18" y="-1299.4" font-family="Arial" font-size="14.00">id    </text>
<text text-anchor="start" x="592.19" y="-1299.4" font-family="Arial" font-size="14.00" fill="#666666">[uuid]</text>
<polygon fill="none" stroke="black" points="543.18,-1256.4 543.18,-1287.2 840.13,-1287.2 840.13,-1256.4 543.18,-1256.4"/>
<text text-anchor="start" x="550.18" y="-1268.6" font-family="Arial" font-size="14.00">user_id    </text>
<text text-anchor="start" x="627.21" y="-1268.6" font-family="Arial" font-size="14.00" fill="#666666">[integer]</text>
<polygon fill="none" stroke="black" points="543.18,-1225.6 543.18,-1256.4 840.13,-1256.4 840.13,-1225.6 543.18,-1225.6"/>
<text text-anchor="start" x="550.18" y="-1237.8" font-family="Arial" font-size="14.00">comment_post_id    </text>
<text text-anchor="start" x="691.8" y="-1237.8" font-family="Arial" font-size="14.00" fill="#666666">[bigint]</text>
<polygon fill="none" stroke="black" points="543.18,-1194.8 543.18,-1225.6 840.13,-1225.6 840.13,-1194.8 543.18,-1194.8"/>
<text text-anchor="start" x="550.18" y="-1207" font-family="Arial" font-size="14.00">comment_user_id    </text>
<text text-anchor="start" x="692.57" y="-1207" font-family="Arial" font-size="14.00" fill="#666666">[integer]</text>
<polygon fill="none" stroke="black" points="543.18,-1164 543.18,-1194.8 840.13,-1194.8 840.13,-1164 543.18,-1164"/>
<text text-anchor="start" x="550.18" y="-1176.2" font-family="Arial" font-size="14.00">created    </text>
<text text-anchor="start" x="627.99" y="-1176.2" font-family="Arial" font-size="14.00" fill="#666666">[timestamp without time zone]</text>
<polygon fill="none" stroke="black" points="543.18,-1133.2 543.18,-1164 840.13,-1164 840.13,-1133.2 543.18,-1133.2"/>
<text text-anchor="start" x="550.18" y="-1145.4" font-family="Arial" font-size="14.00">updated    </text>
<text text-anchor="start" x="631.9" y="-1145.4" font-family="Arial" font-size="14.00" fill="#666666">[timestamp without time zone]</text>
</g>
<!-- public.comment_stars&#45;&gt;public.users -->
<g id="edge5" class="edge">
<title>public.comment_stars:comment_user_id&#45;&gt;public.users:id</title>
<path fill="none" stroke="black" d="M845.7,-1200.96C870.3,-1100.39 881.25,-212.6 855.11,-212.6"/>
<polygon fill="black" stroke="black" points="845.72,-1200.94 837.25,-1207.9 843.35,-1205.72 841.43,-1209.6 841.43,-1209.6 841.43,-1209.6 843.35,-1205.72 845.31,-1211.9 845.72,-1200.94"/>
<text text-anchor="start" x="848.13" y="-1220.2" font-family="Arial" font-size="10.00">FOREIGN KEY (comment_user_id) REFERENCES users(id)</text>
</g>
<!-- public.comment_stars&#45;&gt;public.comments -->
<g id="edge6" class="edge">
<title>public.comment_stars:comment_post_id&#45;&gt;public.comments:post_id</title>
<path fill="none" stroke="black" d="M531.97,-1240.12C477.76,-1230.17 501.58,-1137.9 543.18,-1090 614.75,-1007.59 714.48,-1136.36 786.11,-1054 822.57,-1012.08 842.67,-929 787.11,-929"/>
<polygon fill="black" stroke="black" points="531.88,-1240.12 541.46,-1245.45 537.19,-1240.57 541.51,-1240.94 541.51,-1240.94 541.51,-1240.94 537.19,-1240.57 542.23,-1236.49 531.88,-1240.12"/>
<text text-anchor="start" x="96.14" y="-1251" font-family="Arial" font-size="10.00">FOREIGN KEY (comment_post_id, comment_user_id) REFERENCES comments(post_id, user_id)</text>
</g>
<!-- public.logs -->
<g id="node6" class="node">
<title>public.logs</title>
<polygon fill="#efefef" stroke="none" points="314.16,-1691.6 314.16,-1727.2 591.15,-1727.2 591.15,-1691.6 314.16,-1691.6"/>
<polygon fill="none" stroke="black" points="314.16,-1691.6 314.16,-1727.2 591.15,-1727.2 591.15,-1691.6 314.16,-1691.6"/>
<text text-anchor="start" x="350.66" y="-1705" font-family="Arial Bold" font-size="18.00">public.logs</text>
<text text-anchor="start" x="430.16" y="-1705" font-family="Arial" font-size="14.00">    </text>
<text text-anchor="start" x="461.28" y="-1705" font-family="Arial" font-size="14.00" fill="#666666">[BASE TABLE]</text>
<polygon fill="none" stroke="black" points="314.16,-1660.8 314.16,-1691.6 591.15,-1691.6 591.15,-1660.8 314.16,-1660.8"/>
<text text-anchor="start" x="321.16" y="-1673" font-family="Arial" font-size="14.00">id    </text>
<text text-anchor="start" x="363.17" y="-1673" font-family="Arial" font-size="14.00" fill="#666666">[uuid]</text>
<polygon fill="none" stroke="black" points="314.16,-1630 314.16,-1660.8 591.15,-1660.8 591.15,-1630 314.16,-1630"/>
<text text-anchor="start" x="321.16" y="-1642.2" font-family="Arial" font-size="14.00">user_id    </text>
<text text-anchor="start" x="398.19" y="-1642.2" font-family="Arial" font-size="14.00" fill="#666666">[integer]</text>
<polygon fill="none" stroke="black" points="314.16,-1599.2 314.16,-1630 591.15,-1630 591.15,-1599.2 314.16,-1599.2"/>
<text text-anchor="start" x="321.16" y="-1611.4" font-family="Arial" font-size="14.00">post_id    </text>
<text text-anchor="start" x="397.42" y="-1611.4" font-family="Arial" font-size="14.00" fill="#666666">[bigint]</text>
<polygon fill="none" stroke="black" points="314.16,-1568.4 314.16,-1599.2 591.15,-1599.2 591.15,-1568.4 314.16,-1568.4"/>
<text text-anchor="start" x="321.16" y="-1580.6" font-family="Arial" font-size="14.00">comment_id    </text>
<text text-anchor="start" x="428.53" y="-1580.6" font-family="Arial" font-size="14.00" fill="#666666">[bigint]</text>
<polygon fill="none" stroke="black" points="314.16,-1537.6 314.16,-1568.4 591.15,-1568.4 591.15,-1537.6 314.16,-1537.6"/>
<text text-anchor="start" x="321.16" y="-1549.8" font-family="Arial" font-size="14.00">comment_star_id    </text>
<text text-anchor="start" x="459.65" y="-1549.8" font-family="Arial" font-size="14.00" fill="#666666">[uuid]</text>
<polygon fill="none" stroke="black" points="314.16,-1506.8 314.16,-1537.6 591.15,-1537.6 591.15,-1506.8 314.16,-1506.8"/>
<text text-anchor="start" x="321.16" y="-1519" font-family="Arial" font-size="14.00">payload    </text>
<text text-anchor="start" x="401.31" y="-1519" font-family="Arial" font-size="14.00" fill="#666666">[text]</text>
<polygon fill="none" stroke="black" points="314.16,-1476 314.16,-1506.8 591.15,-1506.8 591.15,-1476 314.16,-1476"/>
<text text-anchor="start" x="321.16" y="-1488.2" font-family="Arial" font-size="14.00">created    </text>
<text text-anchor="start" x="398.97" y="-1488.2" font-family="Arial" font-size="14.00" fill="#666666">[timestamp without time zone]</text>
</g>
<!-- public.logs&#45;&gt;public.users -->
<g id="edge12" class="edge">
<title>public.logs:user_id&#45;&gt;public.users:id</title>
<path fill="none" stroke="black" stroke-dasharray="5,2" d="M302.91,-1644.87C225.64,-1636.2 309.77,-1523.49 314.16,-1432.8 314.89,-1417.61 407.55,-356.24 414.65,-342.8 457.09,-262.48 481.36,-212.6 572.2,-212.6"/>
<polygon fill="black" stroke="black" points="302.83,-1644.86 312.59,-1649.88 308.16,-1645.14 312.49,-1645.37 312.49,-1645.37 312.49,-1645.37 308.16,-1645.14 313.05,-1640.89 302.83,-1644.86"/>
<text text-anchor="start" x="254.19" y="-1655.4" font-family="Arial" font-size="10.00">logs&#45;&gt;users</text>
</g>
<!-- public.logs&#45;&gt;public.posts -->
<g id="edge13" class="edge">
<title>public.logs:post_id&#45;&gt;public.posts:id</title>
<path fill="none" stroke="black" stroke-dasharray="5,2" d="M302.96,-1613.92C235.58,-1604.32 270.08,-1496.15 314.16,-1432.8 340.06,-1395.57 382.63,-1433.23 409.65,-1396.8 461.41,-1327.03 379.33,-617 466.2,-617"/>
<polygon fill="black" stroke="black" points="302.84,-1613.91 312.52,-1619.07 308.17,-1614.27 312.49,-1614.56 312.49,-1614.56 312.49,-1614.56 308.17,-1614.27 313.12,-1610.09 302.84,-1613.91"/>
<text text-anchor="start" x="222.77" y="-1624.6" font-family="Arial" font-size="10.00">Additional Relation</text>
</g>
<!-- public.logs&#45;&gt;public.comments -->
<g id="edge14" class="edge">
<title>public.logs:comment_id&#45;&gt;public.comments:id</title>
<path fill="none" stroke="black" stroke-dasharray="5,2" d="M602.31,-1582.96C656.03,-1573.4 627.85,-1484.55 591.15,-1432.8 563.71,-1394.09 517.97,-1435.6 490.65,-1396.8 462.69,-1357.08 455.62,-959.8 504.2,-959.8"/>
<polygon fill="black" stroke="black" points="602.45,-1582.95 592.12,-1579.29 597.14,-1583.39 592.82,-1583.74 592.82,-1583.74 592.82,-1583.74 597.14,-1583.39 592.86,-1588.26 602.45,-1582.95"/>
<text text-anchor="start" x="599.15" y="-1593.8" font-family="Arial" font-size="10.00">Additional Relation</text>
</g>
<!-- public.logs&#45;&gt;public.comment_stars -->
<g id="edge15" class="edge">
<title>public.logs:comment_star_id&#45;&gt;public.comment_stars:id</title>
<path fill="none" stroke="black" stroke-dasharray="5,2" d="M602.21,-1551.96C641.34,-1542.93 613.55,-1477.13 591.15,-1432.8 579.14,-1409 555.22,-1420.58 543.18,-1396.8 524.26,-1359.45 500.31,-1302.6 542.18,-1302.6"/>
<polygon fill="black" stroke="black" points="602.43,-1551.94 592.02,-1548.49 597.13,-1552.48 592.82,-1552.93 592.82,-1552.93 592.82,-1552.93 597.13,-1552.48 592.95,-1557.44 602.43,-1551.94"/>
<text text-anchor="start" x="599.15" y="-1563" font-family="Arial" font-size="10.00">Additional Relation</text>
</g>
<!-- public.post_comments -->
<g id="node7" class="node">
<title>public.post_comments</title>
<polygon fill="#efefef" stroke="none" points="695.2,-1691.6 695.2,-1727.2 976.11,-1727.2 976.11,-1691.6 695.2,-1691.6"/>
<polygon fill="none" stroke="black" points="695.2,-1691.6 695.2,-1727.2 976.11,-1727.2 976.11,-1691.6 695.2,-1691.6"/>
<text text-anchor="start" x="717.08" y="-1705" font-family="Arial Bold" font-size="18.00">public.post_comments</text>
<text text-anchor="start" x="879.56" y="-1705" font-family="Arial" font-size="14.00">    </text>
<text text-anchor="start" x="910.68" y="-1705" font-family="Arial" font-size="14.00" fill="#666666">[VIEW]</text>
<polygon fill="none" stroke="black" points="695.2,-1660.8 695.2,-1691.6 976.11,-1691.6 976.11,-1660.8 695.2,-1660.8"/>
<text text-anchor="start" x="702.2" y="-1673" font-family="Arial" font-size="14.00">id    </text>
<text text-anchor="start" x="744.21" y="-1673" font-family="Arial" font-size="14.00" fill="#666666">[bigint]</text>
<polygon fill="none" stroke="black" points="695.2,-1630 695.2,-1660.8 976.11,-1660.8 976.11,-1630 695.2,-1630"/>
<text text-anchor="start" x="702.2" y="-1642.2" font-family="Arial" font-size="14.00">title    </text>
<text text-anchor="start" x="755.1" y="-1642.2" font-family="Arial" font-size="14.00" fill="#666666">[varchar(255)]</text>
<polygon fill="none" stroke="black" points="695.2,-1599.2 695.2,-1630 976.11,-1630 976.11,-1599.2 695.2,-1599.2"/>
<text text-anchor="start" x="702.2" y="-1611.4" font-family="Arial" font-size="14.00">post_user    </text>
<text text-anchor="start" x="794.8" y="-1611.4" font-family="Arial" font-size="14.00" fill="#666666">[varchar(50)]</text>
<polygon fill="none" stroke="black" points="695.2,-1568.4 695.2,-1599.2 976.11,-1599.2 976.11,-1568.4 695.2,-1568.4"/>
<text text-anchor="start" x="702.2" y="-1580.6" font-family="Arial" font-size="14.00">comment    </text>
<text text-anchor="start" x="790.89" y="-1580.6" font-family="Arial" font-size="14.00" fill="#666666">[text]</text>
<polygon fill="none" stroke="black" points="695.2,-1537.6 695.2,-1568.4 976.11,-1568.4 976.11,-1537.6 695.2,-1537.6"/>
<text text-anchor="start" x="702.2" y="-1549.8" font-family="Arial" font-size="14.00">comment_user    </text>
<text text-anchor="start" x="825.91" y="-1549.8" font-family="Arial" font-size="14.00" fill="#666666">[varchar(50)]</text>
<polygon fill="none" stroke="black" points="695.2,-1506.8 695.2,-1537.6 976.11,-1537.6 976.11,-1506.8 695.2,-1506.8"/>
<text text-anchor="start" x="702.2" y="-1519" font-family="Arial" font-size="14.00">created    </text>
<text text-anchor="start" x="780.01" y="-1519" font-family="Arial" font-size="14.00" fill="#666666">[timestamp without time zone]</text>
<polygon fill="none" stroke="black" points="695.2,-1476 695.2,-1506.8 976.11,-1506.8 976.11,-1476 695.2,-1476"/>
<text text-anchor="start" x="702.2" y="-1488.2" font-family="Arial" font-size="14.00">updated    </text>
<text text-anchor="start" x="783.92" y="-1488.2" font-family="Arial" font-size="14.00" fill="#666666">[timestamp without time zone]</text>
</g>
<!-- public.post_comment_stars -->
<g id="node8" class="node">
<title>public.post_comment_stars</title>
<polygon fill="#efefef" stroke="none" points="1080.68,-1660.8 1080.68,-1696.4 1472.63,-1696.4 1472.63,-1660.8 1080.68,-1660.8"/>
<polygon fill="none" stroke="black" points="1080.68,-1660.8 1080.68,-1696.4 1472.63,-1696.4 1472.63,-1660.8 1080.68,-1660.8"/>
<text text-anchor="start" x="1087.68" y="-1674.2" font-family="Arial Bold" font-size="18.00">public.post_comment_stars</text>
<text text-anchor="start" x="1285.16" y="-1674.2" font-family="Arial" font-size="14.00">    </text>
<text text-anchor="start" x="1316.27" y="-1674.2" font-family="Arial" font-size="14.00" fill="#666666">[MATERIALIZED VIEW]</text>
<polygon fill="none" stroke="black" points="1080.68,-1630 1080.68,-1660.8 1472.63,-1660.8 1472.63,-1630 1080.68,-1630"/>
<text text-anchor="start" x="1087.68" y="-1642.2" font-family="Arial" font-size="14.00">id    </text>
<text text-anchor="start" x="1129.7" y="-1642.2" font-family="Arial" font-size="14.00" fill="#666666">[uuid]</text>
<polygon fill="none" stroke="black" points="1080.68,-1599.2 1080.68,-1630 1472.63,-1630 1472.63,-1599.2 1080.68,-1599.2"/>
<text text-anchor="start" x="1087.68" y="-1611.4" font-family="Arial" font-size="14.00">comment_user    </text>
<text text-anchor="start" x="1211.39" y="-1611.4" font-family="Arial" font-size="14.00" fill="#666666">[varchar(50)]</text>
<polygon fill="none" stroke="black" points="1080.68,-1568.4 1080.68,-1599.2 1472.63,-1599.2 1472.63,-1568.4 1080.68,-1568.4"/>
<text text-anchor="start" x="1087.68" y="-1580.6" font-family="Arial" font-size="14.00">comment_star_user    </text>
<text text-anchor="start" x="1242.52" y="-1580.6" font-family="Arial" font-size="14.00" fill="#666666">[varchar(50)]</text>
<polygon fill="none" stroke="black" points="1080.68,-1537.6 1080.68,-1568.4 1472.63,-1568.4 1472.63,-1537.6 1080.68,-1537.6"/>
<text text-anchor="start" x="1087.68" y="-1549.8" font-family="Arial" font-size="14.00">created    </text>
<text text-anchor="start" x="1165.5" y="-1549.8" font-family="Arial" font-size="14.00" fill="#666666">[timestamp without time zone]</text>
<polygon fill="none" stroke="black" points="1080.68,-1506.8 1080.68,-1537.6 1472.63,-1537.6 1472.63,-1506.8 1080.68,-1506.8"/>
<text text-anchor="start" x="1087.68" y="-1519" font-family="Arial" font-size="14.00">updated    </text>
<text text-anchor="start" x="1169.41" y="-1519" font-family="Arial" font-size="14.00" fill="#666666">[timestamp without time zone]</text>
</g>
<!-- public.CamelizeTable -->
<g id="node9" class="node">
<title>public.CamelizeTable</title>
<polygon fill="#efefef" stroke="none" points="1569.19,-1256.4 1569.19,-1292 1866.12,-1292 1866.12,-1256.4 1569.19,-1256.4"/>
<polygon fill="none" stroke="black" points="1569.19,-1256.4 1569.19,-1292 1866.12,-1292 1866.12,-1256.4 1569.19,-1256.4"/>
<text text-anchor="start" x="1576.19" y="-1269.8" font-family="Arial Bold" font-size="18.00">public.CamelizeTable</text>
<text text-anchor="start" x="1734.63" y="-1269.8" font-family="Arial" font-size="14.00">    </text>
<text text-anchor="start" x="1765.74" y="-1269.8" font-family="Arial" font-size="14.00" fill="#666666">[BASE TABLE]</text>
<polygon fill="none" stroke="black" points="1569.19,-1225.6 1569.19,-1256.4 1866.12,-1256.4 1866.12,-1225.6 1569.19,-1225.6"/>
<text text-anchor="start" x="1576.19" y="-1237.8" font-family="Arial" font-size="14.00">id    </text>
<text text-anchor="start" x="1618.21" y="-1237.8" font-family="Arial" font-size="14.00" fill="#666666">[uuid]</text>
<polygon fill="none" stroke="black" points="1569.19,-1194.8 1569.19,-1225.6 1866.12,-1225.6 1866.12,-1194.8 1569.19,-1194.8"/>
<text text-anchor="start" x="1576.19" y="-1207" font-family="Arial" font-size="14.00">created    </text>
<text text-anchor="start" x="1654.01" y="-1207" font-family="Arial" font-size="14.00" fill="#666666">[timestamp without time zone]</text>
</g>
<!-- public.hyphen&#45;table -->
<g id="node10" class="node">
<title>public.hyphen&#45;table</title>
<polygon fill="#efefef" stroke="none" points="1576.68,-1645.4 1576.68,-1681 1858.63,-1681 1858.63,-1645.4 1576.68,-1645.4"/>
<polygon fill="none" stroke="black" points="1576.68,-1645.4 1576.68,-1681 1858.63,-1681 1858.63,-1645.4 1576.68,-1645.4"/>
<text text-anchor="start" x="1583.68" y="-1658.8" font-family="Arial Bold" font-size="18.00">public.hyphen&#45;table</text>
<text text-anchor="start" x="1727.14" y="-1658.8" font-family="Arial" font-size="14.00">    </text>
<text text-anchor="start" x="1758.25" y="-1658.8" font-family="Arial" font-size="14.00" fill="#666666">[BASE TABLE]</text>
<polygon fill="none" stroke="black" points="1576.68,-1614.6 1576.68,-1645.4 1858.63,-1645.4 1858.63,-1614.6 1576.68,-1614.6"/>
<text text-anchor="start" x="1583.68" y="-1626.8" font-family="Arial" font-size="14.00">id    </text>
<text text-anchor="start" x="1625.7" y="-1626.8" font-family="Arial" font-size="14.00" fill="#666666">[uuid]</text>
<polygon fill="none" stroke="black" points="1576.68,-1583.8 1576.68,-1614.6 1858.63,-1614.6 1858.63,-1583.8 1576.68,-1583.8"/>
<text text-anchor="start" x="1583.68" y="-1596" font-family="Arial" font-size="14.00">hyphen&#45;column    </text>
<text text-anchor="start" x="1710.52" y="-1596" font-family="Arial" font-size="14.00" fill="#666666">[text]</text>
<polygon fill="none" stroke="black" points="1576.68,-1553 1576.68,-1583.8 1858.63,-1583.8 1858.63,-1553 1576.68,-1553"/>
<text text-anchor="start" x="1583.68" y="-1565.2" font-family="Arial" font-size="14.00">CamelizeTableId    </text>
<text text-anchor="start" x="1719.85" y="-1565.2" font-family="Arial" font-size="14.00" fill="#666666">[uuid]</text>
<polygon fill="none" stroke="black" points="1576.68,-1522.2 1576.68,-1553 1858.63,-1553 1858.63,-1522.2 1576.68,-1522.2"/>
<text text-anchor="start" x="1583.68" y="-1534.4" font-family="Arial" font-size="14.00">created    </text>
<text text-anchor="start" x="1661.5" y="-1534.4" font-family="Arial" font-size="14.00" fill="#666666">[timestamp without time zone]</text>
</g>
<!-- public.hyphen&#45;table&#45;&gt;public.CamelizeTable -->
<g id="edge7" class="edge">
<title>public.hyphen&#45;table:CamelizeTableId&#45;&gt;public.CamelizeTable:id</title>
<path fill="none" stroke="black" d="M1867.99,-1562.15C1896.95,-1516.89 1900.52,-1241 1867.12,-1241"/>
<polygon fill="black" stroke="black" points="1867.91,-1562.21 1857.2,-1564.59 1863.63,-1565.41 1860.16,-1568 1860.16,-1568 1860.16,-1568 1863.63,-1565.41 1862.59,-1571.8 1867.91,-1562.21"/>
<text text-anchor="start" x="1866.63" y="-1578.4" font-family="Arial" font-size="10.00">FOREIGN KEY (&quot;CamelizeTableId&quot;) REFERENCES &quot;CamelizeTable&quot;(id) ON DELETE CASCADE</text>
</g>
<!-- administrator.blogs -->
<g id="node11" class="node">
<title>administrator.blogs</title>
<polygon fill="#efefef" stroke="none" points="929.2,-601.6 929.2,-637.2 1210.11,-637.2 1210.11,-601.6 929.2,-601.6"/>
<polygon fill="none" stroke="black" points="929.2,-601.6 929.2,-637.2 1210.11,-637.2 1210.11,-601.6 929.2,-601.6"/>
<text text-anchor="start" x="937.67" y="-615" font-family="Arial Bold" font-size="18.00">administrator.blogs</text>
<text text-anchor="start" x="1077.15" y="-615" font-family="Arial" font-size="14.00">    </text>
<text text-anchor="start" x="1108.27" y="-615" font-family="Arial" font-size="14.00" fill="#666666">[BASE TABLE]</text>
<polygon fill="none" stroke="black" points="929.2,-570.8 929.2,-601.6 1210.11,-601.6 1210.11,-570.8 929.2,-570.8"/>
<text text-anchor="start" x="936.2" y="-583" font-family="Arial" font-size="14.00">id    </text>
<text text-anchor="start" x="978.21" y="-583" font-family="Arial" font-size="14.00" fill="#666666">[integer]</text>
<polygon fill="none" stroke="black" points="929.2,-540 929.2,-570.8 1210.11,-570.8 1210.11,-540 929.2,-540"/>
<text text-anchor="start" x="936.2" y="-552.2" font-family="Arial" font-size="14.00">user_id    </text>
<text text-anchor="start" x="1013.23" y="-552.2" font-family="Arial" font-size="14.00" fill="#666666">[integer]</text>
<polygon fill="none" stroke="black" points="929.2,-509.2 929.2,-540 1210.11,-540 1210.11,-509.2 929.2,-509.2"/>
<text text-anchor="start" x="936.2" y="-521.4" font-family="Arial" font-size="14.00">name    </text>
<text text-anchor="start" x="1002.34" y="-521.4" font-family="Arial" font-size="14.00" fill="#666666">[text]</text>
<polygon fill="none" stroke="black" points="929.2,-478.4 929.2,-509.2 1210.11,-509.2 1210.11,-478.4 929.2,-478.4"/>
<text text-anchor="start" x="936.2" y="-490.6" font-family="Arial" font-size="14.00">description    </text>
<text text-anchor="start" x="1035.02" y="-490.6" font-family="Arial" font-size="14.00" fill="#666666">[text]</text>
<polygon fill="none" stroke="black" points="929.2,-447.6 929.2,-478.4 1210.11,-478.4 1210.11,-447.6 929.2,-447.6"/>
<text text-anchor="start" x="936.2" y="-459.8" font-family="Arial" font-size="14.00">created    </text>
<text text-anchor="start" x="1014.01" y="-459.8" font-family="Arial" font-size="14.00" fill="#666666">[timestamp without time zone]</text>
<polygon fill="none" stroke="black" points="929.2,-416.8 929.2,-447.6 1210.11,-447.6 1210.11,-416.8 929.2,-416.8"/>
<text text-anchor="start" x="936.2" y="-429" font-family="Arial" font-size="14.00">updated    </text>
<text text-anchor="start" x="1017.92" y="-429" font-family="Arial" font-size="14.00" fill="#666666">[timestamp without time zone]</text>
</g>
<!-- administrator.blogs&#45;&gt;public.users -->
<g id="edge8" class="edge">
<title>administrator.blogs:user_id&#45;&gt;public.users:id</title>
<path fill="none" stroke="black" d="M917.89,-554.84C783.38,-539.52 1007.24,-212.6 855.11,-212.6"/>
<polygon fill="black" stroke="black" points="917.88,-554.84 927.62,-559.88 923.21,-555.13 927.53,-555.36 927.53,-555.36 927.53,-555.36 923.21,-555.13 928.11,-550.89 917.88,-554.84"/>
<text text-anchor="start" x="674.23" y="-539.4" font-family="Arial" font-size="10.00">FOREIGN KEY (user_id) REFERENCES users(id) ON DELETE CASCADE</text>
</g>
<!-- backup.blogs -->
<g id="node12" class="node">
<title>backup.blogs</title>
<polygon fill="#efefef" stroke="none" points="1970.2,-1302.6 1970.2,-1338.2 2251.11,-1338.2 2251.11,-1302.6 1970.2,-1302.6"/>
<polygon fill="none" stroke="black" points="1970.2,-1302.6 1970.2,-1338.2 2251.11,-1338.2 2251.11,-1302.6 1970.2,-1302.6"/>
<text text-anchor="start" x="2000.67" y="-1316" font-family="Arial Bold" font-size="18.00">backup.blogs</text>
<text text-anchor="start" x="2096.15" y="-1316" font-family="Arial" font-size="14.00">    </text>
<text text-anchor="start" x="2127.27" y="-1316" font-family="Arial" font-size="14.00" fill="#666666">[BASE TABLE]</text>
<polygon fill="none" stroke="black" points="1970.2,-1271.8 1970.2,-1302.6 2251.11,-1302.6 2251.11,-1271.8 1970.2,-1271.8"/>
<text text-anchor="start" x="1977.2" y="-1284" font-family="Arial" font-size="14.00">id    </text>
<text text-anchor="start" x="2019.21" y="-1284" font-family="Arial" font-size="14.00" fill="#666666">[integer]</text>
<polygon fill="none" stroke="black" points="1970.2,-1241 1970.2,-1271.8 2251.11,-1271.8 2251.11,-1241 1970.2,-1241"/>
<text text-anchor="start" x="1977.2" y="-1253.2" font-family="Arial" font-size="14.00">user_id    </text>
<text text-anchor="start" x="2054.23" y="-1253.2" font-family="Arial" font-size="14.00" fill="#666666">[integer]</text>
<polygon fill="none" stroke="black" points="1970.2,-1210.2 1970.2,-1241 2251.11,-1241 2251.11,-1210.2 1970.2,-1210.2"/>
<text text-anchor="start" x="1977.2" y="-1222.4" font-family="Arial" font-size="14.00">dump    </text>
<text text-anchor="start" x="2043.34" y="-1222.4" font-family="Arial" font-size="14.00" fill="#666666">[text]</text>
<polygon fill="none" stroke="black" points="1970.2,-1179.4 1970.2,-1210.2 2251.11,-1210.2 2251.11,-1179.4 1970.2,-1179.4"/>
<text text-anchor="start" x="1977.2" y="-1191.6" font-family="Arial" font-size="14.00">created    </text>
<text text-anchor="start" x="2055.01" y="-1191.6" font-family="Arial" font-size="14.00" fill="#666666">[timestamp without time zone]</text>
<polygon fill="none" stroke="black" points="1970.2,-1148.6 1970.2,-1179.4 2251.11,-1179.4 2251.11,-1148.6 1970.2,-1148.6"/>
<text text-anchor="start" x="1977.2" y="-1160.8" font-family="Arial" font-size="14.00">updated    </text>
<text text-anchor="start" x="2058.92" y="-1160.8" font-family="Arial" font-size="14.00" fill="#666666">[timestamp without time zone]</text>
</g>
<!-- backup.blog_options -->
<g id="node13" class="node">
<title>backup.blog_options</title>
<polygon fill="#efefef" stroke="none" points="1966.17,-1645.4 1966.17,-1681 2255.14,-1681 2255.14,-1645.4 1966.17,-1645.4"/>
<polygon fill="none" stroke="black" points="1966.17,-1645.4 1966.17,-1681 2255.14,-1681 2255.14,-1645.4 1966.17,-1645.4"/>
<text text-anchor="start" x="1973.17" y="-1658.8" font-family="Arial Bold" font-size="18.00">backup.blog_options</text>
<text text-anchor="start" x="2123.65" y="-1658.8" font-family="Arial" font-size="14.00">    </text>
<text text-anchor="start" x="2154.77" y="-1658.8" font-family="Arial" font-size="14.00" fill="#666666">[BASE TABLE]</text>
<polygon fill="none" stroke="black" points="1966.17,-1614.6 1966.17,-1645.4 2255.14,-1645.4 2255.14,-1614.6 1966.17,-1614.6"/>
<text text-anchor="start" x="1973.17" y="-1626.8" font-family="Arial" font-size="14.00">id    </text>
<text text-anchor="start" x="2015.18" y="-1626.8" font-family="Arial" font-size="14.00" fill="#666666">[integer]</text>
<polygon fill="none" stroke="black" points="1966.17,-1583.8 1966.17,-1614.6 2255.14,-1614.6 2255.14,-1583.8 1966.17,-1583.8"/>
<text text-anchor="start" x="1973.17" y="-1596" font-family="Arial" font-size="14.00">blog_id    </text>
<text text-anchor="start" x="2049.44" y="-1596" font-family="Arial" font-size="14.00" fill="#666666">[integer]</text>
<polygon fill="none" stroke="black" points="1966.17,-1553 1966.17,-1583.8 2255.14,-1583.8 2255.14,-1553 1966.17,-1553"/>
<text text-anchor="start" x="1973.17" y="-1565.2" font-family="Arial" font-size="14.00">label    </text>
<text text-anchor="start" x="2033.86" y="-1565.2" font-family="Arial" font-size="14.00" fill="#666666">[text]</text>
<polygon fill="none" stroke="black" points="1966.17,-1522.2 1966.17,-1553 2255.14,-1553 2255.14,-1522.2 1966.17,-1522.2"/>
<text text-anchor="start" x="1973.17" y="-1534.4" font-family="Arial" font-size="14.00">updated    </text>
<text text-anchor="start" x="2054.89" y="-1534.4" font-family="Arial" font-size="14.00" fill="#666666">[timestamp without time zone]</text>
</g>
<!-- backup.blog_options&#45;&gt;backup.blogs -->
<g id="edge9" class="edge">
<title>backup.blog_options:blog_id&#45;&gt;backup.blogs:id</title>
<path fill="none" stroke="black" d="M2266.14,-1596.87C2324.9,-1568.32 2317.93,-1287.2 2252.11,-1287.2"/>
<polygon fill="black" stroke="black" points="2266.21,-1596.85 2255.45,-1594.74 2261.01,-1598.06 2256.79,-1599.05 2256.79,-1599.05 2256.79,-1599.05 2261.01,-1598.06 2257.49,-1603.51 2266.21,-1596.85"/>
<text text-anchor="start" x="2263.14" y="-1609.2" font-family="Arial" font-size="10.00">FOREIGN KEY (blog_id) REFERENCES blogs(id) ON DELETE CASCADE</text>
</g>
<!-- time.bar -->
<g id="node14" class="node">
<title>time.bar</title>
<polygon fill="#efefef" stroke="none" points="2355.67,-1241 2355.67,-1276.6 2553.64,-1276.6 2553.64,-1241 2355.67,-1241"/>
<polygon fill="none" stroke="black" points="2355.67,-1241 2355.67,-1276.6 2553.64,-1276.6 2553.64,-1241 2355.67,-1241"/>
<text text-anchor="start" x="2362.67" y="-1254.4" font-family="Arial Bold" font-size="18.00">time.bar</text>
<text text-anchor="start" x="2422.15" y="-1254.4" font-family="Arial" font-size="14.00">    </text>
<text text-anchor="start" x="2453.26" y="-1254.4" font-family="Arial" font-size="14.00" fill="#666666">[BASE TABLE]</text>
<polygon fill="none" stroke="black" points="2355.67,-1210.2 2355.67,-1241 2553.64,-1241 2553.64,-1210.2 2355.67,-1210.2"/>
<text text-anchor="start" x="2362.67" y="-1222.4" font-family="Arial" font-size="14.00">id    </text>
<text text-anchor="start" x="2404.69" y="-1222.4" font-family="Arial" font-size="14.00" fill="#666666">[integer]</text>
</g>
<!-- time.hyphenated&#45;table -->
<g id="node15" class="node">
<title>time.hyphenated&#45;table</title>
<polygon fill="#efefef" stroke="none" points="2658.19,-1241 2658.19,-1276.6 2957.12,-1276.6 2957.12,-1241 2658.19,-1241"/>
<polygon fill="none" stroke="black" points="2658.19,-1241 2658.19,-1276.6 2957.12,-1276.6 2957.12,-1241 2658.19,-1241"/>
<text text-anchor="start" x="2665.19" y="-1254.4" font-family="Arial Bold" font-size="18.00">time.hyphenated&#45;table</text>
<text text-anchor="start" x="2825.63" y="-1254.4" font-family="Arial" font-size="14.00">    </text>
<text text-anchor="start" x="2856.74" y="-1254.4" font-family="Arial" font-size="14.00" fill="#666666">[BASE TABLE]</text>
<polygon fill="none" stroke="black" points="2658.19,-1210.2 2658.19,-1241 2957.12,-1241 2957.12,-1210.2 2658.19,-1210.2"/>
<text text-anchor="start" x="2665.19" y="-1222.4" font-family="Arial" font-size="14.00">id    </text>
<text text-anchor="start" x="2707.21" y="-1222.4" font-family="Arial" font-size="14.00" fill="#666666">[integer]</text>
</g>
<!-- time.referencing -->
<g id="node16" class="node">
<title>time.referencing</title>
<polygon fill="#efefef" stroke="none" points="2519.19,-1630 2519.19,-1665.6 2776.12,-1665.6 2776.12,-1630 2519.19,-1630"/>
<polygon fill="none" stroke="black" points="2519.19,-1630 2519.19,-1665.6 2776.12,-1665.6 2776.12,-1630 2519.19,-1630"/>
<text text-anchor="start" x="2526.19" y="-1643.4" font-family="Arial Bold" font-size="18.00">time.referencing</text>
<text text-anchor="start" x="2644.63" y="-1643.4" font-family="Arial" font-size="14.00">    </text>
<text text-anchor="start" x="2675.74" y="-1643.4" font-family="Arial" font-size="14.00" fill="#666666">[BASE TABLE]</text>
<polygon fill="none" stroke="black" points="2519.19,-1599.2 2519.19,-1630 2776.12,-1630 2776.12,-1599.2 2519.19,-1599.2"/>
<text text-anchor="start" x="2526.19" y="-1611.4" font-family="Arial" font-size="14.00">id    </text>
<text text-anchor="start" x="2568.21" y="-1611.4" font-family="Arial" font-size="14.00" fill="#666666">[integer]</text>
<polygon fill="none" stroke="black" points="2519.19,-1568.4 2519.19,-1599.2 2776.12,-1599.2 2776.12,-1568.4 2519.19,-1568.4"/>
<text text-anchor="start" x="2526.19" y="-1580.6" font-family="Arial" font-size="14.00">bar_id    </text>
<text text-anchor="start" x="2596.23" y="-1580.6" font-family="Arial" font-size="14.00" fill="#666666">[integer]</text>
<polygon fill="none" stroke="black" points="2519.19,-1537.6 2519.19,-1568.4 2776.12,-1568.4 2776.12,-1537.6 2519.19,-1537.6"/>
<text text-anchor="start" x="2526.19" y="-1549.8" font-family="Arial" font-size="14.00">ht_id    </text>
<text text-anchor="start" x="2587.67" y="-1549.8" font-family="Arial" font-size="14.00" fill="#666666">[integer]</text>
</g>
<!-- time.referencing&#45;&gt;time.bar -->
<g id="edge10" class="edge">
<title>time.referencing:bar_id&#45;&gt;time.bar:id</title>
<path fill="none" stroke="black" d="M2507.78,-1583.22C2374.6,-1567.21 2710.91,-1225.6 2554.64,-1225.6"/>
<polygon fill="black" stroke="black" points="2507.88,-1583.22 2517.61,-1588.27 2513.2,-1583.52 2517.53,-1583.76 2517.53,-1583.76 2517.53,-1583.76 2513.2,-1583.52 2518.11,-1579.29 2507.88,-1583.22"/>
<text text-anchor="start" x="2274.05" y="-1567.8" font-family="Arial" font-size="10.00">FOREIGN KEY (bar_id) REFERENCES &quot;time&quot;.bar(id)</text>
</g>
<!-- time.referencing&#45;&gt;time.hyphenated&#45;table -->
<g id="edge11" class="edge">
<title>time.referencing:ht_id&#45;&gt;time.hyphenated&#45;table:id</title>
<path fill="none" stroke="black" d="M2787.1,-1549.98C2796.63,-1541.16 2782.54,-1514.78 2776.12,-1494.4 2747.95,-1405.1 2686.07,-1409.19 2658.19,-1319.8 2645.73,-1279.83 2615.32,-1225.6 2657.19,-1225.6"/>
<polygon fill="black" stroke="black" points="2787.01,-1550.01 2776.13,-1548.6 2781.9,-1551.55 2777.76,-1552.81 2777.76,-1552.81 2777.76,-1552.81 2781.9,-1551.55 2778.74,-1557.21 2787.01,-1550.01"/>
<text text-anchor="start" x="2784.12" y="-1563" font-family="Arial" font-size="10.00">FOREIGN KEY (ht_id) REFERENCES &quot;time&quot;.&quot;hyphenated&#45;table&quot;(id)</text>
</g>
</g>
</svg>
