<?xml version="1.0" encoding="UTF-8" standalone="no"?>
<!DOCTYPE svg PUBLIC "-//W3C//DTD SVG 1.1//EN"
 "http://www.w3.org/Graphics/SVG/1.1/DTD/svg11.dtd">
<!-- Generated by graphviz version 2.40.1 (20161225.0304)
 -->
<!-- Title: testdb Pages: 1 -->
<svg width="3148pt" height="1747pt"
 viewBox="0.00 0.00 3148.00 1747.00" xmlns="http://www.w3.org/2000/svg" xmlns:xlink="http://www.w3.org/1999/xlink">
<g id="graph0" class="graph" transform="scale(1 1) rotate(0) translate(4 1743)">
<title>testdb</title>
<polygon fill="#ffffff" stroke="transparent" points="-4,4 -4,-1743 3144,-1743 3144,4 -4,4"/>
<!-- public.users -->
<g id="node1" class="node">
<title>public.users</title>
<polygon fill="#efefef" stroke="transparent" points="580,-222.5 580,-257.5 833,-257.5 833,-222.5 580,-222.5"/>
<polygon fill="none" stroke="#000000" points="580,-222.5 580,-257.5 833,-257.5 833,-222.5 580,-222.5"/>
<text text-anchor="start" x="594.7091" y="-235.3" font-family="Arial Bold" font-size="18.00" fill="#000000">public.users</text>
<text text-anchor="start" x="690.7229" y="-235.3" font-family="Arial" font-size="14.00" fill="#000000">    </text>
<text text-anchor="start" x="724.9277" y="-235.3" font-family="Arial" font-size="14.00" fill="#666666">[BASE TABLE]</text>
<polygon fill="none" stroke="#000000" points="580,-192.5 580,-222.5 833,-222.5 833,-192.5 580,-192.5"/>
<text text-anchor="start" x="587" y="-203.9" font-family="Arial" font-size="14.00" fill="#000000">id </text>
<text text-anchor="start" x="601.7798" y="-203.9" font-family="Arial" font-size="14.00" fill="#666666">[integer]</text>
<polygon fill="none" stroke="#000000" points="580,-162.5 580,-192.5 833,-192.5 833,-162.5 580,-162.5"/>
<text text-anchor="start" x="587" y="-173.9" font-family="Arial" font-size="14.00" fill="#000000">username </text>
<text text-anchor="start" x="653.1248" y="-173.9" font-family="Arial" font-size="14.00" fill="#666666">[varchar(50)]</text>
<polygon fill="none" stroke="#000000" points="580,-132.5 580,-162.5 833,-162.5 833,-132.5 580,-132.5"/>
<text text-anchor="start" x="587" y="-143.9" font-family="Arial" font-size="14.00" fill="#000000">password </text>
<text text-anchor="start" x="650.7882" y="-143.9" font-family="Arial" font-size="14.00" fill="#666666">[varchar(50)]</text>
<polygon fill="none" stroke="#000000" points="580,-102.5 580,-132.5 833,-132.5 833,-102.5 580,-102.5"/>
<text text-anchor="start" x="587" y="-113.9" font-family="Arial" font-size="14.00" fill="#000000">email </text>
<text text-anchor="start" x="624.3296" y="-113.9" font-family="Arial" font-size="14.00" fill="#666666">[varchar(355)]</text>
<polygon fill="none" stroke="#000000" points="580,-72.5 580,-102.5 833,-102.5 833,-72.5 580,-72.5"/>
<text text-anchor="start" x="587" y="-83.9" font-family="Arial" font-size="14.00" fill="#000000">created </text>
<text text-anchor="start" x="637.5722" y="-83.9" font-family="Arial" font-size="14.00" fill="#666666">[timestamp without time zone]</text>
<polygon fill="none" stroke="#000000" points="580,-42.5 580,-72.5 833,-72.5 833,-42.5 580,-42.5"/>
<text text-anchor="start" x="586.6915" y="-53.9" font-family="Arial" font-size="14.00" fill="#000000">updated </text>
<text text-anchor="start" x="641.1683" y="-53.9" font-family="Arial" font-size="14.00" fill="#666666">[timestamp without time zone]</text>
</g>
<!-- public.user_options -->
<g id="node2" class="node">
<title>public.user_options</title>
<polygon fill="#efefef" stroke="transparent" points="43,-559.5 43,-594.5 339,-594.5 339,-559.5 43,-559.5"/>
<polygon fill="none" stroke="#000000" points="43,-559.5 43,-594.5 339,-594.5 339,-559.5 43,-559.5"/>
<text text-anchor="start" x="49.6954" y="-572.3" font-family="Arial Bold" font-size="18.00" fill="#000000">public.user_options</text>
<text text-anchor="start" x="204.7366" y="-572.3" font-family="Arial" font-size="14.00" fill="#000000">    </text>
<text text-anchor="start" x="238.9414" y="-572.3" font-family="Arial" font-size="14.00" fill="#666666">[BASE TABLE]</text>
<polygon fill="none" stroke="#000000" points="43,-529.5 43,-559.5 339,-559.5 339,-529.5 43,-529.5"/>
<text text-anchor="start" x="50" y="-540.9" font-family="Arial" font-size="14.00" fill="#000000">user_id </text>
<text text-anchor="start" x="99.7882" y="-540.9" font-family="Arial" font-size="14.00" fill="#666666">[integer]</text>
<polygon fill="none" stroke="#000000" points="43,-499.5 43,-529.5 339,-529.5 339,-499.5 43,-499.5"/>
<text text-anchor="start" x="50" y="-510.9" font-family="Arial" font-size="14.00" fill="#000000">show_email </text>
<text text-anchor="start" x="127.784" y="-510.9" font-family="Arial" font-size="14.00" fill="#666666">[boolean]</text>
<polygon fill="none" stroke="#000000" points="43,-469.5 43,-499.5 339,-499.5 339,-469.5 43,-469.5"/>
<text text-anchor="start" x="50" y="-480.9" font-family="Arial" font-size="14.00" fill="#000000">created </text>
<text text-anchor="start" x="100.5722" y="-480.9" font-family="Arial" font-size="14.00" fill="#666666">[timestamp without time zone]</text>
<polygon fill="none" stroke="#000000" points="43,-439.5 43,-469.5 339,-469.5 339,-439.5 43,-439.5"/>
<text text-anchor="start" x="50" y="-450.9" font-family="Arial" font-size="14.00" fill="#000000">updated </text>
<text text-anchor="start" x="104.4768" y="-450.9" font-family="Arial" font-size="14.00" fill="#666666">[timestamp without time zone]</text>
</g>
<!-- public.user_options&#45;&gt;public.users -->
<g id="edge1" class="edge">
<title>public.user_options:user_id&#45;&gt;public.users:id</title>
<path fill="none" stroke="#000000" d="M349.3613,-543.919C427.5492,-534.4791 343.141,-412.1799 396,-337 453.5171,-255.1951 479.9988,-207.5 580,-207.5"/>
<polygon fill="#000000" stroke="#000000" points="348.9843,-543.9401 338.748,-540.0071 343.9922,-544.22 339,-544.5 339,-544.5 339,-544.5 343.9922,-544.22 339.252,-548.9929 348.9843,-543.9401 348.9843,-543.9401"/>
<text text-anchor="start" x="346.0535" y="-554.5" font-family="Arial" font-size="10.00" fill="#000000">FOREIGN KEY (user_id) REFERENCES users(id) ON DELETE CASCADE</text>
</g>
<!-- public.posts -->
<g id="node3" class="node">
<title>public.posts</title>
<polygon fill="#efefef" stroke="transparent" points="482,-619.5 482,-654.5 735,-654.5 735,-619.5 482,-619.5"/>
<polygon fill="none" stroke="#000000" points="482,-619.5 482,-654.5 735,-654.5 735,-619.5 482,-619.5"/>
<text text-anchor="start" x="497.2041" y="-632.3" font-family="Arial Bold" font-size="18.00" fill="#000000">public.posts</text>
<text text-anchor="start" x="592.2279" y="-632.3" font-family="Arial" font-size="14.00" fill="#000000">    </text>
<text text-anchor="start" x="626.4327" y="-632.3" font-family="Arial" font-size="14.00" fill="#666666">[BASE TABLE]</text>
<polygon fill="none" stroke="#000000" points="482,-589.5 482,-619.5 735,-619.5 735,-589.5 482,-589.5"/>
<text text-anchor="start" x="489" y="-600.9" font-family="Arial" font-size="14.00" fill="#000000">id </text>
<text text-anchor="start" x="503.7798" y="-600.9" font-family="Arial" font-size="14.00" fill="#666666">[bigint]</text>
<polygon fill="none" stroke="#000000" points="482,-559.5 482,-589.5 735,-589.5 735,-559.5 482,-559.5"/>
<text text-anchor="start" x="489" y="-570.9" font-family="Arial" font-size="14.00" fill="#000000">user_id </text>
<text text-anchor="start" x="538.7882" y="-570.9" font-family="Arial" font-size="14.00" fill="#666666">[integer]</text>
<polygon fill="none" stroke="#000000" points="482,-529.5 482,-559.5 735,-559.5 735,-529.5 482,-529.5"/>
<text text-anchor="start" x="489" y="-540.9" font-family="Arial" font-size="14.00" fill="#000000">title </text>
<text text-anchor="start" x="514.6676" y="-540.9" font-family="Arial" font-size="14.00" fill="#666666">[varchar(255)]</text>
<polygon fill="none" stroke="#000000" points="482,-499.5 482,-529.5 735,-529.5 735,-499.5 482,-499.5"/>
<text text-anchor="start" x="489" y="-510.9" font-family="Arial" font-size="14.00" fill="#000000">body </text>
<text text-anchor="start" x="523.2384" y="-510.9" font-family="Arial" font-size="14.00" fill="#666666">[text]</text>
<polygon fill="none" stroke="#000000" points="482,-469.5 482,-499.5 735,-499.5 735,-469.5 482,-469.5"/>
<text text-anchor="start" x="489" y="-480.9" font-family="Arial" font-size="14.00" fill="#000000">post_type </text>
<text text-anchor="start" x="553.5848" y="-480.9" font-family="Arial" font-size="14.00" fill="#666666">[post_types]</text>
<polygon fill="none" stroke="#000000" points="482,-439.5 482,-469.5 735,-469.5 735,-439.5 482,-439.5"/>
<text text-anchor="start" x="489" y="-450.9" font-family="Arial" font-size="14.00" fill="#000000">labels </text>
<text text-anchor="start" x="529.4516" y="-450.9" font-family="Arial" font-size="14.00" fill="#666666">[varchar(50)[]]</text>
<polygon fill="none" stroke="#000000" points="482,-409.5 482,-439.5 735,-439.5 735,-409.5 482,-409.5"/>
<text text-anchor="start" x="489" y="-420.9" font-family="Arial" font-size="14.00" fill="#000000">created </text>
<text text-anchor="start" x="539.5722" y="-420.9" font-family="Arial" font-size="14.00" fill="#666666">[timestamp without time zone]</text>
<polygon fill="none" stroke="#000000" points="482,-379.5 482,-409.5 735,-409.5 735,-379.5 482,-379.5"/>
<text text-anchor="start" x="488.6915" y="-390.9" font-family="Arial" font-size="14.00" fill="#000000">updated </text>
<text text-anchor="start" x="543.1683" y="-390.9" font-family="Arial" font-size="14.00" fill="#666666">[timestamp without time zone]</text>
</g>
<!-- public.posts&#45;&gt;public.users -->
<g id="edge2" class="edge">
<title>public.posts:user_id&#45;&gt;public.users:id</title>
<path fill="none" stroke="#000000" d="M744.8231,-571.862C784.99,-548.4029 765.5836,-375.501 735,-337 691.0107,-281.6229 623.9893,-356.3771 580,-301 554.1525,-268.4612 538.4444,-207.5 580,-207.5"/>
<polygon fill="#000000" stroke="#000000" points="744.6578,-571.9063 733.8328,-570.154 739.8289,-573.2031 735,-574.5 735,-574.5 735,-574.5 739.8289,-573.2031 736.1672,-578.846 744.6578,-571.9063 744.6578,-571.9063"/>
<text text-anchor="start" x="742.0535" y="-584.5" font-family="Arial" font-size="10.00" fill="#000000">FOREIGN KEY (user_id) REFERENCES users(id) ON DELETE CASCADE</text>
</g>
<!-- public.comments -->
<g id="node4" class="node">
<title>public.comments</title>
<polygon fill="#efefef" stroke="transparent" points="519,-956.5 519,-991.5 795,-991.5 795,-956.5 519,-956.5"/>
<polygon fill="none" stroke="#000000" points="519,-956.5 519,-991.5 795,-991.5 795,-956.5 519,-956.5"/>
<text text-anchor="start" x="525.7088" y="-969.3" font-family="Arial Bold" font-size="18.00" fill="#000000">public.comments</text>
<text text-anchor="start" x="660.7232" y="-969.3" font-family="Arial" font-size="14.00" fill="#000000">    </text>
<text text-anchor="start" x="694.928" y="-969.3" font-family="Arial" font-size="14.00" fill="#666666">[BASE TABLE]</text>
<polygon fill="none" stroke="#000000" points="519,-926.5 519,-956.5 795,-956.5 795,-926.5 519,-926.5"/>
<text text-anchor="start" x="526" y="-937.9" font-family="Arial" font-size="14.00" fill="#000000">id </text>
<text text-anchor="start" x="540.7798" y="-937.9" font-family="Arial" font-size="14.00" fill="#666666">[bigint]</text>
<polygon fill="none" stroke="#000000" points="519,-896.5 519,-926.5 795,-926.5 795,-896.5 519,-896.5"/>
<text text-anchor="start" x="526" y="-907.9" font-family="Arial" font-size="14.00" fill="#000000">post_id </text>
<text text-anchor="start" x="575.0182" y="-907.9" font-family="Arial" font-size="14.00" fill="#666666">[bigint]</text>
<polygon fill="none" stroke="#000000" points="519,-866.5 519,-896.5 795,-896.5 795,-866.5 519,-866.5"/>
<text text-anchor="start" x="526" y="-877.9" font-family="Arial" font-size="14.00" fill="#000000">user_id </text>
<text text-anchor="start" x="575.7882" y="-877.9" font-family="Arial" font-size="14.00" fill="#666666">[integer]</text>
<polygon fill="none" stroke="#000000" points="519,-836.5 519,-866.5 795,-866.5 795,-836.5 519,-836.5"/>
<text text-anchor="start" x="526" y="-847.9" font-family="Arial" font-size="14.00" fill="#000000">comment </text>
<text text-anchor="start" x="587.4502" y="-847.9" font-family="Arial" font-size="14.00" fill="#666666">[text]</text>
<polygon fill="none" stroke="#000000" points="519,-806.5 519,-836.5 795,-836.5 795,-806.5 519,-806.5"/>
<text text-anchor="start" x="526" y="-817.9" font-family="Arial" font-size="14.00" fill="#000000">created </text>
<text text-anchor="start" x="576.5722" y="-817.9" font-family="Arial" font-size="14.00" fill="#666666">[timestamp without time zone]</text>
<polygon fill="none" stroke="#000000" points="519,-776.5 519,-806.5 795,-806.5 795,-776.5 519,-776.5"/>
<text text-anchor="start" x="526" y="-787.9" font-family="Arial" font-size="14.00" fill="#000000">updated </text>
<text text-anchor="start" x="580.4768" y="-787.9" font-family="Arial" font-size="14.00" fill="#666666">[timestamp without time zone]</text>
</g>
<!-- public.comments&#45;&gt;public.users -->
<g id="edge3" class="edge">
<title>public.comments:user_id&#45;&gt;public.users:id</title>
<path fill="none" stroke="#000000" d="M802.0192,-873.9307C836.959,-799.8828 868.1599,-207.5 833,-207.5"/>
<polygon fill="#000000" stroke="#000000" points="801.7996,-874.1675 791.7004,-878.4402 798.3998,-877.8337 795,-881.5 795,-881.5 795,-881.5 798.3998,-877.8337 798.2996,-884.5598 801.7996,-874.1675 801.7996,-874.1675"/>
<text text-anchor="start" x="802.3345" y="-891.5" font-family="Arial" font-size="10.00" fill="#000000">FOREIGN KEY (user_id) REFERENCES users(id)</text>
</g>
<!-- public.comments&#45;&gt;public.posts -->
<g id="edge4" class="edge">
<title>public.comments:post_id&#45;&gt;public.posts:id</title>
<path fill="none" stroke="#000000" d="M509.0074,-910.8056C442.6641,-901.076 470.2988,-791.4898 519,-734 581.9079,-659.7397 672.0921,-772.2603 735,-698 761.8605,-666.2923 776.5556,-604.5 735,-604.5"/>
<polygon fill="#000000" stroke="#000000" points="509.0241,-910.8067 518.688,-915.9892 514.012,-911.1534 519,-911.5 519,-911.5 519,-911.5 514.012,-911.1534 519.312,-907.0108 509.0241,-910.8067 509.0241,-910.8067"/>
<text text-anchor="start" x="289.8845" y="-921.5" font-family="Arial" font-size="10.00" fill="#000000">FOREIGN KEY (post_id) REFERENCES posts(id)</text>
</g>
<!-- public.comment_stars -->
<g id="node5" class="node">
<title>public.comment_stars</title>
<polygon fill="#efefef" stroke="transparent" points="557,-1293.5 557,-1328.5 873,-1328.5 873,-1293.5 557,-1293.5"/>
<polygon fill="none" stroke="#000000" points="557,-1293.5 557,-1328.5 873,-1328.5 873,-1293.5 557,-1293.5"/>
<text text-anchor="start" x="563.7054" y="-1306.3" font-family="Arial Bold" font-size="18.00" fill="#000000">public.comment_stars</text>
<text text-anchor="start" x="738.7266" y="-1306.3" font-family="Arial" font-size="14.00" fill="#000000">    </text>
<text text-anchor="start" x="772.9314" y="-1306.3" font-family="Arial" font-size="14.00" fill="#666666">[BASE TABLE]</text>
<polygon fill="none" stroke="#000000" points="557,-1263.5 557,-1293.5 873,-1293.5 873,-1263.5 557,-1263.5"/>
<text text-anchor="start" x="564" y="-1274.9" font-family="Arial" font-size="14.00" fill="#000000">id </text>
<text text-anchor="start" x="578.7798" y="-1274.9" font-family="Arial" font-size="14.00" fill="#666666">[uuid]</text>
<polygon fill="none" stroke="#000000" points="557,-1233.5 557,-1263.5 873,-1263.5 873,-1233.5 557,-1233.5"/>
<text text-anchor="start" x="564" y="-1244.9" font-family="Arial" font-size="14.00" fill="#000000">user_id </text>
<text text-anchor="start" x="613.7882" y="-1244.9" font-family="Arial" font-size="14.00" fill="#666666">[integer]</text>
<polygon fill="none" stroke="#000000" points="557,-1203.5 557,-1233.5 873,-1233.5 873,-1203.5 557,-1203.5"/>
<text text-anchor="start" x="564" y="-1214.9" font-family="Arial" font-size="14.00" fill="#000000">comment_post_id </text>
<text text-anchor="start" x="678.3604" y="-1214.9" font-family="Arial" font-size="14.00" fill="#666666">[bigint]</text>
<polygon fill="none" stroke="#000000" points="557,-1173.5 557,-1203.5 873,-1203.5 873,-1173.5 557,-1173.5"/>
<text text-anchor="start" x="564" y="-1184.9" font-family="Arial" font-size="14.00" fill="#000000">comment_user_id </text>
<text text-anchor="start" x="679.1304" y="-1184.9" font-family="Arial" font-size="14.00" fill="#666666">[integer]</text>
<polygon fill="none" stroke="#000000" points="557,-1143.5 557,-1173.5 873,-1173.5 873,-1143.5 557,-1143.5"/>
<text text-anchor="start" x="564" y="-1154.9" font-family="Arial" font-size="14.00" fill="#000000">created </text>
<text text-anchor="start" x="614.5722" y="-1154.9" font-family="Arial" font-size="14.00" fill="#666666">[timestamp without time zone]</text>
<polygon fill="none" stroke="#000000" points="557,-1113.5 557,-1143.5 873,-1143.5 873,-1113.5 557,-1113.5"/>
<text text-anchor="start" x="564" y="-1124.9" font-family="Arial" font-size="14.00" fill="#000000">updated </text>
<text text-anchor="start" x="618.4768" y="-1124.9" font-family="Arial" font-size="14.00" fill="#666666">[timestamp without time zone]</text>
</g>
<!-- public.comment_stars&#45;&gt;public.users -->
<g id="edge5" class="edge">
<title>public.comment_stars:comment_user_id&#45;&gt;public.users:id</title>
<path fill="none" stroke="#000000" d="M877.0594,-1179.1053C895.7055,-1078.7117 858.7013,-207.5 833,-207.5"/>
<polygon fill="#000000" stroke="#000000" points="876.9666,-1179.3203 868.8691,-1186.715 874.9833,-1183.9102 873,-1188.5 873,-1188.5 873,-1188.5 874.9833,-1183.9102 877.1309,-1190.285 876.9666,-1179.3203 876.9666,-1179.3203"/>
<text text-anchor="start" x="879.998" y="-1198.5" font-family="Arial" font-size="10.00" fill="#000000">FOREIGN KEY (comment_user_id) REFERENCES users(id)</text>
</g>
<!-- public.comment_stars&#45;&gt;public.comments -->
<g id="edge6" class="edge">
<title>public.comment_stars:comment_post_id&#45;&gt;public.comments:post_id</title>
<path fill="none" stroke="#000000" d="M547.0264,-1217.6464C493.9986,-1207.947 516.5897,-1117.9824 557,-1071 626.7612,-989.8932 725.2388,-1116.1068 795,-1035 830.7925,-993.3864 849.8889,-911.5 795,-911.5"/>
<polygon fill="#000000" stroke="#000000" points="547.0364,-1217.6472 556.6162,-1222.9836 552.0182,-1218.0736 557,-1218.5 557,-1218.5 557,-1218.5 552.0182,-1218.0736 557.3838,-1214.0164 547.0364,-1217.6472 547.0364,-1217.6472"/>
<text text-anchor="start" x="111.533" y="-1228.5" font-family="Arial" font-size="10.00" fill="#000000">FOREIGN KEY (comment_post_id, comment_user_id) REFERENCES comments(post_id, user_id)</text>
</g>
<!-- public.logs -->
<g id="node6" class="node">
<title>public.logs</title>
<polygon fill="#efefef" stroke="transparent" points="342,-1660.5 342,-1695.5 591,-1695.5 591,-1660.5 342,-1660.5"/>
<polygon fill="none" stroke="#000000" points="342,-1660.5 342,-1695.5 591,-1695.5 591,-1660.5 342,-1660.5"/>
<text text-anchor="start" x="360.2081" y="-1673.3" font-family="Arial Bold" font-size="18.00" fill="#000000">public.logs</text>
<text text-anchor="start" x="445.2239" y="-1673.3" font-family="Arial" font-size="14.00" fill="#000000">    </text>
<text text-anchor="start" x="479.4287" y="-1673.3" font-family="Arial" font-size="14.00" fill="#666666">[BASE TABLE]</text>
<polygon fill="none" stroke="#000000" points="342,-1630.5 342,-1660.5 591,-1660.5 591,-1630.5 342,-1630.5"/>
<text text-anchor="start" x="349" y="-1641.9" font-family="Arial" font-size="14.00" fill="#000000">id </text>
<text text-anchor="start" x="363.7798" y="-1641.9" font-family="Arial" font-size="14.00" fill="#666666">[uuid]</text>
<polygon fill="none" stroke="#000000" points="342,-1600.5 342,-1630.5 591,-1630.5 591,-1600.5 342,-1600.5"/>
<text text-anchor="start" x="349" y="-1611.9" font-family="Arial" font-size="14.00" fill="#000000">user_id </text>
<text text-anchor="start" x="398.7882" y="-1611.9" font-family="Arial" font-size="14.00" fill="#666666">[integer]</text>
<polygon fill="none" stroke="#000000" points="342,-1570.5 342,-1600.5 591,-1600.5 591,-1570.5 342,-1570.5"/>
<text text-anchor="start" x="349" y="-1581.9" font-family="Arial" font-size="14.00" fill="#000000">post_id </text>
<text text-anchor="start" x="398.0182" y="-1581.9" font-family="Arial" font-size="14.00" fill="#666666">[bigint]</text>
<polygon fill="none" stroke="#000000" points="342,-1540.5 342,-1570.5 591,-1570.5 591,-1540.5 342,-1540.5"/>
<text text-anchor="start" x="349" y="-1551.9" font-family="Arial" font-size="14.00" fill="#000000">comment_id </text>
<text text-anchor="start" x="429.122" y="-1551.9" font-family="Arial" font-size="14.00" fill="#666666">[bigint]</text>
<polygon fill="none" stroke="#000000" points="342,-1510.5 342,-1540.5 591,-1540.5 591,-1510.5 342,-1510.5"/>
<text text-anchor="start" x="349" y="-1521.9" font-family="Arial" font-size="14.00" fill="#000000">comment_star_id </text>
<text text-anchor="start" x="460.2384" y="-1521.9" font-family="Arial" font-size="14.00" fill="#666666">[uuid]</text>
<polygon fill="none" stroke="#000000" points="342,-1480.5 342,-1510.5 591,-1510.5 591,-1480.5 342,-1480.5"/>
<text text-anchor="start" x="349" y="-1491.9" font-family="Arial" font-size="14.00" fill="#000000">payload </text>
<text text-anchor="start" x="401.9102" y="-1491.9" font-family="Arial" font-size="14.00" fill="#666666">[text]</text>
<polygon fill="none" stroke="#000000" points="342,-1450.5 342,-1480.5 591,-1480.5 591,-1450.5 342,-1450.5"/>
<text text-anchor="start" x="348.6438" y="-1461.9" font-family="Arial" font-size="14.00" fill="#000000">created </text>
<text text-anchor="start" x="399.216" y="-1461.9" font-family="Arial" font-size="14.00" fill="#666666">[timestamp without time zone]</text>
</g>
<!-- public.logs&#45;&gt;public.users -->
<g id="edge12" class="edge">
<title>public.logs:user_id&#45;&gt;public.users:id</title>
<path fill="none" stroke="#000000" stroke-dasharray="5,2" d="M332.0041,-1614.9802C256.5614,-1606.5234 338.4095,-1496.547 342,-1408 343.2093,-1378.1765 415.443,-363.5915 429,-337 469.1565,-258.2345 491.5888,-207.5 580,-207.5"/>
<polygon fill="#000000" stroke="#000000" points="332.0135,-1614.9806 341.7663,-1619.9939 337.0067,-1615.2403 342,-1615.5 342,-1615.5 342,-1615.5 337.0067,-1615.2403 342.2337,-1611.0061 332.0135,-1614.9806 332.0135,-1614.9806"/>
<text text-anchor="start" x="284.024" y="-1625.5" font-family="Arial" font-size="10.00" fill="#000000">logs&#45;&gt;users</text>
</g>
<!-- public.logs&#45;&gt;public.posts -->
<g id="edge13" class="edge">
<title>public.logs:post_id&#45;&gt;public.posts:id</title>
<path fill="none" stroke="#000000" stroke-dasharray="5,2" d="M331.6509,-1584.7815C266.479,-1575.1513 300.8846,-1470.954 342,-1408 363.7643,-1374.6756 401.127,-1404.5733 424,-1372 473.1464,-1302.011 396.4791,-604.5 482,-604.5"/>
<polygon fill="#000000" stroke="#000000" points="332.024,-1584.8073 341.6883,-1589.9892 337.012,-1585.1537 342,-1585.5 342,-1585.5 342,-1585.5 337.012,-1585.1537 342.3117,-1581.0108 332.024,-1584.8073 332.024,-1584.8073"/>
<text text-anchor="start" x="252.3245" y="-1595.5" font-family="Arial" font-size="10.00" fill="#000000">Additional Relation</text>
</g>
<!-- public.logs&#45;&gt;public.comments -->
<g id="edge14" class="edge">
<title>public.logs:comment_id&#45;&gt;public.comments:id</title>
<path fill="none" stroke="#000000" stroke-dasharray="5,2" d="M601.2429,-1554.6295C653.2208,-1545.0964 625.2616,-1459.4843 591,-1408 568.0439,-1373.5043 527.9561,-1406.4957 505,-1372 478.4857,-1332.1573 471.1414,-941.5 519,-941.5"/>
<polygon fill="#000000" stroke="#000000" points="600.9641,-1554.6531 590.6189,-1551.0162 595.982,-1555.0766 591,-1555.5 591,-1555.5 591,-1555.5 595.982,-1555.0766 591.3811,-1559.9838 600.9641,-1554.6531 600.9641,-1554.6531"/>
<text text-anchor="start" x="598.3245" y="-1565.5" font-family="Arial" font-size="10.00" fill="#000000">Additional Relation</text>
</g>
<!-- public.logs&#45;&gt;public.comment_stars -->
<g id="edge15" class="edge">
<title>public.logs:comment_star_id&#45;&gt;public.comment_stars:id</title>
<path fill="none" stroke="#000000" stroke-dasharray="5,2" d="M601.2608,-1524.3968C638.4095,-1515.3745 608.8616,-1452.9259 591,-1408 582.8692,-1387.5492 565.1308,-1392.4508 557,-1372 541.6473,-1333.3845 515.4444,-1278.5 557,-1278.5"/>
<polygon fill="#000000" stroke="#000000" points="600.9427,-1524.4309 590.5189,-1521.0258 595.9713,-1524.9654 591,-1525.5 591,-1525.5 591,-1525.5 595.9713,-1524.9654 591.4811,-1529.9742 600.9427,-1524.4309 600.9427,-1524.4309"/>
<text text-anchor="start" x="598.3245" y="-1535.5" font-family="Arial" font-size="10.00" fill="#000000">Additional Relation</text>
</g>
<!-- public.post_comments -->
<g id="node7" class="node">
<title>public.post_comments</title>
<polygon fill="#efefef" stroke="transparent" points="695,-1660.5 695,-1695.5 965,-1695.5 965,-1660.5 695,-1660.5"/>
<polygon fill="none" stroke="#000000" points="695,-1660.5 695,-1695.5 965,-1695.5 965,-1660.5 695,-1660.5"/>
<text text-anchor="start" x="701.6002" y="-1673.3" font-family="Arial Bold" font-size="18.00" fill="#000000">public.post_comments</text>
<text text-anchor="start" x="880.6354" y="-1673.3" font-family="Arial" font-size="14.00" fill="#000000">    </text>
<text text-anchor="start" x="914.8402" y="-1673.3" font-family="Arial" font-size="14.00" fill="#666666">[VIEW]</text>
<polygon fill="none" stroke="#000000" points="695,-1630.5 695,-1660.5 965,-1660.5 965,-1630.5 695,-1630.5"/>
<text text-anchor="start" x="702" y="-1641.9" font-family="Arial" font-size="14.00" fill="#000000">id </text>
<text text-anchor="start" x="716.7798" y="-1641.9" font-family="Arial" font-size="14.00" fill="#666666">[bigint]</text>
<polygon fill="none" stroke="#000000" points="695,-1600.5 695,-1630.5 965,-1630.5 965,-1600.5 695,-1600.5"/>
<text text-anchor="start" x="702" y="-1611.9" font-family="Arial" font-size="14.00" fill="#000000">title </text>
<text text-anchor="start" x="727.6676" y="-1611.9" font-family="Arial" font-size="14.00" fill="#666666">[varchar(255)]</text>
<polygon fill="none" stroke="#000000" points="695,-1570.5 695,-1600.5 965,-1600.5 965,-1570.5 695,-1570.5"/>
<text text-anchor="start" x="702" y="-1581.9" font-family="Arial" font-size="14.00" fill="#000000">post_user </text>
<text text-anchor="start" x="767.3548" y="-1581.9" font-family="Arial" font-size="14.00" fill="#666666">[varchar(50)]</text>
<polygon fill="none" stroke="#000000" points="695,-1540.5 695,-1570.5 965,-1570.5 965,-1540.5 695,-1540.5"/>
<text text-anchor="start" x="702" y="-1551.9" font-family="Arial" font-size="14.00" fill="#000000">comment </text>
<text text-anchor="start" x="763.4502" y="-1551.9" font-family="Arial" font-size="14.00" fill="#666666">[text]</text>
<polygon fill="none" stroke="#000000" points="695,-1510.5 695,-1540.5 965,-1540.5 965,-1510.5 695,-1510.5"/>
<text text-anchor="start" x="702" y="-1521.9" font-family="Arial" font-size="14.00" fill="#000000">comment_user </text>
<text text-anchor="start" x="798.4586" y="-1521.9" font-family="Arial" font-size="14.00" fill="#666666">[varchar(50)]</text>
<polygon fill="none" stroke="#000000" points="695,-1480.5 695,-1510.5 965,-1510.5 965,-1480.5 695,-1480.5"/>
<text text-anchor="start" x="702" y="-1491.9" font-family="Arial" font-size="14.00" fill="#000000">created </text>
<text text-anchor="start" x="752.5722" y="-1491.9" font-family="Arial" font-size="14.00" fill="#666666">[timestamp without time zone]</text>
<polygon fill="none" stroke="#000000" points="695,-1450.5 695,-1480.5 965,-1480.5 965,-1450.5 695,-1450.5"/>
<text text-anchor="start" x="702" y="-1461.9" font-family="Arial" font-size="14.00" fill="#000000">updated </text>
<text text-anchor="start" x="756.4768" y="-1461.9" font-family="Arial" font-size="14.00" fill="#666666">[timestamp without time zone]</text>
</g>
<!-- public.post_comment_stars -->
<g id="node8" class="node">
<title>public.post_comment_stars</title>
<polygon fill="#efefef" stroke="transparent" points="1069,-1630.5 1069,-1665.5 1485,-1665.5 1485,-1630.5 1069,-1630.5"/>
<polygon fill="none" stroke="#000000" points="1069,-1630.5 1069,-1665.5 1485,-1665.5 1485,-1630.5 1069,-1630.5"/>
<text text-anchor="start" x="1075.7069" y="-1643.3" font-family="Arial Bold" font-size="18.00" fill="#000000">public.post_comment_stars</text>
<text text-anchor="start" x="1294.7489" y="-1643.3" font-family="Arial" font-size="14.00" fill="#000000">    </text>
<text text-anchor="start" x="1328.9537" y="-1643.3" font-family="Arial" font-size="14.00" fill="#666666">[MATERIALIZED VIEW]</text>
<polygon fill="none" stroke="#000000" points="1069,-1600.5 1069,-1630.5 1485,-1630.5 1485,-1600.5 1069,-1600.5"/>
<text text-anchor="start" x="1076" y="-1611.9" font-family="Arial" font-size="14.00" fill="#000000">id </text>
<text text-anchor="start" x="1090.7798" y="-1611.9" font-family="Arial" font-size="14.00" fill="#666666">[uuid]</text>
<polygon fill="none" stroke="#000000" points="1069,-1570.5 1069,-1600.5 1485,-1600.5 1485,-1570.5 1069,-1570.5"/>
<text text-anchor="start" x="1076" y="-1581.9" font-family="Arial" font-size="14.00" fill="#000000">comment_user </text>
<text text-anchor="start" x="1172.4586" y="-1581.9" font-family="Arial" font-size="14.00" fill="#666666">[varchar(50)]</text>
<polygon fill="none" stroke="#000000" points="1069,-1540.5 1069,-1570.5 1485,-1570.5 1485,-1540.5 1069,-1540.5"/>
<text text-anchor="start" x="1076" y="-1551.9" font-family="Arial" font-size="14.00" fill="#000000">comment_star_user </text>
<text text-anchor="start" x="1203.575" y="-1551.9" font-family="Arial" font-size="14.00" fill="#666666">[varchar(50)]</text>
<polygon fill="none" stroke="#000000" points="1069,-1510.5 1069,-1540.5 1485,-1540.5 1485,-1510.5 1069,-1510.5"/>
<text text-anchor="start" x="1076" y="-1521.9" font-family="Arial" font-size="14.00" fill="#000000">created </text>
<text text-anchor="start" x="1126.5722" y="-1521.9" font-family="Arial" font-size="14.00" fill="#666666">[timestamp without time zone]</text>
<polygon fill="none" stroke="#000000" points="1069,-1480.5 1069,-1510.5 1485,-1510.5 1485,-1480.5 1069,-1480.5"/>
<text text-anchor="start" x="1076" y="-1491.9" font-family="Arial" font-size="14.00" fill="#000000">updated </text>
<text text-anchor="start" x="1130.4768" y="-1491.9" font-family="Arial" font-size="14.00" fill="#666666">[timestamp without time zone]</text>
</g>
<!-- public.CamelizeTable -->
<g id="node9" class="node">
<title>public.CamelizeTable</title>
<polygon fill="#efefef" stroke="transparent" points="1582,-1233.5 1582,-1268.5 1895,-1268.5 1895,-1233.5 1582,-1233.5"/>
<polygon fill="none" stroke="#000000" points="1582,-1233.5 1582,-1268.5 1895,-1268.5 1895,-1233.5 1582,-1233.5"/>
<text text-anchor="start" x="1588.7102" y="-1246.3" font-family="Arial Bold" font-size="18.00" fill="#000000">public.CamelizeTable</text>
<text text-anchor="start" x="1760.7218" y="-1246.3" font-family="Arial" font-size="14.00" fill="#000000">    </text>
<text text-anchor="start" x="1794.9266" y="-1246.3" font-family="Arial" font-size="14.00" fill="#666666">[BASE TABLE]</text>
<polygon fill="none" stroke="#000000" points="1582,-1203.5 1582,-1233.5 1895,-1233.5 1895,-1203.5 1582,-1203.5"/>
<text text-anchor="start" x="1589" y="-1214.9" font-family="Arial" font-size="14.00" fill="#000000">id </text>
<text text-anchor="start" x="1603.7798" y="-1214.9" font-family="Arial" font-size="14.00" fill="#666666">[uuid]</text>
<polygon fill="none" stroke="#000000" points="1582,-1173.5 1582,-1203.5 1895,-1203.5 1895,-1173.5 1582,-1173.5"/>
<text text-anchor="start" x="1589" y="-1184.9" font-family="Arial" font-size="14.00" fill="#000000">created </text>
<text text-anchor="start" x="1639.5722" y="-1184.9" font-family="Arial" font-size="14.00" fill="#666666">[timestamp without time zone]</text>
</g>
<!-- public.hyphen&#45;table -->
<g id="node10" class="node">
<title>public.hyphen&#45;table</title>
<polygon fill="#efefef" stroke="transparent" points="1590,-1615.5 1590,-1650.5 1887,-1650.5 1887,-1615.5 1590,-1615.5"/>
<polygon fill="none" stroke="#000000" points="1590,-1615.5 1590,-1650.5 1887,-1650.5 1887,-1615.5 1590,-1615.5"/>
<text text-anchor="start" x="1596.6923" y="-1628.3" font-family="Arial Bold" font-size="18.00" fill="#000000">public.hyphen&#45;table</text>
<text text-anchor="start" x="1752.7397" y="-1628.3" font-family="Arial" font-size="14.00" fill="#000000">    </text>
<text text-anchor="start" x="1786.9445" y="-1628.3" font-family="Arial" font-size="14.00" fill="#666666">[BASE TABLE]</text>
<polygon fill="none" stroke="#000000" points="1590,-1585.5 1590,-1615.5 1887,-1615.5 1887,-1585.5 1590,-1585.5"/>
<text text-anchor="start" x="1597" y="-1596.9" font-family="Arial" font-size="14.00" fill="#000000">id </text>
<text text-anchor="start" x="1611.7798" y="-1596.9" font-family="Arial" font-size="14.00" fill="#666666">[uuid]</text>
<polygon fill="none" stroke="#000000" points="1590,-1555.5 1590,-1585.5 1887,-1585.5 1887,-1555.5 1590,-1555.5"/>
<text text-anchor="start" x="1597" y="-1566.9" font-family="Arial" font-size="14.00" fill="#000000">hyphen&#45;column </text>
<text text-anchor="start" x="1696.5792" y="-1566.9" font-family="Arial" font-size="14.00" fill="#666666">[text]</text>
<polygon fill="none" stroke="#000000" points="1590,-1525.5 1590,-1555.5 1887,-1555.5 1887,-1525.5 1590,-1525.5"/>
<text text-anchor="start" x="1597" y="-1536.9" font-family="Arial" font-size="14.00" fill="#000000">CamelizeTableId </text>
<text text-anchor="start" x="1705.899" y="-1536.9" font-family="Arial" font-size="14.00" fill="#666666">[uuid]</text>
<polygon fill="none" stroke="#000000" points="1590,-1495.5 1590,-1525.5 1887,-1525.5 1887,-1495.5 1590,-1495.5"/>
<text text-anchor="start" x="1597" y="-1506.9" font-family="Arial" font-size="14.00" fill="#000000">created </text>
<text text-anchor="start" x="1647.5722" y="-1506.9" font-family="Arial" font-size="14.00" fill="#666666">[timestamp without time zone]</text>
</g>
<!-- public.hyphen&#45;table&#45;&gt;public.CamelizeTable -->
<g id="edge7" class="edge">
<title>public.hyphen&#45;table:CamelizeTableId&#45;&gt;public.CamelizeTable:id</title>
<path fill="none" stroke="#000000" d="M1581.7624,-1534.3552C1553.1933,-1489.8387 1549.147,-1218.5 1582,-1218.5"/>
<polygon fill="#000000" stroke="#000000" points="1581.9844,-1534.5207 1587.3093,-1544.107 1585.9922,-1537.5104 1590,-1540.5 1590,-1540.5 1590,-1540.5 1585.9922,-1537.5104 1592.6907,-1536.893 1581.9844,-1534.5207 1581.9844,-1534.5207"/>
<text text-anchor="start" x="1150.734" y="-1550.5" font-family="Arial" font-size="10.00" fill="#000000">FOREIGN KEY (&quot;CamelizeTableId&quot;) REFERENCES &quot;CamelizeTable&quot;(id) ON DELETE CASCADE</text>
</g>
<!-- administrator.blogs -->
<g id="node11" class="node">
<title>administrator.blogs</title>
<polygon fill="#efefef" stroke="transparent" points="938,-589.5 938,-624.5 1231,-624.5 1231,-589.5 938,-589.5"/>
<polygon fill="none" stroke="#000000" points="938,-589.5 938,-624.5 1231,-624.5 1231,-589.5 938,-589.5"/>
<text text-anchor="start" x="944.7083" y="-602.3" font-family="Arial Bold" font-size="18.00" fill="#000000">administrator.blogs</text>
<text text-anchor="start" x="1096.7237" y="-602.3" font-family="Arial" font-size="14.00" fill="#000000">    </text>
<text text-anchor="start" x="1130.9285" y="-602.3" font-family="Arial" font-size="14.00" fill="#666666">[BASE TABLE]</text>
<polygon fill="none" stroke="#000000" points="938,-559.5 938,-589.5 1231,-589.5 1231,-559.5 938,-559.5"/>
<text text-anchor="start" x="945" y="-570.9" font-family="Arial" font-size="14.00" fill="#000000">id </text>
<text text-anchor="start" x="959.7798" y="-570.9" font-family="Arial" font-size="14.00" fill="#666666">[integer]</text>
<polygon fill="none" stroke="#000000" points="938,-529.5 938,-559.5 1231,-559.5 1231,-529.5 938,-529.5"/>
<text text-anchor="start" x="945" y="-540.9" font-family="Arial" font-size="14.00" fill="#000000">user_id </text>
<text text-anchor="start" x="994.7882" y="-540.9" font-family="Arial" font-size="14.00" fill="#666666">[integer]</text>
<polygon fill="none" stroke="#000000" points="938,-499.5 938,-529.5 1231,-529.5 1231,-499.5 938,-499.5"/>
<text text-anchor="start" x="945" y="-510.9" font-family="Arial" font-size="14.00" fill="#000000">name </text>
<text text-anchor="start" x="983.899" y="-510.9" font-family="Arial" font-size="14.00" fill="#666666">[text]</text>
<polygon fill="none" stroke="#000000" points="938,-469.5 938,-499.5 1231,-499.5 1231,-469.5 938,-469.5"/>
<text text-anchor="start" x="945" y="-480.9" font-family="Arial" font-size="14.00" fill="#000000">description </text>
<text text-anchor="start" x="1016.568" y="-480.9" font-family="Arial" font-size="14.00" fill="#666666">[text]</text>
<polygon fill="none" stroke="#000000" points="938,-439.5 938,-469.5 1231,-469.5 1231,-439.5 938,-439.5"/>
<text text-anchor="start" x="945" y="-450.9" font-family="Arial" font-size="14.00" fill="#000000">created </text>
<text text-anchor="start" x="995.5722" y="-450.9" font-family="Arial" font-size="14.00" fill="#666666">[timestamp without time zone]</text>
<polygon fill="none" stroke="#000000" points="938,-409.5 938,-439.5 1231,-439.5 1231,-409.5 938,-409.5"/>
<text text-anchor="start" x="945" y="-420.9" font-family="Arial" font-size="14.00" fill="#000000">updated </text>
<text text-anchor="start" x="999.4768" y="-420.9" font-family="Arial" font-size="14.00" fill="#666666">[timestamp without time zone]</text>
</g>
<!-- administrator.blogs&#45;&gt;public.users -->
<g id="edge8" class="edge">
<title>administrator.blogs:user_id&#45;&gt;public.users:id</title>
<path fill="none" stroke="#000000" d="M928.1943,-542.5209C863.9583,-514.9027 907.9161,-207.5 833,-207.5"/>
<polygon fill="#000000" stroke="#000000" points="928.1977,-542.5215 937.1097,-548.9111 933.0988,-543.5108 938,-544.5 938,-544.5 938,-544.5 933.0988,-543.5108 938.8903,-540.0889 928.1977,-542.5215 928.1977,-542.5215"/>
<text text-anchor="start" x="684.8035" y="-528.5" font-family="Arial" font-size="10.00" fill="#000000">FOREIGN KEY (user_id) REFERENCES users(id) ON DELETE CASCADE</text>
</g>
<!-- backup.blogs -->
<g id="node12" class="node">
<title>backup.blogs</title>
<polygon fill="#efefef" stroke="transparent" points="2017,-1278.5 2017,-1313.5 2270,-1313.5 2270,-1278.5 2017,-1278.5"/>
<polygon fill="none" stroke="#000000" points="2017,-1278.5 2017,-1313.5 2270,-1313.5 2270,-1278.5 2017,-1278.5"/>
<text text-anchor="start" x="2026.6961" y="-1291.3" font-family="Arial Bold" font-size="18.00" fill="#000000">backup.blogs</text>
<text text-anchor="start" x="2132.7359" y="-1291.3" font-family="Arial" font-size="14.00" fill="#000000">    </text>
<text text-anchor="start" x="2166.9407" y="-1291.3" font-family="Arial" font-size="14.00" fill="#666666">[BASE TABLE]</text>
<polygon fill="none" stroke="#000000" points="2017,-1248.5 2017,-1278.5 2270,-1278.5 2270,-1248.5 2017,-1248.5"/>
<text text-anchor="start" x="2024" y="-1259.9" font-family="Arial" font-size="14.00" fill="#000000">id </text>
<text text-anchor="start" x="2038.7798" y="-1259.9" font-family="Arial" font-size="14.00" fill="#666666">[integer]</text>
<polygon fill="none" stroke="#000000" points="2017,-1218.5 2017,-1248.5 2270,-1248.5 2270,-1218.5 2017,-1218.5"/>
<text text-anchor="start" x="2024" y="-1229.9" font-family="Arial" font-size="14.00" fill="#000000">user_id </text>
<text text-anchor="start" x="2073.7882" y="-1229.9" font-family="Arial" font-size="14.00" fill="#666666">[integer]</text>
<polygon fill="none" stroke="#000000" points="2017,-1188.5 2017,-1218.5 2270,-1218.5 2270,-1188.5 2017,-1188.5"/>
<text text-anchor="start" x="2024" y="-1199.9" font-family="Arial" font-size="14.00" fill="#000000">dump </text>
<text text-anchor="start" x="2062.899" y="-1199.9" font-family="Arial" font-size="14.00" fill="#666666">[text]</text>
<polygon fill="none" stroke="#000000" points="2017,-1158.5 2017,-1188.5 2270,-1188.5 2270,-1158.5 2017,-1158.5"/>
<text text-anchor="start" x="2024" y="-1169.9" font-family="Arial" font-size="14.00" fill="#000000">created </text>
<text text-anchor="start" x="2074.5722" y="-1169.9" font-family="Arial" font-size="14.00" fill="#666666">[timestamp without time zone]</text>
<polygon fill="none" stroke="#000000" points="2017,-1128.5 2017,-1158.5 2270,-1158.5 2270,-1128.5 2017,-1128.5"/>
<text text-anchor="start" x="2023.6915" y="-1139.9" font-family="Arial" font-size="14.00" fill="#000000">updated </text>
<text text-anchor="start" x="2078.1683" y="-1139.9" font-family="Arial" font-size="14.00" fill="#666666">[timestamp without time zone]</text>
</g>
<!-- backup.blog_options -->
<g id="node13" class="node">
<title>backup.blog_options</title>
<polygon fill="#efefef" stroke="transparent" points="1991,-1615.5 1991,-1650.5 2297,-1650.5 2297,-1615.5 1991,-1615.5"/>
<polygon fill="none" stroke="#000000" points="1991,-1615.5 1991,-1650.5 2297,-1650.5 2297,-1615.5 1991,-1615.5"/>
<text text-anchor="start" x="1997.6824" y="-1628.3" font-family="Arial Bold" font-size="18.00" fill="#000000">backup.blog_options</text>
<text text-anchor="start" x="2162.7496" y="-1628.3" font-family="Arial" font-size="14.00" fill="#000000">    </text>
<text text-anchor="start" x="2196.9544" y="-1628.3" font-family="Arial" font-size="14.00" fill="#666666">[BASE TABLE]</text>
<polygon fill="none" stroke="#000000" points="1991,-1585.5 1991,-1615.5 2297,-1615.5 2297,-1585.5 1991,-1585.5"/>
<text text-anchor="start" x="1998" y="-1596.9" font-family="Arial" font-size="14.00" fill="#000000">id </text>
<text text-anchor="start" x="2012.7798" y="-1596.9" font-family="Arial" font-size="14.00" fill="#666666">[integer]</text>
<polygon fill="none" stroke="#000000" points="1991,-1555.5 1991,-1585.5 2297,-1585.5 2297,-1555.5 1991,-1555.5"/>
<text text-anchor="start" x="1998" y="-1566.9" font-family="Arial" font-size="14.00" fill="#000000">blog_id </text>
<text text-anchor="start" x="2047.0168" y="-1566.9" font-family="Arial" font-size="14.00" fill="#666666">[integer]</text>
<polygon fill="none" stroke="#000000" points="1991,-1525.5 1991,-1555.5 2297,-1555.5 2297,-1525.5 1991,-1525.5"/>
<text text-anchor="start" x="1998" y="-1536.9" font-family="Arial" font-size="14.00" fill="#000000">label </text>
<text text-anchor="start" x="2031.4516" y="-1536.9" font-family="Arial" font-size="14.00" fill="#666666">[text]</text>
<polygon fill="none" stroke="#000000" points="1991,-1495.5 1991,-1525.5 2297,-1525.5 2297,-1495.5 1991,-1495.5"/>
<text text-anchor="start" x="1998" y="-1506.9" font-family="Arial" font-size="14.00" fill="#000000">updated </text>
<text text-anchor="start" x="2052.4768" y="-1506.9" font-family="Arial" font-size="14.00" fill="#666666">[timestamp without time zone]</text>
</g>
<!-- backup.blog_options&#45;&gt;backup.blogs -->
<g id="edge9" class="edge">
<title>backup.blog_options:blog_id&#45;&gt;backup.blogs:id</title>
<path fill="none" stroke="#000000" d="M1980.5703,-1569.3047C1942.0739,-1559.5478 1962.9209,-1492.3565 1991,-1453 2067.1621,-1346.249 2193.8379,-1463.751 2270,-1357 2294.1351,-1323.1716 2311.5556,-1263.5 2270,-1263.5"/>
<polygon fill="#000000" stroke="#000000" points="1981.065,-1569.3613 1990.4876,-1574.9707 1986.0325,-1569.9307 1991,-1570.5 1991,-1570.5 1991,-1570.5 1986.0325,-1569.9307 1991.5124,-1566.0293 1981.065,-1569.3613 1981.065,-1569.3613"/>
<text text-anchor="start" x="1651.6045" y="-1580.5" font-family="Arial" font-size="10.00" fill="#000000">FOREIGN KEY (blog_id) REFERENCES blogs(id) ON DELETE CASCADE</text>
</g>
<!-- time.bar -->
<g id="node14" class="node">
<title>time.bar</title>
<polygon fill="#efefef" stroke="transparent" points="2374,-1218.5 2374,-1253.5 2580,-1253.5 2580,-1218.5 2374,-1218.5"/>
<polygon fill="none" stroke="#000000" points="2374,-1218.5 2374,-1253.5 2580,-1253.5 2580,-1218.5 2374,-1218.5"/>
<text text-anchor="start" x="2380.7152" y="-1231.3" font-family="Arial Bold" font-size="18.00" fill="#000000">time.bar</text>
<text text-anchor="start" x="2445.7168" y="-1231.3" font-family="Arial" font-size="14.00" fill="#000000">    </text>
<text text-anchor="start" x="2479.9216" y="-1231.3" font-family="Arial" font-size="14.00" fill="#666666">[BASE TABLE]</text>
<polygon fill="none" stroke="#000000" points="2374,-1188.5 2374,-1218.5 2580,-1218.5 2580,-1188.5 2374,-1188.5"/>
<text text-anchor="start" x="2381" y="-1199.9" font-family="Arial" font-size="14.00" fill="#000000">id </text>
<text text-anchor="start" x="2395.7798" y="-1199.9" font-family="Arial" font-size="14.00" fill="#666666">[integer]</text>
</g>
<!-- time.hyphenated&#45;table -->
<g id="node15" class="node">
<title>time.hyphenated&#45;table</title>
<polygon fill="#efefef" stroke="transparent" points="2685,-1218.5 2685,-1253.5 3004,-1253.5 3004,-1218.5 2685,-1218.5"/>
<polygon fill="none" stroke="#000000" points="2685,-1218.5 2685,-1253.5 3004,-1253.5 3004,-1218.5 2685,-1218.5"/>
<text text-anchor="start" x="2691.688" y="-1231.3" font-family="Arial Bold" font-size="18.00" fill="#000000">time.hyphenated&#45;table</text>
<text text-anchor="start" x="2869.744" y="-1231.3" font-family="Arial" font-size="14.00" fill="#000000">    </text>
<text text-anchor="start" x="2903.9488" y="-1231.3" font-family="Arial" font-size="14.00" fill="#666666">[BASE TABLE]</text>
<polygon fill="none" stroke="#000000" points="2685,-1188.5 2685,-1218.5 3004,-1218.5 3004,-1188.5 2685,-1188.5"/>
<text text-anchor="start" x="2692" y="-1199.9" font-family="Arial" font-size="14.00" fill="#000000">id </text>
<text text-anchor="start" x="2706.7798" y="-1199.9" font-family="Arial" font-size="14.00" fill="#666666">[integer]</text>
</g>
<!-- time.referencing -->
<g id="node16" class="node">
<title>time.referencing</title>
<polygon fill="#efefef" stroke="transparent" points="2556,-1600.5 2556,-1635.5 2826,-1635.5 2826,-1600.5 2556,-1600.5"/>
<polygon fill="none" stroke="#000000" points="2556,-1600.5 2556,-1635.5 2826,-1635.5 2826,-1600.5 2556,-1600.5"/>
<text text-anchor="start" x="2562.7085" y="-1613.3" font-family="Arial Bold" font-size="18.00" fill="#000000">time.referencing</text>
<text text-anchor="start" x="2691.7235" y="-1613.3" font-family="Arial" font-size="14.00" fill="#000000">    </text>
<text text-anchor="start" x="2725.9283" y="-1613.3" font-family="Arial" font-size="14.00" fill="#666666">[BASE TABLE]</text>
<polygon fill="none" stroke="#000000" points="2556,-1570.5 2556,-1600.5 2826,-1600.5 2826,-1570.5 2556,-1570.5"/>
<text text-anchor="start" x="2563" y="-1581.9" font-family="Arial" font-size="14.00" fill="#000000">id </text>
<text text-anchor="start" x="2577.7798" y="-1581.9" font-family="Arial" font-size="14.00" fill="#666666">[integer]</text>
<polygon fill="none" stroke="#000000" points="2556,-1540.5 2556,-1570.5 2826,-1570.5 2826,-1540.5 2556,-1540.5"/>
<text text-anchor="start" x="2563" y="-1551.9" font-family="Arial" font-size="14.00" fill="#000000">bar_id </text>
<text text-anchor="start" x="2605.7882" y="-1551.9" font-family="Arial" font-size="14.00" fill="#666666">[integer]</text>
<polygon fill="none" stroke="#000000" points="2556,-1510.5 2556,-1540.5 2826,-1540.5 2826,-1510.5 2556,-1510.5"/>
<text text-anchor="start" x="2563" y="-1521.9" font-family="Arial" font-size="14.00" fill="#000000">ht_id </text>
<text text-anchor="start" x="2597.2356" y="-1521.9" font-family="Arial" font-size="14.00" fill="#666666">[integer]</text>
</g>
<!-- time.referencing&#45;&gt;time.bar -->
<g id="edge10" class="edge">
<title>time.referencing:bar_id&#45;&gt;time.bar:id</title>
<path fill="none" stroke="#000000" d="M2545.7765,-1554.929C2414.7465,-1539.1934 2733.1325,-1203.5 2580,-1203.5"/>
<polygon fill="#000000" stroke="#000000" points="2546.0156,-1554.9422 2555.749,-1559.993 2551.0078,-1555.2211 2556,-1555.5 2556,-1555.5 2556,-1555.5 2551.0078,-1555.2211 2556.251,-1551.007 2546.0156,-1554.9422 2546.0156,-1554.9422"/>
<text text-anchor="start" x="2312.453" y="-1565.5" font-family="Arial" font-size="10.00" fill="#000000">FOREIGN KEY (bar_id) REFERENCES &quot;time&quot;.bar(id)</text>
</g>
<!-- time.referencing&#45;&gt;time.hyphenated&#45;table -->
<g id="edge11" class="edge">
<title>time.referencing:ht_id&#45;&gt;time.hyphenated&#45;table:id</title>
<path fill="none" stroke="#000000" d="M2835.6706,-1522.7532C2845.9845,-1514.2797 2833.1527,-1487.9178 2826,-1468 2792.7075,-1375.2923 2718.2925,-1389.7077 2685,-1297 2670.9551,-1257.8898 2643.4444,-1203.5 2685,-1203.5"/>
<polygon fill="#000000" stroke="#000000" points="2835.6195,-1522.7677 2824.7705,-1521.1712 2830.8098,-1524.1338 2826,-1525.5 2826,-1525.5 2826,-1525.5 2830.8098,-1524.1338 2827.2295,-1529.8288 2835.6195,-1522.7677 2835.6195,-1522.7677"/>
<text text-anchor="start" x="2832.5545" y="-1535.5" font-family="Arial" font-size="10.00" fill="#000000">FOREIGN KEY (ht_id) REFERENCES &quot;time&quot;.&quot;hyphenated&#45;table&quot;(id)</text>
</g>
</g>
</svg>
