<?xml version="1.0" encoding="UTF-8" standalone="no"?>
<!DOCTYPE svg PUBLIC "-//W3C//DTD SVG 1.1//EN"
 "http://www.w3.org/Graphics/SVG/1.1/DTD/svg11.dtd">
<!-- Generated by graphviz version 2.40.1 (20161225.0304)
 -->
<!-- Title: time.bar Pages: 1 -->
<svg width="572pt" height="412pt"
 viewBox="0.00 0.00 572.00 412.00" xmlns="http://www.w3.org/2000/svg" xmlns:xlink="http://www.w3.org/1999/xlink">
<g id="graph0" class="graph" transform="scale(1 1) rotate(0) translate(4 408)">
<title>time.bar</title>
<polygon fill="#ffffff" stroke="transparent" points="-4,4 -4,-408 568,-408 568,4 -4,4"/>
<!-- time.bar -->
<g id="node1" class="node">
<title>time.bar</title>
<polygon fill="#efefef" stroke="transparent" points="75,-75.5 75,-110.5 281,-110.5 281,-75.5 75,-75.5"/>
<polygon fill="none" stroke="#000000" points="75,-75.5 75,-110.5 281,-110.5 281,-75.5 75,-75.5"/>
<text text-anchor="start" x="81.7152" y="-88.3" font-family="Arial Bold" font-size="18.00" fill="#000000">time.bar</text>
<text text-anchor="start" x="146.7168" y="-88.3" font-family="Arial" font-size="14.00" fill="#000000">    </text>
<text text-anchor="start" x="180.9216" y="-88.3" font-family="Arial" font-size="14.00" fill="#666666">[BASE TABLE]</text>
<polygon fill="none" stroke="#000000" points="75,-45.5 75,-75.5 281,-75.5 281,-45.5 75,-45.5"/>
<text text-anchor="start" x="82" y="-56.9" font-family="Arial" font-size="14.00" fill="#000000">id </text>
<text text-anchor="start" x="96.7798" y="-56.9" font-family="Arial" font-size="14.00" fill="#666666">[integer]</text>
<polygon fill="none" stroke="#000000" stroke-width="3" points="73.5,-44.5 73.5,-112.5 282.5,-112.5 282.5,-44.5 73.5,-44.5"/>
</g>
<!-- time.referencing -->
<g id="node2" class="node">
<title>time.referencing</title>
<polygon fill="#efefef" stroke="transparent" points="43,-325.5 43,-360.5 313,-360.5 313,-325.5 43,-325.5"/>
<polygon fill="none" stroke="#000000" points="43,-325.5 43,-360.5 313,-360.5 313,-325.5 43,-325.5"/>
<text text-anchor="start" x="49.7085" y="-338.3" font-family="Arial Bold" font-size="18.00" fill="#000000">time.referencing</text>
<text text-anchor="start" x="178.7235" y="-338.3" font-family="Arial" font-size="14.00" fill="#000000">    </text>
<text text-anchor="start" x="212.9283" y="-338.3" font-family="Arial" font-size="14.00" fill="#666666">[BASE TABLE]</text>
<polygon fill="none" stroke="#000000" points="43,-295.5 43,-325.5 313,-325.5 313,-295.5 43,-295.5"/>
<text text-anchor="start" x="50" y="-306.9" font-family="Arial" font-size="14.00" fill="#000000">id    </text>
<text text-anchor="start" x="95.094" y="-306.9" font-family="Arial" font-size="14.00" fill="#666666">[integer]</text>
<polygon fill="none" stroke="#000000" points="43,-265.5 43,-295.5 313,-295.5 313,-265.5 43,-265.5"/>
<text text-anchor="start" x="50" y="-276.9" font-family="Arial" font-size="14.00" fill="#000000">bar_id    </text>
<text text-anchor="start" x="123.1024" y="-276.9" font-family="Arial" font-size="14.00" fill="#666666">[integer]</text>
<polygon fill="none" stroke="#000000" points="43,-235.5 43,-265.5 313,-265.5 313,-235.5 43,-235.5"/>
<text text-anchor="start" x="50" y="-246.9" font-family="Arial" font-size="14.00" fill="#000000">ht_id    </text>
<text text-anchor="start" x="114.5498" y="-246.9" font-family="Arial" font-size="14.00" fill="#666666">[integer]</text>
</g>
<!-- time.referencing&#45;&gt;time.bar -->
<g id="edge1" class="edge">
<title>time.referencing:bar_id&#45;&gt;time.bar:id</title>
<path fill="none" stroke="#000000" d="M323.0233,-279.9765C416.4611,-269.9035 398.5278,-117.0278 327,-45.5 280.1738,1.3262 178,20.7222 178,-45.5"/>
<polygon fill="#000000" stroke="#000000" points="322.9864,-279.9784 312.7653,-276.0061 317.9932,-280.2392 313,-280.5 313,-280.5 313,-280.5 317.9932,-280.2392 313.2347,-284.9939 322.9864,-279.9784 322.9864,-279.9784"/>
<text text-anchor="start" x="320.453" y="-290.5" font-family="Arial" font-size="10.00" fill="#000000">FOREIGN KEY (bar_id) REFERENCES &quot;time&quot;.bar(id)</text>
</g>
</g>
</svg>
