<?xml version="1.0" encoding="UTF-8" standalone="no"?>
<!DOCTYPE svg PUBLIC "-//W3C//DTD SVG 1.1//EN"
 "http://www.w3.org/Graphics/SVG/1.1/DTD/svg11.dtd">
<!-- Generated by graphviz version 12.1.2 (20240928.0832)
 -->
<!-- Title: comment_stars Pages: 1 -->
<svg width="1000pt" height="760pt"
 viewBox="0.00 0.00 1000.12 760.00" xmlns="http://www.w3.org/2000/svg" xmlns:xlink="http://www.w3.org/1999/xlink">
<g id="graph0" class="graph" transform="scale(1 1) rotate(0) translate(4 756)">
<title>comment_stars</title>
<polygon fill="white" stroke="none" points="-4,4 -4,-756 996.12,-756 996.12,4 -4,4"/>
<!-- comment_stars -->
<g id="node1" class="node">
<title>comment_stars</title>
<polygon fill="#efefef" stroke="none" points="456.82,-389 456.82,-424.6 704.28,-424.6 704.28,-389 456.82,-389"/>
<polygon fill="none" stroke="black" points="456.82,-389 456.82,-424.6 704.28,-424.6 704.28,-389 456.82,-389"/>
<text text-anchor="start" x="463.82" y="-402.4" font-family="Arial Bold" font-size="18.00">comment_stars</text>
<text text-anchor="start" x="572.79" y="-402.4" font-family="Arial" font-size="14.00">    </text>
<text text-anchor="start" x="603.91" y="-402.4" font-family="Arial" font-size="14.00" fill="#666666">[BASE TABLE]</text>
<polygon fill="none" stroke="black" points="456.82,-358.2 456.82,-389 704.28,-389 704.28,-358.2 456.82,-358.2"/>
<text text-anchor="start" x="463.82" y="-370.4" font-family="Arial" font-size="14.00">id </text>
<text text-anchor="start" x="478.6" y="-370.4" font-family="Arial" font-size="14.00" fill="#666666">[bigint]</text>
<polygon fill="none" stroke="black" points="456.82,-327.4 456.82,-358.2 704.28,-358.2 704.28,-327.4 456.82,-327.4"/>
<text text-anchor="start" x="463.82" y="-339.6" font-family="Arial" font-size="14.00">comment_post_id </text>
<text text-anchor="start" x="578.21" y="-339.6" font-family="Arial" font-size="14.00" fill="#666666">[bigint]</text>
<polygon fill="none" stroke="black" points="456.82,-296.6 456.82,-327.4 704.28,-327.4 704.28,-296.6 456.82,-296.6"/>
<text text-anchor="start" x="463.82" y="-308.8" font-family="Arial" font-size="14.00">comment_user_id </text>
<text text-anchor="start" x="578.98" y="-308.8" font-family="Arial" font-size="14.00" fill="#666666">[int]</text>
<polygon fill="none" stroke="black" stroke-width="3" points="455.32,-295.1 455.32,-426.1 705.78,-426.1 705.78,-295.1 455.32,-295.1"/>
</g>
<!-- comments -->
<g id="node3" class="node">
<title>comments</title>
<polygon fill="#efefef" stroke="none" points="325.31,-135.6 325.31,-171.2 537.79,-171.2 537.79,-135.6 325.31,-135.6"/>
<polygon fill="none" stroke="black" points="325.31,-135.6 325.31,-171.2 537.79,-171.2 537.79,-135.6 325.31,-135.6"/>
<text text-anchor="start" x="332.31" y="-149" font-family="Arial Bold" font-size="18.00">comments</text>
<text text-anchor="start" x="406.3" y="-149" font-family="Arial" font-size="14.00">    </text>
<text text-anchor="start" x="437.41" y="-149" font-family="Arial" font-size="14.00" fill="#666666">[BASE TABLE]</text>
<polygon fill="none" stroke="black" points="325.31,-104.8 325.31,-135.6 537.79,-135.6 537.79,-104.8 325.31,-104.8"/>
<text text-anchor="start" x="332.31" y="-117" font-family="Arial" font-size="14.00">id    </text>
<text text-anchor="start" x="374.32" y="-117" font-family="Arial" font-size="14.00" fill="#666666">[bigint]</text>
<polygon fill="none" stroke="black" points="325.31,-74 325.31,-104.8 537.79,-104.8 537.79,-74 325.31,-74"/>
<text text-anchor="start" x="332.31" y="-86.2" font-family="Arial" font-size="14.00">post_id    </text>
<text text-anchor="start" x="408.57" y="-86.2" font-family="Arial" font-size="14.00" fill="#666666">[bigint]</text>
<polygon fill="none" stroke="black" points="325.31,-43.2 325.31,-74 537.79,-74 537.79,-43.2 325.31,-43.2"/>
<text text-anchor="start" x="332.31" y="-55.4" font-family="Arial" font-size="14.00">user_id    </text>
<text text-anchor="start" x="409.35" y="-55.4" font-family="Arial" font-size="14.00" fill="#666666">[int]</text>
</g>
<!-- comment_stars&#45;&gt;comments -->
<g id="edge2" class="edge">
<title>comment_stars:comment_post_id&#45;&gt;comments:post_id</title>
<path fill="none" stroke="black" d="M445.82,-341.34C418.43,-332.12 436.37,-281.5 456.82,-250.4 478.45,-217.49 516.2,-247.34 537.79,-214.4 568.24,-167.93 594.34,-89.4 538.79,-89.4"/>
<polygon fill="black" stroke="black" points="445.59,-341.3 454.83,-347.2 450.87,-342.08 455.15,-342.7 455.15,-342.7 455.15,-342.7 450.87,-342.08 456.14,-338.3 445.59,-341.3"/>
<text text-anchor="start" x="7" y="-352.8" font-family="Arial" font-size="10.00">FOREIGN KEY (comment_post_id, comment_user_id) REFERENCES comments (post_id, user_id)</text>
</g>
<!-- users -->
<g id="node4" class="node">
<title>users</title>
<polygon fill="#efefef" stroke="none" points="641.81,-104.8 641.81,-140.4 817.29,-140.4 817.29,-104.8 641.81,-104.8"/>
<polygon fill="none" stroke="black" points="641.81,-104.8 641.81,-140.4 817.29,-140.4 817.29,-104.8 641.81,-104.8"/>
<text text-anchor="start" x="648.81" y="-118.2" font-family="Arial Bold" font-size="18.00">users</text>
<text text-anchor="start" x="685.8" y="-118.2" font-family="Arial" font-size="14.00">    </text>
<text text-anchor="start" x="716.92" y="-118.2" font-family="Arial" font-size="14.00" fill="#666666">[BASE TABLE]</text>
<polygon fill="none" stroke="black" points="641.81,-74 641.81,-104.8 817.29,-104.8 817.29,-74 641.81,-74"/>
<text text-anchor="start" x="648.81" y="-86.2" font-family="Arial" font-size="14.00">id    </text>
<text text-anchor="start" x="690.82" y="-86.2" font-family="Arial" font-size="14.00" fill="#666666">[int]</text>
</g>
<!-- comment_stars&#45;&gt;users -->
<g id="edge3" class="edge">
<title>comment_stars:comment_user_id&#45;&gt;users:id</title>
<path fill="none" stroke="black" d="M715.32,-309.28C726.93,-300.41 712.86,-271.62 704.28,-250.4 689.05,-212.71 656.93,-221.33 641.81,-183.6 626.23,-144.74 598.94,-89.4 640.81,-89.4"/>
<polygon fill="black" stroke="black" points="715.26,-309.3 704.43,-307.57 710.11,-310.69 705.93,-311.83 705.93,-311.83 705.93,-311.83 710.11,-310.69 706.78,-316.26 715.26,-309.3"/>
<text text-anchor="start" x="712.28" y="-322" font-family="Arial" font-size="10.00">FOREIGN KEY (comment_user_id) REFERENCES users (id)</text>
</g>
<!-- logs -->
<g id="node2" class="node">
<title>logs</title>
<polygon fill="#efefef" stroke="none" points="483.68,-673.2 483.68,-708.8 677.42,-708.8 677.42,-673.2 483.68,-673.2"/>
<polygon fill="none" stroke="black" points="483.68,-673.2 483.68,-708.8 677.42,-708.8 677.42,-673.2 483.68,-673.2"/>
<text text-anchor="start" x="503.3" y="-686.6" font-family="Arial Bold" font-size="18.00">logs</text>
<text text-anchor="start" x="533.31" y="-686.6" font-family="Arial" font-size="14.00">    </text>
<text text-anchor="start" x="564.42" y="-686.6" font-family="Arial" font-size="14.00" fill="#666666">[BASE TABLE]</text>
<polygon fill="none" stroke="black" points="483.68,-642.4 483.68,-673.2 677.42,-673.2 677.42,-642.4 483.68,-642.4"/>
<text text-anchor="start" x="490.68" y="-654.6" font-family="Arial" font-size="14.00">user_id    </text>
<text text-anchor="start" x="567.71" y="-654.6" font-family="Arial" font-size="14.00" fill="#666666">[int]</text>
<polygon fill="none" stroke="black" points="483.68,-611.6 483.68,-642.4 677.42,-642.4 677.42,-611.6 483.68,-611.6"/>
<text text-anchor="start" x="490.68" y="-623.8" font-family="Arial" font-size="14.00">post_id    </text>
<text text-anchor="start" x="566.94" y="-623.8" font-family="Arial" font-size="14.00" fill="#666666">[bigint]</text>
<polygon fill="none" stroke="black" points="483.68,-580.8 483.68,-611.6 677.42,-611.6 677.42,-580.8 483.68,-580.8"/>
<text text-anchor="start" x="490.68" y="-593" font-family="Arial" font-size="14.00">comment_id    </text>
<text text-anchor="start" x="598.05" y="-593" font-family="Arial" font-size="14.00" fill="#666666">[bigint]</text>
<polygon fill="none" stroke="black" points="483.68,-550 483.68,-580.8 677.42,-580.8 677.42,-550 483.68,-550"/>
<text text-anchor="start" x="490.68" y="-562.2" font-family="Arial" font-size="14.00">comment_star_id    </text>
<text text-anchor="start" x="629.17" y="-562.2" font-family="Arial" font-size="14.00" fill="#666666">[bigint]</text>
</g>
<!-- logs&#45;&gt;comment_stars -->
<g id="edge1" class="edge">
<title>logs:comment_star_id&#45;&gt;comment_stars:id</title>
<path fill="none" stroke="black" stroke-dasharray="5,2" d="M581.47,-538.64C591.13,-488.72 674.45,-524.29 704.28,-470.8 725.32,-433.07 748.48,-373.6 705.28,-373.6"/>
<polygon fill="black" stroke="black" points="581.46,-538.71 576.1,-548.27 580.99,-544.02 580.61,-548.33 580.61,-548.33 580.61,-548.33 580.99,-544.02 585.06,-549.06 581.46,-538.71"/>
<text text-anchor="start" x="538.85" y="-533" font-family="Arial" font-size="10.00">Additional Relation</text>
</g>
</g>
</svg>
