<?xml version="1.0" encoding="UTF-8" standalone="no"?>
<!DOCTYPE svg PUBLIC "-//W3C//DTD SVG 1.1//EN"
 "http://www.w3.org/Graphics/SVG/1.1/DTD/svg11.dtd">
<!-- Generated by graphviz version 12.1.2 (20240928.0832)
 -->
<!-- Title: comments Pages: 1 -->
<svg width="848pt" height="729pt"
 viewBox="0.00 0.00 848.38 729.20" xmlns="http://www.w3.org/2000/svg" xmlns:xlink="http://www.w3.org/1999/xlink">
<g id="graph0" class="graph" transform="scale(1 1) rotate(0) translate(4 725.2)">
<title>comments</title>
<polygon fill="white" stroke="none" points="-4,4 -4,-725.2 844.38,-725.2 844.38,4 -4,4"/>
<!-- comments -->
<g id="node1" class="node">
<title>comments</title>
<polygon fill="#efefef" stroke="none" points="240.05,-358.2 240.05,-393.8 452.53,-393.8 452.53,-358.2 240.05,-358.2"/>
<polygon fill="none" stroke="black" points="240.05,-358.2 240.05,-393.8 452.53,-393.8 452.53,-358.2 240.05,-358.2"/>
<text text-anchor="start" x="247.05" y="-371.6" font-family="Arial Bold" font-size="18.00">comments</text>
<text text-anchor="start" x="321.04" y="-371.6" font-family="Arial" font-size="14.00">    </text>
<text text-anchor="start" x="352.16" y="-371.6" font-family="Arial" font-size="14.00" fill="#666666">[BASE TABLE]</text>
<polygon fill="none" stroke="black" points="240.05,-327.4 240.05,-358.2 452.53,-358.2 452.53,-327.4 240.05,-327.4"/>
<text text-anchor="start" x="247.05" y="-339.6" font-family="Arial" font-size="14.00">id </text>
<text text-anchor="start" x="261.84" y="-339.6" font-family="Arial" font-size="14.00" fill="#666666">[bigint]</text>
<polygon fill="none" stroke="black" points="240.05,-296.6 240.05,-327.4 452.53,-327.4 452.53,-296.6 240.05,-296.6"/>
<text text-anchor="start" x="247.05" y="-308.8" font-family="Arial" font-size="14.00">post_id </text>
<text text-anchor="start" x="296.09" y="-308.8" font-family="Arial" font-size="14.00" fill="#666666">[bigint]</text>
<polygon fill="none" stroke="black" points="240.05,-265.8 240.05,-296.6 452.53,-296.6 452.53,-265.8 240.05,-265.8"/>
<text text-anchor="start" x="247.05" y="-278" font-family="Arial" font-size="14.00">user_id </text>
<text text-anchor="start" x="296.86" y="-278" font-family="Arial" font-size="14.00" fill="#666666">[int]</text>
<polygon fill="none" stroke="black" stroke-width="3" points="238.55,-264.3 238.55,-395.3 454.03,-395.3 454.03,-264.3 238.55,-264.3"/>
</g>
<!-- posts -->
<g id="node3" class="node">
<title>posts</title>
<polygon fill="#efefef" stroke="none" points="118.54,-104.8 118.54,-140.4 294.04,-140.4 294.04,-104.8 118.54,-104.8"/>
<polygon fill="none" stroke="black" points="118.54,-104.8 118.54,-140.4 294.04,-140.4 294.04,-104.8 118.54,-104.8"/>
<text text-anchor="start" x="125.54" y="-118.2" font-family="Arial Bold" font-size="18.00">posts</text>
<text text-anchor="start" x="162.55" y="-118.2" font-family="Arial" font-size="14.00">    </text>
<text text-anchor="start" x="193.67" y="-118.2" font-family="Arial" font-size="14.00" fill="#666666">[BASE TABLE]</text>
<polygon fill="none" stroke="black" points="118.54,-74 118.54,-104.8 294.04,-104.8 294.04,-74 118.54,-74"/>
<text text-anchor="start" x="125.54" y="-86.2" font-family="Arial" font-size="14.00">id    </text>
<text text-anchor="start" x="167.56" y="-86.2" font-family="Arial" font-size="14.00" fill="#666666">[bigint]</text>
<polygon fill="none" stroke="black" points="118.54,-43.2 118.54,-74 294.04,-74 294.04,-43.2 118.54,-43.2"/>
<text text-anchor="start" x="125.54" y="-55.4" font-family="Arial" font-size="14.00">user_id    </text>
<text text-anchor="start" x="202.58" y="-55.4" font-family="Arial" font-size="14.00" fill="#666666">[int]</text>
</g>
<!-- comments&#45;&gt;posts -->
<g id="edge2" class="edge">
<title>comments:post_id&#45;&gt;posts:id</title>
<path fill="none" stroke="black" d="M228.78,-310.46C202.35,-301.2 222.39,-252.18 240.05,-219.6 253.8,-194.25 280.3,-208.96 294.04,-183.6 313.99,-146.79 336.91,-89.4 295.04,-89.4"/>
<polygon fill="black" stroke="black" points="228.83,-310.47 238.06,-316.4 234.11,-311.26 238.39,-311.9 238.39,-311.9 238.39,-311.9 234.11,-311.26 239.39,-307.5 228.83,-310.47"/>
<text text-anchor="start" x="7" y="-322" font-family="Arial" font-size="10.00">FOREIGN KEY (post_id) REFERENCES posts (id)</text>
</g>
<!-- users -->
<g id="node5" class="node">
<title>users</title>
<polygon fill="#efefef" stroke="none" points="398.55,-89.4 398.55,-125 574.03,-125 574.03,-89.4 398.55,-89.4"/>
<polygon fill="none" stroke="black" points="398.55,-89.4 398.55,-125 574.03,-125 574.03,-89.4 398.55,-89.4"/>
<text text-anchor="start" x="405.55" y="-102.8" font-family="Arial Bold" font-size="18.00">users</text>
<text text-anchor="start" x="442.54" y="-102.8" font-family="Arial" font-size="14.00">    </text>
<text text-anchor="start" x="473.66" y="-102.8" font-family="Arial" font-size="14.00" fill="#666666">[BASE TABLE]</text>
<polygon fill="none" stroke="black" points="398.55,-58.6 398.55,-89.4 574.03,-89.4 574.03,-58.6 398.55,-58.6"/>
<text text-anchor="start" x="405.55" y="-70.8" font-family="Arial" font-size="14.00">id    </text>
<text text-anchor="start" x="447.56" y="-70.8" font-family="Arial" font-size="14.00" fill="#666666">[int]</text>
</g>
<!-- comments&#45;&gt;users -->
<g id="edge4" class="edge">
<title>comments:user_id&#45;&gt;users:id</title>
<path fill="none" stroke="black" d="M463.28,-278.71C475.63,-270.07 461.8,-240.76 452.53,-219.6 439.23,-189.26 411.76,-198.58 398.55,-168.2 381.85,-129.81 355.68,-74 397.55,-74"/>
<polygon fill="black" stroke="black" points="463.54,-278.64 452.74,-276.76 458.37,-279.96 454.18,-281.03 454.18,-281.03 454.18,-281.03 458.37,-279.96 454.97,-285.48 463.54,-278.64"/>
<text text-anchor="start" x="460.53" y="-291.2" font-family="Arial" font-size="10.00">FOREIGN KEY (user_id) REFERENCES users (id)</text>
</g>
<!-- logs -->
<g id="node2" class="node">
<title>logs</title>
<polygon fill="#efefef" stroke="none" points="87.42,-642.4 87.42,-678 281.16,-678 281.16,-642.4 87.42,-642.4"/>
<polygon fill="none" stroke="black" points="87.42,-642.4 87.42,-678 281.16,-678 281.16,-642.4 87.42,-642.4"/>
<text text-anchor="start" x="107.04" y="-655.8" font-family="Arial Bold" font-size="18.00">logs</text>
<text text-anchor="start" x="137.05" y="-655.8" font-family="Arial" font-size="14.00">    </text>
<text text-anchor="start" x="168.17" y="-655.8" font-family="Arial" font-size="14.00" fill="#666666">[BASE TABLE]</text>
<polygon fill="none" stroke="black" points="87.42,-611.6 87.42,-642.4 281.16,-642.4 281.16,-611.6 87.42,-611.6"/>
<text text-anchor="start" x="94.42" y="-623.8" font-family="Arial" font-size="14.00">user_id    </text>
<text text-anchor="start" x="171.45" y="-623.8" font-family="Arial" font-size="14.00" fill="#666666">[int]</text>
<polygon fill="none" stroke="black" points="87.42,-580.8 87.42,-611.6 281.16,-611.6 281.16,-580.8 87.42,-580.8"/>
<text text-anchor="start" x="94.42" y="-593" font-family="Arial" font-size="14.00">post_id    </text>
<text text-anchor="start" x="170.68" y="-593" font-family="Arial" font-size="14.00" fill="#666666">[bigint]</text>
<polygon fill="none" stroke="black" points="87.42,-550 87.42,-580.8 281.16,-580.8 281.16,-550 87.42,-550"/>
<text text-anchor="start" x="94.42" y="-562.2" font-family="Arial" font-size="14.00">comment_id    </text>
<text text-anchor="start" x="201.79" y="-562.2" font-family="Arial" font-size="14.00" fill="#666666">[bigint]</text>
<polygon fill="none" stroke="black" points="87.42,-519.2 87.42,-550 281.16,-550 281.16,-519.2 87.42,-519.2"/>
<text text-anchor="start" x="94.42" y="-531.4" font-family="Arial" font-size="14.00">comment_star_id    </text>
<text text-anchor="start" x="232.92" y="-531.4" font-family="Arial" font-size="14.00" fill="#666666">[bigint]</text>
</g>
<!-- logs&#45;&gt;comments -->
<g id="edge1" class="edge">
<title>logs:comment_id&#45;&gt;comments:id</title>
<path fill="none" stroke="black" stroke-dasharray="5,2" d="M292.37,-563.82C317.08,-554.75 296.09,-508.43 281.16,-476 271.01,-453.94 250.2,-462.07 240.05,-440 222.01,-400.75 195.85,-342.8 239.05,-342.8"/>
<polygon fill="black" stroke="black" points="292.38,-563.82 281.81,-560.9 287.11,-564.64 282.82,-565.3 282.82,-565.3 282.82,-565.3 287.11,-564.64 283.18,-569.8 292.38,-563.82"/>
<text text-anchor="start" x="289.16" y="-575.4" font-family="Arial" font-size="10.00">Additional Relation</text>
</g>
<!-- comment_stars -->
<g id="node4" class="node">
<title>comment_stars</title>
<polygon fill="#efefef" stroke="none" points="385.56,-627 385.56,-662.6 633.02,-662.6 633.02,-627 385.56,-627"/>
<polygon fill="none" stroke="black" points="385.56,-627 385.56,-662.6 633.02,-662.6 633.02,-627 385.56,-627"/>
<text text-anchor="start" x="392.56" y="-640.4" font-family="Arial Bold" font-size="18.00">comment_stars</text>
<text text-anchor="start" x="501.53" y="-640.4" font-family="Arial" font-size="14.00">    </text>
<text text-anchor="start" x="532.65" y="-640.4" font-family="Arial" font-size="14.00" fill="#666666">[BASE TABLE]</text>
<polygon fill="none" stroke="black" points="385.56,-596.2 385.56,-627 633.02,-627 633.02,-596.2 385.56,-596.2"/>
<text text-anchor="start" x="392.56" y="-608.4" font-family="Arial" font-size="14.00">id    </text>
<text text-anchor="start" x="434.57" y="-608.4" font-family="Arial" font-size="14.00" fill="#666666">[bigint]</text>
<polygon fill="none" stroke="black" points="385.56,-565.4 385.56,-596.2 633.02,-596.2 633.02,-565.4 385.56,-565.4"/>
<text text-anchor="start" x="392.56" y="-577.6" font-family="Arial" font-size="14.00">comment_post_id    </text>
<text text-anchor="start" x="534.18" y="-577.6" font-family="Arial" font-size="14.00" fill="#666666">[bigint]</text>
<polygon fill="none" stroke="black" points="385.56,-534.6 385.56,-565.4 633.02,-565.4 633.02,-534.6 385.56,-534.6"/>
<text text-anchor="start" x="392.56" y="-546.8" font-family="Arial" font-size="14.00">comment_user_id    </text>
<text text-anchor="start" x="534.95" y="-546.8" font-family="Arial" font-size="14.00" fill="#666666">[int]</text>
</g>
<!-- comment_stars&#45;&gt;comments -->
<g id="edge3" class="edge">
<title>comment_stars:comment_post_id&#45;&gt;comments:post_id</title>
<path fill="none" stroke="black" d="M374.32,-579.21C349.43,-570.05 369.59,-523.33 385.56,-491.4 402.34,-457.84 435.8,-473.59 452.53,-440 477.89,-389.07 510.42,-312 453.53,-312"/>
<polygon fill="black" stroke="black" points="374.35,-579.21 383.54,-585.2 379.62,-580.03 383.9,-580.7 383.9,-580.7 383.9,-580.7 379.62,-580.03 384.92,-576.3 374.35,-579.21"/>
<text text-anchor="start" x="391.56" y="-590.8" font-family="Arial" font-size="10.00">FOREIGN KEY (comment_post_id, comment_user_id) REFERENCES comments (post_id, user_id)</text>
</g>
</g>
</svg>
