<?xml version="1.0" encoding="UTF-8" standalone="no"?>
<!DOCTYPE svg PUBLIC "-//W3C//DTD SVG 1.1//EN"
 "http://www.w3.org/Graphics/SVG/1.1/DTD/svg11.dtd">
<!-- Generated by graphviz version 2.40.1 (20161225.0304)
 -->
<!-- Title: comment_stars Pages: 1 -->
<svg width="983pt" height="749pt"
 viewBox="0.00 0.00 983.00 749.00" xmlns="http://www.w3.org/2000/svg" xmlns:xlink="http://www.w3.org/1999/xlink">
<g id="graph0" class="graph" transform="scale(1 1) rotate(0) translate(4 745)">
<title>comment_stars</title>
<polygon fill="#ffffff" stroke="transparent" points="-4,4 -4,-745 979,-745 979,4 -4,4"/>
<!-- comment_stars -->
<g id="node1" class="node">
<title>comment_stars</title>
<polygon fill="#efefef" stroke="transparent" points="455,-382.5 455,-417.5 689,-417.5 689,-382.5 455,-382.5"/>
<polygon fill="none" stroke="#000000" points="455,-382.5 455,-417.5 689,-417.5 689,-382.5 455,-382.5"/>
<text text-anchor="start" x="461.8671" y="-395.3" font-family="Arial Bold" font-size="18.00" fill="#000000">comment_stars</text>
<text text-anchor="start" x="584.8791" y="-395.3" font-family="Arial" font-size="14.00" fill="#000000"> </text>
<text text-anchor="start" x="588.7697" y="-395.3" font-family="Arial" font-size="14.00" fill="#666666">[BASE TABLE]</text>
<polygon fill="none" stroke="#000000" points="455,-352.5 455,-382.5 689,-382.5 689,-352.5 455,-352.5"/>
<text text-anchor="start" x="462" y="-363.9" font-family="Arial" font-size="14.00" fill="#000000">id </text>
<text text-anchor="start" x="476.7798" y="-363.9" font-family="Arial" font-size="14.00" fill="#666666">[bigint]</text>
<polygon fill="none" stroke="#000000" points="455,-322.5 455,-352.5 689,-352.5 689,-322.5 455,-322.5"/>
<text text-anchor="start" x="462" y="-333.9" font-family="Arial" font-size="14.00" fill="#000000">comment_post_id </text>
<text text-anchor="start" x="576.3604" y="-333.9" font-family="Arial" font-size="14.00" fill="#666666">[bigint]</text>
<polygon fill="none" stroke="#000000" points="455,-292.5 455,-322.5 689,-322.5 689,-292.5 455,-292.5"/>
<text text-anchor="start" x="462" y="-303.9" font-family="Arial" font-size="14.00" fill="#000000">comment_user_id </text>
<text text-anchor="start" x="577.1304" y="-303.9" font-family="Arial" font-size="14.00" fill="#666666">[int]</text>
<polygon fill="none" stroke="#000000" stroke-width="3" points="453.5,-291.5 453.5,-419.5 690.5,-419.5 690.5,-291.5 453.5,-291.5"/>
</g>
<!-- comments -->
<g id="node3" class="node">
<title>comments</title>
<polygon fill="#efefef" stroke="transparent" points="335,-132.5 335,-167.5 529,-167.5 529,-132.5 335,-132.5"/>
<polygon fill="none" stroke="#000000" points="335,-132.5 335,-167.5 529,-167.5 529,-132.5 335,-132.5"/>
<text text-anchor="start" x="341.8705" y="-145.3" font-family="Arial Bold" font-size="18.00" fill="#000000">comments</text>
<text text-anchor="start" x="424.8757" y="-145.3" font-family="Arial" font-size="14.00" fill="#000000"> </text>
<text text-anchor="start" x="428.7663" y="-145.3" font-family="Arial" font-size="14.00" fill="#666666">[BASE TABLE]</text>
<polygon fill="none" stroke="#000000" points="335,-102.5 335,-132.5 529,-132.5 529,-102.5 335,-102.5"/>
<text text-anchor="start" x="342" y="-113.9" font-family="Arial" font-size="14.00" fill="#000000">id </text>
<text text-anchor="start" x="356.7798" y="-113.9" font-family="Arial" font-size="14.00" fill="#666666">[bigint]</text>
<polygon fill="none" stroke="#000000" points="335,-72.5 335,-102.5 529,-102.5 529,-72.5 335,-72.5"/>
<text text-anchor="start" x="342" y="-83.9" font-family="Arial" font-size="14.00" fill="#000000">post_id </text>
<text text-anchor="start" x="391.0182" y="-83.9" font-family="Arial" font-size="14.00" fill="#666666">[bigint]</text>
<polygon fill="none" stroke="#000000" points="335,-42.5 335,-72.5 529,-72.5 529,-42.5 335,-42.5"/>
<text text-anchor="start" x="342" y="-53.9" font-family="Arial" font-size="14.00" fill="#000000">user_id </text>
<text text-anchor="start" x="391.7882" y="-53.9" font-family="Arial" font-size="14.00" fill="#666666">[int]</text>
</g>
<!-- comment_stars&#45;&gt;comments -->
<g id="edge2" class="edge">
<title>comment_stars:comment_post_id&#45;&gt;comments:post_id</title>
<path fill="none" stroke="#000000" d="M444.8546,-335.9597C418.4906,-326.697 435.7515,-277.7696 455,-247 474.397,-215.993 509.603,-242.007 529,-211 558.1101,-164.4662 583.8889,-87.5 529,-87.5"/>
<polygon fill="#000000" stroke="#000000" points="445.1133,-335.9989 454.3245,-341.949 450.0566,-336.7494 455,-337.5 455,-337.5 455,-337.5 450.0566,-336.7494 455.6755,-333.051 445.1133,-335.9989 445.1133,-335.9989"/>
<text text-anchor="start" x="7.1435" y="-347.5" font-family="Arial" font-size="10.00" fill="#000000">FOREIGN KEY (comment_post_id, comment_user_id) REFERENCES comments (post_id, user_id)</text>
</g>
<!-- users -->
<g id="node4" class="node">
<title>users</title>
<polygon fill="#efefef" stroke="transparent" points="634,-102.5 634,-137.5 789,-137.5 789,-102.5 634,-102.5"/>
<polygon fill="none" stroke="#000000" points="634,-102.5 634,-137.5 789,-137.5 789,-102.5 634,-102.5"/>
<text text-anchor="start" x="640.8708" y="-115.3" font-family="Arial Bold" font-size="18.00" fill="#000000">users</text>
<text text-anchor="start" x="684.8754" y="-115.3" font-family="Arial" font-size="14.00" fill="#000000"> </text>
<text text-anchor="start" x="688.766" y="-115.3" font-family="Arial" font-size="14.00" fill="#666666">[BASE TABLE]</text>
<polygon fill="none" stroke="#000000" points="634,-72.5 634,-102.5 789,-102.5 789,-72.5 634,-72.5"/>
<text text-anchor="start" x="641" y="-83.9" font-family="Arial" font-size="14.00" fill="#000000">id </text>
<text text-anchor="start" x="655.7798" y="-83.9" font-family="Arial" font-size="14.00" fill="#666666">[int]</text>
</g>
<!-- comment_stars&#45;&gt;users -->
<g id="edge3" class="edge">
<title>comment_stars:comment_user_id&#45;&gt;users:id</title>
<path fill="none" stroke="#000000" d="M698.866,-304.8556C710.3005,-296.2118 696.6519,-268.1349 689,-247 676.0014,-211.0972 646.9986,-216.9028 634,-181 619.8534,-141.9265 592.4444,-87.5 634,-87.5"/>
<polygon fill="#000000" stroke="#000000" points="698.6591,-304.911 687.835,-303.1534 693.8295,-306.2055 689,-307.5 689,-307.5 689,-307.5 693.8295,-306.2055 690.165,-311.8466 698.6591,-304.911 698.6591,-304.911"/>
<text text-anchor="start" x="695.6085" y="-317.5" font-family="Arial" font-size="10.00" fill="#000000">FOREIGN KEY (comment_user_id) REFERENCES users (id)</text>
</g>
<!-- logs -->
<g id="node2" class="node">
<title>logs</title>
<polygon fill="#efefef" stroke="transparent" points="489,-662.5 489,-697.5 655,-697.5 655,-662.5 489,-662.5"/>
<polygon fill="none" stroke="#000000" points="489,-662.5 489,-697.5 655,-697.5 655,-662.5 489,-662.5"/>
<text text-anchor="start" x="506.8698" y="-675.3" font-family="Arial Bold" font-size="18.00" fill="#000000">logs</text>
<text text-anchor="start" x="539.8764" y="-675.3" font-family="Arial" font-size="14.00" fill="#000000"> </text>
<text text-anchor="start" x="543.767" y="-675.3" font-family="Arial" font-size="14.00" fill="#666666">[BASE TABLE]</text>
<polygon fill="none" stroke="#000000" points="489,-632.5 489,-662.5 655,-662.5 655,-632.5 489,-632.5"/>
<text text-anchor="start" x="496" y="-643.9" font-family="Arial" font-size="14.00" fill="#000000">user_id </text>
<text text-anchor="start" x="545.7882" y="-643.9" font-family="Arial" font-size="14.00" fill="#666666">[int]</text>
<polygon fill="none" stroke="#000000" points="489,-602.5 489,-632.5 655,-632.5 655,-602.5 489,-602.5"/>
<text text-anchor="start" x="496" y="-613.9" font-family="Arial" font-size="14.00" fill="#000000">post_id </text>
<text text-anchor="start" x="545.0182" y="-613.9" font-family="Arial" font-size="14.00" fill="#666666">[bigint]</text>
<polygon fill="none" stroke="#000000" points="489,-572.5 489,-602.5 655,-602.5 655,-572.5 489,-572.5"/>
<text text-anchor="start" x="496" y="-583.9" font-family="Arial" font-size="14.00" fill="#000000">comment_id </text>
<text text-anchor="start" x="576.122" y="-583.9" font-family="Arial" font-size="14.00" fill="#666666">[bigint]</text>
<polygon fill="none" stroke="#000000" points="489,-542.5 489,-572.5 655,-572.5 655,-542.5 489,-542.5"/>
<text text-anchor="start" x="495.7644" y="-553.9" font-family="Arial" font-size="14.00" fill="#000000">comment_star_id </text>
<text text-anchor="start" x="607.0028" y="-553.9" font-family="Arial" font-size="14.00" fill="#666666">[bigint]</text>
</g>
<!-- logs&#45;&gt;comment_stars -->
<g id="edge1" class="edge">
<title>logs:comment_star_id&#45;&gt;comment_stars:id</title>
<path fill="none" stroke="#000000" stroke-dasharray="5,2" d="M572.8723,-532.5036C582.0585,-484.1695 661.2604,-516.0163 689,-464 709.1816,-426.1561 731.8889,-367.5 689,-367.5"/>
<polygon fill="#000000" stroke="#000000" points="572.8694,-532.5379 567.517,-542.1088 572.4347,-537.5189 572,-542.5 572,-542.5 572,-542.5 572.4347,-537.5189 576.483,-542.8912 572.8694,-532.5379 572.8694,-532.5379"/>
<text text-anchor="start" x="555.0745" y="-526.5" font-family="Arial" font-size="10.00" fill="#000000">Additional Relation</text>
</g>
</g>
</svg>
