<?xml version="1.0" encoding="UTF-8" standalone="no"?>
<!DOCTYPE svg PUBLIC "-//W3C//DTD SVG 1.1//EN"
 "http://www.w3.org/Graphics/SVG/1.1/DTD/svg11.dtd">
<!-- Generated by graphviz version 2.40.1 (20161225.0304)
 -->
<!-- Title: comments Pages: 1 -->
<svg width="829pt" height="629pt"
 viewBox="0.00 0.00 829.00 629.00" xmlns="http://www.w3.org/2000/svg" xmlns:xlink="http://www.w3.org/1999/xlink">
<g id="graph0" class="graph" transform="scale(1 1) rotate(0) translate(4 625)">
<title>comments</title>
<polygon fill="#ffffff" stroke="transparent" points="-4,4 -4,-625 825,-625 825,4 -4,4"/>
<!-- comments -->
<g id="node1" class="node">
<title>comments</title>
<polygon fill="#efefef" stroke="transparent" points="239,-322.5 239,-357.5 433,-357.5 433,-322.5 239,-322.5"/>
<polygon fill="none" stroke="#000000" points="239,-322.5 239,-357.5 433,-357.5 433,-322.5 239,-322.5"/>
<text text-anchor="start" x="245.8705" y="-335.3" font-family="Arial Bold" font-size="18.00" fill="#000000">comments</text>
<text text-anchor="start" x="328.8757" y="-335.3" font-family="Arial" font-size="14.00" fill="#000000"> </text>
<text text-anchor="start" x="332.7663" y="-335.3" font-family="Arial" font-size="14.00" fill="#666666">[BASE TABLE]</text>
<polygon fill="none" stroke="#000000" points="239,-292.5 239,-322.5 433,-322.5 433,-292.5 239,-292.5"/>
<text text-anchor="start" x="246" y="-303.9" font-family="Arial" font-size="14.00" fill="#000000">id </text>
<text text-anchor="start" x="260.7798" y="-303.9" font-family="Arial" font-size="14.00" fill="#666666">[bigint]</text>
<polygon fill="none" stroke="#000000" points="239,-262.5 239,-292.5 433,-292.5 433,-262.5 239,-262.5"/>
<text text-anchor="start" x="246" y="-273.9" font-family="Arial" font-size="14.00" fill="#000000">post_id </text>
<text text-anchor="start" x="295.0182" y="-273.9" font-family="Arial" font-size="14.00" fill="#666666">[bigint]</text>
<polygon fill="none" stroke="#000000" points="239,-232.5 239,-262.5 433,-262.5 433,-232.5 239,-232.5"/>
<text text-anchor="start" x="246" y="-243.9" font-family="Arial" font-size="14.00" fill="#000000">user_id </text>
<text text-anchor="start" x="295.7882" y="-243.9" font-family="Arial" font-size="14.00" fill="#666666">[int]</text>
<polygon fill="none" stroke="#000000" stroke-width="3" points="237.5,-231.5 237.5,-359.5 434.5,-359.5 434.5,-231.5 237.5,-231.5"/>
</g>
<!-- posts -->
<g id="node3" class="node">
<title>posts</title>
<polygon fill="#efefef" stroke="transparent" points="129,-72.5 129,-107.5 283,-107.5 283,-72.5 129,-72.5"/>
<polygon fill="none" stroke="#000000" points="129,-72.5 129,-107.5 283,-107.5 283,-72.5 129,-72.5"/>
<text text-anchor="start" x="135.8658" y="-85.3" font-family="Arial Bold" font-size="18.00" fill="#000000">posts</text>
<text text-anchor="start" x="178.8804" y="-85.3" font-family="Arial" font-size="14.00" fill="#000000"> </text>
<text text-anchor="start" x="182.771" y="-85.3" font-family="Arial" font-size="14.00" fill="#666666">[BASE TABLE]</text>
<polygon fill="none" stroke="#000000" points="129,-42.5 129,-72.5 283,-72.5 283,-42.5 129,-42.5"/>
<text text-anchor="start" x="136" y="-53.9" font-family="Arial" font-size="14.00" fill="#000000">id </text>
<text text-anchor="start" x="150.7798" y="-53.9" font-family="Arial" font-size="14.00" fill="#666666">[bigint]</text>
</g>
<!-- comments&#45;&gt;posts -->
<g id="edge2" class="edge">
<title>comments:post_id&#45;&gt;posts:id</title>
<path fill="none" stroke="#000000" d="M228.9606,-276.0177C203.2145,-267.0932 223.4577,-219.798 239,-187 249.8201,-164.167 272.1799,-173.833 283,-151 300.7953,-113.4475 324.5556,-57.5 283,-57.5"/>
<polygon fill="#000000" stroke="#000000" points="229.1072,-276.0393 238.3427,-281.9517 234.0536,-276.7696 239,-277.5 239,-277.5 239,-277.5 234.0536,-276.7696 239.6573,-273.0483 229.1072,-276.0393 229.1072,-276.0393"/>
<text text-anchor="start" x="7.495" y="-287.5" font-family="Arial" font-size="10.00" fill="#000000">FOREIGN KEY (post_id) REFERENCES posts (id)</text>
</g>
<!-- users -->
<g id="node5" class="node">
<title>users</title>
<polygon fill="#efefef" stroke="transparent" points="388,-72.5 388,-107.5 543,-107.5 543,-72.5 388,-72.5"/>
<polygon fill="none" stroke="#000000" points="388,-72.5 388,-107.5 543,-107.5 543,-72.5 388,-72.5"/>
<text text-anchor="start" x="394.8708" y="-85.3" font-family="Arial Bold" font-size="18.00" fill="#000000">users</text>
<text text-anchor="start" x="438.8754" y="-85.3" font-family="Arial" font-size="14.00" fill="#000000"> </text>
<text text-anchor="start" x="442.766" y="-85.3" font-family="Arial" font-size="14.00" fill="#666666">[BASE TABLE]</text>
<polygon fill="none" stroke="#000000" points="388,-42.5 388,-72.5 543,-72.5 543,-42.5 388,-42.5"/>
<text text-anchor="start" x="395" y="-53.9" font-family="Arial" font-size="14.00" fill="#000000">id </text>
<text text-anchor="start" x="409.7798" y="-53.9" font-family="Arial" font-size="14.00" fill="#666666">[int]</text>
</g>
<!-- comments&#45;&gt;users -->
<g id="edge4" class="edge">
<title>comments:user_id&#45;&gt;users:id</title>
<path fill="none" stroke="#000000" d="M442.6929,-245.0281C455.2138,-236.4609 442.828,-207.4483 433,-187 421.905,-163.9154 399.095,-174.0846 388,-151 369.9986,-113.5458 346.4444,-57.5 388,-57.5"/>
<polygon fill="#000000" stroke="#000000" points="442.6899,-245.0288 431.888,-243.1396 437.8449,-246.2644 433,-247.5 433,-247.5 433,-247.5 437.8449,-246.2644 434.112,-251.8604 442.6899,-245.0288 442.6899,-245.0288"/>
<text text-anchor="start" x="439.945" y="-257.5" font-family="Arial" font-size="10.00" fill="#000000">FOREIGN KEY (user_id) REFERENCES users (id)</text>
</g>
<!-- logs -->
<g id="node2" class="node">
<title>logs</title>
<polygon fill="#efefef" stroke="transparent" points="118,-527.5 118,-562.5 262,-562.5 262,-527.5 118,-527.5"/>
<polygon fill="none" stroke="#000000" points="118,-527.5 118,-562.5 262,-562.5 262,-527.5 118,-527.5"/>
<text text-anchor="start" x="124.8698" y="-540.3" font-family="Arial Bold" font-size="18.00" fill="#000000">logs</text>
<text text-anchor="start" x="157.8764" y="-540.3" font-family="Arial" font-size="14.00" fill="#000000"> </text>
<text text-anchor="start" x="161.767" y="-540.3" font-family="Arial" font-size="14.00" fill="#666666">[BASE TABLE]</text>
<polygon fill="none" stroke="#000000" points="118,-497.5 118,-527.5 262,-527.5 262,-497.5 118,-497.5"/>
<text text-anchor="start" x="125" y="-508.9" font-family="Arial" font-size="14.00" fill="#000000">comment_id </text>
<text text-anchor="start" x="205.122" y="-508.9" font-family="Arial" font-size="14.00" fill="#666666">[bigint]</text>
</g>
<!-- logs&#45;&gt;comments -->
<g id="edge1" class="edge">
<title>logs:comment_id&#45;&gt;comments:id</title>
<path fill="none" stroke="#000000" stroke-dasharray="5,2" d="M271.697,-509.5828C280.7807,-501.0578 266.4077,-475.4949 262,-455 256.772,-430.6907 244.228,-428.3093 239,-404 229.9825,-362.0698 196.1111,-307.5 239,-307.5"/>
<polygon fill="#000000" stroke="#000000" points="271.5761,-509.6191 260.7036,-508.1908 266.788,-511.0595 262,-512.5 262,-512.5 262,-512.5 266.788,-511.0595 263.2964,-516.8092 271.5761,-509.6191 271.5761,-509.6191"/>
<text text-anchor="start" x="269.3245" y="-522.5" font-family="Arial" font-size="10.00" fill="#000000">Additional Relation</text>
</g>
<!-- comment_stars -->
<g id="node4" class="node">
<title>comment_stars</title>
<polygon fill="#efefef" stroke="transparent" points="366,-542.5 366,-577.5 600,-577.5 600,-542.5 366,-542.5"/>
<polygon fill="none" stroke="#000000" points="366,-542.5 366,-577.5 600,-577.5 600,-542.5 366,-542.5"/>
<text text-anchor="start" x="372.8671" y="-555.3" font-family="Arial Bold" font-size="18.00" fill="#000000">comment_stars</text>
<text text-anchor="start" x="495.8791" y="-555.3" font-family="Arial" font-size="14.00" fill="#000000"> </text>
<text text-anchor="start" x="499.7697" y="-555.3" font-family="Arial" font-size="14.00" fill="#666666">[BASE TABLE]</text>
<polygon fill="none" stroke="#000000" points="366,-512.5 366,-542.5 600,-542.5 600,-512.5 366,-512.5"/>
<text text-anchor="start" x="373" y="-523.9" font-family="Arial" font-size="14.00" fill="#000000">comment_post_id </text>
<text text-anchor="start" x="487.3604" y="-523.9" font-family="Arial" font-size="14.00" fill="#666666">[bigint]</text>
<polygon fill="none" stroke="#000000" points="366,-482.5 366,-512.5 600,-512.5 600,-482.5 366,-482.5"/>
<text text-anchor="start" x="373" y="-493.9" font-family="Arial" font-size="14.00" fill="#000000">comment_user_id </text>
<text text-anchor="start" x="488.1304" y="-493.9" font-family="Arial" font-size="14.00" fill="#666666">[int]</text>
</g>
<!-- comment_stars&#45;&gt;comments -->
<g id="edge3" class="edge">
<title>comment_stars:comment_post_id&#45;&gt;comments:post_id</title>
<path fill="none" stroke="#000000" d="M355.8808,-525.9036C330.9673,-516.7204 348.0703,-469.9879 366,-440 383.3472,-410.9864 415.6528,-433.0136 433,-404 461.8515,-355.7452 489.2222,-277.5 433,-277.5"/>
<polygon fill="#000000" stroke="#000000" points="356.1222,-525.9416 365.2987,-531.945 361.0611,-526.7208 366,-527.5 366,-527.5 366,-527.5 361.0611,-526.7208 366.7013,-523.055 356.1222,-525.9416 356.1222,-525.9416"/>
<text text-anchor="start" x="373.1435" y="-537.5" font-family="Arial" font-size="10.00" fill="#000000">FOREIGN KEY (comment_post_id, comment_user_id) REFERENCES comments (post_id, user_id)</text>
</g>
</g>
</svg>
