<?xml version="1.0" encoding="UTF-8" standalone="no"?>
<!DOCTYPE svg PUBLIC "-//W3C//DTD SVG 1.1//EN"
 "http://www.w3.org/Graphics/SVG/1.1/DTD/svg11.dtd">
<!-- Generated by graphviz version 2.40.1 (20161225.0304)
 -->
<!-- Title: comments Pages: 1 -->
<svg width="834pt" height="719pt"
 viewBox="0.00 0.00 834.00 719.00" xmlns="http://www.w3.org/2000/svg" xmlns:xlink="http://www.w3.org/1999/xlink">
<g id="graph0" class="graph" transform="scale(1 1) rotate(0) translate(4 715)">
<title>comments</title>
<polygon fill="#ffffff" stroke="transparent" points="-4,4 -4,-715 830,-715 830,4 -4,4"/>
<!-- comments -->
<g id="node1" class="node">
<title>comments</title>
<polygon fill="#efefef" stroke="transparent" points="239,-352.5 239,-387.5 433,-387.5 433,-352.5 239,-352.5"/>
<polygon fill="none" stroke="#000000" points="239,-352.5 239,-387.5 433,-387.5 433,-352.5 239,-352.5"/>
<text text-anchor="start" x="245.8705" y="-365.3" font-family="Arial Bold" font-size="18.00" fill="#000000">comments</text>
<text text-anchor="start" x="328.8757" y="-365.3" font-family="Arial" font-size="14.00" fill="#000000"> </text>
<text text-anchor="start" x="332.7663" y="-365.3" font-family="Arial" font-size="14.00" fill="#666666">[BASE TABLE]</text>
<polygon fill="none" stroke="#000000" points="239,-322.5 239,-352.5 433,-352.5 433,-322.5 239,-322.5"/>
<text text-anchor="start" x="246" y="-333.9" font-family="Arial" font-size="14.00" fill="#000000">id </text>
<text text-anchor="start" x="260.7798" y="-333.9" font-family="Arial" font-size="14.00" fill="#666666">[bigint]</text>
<polygon fill="none" stroke="#000000" points="239,-292.5 239,-322.5 433,-322.5 433,-292.5 239,-292.5"/>
<text text-anchor="start" x="246" y="-303.9" font-family="Arial" font-size="14.00" fill="#000000">post_id </text>
<text text-anchor="start" x="295.0182" y="-303.9" font-family="Arial" font-size="14.00" fill="#666666">[bigint]</text>
<polygon fill="none" stroke="#000000" points="239,-262.5 239,-292.5 433,-292.5 433,-262.5 239,-262.5"/>
<text text-anchor="start" x="246" y="-273.9" font-family="Arial" font-size="14.00" fill="#000000">user_id </text>
<text text-anchor="start" x="295.7882" y="-273.9" font-family="Arial" font-size="14.00" fill="#666666">[int]</text>
<polygon fill="none" stroke="#000000" stroke-width="3" points="237.5,-261.5 237.5,-389.5 434.5,-389.5 434.5,-261.5 237.5,-261.5"/>
</g>
<!-- posts -->
<g id="node3" class="node">
<title>posts</title>
<polygon fill="#efefef" stroke="transparent" points="129,-102.5 129,-137.5 283,-137.5 283,-102.5 129,-102.5"/>
<polygon fill="none" stroke="#000000" points="129,-102.5 129,-137.5 283,-137.5 283,-102.5 129,-102.5"/>
<text text-anchor="start" x="135.8658" y="-115.3" font-family="Arial Bold" font-size="18.00" fill="#000000">posts</text>
<text text-anchor="start" x="178.8804" y="-115.3" font-family="Arial" font-size="14.00" fill="#000000"> </text>
<text text-anchor="start" x="182.771" y="-115.3" font-family="Arial" font-size="14.00" fill="#666666">[BASE TABLE]</text>
<polygon fill="none" stroke="#000000" points="129,-72.5 129,-102.5 283,-102.5 283,-72.5 129,-72.5"/>
<text text-anchor="start" x="136" y="-83.9" font-family="Arial" font-size="14.00" fill="#000000">id </text>
<text text-anchor="start" x="150.7798" y="-83.9" font-family="Arial" font-size="14.00" fill="#666666">[bigint]</text>
<polygon fill="none" stroke="#000000" points="129,-42.5 129,-72.5 283,-72.5 283,-42.5 129,-42.5"/>
<text text-anchor="start" x="136" y="-53.9" font-family="Arial" font-size="14.00" fill="#000000">user_id </text>
<text text-anchor="start" x="185.7882" y="-53.9" font-family="Arial" font-size="14.00" fill="#666666">[int]</text>
</g>
<!-- comments&#45;&gt;posts -->
<g id="edge2" class="edge">
<title>comments:post_id&#45;&gt;posts:id</title>
<path fill="none" stroke="#000000" d="M228.9606,-306.0177C203.2145,-297.0932 223.4577,-249.798 239,-217 249.8201,-194.167 272.1799,-203.833 283,-181 300.7953,-143.4475 324.5556,-87.5 283,-87.5"/>
<polygon fill="#000000" stroke="#000000" points="229.1072,-306.0393 238.3427,-311.9517 234.0536,-306.7696 239,-307.5 239,-307.5 239,-307.5 234.0536,-306.7696 239.6573,-303.0483 229.1072,-306.0393 229.1072,-306.0393"/>
<text text-anchor="start" x="7.495" y="-317.5" font-family="Arial" font-size="10.00" fill="#000000">FOREIGN KEY (post_id) REFERENCES posts (id)</text>
</g>
<!-- users -->
<g id="node5" class="node">
<title>users</title>
<polygon fill="#efefef" stroke="transparent" points="388,-87.5 388,-122.5 543,-122.5 543,-87.5 388,-87.5"/>
<polygon fill="none" stroke="#000000" points="388,-87.5 388,-122.5 543,-122.5 543,-87.5 388,-87.5"/>
<text text-anchor="start" x="394.8708" y="-100.3" font-family="Arial Bold" font-size="18.00" fill="#000000">users</text>
<text text-anchor="start" x="438.8754" y="-100.3" font-family="Arial" font-size="14.00" fill="#000000"> </text>
<text text-anchor="start" x="442.766" y="-100.3" font-family="Arial" font-size="14.00" fill="#666666">[BASE TABLE]</text>
<polygon fill="none" stroke="#000000" points="388,-57.5 388,-87.5 543,-87.5 543,-57.5 388,-57.5"/>
<text text-anchor="start" x="395" y="-68.9" font-family="Arial" font-size="14.00" fill="#000000">id </text>
<text text-anchor="start" x="409.7798" y="-68.9" font-family="Arial" font-size="14.00" fill="#666666">[int]</text>
</g>
<!-- comments&#45;&gt;users -->
<g id="edge4" class="edge">
<title>comments:user_id&#45;&gt;users:id</title>
<path fill="none" stroke="#000000" d="M442.89,-274.8467C454.3982,-266.1756 440.9495,-238.0247 433,-217 422.3091,-188.7249 398.6909,-194.2751 388,-166 373.3031,-127.1301 346.4444,-72.5 388,-72.5"/>
<polygon fill="#000000" stroke="#000000" points="442.6585,-274.9088 431.8339,-273.1537 437.8292,-276.2044 433,-277.5 433,-277.5 433,-277.5 437.8292,-276.2044 434.1661,-281.8463 442.6585,-274.9088 442.6585,-274.9088"/>
<text text-anchor="start" x="439.945" y="-287.5" font-family="Arial" font-size="10.00" fill="#000000">FOREIGN KEY (user_id) REFERENCES users (id)</text>
</g>
<!-- logs -->
<g id="node2" class="node">
<title>logs</title>
<polygon fill="#efefef" stroke="transparent" points="101,-632.5 101,-667.5 267,-667.5 267,-632.5 101,-632.5"/>
<polygon fill="none" stroke="#000000" points="101,-632.5 101,-667.5 267,-667.5 267,-632.5 101,-632.5"/>
<text text-anchor="start" x="118.8698" y="-645.3" font-family="Arial Bold" font-size="18.00" fill="#000000">logs</text>
<text text-anchor="start" x="151.8764" y="-645.3" font-family="Arial" font-size="14.00" fill="#000000"> </text>
<text text-anchor="start" x="155.767" y="-645.3" font-family="Arial" font-size="14.00" fill="#666666">[BASE TABLE]</text>
<polygon fill="none" stroke="#000000" points="101,-602.5 101,-632.5 267,-632.5 267,-602.5 101,-602.5"/>
<text text-anchor="start" x="108" y="-613.9" font-family="Arial" font-size="14.00" fill="#000000">user_id </text>
<text text-anchor="start" x="157.7882" y="-613.9" font-family="Arial" font-size="14.00" fill="#666666">[int]</text>
<polygon fill="none" stroke="#000000" points="101,-572.5 101,-602.5 267,-602.5 267,-572.5 101,-572.5"/>
<text text-anchor="start" x="108" y="-583.9" font-family="Arial" font-size="14.00" fill="#000000">post_id </text>
<text text-anchor="start" x="157.0182" y="-583.9" font-family="Arial" font-size="14.00" fill="#666666">[bigint]</text>
<polygon fill="none" stroke="#000000" points="101,-542.5 101,-572.5 267,-572.5 267,-542.5 101,-542.5"/>
<text text-anchor="start" x="108" y="-553.9" font-family="Arial" font-size="14.00" fill="#000000">comment_id </text>
<text text-anchor="start" x="188.122" y="-553.9" font-family="Arial" font-size="14.00" fill="#666666">[bigint]</text>
<polygon fill="none" stroke="#000000" points="101,-512.5 101,-542.5 267,-542.5 267,-512.5 101,-512.5"/>
<text text-anchor="start" x="107.7644" y="-523.9" font-family="Arial" font-size="14.00" fill="#000000">comment_star_id </text>
<text text-anchor="start" x="219.0028" y="-523.9" font-family="Arial" font-size="14.00" fill="#666666">[bigint]</text>
</g>
<!-- logs&#45;&gt;comments -->
<g id="edge1" class="edge">
<title>logs:comment_id&#45;&gt;comments:id</title>
<path fill="none" stroke="#000000" stroke-dasharray="5,2" d="M276.9152,-555.9983C300.694,-547.342 278.3391,-503.0481 267,-470 260.4217,-450.8274 245.5783,-453.1726 239,-434 225.081,-393.4325 196.1111,-337.5 239,-337.5"/>
<polygon fill="#000000" stroke="#000000" points="276.8873,-556.0025 266.3261,-553.0507 271.9436,-556.7512 267,-557.5 267,-557.5 267,-557.5 271.9436,-556.7512 267.6739,-561.9493 276.8873,-556.0025 276.8873,-556.0025"/>
<text text-anchor="start" x="274.3245" y="-567.5" font-family="Arial" font-size="10.00" fill="#000000">Additional Relation</text>
</g>
<!-- comment_stars -->
<g id="node4" class="node">
<title>comment_stars</title>
<polygon fill="#efefef" stroke="transparent" points="371,-617.5 371,-652.5 605,-652.5 605,-617.5 371,-617.5"/>
<polygon fill="none" stroke="#000000" points="371,-617.5 371,-652.5 605,-652.5 605,-617.5 371,-617.5"/>
<text text-anchor="start" x="377.8671" y="-630.3" font-family="Arial Bold" font-size="18.00" fill="#000000">comment_stars</text>
<text text-anchor="start" x="500.8791" y="-630.3" font-family="Arial" font-size="14.00" fill="#000000"> </text>
<text text-anchor="start" x="504.7697" y="-630.3" font-family="Arial" font-size="14.00" fill="#666666">[BASE TABLE]</text>
<polygon fill="none" stroke="#000000" points="371,-587.5 371,-617.5 605,-617.5 605,-587.5 371,-587.5"/>
<text text-anchor="start" x="378" y="-598.9" font-family="Arial" font-size="14.00" fill="#000000">id </text>
<text text-anchor="start" x="392.7798" y="-598.9" font-family="Arial" font-size="14.00" fill="#666666">[bigint]</text>
<polygon fill="none" stroke="#000000" points="371,-557.5 371,-587.5 605,-587.5 605,-557.5 371,-557.5"/>
<text text-anchor="start" x="378" y="-568.9" font-family="Arial" font-size="14.00" fill="#000000">comment_post_id </text>
<text text-anchor="start" x="492.3604" y="-568.9" font-family="Arial" font-size="14.00" fill="#666666">[bigint]</text>
<polygon fill="none" stroke="#000000" points="371,-527.5 371,-557.5 605,-557.5 605,-527.5 371,-527.5"/>
<text text-anchor="start" x="378" y="-538.9" font-family="Arial" font-size="14.00" fill="#000000">comment_user_id </text>
<text text-anchor="start" x="493.1304" y="-538.9" font-family="Arial" font-size="14.00" fill="#666666">[int]</text>
</g>
<!-- comment_stars&#45;&gt;comments -->
<g id="edge3" class="edge">
<title>comment_stars:comment_post_id&#45;&gt;comments:post_id</title>
<path fill="none" stroke="#000000" d="M360.9739,-570.9533C336.5786,-562.0465 356.0795,-516.5932 371,-485 386.237,-452.7367 417.763,-466.2633 433,-434 457.0092,-383.1621 489.2222,-307.5 433,-307.5"/>
<polygon fill="#000000" stroke="#000000" points="361.1169,-570.9753 370.3139,-576.9474 366.0585,-571.7376 371,-572.5 371,-572.5 371,-572.5 366.0585,-571.7376 371.6861,-568.0526 361.1169,-570.9753 361.1169,-570.9753"/>
<text text-anchor="start" x="378.1435" y="-582.5" font-family="Arial" font-size="10.00" fill="#000000">FOREIGN KEY (comment_post_id, comment_user_id) REFERENCES comments (post_id, user_id)</text>
</g>
</g>
</svg>
