<?xml version="1.0" encoding="UTF-8" standalone="no"?>
<!DOCTYPE svg PUBLIC "-//W3C//DTD SVG 1.1//EN"
 "http://www.w3.org/Graphics/SVG/1.1/DTD/svg11.dtd">
<!-- Generated by graphviz version 2.40.1 (20161225.0304)
 -->
<!-- Title: logs Pages: 1 -->
<svg width="1144pt" height="502pt"
 viewBox="0.00 0.00 1143.50 502.00" xmlns="http://www.w3.org/2000/svg" xmlns:xlink="http://www.w3.org/1999/xlink">
<g id="graph0" class="graph" transform="scale(1 1) rotate(0) translate(4 498)">
<title>logs</title>
<polygon fill="#ffffff" stroke="transparent" points="-4,4 -4,-498 1139.5,-498 1139.5,4 -4,4"/>
<!-- logs -->
<g id="node1" class="node">
<title>logs</title>
<polygon fill="#efefef" stroke="transparent" points="431.5,-412.5 431.5,-447.5 605.5,-447.5 605.5,-412.5 431.5,-412.5"/>
<polygon fill="none" stroke="#000000" points="431.5,-412.5 431.5,-447.5 605.5,-447.5 605.5,-412.5 431.5,-412.5"/>
<text text-anchor="start" x="438.2127" y="-425.3" font-family="Arial Bold" font-size="18.00" fill="#000000">logs</text>
<text text-anchor="start" x="471.2193" y="-425.3" font-family="Arial" font-size="14.00" fill="#000000">    </text>
<text text-anchor="start" x="505.4241" y="-425.3" font-family="Arial" font-size="14.00" fill="#666666">[BASE TABLE]</text>
<polygon fill="none" stroke="#000000" points="431.5,-382.5 431.5,-412.5 605.5,-412.5 605.5,-382.5 431.5,-382.5"/>
<text text-anchor="start" x="438.5" y="-393.9" font-family="Arial" font-size="14.00" fill="#000000">user_id </text>
<text text-anchor="start" x="488.2882" y="-393.9" font-family="Arial" font-size="14.00" fill="#666666">[int]</text>
<polygon fill="none" stroke="#000000" points="431.5,-352.5 431.5,-382.5 605.5,-382.5 605.5,-352.5 431.5,-352.5"/>
<text text-anchor="start" x="438.5" y="-363.9" font-family="Arial" font-size="14.00" fill="#000000">post_id </text>
<text text-anchor="start" x="487.5182" y="-363.9" font-family="Arial" font-size="14.00" fill="#666666">[bigint]</text>
<polygon fill="none" stroke="#000000" points="431.5,-322.5 431.5,-352.5 605.5,-352.5 605.5,-322.5 431.5,-322.5"/>
<text text-anchor="start" x="438.5" y="-333.9" font-family="Arial" font-size="14.00" fill="#000000">comment_id </text>
<text text-anchor="start" x="518.622" y="-333.9" font-family="Arial" font-size="14.00" fill="#666666">[bigint]</text>
<polygon fill="none" stroke="#000000" points="431.5,-292.5 431.5,-322.5 605.5,-322.5 605.5,-292.5 431.5,-292.5"/>
<text text-anchor="start" x="438.5" y="-303.9" font-family="Arial" font-size="14.00" fill="#000000">comment_star_id </text>
<text text-anchor="start" x="549.7384" y="-303.9" font-family="Arial" font-size="14.00" fill="#666666">[bigint]</text>
<polygon fill="none" stroke="#000000" stroke-width="3" points="430,-291.5 430,-449.5 607,-449.5 607,-291.5 430,-291.5"/>
</g>
<!-- users -->
<g id="node2" class="node">
<title>users</title>
<polygon fill="#efefef" stroke="transparent" points="43.5,-102.5 43.5,-137.5 198.5,-137.5 198.5,-102.5 43.5,-102.5"/>
<polygon fill="none" stroke="#000000" points="43.5,-102.5 43.5,-137.5 198.5,-137.5 198.5,-102.5 43.5,-102.5"/>
<text text-anchor="start" x="50.3708" y="-115.3" font-family="Arial Bold" font-size="18.00" fill="#000000">users</text>
<text text-anchor="start" x="94.3754" y="-115.3" font-family="Arial" font-size="14.00" fill="#000000"> </text>
<text text-anchor="start" x="98.266" y="-115.3" font-family="Arial" font-size="14.00" fill="#666666">[BASE TABLE]</text>
<polygon fill="none" stroke="#000000" points="43.5,-72.5 43.5,-102.5 198.5,-102.5 198.5,-72.5 43.5,-72.5"/>
<text text-anchor="start" x="50.5" y="-83.9" font-family="Arial" font-size="14.00" fill="#000000">id </text>
<text text-anchor="start" x="65.2798" y="-83.9" font-family="Arial" font-size="14.00" fill="#666666">[int]</text>
</g>
<!-- logs&#45;&gt;users -->
<g id="edge1" class="edge">
<title>logs:user_id&#45;&gt;users:id</title>
<path fill="none" stroke="#000000" stroke-dasharray="5,2" d="M421.3175,-397.2544C315.8296,-392.035 312.3032,-304.4166 250.5,-211 217.6392,-161.3303 258.056,-87.5 198.5,-87.5"/>
<polygon fill="#000000" stroke="#000000" points="421.5029,-397.2588 431.3915,-401.9987 426.5015,-397.3794 431.5,-397.5 431.5,-397.5 431.5,-397.5 426.5015,-397.3794 431.6085,-393.0013 421.5029,-397.2588 421.5029,-397.2588"/>
<text text-anchor="start" x="373.524" y="-407.5" font-family="Arial" font-size="10.00" fill="#000000">logs&#45;&gt;users</text>
</g>
<!-- posts -->
<g id="node3" class="node">
<title>posts</title>
<polygon fill="#efefef" stroke="transparent" points="302.5,-117.5 302.5,-152.5 456.5,-152.5 456.5,-117.5 302.5,-117.5"/>
<polygon fill="none" stroke="#000000" points="302.5,-117.5 302.5,-152.5 456.5,-152.5 456.5,-117.5 302.5,-117.5"/>
<text text-anchor="start" x="309.3658" y="-130.3" font-family="Arial Bold" font-size="18.00" fill="#000000">posts</text>
<text text-anchor="start" x="352.3804" y="-130.3" font-family="Arial" font-size="14.00" fill="#000000"> </text>
<text text-anchor="start" x="356.271" y="-130.3" font-family="Arial" font-size="14.00" fill="#666666">[BASE TABLE]</text>
<polygon fill="none" stroke="#000000" points="302.5,-87.5 302.5,-117.5 456.5,-117.5 456.5,-87.5 302.5,-87.5"/>
<text text-anchor="start" x="309.5" y="-98.9" font-family="Arial" font-size="14.00" fill="#000000">id </text>
<text text-anchor="start" x="324.2798" y="-98.9" font-family="Arial" font-size="14.00" fill="#666666">[bigint]</text>
<polygon fill="none" stroke="#000000" points="302.5,-57.5 302.5,-87.5 456.5,-87.5 456.5,-57.5 302.5,-57.5"/>
<text text-anchor="start" x="309.5" y="-68.9" font-family="Arial" font-size="14.00" fill="#000000">user_id </text>
<text text-anchor="start" x="359.2882" y="-68.9" font-family="Arial" font-size="14.00" fill="#666666">[int]</text>
</g>
<!-- logs&#45;&gt;posts -->
<g id="edge2" class="edge">
<title>logs:post_id&#45;&gt;posts:id</title>
<path fill="none" stroke="#000000" stroke-dasharray="5,2" d="M421.0948,-366.4054C383.9364,-357.4464 420.2987,-295.2989 431.5,-247 437.203,-222.4091 450.797,-220.5909 456.5,-196 465.8882,-155.5188 498.0556,-102.5 456.5,-102.5"/>
<polygon fill="#000000" stroke="#000000" points="421.5549,-366.4537 431.0292,-371.9753 426.5274,-366.9769 431.5,-367.5 431.5,-367.5 431.5,-367.5 426.5274,-366.9769 431.9708,-363.0247 421.5549,-366.4537 421.5549,-366.4537"/>
<text text-anchor="start" x="341.8245" y="-377.5" font-family="Arial" font-size="10.00" fill="#000000">Additional Relation</text>
</g>
<!-- comments -->
<g id="node4" class="node">
<title>comments</title>
<polygon fill="#efefef" stroke="transparent" points="560.5,-132.5 560.5,-167.5 754.5,-167.5 754.5,-132.5 560.5,-132.5"/>
<polygon fill="none" stroke="#000000" points="560.5,-132.5 560.5,-167.5 754.5,-167.5 754.5,-132.5 560.5,-132.5"/>
<text text-anchor="start" x="567.3705" y="-145.3" font-family="Arial Bold" font-size="18.00" fill="#000000">comments</text>
<text text-anchor="start" x="650.3757" y="-145.3" font-family="Arial" font-size="14.00" fill="#000000"> </text>
<text text-anchor="start" x="654.2663" y="-145.3" font-family="Arial" font-size="14.00" fill="#666666">[BASE TABLE]</text>
<polygon fill="none" stroke="#000000" points="560.5,-102.5 560.5,-132.5 754.5,-132.5 754.5,-102.5 560.5,-102.5"/>
<text text-anchor="start" x="567.5" y="-113.9" font-family="Arial" font-size="14.00" fill="#000000">id </text>
<text text-anchor="start" x="582.2798" y="-113.9" font-family="Arial" font-size="14.00" fill="#666666">[bigint]</text>
<polygon fill="none" stroke="#000000" points="560.5,-72.5 560.5,-102.5 754.5,-102.5 754.5,-72.5 560.5,-72.5"/>
<text text-anchor="start" x="567.5" y="-83.9" font-family="Arial" font-size="14.00" fill="#000000">post_id </text>
<text text-anchor="start" x="616.5182" y="-83.9" font-family="Arial" font-size="14.00" fill="#666666">[bigint]</text>
<polygon fill="none" stroke="#000000" points="560.5,-42.5 560.5,-72.5 754.5,-72.5 754.5,-42.5 560.5,-42.5"/>
<text text-anchor="start" x="567.5" y="-53.9" font-family="Arial" font-size="14.00" fill="#000000">user_id </text>
<text text-anchor="start" x="617.2882" y="-53.9" font-family="Arial" font-size="14.00" fill="#666666">[int]</text>
</g>
<!-- logs&#45;&gt;comments -->
<g id="edge3" class="edge">
<title>logs:comment_id&#45;&gt;comments:id</title>
<path fill="none" stroke="#000000" stroke-dasharray="5,2" d="M615.5445,-336.0152C641.3207,-327.0764 621.2223,-279.7121 605.5,-247 594.405,-223.9154 571.595,-234.0846 560.5,-211 542.4986,-173.5458 518.9444,-117.5 560.5,-117.5"/>
<polygon fill="#000000" stroke="#000000" points="615.3925,-336.0376 604.8419,-333.0484 610.4463,-336.7688 605.5,-337.5 605.5,-337.5 605.5,-337.5 610.4463,-336.7688 606.1581,-341.9516 615.3925,-336.0376 615.3925,-336.0376"/>
<text text-anchor="start" x="612.8245" y="-347.5" font-family="Arial" font-size="10.00" fill="#000000">Additional Relation</text>
</g>
<!-- comment_stars -->
<g id="node5" class="node">
<title>comment_stars</title>
<polygon fill="#efefef" stroke="transparent" points="858.5,-132.5 858.5,-167.5 1092.5,-167.5 1092.5,-132.5 858.5,-132.5"/>
<polygon fill="none" stroke="#000000" points="858.5,-132.5 858.5,-167.5 1092.5,-167.5 1092.5,-132.5 858.5,-132.5"/>
<text text-anchor="start" x="865.3671" y="-145.3" font-family="Arial Bold" font-size="18.00" fill="#000000">comment_stars</text>
<text text-anchor="start" x="988.3791" y="-145.3" font-family="Arial" font-size="14.00" fill="#000000"> </text>
<text text-anchor="start" x="992.2697" y="-145.3" font-family="Arial" font-size="14.00" fill="#666666">[BASE TABLE]</text>
<polygon fill="none" stroke="#000000" points="858.5,-102.5 858.5,-132.5 1092.5,-132.5 1092.5,-102.5 858.5,-102.5"/>
<text text-anchor="start" x="865.5" y="-113.9" font-family="Arial" font-size="14.00" fill="#000000">id </text>
<text text-anchor="start" x="880.2798" y="-113.9" font-family="Arial" font-size="14.00" fill="#666666">[bigint]</text>
<polygon fill="none" stroke="#000000" points="858.5,-72.5 858.5,-102.5 1092.5,-102.5 1092.5,-72.5 858.5,-72.5"/>
<text text-anchor="start" x="865.5" y="-83.9" font-family="Arial" font-size="14.00" fill="#000000">comment_post_id </text>
<text text-anchor="start" x="979.8604" y="-83.9" font-family="Arial" font-size="14.00" fill="#666666">[bigint]</text>
<polygon fill="none" stroke="#000000" points="858.5,-42.5 858.5,-72.5 1092.5,-72.5 1092.5,-42.5 858.5,-42.5"/>
<text text-anchor="start" x="865.5" y="-53.9" font-family="Arial" font-size="14.00" fill="#000000">comment_user_id </text>
<text text-anchor="start" x="980.6304" y="-53.9" font-family="Arial" font-size="14.00" fill="#666666">[int]</text>
</g>
<!-- logs&#45;&gt;comment_stars -->
<g id="edge4" class="edge">
<title>logs:comment_star_id&#45;&gt;comment_stars:id</title>
<path fill="none" stroke="#000000" stroke-dasharray="5,2" d="M615.6993,-307.3936C706.7406,-305.4432 736.8965,-276.5509 806.5,-211 841.1154,-178.4 810.9502,-117.5 858.5,-117.5"/>
<polygon fill="#000000" stroke="#000000" points="615.4995,-307.3956 605.453,-303.0002 610.4997,-307.4478 605.5,-307.5 605.5,-307.5 605.5,-307.5 610.4997,-307.4478 605.547,-311.9998 615.4995,-307.3956 615.4995,-307.3956"/>
<text text-anchor="start" x="612.8245" y="-317.5" font-family="Arial" font-size="10.00" fill="#000000">Additional Relation</text>
</g>
</g>
</svg>
