<?xml version="1.0" encoding="UTF-8" standalone="no"?>
<!DOCTYPE svg PUBLIC "-//W3C//DTD SVG 1.1//EN"
 "http://www.w3.org/Graphics/SVG/1.1/DTD/svg11.dtd">
<!-- Generated by graphviz version 2.40.1 (20161225.0304)
 -->
<!-- Title: logs Pages: 1 -->
<svg width="1264pt" height="502pt"
 viewBox="0.00 0.00 1263.50 502.00" xmlns="http://www.w3.org/2000/svg" xmlns:xlink="http://www.w3.org/1999/xlink">
<g id="graph0" class="graph" transform="scale(1 1) rotate(0) translate(4 498)">
<title>logs</title>
<polygon fill="#ffffff" stroke="transparent" points="-4,4 -4,-498 1259.5,-498 1259.5,4 -4,4"/>
<!-- logs -->
<g id="node1" class="node">
<title>logs</title>
<polygon fill="#efefef" stroke="transparent" points="491.5,-412.5 491.5,-447.5 665.5,-447.5 665.5,-412.5 491.5,-412.5"/>
<polygon fill="none" stroke="#000000" points="491.5,-412.5 491.5,-447.5 665.5,-447.5 665.5,-412.5 491.5,-412.5"/>
<text text-anchor="start" x="498.2127" y="-425.3" font-family="Arial Bold" font-size="18.00" fill="#000000">logs</text>
<text text-anchor="start" x="531.2193" y="-425.3" font-family="Arial" font-size="14.00" fill="#000000">    </text>
<text text-anchor="start" x="565.4241" y="-425.3" font-family="Arial" font-size="14.00" fill="#666666">[BASE TABLE]</text>
<polygon fill="none" stroke="#000000" points="491.5,-382.5 491.5,-412.5 665.5,-412.5 665.5,-382.5 491.5,-382.5"/>
<text text-anchor="start" x="498.5" y="-393.9" font-family="Arial" font-size="14.00" fill="#000000">user_id </text>
<text text-anchor="start" x="548.2882" y="-393.9" font-family="Arial" font-size="14.00" fill="#666666">[int]</text>
<polygon fill="none" stroke="#000000" points="491.5,-352.5 491.5,-382.5 665.5,-382.5 665.5,-352.5 491.5,-352.5"/>
<text text-anchor="start" x="498.5" y="-363.9" font-family="Arial" font-size="14.00" fill="#000000">post_id </text>
<text text-anchor="start" x="547.5182" y="-363.9" font-family="Arial" font-size="14.00" fill="#666666">[bigint]</text>
<polygon fill="none" stroke="#000000" points="491.5,-322.5 491.5,-352.5 665.5,-352.5 665.5,-322.5 491.5,-322.5"/>
<text text-anchor="start" x="498.5" y="-333.9" font-family="Arial" font-size="14.00" fill="#000000">comment_id </text>
<text text-anchor="start" x="578.622" y="-333.9" font-family="Arial" font-size="14.00" fill="#666666">[bigint]</text>
<polygon fill="none" stroke="#000000" points="491.5,-292.5 491.5,-322.5 665.5,-322.5 665.5,-292.5 491.5,-292.5"/>
<text text-anchor="start" x="498.5" y="-303.9" font-family="Arial" font-size="14.00" fill="#000000">comment_star_id </text>
<text text-anchor="start" x="609.7384" y="-303.9" font-family="Arial" font-size="14.00" fill="#666666">[bigint]</text>
<polygon fill="none" stroke="#000000" stroke-width="3" points="490,-291.5 490,-449.5 667,-449.5 667,-291.5 490,-291.5"/>
</g>
<!-- users -->
<g id="node2" class="node">
<title>users</title>
<polygon fill="#efefef" stroke="transparent" points="43.5,-102.5 43.5,-137.5 228.5,-137.5 228.5,-102.5 43.5,-102.5"/>
<polygon fill="none" stroke="#000000" points="43.5,-102.5 43.5,-137.5 228.5,-137.5 228.5,-102.5 43.5,-102.5"/>
<text text-anchor="start" x="50.2137" y="-115.3" font-family="Arial Bold" font-size="18.00" fill="#000000">users</text>
<text text-anchor="start" x="94.2183" y="-115.3" font-family="Arial" font-size="14.00" fill="#000000">    </text>
<text text-anchor="start" x="128.4231" y="-115.3" font-family="Arial" font-size="14.00" fill="#666666">[BASE TABLE]</text>
<polygon fill="none" stroke="#000000" points="43.5,-72.5 43.5,-102.5 228.5,-102.5 228.5,-72.5 43.5,-72.5"/>
<text text-anchor="start" x="50.5" y="-83.9" font-family="Arial" font-size="14.00" fill="#000000">id    </text>
<text text-anchor="start" x="95.594" y="-83.9" font-family="Arial" font-size="14.00" fill="#666666">[int]</text>
</g>
<!-- logs&#45;&gt;users -->
<g id="edge1" class="edge">
<title>logs:user_id&#45;&gt;users:id</title>
<path fill="none" stroke="#000000" stroke-dasharray="5,2" d="M481.4814,-397.3111C365.5936,-392.848 351.5045,-309.885 280.5,-211 245.7633,-162.6236 288.056,-87.5 228.5,-87.5"/>
<polygon fill="#000000" stroke="#000000" points="481.5018,-397.3114 491.4151,-401.9992 486.5009,-397.4057 491.5,-397.5 491.5,-397.5 491.5,-397.5 486.5009,-397.4057 491.5849,-393.0008 481.5018,-397.3114 481.5018,-397.3114"/>
<text text-anchor="start" x="433.524" y="-407.5" font-family="Arial" font-size="10.00" fill="#000000">logs&#45;&gt;users</text>
</g>
<!-- posts -->
<g id="node3" class="node">
<title>posts</title>
<polygon fill="#efefef" stroke="transparent" points="332.5,-117.5 332.5,-152.5 516.5,-152.5 516.5,-117.5 332.5,-117.5"/>
<polygon fill="none" stroke="#000000" points="332.5,-117.5 332.5,-152.5 516.5,-152.5 516.5,-117.5 332.5,-117.5"/>
<text text-anchor="start" x="339.2087" y="-130.3" font-family="Arial Bold" font-size="18.00" fill="#000000">posts</text>
<text text-anchor="start" x="382.2233" y="-130.3" font-family="Arial" font-size="14.00" fill="#000000">    </text>
<text text-anchor="start" x="416.4281" y="-130.3" font-family="Arial" font-size="14.00" fill="#666666">[BASE TABLE]</text>
<polygon fill="none" stroke="#000000" points="332.5,-87.5 332.5,-117.5 516.5,-117.5 516.5,-87.5 332.5,-87.5"/>
<text text-anchor="start" x="339.5" y="-98.9" font-family="Arial" font-size="14.00" fill="#000000">id    </text>
<text text-anchor="start" x="384.594" y="-98.9" font-family="Arial" font-size="14.00" fill="#666666">[bigint]</text>
<polygon fill="none" stroke="#000000" points="332.5,-57.5 332.5,-87.5 516.5,-87.5 516.5,-57.5 332.5,-57.5"/>
<text text-anchor="start" x="339.5" y="-68.9" font-family="Arial" font-size="14.00" fill="#000000">user_id    </text>
<text text-anchor="start" x="419.6024" y="-68.9" font-family="Arial" font-size="14.00" fill="#666666">[int]</text>
</g>
<!-- logs&#45;&gt;posts -->
<g id="edge2" class="edge">
<title>logs:post_id&#45;&gt;posts:id</title>
<path fill="none" stroke="#000000" stroke-dasharray="5,2" d="M481.0948,-366.4054C443.9364,-357.4464 480.2987,-295.2989 491.5,-247 497.203,-222.4091 510.797,-220.5909 516.5,-196 525.8882,-155.5188 558.0556,-102.5 516.5,-102.5"/>
<polygon fill="#000000" stroke="#000000" points="481.5549,-366.4537 491.0292,-371.9753 486.5274,-366.9769 491.5,-367.5 491.5,-367.5 491.5,-367.5 486.5274,-366.9769 491.9708,-363.0247 481.5549,-366.4537 481.5549,-366.4537"/>
<text text-anchor="start" x="401.8245" y="-377.5" font-family="Arial" font-size="10.00" fill="#000000">Additional Relation</text>
</g>
<!-- comments -->
<g id="node4" class="node">
<title>comments</title>
<polygon fill="#efefef" stroke="transparent" points="620.5,-132.5 620.5,-167.5 844.5,-167.5 844.5,-132.5 620.5,-132.5"/>
<polygon fill="none" stroke="#000000" points="620.5,-132.5 620.5,-167.5 844.5,-167.5 844.5,-132.5 620.5,-132.5"/>
<text text-anchor="start" x="627.2134" y="-145.3" font-family="Arial Bold" font-size="18.00" fill="#000000">comments</text>
<text text-anchor="start" x="710.2186" y="-145.3" font-family="Arial" font-size="14.00" fill="#000000">    </text>
<text text-anchor="start" x="744.4234" y="-145.3" font-family="Arial" font-size="14.00" fill="#666666">[BASE TABLE]</text>
<polygon fill="none" stroke="#000000" points="620.5,-102.5 620.5,-132.5 844.5,-132.5 844.5,-102.5 620.5,-102.5"/>
<text text-anchor="start" x="627.5" y="-113.9" font-family="Arial" font-size="14.00" fill="#000000">id    </text>
<text text-anchor="start" x="672.594" y="-113.9" font-family="Arial" font-size="14.00" fill="#666666">[bigint]</text>
<polygon fill="none" stroke="#000000" points="620.5,-72.5 620.5,-102.5 844.5,-102.5 844.5,-72.5 620.5,-72.5"/>
<text text-anchor="start" x="627.5" y="-83.9" font-family="Arial" font-size="14.00" fill="#000000">post_id    </text>
<text text-anchor="start" x="706.8324" y="-83.9" font-family="Arial" font-size="14.00" fill="#666666">[bigint]</text>
<polygon fill="none" stroke="#000000" points="620.5,-42.5 620.5,-72.5 844.5,-72.5 844.5,-42.5 620.5,-42.5"/>
<text text-anchor="start" x="627.5" y="-53.9" font-family="Arial" font-size="14.00" fill="#000000">user_id    </text>
<text text-anchor="start" x="707.6024" y="-53.9" font-family="Arial" font-size="14.00" fill="#666666">[int]</text>
</g>
<!-- logs&#45;&gt;comments -->
<g id="edge3" class="edge">
<title>logs:comment_id&#45;&gt;comments:id</title>
<path fill="none" stroke="#000000" stroke-dasharray="5,2" d="M675.5445,-336.0152C701.3207,-327.0764 681.2223,-279.7121 665.5,-247 654.405,-223.9154 631.595,-234.0846 620.5,-211 602.4986,-173.5458 578.9444,-117.5 620.5,-117.5"/>
<polygon fill="#000000" stroke="#000000" points="675.3925,-336.0376 664.8419,-333.0484 670.4463,-336.7688 665.5,-337.5 665.5,-337.5 665.5,-337.5 670.4463,-336.7688 666.1581,-341.9516 675.3925,-336.0376 675.3925,-336.0376"/>
<text text-anchor="start" x="672.8245" y="-347.5" font-family="Arial" font-size="10.00" fill="#000000">Additional Relation</text>
</g>
<!-- comment_stars -->
<g id="node5" class="node">
<title>comment_stars</title>
<polygon fill="#efefef" stroke="transparent" points="948.5,-132.5 948.5,-167.5 1212.5,-167.5 1212.5,-132.5 948.5,-132.5"/>
<polygon fill="none" stroke="#000000" points="948.5,-132.5 948.5,-167.5 1212.5,-167.5 1212.5,-132.5 948.5,-132.5"/>
<text text-anchor="start" x="955.21" y="-145.3" font-family="Arial Bold" font-size="18.00" fill="#000000">comment_stars</text>
<text text-anchor="start" x="1078.222" y="-145.3" font-family="Arial" font-size="14.00" fill="#000000">    </text>
<text text-anchor="start" x="1112.4268" y="-145.3" font-family="Arial" font-size="14.00" fill="#666666">[BASE TABLE]</text>
<polygon fill="none" stroke="#000000" points="948.5,-102.5 948.5,-132.5 1212.5,-132.5 1212.5,-102.5 948.5,-102.5"/>
<text text-anchor="start" x="955.5" y="-113.9" font-family="Arial" font-size="14.00" fill="#000000">id    </text>
<text text-anchor="start" x="1000.594" y="-113.9" font-family="Arial" font-size="14.00" fill="#666666">[bigint]</text>
<polygon fill="none" stroke="#000000" points="948.5,-72.5 948.5,-102.5 1212.5,-102.5 1212.5,-72.5 948.5,-72.5"/>
<text text-anchor="start" x="955.5" y="-83.9" font-family="Arial" font-size="14.00" fill="#000000">comment_post_id    </text>
<text text-anchor="start" x="1100.1746" y="-83.9" font-family="Arial" font-size="14.00" fill="#666666">[bigint]</text>
<polygon fill="none" stroke="#000000" points="948.5,-42.5 948.5,-72.5 1212.5,-72.5 1212.5,-42.5 948.5,-42.5"/>
<text text-anchor="start" x="955.5" y="-53.9" font-family="Arial" font-size="14.00" fill="#000000">comment_user_id    </text>
<text text-anchor="start" x="1100.9446" y="-53.9" font-family="Arial" font-size="14.00" fill="#666666">[int]</text>
</g>
<!-- logs&#45;&gt;comment_stars -->
<g id="edge4" class="edge">
<title>logs:comment_star_id&#45;&gt;comment_stars:id</title>
<path fill="none" stroke="#000000" stroke-dasharray="5,2" d="M675.7166,-307.4336C779.1091,-306.0529 816.1417,-282.8386 896.5,-211 931.9495,-179.3089 900.9502,-117.5 948.5,-117.5"/>
<polygon fill="#000000" stroke="#000000" points="675.4998,-307.435 665.4707,-303.0001 670.4999,-307.4675 665.5,-307.5 665.5,-307.5 665.5,-307.5 670.4999,-307.4675 665.5293,-311.9999 675.4998,-307.435 675.4998,-307.435"/>
<text text-anchor="start" x="672.8245" y="-317.5" font-family="Arial" font-size="10.00" fill="#000000">Additional Relation</text>
</g>
</g>
</svg>
