<?xml version="1.0" encoding="UTF-8" standalone="no"?>
<!DOCTYPE svg PUBLIC "-//W3C//DTD SVG 1.1//EN"
 "http://www.w3.org/Graphics/SVG/1.1/DTD/svg11.dtd">
<!-- Generated by graphviz version 2.40.1 (20161225.0304)
 -->
<!-- Title: logs Pages: 1 -->
<svg width="1144pt" height="502pt"
 viewBox="0.00 0.00 1143.50 502.00" xmlns="http://www.w3.org/2000/svg" xmlns:xlink="http://www.w3.org/1999/xlink">
<g id="graph0" class="graph" transform="scale(1 1) rotate(0) translate(4 498)">
<title>logs</title>
<polygon fill="#ffffff" stroke="transparent" points="-4,4 -4,-498 1139.5,-498 1139.5,4 -4,4"/>
<!-- logs -->
<g id="node1" class="node">
<title>logs</title>
<polygon fill="#efefef" stroke="transparent" points="435.5,-412.5 435.5,-447.5 601.5,-447.5 601.5,-412.5 435.5,-412.5"/>
<polygon fill="none" stroke="#000000" points="435.5,-412.5 435.5,-447.5 601.5,-447.5 601.5,-412.5 435.5,-412.5"/>
<text text-anchor="start" x="453.3698" y="-425.3" font-family="Arial Bold" font-size="18.00" fill="#000000">logs</text>
<text text-anchor="start" x="486.3764" y="-425.3" font-family="Arial" font-size="14.00" fill="#000000"> </text>
<text text-anchor="start" x="490.267" y="-425.3" font-family="Arial" font-size="14.00" fill="#666666">[BASE TABLE]</text>
<polygon fill="none" stroke="#000000" points="435.5,-382.5 435.5,-412.5 601.5,-412.5 601.5,-382.5 435.5,-382.5"/>
<text text-anchor="start" x="442.5" y="-393.9" font-family="Arial" font-size="14.00" fill="#000000">user_id </text>
<text text-anchor="start" x="492.2882" y="-393.9" font-family="Arial" font-size="14.00" fill="#666666">[int]</text>
<polygon fill="none" stroke="#000000" points="435.5,-352.5 435.5,-382.5 601.5,-382.5 601.5,-352.5 435.5,-352.5"/>
<text text-anchor="start" x="442.5" y="-363.9" font-family="Arial" font-size="14.00" fill="#000000">post_id </text>
<text text-anchor="start" x="491.5182" y="-363.9" font-family="Arial" font-size="14.00" fill="#666666">[bigint]</text>
<polygon fill="none" stroke="#000000" points="435.5,-322.5 435.5,-352.5 601.5,-352.5 601.5,-322.5 435.5,-322.5"/>
<text text-anchor="start" x="442.5" y="-333.9" font-family="Arial" font-size="14.00" fill="#000000">comment_id </text>
<text text-anchor="start" x="522.622" y="-333.9" font-family="Arial" font-size="14.00" fill="#666666">[bigint]</text>
<polygon fill="none" stroke="#000000" points="435.5,-292.5 435.5,-322.5 601.5,-322.5 601.5,-292.5 435.5,-292.5"/>
<text text-anchor="start" x="442.2644" y="-303.9" font-family="Arial" font-size="14.00" fill="#000000">comment_star_id </text>
<text text-anchor="start" x="553.5028" y="-303.9" font-family="Arial" font-size="14.00" fill="#666666">[bigint]</text>
<polygon fill="none" stroke="#000000" stroke-width="3" points="434,-291.5 434,-449.5 603,-449.5 603,-291.5 434,-291.5"/>
</g>
<!-- users -->
<g id="node2" class="node">
<title>users</title>
<polygon fill="#efefef" stroke="transparent" points="43.5,-102.5 43.5,-137.5 198.5,-137.5 198.5,-102.5 43.5,-102.5"/>
<polygon fill="none" stroke="#000000" points="43.5,-102.5 43.5,-137.5 198.5,-137.5 198.5,-102.5 43.5,-102.5"/>
<text text-anchor="start" x="50.3708" y="-115.3" font-family="Arial Bold" font-size="18.00" fill="#000000">users</text>
<text text-anchor="start" x="94.3754" y="-115.3" font-family="Arial" font-size="14.00" fill="#000000"> </text>
<text text-anchor="start" x="98.266" y="-115.3" font-family="Arial" font-size="14.00" fill="#666666">[BASE TABLE]</text>
<polygon fill="none" stroke="#000000" points="43.5,-72.5 43.5,-102.5 198.5,-102.5 198.5,-72.5 43.5,-72.5"/>
<text text-anchor="start" x="50.5" y="-83.9" font-family="Arial" font-size="14.00" fill="#000000">id </text>
<text text-anchor="start" x="65.2798" y="-83.9" font-family="Arial" font-size="14.00" fill="#666666">[int]</text>
</g>
<!-- logs&#45;&gt;users -->
<g id="edge1" class="edge">
<title>logs:user_id&#45;&gt;users:id</title>
<path fill="none" stroke="#000000" stroke-dasharray="5,2" d="M425.2036,-397.2562C318.4917,-392.0752 313.4844,-305.0808 250.5,-211 217.3683,-161.5106 258.056,-87.5 198.5,-87.5"/>
<polygon fill="#000000" stroke="#000000" points="425.5028,-397.2632 435.3935,-401.9987 430.5014,-397.3816 435.5,-397.5 435.5,-397.5 435.5,-397.5 430.5014,-397.3816 435.6065,-393.0013 425.5028,-397.2632 425.5028,-397.2632"/>
<text text-anchor="start" x="377.524" y="-407.5" font-family="Arial" font-size="10.00" fill="#000000">logs&#45;&gt;users</text>
</g>
<!-- posts -->
<g id="node3" class="node">
<title>posts</title>
<polygon fill="#efefef" stroke="transparent" points="302.5,-117.5 302.5,-152.5 456.5,-152.5 456.5,-117.5 302.5,-117.5"/>
<polygon fill="none" stroke="#000000" points="302.5,-117.5 302.5,-152.5 456.5,-152.5 456.5,-117.5 302.5,-117.5"/>
<text text-anchor="start" x="309.3658" y="-130.3" font-family="Arial Bold" font-size="18.00" fill="#000000">posts</text>
<text text-anchor="start" x="352.3804" y="-130.3" font-family="Arial" font-size="14.00" fill="#000000"> </text>
<text text-anchor="start" x="356.271" y="-130.3" font-family="Arial" font-size="14.00" fill="#666666">[BASE TABLE]</text>
<polygon fill="none" stroke="#000000" points="302.5,-87.5 302.5,-117.5 456.5,-117.5 456.5,-87.5 302.5,-87.5"/>
<text text-anchor="start" x="309.5" y="-98.9" font-family="Arial" font-size="14.00" fill="#000000">id </text>
<text text-anchor="start" x="324.2798" y="-98.9" font-family="Arial" font-size="14.00" fill="#666666">[bigint]</text>
<polygon fill="none" stroke="#000000" points="302.5,-57.5 302.5,-87.5 456.5,-87.5 456.5,-57.5 302.5,-57.5"/>
<text text-anchor="start" x="309.5" y="-68.9" font-family="Arial" font-size="14.00" fill="#000000">user_id </text>
<text text-anchor="start" x="359.2882" y="-68.9" font-family="Arial" font-size="14.00" fill="#666666">[int]</text>
</g>
<!-- logs&#45;&gt;posts -->
<g id="edge2" class="edge">
<title>logs:post_id&#45;&gt;posts:id</title>
<path fill="none" stroke="#000000" stroke-dasharray="5,2" d="M425.1209,-366.411C388.1708,-357.4968 425.8782,-295.6381 435.5,-247 440.2571,-222.953 451.7429,-220.047 456.5,-196 464.5644,-155.2345 498.0556,-102.5 456.5,-102.5"/>
<polygon fill="#000000" stroke="#000000" points="425.5546,-366.4564 435.0304,-371.9754 430.5273,-366.9782 435.5,-367.5 435.5,-367.5 435.5,-367.5 430.5273,-366.9782 435.9696,-363.0246 425.5546,-366.4564 425.5546,-366.4564"/>
<text text-anchor="start" x="345.8245" y="-377.5" font-family="Arial" font-size="10.00" fill="#000000">Additional Relation</text>
</g>
<!-- comments -->
<g id="node4" class="node">
<title>comments</title>
<polygon fill="#efefef" stroke="transparent" points="560.5,-132.5 560.5,-167.5 754.5,-167.5 754.5,-132.5 560.5,-132.5"/>
<polygon fill="none" stroke="#000000" points="560.5,-132.5 560.5,-167.5 754.5,-167.5 754.5,-132.5 560.5,-132.5"/>
<text text-anchor="start" x="567.3705" y="-145.3" font-family="Arial Bold" font-size="18.00" fill="#000000">comments</text>
<text text-anchor="start" x="650.3757" y="-145.3" font-family="Arial" font-size="14.00" fill="#000000"> </text>
<text text-anchor="start" x="654.2663" y="-145.3" font-family="Arial" font-size="14.00" fill="#666666">[BASE TABLE]</text>
<polygon fill="none" stroke="#000000" points="560.5,-102.5 560.5,-132.5 754.5,-132.5 754.5,-102.5 560.5,-102.5"/>
<text text-anchor="start" x="567.5" y="-113.9" font-family="Arial" font-size="14.00" fill="#000000">id </text>
<text text-anchor="start" x="582.2798" y="-113.9" font-family="Arial" font-size="14.00" fill="#666666">[bigint]</text>
<polygon fill="none" stroke="#000000" points="560.5,-72.5 560.5,-102.5 754.5,-102.5 754.5,-72.5 560.5,-72.5"/>
<text text-anchor="start" x="567.5" y="-83.9" font-family="Arial" font-size="14.00" fill="#000000">post_id </text>
<text text-anchor="start" x="616.5182" y="-83.9" font-family="Arial" font-size="14.00" fill="#666666">[bigint]</text>
<polygon fill="none" stroke="#000000" points="560.5,-42.5 560.5,-72.5 754.5,-72.5 754.5,-42.5 560.5,-42.5"/>
<text text-anchor="start" x="567.5" y="-53.9" font-family="Arial" font-size="14.00" fill="#000000">user_id </text>
<text text-anchor="start" x="617.2882" y="-53.9" font-family="Arial" font-size="14.00" fill="#666666">[int]</text>
</g>
<!-- logs&#45;&gt;comments -->
<g id="edge3" class="edge">
<title>logs:comment_id&#45;&gt;comments:id</title>
<path fill="none" stroke="#000000" stroke-dasharray="5,2" d="M611.523,-336.0253C637.1735,-327.145 616.4689,-280.0637 601.5,-247 591.4987,-224.9088 570.5013,-233.0912 560.5,-211 543.3612,-173.1434 518.9444,-117.5 560.5,-117.5"/>
<polygon fill="#000000" stroke="#000000" points="611.3935,-336.0443 600.8449,-333.0479 606.4467,-336.7721 601.5,-337.5 601.5,-337.5 601.5,-337.5 606.4467,-336.7721 602.1551,-341.9521 611.3935,-336.0443 611.3935,-336.0443"/>
<text text-anchor="start" x="608.8245" y="-347.5" font-family="Arial" font-size="10.00" fill="#000000">Additional Relation</text>
</g>
<!-- comment_stars -->
<g id="node5" class="node">
<title>comment_stars</title>
<polygon fill="#efefef" stroke="transparent" points="858.5,-132.5 858.5,-167.5 1092.5,-167.5 1092.5,-132.5 858.5,-132.5"/>
<polygon fill="none" stroke="#000000" points="858.5,-132.5 858.5,-167.5 1092.5,-167.5 1092.5,-132.5 858.5,-132.5"/>
<text text-anchor="start" x="865.3671" y="-145.3" font-family="Arial Bold" font-size="18.00" fill="#000000">comment_stars</text>
<text text-anchor="start" x="988.3791" y="-145.3" font-family="Arial" font-size="14.00" fill="#000000"> </text>
<text text-anchor="start" x="992.2697" y="-145.3" font-family="Arial" font-size="14.00" fill="#666666">[BASE TABLE]</text>
<polygon fill="none" stroke="#000000" points="858.5,-102.5 858.5,-132.5 1092.5,-132.5 1092.5,-102.5 858.5,-102.5"/>
<text text-anchor="start" x="865.5" y="-113.9" font-family="Arial" font-size="14.00" fill="#000000">id </text>
<text text-anchor="start" x="880.2798" y="-113.9" font-family="Arial" font-size="14.00" fill="#666666">[bigint]</text>
<polygon fill="none" stroke="#000000" points="858.5,-72.5 858.5,-102.5 1092.5,-102.5 1092.5,-72.5 858.5,-72.5"/>
<text text-anchor="start" x="865.5" y="-83.9" font-family="Arial" font-size="14.00" fill="#000000">comment_post_id </text>
<text text-anchor="start" x="979.8604" y="-83.9" font-family="Arial" font-size="14.00" fill="#666666">[bigint]</text>
<polygon fill="none" stroke="#000000" points="858.5,-42.5 858.5,-72.5 1092.5,-72.5 1092.5,-42.5 858.5,-42.5"/>
<text text-anchor="start" x="865.5" y="-53.9" font-family="Arial" font-size="14.00" fill="#000000">comment_user_id </text>
<text text-anchor="start" x="980.6304" y="-53.9" font-family="Arial" font-size="14.00" fill="#666666">[int]</text>
</g>
<!-- logs&#45;&gt;comment_stars -->
<g id="edge4" class="edge">
<title>logs:comment_star_id&#45;&gt;comment_stars:id</title>
<path fill="none" stroke="#000000" stroke-dasharray="5,2" d="M611.5851,-307.4022C704.3515,-305.5558 735.4429,-277.4095 806.5,-211 841.2397,-178.5325 810.9502,-117.5 858.5,-117.5"/>
<polygon fill="#000000" stroke="#000000" points="611.4995,-307.403 601.4563,-303.0002 606.4998,-307.4515 601.5,-307.5 601.5,-307.5 601.5,-307.5 606.4998,-307.4515 601.5437,-311.9998 611.4995,-307.403 611.4995,-307.403"/>
<text text-anchor="start" x="608.8245" y="-317.5" font-family="Arial" font-size="10.00" fill="#000000">Additional Relation</text>
</g>
</g>
</svg>
