<?xml version="1.0" encoding="UTF-8" standalone="no"?>
<!DOCTYPE svg PUBLIC "-//W3C//DTD SVG 1.1//EN"
 "http://www.w3.org/Graphics/SVG/1.1/DTD/svg11.dtd">
<!-- Generated by graphviz version 2.40.1 (20161225.0304)
 -->
<!-- Title: posts Pages: 1 -->
<svg width="558pt" height="659pt"
 viewBox="0.00 0.00 558.00 659.00" xmlns="http://www.w3.org/2000/svg" xmlns:xlink="http://www.w3.org/1999/xlink">
<g id="graph0" class="graph" transform="scale(1 1) rotate(0) translate(4 655)">
<title>posts</title>
<polygon fill="#ffffff" stroke="transparent" points="-4,4 -4,-655 554,-655 554,4 -4,4"/>
<!-- posts -->
<g id="node1" class="node">
<title>posts</title>
<polygon fill="#efefef" stroke="transparent" points="205,-292.5 205,-327.5 359,-327.5 359,-292.5 205,-292.5"/>
<polygon fill="none" stroke="#000000" points="205,-292.5 205,-327.5 359,-327.5 359,-292.5 205,-292.5"/>
<text text-anchor="start" x="211.8658" y="-305.3" font-family="Arial Bold" font-size="18.00" fill="#000000">posts</text>
<text text-anchor="start" x="254.8804" y="-305.3" font-family="Arial" font-size="14.00" fill="#000000"> </text>
<text text-anchor="start" x="258.771" y="-305.3" font-family="Arial" font-size="14.00" fill="#666666">[BASE TABLE]</text>
<polygon fill="none" stroke="#000000" points="205,-262.5 205,-292.5 359,-292.5 359,-262.5 205,-262.5"/>
<text text-anchor="start" x="212" y="-273.9" font-family="Arial" font-size="14.00" fill="#000000">id </text>
<text text-anchor="start" x="226.7798" y="-273.9" font-family="Arial" font-size="14.00" fill="#666666">[bigint]</text>
<polygon fill="none" stroke="#000000" points="205,-232.5 205,-262.5 359,-262.5 359,-232.5 205,-232.5"/>
<text text-anchor="start" x="212" y="-243.9" font-family="Arial" font-size="14.00" fill="#000000">user_id </text>
<text text-anchor="start" x="261.7882" y="-243.9" font-family="Arial" font-size="14.00" fill="#666666">[int]</text>
<polygon fill="none" stroke="#000000" stroke-width="3" points="203.5,-231.5 203.5,-329.5 360.5,-329.5 360.5,-231.5 203.5,-231.5"/>
</g>
<!-- users -->
<g id="node4" class="node">
<title>users</title>
<polygon fill="#efefef" stroke="transparent" points="204,-72.5 204,-107.5 359,-107.5 359,-72.5 204,-72.5"/>
<polygon fill="none" stroke="#000000" points="204,-72.5 204,-107.5 359,-107.5 359,-72.5 204,-72.5"/>
<text text-anchor="start" x="210.8708" y="-85.3" font-family="Arial Bold" font-size="18.00" fill="#000000">users</text>
<text text-anchor="start" x="254.8754" y="-85.3" font-family="Arial" font-size="14.00" fill="#000000"> </text>
<text text-anchor="start" x="258.766" y="-85.3" font-family="Arial" font-size="14.00" fill="#666666">[BASE TABLE]</text>
<polygon fill="none" stroke="#000000" points="204,-42.5 204,-72.5 359,-72.5 359,-42.5 204,-42.5"/>
<text text-anchor="start" x="211" y="-53.9" font-family="Arial" font-size="14.00" fill="#000000">id </text>
<text text-anchor="start" x="225.7798" y="-53.9" font-family="Arial" font-size="14.00" fill="#666666">[int]</text>
</g>
<!-- posts&#45;&gt;users -->
<g id="edge3" class="edge">
<title>posts:user_id&#45;&gt;users:id</title>
<path fill="none" stroke="#000000" d="M282.9278,-222.4187C290.475,-184.5051 341.9522,-193.8679 359,-151 374.3562,-112.3859 400.5556,-57.5 359,-57.5"/>
<polygon fill="#000000" stroke="#000000" points="282.9165,-222.5421 277.5189,-232.0876 282.4583,-227.521 282,-232.5 282,-232.5 282,-232.5 282.4583,-227.521 286.4811,-232.9124 282.9165,-222.5421 282.9165,-222.5421"/>
<text text-anchor="start" x="48.945" y="-242.5" font-family="Arial" font-size="10.00" fill="#000000">FOREIGN KEY (user_id) REFERENCES users (id)</text>
</g>
<!-- comments -->
<g id="node2" class="node">
<title>comments</title>
<polygon fill="#efefef" stroke="transparent" points="43,-557.5 43,-592.5 237,-592.5 237,-557.5 43,-557.5"/>
<polygon fill="none" stroke="#000000" points="43,-557.5 43,-592.5 237,-592.5 237,-557.5 43,-557.5"/>
<text text-anchor="start" x="49.8705" y="-570.3" font-family="Arial Bold" font-size="18.00" fill="#000000">comments</text>
<text text-anchor="start" x="132.8757" y="-570.3" font-family="Arial" font-size="14.00" fill="#000000"> </text>
<text text-anchor="start" x="136.7663" y="-570.3" font-family="Arial" font-size="14.00" fill="#666666">[BASE TABLE]</text>
<polygon fill="none" stroke="#000000" points="43,-527.5 43,-557.5 237,-557.5 237,-527.5 43,-527.5"/>
<text text-anchor="start" x="50" y="-538.9" font-family="Arial" font-size="14.00" fill="#000000">id </text>
<text text-anchor="start" x="64.7798" y="-538.9" font-family="Arial" font-size="14.00" fill="#666666">[bigint]</text>
<polygon fill="none" stroke="#000000" points="43,-497.5 43,-527.5 237,-527.5 237,-497.5 43,-497.5"/>
<text text-anchor="start" x="50" y="-508.9" font-family="Arial" font-size="14.00" fill="#000000">post_id </text>
<text text-anchor="start" x="99.0182" y="-508.9" font-family="Arial" font-size="14.00" fill="#666666">[bigint]</text>
<polygon fill="none" stroke="#000000" points="43,-467.5 43,-497.5 237,-497.5 237,-467.5 43,-467.5"/>
<text text-anchor="start" x="50" y="-478.9" font-family="Arial" font-size="14.00" fill="#000000">user_id </text>
<text text-anchor="start" x="99.7882" y="-478.9" font-family="Arial" font-size="14.00" fill="#666666">[int]</text>
</g>
<!-- comments&#45;&gt;posts -->
<g id="edge1" class="edge">
<title>comments:post_id&#45;&gt;posts:id</title>
<path fill="none" stroke="#000000" d="M247.1671,-510.901C270.1475,-502.0681 246.6197,-458.4308 237,-425 229.6003,-399.2844 212.3997,-399.7156 205,-374 193.14,-332.7835 162.1111,-277.5 205,-277.5"/>
<polygon fill="#000000" stroke="#000000" points="246.8786,-510.9463 236.3008,-508.0546 241.9393,-511.7231 237,-512.5 237,-512.5 237,-512.5 241.9393,-511.7231 237.6992,-516.9454 246.8786,-510.9463 246.8786,-510.9463"/>
<text text-anchor="start" x="244.495" y="-522.5" font-family="Arial" font-size="10.00" fill="#000000">FOREIGN KEY (post_id) REFERENCES posts (id)</text>
</g>
<!-- logs -->
<g id="node3" class="node">
<title>logs</title>
<polygon fill="#efefef" stroke="transparent" points="341,-572.5 341,-607.5 507,-607.5 507,-572.5 341,-572.5"/>
<polygon fill="none" stroke="#000000" points="341,-572.5 341,-607.5 507,-607.5 507,-572.5 341,-572.5"/>
<text text-anchor="start" x="358.8698" y="-585.3" font-family="Arial Bold" font-size="18.00" fill="#000000">logs</text>
<text text-anchor="start" x="391.8764" y="-585.3" font-family="Arial" font-size="14.00" fill="#000000"> </text>
<text text-anchor="start" x="395.767" y="-585.3" font-family="Arial" font-size="14.00" fill="#666666">[BASE TABLE]</text>
<polygon fill="none" stroke="#000000" points="341,-542.5 341,-572.5 507,-572.5 507,-542.5 341,-542.5"/>
<text text-anchor="start" x="348" y="-553.9" font-family="Arial" font-size="14.00" fill="#000000">user_id </text>
<text text-anchor="start" x="397.7882" y="-553.9" font-family="Arial" font-size="14.00" fill="#666666">[int]</text>
<polygon fill="none" stroke="#000000" points="341,-512.5 341,-542.5 507,-542.5 507,-512.5 341,-512.5"/>
<text text-anchor="start" x="348" y="-523.9" font-family="Arial" font-size="14.00" fill="#000000">post_id </text>
<text text-anchor="start" x="397.0182" y="-523.9" font-family="Arial" font-size="14.00" fill="#666666">[bigint]</text>
<polygon fill="none" stroke="#000000" points="341,-482.5 341,-512.5 507,-512.5 507,-482.5 341,-482.5"/>
<text text-anchor="start" x="348" y="-493.9" font-family="Arial" font-size="14.00" fill="#000000">comment_id </text>
<text text-anchor="start" x="428.122" y="-493.9" font-family="Arial" font-size="14.00" fill="#666666">[bigint]</text>
<polygon fill="none" stroke="#000000" points="341,-452.5 341,-482.5 507,-482.5 507,-452.5 341,-452.5"/>
<text text-anchor="start" x="347.7644" y="-463.9" font-family="Arial" font-size="14.00" fill="#000000">comment_star_id </text>
<text text-anchor="start" x="459.0028" y="-463.9" font-family="Arial" font-size="14.00" fill="#666666">[bigint]</text>
</g>
<!-- logs&#45;&gt;posts -->
<g id="edge2" class="edge">
<title>logs:post_id&#45;&gt;posts:id</title>
<path fill="none" stroke="#000000" stroke-dasharray="5,2" d="M330.8508,-526.4319C294.5931,-517.6903 329.8923,-457.053 341,-410 345.1099,-392.59 354.8901,-391.41 359,-374 368.8538,-332.2584 401.8889,-277.5 359,-277.5"/>
<polygon fill="#000000" stroke="#000000" points="331.0549,-526.4533 340.529,-531.9753 336.0275,-526.9767 341,-527.5 341,-527.5 341,-527.5 336.0275,-526.9767 341.471,-523.0247 331.0549,-526.4533 331.0549,-526.4533"/>
<text text-anchor="start" x="251.3245" y="-537.5" font-family="Arial" font-size="10.00" fill="#000000">Additional Relation</text>
</g>
</g>
</svg>
