<?xml version="1.0" encoding="UTF-8" standalone="no"?>
<!DOCTYPE svg PUBLIC "-//W3C//DTD SVG 1.1//EN"
 "http://www.w3.org/Graphics/SVG/1.1/DTD/svg11.dtd">
<!-- Generated by graphviz version 12.1.2 (20240928.0832)
 -->
<!-- Title: posts Pages: 1 -->
<svg width="606pt" height="668pt"
 viewBox="0.00 0.00 605.51 667.60" xmlns="http://www.w3.org/2000/svg" xmlns:xlink="http://www.w3.org/1999/xlink">
<g id="graph0" class="graph" transform="scale(1 1) rotate(0) translate(4 663.6)">
<title>posts</title>
<polygon fill="white" stroke="none" points="-4,4 -4,-663.6 601.51,-663.6 601.51,4 -4,4"/>
<!-- posts -->
<g id="node1" class="node">
<title>posts</title>
<polygon fill="#efefef" stroke="none" points="215.69,-296.6 215.69,-332.2 391.19,-332.2 391.19,-296.6 215.69,-296.6"/>
<polygon fill="none" stroke="black" points="215.69,-296.6 215.69,-332.2 391.19,-332.2 391.19,-296.6 215.69,-296.6"/>
<text text-anchor="start" x="222.69" y="-310" font-family="Arial Bold" font-size="18.00">posts</text>
<text text-anchor="start" x="259.7" y="-310" font-family="Arial" font-size="14.00">    </text>
<text text-anchor="start" x="290.82" y="-310" font-family="Arial" font-size="14.00" fill="#666666">[BASE TABLE]</text>
<polygon fill="none" stroke="black" points="215.69,-265.8 215.69,-296.6 391.19,-296.6 391.19,-265.8 215.69,-265.8"/>
<text text-anchor="start" x="222.69" y="-278" font-family="Arial" font-size="14.00">id </text>
<text text-anchor="start" x="237.47" y="-278" font-family="Arial" font-size="14.00" fill="#666666">[bigint]</text>
<polygon fill="none" stroke="black" points="215.69,-235 215.69,-265.8 391.19,-265.8 391.19,-235 215.69,-235"/>
<text text-anchor="start" x="222.69" y="-247.2" font-family="Arial" font-size="14.00">user_id </text>
<text text-anchor="start" x="272.49" y="-247.2" font-family="Arial" font-size="14.00" fill="#666666">[int]</text>
<polygon fill="none" stroke="black" stroke-width="3" points="214.19,-233.5 214.19,-333.7 392.69,-333.7 392.69,-233.5 214.19,-233.5"/>
</g>
<!-- users -->
<g id="node4" class="node">
<title>users</title>
<polygon fill="#efefef" stroke="none" points="215.7,-74 215.7,-109.6 391.18,-109.6 391.18,-74 215.7,-74"/>
<polygon fill="none" stroke="black" points="215.7,-74 215.7,-109.6 391.18,-109.6 391.18,-74 215.7,-74"/>
<text text-anchor="start" x="222.7" y="-87.4" font-family="Arial Bold" font-size="18.00">users</text>
<text text-anchor="start" x="259.69" y="-87.4" font-family="Arial" font-size="14.00">    </text>
<text text-anchor="start" x="290.81" y="-87.4" font-family="Arial" font-size="14.00" fill="#666666">[BASE TABLE]</text>
<polygon fill="none" stroke="black" points="215.7,-43.2 215.7,-74 391.18,-74 391.18,-43.2 215.7,-43.2"/>
<text text-anchor="start" x="222.7" y="-55.4" font-family="Arial" font-size="14.00">id    </text>
<text text-anchor="start" x="264.71" y="-55.4" font-family="Arial" font-size="14.00" fill="#666666">[int]</text>
</g>
<!-- posts&#45;&gt;users -->
<g id="edge3" class="edge">
<title>posts:user_id&#45;&gt;users:id</title>
<path fill="none" stroke="black" d="M304.29,-223.77C313.92,-170.36 402.9,-209.36 434.38,-152.8 458.07,-110.24 468.69,-77.78 434.38,-43.2 393.38,-1.89 303.44,16 303.44,-42.2"/>
<polygon fill="black" stroke="black" points="304.29,-223.7 298.98,-233.29 303.85,-229.02 303.49,-233.33 303.49,-233.33 303.49,-233.33 303.85,-229.02 307.95,-234.04 304.29,-223.7"/>
<text text-anchor="start" x="70.28" y="-244" font-family="Arial" font-size="10.00">FOREIGN KEY (user_id) REFERENCES users (id)</text>
</g>
<!-- comments -->
<g id="node2" class="node">
<title>comments</title>
<polygon fill="#efefef" stroke="none" points="43.2,-565.4 43.2,-601 255.68,-601 255.68,-565.4 43.2,-565.4"/>
<polygon fill="none" stroke="black" points="43.2,-565.4 43.2,-601 255.68,-601 255.68,-565.4 43.2,-565.4"/>
<text text-anchor="start" x="50.2" y="-578.8" font-family="Arial Bold" font-size="18.00">comments</text>
<text text-anchor="start" x="124.19" y="-578.8" font-family="Arial" font-size="14.00">    </text>
<text text-anchor="start" x="155.3" y="-578.8" font-family="Arial" font-size="14.00" fill="#666666">[BASE TABLE]</text>
<polygon fill="none" stroke="black" points="43.2,-534.6 43.2,-565.4 255.68,-565.4 255.68,-534.6 43.2,-534.6"/>
<text text-anchor="start" x="50.2" y="-546.8" font-family="Arial" font-size="14.00">id    </text>
<text text-anchor="start" x="92.21" y="-546.8" font-family="Arial" font-size="14.00" fill="#666666">[bigint]</text>
<polygon fill="none" stroke="black" points="43.2,-503.8 43.2,-534.6 255.68,-534.6 255.68,-503.8 43.2,-503.8"/>
<text text-anchor="start" x="50.2" y="-516" font-family="Arial" font-size="14.00">post_id    </text>
<text text-anchor="start" x="126.46" y="-516" font-family="Arial" font-size="14.00" fill="#666666">[bigint]</text>
<polygon fill="none" stroke="black" points="43.2,-473 43.2,-503.8 255.68,-503.8 255.68,-473 43.2,-473"/>
<text text-anchor="start" x="50.2" y="-485.2" font-family="Arial" font-size="14.00">user_id    </text>
<text text-anchor="start" x="127.23" y="-485.2" font-family="Arial" font-size="14.00" fill="#666666">[int]</text>
</g>
<!-- comments&#45;&gt;posts -->
<g id="edge1" class="edge">
<title>comments:post_id&#45;&gt;posts:id</title>
<path fill="none" stroke="black" d="M266.78,-517.66C290.95,-508.81 267.45,-463.5 255.68,-429.8 246.13,-402.48 225.22,-405.73 215.69,-378.4 201.45,-337.61 171.49,-281.2 214.69,-281.2"/>
<polygon fill="black" stroke="black" points="266.89,-517.65 256.33,-514.7 261.62,-518.45 257.34,-519.1 257.34,-519.1 257.34,-519.1 261.62,-518.45 257.68,-523.6 266.89,-517.65"/>
<text text-anchor="start" x="263.68" y="-529.2" font-family="Arial" font-size="10.00">FOREIGN KEY (post_id) REFERENCES posts (id)</text>
</g>
<!-- logs -->
<g id="node3" class="node">
<title>logs</title>
<polygon fill="#efefef" stroke="none" points="360.57,-580.8 360.57,-616.4 554.31,-616.4 554.31,-580.8 360.57,-580.8"/>
<polygon fill="none" stroke="black" points="360.57,-580.8 360.57,-616.4 554.31,-616.4 554.31,-580.8 360.57,-580.8"/>
<text text-anchor="start" x="380.19" y="-594.2" font-family="Arial Bold" font-size="18.00">logs</text>
<text text-anchor="start" x="410.2" y="-594.2" font-family="Arial" font-size="14.00">    </text>
<text text-anchor="start" x="441.31" y="-594.2" font-family="Arial" font-size="14.00" fill="#666666">[BASE TABLE]</text>
<polygon fill="none" stroke="black" points="360.57,-550 360.57,-580.8 554.31,-580.8 554.31,-550 360.57,-550"/>
<text text-anchor="start" x="367.57" y="-562.2" font-family="Arial" font-size="14.00">user_id    </text>
<text text-anchor="start" x="444.6" y="-562.2" font-family="Arial" font-size="14.00" fill="#666666">[int]</text>
<polygon fill="none" stroke="black" points="360.57,-519.2 360.57,-550 554.31,-550 554.31,-519.2 360.57,-519.2"/>
<text text-anchor="start" x="367.57" y="-531.4" font-family="Arial" font-size="14.00">post_id    </text>
<text text-anchor="start" x="443.83" y="-531.4" font-family="Arial" font-size="14.00" fill="#666666">[bigint]</text>
<polygon fill="none" stroke="black" points="360.57,-488.4 360.57,-519.2 554.31,-519.2 554.31,-488.4 360.57,-488.4"/>
<text text-anchor="start" x="367.57" y="-500.6" font-family="Arial" font-size="14.00">comment_id    </text>
<text text-anchor="start" x="474.94" y="-500.6" font-family="Arial" font-size="14.00" fill="#666666">[bigint]</text>
<polygon fill="none" stroke="black" points="360.57,-457.6 360.57,-488.4 554.31,-488.4 554.31,-457.6 360.57,-457.6"/>
<text text-anchor="start" x="367.57" y="-469.8" font-family="Arial" font-size="14.00">comment_star_id    </text>
<text text-anchor="start" x="506.06" y="-469.8" font-family="Arial" font-size="14.00" fill="#666666">[bigint]</text>
</g>
<!-- logs&#45;&gt;posts -->
<g id="edge2" class="edge">
<title>logs:post_id&#45;&gt;posts:id</title>
<path fill="none" stroke="black" stroke-dasharray="5,2" d="M349.58,-533.59C311.09,-524.84 343.23,-460.94 360.57,-414.4 367.9,-394.72 383.84,-398.08 391.19,-378.4 406.31,-337.93 435.39,-281.2 392.19,-281.2"/>
<polygon fill="black" stroke="black" points="349.28,-533.56 358.78,-539.04 354.59,-534.1 358.9,-534.53 358.9,-534.53 358.9,-534.53 354.59,-534.1 359.69,-530.09 349.28,-533.56"/>
<text text-anchor="start" x="269.18" y="-544.6" font-family="Arial" font-size="10.00">Additional Relation</text>
</g>
</g>
</svg>
