<?xml version="1.0" encoding="UTF-8" standalone="no"?>
<!DOCTYPE svg PUBLIC "-//W3C//DTD SVG 1.1//EN"
 "http://www.w3.org/Graphics/SVG/1.1/DTD/svg11.dtd">
<!-- Generated by graphviz version 2.40.1 (20161225.0304)
 -->
<!-- Title: posts Pages: 1 -->
<svg width="558pt" height="659pt"
 viewBox="0.00 0.00 558.00 659.00" xmlns="http://www.w3.org/2000/svg" xmlns:xlink="http://www.w3.org/1999/xlink">
<g id="graph0" class="graph" transform="scale(1 1) rotate(0) translate(4 655)">
<title>posts</title>
<polygon fill="#ffffff" stroke="transparent" points="-4,4 -4,-655 554,-655 554,4 -4,4"/>
<!-- posts -->
<g id="node1" class="node">
<title>posts</title>
<polygon fill="#efefef" stroke="transparent" points="190,-292.5 190,-327.5 374,-327.5 374,-292.5 190,-292.5"/>
<polygon fill="none" stroke="#000000" points="190,-292.5 190,-327.5 374,-327.5 374,-292.5 190,-292.5"/>
<text text-anchor="start" x="196.7087" y="-305.3" font-family="Arial Bold" font-size="18.00" fill="#000000">posts</text>
<text text-anchor="start" x="239.7233" y="-305.3" font-family="Arial" font-size="14.00" fill="#000000">    </text>
<text text-anchor="start" x="273.9281" y="-305.3" font-family="Arial" font-size="14.00" fill="#666666">[BASE TABLE]</text>
<polygon fill="none" stroke="#000000" points="190,-262.5 190,-292.5 374,-292.5 374,-262.5 190,-262.5"/>
<text text-anchor="start" x="197" y="-273.9" font-family="Arial" font-size="14.00" fill="#000000">id </text>
<text text-anchor="start" x="211.7798" y="-273.9" font-family="Arial" font-size="14.00" fill="#666666">[bigint]</text>
<polygon fill="none" stroke="#000000" points="190,-232.5 190,-262.5 374,-262.5 374,-232.5 190,-232.5"/>
<text text-anchor="start" x="197" y="-243.9" font-family="Arial" font-size="14.00" fill="#000000">user_id </text>
<text text-anchor="start" x="246.7882" y="-243.9" font-family="Arial" font-size="14.00" fill="#666666">[int]</text>
<polygon fill="none" stroke="#000000" stroke-width="3" points="188.5,-231.5 188.5,-329.5 375.5,-329.5 375.5,-231.5 188.5,-231.5"/>
</g>
<!-- users -->
<g id="node4" class="node">
<title>users</title>
<polygon fill="#efefef" stroke="transparent" points="204,-72.5 204,-107.5 359,-107.5 359,-72.5 204,-72.5"/>
<polygon fill="none" stroke="#000000" points="204,-72.5 204,-107.5 359,-107.5 359,-72.5 204,-72.5"/>
<text text-anchor="start" x="210.8708" y="-85.3" font-family="Arial Bold" font-size="18.00" fill="#000000">users</text>
<text text-anchor="start" x="254.8754" y="-85.3" font-family="Arial" font-size="14.00" fill="#000000"> </text>
<text text-anchor="start" x="258.766" y="-85.3" font-family="Arial" font-size="14.00" fill="#666666">[BASE TABLE]</text>
<polygon fill="none" stroke="#000000" points="204,-42.5 204,-72.5 359,-72.5 359,-42.5 204,-42.5"/>
<text text-anchor="start" x="211" y="-53.9" font-family="Arial" font-size="14.00" fill="#000000">id </text>
<text text-anchor="start" x="225.7798" y="-53.9" font-family="Arial" font-size="14.00" fill="#666666">[int]</text>
</g>
<!-- posts&#45;&gt;users -->
<g id="edge3" class="edge">
<title>posts:user_id&#45;&gt;users:id</title>
<path fill="none" stroke="#000000" d="M282.9278,-222.4187C290.475,-184.5051 341.9522,-193.8679 359,-151 374.3562,-112.3859 400.5556,-57.5 359,-57.5"/>
<polygon fill="#000000" stroke="#000000" points="282.9165,-222.5421 277.5189,-232.0876 282.4583,-227.521 282,-232.5 282,-232.5 282,-232.5 282.4583,-227.521 286.4811,-232.9124 282.9165,-222.5421 282.9165,-222.5421"/>
<text text-anchor="start" x="48.945" y="-242.5" font-family="Arial" font-size="10.00" fill="#000000">FOREIGN KEY (user_id) REFERENCES users (id)</text>
</g>
<!-- comments -->
<g id="node2" class="node">
<title>comments</title>
<polygon fill="#efefef" stroke="transparent" points="43,-557.5 43,-592.5 237,-592.5 237,-557.5 43,-557.5"/>
<polygon fill="none" stroke="#000000" points="43,-557.5 43,-592.5 237,-592.5 237,-557.5 43,-557.5"/>
<text text-anchor="start" x="49.8705" y="-570.3" font-family="Arial Bold" font-size="18.00" fill="#000000">comments</text>
<text text-anchor="start" x="132.8757" y="-570.3" font-family="Arial" font-size="14.00" fill="#000000"> </text>
<text text-anchor="start" x="136.7663" y="-570.3" font-family="Arial" font-size="14.00" fill="#666666">[BASE TABLE]</text>
<polygon fill="none" stroke="#000000" points="43,-527.5 43,-557.5 237,-557.5 237,-527.5 43,-527.5"/>
<text text-anchor="start" x="50" y="-538.9" font-family="Arial" font-size="14.00" fill="#000000">id </text>
<text text-anchor="start" x="64.7798" y="-538.9" font-family="Arial" font-size="14.00" fill="#666666">[bigint]</text>
<polygon fill="none" stroke="#000000" points="43,-497.5 43,-527.5 237,-527.5 237,-497.5 43,-497.5"/>
<text text-anchor="start" x="50" y="-508.9" font-family="Arial" font-size="14.00" fill="#000000">post_id </text>
<text text-anchor="start" x="99.0182" y="-508.9" font-family="Arial" font-size="14.00" fill="#666666">[bigint]</text>
<polygon fill="none" stroke="#000000" points="43,-467.5 43,-497.5 237,-497.5 237,-467.5 43,-467.5"/>
<text text-anchor="start" x="50" y="-478.9" font-family="Arial" font-size="14.00" fill="#000000">user_id </text>
<text text-anchor="start" x="99.7882" y="-478.9" font-family="Arial" font-size="14.00" fill="#666666">[int]</text>
</g>
<!-- comments&#45;&gt;posts -->
<g id="edge1" class="edge">
<title>comments:post_id&#45;&gt;posts:id</title>
<path fill="none" stroke="#000000" d="M246.9577,-510.9828C270.9723,-502.24 249.7095,-457.5456 237,-425 225.7874,-396.2876 201.2126,-402.7124 190,-374 174.3987,-334.0493 147.1111,-277.5 190,-277.5"/>
<polygon fill="#000000" stroke="#000000" points="246.8859,-510.9936 236.3221,-508.0513 241.943,-511.7468 237,-512.5 237,-512.5 237,-512.5 241.943,-511.7468 237.6779,-516.9487 246.8859,-510.9936 246.8859,-510.9936"/>
<text text-anchor="start" x="244.495" y="-522.5" font-family="Arial" font-size="10.00" fill="#000000">FOREIGN KEY (post_id) REFERENCES posts (id)</text>
</g>
<!-- logs -->
<g id="node3" class="node">
<title>logs</title>
<polygon fill="#efefef" stroke="transparent" points="341,-572.5 341,-607.5 507,-607.5 507,-572.5 341,-572.5"/>
<polygon fill="none" stroke="#000000" points="341,-572.5 341,-607.5 507,-607.5 507,-572.5 341,-572.5"/>
<text text-anchor="start" x="358.8698" y="-585.3" font-family="Arial Bold" font-size="18.00" fill="#000000">logs</text>
<text text-anchor="start" x="391.8764" y="-585.3" font-family="Arial" font-size="14.00" fill="#000000"> </text>
<text text-anchor="start" x="395.767" y="-585.3" font-family="Arial" font-size="14.00" fill="#666666">[BASE TABLE]</text>
<polygon fill="none" stroke="#000000" points="341,-542.5 341,-572.5 507,-572.5 507,-542.5 341,-542.5"/>
<text text-anchor="start" x="348" y="-553.9" font-family="Arial" font-size="14.00" fill="#000000">user_id </text>
<text text-anchor="start" x="397.7882" y="-553.9" font-family="Arial" font-size="14.00" fill="#666666">[int]</text>
<polygon fill="none" stroke="#000000" points="341,-512.5 341,-542.5 507,-542.5 507,-512.5 341,-512.5"/>
<text text-anchor="start" x="348" y="-523.9" font-family="Arial" font-size="14.00" fill="#000000">post_id </text>
<text text-anchor="start" x="397.0182" y="-523.9" font-family="Arial" font-size="14.00" fill="#666666">[bigint]</text>
<polygon fill="none" stroke="#000000" points="341,-482.5 341,-512.5 507,-512.5 507,-482.5 341,-482.5"/>
<text text-anchor="start" x="348" y="-493.9" font-family="Arial" font-size="14.00" fill="#000000">comment_id </text>
<text text-anchor="start" x="428.122" y="-493.9" font-family="Arial" font-size="14.00" fill="#666666">[bigint]</text>
<polygon fill="none" stroke="#000000" points="341,-452.5 341,-482.5 507,-482.5 507,-452.5 341,-452.5"/>
<text text-anchor="start" x="347.7644" y="-463.9" font-family="Arial" font-size="14.00" fill="#000000">comment_star_id </text>
<text text-anchor="start" x="459.0028" y="-463.9" font-family="Arial" font-size="14.00" fill="#666666">[bigint]</text>
</g>
<!-- logs&#45;&gt;posts -->
<g id="edge2" class="edge">
<title>logs:post_id&#45;&gt;posts:id</title>
<path fill="none" stroke="#000000" stroke-dasharray="5,2" d="M330.7447,-526.3989C293.6402,-517.3941 323.4733,-455.0576 341,-410 348.8686,-389.7714 366.1314,-394.2286 374,-374 389.5482,-334.0286 416.8889,-277.5 374,-277.5"/>
<polygon fill="#000000" stroke="#000000" points="331.0571,-526.4324 340.5196,-531.9743 336.0286,-526.9662 341,-527.5 341,-527.5 341,-527.5 336.0286,-526.9662 341.4804,-523.0257 331.0571,-526.4324 331.0571,-526.4324"/>
<text text-anchor="start" x="251.3245" y="-537.5" font-family="Arial" font-size="10.00" fill="#000000">Additional Relation</text>
</g>
</g>
</svg>
