<?xml version="1.0" encoding="UTF-8" standalone="no"?>
<!DOCTYPE svg PUBLIC "-//W3C//DTD SVG 1.1//EN"
 "http://www.w3.org/Graphics/SVG/1.1/DTD/svg11.dtd">
<!-- Generated by graphviz version 2.40.1 (20161225.0304)
 -->
<!-- Title: testdb Pages: 1 -->
<svg width="2019pt" height="1147pt"
 viewBox="0.00 0.00 2018.50 1147.00" xmlns="http://www.w3.org/2000/svg" xmlns:xlink="http://www.w3.org/1999/xlink">
<g id="graph0" class="graph" transform="scale(1 1) rotate(0) translate(4 1143)">
<title>testdb</title>
<polygon fill="#ffffff" stroke="transparent" points="-4,4 -4,-1143 2014.5,-1143 2014.5,4 -4,4"/>
<!-- CamelizeTable -->
<g id="node1" class="node">
<title>CamelizeTable</title>
<polygon fill="#efefef" stroke="transparent" points="43.5,-1000.5 43.5,-1035.5 304.5,-1035.5 304.5,-1000.5 43.5,-1000.5"/>
<polygon fill="none" stroke="#000000" points="43.5,-1000.5 43.5,-1035.5 304.5,-1035.5 304.5,-1000.5 43.5,-1000.5"/>
<text text-anchor="start" x="50.2148" y="-1013.3" font-family="Arial Bold" font-size="18.00" fill="#000000">CamelizeTable</text>
<text text-anchor="start" x="170.2172" y="-1013.3" font-family="Arial" font-size="14.00" fill="#000000">    </text>
<text text-anchor="start" x="204.422" y="-1013.3" font-family="Arial" font-size="14.00" fill="#666666">[BASE TABLE]</text>
</g>
<!-- comment_stars -->
<g id="node2" class="node">
<title>comment_stars</title>
<polygon fill="#efefef" stroke="transparent" points="596.5,-783.5 596.5,-818.5 860.5,-818.5 860.5,-783.5 596.5,-783.5"/>
<polygon fill="none" stroke="#000000" points="596.5,-783.5 596.5,-818.5 860.5,-818.5 860.5,-783.5 596.5,-783.5"/>
<text text-anchor="start" x="603.21" y="-796.3" font-family="Arial Bold" font-size="18.00" fill="#000000">comment_stars</text>
<text text-anchor="start" x="726.222" y="-796.3" font-family="Arial" font-size="14.00" fill="#000000">    </text>
<text text-anchor="start" x="760.4268" y="-796.3" font-family="Arial" font-size="14.00" fill="#666666">[BASE TABLE]</text>
<polygon fill="none" stroke="#000000" points="596.5,-753.5 596.5,-783.5 860.5,-783.5 860.5,-753.5 596.5,-753.5"/>
<text text-anchor="start" x="603.5" y="-764.9" font-family="Arial" font-size="14.00" fill="#000000">id    </text>
<text text-anchor="start" x="648.594" y="-764.9" font-family="Arial" font-size="14.00" fill="#666666">[bigint]</text>
<polygon fill="none" stroke="#000000" points="596.5,-723.5 596.5,-753.5 860.5,-753.5 860.5,-723.5 596.5,-723.5"/>
<text text-anchor="start" x="603.5" y="-734.9" font-family="Arial" font-size="14.00" fill="#000000">comment_post_id    </text>
<text text-anchor="start" x="748.1746" y="-734.9" font-family="Arial" font-size="14.00" fill="#666666">[bigint]</text>
<polygon fill="none" stroke="#000000" points="596.5,-693.5 596.5,-723.5 860.5,-723.5 860.5,-693.5 596.5,-693.5"/>
<text text-anchor="start" x="603.5" y="-704.9" font-family="Arial" font-size="14.00" fill="#000000">comment_user_id    </text>
<text text-anchor="start" x="748.9446" y="-704.9" font-family="Arial" font-size="14.00" fill="#666666">[int]</text>
</g>
<!-- comments -->
<g id="node3" class="node">
<title>comments</title>
<polygon fill="#efefef" stroke="transparent" points="558.5,-536.5 558.5,-571.5 782.5,-571.5 782.5,-536.5 558.5,-536.5"/>
<polygon fill="none" stroke="#000000" points="558.5,-536.5 558.5,-571.5 782.5,-571.5 782.5,-536.5 558.5,-536.5"/>
<text text-anchor="start" x="565.2134" y="-549.3" font-family="Arial Bold" font-size="18.00" fill="#000000">comments</text>
<text text-anchor="start" x="648.2186" y="-549.3" font-family="Arial" font-size="14.00" fill="#000000">    </text>
<text text-anchor="start" x="682.4234" y="-549.3" font-family="Arial" font-size="14.00" fill="#666666">[BASE TABLE]</text>
<polygon fill="none" stroke="#000000" points="558.5,-506.5 558.5,-536.5 782.5,-536.5 782.5,-506.5 558.5,-506.5"/>
<text text-anchor="start" x="565.5" y="-517.9" font-family="Arial" font-size="14.00" fill="#000000">id    </text>
<text text-anchor="start" x="610.594" y="-517.9" font-family="Arial" font-size="14.00" fill="#666666">[bigint]</text>
<polygon fill="none" stroke="#000000" points="558.5,-476.5 558.5,-506.5 782.5,-506.5 782.5,-476.5 558.5,-476.5"/>
<text text-anchor="start" x="565.5" y="-487.9" font-family="Arial" font-size="14.00" fill="#000000">post_id    </text>
<text text-anchor="start" x="644.8324" y="-487.9" font-family="Arial" font-size="14.00" fill="#666666">[bigint]</text>
<polygon fill="none" stroke="#000000" points="558.5,-446.5 558.5,-476.5 782.5,-476.5 782.5,-446.5 558.5,-446.5"/>
<text text-anchor="start" x="565.5" y="-457.9" font-family="Arial" font-size="14.00" fill="#000000">user_id    </text>
<text text-anchor="start" x="645.6024" y="-457.9" font-family="Arial" font-size="14.00" fill="#666666">[int]</text>
</g>
<!-- comment_stars&#45;&gt;comments -->
<g id="edge2" class="edge">
<title>comment_stars:comment_post_id&#45;&gt;comments:post_id</title>
<path fill="none" stroke="#000000" d="M586.5844,-736.934C560.4741,-727.5314 574.1684,-678.0682 596.5,-651 650.0843,-586.0501 728.9157,-679.9499 782.5,-615 817.4306,-572.6604 837.3889,-491.5 782.5,-491.5"/>
<polygon fill="#000000" stroke="#000000" points="586.6224,-736.9399 595.798,-742.9449 591.5612,-737.72 596.5,-738.5 596.5,-738.5 596.5,-738.5 591.5612,-737.72 597.202,-734.0551 586.6224,-736.9399 586.6224,-736.9399"/>
<text text-anchor="start" x="148.6435" y="-748.5" font-family="Arial" font-size="10.00" fill="#000000">FOREIGN KEY (comment_post_id, comment_user_id) REFERENCES comments (post_id, user_id)</text>
</g>
<!-- users -->
<g id="node10" class="node">
<title>users</title>
<polygon fill="#efefef" stroke="transparent" points="702.5,-72.5 702.5,-107.5 887.5,-107.5 887.5,-72.5 702.5,-72.5"/>
<polygon fill="none" stroke="#000000" points="702.5,-72.5 702.5,-107.5 887.5,-107.5 887.5,-72.5 702.5,-72.5"/>
<text text-anchor="start" x="709.2137" y="-85.3" font-family="Arial Bold" font-size="18.00" fill="#000000">users</text>
<text text-anchor="start" x="753.2183" y="-85.3" font-family="Arial" font-size="14.00" fill="#000000">    </text>
<text text-anchor="start" x="787.4231" y="-85.3" font-family="Arial" font-size="14.00" fill="#666666">[BASE TABLE]</text>
<polygon fill="none" stroke="#000000" points="702.5,-42.5 702.5,-72.5 887.5,-72.5 887.5,-42.5 702.5,-42.5"/>
<text text-anchor="start" x="709.5" y="-53.9" font-family="Arial" font-size="14.00" fill="#000000">id    </text>
<text text-anchor="start" x="754.594" y="-53.9" font-family="Arial" font-size="14.00" fill="#666666">[int]</text>
</g>
<!-- comment_stars&#45;&gt;users -->
<g id="edge1" class="edge">
<title>comment_stars:comment_user_id&#45;&gt;users:id</title>
<path fill="none" stroke="#000000" d="M863.6782,-698.8107C874.1456,-628.5855 869.7415,-200.0121 872.5,-187 876.0946,-170.0435 884.1007,-167.9967 887.5,-151 895.6497,-110.2514 929.0556,-57.5 887.5,-57.5"/>
<polygon fill="#000000" stroke="#000000" points="863.6168,-698.9981 856.2241,-707.0975 862.0584,-703.749 860.5,-708.5 860.5,-708.5 860.5,-708.5 862.0584,-703.749 864.7759,-709.9025 863.6168,-698.9981 863.6168,-698.9981"/>
<text text-anchor="start" x="867.1085" y="-718.5" font-family="Arial" font-size="10.00" fill="#000000">FOREIGN KEY (comment_user_id) REFERENCES users (id)</text>
</g>
<!-- posts -->
<g id="node8" class="node">
<title>posts</title>
<polygon fill="#efefef" stroke="transparent" points="540.5,-289.5 540.5,-324.5 724.5,-324.5 724.5,-289.5 540.5,-289.5"/>
<polygon fill="none" stroke="#000000" points="540.5,-289.5 540.5,-324.5 724.5,-324.5 724.5,-289.5 540.5,-289.5"/>
<text text-anchor="start" x="547.2087" y="-302.3" font-family="Arial Bold" font-size="18.00" fill="#000000">posts</text>
<text text-anchor="start" x="590.2233" y="-302.3" font-family="Arial" font-size="14.00" fill="#000000">    </text>
<text text-anchor="start" x="624.4281" y="-302.3" font-family="Arial" font-size="14.00" fill="#666666">[BASE TABLE]</text>
<polygon fill="none" stroke="#000000" points="540.5,-259.5 540.5,-289.5 724.5,-289.5 724.5,-259.5 540.5,-259.5"/>
<text text-anchor="start" x="547.5" y="-270.9" font-family="Arial" font-size="14.00" fill="#000000">id    </text>
<text text-anchor="start" x="592.594" y="-270.9" font-family="Arial" font-size="14.00" fill="#666666">[bigint]</text>
<polygon fill="none" stroke="#000000" points="540.5,-229.5 540.5,-259.5 724.5,-259.5 724.5,-229.5 540.5,-229.5"/>
<text text-anchor="start" x="547.5" y="-240.9" font-family="Arial" font-size="14.00" fill="#000000">user_id    </text>
<text text-anchor="start" x="627.6024" y="-240.9" font-family="Arial" font-size="14.00" fill="#666666">[int]</text>
</g>
<!-- comments&#45;&gt;posts -->
<g id="edge3" class="edge">
<title>comments:post_id&#45;&gt;posts:id</title>
<path fill="none" stroke="#000000" d="M548.5931,-489.9411C522.5335,-480.5799 536.4727,-431.3164 558.5,-404 605.8882,-345.2333 677.1118,-426.7667 724.5,-368 750.5852,-335.6515 766.0556,-274.5 724.5,-274.5"/>
<polygon fill="#000000" stroke="#000000" points="548.6215,-489.9455 557.8005,-495.9453 553.5608,-490.7227 558.5,-491.5 558.5,-491.5 558.5,-491.5 553.5608,-490.7227 559.1995,-487.0547 548.6215,-489.9455 548.6215,-489.9455"/>
<text text-anchor="start" x="326.995" y="-501.5" font-family="Arial" font-size="10.00" fill="#000000">FOREIGN KEY (post_id) REFERENCES posts (id)</text>
</g>
<!-- comments&#45;&gt;users -->
<g id="edge4" class="edge">
<title>comments:user_id&#45;&gt;users:id</title>
<path fill="none" stroke="#000000" d="M792.7627,-461.0455C898.6421,-451.0791 761.7223,-279.6284 839.5,-187 867.336,-153.8491 905.6975,-186.822 930,-151 957.0728,-111.0945 964.0983,-76.5983 930,-42.5 887.7307,-.2307 795.5,17.2778 795.5,-42.5"/>
<polygon fill="#000000" stroke="#000000" points="792.4902,-461.0575 782.3009,-457.0044 787.4951,-461.2787 782.5,-461.5 782.5,-461.5 782.5,-461.5 787.4951,-461.2787 782.6991,-465.9956 792.4902,-461.0575 792.4902,-461.0575"/>
<text text-anchor="start" x="789.445" y="-471.5" font-family="Arial" font-size="10.00" fill="#000000">FOREIGN KEY (user_id) REFERENCES users (id)</text>
</g>
<!-- hyphen&#45;table -->
<g id="node4" class="node">
<title>hyphen&#45;table</title>
<polygon fill="#efefef" stroke="transparent" points="709.5,-1000.5 709.5,-1035.5 954.5,-1035.5 954.5,-1000.5 709.5,-1000.5"/>
<polygon fill="none" stroke="#000000" points="709.5,-1000.5 709.5,-1035.5 954.5,-1035.5 954.5,-1000.5 709.5,-1000.5"/>
<text text-anchor="start" x="716.1969" y="-1013.3" font-family="Arial Bold" font-size="18.00" fill="#000000">hyphen&#45;table</text>
<text text-anchor="start" x="820.2351" y="-1013.3" font-family="Arial" font-size="14.00" fill="#000000">    </text>
<text text-anchor="start" x="854.4399" y="-1013.3" font-family="Arial" font-size="14.00" fill="#666666">[BASE TABLE]</text>
</g>
<!-- logs -->
<g id="node5" class="node">
<title>logs</title>
<polygon fill="#efefef" stroke="transparent" points="408.5,-1060.5 408.5,-1095.5 604.5,-1095.5 604.5,-1060.5 408.5,-1060.5"/>
<polygon fill="none" stroke="#000000" points="408.5,-1060.5 408.5,-1095.5 604.5,-1095.5 604.5,-1060.5 408.5,-1060.5"/>
<text text-anchor="start" x="426.2127" y="-1073.3" font-family="Arial Bold" font-size="18.00" fill="#000000">logs</text>
<text text-anchor="start" x="459.2193" y="-1073.3" font-family="Arial" font-size="14.00" fill="#000000">    </text>
<text text-anchor="start" x="493.4241" y="-1073.3" font-family="Arial" font-size="14.00" fill="#666666">[BASE TABLE]</text>
<polygon fill="none" stroke="#000000" points="408.5,-1030.5 408.5,-1060.5 604.5,-1060.5 604.5,-1030.5 408.5,-1030.5"/>
<text text-anchor="start" x="415.5" y="-1041.9" font-family="Arial" font-size="14.00" fill="#000000">user_id    </text>
<text text-anchor="start" x="495.6024" y="-1041.9" font-family="Arial" font-size="14.00" fill="#666666">[int]</text>
<polygon fill="none" stroke="#000000" points="408.5,-1000.5 408.5,-1030.5 604.5,-1030.5 604.5,-1000.5 408.5,-1000.5"/>
<text text-anchor="start" x="415.5" y="-1011.9" font-family="Arial" font-size="14.00" fill="#000000">post_id    </text>
<text text-anchor="start" x="494.8324" y="-1011.9" font-family="Arial" font-size="14.00" fill="#666666">[bigint]</text>
<polygon fill="none" stroke="#000000" points="408.5,-970.5 408.5,-1000.5 604.5,-1000.5 604.5,-970.5 408.5,-970.5"/>
<text text-anchor="start" x="415.5" y="-981.9" font-family="Arial" font-size="14.00" fill="#000000">comment_id    </text>
<text text-anchor="start" x="525.9362" y="-981.9" font-family="Arial" font-size="14.00" fill="#666666">[bigint]</text>
<polygon fill="none" stroke="#000000" points="408.5,-940.5 408.5,-970.5 604.5,-970.5 604.5,-940.5 408.5,-940.5"/>
<text text-anchor="start" x="415.1073" y="-951.9" font-family="Arial" font-size="14.00" fill="#000000">comment_star_id    </text>
<text text-anchor="start" x="556.6599" y="-951.9" font-family="Arial" font-size="14.00" fill="#666666">[bigint]</text>
</g>
<!-- logs&#45;&gt;comment_stars -->
<g id="edge10" class="edge">
<title>logs:comment_star_id&#45;&gt;comment_stars:id</title>
<path fill="none" stroke="#000000" stroke-dasharray="5,2" d="M614.2287,-952.3705C622.2203,-943.6989 606.7657,-918.6399 604.5,-898 598.2078,-840.679 538.8347,-768.5 596.5,-768.5"/>
<polygon fill="#000000" stroke="#000000" points="614.0196,-952.4377 603.122,-951.2162 609.2598,-953.9688 604.5,-955.5 604.5,-955.5 604.5,-955.5 609.2598,-953.9688 605.878,-959.7838 614.0196,-952.4377 614.0196,-952.4377"/>
<text text-anchor="start" x="611.8245" y="-939.5" font-family="Arial" font-size="10.00" fill="#000000">Additional Relation</text>
</g>
<!-- logs&#45;&gt;comments -->
<g id="edge9" class="edge">
<title>logs:comment_id&#45;&gt;comments:id</title>
<path fill="none" stroke="#000000" stroke-dasharray="5,2" d="M614.5971,-983.9165C639.3874,-974.805 621.7145,-928.4041 604.5,-898 589.1779,-870.9382 559.8221,-889.0618 544.5,-862 507.1876,-796.0992 482.7694,-521.5 558.5,-521.5"/>
<polygon fill="#000000" stroke="#000000" points="614.3793,-983.9506 603.8028,-981.0543 609.4396,-984.7253 604.5,-985.5 604.5,-985.5 604.5,-985.5 609.4396,-984.7253 605.1972,-989.9457 614.3793,-983.9506 614.3793,-983.9506"/>
<text text-anchor="start" x="611.8245" y="-995.5" font-family="Arial" font-size="10.00" fill="#000000">Additional Relation</text>
</g>
<!-- logs&#45;&gt;posts -->
<g id="edge8" class="edge">
<title>logs:post_id&#45;&gt;posts:id</title>
<path fill="none" stroke="#000000" stroke-dasharray="5,2" d="M398.1544,-1014.3572C360.3289,-1005.0187 385.5077,-940.5291 408.5,-898 422.394,-872.3 448.4187,-887.0217 463.5,-862 531.4707,-749.228 408.8279,-274.5 540.5,-274.5"/>
<polygon fill="#000000" stroke="#000000" points="398.5605,-1014.4019 408.0059,-1019.9728 403.5302,-1014.951 408.5,-1015.5 408.5,-1015.5 408.5,-1015.5 403.5302,-1014.951 408.9941,-1011.0272 398.5605,-1014.4019 398.5605,-1014.4019"/>
<text text-anchor="start" x="318.8245" y="-1025.5" font-family="Arial" font-size="10.00" fill="#000000">Additional Relation</text>
</g>
<!-- logs&#45;&gt;users -->
<g id="edge7" class="edge">
<title>logs:user_id&#45;&gt;users:id</title>
<path fill="none" stroke="#000000" stroke-dasharray="5,2" d="M403.2877,-1036.9355C380.1742,-958.2569 377.7092,-360.1057 488.5,-187 548.4278,-93.3655 591.33,-57.5 702.5,-57.5"/>
<polygon fill="#000000" stroke="#000000" points="403.3012,-1036.9576 404.6559,-1047.8395 405.9006,-1041.2288 408.5,-1045.5 408.5,-1045.5 408.5,-1045.5 405.9006,-1041.2288 412.3441,-1043.1605 403.3012,-1036.9576 403.3012,-1036.9576"/>
<text text-anchor="start" x="350.524" y="-1055.5" font-family="Arial" font-size="10.00" fill="#000000">logs&#45;&gt;users</text>
</g>
<!-- long_long_long_long_long_long_long_long_table_name -->
<g id="node6" class="node">
<title>long_long_long_long_long_long_long_long_table_name</title>
<polygon fill="#efefef" stroke="transparent" points="1058.5,-1000.5 1058.5,-1035.5 1645.5,-1035.5 1645.5,-1000.5 1058.5,-1000.5"/>
<polygon fill="none" stroke="#000000" points="1058.5,-1000.5 1058.5,-1035.5 1645.5,-1035.5 1645.5,-1000.5 1058.5,-1000.5"/>
<text text-anchor="start" x="1065.124" y="-1013.3" font-family="Arial Bold" font-size="18.00" fill="#000000">long_long_long_long_long_long_long_long_table_name</text>
<text text-anchor="start" x="1511.308" y="-1013.3" font-family="Arial" font-size="14.00" fill="#000000">    </text>
<text text-anchor="start" x="1545.5128" y="-1013.3" font-family="Arial" font-size="14.00" fill="#666666">[BASE TABLE]</text>
</g>
<!-- post_comments -->
<g id="node7" class="node">
<title>post_comments</title>
<polygon fill="#efefef" stroke="transparent" points="1749.5,-1000.5 1749.5,-1035.5 1967.5,-1035.5 1967.5,-1000.5 1749.5,-1000.5"/>
<polygon fill="none" stroke="#000000" points="1749.5,-1000.5 1749.5,-1035.5 1967.5,-1035.5 1967.5,-1000.5 1749.5,-1000.5"/>
<text text-anchor="start" x="1756.1048" y="-1013.3" font-family="Arial Bold" font-size="18.00" fill="#000000">post_comments</text>
<text text-anchor="start" x="1883.1308" y="-1013.3" font-family="Arial" font-size="14.00" fill="#000000">    </text>
<text text-anchor="start" x="1917.3356" y="-1013.3" font-family="Arial" font-size="14.00" fill="#666666">[VIEW]</text>
</g>
<!-- posts&#45;&gt;users -->
<g id="edge5" class="edge">
<title>posts:user_id&#45;&gt;users:id</title>
<path fill="none" stroke="#000000" d="M734.3201,-241.5523C743.7372,-232.9446 730.178,-207.18 724.5,-187 719.4213,-168.9498 707.5787,-169.0502 702.5,-151 691.2447,-110.9977 660.9444,-57.5 702.5,-57.5"/>
<polygon fill="#000000" stroke="#000000" points="734.0778,-241.6249 723.2062,-240.19 729.2889,-243.0625 724.5,-244.5 724.5,-244.5 724.5,-244.5 729.2889,-243.0625 725.7938,-248.81 734.0778,-241.6249 734.0778,-241.6249"/>
<text text-anchor="start" x="731.445" y="-254.5" font-family="Arial" font-size="10.00" fill="#000000">FOREIGN KEY (user_id) REFERENCES users (id)</text>
</g>
<!-- user_options -->
<g id="node9" class="node">
<title>user_options</title>
<polygon fill="#efefef" stroke="transparent" points="924.5,-274.5 924.5,-309.5 1168.5,-309.5 1168.5,-274.5 924.5,-274.5"/>
<polygon fill="none" stroke="#000000" points="924.5,-274.5 924.5,-309.5 1168.5,-309.5 1168.5,-274.5 924.5,-274.5"/>
<text text-anchor="start" x="931.2" y="-287.3" font-family="Arial Bold" font-size="18.00" fill="#000000">user_options</text>
<text text-anchor="start" x="1034.232" y="-287.3" font-family="Arial" font-size="14.00" fill="#000000">    </text>
<text text-anchor="start" x="1068.4368" y="-287.3" font-family="Arial" font-size="14.00" fill="#666666">[BASE TABLE]</text>
<polygon fill="none" stroke="#000000" points="924.5,-244.5 924.5,-274.5 1168.5,-274.5 1168.5,-244.5 924.5,-244.5"/>
<text text-anchor="start" x="931.5" y="-255.9" font-family="Arial" font-size="14.00" fill="#000000">user_id    </text>
<text text-anchor="start" x="1011.6024" y="-255.9" font-family="Arial" font-size="14.00" fill="#666666">[int]</text>
</g>
<!-- user_options&#45;&gt;users -->
<g id="edge6" class="edge">
<title>user_options:user_id&#45;&gt;users:id</title>
<path fill="none" stroke="#000000" d="M914.4318,-258.5084C844.7693,-243.2695 975.0279,-57.5 887.5,-57.5"/>
<polygon fill="#000000" stroke="#000000" points="914.5481,-258.5198 924.0589,-263.9783 919.5241,-259.0099 924.5,-259.5 924.5,-259.5 924.5,-259.5 919.5241,-259.0099 924.9411,-255.0217 914.5481,-258.5198 914.5481,-258.5198"/>
<text text-anchor="start" x="691.445" y="-269.5" font-family="Arial" font-size="10.00" fill="#000000">FOREIGN KEY (user_id) REFERENCES users (id)</text>
</g>
</g>
</svg>
