<?xml version="1.0" encoding="UTF-8" standalone="no"?>
<!DOCTYPE svg PUBLIC "-//W3C//DTD SVG 1.1//EN"
 "http://www.w3.org/Graphics/SVG/1.1/DTD/svg11.dtd">
<!-- Generated by graphviz version 2.40.1 (20161225.0304)
 -->
<!-- Title: testdb Pages: 1 -->
<svg width="1997pt" height="1147pt"
 viewBox="0.00 0.00 1996.50 1147.00" xmlns="http://www.w3.org/2000/svg" xmlns:xlink="http://www.w3.org/1999/xlink">
<g id="graph0" class="graph" transform="scale(1 1) rotate(0) translate(4 1143)">
<title>testdb</title>
<polygon fill="#ffffff" stroke="transparent" points="-4,4 -4,-1143 1992.5,-1143 1992.5,4 -4,4"/>
<!-- CamelizeTable -->
<g id="node1" class="node">
<title>CamelizeTable</title>
<polygon fill="#efefef" stroke="transparent" points="43.5,-1000.5 43.5,-1035.5 304.5,-1035.5 304.5,-1000.5 43.5,-1000.5"/>
<polygon fill="none" stroke="#000000" points="43.5,-1000.5 43.5,-1035.5 304.5,-1035.5 304.5,-1000.5 43.5,-1000.5"/>
<text text-anchor="start" x="50.2148" y="-1013.3" font-family="Arial Bold" font-size="18.00" fill="#000000">CamelizeTable</text>
<text text-anchor="start" x="170.2172" y="-1013.3" font-family="Arial" font-size="14.00" fill="#000000">    </text>
<text text-anchor="start" x="204.422" y="-1013.3" font-family="Arial" font-size="14.00" fill="#666666">[BASE TABLE]</text>
</g>
<!-- comment_stars -->
<g id="node2" class="node">
<title>comment_stars</title>
<polygon fill="#efefef" stroke="transparent" points="585.5,-783.5 585.5,-818.5 849.5,-818.5 849.5,-783.5 585.5,-783.5"/>
<polygon fill="none" stroke="#000000" points="585.5,-783.5 585.5,-818.5 849.5,-818.5 849.5,-783.5 585.5,-783.5"/>
<text text-anchor="start" x="592.21" y="-796.3" font-family="Arial Bold" font-size="18.00" fill="#000000">comment_stars</text>
<text text-anchor="start" x="715.222" y="-796.3" font-family="Arial" font-size="14.00" fill="#000000">    </text>
<text text-anchor="start" x="749.4268" y="-796.3" font-family="Arial" font-size="14.00" fill="#666666">[BASE TABLE]</text>
<polygon fill="none" stroke="#000000" points="585.5,-753.5 585.5,-783.5 849.5,-783.5 849.5,-753.5 585.5,-753.5"/>
<text text-anchor="start" x="592.5" y="-764.9" font-family="Arial" font-size="14.00" fill="#000000">id </text>
<text text-anchor="start" x="607.2798" y="-764.9" font-family="Arial" font-size="14.00" fill="#666666">[bigint]</text>
<polygon fill="none" stroke="#000000" points="585.5,-723.5 585.5,-753.5 849.5,-753.5 849.5,-723.5 585.5,-723.5"/>
<text text-anchor="start" x="592.5" y="-734.9" font-family="Arial" font-size="14.00" fill="#000000">comment_post_id </text>
<text text-anchor="start" x="706.8604" y="-734.9" font-family="Arial" font-size="14.00" fill="#666666">[bigint]</text>
<polygon fill="none" stroke="#000000" points="585.5,-693.5 585.5,-723.5 849.5,-723.5 849.5,-693.5 585.5,-693.5"/>
<text text-anchor="start" x="592.5" y="-704.9" font-family="Arial" font-size="14.00" fill="#000000">comment_user_id </text>
<text text-anchor="start" x="707.6304" y="-704.9" font-family="Arial" font-size="14.00" fill="#666666">[int]</text>
</g>
<!-- comments -->
<g id="node3" class="node">
<title>comments</title>
<polygon fill="#efefef" stroke="transparent" points="547.5,-536.5 547.5,-571.5 771.5,-571.5 771.5,-536.5 547.5,-536.5"/>
<polygon fill="none" stroke="#000000" points="547.5,-536.5 547.5,-571.5 771.5,-571.5 771.5,-536.5 547.5,-536.5"/>
<text text-anchor="start" x="554.2134" y="-549.3" font-family="Arial Bold" font-size="18.00" fill="#000000">comments</text>
<text text-anchor="start" x="637.2186" y="-549.3" font-family="Arial" font-size="14.00" fill="#000000">    </text>
<text text-anchor="start" x="671.4234" y="-549.3" font-family="Arial" font-size="14.00" fill="#666666">[BASE TABLE]</text>
<polygon fill="none" stroke="#000000" points="547.5,-506.5 547.5,-536.5 771.5,-536.5 771.5,-506.5 547.5,-506.5"/>
<text text-anchor="start" x="554.5" y="-517.9" font-family="Arial" font-size="14.00" fill="#000000">id </text>
<text text-anchor="start" x="569.2798" y="-517.9" font-family="Arial" font-size="14.00" fill="#666666">[bigint]</text>
<polygon fill="none" stroke="#000000" points="547.5,-476.5 547.5,-506.5 771.5,-506.5 771.5,-476.5 547.5,-476.5"/>
<text text-anchor="start" x="554.5" y="-487.9" font-family="Arial" font-size="14.00" fill="#000000">post_id </text>
<text text-anchor="start" x="603.5182" y="-487.9" font-family="Arial" font-size="14.00" fill="#666666">[bigint]</text>
<polygon fill="none" stroke="#000000" points="547.5,-446.5 547.5,-476.5 771.5,-476.5 771.5,-446.5 547.5,-446.5"/>
<text text-anchor="start" x="554.5" y="-457.9" font-family="Arial" font-size="14.00" fill="#000000">user_id </text>
<text text-anchor="start" x="604.2882" y="-457.9" font-family="Arial" font-size="14.00" fill="#666666">[int]</text>
</g>
<!-- comment_stars&#45;&gt;comments -->
<g id="edge2" class="edge">
<title>comment_stars:comment_post_id&#45;&gt;comments:post_id</title>
<path fill="none" stroke="#000000" d="M575.5844,-736.934C549.4741,-727.5314 563.1684,-678.0682 585.5,-651 639.0843,-586.0501 717.9157,-679.9499 771.5,-615 806.4306,-572.6604 826.3889,-491.5 771.5,-491.5"/>
<polygon fill="#000000" stroke="#000000" points="575.6224,-736.9399 584.798,-742.9449 580.5612,-737.72 585.5,-738.5 585.5,-738.5 585.5,-738.5 580.5612,-737.72 586.202,-734.0551 575.6224,-736.9399 575.6224,-736.9399"/>
<text text-anchor="start" x="137.6435" y="-748.5" font-family="Arial" font-size="10.00" fill="#000000">FOREIGN KEY (comment_post_id, comment_user_id) REFERENCES comments (post_id, user_id)</text>
</g>
<!-- users -->
<g id="node10" class="node">
<title>users</title>
<polygon fill="#efefef" stroke="transparent" points="691.5,-72.5 691.5,-107.5 876.5,-107.5 876.5,-72.5 691.5,-72.5"/>
<polygon fill="none" stroke="#000000" points="691.5,-72.5 691.5,-107.5 876.5,-107.5 876.5,-72.5 691.5,-72.5"/>
<text text-anchor="start" x="698.2137" y="-85.3" font-family="Arial Bold" font-size="18.00" fill="#000000">users</text>
<text text-anchor="start" x="742.2183" y="-85.3" font-family="Arial" font-size="14.00" fill="#000000">    </text>
<text text-anchor="start" x="776.4231" y="-85.3" font-family="Arial" font-size="14.00" fill="#666666">[BASE TABLE]</text>
<polygon fill="none" stroke="#000000" points="691.5,-42.5 691.5,-72.5 876.5,-72.5 876.5,-42.5 691.5,-42.5"/>
<text text-anchor="start" x="698.5" y="-53.9" font-family="Arial" font-size="14.00" fill="#000000">id </text>
<text text-anchor="start" x="713.2798" y="-53.9" font-family="Arial" font-size="14.00" fill="#666666">[int]</text>
</g>
<!-- comment_stars&#45;&gt;users -->
<g id="edge1" class="edge">
<title>comment_stars:comment_user_id&#45;&gt;users:id</title>
<path fill="none" stroke="#000000" d="M852.6782,-698.8107C863.1456,-628.5855 858.7415,-200.0121 861.5,-187 865.0946,-170.0435 873.1007,-167.9967 876.5,-151 884.6497,-110.2514 918.0556,-57.5 876.5,-57.5"/>
<polygon fill="#000000" stroke="#000000" points="852.6168,-698.9981 845.2241,-707.0975 851.0584,-703.749 849.5,-708.5 849.5,-708.5 849.5,-708.5 851.0584,-703.749 853.7759,-709.9025 852.6168,-698.9981 852.6168,-698.9981"/>
<text text-anchor="start" x="856.1085" y="-718.5" font-family="Arial" font-size="10.00" fill="#000000">FOREIGN KEY (comment_user_id) REFERENCES users (id)</text>
</g>
<!-- posts -->
<g id="node8" class="node">
<title>posts</title>
<polygon fill="#efefef" stroke="transparent" points="529.5,-289.5 529.5,-324.5 713.5,-324.5 713.5,-289.5 529.5,-289.5"/>
<polygon fill="none" stroke="#000000" points="529.5,-289.5 529.5,-324.5 713.5,-324.5 713.5,-289.5 529.5,-289.5"/>
<text text-anchor="start" x="536.2087" y="-302.3" font-family="Arial Bold" font-size="18.00" fill="#000000">posts</text>
<text text-anchor="start" x="579.2233" y="-302.3" font-family="Arial" font-size="14.00" fill="#000000">    </text>
<text text-anchor="start" x="613.4281" y="-302.3" font-family="Arial" font-size="14.00" fill="#666666">[BASE TABLE]</text>
<polygon fill="none" stroke="#000000" points="529.5,-259.5 529.5,-289.5 713.5,-289.5 713.5,-259.5 529.5,-259.5"/>
<text text-anchor="start" x="536.5" y="-270.9" font-family="Arial" font-size="14.00" fill="#000000">id </text>
<text text-anchor="start" x="551.2798" y="-270.9" font-family="Arial" font-size="14.00" fill="#666666">[bigint]</text>
<polygon fill="none" stroke="#000000" points="529.5,-229.5 529.5,-259.5 713.5,-259.5 713.5,-229.5 529.5,-229.5"/>
<text text-anchor="start" x="536.5" y="-240.9" font-family="Arial" font-size="14.00" fill="#000000">user_id </text>
<text text-anchor="start" x="586.2882" y="-240.9" font-family="Arial" font-size="14.00" fill="#666666">[int]</text>
</g>
<!-- comments&#45;&gt;posts -->
<g id="edge3" class="edge">
<title>comments:post_id&#45;&gt;posts:id</title>
<path fill="none" stroke="#000000" d="M537.5931,-489.9411C511.5335,-480.5799 525.4727,-431.3164 547.5,-404 594.8882,-345.2333 666.1118,-426.7667 713.5,-368 739.5852,-335.6515 755.0556,-274.5 713.5,-274.5"/>
<polygon fill="#000000" stroke="#000000" points="537.6215,-489.9455 546.8005,-495.9453 542.5608,-490.7227 547.5,-491.5 547.5,-491.5 547.5,-491.5 542.5608,-490.7227 548.1995,-487.0547 537.6215,-489.9455 537.6215,-489.9455"/>
<text text-anchor="start" x="315.995" y="-501.5" font-family="Arial" font-size="10.00" fill="#000000">FOREIGN KEY (post_id) REFERENCES posts (id)</text>
</g>
<!-- comments&#45;&gt;users -->
<g id="edge4" class="edge">
<title>comments:user_id&#45;&gt;users:id</title>
<path fill="none" stroke="#000000" d="M781.7627,-461.0455C887.6421,-451.0791 750.7223,-279.6284 828.5,-187 856.336,-153.8491 894.6975,-186.822 919,-151 946.0728,-111.0945 953.0983,-76.5983 919,-42.5 876.7307,-.2307 784.5,17.2778 784.5,-42.5"/>
<polygon fill="#000000" stroke="#000000" points="781.4902,-461.0575 771.3009,-457.0044 776.4951,-461.2787 771.5,-461.5 771.5,-461.5 771.5,-461.5 776.4951,-461.2787 771.6991,-465.9956 781.4902,-461.0575 781.4902,-461.0575"/>
<text text-anchor="start" x="778.445" y="-471.5" font-family="Arial" font-size="10.00" fill="#000000">FOREIGN KEY (user_id) REFERENCES users (id)</text>
</g>
<!-- hyphen&#45;table -->
<g id="node4" class="node">
<title>hyphen&#45;table</title>
<polygon fill="#efefef" stroke="transparent" points="687.5,-1000.5 687.5,-1035.5 932.5,-1035.5 932.5,-1000.5 687.5,-1000.5"/>
<polygon fill="none" stroke="#000000" points="687.5,-1000.5 687.5,-1035.5 932.5,-1035.5 932.5,-1000.5 687.5,-1000.5"/>
<text text-anchor="start" x="694.1969" y="-1013.3" font-family="Arial Bold" font-size="18.00" fill="#000000">hyphen&#45;table</text>
<text text-anchor="start" x="798.2351" y="-1013.3" font-family="Arial" font-size="14.00" fill="#000000">    </text>
<text text-anchor="start" x="832.4399" y="-1013.3" font-family="Arial" font-size="14.00" fill="#666666">[BASE TABLE]</text>
</g>
<!-- logs -->
<g id="node5" class="node">
<title>logs</title>
<polygon fill="#efefef" stroke="transparent" points="408.5,-1060.5 408.5,-1095.5 582.5,-1095.5 582.5,-1060.5 408.5,-1060.5"/>
<polygon fill="none" stroke="#000000" points="408.5,-1060.5 408.5,-1095.5 582.5,-1095.5 582.5,-1060.5 408.5,-1060.5"/>
<text text-anchor="start" x="415.2127" y="-1073.3" font-family="Arial Bold" font-size="18.00" fill="#000000">logs</text>
<text text-anchor="start" x="448.2193" y="-1073.3" font-family="Arial" font-size="14.00" fill="#000000">    </text>
<text text-anchor="start" x="482.4241" y="-1073.3" font-family="Arial" font-size="14.00" fill="#666666">[BASE TABLE]</text>
<polygon fill="none" stroke="#000000" points="408.5,-1030.5 408.5,-1060.5 582.5,-1060.5 582.5,-1030.5 408.5,-1030.5"/>
<text text-anchor="start" x="415.5" y="-1041.9" font-family="Arial" font-size="14.00" fill="#000000">user_id </text>
<text text-anchor="start" x="465.2882" y="-1041.9" font-family="Arial" font-size="14.00" fill="#666666">[int]</text>
<polygon fill="none" stroke="#000000" points="408.5,-1000.5 408.5,-1030.5 582.5,-1030.5 582.5,-1000.5 408.5,-1000.5"/>
<text text-anchor="start" x="415.5" y="-1011.9" font-family="Arial" font-size="14.00" fill="#000000">post_id </text>
<text text-anchor="start" x="464.5182" y="-1011.9" font-family="Arial" font-size="14.00" fill="#666666">[bigint]</text>
<polygon fill="none" stroke="#000000" points="408.5,-970.5 408.5,-1000.5 582.5,-1000.5 582.5,-970.5 408.5,-970.5"/>
<text text-anchor="start" x="415.5" y="-981.9" font-family="Arial" font-size="14.00" fill="#000000">comment_id </text>
<text text-anchor="start" x="495.622" y="-981.9" font-family="Arial" font-size="14.00" fill="#666666">[bigint]</text>
<polygon fill="none" stroke="#000000" points="408.5,-940.5 408.5,-970.5 582.5,-970.5 582.5,-940.5 408.5,-940.5"/>
<text text-anchor="start" x="415.5" y="-951.9" font-family="Arial" font-size="14.00" fill="#000000">comment_star_id </text>
<text text-anchor="start" x="526.7384" y="-951.9" font-family="Arial" font-size="14.00" fill="#666666">[bigint]</text>
</g>
<!-- logs&#45;&gt;comment_stars -->
<g id="edge10" class="edge">
<title>logs:comment_star_id&#45;&gt;comment_stars:id</title>
<path fill="none" stroke="#000000" stroke-dasharray="5,2" d="M592.6158,-954.3059C650.859,-938.3796 506.2745,-768.5 585.5,-768.5"/>
<polygon fill="#000000" stroke="#000000" points="592.431,-954.3276 581.9724,-951.031 587.4655,-954.9138 582.5,-955.5 582.5,-955.5 582.5,-955.5 587.4655,-954.9138 583.0276,-959.969 592.431,-954.3276 592.431,-954.3276"/>
<text text-anchor="start" x="589.8245" y="-939.5" font-family="Arial" font-size="10.00" fill="#000000">Additional Relation</text>
</g>
<!-- logs&#45;&gt;comments -->
<g id="edge9" class="edge">
<title>logs:comment_id&#45;&gt;comments:id</title>
<path fill="none" stroke="#000000" stroke-dasharray="5,2" d="M592.5526,-983.9403C617.0959,-974.9612 598.2793,-929.1731 582.5,-898 570.2956,-873.8893 545.7044,-886.1107 533.5,-862 499.2985,-794.4324 471.7694,-521.5 547.5,-521.5"/>
<polygon fill="#000000" stroke="#000000" points="592.3818,-983.9667 581.81,-981.0532 587.4409,-984.7334 582.5,-985.5 582.5,-985.5 582.5,-985.5 587.4409,-984.7334 583.19,-989.9468 592.3818,-983.9667 592.3818,-983.9667"/>
<text text-anchor="start" x="589.8245" y="-995.5" font-family="Arial" font-size="10.00" fill="#000000">Additional Relation</text>
</g>
<!-- logs&#45;&gt;posts -->
<g id="edge8" class="edge">
<title>logs:post_id&#45;&gt;posts:id</title>
<path fill="none" stroke="#000000" stroke-dasharray="5,2" d="M398.1922,-1014.3763C360.6687,-1005.1909 387.7966,-941.6891 408.5,-898 419.3201,-875.167 440.6234,-884.3017 452.5,-862 514.3915,-745.7805 397.8279,-274.5 529.5,-274.5"/>
<polygon fill="#000000" stroke="#000000" points="398.5589,-1014.4162 408.0123,-1019.9735 403.5294,-1014.9581 408.5,-1015.5 408.5,-1015.5 408.5,-1015.5 403.5294,-1014.9581 408.9877,-1011.0265 398.5589,-1014.4162 398.5589,-1014.4162"/>
<text text-anchor="start" x="318.8245" y="-1025.5" font-family="Arial" font-size="10.00" fill="#000000">Additional Relation</text>
</g>
<!-- logs&#45;&gt;users -->
<g id="edge7" class="edge">
<title>logs:user_id&#45;&gt;users:id</title>
<path fill="none" stroke="#000000" stroke-dasharray="5,2" d="M403.3321,-1036.9253C379.8379,-958.155 369.0498,-359.3388 477.5,-187 536.7096,-92.9097 580.33,-57.5 691.5,-57.5"/>
<polygon fill="#000000" stroke="#000000" points="403.338,-1036.9353 404.6459,-1047.8229 405.919,-1041.2176 408.5,-1045.5 408.5,-1045.5 408.5,-1045.5 405.919,-1041.2176 412.3541,-1043.1771 403.338,-1036.9353 403.338,-1036.9353"/>
<text text-anchor="start" x="350.524" y="-1055.5" font-family="Arial" font-size="10.00" fill="#000000">logs&#45;&gt;users</text>
</g>
<!-- long_long_long_long_long_long_long_long_table_name -->
<g id="node6" class="node">
<title>long_long_long_long_long_long_long_long_table_name</title>
<polygon fill="#efefef" stroke="transparent" points="1036.5,-1000.5 1036.5,-1035.5 1623.5,-1035.5 1623.5,-1000.5 1036.5,-1000.5"/>
<polygon fill="none" stroke="#000000" points="1036.5,-1000.5 1036.5,-1035.5 1623.5,-1035.5 1623.5,-1000.5 1036.5,-1000.5"/>
<text text-anchor="start" x="1043.124" y="-1013.3" font-family="Arial Bold" font-size="18.00" fill="#000000">long_long_long_long_long_long_long_long_table_name</text>
<text text-anchor="start" x="1489.308" y="-1013.3" font-family="Arial" font-size="14.00" fill="#000000">    </text>
<text text-anchor="start" x="1523.5128" y="-1013.3" font-family="Arial" font-size="14.00" fill="#666666">[BASE TABLE]</text>
</g>
<!-- post_comments -->
<g id="node7" class="node">
<title>post_comments</title>
<polygon fill="#efefef" stroke="transparent" points="1727.5,-1000.5 1727.5,-1035.5 1945.5,-1035.5 1945.5,-1000.5 1727.5,-1000.5"/>
<polygon fill="none" stroke="#000000" points="1727.5,-1000.5 1727.5,-1035.5 1945.5,-1035.5 1945.5,-1000.5 1727.5,-1000.5"/>
<text text-anchor="start" x="1734.1048" y="-1013.3" font-family="Arial Bold" font-size="18.00" fill="#000000">post_comments</text>
<text text-anchor="start" x="1861.1308" y="-1013.3" font-family="Arial" font-size="14.00" fill="#000000">    </text>
<text text-anchor="start" x="1895.3356" y="-1013.3" font-family="Arial" font-size="14.00" fill="#666666">[VIEW]</text>
</g>
<!-- posts&#45;&gt;users -->
<g id="edge5" class="edge">
<title>posts:user_id&#45;&gt;users:id</title>
<path fill="none" stroke="#000000" d="M723.3201,-241.5523C732.7372,-232.9446 719.178,-207.18 713.5,-187 708.4213,-168.9498 696.5787,-169.0502 691.5,-151 680.2447,-110.9977 649.9444,-57.5 691.5,-57.5"/>
<polygon fill="#000000" stroke="#000000" points="723.0778,-241.6249 712.2062,-240.19 718.2889,-243.0625 713.5,-244.5 713.5,-244.5 713.5,-244.5 718.2889,-243.0625 714.7938,-248.81 723.0778,-241.6249 723.0778,-241.6249"/>
<text text-anchor="start" x="720.445" y="-254.5" font-family="Arial" font-size="10.00" fill="#000000">FOREIGN KEY (user_id) REFERENCES users (id)</text>
</g>
<!-- user_options -->
<g id="node9" class="node">
<title>user_options</title>
<polygon fill="#efefef" stroke="transparent" points="913.5,-274.5 913.5,-309.5 1157.5,-309.5 1157.5,-274.5 913.5,-274.5"/>
<polygon fill="none" stroke="#000000" points="913.5,-274.5 913.5,-309.5 1157.5,-309.5 1157.5,-274.5 913.5,-274.5"/>
<text text-anchor="start" x="920.2" y="-287.3" font-family="Arial Bold" font-size="18.00" fill="#000000">user_options</text>
<text text-anchor="start" x="1023.232" y="-287.3" font-family="Arial" font-size="14.00" fill="#000000">    </text>
<text text-anchor="start" x="1057.4368" y="-287.3" font-family="Arial" font-size="14.00" fill="#666666">[BASE TABLE]</text>
<polygon fill="none" stroke="#000000" points="913.5,-244.5 913.5,-274.5 1157.5,-274.5 1157.5,-244.5 913.5,-244.5"/>
<text text-anchor="start" x="920.5" y="-255.9" font-family="Arial" font-size="14.00" fill="#000000">user_id </text>
<text text-anchor="start" x="970.2882" y="-255.9" font-family="Arial" font-size="14.00" fill="#666666">[int]</text>
</g>
<!-- user_options&#45;&gt;users -->
<g id="edge6" class="edge">
<title>user_options:user_id&#45;&gt;users:id</title>
<path fill="none" stroke="#000000" d="M903.4318,-258.5084C833.7693,-243.2695 964.0279,-57.5 876.5,-57.5"/>
<polygon fill="#000000" stroke="#000000" points="903.5481,-258.5198 913.0589,-263.9783 908.5241,-259.0099 913.5,-259.5 913.5,-259.5 913.5,-259.5 908.5241,-259.0099 913.9411,-255.0217 903.5481,-258.5198 903.5481,-258.5198"/>
<text text-anchor="start" x="680.445" y="-269.5" font-family="Arial" font-size="10.00" fill="#000000">FOREIGN KEY (user_id) REFERENCES users (id)</text>
</g>
</g>
</svg>
