<?xml version="1.0" encoding="UTF-8" standalone="no"?>
<!DOCTYPE svg PUBLIC "-//W3C//DTD SVG 1.1//EN"
 "http://www.w3.org/Graphics/SVG/1.1/DTD/svg11.dtd">
<!-- Generated by graphviz version 2.40.1 (20161225.0304)
 -->
<!-- Title: testdb Pages: 1 -->
<svg width="1208pt" height="1147pt"
 viewBox="0.00 0.00 1207.50 1147.00" xmlns="http://www.w3.org/2000/svg" xmlns:xlink="http://www.w3.org/1999/xlink">
<g id="graph0" class="graph" transform="scale(1 1) rotate(0) translate(4 1143)">
<title>testdb</title>
<polygon fill="#ffffff" stroke="transparent" points="-4,4 -4,-1143 1203.5,-1143 1203.5,4 -4,4"/>
<!-- CamelizeTable -->
<g id="node1" class="node">
<title>CamelizeTable</title>
<polygon fill="#efefef" stroke="transparent" points="43.5,-1000.5 43.5,-1035.5 274.5,-1035.5 274.5,-1000.5 43.5,-1000.5"/>
<polygon fill="none" stroke="#000000" points="43.5,-1000.5 43.5,-1035.5 274.5,-1035.5 274.5,-1000.5 43.5,-1000.5"/>
<text text-anchor="start" x="50.3719" y="-1013.3" font-family="Arial Bold" font-size="18.00" fill="#000000">CamelizeTable</text>
<text text-anchor="start" x="170.3743" y="-1013.3" font-family="Arial" font-size="14.00" fill="#000000"> </text>
<text text-anchor="start" x="174.2649" y="-1013.3" font-family="Arial" font-size="14.00" fill="#666666">[BASE TABLE]</text>
</g>
<!-- comment_stars -->
<g id="node2" class="node">
<title>comment_stars</title>
<polygon fill="#efefef" stroke="transparent" points="551.5,-783.5 551.5,-818.5 785.5,-818.5 785.5,-783.5 551.5,-783.5"/>
<polygon fill="none" stroke="#000000" points="551.5,-783.5 551.5,-818.5 785.5,-818.5 785.5,-783.5 551.5,-783.5"/>
<text text-anchor="start" x="558.3671" y="-796.3" font-family="Arial Bold" font-size="18.00" fill="#000000">comment_stars</text>
<text text-anchor="start" x="681.3791" y="-796.3" font-family="Arial" font-size="14.00" fill="#000000"> </text>
<text text-anchor="start" x="685.2697" y="-796.3" font-family="Arial" font-size="14.00" fill="#666666">[BASE TABLE]</text>
<polygon fill="none" stroke="#000000" points="551.5,-753.5 551.5,-783.5 785.5,-783.5 785.5,-753.5 551.5,-753.5"/>
<text text-anchor="start" x="558.5" y="-764.9" font-family="Arial" font-size="14.00" fill="#000000">id </text>
<text text-anchor="start" x="573.2798" y="-764.9" font-family="Arial" font-size="14.00" fill="#666666">[bigint]</text>
<polygon fill="none" stroke="#000000" points="551.5,-723.5 551.5,-753.5 785.5,-753.5 785.5,-723.5 551.5,-723.5"/>
<text text-anchor="start" x="558.5" y="-734.9" font-family="Arial" font-size="14.00" fill="#000000">comment_post_id </text>
<text text-anchor="start" x="672.8604" y="-734.9" font-family="Arial" font-size="14.00" fill="#666666">[bigint]</text>
<polygon fill="none" stroke="#000000" points="551.5,-693.5 551.5,-723.5 785.5,-723.5 785.5,-693.5 551.5,-693.5"/>
<text text-anchor="start" x="558.5" y="-704.9" font-family="Arial" font-size="14.00" fill="#000000">comment_user_id </text>
<text text-anchor="start" x="673.6304" y="-704.9" font-family="Arial" font-size="14.00" fill="#666666">[int]</text>
</g>
<!-- comments -->
<g id="node3" class="node">
<title>comments</title>
<polygon fill="#efefef" stroke="transparent" points="513.5,-536.5 513.5,-571.5 707.5,-571.5 707.5,-536.5 513.5,-536.5"/>
<polygon fill="none" stroke="#000000" points="513.5,-536.5 513.5,-571.5 707.5,-571.5 707.5,-536.5 513.5,-536.5"/>
<text text-anchor="start" x="520.3705" y="-549.3" font-family="Arial Bold" font-size="18.00" fill="#000000">comments</text>
<text text-anchor="start" x="603.3757" y="-549.3" font-family="Arial" font-size="14.00" fill="#000000"> </text>
<text text-anchor="start" x="607.2663" y="-549.3" font-family="Arial" font-size="14.00" fill="#666666">[BASE TABLE]</text>
<polygon fill="none" stroke="#000000" points="513.5,-506.5 513.5,-536.5 707.5,-536.5 707.5,-506.5 513.5,-506.5"/>
<text text-anchor="start" x="520.5" y="-517.9" font-family="Arial" font-size="14.00" fill="#000000">id </text>
<text text-anchor="start" x="535.2798" y="-517.9" font-family="Arial" font-size="14.00" fill="#666666">[bigint]</text>
<polygon fill="none" stroke="#000000" points="513.5,-476.5 513.5,-506.5 707.5,-506.5 707.5,-476.5 513.5,-476.5"/>
<text text-anchor="start" x="520.5" y="-487.9" font-family="Arial" font-size="14.00" fill="#000000">post_id </text>
<text text-anchor="start" x="569.5182" y="-487.9" font-family="Arial" font-size="14.00" fill="#666666">[bigint]</text>
<polygon fill="none" stroke="#000000" points="513.5,-446.5 513.5,-476.5 707.5,-476.5 707.5,-446.5 513.5,-446.5"/>
<text text-anchor="start" x="520.5" y="-457.9" font-family="Arial" font-size="14.00" fill="#000000">user_id </text>
<text text-anchor="start" x="570.2882" y="-457.9" font-family="Arial" font-size="14.00" fill="#666666">[int]</text>
</g>
<!-- comment_stars&#45;&gt;comments -->
<g id="edge2" class="edge">
<title>comment_stars:comment_post_id&#45;&gt;comments:post_id</title>
<path fill="none" stroke="#000000" d="M541.5983,-736.9453C515.5689,-727.6082 529.654,-678.4616 551.5,-651 595.798,-595.3152 663.202,-670.6848 707.5,-615 741.6712,-572.0451 762.3889,-491.5 707.5,-491.5"/>
<polygon fill="#000000" stroke="#000000" points="541.621,-736.9487 550.8019,-742.9455 546.5605,-737.7244 551.5,-738.5 551.5,-738.5 551.5,-738.5 546.5605,-737.7244 552.1981,-734.0545 541.621,-736.9487 541.621,-736.9487"/>
<text text-anchor="start" x="103.6435" y="-748.5" font-family="Arial" font-size="10.00" fill="#000000">FOREIGN KEY (comment_post_id, comment_user_id) REFERENCES comments (post_id, user_id)</text>
</g>
<!-- users -->
<g id="node9" class="node">
<title>users</title>
<polygon fill="#efefef" stroke="transparent" points="642.5,-72.5 642.5,-107.5 797.5,-107.5 797.5,-72.5 642.5,-72.5"/>
<polygon fill="none" stroke="#000000" points="642.5,-72.5 642.5,-107.5 797.5,-107.5 797.5,-72.5 642.5,-72.5"/>
<text text-anchor="start" x="649.3708" y="-85.3" font-family="Arial Bold" font-size="18.00" fill="#000000">users</text>
<text text-anchor="start" x="693.3754" y="-85.3" font-family="Arial" font-size="14.00" fill="#000000"> </text>
<text text-anchor="start" x="697.266" y="-85.3" font-family="Arial" font-size="14.00" fill="#666666">[BASE TABLE]</text>
<polygon fill="none" stroke="#000000" points="642.5,-42.5 642.5,-72.5 797.5,-72.5 797.5,-42.5 642.5,-42.5"/>
<text text-anchor="start" x="649.5" y="-53.9" font-family="Arial" font-size="14.00" fill="#000000">id </text>
<text text-anchor="start" x="664.2798" y="-53.9" font-family="Arial" font-size="14.00" fill="#666666">[int]</text>
</g>
<!-- comment_stars&#45;&gt;users -->
<g id="edge1" class="edge">
<title>comment_stars:comment_user_id&#45;&gt;users:id</title>
<path fill="none" stroke="#000000" d="M787.2916,-698.4847C793.8868,-623.9289 797.4233,-158.1242 797.5,-151 797.9472,-109.4469 839.0556,-57.5 797.5,-57.5"/>
<polygon fill="#000000" stroke="#000000" points="787.261,-698.6563 781.0703,-707.7076 786.3805,-703.5781 785.5,-708.5 785.5,-708.5 785.5,-708.5 786.3805,-703.5781 789.9297,-709.2924 787.261,-698.6563 787.261,-698.6563"/>
<text text-anchor="start" x="792.1085" y="-718.5" font-family="Arial" font-size="10.00" fill="#000000">FOREIGN KEY (comment_user_id) REFERENCES users (id)</text>
</g>
<!-- posts -->
<g id="node7" class="node">
<title>posts</title>
<polygon fill="#efefef" stroke="transparent" points="495.5,-289.5 495.5,-324.5 649.5,-324.5 649.5,-289.5 495.5,-289.5"/>
<polygon fill="none" stroke="#000000" points="495.5,-289.5 495.5,-324.5 649.5,-324.5 649.5,-289.5 495.5,-289.5"/>
<text text-anchor="start" x="502.3658" y="-302.3" font-family="Arial Bold" font-size="18.00" fill="#000000">posts</text>
<text text-anchor="start" x="545.3804" y="-302.3" font-family="Arial" font-size="14.00" fill="#000000"> </text>
<text text-anchor="start" x="549.271" y="-302.3" font-family="Arial" font-size="14.00" fill="#666666">[BASE TABLE]</text>
<polygon fill="none" stroke="#000000" points="495.5,-259.5 495.5,-289.5 649.5,-289.5 649.5,-259.5 495.5,-259.5"/>
<text text-anchor="start" x="502.5" y="-270.9" font-family="Arial" font-size="14.00" fill="#000000">id </text>
<text text-anchor="start" x="517.2798" y="-270.9" font-family="Arial" font-size="14.00" fill="#666666">[bigint]</text>
<polygon fill="none" stroke="#000000" points="495.5,-229.5 495.5,-259.5 649.5,-259.5 649.5,-229.5 495.5,-229.5"/>
<text text-anchor="start" x="502.5" y="-240.9" font-family="Arial" font-size="14.00" fill="#000000">user_id </text>
<text text-anchor="start" x="552.2882" y="-240.9" font-family="Arial" font-size="14.00" fill="#666666">[int]</text>
</g>
<!-- comments&#45;&gt;posts -->
<g id="edge3" class="edge">
<title>comments:post_id&#45;&gt;posts:id</title>
<path fill="none" stroke="#000000" d="M503.611,-489.9552C477.6552,-480.6757 492.0957,-431.8073 513.5,-404 551.6386,-354.4523 611.3614,-417.5477 649.5,-368 674.8473,-335.0701 691.0556,-274.5 649.5,-274.5"/>
<polygon fill="#000000" stroke="#000000" points="503.6198,-489.9565 512.8054,-495.9461 508.5599,-490.7282 513.5,-491.5 513.5,-491.5 513.5,-491.5 508.5599,-490.7282 514.1946,-487.0539 503.6198,-489.9565 503.6198,-489.9565"/>
<text text-anchor="start" x="281.995" y="-501.5" font-family="Arial" font-size="10.00" fill="#000000">FOREIGN KEY (post_id) REFERENCES posts (id)</text>
</g>
<!-- comments&#45;&gt;users -->
<g id="edge4" class="edge">
<title>comments:user_id&#45;&gt;users:id</title>
<path fill="none" stroke="#000000" d="M717.4944,-459.3208C766.065,-436.3919 737.7632,-239.2021 764.5,-187 774.3946,-167.6814 789.6314,-171.2286 797.5,-151 812.5648,-112.2713 839.0556,-57.5 797.5,-57.5"/>
<polygon fill="#000000" stroke="#000000" points="717.2705,-459.3696 706.5413,-457.1033 712.3852,-460.4348 707.5,-461.5 707.5,-461.5 707.5,-461.5 712.3852,-460.4348 708.4587,-465.8967 717.2705,-459.3696 717.2705,-459.3696"/>
<text text-anchor="start" x="714.445" y="-471.5" font-family="Arial" font-size="10.00" fill="#000000">FOREIGN KEY (user_id) REFERENCES users (id)</text>
</g>
<!-- hyphen&#45;table -->
<g id="node4" class="node">
<title>hyphen&#45;table</title>
<polygon fill="#efefef" stroke="transparent" points="649.5,-1000.5 649.5,-1035.5 864.5,-1035.5 864.5,-1000.5 649.5,-1000.5"/>
<polygon fill="none" stroke="#000000" points="649.5,-1000.5 649.5,-1035.5 864.5,-1035.5 864.5,-1000.5 649.5,-1000.5"/>
<text text-anchor="start" x="656.354" y="-1013.3" font-family="Arial Bold" font-size="18.00" fill="#000000">hyphen&#45;table</text>
<text text-anchor="start" x="760.3922" y="-1013.3" font-family="Arial" font-size="14.00" fill="#000000"> </text>
<text text-anchor="start" x="764.2828" y="-1013.3" font-family="Arial" font-size="14.00" fill="#666666">[BASE TABLE]</text>
</g>
<!-- logs -->
<g id="node5" class="node">
<title>logs</title>
<polygon fill="#efefef" stroke="transparent" points="378.5,-1060.5 378.5,-1095.5 544.5,-1095.5 544.5,-1060.5 378.5,-1060.5"/>
<polygon fill="none" stroke="#000000" points="378.5,-1060.5 378.5,-1095.5 544.5,-1095.5 544.5,-1060.5 378.5,-1060.5"/>
<text text-anchor="start" x="396.3698" y="-1073.3" font-family="Arial Bold" font-size="18.00" fill="#000000">logs</text>
<text text-anchor="start" x="429.3764" y="-1073.3" font-family="Arial" font-size="14.00" fill="#000000"> </text>
<text text-anchor="start" x="433.267" y="-1073.3" font-family="Arial" font-size="14.00" fill="#666666">[BASE TABLE]</text>
<polygon fill="none" stroke="#000000" points="378.5,-1030.5 378.5,-1060.5 544.5,-1060.5 544.5,-1030.5 378.5,-1030.5"/>
<text text-anchor="start" x="385.5" y="-1041.9" font-family="Arial" font-size="14.00" fill="#000000">user_id </text>
<text text-anchor="start" x="435.2882" y="-1041.9" font-family="Arial" font-size="14.00" fill="#666666">[int]</text>
<polygon fill="none" stroke="#000000" points="378.5,-1000.5 378.5,-1030.5 544.5,-1030.5 544.5,-1000.5 378.5,-1000.5"/>
<text text-anchor="start" x="385.5" y="-1011.9" font-family="Arial" font-size="14.00" fill="#000000">post_id </text>
<text text-anchor="start" x="434.5182" y="-1011.9" font-family="Arial" font-size="14.00" fill="#666666">[bigint]</text>
<polygon fill="none" stroke="#000000" points="378.5,-970.5 378.5,-1000.5 544.5,-1000.5 544.5,-970.5 378.5,-970.5"/>
<text text-anchor="start" x="385.5" y="-981.9" font-family="Arial" font-size="14.00" fill="#000000">comment_id </text>
<text text-anchor="start" x="465.622" y="-981.9" font-family="Arial" font-size="14.00" fill="#666666">[bigint]</text>
<polygon fill="none" stroke="#000000" points="378.5,-940.5 378.5,-970.5 544.5,-970.5 544.5,-940.5 378.5,-940.5"/>
<text text-anchor="start" x="385.2644" y="-951.9" font-family="Arial" font-size="14.00" fill="#000000">comment_star_id </text>
<text text-anchor="start" x="496.5028" y="-951.9" font-family="Arial" font-size="14.00" fill="#666666">[bigint]</text>
</g>
<!-- logs&#45;&gt;comment_stars -->
<g id="edge10" class="edge">
<title>logs:comment_star_id&#45;&gt;comment_stars:id</title>
<path fill="none" stroke="#000000" stroke-dasharray="5,2" d="M554.6471,-954.3059C613.2642,-938.3796 472.2292,-768.5 551.5,-768.5"/>
<polygon fill="#000000" stroke="#000000" points="554.4315,-954.3311 543.974,-951.0308 549.4657,-954.9156 544.5,-955.5 544.5,-955.5 544.5,-955.5 549.4657,-954.9156 545.026,-959.9692 554.4315,-954.3311 554.4315,-954.3311"/>
<text text-anchor="start" x="551.8245" y="-939.5" font-family="Arial" font-size="10.00" fill="#000000">Additional Relation</text>
</g>
<!-- logs&#45;&gt;comments -->
<g id="edge9" class="edge">
<title>logs:comment_id&#45;&gt;comments:id</title>
<path fill="none" stroke="#000000" stroke-dasharray="5,2" d="M554.5327,-983.9501C578.9651,-975.0257 559.6353,-929.4908 544.5,-898 533.405,-874.9154 510.595,-885.0846 499.5,-862 466.6944,-793.7438 437.7694,-521.5 513.5,-521.5"/>
<polygon fill="#000000" stroke="#000000" points="554.3828,-983.9732 543.8129,-981.0528 549.4414,-984.7366 544.5,-985.5 544.5,-985.5 544.5,-985.5 549.4414,-984.7366 545.1871,-989.9472 554.3828,-983.9732 554.3828,-983.9732"/>
<text text-anchor="start" x="551.8245" y="-995.5" font-family="Arial" font-size="10.00" fill="#000000">Additional Relation</text>
</g>
<!-- logs&#45;&gt;posts -->
<g id="edge8" class="edge">
<title>logs:post_id&#45;&gt;posts:id</title>
<path fill="none" stroke="#000000" stroke-dasharray="5,2" d="M368.2093,-1014.3842C330.8222,-1005.2615 358.8308,-942.1644 378.5,-898 388.2306,-876.1513 407.7578,-883.3695 418.5,-862 477.6385,-744.3557 363.8279,-274.5 495.5,-274.5"/>
<polygon fill="#000000" stroke="#000000" points="368.5583,-1014.4219 378.0149,-1019.9738 373.5291,-1014.961 378.5,-1015.5 378.5,-1015.5 378.5,-1015.5 373.5291,-1014.961 378.9851,-1011.0262 368.5583,-1014.4219 368.5583,-1014.4219"/>
<text text-anchor="start" x="288.8245" y="-1025.5" font-family="Arial" font-size="10.00" fill="#000000">Additional Relation</text>
</g>
<!-- logs&#45;&gt;users -->
<g id="edge7" class="edge">
<title>logs:user_id&#45;&gt;users:id</title>
<path fill="none" stroke="#000000" stroke-dasharray="5,2" d="M373.4768,-1036.673C350.9488,-956.869 339.8614,-358.9079 443.5,-187 497.9818,-96.6297 536.9772,-57.5 642.5,-57.5"/>
<polygon fill="#000000" stroke="#000000" points="373.554,-1036.8088 374.5889,-1047.7257 376.027,-1041.1544 378.5,-1045.5 378.5,-1045.5 378.5,-1045.5 376.027,-1041.1544 382.4111,-1043.2743 373.554,-1036.8088 373.554,-1036.8088"/>
<text text-anchor="start" x="320.524" y="-1055.5" font-family="Arial" font-size="10.00" fill="#000000">logs&#45;&gt;users</text>
</g>
<!-- post_comments -->
<g id="node6" class="node">
<title>post_comments</title>
<polygon fill="#efefef" stroke="transparent" points="968.5,-1000.5 968.5,-1035.5 1156.5,-1035.5 1156.5,-1000.5 968.5,-1000.5"/>
<polygon fill="none" stroke="#000000" points="968.5,-1000.5 968.5,-1035.5 1156.5,-1035.5 1156.5,-1000.5 968.5,-1000.5"/>
<text text-anchor="start" x="975.2619" y="-1013.3" font-family="Arial Bold" font-size="18.00" fill="#000000">post_comments</text>
<text text-anchor="start" x="1102.2879" y="-1013.3" font-family="Arial" font-size="14.00" fill="#000000"> </text>
<text text-anchor="start" x="1106.1785" y="-1013.3" font-family="Arial" font-size="14.00" fill="#666666">[VIEW]</text>
</g>
<!-- posts&#45;&gt;users -->
<g id="edge5" class="edge">
<title>posts:user_id&#45;&gt;users:id</title>
<path fill="none" stroke="#000000" d="M659.1997,-241.3735C667.1172,-232.7096 651.4908,-207.6682 649.5,-187 643.9737,-129.626 584.8604,-57.5 642.5,-57.5"/>
<polygon fill="#000000" stroke="#000000" points="659.0178,-241.432 648.1194,-240.217 654.2589,-242.966 649.5,-244.5 649.5,-244.5 649.5,-244.5 654.2589,-242.966 650.8806,-248.783 659.0178,-241.432 659.0178,-241.432"/>
<text text-anchor="start" x="656.445" y="-254.5" font-family="Arial" font-size="10.00" fill="#000000">FOREIGN KEY (user_id) REFERENCES users (id)</text>
</g>
<!-- user_options -->
<g id="node8" class="node">
<title>user_options</title>
<polygon fill="#efefef" stroke="transparent" points="849.5,-274.5 849.5,-309.5 1063.5,-309.5 1063.5,-274.5 849.5,-274.5"/>
<polygon fill="none" stroke="#000000" points="849.5,-274.5 849.5,-309.5 1063.5,-309.5 1063.5,-274.5 849.5,-274.5"/>
<text text-anchor="start" x="856.3571" y="-287.3" font-family="Arial Bold" font-size="18.00" fill="#000000">user_options</text>
<text text-anchor="start" x="959.3891" y="-287.3" font-family="Arial" font-size="14.00" fill="#000000"> </text>
<text text-anchor="start" x="963.2797" y="-287.3" font-family="Arial" font-size="14.00" fill="#666666">[BASE TABLE]</text>
<polygon fill="none" stroke="#000000" points="849.5,-244.5 849.5,-274.5 1063.5,-274.5 1063.5,-244.5 849.5,-244.5"/>
<text text-anchor="start" x="856.5" y="-255.9" font-family="Arial" font-size="14.00" fill="#000000">user_id </text>
<text text-anchor="start" x="906.2882" y="-255.9" font-family="Arial" font-size="14.00" fill="#666666">[int]</text>
</g>
<!-- user_options&#45;&gt;users -->
<g id="edge6" class="edge">
<title>user_options:user_id&#45;&gt;users:id</title>
<path fill="none" stroke="#000000" d="M839.2029,-258.5084C767.3586,-243.2695 886.4024,-57.5 797.5,-57.5"/>
<polygon fill="#000000" stroke="#000000" points="839.546,-258.5414 849.0686,-263.9793 844.523,-259.0207 849.5,-259.5 849.5,-259.5 849.5,-259.5 844.523,-259.0207 849.9314,-255.0207 839.546,-258.5414 839.546,-258.5414"/>
<text text-anchor="start" x="616.445" y="-269.5" font-family="Arial" font-size="10.00" fill="#000000">FOREIGN KEY (user_id) REFERENCES users (id)</text>
</g>
</g>
</svg>
