<?xml version="1.0" encoding="UTF-8" standalone="no"?>
<!DOCTYPE svg PUBLIC "-//W3C//DTD SVG 1.1//EN"
 "http://www.w3.org/Graphics/SVG/1.1/DTD/svg11.dtd">
<!-- Generated by graphviz version 2.40.1 (20161225.0304)
 -->
<!-- Title: user_options Pages: 1 -->
<svg width="401pt" height="352pt"
 viewBox="0.00 0.00 401.00 352.00" xmlns="http://www.w3.org/2000/svg" xmlns:xlink="http://www.w3.org/1999/xlink">
<g id="graph0" class="graph" transform="scale(1 1) rotate(0) translate(4 348)">
<title>user_options</title>
<polygon fill="#ffffff" stroke="transparent" points="-4,4 -4,-348 397,-348 397,4 -4,4"/>
<!-- user_options -->
<g id="node1" class="node">
<title>user_options</title>
<polygon fill="#efefef" stroke="transparent" points="133,-262.5 133,-297.5 347,-297.5 347,-262.5 133,-262.5"/>
<polygon fill="none" stroke="#000000" points="133,-262.5 133,-297.5 347,-297.5 347,-262.5 133,-262.5"/>
<text text-anchor="start" x="139.8571" y="-275.3" font-family="Arial Bold" font-size="18.00" fill="#000000">user_options</text>
<text text-anchor="start" x="242.8891" y="-275.3" font-family="Arial" font-size="14.00" fill="#000000"> </text>
<text text-anchor="start" x="246.7797" y="-275.3" font-family="Arial" font-size="14.00" fill="#666666">[BASE TABLE]</text>
<polygon fill="none" stroke="#000000" points="133,-232.5 133,-262.5 347,-262.5 347,-232.5 133,-232.5"/>
<text text-anchor="start" x="140" y="-243.9" font-family="Arial" font-size="14.00" fill="#000000">user_id </text>
<text text-anchor="start" x="189.7882" y="-243.9" font-family="Arial" font-size="14.00" fill="#666666">[int]</text>
<polygon fill="none" stroke="#000000" stroke-width="3" points="131.5,-231.5 131.5,-299.5 348.5,-299.5 348.5,-231.5 131.5,-231.5"/>
</g>
<!-- users -->
<g id="node2" class="node">
<title>users</title>
<polygon fill="#efefef" stroke="transparent" points="162,-72.5 162,-107.5 317,-107.5 317,-72.5 162,-72.5"/>
<polygon fill="none" stroke="#000000" points="162,-72.5 162,-107.5 317,-107.5 317,-72.5 162,-72.5"/>
<text text-anchor="start" x="168.8708" y="-85.3" font-family="Arial Bold" font-size="18.00" fill="#000000">users</text>
<text text-anchor="start" x="212.8754" y="-85.3" font-family="Arial" font-size="14.00" fill="#000000"> </text>
<text text-anchor="start" x="216.766" y="-85.3" font-family="Arial" font-size="14.00" fill="#666666">[BASE TABLE]</text>
<polygon fill="none" stroke="#000000" points="162,-42.5 162,-72.5 317,-72.5 317,-42.5 162,-42.5"/>
<text text-anchor="start" x="169" y="-53.9" font-family="Arial" font-size="14.00" fill="#000000">id </text>
<text text-anchor="start" x="183.7798" y="-53.9" font-family="Arial" font-size="14.00" fill="#666666">[int]</text>
</g>
<!-- user_options&#45;&gt;users -->
<g id="edge1" class="edge">
<title>user_options:user_id&#45;&gt;users:id</title>
<path fill="none" stroke="#000000" d="M240.9278,-222.4187C248.475,-184.5051 299.9522,-193.8679 317,-151 332.3562,-112.3859 358.5556,-57.5 317,-57.5"/>
<polygon fill="#000000" stroke="#000000" points="240.9165,-222.5421 235.5189,-232.0876 240.4583,-227.521 240,-232.5 240,-232.5 240,-232.5 240.4583,-227.521 244.4811,-232.9124 240.9165,-222.5421 240.9165,-222.5421"/>
<text text-anchor="start" x="6.945" y="-242.5" font-family="Arial" font-size="10.00" fill="#000000">FOREIGN KEY (user_id) REFERENCES users (id)</text>
</g>
</g>
</svg>
