<?xml version="1.0" encoding="UTF-8" standalone="no"?>
<!DOCTYPE svg PUBLIC "-//W3C//DTD SVG 1.1//EN"
 "http://www.w3.org/Graphics/SVG/1.1/DTD/svg11.dtd">
<!-- Generated by graphviz version 12.1.2 (20240928.0832)
 -->
<!-- Title: user_options Pages: 1 -->
<svg width="410pt" height="356pt"
 viewBox="0.00 0.00 409.60 355.60" xmlns="http://www.w3.org/2000/svg" xmlns:xlink="http://www.w3.org/1999/xlink">
<g id="graph0" class="graph" transform="scale(1 1) rotate(0) translate(4 351.6)">
<title>user_options</title>
<polygon fill="white" stroke="none" points="-4,4 -4,-351.6 405.6,-351.6 405.6,4 -4,4"/>
<!-- user_options -->
<g id="node1" class="node">
<title>user_options</title>
<polygon fill="#efefef" stroke="none" points="124.92,-265.8 124.92,-301.4 355.4,-301.4 355.4,-265.8 124.92,-265.8"/>
<polygon fill="none" stroke="black" points="124.92,-265.8 124.92,-301.4 355.4,-301.4 355.4,-265.8 124.92,-265.8"/>
<text text-anchor="start" x="131.92" y="-279.2" font-family="Arial Bold" font-size="18.00">user_options</text>
<text text-anchor="start" x="223.91" y="-279.2" font-family="Arial" font-size="14.00">    </text>
<text text-anchor="start" x="255.03" y="-279.2" font-family="Arial" font-size="14.00" fill="#666666">[BASE TABLE]</text>
<polygon fill="none" stroke="black" points="124.92,-235 124.92,-265.8 355.4,-265.8 355.4,-235 124.92,-235"/>
<text text-anchor="start" x="131.92" y="-247.2" font-family="Arial" font-size="14.00">user_id </text>
<text text-anchor="start" x="181.72" y="-247.2" font-family="Arial" font-size="14.00" fill="#666666">[int]</text>
<polygon fill="none" stroke="black" stroke-width="3" points="123.42,-233.5 123.42,-302.9 356.9,-302.9 356.9,-233.5 123.42,-233.5"/>
</g>
<!-- users -->
<g id="node2" class="node">
<title>users</title>
<polygon fill="#efefef" stroke="none" points="152.42,-74 152.42,-109.6 327.9,-109.6 327.9,-74 152.42,-74"/>
<polygon fill="none" stroke="black" points="152.42,-74 152.42,-109.6 327.9,-109.6 327.9,-74 152.42,-74"/>
<text text-anchor="start" x="159.42" y="-87.4" font-family="Arial Bold" font-size="18.00">users</text>
<text text-anchor="start" x="196.41" y="-87.4" font-family="Arial" font-size="14.00">    </text>
<text text-anchor="start" x="227.53" y="-87.4" font-family="Arial" font-size="14.00" fill="#666666">[BASE TABLE]</text>
<polygon fill="none" stroke="black" points="152.42,-43.2 152.42,-74 327.9,-74 327.9,-43.2 152.42,-43.2"/>
<text text-anchor="start" x="159.42" y="-55.4" font-family="Arial" font-size="14.00">id    </text>
<text text-anchor="start" x="201.43" y="-55.4" font-family="Arial" font-size="14.00" fill="#666666">[int]</text>
</g>
<!-- user_options&#45;&gt;users -->
<g id="edge1" class="edge">
<title>user_options:user_id&#45;&gt;users:id</title>
<path fill="none" stroke="black" d="M241.01,-223.77C250.64,-170.36 339.62,-209.36 371.1,-152.8 394.79,-110.24 405.41,-77.78 371.1,-43.2 330.1,-1.89 240.16,16 240.16,-42.2"/>
<polygon fill="black" stroke="black" points="241.01,-223.7 235.7,-233.29 240.57,-229.02 240.21,-233.33 240.21,-233.33 240.21,-233.33 240.57,-229.02 244.67,-234.04 241.01,-223.7"/>
<text text-anchor="start" x="7" y="-244" font-family="Arial" font-size="10.00">FOREIGN KEY (user_id) REFERENCES users (id)</text>
</g>
</g>
</svg>
