<?xml version="1.0" encoding="UTF-8" standalone="no"?>
<!DOCTYPE svg PUBLIC "-//W3C//DTD SVG 1.1//EN"
 "http://www.w3.org/Graphics/SVG/1.1/DTD/svg11.dtd">
<!-- Generated by graphviz version 2.40.1 (20161225.0304)
 -->
<!-- Title: comment_stars Pages: 1 -->
<svg width="1013pt" height="1049pt"
 viewBox="0.00 0.00 1013.00 1049.00" xmlns="http://www.w3.org/2000/svg" xmlns:xlink="http://www.w3.org/1999/xlink">
<g id="graph0" class="graph" transform="scale(1 1) rotate(0) translate(4 1045)">
<title>comment_stars</title>
<polygon fill="#ffffff" stroke="transparent" points="-4,4 -4,-1045 1009,-1045 1009,4 -4,4"/>
<!-- comment_stars -->
<g id="node1" class="node">
<title>comment_stars</title>
<polygon fill="#efefef" stroke="transparent" points="455,-592.5 455,-627.5 719,-627.5 719,-592.5 455,-592.5"/>
<polygon fill="none" stroke="#000000" points="455,-592.5 455,-627.5 719,-627.5 719,-592.5 455,-592.5"/>
<text text-anchor="start" x="461.71" y="-605.3" font-family="Arial Bold" font-size="18.00" fill="#000000">comment_stars</text>
<text text-anchor="start" x="584.722" y="-605.3" font-family="Arial" font-size="14.00" fill="#000000">    </text>
<text text-anchor="start" x="618.9268" y="-605.3" font-family="Arial" font-size="14.00" fill="#666666">[BASE TABLE]</text>
<polygon fill="none" stroke="#000000" points="455,-562.5 455,-592.5 719,-592.5 719,-562.5 455,-562.5"/>
<text text-anchor="start" x="462" y="-573.9" font-family="Arial" font-size="14.00" fill="#000000">id </text>
<text text-anchor="start" x="476.7798" y="-573.9" font-family="Arial" font-size="14.00" fill="#666666">[bigint(20)]</text>
<polygon fill="none" stroke="#000000" points="455,-532.5 455,-562.5 719,-562.5 719,-532.5 455,-532.5"/>
<text text-anchor="start" x="462" y="-543.9" font-family="Arial" font-size="14.00" fill="#000000">user_id </text>
<text text-anchor="start" x="511.7882" y="-543.9" font-family="Arial" font-size="14.00" fill="#666666">[int(11)]</text>
<polygon fill="none" stroke="#000000" points="455,-502.5 455,-532.5 719,-532.5 719,-502.5 455,-502.5"/>
<text text-anchor="start" x="462" y="-513.9" font-family="Arial" font-size="14.00" fill="#000000">comment_post_id </text>
<text text-anchor="start" x="576.3604" y="-513.9" font-family="Arial" font-size="14.00" fill="#666666">[bigint(20)]</text>
<polygon fill="none" stroke="#000000" points="455,-472.5 455,-502.5 719,-502.5 719,-472.5 455,-472.5"/>
<text text-anchor="start" x="462" y="-483.9" font-family="Arial" font-size="14.00" fill="#000000">comment_user_id </text>
<text text-anchor="start" x="577.1304" y="-483.9" font-family="Arial" font-size="14.00" fill="#666666">[int(11)]</text>
<polygon fill="none" stroke="#000000" points="455,-442.5 455,-472.5 719,-472.5 719,-442.5 455,-442.5"/>
<text text-anchor="start" x="462" y="-453.9" font-family="Arial" font-size="14.00" fill="#000000">created </text>
<text text-anchor="start" x="512.5722" y="-453.9" font-family="Arial" font-size="14.00" fill="#666666">[timestamp]</text>
<polygon fill="none" stroke="#000000" points="455,-412.5 455,-442.5 719,-442.5 719,-412.5 455,-412.5"/>
<text text-anchor="start" x="462" y="-423.9" font-family="Arial" font-size="14.00" fill="#000000">updated </text>
<text text-anchor="start" x="516.4768" y="-423.9" font-family="Arial" font-size="14.00" fill="#666666">[timestamp]</text>
<polygon fill="none" stroke="#000000" stroke-width="3" points="453.5,-411.5 453.5,-629.5 720.5,-629.5 720.5,-411.5 453.5,-411.5"/>
</g>
<!-- comments -->
<g id="node3" class="node">
<title>comments</title>
<polygon fill="#efefef" stroke="transparent" points="319,-252.5 319,-287.5 543,-287.5 543,-252.5 319,-252.5"/>
<polygon fill="none" stroke="#000000" points="319,-252.5 319,-287.5 543,-287.5 543,-252.5 319,-252.5"/>
<text text-anchor="start" x="325.7134" y="-265.3" font-family="Arial Bold" font-size="18.00" fill="#000000">comments</text>
<text text-anchor="start" x="408.7186" y="-265.3" font-family="Arial" font-size="14.00" fill="#000000">    </text>
<text text-anchor="start" x="442.9234" y="-265.3" font-family="Arial" font-size="14.00" fill="#666666">[BASE TABLE]</text>
<polygon fill="none" stroke="#000000" points="319,-222.5 319,-252.5 543,-252.5 543,-222.5 319,-222.5"/>
<text text-anchor="start" x="326" y="-233.9" font-family="Arial" font-size="14.00" fill="#000000">id    </text>
<text text-anchor="start" x="371.094" y="-233.9" font-family="Arial" font-size="14.00" fill="#666666">[bigint(20)]</text>
<polygon fill="none" stroke="#000000" points="319,-192.5 319,-222.5 543,-222.5 543,-192.5 319,-192.5"/>
<text text-anchor="start" x="326" y="-203.9" font-family="Arial" font-size="14.00" fill="#000000">post_id    </text>
<text text-anchor="start" x="405.3324" y="-203.9" font-family="Arial" font-size="14.00" fill="#666666">[bigint(20)]</text>
<polygon fill="none" stroke="#000000" points="319,-162.5 319,-192.5 543,-192.5 543,-162.5 319,-162.5"/>
<text text-anchor="start" x="326" y="-173.9" font-family="Arial" font-size="14.00" fill="#000000">user_id    </text>
<text text-anchor="start" x="406.1024" y="-173.9" font-family="Arial" font-size="14.00" fill="#666666">[int(11)]</text>
<polygon fill="none" stroke="#000000" points="319,-132.5 319,-162.5 543,-162.5 543,-132.5 319,-132.5"/>
<text text-anchor="start" x="326" y="-143.9" font-family="Arial" font-size="14.00" fill="#000000">comment    </text>
<text text-anchor="start" x="417.7644" y="-143.9" font-family="Arial" font-size="14.00" fill="#666666">[text]</text>
<polygon fill="none" stroke="#000000" points="319,-102.5 319,-132.5 543,-132.5 543,-102.5 319,-102.5"/>
<text text-anchor="start" x="326" y="-113.9" font-family="Arial" font-size="14.00" fill="#000000">post_id_desc    </text>
<text text-anchor="start" x="442.6802" y="-113.9" font-family="Arial" font-size="14.00" fill="#666666">[bigint(20)]</text>
<polygon fill="none" stroke="#000000" points="319,-72.5 319,-102.5 543,-102.5 543,-72.5 319,-72.5"/>
<text text-anchor="start" x="326" y="-83.9" font-family="Arial" font-size="14.00" fill="#000000">created    </text>
<text text-anchor="start" x="406.8864" y="-83.9" font-family="Arial" font-size="14.00" fill="#666666">[datetime]</text>
<polygon fill="none" stroke="#000000" points="319,-42.5 319,-72.5 543,-72.5 543,-42.5 319,-42.5"/>
<text text-anchor="start" x="326" y="-53.9" font-family="Arial" font-size="14.00" fill="#000000">updated    </text>
<text text-anchor="start" x="410.791" y="-53.9" font-family="Arial" font-size="14.00" fill="#666666">[datetime]</text>
</g>
<!-- comment_stars&#45;&gt;comments -->
<g id="edge2" class="edge">
<title>comment_stars:comment_post_id&#45;&gt;comments:post_id</title>
<path fill="none" stroke="#000000" d="M444.8773,-516.6699C391.3722,-507.2311 419.7557,-419.4975 455,-367 478.5538,-331.9158 519.4462,-366.0842 543,-331 573.5945,-285.4285 597.8889,-207.5 543,-207.5"/>
<polygon fill="#000000" stroke="#000000" points="445.0335,-516.6827 454.6322,-521.9849 450.0167,-517.0913 455,-517.5 455,-517.5 455,-517.5 450.0167,-517.0913 455.3678,-513.0151 445.0335,-516.6827 445.0335,-516.6827"/>
<text text-anchor="start" x="7.1435" y="-527.5" font-family="Arial" font-size="10.00" fill="#000000">FOREIGN KEY (comment_post_id, comment_user_id) REFERENCES comments (post_id, user_id)</text>
</g>
<!-- users -->
<g id="node4" class="node">
<title>users</title>
<polygon fill="#efefef" stroke="transparent" points="648,-237.5 648,-272.5 837,-272.5 837,-237.5 648,-237.5"/>
<polygon fill="none" stroke="#000000" points="648,-237.5 648,-272.5 837,-272.5 837,-237.5 648,-237.5"/>
<text text-anchor="start" x="656.7137" y="-250.3" font-family="Arial Bold" font-size="18.00" fill="#000000">users</text>
<text text-anchor="start" x="700.7183" y="-250.3" font-family="Arial" font-size="14.00" fill="#000000">    </text>
<text text-anchor="start" x="734.9231" y="-250.3" font-family="Arial" font-size="14.00" fill="#666666">[BASE TABLE]</text>
<polygon fill="none" stroke="#000000" points="648,-207.5 648,-237.5 837,-237.5 837,-207.5 648,-207.5"/>
<text text-anchor="start" x="655" y="-218.9" font-family="Arial" font-size="14.00" fill="#000000">id    </text>
<text text-anchor="start" x="700.094" y="-218.9" font-family="Arial" font-size="14.00" fill="#666666">[int(11)]</text>
<polygon fill="none" stroke="#000000" points="648,-177.5 648,-207.5 837,-207.5 837,-177.5 648,-177.5"/>
<text text-anchor="start" x="654.6122" y="-188.9" font-family="Arial" font-size="14.00" fill="#000000">username    </text>
<text text-anchor="start" x="751.0512" y="-188.9" font-family="Arial" font-size="14.00" fill="#666666">[varchar(50)]</text>
<polygon fill="none" stroke="#000000" points="648,-147.5 648,-177.5 837,-177.5 837,-147.5 648,-147.5"/>
<text text-anchor="start" x="655" y="-158.9" font-family="Arial" font-size="14.00" fill="#000000">password    </text>
<text text-anchor="start" x="749.1024" y="-158.9" font-family="Arial" font-size="14.00" fill="#666666">[varchar(50)]</text>
<polygon fill="none" stroke="#000000" points="648,-117.5 648,-147.5 837,-147.5 837,-117.5 648,-117.5"/>
<text text-anchor="start" x="655" y="-128.9" font-family="Arial" font-size="14.00" fill="#000000">email    </text>
<text text-anchor="start" x="722.6438" y="-128.9" font-family="Arial" font-size="14.00" fill="#666666">[varchar(355)]</text>
<polygon fill="none" stroke="#000000" points="648,-87.5 648,-117.5 837,-117.5 837,-87.5 648,-87.5"/>
<text text-anchor="start" x="655" y="-98.9" font-family="Arial" font-size="14.00" fill="#000000">created    </text>
<text text-anchor="start" x="735.8864" y="-98.9" font-family="Arial" font-size="14.00" fill="#666666">[timestamp]</text>
<polygon fill="none" stroke="#000000" points="648,-57.5 648,-87.5 837,-87.5 837,-57.5 648,-57.5"/>
<text text-anchor="start" x="655" y="-68.9" font-family="Arial" font-size="14.00" fill="#000000">updated    </text>
<text text-anchor="start" x="739.791" y="-68.9" font-family="Arial" font-size="14.00" fill="#666666">[timestamp]</text>
</g>
<!-- comment_stars&#45;&gt;users -->
<g id="edge3" class="edge">
<title>comment_stars:comment_user_id&#45;&gt;users:id</title>
<path fill="none" stroke="#000000" d="M729.1011,-486.4536C768.4846,-477.3804 741.7241,-411.3019 719,-367 701.2677,-332.4298 665.7323,-350.5702 648,-316 629.0341,-279.0249 606.4444,-222.5 648,-222.5"/>
<polygon fill="#000000" stroke="#000000" points="728.9468,-486.4695 718.5363,-483.024 723.9734,-486.9848 719,-487.5 719,-487.5 719,-487.5 723.9734,-486.9848 719.4637,-491.976 728.9468,-486.4695 728.9468,-486.4695"/>
<text text-anchor="start" x="725.6085" y="-497.5" font-family="Arial" font-size="10.00" fill="#000000">FOREIGN KEY (comment_user_id) REFERENCES users (id)</text>
</g>
<!-- logs -->
<g id="node2" class="node">
<title>logs</title>
<polygon fill="#efefef" stroke="transparent" points="476,-962.5 476,-997.5 697,-997.5 697,-962.5 476,-962.5"/>
<polygon fill="none" stroke="#000000" points="476,-962.5 476,-997.5 697,-997.5 697,-962.5 476,-962.5"/>
<text text-anchor="start" x="506.2127" y="-975.3" font-family="Arial Bold" font-size="18.00" fill="#000000">logs</text>
<text text-anchor="start" x="539.2193" y="-975.3" font-family="Arial" font-size="14.00" fill="#000000">    </text>
<text text-anchor="start" x="573.4241" y="-975.3" font-family="Arial" font-size="14.00" fill="#666666">[BASE TABLE]</text>
<polygon fill="none" stroke="#000000" points="476,-932.5 476,-962.5 697,-962.5 697,-932.5 476,-932.5"/>
<text text-anchor="start" x="483" y="-943.9" font-family="Arial" font-size="14.00" fill="#000000">id    </text>
<text text-anchor="start" x="528.094" y="-943.9" font-family="Arial" font-size="14.00" fill="#666666">[bigint(20)]</text>
<polygon fill="none" stroke="#000000" points="476,-902.5 476,-932.5 697,-932.5 697,-902.5 476,-902.5"/>
<text text-anchor="start" x="483" y="-913.9" font-family="Arial" font-size="14.00" fill="#000000">user_id    </text>
<text text-anchor="start" x="563.1024" y="-913.9" font-family="Arial" font-size="14.00" fill="#666666">[int(11)]</text>
<polygon fill="none" stroke="#000000" points="476,-872.5 476,-902.5 697,-902.5 697,-872.5 476,-872.5"/>
<text text-anchor="start" x="483" y="-883.9" font-family="Arial" font-size="14.00" fill="#000000">post_id    </text>
<text text-anchor="start" x="562.3324" y="-883.9" font-family="Arial" font-size="14.00" fill="#666666">[bigint(20)]</text>
<polygon fill="none" stroke="#000000" points="476,-842.5 476,-872.5 697,-872.5 697,-842.5 476,-842.5"/>
<text text-anchor="start" x="483" y="-853.9" font-family="Arial" font-size="14.00" fill="#000000">comment_id    </text>
<text text-anchor="start" x="593.4362" y="-853.9" font-family="Arial" font-size="14.00" fill="#666666">[bigint(20)]</text>
<polygon fill="none" stroke="#000000" points="476,-812.5 476,-842.5 697,-842.5 697,-812.5 476,-812.5"/>
<text text-anchor="start" x="482.6641" y="-823.9" font-family="Arial" font-size="14.00" fill="#000000">comment_star_id    </text>
<text text-anchor="start" x="624.2167" y="-823.9" font-family="Arial" font-size="14.00" fill="#666666">[bigint(20)]</text>
<polygon fill="none" stroke="#000000" points="476,-782.5 476,-812.5 697,-812.5 697,-782.5 476,-782.5"/>
<text text-anchor="start" x="483" y="-793.9" font-family="Arial" font-size="14.00" fill="#000000">payload    </text>
<text text-anchor="start" x="566.2244" y="-793.9" font-family="Arial" font-size="14.00" fill="#666666">[text]</text>
<polygon fill="none" stroke="#000000" points="476,-752.5 476,-782.5 697,-782.5 697,-752.5 476,-752.5"/>
<text text-anchor="start" x="483" y="-763.9" font-family="Arial" font-size="14.00" fill="#000000">created    </text>
<text text-anchor="start" x="563.8864" y="-763.9" font-family="Arial" font-size="14.00" fill="#666666">[datetime]</text>
</g>
<!-- logs&#45;&gt;comment_stars -->
<g id="edge1" class="edge">
<title>logs:comment_star_id&#45;&gt;comment_stars:id</title>
<path fill="none" stroke="#000000" stroke-dasharray="5,2" d="M706.9912,-826.3843C746.595,-816.7282 728.7041,-746.7693 697,-710 625.9917,-627.647 526.0083,-756.353 455,-674 426.9929,-641.5183 412.1111,-577.5 455,-577.5"/>
<polygon fill="#000000" stroke="#000000" points="706.9382,-826.3902 696.5006,-823.0278 701.9691,-826.9451 697,-827.5 697,-827.5 697,-827.5 701.9691,-826.9451 697.4994,-831.9722 706.9382,-826.3902 706.9382,-826.3902"/>
<text text-anchor="start" x="704.3245" y="-837.5" font-family="Arial" font-size="10.00" fill="#000000">Additional Relation</text>
</g>
</g>
</svg>
