<?xml version="1.0" encoding="UTF-8" standalone="no"?>
<!DOCTYPE svg PUBLIC "-//W3C//DTD SVG 1.1//EN"
 "http://www.w3.org/Graphics/SVG/1.1/DTD/svg11.dtd">
<!-- Generated by graphviz version 12.1.2 (20240928.0832)
 -->
<!-- Title: comment_stars Pages: 1 -->
<svg width="1000pt" height="1068pt"
 viewBox="0.00 0.00 1000.12 1068.00" xmlns="http://www.w3.org/2000/svg" xmlns:xlink="http://www.w3.org/1999/xlink">
<g id="graph0" class="graph" transform="scale(1 1) rotate(0) translate(4 1064)">
<title>comment_stars</title>
<polygon fill="white" stroke="none" points="-4,4 -4,-1064 996.12,-1064 996.12,4 -4,4"/>
<!-- comment_stars -->
<g id="node1" class="node">
<title>comment_stars</title>
<polygon fill="#efefef" stroke="none" points="456.82,-604.6 456.82,-640.2 704.28,-640.2 704.28,-604.6 456.82,-604.6"/>
<polygon fill="none" stroke="black" points="456.82,-604.6 456.82,-640.2 704.28,-640.2 704.28,-604.6 456.82,-604.6"/>
<text text-anchor="start" x="463.82" y="-618" font-family="Arial Bold" font-size="18.00">comment_stars</text>
<text text-anchor="start" x="572.79" y="-618" font-family="Arial" font-size="14.00">    </text>
<text text-anchor="start" x="603.91" y="-618" font-family="Arial" font-size="14.00" fill="#666666">[BASE TABLE]</text>
<polygon fill="none" stroke="black" points="456.82,-573.8 456.82,-604.6 704.28,-604.6 704.28,-573.8 456.82,-573.8"/>
<text text-anchor="start" x="463.82" y="-586" font-family="Arial" font-size="14.00">id </text>
<text text-anchor="start" x="478.6" y="-586" font-family="Arial" font-size="14.00" fill="#666666">[bigint(20)]</text>
<polygon fill="none" stroke="black" points="456.82,-543 456.82,-573.8 704.28,-573.8 704.28,-543 456.82,-543"/>
<text text-anchor="start" x="463.82" y="-555.2" font-family="Arial" font-size="14.00">user_id </text>
<text text-anchor="start" x="513.62" y="-555.2" font-family="Arial" font-size="14.00" fill="#666666">[int(11)]</text>
<polygon fill="none" stroke="black" points="456.82,-512.2 456.82,-543 704.28,-543 704.28,-512.2 456.82,-512.2"/>
<text text-anchor="start" x="463.82" y="-524.4" font-family="Arial" font-size="14.00">comment_post_id </text>
<text text-anchor="start" x="578.21" y="-524.4" font-family="Arial" font-size="14.00" fill="#666666">[bigint(20)]</text>
<polygon fill="none" stroke="black" points="456.82,-481.4 456.82,-512.2 704.28,-512.2 704.28,-481.4 456.82,-481.4"/>
<text text-anchor="start" x="463.82" y="-493.6" font-family="Arial" font-size="14.00">comment_user_id </text>
<text text-anchor="start" x="578.98" y="-493.6" font-family="Arial" font-size="14.00" fill="#666666">[int(11)]</text>
<polygon fill="none" stroke="black" points="456.82,-450.6 456.82,-481.4 704.28,-481.4 704.28,-450.6 456.82,-450.6"/>
<text text-anchor="start" x="463.82" y="-462.8" font-family="Arial" font-size="14.00">created </text>
<text text-anchor="start" x="514.4" y="-462.8" font-family="Arial" font-size="14.00" fill="#666666">[timestamp]</text>
<polygon fill="none" stroke="black" points="456.82,-419.8 456.82,-450.6 704.28,-450.6 704.28,-419.8 456.82,-419.8"/>
<text text-anchor="start" x="463.82" y="-432" font-family="Arial" font-size="14.00">updated </text>
<text text-anchor="start" x="518.31" y="-432" font-family="Arial" font-size="14.00" fill="#666666">[timestamp]</text>
<polygon fill="none" stroke="black" stroke-width="3" points="455.32,-418.3 455.32,-641.7 705.78,-641.7 705.78,-418.3 455.32,-418.3"/>
</g>
<!-- comments -->
<g id="node3" class="node">
<title>comments</title>
<polygon fill="#efefef" stroke="none" points="322.31,-258.8 322.31,-294.4 534.79,-294.4 534.79,-258.8 322.31,-258.8"/>
<polygon fill="none" stroke="black" points="322.31,-258.8 322.31,-294.4 534.79,-294.4 534.79,-258.8 322.31,-258.8"/>
<text text-anchor="start" x="329.31" y="-272.2" font-family="Arial Bold" font-size="18.00">comments</text>
<text text-anchor="start" x="403.3" y="-272.2" font-family="Arial" font-size="14.00">    </text>
<text text-anchor="start" x="434.41" y="-272.2" font-family="Arial" font-size="14.00" fill="#666666">[BASE TABLE]</text>
<polygon fill="none" stroke="black" points="322.31,-228 322.31,-258.8 534.79,-258.8 534.79,-228 322.31,-228"/>
<text text-anchor="start" x="329.31" y="-240.2" font-family="Arial" font-size="14.00">id    </text>
<text text-anchor="start" x="371.32" y="-240.2" font-family="Arial" font-size="14.00" fill="#666666">[bigint(20)]</text>
<polygon fill="none" stroke="black" points="322.31,-197.2 322.31,-228 534.79,-228 534.79,-197.2 322.31,-197.2"/>
<text text-anchor="start" x="329.31" y="-209.4" font-family="Arial" font-size="14.00">post_id    </text>
<text text-anchor="start" x="405.57" y="-209.4" font-family="Arial" font-size="14.00" fill="#666666">[bigint(20)]</text>
<polygon fill="none" stroke="black" points="322.31,-166.4 322.31,-197.2 534.79,-197.2 534.79,-166.4 322.31,-166.4"/>
<text text-anchor="start" x="329.31" y="-178.6" font-family="Arial" font-size="14.00">user_id    </text>
<text text-anchor="start" x="406.35" y="-178.6" font-family="Arial" font-size="14.00" fill="#666666">[int(11)]</text>
<polygon fill="none" stroke="black" points="322.31,-135.6 322.31,-166.4 534.79,-166.4 534.79,-135.6 322.31,-135.6"/>
<text text-anchor="start" x="329.31" y="-147.8" font-family="Arial" font-size="14.00">comment    </text>
<text text-anchor="start" x="418" y="-147.8" font-family="Arial" font-size="14.00" fill="#666666">[text]</text>
<polygon fill="none" stroke="black" points="322.31,-104.8 322.31,-135.6 534.79,-135.6 534.79,-104.8 322.31,-104.8"/>
<text text-anchor="start" x="329.31" y="-117" font-family="Arial" font-size="14.00">post_id_desc    </text>
<text text-anchor="start" x="442.93" y="-117" font-family="Arial" font-size="14.00" fill="#666666">[bigint(20)]</text>
<polygon fill="none" stroke="black" points="322.31,-74 322.31,-104.8 534.79,-104.8 534.79,-74 322.31,-74"/>
<text text-anchor="start" x="329.31" y="-86.2" font-family="Arial" font-size="14.00">created    </text>
<text text-anchor="start" x="407.12" y="-86.2" font-family="Arial" font-size="14.00" fill="#666666">[datetime]</text>
<polygon fill="none" stroke="black" points="322.31,-43.2 322.31,-74 534.79,-74 534.79,-43.2 322.31,-43.2"/>
<text text-anchor="start" x="329.31" y="-55.4" font-family="Arial" font-size="14.00">updated    </text>
<text text-anchor="start" x="411.03" y="-55.4" font-family="Arial" font-size="14.00" fill="#666666">[datetime]</text>
</g>
<!-- comment_stars&#45;&gt;comments -->
<g id="edge2" class="edge">
<title>comment_stars:comment_post_id&#45;&gt;comments:post_id</title>
<path fill="none" stroke="black" d="M445.48,-526.76C390.93,-517.17 421.77,-427.99 456.82,-373.6 477.49,-341.51 514.09,-369.67 534.79,-337.6 564.91,-290.92 591.34,-212.6 535.79,-212.6"/>
<polygon fill="black" stroke="black" points="445.52,-526.76 455.12,-532.06 450.83,-527.19 455.15,-527.55 455.15,-527.55 455.15,-527.55 450.83,-527.19 455.85,-523.09 445.52,-526.76"/>
<text text-anchor="start" x="7" y="-537.6" font-family="Arial" font-size="10.00">FOREIGN KEY (comment_post_id, comment_user_id) REFERENCES comments (post_id, user_id)</text>
</g>
<!-- users -->
<g id="node4" class="node">
<title>users</title>
<polygon fill="#efefef" stroke="none" points="639.18,-243.4 639.18,-279 825.91,-279 825.91,-243.4 639.18,-243.4"/>
<polygon fill="none" stroke="black" points="639.18,-243.4 639.18,-279 825.91,-279 825.91,-243.4 639.18,-243.4"/>
<text text-anchor="start" x="651.81" y="-256.8" font-family="Arial Bold" font-size="18.00">users</text>
<text text-anchor="start" x="688.8" y="-256.8" font-family="Arial" font-size="14.00">    </text>
<text text-anchor="start" x="719.92" y="-256.8" font-family="Arial" font-size="14.00" fill="#666666">[BASE TABLE]</text>
<polygon fill="none" stroke="black" points="639.18,-212.6 639.18,-243.4 825.91,-243.4 825.91,-212.6 639.18,-212.6"/>
<text text-anchor="start" x="646.18" y="-224.8" font-family="Arial" font-size="14.00">id    </text>
<text text-anchor="start" x="688.2" y="-224.8" font-family="Arial" font-size="14.00" fill="#666666">[int(11)]</text>
<polygon fill="none" stroke="black" points="639.18,-181.8 639.18,-212.6 825.91,-212.6 825.91,-181.8 639.18,-181.8"/>
<text text-anchor="start" x="646.18" y="-194" font-family="Arial" font-size="14.00">username    </text>
<text text-anchor="start" x="739.56" y="-194" font-family="Arial" font-size="14.00" fill="#666666">[varchar(50)]</text>
<polygon fill="none" stroke="black" points="639.18,-151 639.18,-181.8 825.91,-181.8 825.91,-151 639.18,-151"/>
<text text-anchor="start" x="646.18" y="-163.2" font-family="Arial" font-size="14.00">password    </text>
<text text-anchor="start" x="737.22" y="-163.2" font-family="Arial" font-size="14.00" fill="#666666">[varchar(50)]</text>
<polygon fill="none" stroke="black" points="639.18,-120.2 639.18,-151 825.91,-151 825.91,-120.2 639.18,-120.2"/>
<text text-anchor="start" x="646.18" y="-132.4" font-family="Arial" font-size="14.00">email    </text>
<text text-anchor="start" x="710.76" y="-132.4" font-family="Arial" font-size="14.00" fill="#666666">[varchar(355)]</text>
<polygon fill="none" stroke="black" points="639.18,-89.4 639.18,-120.2 825.91,-120.2 825.91,-89.4 639.18,-89.4"/>
<text text-anchor="start" x="646.18" y="-101.6" font-family="Arial" font-size="14.00">created    </text>
<text text-anchor="start" x="724" y="-101.6" font-family="Arial" font-size="14.00" fill="#666666">[timestamp]</text>
<polygon fill="none" stroke="black" points="639.18,-58.6 639.18,-89.4 825.91,-89.4 825.91,-58.6 639.18,-58.6"/>
<text text-anchor="start" x="646.18" y="-70.8" font-family="Arial" font-size="14.00">updated    </text>
<text text-anchor="start" x="727.91" y="-70.8" font-family="Arial" font-size="14.00" fill="#666666">[timestamp]</text>
</g>
<!-- comment_stars&#45;&gt;users -->
<g id="edge3" class="edge">
<title>comment_stars:comment_user_id&#45;&gt;users:id</title>
<path fill="none" stroke="black" d="M715.58,-495.74C755.62,-486.51 726.67,-419.32 704.28,-373.6 688.07,-340.49 655.43,-355.29 639.18,-322.2 620.73,-284.62 596.31,-228 638.18,-228"/>
<polygon fill="black" stroke="black" points="715.56,-495.74 705.15,-492.29 710.25,-496.29 705.95,-496.73 705.95,-496.73 705.95,-496.73 710.25,-496.29 706.08,-501.24 715.56,-495.74"/>
<text text-anchor="start" x="712.28" y="-506.8" font-family="Arial" font-size="10.00">FOREIGN KEY (comment_user_id) REFERENCES users (id)</text>
</g>
<!-- logs -->
<g id="node2" class="node">
<title>logs</title>
<polygon fill="#efefef" stroke="none" points="471.23,-981.2 471.23,-1016.8 689.87,-1016.8 689.87,-981.2 471.23,-981.2"/>
<polygon fill="none" stroke="black" points="471.23,-981.2 471.23,-1016.8 689.87,-1016.8 689.87,-981.2 471.23,-981.2"/>
<text text-anchor="start" x="503.3" y="-994.6" font-family="Arial Bold" font-size="18.00">logs</text>
<text text-anchor="start" x="533.31" y="-994.6" font-family="Arial" font-size="14.00">    </text>
<text text-anchor="start" x="564.42" y="-994.6" font-family="Arial" font-size="14.00" fill="#666666">[BASE TABLE]</text>
<polygon fill="none" stroke="black" points="471.23,-950.4 471.23,-981.2 689.87,-981.2 689.87,-950.4 471.23,-950.4"/>
<text text-anchor="start" x="478.23" y="-962.6" font-family="Arial" font-size="14.00">id    </text>
<text text-anchor="start" x="520.24" y="-962.6" font-family="Arial" font-size="14.00" fill="#666666">[bigint(20)]</text>
<polygon fill="none" stroke="black" points="471.23,-919.6 471.23,-950.4 689.87,-950.4 689.87,-919.6 471.23,-919.6"/>
<text text-anchor="start" x="478.23" y="-931.8" font-family="Arial" font-size="14.00">user_id    </text>
<text text-anchor="start" x="555.26" y="-931.8" font-family="Arial" font-size="14.00" fill="#666666">[int(11)]</text>
<polygon fill="none" stroke="black" points="471.23,-888.8 471.23,-919.6 689.87,-919.6 689.87,-888.8 471.23,-888.8"/>
<text text-anchor="start" x="478.23" y="-901" font-family="Arial" font-size="14.00">post_id    </text>
<text text-anchor="start" x="554.49" y="-901" font-family="Arial" font-size="14.00" fill="#666666">[bigint(20)]</text>
<polygon fill="none" stroke="black" points="471.23,-858 471.23,-888.8 689.87,-888.8 689.87,-858 471.23,-858"/>
<text text-anchor="start" x="478.23" y="-870.2" font-family="Arial" font-size="14.00">comment_id    </text>
<text text-anchor="start" x="585.6" y="-870.2" font-family="Arial" font-size="14.00" fill="#666666">[bigint(20)]</text>
<polygon fill="none" stroke="black" points="471.23,-827.2 471.23,-858 689.87,-858 689.87,-827.2 471.23,-827.2"/>
<text text-anchor="start" x="478.23" y="-839.4" font-family="Arial" font-size="14.00">comment_star_id    </text>
<text text-anchor="start" x="616.72" y="-839.4" font-family="Arial" font-size="14.00" fill="#666666">[bigint(20)]</text>
<polygon fill="none" stroke="black" points="471.23,-796.4 471.23,-827.2 689.87,-827.2 689.87,-796.4 471.23,-796.4"/>
<text text-anchor="start" x="478.23" y="-808.6" font-family="Arial" font-size="14.00">payload    </text>
<text text-anchor="start" x="558.39" y="-808.6" font-family="Arial" font-size="14.00" fill="#666666">[text]</text>
<polygon fill="none" stroke="black" points="471.23,-765.6 471.23,-796.4 689.87,-796.4 689.87,-765.6 471.23,-765.6"/>
<text text-anchor="start" x="478.23" y="-777.8" font-family="Arial" font-size="14.00">created    </text>
<text text-anchor="start" x="556.04" y="-777.8" font-family="Arial" font-size="14.00" fill="#666666">[datetime]</text>
</g>
<!-- logs&#45;&gt;comment_stars -->
<g id="edge1" class="edge">
<title>logs:comment_star_id&#45;&gt;comment_stars:id</title>
<path fill="none" stroke="black" stroke-dasharray="5,2" d="M701.16,-841.87C804.45,-827.01 814.56,-589.2 705.28,-589.2"/>
<polygon fill="black" stroke="black" points="701.18,-841.87 690.89,-838.09 695.86,-842.25 691.54,-842.55 691.54,-842.55 691.54,-842.55 695.86,-842.25 691.52,-847.07 701.18,-841.87"/>
<text text-anchor="start" x="697.87" y="-852.6" font-family="Arial" font-size="10.00">Additional Relation</text>
</g>
</g>
</svg>
