<?xml version="1.0" encoding="UTF-8" standalone="no"?>
<!DOCTYPE svg PUBLIC "-//W3C//DTD SVG 1.1//EN"
 "http://www.w3.org/Graphics/SVG/1.1/DTD/svg11.dtd">
<!-- Generated by graphviz version 2.40.1 (20161225.0304)
 -->
<!-- Title: comments Pages: 1 -->
<svg width="867pt" height="1079pt"
 viewBox="0.00 0.00 866.50 1079.00" xmlns="http://www.w3.org/2000/svg" xmlns:xlink="http://www.w3.org/1999/xlink">
<g id="graph0" class="graph" transform="scale(1 1) rotate(0) translate(4 1075)">
<title>comments</title>
<polygon fill="#ffffff" stroke="transparent" points="-4,4 -4,-1075 862.5,-1075 862.5,4 -4,4"/>
<!-- comments -->
<g id="node1" class="node">
<title>comments</title>
<polygon fill="#efefef" stroke="transparent" points="250.5,-622.5 250.5,-657.5 474.5,-657.5 474.5,-622.5 250.5,-622.5"/>
<polygon fill="none" stroke="#000000" points="250.5,-622.5 250.5,-657.5 474.5,-657.5 474.5,-622.5 250.5,-622.5"/>
<text text-anchor="start" x="257.2134" y="-635.3" font-family="Arial Bold" font-size="18.00" fill="#000000">comments</text>
<text text-anchor="start" x="340.2186" y="-635.3" font-family="Arial" font-size="14.00" fill="#000000">    </text>
<text text-anchor="start" x="374.4234" y="-635.3" font-family="Arial" font-size="14.00" fill="#666666">[BASE TABLE]</text>
<polygon fill="none" stroke="#000000" points="250.5,-592.5 250.5,-622.5 474.5,-622.5 474.5,-592.5 250.5,-592.5"/>
<text text-anchor="start" x="257.5" y="-603.9" font-family="Arial" font-size="14.00" fill="#000000">id </text>
<text text-anchor="start" x="272.2798" y="-603.9" font-family="Arial" font-size="14.00" fill="#666666">[bigint(20)]</text>
<polygon fill="none" stroke="#000000" points="250.5,-562.5 250.5,-592.5 474.5,-592.5 474.5,-562.5 250.5,-562.5"/>
<text text-anchor="start" x="257.5" y="-573.9" font-family="Arial" font-size="14.00" fill="#000000">post_id </text>
<text text-anchor="start" x="306.5182" y="-573.9" font-family="Arial" font-size="14.00" fill="#666666">[bigint(20)]</text>
<polygon fill="none" stroke="#000000" points="250.5,-532.5 250.5,-562.5 474.5,-562.5 474.5,-532.5 250.5,-532.5"/>
<text text-anchor="start" x="257.5" y="-543.9" font-family="Arial" font-size="14.00" fill="#000000">user_id </text>
<text text-anchor="start" x="307.2882" y="-543.9" font-family="Arial" font-size="14.00" fill="#666666">[int(11)]</text>
<polygon fill="none" stroke="#000000" points="250.5,-502.5 250.5,-532.5 474.5,-532.5 474.5,-502.5 250.5,-502.5"/>
<text text-anchor="start" x="257.5" y="-513.9" font-family="Arial" font-size="14.00" fill="#000000">comment </text>
<text text-anchor="start" x="318.9502" y="-513.9" font-family="Arial" font-size="14.00" fill="#666666">[text]</text>
<polygon fill="none" stroke="#000000" points="250.5,-472.5 250.5,-502.5 474.5,-502.5 474.5,-472.5 250.5,-472.5"/>
<text text-anchor="start" x="257.5" y="-483.9" font-family="Arial" font-size="14.00" fill="#000000">post_id_desc </text>
<text text-anchor="start" x="343.866" y="-483.9" font-family="Arial" font-size="14.00" fill="#666666">[bigint(20)]</text>
<polygon fill="none" stroke="#000000" points="250.5,-442.5 250.5,-472.5 474.5,-472.5 474.5,-442.5 250.5,-442.5"/>
<text text-anchor="start" x="257.5" y="-453.9" font-family="Arial" font-size="14.00" fill="#000000">created </text>
<text text-anchor="start" x="308.0722" y="-453.9" font-family="Arial" font-size="14.00" fill="#666666">[datetime]</text>
<polygon fill="none" stroke="#000000" points="250.5,-412.5 250.5,-442.5 474.5,-442.5 474.5,-412.5 250.5,-412.5"/>
<text text-anchor="start" x="257.5" y="-423.9" font-family="Arial" font-size="14.00" fill="#000000">updated </text>
<text text-anchor="start" x="311.9768" y="-423.9" font-family="Arial" font-size="14.00" fill="#666666">[datetime]</text>
<polygon fill="none" stroke="#000000" stroke-width="3" points="249,-411.5 249,-659.5 476,-659.5 476,-411.5 249,-411.5"/>
</g>
<!-- posts -->
<g id="node3" class="node">
<title>posts</title>
<polygon fill="#efefef" stroke="transparent" points="43.5,-252.5 43.5,-287.5 336.5,-287.5 336.5,-252.5 43.5,-252.5"/>
<polygon fill="none" stroke="#000000" points="43.5,-252.5 43.5,-287.5 336.5,-287.5 336.5,-252.5 43.5,-252.5"/>
<text text-anchor="start" x="104.7087" y="-265.3" font-family="Arial Bold" font-size="18.00" fill="#000000">posts</text>
<text text-anchor="start" x="147.7233" y="-265.3" font-family="Arial" font-size="14.00" fill="#000000">    </text>
<text text-anchor="start" x="181.9281" y="-265.3" font-family="Arial" font-size="14.00" fill="#666666">[BASE TABLE]</text>
<polygon fill="none" stroke="#000000" points="43.5,-222.5 43.5,-252.5 336.5,-252.5 336.5,-222.5 43.5,-222.5"/>
<text text-anchor="start" x="50.5" y="-233.9" font-family="Arial" font-size="14.00" fill="#000000">id    </text>
<text text-anchor="start" x="95.594" y="-233.9" font-family="Arial" font-size="14.00" fill="#666666">[bigint(20)]</text>
<polygon fill="none" stroke="#000000" points="43.5,-192.5 43.5,-222.5 336.5,-222.5 336.5,-192.5 43.5,-192.5"/>
<text text-anchor="start" x="50.5" y="-203.9" font-family="Arial" font-size="14.00" fill="#000000">user_id    </text>
<text text-anchor="start" x="130.6024" y="-203.9" font-family="Arial" font-size="14.00" fill="#666666">[int(11)]</text>
<polygon fill="none" stroke="#000000" points="43.5,-162.5 43.5,-192.5 336.5,-192.5 336.5,-162.5 43.5,-162.5"/>
<text text-anchor="start" x="50.5" y="-173.9" font-family="Arial" font-size="14.00" fill="#000000">title    </text>
<text text-anchor="start" x="106.4818" y="-173.9" font-family="Arial" font-size="14.00" fill="#666666">[varchar(255)]</text>
<polygon fill="none" stroke="#000000" points="43.5,-132.5 43.5,-162.5 336.5,-162.5 336.5,-132.5 43.5,-132.5"/>
<text text-anchor="start" x="50.5" y="-143.9" font-family="Arial" font-size="14.00" fill="#000000">body    </text>
<text text-anchor="start" x="115.0526" y="-143.9" font-family="Arial" font-size="14.00" fill="#666666">[text]</text>
<polygon fill="none" stroke="#000000" points="43.5,-102.5 43.5,-132.5 336.5,-132.5 336.5,-102.5 43.5,-102.5"/>
<text text-anchor="start" x="50.0399" y="-113.9" font-family="Arial" font-size="14.00" fill="#000000">post_type    </text>
<text text-anchor="start" x="144.9389" y="-113.9" font-family="Arial" font-size="14.00" fill="#666666">[enum(&#39;public&#39;,&#39;private&#39;,&#39;draft&#39;)]</text>
<polygon fill="none" stroke="#000000" points="43.5,-72.5 43.5,-102.5 336.5,-102.5 336.5,-72.5 43.5,-72.5"/>
<text text-anchor="start" x="50.5" y="-83.9" font-family="Arial" font-size="14.00" fill="#000000">created    </text>
<text text-anchor="start" x="131.3864" y="-83.9" font-family="Arial" font-size="14.00" fill="#666666">[datetime]</text>
<polygon fill="none" stroke="#000000" points="43.5,-42.5 43.5,-72.5 336.5,-72.5 336.5,-42.5 43.5,-42.5"/>
<text text-anchor="start" x="50.5" y="-53.9" font-family="Arial" font-size="14.00" fill="#000000">updated    </text>
<text text-anchor="start" x="135.291" y="-53.9" font-family="Arial" font-size="14.00" fill="#666666">[datetime]</text>
</g>
<!-- comments&#45;&gt;posts -->
<g id="edge2" class="edge">
<title>comments:post_id&#45;&gt;posts:id</title>
<path fill="none" stroke="#000000" d="M240.1483,-576.9041C160.2196,-567.223 200.6936,-441.8433 250.5,-367 273.4561,-332.5043 313.5439,-365.4957 336.5,-331 359.5223,-296.4047 378.0556,-237.5 336.5,-237.5"/>
<polygon fill="#000000" stroke="#000000" points="240.5165,-576.9252 250.2413,-581.9926 245.5083,-577.2126 250.5,-577.5 250.5,-577.5 250.5,-577.5 245.5083,-577.2126 250.7587,-573.0074 240.5165,-576.9252 240.5165,-576.9252"/>
<text text-anchor="start" x="18.995" y="-587.5" font-family="Arial" font-size="10.00" fill="#000000">FOREIGN KEY (post_id) REFERENCES posts (id)</text>
</g>
<!-- users -->
<g id="node5" class="node">
<title>users</title>
<polygon fill="#efefef" stroke="transparent" points="440.5,-237.5 440.5,-272.5 629.5,-272.5 629.5,-237.5 440.5,-237.5"/>
<polygon fill="none" stroke="#000000" points="440.5,-237.5 440.5,-272.5 629.5,-272.5 629.5,-237.5 440.5,-237.5"/>
<text text-anchor="start" x="449.2137" y="-250.3" font-family="Arial Bold" font-size="18.00" fill="#000000">users</text>
<text text-anchor="start" x="493.2183" y="-250.3" font-family="Arial" font-size="14.00" fill="#000000">    </text>
<text text-anchor="start" x="527.4231" y="-250.3" font-family="Arial" font-size="14.00" fill="#666666">[BASE TABLE]</text>
<polygon fill="none" stroke="#000000" points="440.5,-207.5 440.5,-237.5 629.5,-237.5 629.5,-207.5 440.5,-207.5"/>
<text text-anchor="start" x="447.5" y="-218.9" font-family="Arial" font-size="14.00" fill="#000000">id    </text>
<text text-anchor="start" x="492.594" y="-218.9" font-family="Arial" font-size="14.00" fill="#666666">[int(11)]</text>
<polygon fill="none" stroke="#000000" points="440.5,-177.5 440.5,-207.5 629.5,-207.5 629.5,-177.5 440.5,-177.5"/>
<text text-anchor="start" x="447.1122" y="-188.9" font-family="Arial" font-size="14.00" fill="#000000">username    </text>
<text text-anchor="start" x="543.5512" y="-188.9" font-family="Arial" font-size="14.00" fill="#666666">[varchar(50)]</text>
<polygon fill="none" stroke="#000000" points="440.5,-147.5 440.5,-177.5 629.5,-177.5 629.5,-147.5 440.5,-147.5"/>
<text text-anchor="start" x="447.5" y="-158.9" font-family="Arial" font-size="14.00" fill="#000000">password    </text>
<text text-anchor="start" x="541.6024" y="-158.9" font-family="Arial" font-size="14.00" fill="#666666">[varchar(50)]</text>
<polygon fill="none" stroke="#000000" points="440.5,-117.5 440.5,-147.5 629.5,-147.5 629.5,-117.5 440.5,-117.5"/>
<text text-anchor="start" x="447.5" y="-128.9" font-family="Arial" font-size="14.00" fill="#000000">email    </text>
<text text-anchor="start" x="515.1438" y="-128.9" font-family="Arial" font-size="14.00" fill="#666666">[varchar(355)]</text>
<polygon fill="none" stroke="#000000" points="440.5,-87.5 440.5,-117.5 629.5,-117.5 629.5,-87.5 440.5,-87.5"/>
<text text-anchor="start" x="447.5" y="-98.9" font-family="Arial" font-size="14.00" fill="#000000">created    </text>
<text text-anchor="start" x="528.3864" y="-98.9" font-family="Arial" font-size="14.00" fill="#666666">[timestamp]</text>
<polygon fill="none" stroke="#000000" points="440.5,-57.5 440.5,-87.5 629.5,-87.5 629.5,-57.5 440.5,-57.5"/>
<text text-anchor="start" x="447.5" y="-68.9" font-family="Arial" font-size="14.00" fill="#000000">updated    </text>
<text text-anchor="start" x="532.291" y="-68.9" font-family="Arial" font-size="14.00" fill="#666666">[timestamp]</text>
</g>
<!-- comments&#45;&gt;users -->
<g id="edge4" class="edge">
<title>comments:user_id&#45;&gt;users:id</title>
<path fill="none" stroke="#000000" d="M484.4961,-546.8839C549.6714,-538.2358 496.7028,-440.3309 474.5,-367 466.6057,-340.927 448.3943,-342.073 440.5,-316 428.4579,-276.2275 398.9444,-222.5 440.5,-222.5"/>
<polygon fill="#000000" stroke="#000000" points="484.4811,-546.8848 474.2231,-543.0085 479.4905,-547.1924 474.5,-547.5 474.5,-547.5 474.5,-547.5 479.4905,-547.1924 474.7769,-551.9915 484.4811,-546.8848 484.4811,-546.8848"/>
<text text-anchor="start" x="481.445" y="-557.5" font-family="Arial" font-size="10.00" fill="#000000">FOREIGN KEY (user_id) REFERENCES users (id)</text>
</g>
<!-- logs -->
<g id="node2" class="node">
<title>logs</title>
<polygon fill="#efefef" stroke="transparent" points="78.5,-992.5 78.5,-1027.5 299.5,-1027.5 299.5,-992.5 78.5,-992.5"/>
<polygon fill="none" stroke="#000000" points="78.5,-992.5 78.5,-1027.5 299.5,-1027.5 299.5,-992.5 78.5,-992.5"/>
<text text-anchor="start" x="108.7127" y="-1005.3" font-family="Arial Bold" font-size="18.00" fill="#000000">logs</text>
<text text-anchor="start" x="141.7193" y="-1005.3" font-family="Arial" font-size="14.00" fill="#000000">    </text>
<text text-anchor="start" x="175.9241" y="-1005.3" font-family="Arial" font-size="14.00" fill="#666666">[BASE TABLE]</text>
<polygon fill="none" stroke="#000000" points="78.5,-962.5 78.5,-992.5 299.5,-992.5 299.5,-962.5 78.5,-962.5"/>
<text text-anchor="start" x="85.5" y="-973.9" font-family="Arial" font-size="14.00" fill="#000000">id    </text>
<text text-anchor="start" x="130.594" y="-973.9" font-family="Arial" font-size="14.00" fill="#666666">[bigint(20)]</text>
<polygon fill="none" stroke="#000000" points="78.5,-932.5 78.5,-962.5 299.5,-962.5 299.5,-932.5 78.5,-932.5"/>
<text text-anchor="start" x="85.5" y="-943.9" font-family="Arial" font-size="14.00" fill="#000000">user_id    </text>
<text text-anchor="start" x="165.6024" y="-943.9" font-family="Arial" font-size="14.00" fill="#666666">[int(11)]</text>
<polygon fill="none" stroke="#000000" points="78.5,-902.5 78.5,-932.5 299.5,-932.5 299.5,-902.5 78.5,-902.5"/>
<text text-anchor="start" x="85.5" y="-913.9" font-family="Arial" font-size="14.00" fill="#000000">post_id    </text>
<text text-anchor="start" x="164.8324" y="-913.9" font-family="Arial" font-size="14.00" fill="#666666">[bigint(20)]</text>
<polygon fill="none" stroke="#000000" points="78.5,-872.5 78.5,-902.5 299.5,-902.5 299.5,-872.5 78.5,-872.5"/>
<text text-anchor="start" x="85.5" y="-883.9" font-family="Arial" font-size="14.00" fill="#000000">comment_id    </text>
<text text-anchor="start" x="195.9362" y="-883.9" font-family="Arial" font-size="14.00" fill="#666666">[bigint(20)]</text>
<polygon fill="none" stroke="#000000" points="78.5,-842.5 78.5,-872.5 299.5,-872.5 299.5,-842.5 78.5,-842.5"/>
<text text-anchor="start" x="85.1641" y="-853.9" font-family="Arial" font-size="14.00" fill="#000000">comment_star_id    </text>
<text text-anchor="start" x="226.7167" y="-853.9" font-family="Arial" font-size="14.00" fill="#666666">[bigint(20)]</text>
<polygon fill="none" stroke="#000000" points="78.5,-812.5 78.5,-842.5 299.5,-842.5 299.5,-812.5 78.5,-812.5"/>
<text text-anchor="start" x="85.5" y="-823.9" font-family="Arial" font-size="14.00" fill="#000000">payload    </text>
<text text-anchor="start" x="168.7244" y="-823.9" font-family="Arial" font-size="14.00" fill="#666666">[text]</text>
<polygon fill="none" stroke="#000000" points="78.5,-782.5 78.5,-812.5 299.5,-812.5 299.5,-782.5 78.5,-782.5"/>
<text text-anchor="start" x="85.5" y="-793.9" font-family="Arial" font-size="14.00" fill="#000000">created    </text>
<text text-anchor="start" x="166.3864" y="-793.9" font-family="Arial" font-size="14.00" fill="#666666">[datetime]</text>
</g>
<!-- logs&#45;&gt;comments -->
<g id="edge1" class="edge">
<title>logs:comment_id&#45;&gt;comments:id</title>
<path fill="none" stroke="#000000" stroke-dasharray="5,2" d="M309.682,-886.665C361.0035,-877.5147 327.4294,-795.1764 299.5,-740 287.2956,-715.8893 262.7044,-728.1107 250.5,-704 231.1305,-665.7341 207.6111,-607.5 250.5,-607.5"/>
<polygon fill="#000000" stroke="#000000" points="309.4665,-886.6826 299.1322,-883.0151 304.4833,-887.0913 299.5,-887.5 299.5,-887.5 299.5,-887.5 304.4833,-887.0913 299.8678,-891.9849 309.4665,-886.6826 309.4665,-886.6826"/>
<text text-anchor="start" x="306.8245" y="-897.5" font-family="Arial" font-size="10.00" fill="#000000">Additional Relation</text>
</g>
<!-- comment_stars -->
<g id="node4" class="node">
<title>comment_stars</title>
<polygon fill="#efefef" stroke="transparent" points="403.5,-977.5 403.5,-1012.5 667.5,-1012.5 667.5,-977.5 403.5,-977.5"/>
<polygon fill="none" stroke="#000000" points="403.5,-977.5 403.5,-1012.5 667.5,-1012.5 667.5,-977.5 403.5,-977.5"/>
<text text-anchor="start" x="410.21" y="-990.3" font-family="Arial Bold" font-size="18.00" fill="#000000">comment_stars</text>
<text text-anchor="start" x="533.222" y="-990.3" font-family="Arial" font-size="14.00" fill="#000000">    </text>
<text text-anchor="start" x="567.4268" y="-990.3" font-family="Arial" font-size="14.00" fill="#666666">[BASE TABLE]</text>
<polygon fill="none" stroke="#000000" points="403.5,-947.5 403.5,-977.5 667.5,-977.5 667.5,-947.5 403.5,-947.5"/>
<text text-anchor="start" x="410.5" y="-958.9" font-family="Arial" font-size="14.00" fill="#000000">id    </text>
<text text-anchor="start" x="455.594" y="-958.9" font-family="Arial" font-size="14.00" fill="#666666">[bigint(20)]</text>
<polygon fill="none" stroke="#000000" points="403.5,-917.5 403.5,-947.5 667.5,-947.5 667.5,-917.5 403.5,-917.5"/>
<text text-anchor="start" x="410.5" y="-928.9" font-family="Arial" font-size="14.00" fill="#000000">user_id    </text>
<text text-anchor="start" x="490.6024" y="-928.9" font-family="Arial" font-size="14.00" fill="#666666">[int(11)]</text>
<polygon fill="none" stroke="#000000" points="403.5,-887.5 403.5,-917.5 667.5,-917.5 667.5,-887.5 403.5,-887.5"/>
<text text-anchor="start" x="410.5" y="-898.9" font-family="Arial" font-size="14.00" fill="#000000">comment_post_id    </text>
<text text-anchor="start" x="555.1746" y="-898.9" font-family="Arial" font-size="14.00" fill="#666666">[bigint(20)]</text>
<polygon fill="none" stroke="#000000" points="403.5,-857.5 403.5,-887.5 667.5,-887.5 667.5,-857.5 403.5,-857.5"/>
<text text-anchor="start" x="410.5" y="-868.9" font-family="Arial" font-size="14.00" fill="#000000">comment_user_id    </text>
<text text-anchor="start" x="555.9446" y="-868.9" font-family="Arial" font-size="14.00" fill="#666666">[int(11)]</text>
<polygon fill="none" stroke="#000000" points="403.5,-827.5 403.5,-857.5 667.5,-857.5 667.5,-827.5 403.5,-827.5"/>
<text text-anchor="start" x="410.5" y="-838.9" font-family="Arial" font-size="14.00" fill="#000000">created    </text>
<text text-anchor="start" x="491.3864" y="-838.9" font-family="Arial" font-size="14.00" fill="#666666">[timestamp]</text>
<polygon fill="none" stroke="#000000" points="403.5,-797.5 403.5,-827.5 667.5,-827.5 667.5,-797.5 403.5,-797.5"/>
<text text-anchor="start" x="410.5" y="-808.9" font-family="Arial" font-size="14.00" fill="#000000">updated    </text>
<text text-anchor="start" x="495.291" y="-808.9" font-family="Arial" font-size="14.00" fill="#666666">[timestamp]</text>
</g>
<!-- comment_stars&#45;&gt;comments -->
<g id="edge3" class="edge">
<title>comment_stars:comment_post_id&#45;&gt;comments:post_id</title>
<path fill="none" stroke="#000000" d="M393.3152,-901.6636C341.963,-892.4976 375.2752,-810.0259 403.5,-755 421.2323,-720.4298 456.7677,-738.5702 474.5,-704 500.1598,-653.9749 530.7222,-577.5 474.5,-577.5"/>
<polygon fill="#000000" stroke="#000000" points="393.5336,-901.6814 403.1316,-906.9849 398.5168,-902.0907 403.5,-902.5 403.5,-902.5 403.5,-902.5 398.5168,-902.0907 403.8684,-898.0151 393.5336,-901.6814 393.5336,-901.6814"/>
<text text-anchor="start" x="410.6435" y="-912.5" font-family="Arial" font-size="10.00" fill="#000000">FOREIGN KEY (comment_post_id, comment_user_id) REFERENCES comments (post_id, user_id)</text>
</g>
</g>
</svg>
