<?xml version="1.0" encoding="UTF-8" standalone="no"?>
<!DOCTYPE svg PUBLIC "-//W3C//DTD SVG 1.1//EN"
 "http://www.w3.org/Graphics/SVG/1.1/DTD/svg11.dtd">
<!-- Generated by graphviz version 12.1.2 (20240928.0832)
 -->
<!-- Title: posts Pages: 1 -->
<svg width="682pt" height="1068pt"
 viewBox="0.00 0.00 682.17 1068.00" xmlns="http://www.w3.org/2000/svg" xmlns:xlink="http://www.w3.org/1999/xlink">
<g id="graph0" class="graph" transform="scale(1 1) rotate(0) translate(4 1064)">
<title>posts</title>
<polygon fill="white" stroke="none" points="-4,4 -4,-1064 678.17,-1064 678.17,4 -4,4"/>
<!-- posts -->
<g id="node1" class="node">
<title>posts</title>
<polygon fill="#efefef" stroke="none" points="171.86,-604.6 171.86,-640.2 433.01,-640.2 433.01,-604.6 171.86,-604.6"/>
<polygon fill="none" stroke="black" points="171.86,-604.6 171.86,-640.2 433.01,-640.2 433.01,-604.6 171.86,-604.6"/>
<text text-anchor="start" x="221.69" y="-618" font-family="Arial Bold" font-size="18.00">posts</text>
<text text-anchor="start" x="258.7" y="-618" font-family="Arial" font-size="14.00">    </text>
<text text-anchor="start" x="289.82" y="-618" font-family="Arial" font-size="14.00" fill="#666666">[BASE TABLE]</text>
<polygon fill="none" stroke="black" points="171.86,-573.8 171.86,-604.6 433.01,-604.6 433.01,-573.8 171.86,-573.8"/>
<text text-anchor="start" x="178.86" y="-586" font-family="Arial" font-size="14.00">id </text>
<text text-anchor="start" x="193.65" y="-586" font-family="Arial" font-size="14.00" fill="#666666">[bigint(20)]</text>
<polygon fill="none" stroke="black" points="171.86,-543 171.86,-573.8 433.01,-573.8 433.01,-543 171.86,-543"/>
<text text-anchor="start" x="178.86" y="-555.2" font-family="Arial" font-size="14.00">user_id </text>
<text text-anchor="start" x="228.67" y="-555.2" font-family="Arial" font-size="14.00" fill="#666666">[int(11)]</text>
<polygon fill="none" stroke="black" points="171.86,-512.2 171.86,-543 433.01,-543 433.01,-512.2 171.86,-512.2"/>
<text text-anchor="start" x="178.86" y="-524.4" font-family="Arial" font-size="14.00">title </text>
<text text-anchor="start" x="204.54" y="-524.4" font-family="Arial" font-size="14.00" fill="#666666">[varchar(255)]</text>
<polygon fill="none" stroke="black" points="171.86,-481.4 171.86,-512.2 433.01,-512.2 433.01,-481.4 171.86,-481.4"/>
<text text-anchor="start" x="178.86" y="-493.6" font-family="Arial" font-size="14.00">body </text>
<text text-anchor="start" x="213.11" y="-493.6" font-family="Arial" font-size="14.00" fill="#666666">[text]</text>
<polygon fill="none" stroke="black" points="171.86,-450.6 171.86,-481.4 433.01,-481.4 433.01,-450.6 171.86,-450.6"/>
<text text-anchor="start" x="178.86" y="-462.8" font-family="Arial" font-size="14.00">post_type </text>
<text text-anchor="start" x="243.46" y="-462.8" font-family="Arial" font-size="14.00" fill="#666666">[enum(&#39;public&#39;,&#39;private&#39;,&#39;draft&#39;)]</text>
<polygon fill="none" stroke="black" points="171.86,-419.8 171.86,-450.6 433.01,-450.6 433.01,-419.8 171.86,-419.8"/>
<text text-anchor="start" x="178.86" y="-432" font-family="Arial" font-size="14.00">created </text>
<text text-anchor="start" x="229.45" y="-432" font-family="Arial" font-size="14.00" fill="#666666">[datetime]</text>
<polygon fill="none" stroke="black" points="171.86,-389 171.86,-419.8 433.01,-419.8 433.01,-389 171.86,-389"/>
<text text-anchor="start" x="178.86" y="-401.2" font-family="Arial" font-size="14.00">updated </text>
<text text-anchor="start" x="233.36" y="-401.2" font-family="Arial" font-size="14.00" fill="#666666">[datetime]</text>
<polygon fill="none" stroke="black" stroke-width="3" points="170.36,-387.5 170.36,-641.7 434.51,-641.7 434.51,-387.5 170.36,-387.5"/>
</g>
<!-- users -->
<g id="node4" class="node">
<title>users</title>
<polygon fill="#efefef" stroke="none" points="214.7,-228 214.7,-263.6 390.18,-263.6 390.18,-228 214.7,-228"/>
<polygon fill="none" stroke="black" points="214.7,-228 214.7,-263.6 390.18,-263.6 390.18,-228 214.7,-228"/>
<text text-anchor="start" x="221.7" y="-241.4" font-family="Arial Bold" font-size="18.00">users</text>
<text text-anchor="start" x="258.69" y="-241.4" font-family="Arial" font-size="14.00">    </text>
<text text-anchor="start" x="289.81" y="-241.4" font-family="Arial" font-size="14.00" fill="#666666">[BASE TABLE]</text>
<polygon fill="none" stroke="black" points="214.7,-197.2 214.7,-228 390.18,-228 390.18,-197.2 214.7,-197.2"/>
<text text-anchor="start" x="221.7" y="-209.4" font-family="Arial" font-size="14.00">id </text>
<text text-anchor="start" x="236.48" y="-209.4" font-family="Arial" font-size="14.00" fill="#666666">[int(11)]</text>
<polygon fill="none" stroke="black" points="214.7,-166.4 214.7,-197.2 390.18,-197.2 390.18,-166.4 214.7,-166.4"/>
<text text-anchor="start" x="221.7" y="-178.6" font-family="Arial" font-size="14.00">username </text>
<text text-anchor="start" x="287.84" y="-178.6" font-family="Arial" font-size="14.00" fill="#666666">[varchar(50)]</text>
<polygon fill="none" stroke="black" points="214.7,-135.6 214.7,-166.4 390.18,-166.4 390.18,-135.6 214.7,-135.6"/>
<text text-anchor="start" x="221.7" y="-147.8" font-family="Arial" font-size="14.00">password </text>
<text text-anchor="start" x="285.5" y="-147.8" font-family="Arial" font-size="14.00" fill="#666666">[varchar(50)]</text>
<polygon fill="none" stroke="black" points="214.7,-104.8 214.7,-135.6 390.18,-135.6 390.18,-104.8 214.7,-104.8"/>
<text text-anchor="start" x="221.7" y="-117" font-family="Arial" font-size="14.00">email </text>
<text text-anchor="start" x="259.04" y="-117" font-family="Arial" font-size="14.00" fill="#666666">[varchar(355)]</text>
<polygon fill="none" stroke="black" points="214.7,-74 214.7,-104.8 390.18,-104.8 390.18,-74 214.7,-74"/>
<text text-anchor="start" x="221.7" y="-86.2" font-family="Arial" font-size="14.00">created </text>
<text text-anchor="start" x="272.28" y="-86.2" font-family="Arial" font-size="14.00" fill="#666666">[timestamp]</text>
<polygon fill="none" stroke="black" points="214.7,-43.2 214.7,-74 390.18,-74 390.18,-43.2 214.7,-43.2"/>
<text text-anchor="start" x="221.7" y="-55.4" font-family="Arial" font-size="14.00">updated </text>
<text text-anchor="start" x="276.19" y="-55.4" font-family="Arial" font-size="14.00" fill="#666666">[timestamp]</text>
</g>
<!-- posts&#45;&gt;users -->
<g id="edge3" class="edge">
<title>posts:user_id&#45;&gt;users:id</title>
<path fill="none" stroke="black" d="M444.15,-557.88C586.9,-543.04 542.56,-212.6 391.18,-212.6"/>
<polygon fill="black" stroke="black" points="444.34,-557.88 434.12,-553.89 439.01,-558.15 434.68,-558.37 434.68,-558.37 434.68,-558.37 439.01,-558.15 434.58,-562.88 444.34,-557.88"/>
<text text-anchor="start" x="441.01" y="-568.4" font-family="Arial" font-size="10.00">FOREIGN KEY (user_id) REFERENCES users (id)</text>
</g>
<!-- comments -->
<g id="node2" class="node">
<title>comments</title>
<polygon fill="#efefef" stroke="none" points="43.2,-981.2 43.2,-1016.8 255.68,-1016.8 255.68,-981.2 43.2,-981.2"/>
<polygon fill="none" stroke="black" points="43.2,-981.2 43.2,-1016.8 255.68,-1016.8 255.68,-981.2 43.2,-981.2"/>
<text text-anchor="start" x="50.2" y="-994.6" font-family="Arial Bold" font-size="18.00">comments</text>
<text text-anchor="start" x="124.19" y="-994.6" font-family="Arial" font-size="14.00">    </text>
<text text-anchor="start" x="155.3" y="-994.6" font-family="Arial" font-size="14.00" fill="#666666">[BASE TABLE]</text>
<polygon fill="none" stroke="black" points="43.2,-950.4 43.2,-981.2 255.68,-981.2 255.68,-950.4 43.2,-950.4"/>
<text text-anchor="start" x="50.2" y="-962.6" font-family="Arial" font-size="14.00">id </text>
<text text-anchor="start" x="64.99" y="-962.6" font-family="Arial" font-size="14.00" fill="#666666">[bigint(20)]</text>
<polygon fill="none" stroke="black" points="43.2,-919.6 43.2,-950.4 255.68,-950.4 255.68,-919.6 43.2,-919.6"/>
<text text-anchor="start" x="50.2" y="-931.8" font-family="Arial" font-size="14.00">post_id </text>
<text text-anchor="start" x="99.23" y="-931.8" font-family="Arial" font-size="14.00" fill="#666666">[bigint(20)]</text>
<polygon fill="none" stroke="black" points="43.2,-888.8 43.2,-919.6 255.68,-919.6 255.68,-888.8 43.2,-888.8"/>
<text text-anchor="start" x="50.2" y="-901" font-family="Arial" font-size="14.00">user_id </text>
<text text-anchor="start" x="100.01" y="-901" font-family="Arial" font-size="14.00" fill="#666666">[int(11)]</text>
<polygon fill="none" stroke="black" points="43.2,-858 43.2,-888.8 255.68,-888.8 255.68,-858 43.2,-858"/>
<text text-anchor="start" x="50.2" y="-870.2" font-family="Arial" font-size="14.00">comment </text>
<text text-anchor="start" x="111.66" y="-870.2" font-family="Arial" font-size="14.00" fill="#666666">[text]</text>
<polygon fill="none" stroke="black" points="43.2,-827.2 43.2,-858 255.68,-858 255.68,-827.2 43.2,-827.2"/>
<text text-anchor="start" x="50.2" y="-839.4" font-family="Arial" font-size="14.00">post_id_desc </text>
<text text-anchor="start" x="136.59" y="-839.4" font-family="Arial" font-size="14.00" fill="#666666">[bigint(20)]</text>
<polygon fill="none" stroke="black" points="43.2,-796.4 43.2,-827.2 255.68,-827.2 255.68,-796.4 43.2,-796.4"/>
<text text-anchor="start" x="50.2" y="-808.6" font-family="Arial" font-size="14.00">created </text>
<text text-anchor="start" x="100.79" y="-808.6" font-family="Arial" font-size="14.00" fill="#666666">[datetime]</text>
<polygon fill="none" stroke="black" points="43.2,-765.6 43.2,-796.4 255.68,-796.4 255.68,-765.6 43.2,-765.6"/>
<text text-anchor="start" x="50.2" y="-777.8" font-family="Arial" font-size="14.00">updated </text>
<text text-anchor="start" x="104.7" y="-777.8" font-family="Arial" font-size="14.00" fill="#666666">[datetime]</text>
</g>
<!-- comments&#45;&gt;posts -->
<g id="edge1" class="edge">
<title>comments:post_id&#45;&gt;posts:id</title>
<path fill="none" stroke="black" d="M266.51,-931.97C300.43,-908.75 279.72,-758.71 255.68,-722.4 233.29,-688.6 194.34,-720.14 171.86,-686.4 147.91,-650.45 127.66,-589.2 170.86,-589.2"/>
<polygon fill="black" stroke="black" points="266.55,-931.96 255.67,-930.6 261.45,-933.53 257.31,-934.8 257.31,-934.8 257.31,-934.8 261.45,-933.53 258.32,-939.2 266.55,-931.96"/>
<text text-anchor="start" x="263.68" y="-945" font-family="Arial" font-size="10.00">FOREIGN KEY (post_id) REFERENCES posts (id)</text>
</g>
<!-- logs -->
<g id="node3" class="node">
<title>logs</title>
<polygon fill="#efefef" stroke="none" points="359.73,-981.2 359.73,-1016.8 551.14,-1016.8 551.14,-981.2 359.73,-981.2"/>
<polygon fill="none" stroke="black" points="359.73,-981.2 359.73,-1016.8 551.14,-1016.8 551.14,-981.2 359.73,-981.2"/>
<text text-anchor="start" x="378.19" y="-994.6" font-family="Arial Bold" font-size="18.00">logs</text>
<text text-anchor="start" x="408.2" y="-994.6" font-family="Arial" font-size="14.00">    </text>
<text text-anchor="start" x="439.31" y="-994.6" font-family="Arial" font-size="14.00" fill="#666666">[BASE TABLE]</text>
<polygon fill="none" stroke="black" points="359.73,-950.4 359.73,-981.2 551.14,-981.2 551.14,-950.4 359.73,-950.4"/>
<text text-anchor="start" x="366.73" y="-962.6" font-family="Arial" font-size="14.00">id </text>
<text text-anchor="start" x="381.52" y="-962.6" font-family="Arial" font-size="14.00" fill="#666666">[bigint(20)]</text>
<polygon fill="none" stroke="black" points="359.73,-919.6 359.73,-950.4 551.14,-950.4 551.14,-919.6 359.73,-919.6"/>
<text text-anchor="start" x="366.73" y="-931.8" font-family="Arial" font-size="14.00">user_id </text>
<text text-anchor="start" x="416.54" y="-931.8" font-family="Arial" font-size="14.00" fill="#666666">[int(11)]</text>
<polygon fill="none" stroke="black" points="359.73,-888.8 359.73,-919.6 551.14,-919.6 551.14,-888.8 359.73,-888.8"/>
<text text-anchor="start" x="366.73" y="-901" font-family="Arial" font-size="14.00">post_id </text>
<text text-anchor="start" x="415.77" y="-901" font-family="Arial" font-size="14.00" fill="#666666">[bigint(20)]</text>
<polygon fill="none" stroke="black" points="359.73,-858 359.73,-888.8 551.14,-888.8 551.14,-858 359.73,-858"/>
<text text-anchor="start" x="366.73" y="-870.2" font-family="Arial" font-size="14.00">comment_id </text>
<text text-anchor="start" x="446.88" y="-870.2" font-family="Arial" font-size="14.00" fill="#666666">[bigint(20)]</text>
<polygon fill="none" stroke="black" points="359.73,-827.2 359.73,-858 551.14,-858 551.14,-827.2 359.73,-827.2"/>
<text text-anchor="start" x="366.73" y="-839.4" font-family="Arial" font-size="14.00">comment_star_id </text>
<text text-anchor="start" x="478" y="-839.4" font-family="Arial" font-size="14.00" fill="#666666">[bigint(20)]</text>
<polygon fill="none" stroke="black" points="359.73,-796.4 359.73,-827.2 551.14,-827.2 551.14,-796.4 359.73,-796.4"/>
<text text-anchor="start" x="366.73" y="-808.6" font-family="Arial" font-size="14.00">payload </text>
<text text-anchor="start" x="419.66" y="-808.6" font-family="Arial" font-size="14.00" fill="#666666">[text]</text>
<polygon fill="none" stroke="black" points="359.73,-765.6 359.73,-796.4 551.14,-796.4 551.14,-765.6 359.73,-765.6"/>
<text text-anchor="start" x="366.73" y="-777.8" font-family="Arial" font-size="14.00">created </text>
<text text-anchor="start" x="417.32" y="-777.8" font-family="Arial" font-size="14.00" fill="#666666">[datetime]</text>
</g>
<!-- logs&#45;&gt;posts -->
<g id="edge2" class="edge">
<title>logs:post_id&#45;&gt;posts:id</title>
<path fill="none" stroke="black" stroke-dasharray="5,2" d="M348.56,-903.53C281.43,-894.11 318.75,-787.79 359.73,-722.4 379,-691.65 413.67,-717.1 433.01,-686.4 456.04,-649.85 477.22,-589.2 434.01,-589.2"/>
<polygon fill="black" stroke="black" points="348.42,-903.52 358.1,-908.67 353.74,-903.87 358.06,-904.16 358.06,-904.16 358.06,-904.16 353.74,-903.87 358.69,-899.69 348.42,-903.52"/>
<text text-anchor="start" x="268.34" y="-914.2" font-family="Arial" font-size="10.00">Additional Relation</text>
</g>
</g>
</svg>
