<?xml version="1.0" encoding="UTF-8" standalone="no"?>
<!DOCTYPE svg PUBLIC "-//W3C//DTD SVG 1.1//EN"
 "http://www.w3.org/Graphics/SVG/1.1/DTD/svg11.dtd">
<!-- Generated by graphviz version 12.1.2 (20240928.0832)
 -->
<!-- Title: posts Pages: 1 -->
<svg width="689pt" height="1068pt"
 viewBox="0.00 0.00 689.17 1068.00" xmlns="http://www.w3.org/2000/svg" xmlns:xlink="http://www.w3.org/1999/xlink">
<g id="graph0" class="graph" transform="scale(1 1) rotate(0) translate(4 1064)">
<title>posts</title>
<polygon fill="white" stroke="none" points="-4,4 -4,-1064 685.17,-1064 685.17,4 -4,4"/>
<!-- posts -->
<g id="node1" class="node">
<title>posts</title>
<polygon fill="#efefef" stroke="none" points="178.86,-604.6 178.86,-640.2 440.01,-640.2 440.01,-604.6 178.86,-604.6"/>
<polygon fill="none" stroke="black" points="178.86,-604.6 178.86,-640.2 440.01,-640.2 440.01,-604.6 178.86,-604.6"/>
<text text-anchor="start" x="228.69" y="-618" font-family="Arial Bold" font-size="18.00">posts</text>
<text text-anchor="start" x="265.7" y="-618" font-family="Arial" font-size="14.00">    </text>
<text text-anchor="start" x="296.82" y="-618" font-family="Arial" font-size="14.00" fill="#666666">[BASE TABLE]</text>
<polygon fill="none" stroke="black" points="178.86,-573.8 178.86,-604.6 440.01,-604.6 440.01,-573.8 178.86,-573.8"/>
<text text-anchor="start" x="185.86" y="-586" font-family="Arial" font-size="14.00">id </text>
<text text-anchor="start" x="200.65" y="-586" font-family="Arial" font-size="14.00" fill="#666666">[bigint(20)]</text>
<polygon fill="none" stroke="black" points="178.86,-543 178.86,-573.8 440.01,-573.8 440.01,-543 178.86,-543"/>
<text text-anchor="start" x="185.86" y="-555.2" font-family="Arial" font-size="14.00">user_id </text>
<text text-anchor="start" x="235.67" y="-555.2" font-family="Arial" font-size="14.00" fill="#666666">[int(11)]</text>
<polygon fill="none" stroke="black" points="178.86,-512.2 178.86,-543 440.01,-543 440.01,-512.2 178.86,-512.2"/>
<text text-anchor="start" x="185.86" y="-524.4" font-family="Arial" font-size="14.00">title </text>
<text text-anchor="start" x="211.54" y="-524.4" font-family="Arial" font-size="14.00" fill="#666666">[varchar(255)]</text>
<polygon fill="none" stroke="black" points="178.86,-481.4 178.86,-512.2 440.01,-512.2 440.01,-481.4 178.86,-481.4"/>
<text text-anchor="start" x="185.86" y="-493.6" font-family="Arial" font-size="14.00">body </text>
<text text-anchor="start" x="220.11" y="-493.6" font-family="Arial" font-size="14.00" fill="#666666">[text]</text>
<polygon fill="none" stroke="black" points="178.86,-450.6 178.86,-481.4 440.01,-481.4 440.01,-450.6 178.86,-450.6"/>
<text text-anchor="start" x="185.86" y="-462.8" font-family="Arial" font-size="14.00">post_type </text>
<text text-anchor="start" x="250.46" y="-462.8" font-family="Arial" font-size="14.00" fill="#666666">[enum(&#39;public&#39;,&#39;private&#39;,&#39;draft&#39;)]</text>
<polygon fill="none" stroke="black" points="178.86,-419.8 178.86,-450.6 440.01,-450.6 440.01,-419.8 178.86,-419.8"/>
<text text-anchor="start" x="185.86" y="-432" font-family="Arial" font-size="14.00">created </text>
<text text-anchor="start" x="236.45" y="-432" font-family="Arial" font-size="14.00" fill="#666666">[datetime]</text>
<polygon fill="none" stroke="black" points="178.86,-389 178.86,-419.8 440.01,-419.8 440.01,-389 178.86,-389"/>
<text text-anchor="start" x="185.86" y="-401.2" font-family="Arial" font-size="14.00">updated </text>
<text text-anchor="start" x="240.36" y="-401.2" font-family="Arial" font-size="14.00" fill="#666666">[datetime]</text>
<polygon fill="none" stroke="black" stroke-width="3" points="177.36,-387.5 177.36,-641.7 441.51,-641.7 441.51,-387.5 177.36,-387.5"/>
</g>
<!-- users -->
<g id="node4" class="node">
<title>users</title>
<polygon fill="#efefef" stroke="none" points="216.07,-228 216.07,-263.6 402.8,-263.6 402.8,-228 216.07,-228"/>
<polygon fill="none" stroke="black" points="216.07,-228 216.07,-263.6 402.8,-263.6 402.8,-228 216.07,-228"/>
<text text-anchor="start" x="228.7" y="-241.4" font-family="Arial Bold" font-size="18.00">users</text>
<text text-anchor="start" x="265.69" y="-241.4" font-family="Arial" font-size="14.00">    </text>
<text text-anchor="start" x="296.81" y="-241.4" font-family="Arial" font-size="14.00" fill="#666666">[BASE TABLE]</text>
<polygon fill="none" stroke="black" points="216.07,-197.2 216.07,-228 402.8,-228 402.8,-197.2 216.07,-197.2"/>
<text text-anchor="start" x="223.07" y="-209.4" font-family="Arial" font-size="14.00">id    </text>
<text text-anchor="start" x="265.09" y="-209.4" font-family="Arial" font-size="14.00" fill="#666666">[int(11)]</text>
<polygon fill="none" stroke="black" points="216.07,-166.4 216.07,-197.2 402.8,-197.2 402.8,-166.4 216.07,-166.4"/>
<text text-anchor="start" x="223.07" y="-178.6" font-family="Arial" font-size="14.00">username    </text>
<text text-anchor="start" x="316.44" y="-178.6" font-family="Arial" font-size="14.00" fill="#666666">[varchar(50)]</text>
<polygon fill="none" stroke="black" points="216.07,-135.6 216.07,-166.4 402.8,-166.4 402.8,-135.6 216.07,-135.6"/>
<text text-anchor="start" x="223.07" y="-147.8" font-family="Arial" font-size="14.00">password    </text>
<text text-anchor="start" x="314.11" y="-147.8" font-family="Arial" font-size="14.00" fill="#666666">[varchar(50)]</text>
<polygon fill="none" stroke="black" points="216.07,-104.8 216.07,-135.6 402.8,-135.6 402.8,-104.8 216.07,-104.8"/>
<text text-anchor="start" x="223.07" y="-117" font-family="Arial" font-size="14.00">email    </text>
<text text-anchor="start" x="287.64" y="-117" font-family="Arial" font-size="14.00" fill="#666666">[varchar(355)]</text>
<polygon fill="none" stroke="black" points="216.07,-74 216.07,-104.8 402.8,-104.8 402.8,-74 216.07,-74"/>
<text text-anchor="start" x="223.07" y="-86.2" font-family="Arial" font-size="14.00">created    </text>
<text text-anchor="start" x="300.89" y="-86.2" font-family="Arial" font-size="14.00" fill="#666666">[timestamp]</text>
<polygon fill="none" stroke="black" points="216.07,-43.2 216.07,-74 402.8,-74 402.8,-43.2 216.07,-43.2"/>
<text text-anchor="start" x="223.07" y="-55.4" font-family="Arial" font-size="14.00">updated    </text>
<text text-anchor="start" x="304.8" y="-55.4" font-family="Arial" font-size="14.00" fill="#666666">[timestamp]</text>
</g>
<!-- posts&#45;&gt;users -->
<g id="edge3" class="edge">
<title>posts:user_id&#45;&gt;users:id</title>
<path fill="none" stroke="black" d="M451.14,-557.88C593.86,-543.04 554.91,-212.6 403.8,-212.6"/>
<polygon fill="black" stroke="black" points="451.34,-557.87 441.12,-553.89 446.01,-558.15 441.68,-558.37 441.68,-558.37 441.68,-558.37 446.01,-558.15 441.58,-562.88 451.34,-557.87"/>
<text text-anchor="start" x="448.01" y="-568.4" font-family="Arial" font-size="10.00">FOREIGN KEY (user_id) REFERENCES users (id)</text>
</g>
<!-- comments -->
<g id="node2" class="node">
<title>comments</title>
<polygon fill="#efefef" stroke="none" points="43.2,-981.2 43.2,-1016.8 255.68,-1016.8 255.68,-981.2 43.2,-981.2"/>
<polygon fill="none" stroke="black" points="43.2,-981.2 43.2,-1016.8 255.68,-1016.8 255.68,-981.2 43.2,-981.2"/>
<text text-anchor="start" x="50.2" y="-994.6" font-family="Arial Bold" font-size="18.00">comments</text>
<text text-anchor="start" x="124.19" y="-994.6" font-family="Arial" font-size="14.00">    </text>
<text text-anchor="start" x="155.3" y="-994.6" font-family="Arial" font-size="14.00" fill="#666666">[BASE TABLE]</text>
<polygon fill="none" stroke="black" points="43.2,-950.4 43.2,-981.2 255.68,-981.2 255.68,-950.4 43.2,-950.4"/>
<text text-anchor="start" x="50.2" y="-962.6" font-family="Arial" font-size="14.00">id    </text>
<text text-anchor="start" x="92.21" y="-962.6" font-family="Arial" font-size="14.00" fill="#666666">[bigint(20)]</text>
<polygon fill="none" stroke="black" points="43.2,-919.6 43.2,-950.4 255.68,-950.4 255.68,-919.6 43.2,-919.6"/>
<text text-anchor="start" x="50.2" y="-931.8" font-family="Arial" font-size="14.00">post_id    </text>
<text text-anchor="start" x="126.46" y="-931.8" font-family="Arial" font-size="14.00" fill="#666666">[bigint(20)]</text>
<polygon fill="none" stroke="black" points="43.2,-888.8 43.2,-919.6 255.68,-919.6 255.68,-888.8 43.2,-888.8"/>
<text text-anchor="start" x="50.2" y="-901" font-family="Arial" font-size="14.00">user_id    </text>
<text text-anchor="start" x="127.23" y="-901" font-family="Arial" font-size="14.00" fill="#666666">[int(11)]</text>
<polygon fill="none" stroke="black" points="43.2,-858 43.2,-888.8 255.68,-888.8 255.68,-858 43.2,-858"/>
<text text-anchor="start" x="50.2" y="-870.2" font-family="Arial" font-size="14.00">comment    </text>
<text text-anchor="start" x="138.89" y="-870.2" font-family="Arial" font-size="14.00" fill="#666666">[text]</text>
<polygon fill="none" stroke="black" points="43.2,-827.2 43.2,-858 255.68,-858 255.68,-827.2 43.2,-827.2"/>
<text text-anchor="start" x="50.2" y="-839.4" font-family="Arial" font-size="14.00">post_id_desc    </text>
<text text-anchor="start" x="163.82" y="-839.4" font-family="Arial" font-size="14.00" fill="#666666">[bigint(20)]</text>
<polygon fill="none" stroke="black" points="43.2,-796.4 43.2,-827.2 255.68,-827.2 255.68,-796.4 43.2,-796.4"/>
<text text-anchor="start" x="50.2" y="-808.6" font-family="Arial" font-size="14.00">created    </text>
<text text-anchor="start" x="128.01" y="-808.6" font-family="Arial" font-size="14.00" fill="#666666">[datetime]</text>
<polygon fill="none" stroke="black" points="43.2,-765.6 43.2,-796.4 255.68,-796.4 255.68,-765.6 43.2,-765.6"/>
<text text-anchor="start" x="50.2" y="-777.8" font-family="Arial" font-size="14.00">updated    </text>
<text text-anchor="start" x="131.92" y="-777.8" font-family="Arial" font-size="14.00" fill="#666666">[datetime]</text>
</g>
<!-- comments&#45;&gt;posts -->
<g id="edge1" class="edge">
<title>comments:post_id&#45;&gt;posts:id</title>
<path fill="none" stroke="black" d="M266.5,-931.98C300.34,-908.81 279.13,-759.1 255.68,-722.4 235.37,-690.63 199.25,-718.11 178.86,-686.4 155.5,-650.06 134.66,-589.2 177.86,-589.2"/>
<polygon fill="black" stroke="black" points="266.55,-931.96 255.67,-930.6 261.46,-933.53 257.32,-934.8 257.32,-934.8 257.32,-934.8 261.46,-933.53 258.32,-939.2 266.55,-931.96"/>
<text text-anchor="start" x="263.68" y="-945" font-family="Arial" font-size="10.00">FOREIGN KEY (post_id) REFERENCES posts (id)</text>
</g>
<!-- logs -->
<g id="node3" class="node">
<title>logs</title>
<polygon fill="#efefef" stroke="none" points="360.12,-981.2 360.12,-1016.8 578.76,-1016.8 578.76,-981.2 360.12,-981.2"/>
<polygon fill="none" stroke="black" points="360.12,-981.2 360.12,-1016.8 578.76,-1016.8 578.76,-981.2 360.12,-981.2"/>
<text text-anchor="start" x="392.19" y="-994.6" font-family="Arial Bold" font-size="18.00">logs</text>
<text text-anchor="start" x="422.2" y="-994.6" font-family="Arial" font-size="14.00">    </text>
<text text-anchor="start" x="453.31" y="-994.6" font-family="Arial" font-size="14.00" fill="#666666">[BASE TABLE]</text>
<polygon fill="none" stroke="black" points="360.12,-950.4 360.12,-981.2 578.76,-981.2 578.76,-950.4 360.12,-950.4"/>
<text text-anchor="start" x="367.12" y="-962.6" font-family="Arial" font-size="14.00">id    </text>
<text text-anchor="start" x="409.13" y="-962.6" font-family="Arial" font-size="14.00" fill="#666666">[bigint(20)]</text>
<polygon fill="none" stroke="black" points="360.12,-919.6 360.12,-950.4 578.76,-950.4 578.76,-919.6 360.12,-919.6"/>
<text text-anchor="start" x="367.12" y="-931.8" font-family="Arial" font-size="14.00">user_id    </text>
<text text-anchor="start" x="444.15" y="-931.8" font-family="Arial" font-size="14.00" fill="#666666">[int(11)]</text>
<polygon fill="none" stroke="black" points="360.12,-888.8 360.12,-919.6 578.76,-919.6 578.76,-888.8 360.12,-888.8"/>
<text text-anchor="start" x="367.12" y="-901" font-family="Arial" font-size="14.00">post_id    </text>
<text text-anchor="start" x="443.38" y="-901" font-family="Arial" font-size="14.00" fill="#666666">[bigint(20)]</text>
<polygon fill="none" stroke="black" points="360.12,-858 360.12,-888.8 578.76,-888.8 578.76,-858 360.12,-858"/>
<text text-anchor="start" x="367.12" y="-870.2" font-family="Arial" font-size="14.00">comment_id    </text>
<text text-anchor="start" x="474.49" y="-870.2" font-family="Arial" font-size="14.00" fill="#666666">[bigint(20)]</text>
<polygon fill="none" stroke="black" points="360.12,-827.2 360.12,-858 578.76,-858 578.76,-827.2 360.12,-827.2"/>
<text text-anchor="start" x="367.12" y="-839.4" font-family="Arial" font-size="14.00">comment_star_id    </text>
<text text-anchor="start" x="505.61" y="-839.4" font-family="Arial" font-size="14.00" fill="#666666">[bigint(20)]</text>
<polygon fill="none" stroke="black" points="360.12,-796.4 360.12,-827.2 578.76,-827.2 578.76,-796.4 360.12,-796.4"/>
<text text-anchor="start" x="367.12" y="-808.6" font-family="Arial" font-size="14.00">payload    </text>
<text text-anchor="start" x="447.28" y="-808.6" font-family="Arial" font-size="14.00" fill="#666666">[text]</text>
<polygon fill="none" stroke="black" points="360.12,-765.6 360.12,-796.4 578.76,-796.4 578.76,-765.6 360.12,-765.6"/>
<text text-anchor="start" x="367.12" y="-777.8" font-family="Arial" font-size="14.00">created    </text>
<text text-anchor="start" x="444.93" y="-777.8" font-family="Arial" font-size="14.00" fill="#666666">[datetime]</text>
</g>
<!-- logs&#45;&gt;posts -->
<g id="edge2" class="edge">
<title>logs:post_id&#45;&gt;posts:id</title>
<path fill="none" stroke="black" stroke-dasharray="5,2" d="M348.94,-903.52C281.72,-894.05 318.05,-787.1 360.12,-722.4 381.35,-689.75 418.71,-719 440.01,-686.4 463.65,-650.24 484.22,-589.2 441.01,-589.2"/>
<polygon fill="black" stroke="black" points="348.81,-903.52 358.49,-908.67 354.13,-903.87 358.45,-904.16 358.45,-904.16 358.45,-904.16 354.13,-903.87 359.08,-899.69 348.81,-903.52"/>
<text text-anchor="start" x="268.73" y="-914.2" font-family="Arial" font-size="10.00">Additional Relation</text>
</g>
</g>
</svg>
