<?xml version="1.0" encoding="UTF-8" standalone="no"?>
<!DOCTYPE svg PUBLIC "-//W3C//DTD SVG 1.1//EN"
 "http://www.w3.org/Graphics/SVG/1.1/DTD/svg11.dtd">
<!-- Generated by graphviz version 12.1.2 (20240928.0832)
 -->
<!-- Title: same_name_constraints Pages: 1 -->
<svg width="450pt" height="540pt"
 viewBox="0.00 0.00 449.58 540.40" xmlns="http://www.w3.org/2000/svg" xmlns:xlink="http://www.w3.org/1999/xlink">
<g id="graph0" class="graph" transform="scale(1 1) rotate(0) translate(4 536.4)">
<title>same_name_constraints</title>
<polygon fill="white" stroke="none" points="-4,4 -4,-536.4 445.58,-536.4 445.58,4 -4,4"/>
<!-- same_name_constraints -->
<g id="node1" class="node">
<title>same_name_constraints</title>
<polygon fill="#efefef" stroke="none" points="84.94,-450.6 84.94,-486.2 395.38,-486.2 395.38,-450.6 84.94,-450.6"/>
<polygon fill="none" stroke="black" points="84.94,-450.6 84.94,-486.2 395.38,-486.2 395.38,-450.6 84.94,-450.6"/>
<text text-anchor="start" x="91.94" y="-464" font-family="Arial Bold" font-size="18.00">same_name_constraints</text>
<text text-anchor="start" x="263.89" y="-464" font-family="Arial" font-size="14.00">    </text>
<text text-anchor="start" x="295" y="-464" font-family="Arial" font-size="14.00" fill="#666666">[BASE TABLE]</text>
<polygon fill="none" stroke="black" points="84.94,-419.8 84.94,-450.6 395.38,-450.6 395.38,-419.8 84.94,-419.8"/>
<text text-anchor="start" x="91.94" y="-432" font-family="Arial" font-size="14.00">id </text>
<text text-anchor="start" x="106.72" y="-432" font-family="Arial" font-size="14.00" fill="#666666">[bigint(20)]</text>
<polygon fill="none" stroke="black" points="84.94,-389 84.94,-419.8 395.38,-419.8 395.38,-389 84.94,-389"/>
<text text-anchor="start" x="91.94" y="-401.2" font-family="Arial" font-size="14.00">user_id </text>
<text text-anchor="start" x="141.74" y="-401.2" font-family="Arial" font-size="14.00" fill="#666666">[int(11)]</text>
<polygon fill="none" stroke="black" stroke-width="3" points="83.44,-387.5 83.44,-487.7 396.88,-487.7 396.88,-387.5 83.44,-387.5"/>
</g>
<!-- users -->
<g id="node2" class="node">
<title>users</title>
<polygon fill="#efefef" stroke="none" points="146.79,-228 146.79,-263.6 333.52,-263.6 333.52,-228 146.79,-228"/>
<polygon fill="none" stroke="black" points="146.79,-228 146.79,-263.6 333.52,-263.6 333.52,-228 146.79,-228"/>
<text text-anchor="start" x="159.42" y="-241.4" font-family="Arial Bold" font-size="18.00">users</text>
<text text-anchor="start" x="196.41" y="-241.4" font-family="Arial" font-size="14.00">    </text>
<text text-anchor="start" x="227.53" y="-241.4" font-family="Arial" font-size="14.00" fill="#666666">[BASE TABLE]</text>
<polygon fill="none" stroke="black" points="146.79,-197.2 146.79,-228 333.52,-228 333.52,-197.2 146.79,-197.2"/>
<text text-anchor="start" x="153.79" y="-209.4" font-family="Arial" font-size="14.00">id    </text>
<text text-anchor="start" x="195.81" y="-209.4" font-family="Arial" font-size="14.00" fill="#666666">[int(11)]</text>
<polygon fill="none" stroke="black" points="146.79,-166.4 146.79,-197.2 333.52,-197.2 333.52,-166.4 146.79,-166.4"/>
<text text-anchor="start" x="153.79" y="-178.6" font-family="Arial" font-size="14.00">username    </text>
<text text-anchor="start" x="247.16" y="-178.6" font-family="Arial" font-size="14.00" fill="#666666">[varchar(50)]</text>
<polygon fill="none" stroke="black" points="146.79,-135.6 146.79,-166.4 333.52,-166.4 333.52,-135.6 146.79,-135.6"/>
<text text-anchor="start" x="153.79" y="-147.8" font-family="Arial" font-size="14.00">password    </text>
<text text-anchor="start" x="244.83" y="-147.8" font-family="Arial" font-size="14.00" fill="#666666">[varchar(50)]</text>
<polygon fill="none" stroke="black" points="146.79,-104.8 146.79,-135.6 333.52,-135.6 333.52,-104.8 146.79,-104.8"/>
<text text-anchor="start" x="153.79" y="-117" font-family="Arial" font-size="14.00">email    </text>
<text text-anchor="start" x="218.36" y="-117" font-family="Arial" font-size="14.00" fill="#666666">[varchar(355)]</text>
<polygon fill="none" stroke="black" points="146.79,-74 146.79,-104.8 333.52,-104.8 333.52,-74 146.79,-74"/>
<text text-anchor="start" x="153.79" y="-86.2" font-family="Arial" font-size="14.00">created    </text>
<text text-anchor="start" x="231.61" y="-86.2" font-family="Arial" font-size="14.00" fill="#666666">[timestamp]</text>
<polygon fill="none" stroke="black" points="146.79,-43.2 146.79,-74 333.52,-74 333.52,-43.2 146.79,-43.2"/>
<text text-anchor="start" x="153.79" y="-55.4" font-family="Arial" font-size="14.00">updated    </text>
<text text-anchor="start" x="235.52" y="-55.4" font-family="Arial" font-size="14.00" fill="#666666">[timestamp]</text>
</g>
<!-- same_name_constraints&#45;&gt;users -->
<g id="edge1" class="edge">
<title>same_name_constraints:user_id&#45;&gt;users:id</title>
<path fill="none" stroke="black" d="M241.11,-377.78C249.55,-335.9 312.03,-353.31 333.52,-306.8 351.08,-268.79 376.39,-212.6 334.52,-212.6"/>
<polygon fill="black" stroke="black" points="241.11,-377.71 235.71,-387.25 240.62,-383.02 240.22,-387.33 240.22,-387.33 240.22,-387.33 240.62,-383.02 244.67,-388.08 241.11,-377.71"/>
<text text-anchor="start" x="7" y="-398" font-family="Arial" font-size="10.00">FOREIGN KEY (user_id) REFERENCES users (id)</text>
</g>
</g>
</svg>
