<?xml version="1.0" encoding="UTF-8" standalone="no"?>
<!DOCTYPE svg PUBLIC "-//W3C//DTD SVG 1.1//EN"
 "http://www.w3.org/Graphics/SVG/1.1/DTD/svg11.dtd">
<!-- Generated by graphviz version 2.40.1 (20161225.0304)
 -->
<!-- Title: same_name_constraints Pages: 1 -->
<svg width="464pt" height="532pt"
 viewBox="0.00 0.00 463.50 532.00" xmlns="http://www.w3.org/2000/svg" xmlns:xlink="http://www.w3.org/1999/xlink">
<g id="graph0" class="graph" transform="scale(1 1) rotate(0) translate(4 528)">
<title>same_name_constraints</title>
<polygon fill="#ffffff" stroke="transparent" points="-4,4 -4,-528 459.5,-528 459.5,4 -4,4"/>
<!-- same_name_constraints -->
<g id="node1" class="node">
<title>same_name_constraints</title>
<polygon fill="#efefef" stroke="transparent" points="46.5,-442.5 46.5,-477.5 383.5,-477.5 383.5,-442.5 46.5,-442.5"/>
<polygon fill="none" stroke="#000000" points="46.5,-442.5 46.5,-477.5 383.5,-477.5 383.5,-442.5 46.5,-442.5"/>
<text text-anchor="start" x="53.1943" y="-455.3" font-family="Arial Bold" font-size="18.00" fill="#000000">same_name_constraints</text>
<text text-anchor="start" x="249.2377" y="-455.3" font-family="Arial" font-size="14.00" fill="#000000">    </text>
<text text-anchor="start" x="283.4425" y="-455.3" font-family="Arial" font-size="14.00" fill="#666666">[BASE TABLE]</text>
<polygon fill="none" stroke="#000000" points="46.5,-412.5 46.5,-442.5 383.5,-442.5 383.5,-412.5 46.5,-412.5"/>
<text text-anchor="start" x="53.5" y="-423.9" font-family="Arial" font-size="14.00" fill="#000000">id </text>
<text text-anchor="start" x="68.2798" y="-423.9" font-family="Arial" font-size="14.00" fill="#666666">[bigint(20)]</text>
<polygon fill="none" stroke="#000000" points="46.5,-382.5 46.5,-412.5 383.5,-412.5 383.5,-382.5 46.5,-382.5"/>
<text text-anchor="start" x="53.5" y="-393.9" font-family="Arial" font-size="14.00" fill="#000000">user_id </text>
<text text-anchor="start" x="103.2882" y="-393.9" font-family="Arial" font-size="14.00" fill="#666666">[int(11)]</text>
<polygon fill="none" stroke="#000000" stroke-width="3" points="44.5,-381.5 44.5,-479.5 384.5,-479.5 384.5,-381.5 44.5,-381.5"/>
</g>
<!-- users -->
<g id="node2" class="node">
<title>users</title>
<polygon fill="#efefef" stroke="transparent" points="120.5,-222.5 120.5,-257.5 309.5,-257.5 309.5,-222.5 120.5,-222.5"/>
<polygon fill="none" stroke="#000000" points="120.5,-222.5 120.5,-257.5 309.5,-257.5 309.5,-222.5 120.5,-222.5"/>
<text text-anchor="start" x="129.2137" y="-235.3" font-family="Arial Bold" font-size="18.00" fill="#000000">users</text>
<text text-anchor="start" x="173.2183" y="-235.3" font-family="Arial" font-size="14.00" fill="#000000">    </text>
<text text-anchor="start" x="207.4231" y="-235.3" font-family="Arial" font-size="14.00" fill="#666666">[BASE TABLE]</text>
<polygon fill="none" stroke="#000000" points="120.5,-192.5 120.5,-222.5 309.5,-222.5 309.5,-192.5 120.5,-192.5"/>
<text text-anchor="start" x="127.5" y="-203.9" font-family="Arial" font-size="14.00" fill="#000000">id    </text>
<text text-anchor="start" x="172.594" y="-203.9" font-family="Arial" font-size="14.00" fill="#666666">[int(11)]</text>
<polygon fill="none" stroke="#000000" points="120.5,-162.5 120.5,-192.5 309.5,-192.5 309.5,-162.5 120.5,-162.5"/>
<text text-anchor="start" x="127.1122" y="-173.9" font-family="Arial" font-size="14.00" fill="#000000">username    </text>
<text text-anchor="start" x="223.5512" y="-173.9" font-family="Arial" font-size="14.00" fill="#666666">[varchar(50)]</text>
<polygon fill="none" stroke="#000000" points="120.5,-132.5 120.5,-162.5 309.5,-162.5 309.5,-132.5 120.5,-132.5"/>
<text text-anchor="start" x="127.5" y="-143.9" font-family="Arial" font-size="14.00" fill="#000000">password    </text>
<text text-anchor="start" x="221.6024" y="-143.9" font-family="Arial" font-size="14.00" fill="#666666">[varchar(50)]</text>
<polygon fill="none" stroke="#000000" points="120.5,-102.5 120.5,-132.5 309.5,-132.5 309.5,-102.5 120.5,-102.5"/>
<text text-anchor="start" x="127.5" y="-113.9" font-family="Arial" font-size="14.00" fill="#000000">email    </text>
<text text-anchor="start" x="195.1438" y="-113.9" font-family="Arial" font-size="14.00" fill="#666666">[varchar(355)]</text>
<polygon fill="none" stroke="#000000" points="120.5,-72.5 120.5,-102.5 309.5,-102.5 309.5,-72.5 120.5,-72.5"/>
<text text-anchor="start" x="127.5" y="-83.9" font-family="Arial" font-size="14.00" fill="#000000">created    </text>
<text text-anchor="start" x="208.3864" y="-83.9" font-family="Arial" font-size="14.00" fill="#666666">[timestamp]</text>
<polygon fill="none" stroke="#000000" points="120.5,-42.5 120.5,-72.5 309.5,-72.5 309.5,-42.5 120.5,-42.5"/>
<text text-anchor="start" x="127.5" y="-53.9" font-family="Arial" font-size="14.00" fill="#000000">updated    </text>
<text text-anchor="start" x="212.291" y="-53.9" font-family="Arial" font-size="14.00" fill="#666666">[timestamp]</text>
</g>
<!-- same_name_constraints&#45;&gt;users -->
<g id="edge1" class="edge">
<title>same_name_constraints:user_id&#45;&gt;users:id</title>
<path fill="none" stroke="#000000" d="M214.5858,-372.4342C206.1827,-329.8151 142.1918,-348.1896 120.5,-301 103.1439,-263.2425 78.9444,-207.5 120.5,-207.5"/>
<polygon fill="#000000" stroke="#000000" points="214.5954,-372.541 211.0184,-382.9071 215.0477,-377.5205 215.5,-382.5 215.5,-382.5 215.5,-382.5 215.0477,-377.5205 219.9816,-382.0929 214.5954,-372.541 214.5954,-372.541"/>
<text text-anchor="start" x="222.445" y="-392.5" font-family="Arial" font-size="10.00" fill="#000000">FOREIGN KEY (user_id) REFERENCES users (id)</text>
</g>
</g>
</svg>
