<?xml version="1.0" encoding="UTF-8" standalone="no"?>
<!DOCTYPE svg PUBLIC "-//W3C//DTD SVG 1.1//EN"
 "http://www.w3.org/Graphics/SVG/1.1/DTD/svg11.dtd">
<!-- Generated by graphviz version 2.40.1 (20161225.0304)
 -->
<!-- Title: same_name_constraints Pages: 1 -->
<svg width="449pt" height="532pt"
 viewBox="0.00 0.00 448.50 532.00" xmlns="http://www.w3.org/2000/svg" xmlns:xlink="http://www.w3.org/1999/xlink">
<g id="graph0" class="graph" transform="scale(1 1) rotate(0) translate(4 528)">
<title>same_name_constraints</title>
<polygon fill="#ffffff" stroke="transparent" points="-4,4 -4,-528 444.5,-528 444.5,4 -4,4"/>
<!-- same_name_constraints -->
<g id="node1" class="node">
<title>same_name_constraints</title>
<polygon fill="#efefef" stroke="transparent" points="46.5,-442.5 46.5,-477.5 353.5,-477.5 353.5,-442.5 46.5,-442.5"/>
<polygon fill="none" stroke="#000000" points="46.5,-442.5 46.5,-477.5 353.5,-477.5 353.5,-442.5 46.5,-442.5"/>
<text text-anchor="start" x="53.3514" y="-455.3" font-family="Arial Bold" font-size="18.00" fill="#000000">same_name_constraints</text>
<text text-anchor="start" x="249.3948" y="-455.3" font-family="Arial" font-size="14.00" fill="#000000"> </text>
<text text-anchor="start" x="253.2854" y="-455.3" font-family="Arial" font-size="14.00" fill="#666666">[BASE TABLE]</text>
<polygon fill="none" stroke="#000000" points="46.5,-412.5 46.5,-442.5 353.5,-442.5 353.5,-412.5 46.5,-412.5"/>
<text text-anchor="start" x="53.5" y="-423.9" font-family="Arial" font-size="14.00" fill="#000000">id </text>
<text text-anchor="start" x="68.2798" y="-423.9" font-family="Arial" font-size="14.00" fill="#666666">[bigint(20)]</text>
<polygon fill="none" stroke="#000000" points="46.5,-382.5 46.5,-412.5 353.5,-412.5 353.5,-382.5 46.5,-382.5"/>
<text text-anchor="start" x="53.5" y="-393.9" font-family="Arial" font-size="14.00" fill="#000000">user_id </text>
<text text-anchor="start" x="103.2882" y="-393.9" font-family="Arial" font-size="14.00" fill="#666666">[int(11)]</text>
<polygon fill="none" stroke="#000000" stroke-width="3" points="44.5,-381.5 44.5,-479.5 354.5,-479.5 354.5,-381.5 44.5,-381.5"/>
</g>
<!-- users -->
<g id="node2" class="node">
<title>users</title>
<polygon fill="#efefef" stroke="transparent" points="120.5,-222.5 120.5,-257.5 279.5,-257.5 279.5,-222.5 120.5,-222.5"/>
<polygon fill="none" stroke="#000000" points="120.5,-222.5 120.5,-257.5 279.5,-257.5 279.5,-222.5 120.5,-222.5"/>
<text text-anchor="start" x="129.3708" y="-235.3" font-family="Arial Bold" font-size="18.00" fill="#000000">users</text>
<text text-anchor="start" x="173.3754" y="-235.3" font-family="Arial" font-size="14.00" fill="#000000"> </text>
<text text-anchor="start" x="177.266" y="-235.3" font-family="Arial" font-size="14.00" fill="#666666">[BASE TABLE]</text>
<polygon fill="none" stroke="#000000" points="120.5,-192.5 120.5,-222.5 279.5,-222.5 279.5,-192.5 120.5,-192.5"/>
<text text-anchor="start" x="127.5" y="-203.9" font-family="Arial" font-size="14.00" fill="#000000">id </text>
<text text-anchor="start" x="142.2798" y="-203.9" font-family="Arial" font-size="14.00" fill="#666666">[int(11)]</text>
<polygon fill="none" stroke="#000000" points="120.5,-162.5 120.5,-192.5 279.5,-192.5 279.5,-162.5 120.5,-162.5"/>
<text text-anchor="start" x="127.2693" y="-173.9" font-family="Arial" font-size="14.00" fill="#000000">username </text>
<text text-anchor="start" x="193.3941" y="-173.9" font-family="Arial" font-size="14.00" fill="#666666">[varchar(50)]</text>
<polygon fill="none" stroke="#000000" points="120.5,-132.5 120.5,-162.5 279.5,-162.5 279.5,-132.5 120.5,-132.5"/>
<text text-anchor="start" x="127.5" y="-143.9" font-family="Arial" font-size="14.00" fill="#000000">password </text>
<text text-anchor="start" x="191.2882" y="-143.9" font-family="Arial" font-size="14.00" fill="#666666">[varchar(50)]</text>
<polygon fill="none" stroke="#000000" points="120.5,-102.5 120.5,-132.5 279.5,-132.5 279.5,-102.5 120.5,-102.5"/>
<text text-anchor="start" x="127.5" y="-113.9" font-family="Arial" font-size="14.00" fill="#000000">email </text>
<text text-anchor="start" x="164.8296" y="-113.9" font-family="Arial" font-size="14.00" fill="#666666">[varchar(355)]</text>
<polygon fill="none" stroke="#000000" points="120.5,-72.5 120.5,-102.5 279.5,-102.5 279.5,-72.5 120.5,-72.5"/>
<text text-anchor="start" x="127.5" y="-83.9" font-family="Arial" font-size="14.00" fill="#000000">created </text>
<text text-anchor="start" x="178.0722" y="-83.9" font-family="Arial" font-size="14.00" fill="#666666">[timestamp]</text>
<polygon fill="none" stroke="#000000" points="120.5,-42.5 120.5,-72.5 279.5,-72.5 279.5,-42.5 120.5,-42.5"/>
<text text-anchor="start" x="127.5" y="-53.9" font-family="Arial" font-size="14.00" fill="#000000">updated </text>
<text text-anchor="start" x="181.9768" y="-53.9" font-family="Arial" font-size="14.00" fill="#666666">[timestamp]</text>
</g>
<!-- same_name_constraints&#45;&gt;users -->
<g id="edge1" class="edge">
<title>same_name_constraints:user_id&#45;&gt;users:id</title>
<path fill="none" stroke="#000000" d="M199.5372,-372.2526C191.7049,-333.8056 138.2804,-344.4958 120.5,-301 104.7758,-262.5342 78.9444,-207.5 120.5,-207.5"/>
<polygon fill="#000000" stroke="#000000" points="199.5645,-372.5438 196.0197,-382.921 200.0322,-377.5219 200.5,-382.5 200.5,-382.5 200.5,-382.5 200.0322,-377.5219 204.9803,-382.079 199.5645,-372.5438 199.5645,-372.5438"/>
<text text-anchor="start" x="207.445" y="-392.5" font-family="Arial" font-size="10.00" fill="#000000">FOREIGN KEY (user_id) REFERENCES users (id)</text>
</g>
</g>
</svg>
