<?xml version="1.0" encoding="UTF-8" standalone="no"?>
<!DOCTYPE svg PUBLIC "-//W3C//DTD SVG 1.1//EN"
 "http://www.w3.org/Graphics/SVG/1.1/DTD/svg11.dtd">
<!-- Generated by graphviz version 2.40.1 (20161225.0304)
 -->
<!-- Title: testdb Pages: 1 -->
<svg width="1575pt" height="1747pt"
 viewBox="0.00 0.00 1575.00 1747.00" xmlns="http://www.w3.org/2000/svg" xmlns:xlink="http://www.w3.org/1999/xlink">
<g id="graph0" class="graph" transform="scale(1 1) rotate(0) translate(4 1743)">
<title>testdb</title>
<polygon fill="#ffffff" stroke="transparent" points="-4,4 -4,-1743 1571,-1743 1571,4 -4,4"/>
<!-- CamelizeTable -->
<g id="node1" class="node">
<title>CamelizeTable</title>
<polygon fill="#efefef" stroke="transparent" points="164,-1585.5 164,-1620.5 425,-1620.5 425,-1585.5 164,-1585.5"/>
<polygon fill="none" stroke="#000000" points="164,-1585.5 164,-1620.5 425,-1620.5 425,-1585.5 164,-1585.5"/>
<text text-anchor="start" x="170.7148" y="-1598.3" font-family="Arial Bold" font-size="18.00" fill="#000000">CamelizeTable</text>
<text text-anchor="start" x="290.7172" y="-1598.3" font-family="Arial" font-size="14.00" fill="#000000">    </text>
<text text-anchor="start" x="324.922" y="-1598.3" font-family="Arial" font-size="14.00" fill="#666666">[BASE TABLE]</text>
<polygon fill="none" stroke="#000000" points="164,-1555.5 164,-1585.5 425,-1585.5 425,-1555.5 164,-1555.5"/>
<text text-anchor="start" x="171" y="-1566.9" font-family="Arial" font-size="14.00" fill="#000000">id    </text>
<text text-anchor="start" x="216.094" y="-1566.9" font-family="Arial" font-size="14.00" fill="#666666">[bigint(20)]</text>
<polygon fill="none" stroke="#000000" points="164,-1525.5 164,-1555.5 425,-1555.5 425,-1525.5 164,-1525.5"/>
<text text-anchor="start" x="171" y="-1536.9" font-family="Arial" font-size="14.00" fill="#000000">created    </text>
<text text-anchor="start" x="251.8864" y="-1536.9" font-family="Arial" font-size="14.00" fill="#666666">[datetime]</text>
</g>
<!-- comments -->
<g id="node2" class="node">
<title>comments</title>
<polygon fill="#efefef" stroke="transparent" points="364,-956.5 364,-991.5 588,-991.5 588,-956.5 364,-956.5"/>
<polygon fill="none" stroke="#000000" points="364,-956.5 364,-991.5 588,-991.5 588,-956.5 364,-956.5"/>
<text text-anchor="start" x="370.7134" y="-969.3" font-family="Arial Bold" font-size="18.00" fill="#000000">comments</text>
<text text-anchor="start" x="453.7186" y="-969.3" font-family="Arial" font-size="14.00" fill="#000000">    </text>
<text text-anchor="start" x="487.9234" y="-969.3" font-family="Arial" font-size="14.00" fill="#666666">[BASE TABLE]</text>
<polygon fill="none" stroke="#000000" points="364,-926.5 364,-956.5 588,-956.5 588,-926.5 364,-926.5"/>
<text text-anchor="start" x="371" y="-937.9" font-family="Arial" font-size="14.00" fill="#000000">id    </text>
<text text-anchor="start" x="416.094" y="-937.9" font-family="Arial" font-size="14.00" fill="#666666">[bigint(20)]</text>
<polygon fill="none" stroke="#000000" points="364,-896.5 364,-926.5 588,-926.5 588,-896.5 364,-896.5"/>
<text text-anchor="start" x="371" y="-907.9" font-family="Arial" font-size="14.00" fill="#000000">post_id    </text>
<text text-anchor="start" x="450.3324" y="-907.9" font-family="Arial" font-size="14.00" fill="#666666">[bigint(20)]</text>
<polygon fill="none" stroke="#000000" points="364,-866.5 364,-896.5 588,-896.5 588,-866.5 364,-866.5"/>
<text text-anchor="start" x="371" y="-877.9" font-family="Arial" font-size="14.00" fill="#000000">user_id    </text>
<text text-anchor="start" x="451.1024" y="-877.9" font-family="Arial" font-size="14.00" fill="#666666">[int(11)]</text>
<polygon fill="none" stroke="#000000" points="364,-836.5 364,-866.5 588,-866.5 588,-836.5 364,-836.5"/>
<text text-anchor="start" x="371" y="-847.9" font-family="Arial" font-size="14.00" fill="#000000">comment    </text>
<text text-anchor="start" x="462.7644" y="-847.9" font-family="Arial" font-size="14.00" fill="#666666">[text]</text>
<polygon fill="none" stroke="#000000" points="364,-806.5 364,-836.5 588,-836.5 588,-806.5 364,-806.5"/>
<text text-anchor="start" x="371" y="-817.9" font-family="Arial" font-size="14.00" fill="#000000">post_id_desc    </text>
<text text-anchor="start" x="487.6802" y="-817.9" font-family="Arial" font-size="14.00" fill="#666666">[bigint(20)]</text>
<polygon fill="none" stroke="#000000" points="364,-776.5 364,-806.5 588,-806.5 588,-776.5 364,-776.5"/>
<text text-anchor="start" x="371" y="-787.9" font-family="Arial" font-size="14.00" fill="#000000">created    </text>
<text text-anchor="start" x="451.8864" y="-787.9" font-family="Arial" font-size="14.00" fill="#666666">[datetime]</text>
<polygon fill="none" stroke="#000000" points="364,-746.5 364,-776.5 588,-776.5 588,-746.5 364,-746.5"/>
<text text-anchor="start" x="371" y="-757.9" font-family="Arial" font-size="14.00" fill="#000000">updated    </text>
<text text-anchor="start" x="455.791" y="-757.9" font-family="Arial" font-size="14.00" fill="#666666">[datetime]</text>
</g>
<!-- posts -->
<g id="node6" class="node">
<title>posts</title>
<polygon fill="#efefef" stroke="transparent" points="403,-589.5 403,-624.5 696,-624.5 696,-589.5 403,-589.5"/>
<polygon fill="none" stroke="#000000" points="403,-589.5 403,-624.5 696,-624.5 696,-589.5 403,-589.5"/>
<text text-anchor="start" x="464.2087" y="-602.3" font-family="Arial Bold" font-size="18.00" fill="#000000">posts</text>
<text text-anchor="start" x="507.2233" y="-602.3" font-family="Arial" font-size="14.00" fill="#000000">    </text>
<text text-anchor="start" x="541.4281" y="-602.3" font-family="Arial" font-size="14.00" fill="#666666">[BASE TABLE]</text>
<polygon fill="none" stroke="#000000" points="403,-559.5 403,-589.5 696,-589.5 696,-559.5 403,-559.5"/>
<text text-anchor="start" x="410" y="-570.9" font-family="Arial" font-size="14.00" fill="#000000">id    </text>
<text text-anchor="start" x="455.094" y="-570.9" font-family="Arial" font-size="14.00" fill="#666666">[bigint(20)]</text>
<polygon fill="none" stroke="#000000" points="403,-529.5 403,-559.5 696,-559.5 696,-529.5 403,-529.5"/>
<text text-anchor="start" x="410" y="-540.9" font-family="Arial" font-size="14.00" fill="#000000">user_id    </text>
<text text-anchor="start" x="490.1024" y="-540.9" font-family="Arial" font-size="14.00" fill="#666666">[int(11)]</text>
<polygon fill="none" stroke="#000000" points="403,-499.5 403,-529.5 696,-529.5 696,-499.5 403,-499.5"/>
<text text-anchor="start" x="410" y="-510.9" font-family="Arial" font-size="14.00" fill="#000000">title    </text>
<text text-anchor="start" x="465.9818" y="-510.9" font-family="Arial" font-size="14.00" fill="#666666">[varchar(255)]</text>
<polygon fill="none" stroke="#000000" points="403,-469.5 403,-499.5 696,-499.5 696,-469.5 403,-469.5"/>
<text text-anchor="start" x="410" y="-480.9" font-family="Arial" font-size="14.00" fill="#000000">body    </text>
<text text-anchor="start" x="474.5526" y="-480.9" font-family="Arial" font-size="14.00" fill="#666666">[text]</text>
<polygon fill="none" stroke="#000000" points="403,-439.5 403,-469.5 696,-469.5 696,-439.5 403,-439.5"/>
<text text-anchor="start" x="409.5399" y="-450.9" font-family="Arial" font-size="14.00" fill="#000000">post_type    </text>
<text text-anchor="start" x="504.4389" y="-450.9" font-family="Arial" font-size="14.00" fill="#666666">[enum(&#39;public&#39;,&#39;private&#39;,&#39;draft&#39;)]</text>
<polygon fill="none" stroke="#000000" points="403,-409.5 403,-439.5 696,-439.5 696,-409.5 403,-409.5"/>
<text text-anchor="start" x="410" y="-420.9" font-family="Arial" font-size="14.00" fill="#000000">created    </text>
<text text-anchor="start" x="490.8864" y="-420.9" font-family="Arial" font-size="14.00" fill="#666666">[datetime]</text>
<polygon fill="none" stroke="#000000" points="403,-379.5 403,-409.5 696,-409.5 696,-379.5 403,-379.5"/>
<text text-anchor="start" x="410" y="-390.9" font-family="Arial" font-size="14.00" fill="#000000">updated    </text>
<text text-anchor="start" x="494.791" y="-390.9" font-family="Arial" font-size="14.00" fill="#666666">[datetime]</text>
</g>
<!-- comments&#45;&gt;posts -->
<g id="edge1" class="edge">
<title>comments:post_id&#45;&gt;posts:id</title>
<path fill="none" stroke="#000000" d="M597.6796,-908.4991C631.412,-885.4702 615.0355,-736.8035 588,-704 534.7259,-639.3597 456.2741,-732.6403 403,-668 376.5707,-635.932 361.4444,-574.5 403,-574.5"/>
<polygon fill="#000000" stroke="#000000" points="597.5515,-908.5388 586.6674,-907.2018 592.7758,-910.0194 588,-911.5 588,-911.5 588,-911.5 592.7758,-910.0194 589.3326,-915.7982 597.5515,-908.5388 597.5515,-908.5388"/>
<text text-anchor="start" x="595.495" y="-921.5" font-family="Arial" font-size="10.00" fill="#000000">FOREIGN KEY (post_id) REFERENCES posts (id)</text>
</g>
<!-- users -->
<g id="node9" class="node">
<title>users</title>
<polygon fill="#efefef" stroke="transparent" points="563,-222.5 563,-257.5 752,-257.5 752,-222.5 563,-222.5"/>
<polygon fill="none" stroke="#000000" points="563,-222.5 563,-257.5 752,-257.5 752,-222.5 563,-222.5"/>
<text text-anchor="start" x="571.7137" y="-235.3" font-family="Arial Bold" font-size="18.00" fill="#000000">users</text>
<text text-anchor="start" x="615.7183" y="-235.3" font-family="Arial" font-size="14.00" fill="#000000">    </text>
<text text-anchor="start" x="649.9231" y="-235.3" font-family="Arial" font-size="14.00" fill="#666666">[BASE TABLE]</text>
<polygon fill="none" stroke="#000000" points="563,-192.5 563,-222.5 752,-222.5 752,-192.5 563,-192.5"/>
<text text-anchor="start" x="570" y="-203.9" font-family="Arial" font-size="14.00" fill="#000000">id    </text>
<text text-anchor="start" x="615.094" y="-203.9" font-family="Arial" font-size="14.00" fill="#666666">[int(11)]</text>
<polygon fill="none" stroke="#000000" points="563,-162.5 563,-192.5 752,-192.5 752,-162.5 563,-162.5"/>
<text text-anchor="start" x="569.6122" y="-173.9" font-family="Arial" font-size="14.00" fill="#000000">username    </text>
<text text-anchor="start" x="666.0512" y="-173.9" font-family="Arial" font-size="14.00" fill="#666666">[varchar(50)]</text>
<polygon fill="none" stroke="#000000" points="563,-132.5 563,-162.5 752,-162.5 752,-132.5 563,-132.5"/>
<text text-anchor="start" x="570" y="-143.9" font-family="Arial" font-size="14.00" fill="#000000">password    </text>
<text text-anchor="start" x="664.1024" y="-143.9" font-family="Arial" font-size="14.00" fill="#666666">[varchar(50)]</text>
<polygon fill="none" stroke="#000000" points="563,-102.5 563,-132.5 752,-132.5 752,-102.5 563,-102.5"/>
<text text-anchor="start" x="570" y="-113.9" font-family="Arial" font-size="14.00" fill="#000000">email    </text>
<text text-anchor="start" x="637.6438" y="-113.9" font-family="Arial" font-size="14.00" fill="#666666">[varchar(355)]</text>
<polygon fill="none" stroke="#000000" points="563,-72.5 563,-102.5 752,-102.5 752,-72.5 563,-72.5"/>
<text text-anchor="start" x="570" y="-83.9" font-family="Arial" font-size="14.00" fill="#000000">created    </text>
<text text-anchor="start" x="650.8864" y="-83.9" font-family="Arial" font-size="14.00" fill="#666666">[timestamp]</text>
<polygon fill="none" stroke="#000000" points="563,-42.5 563,-72.5 752,-72.5 752,-42.5 563,-42.5"/>
<text text-anchor="start" x="570" y="-53.9" font-family="Arial" font-size="14.00" fill="#000000">updated    </text>
<text text-anchor="start" x="654.791" y="-53.9" font-family="Arial" font-size="14.00" fill="#666666">[timestamp]</text>
</g>
<!-- comments&#45;&gt;users -->
<g id="edge2" class="edge">
<title>comments:user_id&#45;&gt;users:id</title>
<path fill="none" stroke="#000000" d="M356.3722,-874.7063C324.4682,-816.1888 315.7414,-397.9219 350,-337 404.304,-240.4314 452.21,-207.5 563,-207.5"/>
<polygon fill="#000000" stroke="#000000" points="356.5324,-874.849 361.0071,-884.8604 360.2662,-878.1745 364,-881.5 364,-881.5 364,-881.5 360.2662,-878.1745 366.9929,-878.1396 356.5324,-874.849 356.5324,-874.849"/>
<text text-anchor="start" x="130.945" y="-891.5" font-family="Arial" font-size="10.00" fill="#000000">FOREIGN KEY (user_id) REFERENCES users (id)</text>
</g>
<!-- comment_stars -->
<g id="node3" class="node">
<title>comment_stars</title>
<polygon fill="#efefef" stroke="transparent" points="286,-1293.5 286,-1328.5 550,-1328.5 550,-1293.5 286,-1293.5"/>
<polygon fill="none" stroke="#000000" points="286,-1293.5 286,-1328.5 550,-1328.5 550,-1293.5 286,-1293.5"/>
<text text-anchor="start" x="292.71" y="-1306.3" font-family="Arial Bold" font-size="18.00" fill="#000000">comment_stars</text>
<text text-anchor="start" x="415.722" y="-1306.3" font-family="Arial" font-size="14.00" fill="#000000">    </text>
<text text-anchor="start" x="449.9268" y="-1306.3" font-family="Arial" font-size="14.00" fill="#666666">[BASE TABLE]</text>
<polygon fill="none" stroke="#000000" points="286,-1263.5 286,-1293.5 550,-1293.5 550,-1263.5 286,-1263.5"/>
<text text-anchor="start" x="293" y="-1274.9" font-family="Arial" font-size="14.00" fill="#000000">id    </text>
<text text-anchor="start" x="338.094" y="-1274.9" font-family="Arial" font-size="14.00" fill="#666666">[bigint(20)]</text>
<polygon fill="none" stroke="#000000" points="286,-1233.5 286,-1263.5 550,-1263.5 550,-1233.5 286,-1233.5"/>
<text text-anchor="start" x="293" y="-1244.9" font-family="Arial" font-size="14.00" fill="#000000">user_id    </text>
<text text-anchor="start" x="373.1024" y="-1244.9" font-family="Arial" font-size="14.00" fill="#666666">[int(11)]</text>
<polygon fill="none" stroke="#000000" points="286,-1203.5 286,-1233.5 550,-1233.5 550,-1203.5 286,-1203.5"/>
<text text-anchor="start" x="293" y="-1214.9" font-family="Arial" font-size="14.00" fill="#000000">comment_post_id    </text>
<text text-anchor="start" x="437.6746" y="-1214.9" font-family="Arial" font-size="14.00" fill="#666666">[bigint(20)]</text>
<polygon fill="none" stroke="#000000" points="286,-1173.5 286,-1203.5 550,-1203.5 550,-1173.5 286,-1173.5"/>
<text text-anchor="start" x="293" y="-1184.9" font-family="Arial" font-size="14.00" fill="#000000">comment_user_id    </text>
<text text-anchor="start" x="438.4446" y="-1184.9" font-family="Arial" font-size="14.00" fill="#666666">[int(11)]</text>
<polygon fill="none" stroke="#000000" points="286,-1143.5 286,-1173.5 550,-1173.5 550,-1143.5 286,-1143.5"/>
<text text-anchor="start" x="293" y="-1154.9" font-family="Arial" font-size="14.00" fill="#000000">created    </text>
<text text-anchor="start" x="373.8864" y="-1154.9" font-family="Arial" font-size="14.00" fill="#666666">[timestamp]</text>
<polygon fill="none" stroke="#000000" points="286,-1113.5 286,-1143.5 550,-1143.5 550,-1113.5 286,-1113.5"/>
<text text-anchor="start" x="293" y="-1124.9" font-family="Arial" font-size="14.00" fill="#000000">updated    </text>
<text text-anchor="start" x="377.791" y="-1124.9" font-family="Arial" font-size="14.00" fill="#666666">[timestamp]</text>
</g>
<!-- comment_stars&#45;&gt;comments -->
<g id="edge4" class="edge">
<title>comment_stars:comment_post_id&#45;&gt;comments:post_id</title>
<path fill="none" stroke="#000000" d="M559.9649,-1217.6537C612.8949,-1208.0367 589.4372,-1118.8021 550,-1071 496.4157,-1006.0501 417.5843,-1099.9499 364,-1035 329.0694,-992.6604 309.1111,-911.5 364,-911.5"/>
<polygon fill="#000000" stroke="#000000" points="559.9641,-1217.6537 549.6192,-1214.0161 554.9821,-1218.0769 550,-1218.5 550,-1218.5 550,-1218.5 554.9821,-1218.0769 550.3808,-1222.9839 559.9641,-1217.6537 559.9641,-1217.6537"/>
<text text-anchor="start" x="557.1435" y="-1228.5" font-family="Arial" font-size="10.00" fill="#000000">FOREIGN KEY (comment_post_id, comment_user_id) REFERENCES comments (post_id, user_id)</text>
</g>
<!-- comment_stars&#45;&gt;users -->
<g id="edge3" class="edge">
<title>comment_stars:comment_user_id&#45;&gt;users:id</title>
<path fill="none" stroke="#000000" d="M275.8387,-1188.3323C-162.8449,-1173.7071 113.381,-207.5 563,-207.5"/>
<polygon fill="#000000" stroke="#000000" points="276.0014,-1188.3349 285.9257,-1192.9994 281.0007,-1188.4174 286,-1188.5 286,-1188.5 286,-1188.5 281.0007,-1188.4174 286.0743,-1184.0006 276.0014,-1188.3349 276.0014,-1188.3349"/>
<text text-anchor="start" x="6.6085" y="-1198.5" font-family="Arial" font-size="10.00" fill="#000000">FOREIGN KEY (comment_user_id) REFERENCES users (id)</text>
</g>
<!-- hyphen&#45;table -->
<g id="node4" class="node">
<title>hyphen&#45;table</title>
<polygon fill="#efefef" stroke="transparent" points="854,-1600.5 854,-1635.5 1099,-1635.5 1099,-1600.5 854,-1600.5"/>
<polygon fill="none" stroke="#000000" points="854,-1600.5 854,-1635.5 1099,-1635.5 1099,-1600.5 854,-1600.5"/>
<text text-anchor="start" x="860.6969" y="-1613.3" font-family="Arial Bold" font-size="18.00" fill="#000000">hyphen&#45;table</text>
<text text-anchor="start" x="964.7351" y="-1613.3" font-family="Arial" font-size="14.00" fill="#000000">    </text>
<text text-anchor="start" x="998.9399" y="-1613.3" font-family="Arial" font-size="14.00" fill="#666666">[BASE TABLE]</text>
<polygon fill="none" stroke="#000000" points="854,-1570.5 854,-1600.5 1099,-1600.5 1099,-1570.5 854,-1570.5"/>
<text text-anchor="start" x="861" y="-1581.9" font-family="Arial" font-size="14.00" fill="#000000">id    </text>
<text text-anchor="start" x="906.094" y="-1581.9" font-family="Arial" font-size="14.00" fill="#666666">[bigint(20)]</text>
<polygon fill="none" stroke="#000000" points="854,-1540.5 854,-1570.5 1099,-1570.5 1099,-1540.5 854,-1540.5"/>
<text text-anchor="start" x="861" y="-1551.9" font-family="Arial" font-size="14.00" fill="#000000">hyphen&#45;column    </text>
<text text-anchor="start" x="990.8934" y="-1551.9" font-family="Arial" font-size="14.00" fill="#666666">[text]</text>
<polygon fill="none" stroke="#000000" points="854,-1510.5 854,-1540.5 1099,-1540.5 1099,-1510.5 854,-1510.5"/>
<text text-anchor="start" x="861" y="-1521.9" font-family="Arial" font-size="14.00" fill="#000000">created    </text>
<text text-anchor="start" x="941.8864" y="-1521.9" font-family="Arial" font-size="14.00" fill="#666666">[datetime]</text>
</g>
<!-- logs -->
<g id="node5" class="node">
<title>logs</title>
<polygon fill="#efefef" stroke="transparent" points="529,-1660.5 529,-1695.5 750,-1695.5 750,-1660.5 529,-1660.5"/>
<polygon fill="none" stroke="#000000" points="529,-1660.5 529,-1695.5 750,-1695.5 750,-1660.5 529,-1660.5"/>
<text text-anchor="start" x="559.2127" y="-1673.3" font-family="Arial Bold" font-size="18.00" fill="#000000">logs</text>
<text text-anchor="start" x="592.2193" y="-1673.3" font-family="Arial" font-size="14.00" fill="#000000">    </text>
<text text-anchor="start" x="626.4241" y="-1673.3" font-family="Arial" font-size="14.00" fill="#666666">[BASE TABLE]</text>
<polygon fill="none" stroke="#000000" points="529,-1630.5 529,-1660.5 750,-1660.5 750,-1630.5 529,-1630.5"/>
<text text-anchor="start" x="536" y="-1641.9" font-family="Arial" font-size="14.00" fill="#000000">id    </text>
<text text-anchor="start" x="581.094" y="-1641.9" font-family="Arial" font-size="14.00" fill="#666666">[bigint(20)]</text>
<polygon fill="none" stroke="#000000" points="529,-1600.5 529,-1630.5 750,-1630.5 750,-1600.5 529,-1600.5"/>
<text text-anchor="start" x="536" y="-1611.9" font-family="Arial" font-size="14.00" fill="#000000">user_id    </text>
<text text-anchor="start" x="616.1024" y="-1611.9" font-family="Arial" font-size="14.00" fill="#666666">[int(11)]</text>
<polygon fill="none" stroke="#000000" points="529,-1570.5 529,-1600.5 750,-1600.5 750,-1570.5 529,-1570.5"/>
<text text-anchor="start" x="536" y="-1581.9" font-family="Arial" font-size="14.00" fill="#000000">post_id    </text>
<text text-anchor="start" x="615.3324" y="-1581.9" font-family="Arial" font-size="14.00" fill="#666666">[bigint(20)]</text>
<polygon fill="none" stroke="#000000" points="529,-1540.5 529,-1570.5 750,-1570.5 750,-1540.5 529,-1540.5"/>
<text text-anchor="start" x="536" y="-1551.9" font-family="Arial" font-size="14.00" fill="#000000">comment_id    </text>
<text text-anchor="start" x="646.4362" y="-1551.9" font-family="Arial" font-size="14.00" fill="#666666">[bigint(20)]</text>
<polygon fill="none" stroke="#000000" points="529,-1510.5 529,-1540.5 750,-1540.5 750,-1510.5 529,-1510.5"/>
<text text-anchor="start" x="535.6641" y="-1521.9" font-family="Arial" font-size="14.00" fill="#000000">comment_star_id    </text>
<text text-anchor="start" x="677.2167" y="-1521.9" font-family="Arial" font-size="14.00" fill="#666666">[bigint(20)]</text>
<polygon fill="none" stroke="#000000" points="529,-1480.5 529,-1510.5 750,-1510.5 750,-1480.5 529,-1480.5"/>
<text text-anchor="start" x="536" y="-1491.9" font-family="Arial" font-size="14.00" fill="#000000">payload    </text>
<text text-anchor="start" x="619.2244" y="-1491.9" font-family="Arial" font-size="14.00" fill="#666666">[text]</text>
<polygon fill="none" stroke="#000000" points="529,-1450.5 529,-1480.5 750,-1480.5 750,-1450.5 529,-1450.5"/>
<text text-anchor="start" x="536" y="-1461.9" font-family="Arial" font-size="14.00" fill="#000000">created    </text>
<text text-anchor="start" x="616.8864" y="-1461.9" font-family="Arial" font-size="14.00" fill="#666666">[datetime]</text>
</g>
<!-- logs&#45;&gt;comments -->
<g id="edge10" class="edge">
<title>logs:comment_id&#45;&gt;comments:id</title>
<path fill="none" stroke="#000000" stroke-dasharray="5,2" d="M518.7725,-1554.6394C466.9609,-1545.2134 496.3431,-1460.5168 529,-1408 548.1029,-1377.2799 582.8971,-1402.7201 602,-1372 627.2725,-1331.3583 635.8586,-941.5 588,-941.5"/>
<polygon fill="#000000" stroke="#000000" points="519.0352,-1554.6615 528.6227,-1559.9842 524.0176,-1555.0807 529,-1555.5 529,-1555.5 529,-1555.5 524.0176,-1555.0807 529.3773,-1551.0158 519.0352,-1554.6615 519.0352,-1554.6615"/>
<text text-anchor="start" x="439.3245" y="-1565.5" font-family="Arial" font-size="10.00" fill="#000000">Additional Relation</text>
</g>
<!-- logs&#45;&gt;comment_stars -->
<g id="edge11" class="edge">
<title>logs:comment_star_id&#45;&gt;comment_stars:id</title>
<path fill="none" stroke="#000000" stroke-dasharray="5,2" d="M518.8258,-1524.4256C482.369,-1515.6335 516.3826,-1454.6709 529,-1408 533.8342,-1390.1187 545.1658,-1389.8813 550,-1372 560.8452,-1331.8846 591.5556,-1278.5 550,-1278.5"/>
<polygon fill="#000000" stroke="#000000" points="519.0553,-1524.4498 528.5274,-1529.9751 524.0276,-1524.9749 529,-1525.5 529,-1525.5 529,-1525.5 524.0276,-1524.9749 529.4726,-1521.0249 519.0553,-1524.4498 519.0553,-1524.4498"/>
<text text-anchor="start" x="439.3245" y="-1535.5" font-family="Arial" font-size="10.00" fill="#000000">Additional Relation</text>
</g>
<!-- logs&#45;&gt;posts -->
<g id="edge9" class="edge">
<title>logs:post_id&#45;&gt;posts:id</title>
<path fill="none" stroke="#000000" stroke-dasharray="5,2" d="M760.0941,-1584.8619C821.8944,-1576.2949 752.4319,-1483.1516 750,-1408 748.4992,-1361.6216 742.4026,-574.5 696,-574.5"/>
<polygon fill="#000000" stroke="#000000" points="759.9801,-1584.869 749.7161,-1581.009 754.99,-1585.1845 750,-1585.5 750,-1585.5 750,-1585.5 754.99,-1585.1845 750.2839,-1589.991 759.9801,-1584.869 759.9801,-1584.869"/>
<text text-anchor="start" x="757.3245" y="-1595.5" font-family="Arial" font-size="10.00" fill="#000000">Additional Relation</text>
</g>
<!-- logs&#45;&gt;users -->
<g id="edge8" class="edge">
<title>logs:user_id&#45;&gt;users:id</title>
<path fill="none" stroke="#000000" stroke-dasharray="5,2" d="M751.7509,-1605.3702C762.214,-1478.7426 759.9859,-207.5 752,-207.5"/>
<polygon fill="#000000" stroke="#000000" points="751.7033,-1605.6461 745.5657,-1614.7335 750.8516,-1610.5731 750,-1615.5 750,-1615.5 750,-1615.5 750.8516,-1610.5731 754.4343,-1616.2665 751.7033,-1605.6461 751.7033,-1605.6461"/>
<text text-anchor="start" x="757.024" y="-1625.5" font-family="Arial" font-size="10.00" fill="#000000">logs&#45;&gt;users</text>
</g>
<!-- posts&#45;&gt;users -->
<g id="edge5" class="edge">
<title>posts:user_id&#45;&gt;users:id</title>
<path fill="none" stroke="#000000" d="M706.226,-543.897C785.3658,-534.1038 749.8589,-407.3753 696,-337 658.7823,-288.3691 600.2177,-349.6309 563,-301 537.7445,-267.9996 521.4444,-207.5 563,-207.5"/>
<polygon fill="#000000" stroke="#000000" points="705.9827,-543.9113 695.7351,-540.0078 700.9913,-544.2056 696,-544.5 696,-544.5 696,-544.5 700.9913,-544.2056 696.2649,-548.9922 705.9827,-543.9113 705.9827,-543.9113"/>
<text text-anchor="start" x="642.945" y="-528.5" font-family="Arial" font-size="10.00" fill="#000000">FOREIGN KEY (user_id) REFERENCES users (id)</text>
</g>
<!-- post_comments -->
<g id="node7" class="node">
<title>post_comments</title>
<polygon fill="#efefef" stroke="transparent" points="1203,-1660.5 1203,-1695.5 1423,-1695.5 1423,-1660.5 1203,-1660.5"/>
<polygon fill="none" stroke="#000000" points="1203,-1660.5 1203,-1695.5 1423,-1695.5 1423,-1660.5 1203,-1660.5"/>
<text text-anchor="start" x="1210.6048" y="-1673.3" font-family="Arial Bold" font-size="18.00" fill="#000000">post_comments</text>
<text text-anchor="start" x="1337.6308" y="-1673.3" font-family="Arial" font-size="14.00" fill="#000000">    </text>
<text text-anchor="start" x="1371.8356" y="-1673.3" font-family="Arial" font-size="14.00" fill="#666666">[VIEW]</text>
<polygon fill="none" stroke="#000000" points="1203,-1630.5 1203,-1660.5 1423,-1660.5 1423,-1630.5 1203,-1630.5"/>
<text text-anchor="start" x="1210" y="-1641.9" font-family="Arial" font-size="14.00" fill="#000000">id    </text>
<text text-anchor="start" x="1255.094" y="-1641.9" font-family="Arial" font-size="14.00" fill="#666666">[bigint(20)]</text>
<polygon fill="none" stroke="#000000" points="1203,-1600.5 1203,-1630.5 1423,-1630.5 1423,-1600.5 1203,-1600.5"/>
<text text-anchor="start" x="1210" y="-1611.9" font-family="Arial" font-size="14.00" fill="#000000">title    </text>
<text text-anchor="start" x="1265.9818" y="-1611.9" font-family="Arial" font-size="14.00" fill="#666666">[varchar(255)]</text>
<polygon fill="none" stroke="#000000" points="1203,-1570.5 1203,-1600.5 1423,-1600.5 1423,-1570.5 1203,-1570.5"/>
<text text-anchor="start" x="1210" y="-1581.9" font-family="Arial" font-size="14.00" fill="#000000">post_user    </text>
<text text-anchor="start" x="1305.669" y="-1581.9" font-family="Arial" font-size="14.00" fill="#666666">[varchar(50)]</text>
<polygon fill="none" stroke="#000000" points="1203,-1540.5 1203,-1570.5 1423,-1570.5 1423,-1540.5 1203,-1540.5"/>
<text text-anchor="start" x="1210" y="-1551.9" font-family="Arial" font-size="14.00" fill="#000000">comment    </text>
<text text-anchor="start" x="1301.7644" y="-1551.9" font-family="Arial" font-size="14.00" fill="#666666">[text]</text>
<polygon fill="none" stroke="#000000" points="1203,-1510.5 1203,-1540.5 1423,-1540.5 1423,-1510.5 1203,-1510.5"/>
<text text-anchor="start" x="1209.9453" y="-1521.9" font-family="Arial" font-size="14.00" fill="#000000">comment_user    </text>
<text text-anchor="start" x="1336.7181" y="-1521.9" font-family="Arial" font-size="14.00" fill="#666666">[varchar(50)]</text>
<polygon fill="none" stroke="#000000" points="1203,-1480.5 1203,-1510.5 1423,-1510.5 1423,-1480.5 1203,-1480.5"/>
<text text-anchor="start" x="1210" y="-1491.9" font-family="Arial" font-size="14.00" fill="#000000">created    </text>
<text text-anchor="start" x="1290.8864" y="-1491.9" font-family="Arial" font-size="14.00" fill="#666666">[datetime]</text>
<polygon fill="none" stroke="#000000" points="1203,-1450.5 1203,-1480.5 1423,-1480.5 1423,-1450.5 1203,-1450.5"/>
<text text-anchor="start" x="1210" y="-1461.9" font-family="Arial" font-size="14.00" fill="#000000">updated    </text>
<text text-anchor="start" x="1294.791" y="-1461.9" font-family="Arial" font-size="14.00" fill="#666666">[datetime]</text>
</g>
<!-- same_name_constraints -->
<g id="node8" class="node">
<title>same_name_constraints</title>
<polygon fill="#efefef" stroke="transparent" points="839,-514.5 839,-549.5 1176,-549.5 1176,-514.5 839,-514.5"/>
<polygon fill="none" stroke="#000000" points="839,-514.5 839,-549.5 1176,-549.5 1176,-514.5 839,-514.5"/>
<text text-anchor="start" x="845.6943" y="-527.3" font-family="Arial Bold" font-size="18.00" fill="#000000">same_name_constraints</text>
<text text-anchor="start" x="1041.7377" y="-527.3" font-family="Arial" font-size="14.00" fill="#000000">    </text>
<text text-anchor="start" x="1075.9425" y="-527.3" font-family="Arial" font-size="14.00" fill="#666666">[BASE TABLE]</text>
<polygon fill="none" stroke="#000000" points="839,-484.5 839,-514.5 1176,-514.5 1176,-484.5 839,-484.5"/>
<text text-anchor="start" x="846" y="-495.9" font-family="Arial" font-size="14.00" fill="#000000">id    </text>
<text text-anchor="start" x="891.094" y="-495.9" font-family="Arial" font-size="14.00" fill="#666666">[bigint(20)]</text>
<polygon fill="none" stroke="#000000" points="839,-454.5 839,-484.5 1176,-484.5 1176,-454.5 839,-454.5"/>
<text text-anchor="start" x="846" y="-465.9" font-family="Arial" font-size="14.00" fill="#000000">user_id    </text>
<text text-anchor="start" x="926.1024" y="-465.9" font-family="Arial" font-size="14.00" fill="#666666">[int(11)]</text>
</g>
<!-- same_name_constraints&#45;&gt;users -->
<g id="edge6" class="edge">
<title>same_name_constraints:user_id&#45;&gt;users:id</title>
<path fill="none" stroke="#000000" d="M828.9258,-468.8385C725.3431,-454.3733 871.1018,-207.5 752,-207.5"/>
<polygon fill="#000000" stroke="#000000" points="829.0215,-468.8447 838.7051,-473.9903 834.0107,-469.1724 839,-469.5 839,-469.5 839,-469.5 834.0107,-469.1724 839.2949,-465.0097 829.0215,-468.8447 829.0215,-468.8447"/>
<text text-anchor="start" x="605.945" y="-479.5" font-family="Arial" font-size="10.00" fill="#000000">FOREIGN KEY (user_id) REFERENCES users (id)</text>
</g>
<!-- user_options -->
<g id="node10" class="node">
<title>user_options</title>
<polygon fill="#efefef" stroke="transparent" points="1280,-544.5 1280,-579.5 1524,-579.5 1524,-544.5 1280,-544.5"/>
<polygon fill="none" stroke="#000000" points="1280,-544.5 1280,-579.5 1524,-579.5 1524,-544.5 1280,-544.5"/>
<text text-anchor="start" x="1286.7" y="-557.3" font-family="Arial Bold" font-size="18.00" fill="#000000">user_options</text>
<text text-anchor="start" x="1389.732" y="-557.3" font-family="Arial" font-size="14.00" fill="#000000">    </text>
<text text-anchor="start" x="1423.9368" y="-557.3" font-family="Arial" font-size="14.00" fill="#666666">[BASE TABLE]</text>
<polygon fill="none" stroke="#000000" points="1280,-514.5 1280,-544.5 1524,-544.5 1524,-514.5 1280,-514.5"/>
<text text-anchor="start" x="1287" y="-525.9" font-family="Arial" font-size="14.00" fill="#000000">user_id    </text>
<text text-anchor="start" x="1367.1024" y="-525.9" font-family="Arial" font-size="14.00" fill="#666666">[int(11)]</text>
<polygon fill="none" stroke="#000000" points="1280,-484.5 1280,-514.5 1524,-514.5 1524,-484.5 1280,-484.5"/>
<text text-anchor="start" x="1287" y="-495.9" font-family="Arial" font-size="14.00" fill="#000000">show_email    </text>
<text text-anchor="start" x="1395.0982" y="-495.9" font-family="Arial" font-size="14.00" fill="#666666">[tinyint(1)]</text>
<polygon fill="none" stroke="#000000" points="1280,-454.5 1280,-484.5 1524,-484.5 1524,-454.5 1280,-454.5"/>
<text text-anchor="start" x="1287" y="-465.9" font-family="Arial" font-size="14.00" fill="#000000">created    </text>
<text text-anchor="start" x="1367.8864" y="-465.9" font-family="Arial" font-size="14.00" fill="#666666">[timestamp]</text>
<polygon fill="none" stroke="#000000" points="1280,-424.5 1280,-454.5 1524,-454.5 1524,-424.5 1280,-424.5"/>
<text text-anchor="start" x="1287" y="-435.9" font-family="Arial" font-size="14.00" fill="#000000">updated    </text>
<text text-anchor="start" x="1371.791" y="-435.9" font-family="Arial" font-size="14.00" fill="#666666">[timestamp]</text>
</g>
<!-- user_options&#45;&gt;users -->
<g id="edge7" class="edge">
<title>user_options:user_id&#45;&gt;users:id</title>
<path fill="none" stroke="#000000" d="M1270.0193,-528.8586C1199.2457,-518.9669 1288.041,-397.149 1228,-337 1150.5548,-259.4156 861.6225,-207.5 752,-207.5"/>
<polygon fill="#000000" stroke="#000000" points="1270.0206,-528.8586 1279.7114,-533.9907 1275.0103,-529.1793 1280,-529.5 1280,-529.5 1280,-529.5 1275.0103,-529.1793 1280.2886,-525.0093 1270.0206,-528.8586 1270.0206,-528.8586"/>
<text text-anchor="start" x="1226.945" y="-513.5" font-family="Arial" font-size="10.00" fill="#000000">FOREIGN KEY (user_id) REFERENCES users (id)</text>
</g>
</g>
</svg>
