<?xml version="1.0" encoding="UTF-8" standalone="no"?>
<!DOCTYPE svg PUBLIC "-//W3C//DTD SVG 1.1//EN"
 "http://www.w3.org/Graphics/SVG/1.1/DTD/svg11.dtd">
<!-- Generated by graphviz version 2.40.1 (20161225.0304)
 -->
<!-- Title: testdb Pages: 1 -->
<svg width="1545pt" height="1747pt"
 viewBox="0.00 0.00 1545.00 1747.00" xmlns="http://www.w3.org/2000/svg" xmlns:xlink="http://www.w3.org/1999/xlink">
<g id="graph0" class="graph" transform="scale(1 1) rotate(0) translate(4 1743)">
<title>testdb</title>
<polygon fill="#ffffff" stroke="transparent" points="-4,4 -4,-1743 1541,-1743 1541,4 -4,4"/>
<!-- CamelizeTable -->
<g id="node1" class="node">
<title>CamelizeTable</title>
<polygon fill="#efefef" stroke="transparent" points="179,-1585.5 179,-1620.5 440,-1620.5 440,-1585.5 179,-1585.5"/>
<polygon fill="none" stroke="#000000" points="179,-1585.5 179,-1620.5 440,-1620.5 440,-1585.5 179,-1585.5"/>
<text text-anchor="start" x="185.7148" y="-1598.3" font-family="Arial Bold" font-size="18.00" fill="#000000">CamelizeTable</text>
<text text-anchor="start" x="305.7172" y="-1598.3" font-family="Arial" font-size="14.00" fill="#000000">    </text>
<text text-anchor="start" x="339.922" y="-1598.3" font-family="Arial" font-size="14.00" fill="#666666">[BASE TABLE]</text>
<polygon fill="none" stroke="#000000" points="179,-1555.5 179,-1585.5 440,-1585.5 440,-1555.5 179,-1555.5"/>
<text text-anchor="start" x="186" y="-1566.9" font-family="Arial" font-size="14.00" fill="#000000">id </text>
<text text-anchor="start" x="200.7798" y="-1566.9" font-family="Arial" font-size="14.00" fill="#666666">[bigint(20)]</text>
<polygon fill="none" stroke="#000000" points="179,-1525.5 179,-1555.5 440,-1555.5 440,-1525.5 179,-1525.5"/>
<text text-anchor="start" x="186" y="-1536.9" font-family="Arial" font-size="14.00" fill="#000000">created </text>
<text text-anchor="start" x="236.5722" y="-1536.9" font-family="Arial" font-size="14.00" fill="#666666">[datetime]</text>
</g>
<!-- comments -->
<g id="node2" class="node">
<title>comments</title>
<polygon fill="#efefef" stroke="transparent" points="364,-956.5 364,-991.5 588,-991.5 588,-956.5 364,-956.5"/>
<polygon fill="none" stroke="#000000" points="364,-956.5 364,-991.5 588,-991.5 588,-956.5 364,-956.5"/>
<text text-anchor="start" x="370.7134" y="-969.3" font-family="Arial Bold" font-size="18.00" fill="#000000">comments</text>
<text text-anchor="start" x="453.7186" y="-969.3" font-family="Arial" font-size="14.00" fill="#000000">    </text>
<text text-anchor="start" x="487.9234" y="-969.3" font-family="Arial" font-size="14.00" fill="#666666">[BASE TABLE]</text>
<polygon fill="none" stroke="#000000" points="364,-926.5 364,-956.5 588,-956.5 588,-926.5 364,-926.5"/>
<text text-anchor="start" x="371" y="-937.9" font-family="Arial" font-size="14.00" fill="#000000">id </text>
<text text-anchor="start" x="385.7798" y="-937.9" font-family="Arial" font-size="14.00" fill="#666666">[bigint(20)]</text>
<polygon fill="none" stroke="#000000" points="364,-896.5 364,-926.5 588,-926.5 588,-896.5 364,-896.5"/>
<text text-anchor="start" x="371" y="-907.9" font-family="Arial" font-size="14.00" fill="#000000">post_id </text>
<text text-anchor="start" x="420.0182" y="-907.9" font-family="Arial" font-size="14.00" fill="#666666">[bigint(20)]</text>
<polygon fill="none" stroke="#000000" points="364,-866.5 364,-896.5 588,-896.5 588,-866.5 364,-866.5"/>
<text text-anchor="start" x="371" y="-877.9" font-family="Arial" font-size="14.00" fill="#000000">user_id </text>
<text text-anchor="start" x="420.7882" y="-877.9" font-family="Arial" font-size="14.00" fill="#666666">[int(11)]</text>
<polygon fill="none" stroke="#000000" points="364,-836.5 364,-866.5 588,-866.5 588,-836.5 364,-836.5"/>
<text text-anchor="start" x="371" y="-847.9" font-family="Arial" font-size="14.00" fill="#000000">comment </text>
<text text-anchor="start" x="432.4502" y="-847.9" font-family="Arial" font-size="14.00" fill="#666666">[text]</text>
<polygon fill="none" stroke="#000000" points="364,-806.5 364,-836.5 588,-836.5 588,-806.5 364,-806.5"/>
<text text-anchor="start" x="371" y="-817.9" font-family="Arial" font-size="14.00" fill="#000000">post_id_desc </text>
<text text-anchor="start" x="457.366" y="-817.9" font-family="Arial" font-size="14.00" fill="#666666">[bigint(20)]</text>
<polygon fill="none" stroke="#000000" points="364,-776.5 364,-806.5 588,-806.5 588,-776.5 364,-776.5"/>
<text text-anchor="start" x="371" y="-787.9" font-family="Arial" font-size="14.00" fill="#000000">created </text>
<text text-anchor="start" x="421.5722" y="-787.9" font-family="Arial" font-size="14.00" fill="#666666">[datetime]</text>
<polygon fill="none" stroke="#000000" points="364,-746.5 364,-776.5 588,-776.5 588,-746.5 364,-746.5"/>
<text text-anchor="start" x="371" y="-757.9" font-family="Arial" font-size="14.00" fill="#000000">updated </text>
<text text-anchor="start" x="425.4768" y="-757.9" font-family="Arial" font-size="14.00" fill="#666666">[datetime]</text>
</g>
<!-- posts -->
<g id="node6" class="node">
<title>posts</title>
<polygon fill="#efefef" stroke="transparent" points="403,-589.5 403,-624.5 666,-624.5 666,-589.5 403,-589.5"/>
<polygon fill="none" stroke="#000000" points="403,-589.5 403,-624.5 666,-624.5 666,-589.5 403,-589.5"/>
<text text-anchor="start" x="449.2087" y="-602.3" font-family="Arial Bold" font-size="18.00" fill="#000000">posts</text>
<text text-anchor="start" x="492.2233" y="-602.3" font-family="Arial" font-size="14.00" fill="#000000">    </text>
<text text-anchor="start" x="526.4281" y="-602.3" font-family="Arial" font-size="14.00" fill="#666666">[BASE TABLE]</text>
<polygon fill="none" stroke="#000000" points="403,-559.5 403,-589.5 666,-589.5 666,-559.5 403,-559.5"/>
<text text-anchor="start" x="410" y="-570.9" font-family="Arial" font-size="14.00" fill="#000000">id </text>
<text text-anchor="start" x="424.7798" y="-570.9" font-family="Arial" font-size="14.00" fill="#666666">[bigint(20)]</text>
<polygon fill="none" stroke="#000000" points="403,-529.5 403,-559.5 666,-559.5 666,-529.5 403,-529.5"/>
<text text-anchor="start" x="410" y="-540.9" font-family="Arial" font-size="14.00" fill="#000000">user_id </text>
<text text-anchor="start" x="459.7882" y="-540.9" font-family="Arial" font-size="14.00" fill="#666666">[int(11)]</text>
<polygon fill="none" stroke="#000000" points="403,-499.5 403,-529.5 666,-529.5 666,-499.5 403,-499.5"/>
<text text-anchor="start" x="410" y="-510.9" font-family="Arial" font-size="14.00" fill="#000000">title </text>
<text text-anchor="start" x="435.6676" y="-510.9" font-family="Arial" font-size="14.00" fill="#666666">[varchar(255)]</text>
<polygon fill="none" stroke="#000000" points="403,-469.5 403,-499.5 666,-499.5 666,-469.5 403,-469.5"/>
<text text-anchor="start" x="410" y="-480.9" font-family="Arial" font-size="14.00" fill="#000000">body </text>
<text text-anchor="start" x="444.2384" y="-480.9" font-family="Arial" font-size="14.00" fill="#666666">[text]</text>
<polygon fill="none" stroke="#000000" points="403,-439.5 403,-469.5 666,-469.5 666,-439.5 403,-439.5"/>
<text text-anchor="start" x="409.697" y="-450.9" font-family="Arial" font-size="14.00" fill="#000000">post_type </text>
<text text-anchor="start" x="474.2818" y="-450.9" font-family="Arial" font-size="14.00" fill="#666666">[enum(&#39;public&#39;,&#39;private&#39;,&#39;draft&#39;)]</text>
<polygon fill="none" stroke="#000000" points="403,-409.5 403,-439.5 666,-439.5 666,-409.5 403,-409.5"/>
<text text-anchor="start" x="410" y="-420.9" font-family="Arial" font-size="14.00" fill="#000000">created </text>
<text text-anchor="start" x="460.5722" y="-420.9" font-family="Arial" font-size="14.00" fill="#666666">[datetime]</text>
<polygon fill="none" stroke="#000000" points="403,-379.5 403,-409.5 666,-409.5 666,-379.5 403,-379.5"/>
<text text-anchor="start" x="410" y="-390.9" font-family="Arial" font-size="14.00" fill="#000000">updated </text>
<text text-anchor="start" x="464.4768" y="-390.9" font-family="Arial" font-size="14.00" fill="#666666">[datetime]</text>
</g>
<!-- comments&#45;&gt;posts -->
<g id="edge1" class="edge">
<title>comments:post_id&#45;&gt;posts:id</title>
<path fill="none" stroke="#000000" d="M597.6796,-908.4991C631.412,-885.4702 615.0355,-736.8035 588,-704 534.7259,-639.3597 456.2741,-732.6403 403,-668 376.5707,-635.932 361.4444,-574.5 403,-574.5"/>
<polygon fill="#000000" stroke="#000000" points="597.5515,-908.5388 586.6674,-907.2018 592.7758,-910.0194 588,-911.5 588,-911.5 588,-911.5 592.7758,-910.0194 589.3326,-915.7982 597.5515,-908.5388 597.5515,-908.5388"/>
<text text-anchor="start" x="595.495" y="-921.5" font-family="Arial" font-size="10.00" fill="#000000">FOREIGN KEY (post_id) REFERENCES posts (id)</text>
</g>
<!-- users -->
<g id="node9" class="node">
<title>users</title>
<polygon fill="#efefef" stroke="transparent" points="543,-222.5 543,-257.5 728,-257.5 728,-222.5 543,-222.5"/>
<polygon fill="none" stroke="#000000" points="543,-222.5 543,-257.5 728,-257.5 728,-222.5 543,-222.5"/>
<text text-anchor="start" x="549.7137" y="-235.3" font-family="Arial Bold" font-size="18.00" fill="#000000">users</text>
<text text-anchor="start" x="593.7183" y="-235.3" font-family="Arial" font-size="14.00" fill="#000000">    </text>
<text text-anchor="start" x="627.9231" y="-235.3" font-family="Arial" font-size="14.00" fill="#666666">[BASE TABLE]</text>
<polygon fill="none" stroke="#000000" points="543,-192.5 543,-222.5 728,-222.5 728,-192.5 543,-192.5"/>
<text text-anchor="start" x="550" y="-203.9" font-family="Arial" font-size="14.00" fill="#000000">id </text>
<text text-anchor="start" x="564.7798" y="-203.9" font-family="Arial" font-size="14.00" fill="#666666">[int(11)]</text>
<polygon fill="none" stroke="#000000" points="543,-162.5 543,-192.5 728,-192.5 728,-162.5 543,-162.5"/>
<text text-anchor="start" x="550" y="-173.9" font-family="Arial" font-size="14.00" fill="#000000">username </text>
<text text-anchor="start" x="616.1248" y="-173.9" font-family="Arial" font-size="14.00" fill="#666666">[varchar(50)]</text>
<polygon fill="none" stroke="#000000" points="543,-132.5 543,-162.5 728,-162.5 728,-132.5 543,-132.5"/>
<text text-anchor="start" x="550" y="-143.9" font-family="Arial" font-size="14.00" fill="#000000">password </text>
<text text-anchor="start" x="613.7882" y="-143.9" font-family="Arial" font-size="14.00" fill="#666666">[varchar(50)]</text>
<polygon fill="none" stroke="#000000" points="543,-102.5 543,-132.5 728,-132.5 728,-102.5 543,-102.5"/>
<text text-anchor="start" x="550" y="-113.9" font-family="Arial" font-size="14.00" fill="#000000">email </text>
<text text-anchor="start" x="587.3296" y="-113.9" font-family="Arial" font-size="14.00" fill="#666666">[varchar(355)]</text>
<polygon fill="none" stroke="#000000" points="543,-72.5 543,-102.5 728,-102.5 728,-72.5 543,-72.5"/>
<text text-anchor="start" x="550" y="-83.9" font-family="Arial" font-size="14.00" fill="#000000">created </text>
<text text-anchor="start" x="600.5722" y="-83.9" font-family="Arial" font-size="14.00" fill="#666666">[timestamp]</text>
<polygon fill="none" stroke="#000000" points="543,-42.5 543,-72.5 728,-72.5 728,-42.5 543,-42.5"/>
<text text-anchor="start" x="550" y="-53.9" font-family="Arial" font-size="14.00" fill="#000000">updated </text>
<text text-anchor="start" x="604.4768" y="-53.9" font-family="Arial" font-size="14.00" fill="#666666">[timestamp]</text>
</g>
<!-- comments&#45;&gt;users -->
<g id="edge2" class="edge">
<title>comments:user_id&#45;&gt;users:id</title>
<path fill="none" stroke="#000000" d="M356.6229,-874.7063C325.7815,-816.1888 317.5124,-397.9219 350,-337 398.6061,-245.8522 439.702,-207.5 543,-207.5"/>
<polygon fill="#000000" stroke="#000000" points="356.644,-874.7258 360.9516,-884.8102 360.322,-878.1129 364,-881.5 364,-881.5 364,-881.5 360.322,-878.1129 367.0484,-878.1898 356.644,-874.7258 356.644,-874.7258"/>
<text text-anchor="start" x="130.945" y="-891.5" font-family="Arial" font-size="10.00" fill="#000000">FOREIGN KEY (user_id) REFERENCES users (id)</text>
</g>
<!-- comment_stars -->
<g id="node3" class="node">
<title>comment_stars</title>
<polygon fill="#efefef" stroke="transparent" points="286,-1293.5 286,-1328.5 550,-1328.5 550,-1293.5 286,-1293.5"/>
<polygon fill="none" stroke="#000000" points="286,-1293.5 286,-1328.5 550,-1328.5 550,-1293.5 286,-1293.5"/>
<text text-anchor="start" x="292.71" y="-1306.3" font-family="Arial Bold" font-size="18.00" fill="#000000">comment_stars</text>
<text text-anchor="start" x="415.722" y="-1306.3" font-family="Arial" font-size="14.00" fill="#000000">    </text>
<text text-anchor="start" x="449.9268" y="-1306.3" font-family="Arial" font-size="14.00" fill="#666666">[BASE TABLE]</text>
<polygon fill="none" stroke="#000000" points="286,-1263.5 286,-1293.5 550,-1293.5 550,-1263.5 286,-1263.5"/>
<text text-anchor="start" x="293" y="-1274.9" font-family="Arial" font-size="14.00" fill="#000000">id </text>
<text text-anchor="start" x="307.7798" y="-1274.9" font-family="Arial" font-size="14.00" fill="#666666">[bigint(20)]</text>
<polygon fill="none" stroke="#000000" points="286,-1233.5 286,-1263.5 550,-1263.5 550,-1233.5 286,-1233.5"/>
<text text-anchor="start" x="293" y="-1244.9" font-family="Arial" font-size="14.00" fill="#000000">user_id </text>
<text text-anchor="start" x="342.7882" y="-1244.9" font-family="Arial" font-size="14.00" fill="#666666">[int(11)]</text>
<polygon fill="none" stroke="#000000" points="286,-1203.5 286,-1233.5 550,-1233.5 550,-1203.5 286,-1203.5"/>
<text text-anchor="start" x="293" y="-1214.9" font-family="Arial" font-size="14.00" fill="#000000">comment_post_id </text>
<text text-anchor="start" x="407.3604" y="-1214.9" font-family="Arial" font-size="14.00" fill="#666666">[bigint(20)]</text>
<polygon fill="none" stroke="#000000" points="286,-1173.5 286,-1203.5 550,-1203.5 550,-1173.5 286,-1173.5"/>
<text text-anchor="start" x="293" y="-1184.9" font-family="Arial" font-size="14.00" fill="#000000">comment_user_id </text>
<text text-anchor="start" x="408.1304" y="-1184.9" font-family="Arial" font-size="14.00" fill="#666666">[int(11)]</text>
<polygon fill="none" stroke="#000000" points="286,-1143.5 286,-1173.5 550,-1173.5 550,-1143.5 286,-1143.5"/>
<text text-anchor="start" x="293" y="-1154.9" font-family="Arial" font-size="14.00" fill="#000000">created </text>
<text text-anchor="start" x="343.5722" y="-1154.9" font-family="Arial" font-size="14.00" fill="#666666">[timestamp]</text>
<polygon fill="none" stroke="#000000" points="286,-1113.5 286,-1143.5 550,-1143.5 550,-1113.5 286,-1113.5"/>
<text text-anchor="start" x="293" y="-1124.9" font-family="Arial" font-size="14.00" fill="#000000">updated </text>
<text text-anchor="start" x="347.4768" y="-1124.9" font-family="Arial" font-size="14.00" fill="#666666">[timestamp]</text>
</g>
<!-- comment_stars&#45;&gt;comments -->
<g id="edge4" class="edge">
<title>comment_stars:comment_post_id&#45;&gt;comments:post_id</title>
<path fill="none" stroke="#000000" d="M559.9649,-1217.6537C612.8949,-1208.0367 589.4372,-1118.8021 550,-1071 496.4157,-1006.0501 417.5843,-1099.9499 364,-1035 329.0694,-992.6604 309.1111,-911.5 364,-911.5"/>
<polygon fill="#000000" stroke="#000000" points="559.9641,-1217.6537 549.6192,-1214.0161 554.9821,-1218.0769 550,-1218.5 550,-1218.5 550,-1218.5 554.9821,-1218.0769 550.3808,-1222.9839 559.9641,-1217.6537 559.9641,-1217.6537"/>
<text text-anchor="start" x="557.1435" y="-1228.5" font-family="Arial" font-size="10.00" fill="#000000">FOREIGN KEY (comment_post_id, comment_user_id) REFERENCES comments (post_id, user_id)</text>
</g>
<!-- comment_stars&#45;&gt;users -->
<g id="edge3" class="edge">
<title>comment_stars:comment_user_id&#45;&gt;users:id</title>
<path fill="none" stroke="#000000" d="M276.4055,-1185.3651C214.0991,-1149.435 41.3299,-808.0509 326,-337 384.0902,-240.8766 430.6872,-207.5 543,-207.5"/>
<polygon fill="#000000" stroke="#000000" points="276.4945,-1185.3941 284.6023,-1192.7775 281.2473,-1186.9471 286,-1188.5 286,-1188.5 286,-1188.5 281.2473,-1186.9471 287.3977,-1184.2225 276.4945,-1185.3941 276.4945,-1185.3941"/>
<text text-anchor="start" x="6.6085" y="-1198.5" font-family="Arial" font-size="10.00" fill="#000000">FOREIGN KEY (comment_user_id) REFERENCES users (id)</text>
</g>
<!-- hyphen&#45;table -->
<g id="node4" class="node">
<title>hyphen&#45;table</title>
<polygon fill="#efefef" stroke="transparent" points="839,-1600.5 839,-1635.5 1084,-1635.5 1084,-1600.5 839,-1600.5"/>
<polygon fill="none" stroke="#000000" points="839,-1600.5 839,-1635.5 1084,-1635.5 1084,-1600.5 839,-1600.5"/>
<text text-anchor="start" x="845.6969" y="-1613.3" font-family="Arial Bold" font-size="18.00" fill="#000000">hyphen&#45;table</text>
<text text-anchor="start" x="949.7351" y="-1613.3" font-family="Arial" font-size="14.00" fill="#000000">    </text>
<text text-anchor="start" x="983.9399" y="-1613.3" font-family="Arial" font-size="14.00" fill="#666666">[BASE TABLE]</text>
<polygon fill="none" stroke="#000000" points="839,-1570.5 839,-1600.5 1084,-1600.5 1084,-1570.5 839,-1570.5"/>
<text text-anchor="start" x="846" y="-1581.9" font-family="Arial" font-size="14.00" fill="#000000">id </text>
<text text-anchor="start" x="860.7798" y="-1581.9" font-family="Arial" font-size="14.00" fill="#666666">[bigint(20)]</text>
<polygon fill="none" stroke="#000000" points="839,-1540.5 839,-1570.5 1084,-1570.5 1084,-1540.5 839,-1540.5"/>
<text text-anchor="start" x="846" y="-1551.9" font-family="Arial" font-size="14.00" fill="#000000">hyphen&#45;column </text>
<text text-anchor="start" x="945.5792" y="-1551.9" font-family="Arial" font-size="14.00" fill="#666666">[text]</text>
<polygon fill="none" stroke="#000000" points="839,-1510.5 839,-1540.5 1084,-1540.5 1084,-1510.5 839,-1510.5"/>
<text text-anchor="start" x="846" y="-1521.9" font-family="Arial" font-size="14.00" fill="#000000">created </text>
<text text-anchor="start" x="896.5722" y="-1521.9" font-family="Arial" font-size="14.00" fill="#666666">[datetime]</text>
</g>
<!-- logs -->
<g id="node5" class="node">
<title>logs</title>
<polygon fill="#efefef" stroke="transparent" points="544,-1660.5 544,-1695.5 735,-1695.5 735,-1660.5 544,-1660.5"/>
<polygon fill="none" stroke="#000000" points="544,-1660.5 544,-1695.5 735,-1695.5 735,-1660.5 544,-1660.5"/>
<text text-anchor="start" x="559.2127" y="-1673.3" font-family="Arial Bold" font-size="18.00" fill="#000000">logs</text>
<text text-anchor="start" x="592.2193" y="-1673.3" font-family="Arial" font-size="14.00" fill="#000000">    </text>
<text text-anchor="start" x="626.4241" y="-1673.3" font-family="Arial" font-size="14.00" fill="#666666">[BASE TABLE]</text>
<polygon fill="none" stroke="#000000" points="544,-1630.5 544,-1660.5 735,-1660.5 735,-1630.5 544,-1630.5"/>
<text text-anchor="start" x="551" y="-1641.9" font-family="Arial" font-size="14.00" fill="#000000">id </text>
<text text-anchor="start" x="565.7798" y="-1641.9" font-family="Arial" font-size="14.00" fill="#666666">[bigint(20)]</text>
<polygon fill="none" stroke="#000000" points="544,-1600.5 544,-1630.5 735,-1630.5 735,-1600.5 544,-1600.5"/>
<text text-anchor="start" x="551" y="-1611.9" font-family="Arial" font-size="14.00" fill="#000000">user_id </text>
<text text-anchor="start" x="600.7882" y="-1611.9" font-family="Arial" font-size="14.00" fill="#666666">[int(11)]</text>
<polygon fill="none" stroke="#000000" points="544,-1570.5 544,-1600.5 735,-1600.5 735,-1570.5 544,-1570.5"/>
<text text-anchor="start" x="551" y="-1581.9" font-family="Arial" font-size="14.00" fill="#000000">post_id </text>
<text text-anchor="start" x="600.0182" y="-1581.9" font-family="Arial" font-size="14.00" fill="#666666">[bigint(20)]</text>
<polygon fill="none" stroke="#000000" points="544,-1540.5 544,-1570.5 735,-1570.5 735,-1540.5 544,-1540.5"/>
<text text-anchor="start" x="551" y="-1551.9" font-family="Arial" font-size="14.00" fill="#000000">comment_id </text>
<text text-anchor="start" x="631.122" y="-1551.9" font-family="Arial" font-size="14.00" fill="#666666">[bigint(20)]</text>
<polygon fill="none" stroke="#000000" points="544,-1510.5 544,-1540.5 735,-1540.5 735,-1510.5 544,-1510.5"/>
<text text-anchor="start" x="550.8212" y="-1521.9" font-family="Arial" font-size="14.00" fill="#000000">comment_star_id </text>
<text text-anchor="start" x="662.0596" y="-1521.9" font-family="Arial" font-size="14.00" fill="#666666">[bigint(20)]</text>
<polygon fill="none" stroke="#000000" points="544,-1480.5 544,-1510.5 735,-1510.5 735,-1480.5 544,-1480.5"/>
<text text-anchor="start" x="551" y="-1491.9" font-family="Arial" font-size="14.00" fill="#000000">payload </text>
<text text-anchor="start" x="603.9102" y="-1491.9" font-family="Arial" font-size="14.00" fill="#666666">[text]</text>
<polygon fill="none" stroke="#000000" points="544,-1450.5 544,-1480.5 735,-1480.5 735,-1450.5 544,-1450.5"/>
<text text-anchor="start" x="551" y="-1461.9" font-family="Arial" font-size="14.00" fill="#000000">created </text>
<text text-anchor="start" x="601.5722" y="-1461.9" font-family="Arial" font-size="14.00" fill="#666666">[datetime]</text>
</g>
<!-- logs&#45;&gt;comments -->
<g id="edge10" class="edge">
<title>logs:comment_id&#45;&gt;comments:id</title>
<path fill="none" stroke="#000000" stroke-dasharray="5,2" d="M533.7975,-1554.6541C482.2547,-1545.3863 513.9368,-1462.0434 544,-1408 558.7489,-1381.4865 587.2511,-1398.5135 602,-1372 667.0329,-1255.0931 609.1998,-1204.5839 602,-1071 598.8844,-1013.193 645.8909,-941.5 588,-941.5"/>
<polygon fill="#000000" stroke="#000000" points="534.0342,-1554.6737 543.6282,-1559.9846 539.0171,-1555.0868 544,-1555.5 544,-1555.5 544,-1555.5 539.0171,-1555.0868 544.3718,-1551.0154 534.0342,-1554.6737 534.0342,-1554.6737"/>
<text text-anchor="start" x="454.3245" y="-1565.5" font-family="Arial" font-size="10.00" fill="#000000">Additional Relation</text>
</g>
<!-- logs&#45;&gt;comment_stars -->
<g id="edge11" class="edge">
<title>logs:comment_star_id&#45;&gt;comment_stars:id</title>
<path fill="none" stroke="#000000" stroke-dasharray="5,2" d="M533.9945,-1524.7501C483.0451,-1516.2051 544.6767,-1436.3207 550,-1372 553.4275,-1330.586 591.5556,-1278.5 550,-1278.5"/>
<polygon fill="#000000" stroke="#000000" points="534.028,-1524.7525 543.6636,-1529.9874 539.014,-1525.1262 544,-1525.5 544,-1525.5 544,-1525.5 539.014,-1525.1262 544.3364,-1521.0126 534.028,-1524.7525 534.028,-1524.7525"/>
<text text-anchor="start" x="454.3245" y="-1535.5" font-family="Arial" font-size="10.00" fill="#000000">Additional Relation</text>
</g>
<!-- logs&#45;&gt;posts -->
<g id="edge9" class="edge">
<title>logs:post_id&#45;&gt;posts:id</title>
<path fill="none" stroke="#000000" stroke-dasharray="5,2" d="M745.1575,-1584.8558C807.7955,-1576.2075 747.0443,-1482.2201 735,-1408 732.2984,-1391.3523 726.2936,-1388.5408 723,-1372 705.6512,-1284.8733 754.8372,-574.5 666,-574.5"/>
<polygon fill="#000000" stroke="#000000" points="744.9799,-1584.8669 734.7151,-1581.009 739.99,-1585.1835 735,-1585.5 735,-1585.5 735,-1585.5 739.99,-1585.1835 735.2849,-1589.991 744.9799,-1584.8669 744.9799,-1584.8669"/>
<text text-anchor="start" x="742.3245" y="-1595.5" font-family="Arial" font-size="10.00" fill="#000000">Additional Relation</text>
</g>
<!-- logs&#45;&gt;users -->
<g id="edge8" class="edge">
<title>logs:user_id&#45;&gt;users:id</title>
<path fill="none" stroke="#000000" stroke-dasharray="5,2" d="M737.6763,-1605.757C753.8423,-1481.3569 746.6009,-207.5 728,-207.5"/>
<polygon fill="#000000" stroke="#000000" points="737.6489,-1605.8572 730.6607,-1614.308 736.3244,-1610.6786 735,-1615.5 735,-1615.5 735,-1615.5 736.3244,-1610.6786 739.3393,-1616.692 737.6489,-1605.8572 737.6489,-1605.8572"/>
<text text-anchor="start" x="742.024" y="-1625.5" font-family="Arial" font-size="10.00" fill="#000000">logs&#45;&gt;users</text>
</g>
<!-- posts&#45;&gt;users -->
<g id="edge5" class="edge">
<title>posts:user_id&#45;&gt;users:id</title>
<path fill="none" stroke="#000000" d="M676.2227,-543.8995C755.3095,-534.1464 719.1387,-407.9207 666,-337 631.8453,-291.416 577.1547,-346.584 543,-301 518.0822,-267.7439 501.4444,-207.5 543,-207.5"/>
<polygon fill="#000000" stroke="#000000" points="675.9828,-543.9135 665.7361,-540.0077 670.9914,-544.2068 666,-544.5 666,-544.5 666,-544.5 670.9914,-544.2068 666.2639,-548.9923 675.9828,-543.9135 675.9828,-543.9135"/>
<text text-anchor="start" x="612.945" y="-528.5" font-family="Arial" font-size="10.00" fill="#000000">FOREIGN KEY (user_id) REFERENCES users (id)</text>
</g>
<!-- post_comments -->
<g id="node7" class="node">
<title>post_comments</title>
<polygon fill="#efefef" stroke="transparent" points="1188,-1660.5 1188,-1695.5 1406,-1695.5 1406,-1660.5 1188,-1660.5"/>
<polygon fill="none" stroke="#000000" points="1188,-1660.5 1188,-1695.5 1406,-1695.5 1406,-1660.5 1188,-1660.5"/>
<text text-anchor="start" x="1194.6048" y="-1673.3" font-family="Arial Bold" font-size="18.00" fill="#000000">post_comments</text>
<text text-anchor="start" x="1321.6308" y="-1673.3" font-family="Arial" font-size="14.00" fill="#000000">    </text>
<text text-anchor="start" x="1355.8356" y="-1673.3" font-family="Arial" font-size="14.00" fill="#666666">[VIEW]</text>
<polygon fill="none" stroke="#000000" points="1188,-1630.5 1188,-1660.5 1406,-1660.5 1406,-1630.5 1188,-1630.5"/>
<text text-anchor="start" x="1195" y="-1641.9" font-family="Arial" font-size="14.00" fill="#000000">id </text>
<text text-anchor="start" x="1209.7798" y="-1641.9" font-family="Arial" font-size="14.00" fill="#666666">[bigint(20)]</text>
<polygon fill="none" stroke="#000000" points="1188,-1600.5 1188,-1630.5 1406,-1630.5 1406,-1600.5 1188,-1600.5"/>
<text text-anchor="start" x="1195" y="-1611.9" font-family="Arial" font-size="14.00" fill="#000000">title </text>
<text text-anchor="start" x="1220.6676" y="-1611.9" font-family="Arial" font-size="14.00" fill="#666666">[varchar(255)]</text>
<polygon fill="none" stroke="#000000" points="1188,-1570.5 1188,-1600.5 1406,-1600.5 1406,-1570.5 1188,-1570.5"/>
<text text-anchor="start" x="1195" y="-1581.9" font-family="Arial" font-size="14.00" fill="#000000">post_user </text>
<text text-anchor="start" x="1260.3548" y="-1581.9" font-family="Arial" font-size="14.00" fill="#666666">[varchar(50)]</text>
<polygon fill="none" stroke="#000000" points="1188,-1540.5 1188,-1570.5 1406,-1570.5 1406,-1540.5 1188,-1540.5"/>
<text text-anchor="start" x="1195" y="-1551.9" font-family="Arial" font-size="14.00" fill="#000000">comment </text>
<text text-anchor="start" x="1256.4502" y="-1551.9" font-family="Arial" font-size="14.00" fill="#666666">[text]</text>
<polygon fill="none" stroke="#000000" points="1188,-1510.5 1188,-1540.5 1406,-1540.5 1406,-1510.5 1188,-1510.5"/>
<text text-anchor="start" x="1195" y="-1521.9" font-family="Arial" font-size="14.00" fill="#000000">comment_user </text>
<text text-anchor="start" x="1291.4586" y="-1521.9" font-family="Arial" font-size="14.00" fill="#666666">[varchar(50)]</text>
<polygon fill="none" stroke="#000000" points="1188,-1480.5 1188,-1510.5 1406,-1510.5 1406,-1480.5 1188,-1480.5"/>
<text text-anchor="start" x="1195" y="-1491.9" font-family="Arial" font-size="14.00" fill="#000000">created </text>
<text text-anchor="start" x="1245.5722" y="-1491.9" font-family="Arial" font-size="14.00" fill="#666666">[datetime]</text>
<polygon fill="none" stroke="#000000" points="1188,-1450.5 1188,-1480.5 1406,-1480.5 1406,-1450.5 1188,-1450.5"/>
<text text-anchor="start" x="1195" y="-1461.9" font-family="Arial" font-size="14.00" fill="#000000">updated </text>
<text text-anchor="start" x="1249.4768" y="-1461.9" font-family="Arial" font-size="14.00" fill="#666666">[datetime]</text>
</g>
<!-- same_name_constraints -->
<g id="node8" class="node">
<title>same_name_constraints</title>
<polygon fill="#efefef" stroke="transparent" points="809,-514.5 809,-549.5 1146,-549.5 1146,-514.5 809,-514.5"/>
<polygon fill="none" stroke="#000000" points="809,-514.5 809,-549.5 1146,-549.5 1146,-514.5 809,-514.5"/>
<text text-anchor="start" x="815.6943" y="-527.3" font-family="Arial Bold" font-size="18.00" fill="#000000">same_name_constraints</text>
<text text-anchor="start" x="1011.7377" y="-527.3" font-family="Arial" font-size="14.00" fill="#000000">    </text>
<text text-anchor="start" x="1045.9425" y="-527.3" font-family="Arial" font-size="14.00" fill="#666666">[BASE TABLE]</text>
<polygon fill="none" stroke="#000000" points="809,-484.5 809,-514.5 1146,-514.5 1146,-484.5 809,-484.5"/>
<text text-anchor="start" x="816" y="-495.9" font-family="Arial" font-size="14.00" fill="#000000">id </text>
<text text-anchor="start" x="830.7798" y="-495.9" font-family="Arial" font-size="14.00" fill="#666666">[bigint(20)]</text>
<polygon fill="none" stroke="#000000" points="809,-454.5 809,-484.5 1146,-484.5 1146,-454.5 809,-454.5"/>
<text text-anchor="start" x="816" y="-465.9" font-family="Arial" font-size="14.00" fill="#000000">user_id </text>
<text text-anchor="start" x="865.7882" y="-465.9" font-family="Arial" font-size="14.00" fill="#666666">[int(11)]</text>
</g>
<!-- same_name_constraints&#45;&gt;users -->
<g id="edge6" class="edge">
<title>same_name_constraints:user_id&#45;&gt;users:id</title>
<path fill="none" stroke="#000000" d="M799.0063,-468.8385C696.4103,-454.3733 846.3116,-207.5 728,-207.5"/>
<polygon fill="#000000" stroke="#000000" points="799.0218,-468.8395 808.7028,-473.9902 804.0109,-469.1697 809,-469.5 809,-469.5 809,-469.5 804.0109,-469.1697 809.2972,-465.0098 799.0218,-468.8395 799.0218,-468.8395"/>
<text text-anchor="start" x="575.945" y="-479.5" font-family="Arial" font-size="10.00" fill="#000000">FOREIGN KEY (user_id) REFERENCES users (id)</text>
</g>
<!-- user_options -->
<g id="node10" class="node">
<title>user_options</title>
<polygon fill="#efefef" stroke="transparent" points="1250,-544.5 1250,-579.5 1494,-579.5 1494,-544.5 1250,-544.5"/>
<polygon fill="none" stroke="#000000" points="1250,-544.5 1250,-579.5 1494,-579.5 1494,-544.5 1250,-544.5"/>
<text text-anchor="start" x="1256.7" y="-557.3" font-family="Arial Bold" font-size="18.00" fill="#000000">user_options</text>
<text text-anchor="start" x="1359.732" y="-557.3" font-family="Arial" font-size="14.00" fill="#000000">    </text>
<text text-anchor="start" x="1393.9368" y="-557.3" font-family="Arial" font-size="14.00" fill="#666666">[BASE TABLE]</text>
<polygon fill="none" stroke="#000000" points="1250,-514.5 1250,-544.5 1494,-544.5 1494,-514.5 1250,-514.5"/>
<text text-anchor="start" x="1257" y="-525.9" font-family="Arial" font-size="14.00" fill="#000000">user_id </text>
<text text-anchor="start" x="1306.7882" y="-525.9" font-family="Arial" font-size="14.00" fill="#666666">[int(11)]</text>
<polygon fill="none" stroke="#000000" points="1250,-484.5 1250,-514.5 1494,-514.5 1494,-484.5 1250,-484.5"/>
<text text-anchor="start" x="1257" y="-495.9" font-family="Arial" font-size="14.00" fill="#000000">show_email </text>
<text text-anchor="start" x="1334.784" y="-495.9" font-family="Arial" font-size="14.00" fill="#666666">[tinyint(1)]</text>
<polygon fill="none" stroke="#000000" points="1250,-454.5 1250,-484.5 1494,-484.5 1494,-454.5 1250,-454.5"/>
<text text-anchor="start" x="1257" y="-465.9" font-family="Arial" font-size="14.00" fill="#000000">created </text>
<text text-anchor="start" x="1307.5722" y="-465.9" font-family="Arial" font-size="14.00" fill="#666666">[timestamp]</text>
<polygon fill="none" stroke="#000000" points="1250,-424.5 1250,-454.5 1494,-454.5 1494,-424.5 1250,-424.5"/>
<text text-anchor="start" x="1257" y="-435.9" font-family="Arial" font-size="14.00" fill="#000000">updated </text>
<text text-anchor="start" x="1311.4768" y="-435.9" font-family="Arial" font-size="14.00" fill="#666666">[timestamp]</text>
</g>
<!-- user_options&#45;&gt;users -->
<g id="edge7" class="edge">
<title>user_options:user_id&#45;&gt;users:id</title>
<path fill="none" stroke="#000000" d="M1240.0188,-528.8591C1169.2377,-518.9749 1257.9438,-397.2459 1198,-337 1121.5873,-260.2022 836.3365,-207.5 728,-207.5"/>
<polygon fill="#000000" stroke="#000000" points="1240.0206,-528.8591 1249.7116,-533.9908 1245.0103,-529.1796 1250,-529.5 1250,-529.5 1250,-529.5 1245.0103,-529.1796 1250.2884,-525.0092 1240.0206,-528.8591 1240.0206,-528.8591"/>
<text text-anchor="start" x="1196.945" y="-513.5" font-family="Arial" font-size="10.00" fill="#000000">FOREIGN KEY (user_id) REFERENCES users (id)</text>
</g>
</g>
</svg>
