<?xml version="1.0" encoding="UTF-8" standalone="no"?>
<!DOCTYPE svg PUBLIC "-//W3C//DTD SVG 1.1//EN"
 "http://www.w3.org/Graphics/SVG/1.1/DTD/svg11.dtd">
<!-- Generated by graphviz version 2.40.1 (20161225.0304)
 -->
<!-- Title: testdb Pages: 1 -->
<svg width="1368pt" height="1747pt"
 viewBox="0.00 0.00 1367.50 1747.00" xmlns="http://www.w3.org/2000/svg" xmlns:xlink="http://www.w3.org/1999/xlink">
<g id="graph0" class="graph" transform="scale(1 1) rotate(0) translate(4 1743)">
<title>testdb</title>
<polygon fill="#ffffff" stroke="transparent" points="-4,4 -4,-1743 1363.5,-1743 1363.5,4 -4,4"/>
<!-- CamelizeTable -->
<g id="node1" class="node">
<title>CamelizeTable</title>
<polygon fill="#efefef" stroke="transparent" points="179,-1585.5 179,-1620.5 410,-1620.5 410,-1585.5 179,-1585.5"/>
<polygon fill="none" stroke="#000000" points="179,-1585.5 179,-1620.5 410,-1620.5 410,-1585.5 179,-1585.5"/>
<text text-anchor="start" x="185.8719" y="-1598.3" font-family="Arial Bold" font-size="18.00" fill="#000000">CamelizeTable</text>
<text text-anchor="start" x="305.8743" y="-1598.3" font-family="Arial" font-size="14.00" fill="#000000"> </text>
<text text-anchor="start" x="309.7649" y="-1598.3" font-family="Arial" font-size="14.00" fill="#666666">[BASE TABLE]</text>
<polygon fill="none" stroke="#000000" points="179,-1555.5 179,-1585.5 410,-1585.5 410,-1555.5 179,-1555.5"/>
<text text-anchor="start" x="186" y="-1566.9" font-family="Arial" font-size="14.00" fill="#000000">id </text>
<text text-anchor="start" x="200.7798" y="-1566.9" font-family="Arial" font-size="14.00" fill="#666666">[bigint(20)]</text>
<polygon fill="none" stroke="#000000" points="179,-1525.5 179,-1555.5 410,-1555.5 410,-1525.5 179,-1525.5"/>
<text text-anchor="start" x="186" y="-1536.9" font-family="Arial" font-size="14.00" fill="#000000">created </text>
<text text-anchor="start" x="236.5722" y="-1536.9" font-family="Arial" font-size="14.00" fill="#666666">[datetime]</text>
</g>
<!-- comments -->
<g id="node2" class="node">
<title>comments</title>
<polygon fill="#efefef" stroke="transparent" points="364,-956.5 364,-991.5 558,-991.5 558,-956.5 364,-956.5"/>
<polygon fill="none" stroke="#000000" points="364,-956.5 364,-991.5 558,-991.5 558,-956.5 364,-956.5"/>
<text text-anchor="start" x="370.8705" y="-969.3" font-family="Arial Bold" font-size="18.00" fill="#000000">comments</text>
<text text-anchor="start" x="453.8757" y="-969.3" font-family="Arial" font-size="14.00" fill="#000000"> </text>
<text text-anchor="start" x="457.7663" y="-969.3" font-family="Arial" font-size="14.00" fill="#666666">[BASE TABLE]</text>
<polygon fill="none" stroke="#000000" points="364,-926.5 364,-956.5 558,-956.5 558,-926.5 364,-926.5"/>
<text text-anchor="start" x="371" y="-937.9" font-family="Arial" font-size="14.00" fill="#000000">id </text>
<text text-anchor="start" x="385.7798" y="-937.9" font-family="Arial" font-size="14.00" fill="#666666">[bigint(20)]</text>
<polygon fill="none" stroke="#000000" points="364,-896.5 364,-926.5 558,-926.5 558,-896.5 364,-896.5"/>
<text text-anchor="start" x="371" y="-907.9" font-family="Arial" font-size="14.00" fill="#000000">post_id </text>
<text text-anchor="start" x="420.0182" y="-907.9" font-family="Arial" font-size="14.00" fill="#666666">[bigint(20)]</text>
<polygon fill="none" stroke="#000000" points="364,-866.5 364,-896.5 558,-896.5 558,-866.5 364,-866.5"/>
<text text-anchor="start" x="371" y="-877.9" font-family="Arial" font-size="14.00" fill="#000000">user_id </text>
<text text-anchor="start" x="420.7882" y="-877.9" font-family="Arial" font-size="14.00" fill="#666666">[int(11)]</text>
<polygon fill="none" stroke="#000000" points="364,-836.5 364,-866.5 558,-866.5 558,-836.5 364,-836.5"/>
<text text-anchor="start" x="371" y="-847.9" font-family="Arial" font-size="14.00" fill="#000000">comment </text>
<text text-anchor="start" x="432.4502" y="-847.9" font-family="Arial" font-size="14.00" fill="#666666">[text]</text>
<polygon fill="none" stroke="#000000" points="364,-806.5 364,-836.5 558,-836.5 558,-806.5 364,-806.5"/>
<text text-anchor="start" x="371" y="-817.9" font-family="Arial" font-size="14.00" fill="#000000">post_id_desc </text>
<text text-anchor="start" x="457.366" y="-817.9" font-family="Arial" font-size="14.00" fill="#666666">[bigint(20)]</text>
<polygon fill="none" stroke="#000000" points="364,-776.5 364,-806.5 558,-806.5 558,-776.5 364,-776.5"/>
<text text-anchor="start" x="371" y="-787.9" font-family="Arial" font-size="14.00" fill="#000000">created </text>
<text text-anchor="start" x="421.5722" y="-787.9" font-family="Arial" font-size="14.00" fill="#666666">[datetime]</text>
<polygon fill="none" stroke="#000000" points="364,-746.5 364,-776.5 558,-776.5 558,-746.5 364,-746.5"/>
<text text-anchor="start" x="371" y="-757.9" font-family="Arial" font-size="14.00" fill="#000000">updated </text>
<text text-anchor="start" x="425.4768" y="-757.9" font-family="Arial" font-size="14.00" fill="#666666">[datetime]</text>
</g>
<!-- posts -->
<g id="node6" class="node">
<title>posts</title>
<polygon fill="#efefef" stroke="transparent" points="403,-589.5 403,-624.5 666,-624.5 666,-589.5 403,-589.5"/>
<polygon fill="none" stroke="#000000" points="403,-589.5 403,-624.5 666,-624.5 666,-589.5 403,-589.5"/>
<text text-anchor="start" x="464.3658" y="-602.3" font-family="Arial Bold" font-size="18.00" fill="#000000">posts</text>
<text text-anchor="start" x="507.3804" y="-602.3" font-family="Arial" font-size="14.00" fill="#000000"> </text>
<text text-anchor="start" x="511.271" y="-602.3" font-family="Arial" font-size="14.00" fill="#666666">[BASE TABLE]</text>
<polygon fill="none" stroke="#000000" points="403,-559.5 403,-589.5 666,-589.5 666,-559.5 403,-559.5"/>
<text text-anchor="start" x="410" y="-570.9" font-family="Arial" font-size="14.00" fill="#000000">id </text>
<text text-anchor="start" x="424.7798" y="-570.9" font-family="Arial" font-size="14.00" fill="#666666">[bigint(20)]</text>
<polygon fill="none" stroke="#000000" points="403,-529.5 403,-559.5 666,-559.5 666,-529.5 403,-529.5"/>
<text text-anchor="start" x="410" y="-540.9" font-family="Arial" font-size="14.00" fill="#000000">user_id </text>
<text text-anchor="start" x="459.7882" y="-540.9" font-family="Arial" font-size="14.00" fill="#666666">[int(11)]</text>
<polygon fill="none" stroke="#000000" points="403,-499.5 403,-529.5 666,-529.5 666,-499.5 403,-499.5"/>
<text text-anchor="start" x="410" y="-510.9" font-family="Arial" font-size="14.00" fill="#000000">title </text>
<text text-anchor="start" x="435.6676" y="-510.9" font-family="Arial" font-size="14.00" fill="#666666">[varchar(255)]</text>
<polygon fill="none" stroke="#000000" points="403,-469.5 403,-499.5 666,-499.5 666,-469.5 403,-469.5"/>
<text text-anchor="start" x="410" y="-480.9" font-family="Arial" font-size="14.00" fill="#000000">body </text>
<text text-anchor="start" x="444.2384" y="-480.9" font-family="Arial" font-size="14.00" fill="#666666">[text]</text>
<polygon fill="none" stroke="#000000" points="403,-439.5 403,-469.5 666,-469.5 666,-439.5 403,-439.5"/>
<text text-anchor="start" x="409.697" y="-450.9" font-family="Arial" font-size="14.00" fill="#000000">post_type </text>
<text text-anchor="start" x="474.2818" y="-450.9" font-family="Arial" font-size="14.00" fill="#666666">[enum(&#39;public&#39;,&#39;private&#39;,&#39;draft&#39;)]</text>
<polygon fill="none" stroke="#000000" points="403,-409.5 403,-439.5 666,-439.5 666,-409.5 403,-409.5"/>
<text text-anchor="start" x="410" y="-420.9" font-family="Arial" font-size="14.00" fill="#000000">created </text>
<text text-anchor="start" x="460.5722" y="-420.9" font-family="Arial" font-size="14.00" fill="#666666">[datetime]</text>
<polygon fill="none" stroke="#000000" points="403,-379.5 403,-409.5 666,-409.5 666,-379.5 403,-379.5"/>
<text text-anchor="start" x="410" y="-390.9" font-family="Arial" font-size="14.00" fill="#000000">updated </text>
<text text-anchor="start" x="464.4768" y="-390.9" font-family="Arial" font-size="14.00" fill="#666666">[datetime]</text>
</g>
<!-- comments&#45;&gt;posts -->
<g id="edge1" class="edge">
<title>comments:post_id&#45;&gt;posts:id</title>
<path fill="none" stroke="#000000" d="M568.2318,-910.8925C647.4644,-901.0268 613.1214,-773.3909 558,-704 514.0107,-648.6229 446.9893,-723.3771 403,-668 377.1525,-635.4612 361.4444,-574.5 403,-574.5"/>
<polygon fill="#000000" stroke="#000000" points="567.9824,-910.9072 557.7333,-907.0079 562.9912,-911.2036 558,-911.5 558,-911.5 558,-911.5 562.9912,-911.2036 558.2667,-915.9921 567.9824,-910.9072 567.9824,-910.9072"/>
<text text-anchor="start" x="565.495" y="-921.5" font-family="Arial" font-size="10.00" fill="#000000">FOREIGN KEY (post_id) REFERENCES posts (id)</text>
</g>
<!-- users -->
<g id="node8" class="node">
<title>users</title>
<polygon fill="#efefef" stroke="transparent" points="455,-222.5 455,-257.5 614,-257.5 614,-222.5 455,-222.5"/>
<polygon fill="none" stroke="#000000" points="455,-222.5 455,-257.5 614,-257.5 614,-222.5 455,-222.5"/>
<text text-anchor="start" x="463.8708" y="-235.3" font-family="Arial Bold" font-size="18.00" fill="#000000">users</text>
<text text-anchor="start" x="507.8754" y="-235.3" font-family="Arial" font-size="14.00" fill="#000000"> </text>
<text text-anchor="start" x="511.766" y="-235.3" font-family="Arial" font-size="14.00" fill="#666666">[BASE TABLE]</text>
<polygon fill="none" stroke="#000000" points="455,-192.5 455,-222.5 614,-222.5 614,-192.5 455,-192.5"/>
<text text-anchor="start" x="462" y="-203.9" font-family="Arial" font-size="14.00" fill="#000000">id </text>
<text text-anchor="start" x="476.7798" y="-203.9" font-family="Arial" font-size="14.00" fill="#666666">[int(11)]</text>
<polygon fill="none" stroke="#000000" points="455,-162.5 455,-192.5 614,-192.5 614,-162.5 455,-162.5"/>
<text text-anchor="start" x="461.7693" y="-173.9" font-family="Arial" font-size="14.00" fill="#000000">username </text>
<text text-anchor="start" x="527.8941" y="-173.9" font-family="Arial" font-size="14.00" fill="#666666">[varchar(50)]</text>
<polygon fill="none" stroke="#000000" points="455,-132.5 455,-162.5 614,-162.5 614,-132.5 455,-132.5"/>
<text text-anchor="start" x="462" y="-143.9" font-family="Arial" font-size="14.00" fill="#000000">password </text>
<text text-anchor="start" x="525.7882" y="-143.9" font-family="Arial" font-size="14.00" fill="#666666">[varchar(50)]</text>
<polygon fill="none" stroke="#000000" points="455,-102.5 455,-132.5 614,-132.5 614,-102.5 455,-102.5"/>
<text text-anchor="start" x="462" y="-113.9" font-family="Arial" font-size="14.00" fill="#000000">email </text>
<text text-anchor="start" x="499.3296" y="-113.9" font-family="Arial" font-size="14.00" fill="#666666">[varchar(355)]</text>
<polygon fill="none" stroke="#000000" points="455,-72.5 455,-102.5 614,-102.5 614,-72.5 455,-72.5"/>
<text text-anchor="start" x="462" y="-83.9" font-family="Arial" font-size="14.00" fill="#000000">created </text>
<text text-anchor="start" x="512.5722" y="-83.9" font-family="Arial" font-size="14.00" fill="#666666">[timestamp]</text>
<polygon fill="none" stroke="#000000" points="455,-42.5 455,-72.5 614,-72.5 614,-42.5 455,-42.5"/>
<text text-anchor="start" x="462" y="-53.9" font-family="Arial" font-size="14.00" fill="#000000">updated </text>
<text text-anchor="start" x="516.4768" y="-53.9" font-family="Arial" font-size="14.00" fill="#666666">[timestamp]</text>
</g>
<!-- comments&#45;&gt;users -->
<g id="edge2" class="edge">
<title>comments:user_id&#45;&gt;users:id</title>
<path fill="none" stroke="#000000" d="M353.6612,-880.9662C275.3526,-872.2812 352.9912,-759.3291 350,-668 343.1285,-458.1929 245.0804,-207.5 455,-207.5"/>
<polygon fill="#000000" stroke="#000000" points="354.0133,-880.9843 363.7679,-885.994 359.0067,-881.2421 364,-881.5 364,-881.5 364,-881.5 359.0067,-881.2421 364.2321,-877.006 354.0133,-880.9843 354.0133,-880.9843"/>
<text text-anchor="start" x="130.945" y="-891.5" font-family="Arial" font-size="10.00" fill="#000000">FOREIGN KEY (user_id) REFERENCES users (id)</text>
</g>
<!-- comment_stars -->
<g id="node3" class="node">
<title>comment_stars</title>
<polygon fill="#efefef" stroke="transparent" points="286,-1293.5 286,-1328.5 520,-1328.5 520,-1293.5 286,-1293.5"/>
<polygon fill="none" stroke="#000000" points="286,-1293.5 286,-1328.5 520,-1328.5 520,-1293.5 286,-1293.5"/>
<text text-anchor="start" x="292.8671" y="-1306.3" font-family="Arial Bold" font-size="18.00" fill="#000000">comment_stars</text>
<text text-anchor="start" x="415.8791" y="-1306.3" font-family="Arial" font-size="14.00" fill="#000000"> </text>
<text text-anchor="start" x="419.7697" y="-1306.3" font-family="Arial" font-size="14.00" fill="#666666">[BASE TABLE]</text>
<polygon fill="none" stroke="#000000" points="286,-1263.5 286,-1293.5 520,-1293.5 520,-1263.5 286,-1263.5"/>
<text text-anchor="start" x="293" y="-1274.9" font-family="Arial" font-size="14.00" fill="#000000">id </text>
<text text-anchor="start" x="307.7798" y="-1274.9" font-family="Arial" font-size="14.00" fill="#666666">[bigint(20)]</text>
<polygon fill="none" stroke="#000000" points="286,-1233.5 286,-1263.5 520,-1263.5 520,-1233.5 286,-1233.5"/>
<text text-anchor="start" x="293" y="-1244.9" font-family="Arial" font-size="14.00" fill="#000000">user_id </text>
<text text-anchor="start" x="342.7882" y="-1244.9" font-family="Arial" font-size="14.00" fill="#666666">[int(11)]</text>
<polygon fill="none" stroke="#000000" points="286,-1203.5 286,-1233.5 520,-1233.5 520,-1203.5 286,-1203.5"/>
<text text-anchor="start" x="293" y="-1214.9" font-family="Arial" font-size="14.00" fill="#000000">comment_post_id </text>
<text text-anchor="start" x="407.3604" y="-1214.9" font-family="Arial" font-size="14.00" fill="#666666">[bigint(20)]</text>
<polygon fill="none" stroke="#000000" points="286,-1173.5 286,-1203.5 520,-1203.5 520,-1173.5 286,-1173.5"/>
<text text-anchor="start" x="293" y="-1184.9" font-family="Arial" font-size="14.00" fill="#000000">comment_user_id </text>
<text text-anchor="start" x="408.1304" y="-1184.9" font-family="Arial" font-size="14.00" fill="#666666">[int(11)]</text>
<polygon fill="none" stroke="#000000" points="286,-1143.5 286,-1173.5 520,-1173.5 520,-1143.5 286,-1143.5"/>
<text text-anchor="start" x="293" y="-1154.9" font-family="Arial" font-size="14.00" fill="#000000">created </text>
<text text-anchor="start" x="343.5722" y="-1154.9" font-family="Arial" font-size="14.00" fill="#666666">[timestamp]</text>
<polygon fill="none" stroke="#000000" points="286,-1113.5 286,-1143.5 520,-1143.5 520,-1113.5 286,-1113.5"/>
<text text-anchor="start" x="293" y="-1124.9" font-family="Arial" font-size="14.00" fill="#000000">updated </text>
<text text-anchor="start" x="347.4768" y="-1124.9" font-family="Arial" font-size="14.00" fill="#666666">[timestamp]</text>
</g>
<!-- comment_stars&#45;&gt;comments -->
<g id="edge4" class="edge">
<title>comment_stars:comment_post_id&#45;&gt;comments:post_id</title>
<path fill="none" stroke="#000000" d="M530.2837,-1217.5998C582.701,-1207.7466 558.5001,-1119.3966 520,-1071 475.702,-1015.3152 408.298,-1090.6848 364,-1035 329.8288,-992.0451 309.1111,-911.5 364,-911.5"/>
<polygon fill="#000000" stroke="#000000" points="529.9619,-1217.6279 519.6075,-1214.0171 524.981,-1218.0639 520,-1218.5 520,-1218.5 520,-1218.5 524.981,-1218.0639 520.3925,-1222.9829 529.9619,-1217.6279 529.9619,-1217.6279"/>
<text text-anchor="start" x="527.1435" y="-1228.5" font-family="Arial" font-size="10.00" fill="#000000">FOREIGN KEY (comment_post_id, comment_user_id) REFERENCES comments (post_id, user_id)</text>
</g>
<!-- comment_stars&#45;&gt;users -->
<g id="edge3" class="edge">
<title>comment_stars:comment_user_id&#45;&gt;users:id</title>
<path fill="none" stroke="#000000" d="M275.9152,-1187.789C70.0827,-1158.0833 237.2452,-207.5 455,-207.5"/>
<polygon fill="#000000" stroke="#000000" points="276.0248,-1187.7966 285.6835,-1192.9889 281.0124,-1188.1483 286,-1188.5 286,-1188.5 286,-1188.5 281.0124,-1188.1483 286.3165,-1184.0111 276.0248,-1187.7966 276.0248,-1187.7966"/>
<text text-anchor="start" x="6.6085" y="-1198.5" font-family="Arial" font-size="10.00" fill="#000000">FOREIGN KEY (comment_user_id) REFERENCES users (id)</text>
</g>
<!-- hyphen&#45;table -->
<g id="node4" class="node">
<title>hyphen&#45;table</title>
<polygon fill="#efefef" stroke="transparent" points="809,-1600.5 809,-1635.5 1024,-1635.5 1024,-1600.5 809,-1600.5"/>
<polygon fill="none" stroke="#000000" points="809,-1600.5 809,-1635.5 1024,-1635.5 1024,-1600.5 809,-1600.5"/>
<text text-anchor="start" x="815.854" y="-1613.3" font-family="Arial Bold" font-size="18.00" fill="#000000">hyphen&#45;table</text>
<text text-anchor="start" x="919.8922" y="-1613.3" font-family="Arial" font-size="14.00" fill="#000000"> </text>
<text text-anchor="start" x="923.7828" y="-1613.3" font-family="Arial" font-size="14.00" fill="#666666">[BASE TABLE]</text>
<polygon fill="none" stroke="#000000" points="809,-1570.5 809,-1600.5 1024,-1600.5 1024,-1570.5 809,-1570.5"/>
<text text-anchor="start" x="816" y="-1581.9" font-family="Arial" font-size="14.00" fill="#000000">id </text>
<text text-anchor="start" x="830.7798" y="-1581.9" font-family="Arial" font-size="14.00" fill="#666666">[bigint(20)]</text>
<polygon fill="none" stroke="#000000" points="809,-1540.5 809,-1570.5 1024,-1570.5 1024,-1540.5 809,-1540.5"/>
<text text-anchor="start" x="816" y="-1551.9" font-family="Arial" font-size="14.00" fill="#000000">hyphen&#45;column </text>
<text text-anchor="start" x="915.5792" y="-1551.9" font-family="Arial" font-size="14.00" fill="#666666">[text]</text>
<polygon fill="none" stroke="#000000" points="809,-1510.5 809,-1540.5 1024,-1540.5 1024,-1510.5 809,-1510.5"/>
<text text-anchor="start" x="816" y="-1521.9" font-family="Arial" font-size="14.00" fill="#000000">created </text>
<text text-anchor="start" x="866.5722" y="-1521.9" font-family="Arial" font-size="14.00" fill="#666666">[datetime]</text>
</g>
<!-- logs -->
<g id="node5" class="node">
<title>logs</title>
<polygon fill="#efefef" stroke="transparent" points="514,-1660.5 514,-1695.5 705,-1695.5 705,-1660.5 514,-1660.5"/>
<polygon fill="none" stroke="#000000" points="514,-1660.5 514,-1695.5 705,-1695.5 705,-1660.5 514,-1660.5"/>
<text text-anchor="start" x="544.3698" y="-1673.3" font-family="Arial Bold" font-size="18.00" fill="#000000">logs</text>
<text text-anchor="start" x="577.3764" y="-1673.3" font-family="Arial" font-size="14.00" fill="#000000"> </text>
<text text-anchor="start" x="581.267" y="-1673.3" font-family="Arial" font-size="14.00" fill="#666666">[BASE TABLE]</text>
<polygon fill="none" stroke="#000000" points="514,-1630.5 514,-1660.5 705,-1660.5 705,-1630.5 514,-1630.5"/>
<text text-anchor="start" x="521" y="-1641.9" font-family="Arial" font-size="14.00" fill="#000000">id </text>
<text text-anchor="start" x="535.7798" y="-1641.9" font-family="Arial" font-size="14.00" fill="#666666">[bigint(20)]</text>
<polygon fill="none" stroke="#000000" points="514,-1600.5 514,-1630.5 705,-1630.5 705,-1600.5 514,-1600.5"/>
<text text-anchor="start" x="521" y="-1611.9" font-family="Arial" font-size="14.00" fill="#000000">user_id </text>
<text text-anchor="start" x="570.7882" y="-1611.9" font-family="Arial" font-size="14.00" fill="#666666">[int(11)]</text>
<polygon fill="none" stroke="#000000" points="514,-1570.5 514,-1600.5 705,-1600.5 705,-1570.5 514,-1570.5"/>
<text text-anchor="start" x="521" y="-1581.9" font-family="Arial" font-size="14.00" fill="#000000">post_id </text>
<text text-anchor="start" x="570.0182" y="-1581.9" font-family="Arial" font-size="14.00" fill="#666666">[bigint(20)]</text>
<polygon fill="none" stroke="#000000" points="514,-1540.5 514,-1570.5 705,-1570.5 705,-1540.5 514,-1540.5"/>
<text text-anchor="start" x="521" y="-1551.9" font-family="Arial" font-size="14.00" fill="#000000">comment_id </text>
<text text-anchor="start" x="601.122" y="-1551.9" font-family="Arial" font-size="14.00" fill="#666666">[bigint(20)]</text>
<polygon fill="none" stroke="#000000" points="514,-1510.5 514,-1540.5 705,-1540.5 705,-1510.5 514,-1510.5"/>
<text text-anchor="start" x="520.8212" y="-1521.9" font-family="Arial" font-size="14.00" fill="#000000">comment_star_id </text>
<text text-anchor="start" x="632.0596" y="-1521.9" font-family="Arial" font-size="14.00" fill="#666666">[bigint(20)]</text>
<polygon fill="none" stroke="#000000" points="514,-1480.5 514,-1510.5 705,-1510.5 705,-1480.5 514,-1480.5"/>
<text text-anchor="start" x="521" y="-1491.9" font-family="Arial" font-size="14.00" fill="#000000">payload </text>
<text text-anchor="start" x="573.9102" y="-1491.9" font-family="Arial" font-size="14.00" fill="#666666">[text]</text>
<polygon fill="none" stroke="#000000" points="514,-1450.5 514,-1480.5 705,-1480.5 705,-1450.5 514,-1450.5"/>
<text text-anchor="start" x="521" y="-1461.9" font-family="Arial" font-size="14.00" fill="#000000">created </text>
<text text-anchor="start" x="571.5722" y="-1461.9" font-family="Arial" font-size="14.00" fill="#666666">[datetime]</text>
</g>
<!-- logs&#45;&gt;comments -->
<g id="edge9" class="edge">
<title>logs:comment_id&#45;&gt;comments:id</title>
<path fill="none" stroke="#000000" stroke-dasharray="5,2" d="M503.7975,-1554.6541C452.2547,-1545.3863 483.9368,-1462.0434 514,-1408 528.7489,-1381.4865 557.2511,-1398.5135 572,-1372 637.0329,-1255.0931 579.1998,-1204.5839 572,-1071 568.8844,-1013.193 615.8909,-941.5 558,-941.5"/>
<polygon fill="#000000" stroke="#000000" points="504.0342,-1554.6737 513.6282,-1559.9846 509.0171,-1555.0868 514,-1555.5 514,-1555.5 514,-1555.5 509.0171,-1555.0868 514.3718,-1551.0154 504.0342,-1554.6737 504.0342,-1554.6737"/>
<text text-anchor="start" x="424.3245" y="-1565.5" font-family="Arial" font-size="10.00" fill="#000000">Additional Relation</text>
</g>
<!-- logs&#45;&gt;comment_stars -->
<g id="edge10" class="edge">
<title>logs:comment_star_id&#45;&gt;comment_stars:id</title>
<path fill="none" stroke="#000000" stroke-dasharray="5,2" d="M503.9945,-1524.7501C453.0451,-1516.2051 514.6767,-1436.3207 520,-1372 523.4275,-1330.586 561.5556,-1278.5 520,-1278.5"/>
<polygon fill="#000000" stroke="#000000" points="504.028,-1524.7525 513.6636,-1529.9874 509.014,-1525.1262 514,-1525.5 514,-1525.5 514,-1525.5 509.014,-1525.1262 514.3364,-1521.0126 504.028,-1524.7525 504.028,-1524.7525"/>
<text text-anchor="start" x="424.3245" y="-1535.5" font-family="Arial" font-size="10.00" fill="#000000">Additional Relation</text>
</g>
<!-- logs&#45;&gt;posts -->
<g id="edge8" class="edge">
<title>logs:post_id&#45;&gt;posts:id</title>
<path fill="none" stroke="#000000" stroke-dasharray="5,2" d="M709.1439,-1576.1371C728.7212,-1474.2161 692.5124,-574.5 666,-574.5"/>
<polygon fill="#000000" stroke="#000000" points="709.0472,-1576.3556 700.885,-1583.6788 707.0236,-1580.9278 705,-1585.5 705,-1585.5 705,-1585.5 707.0236,-1580.9278 709.115,-1587.3212 709.0472,-1576.3556 709.0472,-1576.3556"/>
<text text-anchor="start" x="712.3245" y="-1595.5" font-family="Arial" font-size="10.00" fill="#000000">Additional Relation</text>
</g>
<!-- logs&#45;&gt;users -->
<g id="edge7" class="edge">
<title>logs:user_id&#45;&gt;users:id</title>
<path fill="none" stroke="#000000" stroke-dasharray="5,2" d="M715.1192,-1612.8055C754.0775,-1589.5505 721.1394,-1422.4094 723,-1372 732.4231,-1116.7046 730.8859,-376.2496 717,-337 692.4722,-267.6701 687.5408,-207.5 614,-207.5"/>
<polygon fill="#000000" stroke="#000000" points="714.6633,-1612.9268 703.8421,-1611.1515 709.8316,-1614.2134 705,-1615.5 705,-1615.5 705,-1615.5 709.8316,-1614.2134 706.1579,-1619.8485 714.6633,-1612.9268 714.6633,-1612.9268"/>
<text text-anchor="start" x="647.024" y="-1625.5" font-family="Arial" font-size="10.00" fill="#000000">logs&#45;&gt;users</text>
</g>
<!-- posts&#45;&gt;users -->
<g id="edge5" class="edge">
<title>posts:user_id&#45;&gt;users:id</title>
<path fill="none" stroke="#000000" d="M393.1757,-542.348C332.1521,-513.6467 382.7768,-207.5 455,-207.5"/>
<polygon fill="#000000" stroke="#000000" points="393.2316,-542.3602 402.0371,-548.8958 398.1158,-543.4301 403,-544.5 403,-544.5 403,-544.5 398.1158,-543.4301 403.9629,-540.1042 393.2316,-542.3602 393.2316,-542.3602"/>
<text text-anchor="start" x="169.945" y="-554.5" font-family="Arial" font-size="10.00" fill="#000000">FOREIGN KEY (user_id) REFERENCES users (id)</text>
</g>
<!-- post_comments -->
<g id="node7" class="node">
<title>post_comments</title>
<polygon fill="#efefef" stroke="transparent" points="1128,-1660.5 1128,-1695.5 1317,-1695.5 1317,-1660.5 1128,-1660.5"/>
<polygon fill="none" stroke="#000000" points="1128,-1660.5 1128,-1695.5 1317,-1695.5 1317,-1660.5 1128,-1660.5"/>
<text text-anchor="start" x="1135.2619" y="-1673.3" font-family="Arial Bold" font-size="18.00" fill="#000000">post_comments</text>
<text text-anchor="start" x="1262.2879" y="-1673.3" font-family="Arial" font-size="14.00" fill="#000000"> </text>
<text text-anchor="start" x="1266.1785" y="-1673.3" font-family="Arial" font-size="14.00" fill="#666666">[VIEW]</text>
<polygon fill="none" stroke="#000000" points="1128,-1630.5 1128,-1660.5 1317,-1660.5 1317,-1630.5 1128,-1630.5"/>
<text text-anchor="start" x="1135" y="-1641.9" font-family="Arial" font-size="14.00" fill="#000000">id </text>
<text text-anchor="start" x="1149.7798" y="-1641.9" font-family="Arial" font-size="14.00" fill="#666666">[bigint(20)]</text>
<polygon fill="none" stroke="#000000" points="1128,-1600.5 1128,-1630.5 1317,-1630.5 1317,-1600.5 1128,-1600.5"/>
<text text-anchor="start" x="1135" y="-1611.9" font-family="Arial" font-size="14.00" fill="#000000">title </text>
<text text-anchor="start" x="1160.6676" y="-1611.9" font-family="Arial" font-size="14.00" fill="#666666">[varchar(255)]</text>
<polygon fill="none" stroke="#000000" points="1128,-1570.5 1128,-1600.5 1317,-1600.5 1317,-1570.5 1128,-1570.5"/>
<text text-anchor="start" x="1135" y="-1581.9" font-family="Arial" font-size="14.00" fill="#000000">post_user </text>
<text text-anchor="start" x="1200.3548" y="-1581.9" font-family="Arial" font-size="14.00" fill="#666666">[varchar(50)]</text>
<polygon fill="none" stroke="#000000" points="1128,-1540.5 1128,-1570.5 1317,-1570.5 1317,-1540.5 1128,-1540.5"/>
<text text-anchor="start" x="1135" y="-1551.9" font-family="Arial" font-size="14.00" fill="#000000">comment </text>
<text text-anchor="start" x="1196.4502" y="-1551.9" font-family="Arial" font-size="14.00" fill="#666666">[text]</text>
<polygon fill="none" stroke="#000000" points="1128,-1510.5 1128,-1540.5 1317,-1540.5 1317,-1510.5 1128,-1510.5"/>
<text text-anchor="start" x="1134.6024" y="-1521.9" font-family="Arial" font-size="14.00" fill="#000000">comment_user </text>
<text text-anchor="start" x="1231.061" y="-1521.9" font-family="Arial" font-size="14.00" fill="#666666">[varchar(50)]</text>
<polygon fill="none" stroke="#000000" points="1128,-1480.5 1128,-1510.5 1317,-1510.5 1317,-1480.5 1128,-1480.5"/>
<text text-anchor="start" x="1135" y="-1491.9" font-family="Arial" font-size="14.00" fill="#000000">created </text>
<text text-anchor="start" x="1185.5722" y="-1491.9" font-family="Arial" font-size="14.00" fill="#666666">[datetime]</text>
<polygon fill="none" stroke="#000000" points="1128,-1450.5 1128,-1480.5 1317,-1480.5 1317,-1450.5 1128,-1450.5"/>
<text text-anchor="start" x="1135" y="-1461.9" font-family="Arial" font-size="14.00" fill="#000000">updated </text>
<text text-anchor="start" x="1189.4768" y="-1461.9" font-family="Arial" font-size="14.00" fill="#666666">[datetime]</text>
</g>
<!-- user_options -->
<g id="node9" class="node">
<title>user_options</title>
<polygon fill="#efefef" stroke="transparent" points="808,-544.5 808,-579.5 1022,-579.5 1022,-544.5 808,-544.5"/>
<polygon fill="none" stroke="#000000" points="808,-544.5 808,-579.5 1022,-579.5 1022,-544.5 808,-544.5"/>
<text text-anchor="start" x="814.8571" y="-557.3" font-family="Arial Bold" font-size="18.00" fill="#000000">user_options</text>
<text text-anchor="start" x="917.8891" y="-557.3" font-family="Arial" font-size="14.00" fill="#000000"> </text>
<text text-anchor="start" x="921.7797" y="-557.3" font-family="Arial" font-size="14.00" fill="#666666">[BASE TABLE]</text>
<polygon fill="none" stroke="#000000" points="808,-514.5 808,-544.5 1022,-544.5 1022,-514.5 808,-514.5"/>
<text text-anchor="start" x="815" y="-525.9" font-family="Arial" font-size="14.00" fill="#000000">user_id </text>
<text text-anchor="start" x="864.7882" y="-525.9" font-family="Arial" font-size="14.00" fill="#666666">[int(11)]</text>
<polygon fill="none" stroke="#000000" points="808,-484.5 808,-514.5 1022,-514.5 1022,-484.5 808,-484.5"/>
<text text-anchor="start" x="815" y="-495.9" font-family="Arial" font-size="14.00" fill="#000000">show_email </text>
<text text-anchor="start" x="892.784" y="-495.9" font-family="Arial" font-size="14.00" fill="#666666">[tinyint(1)]</text>
<polygon fill="none" stroke="#000000" points="808,-454.5 808,-484.5 1022,-484.5 1022,-454.5 808,-454.5"/>
<text text-anchor="start" x="815" y="-465.9" font-family="Arial" font-size="14.00" fill="#000000">created </text>
<text text-anchor="start" x="865.5722" y="-465.9" font-family="Arial" font-size="14.00" fill="#666666">[timestamp]</text>
<polygon fill="none" stroke="#000000" points="808,-424.5 808,-454.5 1022,-454.5 1022,-424.5 808,-424.5"/>
<text text-anchor="start" x="815" y="-435.9" font-family="Arial" font-size="14.00" fill="#000000">updated </text>
<text text-anchor="start" x="869.4768" y="-435.9" font-family="Arial" font-size="14.00" fill="#666666">[timestamp]</text>
</g>
<!-- user_options&#45;&gt;users -->
<g id="edge6" class="edge">
<title>user_options:user_id&#45;&gt;users:id</title>
<path fill="none" stroke="#000000" d="M797.8492,-528.923C725.0351,-520.0143 795.7766,-409.917 751,-337 707.1557,-265.6013 697.786,-207.5 614,-207.5"/>
<polygon fill="#000000" stroke="#000000" points="798.0161,-528.9324 807.7446,-533.9927 803.0081,-529.2162 808,-529.5 808,-529.5 808,-529.5 803.0081,-529.2162 808.2554,-525.0073 798.0161,-528.9324 798.0161,-528.9324"/>
<text text-anchor="start" x="634.945" y="-513.5" font-family="Arial" font-size="10.00" fill="#000000">FOREIGN KEY (user_id) REFERENCES users (id)</text>
</g>
</g>
</svg>
