<?xml version="1.0" encoding="UTF-8" standalone="no"?>
<!DOCTYPE svg PUBLIC "-//W3C//DTD SVG 1.1//EN"
 "http://www.w3.org/Graphics/SVG/1.1/DTD/svg11.dtd">
<!-- Generated by graphviz version 12.1.2 (20240928.0832)
 -->
<!-- Title: testdb Pages: 1 -->
<svg width="1606pt" height="1778pt"
 viewBox="0.00 0.00 1606.36 1778.40" xmlns="http://www.w3.org/2000/svg" xmlns:xlink="http://www.w3.org/1999/xlink">
<g id="graph0" class="graph" transform="scale(1 1) rotate(0) translate(4 1774.4)">
<title>testdb</title>
<polygon fill="white" stroke="none" points="-4,4 -4,-1774.4 1602.36,-1774.4 1602.36,4 -4,4"/>
<!-- CamelizeTable -->
<g id="node1" class="node">
<title>CamelizeTable</title>
<polygon fill="#efefef" stroke="none" points="43.2,-1614.6 43.2,-1650.2 290.63,-1650.2 290.63,-1614.6 43.2,-1614.6"/>
<polygon fill="none" stroke="black" points="43.2,-1614.6 43.2,-1650.2 290.63,-1650.2 290.63,-1614.6 43.2,-1614.6"/>
<text text-anchor="start" x="50.2" y="-1628" font-family="Arial Bold" font-size="18.00">CamelizeTable</text>
<text text-anchor="start" x="159.14" y="-1628" font-family="Arial" font-size="14.00">    </text>
<text text-anchor="start" x="190.26" y="-1628" font-family="Arial" font-size="14.00" fill="#666666">[BASE TABLE]</text>
<polygon fill="none" stroke="black" points="43.2,-1583.8 43.2,-1614.6 290.63,-1614.6 290.63,-1583.8 43.2,-1583.8"/>
<text text-anchor="start" x="50.2" y="-1596" font-family="Arial" font-size="14.00">id    </text>
<text text-anchor="start" x="92.21" y="-1596" font-family="Arial" font-size="14.00" fill="#666666">[bigint(20)]</text>
<polygon fill="none" stroke="black" points="43.2,-1553 43.2,-1583.8 290.63,-1583.8 290.63,-1553 43.2,-1553"/>
<text text-anchor="start" x="50.2" y="-1565.2" font-family="Arial" font-size="14.00">created    </text>
<text text-anchor="start" x="128.01" y="-1565.2" font-family="Arial" font-size="14.00" fill="#666666">[datetime]</text>
</g>
<!-- comments -->
<g id="node2" class="node">
<title>comments</title>
<polygon fill="#efefef" stroke="none" points="555.68,-975.2 555.68,-1010.8 768.15,-1010.8 768.15,-975.2 555.68,-975.2"/>
<polygon fill="none" stroke="black" points="555.68,-975.2 555.68,-1010.8 768.15,-1010.8 768.15,-975.2 555.68,-975.2"/>
<text text-anchor="start" x="562.68" y="-988.6" font-family="Arial Bold" font-size="18.00">comments</text>
<text text-anchor="start" x="636.66" y="-988.6" font-family="Arial" font-size="14.00">    </text>
<text text-anchor="start" x="667.78" y="-988.6" font-family="Arial" font-size="14.00" fill="#666666">[BASE TABLE]</text>
<polygon fill="none" stroke="black" points="555.68,-944.4 555.68,-975.2 768.15,-975.2 768.15,-944.4 555.68,-944.4"/>
<text text-anchor="start" x="562.68" y="-956.6" font-family="Arial" font-size="14.00">id    </text>
<text text-anchor="start" x="604.69" y="-956.6" font-family="Arial" font-size="14.00" fill="#666666">[bigint(20)]</text>
<polygon fill="none" stroke="black" points="555.68,-913.6 555.68,-944.4 768.15,-944.4 768.15,-913.6 555.68,-913.6"/>
<text text-anchor="start" x="562.68" y="-925.8" font-family="Arial" font-size="14.00">post_id    </text>
<text text-anchor="start" x="638.94" y="-925.8" font-family="Arial" font-size="14.00" fill="#666666">[bigint(20)]</text>
<polygon fill="none" stroke="black" points="555.68,-882.8 555.68,-913.6 768.15,-913.6 768.15,-882.8 555.68,-882.8"/>
<text text-anchor="start" x="562.68" y="-895" font-family="Arial" font-size="14.00">user_id    </text>
<text text-anchor="start" x="639.71" y="-895" font-family="Arial" font-size="14.00" fill="#666666">[int(11)]</text>
<polygon fill="none" stroke="black" points="555.68,-852 555.68,-882.8 768.15,-882.8 768.15,-852 555.68,-852"/>
<text text-anchor="start" x="562.68" y="-864.2" font-family="Arial" font-size="14.00">comment    </text>
<text text-anchor="start" x="651.37" y="-864.2" font-family="Arial" font-size="14.00" fill="#666666">[text]</text>
<polygon fill="none" stroke="black" points="555.68,-821.2 555.68,-852 768.15,-852 768.15,-821.2 555.68,-821.2"/>
<text text-anchor="start" x="562.68" y="-833.4" font-family="Arial" font-size="14.00">post_id_desc    </text>
<text text-anchor="start" x="676.3" y="-833.4" font-family="Arial" font-size="14.00" fill="#666666">[bigint(20)]</text>
<polygon fill="none" stroke="black" points="555.68,-790.4 555.68,-821.2 768.15,-821.2 768.15,-790.4 555.68,-790.4"/>
<text text-anchor="start" x="562.68" y="-802.6" font-family="Arial" font-size="14.00">created    </text>
<text text-anchor="start" x="640.49" y="-802.6" font-family="Arial" font-size="14.00" fill="#666666">[datetime]</text>
<polygon fill="none" stroke="black" points="555.68,-759.6 555.68,-790.4 768.15,-790.4 768.15,-759.6 555.68,-759.6"/>
<text text-anchor="start" x="562.68" y="-771.8" font-family="Arial" font-size="14.00">updated    </text>
<text text-anchor="start" x="644.4" y="-771.8" font-family="Arial" font-size="14.00" fill="#666666">[datetime]</text>
</g>
<!-- posts -->
<g id="node6" class="node">
<title>posts</title>
<polygon fill="#efefef" stroke="none" points="441.72,-601.6 441.72,-637.2 730.11,-637.2 730.11,-601.6 441.72,-601.6"/>
<polygon fill="none" stroke="black" points="441.72,-601.6 441.72,-637.2 730.11,-637.2 730.11,-601.6 441.72,-601.6"/>
<text text-anchor="start" x="505.16" y="-615" font-family="Arial Bold" font-size="18.00">posts</text>
<text text-anchor="start" x="542.18" y="-615" font-family="Arial" font-size="14.00">    </text>
<text text-anchor="start" x="573.29" y="-615" font-family="Arial" font-size="14.00" fill="#666666">[BASE TABLE]</text>
<polygon fill="none" stroke="black" points="441.72,-570.8 441.72,-601.6 730.11,-601.6 730.11,-570.8 441.72,-570.8"/>
<text text-anchor="start" x="448.72" y="-583" font-family="Arial" font-size="14.00">id    </text>
<text text-anchor="start" x="490.74" y="-583" font-family="Arial" font-size="14.00" fill="#666666">[bigint(20)]</text>
<polygon fill="none" stroke="black" points="441.72,-540 441.72,-570.8 730.11,-570.8 730.11,-540 441.72,-540"/>
<text text-anchor="start" x="448.72" y="-552.2" font-family="Arial" font-size="14.00">user_id    </text>
<text text-anchor="start" x="525.76" y="-552.2" font-family="Arial" font-size="14.00" fill="#666666">[int(11)]</text>
<polygon fill="none" stroke="black" points="441.72,-509.2 441.72,-540 730.11,-540 730.11,-509.2 441.72,-509.2"/>
<text text-anchor="start" x="448.72" y="-521.4" font-family="Arial" font-size="14.00">title    </text>
<text text-anchor="start" x="501.63" y="-521.4" font-family="Arial" font-size="14.00" fill="#666666">[varchar(255)]</text>
<polygon fill="none" stroke="black" points="441.72,-478.4 441.72,-509.2 730.11,-509.2 730.11,-478.4 441.72,-478.4"/>
<text text-anchor="start" x="448.72" y="-490.6" font-family="Arial" font-size="14.00">body    </text>
<text text-anchor="start" x="510.2" y="-490.6" font-family="Arial" font-size="14.00" fill="#666666">[text]</text>
<polygon fill="none" stroke="black" points="441.72,-447.6 441.72,-478.4 730.11,-478.4 730.11,-447.6 441.72,-447.6"/>
<text text-anchor="start" x="448.72" y="-459.8" font-family="Arial" font-size="14.00">post_type    </text>
<text text-anchor="start" x="540.55" y="-459.8" font-family="Arial" font-size="14.00" fill="#666666">[enum(&#39;public&#39;,&#39;private&#39;,&#39;draft&#39;)]</text>
<polygon fill="none" stroke="black" points="441.72,-416.8 441.72,-447.6 730.11,-447.6 730.11,-416.8 441.72,-416.8"/>
<text text-anchor="start" x="448.72" y="-429" font-family="Arial" font-size="14.00">created    </text>
<text text-anchor="start" x="526.54" y="-429" font-family="Arial" font-size="14.00" fill="#666666">[datetime]</text>
<polygon fill="none" stroke="black" points="441.72,-386 441.72,-416.8 730.11,-416.8 730.11,-386 441.72,-386"/>
<text text-anchor="start" x="448.72" y="-398.2" font-family="Arial" font-size="14.00">updated    </text>
<text text-anchor="start" x="530.45" y="-398.2" font-family="Arial" font-size="14.00" fill="#666666">[datetime]</text>
</g>
<!-- comments&#45;&gt;posts -->
<g id="edge1" class="edge">
<title>comments:post_id&#45;&gt;posts:id</title>
<path fill="none" stroke="black" d="M544.78,-925.93C510.37,-902.34 528.09,-750.1 555.68,-716.4 605.82,-655.15 679.78,-741.5 730.11,-680.4 756.72,-648.08 772.97,-586.2 731.11,-586.2"/>
<polygon fill="black" stroke="black" points="544.81,-925.94 553.02,-933.2 549.9,-927.52 554.04,-928.8 554.04,-928.8 554.04,-928.8 549.9,-927.52 555.69,-924.6 544.81,-925.94"/>
<text text-anchor="start" x="322.62" y="-939" font-family="Arial" font-size="10.00">FOREIGN KEY (post_id) REFERENCES posts (id)</text>
</g>
<!-- users -->
<g id="node9" class="node">
<title>users</title>
<polygon fill="#efefef" stroke="none" points="726.55,-228 726.55,-263.6 913.28,-263.6 913.28,-228 726.55,-228"/>
<polygon fill="none" stroke="black" points="726.55,-228 726.55,-263.6 913.28,-263.6 913.28,-228 726.55,-228"/>
<text text-anchor="start" x="739.17" y="-241.4" font-family="Arial Bold" font-size="18.00">users</text>
<text text-anchor="start" x="776.17" y="-241.4" font-family="Arial" font-size="14.00">    </text>
<text text-anchor="start" x="807.28" y="-241.4" font-family="Arial" font-size="14.00" fill="#666666">[BASE TABLE]</text>
<polygon fill="none" stroke="black" points="726.55,-197.2 726.55,-228 913.28,-228 913.28,-197.2 726.55,-197.2"/>
<text text-anchor="start" x="733.55" y="-209.4" font-family="Arial" font-size="14.00">id    </text>
<text text-anchor="start" x="775.56" y="-209.4" font-family="Arial" font-size="14.00" fill="#666666">[int(11)]</text>
<polygon fill="none" stroke="black" points="726.55,-166.4 726.55,-197.2 913.28,-197.2 913.28,-166.4 726.55,-166.4"/>
<text text-anchor="start" x="733.55" y="-178.6" font-family="Arial" font-size="14.00">username    </text>
<text text-anchor="start" x="826.92" y="-178.6" font-family="Arial" font-size="14.00" fill="#666666">[varchar(50)]</text>
<polygon fill="none" stroke="black" points="726.55,-135.6 726.55,-166.4 913.28,-166.4 913.28,-135.6 726.55,-135.6"/>
<text text-anchor="start" x="733.55" y="-147.8" font-family="Arial" font-size="14.00">password    </text>
<text text-anchor="start" x="824.58" y="-147.8" font-family="Arial" font-size="14.00" fill="#666666">[varchar(50)]</text>
<polygon fill="none" stroke="black" points="726.55,-104.8 726.55,-135.6 913.28,-135.6 913.28,-104.8 726.55,-104.8"/>
<text text-anchor="start" x="733.55" y="-117" font-family="Arial" font-size="14.00">email    </text>
<text text-anchor="start" x="798.12" y="-117" font-family="Arial" font-size="14.00" fill="#666666">[varchar(355)]</text>
<polygon fill="none" stroke="black" points="726.55,-74 726.55,-104.8 913.28,-104.8 913.28,-74 726.55,-74"/>
<text text-anchor="start" x="733.55" y="-86.2" font-family="Arial" font-size="14.00">created    </text>
<text text-anchor="start" x="811.36" y="-86.2" font-family="Arial" font-size="14.00" fill="#666666">[timestamp]</text>
<polygon fill="none" stroke="black" points="726.55,-43.2 726.55,-74 913.28,-74 913.28,-43.2 726.55,-43.2"/>
<text text-anchor="start" x="733.55" y="-55.4" font-family="Arial" font-size="14.00">updated    </text>
<text text-anchor="start" x="815.27" y="-55.4" font-family="Arial" font-size="14.00" fill="#666666">[timestamp]</text>
</g>
<!-- comments&#45;&gt;users -->
<g id="edge2" class="edge">
<title>comments:user_id&#45;&gt;users:id</title>
<path fill="none" stroke="black" d="M776.47,-891.27C807.1,-831.6 815.72,-405.11 781.91,-342.8 767.92,-317 740.68,-332.52 726.55,-306.8 706.39,-270.11 683.68,-212.6 725.55,-212.6"/>
<polygon fill="black" stroke="black" points="776.66,-891.1 766.3,-894.7 772.78,-894.76 769.64,-897.74 769.64,-897.74 769.64,-897.74 772.78,-894.76 772.49,-901.24 776.66,-891.1"/>
<text text-anchor="start" x="776.15" y="-908.2" font-family="Arial" font-size="10.00">FOREIGN KEY (user_id) REFERENCES users (id)</text>
</g>
<!-- comment_stars -->
<g id="node3" class="node">
<title>comment_stars</title>
<polygon fill="#efefef" stroke="none" points="594.18,-1318 594.18,-1353.6 841.65,-1353.6 841.65,-1318 594.18,-1318"/>
<polygon fill="none" stroke="black" points="594.18,-1318 594.18,-1353.6 841.65,-1353.6 841.65,-1318 594.18,-1318"/>
<text text-anchor="start" x="601.18" y="-1331.4" font-family="Arial Bold" font-size="18.00">comment_stars</text>
<text text-anchor="start" x="710.16" y="-1331.4" font-family="Arial" font-size="14.00">    </text>
<text text-anchor="start" x="741.28" y="-1331.4" font-family="Arial" font-size="14.00" fill="#666666">[BASE TABLE]</text>
<polygon fill="none" stroke="black" points="594.18,-1287.2 594.18,-1318 841.65,-1318 841.65,-1287.2 594.18,-1287.2"/>
<text text-anchor="start" x="601.18" y="-1299.4" font-family="Arial" font-size="14.00">id    </text>
<text text-anchor="start" x="643.2" y="-1299.4" font-family="Arial" font-size="14.00" fill="#666666">[bigint(20)]</text>
<polygon fill="none" stroke="black" points="594.18,-1256.4 594.18,-1287.2 841.65,-1287.2 841.65,-1256.4 594.18,-1256.4"/>
<text text-anchor="start" x="601.18" y="-1268.6" font-family="Arial" font-size="14.00">user_id    </text>
<text text-anchor="start" x="678.22" y="-1268.6" font-family="Arial" font-size="14.00" fill="#666666">[int(11)]</text>
<polygon fill="none" stroke="black" points="594.18,-1225.6 594.18,-1256.4 841.65,-1256.4 841.65,-1225.6 594.18,-1225.6"/>
<text text-anchor="start" x="601.18" y="-1237.8" font-family="Arial" font-size="14.00">comment_post_id    </text>
<text text-anchor="start" x="742.8" y="-1237.8" font-family="Arial" font-size="14.00" fill="#666666">[bigint(20)]</text>
<polygon fill="none" stroke="black" points="594.18,-1194.8 594.18,-1225.6 841.65,-1225.6 841.65,-1194.8 594.18,-1194.8"/>
<text text-anchor="start" x="601.18" y="-1207" font-family="Arial" font-size="14.00">comment_user_id    </text>
<text text-anchor="start" x="743.58" y="-1207" font-family="Arial" font-size="14.00" fill="#666666">[int(11)]</text>
<polygon fill="none" stroke="black" points="594.18,-1164 594.18,-1194.8 841.65,-1194.8 841.65,-1164 594.18,-1164"/>
<text text-anchor="start" x="601.18" y="-1176.2" font-family="Arial" font-size="14.00">created    </text>
<text text-anchor="start" x="679" y="-1176.2" font-family="Arial" font-size="14.00" fill="#666666">[timestamp]</text>
<polygon fill="none" stroke="black" points="594.18,-1133.2 594.18,-1164 841.65,-1164 841.65,-1133.2 594.18,-1133.2"/>
<text text-anchor="start" x="601.18" y="-1145.4" font-family="Arial" font-size="14.00">updated    </text>
<text text-anchor="start" x="682.91" y="-1145.4" font-family="Arial" font-size="14.00" fill="#666666">[timestamp]</text>
</g>
<!-- comment_stars&#45;&gt;comments -->
<g id="edge4" class="edge">
<title>comment_stars:comment_post_id&#45;&gt;comments:post_id</title>
<path fill="none" stroke="black" d="M582.99,-1240.13C528.92,-1230.3 553.96,-1139.06 594.18,-1090 644.24,-1028.94 718.05,-1115.03 768.15,-1054 803.4,-1011.06 824.71,-929 769.15,-929"/>
<polygon fill="black" stroke="black" points="582.88,-1240.13 592.47,-1245.46 588.2,-1240.58 592.52,-1240.94 592.52,-1240.94 592.52,-1240.94 588.2,-1240.58 593.23,-1236.49 582.88,-1240.13"/>
<text text-anchor="start" x="144.37" y="-1251" font-family="Arial" font-size="10.00">FOREIGN KEY (comment_post_id, comment_user_id) REFERENCES comments (post_id, user_id)</text>
</g>
<!-- comment_stars&#45;&gt;users -->
<g id="edge3" class="edge">
<title>comment_stars:comment_user_id&#45;&gt;users:id</title>
<path fill="none" stroke="black" d="M852.87,-1210.07C1218.21,-1200.64 672.75,-677.02 857.91,-342.8 872.14,-317.13 899.15,-332.52 913.28,-306.8 933.44,-270.11 956.15,-212.6 914.28,-212.6"/>
<polygon fill="black" stroke="black" points="852.98,-1210.07 842.92,-1205.7 847.65,-1210.14 843.32,-1210.19 843.32,-1210.19 843.32,-1210.19 847.65,-1210.14 843.04,-1214.7 852.98,-1210.07"/>
<text text-anchor="start" x="849.65" y="-1220.2" font-family="Arial" font-size="10.00">FOREIGN KEY (comment_user_id) REFERENCES users (id)</text>
</g>
<!-- hyphen&#45;table -->
<g id="node4" class="node">
<title>hyphen&#45;table</title>
<polygon fill="#efefef" stroke="none" points="717.69,-1630 717.69,-1665.6 950.14,-1665.6 950.14,-1630 717.69,-1630"/>
<polygon fill="none" stroke="black" points="717.69,-1630 717.69,-1665.6 950.14,-1665.6 950.14,-1630 717.69,-1630"/>
<text text-anchor="start" x="724.69" y="-1643.4" font-family="Arial Bold" font-size="18.00">hyphen&#45;table</text>
<text text-anchor="start" x="818.65" y="-1643.4" font-family="Arial" font-size="14.00">    </text>
<text text-anchor="start" x="849.77" y="-1643.4" font-family="Arial" font-size="14.00" fill="#666666">[BASE TABLE]</text>
<polygon fill="none" stroke="black" points="717.69,-1599.2 717.69,-1630 950.14,-1630 950.14,-1599.2 717.69,-1599.2"/>
<text text-anchor="start" x="724.69" y="-1611.4" font-family="Arial" font-size="14.00">id    </text>
<text text-anchor="start" x="766.7" y="-1611.4" font-family="Arial" font-size="14.00" fill="#666666">[bigint(20)]</text>
<polygon fill="none" stroke="black" points="717.69,-1568.4 717.69,-1599.2 950.14,-1599.2 950.14,-1568.4 717.69,-1568.4"/>
<text text-anchor="start" x="724.69" y="-1580.6" font-family="Arial" font-size="14.00">hyphen&#45;column    </text>
<text text-anchor="start" x="851.53" y="-1580.6" font-family="Arial" font-size="14.00" fill="#666666">[text]</text>
<polygon fill="none" stroke="black" points="717.69,-1537.6 717.69,-1568.4 950.14,-1568.4 950.14,-1537.6 717.69,-1537.6"/>
<text text-anchor="start" x="724.69" y="-1549.8" font-family="Arial" font-size="14.00">created    </text>
<text text-anchor="start" x="802.5" y="-1549.8" font-family="Arial" font-size="14.00" fill="#666666">[datetime]</text>
</g>
<!-- logs -->
<g id="node5" class="node">
<title>logs</title>
<polygon fill="#efefef" stroke="none" points="394.59,-1691.6 394.59,-1727.2 613.24,-1727.2 613.24,-1691.6 394.59,-1691.6"/>
<polygon fill="none" stroke="black" points="394.59,-1691.6 394.59,-1727.2 613.24,-1727.2 613.24,-1691.6 394.59,-1691.6"/>
<text text-anchor="start" x="426.67" y="-1705" font-family="Arial Bold" font-size="18.00">logs</text>
<text text-anchor="start" x="456.67" y="-1705" font-family="Arial" font-size="14.00">    </text>
<text text-anchor="start" x="487.79" y="-1705" font-family="Arial" font-size="14.00" fill="#666666">[BASE TABLE]</text>
<polygon fill="none" stroke="black" points="394.59,-1660.8 394.59,-1691.6 613.24,-1691.6 613.24,-1660.8 394.59,-1660.8"/>
<text text-anchor="start" x="401.59" y="-1673" font-family="Arial" font-size="14.00">id    </text>
<text text-anchor="start" x="443.61" y="-1673" font-family="Arial" font-size="14.00" fill="#666666">[bigint(20)]</text>
<polygon fill="none" stroke="black" points="394.59,-1630 394.59,-1660.8 613.24,-1660.8 613.24,-1630 394.59,-1630"/>
<text text-anchor="start" x="401.59" y="-1642.2" font-family="Arial" font-size="14.00">user_id    </text>
<text text-anchor="start" x="478.63" y="-1642.2" font-family="Arial" font-size="14.00" fill="#666666">[int(11)]</text>
<polygon fill="none" stroke="black" points="394.59,-1599.2 394.59,-1630 613.24,-1630 613.24,-1599.2 394.59,-1599.2"/>
<text text-anchor="start" x="401.59" y="-1611.4" font-family="Arial" font-size="14.00">post_id    </text>
<text text-anchor="start" x="477.86" y="-1611.4" font-family="Arial" font-size="14.00" fill="#666666">[bigint(20)]</text>
<polygon fill="none" stroke="black" points="394.59,-1568.4 394.59,-1599.2 613.24,-1599.2 613.24,-1568.4 394.59,-1568.4"/>
<text text-anchor="start" x="401.59" y="-1580.6" font-family="Arial" font-size="14.00">comment_id    </text>
<text text-anchor="start" x="508.97" y="-1580.6" font-family="Arial" font-size="14.00" fill="#666666">[bigint(20)]</text>
<polygon fill="none" stroke="black" points="394.59,-1537.6 394.59,-1568.4 613.24,-1568.4 613.24,-1537.6 394.59,-1537.6"/>
<text text-anchor="start" x="401.59" y="-1549.8" font-family="Arial" font-size="14.00">comment_star_id    </text>
<text text-anchor="start" x="540.09" y="-1549.8" font-family="Arial" font-size="14.00" fill="#666666">[bigint(20)]</text>
<polygon fill="none" stroke="black" points="394.59,-1506.8 394.59,-1537.6 613.24,-1537.6 613.24,-1506.8 394.59,-1506.8"/>
<text text-anchor="start" x="401.59" y="-1519" font-family="Arial" font-size="14.00">payload    </text>
<text text-anchor="start" x="481.75" y="-1519" font-family="Arial" font-size="14.00" fill="#666666">[text]</text>
<polygon fill="none" stroke="black" points="394.59,-1476 394.59,-1506.8 613.24,-1506.8 613.24,-1476 394.59,-1476"/>
<text text-anchor="start" x="401.59" y="-1488.2" font-family="Arial" font-size="14.00">created    </text>
<text text-anchor="start" x="479.41" y="-1488.2" font-family="Arial" font-size="14.00" fill="#666666">[datetime]</text>
</g>
<!-- logs&#45;&gt;comments -->
<g id="edge10" class="edge">
<title>logs:comment_id&#45;&gt;comments:id</title>
<path fill="none" stroke="black" stroke-dasharray="5,2" d="M624.37,-1582.98C677.76,-1573.63 646.66,-1486.72 613.24,-1432.8 594.53,-1402.62 560.52,-1427.04 541.91,-1396.8 516.46,-1355.43 506.1,-959.8 554.68,-959.8"/>
<polygon fill="black" stroke="black" points="624.54,-1582.96 614.2,-1579.29 619.22,-1583.4 614.9,-1583.75 614.9,-1583.75 614.9,-1583.75 619.22,-1583.4 614.93,-1588.26 624.54,-1582.96"/>
<text text-anchor="start" x="621.24" y="-1593.8" font-family="Arial" font-size="10.00">Additional Relation</text>
</g>
<!-- logs&#45;&gt;comment_stars -->
<g id="edge11" class="edge">
<title>logs:comment_star_id&#45;&gt;comment_stars:id</title>
<path fill="none" stroke="black" stroke-dasharray="5,2" d="M624.61,-1551.9C661.68,-1542.94 625.35,-1480.75 613.24,-1432.8 608.8,-1415.25 598.64,-1414.35 594.18,-1396.8 583.88,-1356.22 551.31,-1302.6 593.18,-1302.6"/>
<polygon fill="black" stroke="black" points="624.51,-1551.92 614.1,-1548.49 619.21,-1552.48 614.9,-1552.93 614.9,-1552.93 614.9,-1552.93 619.21,-1552.48 615.04,-1557.44 624.51,-1551.92"/>
<text text-anchor="start" x="621.24" y="-1563" font-family="Arial" font-size="10.00">Additional Relation</text>
</g>
<!-- logs&#45;&gt;posts -->
<g id="edge9" class="edge">
<title>logs:post_id&#45;&gt;posts:id</title>
<path fill="none" stroke="black" stroke-dasharray="5,2" d="M389.45,-1605.08C370.28,-1501.4 413.75,-586.2 440.72,-586.2"/>
<polygon fill="black" stroke="black" points="389.47,-1605.12 389.34,-1616.09 391.6,-1610.02 393.33,-1613.99 393.33,-1613.99 393.33,-1613.99 391.6,-1610.02 397.59,-1612.5 389.47,-1605.12"/>
<text text-anchor="start" x="303.21" y="-1624.6" font-family="Arial" font-size="10.00">Additional Relation</text>
</g>
<!-- logs&#45;&gt;users -->
<g id="edge8" class="edge">
<title>logs:user_id&#45;&gt;users:id</title>
<path fill="none" stroke="black" stroke-dasharray="5,2" d="M385.21,-1639.18C324.15,-1548.12 291.59,-485.38 389.91,-342.8 435.33,-276.94 645.55,-212.6 725.55,-212.6"/>
<polygon fill="black" stroke="black" points="385.29,-1639.25 390.65,-1648.82 389.58,-1642.42 393.06,-1645 393.06,-1645 393.06,-1645 389.58,-1642.42 396.01,-1641.59 385.29,-1639.25"/>
<text text-anchor="start" x="400.59" y="-1655.4" font-family="Arial" font-size="10.00">logs&#45;&gt;users</text>
</g>
<!-- posts&#45;&gt;users -->
<g id="edge5" class="edge">
<title>posts:user_id&#45;&gt;users:id</title>
<path fill="none" stroke="black" d="M741.4,-554.95C834.49,-546.25 732.37,-413.48 726.55,-306.8 724.27,-264.99 683.68,-212.6 725.55,-212.6"/>
<polygon fill="black" stroke="black" points="741.43,-554.95 731.24,-550.89 736.1,-555.18 731.77,-555.37 731.77,-555.37 731.77,-555.37 736.1,-555.18 731.64,-559.88 741.43,-554.95"/>
<text text-anchor="start" x="738.11" y="-565.4" font-family="Arial" font-size="10.00">FOREIGN KEY (user_id) REFERENCES users (id)</text>
</g>
<!-- post_comments -->
<g id="node7" class="node">
<title>post_comments</title>
<polygon fill="#efefef" stroke="none" points="1054.38,-1691.6 1054.38,-1727.2 1271.45,-1727.2 1271.45,-1691.6 1054.38,-1691.6"/>
<polygon fill="none" stroke="black" points="1054.38,-1691.6 1054.38,-1727.2 1271.45,-1727.2 1271.45,-1691.6 1054.38,-1691.6"/>
<text text-anchor="start" x="1069.08" y="-1705" font-family="Arial Bold" font-size="18.00">post_comments</text>
<text text-anchor="start" x="1182.07" y="-1705" font-family="Arial" font-size="14.00">    </text>
<text text-anchor="start" x="1213.19" y="-1705" font-family="Arial" font-size="14.00" fill="#666666">[VIEW]</text>
<polygon fill="none" stroke="black" points="1054.38,-1660.8 1054.38,-1691.6 1271.45,-1691.6 1271.45,-1660.8 1054.38,-1660.8"/>
<text text-anchor="start" x="1061.38" y="-1673" font-family="Arial" font-size="14.00">id    </text>
<text text-anchor="start" x="1103.39" y="-1673" font-family="Arial" font-size="14.00" fill="#666666">[bigint(20)]</text>
<polygon fill="none" stroke="black" points="1054.38,-1630 1054.38,-1660.8 1271.45,-1660.8 1271.45,-1630 1054.38,-1630"/>
<text text-anchor="start" x="1061.38" y="-1642.2" font-family="Arial" font-size="14.00">title    </text>
<text text-anchor="start" x="1114.28" y="-1642.2" font-family="Arial" font-size="14.00" fill="#666666">[varchar(255)]</text>
<polygon fill="none" stroke="black" points="1054.38,-1599.2 1054.38,-1630 1271.45,-1630 1271.45,-1599.2 1054.38,-1599.2"/>
<text text-anchor="start" x="1061.38" y="-1611.4" font-family="Arial" font-size="14.00">post_user    </text>
<text text-anchor="start" x="1153.98" y="-1611.4" font-family="Arial" font-size="14.00" fill="#666666">[varchar(50)]</text>
<polygon fill="none" stroke="black" points="1054.38,-1568.4 1054.38,-1599.2 1271.45,-1599.2 1271.45,-1568.4 1054.38,-1568.4"/>
<text text-anchor="start" x="1061.38" y="-1580.6" font-family="Arial" font-size="14.00">comment    </text>
<text text-anchor="start" x="1150.07" y="-1580.6" font-family="Arial" font-size="14.00" fill="#666666">[text]</text>
<polygon fill="none" stroke="black" points="1054.38,-1537.6 1054.38,-1568.4 1271.45,-1568.4 1271.45,-1537.6 1054.38,-1537.6"/>
<text text-anchor="start" x="1061.38" y="-1549.8" font-family="Arial" font-size="14.00">comment_user    </text>
<text text-anchor="start" x="1185.09" y="-1549.8" font-family="Arial" font-size="14.00" fill="#666666">[varchar(50)]</text>
<polygon fill="none" stroke="black" points="1054.38,-1506.8 1054.38,-1537.6 1271.45,-1537.6 1271.45,-1506.8 1054.38,-1506.8"/>
<text text-anchor="start" x="1061.38" y="-1519" font-family="Arial" font-size="14.00">created    </text>
<text text-anchor="start" x="1139.19" y="-1519" font-family="Arial" font-size="14.00" fill="#666666">[datetime]</text>
<polygon fill="none" stroke="black" points="1054.38,-1476 1054.38,-1506.8 1271.45,-1506.8 1271.45,-1476 1054.38,-1476"/>
<text text-anchor="start" x="1061.38" y="-1488.2" font-family="Arial" font-size="14.00">updated    </text>
<text text-anchor="start" x="1143.1" y="-1488.2" font-family="Arial" font-size="14.00" fill="#666666">[datetime]</text>
</g>
<!-- same_name_constraints -->
<g id="node8" class="node">
<title>same_name_constraints</title>
<polygon fill="#efefef" stroke="none" points="909.7,-524.6 909.7,-560.2 1220.13,-560.2 1220.13,-524.6 909.7,-524.6"/>
<polygon fill="none" stroke="black" points="909.7,-524.6 909.7,-560.2 1220.13,-560.2 1220.13,-524.6 909.7,-524.6"/>
<text text-anchor="start" x="916.7" y="-538" font-family="Arial Bold" font-size="18.00">same_name_constraints</text>
<text text-anchor="start" x="1088.64" y="-538" font-family="Arial" font-size="14.00">    </text>
<text text-anchor="start" x="1119.76" y="-538" font-family="Arial" font-size="14.00" fill="#666666">[BASE TABLE]</text>
<polygon fill="none" stroke="black" points="909.7,-493.8 909.7,-524.6 1220.13,-524.6 1220.13,-493.8 909.7,-493.8"/>
<text text-anchor="start" x="916.7" y="-506" font-family="Arial" font-size="14.00">id    </text>
<text text-anchor="start" x="958.71" y="-506" font-family="Arial" font-size="14.00" fill="#666666">[bigint(20)]</text>
<polygon fill="none" stroke="black" points="909.7,-463 909.7,-493.8 1220.13,-493.8 1220.13,-463 909.7,-463"/>
<text text-anchor="start" x="916.7" y="-475.2" font-family="Arial" font-size="14.00">user_id    </text>
<text text-anchor="start" x="993.73" y="-475.2" font-family="Arial" font-size="14.00" fill="#666666">[int(11)]</text>
</g>
<!-- same_name_constraints&#45;&gt;users -->
<g id="edge6" class="edge">
<title>same_name_constraints:user_id&#45;&gt;users:id</title>
<path fill="none" stroke="black" d="M898.37,-477.59C805.75,-461.54 1028.63,-212.6 914.28,-212.6"/>
<polygon fill="black" stroke="black" points="898.39,-477.59 908.01,-482.86 903.71,-478.01 908.03,-478.35 908.03,-478.35 908.03,-478.35 903.71,-478.01 908.71,-473.89 898.39,-477.59"/>
<text text-anchor="start" x="795.62" y="-462.4" font-family="Arial" font-size="10.00">FOREIGN KEY (user_id) REFERENCES users (id)</text>
</g>
<!-- user_options -->
<g id="node10" class="node">
<title>user_options</title>
<polygon fill="#efefef" stroke="none" points="1324.67,-555.4 1324.67,-591 1555.16,-591 1555.16,-555.4 1324.67,-555.4"/>
<polygon fill="none" stroke="black" points="1324.67,-555.4 1324.67,-591 1555.16,-591 1555.16,-555.4 1324.67,-555.4"/>
<text text-anchor="start" x="1331.67" y="-568.8" font-family="Arial Bold" font-size="18.00">user_options</text>
<text text-anchor="start" x="1423.67" y="-568.8" font-family="Arial" font-size="14.00">    </text>
<text text-anchor="start" x="1454.78" y="-568.8" font-family="Arial" font-size="14.00" fill="#666666">[BASE TABLE]</text>
<polygon fill="none" stroke="black" points="1324.67,-524.6 1324.67,-555.4 1555.16,-555.4 1555.16,-524.6 1324.67,-524.6"/>
<text text-anchor="start" x="1331.67" y="-536.8" font-family="Arial" font-size="14.00">user_id    </text>
<text text-anchor="start" x="1408.71" y="-536.8" font-family="Arial" font-size="14.00" fill="#666666">[int(11)]</text>
<polygon fill="none" stroke="black" points="1324.67,-493.8 1324.67,-524.6 1555.16,-524.6 1555.16,-493.8 1324.67,-493.8"/>
<text text-anchor="start" x="1331.67" y="-506" font-family="Arial" font-size="14.00">show_email    </text>
<text text-anchor="start" x="1436.71" y="-506" font-family="Arial" font-size="14.00" fill="#666666">[tinyint(1)]</text>
<polygon fill="none" stroke="black" points="1324.67,-463 1324.67,-493.8 1555.16,-493.8 1555.16,-463 1324.67,-463"/>
<text text-anchor="start" x="1331.67" y="-475.2" font-family="Arial" font-size="14.00">created    </text>
<text text-anchor="start" x="1409.49" y="-475.2" font-family="Arial" font-size="14.00" fill="#666666">[timestamp]</text>
<polygon fill="none" stroke="black" points="1324.67,-432.2 1324.67,-463 1555.16,-463 1555.16,-432.2 1324.67,-432.2"/>
<text text-anchor="start" x="1331.67" y="-444.4" font-family="Arial" font-size="14.00">updated    </text>
<text text-anchor="start" x="1413.4" y="-444.4" font-family="Arial" font-size="14.00" fill="#666666">[timestamp]</text>
</g>
<!-- user_options&#45;&gt;users -->
<g id="edge7" class="edge">
<title>user_options:user_id&#45;&gt;users:id</title>
<path fill="none" stroke="black" d="M1313.46,-539.36C1240.98,-529.42 1330.45,-407.02 1271.91,-342.8 1157.96,-217.79 1083.43,-212.6 914.28,-212.6"/>
<polygon fill="black" stroke="black" points="1313.36,-539.35 1323.06,-544.47 1318.68,-539.69 1323.01,-539.96 1323.01,-539.96 1323.01,-539.96 1318.68,-539.69 1323.62,-535.49 1313.36,-539.35"/>
<text text-anchor="start" x="1090.52" y="-550" font-family="Arial" font-size="10.00">FOREIGN KEY (user_id) REFERENCES users (id)</text>
</g>
</g>
</svg>
