<?xml version="1.0" encoding="UTF-8" standalone="no"?>
<!DOCTYPE svg PUBLIC "-//W3C//DTD SVG 1.1//EN"
 "http://www.w3.org/Graphics/SVG/1.1/DTD/svg11.dtd">
<!-- Generated by graphviz version 12.1.2 (20240928.0832)
 -->
<!-- Title: users Pages: 1 -->
<svg width="2069pt" height="694pt"
 viewBox="0.00 0.00 2069.34 694.40" xmlns="http://www.w3.org/2000/svg" xmlns:xlink="http://www.w3.org/1999/xlink">
<g id="graph0" class="graph" transform="scale(1 1) rotate(0) translate(4 690.4)">
<title>users</title>
<polygon fill="white" stroke="none" points="-4,4 -4,-690.4 2065.34,-690.4 2065.34,4 -4,4"/>
<!-- users -->
<g id="node1" class="node">
<title>users</title>
<polygon fill="#efefef" stroke="none" points="949.7,-231 949.7,-266.6 1125.18,-266.6 1125.18,-231 949.7,-231"/>
<polygon fill="none" stroke="black" points="949.7,-231 949.7,-266.6 1125.18,-266.6 1125.18,-231 949.7,-231"/>
<text text-anchor="start" x="956.7" y="-244.4" font-family="Arial Bold" font-size="18.00">users</text>
<text text-anchor="start" x="993.69" y="-244.4" font-family="Arial" font-size="14.00">    </text>
<text text-anchor="start" x="1024.81" y="-244.4" font-family="Arial" font-size="14.00" fill="#666666">[BASE TABLE]</text>
<polygon fill="none" stroke="black" points="949.7,-200.2 949.7,-231 1125.18,-231 1125.18,-200.2 949.7,-200.2"/>
<text text-anchor="start" x="956.7" y="-212.4" font-family="Arial" font-size="14.00">id </text>
<text text-anchor="start" x="971.48" y="-212.4" font-family="Arial" font-size="14.00" fill="#666666">[int(11)]</text>
<polygon fill="none" stroke="black" points="949.7,-169.4 949.7,-200.2 1125.18,-200.2 1125.18,-169.4 949.7,-169.4"/>
<text text-anchor="start" x="956.7" y="-181.6" font-family="Arial" font-size="14.00">username </text>
<text text-anchor="start" x="1022.84" y="-181.6" font-family="Arial" font-size="14.00" fill="#666666">[varchar(50)]</text>
<polygon fill="none" stroke="black" points="949.7,-138.6 949.7,-169.4 1125.18,-169.4 1125.18,-138.6 949.7,-138.6"/>
<text text-anchor="start" x="956.7" y="-150.8" font-family="Arial" font-size="14.00">password </text>
<text text-anchor="start" x="1020.5" y="-150.8" font-family="Arial" font-size="14.00" fill="#666666">[varchar(50)]</text>
<polygon fill="none" stroke="black" points="949.7,-107.8 949.7,-138.6 1125.18,-138.6 1125.18,-107.8 949.7,-107.8"/>
<text text-anchor="start" x="956.7" y="-120" font-family="Arial" font-size="14.00">email </text>
<text text-anchor="start" x="994.04" y="-120" font-family="Arial" font-size="14.00" fill="#666666">[varchar(355)]</text>
<polygon fill="none" stroke="black" points="949.7,-77 949.7,-107.8 1125.18,-107.8 1125.18,-77 949.7,-77"/>
<text text-anchor="start" x="956.7" y="-89.2" font-family="Arial" font-size="14.00">created </text>
<text text-anchor="start" x="1007.28" y="-89.2" font-family="Arial" font-size="14.00" fill="#666666">[timestamp]</text>
<polygon fill="none" stroke="black" points="949.7,-46.2 949.7,-77 1125.18,-77 1125.18,-46.2 949.7,-46.2"/>
<text text-anchor="start" x="956.7" y="-58.4" font-family="Arial" font-size="14.00">updated </text>
<text text-anchor="start" x="1011.19" y="-58.4" font-family="Arial" font-size="14.00" fill="#666666">[timestamp]</text>
<polygon fill="none" stroke="black" stroke-width="3" points="948.2,-44.7 948.2,-268.1 1126.68,-268.1 1126.68,-44.7 948.2,-44.7"/>
</g>
<!-- comments -->
<g id="node2" class="node">
<title>comments</title>
<polygon fill="#efefef" stroke="none" points="43.2,-607.6 43.2,-643.2 255.68,-643.2 255.68,-607.6 43.2,-607.6"/>
<polygon fill="none" stroke="black" points="43.2,-607.6 43.2,-643.2 255.68,-643.2 255.68,-607.6 43.2,-607.6"/>
<text text-anchor="start" x="50.2" y="-621" font-family="Arial Bold" font-size="18.00">comments</text>
<text text-anchor="start" x="124.19" y="-621" font-family="Arial" font-size="14.00">    </text>
<text text-anchor="start" x="155.3" y="-621" font-family="Arial" font-size="14.00" fill="#666666">[BASE TABLE]</text>
<polygon fill="none" stroke="black" points="43.2,-576.8 43.2,-607.6 255.68,-607.6 255.68,-576.8 43.2,-576.8"/>
<text text-anchor="start" x="50.2" y="-589" font-family="Arial" font-size="14.00">id </text>
<text text-anchor="start" x="64.99" y="-589" font-family="Arial" font-size="14.00" fill="#666666">[bigint(20)]</text>
<polygon fill="none" stroke="black" points="43.2,-546 43.2,-576.8 255.68,-576.8 255.68,-546 43.2,-546"/>
<text text-anchor="start" x="50.2" y="-558.2" font-family="Arial" font-size="14.00">post_id </text>
<text text-anchor="start" x="99.23" y="-558.2" font-family="Arial" font-size="14.00" fill="#666666">[bigint(20)]</text>
<polygon fill="none" stroke="black" points="43.2,-515.2 43.2,-546 255.68,-546 255.68,-515.2 43.2,-515.2"/>
<text text-anchor="start" x="50.2" y="-527.4" font-family="Arial" font-size="14.00">user_id </text>
<text text-anchor="start" x="100.01" y="-527.4" font-family="Arial" font-size="14.00" fill="#666666">[int(11)]</text>
<polygon fill="none" stroke="black" points="43.2,-484.4 43.2,-515.2 255.68,-515.2 255.68,-484.4 43.2,-484.4"/>
<text text-anchor="start" x="50.2" y="-496.6" font-family="Arial" font-size="14.00">comment </text>
<text text-anchor="start" x="111.66" y="-496.6" font-family="Arial" font-size="14.00" fill="#666666">[text]</text>
<polygon fill="none" stroke="black" points="43.2,-453.6 43.2,-484.4 255.68,-484.4 255.68,-453.6 43.2,-453.6"/>
<text text-anchor="start" x="50.2" y="-465.8" font-family="Arial" font-size="14.00">post_id_desc </text>
<text text-anchor="start" x="136.59" y="-465.8" font-family="Arial" font-size="14.00" fill="#666666">[bigint(20)]</text>
<polygon fill="none" stroke="black" points="43.2,-422.8 43.2,-453.6 255.68,-453.6 255.68,-422.8 43.2,-422.8"/>
<text text-anchor="start" x="50.2" y="-435" font-family="Arial" font-size="14.00">created </text>
<text text-anchor="start" x="100.79" y="-435" font-family="Arial" font-size="14.00" fill="#666666">[datetime]</text>
<polygon fill="none" stroke="black" points="43.2,-392 43.2,-422.8 255.68,-422.8 255.68,-392 43.2,-392"/>
<text text-anchor="start" x="50.2" y="-404.2" font-family="Arial" font-size="14.00">updated </text>
<text text-anchor="start" x="104.7" y="-404.2" font-family="Arial" font-size="14.00" fill="#666666">[datetime]</text>
</g>
<!-- comments&#45;&gt;users -->
<g id="edge1" class="edge">
<title>comments:user_id&#45;&gt;users:id</title>
<path fill="none" stroke="black" d="M266.93,-529.86C332.4,-519.55 248.9,-403.51 307.44,-348.8 413.77,-249.42 803.15,-215.6 948.7,-215.6"/>
<polygon fill="black" stroke="black" points="266.98,-529.86 256.69,-526.09 261.66,-530.24 257.34,-530.55 257.34,-530.55 257.34,-530.55 261.66,-530.24 257.33,-535.06 266.98,-529.86"/>
<text text-anchor="start" x="143.6" y="-514.6" font-family="Arial" font-size="10.00">FOREIGN KEY (user_id) REFERENCES users (id)</text>
</g>
<!-- comment_stars -->
<g id="node3" class="node">
<title>comment_stars</title>
<polygon fill="#efefef" stroke="none" points="359.71,-592.2 359.71,-627.8 607.17,-627.8 607.17,-592.2 359.71,-592.2"/>
<polygon fill="none" stroke="black" points="359.71,-592.2 359.71,-627.8 607.17,-627.8 607.17,-592.2 359.71,-592.2"/>
<text text-anchor="start" x="366.71" y="-605.6" font-family="Arial Bold" font-size="18.00">comment_stars</text>
<text text-anchor="start" x="475.68" y="-605.6" font-family="Arial" font-size="14.00">    </text>
<text text-anchor="start" x="506.8" y="-605.6" font-family="Arial" font-size="14.00" fill="#666666">[BASE TABLE]</text>
<polygon fill="none" stroke="black" points="359.71,-561.4 359.71,-592.2 607.17,-592.2 607.17,-561.4 359.71,-561.4"/>
<text text-anchor="start" x="366.71" y="-573.6" font-family="Arial" font-size="14.00">id </text>
<text text-anchor="start" x="381.49" y="-573.6" font-family="Arial" font-size="14.00" fill="#666666">[bigint(20)]</text>
<polygon fill="none" stroke="black" points="359.71,-530.6 359.71,-561.4 607.17,-561.4 607.17,-530.6 359.71,-530.6"/>
<text text-anchor="start" x="366.71" y="-542.8" font-family="Arial" font-size="14.00">user_id </text>
<text text-anchor="start" x="416.51" y="-542.8" font-family="Arial" font-size="14.00" fill="#666666">[int(11)]</text>
<polygon fill="none" stroke="black" points="359.71,-499.8 359.71,-530.6 607.17,-530.6 607.17,-499.8 359.71,-499.8"/>
<text text-anchor="start" x="366.71" y="-512" font-family="Arial" font-size="14.00">comment_post_id </text>
<text text-anchor="start" x="481.1" y="-512" font-family="Arial" font-size="14.00" fill="#666666">[bigint(20)]</text>
<polygon fill="none" stroke="black" points="359.71,-469 359.71,-499.8 607.17,-499.8 607.17,-469 359.71,-469"/>
<text text-anchor="start" x="366.71" y="-481.2" font-family="Arial" font-size="14.00">comment_user_id </text>
<text text-anchor="start" x="481.87" y="-481.2" font-family="Arial" font-size="14.00" fill="#666666">[int(11)]</text>
<polygon fill="none" stroke="black" points="359.71,-438.2 359.71,-469 607.17,-469 607.17,-438.2 359.71,-438.2"/>
<text text-anchor="start" x="366.71" y="-450.4" font-family="Arial" font-size="14.00">created </text>
<text text-anchor="start" x="417.29" y="-450.4" font-family="Arial" font-size="14.00" fill="#666666">[timestamp]</text>
<polygon fill="none" stroke="black" points="359.71,-407.4 359.71,-438.2 607.17,-438.2 607.17,-407.4 359.71,-407.4"/>
<text text-anchor="start" x="366.71" y="-419.6" font-family="Arial" font-size="14.00">updated </text>
<text text-anchor="start" x="421.2" y="-419.6" font-family="Arial" font-size="14.00" fill="#666666">[timestamp]</text>
</g>
<!-- comment_stars&#45;&gt;users -->
<g id="edge2" class="edge">
<title>comment_stars:comment_user_id&#45;&gt;users:id</title>
<path fill="none" stroke="black" d="M618.29,-483.51C666.26,-474.17 618.08,-393.17 659.44,-348.8 755.95,-245.28 807.16,-215.6 948.7,-215.6"/>
<polygon fill="black" stroke="black" points="618.47,-483.5 608.11,-479.89 613.15,-483.96 608.84,-484.34 608.84,-484.34 608.84,-484.34 613.15,-483.96 608.9,-488.85 618.47,-483.5"/>
<text text-anchor="start" x="615.17" y="-494.4" font-family="Arial" font-size="10.00">FOREIGN KEY (comment_user_id) REFERENCES users (id)</text>
</g>
<!-- posts -->
<g id="node4" class="node">
<title>posts</title>
<polygon fill="#efefef" stroke="none" points="711.86,-607.6 711.86,-643.2 973.01,-643.2 973.01,-607.6 711.86,-607.6"/>
<polygon fill="none" stroke="black" points="711.86,-607.6 711.86,-643.2 973.01,-643.2 973.01,-607.6 711.86,-607.6"/>
<text text-anchor="start" x="761.69" y="-621" font-family="Arial Bold" font-size="18.00">posts</text>
<text text-anchor="start" x="798.7" y="-621" font-family="Arial" font-size="14.00">    </text>
<text text-anchor="start" x="829.82" y="-621" font-family="Arial" font-size="14.00" fill="#666666">[BASE TABLE]</text>
<polygon fill="none" stroke="black" points="711.86,-576.8 711.86,-607.6 973.01,-607.6 973.01,-576.8 711.86,-576.8"/>
<text text-anchor="start" x="718.86" y="-589" font-family="Arial" font-size="14.00">id </text>
<text text-anchor="start" x="733.65" y="-589" font-family="Arial" font-size="14.00" fill="#666666">[bigint(20)]</text>
<polygon fill="none" stroke="black" points="711.86,-546 711.86,-576.8 973.01,-576.8 973.01,-546 711.86,-546"/>
<text text-anchor="start" x="718.86" y="-558.2" font-family="Arial" font-size="14.00">user_id </text>
<text text-anchor="start" x="768.67" y="-558.2" font-family="Arial" font-size="14.00" fill="#666666">[int(11)]</text>
<polygon fill="none" stroke="black" points="711.86,-515.2 711.86,-546 973.01,-546 973.01,-515.2 711.86,-515.2"/>
<text text-anchor="start" x="718.86" y="-527.4" font-family="Arial" font-size="14.00">title </text>
<text text-anchor="start" x="744.54" y="-527.4" font-family="Arial" font-size="14.00" fill="#666666">[varchar(255)]</text>
<polygon fill="none" stroke="black" points="711.86,-484.4 711.86,-515.2 973.01,-515.2 973.01,-484.4 711.86,-484.4"/>
<text text-anchor="start" x="718.86" y="-496.6" font-family="Arial" font-size="14.00">body </text>
<text text-anchor="start" x="753.11" y="-496.6" font-family="Arial" font-size="14.00" fill="#666666">[text]</text>
<polygon fill="none" stroke="black" points="711.86,-453.6 711.86,-484.4 973.01,-484.4 973.01,-453.6 711.86,-453.6"/>
<text text-anchor="start" x="718.86" y="-465.8" font-family="Arial" font-size="14.00">post_type </text>
<text text-anchor="start" x="783.46" y="-465.8" font-family="Arial" font-size="14.00" fill="#666666">[enum(&#39;public&#39;,&#39;private&#39;,&#39;draft&#39;)]</text>
<polygon fill="none" stroke="black" points="711.86,-422.8 711.86,-453.6 973.01,-453.6 973.01,-422.8 711.86,-422.8"/>
<text text-anchor="start" x="718.86" y="-435" font-family="Arial" font-size="14.00">created </text>
<text text-anchor="start" x="769.45" y="-435" font-family="Arial" font-size="14.00" fill="#666666">[datetime]</text>
<polygon fill="none" stroke="black" points="711.86,-392 711.86,-422.8 973.01,-422.8 973.01,-392 711.86,-392"/>
<text text-anchor="start" x="718.86" y="-404.2" font-family="Arial" font-size="14.00">updated </text>
<text text-anchor="start" x="773.36" y="-404.2" font-family="Arial" font-size="14.00" fill="#666666">[datetime]</text>
</g>
<!-- posts&#45;&gt;users -->
<g id="edge3" class="edge">
<title>posts:user_id&#45;&gt;users:id</title>
<path fill="none" stroke="black" d="M984.35,-560.85C1063.22,-551.91 998.96,-435.81 973.01,-348.8 967.57,-330.53 955.19,-331.05 949.7,-312.8 937.24,-271.43 905.49,-215.6 948.7,-215.6"/>
<polygon fill="black" stroke="black" points="984.33,-560.85 974.11,-556.89 979.01,-561.13 974.68,-561.36 974.68,-561.36 974.68,-561.36 979.01,-561.13 974.59,-565.88 984.33,-560.85"/>
<text text-anchor="start" x="981.01" y="-571.4" font-family="Arial" font-size="10.00">FOREIGN KEY (user_id) REFERENCES users (id)</text>
</g>
<!-- same_name_constraints -->
<g id="node5" class="node">
<title>same_name_constraints</title>
<polygon fill="#efefef" stroke="none" points="1077.22,-530.6 1077.22,-566.2 1387.66,-566.2 1387.66,-530.6 1077.22,-530.6"/>
<polygon fill="none" stroke="black" points="1077.22,-530.6 1077.22,-566.2 1387.66,-566.2 1387.66,-530.6 1077.22,-530.6"/>
<text text-anchor="start" x="1084.22" y="-544" font-family="Arial Bold" font-size="18.00">same_name_constraints</text>
<text text-anchor="start" x="1256.17" y="-544" font-family="Arial" font-size="14.00">    </text>
<text text-anchor="start" x="1287.28" y="-544" font-family="Arial" font-size="14.00" fill="#666666">[BASE TABLE]</text>
<polygon fill="none" stroke="black" points="1077.22,-499.8 1077.22,-530.6 1387.66,-530.6 1387.66,-499.8 1077.22,-499.8"/>
<text text-anchor="start" x="1084.22" y="-512" font-family="Arial" font-size="14.00">id </text>
<text text-anchor="start" x="1099" y="-512" font-family="Arial" font-size="14.00" fill="#666666">[bigint(20)]</text>
<polygon fill="none" stroke="black" points="1077.22,-469 1077.22,-499.8 1387.66,-499.8 1387.66,-469 1077.22,-469"/>
<text text-anchor="start" x="1084.22" y="-481.2" font-family="Arial" font-size="14.00">user_id </text>
<text text-anchor="start" x="1134.03" y="-481.2" font-family="Arial" font-size="14.00" fill="#666666">[int(11)]</text>
</g>
<!-- same_name_constraints&#45;&gt;users -->
<g id="edge4" class="edge">
<title>same_name_constraints:user_id&#45;&gt;users:id</title>
<path fill="none" stroke="black" d="M1066.43,-481.43C1057.42,-472.74 1072.78,-446.7 1077.22,-425.8 1097.14,-331.97 1222.1,-215.6 1126.18,-215.6"/>
<polygon fill="black" stroke="black" points="1066.33,-481.4 1074.59,-488.61 1071.43,-482.95 1075.58,-484.21 1075.58,-484.21 1075.58,-484.21 1071.43,-482.95 1077.21,-480 1066.33,-481.4"/>
<text text-anchor="start" x="1023.18" y="-468.4" font-family="Arial" font-size="10.00">FOREIGN KEY (user_id) REFERENCES users (id)</text>
</g>
<!-- user_options -->
<g id="node6" class="node">
<title>user_options</title>
<polygon fill="#efefef" stroke="none" points="1492.2,-561.4 1492.2,-597 1722.68,-597 1722.68,-561.4 1492.2,-561.4"/>
<polygon fill="none" stroke="black" points="1492.2,-561.4 1492.2,-597 1722.68,-597 1722.68,-561.4 1492.2,-561.4"/>
<text text-anchor="start" x="1499.2" y="-574.8" font-family="Arial Bold" font-size="18.00">user_options</text>
<text text-anchor="start" x="1591.19" y="-574.8" font-family="Arial" font-size="14.00">    </text>
<text text-anchor="start" x="1622.31" y="-574.8" font-family="Arial" font-size="14.00" fill="#666666">[BASE TABLE]</text>
<polygon fill="none" stroke="black" points="1492.2,-530.6 1492.2,-561.4 1722.68,-561.4 1722.68,-530.6 1492.2,-530.6"/>
<text text-anchor="start" x="1499.2" y="-542.8" font-family="Arial" font-size="14.00">user_id </text>
<text text-anchor="start" x="1549" y="-542.8" font-family="Arial" font-size="14.00" fill="#666666">[int(11)]</text>
<polygon fill="none" stroke="black" points="1492.2,-499.8 1492.2,-530.6 1722.68,-530.6 1722.68,-499.8 1492.2,-499.8"/>
<text text-anchor="start" x="1499.2" y="-512" font-family="Arial" font-size="14.00">show_email </text>
<text text-anchor="start" x="1577.01" y="-512" font-family="Arial" font-size="14.00" fill="#666666">[tinyint(1)]</text>
<polygon fill="none" stroke="black" points="1492.2,-469 1492.2,-499.8 1722.68,-499.8 1722.68,-469 1492.2,-469"/>
<text text-anchor="start" x="1499.2" y="-481.2" font-family="Arial" font-size="14.00">created </text>
<text text-anchor="start" x="1549.78" y="-481.2" font-family="Arial" font-size="14.00" fill="#666666">[timestamp]</text>
<polygon fill="none" stroke="black" points="1492.2,-438.2 1492.2,-469 1722.68,-469 1722.68,-438.2 1492.2,-438.2"/>
<text text-anchor="start" x="1499.2" y="-450.4" font-family="Arial" font-size="14.00">updated </text>
<text text-anchor="start" x="1553.69" y="-450.4" font-family="Arial" font-size="14.00" fill="#666666">[timestamp]</text>
</g>
<!-- user_options&#45;&gt;users -->
<g id="edge5" class="edge">
<title>user_options:user_id&#45;&gt;users:id</title>
<path fill="none" stroke="black" d="M1480.97,-545.36C1408.37,-535.55 1496.26,-414.55 1439.44,-348.8 1340.51,-234.34 1277.47,-215.6 1126.18,-215.6"/>
<polygon fill="black" stroke="black" points="1480.88,-545.36 1490.58,-550.47 1486.21,-545.69 1490.53,-545.96 1490.53,-545.96 1490.53,-545.96 1486.21,-545.69 1491.14,-541.49 1480.88,-545.36"/>
<text text-anchor="start" x="1438.16" y="-530" font-family="Arial" font-size="10.00">FOREIGN KEY (user_id) REFERENCES users (id)</text>
</g>
<!-- logs -->
<g id="node7" class="node">
<title>logs</title>
<polygon fill="#efefef" stroke="none" points="1826.73,-607.6 1826.73,-643.2 2018.14,-643.2 2018.14,-607.6 1826.73,-607.6"/>
<polygon fill="none" stroke="black" points="1826.73,-607.6 1826.73,-643.2 2018.14,-643.2 2018.14,-607.6 1826.73,-607.6"/>
<text text-anchor="start" x="1845.19" y="-621" font-family="Arial Bold" font-size="18.00">logs</text>
<text text-anchor="start" x="1875.2" y="-621" font-family="Arial" font-size="14.00">    </text>
<text text-anchor="start" x="1906.31" y="-621" font-family="Arial" font-size="14.00" fill="#666666">[BASE TABLE]</text>
<polygon fill="none" stroke="black" points="1826.73,-576.8 1826.73,-607.6 2018.14,-607.6 2018.14,-576.8 1826.73,-576.8"/>
<text text-anchor="start" x="1833.73" y="-589" font-family="Arial" font-size="14.00">id </text>
<text text-anchor="start" x="1848.52" y="-589" font-family="Arial" font-size="14.00" fill="#666666">[bigint(20)]</text>
<polygon fill="none" stroke="black" points="1826.73,-546 1826.73,-576.8 2018.14,-576.8 2018.14,-546 1826.73,-546"/>
<text text-anchor="start" x="1833.73" y="-558.2" font-family="Arial" font-size="14.00">user_id </text>
<text text-anchor="start" x="1883.54" y="-558.2" font-family="Arial" font-size="14.00" fill="#666666">[int(11)]</text>
<polygon fill="none" stroke="black" points="1826.73,-515.2 1826.73,-546 2018.14,-546 2018.14,-515.2 1826.73,-515.2"/>
<text text-anchor="start" x="1833.73" y="-527.4" font-family="Arial" font-size="14.00">post_id </text>
<text text-anchor="start" x="1882.77" y="-527.4" font-family="Arial" font-size="14.00" fill="#666666">[bigint(20)]</text>
<polygon fill="none" stroke="black" points="1826.73,-484.4 1826.73,-515.2 2018.14,-515.2 2018.14,-484.4 1826.73,-484.4"/>
<text text-anchor="start" x="1833.73" y="-496.6" font-family="Arial" font-size="14.00">comment_id </text>
<text text-anchor="start" x="1913.88" y="-496.6" font-family="Arial" font-size="14.00" fill="#666666">[bigint(20)]</text>
<polygon fill="none" stroke="black" points="1826.73,-453.6 1826.73,-484.4 2018.14,-484.4 2018.14,-453.6 1826.73,-453.6"/>
<text text-anchor="start" x="1833.73" y="-465.8" font-family="Arial" font-size="14.00">comment_star_id </text>
<text text-anchor="start" x="1945" y="-465.8" font-family="Arial" font-size="14.00" fill="#666666">[bigint(20)]</text>
<polygon fill="none" stroke="black" points="1826.73,-422.8 1826.73,-453.6 2018.14,-453.6 2018.14,-422.8 1826.73,-422.8"/>
<text text-anchor="start" x="1833.73" y="-435" font-family="Arial" font-size="14.00">payload </text>
<text text-anchor="start" x="1886.66" y="-435" font-family="Arial" font-size="14.00" fill="#666666">[text]</text>
<polygon fill="none" stroke="black" points="1826.73,-392 1826.73,-422.8 2018.14,-422.8 2018.14,-392 1826.73,-392"/>
<text text-anchor="start" x="1833.73" y="-404.2" font-family="Arial" font-size="14.00">created </text>
<text text-anchor="start" x="1884.32" y="-404.2" font-family="Arial" font-size="14.00" fill="#666666">[datetime]</text>
</g>
<!-- logs&#45;&gt;users -->
<g id="edge6" class="edge">
<title>logs:user_id&#45;&gt;users:id</title>
<path fill="none" stroke="black" stroke-dasharray="5,2" d="M1815.77,-560.81C1736.87,-550.74 1841.74,-413.84 1774.44,-348.8 1668.69,-246.6 1273.25,-215.6 1126.18,-215.6"/>
<polygon fill="black" stroke="black" points="1815.41,-560.79 1825.13,-565.87 1820.74,-561.11 1825.06,-561.36 1825.06,-561.36 1825.06,-561.36 1820.74,-561.11 1825.66,-556.89 1815.41,-560.79"/>
<text text-anchor="start" x="1783.26" y="-545.4" font-family="Arial" font-size="10.00">logs&#45;&gt;users</text>
</g>
</g>
</svg>
