<?xml version="1.0" encoding="UTF-8" standalone="no"?>
<!DOCTYPE svg PUBLIC "-//W3C//DTD SVG 1.1//EN"
 "http://www.w3.org/Graphics/SVG/1.1/DTD/svg11.dtd">
<!-- Generated by graphviz version 2.40.1 (20161225.0304)
 -->
<!-- Title: users Pages: 1 -->
<svg width="1607pt" height="682pt"
 viewBox="0.00 0.00 1607.00 682.00" xmlns="http://www.w3.org/2000/svg" xmlns:xlink="http://www.w3.org/1999/xlink">
<g id="graph0" class="graph" transform="scale(1 1) rotate(0) translate(4 678)">
<title>users</title>
<polygon fill="#ffffff" stroke="transparent" points="-4,4 -4,-678 1603,-678 1603,4 -4,4"/>
<!-- users -->
<g id="node1" class="node">
<title>users</title>
<polygon fill="#efefef" stroke="transparent" points="735.5,-225.5 735.5,-260.5 894.5,-260.5 894.5,-225.5 735.5,-225.5"/>
<polygon fill="none" stroke="#000000" points="735.5,-225.5 735.5,-260.5 894.5,-260.5 894.5,-225.5 735.5,-225.5"/>
<text text-anchor="start" x="744.3708" y="-238.3" font-family="Arial Bold" font-size="18.00" fill="#000000">users</text>
<text text-anchor="start" x="788.3754" y="-238.3" font-family="Arial" font-size="14.00" fill="#000000"> </text>
<text text-anchor="start" x="792.266" y="-238.3" font-family="Arial" font-size="14.00" fill="#666666">[BASE TABLE]</text>
<polygon fill="none" stroke="#000000" points="735.5,-195.5 735.5,-225.5 894.5,-225.5 894.5,-195.5 735.5,-195.5"/>
<text text-anchor="start" x="742.5" y="-206.9" font-family="Arial" font-size="14.00" fill="#000000">id </text>
<text text-anchor="start" x="757.2798" y="-206.9" font-family="Arial" font-size="14.00" fill="#666666">[int(11)]</text>
<polygon fill="none" stroke="#000000" points="735.5,-165.5 735.5,-195.5 894.5,-195.5 894.5,-165.5 735.5,-165.5"/>
<text text-anchor="start" x="742.2693" y="-176.9" font-family="Arial" font-size="14.00" fill="#000000">username </text>
<text text-anchor="start" x="808.3941" y="-176.9" font-family="Arial" font-size="14.00" fill="#666666">[varchar(50)]</text>
<polygon fill="none" stroke="#000000" points="735.5,-135.5 735.5,-165.5 894.5,-165.5 894.5,-135.5 735.5,-135.5"/>
<text text-anchor="start" x="742.5" y="-146.9" font-family="Arial" font-size="14.00" fill="#000000">password </text>
<text text-anchor="start" x="806.2882" y="-146.9" font-family="Arial" font-size="14.00" fill="#666666">[varchar(50)]</text>
<polygon fill="none" stroke="#000000" points="735.5,-105.5 735.5,-135.5 894.5,-135.5 894.5,-105.5 735.5,-105.5"/>
<text text-anchor="start" x="742.5" y="-116.9" font-family="Arial" font-size="14.00" fill="#000000">email </text>
<text text-anchor="start" x="779.8296" y="-116.9" font-family="Arial" font-size="14.00" fill="#666666">[varchar(355)]</text>
<polygon fill="none" stroke="#000000" points="735.5,-75.5 735.5,-105.5 894.5,-105.5 894.5,-75.5 735.5,-75.5"/>
<text text-anchor="start" x="742.5" y="-86.9" font-family="Arial" font-size="14.00" fill="#000000">created </text>
<text text-anchor="start" x="793.0722" y="-86.9" font-family="Arial" font-size="14.00" fill="#666666">[timestamp]</text>
<polygon fill="none" stroke="#000000" points="735.5,-45.5 735.5,-75.5 894.5,-75.5 894.5,-45.5 735.5,-45.5"/>
<text text-anchor="start" x="742.5" y="-56.9" font-family="Arial" font-size="14.00" fill="#000000">updated </text>
<text text-anchor="start" x="796.9768" y="-56.9" font-family="Arial" font-size="14.00" fill="#666666">[timestamp]</text>
<polygon fill="none" stroke="#000000" stroke-width="3" points="733.5,-44.5 733.5,-262.5 895.5,-262.5 895.5,-44.5 733.5,-44.5"/>
</g>
<!-- posts -->
<g id="node2" class="node">
<title>posts</title>
<polygon fill="#efefef" stroke="transparent" points="43.5,-595.5 43.5,-630.5 306.5,-630.5 306.5,-595.5 43.5,-595.5"/>
<polygon fill="none" stroke="#000000" points="43.5,-595.5 43.5,-630.5 306.5,-630.5 306.5,-595.5 43.5,-595.5"/>
<text text-anchor="start" x="104.8658" y="-608.3" font-family="Arial Bold" font-size="18.00" fill="#000000">posts</text>
<text text-anchor="start" x="147.8804" y="-608.3" font-family="Arial" font-size="14.00" fill="#000000"> </text>
<text text-anchor="start" x="151.771" y="-608.3" font-family="Arial" font-size="14.00" fill="#666666">[BASE TABLE]</text>
<polygon fill="none" stroke="#000000" points="43.5,-565.5 43.5,-595.5 306.5,-595.5 306.5,-565.5 43.5,-565.5"/>
<text text-anchor="start" x="50.5" y="-576.9" font-family="Arial" font-size="14.00" fill="#000000">id </text>
<text text-anchor="start" x="65.2798" y="-576.9" font-family="Arial" font-size="14.00" fill="#666666">[bigint(20)]</text>
<polygon fill="none" stroke="#000000" points="43.5,-535.5 43.5,-565.5 306.5,-565.5 306.5,-535.5 43.5,-535.5"/>
<text text-anchor="start" x="50.5" y="-546.9" font-family="Arial" font-size="14.00" fill="#000000">user_id </text>
<text text-anchor="start" x="100.2882" y="-546.9" font-family="Arial" font-size="14.00" fill="#666666">[int(11)]</text>
<polygon fill="none" stroke="#000000" points="43.5,-505.5 43.5,-535.5 306.5,-535.5 306.5,-505.5 43.5,-505.5"/>
<text text-anchor="start" x="50.5" y="-516.9" font-family="Arial" font-size="14.00" fill="#000000">title </text>
<text text-anchor="start" x="76.1676" y="-516.9" font-family="Arial" font-size="14.00" fill="#666666">[varchar(255)]</text>
<polygon fill="none" stroke="#000000" points="43.5,-475.5 43.5,-505.5 306.5,-505.5 306.5,-475.5 43.5,-475.5"/>
<text text-anchor="start" x="50.5" y="-486.9" font-family="Arial" font-size="14.00" fill="#000000">body </text>
<text text-anchor="start" x="84.7384" y="-486.9" font-family="Arial" font-size="14.00" fill="#666666">[text]</text>
<polygon fill="none" stroke="#000000" points="43.5,-445.5 43.5,-475.5 306.5,-475.5 306.5,-445.5 43.5,-445.5"/>
<text text-anchor="start" x="50.197" y="-456.9" font-family="Arial" font-size="14.00" fill="#000000">post_type </text>
<text text-anchor="start" x="114.7818" y="-456.9" font-family="Arial" font-size="14.00" fill="#666666">[enum(&#39;public&#39;,&#39;private&#39;,&#39;draft&#39;)]</text>
<polygon fill="none" stroke="#000000" points="43.5,-415.5 43.5,-445.5 306.5,-445.5 306.5,-415.5 43.5,-415.5"/>
<text text-anchor="start" x="50.5" y="-426.9" font-family="Arial" font-size="14.00" fill="#000000">created </text>
<text text-anchor="start" x="101.0722" y="-426.9" font-family="Arial" font-size="14.00" fill="#666666">[datetime]</text>
<polygon fill="none" stroke="#000000" points="43.5,-385.5 43.5,-415.5 306.5,-415.5 306.5,-385.5 43.5,-385.5"/>
<text text-anchor="start" x="50.5" y="-396.9" font-family="Arial" font-size="14.00" fill="#000000">updated </text>
<text text-anchor="start" x="104.9768" y="-396.9" font-family="Arial" font-size="14.00" fill="#666666">[datetime]</text>
</g>
<!-- posts&#45;&gt;users -->
<g id="edge1" class="edge">
<title>posts:user_id&#45;&gt;users:id</title>
<path fill="none" stroke="#000000" d="M316.7381,-549.8839C393.4661,-539.8804 296.952,-410.5168 358.5,-343 478.1484,-211.7482 557.8972,-210.5 735.5,-210.5"/>
<polygon fill="#000000" stroke="#000000" points="316.4819,-549.8993 306.2297,-546.0081 311.491,-550.1996 306.5,-550.5 306.5,-550.5 306.5,-550.5 311.491,-550.1996 306.7703,-554.9919 316.4819,-549.8993 316.4819,-549.8993"/>
<text text-anchor="start" x="193.445" y="-534.5" font-family="Arial" font-size="10.00" fill="#000000">FOREIGN KEY (user_id) REFERENCES users (id)</text>
</g>
<!-- comments -->
<g id="node3" class="node">
<title>comments</title>
<polygon fill="#efefef" stroke="transparent" points="410.5,-595.5 410.5,-630.5 604.5,-630.5 604.5,-595.5 410.5,-595.5"/>
<polygon fill="none" stroke="#000000" points="410.5,-595.5 410.5,-630.5 604.5,-630.5 604.5,-595.5 410.5,-595.5"/>
<text text-anchor="start" x="417.3705" y="-608.3" font-family="Arial Bold" font-size="18.00" fill="#000000">comments</text>
<text text-anchor="start" x="500.3757" y="-608.3" font-family="Arial" font-size="14.00" fill="#000000"> </text>
<text text-anchor="start" x="504.2663" y="-608.3" font-family="Arial" font-size="14.00" fill="#666666">[BASE TABLE]</text>
<polygon fill="none" stroke="#000000" points="410.5,-565.5 410.5,-595.5 604.5,-595.5 604.5,-565.5 410.5,-565.5"/>
<text text-anchor="start" x="417.5" y="-576.9" font-family="Arial" font-size="14.00" fill="#000000">id </text>
<text text-anchor="start" x="432.2798" y="-576.9" font-family="Arial" font-size="14.00" fill="#666666">[bigint(20)]</text>
<polygon fill="none" stroke="#000000" points="410.5,-535.5 410.5,-565.5 604.5,-565.5 604.5,-535.5 410.5,-535.5"/>
<text text-anchor="start" x="417.5" y="-546.9" font-family="Arial" font-size="14.00" fill="#000000">post_id </text>
<text text-anchor="start" x="466.5182" y="-546.9" font-family="Arial" font-size="14.00" fill="#666666">[bigint(20)]</text>
<polygon fill="none" stroke="#000000" points="410.5,-505.5 410.5,-535.5 604.5,-535.5 604.5,-505.5 410.5,-505.5"/>
<text text-anchor="start" x="417.5" y="-516.9" font-family="Arial" font-size="14.00" fill="#000000">user_id </text>
<text text-anchor="start" x="467.2882" y="-516.9" font-family="Arial" font-size="14.00" fill="#666666">[int(11)]</text>
<polygon fill="none" stroke="#000000" points="410.5,-475.5 410.5,-505.5 604.5,-505.5 604.5,-475.5 410.5,-475.5"/>
<text text-anchor="start" x="417.5" y="-486.9" font-family="Arial" font-size="14.00" fill="#000000">comment </text>
<text text-anchor="start" x="478.9502" y="-486.9" font-family="Arial" font-size="14.00" fill="#666666">[text]</text>
<polygon fill="none" stroke="#000000" points="410.5,-445.5 410.5,-475.5 604.5,-475.5 604.5,-445.5 410.5,-445.5"/>
<text text-anchor="start" x="417.5" y="-456.9" font-family="Arial" font-size="14.00" fill="#000000">post_id_desc </text>
<text text-anchor="start" x="503.866" y="-456.9" font-family="Arial" font-size="14.00" fill="#666666">[bigint(20)]</text>
<polygon fill="none" stroke="#000000" points="410.5,-415.5 410.5,-445.5 604.5,-445.5 604.5,-415.5 410.5,-415.5"/>
<text text-anchor="start" x="417.5" y="-426.9" font-family="Arial" font-size="14.00" fill="#000000">created </text>
<text text-anchor="start" x="468.0722" y="-426.9" font-family="Arial" font-size="14.00" fill="#666666">[datetime]</text>
<polygon fill="none" stroke="#000000" points="410.5,-385.5 410.5,-415.5 604.5,-415.5 604.5,-385.5 410.5,-385.5"/>
<text text-anchor="start" x="417.5" y="-396.9" font-family="Arial" font-size="14.00" fill="#000000">updated </text>
<text text-anchor="start" x="471.9768" y="-396.9" font-family="Arial" font-size="14.00" fill="#666666">[datetime]</text>
</g>
<!-- comments&#45;&gt;users -->
<g id="edge2" class="edge">
<title>comments:user_id&#45;&gt;users:id</title>
<path fill="none" stroke="#000000" d="M614.7207,-519.8933C681.2316,-511.3764 625.1101,-414.9636 656.5,-343 683.9118,-280.1566 666.9384,-210.5 735.5,-210.5"/>
<polygon fill="#000000" stroke="#000000" points="614.4824,-519.9073 604.2333,-516.0079 609.4912,-520.2037 604.5,-520.5 604.5,-520.5 604.5,-520.5 609.4912,-520.2037 604.7667,-524.9921 614.4824,-519.9073 614.4824,-519.9073"/>
<text text-anchor="start" x="611.445" y="-530.5" font-family="Arial" font-size="10.00" fill="#000000">FOREIGN KEY (user_id) REFERENCES users (id)</text>
</g>
<!-- user_options -->
<g id="node4" class="node">
<title>user_options</title>
<polygon fill="#efefef" stroke="transparent" points="708.5,-550.5 708.5,-585.5 922.5,-585.5 922.5,-550.5 708.5,-550.5"/>
<polygon fill="none" stroke="#000000" points="708.5,-550.5 708.5,-585.5 922.5,-585.5 922.5,-550.5 708.5,-550.5"/>
<text text-anchor="start" x="715.3571" y="-563.3" font-family="Arial Bold" font-size="18.00" fill="#000000">user_options</text>
<text text-anchor="start" x="818.3891" y="-563.3" font-family="Arial" font-size="14.00" fill="#000000"> </text>
<text text-anchor="start" x="822.2797" y="-563.3" font-family="Arial" font-size="14.00" fill="#666666">[BASE TABLE]</text>
<polygon fill="none" stroke="#000000" points="708.5,-520.5 708.5,-550.5 922.5,-550.5 922.5,-520.5 708.5,-520.5"/>
<text text-anchor="start" x="715.5" y="-531.9" font-family="Arial" font-size="14.00" fill="#000000">user_id </text>
<text text-anchor="start" x="765.2882" y="-531.9" font-family="Arial" font-size="14.00" fill="#666666">[int(11)]</text>
<polygon fill="none" stroke="#000000" points="708.5,-490.5 708.5,-520.5 922.5,-520.5 922.5,-490.5 708.5,-490.5"/>
<text text-anchor="start" x="715.5" y="-501.9" font-family="Arial" font-size="14.00" fill="#000000">show_email </text>
<text text-anchor="start" x="793.284" y="-501.9" font-family="Arial" font-size="14.00" fill="#666666">[tinyint(1)]</text>
<polygon fill="none" stroke="#000000" points="708.5,-460.5 708.5,-490.5 922.5,-490.5 922.5,-460.5 708.5,-460.5"/>
<text text-anchor="start" x="715.5" y="-471.9" font-family="Arial" font-size="14.00" fill="#000000">created </text>
<text text-anchor="start" x="766.0722" y="-471.9" font-family="Arial" font-size="14.00" fill="#666666">[timestamp]</text>
<polygon fill="none" stroke="#000000" points="708.5,-430.5 708.5,-460.5 922.5,-460.5 922.5,-430.5 708.5,-430.5"/>
<text text-anchor="start" x="715.5" y="-441.9" font-family="Arial" font-size="14.00" fill="#000000">updated </text>
<text text-anchor="start" x="769.9768" y="-441.9" font-family="Arial" font-size="14.00" fill="#666666">[timestamp]</text>
</g>
<!-- user_options&#45;&gt;users -->
<g id="edge3" class="edge">
<title>user_options:user_id&#45;&gt;users:id</title>
<path fill="none" stroke="#000000" d="M698.2606,-534.6318C646.3209,-525.124 674.6068,-439.7276 708.5,-388 757.9157,-312.5821 845.0843,-382.4179 894.5,-307 918.0056,-271.126 937.3889,-210.5 894.5,-210.5"/>
<polygon fill="#000000" stroke="#000000" points="698.5358,-534.6551 708.1198,-539.9839 703.5179,-535.0775 708.5,-535.5 708.5,-535.5 708.5,-535.5 703.5179,-535.0775 708.8802,-531.0161 698.5358,-534.6551 698.5358,-534.6551"/>
<text text-anchor="start" x="715.445" y="-545.5" font-family="Arial" font-size="10.00" fill="#000000">FOREIGN KEY (user_id) REFERENCES users (id)</text>
</g>
<!-- comment_stars -->
<g id="node5" class="node">
<title>comment_stars</title>
<polygon fill="#efefef" stroke="transparent" points="1026.5,-580.5 1026.5,-615.5 1260.5,-615.5 1260.5,-580.5 1026.5,-580.5"/>
<polygon fill="none" stroke="#000000" points="1026.5,-580.5 1026.5,-615.5 1260.5,-615.5 1260.5,-580.5 1026.5,-580.5"/>
<text text-anchor="start" x="1033.3671" y="-593.3" font-family="Arial Bold" font-size="18.00" fill="#000000">comment_stars</text>
<text text-anchor="start" x="1156.3791" y="-593.3" font-family="Arial" font-size="14.00" fill="#000000"> </text>
<text text-anchor="start" x="1160.2697" y="-593.3" font-family="Arial" font-size="14.00" fill="#666666">[BASE TABLE]</text>
<polygon fill="none" stroke="#000000" points="1026.5,-550.5 1026.5,-580.5 1260.5,-580.5 1260.5,-550.5 1026.5,-550.5"/>
<text text-anchor="start" x="1033.5" y="-561.9" font-family="Arial" font-size="14.00" fill="#000000">id </text>
<text text-anchor="start" x="1048.2798" y="-561.9" font-family="Arial" font-size="14.00" fill="#666666">[bigint(20)]</text>
<polygon fill="none" stroke="#000000" points="1026.5,-520.5 1026.5,-550.5 1260.5,-550.5 1260.5,-520.5 1026.5,-520.5"/>
<text text-anchor="start" x="1033.5" y="-531.9" font-family="Arial" font-size="14.00" fill="#000000">user_id </text>
<text text-anchor="start" x="1083.2882" y="-531.9" font-family="Arial" font-size="14.00" fill="#666666">[int(11)]</text>
<polygon fill="none" stroke="#000000" points="1026.5,-490.5 1026.5,-520.5 1260.5,-520.5 1260.5,-490.5 1026.5,-490.5"/>
<text text-anchor="start" x="1033.5" y="-501.9" font-family="Arial" font-size="14.00" fill="#000000">comment_post_id </text>
<text text-anchor="start" x="1147.8604" y="-501.9" font-family="Arial" font-size="14.00" fill="#666666">[bigint(20)]</text>
<polygon fill="none" stroke="#000000" points="1026.5,-460.5 1026.5,-490.5 1260.5,-490.5 1260.5,-460.5 1026.5,-460.5"/>
<text text-anchor="start" x="1033.5" y="-471.9" font-family="Arial" font-size="14.00" fill="#000000">comment_user_id </text>
<text text-anchor="start" x="1148.6304" y="-471.9" font-family="Arial" font-size="14.00" fill="#666666">[int(11)]</text>
<polygon fill="none" stroke="#000000" points="1026.5,-430.5 1026.5,-460.5 1260.5,-460.5 1260.5,-430.5 1026.5,-430.5"/>
<text text-anchor="start" x="1033.5" y="-441.9" font-family="Arial" font-size="14.00" fill="#000000">created </text>
<text text-anchor="start" x="1084.0722" y="-441.9" font-family="Arial" font-size="14.00" fill="#666666">[timestamp]</text>
<polygon fill="none" stroke="#000000" points="1026.5,-400.5 1026.5,-430.5 1260.5,-430.5 1260.5,-400.5 1026.5,-400.5"/>
<text text-anchor="start" x="1033.5" y="-411.9" font-family="Arial" font-size="14.00" fill="#000000">updated </text>
<text text-anchor="start" x="1087.9768" y="-411.9" font-family="Arial" font-size="14.00" fill="#666666">[timestamp]</text>
</g>
<!-- comment_stars&#45;&gt;users -->
<g id="edge4" class="edge">
<title>comment_stars:comment_user_id&#45;&gt;users:id</title>
<path fill="none" stroke="#000000" d="M1016.4017,-474.7386C967.609,-466.6856 1000.8638,-396.4016 974.5,-343 944.0479,-281.3172 963.2903,-210.5 894.5,-210.5"/>
<polygon fill="#000000" stroke="#000000" points="1016.5283,-474.7481 1026.1616,-479.9873 1021.5142,-475.124 1026.5,-475.5 1026.5,-475.5 1026.5,-475.5 1021.5142,-475.124 1026.8384,-471.0127 1016.5283,-474.7481 1016.5283,-474.7481"/>
<text text-anchor="start" x="1033.1085" y="-485.5" font-family="Arial" font-size="10.00" fill="#000000">FOREIGN KEY (comment_user_id) REFERENCES users (id)</text>
</g>
<!-- logs -->
<g id="node6" class="node">
<title>logs</title>
<polygon fill="#efefef" stroke="transparent" points="1365.5,-595.5 1365.5,-630.5 1556.5,-630.5 1556.5,-595.5 1365.5,-595.5"/>
<polygon fill="none" stroke="#000000" points="1365.5,-595.5 1365.5,-630.5 1556.5,-630.5 1556.5,-595.5 1365.5,-595.5"/>
<text text-anchor="start" x="1395.8698" y="-608.3" font-family="Arial Bold" font-size="18.00" fill="#000000">logs</text>
<text text-anchor="start" x="1428.8764" y="-608.3" font-family="Arial" font-size="14.00" fill="#000000"> </text>
<text text-anchor="start" x="1432.767" y="-608.3" font-family="Arial" font-size="14.00" fill="#666666">[BASE TABLE]</text>
<polygon fill="none" stroke="#000000" points="1365.5,-565.5 1365.5,-595.5 1556.5,-595.5 1556.5,-565.5 1365.5,-565.5"/>
<text text-anchor="start" x="1372.5" y="-576.9" font-family="Arial" font-size="14.00" fill="#000000">id </text>
<text text-anchor="start" x="1387.2798" y="-576.9" font-family="Arial" font-size="14.00" fill="#666666">[bigint(20)]</text>
<polygon fill="none" stroke="#000000" points="1365.5,-535.5 1365.5,-565.5 1556.5,-565.5 1556.5,-535.5 1365.5,-535.5"/>
<text text-anchor="start" x="1372.5" y="-546.9" font-family="Arial" font-size="14.00" fill="#000000">user_id </text>
<text text-anchor="start" x="1422.2882" y="-546.9" font-family="Arial" font-size="14.00" fill="#666666">[int(11)]</text>
<polygon fill="none" stroke="#000000" points="1365.5,-505.5 1365.5,-535.5 1556.5,-535.5 1556.5,-505.5 1365.5,-505.5"/>
<text text-anchor="start" x="1372.5" y="-516.9" font-family="Arial" font-size="14.00" fill="#000000">post_id </text>
<text text-anchor="start" x="1421.5182" y="-516.9" font-family="Arial" font-size="14.00" fill="#666666">[bigint(20)]</text>
<polygon fill="none" stroke="#000000" points="1365.5,-475.5 1365.5,-505.5 1556.5,-505.5 1556.5,-475.5 1365.5,-475.5"/>
<text text-anchor="start" x="1372.5" y="-486.9" font-family="Arial" font-size="14.00" fill="#000000">comment_id </text>
<text text-anchor="start" x="1452.622" y="-486.9" font-family="Arial" font-size="14.00" fill="#666666">[bigint(20)]</text>
<polygon fill="none" stroke="#000000" points="1365.5,-445.5 1365.5,-475.5 1556.5,-475.5 1556.5,-445.5 1365.5,-445.5"/>
<text text-anchor="start" x="1372.3212" y="-456.9" font-family="Arial" font-size="14.00" fill="#000000">comment_star_id </text>
<text text-anchor="start" x="1483.5596" y="-456.9" font-family="Arial" font-size="14.00" fill="#666666">[bigint(20)]</text>
<polygon fill="none" stroke="#000000" points="1365.5,-415.5 1365.5,-445.5 1556.5,-445.5 1556.5,-415.5 1365.5,-415.5"/>
<text text-anchor="start" x="1372.5" y="-426.9" font-family="Arial" font-size="14.00" fill="#000000">payload </text>
<text text-anchor="start" x="1425.4102" y="-426.9" font-family="Arial" font-size="14.00" fill="#666666">[text]</text>
<polygon fill="none" stroke="#000000" points="1365.5,-385.5 1365.5,-415.5 1556.5,-415.5 1556.5,-385.5 1365.5,-385.5"/>
<text text-anchor="start" x="1372.5" y="-396.9" font-family="Arial" font-size="14.00" fill="#000000">created </text>
<text text-anchor="start" x="1423.0722" y="-396.9" font-family="Arial" font-size="14.00" fill="#666666">[datetime]</text>
</g>
<!-- logs&#45;&gt;users -->
<g id="edge5" class="edge">
<title>logs:user_id&#45;&gt;users:id</title>
<path fill="none" stroke="#000000" stroke-dasharray="5,2" d="M1355.2514,-549.8792C1278.4552,-539.8001 1375.3098,-409.4888 1312.5,-343 1245.5843,-272.1649 991.9439,-210.5 894.5,-210.5"/>
<polygon fill="#000000" stroke="#000000" points="1355.5183,-549.8953 1365.2279,-554.9918 1360.5091,-550.1977 1365.5,-550.5 1365.5,-550.5 1365.5,-550.5 1360.5091,-550.1977 1365.7721,-546.0082 1355.5183,-549.8953 1355.5183,-549.8953"/>
<text text-anchor="start" x="1323.774" y="-534.5" font-family="Arial" font-size="10.00" fill="#000000">logs&#45;&gt;users</text>
</g>
</g>
</svg>
