<?xml version="1.0" encoding="UTF-8" standalone="no"?>
<!DOCTYPE svg PUBLIC "-//W3C//DTD SVG 1.1//EN"
 "http://www.w3.org/Graphics/SVG/1.1/DTD/svg11.dtd">
<!-- Generated by graphviz version 2.40.1 (20161225.0304)
 -->
<!-- Title: users Pages: 1 -->
<svg width="2199pt" height="682pt"
 viewBox="0.00 0.00 2198.50 682.00" xmlns="http://www.w3.org/2000/svg" xmlns:xlink="http://www.w3.org/1999/xlink">
<g id="graph0" class="graph" transform="scale(1 1) rotate(0) translate(4 678)">
<title>users</title>
<polygon fill="#ffffff" stroke="transparent" points="-4,4 -4,-678 2194.5,-678 2194.5,4 -4,4"/>
<!-- users -->
<g id="node1" class="node">
<title>users</title>
<polygon fill="#efefef" stroke="transparent" points="1003,-225.5 1003,-260.5 1188,-260.5 1188,-225.5 1003,-225.5"/>
<polygon fill="none" stroke="#000000" points="1003,-225.5 1003,-260.5 1188,-260.5 1188,-225.5 1003,-225.5"/>
<text text-anchor="start" x="1009.7137" y="-238.3" font-family="Arial Bold" font-size="18.00" fill="#000000">users</text>
<text text-anchor="start" x="1053.7183" y="-238.3" font-family="Arial" font-size="14.00" fill="#000000">    </text>
<text text-anchor="start" x="1087.9231" y="-238.3" font-family="Arial" font-size="14.00" fill="#666666">[BASE TABLE]</text>
<polygon fill="none" stroke="#000000" points="1003,-195.5 1003,-225.5 1188,-225.5 1188,-195.5 1003,-195.5"/>
<text text-anchor="start" x="1010" y="-206.9" font-family="Arial" font-size="14.00" fill="#000000">id </text>
<text text-anchor="start" x="1024.7798" y="-206.9" font-family="Arial" font-size="14.00" fill="#666666">[int(11)]</text>
<polygon fill="none" stroke="#000000" points="1003,-165.5 1003,-195.5 1188,-195.5 1188,-165.5 1003,-165.5"/>
<text text-anchor="start" x="1010" y="-176.9" font-family="Arial" font-size="14.00" fill="#000000">username </text>
<text text-anchor="start" x="1076.1248" y="-176.9" font-family="Arial" font-size="14.00" fill="#666666">[varchar(50)]</text>
<polygon fill="none" stroke="#000000" points="1003,-135.5 1003,-165.5 1188,-165.5 1188,-135.5 1003,-135.5"/>
<text text-anchor="start" x="1010" y="-146.9" font-family="Arial" font-size="14.00" fill="#000000">password </text>
<text text-anchor="start" x="1073.7882" y="-146.9" font-family="Arial" font-size="14.00" fill="#666666">[varchar(50)]</text>
<polygon fill="none" stroke="#000000" points="1003,-105.5 1003,-135.5 1188,-135.5 1188,-105.5 1003,-105.5"/>
<text text-anchor="start" x="1010" y="-116.9" font-family="Arial" font-size="14.00" fill="#000000">email </text>
<text text-anchor="start" x="1047.3296" y="-116.9" font-family="Arial" font-size="14.00" fill="#666666">[varchar(355)]</text>
<polygon fill="none" stroke="#000000" points="1003,-75.5 1003,-105.5 1188,-105.5 1188,-75.5 1003,-75.5"/>
<text text-anchor="start" x="1010" y="-86.9" font-family="Arial" font-size="14.00" fill="#000000">created </text>
<text text-anchor="start" x="1060.5722" y="-86.9" font-family="Arial" font-size="14.00" fill="#666666">[timestamp]</text>
<polygon fill="none" stroke="#000000" points="1003,-45.5 1003,-75.5 1188,-75.5 1188,-45.5 1003,-45.5"/>
<text text-anchor="start" x="1010" y="-56.9" font-family="Arial" font-size="14.00" fill="#000000">updated </text>
<text text-anchor="start" x="1064.4768" y="-56.9" font-family="Arial" font-size="14.00" fill="#666666">[timestamp]</text>
<polygon fill="none" stroke="#000000" stroke-width="3" points="1001,-44.5 1001,-262.5 1189,-262.5 1189,-44.5 1001,-44.5"/>
</g>
<!-- comments -->
<g id="node2" class="node">
<title>comments</title>
<polygon fill="#efefef" stroke="transparent" points="43,-595.5 43,-630.5 267,-630.5 267,-595.5 43,-595.5"/>
<polygon fill="none" stroke="#000000" points="43,-595.5 43,-630.5 267,-630.5 267,-595.5 43,-595.5"/>
<text text-anchor="start" x="49.7134" y="-608.3" font-family="Arial Bold" font-size="18.00" fill="#000000">comments</text>
<text text-anchor="start" x="132.7186" y="-608.3" font-family="Arial" font-size="14.00" fill="#000000">    </text>
<text text-anchor="start" x="166.9234" y="-608.3" font-family="Arial" font-size="14.00" fill="#666666">[BASE TABLE]</text>
<polygon fill="none" stroke="#000000" points="43,-565.5 43,-595.5 267,-595.5 267,-565.5 43,-565.5"/>
<text text-anchor="start" x="50" y="-576.9" font-family="Arial" font-size="14.00" fill="#000000">id    </text>
<text text-anchor="start" x="95.094" y="-576.9" font-family="Arial" font-size="14.00" fill="#666666">[bigint(20)]</text>
<polygon fill="none" stroke="#000000" points="43,-535.5 43,-565.5 267,-565.5 267,-535.5 43,-535.5"/>
<text text-anchor="start" x="50" y="-546.9" font-family="Arial" font-size="14.00" fill="#000000">post_id    </text>
<text text-anchor="start" x="129.3324" y="-546.9" font-family="Arial" font-size="14.00" fill="#666666">[bigint(20)]</text>
<polygon fill="none" stroke="#000000" points="43,-505.5 43,-535.5 267,-535.5 267,-505.5 43,-505.5"/>
<text text-anchor="start" x="50" y="-516.9" font-family="Arial" font-size="14.00" fill="#000000">user_id    </text>
<text text-anchor="start" x="130.1024" y="-516.9" font-family="Arial" font-size="14.00" fill="#666666">[int(11)]</text>
<polygon fill="none" stroke="#000000" points="43,-475.5 43,-505.5 267,-505.5 267,-475.5 43,-475.5"/>
<text text-anchor="start" x="50" y="-486.9" font-family="Arial" font-size="14.00" fill="#000000">comment    </text>
<text text-anchor="start" x="141.7644" y="-486.9" font-family="Arial" font-size="14.00" fill="#666666">[text]</text>
<polygon fill="none" stroke="#000000" points="43,-445.5 43,-475.5 267,-475.5 267,-445.5 43,-445.5"/>
<text text-anchor="start" x="50" y="-456.9" font-family="Arial" font-size="14.00" fill="#000000">post_id_desc    </text>
<text text-anchor="start" x="166.6802" y="-456.9" font-family="Arial" font-size="14.00" fill="#666666">[bigint(20)]</text>
<polygon fill="none" stroke="#000000" points="43,-415.5 43,-445.5 267,-445.5 267,-415.5 43,-415.5"/>
<text text-anchor="start" x="50" y="-426.9" font-family="Arial" font-size="14.00" fill="#000000">created    </text>
<text text-anchor="start" x="130.8864" y="-426.9" font-family="Arial" font-size="14.00" fill="#666666">[datetime]</text>
<polygon fill="none" stroke="#000000" points="43,-385.5 43,-415.5 267,-415.5 267,-385.5 43,-385.5"/>
<text text-anchor="start" x="50" y="-396.9" font-family="Arial" font-size="14.00" fill="#000000">updated    </text>
<text text-anchor="start" x="134.791" y="-396.9" font-family="Arial" font-size="14.00" fill="#666666">[datetime]</text>
</g>
<!-- comments&#45;&gt;users -->
<g id="edge1" class="edge">
<title>comments:user_id&#45;&gt;users:id</title>
<path fill="none" stroke="#000000" d="M277.0593,-519.7776C341.336,-509.6598 260.9463,-395.857 319,-343 433.4822,-238.7656 848.1744,-210.5 1003,-210.5"/>
<polygon fill="#000000" stroke="#000000" points="276.9743,-519.7836 266.6776,-516.0116 271.9872,-520.1418 267,-520.5 267,-520.5 267,-520.5 271.9872,-520.1418 267.3224,-524.9884 276.9743,-519.7836 276.9743,-519.7836"/>
<text text-anchor="start" x="273.945" y="-530.5" font-family="Arial" font-size="10.00" fill="#000000">FOREIGN KEY (user_id) REFERENCES users (id)</text>
</g>
<!-- comment_stars -->
<g id="node3" class="node">
<title>comment_stars</title>
<polygon fill="#efefef" stroke="transparent" points="371,-580.5 371,-615.5 635,-615.5 635,-580.5 371,-580.5"/>
<polygon fill="none" stroke="#000000" points="371,-580.5 371,-615.5 635,-615.5 635,-580.5 371,-580.5"/>
<text text-anchor="start" x="377.71" y="-593.3" font-family="Arial Bold" font-size="18.00" fill="#000000">comment_stars</text>
<text text-anchor="start" x="500.722" y="-593.3" font-family="Arial" font-size="14.00" fill="#000000">    </text>
<text text-anchor="start" x="534.9268" y="-593.3" font-family="Arial" font-size="14.00" fill="#666666">[BASE TABLE]</text>
<polygon fill="none" stroke="#000000" points="371,-550.5 371,-580.5 635,-580.5 635,-550.5 371,-550.5"/>
<text text-anchor="start" x="378" y="-561.9" font-family="Arial" font-size="14.00" fill="#000000">id    </text>
<text text-anchor="start" x="423.094" y="-561.9" font-family="Arial" font-size="14.00" fill="#666666">[bigint(20)]</text>
<polygon fill="none" stroke="#000000" points="371,-520.5 371,-550.5 635,-550.5 635,-520.5 371,-520.5"/>
<text text-anchor="start" x="378" y="-531.9" font-family="Arial" font-size="14.00" fill="#000000">user_id    </text>
<text text-anchor="start" x="458.1024" y="-531.9" font-family="Arial" font-size="14.00" fill="#666666">[int(11)]</text>
<polygon fill="none" stroke="#000000" points="371,-490.5 371,-520.5 635,-520.5 635,-490.5 371,-490.5"/>
<text text-anchor="start" x="378" y="-501.9" font-family="Arial" font-size="14.00" fill="#000000">comment_post_id    </text>
<text text-anchor="start" x="522.6746" y="-501.9" font-family="Arial" font-size="14.00" fill="#666666">[bigint(20)]</text>
<polygon fill="none" stroke="#000000" points="371,-460.5 371,-490.5 635,-490.5 635,-460.5 371,-460.5"/>
<text text-anchor="start" x="378" y="-471.9" font-family="Arial" font-size="14.00" fill="#000000">comment_user_id    </text>
<text text-anchor="start" x="523.4446" y="-471.9" font-family="Arial" font-size="14.00" fill="#666666">[int(11)]</text>
<polygon fill="none" stroke="#000000" points="371,-430.5 371,-460.5 635,-460.5 635,-430.5 371,-430.5"/>
<text text-anchor="start" x="378" y="-441.9" font-family="Arial" font-size="14.00" fill="#000000">created    </text>
<text text-anchor="start" x="458.8864" y="-441.9" font-family="Arial" font-size="14.00" fill="#666666">[timestamp]</text>
<polygon fill="none" stroke="#000000" points="371,-400.5 371,-430.5 635,-430.5 635,-400.5 371,-400.5"/>
<text text-anchor="start" x="378" y="-411.9" font-family="Arial" font-size="14.00" fill="#000000">updated    </text>
<text text-anchor="start" x="462.791" y="-411.9" font-family="Arial" font-size="14.00" fill="#666666">[timestamp]</text>
</g>
<!-- comment_stars&#45;&gt;users -->
<g id="edge2" class="edge">
<title>comment_stars:comment_user_id&#45;&gt;users:id</title>
<path fill="none" stroke="#000000" d="M645.2335,-474.5691C691.9093,-465.088 645.4629,-385.5058 687,-343 793.4376,-234.08 850.709,-210.5 1003,-210.5"/>
<polygon fill="#000000" stroke="#000000" points="644.9589,-474.594 634.5923,-471.0185 639.9794,-475.047 635,-475.5 635,-475.5 635,-475.5 639.9794,-475.047 635.4077,-479.9815 644.9589,-474.594 644.9589,-474.594"/>
<text text-anchor="start" x="498.6085" y="-459.5" font-family="Arial" font-size="10.00" fill="#000000">FOREIGN KEY (comment_user_id) REFERENCES users (id)</text>
</g>
<!-- posts -->
<g id="node4" class="node">
<title>posts</title>
<polygon fill="#efefef" stroke="transparent" points="740,-595.5 740,-630.5 1033,-630.5 1033,-595.5 740,-595.5"/>
<polygon fill="none" stroke="#000000" points="740,-595.5 740,-630.5 1033,-630.5 1033,-595.5 740,-595.5"/>
<text text-anchor="start" x="801.2087" y="-608.3" font-family="Arial Bold" font-size="18.00" fill="#000000">posts</text>
<text text-anchor="start" x="844.2233" y="-608.3" font-family="Arial" font-size="14.00" fill="#000000">    </text>
<text text-anchor="start" x="878.4281" y="-608.3" font-family="Arial" font-size="14.00" fill="#666666">[BASE TABLE]</text>
<polygon fill="none" stroke="#000000" points="740,-565.5 740,-595.5 1033,-595.5 1033,-565.5 740,-565.5"/>
<text text-anchor="start" x="747" y="-576.9" font-family="Arial" font-size="14.00" fill="#000000">id    </text>
<text text-anchor="start" x="792.094" y="-576.9" font-family="Arial" font-size="14.00" fill="#666666">[bigint(20)]</text>
<polygon fill="none" stroke="#000000" points="740,-535.5 740,-565.5 1033,-565.5 1033,-535.5 740,-535.5"/>
<text text-anchor="start" x="747" y="-546.9" font-family="Arial" font-size="14.00" fill="#000000">user_id    </text>
<text text-anchor="start" x="827.1024" y="-546.9" font-family="Arial" font-size="14.00" fill="#666666">[int(11)]</text>
<polygon fill="none" stroke="#000000" points="740,-505.5 740,-535.5 1033,-535.5 1033,-505.5 740,-505.5"/>
<text text-anchor="start" x="747" y="-516.9" font-family="Arial" font-size="14.00" fill="#000000">title    </text>
<text text-anchor="start" x="802.9818" y="-516.9" font-family="Arial" font-size="14.00" fill="#666666">[varchar(255)]</text>
<polygon fill="none" stroke="#000000" points="740,-475.5 740,-505.5 1033,-505.5 1033,-475.5 740,-475.5"/>
<text text-anchor="start" x="747" y="-486.9" font-family="Arial" font-size="14.00" fill="#000000">body    </text>
<text text-anchor="start" x="811.5526" y="-486.9" font-family="Arial" font-size="14.00" fill="#666666">[text]</text>
<polygon fill="none" stroke="#000000" points="740,-445.5 740,-475.5 1033,-475.5 1033,-445.5 740,-445.5"/>
<text text-anchor="start" x="746.5399" y="-456.9" font-family="Arial" font-size="14.00" fill="#000000">post_type    </text>
<text text-anchor="start" x="841.4389" y="-456.9" font-family="Arial" font-size="14.00" fill="#666666">[enum(&#39;public&#39;,&#39;private&#39;,&#39;draft&#39;)]</text>
<polygon fill="none" stroke="#000000" points="740,-415.5 740,-445.5 1033,-445.5 1033,-415.5 740,-415.5"/>
<text text-anchor="start" x="747" y="-426.9" font-family="Arial" font-size="14.00" fill="#000000">created    </text>
<text text-anchor="start" x="827.8864" y="-426.9" font-family="Arial" font-size="14.00" fill="#666666">[datetime]</text>
<polygon fill="none" stroke="#000000" points="740,-385.5 740,-415.5 1033,-415.5 1033,-385.5 740,-385.5"/>
<text text-anchor="start" x="747" y="-396.9" font-family="Arial" font-size="14.00" fill="#000000">updated    </text>
<text text-anchor="start" x="831.791" y="-396.9" font-family="Arial" font-size="14.00" fill="#666666">[datetime]</text>
</g>
<!-- posts&#45;&gt;users -->
<g id="edge3" class="edge">
<title>posts:user_id&#45;&gt;users:id</title>
<path fill="none" stroke="#000000" d="M1043.1176,-549.9563C1120.515,-541.1156 1063.1684,-426.3267 1033,-343 1025.9098,-323.4167 1010.0902,-326.5833 1003,-307 988.3995,-266.6728 960.1111,-210.5 1003,-210.5"/>
<polygon fill="#000000" stroke="#000000" points="1042.9856,-549.9633 1032.7585,-546.0065 1037.9928,-550.2317 1033,-550.5 1033,-550.5 1033,-550.5 1037.9928,-550.2317 1033.2415,-554.9935 1042.9856,-549.9633 1042.9856,-549.9633"/>
<text text-anchor="start" x="1039.945" y="-560.5" font-family="Arial" font-size="10.00" fill="#000000">FOREIGN KEY (user_id) REFERENCES users (id)</text>
</g>
<!-- same_name_constraints -->
<g id="node5" class="node">
<title>same_name_constraints</title>
<polygon fill="#efefef" stroke="transparent" points="1137,-520.5 1137,-555.5 1474,-555.5 1474,-520.5 1137,-520.5"/>
<polygon fill="none" stroke="#000000" points="1137,-520.5 1137,-555.5 1474,-555.5 1474,-520.5 1137,-520.5"/>
<text text-anchor="start" x="1143.6943" y="-533.3" font-family="Arial Bold" font-size="18.00" fill="#000000">same_name_constraints</text>
<text text-anchor="start" x="1339.7377" y="-533.3" font-family="Arial" font-size="14.00" fill="#000000">    </text>
<text text-anchor="start" x="1373.9425" y="-533.3" font-family="Arial" font-size="14.00" fill="#666666">[BASE TABLE]</text>
<polygon fill="none" stroke="#000000" points="1137,-490.5 1137,-520.5 1474,-520.5 1474,-490.5 1137,-490.5"/>
<text text-anchor="start" x="1144" y="-501.9" font-family="Arial" font-size="14.00" fill="#000000">id    </text>
<text text-anchor="start" x="1189.094" y="-501.9" font-family="Arial" font-size="14.00" fill="#666666">[bigint(20)]</text>
<polygon fill="none" stroke="#000000" points="1137,-460.5 1137,-490.5 1474,-490.5 1474,-460.5 1137,-460.5"/>
<text text-anchor="start" x="1144" y="-471.9" font-family="Arial" font-size="14.00" fill="#000000">user_id    </text>
<text text-anchor="start" x="1224.1024" y="-471.9" font-family="Arial" font-size="14.00" fill="#666666">[int(11)]</text>
</g>
<!-- same_name_constraints&#45;&gt;users -->
<g id="edge4" class="edge">
<title>same_name_constraints:user_id&#45;&gt;users:id</title>
<path fill="none" stroke="#000000" d="M1127.296,-472.5813C1118.1935,-464.0522 1132.5204,-438.4793 1137,-418 1157.2931,-325.2266 1282.9669,-210.5 1188,-210.5"/>
<polygon fill="#000000" stroke="#000000" points="1127.4238,-472.6196 1135.7038,-479.8093 1132.2119,-474.0598 1137,-475.5 1137,-475.5 1137,-475.5 1132.2119,-474.0598 1138.2962,-471.1907 1127.4238,-472.6196 1127.4238,-472.6196"/>
<text text-anchor="start" x="1083.945" y="-459.5" font-family="Arial" font-size="10.00" fill="#000000">FOREIGN KEY (user_id) REFERENCES users (id)</text>
</g>
<!-- user_options -->
<g id="node6" class="node">
<title>user_options</title>
<polygon fill="#efefef" stroke="transparent" points="1578,-550.5 1578,-585.5 1822,-585.5 1822,-550.5 1578,-550.5"/>
<polygon fill="none" stroke="#000000" points="1578,-550.5 1578,-585.5 1822,-585.5 1822,-550.5 1578,-550.5"/>
<text text-anchor="start" x="1584.7" y="-563.3" font-family="Arial Bold" font-size="18.00" fill="#000000">user_options</text>
<text text-anchor="start" x="1687.732" y="-563.3" font-family="Arial" font-size="14.00" fill="#000000">    </text>
<text text-anchor="start" x="1721.9368" y="-563.3" font-family="Arial" font-size="14.00" fill="#666666">[BASE TABLE]</text>
<polygon fill="none" stroke="#000000" points="1578,-520.5 1578,-550.5 1822,-550.5 1822,-520.5 1578,-520.5"/>
<text text-anchor="start" x="1585" y="-531.9" font-family="Arial" font-size="14.00" fill="#000000">user_id    </text>
<text text-anchor="start" x="1665.1024" y="-531.9" font-family="Arial" font-size="14.00" fill="#666666">[int(11)]</text>
<polygon fill="none" stroke="#000000" points="1578,-490.5 1578,-520.5 1822,-520.5 1822,-490.5 1578,-490.5"/>
<text text-anchor="start" x="1585" y="-501.9" font-family="Arial" font-size="14.00" fill="#000000">show_email    </text>
<text text-anchor="start" x="1693.0982" y="-501.9" font-family="Arial" font-size="14.00" fill="#666666">[tinyint(1)]</text>
<polygon fill="none" stroke="#000000" points="1578,-460.5 1578,-490.5 1822,-490.5 1822,-460.5 1578,-460.5"/>
<text text-anchor="start" x="1585" y="-471.9" font-family="Arial" font-size="14.00" fill="#000000">created    </text>
<text text-anchor="start" x="1665.8864" y="-471.9" font-family="Arial" font-size="14.00" fill="#666666">[timestamp]</text>
<polygon fill="none" stroke="#000000" points="1578,-430.5 1578,-460.5 1822,-460.5 1822,-430.5 1578,-430.5"/>
<text text-anchor="start" x="1585" y="-441.9" font-family="Arial" font-size="14.00" fill="#000000">updated    </text>
<text text-anchor="start" x="1669.791" y="-441.9" font-family="Arial" font-size="14.00" fill="#666666">[timestamp]</text>
</g>
<!-- user_options&#45;&gt;users -->
<g id="edge5" class="edge">
<title>user_options:user_id&#45;&gt;users:id</title>
<path fill="none" stroke="#000000" d="M1568.0024,-534.8745C1496.9723,-525.2255 1582.7079,-406.3012 1526,-343 1418.3371,-222.8196 1349.3525,-210.5 1188,-210.5"/>
<polygon fill="#000000" stroke="#000000" points="1568.0195,-534.8755 1577.719,-539.9912 1573.0098,-535.1877 1578,-535.5 1578,-535.5 1578,-535.5 1573.0098,-535.1877 1578.281,-531.0088 1568.0195,-534.8755 1568.0195,-534.8755"/>
<text text-anchor="start" x="1344.945" y="-545.5" font-family="Arial" font-size="10.00" fill="#000000">FOREIGN KEY (user_id) REFERENCES users (id)</text>
</g>
<!-- logs -->
<g id="node7" class="node">
<title>logs</title>
<polygon fill="#efefef" stroke="transparent" points="1927,-595.5 1927,-630.5 2148,-630.5 2148,-595.5 1927,-595.5"/>
<polygon fill="none" stroke="#000000" points="1927,-595.5 1927,-630.5 2148,-630.5 2148,-595.5 1927,-595.5"/>
<text text-anchor="start" x="1957.2127" y="-608.3" font-family="Arial Bold" font-size="18.00" fill="#000000">logs</text>
<text text-anchor="start" x="1990.2193" y="-608.3" font-family="Arial" font-size="14.00" fill="#000000">    </text>
<text text-anchor="start" x="2024.4241" y="-608.3" font-family="Arial" font-size="14.00" fill="#666666">[BASE TABLE]</text>
<polygon fill="none" stroke="#000000" points="1927,-565.5 1927,-595.5 2148,-595.5 2148,-565.5 1927,-565.5"/>
<text text-anchor="start" x="1934" y="-576.9" font-family="Arial" font-size="14.00" fill="#000000">id    </text>
<text text-anchor="start" x="1979.094" y="-576.9" font-family="Arial" font-size="14.00" fill="#666666">[bigint(20)]</text>
<polygon fill="none" stroke="#000000" points="1927,-535.5 1927,-565.5 2148,-565.5 2148,-535.5 1927,-535.5"/>
<text text-anchor="start" x="1934" y="-546.9" font-family="Arial" font-size="14.00" fill="#000000">user_id    </text>
<text text-anchor="start" x="2014.1024" y="-546.9" font-family="Arial" font-size="14.00" fill="#666666">[int(11)]</text>
<polygon fill="none" stroke="#000000" points="1927,-505.5 1927,-535.5 2148,-535.5 2148,-505.5 1927,-505.5"/>
<text text-anchor="start" x="1934" y="-516.9" font-family="Arial" font-size="14.00" fill="#000000">post_id    </text>
<text text-anchor="start" x="2013.3324" y="-516.9" font-family="Arial" font-size="14.00" fill="#666666">[bigint(20)]</text>
<polygon fill="none" stroke="#000000" points="1927,-475.5 1927,-505.5 2148,-505.5 2148,-475.5 1927,-475.5"/>
<text text-anchor="start" x="1934" y="-486.9" font-family="Arial" font-size="14.00" fill="#000000">comment_id    </text>
<text text-anchor="start" x="2044.4362" y="-486.9" font-family="Arial" font-size="14.00" fill="#666666">[bigint(20)]</text>
<polygon fill="none" stroke="#000000" points="1927,-445.5 1927,-475.5 2148,-475.5 2148,-445.5 1927,-445.5"/>
<text text-anchor="start" x="1933.6641" y="-456.9" font-family="Arial" font-size="14.00" fill="#000000">comment_star_id    </text>
<text text-anchor="start" x="2075.2167" y="-456.9" font-family="Arial" font-size="14.00" fill="#666666">[bigint(20)]</text>
<polygon fill="none" stroke="#000000" points="1927,-415.5 1927,-445.5 2148,-445.5 2148,-415.5 1927,-415.5"/>
<text text-anchor="start" x="1934" y="-426.9" font-family="Arial" font-size="14.00" fill="#000000">payload    </text>
<text text-anchor="start" x="2017.2244" y="-426.9" font-family="Arial" font-size="14.00" fill="#666666">[text]</text>
<polygon fill="none" stroke="#000000" points="1927,-385.5 1927,-415.5 2148,-415.5 2148,-385.5 1927,-385.5"/>
<text text-anchor="start" x="1934" y="-396.9" font-family="Arial" font-size="14.00" fill="#000000">created    </text>
<text text-anchor="start" x="2014.8864" y="-396.9" font-family="Arial" font-size="14.00" fill="#666666">[datetime]</text>
</g>
<!-- logs&#45;&gt;users -->
<g id="edge6" class="edge">
<title>logs:user_id&#45;&gt;users:id</title>
<path fill="none" stroke="#000000" stroke-dasharray="5,2" d="M1916.7686,-549.862C1840.2485,-539.5065 1940.5636,-405.7305 1874,-343 1761.008,-236.5148 1343.262,-210.5 1188,-210.5"/>
<polygon fill="#000000" stroke="#000000" points="1917.0194,-549.8776 1926.7199,-554.9913 1922.0097,-550.1888 1927,-550.5 1927,-550.5 1927,-550.5 1922.0097,-550.1888 1927.2801,-546.0087 1917.0194,-549.8776 1917.0194,-549.8776"/>
<text text-anchor="start" x="1869.024" y="-560.5" font-family="Arial" font-size="10.00" fill="#000000">logs&#45;&gt;users</text>
</g>
</g>
</svg>
