<?xml version="1.0" encoding="UTF-8" standalone="no"?>
<!DOCTYPE svg PUBLIC "-//W3C//DTD SVG 1.1//EN"
 "http://www.w3.org/Graphics/SVG/1.1/DTD/svg11.dtd">
<!-- Generated by graphviz version 2.40.1 (20161225.0304)
 -->
<!-- Title: users Pages: 1 -->
<svg width="2019pt" height="682pt"
 viewBox="0.00 0.00 2018.50 682.00" xmlns="http://www.w3.org/2000/svg" xmlns:xlink="http://www.w3.org/1999/xlink">
<g id="graph0" class="graph" transform="scale(1 1) rotate(0) translate(4 678)">
<title>users</title>
<polygon fill="#ffffff" stroke="transparent" points="-4,4 -4,-678 2014.5,-678 2014.5,4 -4,4"/>
<!-- users -->
<g id="node1" class="node">
<title>users</title>
<polygon fill="#efefef" stroke="transparent" points="913,-225.5 913,-260.5 1098,-260.5 1098,-225.5 913,-225.5"/>
<polygon fill="none" stroke="#000000" points="913,-225.5 913,-260.5 1098,-260.5 1098,-225.5 913,-225.5"/>
<text text-anchor="start" x="919.7137" y="-238.3" font-family="Arial Bold" font-size="18.00" fill="#000000">users</text>
<text text-anchor="start" x="963.7183" y="-238.3" font-family="Arial" font-size="14.00" fill="#000000">    </text>
<text text-anchor="start" x="997.9231" y="-238.3" font-family="Arial" font-size="14.00" fill="#666666">[BASE TABLE]</text>
<polygon fill="none" stroke="#000000" points="913,-195.5 913,-225.5 1098,-225.5 1098,-195.5 913,-195.5"/>
<text text-anchor="start" x="920" y="-206.9" font-family="Arial" font-size="14.00" fill="#000000">id </text>
<text text-anchor="start" x="934.7798" y="-206.9" font-family="Arial" font-size="14.00" fill="#666666">[int(11)]</text>
<polygon fill="none" stroke="#000000" points="913,-165.5 913,-195.5 1098,-195.5 1098,-165.5 913,-165.5"/>
<text text-anchor="start" x="920" y="-176.9" font-family="Arial" font-size="14.00" fill="#000000">username </text>
<text text-anchor="start" x="986.1248" y="-176.9" font-family="Arial" font-size="14.00" fill="#666666">[varchar(50)]</text>
<polygon fill="none" stroke="#000000" points="913,-135.5 913,-165.5 1098,-165.5 1098,-135.5 913,-135.5"/>
<text text-anchor="start" x="920" y="-146.9" font-family="Arial" font-size="14.00" fill="#000000">password </text>
<text text-anchor="start" x="983.7882" y="-146.9" font-family="Arial" font-size="14.00" fill="#666666">[varchar(50)]</text>
<polygon fill="none" stroke="#000000" points="913,-105.5 913,-135.5 1098,-135.5 1098,-105.5 913,-105.5"/>
<text text-anchor="start" x="920" y="-116.9" font-family="Arial" font-size="14.00" fill="#000000">email </text>
<text text-anchor="start" x="957.3296" y="-116.9" font-family="Arial" font-size="14.00" fill="#666666">[varchar(355)]</text>
<polygon fill="none" stroke="#000000" points="913,-75.5 913,-105.5 1098,-105.5 1098,-75.5 913,-75.5"/>
<text text-anchor="start" x="920" y="-86.9" font-family="Arial" font-size="14.00" fill="#000000">created </text>
<text text-anchor="start" x="970.5722" y="-86.9" font-family="Arial" font-size="14.00" fill="#666666">[timestamp]</text>
<polygon fill="none" stroke="#000000" points="913,-45.5 913,-75.5 1098,-75.5 1098,-45.5 913,-45.5"/>
<text text-anchor="start" x="920" y="-56.9" font-family="Arial" font-size="14.00" fill="#000000">updated </text>
<text text-anchor="start" x="974.4768" y="-56.9" font-family="Arial" font-size="14.00" fill="#666666">[timestamp]</text>
<polygon fill="none" stroke="#000000" stroke-width="3" points="911,-44.5 911,-262.5 1099,-262.5 1099,-44.5 911,-44.5"/>
</g>
<!-- comments -->
<g id="node2" class="node">
<title>comments</title>
<polygon fill="#efefef" stroke="transparent" points="43,-595.5 43,-630.5 237,-630.5 237,-595.5 43,-595.5"/>
<polygon fill="none" stroke="#000000" points="43,-595.5 43,-630.5 237,-630.5 237,-595.5 43,-595.5"/>
<text text-anchor="start" x="49.8705" y="-608.3" font-family="Arial Bold" font-size="18.00" fill="#000000">comments</text>
<text text-anchor="start" x="132.8757" y="-608.3" font-family="Arial" font-size="14.00" fill="#000000"> </text>
<text text-anchor="start" x="136.7663" y="-608.3" font-family="Arial" font-size="14.00" fill="#666666">[BASE TABLE]</text>
<polygon fill="none" stroke="#000000" points="43,-565.5 43,-595.5 237,-595.5 237,-565.5 43,-565.5"/>
<text text-anchor="start" x="50" y="-576.9" font-family="Arial" font-size="14.00" fill="#000000">id </text>
<text text-anchor="start" x="64.7798" y="-576.9" font-family="Arial" font-size="14.00" fill="#666666">[bigint(20)]</text>
<polygon fill="none" stroke="#000000" points="43,-535.5 43,-565.5 237,-565.5 237,-535.5 43,-535.5"/>
<text text-anchor="start" x="50" y="-546.9" font-family="Arial" font-size="14.00" fill="#000000">post_id </text>
<text text-anchor="start" x="99.0182" y="-546.9" font-family="Arial" font-size="14.00" fill="#666666">[bigint(20)]</text>
<polygon fill="none" stroke="#000000" points="43,-505.5 43,-535.5 237,-535.5 237,-505.5 43,-505.5"/>
<text text-anchor="start" x="50" y="-516.9" font-family="Arial" font-size="14.00" fill="#000000">user_id </text>
<text text-anchor="start" x="99.7882" y="-516.9" font-family="Arial" font-size="14.00" fill="#666666">[int(11)]</text>
<polygon fill="none" stroke="#000000" points="43,-475.5 43,-505.5 237,-505.5 237,-475.5 43,-475.5"/>
<text text-anchor="start" x="50" y="-486.9" font-family="Arial" font-size="14.00" fill="#000000">comment </text>
<text text-anchor="start" x="111.4502" y="-486.9" font-family="Arial" font-size="14.00" fill="#666666">[text]</text>
<polygon fill="none" stroke="#000000" points="43,-445.5 43,-475.5 237,-475.5 237,-445.5 43,-445.5"/>
<text text-anchor="start" x="50" y="-456.9" font-family="Arial" font-size="14.00" fill="#000000">post_id_desc </text>
<text text-anchor="start" x="136.366" y="-456.9" font-family="Arial" font-size="14.00" fill="#666666">[bigint(20)]</text>
<polygon fill="none" stroke="#000000" points="43,-415.5 43,-445.5 237,-445.5 237,-415.5 43,-415.5"/>
<text text-anchor="start" x="50" y="-426.9" font-family="Arial" font-size="14.00" fill="#000000">created </text>
<text text-anchor="start" x="100.5722" y="-426.9" font-family="Arial" font-size="14.00" fill="#666666">[datetime]</text>
<polygon fill="none" stroke="#000000" points="43,-385.5 43,-415.5 237,-415.5 237,-385.5 43,-385.5"/>
<text text-anchor="start" x="50" y="-396.9" font-family="Arial" font-size="14.00" fill="#000000">updated </text>
<text text-anchor="start" x="104.4768" y="-396.9" font-family="Arial" font-size="14.00" fill="#666666">[datetime]</text>
</g>
<!-- comments&#45;&gt;users -->
<g id="edge1" class="edge">
<title>comments:user_id&#45;&gt;users:id</title>
<path fill="none" stroke="#000000" d="M247.0622,-519.7807C311.3787,-509.7063 231.4214,-396.3741 289,-343 392.9621,-246.6293 771.2417,-210.5 913,-210.5"/>
<polygon fill="#000000" stroke="#000000" points="246.9745,-519.7869 236.6791,-516.0115 241.9873,-520.1435 237,-520.5 237,-520.5 237,-520.5 241.9873,-520.1435 237.3209,-524.9885 246.9745,-519.7869 246.9745,-519.7869"/>
<text text-anchor="start" x="243.945" y="-530.5" font-family="Arial" font-size="10.00" fill="#000000">FOREIGN KEY (user_id) REFERENCES users (id)</text>
</g>
<!-- comment_stars -->
<g id="node3" class="node">
<title>comment_stars</title>
<polygon fill="#efefef" stroke="transparent" points="341,-580.5 341,-615.5 575,-615.5 575,-580.5 341,-580.5"/>
<polygon fill="none" stroke="#000000" points="341,-580.5 341,-615.5 575,-615.5 575,-580.5 341,-580.5"/>
<text text-anchor="start" x="347.8671" y="-593.3" font-family="Arial Bold" font-size="18.00" fill="#000000">comment_stars</text>
<text text-anchor="start" x="470.8791" y="-593.3" font-family="Arial" font-size="14.00" fill="#000000"> </text>
<text text-anchor="start" x="474.7697" y="-593.3" font-family="Arial" font-size="14.00" fill="#666666">[BASE TABLE]</text>
<polygon fill="none" stroke="#000000" points="341,-550.5 341,-580.5 575,-580.5 575,-550.5 341,-550.5"/>
<text text-anchor="start" x="348" y="-561.9" font-family="Arial" font-size="14.00" fill="#000000">id </text>
<text text-anchor="start" x="362.7798" y="-561.9" font-family="Arial" font-size="14.00" fill="#666666">[bigint(20)]</text>
<polygon fill="none" stroke="#000000" points="341,-520.5 341,-550.5 575,-550.5 575,-520.5 341,-520.5"/>
<text text-anchor="start" x="348" y="-531.9" font-family="Arial" font-size="14.00" fill="#000000">user_id </text>
<text text-anchor="start" x="397.7882" y="-531.9" font-family="Arial" font-size="14.00" fill="#666666">[int(11)]</text>
<polygon fill="none" stroke="#000000" points="341,-490.5 341,-520.5 575,-520.5 575,-490.5 341,-490.5"/>
<text text-anchor="start" x="348" y="-501.9" font-family="Arial" font-size="14.00" fill="#000000">comment_post_id </text>
<text text-anchor="start" x="462.3604" y="-501.9" font-family="Arial" font-size="14.00" fill="#666666">[bigint(20)]</text>
<polygon fill="none" stroke="#000000" points="341,-460.5 341,-490.5 575,-490.5 575,-460.5 341,-460.5"/>
<text text-anchor="start" x="348" y="-471.9" font-family="Arial" font-size="14.00" fill="#000000">comment_user_id </text>
<text text-anchor="start" x="463.1304" y="-471.9" font-family="Arial" font-size="14.00" fill="#666666">[int(11)]</text>
<polygon fill="none" stroke="#000000" points="341,-430.5 341,-460.5 575,-460.5 575,-430.5 341,-430.5"/>
<text text-anchor="start" x="348" y="-441.9" font-family="Arial" font-size="14.00" fill="#000000">created </text>
<text text-anchor="start" x="398.5722" y="-441.9" font-family="Arial" font-size="14.00" fill="#666666">[timestamp]</text>
<polygon fill="none" stroke="#000000" points="341,-400.5 341,-430.5 575,-430.5 575,-400.5 341,-400.5"/>
<text text-anchor="start" x="348" y="-411.9" font-family="Arial" font-size="14.00" fill="#000000">updated </text>
<text text-anchor="start" x="402.4768" y="-411.9" font-family="Arial" font-size="14.00" fill="#666666">[timestamp]</text>
</g>
<!-- comment_stars&#45;&gt;users -->
<g id="edge2" class="edge">
<title>comment_stars:comment_user_id&#45;&gt;users:id</title>
<path fill="none" stroke="#000000" d="M585.2422,-474.5774C632.0048,-465.1797 586.2523,-386.2631 627,-343 723.0494,-241.0214 772.9103,-210.5 913,-210.5"/>
<polygon fill="#000000" stroke="#000000" points="584.9597,-474.6028 574.5962,-471.0181 579.9798,-475.0514 575,-475.5 575,-475.5 575,-475.5 579.9798,-475.0514 575.4038,-479.9819 584.9597,-474.6028 584.9597,-474.6028"/>
<text text-anchor="start" x="438.6085" y="-459.5" font-family="Arial" font-size="10.00" fill="#000000">FOREIGN KEY (comment_user_id) REFERENCES users (id)</text>
</g>
<!-- posts -->
<g id="node4" class="node">
<title>posts</title>
<polygon fill="#efefef" stroke="transparent" points="680,-595.5 680,-630.5 943,-630.5 943,-595.5 680,-595.5"/>
<polygon fill="none" stroke="#000000" points="680,-595.5 680,-630.5 943,-630.5 943,-595.5 680,-595.5"/>
<text text-anchor="start" x="741.3658" y="-608.3" font-family="Arial Bold" font-size="18.00" fill="#000000">posts</text>
<text text-anchor="start" x="784.3804" y="-608.3" font-family="Arial" font-size="14.00" fill="#000000"> </text>
<text text-anchor="start" x="788.271" y="-608.3" font-family="Arial" font-size="14.00" fill="#666666">[BASE TABLE]</text>
<polygon fill="none" stroke="#000000" points="680,-565.5 680,-595.5 943,-595.5 943,-565.5 680,-565.5"/>
<text text-anchor="start" x="687" y="-576.9" font-family="Arial" font-size="14.00" fill="#000000">id </text>
<text text-anchor="start" x="701.7798" y="-576.9" font-family="Arial" font-size="14.00" fill="#666666">[bigint(20)]</text>
<polygon fill="none" stroke="#000000" points="680,-535.5 680,-565.5 943,-565.5 943,-535.5 680,-535.5"/>
<text text-anchor="start" x="687" y="-546.9" font-family="Arial" font-size="14.00" fill="#000000">user_id </text>
<text text-anchor="start" x="736.7882" y="-546.9" font-family="Arial" font-size="14.00" fill="#666666">[int(11)]</text>
<polygon fill="none" stroke="#000000" points="680,-505.5 680,-535.5 943,-535.5 943,-505.5 680,-505.5"/>
<text text-anchor="start" x="687" y="-516.9" font-family="Arial" font-size="14.00" fill="#000000">title </text>
<text text-anchor="start" x="712.6676" y="-516.9" font-family="Arial" font-size="14.00" fill="#666666">[varchar(255)]</text>
<polygon fill="none" stroke="#000000" points="680,-475.5 680,-505.5 943,-505.5 943,-475.5 680,-475.5"/>
<text text-anchor="start" x="687" y="-486.9" font-family="Arial" font-size="14.00" fill="#000000">body </text>
<text text-anchor="start" x="721.2384" y="-486.9" font-family="Arial" font-size="14.00" fill="#666666">[text]</text>
<polygon fill="none" stroke="#000000" points="680,-445.5 680,-475.5 943,-475.5 943,-445.5 680,-445.5"/>
<text text-anchor="start" x="686.697" y="-456.9" font-family="Arial" font-size="14.00" fill="#000000">post_type </text>
<text text-anchor="start" x="751.2818" y="-456.9" font-family="Arial" font-size="14.00" fill="#666666">[enum(&#39;public&#39;,&#39;private&#39;,&#39;draft&#39;)]</text>
<polygon fill="none" stroke="#000000" points="680,-415.5 680,-445.5 943,-445.5 943,-415.5 680,-415.5"/>
<text text-anchor="start" x="687" y="-426.9" font-family="Arial" font-size="14.00" fill="#000000">created </text>
<text text-anchor="start" x="737.5722" y="-426.9" font-family="Arial" font-size="14.00" fill="#666666">[datetime]</text>
<polygon fill="none" stroke="#000000" points="680,-385.5 680,-415.5 943,-415.5 943,-385.5 680,-385.5"/>
<text text-anchor="start" x="687" y="-396.9" font-family="Arial" font-size="14.00" fill="#000000">updated </text>
<text text-anchor="start" x="741.4768" y="-396.9" font-family="Arial" font-size="14.00" fill="#666666">[datetime]</text>
</g>
<!-- posts&#45;&gt;users -->
<g id="edge3" class="edge">
<title>posts:user_id&#45;&gt;users:id</title>
<path fill="none" stroke="#000000" d="M953.1176,-549.9563C1030.515,-541.1156 973.1684,-426.3267 943,-343 935.9098,-323.4167 920.0902,-326.5833 913,-307 898.3995,-266.6728 870.1111,-210.5 913,-210.5"/>
<polygon fill="#000000" stroke="#000000" points="952.9856,-549.9633 942.7585,-546.0065 947.9928,-550.2317 943,-550.5 943,-550.5 943,-550.5 947.9928,-550.2317 943.2415,-554.9935 952.9856,-549.9633 952.9856,-549.9633"/>
<text text-anchor="start" x="949.945" y="-560.5" font-family="Arial" font-size="10.00" fill="#000000">FOREIGN KEY (user_id) REFERENCES users (id)</text>
</g>
<!-- same_name_constraints -->
<g id="node5" class="node">
<title>same_name_constraints</title>
<polygon fill="#efefef" stroke="transparent" points="1047,-520.5 1047,-555.5 1354,-555.5 1354,-520.5 1047,-520.5"/>
<polygon fill="none" stroke="#000000" points="1047,-520.5 1047,-555.5 1354,-555.5 1354,-520.5 1047,-520.5"/>
<text text-anchor="start" x="1053.8514" y="-533.3" font-family="Arial Bold" font-size="18.00" fill="#000000">same_name_constraints</text>
<text text-anchor="start" x="1249.8948" y="-533.3" font-family="Arial" font-size="14.00" fill="#000000"> </text>
<text text-anchor="start" x="1253.7854" y="-533.3" font-family="Arial" font-size="14.00" fill="#666666">[BASE TABLE]</text>
<polygon fill="none" stroke="#000000" points="1047,-490.5 1047,-520.5 1354,-520.5 1354,-490.5 1047,-490.5"/>
<text text-anchor="start" x="1054" y="-501.9" font-family="Arial" font-size="14.00" fill="#000000">id </text>
<text text-anchor="start" x="1068.7798" y="-501.9" font-family="Arial" font-size="14.00" fill="#666666">[bigint(20)]</text>
<polygon fill="none" stroke="#000000" points="1047,-460.5 1047,-490.5 1354,-490.5 1354,-460.5 1047,-460.5"/>
<text text-anchor="start" x="1054" y="-471.9" font-family="Arial" font-size="14.00" fill="#000000">user_id </text>
<text text-anchor="start" x="1103.7882" y="-471.9" font-family="Arial" font-size="14.00" fill="#666666">[int(11)]</text>
</g>
<!-- same_name_constraints&#45;&gt;users -->
<g id="edge4" class="edge">
<title>same_name_constraints:user_id&#45;&gt;users:id</title>
<path fill="none" stroke="#000000" d="M1037.296,-472.5813C1028.1935,-464.0522 1042.5204,-438.4793 1047,-418 1067.2931,-325.2266 1192.9669,-210.5 1098,-210.5"/>
<polygon fill="#000000" stroke="#000000" points="1037.4238,-472.6196 1045.7038,-479.8093 1042.2119,-474.0598 1047,-475.5 1047,-475.5 1047,-475.5 1042.2119,-474.0598 1048.2962,-471.1907 1037.4238,-472.6196 1037.4238,-472.6196"/>
<text text-anchor="start" x="993.945" y="-459.5" font-family="Arial" font-size="10.00" fill="#000000">FOREIGN KEY (user_id) REFERENCES users (id)</text>
</g>
<!-- user_options -->
<g id="node6" class="node">
<title>user_options</title>
<polygon fill="#efefef" stroke="transparent" points="1458,-550.5 1458,-585.5 1672,-585.5 1672,-550.5 1458,-550.5"/>
<polygon fill="none" stroke="#000000" points="1458,-550.5 1458,-585.5 1672,-585.5 1672,-550.5 1458,-550.5"/>
<text text-anchor="start" x="1464.8571" y="-563.3" font-family="Arial Bold" font-size="18.00" fill="#000000">user_options</text>
<text text-anchor="start" x="1567.8891" y="-563.3" font-family="Arial" font-size="14.00" fill="#000000"> </text>
<text text-anchor="start" x="1571.7797" y="-563.3" font-family="Arial" font-size="14.00" fill="#666666">[BASE TABLE]</text>
<polygon fill="none" stroke="#000000" points="1458,-520.5 1458,-550.5 1672,-550.5 1672,-520.5 1458,-520.5"/>
<text text-anchor="start" x="1465" y="-531.9" font-family="Arial" font-size="14.00" fill="#000000">user_id </text>
<text text-anchor="start" x="1514.7882" y="-531.9" font-family="Arial" font-size="14.00" fill="#666666">[int(11)]</text>
<polygon fill="none" stroke="#000000" points="1458,-490.5 1458,-520.5 1672,-520.5 1672,-490.5 1458,-490.5"/>
<text text-anchor="start" x="1465" y="-501.9" font-family="Arial" font-size="14.00" fill="#000000">show_email </text>
<text text-anchor="start" x="1542.784" y="-501.9" font-family="Arial" font-size="14.00" fill="#666666">[tinyint(1)]</text>
<polygon fill="none" stroke="#000000" points="1458,-460.5 1458,-490.5 1672,-490.5 1672,-460.5 1458,-460.5"/>
<text text-anchor="start" x="1465" y="-471.9" font-family="Arial" font-size="14.00" fill="#000000">created </text>
<text text-anchor="start" x="1515.5722" y="-471.9" font-family="Arial" font-size="14.00" fill="#666666">[timestamp]</text>
<polygon fill="none" stroke="#000000" points="1458,-430.5 1458,-460.5 1672,-460.5 1672,-430.5 1458,-430.5"/>
<text text-anchor="start" x="1465" y="-441.9" font-family="Arial" font-size="14.00" fill="#000000">updated </text>
<text text-anchor="start" x="1519.4768" y="-441.9" font-family="Arial" font-size="14.00" fill="#666666">[timestamp]</text>
</g>
<!-- user_options&#45;&gt;users -->
<g id="edge5" class="edge">
<title>user_options:user_id&#45;&gt;users:id</title>
<path fill="none" stroke="#000000" d="M1447.9972,-534.8791C1376.8869,-525.3008 1461.6667,-407.2187 1406,-343 1308.3929,-230.3975 1247.0184,-210.5 1098,-210.5"/>
<polygon fill="#000000" stroke="#000000" points="1448.0192,-534.8804 1457.7212,-539.9914 1453.0096,-535.1902 1458,-535.5 1458,-535.5 1458,-535.5 1453.0096,-535.1902 1458.2788,-531.0086 1448.0192,-534.8804 1448.0192,-534.8804"/>
<text text-anchor="start" x="1224.945" y="-545.5" font-family="Arial" font-size="10.00" fill="#000000">FOREIGN KEY (user_id) REFERENCES users (id)</text>
</g>
<!-- logs -->
<g id="node7" class="node">
<title>logs</title>
<polygon fill="#efefef" stroke="transparent" points="1777,-595.5 1777,-630.5 1968,-630.5 1968,-595.5 1777,-595.5"/>
<polygon fill="none" stroke="#000000" points="1777,-595.5 1777,-630.5 1968,-630.5 1968,-595.5 1777,-595.5"/>
<text text-anchor="start" x="1807.3698" y="-608.3" font-family="Arial Bold" font-size="18.00" fill="#000000">logs</text>
<text text-anchor="start" x="1840.3764" y="-608.3" font-family="Arial" font-size="14.00" fill="#000000"> </text>
<text text-anchor="start" x="1844.267" y="-608.3" font-family="Arial" font-size="14.00" fill="#666666">[BASE TABLE]</text>
<polygon fill="none" stroke="#000000" points="1777,-565.5 1777,-595.5 1968,-595.5 1968,-565.5 1777,-565.5"/>
<text text-anchor="start" x="1784" y="-576.9" font-family="Arial" font-size="14.00" fill="#000000">id </text>
<text text-anchor="start" x="1798.7798" y="-576.9" font-family="Arial" font-size="14.00" fill="#666666">[bigint(20)]</text>
<polygon fill="none" stroke="#000000" points="1777,-535.5 1777,-565.5 1968,-565.5 1968,-535.5 1777,-535.5"/>
<text text-anchor="start" x="1784" y="-546.9" font-family="Arial" font-size="14.00" fill="#000000">user_id </text>
<text text-anchor="start" x="1833.7882" y="-546.9" font-family="Arial" font-size="14.00" fill="#666666">[int(11)]</text>
<polygon fill="none" stroke="#000000" points="1777,-505.5 1777,-535.5 1968,-535.5 1968,-505.5 1777,-505.5"/>
<text text-anchor="start" x="1784" y="-516.9" font-family="Arial" font-size="14.00" fill="#000000">post_id </text>
<text text-anchor="start" x="1833.0182" y="-516.9" font-family="Arial" font-size="14.00" fill="#666666">[bigint(20)]</text>
<polygon fill="none" stroke="#000000" points="1777,-475.5 1777,-505.5 1968,-505.5 1968,-475.5 1777,-475.5"/>
<text text-anchor="start" x="1784" y="-486.9" font-family="Arial" font-size="14.00" fill="#000000">comment_id </text>
<text text-anchor="start" x="1864.122" y="-486.9" font-family="Arial" font-size="14.00" fill="#666666">[bigint(20)]</text>
<polygon fill="none" stroke="#000000" points="1777,-445.5 1777,-475.5 1968,-475.5 1968,-445.5 1777,-445.5"/>
<text text-anchor="start" x="1783.8212" y="-456.9" font-family="Arial" font-size="14.00" fill="#000000">comment_star_id </text>
<text text-anchor="start" x="1895.0596" y="-456.9" font-family="Arial" font-size="14.00" fill="#666666">[bigint(20)]</text>
<polygon fill="none" stroke="#000000" points="1777,-415.5 1777,-445.5 1968,-445.5 1968,-415.5 1777,-415.5"/>
<text text-anchor="start" x="1784" y="-426.9" font-family="Arial" font-size="14.00" fill="#000000">payload </text>
<text text-anchor="start" x="1836.9102" y="-426.9" font-family="Arial" font-size="14.00" fill="#666666">[text]</text>
<polygon fill="none" stroke="#000000" points="1777,-385.5 1777,-415.5 1968,-415.5 1968,-385.5 1777,-385.5"/>
<text text-anchor="start" x="1784" y="-396.9" font-family="Arial" font-size="14.00" fill="#000000">created </text>
<text text-anchor="start" x="1834.5722" y="-396.9" font-family="Arial" font-size="14.00" fill="#666666">[datetime]</text>
</g>
<!-- logs&#45;&gt;users -->
<g id="edge6" class="edge">
<title>logs:user_id&#45;&gt;users:id</title>
<path fill="none" stroke="#000000" stroke-dasharray="5,2" d="M1766.766,-549.8647C1690.2047,-539.5525 1790.0032,-406.3199 1724,-343 1621.3902,-244.5617 1240.1931,-210.5 1098,-210.5"/>
<polygon fill="#000000" stroke="#000000" points="1767.0192,-549.8804 1776.7212,-554.9914 1772.0096,-550.1902 1777,-550.5 1777,-550.5 1777,-550.5 1772.0096,-550.1902 1777.2788,-546.0086 1767.0192,-549.8804 1767.0192,-549.8804"/>
<text text-anchor="start" x="1719.024" y="-560.5" font-family="Arial" font-size="10.00" fill="#000000">logs&#45;&gt;users</text>
</g>
</g>
</svg>
