<?xml version="1.0" encoding="UTF-8" standalone="no"?>
<!DOCTYPE svg PUBLIC "-//W3C//DTD SVG 1.1//EN"
 "http://www.w3.org/Graphics/SVG/1.1/DTD/svg11.dtd">
<!-- Generated by graphviz version 2.40.1 (20161225.0304)
 -->
<!-- Title: users Pages: 1 -->
<svg width="2019pt" height="682pt"
 viewBox="0.00 0.00 2018.50 682.00" xmlns="http://www.w3.org/2000/svg" xmlns:xlink="http://www.w3.org/1999/xlink">
<g id="graph0" class="graph" transform="scale(1 1) rotate(0) translate(4 678)">
<title>users</title>
<polygon fill="#ffffff" stroke="transparent" points="-4,4 -4,-678 2014.5,-678 2014.5,4 -4,4"/>
<!-- users -->
<g id="node1" class="node">
<title>users</title>
<polygon fill="#efefef" stroke="transparent" points="926,-225.5 926,-260.5 1085,-260.5 1085,-225.5 926,-225.5"/>
<polygon fill="none" stroke="#000000" points="926,-225.5 926,-260.5 1085,-260.5 1085,-225.5 926,-225.5"/>
<text text-anchor="start" x="934.8708" y="-238.3" font-family="Arial Bold" font-size="18.00" fill="#000000">users</text>
<text text-anchor="start" x="978.8754" y="-238.3" font-family="Arial" font-size="14.00" fill="#000000"> </text>
<text text-anchor="start" x="982.766" y="-238.3" font-family="Arial" font-size="14.00" fill="#666666">[BASE TABLE]</text>
<polygon fill="none" stroke="#000000" points="926,-195.5 926,-225.5 1085,-225.5 1085,-195.5 926,-195.5"/>
<text text-anchor="start" x="933" y="-206.9" font-family="Arial" font-size="14.00" fill="#000000">id </text>
<text text-anchor="start" x="947.7798" y="-206.9" font-family="Arial" font-size="14.00" fill="#666666">[int(11)]</text>
<polygon fill="none" stroke="#000000" points="926,-165.5 926,-195.5 1085,-195.5 1085,-165.5 926,-165.5"/>
<text text-anchor="start" x="932.7693" y="-176.9" font-family="Arial" font-size="14.00" fill="#000000">username </text>
<text text-anchor="start" x="998.8941" y="-176.9" font-family="Arial" font-size="14.00" fill="#666666">[varchar(50)]</text>
<polygon fill="none" stroke="#000000" points="926,-135.5 926,-165.5 1085,-165.5 1085,-135.5 926,-135.5"/>
<text text-anchor="start" x="933" y="-146.9" font-family="Arial" font-size="14.00" fill="#000000">password </text>
<text text-anchor="start" x="996.7882" y="-146.9" font-family="Arial" font-size="14.00" fill="#666666">[varchar(50)]</text>
<polygon fill="none" stroke="#000000" points="926,-105.5 926,-135.5 1085,-135.5 1085,-105.5 926,-105.5"/>
<text text-anchor="start" x="933" y="-116.9" font-family="Arial" font-size="14.00" fill="#000000">email </text>
<text text-anchor="start" x="970.3296" y="-116.9" font-family="Arial" font-size="14.00" fill="#666666">[varchar(355)]</text>
<polygon fill="none" stroke="#000000" points="926,-75.5 926,-105.5 1085,-105.5 1085,-75.5 926,-75.5"/>
<text text-anchor="start" x="933" y="-86.9" font-family="Arial" font-size="14.00" fill="#000000">created </text>
<text text-anchor="start" x="983.5722" y="-86.9" font-family="Arial" font-size="14.00" fill="#666666">[timestamp]</text>
<polygon fill="none" stroke="#000000" points="926,-45.5 926,-75.5 1085,-75.5 1085,-45.5 926,-45.5"/>
<text text-anchor="start" x="933" y="-56.9" font-family="Arial" font-size="14.00" fill="#000000">updated </text>
<text text-anchor="start" x="987.4768" y="-56.9" font-family="Arial" font-size="14.00" fill="#666666">[timestamp]</text>
<polygon fill="none" stroke="#000000" stroke-width="3" points="924,-44.5 924,-262.5 1086,-262.5 1086,-44.5 924,-44.5"/>
</g>
<!-- comments -->
<g id="node2" class="node">
<title>comments</title>
<polygon fill="#efefef" stroke="transparent" points="43,-595.5 43,-630.5 237,-630.5 237,-595.5 43,-595.5"/>
<polygon fill="none" stroke="#000000" points="43,-595.5 43,-630.5 237,-630.5 237,-595.5 43,-595.5"/>
<text text-anchor="start" x="49.8705" y="-608.3" font-family="Arial Bold" font-size="18.00" fill="#000000">comments</text>
<text text-anchor="start" x="132.8757" y="-608.3" font-family="Arial" font-size="14.00" fill="#000000"> </text>
<text text-anchor="start" x="136.7663" y="-608.3" font-family="Arial" font-size="14.00" fill="#666666">[BASE TABLE]</text>
<polygon fill="none" stroke="#000000" points="43,-565.5 43,-595.5 237,-595.5 237,-565.5 43,-565.5"/>
<text text-anchor="start" x="50" y="-576.9" font-family="Arial" font-size="14.00" fill="#000000">id </text>
<text text-anchor="start" x="64.7798" y="-576.9" font-family="Arial" font-size="14.00" fill="#666666">[bigint(20)]</text>
<polygon fill="none" stroke="#000000" points="43,-535.5 43,-565.5 237,-565.5 237,-535.5 43,-535.5"/>
<text text-anchor="start" x="50" y="-546.9" font-family="Arial" font-size="14.00" fill="#000000">post_id </text>
<text text-anchor="start" x="99.0182" y="-546.9" font-family="Arial" font-size="14.00" fill="#666666">[bigint(20)]</text>
<polygon fill="none" stroke="#000000" points="43,-505.5 43,-535.5 237,-535.5 237,-505.5 43,-505.5"/>
<text text-anchor="start" x="50" y="-516.9" font-family="Arial" font-size="14.00" fill="#000000">user_id </text>
<text text-anchor="start" x="99.7882" y="-516.9" font-family="Arial" font-size="14.00" fill="#666666">[int(11)]</text>
<polygon fill="none" stroke="#000000" points="43,-475.5 43,-505.5 237,-505.5 237,-475.5 43,-475.5"/>
<text text-anchor="start" x="50" y="-486.9" font-family="Arial" font-size="14.00" fill="#000000">comment </text>
<text text-anchor="start" x="111.4502" y="-486.9" font-family="Arial" font-size="14.00" fill="#666666">[text]</text>
<polygon fill="none" stroke="#000000" points="43,-445.5 43,-475.5 237,-475.5 237,-445.5 43,-445.5"/>
<text text-anchor="start" x="50" y="-456.9" font-family="Arial" font-size="14.00" fill="#000000">post_id_desc </text>
<text text-anchor="start" x="136.366" y="-456.9" font-family="Arial" font-size="14.00" fill="#666666">[bigint(20)]</text>
<polygon fill="none" stroke="#000000" points="43,-415.5 43,-445.5 237,-445.5 237,-415.5 43,-415.5"/>
<text text-anchor="start" x="50" y="-426.9" font-family="Arial" font-size="14.00" fill="#000000">created </text>
<text text-anchor="start" x="100.5722" y="-426.9" font-family="Arial" font-size="14.00" fill="#666666">[datetime]</text>
<polygon fill="none" stroke="#000000" points="43,-385.5 43,-415.5 237,-415.5 237,-385.5 43,-385.5"/>
<text text-anchor="start" x="50" y="-396.9" font-family="Arial" font-size="14.00" fill="#000000">updated </text>
<text text-anchor="start" x="104.4768" y="-396.9" font-family="Arial" font-size="14.00" fill="#666666">[datetime]</text>
</g>
<!-- comments&#45;&gt;users -->
<g id="edge1" class="edge">
<title>comments:user_id&#45;&gt;users:id</title>
<path fill="none" stroke="#000000" d="M247.0615,-519.78C311.3688,-509.6955 231.3108,-396.2545 289,-343 395.2391,-244.9276 781.4146,-210.5 926,-210.5"/>
<polygon fill="#000000" stroke="#000000" points="246.9745,-519.7861 236.6788,-516.0115 241.9872,-520.1431 237,-520.5 237,-520.5 237,-520.5 241.9872,-520.1431 237.3212,-524.9885 246.9745,-519.7861 246.9745,-519.7861"/>
<text text-anchor="start" x="243.945" y="-530.5" font-family="Arial" font-size="10.00" fill="#000000">FOREIGN KEY (user_id) REFERENCES users (id)</text>
</g>
<!-- comment_stars -->
<g id="node3" class="node">
<title>comment_stars</title>
<polygon fill="#efefef" stroke="transparent" points="341,-580.5 341,-615.5 575,-615.5 575,-580.5 341,-580.5"/>
<polygon fill="none" stroke="#000000" points="341,-580.5 341,-615.5 575,-615.5 575,-580.5 341,-580.5"/>
<text text-anchor="start" x="347.8671" y="-593.3" font-family="Arial Bold" font-size="18.00" fill="#000000">comment_stars</text>
<text text-anchor="start" x="470.8791" y="-593.3" font-family="Arial" font-size="14.00" fill="#000000"> </text>
<text text-anchor="start" x="474.7697" y="-593.3" font-family="Arial" font-size="14.00" fill="#666666">[BASE TABLE]</text>
<polygon fill="none" stroke="#000000" points="341,-550.5 341,-580.5 575,-580.5 575,-550.5 341,-550.5"/>
<text text-anchor="start" x="348" y="-561.9" font-family="Arial" font-size="14.00" fill="#000000">id </text>
<text text-anchor="start" x="362.7798" y="-561.9" font-family="Arial" font-size="14.00" fill="#666666">[bigint(20)]</text>
<polygon fill="none" stroke="#000000" points="341,-520.5 341,-550.5 575,-550.5 575,-520.5 341,-520.5"/>
<text text-anchor="start" x="348" y="-531.9" font-family="Arial" font-size="14.00" fill="#000000">user_id </text>
<text text-anchor="start" x="397.7882" y="-531.9" font-family="Arial" font-size="14.00" fill="#666666">[int(11)]</text>
<polygon fill="none" stroke="#000000" points="341,-490.5 341,-520.5 575,-520.5 575,-490.5 341,-490.5"/>
<text text-anchor="start" x="348" y="-501.9" font-family="Arial" font-size="14.00" fill="#000000">comment_post_id </text>
<text text-anchor="start" x="462.3604" y="-501.9" font-family="Arial" font-size="14.00" fill="#666666">[bigint(20)]</text>
<polygon fill="none" stroke="#000000" points="341,-460.5 341,-490.5 575,-490.5 575,-460.5 341,-460.5"/>
<text text-anchor="start" x="348" y="-471.9" font-family="Arial" font-size="14.00" fill="#000000">comment_user_id </text>
<text text-anchor="start" x="463.1304" y="-471.9" font-family="Arial" font-size="14.00" fill="#666666">[int(11)]</text>
<polygon fill="none" stroke="#000000" points="341,-430.5 341,-460.5 575,-460.5 575,-430.5 341,-430.5"/>
<text text-anchor="start" x="348" y="-441.9" font-family="Arial" font-size="14.00" fill="#000000">created </text>
<text text-anchor="start" x="398.5722" y="-441.9" font-family="Arial" font-size="14.00" fill="#666666">[timestamp]</text>
<polygon fill="none" stroke="#000000" points="341,-400.5 341,-430.5 575,-430.5 575,-400.5 341,-400.5"/>
<text text-anchor="start" x="348" y="-411.9" font-family="Arial" font-size="14.00" fill="#000000">updated </text>
<text text-anchor="start" x="402.4768" y="-411.9" font-family="Arial" font-size="14.00" fill="#666666">[timestamp]</text>
</g>
<!-- comment_stars&#45;&gt;users -->
<g id="edge2" class="edge">
<title>comment_stars:comment_user_id&#45;&gt;users:id</title>
<path fill="none" stroke="#000000" d="M585.2382,-474.5737C631.9612,-465.1383 585.8922,-385.9212 627,-343 727.5383,-238.0266 780.6475,-210.5 926,-210.5"/>
<polygon fill="#000000" stroke="#000000" points="584.9593,-474.5988 574.5945,-471.0183 579.9797,-475.0494 575,-475.5 575,-475.5 575,-475.5 579.9797,-475.0494 575.4055,-479.9817 584.9593,-474.5988 584.9593,-474.5988"/>
<text text-anchor="start" x="438.6085" y="-459.5" font-family="Arial" font-size="10.00" fill="#000000">FOREIGN KEY (comment_user_id) REFERENCES users (id)</text>
</g>
<!-- posts -->
<g id="node4" class="node">
<title>posts</title>
<polygon fill="#efefef" stroke="transparent" points="680,-595.5 680,-630.5 943,-630.5 943,-595.5 680,-595.5"/>
<polygon fill="none" stroke="#000000" points="680,-595.5 680,-630.5 943,-630.5 943,-595.5 680,-595.5"/>
<text text-anchor="start" x="741.3658" y="-608.3" font-family="Arial Bold" font-size="18.00" fill="#000000">posts</text>
<text text-anchor="start" x="784.3804" y="-608.3" font-family="Arial" font-size="14.00" fill="#000000"> </text>
<text text-anchor="start" x="788.271" y="-608.3" font-family="Arial" font-size="14.00" fill="#666666">[BASE TABLE]</text>
<polygon fill="none" stroke="#000000" points="680,-565.5 680,-595.5 943,-595.5 943,-565.5 680,-565.5"/>
<text text-anchor="start" x="687" y="-576.9" font-family="Arial" font-size="14.00" fill="#000000">id </text>
<text text-anchor="start" x="701.7798" y="-576.9" font-family="Arial" font-size="14.00" fill="#666666">[bigint(20)]</text>
<polygon fill="none" stroke="#000000" points="680,-535.5 680,-565.5 943,-565.5 943,-535.5 680,-535.5"/>
<text text-anchor="start" x="687" y="-546.9" font-family="Arial" font-size="14.00" fill="#000000">user_id </text>
<text text-anchor="start" x="736.7882" y="-546.9" font-family="Arial" font-size="14.00" fill="#666666">[int(11)]</text>
<polygon fill="none" stroke="#000000" points="680,-505.5 680,-535.5 943,-535.5 943,-505.5 680,-505.5"/>
<text text-anchor="start" x="687" y="-516.9" font-family="Arial" font-size="14.00" fill="#000000">title </text>
<text text-anchor="start" x="712.6676" y="-516.9" font-family="Arial" font-size="14.00" fill="#666666">[varchar(255)]</text>
<polygon fill="none" stroke="#000000" points="680,-475.5 680,-505.5 943,-505.5 943,-475.5 680,-475.5"/>
<text text-anchor="start" x="687" y="-486.9" font-family="Arial" font-size="14.00" fill="#000000">body </text>
<text text-anchor="start" x="721.2384" y="-486.9" font-family="Arial" font-size="14.00" fill="#666666">[text]</text>
<polygon fill="none" stroke="#000000" points="680,-445.5 680,-475.5 943,-475.5 943,-445.5 680,-445.5"/>
<text text-anchor="start" x="686.697" y="-456.9" font-family="Arial" font-size="14.00" fill="#000000">post_type </text>
<text text-anchor="start" x="751.2818" y="-456.9" font-family="Arial" font-size="14.00" fill="#666666">[enum(&#39;public&#39;,&#39;private&#39;,&#39;draft&#39;)]</text>
<polygon fill="none" stroke="#000000" points="680,-415.5 680,-445.5 943,-445.5 943,-415.5 680,-415.5"/>
<text text-anchor="start" x="687" y="-426.9" font-family="Arial" font-size="14.00" fill="#000000">created </text>
<text text-anchor="start" x="737.5722" y="-426.9" font-family="Arial" font-size="14.00" fill="#666666">[datetime]</text>
<polygon fill="none" stroke="#000000" points="680,-385.5 680,-415.5 943,-415.5 943,-385.5 680,-385.5"/>
<text text-anchor="start" x="687" y="-396.9" font-family="Arial" font-size="14.00" fill="#000000">updated </text>
<text text-anchor="start" x="741.4768" y="-396.9" font-family="Arial" font-size="14.00" fill="#666666">[datetime]</text>
</g>
<!-- posts&#45;&gt;users -->
<g id="edge3" class="edge">
<title>posts:user_id&#45;&gt;users:id</title>
<path fill="none" stroke="#000000" d="M953.0682,-549.9707C1029.673,-541.3613 962.3905,-429.4724 943,-343 939.1284,-325.7345 929.8716,-324.2655 926,-307 916.6157,-265.1504 883.1111,-210.5 926,-210.5"/>
<polygon fill="#000000" stroke="#000000" points="952.9862,-549.9749 942.7637,-546.0062 947.9931,-550.2375 943,-550.5 943,-550.5 943,-550.5 947.9931,-550.2375 943.2363,-554.9938 952.9862,-549.9749 952.9862,-549.9749"/>
<text text-anchor="start" x="949.945" y="-560.5" font-family="Arial" font-size="10.00" fill="#000000">FOREIGN KEY (user_id) REFERENCES users (id)</text>
</g>
<!-- same_name_constraints -->
<g id="node5" class="node">
<title>same_name_constraints</title>
<polygon fill="#efefef" stroke="transparent" points="1047,-520.5 1047,-555.5 1354,-555.5 1354,-520.5 1047,-520.5"/>
<polygon fill="none" stroke="#000000" points="1047,-520.5 1047,-555.5 1354,-555.5 1354,-520.5 1047,-520.5"/>
<text text-anchor="start" x="1053.8514" y="-533.3" font-family="Arial Bold" font-size="18.00" fill="#000000">same_name_constraints</text>
<text text-anchor="start" x="1249.8948" y="-533.3" font-family="Arial" font-size="14.00" fill="#000000"> </text>
<text text-anchor="start" x="1253.7854" y="-533.3" font-family="Arial" font-size="14.00" fill="#666666">[BASE TABLE]</text>
<polygon fill="none" stroke="#000000" points="1047,-490.5 1047,-520.5 1354,-520.5 1354,-490.5 1047,-490.5"/>
<text text-anchor="start" x="1054" y="-501.9" font-family="Arial" font-size="14.00" fill="#000000">id </text>
<text text-anchor="start" x="1068.7798" y="-501.9" font-family="Arial" font-size="14.00" fill="#666666">[bigint(20)]</text>
<polygon fill="none" stroke="#000000" points="1047,-460.5 1047,-490.5 1354,-490.5 1354,-460.5 1047,-460.5"/>
<text text-anchor="start" x="1054" y="-471.9" font-family="Arial" font-size="14.00" fill="#000000">user_id </text>
<text text-anchor="start" x="1103.7882" y="-471.9" font-family="Arial" font-size="14.00" fill="#666666">[int(11)]</text>
</g>
<!-- same_name_constraints&#45;&gt;users -->
<g id="edge4" class="edge">
<title>same_name_constraints:user_id&#45;&gt;users:id</title>
<path fill="none" stroke="#000000" d="M1036.9784,-474.7398C944.8796,-459.1963 1200.2643,-210.5 1085,-210.5"/>
<polygon fill="#000000" stroke="#000000" points="1037.0286,-474.7435 1046.6596,-479.9871 1042.0143,-475.1218 1047,-475.5 1047,-475.5 1047,-475.5 1042.0143,-475.1218 1047.3404,-471.0129 1037.0286,-474.7435 1037.0286,-474.7435"/>
<text text-anchor="start" x="993.945" y="-459.5" font-family="Arial" font-size="10.00" fill="#000000">FOREIGN KEY (user_id) REFERENCES users (id)</text>
</g>
<!-- user_options -->
<g id="node6" class="node">
<title>user_options</title>
<polygon fill="#efefef" stroke="transparent" points="1458,-550.5 1458,-585.5 1672,-585.5 1672,-550.5 1458,-550.5"/>
<polygon fill="none" stroke="#000000" points="1458,-550.5 1458,-585.5 1672,-585.5 1672,-550.5 1458,-550.5"/>
<text text-anchor="start" x="1464.8571" y="-563.3" font-family="Arial Bold" font-size="18.00" fill="#000000">user_options</text>
<text text-anchor="start" x="1567.8891" y="-563.3" font-family="Arial" font-size="14.00" fill="#000000"> </text>
<text text-anchor="start" x="1571.7797" y="-563.3" font-family="Arial" font-size="14.00" fill="#666666">[BASE TABLE]</text>
<polygon fill="none" stroke="#000000" points="1458,-520.5 1458,-550.5 1672,-550.5 1672,-520.5 1458,-520.5"/>
<text text-anchor="start" x="1465" y="-531.9" font-family="Arial" font-size="14.00" fill="#000000">user_id </text>
<text text-anchor="start" x="1514.7882" y="-531.9" font-family="Arial" font-size="14.00" fill="#666666">[int(11)]</text>
<polygon fill="none" stroke="#000000" points="1458,-490.5 1458,-520.5 1672,-520.5 1672,-490.5 1458,-490.5"/>
<text text-anchor="start" x="1465" y="-501.9" font-family="Arial" font-size="14.00" fill="#000000">show_email </text>
<text text-anchor="start" x="1542.784" y="-501.9" font-family="Arial" font-size="14.00" fill="#666666">[tinyint(1)]</text>
<polygon fill="none" stroke="#000000" points="1458,-460.5 1458,-490.5 1672,-490.5 1672,-460.5 1458,-460.5"/>
<text text-anchor="start" x="1465" y="-471.9" font-family="Arial" font-size="14.00" fill="#000000">created </text>
<text text-anchor="start" x="1515.5722" y="-471.9" font-family="Arial" font-size="14.00" fill="#666666">[timestamp]</text>
<polygon fill="none" stroke="#000000" points="1458,-430.5 1458,-460.5 1672,-460.5 1672,-430.5 1458,-430.5"/>
<text text-anchor="start" x="1465" y="-441.9" font-family="Arial" font-size="14.00" fill="#000000">updated </text>
<text text-anchor="start" x="1519.4768" y="-441.9" font-family="Arial" font-size="14.00" fill="#666666">[timestamp]</text>
</g>
<!-- user_options&#45;&gt;users -->
<g id="edge5" class="edge">
<title>user_options:user_id&#45;&gt;users:id</title>
<path fill="none" stroke="#000000" d="M1447.9996,-534.8771C1376.9257,-525.2668 1462.1402,-406.8052 1406,-343 1304.0455,-227.1252 1239.3427,-210.5 1085,-210.5"/>
<polygon fill="#000000" stroke="#000000" points="1448.0193,-534.8782 1457.7202,-539.9913 1453.0097,-535.1891 1458,-535.5 1458,-535.5 1458,-535.5 1453.0097,-535.1891 1458.2798,-531.0087 1448.0193,-534.8782 1448.0193,-534.8782"/>
<text text-anchor="start" x="1224.945" y="-545.5" font-family="Arial" font-size="10.00" fill="#000000">FOREIGN KEY (user_id) REFERENCES users (id)</text>
</g>
<!-- logs -->
<g id="node7" class="node">
<title>logs</title>
<polygon fill="#efefef" stroke="transparent" points="1777,-595.5 1777,-630.5 1968,-630.5 1968,-595.5 1777,-595.5"/>
<polygon fill="none" stroke="#000000" points="1777,-595.5 1777,-630.5 1968,-630.5 1968,-595.5 1777,-595.5"/>
<text text-anchor="start" x="1807.3698" y="-608.3" font-family="Arial Bold" font-size="18.00" fill="#000000">logs</text>
<text text-anchor="start" x="1840.3764" y="-608.3" font-family="Arial" font-size="14.00" fill="#000000"> </text>
<text text-anchor="start" x="1844.267" y="-608.3" font-family="Arial" font-size="14.00" fill="#666666">[BASE TABLE]</text>
<polygon fill="none" stroke="#000000" points="1777,-565.5 1777,-595.5 1968,-595.5 1968,-565.5 1777,-565.5"/>
<text text-anchor="start" x="1784" y="-576.9" font-family="Arial" font-size="14.00" fill="#000000">id </text>
<text text-anchor="start" x="1798.7798" y="-576.9" font-family="Arial" font-size="14.00" fill="#666666">[bigint(20)]</text>
<polygon fill="none" stroke="#000000" points="1777,-535.5 1777,-565.5 1968,-565.5 1968,-535.5 1777,-535.5"/>
<text text-anchor="start" x="1784" y="-546.9" font-family="Arial" font-size="14.00" fill="#000000">user_id </text>
<text text-anchor="start" x="1833.7882" y="-546.9" font-family="Arial" font-size="14.00" fill="#666666">[int(11)]</text>
<polygon fill="none" stroke="#000000" points="1777,-505.5 1777,-535.5 1968,-535.5 1968,-505.5 1777,-505.5"/>
<text text-anchor="start" x="1784" y="-516.9" font-family="Arial" font-size="14.00" fill="#000000">post_id </text>
<text text-anchor="start" x="1833.0182" y="-516.9" font-family="Arial" font-size="14.00" fill="#666666">[bigint(20)]</text>
<polygon fill="none" stroke="#000000" points="1777,-475.5 1777,-505.5 1968,-505.5 1968,-475.5 1777,-475.5"/>
<text text-anchor="start" x="1784" y="-486.9" font-family="Arial" font-size="14.00" fill="#000000">comment_id </text>
<text text-anchor="start" x="1864.122" y="-486.9" font-family="Arial" font-size="14.00" fill="#666666">[bigint(20)]</text>
<polygon fill="none" stroke="#000000" points="1777,-445.5 1777,-475.5 1968,-475.5 1968,-445.5 1777,-445.5"/>
<text text-anchor="start" x="1783.8212" y="-456.9" font-family="Arial" font-size="14.00" fill="#000000">comment_star_id </text>
<text text-anchor="start" x="1895.0596" y="-456.9" font-family="Arial" font-size="14.00" fill="#666666">[bigint(20)]</text>
<polygon fill="none" stroke="#000000" points="1777,-415.5 1777,-445.5 1968,-445.5 1968,-415.5 1777,-415.5"/>
<text text-anchor="start" x="1784" y="-426.9" font-family="Arial" font-size="14.00" fill="#000000">payload </text>
<text text-anchor="start" x="1836.9102" y="-426.9" font-family="Arial" font-size="14.00" fill="#666666">[text]</text>
<polygon fill="none" stroke="#000000" points="1777,-385.5 1777,-415.5 1968,-415.5 1968,-385.5 1777,-385.5"/>
<text text-anchor="start" x="1784" y="-396.9" font-family="Arial" font-size="14.00" fill="#000000">created </text>
<text text-anchor="start" x="1834.5722" y="-396.9" font-family="Arial" font-size="14.00" fill="#666666">[datetime]</text>
</g>
<!-- logs&#45;&gt;users -->
<g id="edge6" class="edge">
<title>logs:user_id&#45;&gt;users:id</title>
<path fill="none" stroke="#000000" stroke-dasharray="5,2" d="M1766.7666,-549.8641C1690.2149,-539.5419 1790.1337,-406.1836 1724,-343 1619.1429,-242.8203 1230.0206,-210.5 1085,-210.5"/>
<polygon fill="#000000" stroke="#000000" points="1767.0193,-549.8797 1776.7209,-554.9913 1772.0096,-550.1899 1777,-550.5 1777,-550.5 1777,-550.5 1772.0096,-550.1899 1777.2791,-546.0087 1767.0193,-549.8797 1767.0193,-549.8797"/>
<text text-anchor="start" x="1719.024" y="-560.5" font-family="Arial" font-size="10.00" fill="#000000">logs&#45;&gt;users</text>
</g>
</g>
</svg>
