<?xml version="1.0" encoding="UTF-8" standalone="no"?>
<!DOCTYPE svg PUBLIC "-//W3C//DTD SVG 1.1//EN"
 "http://www.w3.org/Graphics/SVG/1.1/DTD/svg11.dtd">
<!-- Generated by graphviz version 12.1.2 (20240928.0832)
 -->
<!-- Title: lineitem Pages: 1 -->
<svg width="624pt" height="1064pt"
 viewBox="0.00 0.00 623.57 1064.00" xmlns="http://www.w3.org/2000/svg" xmlns:xlink="http://www.w3.org/1999/xlink">
<g id="graph0" class="graph" transform="scale(1 1) rotate(0) translate(4 1060)">
<title>lineitem</title>
<polygon fill="white" stroke="none" points="-4,4 -4,-1060 619.57,-1060 619.57,4 -4,4"/>
<!-- lineitem -->
<g id="node1" class="node">
<title>lineitem</title>
<polygon fill="#efefef" stroke="none" points="196.91,-974.2 196.91,-1009.8 419.4,-1009.8 419.4,-974.2 196.91,-974.2"/>
<polygon fill="none" stroke="black" points="196.91,-974.2 196.91,-1009.8 419.4,-1009.8 419.4,-974.2 196.91,-974.2"/>
<text text-anchor="start" x="223.82" y="-987.6" font-family="Arial Bold" font-size="18.00">lineitem</text>
<text text-anchor="start" x="282.81" y="-987.6" font-family="Arial" font-size="14.00">    </text>
<text text-anchor="start" x="313.92" y="-987.6" font-family="Arial" font-size="14.00" fill="#666666">[MANAGED]</text>
<polygon fill="none" stroke="black" points="196.91,-943.4 196.91,-974.2 419.4,-974.2 419.4,-943.4 196.91,-943.4"/>
<text text-anchor="start" x="203.91" y="-955.6" font-family="Arial" font-size="14.00">L_ORDERKEY </text>
<text text-anchor="start" x="301.94" y="-955.6" font-family="Arial" font-size="14.00" fill="#666666">[LONG]</text>
<polygon fill="none" stroke="black" points="196.91,-912.6 196.91,-943.4 419.4,-943.4 419.4,-912.6 196.91,-912.6"/>
<text text-anchor="start" x="203.91" y="-924.8" font-family="Arial" font-size="14.00">L_PARTKEY </text>
<text text-anchor="start" x="288.72" y="-924.8" font-family="Arial" font-size="14.00" fill="#666666">[LONG]</text>
<polygon fill="none" stroke="black" points="196.91,-881.8 196.91,-912.6 419.4,-912.6 419.4,-881.8 196.91,-881.8"/>
<text text-anchor="start" x="203.91" y="-894" font-family="Arial" font-size="14.00">L_SUPPKEY </text>
<text text-anchor="start" x="289.51" y="-894" font-family="Arial" font-size="14.00" fill="#666666">[LONG]</text>
<polygon fill="none" stroke="black" points="196.91,-851 196.91,-881.8 419.4,-881.8 419.4,-851 196.91,-851"/>
<text text-anchor="start" x="203.91" y="-863.2" font-family="Arial" font-size="14.00">L_LINENUMBER </text>
<text text-anchor="start" x="315.16" y="-863.2" font-family="Arial" font-size="14.00" fill="#666666">[LONG]</text>
<polygon fill="none" stroke="black" points="196.91,-820.2 196.91,-851 419.4,-851 419.4,-820.2 196.91,-820.2"/>
<text text-anchor="start" x="203.91" y="-832.4" font-family="Arial" font-size="14.00">L_QUANTITY </text>
<text text-anchor="start" x="294.15" y="-832.4" font-family="Arial" font-size="14.00" fill="#666666">[DECIMAL]</text>
<polygon fill="none" stroke="black" points="196.91,-789.4 196.91,-820.2 419.4,-820.2 419.4,-789.4 196.91,-789.4"/>
<text text-anchor="start" x="203.91" y="-801.6" font-family="Arial" font-size="14.00">L_EXTENDEDPRICE </text>
<text text-anchor="start" x="342.39" y="-801.6" font-family="Arial" font-size="14.00" fill="#666666">[DECIMAL]</text>
<polygon fill="none" stroke="black" points="196.91,-758.6 196.91,-789.4 419.4,-789.4 419.4,-758.6 196.91,-758.6"/>
<text text-anchor="start" x="203.91" y="-770.8" font-family="Arial" font-size="14.00">L_DISCOUNT </text>
<text text-anchor="start" x="296.48" y="-770.8" font-family="Arial" font-size="14.00" fill="#666666">[DECIMAL]</text>
<polygon fill="none" stroke="black" points="196.91,-727.8 196.91,-758.6 419.4,-758.6 419.4,-727.8 196.91,-727.8"/>
<text text-anchor="start" x="203.91" y="-740" font-family="Arial" font-size="14.00">L_TAX </text>
<text text-anchor="start" x="250.6" y="-740" font-family="Arial" font-size="14.00" fill="#666666">[DECIMAL]</text>
<polygon fill="none" stroke="black" points="196.91,-697 196.91,-727.8 419.4,-727.8 419.4,-697 196.91,-697"/>
<text text-anchor="start" x="203.91" y="-709.2" font-family="Arial" font-size="14.00">L_RETURNFLAG </text>
<text text-anchor="start" x="318.27" y="-709.2" font-family="Arial" font-size="14.00" fill="#666666">[STRING]</text>
<polygon fill="none" stroke="black" points="196.91,-666.2 196.91,-697 419.4,-697 419.4,-666.2 196.91,-666.2"/>
<text text-anchor="start" x="203.91" y="-678.4" font-family="Arial" font-size="14.00">L_LINESTATUS </text>
<text text-anchor="start" x="309.72" y="-678.4" font-family="Arial" font-size="14.00" fill="#666666">[STRING]</text>
<polygon fill="none" stroke="black" points="196.91,-635.4 196.91,-666.2 419.4,-666.2 419.4,-635.4 196.91,-635.4"/>
<text text-anchor="start" x="203.91" y="-647.6" font-family="Arial" font-size="14.00">L_SHIPDATE </text>
<text text-anchor="start" x="293.38" y="-647.6" font-family="Arial" font-size="14.00" fill="#666666">[DATE]</text>
<polygon fill="none" stroke="black" points="196.91,-604.6 196.91,-635.4 419.4,-635.4 419.4,-604.6 196.91,-604.6"/>
<text text-anchor="start" x="203.91" y="-616.8" font-family="Arial" font-size="14.00">L_COMMITDATE </text>
<text text-anchor="start" x="317.47" y="-616.8" font-family="Arial" font-size="14.00" fill="#666666">[DATE]</text>
<polygon fill="none" stroke="black" points="196.91,-573.8 196.91,-604.6 419.4,-604.6 419.4,-573.8 196.91,-573.8"/>
<text text-anchor="start" x="203.91" y="-586" font-family="Arial" font-size="14.00">L_RECEIPTDATE </text>
<text text-anchor="start" x="321.38" y="-586" font-family="Arial" font-size="14.00" fill="#666666">[DATE]</text>
<polygon fill="none" stroke="black" points="196.91,-543 196.91,-573.8 419.4,-573.8 419.4,-543 196.91,-543"/>
<text text-anchor="start" x="203.91" y="-555.2" font-family="Arial" font-size="14.00">L_SHIPINSTRUCT </text>
<text text-anchor="start" x="326.82" y="-555.2" font-family="Arial" font-size="14.00" fill="#666666">[STRING]</text>
<polygon fill="none" stroke="black" points="196.91,-512.2 196.91,-543 419.4,-543 419.4,-512.2 196.91,-512.2"/>
<text text-anchor="start" x="203.91" y="-524.4" font-family="Arial" font-size="14.00">L_SHIPMODE </text>
<text text-anchor="start" x="298.04" y="-524.4" font-family="Arial" font-size="14.00" fill="#666666">[STRING]</text>
<polygon fill="none" stroke="black" points="196.91,-481.4 196.91,-512.2 419.4,-512.2 419.4,-481.4 196.91,-481.4"/>
<text text-anchor="start" x="203.91" y="-493.6" font-family="Arial" font-size="14.00">L_COMMENT </text>
<text text-anchor="start" x="295.69" y="-493.6" font-family="Arial" font-size="14.00" fill="#666666">[STRING]</text>
<polygon fill="none" stroke="black" stroke-width="3" points="195.41,-479.9 195.41,-1011.3 420.9,-1011.3 420.9,-479.9 195.41,-479.9"/>
</g>
<!-- orders -->
<g id="node2" class="node">
<title>orders</title>
<polygon fill="#efefef" stroke="none" points="43.2,-320.4 43.2,-356 257.11,-356 257.11,-320.4 43.2,-320.4"/>
<polygon fill="none" stroke="black" points="43.2,-320.4 43.2,-356 257.11,-356 257.11,-320.4 43.2,-320.4"/>
<text text-anchor="start" x="72.82" y="-333.8" font-family="Arial Bold" font-size="18.00">orders</text>
<text text-anchor="start" x="117.8" y="-333.8" font-family="Arial" font-size="14.00">    </text>
<text text-anchor="start" x="148.92" y="-333.8" font-family="Arial" font-size="14.00" fill="#666666">[MANAGED]</text>
<polygon fill="none" stroke="black" points="43.2,-289.6 43.2,-320.4 257.11,-320.4 257.11,-289.6 43.2,-289.6"/>
<text text-anchor="start" x="50.2" y="-301.8" font-family="Arial" font-size="14.00">O_ORDERKEY </text>
<text text-anchor="start" x="151.34" y="-301.8" font-family="Arial" font-size="14.00" fill="#666666">[LONG]</text>
<polygon fill="none" stroke="black" points="43.2,-258.8 43.2,-289.6 257.11,-289.6 257.11,-258.8 43.2,-258.8"/>
<text text-anchor="start" x="50.2" y="-271" font-family="Arial" font-size="14.00">O_CUSTKEY </text>
<text text-anchor="start" x="138.89" y="-271" font-family="Arial" font-size="14.00" fill="#666666">[LONG]</text>
<polygon fill="none" stroke="black" points="43.2,-228 43.2,-258.8 257.11,-258.8 257.11,-228 43.2,-228"/>
<text text-anchor="start" x="50.2" y="-240.2" font-family="Arial" font-size="14.00">O_ORDERSTATUS </text>
<text text-anchor="start" x="178.55" y="-240.2" font-family="Arial" font-size="14.00" fill="#666666">[STRING]</text>
<polygon fill="none" stroke="black" points="43.2,-197.2 43.2,-228 257.11,-228 257.11,-197.2 43.2,-197.2"/>
<text text-anchor="start" x="50.2" y="-209.4" font-family="Arial" font-size="14.00">O_TOTALPRICE </text>
<text text-anchor="start" x="160.67" y="-209.4" font-family="Arial" font-size="14.00" fill="#666666">[DECIMAL]</text>
<polygon fill="none" stroke="black" points="43.2,-166.4 43.2,-197.2 257.11,-197.2 257.11,-166.4 43.2,-166.4"/>
<text text-anchor="start" x="50.2" y="-178.6" font-family="Arial" font-size="14.00">O_ORDERDATE </text>
<text text-anchor="start" x="160.66" y="-178.6" font-family="Arial" font-size="14.00" fill="#666666">[DATE]</text>
<polygon fill="none" stroke="black" points="43.2,-135.6 43.2,-166.4 257.11,-166.4 257.11,-135.6 43.2,-135.6"/>
<text text-anchor="start" x="50.2" y="-147.8" font-family="Arial" font-size="14.00">O_ORDERPRIORITY </text>
<text text-anchor="start" x="189.44" y="-147.8" font-family="Arial" font-size="14.00" fill="#666666">[STRING]</text>
<polygon fill="none" stroke="black" points="43.2,-104.8 43.2,-135.6 257.11,-135.6 257.11,-104.8 43.2,-104.8"/>
<text text-anchor="start" x="50.2" y="-117" font-family="Arial" font-size="14.00">O_CLERK </text>
<text text-anchor="start" x="119.45" y="-117" font-family="Arial" font-size="14.00" fill="#666666">[STRING]</text>
<polygon fill="none" stroke="black" points="43.2,-74 43.2,-104.8 257.11,-104.8 257.11,-74 43.2,-74"/>
<text text-anchor="start" x="50.2" y="-86.2" font-family="Arial" font-size="14.00">O_SHIPPRIORITY </text>
<text text-anchor="start" x="171.56" y="-86.2" font-family="Arial" font-size="14.00" fill="#666666">[LONG]</text>
<polygon fill="none" stroke="black" points="43.2,-43.2 43.2,-74 257.11,-74 257.11,-43.2 43.2,-43.2"/>
<text text-anchor="start" x="50.2" y="-55.4" font-family="Arial" font-size="14.00">O_COMMENT </text>
<text text-anchor="start" x="145.09" y="-55.4" font-family="Arial" font-size="14.00" fill="#666666">[STRING]</text>
</g>
<!-- lineitem&#45;&gt;orders -->
<g id="edge1" class="edge">
<title>lineitem:L_ORDERKEY&#45;&gt;orders:O_ORDERKEY</title>
<path fill="none" stroke="black" d="M185.58,-958.58C-33.21,-949.1 83.65,-634.45 196.91,-435.2 212.31,-408.1 241.59,-426.24 257.11,-399.2 277.96,-362.89 299.98,-305 258.11,-305"/>
<polygon fill="black" stroke="black" points="185.57,-958.58 195.48,-963.29 190.91,-958.69 195.24,-958.79 195.24,-958.79 195.24,-958.79 190.91,-958.69 195.67,-954.29 185.57,-958.58"/>
<text text-anchor="start" x="18.32" y="-968.8" font-family="Arial" font-size="10.00">FOREIGN KEY REFERENCES orders</text>
</g>
<!-- partsupp -->
<g id="node3" class="node">
<title>partsupp</title>
<polygon fill="#efefef" stroke="none" points="361.9,-258.8 361.9,-294.4 570.41,-294.4 570.41,-258.8 361.9,-258.8"/>
<polygon fill="none" stroke="black" points="361.9,-258.8 361.9,-294.4 570.41,-294.4 570.41,-258.8 361.9,-258.8"/>
<text text-anchor="start" x="380.32" y="-272.2" font-family="Arial Bold" font-size="18.00">partsupp</text>
<text text-anchor="start" x="442.31" y="-272.2" font-family="Arial" font-size="14.00">    </text>
<text text-anchor="start" x="473.43" y="-272.2" font-family="Arial" font-size="14.00" fill="#666666">[MANAGED]</text>
<polygon fill="none" stroke="black" points="361.9,-228 361.9,-258.8 570.41,-258.8 570.41,-228 361.9,-228"/>
<text text-anchor="start" x="368.9" y="-240.2" font-family="Arial" font-size="14.00">PS_PARTKEY </text>
<text text-anchor="start" x="464.61" y="-240.2" font-family="Arial" font-size="14.00" fill="#666666">[LONG]</text>
<polygon fill="none" stroke="black" points="361.9,-197.2 361.9,-228 570.41,-228 570.41,-197.2 361.9,-197.2"/>
<text text-anchor="start" x="368.9" y="-209.4" font-family="Arial" font-size="14.00">PS_SUPPKEY </text>
<text text-anchor="start" x="465.39" y="-209.4" font-family="Arial" font-size="14.00" fill="#666666">[LONG]</text>
<polygon fill="none" stroke="black" points="361.9,-166.4 361.9,-197.2 570.41,-197.2 570.41,-166.4 361.9,-166.4"/>
<text text-anchor="start" x="368.9" y="-178.6" font-family="Arial" font-size="14.00">PS_AVAILQTY </text>
<text text-anchor="start" x="467.72" y="-178.6" font-family="Arial" font-size="14.00" fill="#666666">[LONG]</text>
<polygon fill="none" stroke="black" points="361.9,-135.6 361.9,-166.4 570.41,-166.4 570.41,-135.6 361.9,-135.6"/>
<text text-anchor="start" x="368.9" y="-147.8" font-family="Arial" font-size="14.00">PS_SUPPLYCOST </text>
<text text-anchor="start" x="493.39" y="-147.8" font-family="Arial" font-size="14.00" fill="#666666">[DECIMAL]</text>
<polygon fill="none" stroke="black" points="361.9,-104.8 361.9,-135.6 570.41,-135.6 570.41,-104.8 361.9,-104.8"/>
<text text-anchor="start" x="368.9" y="-117" font-family="Arial" font-size="14.00">PS_COMMENT </text>
<text text-anchor="start" x="471.58" y="-117" font-family="Arial" font-size="14.00" fill="#666666">[STRING]</text>
</g>
<!-- lineitem&#45;&gt;partsupp -->
<g id="edge2" class="edge">
<title>lineitem:L_PARTKEY&#45;&gt;partsupp:PS_PARTKEY</title>
<path fill="none" stroke="black" d="M430.7,-927.78C634.23,-918.94 476.3,-643.05 419.4,-435.2 406.11,-386.64 375.41,-386.1 361.9,-337.6 350.68,-297.26 319.03,-243.4 360.9,-243.4"/>
<polygon fill="black" stroke="black" points="430.74,-927.78 420.64,-923.49 425.4,-927.89 421.07,-927.99 421.07,-927.99 421.07,-927.99 425.4,-927.89 420.83,-932.49 430.74,-927.78"/>
<text text-anchor="start" x="427.4" y="-938" font-family="Arial" font-size="10.00">FOREIGN KEY REFERENCES partsupp</text>
</g>
</g>
</svg>
