<?xml version="1.0" encoding="UTF-8" standalone="no"?>
<!DOCTYPE svg PUBLIC "-//W3C//DTD SVG 1.1//EN"
 "http://www.w3.org/Graphics/SVG/1.1/DTD/svg11.dtd">
<!-- Generated by graphviz version 12.1.2 (20240928.0832)
 -->
<!-- Title: part Pages: 1 -->
<svg width="434pt" height="725pt"
 viewBox="0.00 0.00 434.18 725.20" xmlns="http://www.w3.org/2000/svg" xmlns:xlink="http://www.w3.org/1999/xlink">
<g id="graph0" class="graph" transform="scale(1 1) rotate(0) translate(4 721.2)">
<title>part</title>
<polygon fill="white" stroke="none" points="-4,4 -4,-721.2 430.18,-721.2 430.18,4 -4,4"/>
<!-- part -->
<g id="node1" class="node">
<title>part</title>
<polygon fill="#efefef" stroke="none" points="49.04,-323.4 49.04,-359 245.87,-359 245.87,-323.4 49.04,-323.4"/>
<polygon fill="none" stroke="black" points="49.04,-323.4 49.04,-359 245.87,-359 245.87,-323.4 49.04,-323.4"/>
<text text-anchor="start" x="78.62" y="-336.8" font-family="Arial Bold" font-size="18.00">part</text>
<text text-anchor="start" x="106.6" y="-336.8" font-family="Arial" font-size="14.00">    </text>
<text text-anchor="start" x="137.72" y="-336.8" font-family="Arial" font-size="14.00" fill="#666666">[MANAGED]</text>
<polygon fill="none" stroke="black" points="49.04,-292.6 49.04,-323.4 245.87,-323.4 245.87,-292.6 49.04,-292.6"/>
<text text-anchor="start" x="56.04" y="-304.8" font-family="Arial" font-size="14.00">P_PARTKEY </text>
<text text-anchor="start" x="142.4" y="-304.8" font-family="Arial" font-size="14.00" fill="#666666">[LONG]</text>
<polygon fill="none" stroke="black" points="49.04,-261.8 49.04,-292.6 245.87,-292.6 245.87,-261.8 49.04,-261.8"/>
<text text-anchor="start" x="56.04" y="-274" font-family="Arial" font-size="14.00">P_NAME </text>
<text text-anchor="start" x="117.5" y="-274" font-family="Arial" font-size="14.00" fill="#666666">[STRING]</text>
<polygon fill="none" stroke="black" points="49.04,-231 49.04,-261.8 245.87,-261.8 245.87,-231 49.04,-231"/>
<text text-anchor="start" x="56.04" y="-243.2" font-family="Arial" font-size="14.00">P_MFGR </text>
<text text-anchor="start" x="118.27" y="-243.2" font-family="Arial" font-size="14.00" fill="#666666">[STRING]</text>
<polygon fill="none" stroke="black" points="49.04,-200.2 49.04,-231 245.87,-231 245.87,-200.2 49.04,-200.2"/>
<text text-anchor="start" x="56.04" y="-212.4" font-family="Arial" font-size="14.00">P_BRAND </text>
<text text-anchor="start" x="126.06" y="-212.4" font-family="Arial" font-size="14.00" fill="#666666">[STRING]</text>
<polygon fill="none" stroke="black" points="49.04,-169.4 49.04,-200.2 245.87,-200.2 245.87,-169.4 49.04,-169.4"/>
<text text-anchor="start" x="56.04" y="-181.6" font-family="Arial" font-size="14.00">P_TYPE </text>
<text text-anchor="start" x="113.62" y="-181.6" font-family="Arial" font-size="14.00" fill="#666666">[STRING]</text>
<polygon fill="none" stroke="black" points="49.04,-138.6 49.04,-169.4 245.87,-169.4 245.87,-138.6 49.04,-138.6"/>
<text text-anchor="start" x="56.04" y="-150.8" font-family="Arial" font-size="14.00">P_SIZE </text>
<text text-anchor="start" x="108.17" y="-150.8" font-family="Arial" font-size="14.00" fill="#666666">[LONG]</text>
<polygon fill="none" stroke="black" points="49.04,-107.8 49.04,-138.6 245.87,-138.6 245.87,-107.8 49.04,-107.8"/>
<text text-anchor="start" x="56.04" y="-120" font-family="Arial" font-size="14.00">P_CONTAINER </text>
<text text-anchor="start" x="159.5" y="-120" font-family="Arial" font-size="14.00" fill="#666666">[STRING]</text>
<polygon fill="none" stroke="black" points="49.04,-77 49.04,-107.8 245.87,-107.8 245.87,-77 49.04,-77"/>
<text text-anchor="start" x="56.04" y="-89.2" font-family="Arial" font-size="14.00">P_RETAILPRICE </text>
<text text-anchor="start" x="168.85" y="-89.2" font-family="Arial" font-size="14.00" fill="#666666">[DECIMAL]</text>
<polygon fill="none" stroke="black" points="49.04,-46.2 49.04,-77 245.87,-77 245.87,-46.2 49.04,-46.2"/>
<text text-anchor="start" x="56.04" y="-58.4" font-family="Arial" font-size="14.00">P_COMMENT </text>
<text text-anchor="start" x="149.38" y="-58.4" font-family="Arial" font-size="14.00" fill="#666666">[STRING]</text>
<polygon fill="none" stroke="black" stroke-width="3" points="47.54,-44.7 47.54,-360.5 247.37,-360.5 247.37,-44.7 47.54,-44.7"/>
</g>
<!-- partsupp -->
<g id="node2" class="node">
<title>partsupp</title>
<polygon fill="#efefef" stroke="none" points="43.2,-638.4 43.2,-674 251.7,-674 251.7,-638.4 43.2,-638.4"/>
<polygon fill="none" stroke="black" points="43.2,-638.4 43.2,-674 251.7,-674 251.7,-638.4 43.2,-638.4"/>
<text text-anchor="start" x="61.62" y="-651.8" font-family="Arial Bold" font-size="18.00">partsupp</text>
<text text-anchor="start" x="123.6" y="-651.8" font-family="Arial" font-size="14.00">    </text>
<text text-anchor="start" x="154.72" y="-651.8" font-family="Arial" font-size="14.00" fill="#666666">[MANAGED]</text>
<polygon fill="none" stroke="black" points="43.2,-607.6 43.2,-638.4 251.7,-638.4 251.7,-607.6 43.2,-607.6"/>
<text text-anchor="start" x="50.2" y="-619.8" font-family="Arial" font-size="14.00">PS_PARTKEY </text>
<text text-anchor="start" x="145.9" y="-619.8" font-family="Arial" font-size="14.00" fill="#666666">[LONG]</text>
<polygon fill="none" stroke="black" points="43.2,-576.8 43.2,-607.6 251.7,-607.6 251.7,-576.8 43.2,-576.8"/>
<text text-anchor="start" x="50.2" y="-589" font-family="Arial" font-size="14.00">PS_SUPPKEY </text>
<text text-anchor="start" x="146.69" y="-589" font-family="Arial" font-size="14.00" fill="#666666">[LONG]</text>
<polygon fill="none" stroke="black" points="43.2,-546 43.2,-576.8 251.7,-576.8 251.7,-546 43.2,-546"/>
<text text-anchor="start" x="50.2" y="-558.2" font-family="Arial" font-size="14.00">PS_AVAILQTY </text>
<text text-anchor="start" x="149.02" y="-558.2" font-family="Arial" font-size="14.00" fill="#666666">[LONG]</text>
<polygon fill="none" stroke="black" points="43.2,-515.2 43.2,-546 251.7,-546 251.7,-515.2 43.2,-515.2"/>
<text text-anchor="start" x="50.2" y="-527.4" font-family="Arial" font-size="14.00">PS_SUPPLYCOST </text>
<text text-anchor="start" x="174.69" y="-527.4" font-family="Arial" font-size="14.00" fill="#666666">[DECIMAL]</text>
<polygon fill="none" stroke="black" points="43.2,-484.4 43.2,-515.2 251.7,-515.2 251.7,-484.4 43.2,-484.4"/>
<text text-anchor="start" x="50.2" y="-496.6" font-family="Arial" font-size="14.00">PS_COMMENT </text>
<text text-anchor="start" x="152.88" y="-496.6" font-family="Arial" font-size="14.00" fill="#666666">[STRING]</text>
</g>
<!-- partsupp&#45;&gt;part -->
<g id="edge1" class="edge">
<title>partsupp:PS_PARTKEY&#45;&gt;part:P_PARTKEY</title>
<path fill="none" stroke="black" d="M262.78,-620.65C321.96,-591.82 313.32,-308 246.87,-308"/>
<polygon fill="black" stroke="black" points="262.77,-620.65 252.01,-618.54 257.57,-621.86 253.35,-622.85 253.35,-622.85 253.35,-622.85 257.57,-621.86 254.05,-627.31 262.77,-620.65"/>
<text text-anchor="start" x="259.7" y="-633" font-family="Arial" font-size="10.00">FOREIGN KEY REFERENCES part</text>
</g>
</g>
</svg>
