<?xml version="1.0" encoding="UTF-8" standalone="no"?>
<!DOCTYPE svg PUBLIC "-//W3C//DTD SVG 1.1//EN"
 "http://www.w3.org/Graphics/SVG/1.1/DTD/svg11.dtd">
<!-- Generated by graphviz version 12.1.2 (20240928.0832)
 -->
<!-- Title: partsupp Pages: 1 -->
<svg width="604pt" height="1376pt"
 viewBox="0.00 0.00 604.02 1376.00" xmlns="http://www.w3.org/2000/svg" xmlns:xlink="http://www.w3.org/1999/xlink">
<g id="graph0" class="graph" transform="scale(1 1) rotate(0) translate(4 1372)">
<title>partsupp</title>
<polygon fill="white" stroke="none" points="-4,4 -4,-1372 600.02,-1372 600.02,4 -4,4"/>
<!-- partsupp -->
<g id="node1" class="node">
<title>partsupp</title>
<polygon fill="#efefef" stroke="none" points="184.36,-635.4 184.36,-671 392.87,-671 392.87,-635.4 184.36,-635.4"/>
<polygon fill="none" stroke="black" points="184.36,-635.4 184.36,-671 392.87,-671 392.87,-635.4 184.36,-635.4"/>
<text text-anchor="start" x="202.78" y="-648.8" font-family="Arial Bold" font-size="18.00">partsupp</text>
<text text-anchor="start" x="264.77" y="-648.8" font-family="Arial" font-size="14.00">    </text>
<text text-anchor="start" x="295.88" y="-648.8" font-family="Arial" font-size="14.00" fill="#666666">[MANAGED]</text>
<polygon fill="none" stroke="black" points="184.36,-604.6 184.36,-635.4 392.87,-635.4 392.87,-604.6 184.36,-604.6"/>
<text text-anchor="start" x="191.36" y="-616.8" font-family="Arial" font-size="14.00">PS_PARTKEY </text>
<text text-anchor="start" x="287.07" y="-616.8" font-family="Arial" font-size="14.00" fill="#666666">[LONG]</text>
<polygon fill="none" stroke="black" points="184.36,-573.8 184.36,-604.6 392.87,-604.6 392.87,-573.8 184.36,-573.8"/>
<text text-anchor="start" x="191.36" y="-586" font-family="Arial" font-size="14.00">PS_SUPPKEY </text>
<text text-anchor="start" x="287.85" y="-586" font-family="Arial" font-size="14.00" fill="#666666">[LONG]</text>
<polygon fill="none" stroke="black" points="184.36,-543 184.36,-573.8 392.87,-573.8 392.87,-543 184.36,-543"/>
<text text-anchor="start" x="191.36" y="-555.2" font-family="Arial" font-size="14.00">PS_AVAILQTY </text>
<text text-anchor="start" x="290.18" y="-555.2" font-family="Arial" font-size="14.00" fill="#666666">[LONG]</text>
<polygon fill="none" stroke="black" points="184.36,-512.2 184.36,-543 392.87,-543 392.87,-512.2 184.36,-512.2"/>
<text text-anchor="start" x="191.36" y="-524.4" font-family="Arial" font-size="14.00">PS_SUPPLYCOST </text>
<text text-anchor="start" x="315.85" y="-524.4" font-family="Arial" font-size="14.00" fill="#666666">[DECIMAL]</text>
<polygon fill="none" stroke="black" points="184.36,-481.4 184.36,-512.2 392.87,-512.2 392.87,-481.4 184.36,-481.4"/>
<text text-anchor="start" x="191.36" y="-493.6" font-family="Arial" font-size="14.00">PS_COMMENT </text>
<text text-anchor="start" x="294.04" y="-493.6" font-family="Arial" font-size="14.00" fill="#666666">[STRING]</text>
<polygon fill="none" stroke="black" stroke-width="3" points="182.86,-479.9 182.86,-672.5 394.37,-672.5 394.37,-479.9 182.86,-479.9"/>
</g>
<!-- part -->
<g id="node2" class="node">
<title>part</title>
<polygon fill="#efefef" stroke="none" points="43.2,-320.4 43.2,-356 240.03,-356 240.03,-320.4 43.2,-320.4"/>
<polygon fill="none" stroke="black" points="43.2,-320.4 43.2,-356 240.03,-356 240.03,-320.4 43.2,-320.4"/>
<text text-anchor="start" x="72.78" y="-333.8" font-family="Arial Bold" font-size="18.00">part</text>
<text text-anchor="start" x="100.76" y="-333.8" font-family="Arial" font-size="14.00">    </text>
<text text-anchor="start" x="131.88" y="-333.8" font-family="Arial" font-size="14.00" fill="#666666">[MANAGED]</text>
<polygon fill="none" stroke="black" points="43.2,-289.6 43.2,-320.4 240.03,-320.4 240.03,-289.6 43.2,-289.6"/>
<text text-anchor="start" x="50.2" y="-301.8" font-family="Arial" font-size="14.00">P_PARTKEY </text>
<text text-anchor="start" x="136.57" y="-301.8" font-family="Arial" font-size="14.00" fill="#666666">[LONG]</text>
<polygon fill="none" stroke="black" points="43.2,-258.8 43.2,-289.6 240.03,-289.6 240.03,-258.8 43.2,-258.8"/>
<text text-anchor="start" x="50.2" y="-271" font-family="Arial" font-size="14.00">P_NAME </text>
<text text-anchor="start" x="111.66" y="-271" font-family="Arial" font-size="14.00" fill="#666666">[STRING]</text>
<polygon fill="none" stroke="black" points="43.2,-228 43.2,-258.8 240.03,-258.8 240.03,-228 43.2,-228"/>
<text text-anchor="start" x="50.2" y="-240.2" font-family="Arial" font-size="14.00">P_MFGR </text>
<text text-anchor="start" x="112.43" y="-240.2" font-family="Arial" font-size="14.00" fill="#666666">[STRING]</text>
<polygon fill="none" stroke="black" points="43.2,-197.2 43.2,-228 240.03,-228 240.03,-197.2 43.2,-197.2"/>
<text text-anchor="start" x="50.2" y="-209.4" font-family="Arial" font-size="14.00">P_BRAND </text>
<text text-anchor="start" x="120.22" y="-209.4" font-family="Arial" font-size="14.00" fill="#666666">[STRING]</text>
<polygon fill="none" stroke="black" points="43.2,-166.4 43.2,-197.2 240.03,-197.2 240.03,-166.4 43.2,-166.4"/>
<text text-anchor="start" x="50.2" y="-178.6" font-family="Arial" font-size="14.00">P_TYPE </text>
<text text-anchor="start" x="107.78" y="-178.6" font-family="Arial" font-size="14.00" fill="#666666">[STRING]</text>
<polygon fill="none" stroke="black" points="43.2,-135.6 43.2,-166.4 240.03,-166.4 240.03,-135.6 43.2,-135.6"/>
<text text-anchor="start" x="50.2" y="-147.8" font-family="Arial" font-size="14.00">P_SIZE </text>
<text text-anchor="start" x="102.33" y="-147.8" font-family="Arial" font-size="14.00" fill="#666666">[LONG]</text>
<polygon fill="none" stroke="black" points="43.2,-104.8 43.2,-135.6 240.03,-135.6 240.03,-104.8 43.2,-104.8"/>
<text text-anchor="start" x="50.2" y="-117" font-family="Arial" font-size="14.00">P_CONTAINER </text>
<text text-anchor="start" x="153.66" y="-117" font-family="Arial" font-size="14.00" fill="#666666">[STRING]</text>
<polygon fill="none" stroke="black" points="43.2,-74 43.2,-104.8 240.03,-104.8 240.03,-74 43.2,-74"/>
<text text-anchor="start" x="50.2" y="-86.2" font-family="Arial" font-size="14.00">P_RETAILPRICE </text>
<text text-anchor="start" x="163.01" y="-86.2" font-family="Arial" font-size="14.00" fill="#666666">[DECIMAL]</text>
<polygon fill="none" stroke="black" points="43.2,-43.2 43.2,-74 240.03,-74 240.03,-43.2 43.2,-43.2"/>
<text text-anchor="start" x="50.2" y="-55.4" font-family="Arial" font-size="14.00">P_COMMENT </text>
<text text-anchor="start" x="143.54" y="-55.4" font-family="Arial" font-size="14.00" fill="#666666">[STRING]</text>
</g>
<!-- partsupp&#45;&gt;part -->
<g id="edge1" class="edge">
<title>partsupp:PS_PARTKEY&#45;&gt;part:P_PARTKEY</title>
<path fill="none" stroke="black" d="M173.11,-619.95C-216.24,-616.35 236.56,-405.5 240.03,-399.2 260.23,-362.53 282.9,-305 241.03,-305"/>
<polygon fill="black" stroke="black" points="173.03,-619.95 183.01,-624.5 178.36,-619.98 182.69,-620 182.69,-620 182.69,-620 178.36,-619.98 183.05,-615.5 173.03,-619.95"/>
<text text-anchor="start" x="16.88" y="-630" font-family="Arial" font-size="10.00">FOREIGN KEY REFERENCES part</text>
</g>
<!-- supplier -->
<g id="node4" class="node">
<title>supplier</title>
<polygon fill="#efefef" stroke="none" points="344.78,-289.6 344.78,-325.2 526.45,-325.2 526.45,-289.6 344.78,-289.6"/>
<polygon fill="none" stroke="black" points="344.78,-289.6 344.78,-325.2 526.45,-325.2 526.45,-289.6 344.78,-289.6"/>
<text text-anchor="start" x="351.78" y="-303" font-family="Arial Bold" font-size="18.00">supplier</text>
<text text-anchor="start" x="409.77" y="-303" font-family="Arial" font-size="14.00">    </text>
<text text-anchor="start" x="440.88" y="-303" font-family="Arial" font-size="14.00" fill="#666666">[MANAGED]</text>
<polygon fill="none" stroke="black" points="344.78,-258.8 344.78,-289.6 526.45,-289.6 526.45,-258.8 344.78,-258.8"/>
<text text-anchor="start" x="351.78" y="-271" font-family="Arial" font-size="14.00">S_SUPPKEY </text>
<text text-anchor="start" x="438.93" y="-271" font-family="Arial" font-size="14.00" fill="#666666">[LONG]</text>
<polygon fill="none" stroke="black" points="344.78,-228 344.78,-258.8 526.45,-258.8 526.45,-228 344.78,-228"/>
<text text-anchor="start" x="351.78" y="-240.2" font-family="Arial" font-size="14.00">S_NAME </text>
<text text-anchor="start" x="413.24" y="-240.2" font-family="Arial" font-size="14.00" fill="#666666">[STRING]</text>
<polygon fill="none" stroke="black" points="344.78,-197.2 344.78,-228 526.45,-228 526.45,-197.2 344.78,-197.2"/>
<text text-anchor="start" x="351.78" y="-209.4" font-family="Arial" font-size="14.00">S_ADDRESS </text>
<text text-anchor="start" x="440.47" y="-209.4" font-family="Arial" font-size="14.00" fill="#666666">[STRING]</text>
<polygon fill="none" stroke="black" points="344.78,-166.4 344.78,-197.2 526.45,-197.2 526.45,-166.4 344.78,-166.4"/>
<text text-anchor="start" x="351.78" y="-178.6" font-family="Arial" font-size="14.00">S_NATIONKEY </text>
<text text-anchor="start" x="453.69" y="-178.6" font-family="Arial" font-size="14.00" fill="#666666">[LONG]</text>
<polygon fill="none" stroke="black" points="344.78,-135.6 344.78,-166.4 526.45,-166.4 526.45,-135.6 344.78,-135.6"/>
<text text-anchor="start" x="351.78" y="-147.8" font-family="Arial" font-size="14.00">S_PHONE </text>
<text text-anchor="start" x="422.58" y="-147.8" font-family="Arial" font-size="14.00" fill="#666666">[STRING]</text>
<polygon fill="none" stroke="black" points="344.78,-104.8 344.78,-135.6 526.45,-135.6 526.45,-104.8 344.78,-104.8"/>
<text text-anchor="start" x="351.78" y="-117" font-family="Arial" font-size="14.00">S_ACCTBAL </text>
<text text-anchor="start" x="437.36" y="-117" font-family="Arial" font-size="14.00" fill="#666666">[DECIMAL]</text>
<polygon fill="none" stroke="black" points="344.78,-74 344.78,-104.8 526.45,-104.8 526.45,-74 344.78,-74"/>
<text text-anchor="start" x="351.78" y="-86.2" font-family="Arial" font-size="14.00">S_COMMENT </text>
<text text-anchor="start" x="445.12" y="-86.2" font-family="Arial" font-size="14.00" fill="#666666">[STRING]</text>
</g>
<!-- partsupp&#45;&gt;supplier -->
<g id="edge3" class="edge">
<title>partsupp:PS_SUPPKEY&#45;&gt;supplier:S_SUPPKEY</title>
<path fill="none" stroke="black" d="M404.07,-588.42C457.12,-579.54 412.92,-496.71 392.87,-435.2 381.52,-400.42 356.19,-403.16 344.78,-368.4 331.71,-328.62 301.91,-274.2 343.78,-274.2"/>
<polygon fill="black" stroke="black" points="404.17,-588.41 393.86,-584.69 398.85,-588.82 394.53,-589.15 394.53,-589.15 394.53,-589.15 398.85,-588.82 394.54,-593.66 404.17,-588.41"/>
<text text-anchor="start" x="400.87" y="-599.2" font-family="Arial" font-size="10.00">FOREIGN KEY REFERENCES supplier</text>
</g>
<!-- lineitem -->
<g id="node3" class="node">
<title>lineitem</title>
<polygon fill="#efefef" stroke="none" points="177.37,-1289.2 177.37,-1324.8 399.86,-1324.8 399.86,-1289.2 177.37,-1289.2"/>
<polygon fill="none" stroke="black" points="177.37,-1289.2 177.37,-1324.8 399.86,-1324.8 399.86,-1289.2 177.37,-1289.2"/>
<text text-anchor="start" x="204.28" y="-1302.6" font-family="Arial Bold" font-size="18.00">lineitem</text>
<text text-anchor="start" x="263.26" y="-1302.6" font-family="Arial" font-size="14.00">    </text>
<text text-anchor="start" x="294.38" y="-1302.6" font-family="Arial" font-size="14.00" fill="#666666">[MANAGED]</text>
<polygon fill="none" stroke="black" points="177.37,-1258.4 177.37,-1289.2 399.86,-1289.2 399.86,-1258.4 177.37,-1258.4"/>
<text text-anchor="start" x="184.37" y="-1270.6" font-family="Arial" font-size="14.00">L_ORDERKEY </text>
<text text-anchor="start" x="282.4" y="-1270.6" font-family="Arial" font-size="14.00" fill="#666666">[LONG]</text>
<polygon fill="none" stroke="black" points="177.37,-1227.6 177.37,-1258.4 399.86,-1258.4 399.86,-1227.6 177.37,-1227.6"/>
<text text-anchor="start" x="184.37" y="-1239.8" font-family="Arial" font-size="14.00">L_PARTKEY </text>
<text text-anchor="start" x="269.18" y="-1239.8" font-family="Arial" font-size="14.00" fill="#666666">[LONG]</text>
<polygon fill="none" stroke="black" points="177.37,-1196.8 177.37,-1227.6 399.86,-1227.6 399.86,-1196.8 177.37,-1196.8"/>
<text text-anchor="start" x="184.37" y="-1209" font-family="Arial" font-size="14.00">L_SUPPKEY </text>
<text text-anchor="start" x="269.97" y="-1209" font-family="Arial" font-size="14.00" fill="#666666">[LONG]</text>
<polygon fill="none" stroke="black" points="177.37,-1166 177.37,-1196.8 399.86,-1196.8 399.86,-1166 177.37,-1166"/>
<text text-anchor="start" x="184.37" y="-1178.2" font-family="Arial" font-size="14.00">L_LINENUMBER </text>
<text text-anchor="start" x="295.62" y="-1178.2" font-family="Arial" font-size="14.00" fill="#666666">[LONG]</text>
<polygon fill="none" stroke="black" points="177.37,-1135.2 177.37,-1166 399.86,-1166 399.86,-1135.2 177.37,-1135.2"/>
<text text-anchor="start" x="184.37" y="-1147.4" font-family="Arial" font-size="14.00">L_QUANTITY </text>
<text text-anchor="start" x="274.61" y="-1147.4" font-family="Arial" font-size="14.00" fill="#666666">[DECIMAL]</text>
<polygon fill="none" stroke="black" points="177.37,-1104.4 177.37,-1135.2 399.86,-1135.2 399.86,-1104.4 177.37,-1104.4"/>
<text text-anchor="start" x="184.37" y="-1116.6" font-family="Arial" font-size="14.00">L_EXTENDEDPRICE </text>
<text text-anchor="start" x="322.85" y="-1116.6" font-family="Arial" font-size="14.00" fill="#666666">[DECIMAL]</text>
<polygon fill="none" stroke="black" points="177.37,-1073.6 177.37,-1104.4 399.86,-1104.4 399.86,-1073.6 177.37,-1073.6"/>
<text text-anchor="start" x="184.37" y="-1085.8" font-family="Arial" font-size="14.00">L_DISCOUNT </text>
<text text-anchor="start" x="276.94" y="-1085.8" font-family="Arial" font-size="14.00" fill="#666666">[DECIMAL]</text>
<polygon fill="none" stroke="black" points="177.37,-1042.8 177.37,-1073.6 399.86,-1073.6 399.86,-1042.8 177.37,-1042.8"/>
<text text-anchor="start" x="184.37" y="-1055" font-family="Arial" font-size="14.00">L_TAX </text>
<text text-anchor="start" x="231.05" y="-1055" font-family="Arial" font-size="14.00" fill="#666666">[DECIMAL]</text>
<polygon fill="none" stroke="black" points="177.37,-1012 177.37,-1042.8 399.86,-1042.8 399.86,-1012 177.37,-1012"/>
<text text-anchor="start" x="184.37" y="-1024.2" font-family="Arial" font-size="14.00">L_RETURNFLAG </text>
<text text-anchor="start" x="298.72" y="-1024.2" font-family="Arial" font-size="14.00" fill="#666666">[STRING]</text>
<polygon fill="none" stroke="black" points="177.37,-981.2 177.37,-1012 399.86,-1012 399.86,-981.2 177.37,-981.2"/>
<text text-anchor="start" x="184.37" y="-993.4" font-family="Arial" font-size="14.00">L_LINESTATUS </text>
<text text-anchor="start" x="290.18" y="-993.4" font-family="Arial" font-size="14.00" fill="#666666">[STRING]</text>
<polygon fill="none" stroke="black" points="177.37,-950.4 177.37,-981.2 399.86,-981.2 399.86,-950.4 177.37,-950.4"/>
<text text-anchor="start" x="184.37" y="-962.6" font-family="Arial" font-size="14.00">L_SHIPDATE </text>
<text text-anchor="start" x="273.84" y="-962.6" font-family="Arial" font-size="14.00" fill="#666666">[DATE]</text>
<polygon fill="none" stroke="black" points="177.37,-919.6 177.37,-950.4 399.86,-950.4 399.86,-919.6 177.37,-919.6"/>
<text text-anchor="start" x="184.37" y="-931.8" font-family="Arial" font-size="14.00">L_COMMITDATE </text>
<text text-anchor="start" x="297.93" y="-931.8" font-family="Arial" font-size="14.00" fill="#666666">[DATE]</text>
<polygon fill="none" stroke="black" points="177.37,-888.8 177.37,-919.6 399.86,-919.6 399.86,-888.8 177.37,-888.8"/>
<text text-anchor="start" x="184.37" y="-901" font-family="Arial" font-size="14.00">L_RECEIPTDATE </text>
<text text-anchor="start" x="301.84" y="-901" font-family="Arial" font-size="14.00" fill="#666666">[DATE]</text>
<polygon fill="none" stroke="black" points="177.37,-858 177.37,-888.8 399.86,-888.8 399.86,-858 177.37,-858"/>
<text text-anchor="start" x="184.37" y="-870.2" font-family="Arial" font-size="14.00">L_SHIPINSTRUCT </text>
<text text-anchor="start" x="307.28" y="-870.2" font-family="Arial" font-size="14.00" fill="#666666">[STRING]</text>
<polygon fill="none" stroke="black" points="177.37,-827.2 177.37,-858 399.86,-858 399.86,-827.2 177.37,-827.2"/>
<text text-anchor="start" x="184.37" y="-839.4" font-family="Arial" font-size="14.00">L_SHIPMODE </text>
<text text-anchor="start" x="278.5" y="-839.4" font-family="Arial" font-size="14.00" fill="#666666">[STRING]</text>
<polygon fill="none" stroke="black" points="177.37,-796.4 177.37,-827.2 399.86,-827.2 399.86,-796.4 177.37,-796.4"/>
<text text-anchor="start" x="184.37" y="-808.6" font-family="Arial" font-size="14.00">L_COMMENT </text>
<text text-anchor="start" x="276.15" y="-808.6" font-family="Arial" font-size="14.00" fill="#666666">[STRING]</text>
</g>
<!-- lineitem&#45;&gt;partsupp -->
<g id="edge2" class="edge">
<title>lineitem:L_PARTKEY&#45;&gt;partsupp:PS_PARTKEY</title>
<path fill="none" stroke="black" d="M411.13,-1241.82C538.87,-1211.76 528.8,-620 393.87,-620"/>
<polygon fill="black" stroke="black" points="411.13,-1241.82 400.68,-1238.49 405.83,-1242.43 401.53,-1242.92 401.53,-1242.92 401.53,-1242.92 405.83,-1242.43 401.71,-1247.43 411.13,-1241.82"/>
<text text-anchor="start" x="407.86" y="-1253" font-family="Arial" font-size="10.00">FOREIGN KEY REFERENCES partsupp</text>
</g>
</g>
</svg>
