<?xml version="1.0" encoding="UTF-8" standalone="no"?>
<!DOCTYPE svg PUBLIC "-//W3C//DTD SVG 1.1//EN"
 "http://www.w3.org/Graphics/SVG/1.1/DTD/svg11.dtd">
<!-- Generated by graphviz version 12.1.2 (20240928.0832)
 -->
<!-- Title: comment_stars Pages: 1 -->
<svg width="396pt" height="1037pt"
 viewBox="0.00 0.00 396.16 1037.20" xmlns="http://www.w3.org/2000/svg" xmlns:xlink="http://www.w3.org/1999/xlink">
<g id="graph0" class="graph" transform="scale(1 1) rotate(0) translate(4 1033.2)">
<title>comment_stars</title>
<polygon fill="white" stroke="none" points="-4,4 -4,-1033.2 392.16,-1033.2 392.16,4 -4,4"/>
<!-- comment_stars -->
<g id="node1" class="node">
<title>comment_stars</title>
<polygon fill="#efefef" stroke="none" points="46.2,-573.8 46.2,-609.4 293.66,-609.4 293.66,-573.8 46.2,-573.8"/>
<polygon fill="none" stroke="black" points="46.2,-573.8 46.2,-609.4 293.66,-609.4 293.66,-573.8 46.2,-573.8"/>
<text text-anchor="start" x="53.2" y="-587.2" font-family="Arial Bold" font-size="18.00">comment_stars</text>
<text text-anchor="start" x="162.18" y="-587.2" font-family="Arial" font-size="14.00">    </text>
<text text-anchor="start" x="193.29" y="-587.2" font-family="Arial" font-size="14.00" fill="#666666">[BASE TABLE]</text>
<polygon fill="none" stroke="black" points="46.2,-543 46.2,-573.8 293.66,-573.8 293.66,-543 46.2,-543"/>
<text text-anchor="start" x="53.2" y="-555.2" font-family="Arial" font-size="14.00">id </text>
<text text-anchor="start" x="67.99" y="-555.2" font-family="Arial" font-size="14.00" fill="#666666">[bigint]</text>
<polygon fill="none" stroke="black" points="46.2,-512.2 46.2,-543 293.66,-543 293.66,-512.2 46.2,-512.2"/>
<text text-anchor="start" x="53.2" y="-524.4" font-family="Arial" font-size="14.00">user_id </text>
<text text-anchor="start" x="103.01" y="-524.4" font-family="Arial" font-size="14.00" fill="#666666">[int]</text>
<polygon fill="none" stroke="black" points="46.2,-481.4 46.2,-512.2 293.66,-512.2 293.66,-481.4 46.2,-481.4"/>
<text text-anchor="start" x="53.2" y="-493.6" font-family="Arial" font-size="14.00">comment_post_id </text>
<text text-anchor="start" x="167.59" y="-493.6" font-family="Arial" font-size="14.00" fill="#666666">[bigint]</text>
<polygon fill="none" stroke="black" points="46.2,-450.6 46.2,-481.4 293.66,-481.4 293.66,-450.6 46.2,-450.6"/>
<text text-anchor="start" x="53.2" y="-462.8" font-family="Arial" font-size="14.00">comment_user_id </text>
<text text-anchor="start" x="168.37" y="-462.8" font-family="Arial" font-size="14.00" fill="#666666">[int]</text>
<polygon fill="none" stroke="black" points="46.2,-419.8 46.2,-450.6 293.66,-450.6 293.66,-419.8 46.2,-419.8"/>
<text text-anchor="start" x="53.2" y="-432" font-family="Arial" font-size="14.00">created </text>
<text text-anchor="start" x="103.79" y="-432" font-family="Arial" font-size="14.00" fill="#666666">[timestamp]</text>
<polygon fill="none" stroke="black" points="46.2,-389 46.2,-419.8 293.66,-419.8 293.66,-389 46.2,-389"/>
<text text-anchor="start" x="53.2" y="-401.2" font-family="Arial" font-size="14.00">updated </text>
<text text-anchor="start" x="107.7" y="-401.2" font-family="Arial" font-size="14.00" fill="#666666">[timestamp]</text>
<polygon fill="none" stroke="black" stroke-width="3" points="44.7,-387.5 44.7,-610.9 295.16,-610.9 295.16,-387.5 44.7,-387.5"/>
</g>
<!-- users -->
<g id="node3" class="node">
<title>users</title>
<polygon fill="#efefef" stroke="none" points="76.57,-228 76.57,-263.6 263.3,-263.6 263.3,-228 76.57,-228"/>
<polygon fill="none" stroke="black" points="76.57,-228 76.57,-263.6 263.3,-263.6 263.3,-228 76.57,-228"/>
<text text-anchor="start" x="89.19" y="-241.4" font-family="Arial Bold" font-size="18.00">users</text>
<text text-anchor="start" x="126.18" y="-241.4" font-family="Arial" font-size="14.00">    </text>
<text text-anchor="start" x="157.3" y="-241.4" font-family="Arial" font-size="14.00" fill="#666666">[BASE TABLE]</text>
<polygon fill="none" stroke="black" points="76.57,-197.2 76.57,-228 263.3,-228 263.3,-197.2 76.57,-197.2"/>
<text text-anchor="start" x="83.57" y="-209.4" font-family="Arial" font-size="14.00">id    </text>
<text text-anchor="start" x="125.58" y="-209.4" font-family="Arial" font-size="14.00" fill="#666666">[int]</text>
<polygon fill="none" stroke="black" points="76.57,-166.4 76.57,-197.2 263.3,-197.2 263.3,-166.4 76.57,-166.4"/>
<text text-anchor="start" x="83.57" y="-178.6" font-family="Arial" font-size="14.00">username    </text>
<text text-anchor="start" x="176.94" y="-178.6" font-family="Arial" font-size="14.00" fill="#666666">[varchar(50)]</text>
<polygon fill="none" stroke="black" points="76.57,-135.6 76.57,-166.4 263.3,-166.4 263.3,-135.6 76.57,-135.6"/>
<text text-anchor="start" x="83.57" y="-147.8" font-family="Arial" font-size="14.00">password    </text>
<text text-anchor="start" x="174.6" y="-147.8" font-family="Arial" font-size="14.00" fill="#666666">[varchar(50)]</text>
<polygon fill="none" stroke="black" points="76.57,-104.8 76.57,-135.6 263.3,-135.6 263.3,-104.8 76.57,-104.8"/>
<text text-anchor="start" x="83.57" y="-117" font-family="Arial" font-size="14.00">email    </text>
<text text-anchor="start" x="148.14" y="-117" font-family="Arial" font-size="14.00" fill="#666666">[varchar(355)]</text>
<polygon fill="none" stroke="black" points="76.57,-74 76.57,-104.8 263.3,-104.8 263.3,-74 76.57,-74"/>
<text text-anchor="start" x="83.57" y="-86.2" font-family="Arial" font-size="14.00">created    </text>
<text text-anchor="start" x="161.38" y="-86.2" font-family="Arial" font-size="14.00" fill="#666666">[timestamp]</text>
<polygon fill="none" stroke="black" points="76.57,-43.2 76.57,-74 263.3,-74 263.3,-43.2 76.57,-43.2"/>
<text text-anchor="start" x="83.57" y="-55.4" font-family="Arial" font-size="14.00">updated    </text>
<text text-anchor="start" x="165.29" y="-55.4" font-family="Arial" font-size="14.00" fill="#666666">[timestamp]</text>
</g>
<!-- comment_stars&#45;&gt;users -->
<g id="edge2" class="edge">
<title>comment_stars:user_id&#45;&gt;users:id</title>
<path fill="none" stroke="black" stroke-dasharray="5,2" d="M304.61,-525.25C361.8,-496.42 331.05,-212.6 264.3,-212.6"/>
<polygon fill="black" stroke="black" points="304.72,-525.22 293.95,-523.14 299.53,-526.45 295.32,-527.45 295.32,-527.45 295.32,-527.45 299.53,-526.45 296.03,-531.9 304.72,-525.22"/>
<text text-anchor="start" x="301.66" y="-537.6" font-family="Arial" font-size="10.00">Detected Relation</text>
</g>
<!-- logs -->
<g id="node2" class="node">
<title>logs</title>
<polygon fill="#efefef" stroke="none" points="73.06,-950.4 73.06,-986 266.8,-986 266.8,-950.4 73.06,-950.4"/>
<polygon fill="none" stroke="black" points="73.06,-950.4 73.06,-986 266.8,-986 266.8,-950.4 73.06,-950.4"/>
<text text-anchor="start" x="92.68" y="-963.8" font-family="Arial Bold" font-size="18.00">logs</text>
<text text-anchor="start" x="122.69" y="-963.8" font-family="Arial" font-size="14.00">    </text>
<text text-anchor="start" x="153.81" y="-963.8" font-family="Arial" font-size="14.00" fill="#666666">[BASE TABLE]</text>
<polygon fill="none" stroke="black" points="73.06,-919.6 73.06,-950.4 266.8,-950.4 266.8,-919.6 73.06,-919.6"/>
<text text-anchor="start" x="80.06" y="-931.8" font-family="Arial" font-size="14.00">id    </text>
<text text-anchor="start" x="122.07" y="-931.8" font-family="Arial" font-size="14.00" fill="#666666">[bigint]</text>
<polygon fill="none" stroke="black" points="73.06,-888.8 73.06,-919.6 266.8,-919.6 266.8,-888.8 73.06,-888.8"/>
<text text-anchor="start" x="80.06" y="-901" font-family="Arial" font-size="14.00">user_id    </text>
<text text-anchor="start" x="157.09" y="-901" font-family="Arial" font-size="14.00" fill="#666666">[int]</text>
<polygon fill="none" stroke="black" points="73.06,-858 73.06,-888.8 266.8,-888.8 266.8,-858 73.06,-858"/>
<text text-anchor="start" x="80.06" y="-870.2" font-family="Arial" font-size="14.00">post_id    </text>
<text text-anchor="start" x="156.32" y="-870.2" font-family="Arial" font-size="14.00" fill="#666666">[bigint]</text>
<polygon fill="none" stroke="black" points="73.06,-827.2 73.06,-858 266.8,-858 266.8,-827.2 73.06,-827.2"/>
<text text-anchor="start" x="80.06" y="-839.4" font-family="Arial" font-size="14.00">comment_id    </text>
<text text-anchor="start" x="187.43" y="-839.4" font-family="Arial" font-size="14.00" fill="#666666">[bigint]</text>
<polygon fill="none" stroke="black" points="73.06,-796.4 73.06,-827.2 266.8,-827.2 266.8,-796.4 73.06,-796.4"/>
<text text-anchor="start" x="80.06" y="-808.6" font-family="Arial" font-size="14.00">comment_star_id    </text>
<text text-anchor="start" x="218.56" y="-808.6" font-family="Arial" font-size="14.00" fill="#666666">[bigint]</text>
<polygon fill="none" stroke="black" points="73.06,-765.6 73.06,-796.4 266.8,-796.4 266.8,-765.6 73.06,-765.6"/>
<text text-anchor="start" x="80.06" y="-777.8" font-family="Arial" font-size="14.00">payload    </text>
<text text-anchor="start" x="160.22" y="-777.8" font-family="Arial" font-size="14.00" fill="#666666">[text]</text>
<polygon fill="none" stroke="black" points="73.06,-734.8 73.06,-765.6 266.8,-765.6 266.8,-734.8 73.06,-734.8"/>
<text text-anchor="start" x="80.06" y="-747" font-family="Arial" font-size="14.00">created    </text>
<text text-anchor="start" x="157.87" y="-747" font-family="Arial" font-size="14.00" fill="#666666">[datetime]</text>
</g>
<!-- logs&#45;&gt;comment_stars -->
<g id="edge1" class="edge">
<title>logs:comment_star_id&#45;&gt;comment_stars:id</title>
<path fill="none" stroke="black" stroke-dasharray="5,2" d="M278.17,-811.07C382.6,-796.21 404.38,-558.4 294.66,-558.4"/>
<polygon fill="black" stroke="black" points="278.11,-811.08 267.82,-807.29 272.79,-811.45 268.47,-811.75 268.47,-811.75 268.47,-811.75 272.79,-811.45 268.45,-816.27 278.11,-811.08"/>
<text text-anchor="start" x="274.8" y="-821.8" font-family="Arial" font-size="10.00">Detected Relation</text>
</g>
</g>
</svg>
