<?xml version="1.0" encoding="UTF-8" standalone="no"?>
<!DOCTYPE svg PUBLIC "-//W3C//DTD SVG 1.1//EN"
 "http://www.w3.org/Graphics/SVG/1.1/DTD/svg11.dtd">
<!-- Generated by graphviz version 2.40.1 (20161225.0304)
 -->
<!-- Title: comments Pages: 1 -->
<svg width="620pt" height="1049pt"
 viewBox="0.00 0.00 620.00 1049.00" xmlns="http://www.w3.org/2000/svg" xmlns:xlink="http://www.w3.org/1999/xlink">
<g id="graph0" class="graph" transform="scale(1 1) rotate(0) translate(4 1045)">
<title>comments</title>
<polygon fill="#ffffff" stroke="transparent" points="-4,4 -4,-1045 616,-1045 616,4 -4,4"/>
<!-- comments -->
<g id="node1" class="node">
<title>comments</title>
<polygon fill="#efefef" stroke="transparent" points="235.5,-592.5 235.5,-627.5 429.5,-627.5 429.5,-592.5 235.5,-592.5"/>
<polygon fill="none" stroke="#000000" points="235.5,-592.5 235.5,-627.5 429.5,-627.5 429.5,-592.5 235.5,-592.5"/>
<text text-anchor="start" x="242.3705" y="-605.3" font-family="Arial Bold" font-size="18.00" fill="#000000">comments</text>
<text text-anchor="start" x="325.3757" y="-605.3" font-family="Arial" font-size="14.00" fill="#000000"> </text>
<text text-anchor="start" x="329.2663" y="-605.3" font-family="Arial" font-size="14.00" fill="#666666">[BASE TABLE]</text>
<polygon fill="none" stroke="#000000" points="235.5,-562.5 235.5,-592.5 429.5,-592.5 429.5,-562.5 235.5,-562.5"/>
<text text-anchor="start" x="242.5" y="-573.9" font-family="Arial" font-size="14.00" fill="#000000">id </text>
<text text-anchor="start" x="257.2798" y="-573.9" font-family="Arial" font-size="14.00" fill="#666666">[bigint]</text>
<polygon fill="none" stroke="#000000" points="235.5,-532.5 235.5,-562.5 429.5,-562.5 429.5,-532.5 235.5,-532.5"/>
<text text-anchor="start" x="242.5" y="-543.9" font-family="Arial" font-size="14.00" fill="#000000">post_id </text>
<text text-anchor="start" x="291.5182" y="-543.9" font-family="Arial" font-size="14.00" fill="#666666">[bigint]</text>
<polygon fill="none" stroke="#000000" points="235.5,-502.5 235.5,-532.5 429.5,-532.5 429.5,-502.5 235.5,-502.5"/>
<text text-anchor="start" x="242.5" y="-513.9" font-family="Arial" font-size="14.00" fill="#000000">user_id </text>
<text text-anchor="start" x="292.2882" y="-513.9" font-family="Arial" font-size="14.00" fill="#666666">[int]</text>
<polygon fill="none" stroke="#000000" points="235.5,-472.5 235.5,-502.5 429.5,-502.5 429.5,-472.5 235.5,-472.5"/>
<text text-anchor="start" x="242.5" y="-483.9" font-family="Arial" font-size="14.00" fill="#000000">comment </text>
<text text-anchor="start" x="303.9502" y="-483.9" font-family="Arial" font-size="14.00" fill="#666666">[text]</text>
<polygon fill="none" stroke="#000000" points="235.5,-442.5 235.5,-472.5 429.5,-472.5 429.5,-442.5 235.5,-442.5"/>
<text text-anchor="start" x="242.5" y="-453.9" font-family="Arial" font-size="14.00" fill="#000000">created </text>
<text text-anchor="start" x="293.0722" y="-453.9" font-family="Arial" font-size="14.00" fill="#666666">[datetime]</text>
<polygon fill="none" stroke="#000000" points="235.5,-412.5 235.5,-442.5 429.5,-442.5 429.5,-412.5 235.5,-412.5"/>
<text text-anchor="start" x="242.5" y="-423.9" font-family="Arial" font-size="14.00" fill="#000000">updated </text>
<text text-anchor="start" x="296.9768" y="-423.9" font-family="Arial" font-size="14.00" fill="#666666">[datetime]</text>
<polygon fill="none" stroke="#000000" stroke-width="3" points="234,-411.5 234,-629.5 431,-629.5 431,-411.5 234,-411.5"/>
</g>
<!-- posts -->
<g id="node3" class="node">
<title>posts</title>
<polygon fill="#efefef" stroke="transparent" points="43.5,-252.5 43.5,-287.5 306.5,-287.5 306.5,-252.5 43.5,-252.5"/>
<polygon fill="none" stroke="#000000" points="43.5,-252.5 43.5,-287.5 306.5,-287.5 306.5,-252.5 43.5,-252.5"/>
<text text-anchor="start" x="104.8658" y="-265.3" font-family="Arial Bold" font-size="18.00" fill="#000000">posts</text>
<text text-anchor="start" x="147.8804" y="-265.3" font-family="Arial" font-size="14.00" fill="#000000"> </text>
<text text-anchor="start" x="151.771" y="-265.3" font-family="Arial" font-size="14.00" fill="#666666">[BASE TABLE]</text>
<polygon fill="none" stroke="#000000" points="43.5,-222.5 43.5,-252.5 306.5,-252.5 306.5,-222.5 43.5,-222.5"/>
<text text-anchor="start" x="50.5" y="-233.9" font-family="Arial" font-size="14.00" fill="#000000">id </text>
<text text-anchor="start" x="65.2798" y="-233.9" font-family="Arial" font-size="14.00" fill="#666666">[bigint]</text>
<polygon fill="none" stroke="#000000" points="43.5,-192.5 43.5,-222.5 306.5,-222.5 306.5,-192.5 43.5,-192.5"/>
<text text-anchor="start" x="50.5" y="-203.9" font-family="Arial" font-size="14.00" fill="#000000">user_id </text>
<text text-anchor="start" x="100.2882" y="-203.9" font-family="Arial" font-size="14.00" fill="#666666">[int]</text>
<polygon fill="none" stroke="#000000" points="43.5,-162.5 43.5,-192.5 306.5,-192.5 306.5,-162.5 43.5,-162.5"/>
<text text-anchor="start" x="50.5" y="-173.9" font-family="Arial" font-size="14.00" fill="#000000">title </text>
<text text-anchor="start" x="76.1676" y="-173.9" font-family="Arial" font-size="14.00" fill="#666666">[varchar(255)]</text>
<polygon fill="none" stroke="#000000" points="43.5,-132.5 43.5,-162.5 306.5,-162.5 306.5,-132.5 43.5,-132.5"/>
<text text-anchor="start" x="50.5" y="-143.9" font-family="Arial" font-size="14.00" fill="#000000">body </text>
<text text-anchor="start" x="84.7384" y="-143.9" font-family="Arial" font-size="14.00" fill="#666666">[text]</text>
<polygon fill="none" stroke="#000000" points="43.5,-102.5 43.5,-132.5 306.5,-132.5 306.5,-102.5 43.5,-102.5"/>
<text text-anchor="start" x="50.197" y="-113.9" font-family="Arial" font-size="14.00" fill="#000000">post_type </text>
<text text-anchor="start" x="114.7818" y="-113.9" font-family="Arial" font-size="14.00" fill="#666666">[enum(&#39;public&#39;,&#39;private&#39;,&#39;draft&#39;)]</text>
<polygon fill="none" stroke="#000000" points="43.5,-72.5 43.5,-102.5 306.5,-102.5 306.5,-72.5 43.5,-72.5"/>
<text text-anchor="start" x="50.5" y="-83.9" font-family="Arial" font-size="14.00" fill="#000000">created </text>
<text text-anchor="start" x="101.0722" y="-83.9" font-family="Arial" font-size="14.00" fill="#666666">[datetime]</text>
<polygon fill="none" stroke="#000000" points="43.5,-42.5 43.5,-72.5 306.5,-72.5 306.5,-42.5 43.5,-42.5"/>
<text text-anchor="start" x="50.5" y="-53.9" font-family="Arial" font-size="14.00" fill="#000000">updated </text>
<text text-anchor="start" x="104.9768" y="-53.9" font-family="Arial" font-size="14.00" fill="#666666">[datetime]</text>
</g>
<!-- comments&#45;&gt;posts -->
<g id="edge2" class="edge">
<title>comments:post_id&#45;&gt;posts:id</title>
<path fill="none" stroke="#000000" stroke-dasharray="5,2" d="M225.3956,-546.8352C158.7208,-537.5132 195.4025,-432.2885 235.5,-367 254.0158,-336.8517 287.9842,-361.1483 306.5,-331 328.2477,-295.5895 348.0556,-237.5 306.5,-237.5"/>
<polygon fill="#000000" stroke="#000000" points="225.5216,-546.8434 235.2045,-551.9903 230.5108,-547.1717 235.5,-547.5 235.5,-547.5 235.5,-547.5 230.5108,-547.1717 235.7955,-543.0097 225.5216,-546.8434 225.5216,-546.8434"/>
<text text-anchor="start" x="149.768" y="-557.5" font-family="Arial" font-size="10.00" fill="#000000">Detected Relation</text>
</g>
<!-- users -->
<g id="node4" class="node">
<title>users</title>
<polygon fill="#efefef" stroke="transparent" points="410.5,-237.5 410.5,-272.5 569.5,-272.5 569.5,-237.5 410.5,-237.5"/>
<polygon fill="none" stroke="#000000" points="410.5,-237.5 410.5,-272.5 569.5,-272.5 569.5,-237.5 410.5,-237.5"/>
<text text-anchor="start" x="419.3708" y="-250.3" font-family="Arial Bold" font-size="18.00" fill="#000000">users</text>
<text text-anchor="start" x="463.3754" y="-250.3" font-family="Arial" font-size="14.00" fill="#000000"> </text>
<text text-anchor="start" x="467.266" y="-250.3" font-family="Arial" font-size="14.00" fill="#666666">[BASE TABLE]</text>
<polygon fill="none" stroke="#000000" points="410.5,-207.5 410.5,-237.5 569.5,-237.5 569.5,-207.5 410.5,-207.5"/>
<text text-anchor="start" x="417.5" y="-218.9" font-family="Arial" font-size="14.00" fill="#000000">id </text>
<text text-anchor="start" x="432.2798" y="-218.9" font-family="Arial" font-size="14.00" fill="#666666">[int]</text>
<polygon fill="none" stroke="#000000" points="410.5,-177.5 410.5,-207.5 569.5,-207.5 569.5,-177.5 410.5,-177.5"/>
<text text-anchor="start" x="417.2693" y="-188.9" font-family="Arial" font-size="14.00" fill="#000000">username </text>
<text text-anchor="start" x="483.3941" y="-188.9" font-family="Arial" font-size="14.00" fill="#666666">[varchar(50)]</text>
<polygon fill="none" stroke="#000000" points="410.5,-147.5 410.5,-177.5 569.5,-177.5 569.5,-147.5 410.5,-147.5"/>
<text text-anchor="start" x="417.5" y="-158.9" font-family="Arial" font-size="14.00" fill="#000000">password </text>
<text text-anchor="start" x="481.2882" y="-158.9" font-family="Arial" font-size="14.00" fill="#666666">[varchar(50)]</text>
<polygon fill="none" stroke="#000000" points="410.5,-117.5 410.5,-147.5 569.5,-147.5 569.5,-117.5 410.5,-117.5"/>
<text text-anchor="start" x="417.5" y="-128.9" font-family="Arial" font-size="14.00" fill="#000000">email </text>
<text text-anchor="start" x="454.8296" y="-128.9" font-family="Arial" font-size="14.00" fill="#666666">[varchar(355)]</text>
<polygon fill="none" stroke="#000000" points="410.5,-87.5 410.5,-117.5 569.5,-117.5 569.5,-87.5 410.5,-87.5"/>
<text text-anchor="start" x="417.5" y="-98.9" font-family="Arial" font-size="14.00" fill="#000000">created </text>
<text text-anchor="start" x="468.0722" y="-98.9" font-family="Arial" font-size="14.00" fill="#666666">[timestamp]</text>
<polygon fill="none" stroke="#000000" points="410.5,-57.5 410.5,-87.5 569.5,-87.5 569.5,-57.5 410.5,-57.5"/>
<text text-anchor="start" x="417.5" y="-68.9" font-family="Arial" font-size="14.00" fill="#000000">updated </text>
<text text-anchor="start" x="471.9768" y="-68.9" font-family="Arial" font-size="14.00" fill="#666666">[timestamp]</text>
</g>
<!-- comments&#45;&gt;users -->
<g id="edge3" class="edge">
<title>comments:user_id&#45;&gt;users:id</title>
<path fill="none" stroke="#000000" stroke-dasharray="5,2" d="M439.7225,-516.7039C490.2941,-507.9687 440.6919,-429.0998 429.5,-367 425.2098,-343.195 414.7902,-339.805 410.5,-316 403.1294,-275.1033 368.9444,-222.5 410.5,-222.5"/>
<polygon fill="#000000" stroke="#000000" points="439.4698,-516.7235 429.1506,-513.0136 434.4849,-517.1117 429.5,-517.5 429.5,-517.5 429.5,-517.5 434.4849,-517.1117 429.8494,-521.9864 439.4698,-516.7235 439.4698,-516.7235"/>
<text text-anchor="start" x="436.768" y="-527.5" font-family="Arial" font-size="10.00" fill="#000000">Detected Relation</text>
</g>
<!-- logs -->
<g id="node2" class="node">
<title>logs</title>
<polygon fill="#efefef" stroke="transparent" points="249.5,-962.5 249.5,-997.5 415.5,-997.5 415.5,-962.5 249.5,-962.5"/>
<polygon fill="none" stroke="#000000" points="249.5,-962.5 249.5,-997.5 415.5,-997.5 415.5,-962.5 249.5,-962.5"/>
<text text-anchor="start" x="267.3698" y="-975.3" font-family="Arial Bold" font-size="18.00" fill="#000000">logs</text>
<text text-anchor="start" x="300.3764" y="-975.3" font-family="Arial" font-size="14.00" fill="#000000"> </text>
<text text-anchor="start" x="304.267" y="-975.3" font-family="Arial" font-size="14.00" fill="#666666">[BASE TABLE]</text>
<polygon fill="none" stroke="#000000" points="249.5,-932.5 249.5,-962.5 415.5,-962.5 415.5,-932.5 249.5,-932.5"/>
<text text-anchor="start" x="256.5" y="-943.9" font-family="Arial" font-size="14.00" fill="#000000">id </text>
<text text-anchor="start" x="271.2798" y="-943.9" font-family="Arial" font-size="14.00" fill="#666666">[bigint]</text>
<polygon fill="none" stroke="#000000" points="249.5,-902.5 249.5,-932.5 415.5,-932.5 415.5,-902.5 249.5,-902.5"/>
<text text-anchor="start" x="256.5" y="-913.9" font-family="Arial" font-size="14.00" fill="#000000">user_id </text>
<text text-anchor="start" x="306.2882" y="-913.9" font-family="Arial" font-size="14.00" fill="#666666">[int]</text>
<polygon fill="none" stroke="#000000" points="249.5,-872.5 249.5,-902.5 415.5,-902.5 415.5,-872.5 249.5,-872.5"/>
<text text-anchor="start" x="256.5" y="-883.9" font-family="Arial" font-size="14.00" fill="#000000">post_id </text>
<text text-anchor="start" x="305.5182" y="-883.9" font-family="Arial" font-size="14.00" fill="#666666">[bigint]</text>
<polygon fill="none" stroke="#000000" points="249.5,-842.5 249.5,-872.5 415.5,-872.5 415.5,-842.5 249.5,-842.5"/>
<text text-anchor="start" x="256.5" y="-853.9" font-family="Arial" font-size="14.00" fill="#000000">comment_id </text>
<text text-anchor="start" x="336.622" y="-853.9" font-family="Arial" font-size="14.00" fill="#666666">[bigint]</text>
<polygon fill="none" stroke="#000000" points="249.5,-812.5 249.5,-842.5 415.5,-842.5 415.5,-812.5 249.5,-812.5"/>
<text text-anchor="start" x="256.2644" y="-823.9" font-family="Arial" font-size="14.00" fill="#000000">comment_star_id </text>
<text text-anchor="start" x="367.5028" y="-823.9" font-family="Arial" font-size="14.00" fill="#666666">[bigint]</text>
<polygon fill="none" stroke="#000000" points="249.5,-782.5 249.5,-812.5 415.5,-812.5 415.5,-782.5 249.5,-782.5"/>
<text text-anchor="start" x="256.5" y="-793.9" font-family="Arial" font-size="14.00" fill="#000000">payload </text>
<text text-anchor="start" x="309.4102" y="-793.9" font-family="Arial" font-size="14.00" fill="#666666">[text]</text>
<polygon fill="none" stroke="#000000" points="249.5,-752.5 249.5,-782.5 415.5,-782.5 415.5,-752.5 249.5,-752.5"/>
<text text-anchor="start" x="256.5" y="-763.9" font-family="Arial" font-size="14.00" fill="#000000">created </text>
<text text-anchor="start" x="307.0722" y="-763.9" font-family="Arial" font-size="14.00" fill="#666666">[datetime]</text>
</g>
<!-- logs&#45;&gt;comments -->
<g id="edge1" class="edge">
<title>logs:comment_id&#45;&gt;comments:id</title>
<path fill="none" stroke="#000000" stroke-dasharray="5,2" d="M425.8194,-856.839C540.7817,-841.8652 550.5712,-577.5 429.5,-577.5"/>
<polygon fill="#000000" stroke="#000000" points="425.4795,-856.8607 415.2123,-853.0092 420.4898,-857.1803 415.5,-857.5 415.5,-857.5 415.5,-857.5 420.4898,-857.1803 415.7877,-861.9908 425.4795,-856.8607 425.4795,-856.8607"/>
<text text-anchor="start" x="422.768" y="-867.5" font-family="Arial" font-size="10.00" fill="#000000">Detected Relation</text>
</g>
</g>
</svg>
