<?xml version="1.0" encoding="UTF-8" standalone="no"?>
<!DOCTYPE svg PUBLIC "-//W3C//DTD SVG 1.1//EN"
 "http://www.w3.org/Graphics/SVG/1.1/DTD/svg11.dtd">
<!-- Generated by graphviz version 2.40.1 (20161225.0304)
 -->
<!-- Title: comment_stars Pages: 1 -->
<svg width="434pt" height="1019pt"
 viewBox="0.00 0.00 434.45 1019.00" xmlns="http://www.w3.org/2000/svg" xmlns:xlink="http://www.w3.org/1999/xlink">
<g id="graph0" class="graph" transform="scale(1 1) rotate(0) translate(4 1015)">
<title>comment_stars</title>
<polygon fill="#ffffff" stroke="transparent" points="-4,4 -4,-1015 430.4472,-1015 430.4472,4 -4,4"/>
<!-- comment_stars -->
<g id="node1" class="node">
<title>comment_stars</title>
<polygon fill="#efefef" stroke="transparent" points="93,-562.5 93,-597.5 357,-597.5 357,-562.5 93,-562.5"/>
<polygon fill="none" stroke="#000000" points="93,-562.5 93,-597.5 357,-597.5 357,-562.5 93,-562.5"/>
<text text-anchor="start" x="99.71" y="-575.3" font-family="Arial Bold" font-size="18.00" fill="#000000">comment_stars</text>
<text text-anchor="start" x="222.722" y="-575.3" font-family="Arial" font-size="14.00" fill="#000000">    </text>
<text text-anchor="start" x="256.9268" y="-575.3" font-family="Arial" font-size="14.00" fill="#666666">[BASE TABLE]</text>
<polygon fill="none" stroke="#000000" points="93,-532.5 93,-562.5 357,-562.5 357,-532.5 93,-532.5"/>
<text text-anchor="start" x="100" y="-543.9" font-family="Arial" font-size="14.00" fill="#000000">id </text>
<text text-anchor="start" x="114.7798" y="-543.9" font-family="Arial" font-size="14.00" fill="#666666">[bigint]</text>
<polygon fill="none" stroke="#000000" points="93,-502.5 93,-532.5 357,-532.5 357,-502.5 93,-502.5"/>
<text text-anchor="start" x="100" y="-513.9" font-family="Arial" font-size="14.00" fill="#000000">user_id </text>
<text text-anchor="start" x="149.7882" y="-513.9" font-family="Arial" font-size="14.00" fill="#666666">[int]</text>
<polygon fill="none" stroke="#000000" points="93,-472.5 93,-502.5 357,-502.5 357,-472.5 93,-472.5"/>
<text text-anchor="start" x="100" y="-483.9" font-family="Arial" font-size="14.00" fill="#000000">comment_post_id </text>
<text text-anchor="start" x="214.3604" y="-483.9" font-family="Arial" font-size="14.00" fill="#666666">[bigint]</text>
<polygon fill="none" stroke="#000000" points="93,-442.5 93,-472.5 357,-472.5 357,-442.5 93,-442.5"/>
<text text-anchor="start" x="100" y="-453.9" font-family="Arial" font-size="14.00" fill="#000000">comment_user_id </text>
<text text-anchor="start" x="215.1304" y="-453.9" font-family="Arial" font-size="14.00" fill="#666666">[int]</text>
<polygon fill="none" stroke="#000000" points="93,-412.5 93,-442.5 357,-442.5 357,-412.5 93,-412.5"/>
<text text-anchor="start" x="100" y="-423.9" font-family="Arial" font-size="14.00" fill="#000000">created </text>
<text text-anchor="start" x="150.5722" y="-423.9" font-family="Arial" font-size="14.00" fill="#666666">[timestamp]</text>
<polygon fill="none" stroke="#000000" points="93,-382.5 93,-412.5 357,-412.5 357,-382.5 93,-382.5"/>
<text text-anchor="start" x="100" y="-393.9" font-family="Arial" font-size="14.00" fill="#000000">updated </text>
<text text-anchor="start" x="154.4768" y="-393.9" font-family="Arial" font-size="14.00" fill="#666666">[timestamp]</text>
<polygon fill="none" stroke="#000000" stroke-width="3" points="91.5,-381.5 91.5,-599.5 358.5,-599.5 358.5,-381.5 91.5,-381.5"/>
</g>
<!-- users -->
<g id="node3" class="node">
<title>users</title>
<polygon fill="#efefef" stroke="transparent" points="130,-222.5 130,-257.5 319,-257.5 319,-222.5 130,-222.5"/>
<polygon fill="none" stroke="#000000" points="130,-222.5 130,-257.5 319,-257.5 319,-222.5 130,-222.5"/>
<text text-anchor="start" x="138.7137" y="-235.3" font-family="Arial Bold" font-size="18.00" fill="#000000">users</text>
<text text-anchor="start" x="182.7183" y="-235.3" font-family="Arial" font-size="14.00" fill="#000000">    </text>
<text text-anchor="start" x="216.9231" y="-235.3" font-family="Arial" font-size="14.00" fill="#666666">[BASE TABLE]</text>
<polygon fill="none" stroke="#000000" points="130,-192.5 130,-222.5 319,-222.5 319,-192.5 130,-192.5"/>
<text text-anchor="start" x="137" y="-203.9" font-family="Arial" font-size="14.00" fill="#000000">id    </text>
<text text-anchor="start" x="182.094" y="-203.9" font-family="Arial" font-size="14.00" fill="#666666">[int]</text>
<polygon fill="none" stroke="#000000" points="130,-162.5 130,-192.5 319,-192.5 319,-162.5 130,-162.5"/>
<text text-anchor="start" x="136.6122" y="-173.9" font-family="Arial" font-size="14.00" fill="#000000">username    </text>
<text text-anchor="start" x="233.0512" y="-173.9" font-family="Arial" font-size="14.00" fill="#666666">[varchar(50)]</text>
<polygon fill="none" stroke="#000000" points="130,-132.5 130,-162.5 319,-162.5 319,-132.5 130,-132.5"/>
<text text-anchor="start" x="137" y="-143.9" font-family="Arial" font-size="14.00" fill="#000000">password    </text>
<text text-anchor="start" x="231.1024" y="-143.9" font-family="Arial" font-size="14.00" fill="#666666">[varchar(50)]</text>
<polygon fill="none" stroke="#000000" points="130,-102.5 130,-132.5 319,-132.5 319,-102.5 130,-102.5"/>
<text text-anchor="start" x="137" y="-113.9" font-family="Arial" font-size="14.00" fill="#000000">email    </text>
<text text-anchor="start" x="204.6438" y="-113.9" font-family="Arial" font-size="14.00" fill="#666666">[varchar(355)]</text>
<polygon fill="none" stroke="#000000" points="130,-72.5 130,-102.5 319,-102.5 319,-72.5 130,-72.5"/>
<text text-anchor="start" x="137" y="-83.9" font-family="Arial" font-size="14.00" fill="#000000">created    </text>
<text text-anchor="start" x="217.8864" y="-83.9" font-family="Arial" font-size="14.00" fill="#666666">[timestamp]</text>
<polygon fill="none" stroke="#000000" points="130,-42.5 130,-72.5 319,-72.5 319,-42.5 130,-42.5"/>
<text text-anchor="start" x="137" y="-53.9" font-family="Arial" font-size="14.00" fill="#000000">updated    </text>
<text text-anchor="start" x="221.791" y="-53.9" font-family="Arial" font-size="14.00" fill="#666666">[timestamp]</text>
</g>
<!-- comment_stars&#45;&gt;users -->
<g id="edge2" class="edge">
<title>comment_stars:user_id&#45;&gt;users:id</title>
<path fill="none" stroke="#000000" stroke-dasharray="5,2" d="M82.8372,-516.7928C15.3551,-506.8838 43.2661,-395.2832 93,-337 159.0216,-259.6293 252.9784,-378.3707 319,-301 345.9742,-269.389 360.5556,-207.5 319,-207.5"/>
<polygon fill="#000000" stroke="#000000" points="83.0241,-516.8057 92.6876,-521.9891 88.0121,-517.1529 93,-517.5 93,-517.5 93,-517.5 88.0121,-517.1529 93.3124,-513.0109 83.0241,-516.8057 83.0241,-516.8057"/>
<text text-anchor="start" x="7.268" y="-527.5" font-family="Arial" font-size="10.00" fill="#000000">Detected Relation</text>
</g>
<!-- logs -->
<g id="node2" class="node">
<title>logs</title>
<polygon fill="#efefef" stroke="transparent" points="127,-932.5 127,-967.5 323,-967.5 323,-932.5 127,-932.5"/>
<polygon fill="none" stroke="#000000" points="127,-932.5 127,-967.5 323,-967.5 323,-932.5 127,-932.5"/>
<text text-anchor="start" x="144.7127" y="-945.3" font-family="Arial Bold" font-size="18.00" fill="#000000">logs</text>
<text text-anchor="start" x="177.7193" y="-945.3" font-family="Arial" font-size="14.00" fill="#000000">    </text>
<text text-anchor="start" x="211.9241" y="-945.3" font-family="Arial" font-size="14.00" fill="#666666">[BASE TABLE]</text>
<polygon fill="none" stroke="#000000" points="127,-902.5 127,-932.5 323,-932.5 323,-902.5 127,-902.5"/>
<text text-anchor="start" x="134" y="-913.9" font-family="Arial" font-size="14.00" fill="#000000">id    </text>
<text text-anchor="start" x="179.094" y="-913.9" font-family="Arial" font-size="14.00" fill="#666666">[bigint]</text>
<polygon fill="none" stroke="#000000" points="127,-872.5 127,-902.5 323,-902.5 323,-872.5 127,-872.5"/>
<text text-anchor="start" x="134" y="-883.9" font-family="Arial" font-size="14.00" fill="#000000">user_id    </text>
<text text-anchor="start" x="214.1024" y="-883.9" font-family="Arial" font-size="14.00" fill="#666666">[int]</text>
<polygon fill="none" stroke="#000000" points="127,-842.5 127,-872.5 323,-872.5 323,-842.5 127,-842.5"/>
<text text-anchor="start" x="134" y="-853.9" font-family="Arial" font-size="14.00" fill="#000000">post_id    </text>
<text text-anchor="start" x="213.3324" y="-853.9" font-family="Arial" font-size="14.00" fill="#666666">[bigint]</text>
<polygon fill="none" stroke="#000000" points="127,-812.5 127,-842.5 323,-842.5 323,-812.5 127,-812.5"/>
<text text-anchor="start" x="134" y="-823.9" font-family="Arial" font-size="14.00" fill="#000000">comment_id    </text>
<text text-anchor="start" x="244.4362" y="-823.9" font-family="Arial" font-size="14.00" fill="#666666">[bigint]</text>
<polygon fill="none" stroke="#000000" points="127,-782.5 127,-812.5 323,-812.5 323,-782.5 127,-782.5"/>
<text text-anchor="start" x="133.6073" y="-793.9" font-family="Arial" font-size="14.00" fill="#000000">comment_star_id    </text>
<text text-anchor="start" x="275.1599" y="-793.9" font-family="Arial" font-size="14.00" fill="#666666">[bigint]</text>
<polygon fill="none" stroke="#000000" points="127,-752.5 127,-782.5 323,-782.5 323,-752.5 127,-752.5"/>
<text text-anchor="start" x="134" y="-763.9" font-family="Arial" font-size="14.00" fill="#000000">payload    </text>
<text text-anchor="start" x="217.2244" y="-763.9" font-family="Arial" font-size="14.00" fill="#666666">[text]</text>
<polygon fill="none" stroke="#000000" points="127,-722.5 127,-752.5 323,-752.5 323,-722.5 127,-722.5"/>
<text text-anchor="start" x="134" y="-733.9" font-family="Arial" font-size="14.00" fill="#000000">created    </text>
<text text-anchor="start" x="214.8864" y="-733.9" font-family="Arial" font-size="14.00" fill="#666666">[datetime]</text>
</g>
<!-- logs&#45;&gt;comment_stars -->
<g id="edge1" class="edge">
<title>logs:comment_star_id&#45;&gt;comment_stars:id</title>
<path fill="none" stroke="#000000" stroke-dasharray="5,2" d="M333.2816,-796.7828C437.1162,-782.1191 465.6298,-547.5 357,-547.5"/>
<polygon fill="#000000" stroke="#000000" points="332.9758,-796.8041 322.6868,-793.0109 327.9879,-797.152 323,-797.5 323,-797.5 323,-797.5 327.9879,-797.152 323.3132,-801.9891 332.9758,-796.8041 332.9758,-796.8041"/>
<text text-anchor="start" x="330.268" y="-807.5" font-family="Arial" font-size="10.00" fill="#000000">Detected Relation</text>
</g>
</g>
</svg>
