<?xml version="1.0" encoding="UTF-8" standalone="no"?>
<!DOCTYPE svg PUBLIC "-//W3C//DTD SVG 1.1//EN"
 "http://www.w3.org/Graphics/SVG/1.1/DTD/svg11.dtd">
<!-- Generated by graphviz version 12.1.2 (20240928.0832)
 -->
<!-- Title: comment_stars Pages: 1 -->
<svg width="396pt" height="1037pt"
 viewBox="0.00 0.00 396.16 1037.20" xmlns="http://www.w3.org/2000/svg" xmlns:xlink="http://www.w3.org/1999/xlink">
<g id="graph0" class="graph" transform="scale(1 1) rotate(0) translate(4 1033.2)">
<title>comment_stars</title>
<polygon fill="white" stroke="none" points="-4,4 -4,-1033.2 392.16,-1033.2 392.16,4 -4,4"/>
<!-- comment_stars -->
<g id="node1" class="node">
<title>comment_stars</title>
<polygon fill="#efefef" stroke="none" points="46.2,-573.8 46.2,-609.4 293.66,-609.4 293.66,-573.8 46.2,-573.8"/>
<polygon fill="none" stroke="black" points="46.2,-573.8 46.2,-609.4 293.66,-609.4 293.66,-573.8 46.2,-573.8"/>
<text text-anchor="start" x="53.2" y="-587.2" font-family="Arial Bold" font-size="18.00">comment_stars</text>
<text text-anchor="start" x="162.18" y="-587.2" font-family="Arial" font-size="14.00">    </text>
<text text-anchor="start" x="193.29" y="-587.2" font-family="Arial" font-size="14.00" fill="#666666">[BASE TABLE]</text>
<polygon fill="none" stroke="black" points="46.2,-543 46.2,-573.8 293.66,-573.8 293.66,-543 46.2,-543"/>
<text text-anchor="start" x="53.2" y="-555.2" font-family="Arial" font-size="14.00">id </text>
<text text-anchor="start" x="67.99" y="-555.2" font-family="Arial" font-size="14.00" fill="#666666">[bigint]</text>
<polygon fill="none" stroke="black" points="46.2,-512.2 46.2,-543 293.66,-543 293.66,-512.2 46.2,-512.2"/>
<text text-anchor="start" x="53.2" y="-524.4" font-family="Arial" font-size="14.00">user_id </text>
<text text-anchor="start" x="103.01" y="-524.4" font-family="Arial" font-size="14.00" fill="#666666">[int]</text>
<polygon fill="none" stroke="black" points="46.2,-481.4 46.2,-512.2 293.66,-512.2 293.66,-481.4 46.2,-481.4"/>
<text text-anchor="start" x="53.2" y="-493.6" font-family="Arial" font-size="14.00">comment_post_id </text>
<text text-anchor="start" x="167.59" y="-493.6" font-family="Arial" font-size="14.00" fill="#666666">[bigint]</text>
<polygon fill="none" stroke="black" points="46.2,-450.6 46.2,-481.4 293.66,-481.4 293.66,-450.6 46.2,-450.6"/>
<text text-anchor="start" x="53.2" y="-462.8" font-family="Arial" font-size="14.00">comment_user_id </text>
<text text-anchor="start" x="168.37" y="-462.8" font-family="Arial" font-size="14.00" fill="#666666">[int]</text>
<polygon fill="none" stroke="black" points="46.2,-419.8 46.2,-450.6 293.66,-450.6 293.66,-419.8 46.2,-419.8"/>
<text text-anchor="start" x="53.2" y="-432" font-family="Arial" font-size="14.00">created </text>
<text text-anchor="start" x="103.79" y="-432" font-family="Arial" font-size="14.00" fill="#666666">[timestamp]</text>
<polygon fill="none" stroke="black" points="46.2,-389 46.2,-419.8 293.66,-419.8 293.66,-389 46.2,-389"/>
<text text-anchor="start" x="53.2" y="-401.2" font-family="Arial" font-size="14.00">updated </text>
<text text-anchor="start" x="107.7" y="-401.2" font-family="Arial" font-size="14.00" fill="#666666">[timestamp]</text>
<polygon fill="none" stroke="black" stroke-width="3" points="44.7,-387.5 44.7,-610.9 295.16,-610.9 295.16,-387.5 44.7,-387.5"/>
</g>
<!-- users -->
<g id="node3" class="node">
<title>users</title>
<polygon fill="#efefef" stroke="none" points="82.19,-228 82.19,-263.6 257.67,-263.6 257.67,-228 82.19,-228"/>
<polygon fill="none" stroke="black" points="82.19,-228 82.19,-263.6 257.67,-263.6 257.67,-228 82.19,-228"/>
<text text-anchor="start" x="89.19" y="-241.4" font-family="Arial Bold" font-size="18.00">users</text>
<text text-anchor="start" x="126.18" y="-241.4" font-family="Arial" font-size="14.00">    </text>
<text text-anchor="start" x="157.3" y="-241.4" font-family="Arial" font-size="14.00" fill="#666666">[BASE TABLE]</text>
<polygon fill="none" stroke="black" points="82.19,-197.2 82.19,-228 257.67,-228 257.67,-197.2 82.19,-197.2"/>
<text text-anchor="start" x="89.19" y="-209.4" font-family="Arial" font-size="14.00">id </text>
<text text-anchor="start" x="103.98" y="-209.4" font-family="Arial" font-size="14.00" fill="#666666">[int]</text>
<polygon fill="none" stroke="black" points="82.19,-166.4 82.19,-197.2 257.67,-197.2 257.67,-166.4 82.19,-166.4"/>
<text text-anchor="start" x="89.19" y="-178.6" font-family="Arial" font-size="14.00">username </text>
<text text-anchor="start" x="155.34" y="-178.6" font-family="Arial" font-size="14.00" fill="#666666">[varchar(50)]</text>
<polygon fill="none" stroke="black" points="82.19,-135.6 82.19,-166.4 257.67,-166.4 257.67,-135.6 82.19,-135.6"/>
<text text-anchor="start" x="89.19" y="-147.8" font-family="Arial" font-size="14.00">password </text>
<text text-anchor="start" x="153" y="-147.8" font-family="Arial" font-size="14.00" fill="#666666">[varchar(50)]</text>
<polygon fill="none" stroke="black" points="82.19,-104.8 82.19,-135.6 257.67,-135.6 257.67,-104.8 82.19,-104.8"/>
<text text-anchor="start" x="89.19" y="-117" font-family="Arial" font-size="14.00">email </text>
<text text-anchor="start" x="126.54" y="-117" font-family="Arial" font-size="14.00" fill="#666666">[varchar(355)]</text>
<polygon fill="none" stroke="black" points="82.19,-74 82.19,-104.8 257.67,-104.8 257.67,-74 82.19,-74"/>
<text text-anchor="start" x="89.19" y="-86.2" font-family="Arial" font-size="14.00">created </text>
<text text-anchor="start" x="139.78" y="-86.2" font-family="Arial" font-size="14.00" fill="#666666">[timestamp]</text>
<polygon fill="none" stroke="black" points="82.19,-43.2 82.19,-74 257.67,-74 257.67,-43.2 82.19,-43.2"/>
<text text-anchor="start" x="89.19" y="-55.4" font-family="Arial" font-size="14.00">updated </text>
<text text-anchor="start" x="143.69" y="-55.4" font-family="Arial" font-size="14.00" fill="#666666">[timestamp]</text>
</g>
<!-- comment_stars&#45;&gt;users -->
<g id="edge2" class="edge">
<title>comment_stars:user_id&#45;&gt;users:id</title>
<path fill="none" stroke="black" stroke-dasharray="5,2" d="M304.58,-525.25C361.38,-496.42 325.55,-212.6 258.67,-212.6"/>
<polygon fill="black" stroke="black" points="304.72,-525.21 293.95,-523.14 299.53,-526.45 295.32,-527.45 295.32,-527.45 295.32,-527.45 299.53,-526.45 296.03,-531.9 304.72,-525.21"/>
<text text-anchor="start" x="301.66" y="-537.6" font-family="Arial" font-size="10.00">Detected Relation</text>
</g>
<!-- logs -->
<g id="node2" class="node">
<title>logs</title>
<polygon fill="#efefef" stroke="none" points="85.68,-950.4 85.68,-986 254.18,-986 254.18,-950.4 85.68,-950.4"/>
<polygon fill="none" stroke="black" points="85.68,-950.4 85.68,-986 254.18,-986 254.18,-950.4 85.68,-950.4"/>
<text text-anchor="start" x="92.68" y="-963.8" font-family="Arial Bold" font-size="18.00">logs</text>
<text text-anchor="start" x="122.69" y="-963.8" font-family="Arial" font-size="14.00">    </text>
<text text-anchor="start" x="153.81" y="-963.8" font-family="Arial" font-size="14.00" fill="#666666">[BASE TABLE]</text>
<polygon fill="none" stroke="black" points="85.68,-919.6 85.68,-950.4 254.18,-950.4 254.18,-919.6 85.68,-919.6"/>
<text text-anchor="start" x="92.68" y="-931.8" font-family="Arial" font-size="14.00">id </text>
<text text-anchor="start" x="107.47" y="-931.8" font-family="Arial" font-size="14.00" fill="#666666">[bigint]</text>
<polygon fill="none" stroke="black" points="85.68,-888.8 85.68,-919.6 254.18,-919.6 254.18,-888.8 85.68,-888.8"/>
<text text-anchor="start" x="92.68" y="-901" font-family="Arial" font-size="14.00">user_id </text>
<text text-anchor="start" x="142.49" y="-901" font-family="Arial" font-size="14.00" fill="#666666">[int]</text>
<polygon fill="none" stroke="black" points="85.68,-858 85.68,-888.8 254.18,-888.8 254.18,-858 85.68,-858"/>
<text text-anchor="start" x="92.68" y="-870.2" font-family="Arial" font-size="14.00">post_id </text>
<text text-anchor="start" x="141.72" y="-870.2" font-family="Arial" font-size="14.00" fill="#666666">[bigint]</text>
<polygon fill="none" stroke="black" points="85.68,-827.2 85.68,-858 254.18,-858 254.18,-827.2 85.68,-827.2"/>
<text text-anchor="start" x="92.68" y="-839.4" font-family="Arial" font-size="14.00">comment_id </text>
<text text-anchor="start" x="172.83" y="-839.4" font-family="Arial" font-size="14.00" fill="#666666">[bigint]</text>
<polygon fill="none" stroke="black" points="85.68,-796.4 85.68,-827.2 254.18,-827.2 254.18,-796.4 85.68,-796.4"/>
<text text-anchor="start" x="92.68" y="-808.6" font-family="Arial" font-size="14.00">comment_star_id </text>
<text text-anchor="start" x="203.95" y="-808.6" font-family="Arial" font-size="14.00" fill="#666666">[bigint]</text>
<polygon fill="none" stroke="black" points="85.68,-765.6 85.68,-796.4 254.18,-796.4 254.18,-765.6 85.68,-765.6"/>
<text text-anchor="start" x="92.68" y="-777.8" font-family="Arial" font-size="14.00">payload </text>
<text text-anchor="start" x="145.62" y="-777.8" font-family="Arial" font-size="14.00" fill="#666666">[text]</text>
<polygon fill="none" stroke="black" points="85.68,-734.8 85.68,-765.6 254.18,-765.6 254.18,-734.8 85.68,-734.8"/>
<text text-anchor="start" x="92.68" y="-747" font-family="Arial" font-size="14.00">created </text>
<text text-anchor="start" x="143.27" y="-747" font-family="Arial" font-size="14.00" fill="#666666">[datetime]</text>
</g>
<!-- logs&#45;&gt;comment_stars -->
<g id="edge1" class="edge">
<title>logs:comment_star_id&#45;&gt;comment_stars:id</title>
<path fill="none" stroke="black" stroke-dasharray="5,2" d="M265.32,-811.12C371.41,-796.69 405.2,-558.4 294.66,-558.4"/>
<polygon fill="black" stroke="black" points="265.49,-811.11 255.21,-807.29 260.17,-811.46 255.85,-811.76 255.85,-811.76 255.85,-811.76 260.17,-811.46 255.82,-816.27 265.49,-811.11"/>
<text text-anchor="start" x="262.18" y="-821.8" font-family="Arial" font-size="10.00">Detected Relation</text>
</g>
</g>
</svg>
