<?xml version="1.0" encoding="UTF-8" standalone="no"?>
<!DOCTYPE svg PUBLIC "-//W3C//DTD SVG 1.1//EN"
 "http://www.w3.org/Graphics/SVG/1.1/DTD/svg11.dtd">
<!-- Generated by graphviz version 2.40.1 (20161225.0304)
 -->
<!-- Title: comment_stars Pages: 1 -->
<svg width="404pt" height="1019pt"
 viewBox="0.00 0.00 404.45 1019.00" xmlns="http://www.w3.org/2000/svg" xmlns:xlink="http://www.w3.org/1999/xlink">
<g id="graph0" class="graph" transform="scale(1 1) rotate(0) translate(4 1015)">
<title>comment_stars</title>
<polygon fill="#ffffff" stroke="transparent" points="-4,4 -4,-1015 400.4472,-1015 400.4472,4 -4,4"/>
<!-- comment_stars -->
<g id="node1" class="node">
<title>comment_stars</title>
<polygon fill="#efefef" stroke="transparent" points="93,-562.5 93,-597.5 327,-597.5 327,-562.5 93,-562.5"/>
<polygon fill="none" stroke="#000000" points="93,-562.5 93,-597.5 327,-597.5 327,-562.5 93,-562.5"/>
<text text-anchor="start" x="99.8671" y="-575.3" font-family="Arial Bold" font-size="18.00" fill="#000000">comment_stars</text>
<text text-anchor="start" x="222.8791" y="-575.3" font-family="Arial" font-size="14.00" fill="#000000"> </text>
<text text-anchor="start" x="226.7697" y="-575.3" font-family="Arial" font-size="14.00" fill="#666666">[BASE TABLE]</text>
<polygon fill="none" stroke="#000000" points="93,-532.5 93,-562.5 327,-562.5 327,-532.5 93,-532.5"/>
<text text-anchor="start" x="100" y="-543.9" font-family="Arial" font-size="14.00" fill="#000000">id </text>
<text text-anchor="start" x="114.7798" y="-543.9" font-family="Arial" font-size="14.00" fill="#666666">[bigint]</text>
<polygon fill="none" stroke="#000000" points="93,-502.5 93,-532.5 327,-532.5 327,-502.5 93,-502.5"/>
<text text-anchor="start" x="100" y="-513.9" font-family="Arial" font-size="14.00" fill="#000000">user_id </text>
<text text-anchor="start" x="149.7882" y="-513.9" font-family="Arial" font-size="14.00" fill="#666666">[int]</text>
<polygon fill="none" stroke="#000000" points="93,-472.5 93,-502.5 327,-502.5 327,-472.5 93,-472.5"/>
<text text-anchor="start" x="100" y="-483.9" font-family="Arial" font-size="14.00" fill="#000000">comment_post_id </text>
<text text-anchor="start" x="214.3604" y="-483.9" font-family="Arial" font-size="14.00" fill="#666666">[bigint]</text>
<polygon fill="none" stroke="#000000" points="93,-442.5 93,-472.5 327,-472.5 327,-442.5 93,-442.5"/>
<text text-anchor="start" x="100" y="-453.9" font-family="Arial" font-size="14.00" fill="#000000">comment_user_id </text>
<text text-anchor="start" x="215.1304" y="-453.9" font-family="Arial" font-size="14.00" fill="#666666">[int]</text>
<polygon fill="none" stroke="#000000" points="93,-412.5 93,-442.5 327,-442.5 327,-412.5 93,-412.5"/>
<text text-anchor="start" x="100" y="-423.9" font-family="Arial" font-size="14.00" fill="#000000">created </text>
<text text-anchor="start" x="150.5722" y="-423.9" font-family="Arial" font-size="14.00" fill="#666666">[timestamp]</text>
<polygon fill="none" stroke="#000000" points="93,-382.5 93,-412.5 327,-412.5 327,-382.5 93,-382.5"/>
<text text-anchor="start" x="100" y="-393.9" font-family="Arial" font-size="14.00" fill="#000000">updated </text>
<text text-anchor="start" x="154.4768" y="-393.9" font-family="Arial" font-size="14.00" fill="#666666">[timestamp]</text>
<polygon fill="none" stroke="#000000" stroke-width="3" points="91.5,-381.5 91.5,-599.5 328.5,-599.5 328.5,-381.5 91.5,-381.5"/>
</g>
<!-- users -->
<g id="node3" class="node">
<title>users</title>
<polygon fill="#efefef" stroke="transparent" points="130,-222.5 130,-257.5 289,-257.5 289,-222.5 130,-222.5"/>
<polygon fill="none" stroke="#000000" points="130,-222.5 130,-257.5 289,-257.5 289,-222.5 130,-222.5"/>
<text text-anchor="start" x="138.8708" y="-235.3" font-family="Arial Bold" font-size="18.00" fill="#000000">users</text>
<text text-anchor="start" x="182.8754" y="-235.3" font-family="Arial" font-size="14.00" fill="#000000"> </text>
<text text-anchor="start" x="186.766" y="-235.3" font-family="Arial" font-size="14.00" fill="#666666">[BASE TABLE]</text>
<polygon fill="none" stroke="#000000" points="130,-192.5 130,-222.5 289,-222.5 289,-192.5 130,-192.5"/>
<text text-anchor="start" x="137" y="-203.9" font-family="Arial" font-size="14.00" fill="#000000">id </text>
<text text-anchor="start" x="151.7798" y="-203.9" font-family="Arial" font-size="14.00" fill="#666666">[int]</text>
<polygon fill="none" stroke="#000000" points="130,-162.5 130,-192.5 289,-192.5 289,-162.5 130,-162.5"/>
<text text-anchor="start" x="136.7693" y="-173.9" font-family="Arial" font-size="14.00" fill="#000000">username </text>
<text text-anchor="start" x="202.8941" y="-173.9" font-family="Arial" font-size="14.00" fill="#666666">[varchar(50)]</text>
<polygon fill="none" stroke="#000000" points="130,-132.5 130,-162.5 289,-162.5 289,-132.5 130,-132.5"/>
<text text-anchor="start" x="137" y="-143.9" font-family="Arial" font-size="14.00" fill="#000000">password </text>
<text text-anchor="start" x="200.7882" y="-143.9" font-family="Arial" font-size="14.00" fill="#666666">[varchar(50)]</text>
<polygon fill="none" stroke="#000000" points="130,-102.5 130,-132.5 289,-132.5 289,-102.5 130,-102.5"/>
<text text-anchor="start" x="137" y="-113.9" font-family="Arial" font-size="14.00" fill="#000000">email </text>
<text text-anchor="start" x="174.3296" y="-113.9" font-family="Arial" font-size="14.00" fill="#666666">[varchar(355)]</text>
<polygon fill="none" stroke="#000000" points="130,-72.5 130,-102.5 289,-102.5 289,-72.5 130,-72.5"/>
<text text-anchor="start" x="137" y="-83.9" font-family="Arial" font-size="14.00" fill="#000000">created </text>
<text text-anchor="start" x="187.5722" y="-83.9" font-family="Arial" font-size="14.00" fill="#666666">[timestamp]</text>
<polygon fill="none" stroke="#000000" points="130,-42.5 130,-72.5 289,-72.5 289,-42.5 130,-42.5"/>
<text text-anchor="start" x="137" y="-53.9" font-family="Arial" font-size="14.00" fill="#000000">updated </text>
<text text-anchor="start" x="191.4768" y="-53.9" font-family="Arial" font-size="14.00" fill="#666666">[timestamp]</text>
</g>
<!-- comment_stars&#45;&gt;users -->
<g id="edge2" class="edge">
<title>comment_stars:user_id&#45;&gt;users:id</title>
<path fill="none" stroke="#000000" stroke-dasharray="5,2" d="M82.8414,-516.7964C15.4174,-506.9364 43.9597,-395.868 93,-337 149.6889,-268.9506 232.3111,-369.0494 289,-301 315.598,-269.0718 330.5556,-207.5 289,-207.5"/>
<polygon fill="#000000" stroke="#000000" points="83.0239,-516.8089 92.689,-521.9892 88.012,-517.1545 93,-517.5 93,-517.5 93,-517.5 88.012,-517.1545 93.311,-513.0108 83.0239,-516.8089 83.0239,-516.8089"/>
<text text-anchor="start" x="7.268" y="-527.5" font-family="Arial" font-size="10.00" fill="#000000">Detected Relation</text>
</g>
<!-- logs -->
<g id="node2" class="node">
<title>logs</title>
<polygon fill="#efefef" stroke="transparent" points="127,-932.5 127,-967.5 293,-967.5 293,-932.5 127,-932.5"/>
<polygon fill="none" stroke="#000000" points="127,-932.5 127,-967.5 293,-967.5 293,-932.5 127,-932.5"/>
<text text-anchor="start" x="144.8698" y="-945.3" font-family="Arial Bold" font-size="18.00" fill="#000000">logs</text>
<text text-anchor="start" x="177.8764" y="-945.3" font-family="Arial" font-size="14.00" fill="#000000"> </text>
<text text-anchor="start" x="181.767" y="-945.3" font-family="Arial" font-size="14.00" fill="#666666">[BASE TABLE]</text>
<polygon fill="none" stroke="#000000" points="127,-902.5 127,-932.5 293,-932.5 293,-902.5 127,-902.5"/>
<text text-anchor="start" x="134" y="-913.9" font-family="Arial" font-size="14.00" fill="#000000">id </text>
<text text-anchor="start" x="148.7798" y="-913.9" font-family="Arial" font-size="14.00" fill="#666666">[bigint]</text>
<polygon fill="none" stroke="#000000" points="127,-872.5 127,-902.5 293,-902.5 293,-872.5 127,-872.5"/>
<text text-anchor="start" x="134" y="-883.9" font-family="Arial" font-size="14.00" fill="#000000">user_id </text>
<text text-anchor="start" x="183.7882" y="-883.9" font-family="Arial" font-size="14.00" fill="#666666">[int]</text>
<polygon fill="none" stroke="#000000" points="127,-842.5 127,-872.5 293,-872.5 293,-842.5 127,-842.5"/>
<text text-anchor="start" x="134" y="-853.9" font-family="Arial" font-size="14.00" fill="#000000">post_id </text>
<text text-anchor="start" x="183.0182" y="-853.9" font-family="Arial" font-size="14.00" fill="#666666">[bigint]</text>
<polygon fill="none" stroke="#000000" points="127,-812.5 127,-842.5 293,-842.5 293,-812.5 127,-812.5"/>
<text text-anchor="start" x="134" y="-823.9" font-family="Arial" font-size="14.00" fill="#000000">comment_id </text>
<text text-anchor="start" x="214.122" y="-823.9" font-family="Arial" font-size="14.00" fill="#666666">[bigint]</text>
<polygon fill="none" stroke="#000000" points="127,-782.5 127,-812.5 293,-812.5 293,-782.5 127,-782.5"/>
<text text-anchor="start" x="133.7644" y="-793.9" font-family="Arial" font-size="14.00" fill="#000000">comment_star_id </text>
<text text-anchor="start" x="245.0028" y="-793.9" font-family="Arial" font-size="14.00" fill="#666666">[bigint]</text>
<polygon fill="none" stroke="#000000" points="127,-752.5 127,-782.5 293,-782.5 293,-752.5 127,-752.5"/>
<text text-anchor="start" x="134" y="-763.9" font-family="Arial" font-size="14.00" fill="#000000">payload </text>
<text text-anchor="start" x="186.9102" y="-763.9" font-family="Arial" font-size="14.00" fill="#666666">[text]</text>
<polygon fill="none" stroke="#000000" points="127,-722.5 127,-752.5 293,-752.5 293,-722.5 127,-722.5"/>
<text text-anchor="start" x="134" y="-733.9" font-family="Arial" font-size="14.00" fill="#000000">created </text>
<text text-anchor="start" x="184.5722" y="-733.9" font-family="Arial" font-size="14.00" fill="#666666">[datetime]</text>
</g>
<!-- logs&#45;&gt;comment_stars -->
<g id="edge1" class="edge">
<title>logs:comment_star_id&#45;&gt;comment_stars:id</title>
<path fill="none" stroke="#000000" stroke-dasharray="5,2" d="M303.2816,-796.7828C407.1162,-782.1191 435.6298,-547.5 327,-547.5"/>
<polygon fill="#000000" stroke="#000000" points="302.9758,-796.8041 292.6868,-793.0109 297.9879,-797.152 293,-797.5 293,-797.5 293,-797.5 297.9879,-797.152 293.3132,-801.9891 302.9758,-796.8041 302.9758,-796.8041"/>
<text text-anchor="start" x="300.268" y="-807.5" font-family="Arial" font-size="10.00" fill="#000000">Detected Relation</text>
</g>
</g>
</svg>
