<?xml version="1.0" encoding="UTF-8" standalone="no"?>
<!DOCTYPE svg PUBLIC "-//W3C//DTD SVG 1.1//EN"
 "http://www.w3.org/Graphics/SVG/1.1/DTD/svg11.dtd">
<!-- Generated by graphviz version 2.40.1 (20161225.0304)
 -->
<!-- Title: posts Pages: 1 -->
<svg width="558pt" height="1049pt"
 viewBox="0.00 0.00 558.00 1049.00" xmlns="http://www.w3.org/2000/svg" xmlns:xlink="http://www.w3.org/1999/xlink">
<g id="graph0" class="graph" transform="scale(1 1) rotate(0) translate(4 1045)">
<title>posts</title>
<polygon fill="#ffffff" stroke="transparent" points="-4,4 -4,-1045 554,-1045 554,4 -4,4"/>
<!-- posts -->
<g id="node1" class="node">
<title>posts</title>
<polygon fill="#efefef" stroke="transparent" points="150,-592.5 150,-627.5 413,-627.5 413,-592.5 150,-592.5"/>
<polygon fill="none" stroke="#000000" points="150,-592.5 150,-627.5 413,-627.5 413,-592.5 150,-592.5"/>
<text text-anchor="start" x="196.2087" y="-605.3" font-family="Arial Bold" font-size="18.00" fill="#000000">posts</text>
<text text-anchor="start" x="239.2233" y="-605.3" font-family="Arial" font-size="14.00" fill="#000000">    </text>
<text text-anchor="start" x="273.4281" y="-605.3" font-family="Arial" font-size="14.00" fill="#666666">[BASE TABLE]</text>
<polygon fill="none" stroke="#000000" points="150,-562.5 150,-592.5 413,-592.5 413,-562.5 150,-562.5"/>
<text text-anchor="start" x="157" y="-573.9" font-family="Arial" font-size="14.00" fill="#000000">id </text>
<text text-anchor="start" x="171.7798" y="-573.9" font-family="Arial" font-size="14.00" fill="#666666">[bigint]</text>
<polygon fill="none" stroke="#000000" points="150,-532.5 150,-562.5 413,-562.5 413,-532.5 150,-532.5"/>
<text text-anchor="start" x="157" y="-543.9" font-family="Arial" font-size="14.00" fill="#000000">user_id </text>
<text text-anchor="start" x="206.7882" y="-543.9" font-family="Arial" font-size="14.00" fill="#666666">[int]</text>
<polygon fill="none" stroke="#000000" points="150,-502.5 150,-532.5 413,-532.5 413,-502.5 150,-502.5"/>
<text text-anchor="start" x="157" y="-513.9" font-family="Arial" font-size="14.00" fill="#000000">title </text>
<text text-anchor="start" x="182.6676" y="-513.9" font-family="Arial" font-size="14.00" fill="#666666">[varchar(255)]</text>
<polygon fill="none" stroke="#000000" points="150,-472.5 150,-502.5 413,-502.5 413,-472.5 150,-472.5"/>
<text text-anchor="start" x="157" y="-483.9" font-family="Arial" font-size="14.00" fill="#000000">body </text>
<text text-anchor="start" x="191.2384" y="-483.9" font-family="Arial" font-size="14.00" fill="#666666">[text]</text>
<polygon fill="none" stroke="#000000" points="150,-442.5 150,-472.5 413,-472.5 413,-442.5 150,-442.5"/>
<text text-anchor="start" x="156.697" y="-453.9" font-family="Arial" font-size="14.00" fill="#000000">post_type </text>
<text text-anchor="start" x="221.2818" y="-453.9" font-family="Arial" font-size="14.00" fill="#666666">[enum(&#39;public&#39;,&#39;private&#39;,&#39;draft&#39;)]</text>
<polygon fill="none" stroke="#000000" points="150,-412.5 150,-442.5 413,-442.5 413,-412.5 150,-412.5"/>
<text text-anchor="start" x="157" y="-423.9" font-family="Arial" font-size="14.00" fill="#000000">created </text>
<text text-anchor="start" x="207.5722" y="-423.9" font-family="Arial" font-size="14.00" fill="#666666">[datetime]</text>
<polygon fill="none" stroke="#000000" points="150,-382.5 150,-412.5 413,-412.5 413,-382.5 150,-382.5"/>
<text text-anchor="start" x="157" y="-393.9" font-family="Arial" font-size="14.00" fill="#000000">updated </text>
<text text-anchor="start" x="211.4768" y="-393.9" font-family="Arial" font-size="14.00" fill="#666666">[datetime]</text>
<polygon fill="none" stroke="#000000" stroke-width="3" points="148,-381.5 148,-629.5 414,-629.5 414,-381.5 148,-381.5"/>
</g>
<!-- users -->
<g id="node4" class="node">
<title>users</title>
<polygon fill="#efefef" stroke="transparent" points="202,-222.5 202,-257.5 361,-257.5 361,-222.5 202,-222.5"/>
<polygon fill="none" stroke="#000000" points="202,-222.5 202,-257.5 361,-257.5 361,-222.5 202,-222.5"/>
<text text-anchor="start" x="210.8708" y="-235.3" font-family="Arial Bold" font-size="18.00" fill="#000000">users</text>
<text text-anchor="start" x="254.8754" y="-235.3" font-family="Arial" font-size="14.00" fill="#000000"> </text>
<text text-anchor="start" x="258.766" y="-235.3" font-family="Arial" font-size="14.00" fill="#666666">[BASE TABLE]</text>
<polygon fill="none" stroke="#000000" points="202,-192.5 202,-222.5 361,-222.5 361,-192.5 202,-192.5"/>
<text text-anchor="start" x="209" y="-203.9" font-family="Arial" font-size="14.00" fill="#000000">id </text>
<text text-anchor="start" x="223.7798" y="-203.9" font-family="Arial" font-size="14.00" fill="#666666">[int]</text>
<polygon fill="none" stroke="#000000" points="202,-162.5 202,-192.5 361,-192.5 361,-162.5 202,-162.5"/>
<text text-anchor="start" x="208.7693" y="-173.9" font-family="Arial" font-size="14.00" fill="#000000">username </text>
<text text-anchor="start" x="274.8941" y="-173.9" font-family="Arial" font-size="14.00" fill="#666666">[varchar(50)]</text>
<polygon fill="none" stroke="#000000" points="202,-132.5 202,-162.5 361,-162.5 361,-132.5 202,-132.5"/>
<text text-anchor="start" x="209" y="-143.9" font-family="Arial" font-size="14.00" fill="#000000">password </text>
<text text-anchor="start" x="272.7882" y="-143.9" font-family="Arial" font-size="14.00" fill="#666666">[varchar(50)]</text>
<polygon fill="none" stroke="#000000" points="202,-102.5 202,-132.5 361,-132.5 361,-102.5 202,-102.5"/>
<text text-anchor="start" x="209" y="-113.9" font-family="Arial" font-size="14.00" fill="#000000">email </text>
<text text-anchor="start" x="246.3296" y="-113.9" font-family="Arial" font-size="14.00" fill="#666666">[varchar(355)]</text>
<polygon fill="none" stroke="#000000" points="202,-72.5 202,-102.5 361,-102.5 361,-72.5 202,-72.5"/>
<text text-anchor="start" x="209" y="-83.9" font-family="Arial" font-size="14.00" fill="#000000">created </text>
<text text-anchor="start" x="259.5722" y="-83.9" font-family="Arial" font-size="14.00" fill="#666666">[timestamp]</text>
<polygon fill="none" stroke="#000000" points="202,-42.5 202,-72.5 361,-72.5 361,-42.5 202,-42.5"/>
<text text-anchor="start" x="209" y="-53.9" font-family="Arial" font-size="14.00" fill="#000000">updated </text>
<text text-anchor="start" x="263.4768" y="-53.9" font-family="Arial" font-size="14.00" fill="#666666">[timestamp]</text>
</g>
<!-- posts&#45;&gt;users -->
<g id="edge3" class="edge">
<title>posts:user_id&#45;&gt;users:id</title>
<path fill="none" stroke="#000000" stroke-dasharray="5,2" d="M140.0082,-546.9931C-.4814,-532.3981 52.5653,-207.5 202,-207.5"/>
<polygon fill="#000000" stroke="#000000" points="140.0128,-546.9933 149.772,-551.9942 145.0064,-547.2466 150,-547.5 150,-547.5 150,-547.5 145.0064,-547.2466 150.228,-543.0058 140.0128,-546.9933 140.0128,-546.9933"/>
<text text-anchor="start" x="64.268" y="-557.5" font-family="Arial" font-size="10.00" fill="#000000">Detected Relation</text>
</g>
<!-- comments -->
<g id="node2" class="node">
<title>comments</title>
<polygon fill="#efefef" stroke="transparent" points="43,-947.5 43,-982.5 237,-982.5 237,-947.5 43,-947.5"/>
<polygon fill="none" stroke="#000000" points="43,-947.5 43,-982.5 237,-982.5 237,-947.5 43,-947.5"/>
<text text-anchor="start" x="49.8705" y="-960.3" font-family="Arial Bold" font-size="18.00" fill="#000000">comments</text>
<text text-anchor="start" x="132.8757" y="-960.3" font-family="Arial" font-size="14.00" fill="#000000"> </text>
<text text-anchor="start" x="136.7663" y="-960.3" font-family="Arial" font-size="14.00" fill="#666666">[BASE TABLE]</text>
<polygon fill="none" stroke="#000000" points="43,-917.5 43,-947.5 237,-947.5 237,-917.5 43,-917.5"/>
<text text-anchor="start" x="50" y="-928.9" font-family="Arial" font-size="14.00" fill="#000000">id </text>
<text text-anchor="start" x="64.7798" y="-928.9" font-family="Arial" font-size="14.00" fill="#666666">[bigint]</text>
<polygon fill="none" stroke="#000000" points="43,-887.5 43,-917.5 237,-917.5 237,-887.5 43,-887.5"/>
<text text-anchor="start" x="50" y="-898.9" font-family="Arial" font-size="14.00" fill="#000000">post_id </text>
<text text-anchor="start" x="99.0182" y="-898.9" font-family="Arial" font-size="14.00" fill="#666666">[bigint]</text>
<polygon fill="none" stroke="#000000" points="43,-857.5 43,-887.5 237,-887.5 237,-857.5 43,-857.5"/>
<text text-anchor="start" x="50" y="-868.9" font-family="Arial" font-size="14.00" fill="#000000">user_id </text>
<text text-anchor="start" x="99.7882" y="-868.9" font-family="Arial" font-size="14.00" fill="#666666">[int]</text>
<polygon fill="none" stroke="#000000" points="43,-827.5 43,-857.5 237,-857.5 237,-827.5 43,-827.5"/>
<text text-anchor="start" x="50" y="-838.9" font-family="Arial" font-size="14.00" fill="#000000">comment </text>
<text text-anchor="start" x="111.4502" y="-838.9" font-family="Arial" font-size="14.00" fill="#666666">[text]</text>
<polygon fill="none" stroke="#000000" points="43,-797.5 43,-827.5 237,-827.5 237,-797.5 43,-797.5"/>
<text text-anchor="start" x="50" y="-808.9" font-family="Arial" font-size="14.00" fill="#000000">created </text>
<text text-anchor="start" x="100.5722" y="-808.9" font-family="Arial" font-size="14.00" fill="#666666">[datetime]</text>
<polygon fill="none" stroke="#000000" points="43,-767.5 43,-797.5 237,-797.5 237,-767.5 43,-767.5"/>
<text text-anchor="start" x="50" y="-778.9" font-family="Arial" font-size="14.00" fill="#000000">updated </text>
<text text-anchor="start" x="104.4768" y="-778.9" font-family="Arial" font-size="14.00" fill="#666666">[datetime]</text>
</g>
<!-- comments&#45;&gt;posts -->
<g id="edge1" class="edge">
<title>comments:post_id&#45;&gt;posts:id</title>
<path fill="none" stroke="#000000" stroke-dasharray="5,2" d="M247.3245,-901.7966C312.1708,-892.3658 274.3798,-790.2413 237,-725 214.7182,-686.1103 172.2818,-712.8897 150,-674 128.6786,-636.7864 107.1111,-577.5 150,-577.5"/>
<polygon fill="#000000" stroke="#000000" points="246.9769,-901.8202 236.6941,-898.0104 241.9884,-902.1601 237,-902.5 237,-902.5 237,-902.5 241.9884,-902.1601 237.3059,-906.9896 246.9769,-901.8202 246.9769,-901.8202"/>
<text text-anchor="start" x="244.268" y="-912.5" font-family="Arial" font-size="10.00" fill="#000000">Detected Relation</text>
</g>
<!-- logs -->
<g id="node3" class="node">
<title>logs</title>
<polygon fill="#efefef" stroke="transparent" points="341,-962.5 341,-997.5 507,-997.5 507,-962.5 341,-962.5"/>
<polygon fill="none" stroke="#000000" points="341,-962.5 341,-997.5 507,-997.5 507,-962.5 341,-962.5"/>
<text text-anchor="start" x="358.8698" y="-975.3" font-family="Arial Bold" font-size="18.00" fill="#000000">logs</text>
<text text-anchor="start" x="391.8764" y="-975.3" font-family="Arial" font-size="14.00" fill="#000000"> </text>
<text text-anchor="start" x="395.767" y="-975.3" font-family="Arial" font-size="14.00" fill="#666666">[BASE TABLE]</text>
<polygon fill="none" stroke="#000000" points="341,-932.5 341,-962.5 507,-962.5 507,-932.5 341,-932.5"/>
<text text-anchor="start" x="348" y="-943.9" font-family="Arial" font-size="14.00" fill="#000000">id </text>
<text text-anchor="start" x="362.7798" y="-943.9" font-family="Arial" font-size="14.00" fill="#666666">[bigint]</text>
<polygon fill="none" stroke="#000000" points="341,-902.5 341,-932.5 507,-932.5 507,-902.5 341,-902.5"/>
<text text-anchor="start" x="348" y="-913.9" font-family="Arial" font-size="14.00" fill="#000000">user_id </text>
<text text-anchor="start" x="397.7882" y="-913.9" font-family="Arial" font-size="14.00" fill="#666666">[int]</text>
<polygon fill="none" stroke="#000000" points="341,-872.5 341,-902.5 507,-902.5 507,-872.5 341,-872.5"/>
<text text-anchor="start" x="348" y="-883.9" font-family="Arial" font-size="14.00" fill="#000000">post_id </text>
<text text-anchor="start" x="397.0182" y="-883.9" font-family="Arial" font-size="14.00" fill="#666666">[bigint]</text>
<polygon fill="none" stroke="#000000" points="341,-842.5 341,-872.5 507,-872.5 507,-842.5 341,-842.5"/>
<text text-anchor="start" x="348" y="-853.9" font-family="Arial" font-size="14.00" fill="#000000">comment_id </text>
<text text-anchor="start" x="428.122" y="-853.9" font-family="Arial" font-size="14.00" fill="#666666">[bigint]</text>
<polygon fill="none" stroke="#000000" points="341,-812.5 341,-842.5 507,-842.5 507,-812.5 341,-812.5"/>
<text text-anchor="start" x="347.7644" y="-823.9" font-family="Arial" font-size="14.00" fill="#000000">comment_star_id </text>
<text text-anchor="start" x="459.0028" y="-823.9" font-family="Arial" font-size="14.00" fill="#666666">[bigint]</text>
<polygon fill="none" stroke="#000000" points="341,-782.5 341,-812.5 507,-812.5 507,-782.5 341,-782.5"/>
<text text-anchor="start" x="348" y="-793.9" font-family="Arial" font-size="14.00" fill="#000000">payload </text>
<text text-anchor="start" x="400.9102" y="-793.9" font-family="Arial" font-size="14.00" fill="#666666">[text]</text>
<polygon fill="none" stroke="#000000" points="341,-752.5 341,-782.5 507,-782.5 507,-752.5 341,-752.5"/>
<text text-anchor="start" x="348" y="-763.9" font-family="Arial" font-size="14.00" fill="#000000">created </text>
<text text-anchor="start" x="398.5722" y="-763.9" font-family="Arial" font-size="14.00" fill="#666666">[datetime]</text>
</g>
<!-- logs&#45;&gt;posts -->
<g id="edge2" class="edge">
<title>logs:post_id&#45;&gt;posts:id</title>
<path fill="none" stroke="#000000" stroke-dasharray="5,2" d="M330.6613,-886.7881C265.6276,-877.2458 301.4698,-773.9613 341,-710 359.8091,-679.5662 394.1909,-704.4338 413,-674 435.548,-637.5165 455.8889,-577.5 413,-577.5"/>
<polygon fill="#000000" stroke="#000000" points="331.0236,-886.813 340.6908,-891.9894 336.0118,-887.1565 341,-887.5 341,-887.5 341,-887.5 336.0118,-887.1565 341.3092,-883.0106 331.0236,-886.813 331.0236,-886.813"/>
<text text-anchor="start" x="255.268" y="-871.5" font-family="Arial" font-size="10.00" fill="#000000">Detected Relation</text>
</g>
</g>
</svg>
