<?xml version="1.0" encoding="UTF-8" standalone="no"?>
<!DOCTYPE svg PUBLIC "-//W3C//DTD SVG 1.1//EN"
 "http://www.w3.org/Graphics/SVG/1.1/DTD/svg11.dtd">
<!-- Generated by graphviz version 2.40.1 (20161225.0304)
 -->
<!-- Title: posts Pages: 1 -->
<svg width="618pt" height="1049pt"
 viewBox="0.00 0.00 618.00 1049.00" xmlns="http://www.w3.org/2000/svg" xmlns:xlink="http://www.w3.org/1999/xlink">
<g id="graph0" class="graph" transform="scale(1 1) rotate(0) translate(4 1045)">
<title>posts</title>
<polygon fill="#ffffff" stroke="transparent" points="-4,4 -4,-1045 614,-1045 614,4 -4,4"/>
<!-- posts -->
<g id="node1" class="node">
<title>posts</title>
<polygon fill="#efefef" stroke="transparent" points="180,-592.5 180,-627.5 443,-627.5 443,-592.5 180,-592.5"/>
<polygon fill="none" stroke="#000000" points="180,-592.5 180,-627.5 443,-627.5 443,-592.5 180,-592.5"/>
<text text-anchor="start" x="226.2087" y="-605.3" font-family="Arial Bold" font-size="18.00" fill="#000000">posts</text>
<text text-anchor="start" x="269.2233" y="-605.3" font-family="Arial" font-size="14.00" fill="#000000">    </text>
<text text-anchor="start" x="303.4281" y="-605.3" font-family="Arial" font-size="14.00" fill="#666666">[BASE TABLE]</text>
<polygon fill="none" stroke="#000000" points="180,-562.5 180,-592.5 443,-592.5 443,-562.5 180,-562.5"/>
<text text-anchor="start" x="187" y="-573.9" font-family="Arial" font-size="14.00" fill="#000000">id </text>
<text text-anchor="start" x="201.7798" y="-573.9" font-family="Arial" font-size="14.00" fill="#666666">[bigint]</text>
<polygon fill="none" stroke="#000000" points="180,-532.5 180,-562.5 443,-562.5 443,-532.5 180,-532.5"/>
<text text-anchor="start" x="187" y="-543.9" font-family="Arial" font-size="14.00" fill="#000000">user_id </text>
<text text-anchor="start" x="236.7882" y="-543.9" font-family="Arial" font-size="14.00" fill="#666666">[int]</text>
<polygon fill="none" stroke="#000000" points="180,-502.5 180,-532.5 443,-532.5 443,-502.5 180,-502.5"/>
<text text-anchor="start" x="187" y="-513.9" font-family="Arial" font-size="14.00" fill="#000000">title </text>
<text text-anchor="start" x="212.6676" y="-513.9" font-family="Arial" font-size="14.00" fill="#666666">[varchar(255)]</text>
<polygon fill="none" stroke="#000000" points="180,-472.5 180,-502.5 443,-502.5 443,-472.5 180,-472.5"/>
<text text-anchor="start" x="187" y="-483.9" font-family="Arial" font-size="14.00" fill="#000000">body </text>
<text text-anchor="start" x="221.2384" y="-483.9" font-family="Arial" font-size="14.00" fill="#666666">[text]</text>
<polygon fill="none" stroke="#000000" points="180,-442.5 180,-472.5 443,-472.5 443,-442.5 180,-442.5"/>
<text text-anchor="start" x="186.697" y="-453.9" font-family="Arial" font-size="14.00" fill="#000000">post_type </text>
<text text-anchor="start" x="251.2818" y="-453.9" font-family="Arial" font-size="14.00" fill="#666666">[enum(&#39;public&#39;,&#39;private&#39;,&#39;draft&#39;)]</text>
<polygon fill="none" stroke="#000000" points="180,-412.5 180,-442.5 443,-442.5 443,-412.5 180,-412.5"/>
<text text-anchor="start" x="187" y="-423.9" font-family="Arial" font-size="14.00" fill="#000000">created </text>
<text text-anchor="start" x="237.5722" y="-423.9" font-family="Arial" font-size="14.00" fill="#666666">[datetime]</text>
<polygon fill="none" stroke="#000000" points="180,-382.5 180,-412.5 443,-412.5 443,-382.5 180,-382.5"/>
<text text-anchor="start" x="187" y="-393.9" font-family="Arial" font-size="14.00" fill="#000000">updated </text>
<text text-anchor="start" x="241.4768" y="-393.9" font-family="Arial" font-size="14.00" fill="#666666">[datetime]</text>
<polygon fill="none" stroke="#000000" stroke-width="3" points="178,-381.5 178,-629.5 444,-629.5 444,-381.5 178,-381.5"/>
</g>
<!-- users -->
<g id="node4" class="node">
<title>users</title>
<polygon fill="#efefef" stroke="transparent" points="217,-222.5 217,-257.5 406,-257.5 406,-222.5 217,-222.5"/>
<polygon fill="none" stroke="#000000" points="217,-222.5 217,-257.5 406,-257.5 406,-222.5 217,-222.5"/>
<text text-anchor="start" x="225.7137" y="-235.3" font-family="Arial Bold" font-size="18.00" fill="#000000">users</text>
<text text-anchor="start" x="269.7183" y="-235.3" font-family="Arial" font-size="14.00" fill="#000000">    </text>
<text text-anchor="start" x="303.9231" y="-235.3" font-family="Arial" font-size="14.00" fill="#666666">[BASE TABLE]</text>
<polygon fill="none" stroke="#000000" points="217,-192.5 217,-222.5 406,-222.5 406,-192.5 217,-192.5"/>
<text text-anchor="start" x="224" y="-203.9" font-family="Arial" font-size="14.00" fill="#000000">id    </text>
<text text-anchor="start" x="269.094" y="-203.9" font-family="Arial" font-size="14.00" fill="#666666">[int]</text>
<polygon fill="none" stroke="#000000" points="217,-162.5 217,-192.5 406,-192.5 406,-162.5 217,-162.5"/>
<text text-anchor="start" x="223.6122" y="-173.9" font-family="Arial" font-size="14.00" fill="#000000">username    </text>
<text text-anchor="start" x="320.0512" y="-173.9" font-family="Arial" font-size="14.00" fill="#666666">[varchar(50)]</text>
<polygon fill="none" stroke="#000000" points="217,-132.5 217,-162.5 406,-162.5 406,-132.5 217,-132.5"/>
<text text-anchor="start" x="224" y="-143.9" font-family="Arial" font-size="14.00" fill="#000000">password    </text>
<text text-anchor="start" x="318.1024" y="-143.9" font-family="Arial" font-size="14.00" fill="#666666">[varchar(50)]</text>
<polygon fill="none" stroke="#000000" points="217,-102.5 217,-132.5 406,-132.5 406,-102.5 217,-102.5"/>
<text text-anchor="start" x="224" y="-113.9" font-family="Arial" font-size="14.00" fill="#000000">email    </text>
<text text-anchor="start" x="291.6438" y="-113.9" font-family="Arial" font-size="14.00" fill="#666666">[varchar(355)]</text>
<polygon fill="none" stroke="#000000" points="217,-72.5 217,-102.5 406,-102.5 406,-72.5 217,-72.5"/>
<text text-anchor="start" x="224" y="-83.9" font-family="Arial" font-size="14.00" fill="#000000">created    </text>
<text text-anchor="start" x="304.8864" y="-83.9" font-family="Arial" font-size="14.00" fill="#666666">[timestamp]</text>
<polygon fill="none" stroke="#000000" points="217,-42.5 217,-72.5 406,-72.5 406,-42.5 217,-42.5"/>
<text text-anchor="start" x="224" y="-53.9" font-family="Arial" font-size="14.00" fill="#000000">updated    </text>
<text text-anchor="start" x="308.791" y="-53.9" font-family="Arial" font-size="14.00" fill="#666666">[timestamp]</text>
</g>
<!-- posts&#45;&gt;users -->
<g id="edge3" class="edge">
<title>posts:user_id&#45;&gt;users:id</title>
<path fill="none" stroke="#000000" stroke-dasharray="5,2" d="M169.6228,-546.9485C29.7943,-531.7493 68.5593,-207.5 217,-207.5"/>
<polygon fill="#000000" stroke="#000000" points="170.0141,-546.9692 179.7611,-551.9937 175.007,-547.2346 180,-547.5 180,-547.5 180,-547.5 175.007,-547.2346 180.2389,-543.0063 170.0141,-546.9692 170.0141,-546.9692"/>
<text text-anchor="start" x="94.268" y="-557.5" font-family="Arial" font-size="10.00" fill="#000000">Detected Relation</text>
</g>
<!-- comments -->
<g id="node2" class="node">
<title>comments</title>
<polygon fill="#efefef" stroke="transparent" points="43,-947.5 43,-982.5 267,-982.5 267,-947.5 43,-947.5"/>
<polygon fill="none" stroke="#000000" points="43,-947.5 43,-982.5 267,-982.5 267,-947.5 43,-947.5"/>
<text text-anchor="start" x="49.7134" y="-960.3" font-family="Arial Bold" font-size="18.00" fill="#000000">comments</text>
<text text-anchor="start" x="132.7186" y="-960.3" font-family="Arial" font-size="14.00" fill="#000000">    </text>
<text text-anchor="start" x="166.9234" y="-960.3" font-family="Arial" font-size="14.00" fill="#666666">[BASE TABLE]</text>
<polygon fill="none" stroke="#000000" points="43,-917.5 43,-947.5 267,-947.5 267,-917.5 43,-917.5"/>
<text text-anchor="start" x="50" y="-928.9" font-family="Arial" font-size="14.00" fill="#000000">id    </text>
<text text-anchor="start" x="95.094" y="-928.9" font-family="Arial" font-size="14.00" fill="#666666">[bigint]</text>
<polygon fill="none" stroke="#000000" points="43,-887.5 43,-917.5 267,-917.5 267,-887.5 43,-887.5"/>
<text text-anchor="start" x="50" y="-898.9" font-family="Arial" font-size="14.00" fill="#000000">post_id    </text>
<text text-anchor="start" x="129.3324" y="-898.9" font-family="Arial" font-size="14.00" fill="#666666">[bigint]</text>
<polygon fill="none" stroke="#000000" points="43,-857.5 43,-887.5 267,-887.5 267,-857.5 43,-857.5"/>
<text text-anchor="start" x="50" y="-868.9" font-family="Arial" font-size="14.00" fill="#000000">user_id    </text>
<text text-anchor="start" x="130.1024" y="-868.9" font-family="Arial" font-size="14.00" fill="#666666">[int]</text>
<polygon fill="none" stroke="#000000" points="43,-827.5 43,-857.5 267,-857.5 267,-827.5 43,-827.5"/>
<text text-anchor="start" x="50" y="-838.9" font-family="Arial" font-size="14.00" fill="#000000">comment    </text>
<text text-anchor="start" x="141.7644" y="-838.9" font-family="Arial" font-size="14.00" fill="#666666">[text]</text>
<polygon fill="none" stroke="#000000" points="43,-797.5 43,-827.5 267,-827.5 267,-797.5 43,-797.5"/>
<text text-anchor="start" x="50" y="-808.9" font-family="Arial" font-size="14.00" fill="#000000">created    </text>
<text text-anchor="start" x="130.8864" y="-808.9" font-family="Arial" font-size="14.00" fill="#666666">[datetime]</text>
<polygon fill="none" stroke="#000000" points="43,-767.5 43,-797.5 267,-797.5 267,-767.5 43,-767.5"/>
<text text-anchor="start" x="50" y="-778.9" font-family="Arial" font-size="14.00" fill="#000000">updated    </text>
<text text-anchor="start" x="134.791" y="-778.9" font-family="Arial" font-size="14.00" fill="#666666">[datetime]</text>
</g>
<!-- comments&#45;&gt;posts -->
<g id="edge1" class="edge">
<title>comments:post_id&#45;&gt;posts:id</title>
<path fill="none" stroke="#000000" stroke-dasharray="5,2" d="M277.3245,-901.7966C342.1708,-892.3658 304.3798,-790.2413 267,-725 244.7182,-686.1103 202.2818,-712.8897 180,-674 158.6786,-636.7864 137.1111,-577.5 180,-577.5"/>
<polygon fill="#000000" stroke="#000000" points="276.9769,-901.8202 266.6941,-898.0104 271.9884,-902.1601 267,-902.5 267,-902.5 267,-902.5 271.9884,-902.1601 267.3059,-906.9896 276.9769,-901.8202 276.9769,-901.8202"/>
<text text-anchor="start" x="274.268" y="-912.5" font-family="Arial" font-size="10.00" fill="#000000">Detected Relation</text>
</g>
<!-- logs -->
<g id="node3" class="node">
<title>logs</title>
<polygon fill="#efefef" stroke="transparent" points="371,-962.5 371,-997.5 567,-997.5 567,-962.5 371,-962.5"/>
<polygon fill="none" stroke="#000000" points="371,-962.5 371,-997.5 567,-997.5 567,-962.5 371,-962.5"/>
<text text-anchor="start" x="388.7127" y="-975.3" font-family="Arial Bold" font-size="18.00" fill="#000000">logs</text>
<text text-anchor="start" x="421.7193" y="-975.3" font-family="Arial" font-size="14.00" fill="#000000">    </text>
<text text-anchor="start" x="455.9241" y="-975.3" font-family="Arial" font-size="14.00" fill="#666666">[BASE TABLE]</text>
<polygon fill="none" stroke="#000000" points="371,-932.5 371,-962.5 567,-962.5 567,-932.5 371,-932.5"/>
<text text-anchor="start" x="378" y="-943.9" font-family="Arial" font-size="14.00" fill="#000000">id    </text>
<text text-anchor="start" x="423.094" y="-943.9" font-family="Arial" font-size="14.00" fill="#666666">[bigint]</text>
<polygon fill="none" stroke="#000000" points="371,-902.5 371,-932.5 567,-932.5 567,-902.5 371,-902.5"/>
<text text-anchor="start" x="378" y="-913.9" font-family="Arial" font-size="14.00" fill="#000000">user_id    </text>
<text text-anchor="start" x="458.1024" y="-913.9" font-family="Arial" font-size="14.00" fill="#666666">[int]</text>
<polygon fill="none" stroke="#000000" points="371,-872.5 371,-902.5 567,-902.5 567,-872.5 371,-872.5"/>
<text text-anchor="start" x="378" y="-883.9" font-family="Arial" font-size="14.00" fill="#000000">post_id    </text>
<text text-anchor="start" x="457.3324" y="-883.9" font-family="Arial" font-size="14.00" fill="#666666">[bigint]</text>
<polygon fill="none" stroke="#000000" points="371,-842.5 371,-872.5 567,-872.5 567,-842.5 371,-842.5"/>
<text text-anchor="start" x="378" y="-853.9" font-family="Arial" font-size="14.00" fill="#000000">comment_id    </text>
<text text-anchor="start" x="488.4362" y="-853.9" font-family="Arial" font-size="14.00" fill="#666666">[bigint]</text>
<polygon fill="none" stroke="#000000" points="371,-812.5 371,-842.5 567,-842.5 567,-812.5 371,-812.5"/>
<text text-anchor="start" x="377.6073" y="-823.9" font-family="Arial" font-size="14.00" fill="#000000">comment_star_id    </text>
<text text-anchor="start" x="519.1599" y="-823.9" font-family="Arial" font-size="14.00" fill="#666666">[bigint]</text>
<polygon fill="none" stroke="#000000" points="371,-782.5 371,-812.5 567,-812.5 567,-782.5 371,-782.5"/>
<text text-anchor="start" x="378" y="-793.9" font-family="Arial" font-size="14.00" fill="#000000">payload    </text>
<text text-anchor="start" x="461.2244" y="-793.9" font-family="Arial" font-size="14.00" fill="#666666">[text]</text>
<polygon fill="none" stroke="#000000" points="371,-752.5 371,-782.5 567,-782.5 567,-752.5 371,-752.5"/>
<text text-anchor="start" x="378" y="-763.9" font-family="Arial" font-size="14.00" fill="#000000">created    </text>
<text text-anchor="start" x="458.8864" y="-763.9" font-family="Arial" font-size="14.00" fill="#666666">[datetime]</text>
</g>
<!-- logs&#45;&gt;posts -->
<g id="edge2" class="edge">
<title>logs:post_id&#45;&gt;posts:id</title>
<path fill="none" stroke="#000000" stroke-dasharray="5,2" d="M360.6613,-886.7881C295.6276,-877.2458 331.4698,-773.9613 371,-710 389.8091,-679.5662 424.1909,-704.4338 443,-674 465.548,-637.5165 485.8889,-577.5 443,-577.5"/>
<polygon fill="#000000" stroke="#000000" points="361.0236,-886.813 370.6908,-891.9894 366.0118,-887.1565 371,-887.5 371,-887.5 371,-887.5 366.0118,-887.1565 371.3092,-883.0106 361.0236,-886.813 361.0236,-886.813"/>
<text text-anchor="start" x="285.268" y="-871.5" font-family="Arial" font-size="10.00" fill="#000000">Detected Relation</text>
</g>
</g>
</svg>
