<?xml version="1.0" encoding="UTF-8" standalone="no"?>
<!DOCTYPE svg PUBLIC "-//W3C//DTD SVG 1.1//EN"
 "http://www.w3.org/Graphics/SVG/1.1/DTD/svg11.dtd">
<!-- Generated by graphviz version 12.1.2 (20240928.0832)
 -->
<!-- Title: posts Pages: 1 -->
<svg width="606pt" height="1068pt"
 viewBox="0.00 0.00 605.51 1068.00" xmlns="http://www.w3.org/2000/svg" xmlns:xlink="http://www.w3.org/1999/xlink">
<g id="graph0" class="graph" transform="scale(1 1) rotate(0) translate(4 1064)">
<title>posts</title>
<polygon fill="white" stroke="none" points="-4,4 -4,-1064 601.51,-1064 601.51,4 -4,4"/>
<!-- posts -->
<g id="node1" class="node">
<title>posts</title>
<polygon fill="#efefef" stroke="none" points="172.86,-604.6 172.86,-640.2 434.01,-640.2 434.01,-604.6 172.86,-604.6"/>
<polygon fill="none" stroke="black" points="172.86,-604.6 172.86,-640.2 434.01,-640.2 434.01,-604.6 172.86,-604.6"/>
<text text-anchor="start" x="222.69" y="-618" font-family="Arial Bold" font-size="18.00">posts</text>
<text text-anchor="start" x="259.7" y="-618" font-family="Arial" font-size="14.00">    </text>
<text text-anchor="start" x="290.82" y="-618" font-family="Arial" font-size="14.00" fill="#666666">[BASE TABLE]</text>
<polygon fill="none" stroke="black" points="172.86,-573.8 172.86,-604.6 434.01,-604.6 434.01,-573.8 172.86,-573.8"/>
<text text-anchor="start" x="179.86" y="-586" font-family="Arial" font-size="14.00">id </text>
<text text-anchor="start" x="194.65" y="-586" font-family="Arial" font-size="14.00" fill="#666666">[bigint]</text>
<polygon fill="none" stroke="black" points="172.86,-543 172.86,-573.8 434.01,-573.8 434.01,-543 172.86,-543"/>
<text text-anchor="start" x="179.86" y="-555.2" font-family="Arial" font-size="14.00">user_id </text>
<text text-anchor="start" x="229.67" y="-555.2" font-family="Arial" font-size="14.00" fill="#666666">[int]</text>
<polygon fill="none" stroke="black" points="172.86,-512.2 172.86,-543 434.01,-543 434.01,-512.2 172.86,-512.2"/>
<text text-anchor="start" x="179.86" y="-524.4" font-family="Arial" font-size="14.00">title </text>
<text text-anchor="start" x="205.54" y="-524.4" font-family="Arial" font-size="14.00" fill="#666666">[varchar(255)]</text>
<polygon fill="none" stroke="black" points="172.86,-481.4 172.86,-512.2 434.01,-512.2 434.01,-481.4 172.86,-481.4"/>
<text text-anchor="start" x="179.86" y="-493.6" font-family="Arial" font-size="14.00">body </text>
<text text-anchor="start" x="214.11" y="-493.6" font-family="Arial" font-size="14.00" fill="#666666">[text]</text>
<polygon fill="none" stroke="black" points="172.86,-450.6 172.86,-481.4 434.01,-481.4 434.01,-450.6 172.86,-450.6"/>
<text text-anchor="start" x="179.86" y="-462.8" font-family="Arial" font-size="14.00">post_type </text>
<text text-anchor="start" x="244.46" y="-462.8" font-family="Arial" font-size="14.00" fill="#666666">[enum(&#39;public&#39;,&#39;private&#39;,&#39;draft&#39;)]</text>
<polygon fill="none" stroke="black" points="172.86,-419.8 172.86,-450.6 434.01,-450.6 434.01,-419.8 172.86,-419.8"/>
<text text-anchor="start" x="179.86" y="-432" font-family="Arial" font-size="14.00">created </text>
<text text-anchor="start" x="230.45" y="-432" font-family="Arial" font-size="14.00" fill="#666666">[datetime]</text>
<polygon fill="none" stroke="black" points="172.86,-389 172.86,-419.8 434.01,-419.8 434.01,-389 172.86,-389"/>
<text text-anchor="start" x="179.86" y="-401.2" font-family="Arial" font-size="14.00">updated </text>
<text text-anchor="start" x="234.36" y="-401.2" font-family="Arial" font-size="14.00" fill="#666666">[datetime]</text>
<polygon fill="none" stroke="black" stroke-width="3" points="171.36,-387.5 171.36,-641.7 435.51,-641.7 435.51,-387.5 171.36,-387.5"/>
</g>
<!-- users -->
<g id="node4" class="node">
<title>users</title>
<polygon fill="#efefef" stroke="none" points="210.07,-228 210.07,-263.6 396.8,-263.6 396.8,-228 210.07,-228"/>
<polygon fill="none" stroke="black" points="210.07,-228 210.07,-263.6 396.8,-263.6 396.8,-228 210.07,-228"/>
<text text-anchor="start" x="222.7" y="-241.4" font-family="Arial Bold" font-size="18.00">users</text>
<text text-anchor="start" x="259.69" y="-241.4" font-family="Arial" font-size="14.00">    </text>
<text text-anchor="start" x="290.81" y="-241.4" font-family="Arial" font-size="14.00" fill="#666666">[BASE TABLE]</text>
<polygon fill="none" stroke="black" points="210.07,-197.2 210.07,-228 396.8,-228 396.8,-197.2 210.07,-197.2"/>
<text text-anchor="start" x="217.07" y="-209.4" font-family="Arial" font-size="14.00">id    </text>
<text text-anchor="start" x="259.09" y="-209.4" font-family="Arial" font-size="14.00" fill="#666666">[int]</text>
<polygon fill="none" stroke="black" points="210.07,-166.4 210.07,-197.2 396.8,-197.2 396.8,-166.4 210.07,-166.4"/>
<text text-anchor="start" x="217.07" y="-178.6" font-family="Arial" font-size="14.00">username    </text>
<text text-anchor="start" x="310.44" y="-178.6" font-family="Arial" font-size="14.00" fill="#666666">[varchar(50)]</text>
<polygon fill="none" stroke="black" points="210.07,-135.6 210.07,-166.4 396.8,-166.4 396.8,-135.6 210.07,-135.6"/>
<text text-anchor="start" x="217.07" y="-147.8" font-family="Arial" font-size="14.00">password    </text>
<text text-anchor="start" x="308.11" y="-147.8" font-family="Arial" font-size="14.00" fill="#666666">[varchar(50)]</text>
<polygon fill="none" stroke="black" points="210.07,-104.8 210.07,-135.6 396.8,-135.6 396.8,-104.8 210.07,-104.8"/>
<text text-anchor="start" x="217.07" y="-117" font-family="Arial" font-size="14.00">email    </text>
<text text-anchor="start" x="281.64" y="-117" font-family="Arial" font-size="14.00" fill="#666666">[varchar(355)]</text>
<polygon fill="none" stroke="black" points="210.07,-74 210.07,-104.8 396.8,-104.8 396.8,-74 210.07,-74"/>
<text text-anchor="start" x="217.07" y="-86.2" font-family="Arial" font-size="14.00">created    </text>
<text text-anchor="start" x="294.89" y="-86.2" font-family="Arial" font-size="14.00" fill="#666666">[timestamp]</text>
<polygon fill="none" stroke="black" points="210.07,-43.2 210.07,-74 396.8,-74 396.8,-43.2 210.07,-43.2"/>
<text text-anchor="start" x="217.07" y="-55.4" font-family="Arial" font-size="14.00">updated    </text>
<text text-anchor="start" x="298.8" y="-55.4" font-family="Arial" font-size="14.00" fill="#666666">[timestamp]</text>
</g>
<!-- posts&#45;&gt;users -->
<g id="edge3" class="edge">
<title>posts:user_id&#45;&gt;users:id</title>
<path fill="none" stroke="black" stroke-dasharray="5,2" d="M445.14,-557.88C587.86,-543.04 548.91,-212.6 397.8,-212.6"/>
<polygon fill="black" stroke="black" points="445.34,-557.87 435.12,-553.89 440.01,-558.15 435.68,-558.37 435.68,-558.37 435.68,-558.37 440.01,-558.15 435.58,-562.88 445.34,-557.87"/>
<text text-anchor="start" x="442.01" y="-568.4" font-family="Arial" font-size="10.00">Detected Relation</text>
</g>
<!-- comments -->
<g id="node2" class="node">
<title>comments</title>
<polygon fill="#efefef" stroke="none" points="43.2,-965.8 43.2,-1001.4 255.68,-1001.4 255.68,-965.8 43.2,-965.8"/>
<polygon fill="none" stroke="black" points="43.2,-965.8 43.2,-1001.4 255.68,-1001.4 255.68,-965.8 43.2,-965.8"/>
<text text-anchor="start" x="50.2" y="-979.2" font-family="Arial Bold" font-size="18.00">comments</text>
<text text-anchor="start" x="124.19" y="-979.2" font-family="Arial" font-size="14.00">    </text>
<text text-anchor="start" x="155.3" y="-979.2" font-family="Arial" font-size="14.00" fill="#666666">[BASE TABLE]</text>
<polygon fill="none" stroke="black" points="43.2,-935 43.2,-965.8 255.68,-965.8 255.68,-935 43.2,-935"/>
<text text-anchor="start" x="50.2" y="-947.2" font-family="Arial" font-size="14.00">id    </text>
<text text-anchor="start" x="92.21" y="-947.2" font-family="Arial" font-size="14.00" fill="#666666">[bigint]</text>
<polygon fill="none" stroke="black" points="43.2,-904.2 43.2,-935 255.68,-935 255.68,-904.2 43.2,-904.2"/>
<text text-anchor="start" x="50.2" y="-916.4" font-family="Arial" font-size="14.00">post_id    </text>
<text text-anchor="start" x="126.46" y="-916.4" font-family="Arial" font-size="14.00" fill="#666666">[bigint]</text>
<polygon fill="none" stroke="black" points="43.2,-873.4 43.2,-904.2 255.68,-904.2 255.68,-873.4 43.2,-873.4"/>
<text text-anchor="start" x="50.2" y="-885.6" font-family="Arial" font-size="14.00">user_id    </text>
<text text-anchor="start" x="127.23" y="-885.6" font-family="Arial" font-size="14.00" fill="#666666">[int]</text>
<polygon fill="none" stroke="black" points="43.2,-842.6 43.2,-873.4 255.68,-873.4 255.68,-842.6 43.2,-842.6"/>
<text text-anchor="start" x="50.2" y="-854.8" font-family="Arial" font-size="14.00">comment    </text>
<text text-anchor="start" x="138.89" y="-854.8" font-family="Arial" font-size="14.00" fill="#666666">[text]</text>
<polygon fill="none" stroke="black" points="43.2,-811.8 43.2,-842.6 255.68,-842.6 255.68,-811.8 43.2,-811.8"/>
<text text-anchor="start" x="50.2" y="-824" font-family="Arial" font-size="14.00">created    </text>
<text text-anchor="start" x="128.01" y="-824" font-family="Arial" font-size="14.00" fill="#666666">[datetime]</text>
<polygon fill="none" stroke="black" points="43.2,-781 43.2,-811.8 255.68,-811.8 255.68,-781 43.2,-781"/>
<text text-anchor="start" x="50.2" y="-793.2" font-family="Arial" font-size="14.00">updated    </text>
<text text-anchor="start" x="131.92" y="-793.2" font-family="Arial" font-size="14.00" fill="#666666">[datetime]</text>
</g>
<!-- comments&#45;&gt;posts -->
<g id="edge1" class="edge">
<title>comments:post_id&#45;&gt;posts:id</title>
<path fill="none" stroke="black" stroke-dasharray="5,2" d="M266.83,-918.94C333.68,-909.68 293.38,-805.14 255.68,-737.8 234.51,-700 194.11,-724.15 172.86,-686.4 151.67,-648.75 128.66,-589.2 171.86,-589.2"/>
<polygon fill="black" stroke="black" points="266.99,-918.93 256.72,-915.09 261.67,-919.28 257.34,-919.56 257.34,-919.56 257.34,-919.56 261.67,-919.28 257.3,-924.07 266.99,-918.93"/>
<text text-anchor="start" x="263.68" y="-929.6" font-family="Arial" font-size="10.00">Detected Relation</text>
</g>
<!-- logs -->
<g id="node3" class="node">
<title>logs</title>
<polygon fill="#efefef" stroke="none" points="360.57,-981.2 360.57,-1016.8 554.31,-1016.8 554.31,-981.2 360.57,-981.2"/>
<polygon fill="none" stroke="black" points="360.57,-981.2 360.57,-1016.8 554.31,-1016.8 554.31,-981.2 360.57,-981.2"/>
<text text-anchor="start" x="380.19" y="-994.6" font-family="Arial Bold" font-size="18.00">logs</text>
<text text-anchor="start" x="410.2" y="-994.6" font-family="Arial" font-size="14.00">    </text>
<text text-anchor="start" x="441.31" y="-994.6" font-family="Arial" font-size="14.00" fill="#666666">[BASE TABLE]</text>
<polygon fill="none" stroke="black" points="360.57,-950.4 360.57,-981.2 554.31,-981.2 554.31,-950.4 360.57,-950.4"/>
<text text-anchor="start" x="367.57" y="-962.6" font-family="Arial" font-size="14.00">id    </text>
<text text-anchor="start" x="409.58" y="-962.6" font-family="Arial" font-size="14.00" fill="#666666">[bigint]</text>
<polygon fill="none" stroke="black" points="360.57,-919.6 360.57,-950.4 554.31,-950.4 554.31,-919.6 360.57,-919.6"/>
<text text-anchor="start" x="367.57" y="-931.8" font-family="Arial" font-size="14.00">user_id    </text>
<text text-anchor="start" x="444.6" y="-931.8" font-family="Arial" font-size="14.00" fill="#666666">[int]</text>
<polygon fill="none" stroke="black" points="360.57,-888.8 360.57,-919.6 554.31,-919.6 554.31,-888.8 360.57,-888.8"/>
<text text-anchor="start" x="367.57" y="-901" font-family="Arial" font-size="14.00">post_id    </text>
<text text-anchor="start" x="443.83" y="-901" font-family="Arial" font-size="14.00" fill="#666666">[bigint]</text>
<polygon fill="none" stroke="black" points="360.57,-858 360.57,-888.8 554.31,-888.8 554.31,-858 360.57,-858"/>
<text text-anchor="start" x="367.57" y="-870.2" font-family="Arial" font-size="14.00">comment_id    </text>
<text text-anchor="start" x="474.94" y="-870.2" font-family="Arial" font-size="14.00" fill="#666666">[bigint]</text>
<polygon fill="none" stroke="black" points="360.57,-827.2 360.57,-858 554.31,-858 554.31,-827.2 360.57,-827.2"/>
<text text-anchor="start" x="367.57" y="-839.4" font-family="Arial" font-size="14.00">comment_star_id    </text>
<text text-anchor="start" x="506.06" y="-839.4" font-family="Arial" font-size="14.00" fill="#666666">[bigint]</text>
<polygon fill="none" stroke="black" points="360.57,-796.4 360.57,-827.2 554.31,-827.2 554.31,-796.4 360.57,-796.4"/>
<text text-anchor="start" x="367.57" y="-808.6" font-family="Arial" font-size="14.00">payload    </text>
<text text-anchor="start" x="447.72" y="-808.6" font-family="Arial" font-size="14.00" fill="#666666">[text]</text>
<polygon fill="none" stroke="black" points="360.57,-765.6 360.57,-796.4 554.31,-796.4 554.31,-765.6 360.57,-765.6"/>
<text text-anchor="start" x="367.57" y="-777.8" font-family="Arial" font-size="14.00">created    </text>
<text text-anchor="start" x="445.38" y="-777.8" font-family="Arial" font-size="14.00" fill="#666666">[datetime]</text>
</g>
<!-- logs&#45;&gt;posts -->
<g id="edge2" class="edge">
<title>logs:post_id&#45;&gt;posts:id</title>
<path fill="none" stroke="black" stroke-dasharray="5,2" d="M349.39,-903.53C282.26,-894.11 319.55,-787.77 360.57,-722.4 379.89,-691.6 414.62,-717.15 434.01,-686.4 457.06,-649.86 478.22,-589.2 435.01,-589.2"/>
<polygon fill="black" stroke="black" points="349.25,-903.52 358.94,-908.67 354.58,-903.87 358.9,-904.16 358.9,-904.16 358.9,-904.16 354.58,-903.87 359.53,-899.69 349.25,-903.52"/>
<text text-anchor="start" x="273.07" y="-888.2" font-family="Arial" font-size="10.00">Detected Relation</text>
</g>
</g>
</svg>
