<?xml version="1.0" encoding="UTF-8" standalone="no"?>
<!DOCTYPE svg PUBLIC "-//W3C//DTD SVG 1.1//EN"
 "http://www.w3.org/Graphics/SVG/1.1/DTD/svg11.dtd">
<!-- Generated by graphviz version 2.40.1 (20161225.0304)
 -->
<!-- Title: norelation Pages: 1 -->
<svg width="1249pt" height="1380pt"
 viewBox="0.00 0.00 1248.50 1380.00" xmlns="http://www.w3.org/2000/svg" xmlns:xlink="http://www.w3.org/1999/xlink">
<g id="graph0" class="graph" transform="scale(1 1) rotate(0) translate(4 1376)">
<title>norelation</title>
<polygon fill="#ffffff" stroke="transparent" points="-4,4 -4,-1376 1244.5,-1376 1244.5,4 -4,4"/>
<!-- CamelizeTable -->
<g id="node1" class="node">
<title>CamelizeTable</title>
<polygon fill="#efefef" stroke="transparent" points="84,-1218.5 84,-1253.5 315,-1253.5 315,-1218.5 84,-1218.5"/>
<polygon fill="none" stroke="#000000" points="84,-1218.5 84,-1253.5 315,-1253.5 315,-1218.5 84,-1218.5"/>
<text text-anchor="start" x="90.8719" y="-1231.3" font-family="Arial Bold" font-size="18.00" fill="#000000">CamelizeTable</text>
<text text-anchor="start" x="210.8743" y="-1231.3" font-family="Arial" font-size="14.00" fill="#000000"> </text>
<text text-anchor="start" x="214.7649" y="-1231.3" font-family="Arial" font-size="14.00" fill="#666666">[BASE TABLE]</text>
<polygon fill="none" stroke="#000000" points="84,-1188.5 84,-1218.5 315,-1218.5 315,-1188.5 84,-1188.5"/>
<text text-anchor="start" x="91" y="-1199.9" font-family="Arial" font-size="14.00" fill="#000000">id </text>
<text text-anchor="start" x="105.7798" y="-1199.9" font-family="Arial" font-size="14.00" fill="#666666">[bigint]</text>
<polygon fill="none" stroke="#000000" points="84,-1158.5 84,-1188.5 315,-1188.5 315,-1158.5 84,-1158.5"/>
<text text-anchor="start" x="91" y="-1169.9" font-family="Arial" font-size="14.00" fill="#000000">created </text>
<text text-anchor="start" x="141.5722" y="-1169.9" font-family="Arial" font-size="14.00" fill="#666666">[datetime]</text>
</g>
<!-- comment_stars -->
<g id="node2" class="node">
<title>comment_stars</title>
<polygon fill="#efefef" stroke="transparent" points="43,-574.5 43,-609.5 277,-609.5 277,-574.5 43,-574.5"/>
<polygon fill="none" stroke="#000000" points="43,-574.5 43,-609.5 277,-609.5 277,-574.5 43,-574.5"/>
<text text-anchor="start" x="49.8671" y="-587.3" font-family="Arial Bold" font-size="18.00" fill="#000000">comment_stars</text>
<text text-anchor="start" x="172.8791" y="-587.3" font-family="Arial" font-size="14.00" fill="#000000"> </text>
<text text-anchor="start" x="176.7697" y="-587.3" font-family="Arial" font-size="14.00" fill="#666666">[BASE TABLE]</text>
<polygon fill="none" stroke="#000000" points="43,-544.5 43,-574.5 277,-574.5 277,-544.5 43,-544.5"/>
<text text-anchor="start" x="50" y="-555.9" font-family="Arial" font-size="14.00" fill="#000000">id </text>
<text text-anchor="start" x="64.7798" y="-555.9" font-family="Arial" font-size="14.00" fill="#666666">[bigint]</text>
<polygon fill="none" stroke="#000000" points="43,-514.5 43,-544.5 277,-544.5 277,-514.5 43,-514.5"/>
<text text-anchor="start" x="50" y="-525.9" font-family="Arial" font-size="14.00" fill="#000000">user_id </text>
<text text-anchor="start" x="99.7882" y="-525.9" font-family="Arial" font-size="14.00" fill="#666666">[int]</text>
<polygon fill="none" stroke="#000000" points="43,-484.5 43,-514.5 277,-514.5 277,-484.5 43,-484.5"/>
<text text-anchor="start" x="50" y="-495.9" font-family="Arial" font-size="14.00" fill="#000000">comment_post_id </text>
<text text-anchor="start" x="164.3604" y="-495.9" font-family="Arial" font-size="14.00" fill="#666666">[bigint]</text>
<polygon fill="none" stroke="#000000" points="43,-454.5 43,-484.5 277,-484.5 277,-454.5 43,-454.5"/>
<text text-anchor="start" x="50" y="-465.9" font-family="Arial" font-size="14.00" fill="#000000">comment_user_id </text>
<text text-anchor="start" x="165.1304" y="-465.9" font-family="Arial" font-size="14.00" fill="#666666">[int]</text>
<polygon fill="none" stroke="#000000" points="43,-424.5 43,-454.5 277,-454.5 277,-424.5 43,-424.5"/>
<text text-anchor="start" x="50" y="-435.9" font-family="Arial" font-size="14.00" fill="#000000">created </text>
<text text-anchor="start" x="100.5722" y="-435.9" font-family="Arial" font-size="14.00" fill="#666666">[timestamp]</text>
<polygon fill="none" stroke="#000000" points="43,-394.5 43,-424.5 277,-424.5 277,-394.5 43,-394.5"/>
<text text-anchor="start" x="50" y="-405.9" font-family="Arial" font-size="14.00" fill="#000000">updated </text>
<text text-anchor="start" x="104.4768" y="-405.9" font-family="Arial" font-size="14.00" fill="#666666">[timestamp]</text>
</g>
<!-- users -->
<g id="node8" class="node">
<title>users</title>
<polygon fill="#efefef" stroke="transparent" points="535,-222.5 535,-257.5 694,-257.5 694,-222.5 535,-222.5"/>
<polygon fill="none" stroke="#000000" points="535,-222.5 535,-257.5 694,-257.5 694,-222.5 535,-222.5"/>
<text text-anchor="start" x="543.8708" y="-235.3" font-family="Arial Bold" font-size="18.00" fill="#000000">users</text>
<text text-anchor="start" x="587.8754" y="-235.3" font-family="Arial" font-size="14.00" fill="#000000"> </text>
<text text-anchor="start" x="591.766" y="-235.3" font-family="Arial" font-size="14.00" fill="#666666">[BASE TABLE]</text>
<polygon fill="none" stroke="#000000" points="535,-192.5 535,-222.5 694,-222.5 694,-192.5 535,-192.5"/>
<text text-anchor="start" x="542" y="-203.9" font-family="Arial" font-size="14.00" fill="#000000">id </text>
<text text-anchor="start" x="556.7798" y="-203.9" font-family="Arial" font-size="14.00" fill="#666666">[int]</text>
<polygon fill="none" stroke="#000000" points="535,-162.5 535,-192.5 694,-192.5 694,-162.5 535,-162.5"/>
<text text-anchor="start" x="541.7693" y="-173.9" font-family="Arial" font-size="14.00" fill="#000000">username </text>
<text text-anchor="start" x="607.8941" y="-173.9" font-family="Arial" font-size="14.00" fill="#666666">[varchar(50)]</text>
<polygon fill="none" stroke="#000000" points="535,-132.5 535,-162.5 694,-162.5 694,-132.5 535,-132.5"/>
<text text-anchor="start" x="542" y="-143.9" font-family="Arial" font-size="14.00" fill="#000000">password </text>
<text text-anchor="start" x="605.7882" y="-143.9" font-family="Arial" font-size="14.00" fill="#666666">[varchar(50)]</text>
<polygon fill="none" stroke="#000000" points="535,-102.5 535,-132.5 694,-132.5 694,-102.5 535,-102.5"/>
<text text-anchor="start" x="542" y="-113.9" font-family="Arial" font-size="14.00" fill="#000000">email </text>
<text text-anchor="start" x="579.3296" y="-113.9" font-family="Arial" font-size="14.00" fill="#666666">[varchar(355)]</text>
<polygon fill="none" stroke="#000000" points="535,-72.5 535,-102.5 694,-102.5 694,-72.5 535,-72.5"/>
<text text-anchor="start" x="542" y="-83.9" font-family="Arial" font-size="14.00" fill="#000000">created </text>
<text text-anchor="start" x="592.5722" y="-83.9" font-family="Arial" font-size="14.00" fill="#666666">[timestamp]</text>
<polygon fill="none" stroke="#000000" points="535,-42.5 535,-72.5 694,-72.5 694,-42.5 535,-42.5"/>
<text text-anchor="start" x="542" y="-53.9" font-family="Arial" font-size="14.00" fill="#000000">updated </text>
<text text-anchor="start" x="596.4768" y="-53.9" font-family="Arial" font-size="14.00" fill="#666666">[timestamp]</text>
</g>
<!-- comment_stars&#45;&gt;users -->
<g id="edge1" class="edge">
<title>comment_stars:user_id&#45;&gt;users:id</title>
<path fill="none" stroke="#000000" stroke-dasharray="5,2" d="M287.0287,-528.8999C358.5346,-519.6384 278.4707,-405.3346 329,-337 393.297,-250.0463 426.8563,-207.5 535,-207.5"/>
<polygon fill="#000000" stroke="#000000" points="286.9821,-528.9026 276.7312,-525.008 281.9911,-529.2013 277,-529.5 277,-529.5 277,-529.5 281.9911,-529.2013 277.2688,-533.992 286.9821,-528.9026 286.9821,-528.9026"/>
<text text-anchor="start" x="284.268" y="-539.5" font-family="Arial" font-size="10.00" fill="#000000">Detected Relation</text>
</g>
<!-- comments -->
<g id="node3" class="node">
<title>comments</title>
<polygon fill="#efefef" stroke="transparent" points="489,-926.5 489,-961.5 683,-961.5 683,-926.5 489,-926.5"/>
<polygon fill="none" stroke="#000000" points="489,-926.5 489,-961.5 683,-961.5 683,-926.5 489,-926.5"/>
<text text-anchor="start" x="495.8705" y="-939.3" font-family="Arial Bold" font-size="18.00" fill="#000000">comments</text>
<text text-anchor="start" x="578.8757" y="-939.3" font-family="Arial" font-size="14.00" fill="#000000"> </text>
<text text-anchor="start" x="582.7663" y="-939.3" font-family="Arial" font-size="14.00" fill="#666666">[BASE TABLE]</text>
<polygon fill="none" stroke="#000000" points="489,-896.5 489,-926.5 683,-926.5 683,-896.5 489,-896.5"/>
<text text-anchor="start" x="496" y="-907.9" font-family="Arial" font-size="14.00" fill="#000000">id </text>
<text text-anchor="start" x="510.7798" y="-907.9" font-family="Arial" font-size="14.00" fill="#666666">[bigint]</text>
<polygon fill="none" stroke="#000000" points="489,-866.5 489,-896.5 683,-896.5 683,-866.5 489,-866.5"/>
<text text-anchor="start" x="496" y="-877.9" font-family="Arial" font-size="14.00" fill="#000000">post_id </text>
<text text-anchor="start" x="545.0182" y="-877.9" font-family="Arial" font-size="14.00" fill="#666666">[bigint]</text>
<polygon fill="none" stroke="#000000" points="489,-836.5 489,-866.5 683,-866.5 683,-836.5 489,-836.5"/>
<text text-anchor="start" x="496" y="-847.9" font-family="Arial" font-size="14.00" fill="#000000">user_id </text>
<text text-anchor="start" x="545.7882" y="-847.9" font-family="Arial" font-size="14.00" fill="#666666">[int]</text>
<polygon fill="none" stroke="#000000" points="489,-806.5 489,-836.5 683,-836.5 683,-806.5 489,-806.5"/>
<text text-anchor="start" x="496" y="-817.9" font-family="Arial" font-size="14.00" fill="#000000">comment </text>
<text text-anchor="start" x="557.4502" y="-817.9" font-family="Arial" font-size="14.00" fill="#666666">[text]</text>
<polygon fill="none" stroke="#000000" points="489,-776.5 489,-806.5 683,-806.5 683,-776.5 489,-776.5"/>
<text text-anchor="start" x="496" y="-787.9" font-family="Arial" font-size="14.00" fill="#000000">created </text>
<text text-anchor="start" x="546.5722" y="-787.9" font-family="Arial" font-size="14.00" fill="#666666">[datetime]</text>
<polygon fill="none" stroke="#000000" points="489,-746.5 489,-776.5 683,-776.5 683,-746.5 489,-746.5"/>
<text text-anchor="start" x="496" y="-757.9" font-family="Arial" font-size="14.00" fill="#000000">updated </text>
<text text-anchor="start" x="550.4768" y="-757.9" font-family="Arial" font-size="14.00" fill="#666666">[datetime]</text>
</g>
<!-- posts -->
<g id="node7" class="node">
<title>posts</title>
<polygon fill="#efefef" stroke="transparent" points="382,-589.5 382,-624.5 645,-624.5 645,-589.5 382,-589.5"/>
<polygon fill="none" stroke="#000000" points="382,-589.5 382,-624.5 645,-624.5 645,-589.5 382,-589.5"/>
<text text-anchor="start" x="443.3658" y="-602.3" font-family="Arial Bold" font-size="18.00" fill="#000000">posts</text>
<text text-anchor="start" x="486.3804" y="-602.3" font-family="Arial" font-size="14.00" fill="#000000"> </text>
<text text-anchor="start" x="490.271" y="-602.3" font-family="Arial" font-size="14.00" fill="#666666">[BASE TABLE]</text>
<polygon fill="none" stroke="#000000" points="382,-559.5 382,-589.5 645,-589.5 645,-559.5 382,-559.5"/>
<text text-anchor="start" x="389" y="-570.9" font-family="Arial" font-size="14.00" fill="#000000">id </text>
<text text-anchor="start" x="403.7798" y="-570.9" font-family="Arial" font-size="14.00" fill="#666666">[bigint]</text>
<polygon fill="none" stroke="#000000" points="382,-529.5 382,-559.5 645,-559.5 645,-529.5 382,-529.5"/>
<text text-anchor="start" x="389" y="-540.9" font-family="Arial" font-size="14.00" fill="#000000">user_id </text>
<text text-anchor="start" x="438.7882" y="-540.9" font-family="Arial" font-size="14.00" fill="#666666">[int]</text>
<polygon fill="none" stroke="#000000" points="382,-499.5 382,-529.5 645,-529.5 645,-499.5 382,-499.5"/>
<text text-anchor="start" x="389" y="-510.9" font-family="Arial" font-size="14.00" fill="#000000">title </text>
<text text-anchor="start" x="414.6676" y="-510.9" font-family="Arial" font-size="14.00" fill="#666666">[varchar(255)]</text>
<polygon fill="none" stroke="#000000" points="382,-469.5 382,-499.5 645,-499.5 645,-469.5 382,-469.5"/>
<text text-anchor="start" x="389" y="-480.9" font-family="Arial" font-size="14.00" fill="#000000">body </text>
<text text-anchor="start" x="423.2384" y="-480.9" font-family="Arial" font-size="14.00" fill="#666666">[text]</text>
<polygon fill="none" stroke="#000000" points="382,-439.5 382,-469.5 645,-469.5 645,-439.5 382,-439.5"/>
<text text-anchor="start" x="388.697" y="-450.9" font-family="Arial" font-size="14.00" fill="#000000">post_type </text>
<text text-anchor="start" x="453.2818" y="-450.9" font-family="Arial" font-size="14.00" fill="#666666">[enum(&#39;public&#39;,&#39;private&#39;,&#39;draft&#39;)]</text>
<polygon fill="none" stroke="#000000" points="382,-409.5 382,-439.5 645,-439.5 645,-409.5 382,-409.5"/>
<text text-anchor="start" x="389" y="-420.9" font-family="Arial" font-size="14.00" fill="#000000">created </text>
<text text-anchor="start" x="439.5722" y="-420.9" font-family="Arial" font-size="14.00" fill="#666666">[datetime]</text>
<polygon fill="none" stroke="#000000" points="382,-379.5 382,-409.5 645,-409.5 645,-379.5 382,-379.5"/>
<text text-anchor="start" x="389" y="-390.9" font-family="Arial" font-size="14.00" fill="#000000">updated </text>
<text text-anchor="start" x="443.4768" y="-390.9" font-family="Arial" font-size="14.00" fill="#666666">[datetime]</text>
</g>
<!-- comments&#45;&gt;posts -->
<g id="edge2" class="edge">
<title>comments:post_id&#45;&gt;posts:id</title>
<path fill="none" stroke="#000000" stroke-dasharray="5,2" d="M479.0182,-880.8146C412.8254,-871.2084 442.0938,-762.9634 489,-704 533.298,-648.3152 600.702,-723.6848 645,-668 670.8705,-635.4795 686.5556,-574.5 645,-574.5"/>
<polygon fill="#000000" stroke="#000000" points="479.0235,-880.8148 488.6917,-885.9894 484.0117,-881.1574 489,-881.5 489,-881.5 489,-881.5 484.0117,-881.1574 489.3083,-877.0106 479.0235,-880.8148 479.0235,-880.8148"/>
<text text-anchor="start" x="403.268" y="-891.5" font-family="Arial" font-size="10.00" fill="#000000">Detected Relation</text>
</g>
<!-- comments&#45;&gt;users -->
<g id="edge3" class="edge">
<title>comments:user_id&#45;&gt;users:id</title>
<path fill="none" stroke="#000000" stroke-dasharray="5,2" d="M689.6042,-843.8189C720.0066,-771.1597 727.4767,-207.5 694,-207.5"/>
<polygon fill="#000000" stroke="#000000" points="689.5196,-843.9174 679.5878,-848.5662 686.2598,-847.7087 683,-851.5 683,-851.5 683,-851.5 686.2598,-847.7087 686.4122,-854.4338 689.5196,-843.9174 689.5196,-843.9174"/>
<text text-anchor="start" x="690.268" y="-861.5" font-family="Arial" font-size="10.00" fill="#000000">Detected Relation</text>
</g>
<!-- hyphen&#45;table -->
<g id="node4" class="node">
<title>hyphen&#45;table</title>
<polygon fill="#efefef" stroke="transparent" points="690,-1233.5 690,-1268.5 905,-1268.5 905,-1233.5 690,-1233.5"/>
<polygon fill="none" stroke="#000000" points="690,-1233.5 690,-1268.5 905,-1268.5 905,-1233.5 690,-1233.5"/>
<text text-anchor="start" x="696.854" y="-1246.3" font-family="Arial Bold" font-size="18.00" fill="#000000">hyphen&#45;table</text>
<text text-anchor="start" x="800.8922" y="-1246.3" font-family="Arial" font-size="14.00" fill="#000000"> </text>
<text text-anchor="start" x="804.7828" y="-1246.3" font-family="Arial" font-size="14.00" fill="#666666">[BASE TABLE]</text>
<polygon fill="none" stroke="#000000" points="690,-1203.5 690,-1233.5 905,-1233.5 905,-1203.5 690,-1203.5"/>
<text text-anchor="start" x="697" y="-1214.9" font-family="Arial" font-size="14.00" fill="#000000">id </text>
<text text-anchor="start" x="711.7798" y="-1214.9" font-family="Arial" font-size="14.00" fill="#666666">[bigint]</text>
<polygon fill="none" stroke="#000000" points="690,-1173.5 690,-1203.5 905,-1203.5 905,-1173.5 690,-1173.5"/>
<text text-anchor="start" x="697" y="-1184.9" font-family="Arial" font-size="14.00" fill="#000000">hyphen&#45;column </text>
<text text-anchor="start" x="796.5792" y="-1184.9" font-family="Arial" font-size="14.00" fill="#666666">[text]</text>
<polygon fill="none" stroke="#000000" points="690,-1143.5 690,-1173.5 905,-1173.5 905,-1143.5 690,-1143.5"/>
<text text-anchor="start" x="697" y="-1154.9" font-family="Arial" font-size="14.00" fill="#000000">created </text>
<text text-anchor="start" x="747.5722" y="-1154.9" font-family="Arial" font-size="14.00" fill="#666666">[datetime]</text>
</g>
<!-- logs -->
<g id="node5" class="node">
<title>logs</title>
<polygon fill="#efefef" stroke="transparent" points="419,-1293.5 419,-1328.5 585,-1328.5 585,-1293.5 419,-1293.5"/>
<polygon fill="none" stroke="#000000" points="419,-1293.5 419,-1328.5 585,-1328.5 585,-1293.5 419,-1293.5"/>
<text text-anchor="start" x="436.8698" y="-1306.3" font-family="Arial Bold" font-size="18.00" fill="#000000">logs</text>
<text text-anchor="start" x="469.8764" y="-1306.3" font-family="Arial" font-size="14.00" fill="#000000"> </text>
<text text-anchor="start" x="473.767" y="-1306.3" font-family="Arial" font-size="14.00" fill="#666666">[BASE TABLE]</text>
<polygon fill="none" stroke="#000000" points="419,-1263.5 419,-1293.5 585,-1293.5 585,-1263.5 419,-1263.5"/>
<text text-anchor="start" x="426" y="-1274.9" font-family="Arial" font-size="14.00" fill="#000000">id </text>
<text text-anchor="start" x="440.7798" y="-1274.9" font-family="Arial" font-size="14.00" fill="#666666">[bigint]</text>
<polygon fill="none" stroke="#000000" points="419,-1233.5 419,-1263.5 585,-1263.5 585,-1233.5 419,-1233.5"/>
<text text-anchor="start" x="426" y="-1244.9" font-family="Arial" font-size="14.00" fill="#000000">user_id </text>
<text text-anchor="start" x="475.7882" y="-1244.9" font-family="Arial" font-size="14.00" fill="#666666">[int]</text>
<polygon fill="none" stroke="#000000" points="419,-1203.5 419,-1233.5 585,-1233.5 585,-1203.5 419,-1203.5"/>
<text text-anchor="start" x="426" y="-1214.9" font-family="Arial" font-size="14.00" fill="#000000">post_id </text>
<text text-anchor="start" x="475.0182" y="-1214.9" font-family="Arial" font-size="14.00" fill="#666666">[bigint]</text>
<polygon fill="none" stroke="#000000" points="419,-1173.5 419,-1203.5 585,-1203.5 585,-1173.5 419,-1173.5"/>
<text text-anchor="start" x="426" y="-1184.9" font-family="Arial" font-size="14.00" fill="#000000">comment_id </text>
<text text-anchor="start" x="506.122" y="-1184.9" font-family="Arial" font-size="14.00" fill="#666666">[bigint]</text>
<polygon fill="none" stroke="#000000" points="419,-1143.5 419,-1173.5 585,-1173.5 585,-1143.5 419,-1143.5"/>
<text text-anchor="start" x="425.7644" y="-1154.9" font-family="Arial" font-size="14.00" fill="#000000">comment_star_id </text>
<text text-anchor="start" x="537.0028" y="-1154.9" font-family="Arial" font-size="14.00" fill="#666666">[bigint]</text>
<polygon fill="none" stroke="#000000" points="419,-1113.5 419,-1143.5 585,-1143.5 585,-1113.5 419,-1113.5"/>
<text text-anchor="start" x="426" y="-1124.9" font-family="Arial" font-size="14.00" fill="#000000">payload </text>
<text text-anchor="start" x="478.9102" y="-1124.9" font-family="Arial" font-size="14.00" fill="#666666">[text]</text>
<polygon fill="none" stroke="#000000" points="419,-1083.5 419,-1113.5 585,-1113.5 585,-1083.5 419,-1083.5"/>
<text text-anchor="start" x="426" y="-1094.9" font-family="Arial" font-size="14.00" fill="#000000">created </text>
<text text-anchor="start" x="476.5722" y="-1094.9" font-family="Arial" font-size="14.00" fill="#666666">[datetime]</text>
</g>
<!-- logs&#45;&gt;comment_stars -->
<g id="edge7" class="edge">
<title>logs:comment_star_id&#45;&gt;comment_stars:id</title>
<path fill="none" stroke="#000000" stroke-dasharray="5,2" d="M408.7826,-1157.8658C350.113,-1150.0422 382.2459,-1071.3253 364,-1005 350.6224,-956.3715 327.4351,-559.5 277,-559.5"/>
<polygon fill="#000000" stroke="#000000" points="409.0192,-1157.8804 418.7212,-1162.9914 414.0096,-1158.1902 419,-1158.5 419,-1158.5 419,-1158.5 414.0096,-1158.1902 419.2788,-1154.0086 409.0192,-1157.8804 409.0192,-1157.8804"/>
<text text-anchor="start" x="333.268" y="-1168.5" font-family="Arial" font-size="10.00" fill="#000000">Detected Relation</text>
</g>
<!-- logs&#45;&gt;comments -->
<g id="edge6" class="edge">
<title>logs:comment_id&#45;&gt;comments:id</title>
<path fill="none" stroke="#000000" stroke-dasharray="5,2" d="M595.2522,-1187.6232C647.33,-1178.0223 620.2251,-1091.8299 585,-1041 559.0447,-1003.5465 514.9553,-1042.4535 489,-1005 465.3302,-970.8444 447.4444,-911.5 489,-911.5"/>
<polygon fill="#000000" stroke="#000000" points="594.9636,-1187.6478 584.6165,-1184.0164 589.9818,-1188.0739 585,-1188.5 585,-1188.5 585,-1188.5 589.9818,-1188.0739 585.3835,-1192.9836 594.9636,-1187.6478 594.9636,-1187.6478"/>
<text text-anchor="start" x="592.268" y="-1198.5" font-family="Arial" font-size="10.00" fill="#000000">Detected Relation</text>
</g>
<!-- logs&#45;&gt;posts -->
<g id="edge5" class="edge">
<title>logs:post_id&#45;&gt;posts:id</title>
<path fill="none" stroke="#000000" stroke-dasharray="5,2" d="M412.0759,-1210.8189C378.6963,-1138.1597 348.473,-574.5 382,-574.5"/>
<polygon fill="#000000" stroke="#000000" points="412.3044,-1211.0724 415.6576,-1221.513 415.6522,-1214.7862 419,-1218.5 419,-1218.5 419,-1218.5 415.6522,-1214.7862 422.3424,-1215.487 412.3044,-1211.0724 412.3044,-1211.0724"/>
<text text-anchor="start" x="333.268" y="-1228.5" font-family="Arial" font-size="10.00" fill="#000000">Detected Relation</text>
</g>
<!-- logs&#45;&gt;users -->
<g id="edge4" class="edge">
<title>logs:user_id&#45;&gt;users:id</title>
<path fill="none" stroke="#000000" stroke-dasharray="5,2" d="M595.2403,-1247.8859C672.0033,-1237.9141 575.9285,-1108.9482 637,-1041 668.0179,-1006.4895 708.4419,-1043.0494 735,-1005 749.3268,-984.4742 733.5869,-377.2533 728,-337 719.8193,-278.0588 753.5062,-207.5 694,-207.5"/>
<polygon fill="#000000" stroke="#000000" points="594.9821,-1247.9013 584.7306,-1244.0081 589.991,-1248.2007 585,-1248.5 585,-1248.5 585,-1248.5 589.991,-1248.2007 585.2694,-1252.9919 594.9821,-1247.9013 594.9821,-1247.9013"/>
<text text-anchor="start" x="592.268" y="-1258.5" font-family="Arial" font-size="10.00" fill="#000000">Detected Relation</text>
</g>
<!-- post_comments -->
<g id="node6" class="node">
<title>post_comments</title>
<polygon fill="#efefef" stroke="transparent" points="1009,-1293.5 1009,-1328.5 1198,-1328.5 1198,-1293.5 1009,-1293.5"/>
<polygon fill="none" stroke="#000000" points="1009,-1293.5 1009,-1328.5 1198,-1328.5 1198,-1293.5 1009,-1293.5"/>
<text text-anchor="start" x="1016.2619" y="-1306.3" font-family="Arial Bold" font-size="18.00" fill="#000000">post_comments</text>
<text text-anchor="start" x="1143.2879" y="-1306.3" font-family="Arial" font-size="14.00" fill="#000000"> </text>
<text text-anchor="start" x="1147.1785" y="-1306.3" font-family="Arial" font-size="14.00" fill="#666666">[VIEW]</text>
<polygon fill="none" stroke="#000000" points="1009,-1263.5 1009,-1293.5 1198,-1293.5 1198,-1263.5 1009,-1263.5"/>
<text text-anchor="start" x="1016" y="-1274.9" font-family="Arial" font-size="14.00" fill="#000000">id </text>
<text text-anchor="start" x="1030.7798" y="-1274.9" font-family="Arial" font-size="14.00" fill="#666666">[bigint]</text>
<polygon fill="none" stroke="#000000" points="1009,-1233.5 1009,-1263.5 1198,-1263.5 1198,-1233.5 1009,-1233.5"/>
<text text-anchor="start" x="1016" y="-1244.9" font-family="Arial" font-size="14.00" fill="#000000">title </text>
<text text-anchor="start" x="1041.6676" y="-1244.9" font-family="Arial" font-size="14.00" fill="#666666">[varchar(255)]</text>
<polygon fill="none" stroke="#000000" points="1009,-1203.5 1009,-1233.5 1198,-1233.5 1198,-1203.5 1009,-1203.5"/>
<text text-anchor="start" x="1016" y="-1214.9" font-family="Arial" font-size="14.00" fill="#000000">post_user </text>
<text text-anchor="start" x="1081.3548" y="-1214.9" font-family="Arial" font-size="14.00" fill="#666666">[varchar(50)]</text>
<polygon fill="none" stroke="#000000" points="1009,-1173.5 1009,-1203.5 1198,-1203.5 1198,-1173.5 1009,-1173.5"/>
<text text-anchor="start" x="1016" y="-1184.9" font-family="Arial" font-size="14.00" fill="#000000">comment </text>
<text text-anchor="start" x="1077.4502" y="-1184.9" font-family="Arial" font-size="14.00" fill="#666666">[text]</text>
<polygon fill="none" stroke="#000000" points="1009,-1143.5 1009,-1173.5 1198,-1173.5 1198,-1143.5 1009,-1143.5"/>
<text text-anchor="start" x="1015.6024" y="-1154.9" font-family="Arial" font-size="14.00" fill="#000000">comment_user </text>
<text text-anchor="start" x="1112.061" y="-1154.9" font-family="Arial" font-size="14.00" fill="#666666">[varchar(50)]</text>
<polygon fill="none" stroke="#000000" points="1009,-1113.5 1009,-1143.5 1198,-1143.5 1198,-1113.5 1009,-1113.5"/>
<text text-anchor="start" x="1016" y="-1124.9" font-family="Arial" font-size="14.00" fill="#000000">created </text>
<text text-anchor="start" x="1066.5722" y="-1124.9" font-family="Arial" font-size="14.00" fill="#666666">[datetime]</text>
<polygon fill="none" stroke="#000000" points="1009,-1083.5 1009,-1113.5 1198,-1113.5 1198,-1083.5 1009,-1083.5"/>
<text text-anchor="start" x="1016" y="-1094.9" font-family="Arial" font-size="14.00" fill="#000000">updated </text>
<text text-anchor="start" x="1070.4768" y="-1094.9" font-family="Arial" font-size="14.00" fill="#666666">[datetime]</text>
</g>
<!-- posts&#45;&gt;users -->
<g id="edge8" class="edge">
<title>posts:user_id&#45;&gt;users:id</title>
<path fill="none" stroke="#000000" stroke-dasharray="5,2" d="M655.2176,-543.9033C734.2216,-534.2112 697.0131,-408.7503 645,-337 614.8083,-295.3516 565.1917,-342.6484 535,-301 510.61,-267.3549 493.4444,-207.5 535,-207.5"/>
<polygon fill="#000000" stroke="#000000" points="654.983,-543.9169 644.7376,-540.0077 649.9915,-544.2085 645,-544.5 645,-544.5 645,-544.5 649.9915,-544.2085 645.2624,-548.9923 654.983,-543.9169 654.983,-543.9169"/>
<text text-anchor="start" x="652.268" y="-554.5" font-family="Arial" font-size="10.00" fill="#000000">Detected Relation</text>
</g>
</g>
</svg>
