<?xml version="1.0" encoding="UTF-8" standalone="no"?>
<!DOCTYPE svg PUBLIC "-//W3C//DTD SVG 1.1//EN"
 "http://www.w3.org/Graphics/SVG/1.1/DTD/svg11.dtd">
<!-- Generated by graphviz version 2.40.1 (20161225.0304)
 -->
<!-- Title: relations Pages: 1 -->
<svg width="1330pt" height="1380pt"
 viewBox="0.00 0.00 1329.50 1380.00" xmlns="http://www.w3.org/2000/svg" xmlns:xlink="http://www.w3.org/1999/xlink">
<g id="graph0" class="graph" transform="scale(1 1) rotate(0) translate(4 1376)">
<title>relations</title>
<polygon fill="#ffffff" stroke="transparent" points="-4,4 -4,-1376 1325.5,-1376 1325.5,4 -4,4"/>
<!-- CamelizeTable -->
<g id="node1" class="node">
<title>CamelizeTable</title>
<polygon fill="#efefef" stroke="transparent" points="43.5,-1218.5 43.5,-1253.5 304.5,-1253.5 304.5,-1218.5 43.5,-1218.5"/>
<polygon fill="none" stroke="#000000" points="43.5,-1218.5 43.5,-1253.5 304.5,-1253.5 304.5,-1218.5 43.5,-1218.5"/>
<text text-anchor="start" x="50.2148" y="-1231.3" font-family="Arial Bold" font-size="18.00" fill="#000000">CamelizeTable</text>
<text text-anchor="start" x="170.2172" y="-1231.3" font-family="Arial" font-size="14.00" fill="#000000">    </text>
<text text-anchor="start" x="204.422" y="-1231.3" font-family="Arial" font-size="14.00" fill="#666666">[BASE TABLE]</text>
<polygon fill="none" stroke="#000000" points="43.5,-1188.5 43.5,-1218.5 304.5,-1218.5 304.5,-1188.5 43.5,-1188.5"/>
<text text-anchor="start" x="50.5" y="-1199.9" font-family="Arial" font-size="14.00" fill="#000000">id    </text>
<text text-anchor="start" x="95.594" y="-1199.9" font-family="Arial" font-size="14.00" fill="#666666">[bigint]</text>
<polygon fill="none" stroke="#000000" points="43.5,-1158.5 43.5,-1188.5 304.5,-1188.5 304.5,-1158.5 43.5,-1158.5"/>
<text text-anchor="start" x="50.5" y="-1169.9" font-family="Arial" font-size="14.00" fill="#000000">created    </text>
<text text-anchor="start" x="131.3864" y="-1169.9" font-family="Arial" font-size="14.00" fill="#666666">[datetime]</text>
</g>
<!-- comment_stars -->
<g id="node2" class="node">
<title>comment_stars</title>
<polygon fill="#efefef" stroke="transparent" points="80.5,-926.5 80.5,-961.5 344.5,-961.5 344.5,-926.5 80.5,-926.5"/>
<polygon fill="none" stroke="#000000" points="80.5,-926.5 80.5,-961.5 344.5,-961.5 344.5,-926.5 80.5,-926.5"/>
<text text-anchor="start" x="87.21" y="-939.3" font-family="Arial Bold" font-size="18.00" fill="#000000">comment_stars</text>
<text text-anchor="start" x="210.222" y="-939.3" font-family="Arial" font-size="14.00" fill="#000000">    </text>
<text text-anchor="start" x="244.4268" y="-939.3" font-family="Arial" font-size="14.00" fill="#666666">[BASE TABLE]</text>
<polygon fill="none" stroke="#000000" points="80.5,-896.5 80.5,-926.5 344.5,-926.5 344.5,-896.5 80.5,-896.5"/>
<text text-anchor="start" x="87.5" y="-907.9" font-family="Arial" font-size="14.00" fill="#000000">id    </text>
<text text-anchor="start" x="132.594" y="-907.9" font-family="Arial" font-size="14.00" fill="#666666">[bigint]</text>
<polygon fill="none" stroke="#000000" points="80.5,-866.5 80.5,-896.5 344.5,-896.5 344.5,-866.5 80.5,-866.5"/>
<text text-anchor="start" x="87.5" y="-877.9" font-family="Arial" font-size="14.00" fill="#000000">user_id    </text>
<text text-anchor="start" x="167.6024" y="-877.9" font-family="Arial" font-size="14.00" fill="#666666">[int]</text>
<polygon fill="none" stroke="#000000" points="80.5,-836.5 80.5,-866.5 344.5,-866.5 344.5,-836.5 80.5,-836.5"/>
<text text-anchor="start" x="87.5" y="-847.9" font-family="Arial" font-size="14.00" fill="#000000">comment_post_id    </text>
<text text-anchor="start" x="232.1746" y="-847.9" font-family="Arial" font-size="14.00" fill="#666666">[bigint]</text>
<polygon fill="none" stroke="#000000" points="80.5,-806.5 80.5,-836.5 344.5,-836.5 344.5,-806.5 80.5,-806.5"/>
<text text-anchor="start" x="87.5" y="-817.9" font-family="Arial" font-size="14.00" fill="#000000">comment_user_id    </text>
<text text-anchor="start" x="232.9446" y="-817.9" font-family="Arial" font-size="14.00" fill="#666666">[int]</text>
<polygon fill="none" stroke="#000000" points="80.5,-776.5 80.5,-806.5 344.5,-806.5 344.5,-776.5 80.5,-776.5"/>
<text text-anchor="start" x="87.5" y="-787.9" font-family="Arial" font-size="14.00" fill="#000000">created    </text>
<text text-anchor="start" x="168.3864" y="-787.9" font-family="Arial" font-size="14.00" fill="#666666">[timestamp]</text>
<polygon fill="none" stroke="#000000" points="80.5,-746.5 80.5,-776.5 344.5,-776.5 344.5,-746.5 80.5,-746.5"/>
<text text-anchor="start" x="87.5" y="-757.9" font-family="Arial" font-size="14.00" fill="#000000">updated    </text>
<text text-anchor="start" x="172.291" y="-757.9" font-family="Arial" font-size="14.00" fill="#666666">[timestamp]</text>
</g>
<!-- users -->
<g id="node9" class="node">
<title>users</title>
<polygon fill="#efefef" stroke="transparent" points="601.5,-222.5 601.5,-257.5 790.5,-257.5 790.5,-222.5 601.5,-222.5"/>
<polygon fill="none" stroke="#000000" points="601.5,-222.5 601.5,-257.5 790.5,-257.5 790.5,-222.5 601.5,-222.5"/>
<text text-anchor="start" x="610.2137" y="-235.3" font-family="Arial Bold" font-size="18.00" fill="#000000">users</text>
<text text-anchor="start" x="654.2183" y="-235.3" font-family="Arial" font-size="14.00" fill="#000000">    </text>
<text text-anchor="start" x="688.4231" y="-235.3" font-family="Arial" font-size="14.00" fill="#666666">[BASE TABLE]</text>
<polygon fill="none" stroke="#000000" points="601.5,-192.5 601.5,-222.5 790.5,-222.5 790.5,-192.5 601.5,-192.5"/>
<text text-anchor="start" x="608.5" y="-203.9" font-family="Arial" font-size="14.00" fill="#000000">id    </text>
<text text-anchor="start" x="653.594" y="-203.9" font-family="Arial" font-size="14.00" fill="#666666">[int]</text>
<polygon fill="none" stroke="#000000" points="601.5,-162.5 601.5,-192.5 790.5,-192.5 790.5,-162.5 601.5,-162.5"/>
<text text-anchor="start" x="608.1122" y="-173.9" font-family="Arial" font-size="14.00" fill="#000000">username    </text>
<text text-anchor="start" x="704.5512" y="-173.9" font-family="Arial" font-size="14.00" fill="#666666">[varchar(50)]</text>
<polygon fill="none" stroke="#000000" points="601.5,-132.5 601.5,-162.5 790.5,-162.5 790.5,-132.5 601.5,-132.5"/>
<text text-anchor="start" x="608.5" y="-143.9" font-family="Arial" font-size="14.00" fill="#000000">password    </text>
<text text-anchor="start" x="702.6024" y="-143.9" font-family="Arial" font-size="14.00" fill="#666666">[varchar(50)]</text>
<polygon fill="none" stroke="#000000" points="601.5,-102.5 601.5,-132.5 790.5,-132.5 790.5,-102.5 601.5,-102.5"/>
<text text-anchor="start" x="608.5" y="-113.9" font-family="Arial" font-size="14.00" fill="#000000">email    </text>
<text text-anchor="start" x="676.1438" y="-113.9" font-family="Arial" font-size="14.00" fill="#666666">[varchar(355)]</text>
<polygon fill="none" stroke="#000000" points="601.5,-72.5 601.5,-102.5 790.5,-102.5 790.5,-72.5 601.5,-72.5"/>
<text text-anchor="start" x="608.5" y="-83.9" font-family="Arial" font-size="14.00" fill="#000000">created    </text>
<text text-anchor="start" x="689.3864" y="-83.9" font-family="Arial" font-size="14.00" fill="#666666">[timestamp]</text>
<polygon fill="none" stroke="#000000" points="601.5,-42.5 601.5,-72.5 790.5,-72.5 790.5,-42.5 601.5,-42.5"/>
<text text-anchor="start" x="608.5" y="-53.9" font-family="Arial" font-size="14.00" fill="#000000">updated    </text>
<text text-anchor="start" x="693.291" y="-53.9" font-family="Arial" font-size="14.00" fill="#666666">[timestamp]</text>
</g>
<!-- comment_stars&#45;&gt;users -->
<g id="edge2" class="edge">
<title>comment_stars:user_id&#45;&gt;users:id</title>
<path fill="none" stroke="#000000" stroke-dasharray="5,2" d="M354.8297,-880.7935C419.7452,-871.3225 382.6738,-768.78 344.5,-704 327.7341,-675.5487 296.2659,-696.4513 279.5,-668 204.813,-541.258 197.1394,-458.8951 279.5,-337 365.858,-209.1887 447.2488,-207.5 601.5,-207.5"/>
<polygon fill="#000000" stroke="#000000" points="354.4767,-880.8176 344.1929,-877.0105 349.4883,-881.1588 344.5,-881.5 344.5,-881.5 344.5,-881.5 349.4883,-881.1588 344.8071,-885.9895 354.4767,-880.8176 354.4767,-880.8176"/>
<text text-anchor="start" x="351.768" y="-891.5" font-family="Arial" font-size="10.00" fill="#000000">Detected Relation</text>
</g>
<!-- comments -->
<g id="node3" class="node">
<title>comments</title>
<polygon fill="#efefef" stroke="transparent" points="486.5,-926.5 486.5,-961.5 710.5,-961.5 710.5,-926.5 486.5,-926.5"/>
<polygon fill="none" stroke="#000000" points="486.5,-926.5 486.5,-961.5 710.5,-961.5 710.5,-926.5 486.5,-926.5"/>
<text text-anchor="start" x="493.2134" y="-939.3" font-family="Arial Bold" font-size="18.00" fill="#000000">comments</text>
<text text-anchor="start" x="576.2186" y="-939.3" font-family="Arial" font-size="14.00" fill="#000000">    </text>
<text text-anchor="start" x="610.4234" y="-939.3" font-family="Arial" font-size="14.00" fill="#666666">[BASE TABLE]</text>
<polygon fill="none" stroke="#000000" points="486.5,-896.5 486.5,-926.5 710.5,-926.5 710.5,-896.5 486.5,-896.5"/>
<text text-anchor="start" x="493.5" y="-907.9" font-family="Arial" font-size="14.00" fill="#000000">id    </text>
<text text-anchor="start" x="538.594" y="-907.9" font-family="Arial" font-size="14.00" fill="#666666">[bigint]</text>
<polygon fill="none" stroke="#000000" points="486.5,-866.5 486.5,-896.5 710.5,-896.5 710.5,-866.5 486.5,-866.5"/>
<text text-anchor="start" x="493.5" y="-877.9" font-family="Arial" font-size="14.00" fill="#000000">post_id    </text>
<text text-anchor="start" x="572.8324" y="-877.9" font-family="Arial" font-size="14.00" fill="#666666">[bigint]</text>
<polygon fill="none" stroke="#000000" points="486.5,-836.5 486.5,-866.5 710.5,-866.5 710.5,-836.5 486.5,-836.5"/>
<text text-anchor="start" x="493.5" y="-847.9" font-family="Arial" font-size="14.00" fill="#000000">user_id    </text>
<text text-anchor="start" x="573.6024" y="-847.9" font-family="Arial" font-size="14.00" fill="#666666">[int]</text>
<polygon fill="none" stroke="#000000" points="486.5,-806.5 486.5,-836.5 710.5,-836.5 710.5,-806.5 486.5,-806.5"/>
<text text-anchor="start" x="493.5" y="-817.9" font-family="Arial" font-size="14.00" fill="#000000">comment    </text>
<text text-anchor="start" x="585.2644" y="-817.9" font-family="Arial" font-size="14.00" fill="#666666">[text]</text>
<polygon fill="none" stroke="#000000" points="486.5,-776.5 486.5,-806.5 710.5,-806.5 710.5,-776.5 486.5,-776.5"/>
<text text-anchor="start" x="493.5" y="-787.9" font-family="Arial" font-size="14.00" fill="#000000">created    </text>
<text text-anchor="start" x="574.3864" y="-787.9" font-family="Arial" font-size="14.00" fill="#666666">[datetime]</text>
<polygon fill="none" stroke="#000000" points="486.5,-746.5 486.5,-776.5 710.5,-776.5 710.5,-746.5 486.5,-746.5"/>
<text text-anchor="start" x="493.5" y="-757.9" font-family="Arial" font-size="14.00" fill="#000000">updated    </text>
<text text-anchor="start" x="578.291" y="-757.9" font-family="Arial" font-size="14.00" fill="#666666">[datetime]</text>
</g>
<!-- posts -->
<g id="node7" class="node">
<title>posts</title>
<polygon fill="#efefef" stroke="transparent" points="332.5,-589.5 332.5,-624.5 625.5,-624.5 625.5,-589.5 332.5,-589.5"/>
<polygon fill="none" stroke="#000000" points="332.5,-589.5 332.5,-624.5 625.5,-624.5 625.5,-589.5 332.5,-589.5"/>
<text text-anchor="start" x="393.7087" y="-602.3" font-family="Arial Bold" font-size="18.00" fill="#000000">posts</text>
<text text-anchor="start" x="436.7233" y="-602.3" font-family="Arial" font-size="14.00" fill="#000000">    </text>
<text text-anchor="start" x="470.9281" y="-602.3" font-family="Arial" font-size="14.00" fill="#666666">[BASE TABLE]</text>
<polygon fill="none" stroke="#000000" points="332.5,-559.5 332.5,-589.5 625.5,-589.5 625.5,-559.5 332.5,-559.5"/>
<text text-anchor="start" x="339.5" y="-570.9" font-family="Arial" font-size="14.00" fill="#000000">id    </text>
<text text-anchor="start" x="384.594" y="-570.9" font-family="Arial" font-size="14.00" fill="#666666">[bigint]</text>
<polygon fill="none" stroke="#000000" points="332.5,-529.5 332.5,-559.5 625.5,-559.5 625.5,-529.5 332.5,-529.5"/>
<text text-anchor="start" x="339.5" y="-540.9" font-family="Arial" font-size="14.00" fill="#000000">user_id    </text>
<text text-anchor="start" x="419.6024" y="-540.9" font-family="Arial" font-size="14.00" fill="#666666">[int]</text>
<polygon fill="none" stroke="#000000" points="332.5,-499.5 332.5,-529.5 625.5,-529.5 625.5,-499.5 332.5,-499.5"/>
<text text-anchor="start" x="339.5" y="-510.9" font-family="Arial" font-size="14.00" fill="#000000">title    </text>
<text text-anchor="start" x="395.4818" y="-510.9" font-family="Arial" font-size="14.00" fill="#666666">[varchar(255)]</text>
<polygon fill="none" stroke="#000000" points="332.5,-469.5 332.5,-499.5 625.5,-499.5 625.5,-469.5 332.5,-469.5"/>
<text text-anchor="start" x="339.5" y="-480.9" font-family="Arial" font-size="14.00" fill="#000000">body    </text>
<text text-anchor="start" x="404.0526" y="-480.9" font-family="Arial" font-size="14.00" fill="#666666">[text]</text>
<polygon fill="none" stroke="#000000" points="332.5,-439.5 332.5,-469.5 625.5,-469.5 625.5,-439.5 332.5,-439.5"/>
<text text-anchor="start" x="339.0399" y="-450.9" font-family="Arial" font-size="14.00" fill="#000000">post_type    </text>
<text text-anchor="start" x="433.9389" y="-450.9" font-family="Arial" font-size="14.00" fill="#666666">[enum(&#39;public&#39;,&#39;private&#39;,&#39;draft&#39;)]</text>
<polygon fill="none" stroke="#000000" points="332.5,-409.5 332.5,-439.5 625.5,-439.5 625.5,-409.5 332.5,-409.5"/>
<text text-anchor="start" x="339.5" y="-420.9" font-family="Arial" font-size="14.00" fill="#000000">created    </text>
<text text-anchor="start" x="420.3864" y="-420.9" font-family="Arial" font-size="14.00" fill="#666666">[datetime]</text>
<polygon fill="none" stroke="#000000" points="332.5,-379.5 332.5,-409.5 625.5,-409.5 625.5,-379.5 332.5,-379.5"/>
<text text-anchor="start" x="339.5" y="-390.9" font-family="Arial" font-size="14.00" fill="#000000">updated    </text>
<text text-anchor="start" x="424.291" y="-390.9" font-family="Arial" font-size="14.00" fill="#666666">[datetime]</text>
</g>
<!-- comments&#45;&gt;posts -->
<g id="edge3" class="edge">
<title>comments:post_id&#45;&gt;posts:id</title>
<path fill="none" stroke="#000000" stroke-dasharray="5,2" d="M476.523,-880.8183C410.3963,-871.2641 440.3829,-763.5827 486.5,-704 525.5604,-653.5344 586.4396,-718.4656 625.5,-668 650.9353,-635.138 667.0556,-574.5 625.5,-574.5"/>
<polygon fill="#000000" stroke="#000000" points="476.5233,-880.8182 486.1932,-885.9895 481.5116,-881.1591 486.5,-881.5 486.5,-881.5 486.5,-881.5 481.5116,-881.1591 486.8068,-877.0105 476.5233,-880.8182 476.5233,-880.8182"/>
<text text-anchor="start" x="400.768" y="-865.5" font-family="Arial" font-size="10.00" fill="#000000">Detected Relation</text>
</g>
<!-- comments&#45;&gt;users -->
<g id="edge4" class="edge">
<title>comments:user_id&#45;&gt;users:id</title>
<path fill="none" stroke="#000000" stroke-dasharray="5,2" d="M719.5515,-847.2276C765.9131,-800.6632 749.4346,-388.1629 767.5,-337 773.8216,-319.0966 785.1752,-319.2247 790.5,-301 802.1542,-261.1121 832.0556,-207.5 790.5,-207.5"/>
<polygon fill="#000000" stroke="#000000" points="719.5432,-847.2315 708.5792,-847.4305 715.0216,-849.3657 710.5,-851.5 710.5,-851.5 710.5,-851.5 715.0216,-849.3657 712.4208,-855.5695 719.5432,-847.2315 719.5432,-847.2315"/>
<text text-anchor="start" x="717.768" y="-861.5" font-family="Arial" font-size="10.00" fill="#000000">Detected Relation</text>
</g>
<!-- hyphen&#45;table -->
<g id="node4" class="node">
<title>hyphen&#45;table</title>
<polygon fill="#efefef" stroke="transparent" points="709.5,-1233.5 709.5,-1268.5 954.5,-1268.5 954.5,-1233.5 709.5,-1233.5"/>
<polygon fill="none" stroke="#000000" points="709.5,-1233.5 709.5,-1268.5 954.5,-1268.5 954.5,-1233.5 709.5,-1233.5"/>
<text text-anchor="start" x="716.1969" y="-1246.3" font-family="Arial Bold" font-size="18.00" fill="#000000">hyphen&#45;table</text>
<text text-anchor="start" x="820.2351" y="-1246.3" font-family="Arial" font-size="14.00" fill="#000000">    </text>
<text text-anchor="start" x="854.4399" y="-1246.3" font-family="Arial" font-size="14.00" fill="#666666">[BASE TABLE]</text>
<polygon fill="none" stroke="#000000" points="709.5,-1203.5 709.5,-1233.5 954.5,-1233.5 954.5,-1203.5 709.5,-1203.5"/>
<text text-anchor="start" x="716.5" y="-1214.9" font-family="Arial" font-size="14.00" fill="#000000">id    </text>
<text text-anchor="start" x="761.594" y="-1214.9" font-family="Arial" font-size="14.00" fill="#666666">[bigint]</text>
<polygon fill="none" stroke="#000000" points="709.5,-1173.5 709.5,-1203.5 954.5,-1203.5 954.5,-1173.5 709.5,-1173.5"/>
<text text-anchor="start" x="716.5" y="-1184.9" font-family="Arial" font-size="14.00" fill="#000000">hyphen&#45;column    </text>
<text text-anchor="start" x="846.3934" y="-1184.9" font-family="Arial" font-size="14.00" fill="#666666">[text]</text>
<polygon fill="none" stroke="#000000" points="709.5,-1143.5 709.5,-1173.5 954.5,-1173.5 954.5,-1143.5 709.5,-1143.5"/>
<text text-anchor="start" x="716.5" y="-1154.9" font-family="Arial" font-size="14.00" fill="#000000">created    </text>
<text text-anchor="start" x="797.3864" y="-1154.9" font-family="Arial" font-size="14.00" fill="#666666">[datetime]</text>
</g>
<!-- logs -->
<g id="node5" class="node">
<title>logs</title>
<polygon fill="#efefef" stroke="transparent" points="408.5,-1293.5 408.5,-1328.5 604.5,-1328.5 604.5,-1293.5 408.5,-1293.5"/>
<polygon fill="none" stroke="#000000" points="408.5,-1293.5 408.5,-1328.5 604.5,-1328.5 604.5,-1293.5 408.5,-1293.5"/>
<text text-anchor="start" x="426.2127" y="-1306.3" font-family="Arial Bold" font-size="18.00" fill="#000000">logs</text>
<text text-anchor="start" x="459.2193" y="-1306.3" font-family="Arial" font-size="14.00" fill="#000000">    </text>
<text text-anchor="start" x="493.4241" y="-1306.3" font-family="Arial" font-size="14.00" fill="#666666">[BASE TABLE]</text>
<polygon fill="none" stroke="#000000" points="408.5,-1263.5 408.5,-1293.5 604.5,-1293.5 604.5,-1263.5 408.5,-1263.5"/>
<text text-anchor="start" x="415.5" y="-1274.9" font-family="Arial" font-size="14.00" fill="#000000">id    </text>
<text text-anchor="start" x="460.594" y="-1274.9" font-family="Arial" font-size="14.00" fill="#666666">[bigint]</text>
<polygon fill="none" stroke="#000000" points="408.5,-1233.5 408.5,-1263.5 604.5,-1263.5 604.5,-1233.5 408.5,-1233.5"/>
<text text-anchor="start" x="415.5" y="-1244.9" font-family="Arial" font-size="14.00" fill="#000000">user_id    </text>
<text text-anchor="start" x="495.6024" y="-1244.9" font-family="Arial" font-size="14.00" fill="#666666">[int]</text>
<polygon fill="none" stroke="#000000" points="408.5,-1203.5 408.5,-1233.5 604.5,-1233.5 604.5,-1203.5 408.5,-1203.5"/>
<text text-anchor="start" x="415.5" y="-1214.9" font-family="Arial" font-size="14.00" fill="#000000">post_id    </text>
<text text-anchor="start" x="494.8324" y="-1214.9" font-family="Arial" font-size="14.00" fill="#666666">[bigint]</text>
<polygon fill="none" stroke="#000000" points="408.5,-1173.5 408.5,-1203.5 604.5,-1203.5 604.5,-1173.5 408.5,-1173.5"/>
<text text-anchor="start" x="415.5" y="-1184.9" font-family="Arial" font-size="14.00" fill="#000000">comment_id    </text>
<text text-anchor="start" x="525.9362" y="-1184.9" font-family="Arial" font-size="14.00" fill="#666666">[bigint]</text>
<polygon fill="none" stroke="#000000" points="408.5,-1143.5 408.5,-1173.5 604.5,-1173.5 604.5,-1143.5 408.5,-1143.5"/>
<text text-anchor="start" x="415.1073" y="-1154.9" font-family="Arial" font-size="14.00" fill="#000000">comment_star_id    </text>
<text text-anchor="start" x="556.6599" y="-1154.9" font-family="Arial" font-size="14.00" fill="#666666">[bigint]</text>
<polygon fill="none" stroke="#000000" points="408.5,-1113.5 408.5,-1143.5 604.5,-1143.5 604.5,-1113.5 408.5,-1113.5"/>
<text text-anchor="start" x="415.5" y="-1124.9" font-family="Arial" font-size="14.00" fill="#000000">payload    </text>
<text text-anchor="start" x="498.7244" y="-1124.9" font-family="Arial" font-size="14.00" fill="#666666">[text]</text>
<polygon fill="none" stroke="#000000" points="408.5,-1083.5 408.5,-1113.5 604.5,-1113.5 604.5,-1083.5 408.5,-1083.5"/>
<text text-anchor="start" x="415.5" y="-1094.9" font-family="Arial" font-size="14.00" fill="#000000">created    </text>
<text text-anchor="start" x="496.3864" y="-1094.9" font-family="Arial" font-size="14.00" fill="#666666">[datetime]</text>
</g>
<!-- logs&#45;&gt;comment_stars -->
<g id="edge8" class="edge">
<title>logs:comment_star_id&#45;&gt;comment_stars:id</title>
<path fill="none" stroke="#000000" stroke-dasharray="5,2" d="M398.3783,-1157.747C305.3035,-1142.8366 454.2484,-911.5 344.5,-911.5"/>
<polygon fill="#000000" stroke="#000000" points="398.5276,-1157.758 408.1661,-1162.9876 403.5138,-1158.129 408.5,-1158.5 408.5,-1158.5 408.5,-1158.5 403.5138,-1158.129 408.8339,-1154.0124 398.5276,-1157.758 398.5276,-1157.758"/>
<text text-anchor="start" x="322.768" y="-1168.5" font-family="Arial" font-size="10.00" fill="#000000">Detected Relation</text>
</g>
<!-- logs&#45;&gt;comments -->
<g id="edge7" class="edge">
<title>logs:comment_id&#45;&gt;comments:id</title>
<path fill="none" stroke="#000000" stroke-dasharray="5,2" d="M614.7674,-1187.6123C667.0084,-1177.8945 641.3,-1090.7016 604.5,-1041 571.8724,-996.9335 519.1276,-1049.0665 486.5,-1005 461.7719,-971.6026 444.9444,-911.5 486.5,-911.5"/>
<polygon fill="#000000" stroke="#000000" points="614.4628,-1187.6386 604.1124,-1184.0167 609.4814,-1188.0693 604.5,-1188.5 604.5,-1188.5 604.5,-1188.5 609.4814,-1188.0693 604.8876,-1192.9833 614.4628,-1187.6386 614.4628,-1187.6386"/>
<text text-anchor="start" x="611.768" y="-1198.5" font-family="Arial" font-size="10.00" fill="#000000">Detected Relation</text>
</g>
<!-- logs&#45;&gt;posts -->
<g id="edge6" class="edge">
<title>logs:post_id&#45;&gt;posts:id</title>
<path fill="none" stroke="#000000" stroke-dasharray="5,2" d="M402.8453,-1209.9836C384.5204,-1144.7801 410.0708,-726.5953 396.5,-704 379.6967,-676.0226 348.976,-696.1714 332.5,-668 311.5208,-632.1289 290.9444,-574.5 332.5,-574.5"/>
<polygon fill="#000000" stroke="#000000" points="402.9685,-1210.1692 404.7511,-1220.9892 405.7342,-1214.3346 408.5,-1218.5 408.5,-1218.5 408.5,-1218.5 405.7342,-1214.3346 412.2489,-1216.0108 402.9685,-1210.1692 402.9685,-1210.1692"/>
<text text-anchor="start" x="322.768" y="-1228.5" font-family="Arial" font-size="10.00" fill="#000000">Detected Relation</text>
</g>
<!-- logs&#45;&gt;users -->
<g id="edge5" class="edge">
<title>logs:user_id&#45;&gt;users:id</title>
<path fill="none" stroke="#000000" stroke-dasharray="5,2" d="M614.7365,-1247.8825C691.4383,-1237.8549 594.5959,-1108.1905 656.5,-1041 690.2124,-1004.4086 732.7244,-1044.8606 762.5,-1005 775.7657,-987.2413 812.6664,-207.5 790.5,-207.5"/>
<polygon fill="#000000" stroke="#000000" points="614.4819,-1247.8977 604.229,-1244.0082 609.4909,-1248.1989 604.5,-1248.5 604.5,-1248.5 604.5,-1248.5 609.4909,-1248.1989 604.771,-1252.9918 614.4819,-1247.8977 614.4819,-1247.8977"/>
<text text-anchor="start" x="611.768" y="-1258.5" font-family="Arial" font-size="10.00" fill="#000000">Detected Relation</text>
</g>
<!-- post_comments -->
<g id="node6" class="node">
<title>post_comments</title>
<polygon fill="#efefef" stroke="transparent" points="1058.5,-1293.5 1058.5,-1328.5 1278.5,-1328.5 1278.5,-1293.5 1058.5,-1293.5"/>
<polygon fill="none" stroke="#000000" points="1058.5,-1293.5 1058.5,-1328.5 1278.5,-1328.5 1278.5,-1293.5 1058.5,-1293.5"/>
<text text-anchor="start" x="1066.1048" y="-1306.3" font-family="Arial Bold" font-size="18.00" fill="#000000">post_comments</text>
<text text-anchor="start" x="1193.1308" y="-1306.3" font-family="Arial" font-size="14.00" fill="#000000">    </text>
<text text-anchor="start" x="1227.3356" y="-1306.3" font-family="Arial" font-size="14.00" fill="#666666">[VIEW]</text>
<polygon fill="none" stroke="#000000" points="1058.5,-1263.5 1058.5,-1293.5 1278.5,-1293.5 1278.5,-1263.5 1058.5,-1263.5"/>
<text text-anchor="start" x="1065.5" y="-1274.9" font-family="Arial" font-size="14.00" fill="#000000">id    </text>
<text text-anchor="start" x="1110.594" y="-1274.9" font-family="Arial" font-size="14.00" fill="#666666">[bigint]</text>
<polygon fill="none" stroke="#000000" points="1058.5,-1233.5 1058.5,-1263.5 1278.5,-1263.5 1278.5,-1233.5 1058.5,-1233.5"/>
<text text-anchor="start" x="1065.5" y="-1244.9" font-family="Arial" font-size="14.00" fill="#000000">title    </text>
<text text-anchor="start" x="1121.4818" y="-1244.9" font-family="Arial" font-size="14.00" fill="#666666">[varchar(255)]</text>
<polygon fill="none" stroke="#000000" points="1058.5,-1203.5 1058.5,-1233.5 1278.5,-1233.5 1278.5,-1203.5 1058.5,-1203.5"/>
<text text-anchor="start" x="1065.5" y="-1214.9" font-family="Arial" font-size="14.00" fill="#000000">post_user    </text>
<text text-anchor="start" x="1161.169" y="-1214.9" font-family="Arial" font-size="14.00" fill="#666666">[varchar(50)]</text>
<polygon fill="none" stroke="#000000" points="1058.5,-1173.5 1058.5,-1203.5 1278.5,-1203.5 1278.5,-1173.5 1058.5,-1173.5"/>
<text text-anchor="start" x="1065.5" y="-1184.9" font-family="Arial" font-size="14.00" fill="#000000">comment    </text>
<text text-anchor="start" x="1157.2644" y="-1184.9" font-family="Arial" font-size="14.00" fill="#666666">[text]</text>
<polygon fill="none" stroke="#000000" points="1058.5,-1143.5 1058.5,-1173.5 1278.5,-1173.5 1278.5,-1143.5 1058.5,-1143.5"/>
<text text-anchor="start" x="1065.4453" y="-1154.9" font-family="Arial" font-size="14.00" fill="#000000">comment_user    </text>
<text text-anchor="start" x="1192.2181" y="-1154.9" font-family="Arial" font-size="14.00" fill="#666666">[varchar(50)]</text>
<polygon fill="none" stroke="#000000" points="1058.5,-1113.5 1058.5,-1143.5 1278.5,-1143.5 1278.5,-1113.5 1058.5,-1113.5"/>
<text text-anchor="start" x="1065.5" y="-1124.9" font-family="Arial" font-size="14.00" fill="#000000">created    </text>
<text text-anchor="start" x="1146.3864" y="-1124.9" font-family="Arial" font-size="14.00" fill="#666666">[datetime]</text>
<polygon fill="none" stroke="#000000" points="1058.5,-1083.5 1058.5,-1113.5 1278.5,-1113.5 1278.5,-1083.5 1058.5,-1083.5"/>
<text text-anchor="start" x="1065.5" y="-1094.9" font-family="Arial" font-size="14.00" fill="#000000">updated    </text>
<text text-anchor="start" x="1150.291" y="-1094.9" font-family="Arial" font-size="14.00" fill="#666666">[datetime]</text>
</g>
<!-- posts&#45;&gt;users -->
<g id="edge9" class="edge">
<title>posts:user_id&#45;&gt;users:id</title>
<path fill="none" stroke="#000000" stroke-dasharray="5,2" d="M635.597,-543.9631C712.6644,-535.232 651.1806,-421.8173 625.5,-337 619.9276,-318.5955 607.0724,-319.4045 601.5,-301 589.4579,-261.2275 559.9444,-207.5 601.5,-207.5"/>
<polygon fill="#000000" stroke="#000000" points="635.4859,-543.969 625.261,-540.0063 630.4929,-544.2345 625.5,-544.5 625.5,-544.5 625.5,-544.5 630.4929,-544.2345 625.739,-548.9937 635.4859,-543.969 635.4859,-543.969"/>
<text text-anchor="start" x="632.768" y="-554.5" font-family="Arial" font-size="10.00" fill="#000000">Detected Relation</text>
</g>
<!-- user_options -->
<g id="node8" class="node">
<title>user_options</title>
<polygon fill="#efefef" stroke="transparent" points="852.5,-544.5 852.5,-579.5 1096.5,-579.5 1096.5,-544.5 852.5,-544.5"/>
<polygon fill="none" stroke="#000000" points="852.5,-544.5 852.5,-579.5 1096.5,-579.5 1096.5,-544.5 852.5,-544.5"/>
<text text-anchor="start" x="859.2" y="-557.3" font-family="Arial Bold" font-size="18.00" fill="#000000">user_options</text>
<text text-anchor="start" x="962.232" y="-557.3" font-family="Arial" font-size="14.00" fill="#000000">    </text>
<text text-anchor="start" x="996.4368" y="-557.3" font-family="Arial" font-size="14.00" fill="#666666">[BASE TABLE]</text>
<polygon fill="none" stroke="#000000" points="852.5,-514.5 852.5,-544.5 1096.5,-544.5 1096.5,-514.5 852.5,-514.5"/>
<text text-anchor="start" x="859.5" y="-525.9" font-family="Arial" font-size="14.00" fill="#000000">user_id    </text>
<text text-anchor="start" x="939.6024" y="-525.9" font-family="Arial" font-size="14.00" fill="#666666">[int]</text>
<polygon fill="none" stroke="#000000" points="852.5,-484.5 852.5,-514.5 1096.5,-514.5 1096.5,-484.5 852.5,-484.5"/>
<text text-anchor="start" x="859.5" y="-495.9" font-family="Arial" font-size="14.00" fill="#000000">show_email    </text>
<text text-anchor="start" x="967.5982" y="-495.9" font-family="Arial" font-size="14.00" fill="#666666">[tinyint(1)]</text>
<polygon fill="none" stroke="#000000" points="852.5,-454.5 852.5,-484.5 1096.5,-484.5 1096.5,-454.5 852.5,-454.5"/>
<text text-anchor="start" x="859.5" y="-465.9" font-family="Arial" font-size="14.00" fill="#000000">created    </text>
<text text-anchor="start" x="940.3864" y="-465.9" font-family="Arial" font-size="14.00" fill="#666666">[timestamp]</text>
<polygon fill="none" stroke="#000000" points="852.5,-424.5 852.5,-454.5 1096.5,-454.5 1096.5,-424.5 852.5,-424.5"/>
<text text-anchor="start" x="859.5" y="-435.9" font-family="Arial" font-size="14.00" fill="#000000">updated    </text>
<text text-anchor="start" x="944.291" y="-435.9" font-family="Arial" font-size="14.00" fill="#666666">[timestamp]</text>
</g>
<!-- user_options&#45;&gt;users -->
<g id="edge1" class="edge">
<title>user_options:user_id&#45;&gt;users:id</title>
<path fill="none" stroke="#000000" d="M842.4857,-528.9336C717.7416,-513.9693 932.6817,-207.5 790.5,-207.5"/>
<polygon fill="#000000" stroke="#000000" points="842.516,-528.9352 852.2458,-533.9928 847.508,-529.2176 852.5,-529.5 852.5,-529.5 852.5,-529.5 847.508,-529.2176 852.7542,-525.0072 842.516,-528.9352 842.516,-528.9352"/>
<text text-anchor="start" x="619.445" y="-513.5" font-family="Arial" font-size="10.00" fill="#000000">FOREIGN KEY (user_id) REFERENCES users (id)</text>
</g>
</g>
</svg>
