<?xml version="1.0" encoding="UTF-8" standalone="no"?>
<!DOCTYPE svg PUBLIC "-//W3C//DTD SVG 1.1//EN"
 "http://www.w3.org/Graphics/SVG/1.1/DTD/svg11.dtd">
<!-- Generated by graphviz version 12.1.2 (20240928.0832)
 -->
<!-- Title: relations Pages: 1 -->
<svg width="1298pt" height="1405pt"
 viewBox="0.00 0.00 1297.65 1404.80" xmlns="http://www.w3.org/2000/svg" xmlns:xlink="http://www.w3.org/1999/xlink">
<g id="graph0" class="graph" transform="scale(1 1) rotate(0) translate(4 1400.8)">
<title>relations</title>
<polygon fill="white" stroke="none" points="-4,4 -4,-1400.8 1293.65,-1400.8 1293.65,4 -4,4"/>
<!-- CamelizeTable -->
<g id="node1" class="node">
<title>CamelizeTable</title>
<polygon fill="#efefef" stroke="none" points="43.2,-1241 43.2,-1276.6 290.63,-1276.6 290.63,-1241 43.2,-1241"/>
<polygon fill="none" stroke="black" points="43.2,-1241 43.2,-1276.6 290.63,-1276.6 290.63,-1241 43.2,-1241"/>
<text text-anchor="start" x="50.2" y="-1254.4" font-family="Arial Bold" font-size="18.00">CamelizeTable</text>
<text text-anchor="start" x="159.14" y="-1254.4" font-family="Arial" font-size="14.00">    </text>
<text text-anchor="start" x="190.26" y="-1254.4" font-family="Arial" font-size="14.00" fill="#666666">[BASE TABLE]</text>
<polygon fill="none" stroke="black" points="43.2,-1210.2 43.2,-1241 290.63,-1241 290.63,-1210.2 43.2,-1210.2"/>
<text text-anchor="start" x="50.2" y="-1222.4" font-family="Arial" font-size="14.00">id    </text>
<text text-anchor="start" x="92.21" y="-1222.4" font-family="Arial" font-size="14.00" fill="#666666">[bigint]</text>
<polygon fill="none" stroke="black" points="43.2,-1179.4 43.2,-1210.2 290.63,-1210.2 290.63,-1179.4 43.2,-1179.4"/>
<text text-anchor="start" x="50.2" y="-1191.6" font-family="Arial" font-size="14.00">created    </text>
<text text-anchor="start" x="128.01" y="-1191.6" font-family="Arial" font-size="14.00" fill="#666666">[datetime]</text>
</g>
<!-- comment_stars -->
<g id="node2" class="node">
<title>comment_stars</title>
<polygon fill="#efefef" stroke="none" points="84.18,-944.4 84.18,-980 331.65,-980 331.65,-944.4 84.18,-944.4"/>
<polygon fill="none" stroke="black" points="84.18,-944.4 84.18,-980 331.65,-980 331.65,-944.4 84.18,-944.4"/>
<text text-anchor="start" x="91.18" y="-957.8" font-family="Arial Bold" font-size="18.00">comment_stars</text>
<text text-anchor="start" x="200.16" y="-957.8" font-family="Arial" font-size="14.00">    </text>
<text text-anchor="start" x="231.28" y="-957.8" font-family="Arial" font-size="14.00" fill="#666666">[BASE TABLE]</text>
<polygon fill="none" stroke="black" points="84.18,-913.6 84.18,-944.4 331.65,-944.4 331.65,-913.6 84.18,-913.6"/>
<text text-anchor="start" x="91.18" y="-925.8" font-family="Arial" font-size="14.00">id    </text>
<text text-anchor="start" x="133.2" y="-925.8" font-family="Arial" font-size="14.00" fill="#666666">[bigint]</text>
<polygon fill="none" stroke="black" points="84.18,-882.8 84.18,-913.6 331.65,-913.6 331.65,-882.8 84.18,-882.8"/>
<text text-anchor="start" x="91.18" y="-895" font-family="Arial" font-size="14.00">user_id    </text>
<text text-anchor="start" x="168.22" y="-895" font-family="Arial" font-size="14.00" fill="#666666">[int]</text>
<polygon fill="none" stroke="black" points="84.18,-852 84.18,-882.8 331.65,-882.8 331.65,-852 84.18,-852"/>
<text text-anchor="start" x="91.18" y="-864.2" font-family="Arial" font-size="14.00">comment_post_id    </text>
<text text-anchor="start" x="232.8" y="-864.2" font-family="Arial" font-size="14.00" fill="#666666">[bigint]</text>
<polygon fill="none" stroke="black" points="84.18,-821.2 84.18,-852 331.65,-852 331.65,-821.2 84.18,-821.2"/>
<text text-anchor="start" x="91.18" y="-833.4" font-family="Arial" font-size="14.00">comment_user_id    </text>
<text text-anchor="start" x="233.58" y="-833.4" font-family="Arial" font-size="14.00" fill="#666666">[int]</text>
<polygon fill="none" stroke="black" points="84.18,-790.4 84.18,-821.2 331.65,-821.2 331.65,-790.4 84.18,-790.4"/>
<text text-anchor="start" x="91.18" y="-802.6" font-family="Arial" font-size="14.00">created    </text>
<text text-anchor="start" x="169" y="-802.6" font-family="Arial" font-size="14.00" fill="#666666">[timestamp]</text>
<polygon fill="none" stroke="black" points="84.18,-759.6 84.18,-790.4 331.65,-790.4 331.65,-759.6 84.18,-759.6"/>
<text text-anchor="start" x="91.18" y="-771.8" font-family="Arial" font-size="14.00">updated    </text>
<text text-anchor="start" x="172.91" y="-771.8" font-family="Arial" font-size="14.00" fill="#666666">[timestamp]</text>
</g>
<!-- users -->
<g id="node9" class="node">
<title>users</title>
<polygon fill="#efefef" stroke="none" points="605.55,-228 605.55,-263.6 792.28,-263.6 792.28,-228 605.55,-228"/>
<polygon fill="none" stroke="black" points="605.55,-228 605.55,-263.6 792.28,-263.6 792.28,-228 605.55,-228"/>
<text text-anchor="start" x="618.17" y="-241.4" font-family="Arial Bold" font-size="18.00">users</text>
<text text-anchor="start" x="655.17" y="-241.4" font-family="Arial" font-size="14.00">    </text>
<text text-anchor="start" x="686.28" y="-241.4" font-family="Arial" font-size="14.00" fill="#666666">[BASE TABLE]</text>
<polygon fill="none" stroke="black" points="605.55,-197.2 605.55,-228 792.28,-228 792.28,-197.2 605.55,-197.2"/>
<text text-anchor="start" x="612.55" y="-209.4" font-family="Arial" font-size="14.00">id    </text>
<text text-anchor="start" x="654.56" y="-209.4" font-family="Arial" font-size="14.00" fill="#666666">[int]</text>
<polygon fill="none" stroke="black" points="605.55,-166.4 605.55,-197.2 792.28,-197.2 792.28,-166.4 605.55,-166.4"/>
<text text-anchor="start" x="612.55" y="-178.6" font-family="Arial" font-size="14.00">username    </text>
<text text-anchor="start" x="705.92" y="-178.6" font-family="Arial" font-size="14.00" fill="#666666">[varchar(50)]</text>
<polygon fill="none" stroke="black" points="605.55,-135.6 605.55,-166.4 792.28,-166.4 792.28,-135.6 605.55,-135.6"/>
<text text-anchor="start" x="612.55" y="-147.8" font-family="Arial" font-size="14.00">password    </text>
<text text-anchor="start" x="703.58" y="-147.8" font-family="Arial" font-size="14.00" fill="#666666">[varchar(50)]</text>
<polygon fill="none" stroke="black" points="605.55,-104.8 605.55,-135.6 792.28,-135.6 792.28,-104.8 605.55,-104.8"/>
<text text-anchor="start" x="612.55" y="-117" font-family="Arial" font-size="14.00">email    </text>
<text text-anchor="start" x="677.12" y="-117" font-family="Arial" font-size="14.00" fill="#666666">[varchar(355)]</text>
<polygon fill="none" stroke="black" points="605.55,-74 605.55,-104.8 792.28,-104.8 792.28,-74 605.55,-74"/>
<text text-anchor="start" x="612.55" y="-86.2" font-family="Arial" font-size="14.00">created    </text>
<text text-anchor="start" x="690.36" y="-86.2" font-family="Arial" font-size="14.00" fill="#666666">[timestamp]</text>
<polygon fill="none" stroke="black" points="605.55,-43.2 605.55,-74 792.28,-74 792.28,-43.2 605.55,-43.2"/>
<text text-anchor="start" x="612.55" y="-55.4" font-family="Arial" font-size="14.00">updated    </text>
<text text-anchor="start" x="694.27" y="-55.4" font-family="Arial" font-size="14.00" fill="#666666">[timestamp]</text>
</g>
<!-- comment_stars&#45;&gt;users -->
<g id="edge2" class="edge">
<title>comment_stars:user_id&#45;&gt;users:id</title>
<path fill="none" stroke="black" stroke-dasharray="5,2" d="M342.77,-897.55C409.24,-888.5 364.78,-786.1 331.65,-716.4 320.84,-693.66 298.66,-703.17 287.91,-680.4 223.86,-544.71 204.39,-467.45 287.91,-342.8 372.61,-216.39 452.39,-212.6 604.55,-212.6"/>
<polygon fill="black" stroke="black" points="342.96,-897.54 332.69,-893.69 337.64,-897.88 333.31,-898.16 333.31,-898.16 333.31,-898.16 337.64,-897.88 333.27,-902.67 342.96,-897.54"/>
<text text-anchor="start" x="339.65" y="-908.2" font-family="Arial" font-size="10.00">Detected Relation</text>
</g>
<!-- comments -->
<g id="node3" class="node">
<title>comments</title>
<polygon fill="#efefef" stroke="none" points="473.68,-944.4 473.68,-980 686.15,-980 686.15,-944.4 473.68,-944.4"/>
<polygon fill="none" stroke="black" points="473.68,-944.4 473.68,-980 686.15,-980 686.15,-944.4 473.68,-944.4"/>
<text text-anchor="start" x="480.68" y="-957.8" font-family="Arial Bold" font-size="18.00">comments</text>
<text text-anchor="start" x="554.66" y="-957.8" font-family="Arial" font-size="14.00">    </text>
<text text-anchor="start" x="585.78" y="-957.8" font-family="Arial" font-size="14.00" fill="#666666">[BASE TABLE]</text>
<polygon fill="none" stroke="black" points="473.68,-913.6 473.68,-944.4 686.15,-944.4 686.15,-913.6 473.68,-913.6"/>
<text text-anchor="start" x="480.68" y="-925.8" font-family="Arial" font-size="14.00">id    </text>
<text text-anchor="start" x="522.69" y="-925.8" font-family="Arial" font-size="14.00" fill="#666666">[bigint]</text>
<polygon fill="none" stroke="black" points="473.68,-882.8 473.68,-913.6 686.15,-913.6 686.15,-882.8 473.68,-882.8"/>
<text text-anchor="start" x="480.68" y="-895" font-family="Arial" font-size="14.00">post_id    </text>
<text text-anchor="start" x="556.94" y="-895" font-family="Arial" font-size="14.00" fill="#666666">[bigint]</text>
<polygon fill="none" stroke="black" points="473.68,-852 473.68,-882.8 686.15,-882.8 686.15,-852 473.68,-852"/>
<text text-anchor="start" x="480.68" y="-864.2" font-family="Arial" font-size="14.00">user_id    </text>
<text text-anchor="start" x="557.71" y="-864.2" font-family="Arial" font-size="14.00" fill="#666666">[int]</text>
<polygon fill="none" stroke="black" points="473.68,-821.2 473.68,-852 686.15,-852 686.15,-821.2 473.68,-821.2"/>
<text text-anchor="start" x="480.68" y="-833.4" font-family="Arial" font-size="14.00">comment    </text>
<text text-anchor="start" x="569.37" y="-833.4" font-family="Arial" font-size="14.00" fill="#666666">[text]</text>
<polygon fill="none" stroke="black" points="473.68,-790.4 473.68,-821.2 686.15,-821.2 686.15,-790.4 473.68,-790.4"/>
<text text-anchor="start" x="480.68" y="-802.6" font-family="Arial" font-size="14.00">created    </text>
<text text-anchor="start" x="558.49" y="-802.6" font-family="Arial" font-size="14.00" fill="#666666">[datetime]</text>
<polygon fill="none" stroke="black" points="473.68,-759.6 473.68,-790.4 686.15,-790.4 686.15,-759.6 473.68,-759.6"/>
<text text-anchor="start" x="480.68" y="-771.8" font-family="Arial" font-size="14.00">updated    </text>
<text text-anchor="start" x="562.4" y="-771.8" font-family="Arial" font-size="14.00" fill="#666666">[datetime]</text>
</g>
<!-- posts -->
<g id="node7" class="node">
<title>posts</title>
<polygon fill="#efefef" stroke="none" points="339.72,-601.6 339.72,-637.2 628.11,-637.2 628.11,-601.6 339.72,-601.6"/>
<polygon fill="none" stroke="black" points="339.72,-601.6 339.72,-637.2 628.11,-637.2 628.11,-601.6 339.72,-601.6"/>
<text text-anchor="start" x="403.16" y="-615" font-family="Arial Bold" font-size="18.00">posts</text>
<text text-anchor="start" x="440.18" y="-615" font-family="Arial" font-size="14.00">    </text>
<text text-anchor="start" x="471.29" y="-615" font-family="Arial" font-size="14.00" fill="#666666">[BASE TABLE]</text>
<polygon fill="none" stroke="black" points="339.72,-570.8 339.72,-601.6 628.11,-601.6 628.11,-570.8 339.72,-570.8"/>
<text text-anchor="start" x="346.72" y="-583" font-family="Arial" font-size="14.00">id    </text>
<text text-anchor="start" x="388.74" y="-583" font-family="Arial" font-size="14.00" fill="#666666">[bigint]</text>
<polygon fill="none" stroke="black" points="339.72,-540 339.72,-570.8 628.11,-570.8 628.11,-540 339.72,-540"/>
<text text-anchor="start" x="346.72" y="-552.2" font-family="Arial" font-size="14.00">user_id    </text>
<text text-anchor="start" x="423.76" y="-552.2" font-family="Arial" font-size="14.00" fill="#666666">[int]</text>
<polygon fill="none" stroke="black" points="339.72,-509.2 339.72,-540 628.11,-540 628.11,-509.2 339.72,-509.2"/>
<text text-anchor="start" x="346.72" y="-521.4" font-family="Arial" font-size="14.00">title    </text>
<text text-anchor="start" x="399.63" y="-521.4" font-family="Arial" font-size="14.00" fill="#666666">[varchar(255)]</text>
<polygon fill="none" stroke="black" points="339.72,-478.4 339.72,-509.2 628.11,-509.2 628.11,-478.4 339.72,-478.4"/>
<text text-anchor="start" x="346.72" y="-490.6" font-family="Arial" font-size="14.00">body    </text>
<text text-anchor="start" x="408.2" y="-490.6" font-family="Arial" font-size="14.00" fill="#666666">[text]</text>
<polygon fill="none" stroke="black" points="339.72,-447.6 339.72,-478.4 628.11,-478.4 628.11,-447.6 339.72,-447.6"/>
<text text-anchor="start" x="346.72" y="-459.8" font-family="Arial" font-size="14.00">post_type    </text>
<text text-anchor="start" x="438.55" y="-459.8" font-family="Arial" font-size="14.00" fill="#666666">[enum(&#39;public&#39;,&#39;private&#39;,&#39;draft&#39;)]</text>
<polygon fill="none" stroke="black" points="339.72,-416.8 339.72,-447.6 628.11,-447.6 628.11,-416.8 339.72,-416.8"/>
<text text-anchor="start" x="346.72" y="-429" font-family="Arial" font-size="14.00">created    </text>
<text text-anchor="start" x="424.54" y="-429" font-family="Arial" font-size="14.00" fill="#666666">[datetime]</text>
<polygon fill="none" stroke="black" points="339.72,-386 339.72,-416.8 628.11,-416.8 628.11,-386 339.72,-386"/>
<text text-anchor="start" x="346.72" y="-398.2" font-family="Arial" font-size="14.00">updated    </text>
<text text-anchor="start" x="428.45" y="-398.2" font-family="Arial" font-size="14.00" fill="#666666">[datetime]</text>
</g>
<!-- comments&#45;&gt;posts -->
<g id="edge3" class="edge">
<title>comments:post_id&#45;&gt;posts:id</title>
<path fill="none" stroke="black" stroke-dasharray="5,2" d="M462.46,-897.5C394.73,-887.65 425.54,-776.71 473.68,-716.4 517.64,-661.32 584,-735.37 628.11,-680.4 654.31,-647.74 670.97,-586.2 629.11,-586.2"/>
<polygon fill="black" stroke="black" points="462.37,-897.49 472.03,-902.67 467.69,-897.86 472.01,-898.15 472.01,-898.15 472.01,-898.15 467.69,-897.86 472.65,-893.69 462.37,-897.49"/>
<text text-anchor="start" x="386.18" y="-882.2" font-family="Arial" font-size="10.00">Detected Relation</text>
</g>
<!-- comments&#45;&gt;users -->
<g id="edge4" class="edge">
<title>comments:user_id&#45;&gt;users:id</title>
<path fill="none" stroke="black" stroke-dasharray="5,2" d="M697.46,-866.18C797.06,-841.27 686.16,-441.17 742.91,-342.8 756.49,-319.28 779.85,-330.94 792.28,-306.8 811.45,-269.58 835.15,-212.6 793.28,-212.6"/>
<polygon fill="black" stroke="black" points="697.42,-866.19 686.96,-862.89 692.12,-866.81 687.82,-867.32 687.82,-867.32 687.82,-867.32 692.12,-866.81 688.01,-871.83 697.42,-866.19"/>
<text text-anchor="start" x="694.15" y="-877.4" font-family="Arial" font-size="10.00">Detected Relation</text>
</g>
<!-- hyphen&#45;table -->
<g id="node4" class="node">
<title>hyphen&#45;table</title>
<polygon fill="#efefef" stroke="none" points="692.69,-1256.4 692.69,-1292 925.14,-1292 925.14,-1256.4 692.69,-1256.4"/>
<polygon fill="none" stroke="black" points="692.69,-1256.4 692.69,-1292 925.14,-1292 925.14,-1256.4 692.69,-1256.4"/>
<text text-anchor="start" x="699.69" y="-1269.8" font-family="Arial Bold" font-size="18.00">hyphen&#45;table</text>
<text text-anchor="start" x="793.65" y="-1269.8" font-family="Arial" font-size="14.00">    </text>
<text text-anchor="start" x="824.77" y="-1269.8" font-family="Arial" font-size="14.00" fill="#666666">[BASE TABLE]</text>
<polygon fill="none" stroke="black" points="692.69,-1225.6 692.69,-1256.4 925.14,-1256.4 925.14,-1225.6 692.69,-1225.6"/>
<text text-anchor="start" x="699.69" y="-1237.8" font-family="Arial" font-size="14.00">id    </text>
<text text-anchor="start" x="741.7" y="-1237.8" font-family="Arial" font-size="14.00" fill="#666666">[bigint]</text>
<polygon fill="none" stroke="black" points="692.69,-1194.8 692.69,-1225.6 925.14,-1225.6 925.14,-1194.8 692.69,-1194.8"/>
<text text-anchor="start" x="699.69" y="-1207" font-family="Arial" font-size="14.00">hyphen&#45;column    </text>
<text text-anchor="start" x="826.53" y="-1207" font-family="Arial" font-size="14.00" fill="#666666">[text]</text>
<polygon fill="none" stroke="black" points="692.69,-1164 692.69,-1194.8 925.14,-1194.8 925.14,-1164 692.69,-1164"/>
<text text-anchor="start" x="699.69" y="-1176.2" font-family="Arial" font-size="14.00">created    </text>
<text text-anchor="start" x="777.5" y="-1176.2" font-family="Arial" font-size="14.00" fill="#666666">[datetime]</text>
</g>
<!-- logs -->
<g id="node5" class="node">
<title>logs</title>
<polygon fill="#efefef" stroke="none" points="395.04,-1318 395.04,-1353.6 588.79,-1353.6 588.79,-1318 395.04,-1318"/>
<polygon fill="none" stroke="black" points="395.04,-1318 395.04,-1353.6 588.79,-1353.6 588.79,-1318 395.04,-1318"/>
<text text-anchor="start" x="414.67" y="-1331.4" font-family="Arial Bold" font-size="18.00">logs</text>
<text text-anchor="start" x="444.67" y="-1331.4" font-family="Arial" font-size="14.00">    </text>
<text text-anchor="start" x="475.79" y="-1331.4" font-family="Arial" font-size="14.00" fill="#666666">[BASE TABLE]</text>
<polygon fill="none" stroke="black" points="395.04,-1287.2 395.04,-1318 588.79,-1318 588.79,-1287.2 395.04,-1287.2"/>
<text text-anchor="start" x="402.04" y="-1299.4" font-family="Arial" font-size="14.00">id    </text>
<text text-anchor="start" x="444.06" y="-1299.4" font-family="Arial" font-size="14.00" fill="#666666">[bigint]</text>
<polygon fill="none" stroke="black" points="395.04,-1256.4 395.04,-1287.2 588.79,-1287.2 588.79,-1256.4 395.04,-1256.4"/>
<text text-anchor="start" x="402.04" y="-1268.6" font-family="Arial" font-size="14.00">user_id    </text>
<text text-anchor="start" x="479.08" y="-1268.6" font-family="Arial" font-size="14.00" fill="#666666">[int]</text>
<polygon fill="none" stroke="black" points="395.04,-1225.6 395.04,-1256.4 588.79,-1256.4 588.79,-1225.6 395.04,-1225.6"/>
<text text-anchor="start" x="402.04" y="-1237.8" font-family="Arial" font-size="14.00">post_id    </text>
<text text-anchor="start" x="478.3" y="-1237.8" font-family="Arial" font-size="14.00" fill="#666666">[bigint]</text>
<polygon fill="none" stroke="black" points="395.04,-1194.8 395.04,-1225.6 588.79,-1225.6 588.79,-1194.8 395.04,-1194.8"/>
<text text-anchor="start" x="402.04" y="-1207" font-family="Arial" font-size="14.00">comment_id    </text>
<text text-anchor="start" x="509.41" y="-1207" font-family="Arial" font-size="14.00" fill="#666666">[bigint]</text>
<polygon fill="none" stroke="black" points="395.04,-1164 395.04,-1194.8 588.79,-1194.8 588.79,-1164 395.04,-1164"/>
<text text-anchor="start" x="402.04" y="-1176.2" font-family="Arial" font-size="14.00">comment_star_id    </text>
<text text-anchor="start" x="540.54" y="-1176.2" font-family="Arial" font-size="14.00" fill="#666666">[bigint]</text>
<polygon fill="none" stroke="black" points="395.04,-1133.2 395.04,-1164 588.79,-1164 588.79,-1133.2 395.04,-1133.2"/>
<text text-anchor="start" x="402.04" y="-1145.4" font-family="Arial" font-size="14.00">payload    </text>
<text text-anchor="start" x="482.2" y="-1145.4" font-family="Arial" font-size="14.00" fill="#666666">[text]</text>
<polygon fill="none" stroke="black" points="395.04,-1102.4 395.04,-1133.2 588.79,-1133.2 588.79,-1102.4 395.04,-1102.4"/>
<text text-anchor="start" x="402.04" y="-1114.6" font-family="Arial" font-size="14.00">created    </text>
<text text-anchor="start" x="479.86" y="-1114.6" font-family="Arial" font-size="14.00" fill="#666666">[datetime]</text>
</g>
<!-- logs&#45;&gt;comment_stars -->
<g id="edge8" class="edge">
<title>logs:comment_star_id&#45;&gt;comment_stars:id</title>
<path fill="none" stroke="black" stroke-dasharray="5,2" d="M383.83,-1178.64C289.98,-1163.52 443.54,-929 332.65,-929"/>
<polygon fill="black" stroke="black" points="383.74,-1178.63 393.37,-1183.86 389.06,-1179.03 393.38,-1179.35 393.38,-1179.35 393.38,-1179.35 389.06,-1179.03 394.04,-1174.89 383.74,-1178.63"/>
<text text-anchor="start" x="307.55" y="-1189.4" font-family="Arial" font-size="10.00">Detected Relation</text>
</g>
<!-- logs&#45;&gt;comments -->
<g id="edge7" class="edge">
<title>logs:comment_id&#45;&gt;comments:id</title>
<path fill="none" stroke="black" stroke-dasharray="5,2" d="M599.96,-1209.35C653.78,-1199.71 626.53,-1110.19 588.79,-1059.2 556.9,-1016.11 505.65,-1066.22 473.68,-1023.2 448.7,-989.6 430.81,-929 472.68,-929"/>
<polygon fill="black" stroke="black" points="600.09,-1209.34 589.75,-1205.69 594.77,-1209.78 590.45,-1210.14 590.45,-1210.14 590.45,-1210.14 594.77,-1209.78 590.49,-1214.66 600.09,-1209.34"/>
<text text-anchor="start" x="596.79" y="-1220.2" font-family="Arial" font-size="10.00">Detected Relation</text>
</g>
<!-- logs&#45;&gt;posts -->
<g id="edge6" class="edge">
<title>logs:post_id&#45;&gt;posts:id</title>
<path fill="none" stroke="black" stroke-dasharray="5,2" d="M390.95,-1231.23C381.13,-1160.44 389.77,-728.43 383.91,-716.4 372.82,-693.63 350.72,-703.22 339.72,-680.4 321.55,-642.68 296.86,-586.2 338.72,-586.2"/>
<polygon fill="black" stroke="black" points="390.92,-1231.15 389.65,-1242.04 392.53,-1236.23 393.84,-1240.36 393.84,-1240.36 393.84,-1240.36 392.53,-1236.23 398.23,-1239.32 390.92,-1231.15"/>
<text text-anchor="start" x="307.55" y="-1251" font-family="Arial" font-size="10.00">Detected Relation</text>
</g>
<!-- logs&#45;&gt;users -->
<g id="edge5" class="edge">
<title>logs:user_id&#45;&gt;users:id</title>
<path fill="none" stroke="black" stroke-dasharray="5,2" d="M599.77,-1271.23C679.01,-1261.51 578.81,-1129.2 640.91,-1059.2 671.43,-1024.8 710.62,-1060.2 737.91,-1023.2 782.87,-962.27 757.83,-416.33 775.91,-342.8 780.11,-325.73 788.47,-323.96 792.28,-306.8 801.36,-265.93 835.15,-212.6 793.28,-212.6"/>
<polygon fill="black" stroke="black" points="600.1,-1271.21 589.87,-1267.29 594.78,-1271.52 590.45,-1271.76 590.45,-1271.76 590.45,-1271.76 594.78,-1271.52 590.38,-1276.27 600.1,-1271.21"/>
<text text-anchor="start" x="596.79" y="-1281.8" font-family="Arial" font-size="10.00">Detected Relation</text>
</g>
<!-- post_comments -->
<g id="node6" class="node">
<title>post_comments</title>
<polygon fill="#efefef" stroke="none" points="1029.38,-1318 1029.38,-1353.6 1246.45,-1353.6 1246.45,-1318 1029.38,-1318"/>
<polygon fill="none" stroke="black" points="1029.38,-1318 1029.38,-1353.6 1246.45,-1353.6 1246.45,-1318 1029.38,-1318"/>
<text text-anchor="start" x="1044.08" y="-1331.4" font-family="Arial Bold" font-size="18.00">post_comments</text>
<text text-anchor="start" x="1157.07" y="-1331.4" font-family="Arial" font-size="14.00">    </text>
<text text-anchor="start" x="1188.19" y="-1331.4" font-family="Arial" font-size="14.00" fill="#666666">[VIEW]</text>
<polygon fill="none" stroke="black" points="1029.38,-1287.2 1029.38,-1318 1246.45,-1318 1246.45,-1287.2 1029.38,-1287.2"/>
<text text-anchor="start" x="1036.38" y="-1299.4" font-family="Arial" font-size="14.00">id    </text>
<text text-anchor="start" x="1078.39" y="-1299.4" font-family="Arial" font-size="14.00" fill="#666666">[bigint]</text>
<polygon fill="none" stroke="black" points="1029.38,-1256.4 1029.38,-1287.2 1246.45,-1287.2 1246.45,-1256.4 1029.38,-1256.4"/>
<text text-anchor="start" x="1036.38" y="-1268.6" font-family="Arial" font-size="14.00">title    </text>
<text text-anchor="start" x="1089.28" y="-1268.6" font-family="Arial" font-size="14.00" fill="#666666">[varchar(255)]</text>
<polygon fill="none" stroke="black" points="1029.38,-1225.6 1029.38,-1256.4 1246.45,-1256.4 1246.45,-1225.6 1029.38,-1225.6"/>
<text text-anchor="start" x="1036.38" y="-1237.8" font-family="Arial" font-size="14.00">post_user    </text>
<text text-anchor="start" x="1128.98" y="-1237.8" font-family="Arial" font-size="14.00" fill="#666666">[varchar(50)]</text>
<polygon fill="none" stroke="black" points="1029.38,-1194.8 1029.38,-1225.6 1246.45,-1225.6 1246.45,-1194.8 1029.38,-1194.8"/>
<text text-anchor="start" x="1036.38" y="-1207" font-family="Arial" font-size="14.00">comment    </text>
<text text-anchor="start" x="1125.07" y="-1207" font-family="Arial" font-size="14.00" fill="#666666">[text]</text>
<polygon fill="none" stroke="black" points="1029.38,-1164 1029.38,-1194.8 1246.45,-1194.8 1246.45,-1164 1029.38,-1164"/>
<text text-anchor="start" x="1036.38" y="-1176.2" font-family="Arial" font-size="14.00">comment_user    </text>
<text text-anchor="start" x="1160.09" y="-1176.2" font-family="Arial" font-size="14.00" fill="#666666">[varchar(50)]</text>
<polygon fill="none" stroke="black" points="1029.38,-1133.2 1029.38,-1164 1246.45,-1164 1246.45,-1133.2 1029.38,-1133.2"/>
<text text-anchor="start" x="1036.38" y="-1145.4" font-family="Arial" font-size="14.00">created    </text>
<text text-anchor="start" x="1114.19" y="-1145.4" font-family="Arial" font-size="14.00" fill="#666666">[datetime]</text>
<polygon fill="none" stroke="black" points="1029.38,-1102.4 1029.38,-1133.2 1246.45,-1133.2 1246.45,-1102.4 1029.38,-1102.4"/>
<text text-anchor="start" x="1036.38" y="-1114.6" font-family="Arial" font-size="14.00">updated    </text>
<text text-anchor="start" x="1118.1" y="-1114.6" font-family="Arial" font-size="14.00" fill="#666666">[datetime]</text>
</g>
<!-- posts&#45;&gt;users -->
<g id="edge9" class="edge">
<title>posts:user_id&#45;&gt;users:id</title>
<path fill="none" stroke="black" stroke-dasharray="5,2" d="M639.44,-554.85C718.26,-545.93 653.39,-430.01 628.11,-342.8 622.85,-324.67 610.86,-324.92 605.55,-306.8 593.77,-266.62 562.68,-212.6 604.55,-212.6"/>
<polygon fill="black" stroke="black" points="639.43,-554.85 629.2,-550.89 634.1,-555.13 629.77,-555.36 629.77,-555.36 629.77,-555.36 634.1,-555.13 629.68,-559.88 639.43,-554.85"/>
<text text-anchor="start" x="636.11" y="-565.4" font-family="Arial" font-size="10.00">Detected Relation</text>
</g>
<!-- user_options -->
<g id="node8" class="node">
<title>user_options</title>
<polygon fill="#efefef" stroke="none" points="827.67,-555.4 827.67,-591 1058.16,-591 1058.16,-555.4 827.67,-555.4"/>
<polygon fill="none" stroke="black" points="827.67,-555.4 827.67,-591 1058.16,-591 1058.16,-555.4 827.67,-555.4"/>
<text text-anchor="start" x="834.67" y="-568.8" font-family="Arial Bold" font-size="18.00">user_options</text>
<text text-anchor="start" x="926.67" y="-568.8" font-family="Arial" font-size="14.00">    </text>
<text text-anchor="start" x="957.78" y="-568.8" font-family="Arial" font-size="14.00" fill="#666666">[BASE TABLE]</text>
<polygon fill="none" stroke="black" points="827.67,-524.6 827.67,-555.4 1058.16,-555.4 1058.16,-524.6 827.67,-524.6"/>
<text text-anchor="start" x="834.67" y="-536.8" font-family="Arial" font-size="14.00">user_id    </text>
<text text-anchor="start" x="911.71" y="-536.8" font-family="Arial" font-size="14.00" fill="#666666">[int]</text>
<polygon fill="none" stroke="black" points="827.67,-493.8 827.67,-524.6 1058.16,-524.6 1058.16,-493.8 827.67,-493.8"/>
<text text-anchor="start" x="834.67" y="-506" font-family="Arial" font-size="14.00">show_email    </text>
<text text-anchor="start" x="939.71" y="-506" font-family="Arial" font-size="14.00" fill="#666666">[tinyint(1)]</text>
<polygon fill="none" stroke="black" points="827.67,-463 827.67,-493.8 1058.16,-493.8 1058.16,-463 827.67,-463"/>
<text text-anchor="start" x="834.67" y="-475.2" font-family="Arial" font-size="14.00">created    </text>
<text text-anchor="start" x="912.49" y="-475.2" font-family="Arial" font-size="14.00" fill="#666666">[timestamp]</text>
<polygon fill="none" stroke="black" points="827.67,-432.2 827.67,-463 1058.16,-463 1058.16,-432.2 827.67,-432.2"/>
<text text-anchor="start" x="834.67" y="-444.4" font-family="Arial" font-size="14.00">updated    </text>
<text text-anchor="start" x="916.4" y="-444.4" font-family="Arial" font-size="14.00" fill="#666666">[timestamp]</text>
</g>
<!-- user_options&#45;&gt;users -->
<g id="edge1" class="edge">
<title>user_options:user_id&#45;&gt;users:id</title>
<path fill="none" stroke="black" d="M816.3,-539.38C693.3,-523.59 935.83,-212.6 793.28,-212.6"/>
<polygon fill="black" stroke="black" points="816.36,-539.38 826.07,-544.47 821.68,-539.7 826,-539.96 826,-539.96 826,-539.96 821.68,-539.7 826.61,-535.49 816.36,-539.38"/>
<text text-anchor="start" x="713.59" y="-524" font-family="Arial" font-size="10.00">FOREIGN KEY (user_id) REFERENCES users (id)</text>
</g>
</g>
</svg>
