<?xml version="1.0" encoding="UTF-8" standalone="no"?>
<!DOCTYPE svg PUBLIC "-//W3C//DTD SVG 1.1//EN"
 "http://www.w3.org/Graphics/SVG/1.1/DTD/svg11.dtd">
<!-- Generated by graphviz version 2.40.1 (20161225.0304)
 -->
<!-- Title: users Pages: 1 -->
<svg width="1582pt" height="682pt"
 viewBox="0.00 0.00 1581.50 682.00" xmlns="http://www.w3.org/2000/svg" xmlns:xlink="http://www.w3.org/1999/xlink">
<g id="graph0" class="graph" transform="scale(1 1) rotate(0) translate(4 678)">
<title>users</title>
<polygon fill="#ffffff" stroke="transparent" points="-4,4 -4,-678 1577.5,-678 1577.5,4 -4,4"/>
<!-- users -->
<g id="node1" class="node">
<title>users</title>
<polygon fill="#efefef" stroke="transparent" points="716,-225.5 716,-260.5 875,-260.5 875,-225.5 716,-225.5"/>
<polygon fill="none" stroke="#000000" points="716,-225.5 716,-260.5 875,-260.5 875,-225.5 716,-225.5"/>
<text text-anchor="start" x="724.8708" y="-238.3" font-family="Arial Bold" font-size="18.00" fill="#000000">users</text>
<text text-anchor="start" x="768.8754" y="-238.3" font-family="Arial" font-size="14.00" fill="#000000"> </text>
<text text-anchor="start" x="772.766" y="-238.3" font-family="Arial" font-size="14.00" fill="#666666">[BASE TABLE]</text>
<polygon fill="none" stroke="#000000" points="716,-195.5 716,-225.5 875,-225.5 875,-195.5 716,-195.5"/>
<text text-anchor="start" x="723" y="-206.9" font-family="Arial" font-size="14.00" fill="#000000">id </text>
<text text-anchor="start" x="737.7798" y="-206.9" font-family="Arial" font-size="14.00" fill="#666666">[int]</text>
<polygon fill="none" stroke="#000000" points="716,-165.5 716,-195.5 875,-195.5 875,-165.5 716,-165.5"/>
<text text-anchor="start" x="722.7693" y="-176.9" font-family="Arial" font-size="14.00" fill="#000000">username </text>
<text text-anchor="start" x="788.8941" y="-176.9" font-family="Arial" font-size="14.00" fill="#666666">[varchar(50)]</text>
<polygon fill="none" stroke="#000000" points="716,-135.5 716,-165.5 875,-165.5 875,-135.5 716,-135.5"/>
<text text-anchor="start" x="723" y="-146.9" font-family="Arial" font-size="14.00" fill="#000000">password </text>
<text text-anchor="start" x="786.7882" y="-146.9" font-family="Arial" font-size="14.00" fill="#666666">[varchar(50)]</text>
<polygon fill="none" stroke="#000000" points="716,-105.5 716,-135.5 875,-135.5 875,-105.5 716,-105.5"/>
<text text-anchor="start" x="723" y="-116.9" font-family="Arial" font-size="14.00" fill="#000000">email </text>
<text text-anchor="start" x="760.3296" y="-116.9" font-family="Arial" font-size="14.00" fill="#666666">[varchar(355)]</text>
<polygon fill="none" stroke="#000000" points="716,-75.5 716,-105.5 875,-105.5 875,-75.5 716,-75.5"/>
<text text-anchor="start" x="723" y="-86.9" font-family="Arial" font-size="14.00" fill="#000000">created </text>
<text text-anchor="start" x="773.5722" y="-86.9" font-family="Arial" font-size="14.00" fill="#666666">[timestamp]</text>
<polygon fill="none" stroke="#000000" points="716,-45.5 716,-75.5 875,-75.5 875,-45.5 716,-45.5"/>
<text text-anchor="start" x="723" y="-56.9" font-family="Arial" font-size="14.00" fill="#000000">updated </text>
<text text-anchor="start" x="777.4768" y="-56.9" font-family="Arial" font-size="14.00" fill="#666666">[timestamp]</text>
<polygon fill="none" stroke="#000000" stroke-width="3" points="714,-44.5 714,-262.5 876,-262.5 876,-44.5 714,-44.5"/>
</g>
<!-- user_options -->
<g id="node2" class="node">
<title>user_options</title>
<polygon fill="#efefef" stroke="transparent" points="43,-550.5 43,-585.5 257,-585.5 257,-550.5 43,-550.5"/>
<polygon fill="none" stroke="#000000" points="43,-550.5 43,-585.5 257,-585.5 257,-550.5 43,-550.5"/>
<text text-anchor="start" x="49.8571" y="-563.3" font-family="Arial Bold" font-size="18.00" fill="#000000">user_options</text>
<text text-anchor="start" x="152.8891" y="-563.3" font-family="Arial" font-size="14.00" fill="#000000"> </text>
<text text-anchor="start" x="156.7797" y="-563.3" font-family="Arial" font-size="14.00" fill="#666666">[BASE TABLE]</text>
<polygon fill="none" stroke="#000000" points="43,-520.5 43,-550.5 257,-550.5 257,-520.5 43,-520.5"/>
<text text-anchor="start" x="50" y="-531.9" font-family="Arial" font-size="14.00" fill="#000000">user_id </text>
<text text-anchor="start" x="99.7882" y="-531.9" font-family="Arial" font-size="14.00" fill="#666666">[int]</text>
<polygon fill="none" stroke="#000000" points="43,-490.5 43,-520.5 257,-520.5 257,-490.5 43,-490.5"/>
<text text-anchor="start" x="50" y="-501.9" font-family="Arial" font-size="14.00" fill="#000000">show_email </text>
<text text-anchor="start" x="127.784" y="-501.9" font-family="Arial" font-size="14.00" fill="#666666">[tinyint(1)]</text>
<polygon fill="none" stroke="#000000" points="43,-460.5 43,-490.5 257,-490.5 257,-460.5 43,-460.5"/>
<text text-anchor="start" x="50" y="-471.9" font-family="Arial" font-size="14.00" fill="#000000">created </text>
<text text-anchor="start" x="100.5722" y="-471.9" font-family="Arial" font-size="14.00" fill="#666666">[timestamp]</text>
<polygon fill="none" stroke="#000000" points="43,-430.5 43,-460.5 257,-460.5 257,-430.5 43,-430.5"/>
<text text-anchor="start" x="50" y="-441.9" font-family="Arial" font-size="14.00" fill="#000000">updated </text>
<text text-anchor="start" x="104.4768" y="-441.9" font-family="Arial" font-size="14.00" fill="#666666">[timestamp]</text>
</g>
<!-- user_options&#45;&gt;users -->
<g id="edge1" class="edge">
<title>user_options:user_id&#45;&gt;users:id</title>
<path fill="none" stroke="#000000" d="M266.9883,-534.866C337.8769,-525.0863 250.4537,-404.6048 309,-343 374.5243,-274.0527 620.8834,-210.5 716,-210.5"/>
<polygon fill="#000000" stroke="#000000" points="266.9799,-534.8664 256.7149,-531.009 261.99,-535.1832 257,-535.5 257,-535.5 257,-535.5 261.99,-535.1832 257.2851,-539.991 266.9799,-534.8664 266.9799,-534.8664"/>
<text text-anchor="start" x="143.945" y="-519.5" font-family="Arial" font-size="10.00" fill="#000000">FOREIGN KEY (user_id) REFERENCES users (id)</text>
</g>
<!-- comment_stars -->
<g id="node3" class="node">
<title>comment_stars</title>
<polygon fill="#efefef" stroke="transparent" points="361,-580.5 361,-615.5 595,-615.5 595,-580.5 361,-580.5"/>
<polygon fill="none" stroke="#000000" points="361,-580.5 361,-615.5 595,-615.5 595,-580.5 361,-580.5"/>
<text text-anchor="start" x="367.8671" y="-593.3" font-family="Arial Bold" font-size="18.00" fill="#000000">comment_stars</text>
<text text-anchor="start" x="490.8791" y="-593.3" font-family="Arial" font-size="14.00" fill="#000000"> </text>
<text text-anchor="start" x="494.7697" y="-593.3" font-family="Arial" font-size="14.00" fill="#666666">[BASE TABLE]</text>
<polygon fill="none" stroke="#000000" points="361,-550.5 361,-580.5 595,-580.5 595,-550.5 361,-550.5"/>
<text text-anchor="start" x="368" y="-561.9" font-family="Arial" font-size="14.00" fill="#000000">id </text>
<text text-anchor="start" x="382.7798" y="-561.9" font-family="Arial" font-size="14.00" fill="#666666">[bigint]</text>
<polygon fill="none" stroke="#000000" points="361,-520.5 361,-550.5 595,-550.5 595,-520.5 361,-520.5"/>
<text text-anchor="start" x="368" y="-531.9" font-family="Arial" font-size="14.00" fill="#000000">user_id </text>
<text text-anchor="start" x="417.7882" y="-531.9" font-family="Arial" font-size="14.00" fill="#666666">[int]</text>
<polygon fill="none" stroke="#000000" points="361,-490.5 361,-520.5 595,-520.5 595,-490.5 361,-490.5"/>
<text text-anchor="start" x="368" y="-501.9" font-family="Arial" font-size="14.00" fill="#000000">comment_post_id </text>
<text text-anchor="start" x="482.3604" y="-501.9" font-family="Arial" font-size="14.00" fill="#666666">[bigint]</text>
<polygon fill="none" stroke="#000000" points="361,-460.5 361,-490.5 595,-490.5 595,-460.5 361,-460.5"/>
<text text-anchor="start" x="368" y="-471.9" font-family="Arial" font-size="14.00" fill="#000000">comment_user_id </text>
<text text-anchor="start" x="483.1304" y="-471.9" font-family="Arial" font-size="14.00" fill="#666666">[int]</text>
<polygon fill="none" stroke="#000000" points="361,-430.5 361,-460.5 595,-460.5 595,-430.5 361,-430.5"/>
<text text-anchor="start" x="368" y="-441.9" font-family="Arial" font-size="14.00" fill="#000000">created </text>
<text text-anchor="start" x="418.5722" y="-441.9" font-family="Arial" font-size="14.00" fill="#666666">[timestamp]</text>
<polygon fill="none" stroke="#000000" points="361,-400.5 361,-430.5 595,-430.5 595,-400.5 361,-400.5"/>
<text text-anchor="start" x="368" y="-411.9" font-family="Arial" font-size="14.00" fill="#000000">updated </text>
<text text-anchor="start" x="422.4768" y="-411.9" font-family="Arial" font-size="14.00" fill="#666666">[timestamp]</text>
</g>
<!-- comment_stars&#45;&gt;users -->
<g id="edge2" class="edge">
<title>comment_stars:user_id&#45;&gt;users:id</title>
<path fill="none" stroke="#000000" stroke-dasharray="5,2" d="M605.1279,-534.9546C678.1457,-526.5277 616.111,-422.1751 647,-343 671.1317,-281.1453 649.6046,-210.5 716,-210.5"/>
<polygon fill="#000000" stroke="#000000" points="604.9855,-534.9622 594.758,-531.0065 599.9928,-535.2311 595,-535.5 595,-535.5 595,-535.5 599.9928,-535.2311 595.242,-539.9935 604.9855,-534.9622 604.9855,-534.9622"/>
<text text-anchor="start" x="602.268" y="-545.5" font-family="Arial" font-size="10.00" fill="#000000">Detected Relation</text>
</g>
<!-- comments -->
<g id="node4" class="node">
<title>comments</title>
<polygon fill="#efefef" stroke="transparent" points="699,-580.5 699,-615.5 893,-615.5 893,-580.5 699,-580.5"/>
<polygon fill="none" stroke="#000000" points="699,-580.5 699,-615.5 893,-615.5 893,-580.5 699,-580.5"/>
<text text-anchor="start" x="705.8705" y="-593.3" font-family="Arial Bold" font-size="18.00" fill="#000000">comments</text>
<text text-anchor="start" x="788.8757" y="-593.3" font-family="Arial" font-size="14.00" fill="#000000"> </text>
<text text-anchor="start" x="792.7663" y="-593.3" font-family="Arial" font-size="14.00" fill="#666666">[BASE TABLE]</text>
<polygon fill="none" stroke="#000000" points="699,-550.5 699,-580.5 893,-580.5 893,-550.5 699,-550.5"/>
<text text-anchor="start" x="706" y="-561.9" font-family="Arial" font-size="14.00" fill="#000000">id </text>
<text text-anchor="start" x="720.7798" y="-561.9" font-family="Arial" font-size="14.00" fill="#666666">[bigint]</text>
<polygon fill="none" stroke="#000000" points="699,-520.5 699,-550.5 893,-550.5 893,-520.5 699,-520.5"/>
<text text-anchor="start" x="706" y="-531.9" font-family="Arial" font-size="14.00" fill="#000000">post_id </text>
<text text-anchor="start" x="755.0182" y="-531.9" font-family="Arial" font-size="14.00" fill="#666666">[bigint]</text>
<polygon fill="none" stroke="#000000" points="699,-490.5 699,-520.5 893,-520.5 893,-490.5 699,-490.5"/>
<text text-anchor="start" x="706" y="-501.9" font-family="Arial" font-size="14.00" fill="#000000">user_id </text>
<text text-anchor="start" x="755.7882" y="-501.9" font-family="Arial" font-size="14.00" fill="#666666">[int]</text>
<polygon fill="none" stroke="#000000" points="699,-460.5 699,-490.5 893,-490.5 893,-460.5 699,-460.5"/>
<text text-anchor="start" x="706" y="-471.9" font-family="Arial" font-size="14.00" fill="#000000">comment </text>
<text text-anchor="start" x="767.4502" y="-471.9" font-family="Arial" font-size="14.00" fill="#666666">[text]</text>
<polygon fill="none" stroke="#000000" points="699,-430.5 699,-460.5 893,-460.5 893,-430.5 699,-430.5"/>
<text text-anchor="start" x="706" y="-441.9" font-family="Arial" font-size="14.00" fill="#000000">created </text>
<text text-anchor="start" x="756.5722" y="-441.9" font-family="Arial" font-size="14.00" fill="#666666">[datetime]</text>
<polygon fill="none" stroke="#000000" points="699,-400.5 699,-430.5 893,-430.5 893,-400.5 699,-400.5"/>
<text text-anchor="start" x="706" y="-411.9" font-family="Arial" font-size="14.00" fill="#000000">updated </text>
<text text-anchor="start" x="760.4768" y="-411.9" font-family="Arial" font-size="14.00" fill="#666666">[datetime]</text>
</g>
<!-- comments&#45;&gt;users -->
<g id="edge3" class="edge">
<title>comments:user_id&#45;&gt;users:id</title>
<path fill="none" stroke="#000000" stroke-dasharray="5,2" d="M688.7293,-504.6098C636.4521,-494.865 661.8513,-407.4415 699,-358 747.9209,-292.8906 826.0791,-372.1094 875,-307 900.7633,-272.7114 917.8889,-210.5 875,-210.5"/>
<polygon fill="#000000" stroke="#000000" points="689.0373,-504.6365 698.6114,-509.9832 694.0187,-505.0682 699,-505.5 699,-505.5 699,-505.5 694.0187,-505.0682 699.3886,-501.0168 689.0373,-504.6365 689.0373,-504.6365"/>
<text text-anchor="start" x="613.268" y="-515.5" font-family="Arial" font-size="10.00" fill="#000000">Detected Relation</text>
</g>
<!-- logs -->
<g id="node5" class="node">
<title>logs</title>
<polygon fill="#efefef" stroke="transparent" points="997,-595.5 997,-630.5 1163,-630.5 1163,-595.5 997,-595.5"/>
<polygon fill="none" stroke="#000000" points="997,-595.5 997,-630.5 1163,-630.5 1163,-595.5 997,-595.5"/>
<text text-anchor="start" x="1014.8698" y="-608.3" font-family="Arial Bold" font-size="18.00" fill="#000000">logs</text>
<text text-anchor="start" x="1047.8764" y="-608.3" font-family="Arial" font-size="14.00" fill="#000000"> </text>
<text text-anchor="start" x="1051.767" y="-608.3" font-family="Arial" font-size="14.00" fill="#666666">[BASE TABLE]</text>
<polygon fill="none" stroke="#000000" points="997,-565.5 997,-595.5 1163,-595.5 1163,-565.5 997,-565.5"/>
<text text-anchor="start" x="1004" y="-576.9" font-family="Arial" font-size="14.00" fill="#000000">id </text>
<text text-anchor="start" x="1018.7798" y="-576.9" font-family="Arial" font-size="14.00" fill="#666666">[bigint]</text>
<polygon fill="none" stroke="#000000" points="997,-535.5 997,-565.5 1163,-565.5 1163,-535.5 997,-535.5"/>
<text text-anchor="start" x="1004" y="-546.9" font-family="Arial" font-size="14.00" fill="#000000">user_id </text>
<text text-anchor="start" x="1053.7882" y="-546.9" font-family="Arial" font-size="14.00" fill="#666666">[int]</text>
<polygon fill="none" stroke="#000000" points="997,-505.5 997,-535.5 1163,-535.5 1163,-505.5 997,-505.5"/>
<text text-anchor="start" x="1004" y="-516.9" font-family="Arial" font-size="14.00" fill="#000000">post_id </text>
<text text-anchor="start" x="1053.0182" y="-516.9" font-family="Arial" font-size="14.00" fill="#666666">[bigint]</text>
<polygon fill="none" stroke="#000000" points="997,-475.5 997,-505.5 1163,-505.5 1163,-475.5 997,-475.5"/>
<text text-anchor="start" x="1004" y="-486.9" font-family="Arial" font-size="14.00" fill="#000000">comment_id </text>
<text text-anchor="start" x="1084.122" y="-486.9" font-family="Arial" font-size="14.00" fill="#666666">[bigint]</text>
<polygon fill="none" stroke="#000000" points="997,-445.5 997,-475.5 1163,-475.5 1163,-445.5 997,-445.5"/>
<text text-anchor="start" x="1003.7644" y="-456.9" font-family="Arial" font-size="14.00" fill="#000000">comment_star_id </text>
<text text-anchor="start" x="1115.0028" y="-456.9" font-family="Arial" font-size="14.00" fill="#666666">[bigint]</text>
<polygon fill="none" stroke="#000000" points="997,-415.5 997,-445.5 1163,-445.5 1163,-415.5 997,-415.5"/>
<text text-anchor="start" x="1004" y="-426.9" font-family="Arial" font-size="14.00" fill="#000000">payload </text>
<text text-anchor="start" x="1056.9102" y="-426.9" font-family="Arial" font-size="14.00" fill="#666666">[text]</text>
<polygon fill="none" stroke="#000000" points="997,-385.5 997,-415.5 1163,-415.5 1163,-385.5 997,-385.5"/>
<text text-anchor="start" x="1004" y="-396.9" font-family="Arial" font-size="14.00" fill="#000000">created </text>
<text text-anchor="start" x="1054.5722" y="-396.9" font-family="Arial" font-size="14.00" fill="#666666">[datetime]</text>
</g>
<!-- logs&#45;&gt;users -->
<g id="edge4" class="edge">
<title>logs:user_id&#45;&gt;users:id</title>
<path fill="none" stroke="#000000" stroke-dasharray="5,2" d="M986.6297,-549.9654C907.7784,-541.271 977.6782,-428.3159 945,-343 921.1775,-280.8044 941.6018,-210.5 875,-210.5"/>
<polygon fill="#000000" stroke="#000000" points="987.0133,-549.9851 996.7683,-554.994 992.0066,-550.2426 997,-550.5 997,-550.5 997,-550.5 992.0066,-550.2426 997.2317,-546.006 987.0133,-549.9851 987.0133,-549.9851"/>
<text text-anchor="start" x="911.268" y="-560.5" font-family="Arial" font-size="10.00" fill="#000000">Detected Relation</text>
</g>
<!-- posts -->
<g id="node6" class="node">
<title>posts</title>
<polygon fill="#efefef" stroke="transparent" points="1268,-595.5 1268,-630.5 1531,-630.5 1531,-595.5 1268,-595.5"/>
<polygon fill="none" stroke="#000000" points="1268,-595.5 1268,-630.5 1531,-630.5 1531,-595.5 1268,-595.5"/>
<text text-anchor="start" x="1329.3658" y="-608.3" font-family="Arial Bold" font-size="18.00" fill="#000000">posts</text>
<text text-anchor="start" x="1372.3804" y="-608.3" font-family="Arial" font-size="14.00" fill="#000000"> </text>
<text text-anchor="start" x="1376.271" y="-608.3" font-family="Arial" font-size="14.00" fill="#666666">[BASE TABLE]</text>
<polygon fill="none" stroke="#000000" points="1268,-565.5 1268,-595.5 1531,-595.5 1531,-565.5 1268,-565.5"/>
<text text-anchor="start" x="1275" y="-576.9" font-family="Arial" font-size="14.00" fill="#000000">id </text>
<text text-anchor="start" x="1289.7798" y="-576.9" font-family="Arial" font-size="14.00" fill="#666666">[bigint]</text>
<polygon fill="none" stroke="#000000" points="1268,-535.5 1268,-565.5 1531,-565.5 1531,-535.5 1268,-535.5"/>
<text text-anchor="start" x="1275" y="-546.9" font-family="Arial" font-size="14.00" fill="#000000">user_id </text>
<text text-anchor="start" x="1324.7882" y="-546.9" font-family="Arial" font-size="14.00" fill="#666666">[int]</text>
<polygon fill="none" stroke="#000000" points="1268,-505.5 1268,-535.5 1531,-535.5 1531,-505.5 1268,-505.5"/>
<text text-anchor="start" x="1275" y="-516.9" font-family="Arial" font-size="14.00" fill="#000000">title </text>
<text text-anchor="start" x="1300.6676" y="-516.9" font-family="Arial" font-size="14.00" fill="#666666">[varchar(255)]</text>
<polygon fill="none" stroke="#000000" points="1268,-475.5 1268,-505.5 1531,-505.5 1531,-475.5 1268,-475.5"/>
<text text-anchor="start" x="1275" y="-486.9" font-family="Arial" font-size="14.00" fill="#000000">body </text>
<text text-anchor="start" x="1309.2384" y="-486.9" font-family="Arial" font-size="14.00" fill="#666666">[text]</text>
<polygon fill="none" stroke="#000000" points="1268,-445.5 1268,-475.5 1531,-475.5 1531,-445.5 1268,-445.5"/>
<text text-anchor="start" x="1274.697" y="-456.9" font-family="Arial" font-size="14.00" fill="#000000">post_type </text>
<text text-anchor="start" x="1339.2818" y="-456.9" font-family="Arial" font-size="14.00" fill="#666666">[enum(&#39;public&#39;,&#39;private&#39;,&#39;draft&#39;)]</text>
<polygon fill="none" stroke="#000000" points="1268,-415.5 1268,-445.5 1531,-445.5 1531,-415.5 1268,-415.5"/>
<text text-anchor="start" x="1275" y="-426.9" font-family="Arial" font-size="14.00" fill="#000000">created </text>
<text text-anchor="start" x="1325.5722" y="-426.9" font-family="Arial" font-size="14.00" fill="#666666">[datetime]</text>
<polygon fill="none" stroke="#000000" points="1268,-385.5 1268,-415.5 1531,-415.5 1531,-385.5 1268,-385.5"/>
<text text-anchor="start" x="1275" y="-396.9" font-family="Arial" font-size="14.00" fill="#000000">updated </text>
<text text-anchor="start" x="1329.4768" y="-396.9" font-family="Arial" font-size="14.00" fill="#666666">[datetime]</text>
</g>
<!-- posts&#45;&gt;users -->
<g id="edge5" class="edge">
<title>posts:user_id&#45;&gt;users:id</title>
<path fill="none" stroke="#000000" stroke-dasharray="5,2" d="M1257.7414,-549.8884C1180.7848,-539.956 1275.6286,-411.4836 1215,-343 1107.4967,-221.5689 1037.1804,-210.5 875,-210.5"/>
<polygon fill="#000000" stroke="#000000" points="1258.0177,-549.9048 1267.7321,-554.992 1263.0089,-550.2024 1268,-550.5 1268,-550.5 1268,-550.5 1263.0089,-550.2024 1268.2679,-546.008 1258.0177,-549.9048 1258.0177,-549.9048"/>
<text text-anchor="start" x="1182.268" y="-560.5" font-family="Arial" font-size="10.00" fill="#000000">Detected Relation</text>
</g>
</g>
</svg>
