<?xml version="1.0" encoding="UTF-8" standalone="no"?>
<!DOCTYPE svg PUBLIC "-//W3C//DTD SVG 1.1//EN"
 "http://www.w3.org/Graphics/SVG/1.1/DTD/svg11.dtd">
<!-- Generated by graphviz version 12.1.2 (20240928.0832)
 -->
<!-- Title: users Pages: 1 -->
<svg width="1631pt" height="694pt"
 viewBox="0.00 0.00 1631.22 694.40" xmlns="http://www.w3.org/2000/svg" xmlns:xlink="http://www.w3.org/1999/xlink">
<g id="graph0" class="graph" transform="scale(1 1) rotate(0) translate(4 690.4)">
<title>users</title>
<polygon fill="white" stroke="none" points="-4,4 -4,-690.4 1627.22,-690.4 1627.22,4 -4,4"/>
<!-- users -->
<g id="node1" class="node">
<title>users</title>
<polygon fill="#efefef" stroke="none" points="747.7,-231 747.7,-266.6 923.18,-266.6 923.18,-231 747.7,-231"/>
<polygon fill="none" stroke="black" points="747.7,-231 747.7,-266.6 923.18,-266.6 923.18,-231 747.7,-231"/>
<text text-anchor="start" x="754.7" y="-244.4" font-family="Arial Bold" font-size="18.00">users</text>
<text text-anchor="start" x="791.69" y="-244.4" font-family="Arial" font-size="14.00">    </text>
<text text-anchor="start" x="822.81" y="-244.4" font-family="Arial" font-size="14.00" fill="#666666">[BASE TABLE]</text>
<polygon fill="none" stroke="black" points="747.7,-200.2 747.7,-231 923.18,-231 923.18,-200.2 747.7,-200.2"/>
<text text-anchor="start" x="754.7" y="-212.4" font-family="Arial" font-size="14.00">id </text>
<text text-anchor="start" x="769.49" y="-212.4" font-family="Arial" font-size="14.00" fill="#666666">[int]</text>
<polygon fill="none" stroke="black" points="747.7,-169.4 747.7,-200.2 923.18,-200.2 923.18,-169.4 747.7,-169.4"/>
<text text-anchor="start" x="754.7" y="-181.6" font-family="Arial" font-size="14.00">username </text>
<text text-anchor="start" x="820.85" y="-181.6" font-family="Arial" font-size="14.00" fill="#666666">[varchar(50)]</text>
<polygon fill="none" stroke="black" points="747.7,-138.6 747.7,-169.4 923.18,-169.4 923.18,-138.6 747.7,-138.6"/>
<text text-anchor="start" x="754.7" y="-150.8" font-family="Arial" font-size="14.00">password </text>
<text text-anchor="start" x="818.51" y="-150.8" font-family="Arial" font-size="14.00" fill="#666666">[varchar(50)]</text>
<polygon fill="none" stroke="black" points="747.7,-107.8 747.7,-138.6 923.18,-138.6 923.18,-107.8 747.7,-107.8"/>
<text text-anchor="start" x="754.7" y="-120" font-family="Arial" font-size="14.00">email </text>
<text text-anchor="start" x="792.05" y="-120" font-family="Arial" font-size="14.00" fill="#666666">[varchar(355)]</text>
<polygon fill="none" stroke="black" points="747.7,-77 747.7,-107.8 923.18,-107.8 923.18,-77 747.7,-77"/>
<text text-anchor="start" x="754.7" y="-89.2" font-family="Arial" font-size="14.00">created </text>
<text text-anchor="start" x="805.29" y="-89.2" font-family="Arial" font-size="14.00" fill="#666666">[timestamp]</text>
<polygon fill="none" stroke="black" points="747.7,-46.2 747.7,-77 923.18,-77 923.18,-46.2 747.7,-46.2"/>
<text text-anchor="start" x="754.7" y="-58.4" font-family="Arial" font-size="14.00">updated </text>
<text text-anchor="start" x="809.2" y="-58.4" font-family="Arial" font-size="14.00" fill="#666666">[timestamp]</text>
<polygon fill="none" stroke="black" stroke-width="3" points="746.2,-44.7 746.2,-268.1 924.68,-268.1 924.68,-44.7 746.2,-44.7"/>
</g>
<!-- user_options -->
<g id="node2" class="node">
<title>user_options</title>
<polygon fill="#efefef" stroke="none" points="43.2,-561.4 43.2,-597 273.68,-597 273.68,-561.4 43.2,-561.4"/>
<polygon fill="none" stroke="black" points="43.2,-561.4 43.2,-597 273.68,-597 273.68,-561.4 43.2,-561.4"/>
<text text-anchor="start" x="50.2" y="-574.8" font-family="Arial Bold" font-size="18.00">user_options</text>
<text text-anchor="start" x="142.2" y="-574.8" font-family="Arial" font-size="14.00">    </text>
<text text-anchor="start" x="173.31" y="-574.8" font-family="Arial" font-size="14.00" fill="#666666">[BASE TABLE]</text>
<polygon fill="none" stroke="black" points="43.2,-530.6 43.2,-561.4 273.68,-561.4 273.68,-530.6 43.2,-530.6"/>
<text text-anchor="start" x="50.2" y="-542.8" font-family="Arial" font-size="14.00">user_id </text>
<text text-anchor="start" x="100.01" y="-542.8" font-family="Arial" font-size="14.00" fill="#666666">[int]</text>
<polygon fill="none" stroke="black" points="43.2,-499.8 43.2,-530.6 273.68,-530.6 273.68,-499.8 43.2,-499.8"/>
<text text-anchor="start" x="50.2" y="-512" font-family="Arial" font-size="14.00">show_email </text>
<text text-anchor="start" x="128.01" y="-512" font-family="Arial" font-size="14.00" fill="#666666">[tinyint(1)]</text>
<polygon fill="none" stroke="black" points="43.2,-469 43.2,-499.8 273.68,-499.8 273.68,-469 43.2,-469"/>
<text text-anchor="start" x="50.2" y="-481.2" font-family="Arial" font-size="14.00">created </text>
<text text-anchor="start" x="100.79" y="-481.2" font-family="Arial" font-size="14.00" fill="#666666">[timestamp]</text>
<polygon fill="none" stroke="black" points="43.2,-438.2 43.2,-469 273.68,-469 273.68,-438.2 43.2,-438.2"/>
<text text-anchor="start" x="50.2" y="-450.4" font-family="Arial" font-size="14.00">updated </text>
<text text-anchor="start" x="104.7" y="-450.4" font-family="Arial" font-size="14.00" fill="#666666">[timestamp]</text>
</g>
<!-- user_options&#45;&gt;users -->
<g id="edge1" class="edge">
<title>user_options:user_id&#45;&gt;users:id</title>
<path fill="none" stroke="black" d="M284.87,-545.35C357.1,-535.32 265.76,-411.81 325.44,-348.8 392.96,-277.52 648.52,-215.6 746.7,-215.6"/>
<polygon fill="black" stroke="black" points="285,-545.34 274.73,-541.49 279.67,-545.68 275.35,-545.96 275.35,-545.96 275.35,-545.96 279.67,-545.68 275.3,-550.47 285,-545.34"/>
<text text-anchor="start" x="161.61" y="-530" font-family="Arial" font-size="10.00">FOREIGN KEY (user_id) REFERENCES users (id)</text>
</g>
<!-- comment_stars -->
<g id="node3" class="node">
<title>comment_stars</title>
<polygon fill="#efefef" stroke="none" points="377.71,-592.2 377.71,-627.8 625.17,-627.8 625.17,-592.2 377.71,-592.2"/>
<polygon fill="none" stroke="black" points="377.71,-592.2 377.71,-627.8 625.17,-627.8 625.17,-592.2 377.71,-592.2"/>
<text text-anchor="start" x="384.71" y="-605.6" font-family="Arial Bold" font-size="18.00">comment_stars</text>
<text text-anchor="start" x="493.69" y="-605.6" font-family="Arial" font-size="14.00">    </text>
<text text-anchor="start" x="524.8" y="-605.6" font-family="Arial" font-size="14.00" fill="#666666">[BASE TABLE]</text>
<polygon fill="none" stroke="black" points="377.71,-561.4 377.71,-592.2 625.17,-592.2 625.17,-561.4 377.71,-561.4"/>
<text text-anchor="start" x="384.71" y="-573.6" font-family="Arial" font-size="14.00">id </text>
<text text-anchor="start" x="399.5" y="-573.6" font-family="Arial" font-size="14.00" fill="#666666">[bigint]</text>
<polygon fill="none" stroke="black" points="377.71,-530.6 377.71,-561.4 625.17,-561.4 625.17,-530.6 377.71,-530.6"/>
<text text-anchor="start" x="384.71" y="-542.8" font-family="Arial" font-size="14.00">user_id </text>
<text text-anchor="start" x="434.52" y="-542.8" font-family="Arial" font-size="14.00" fill="#666666">[int]</text>
<polygon fill="none" stroke="black" points="377.71,-499.8 377.71,-530.6 625.17,-530.6 625.17,-499.8 377.71,-499.8"/>
<text text-anchor="start" x="384.71" y="-512" font-family="Arial" font-size="14.00">comment_post_id </text>
<text text-anchor="start" x="499.1" y="-512" font-family="Arial" font-size="14.00" fill="#666666">[bigint]</text>
<polygon fill="none" stroke="black" points="377.71,-469 377.71,-499.8 625.17,-499.8 625.17,-469 377.71,-469"/>
<text text-anchor="start" x="384.71" y="-481.2" font-family="Arial" font-size="14.00">comment_user_id </text>
<text text-anchor="start" x="499.87" y="-481.2" font-family="Arial" font-size="14.00" fill="#666666">[int]</text>
<polygon fill="none" stroke="black" points="377.71,-438.2 377.71,-469 625.17,-469 625.17,-438.2 377.71,-438.2"/>
<text text-anchor="start" x="384.71" y="-450.4" font-family="Arial" font-size="14.00">created </text>
<text text-anchor="start" x="435.3" y="-450.4" font-family="Arial" font-size="14.00" fill="#666666">[timestamp]</text>
<polygon fill="none" stroke="black" points="377.71,-407.4 377.71,-438.2 625.17,-438.2 625.17,-407.4 377.71,-407.4"/>
<text text-anchor="start" x="384.71" y="-419.6" font-family="Arial" font-size="14.00">updated </text>
<text text-anchor="start" x="439.21" y="-419.6" font-family="Arial" font-size="14.00" fill="#666666">[timestamp]</text>
</g>
<!-- comment_stars&#45;&gt;users -->
<g id="edge2" class="edge">
<title>comment_stars:user_id&#45;&gt;users:id</title>
<path fill="none" stroke="black" stroke-dasharray="5,2" d="M636.52,-545.44C711.02,-536.8 646.29,-429.86 677.44,-348.8 701.38,-286.52 679.98,-215.6 746.7,-215.6"/>
<polygon fill="black" stroke="black" points="636.49,-545.44 626.27,-541.49 631.17,-545.73 626.84,-545.96 626.84,-545.96 626.84,-545.96 631.17,-545.73 626.75,-550.48 636.49,-545.44"/>
<text text-anchor="start" x="633.17" y="-556" font-family="Arial" font-size="10.00">Detected Relation</text>
</g>
<!-- comments -->
<g id="node4" class="node">
<title>comments</title>
<polygon fill="#efefef" stroke="none" points="729.2,-592.2 729.2,-627.8 941.68,-627.8 941.68,-592.2 729.2,-592.2"/>
<polygon fill="none" stroke="black" points="729.2,-592.2 729.2,-627.8 941.68,-627.8 941.68,-592.2 729.2,-592.2"/>
<text text-anchor="start" x="736.2" y="-605.6" font-family="Arial Bold" font-size="18.00">comments</text>
<text text-anchor="start" x="810.19" y="-605.6" font-family="Arial" font-size="14.00">    </text>
<text text-anchor="start" x="841.31" y="-605.6" font-family="Arial" font-size="14.00" fill="#666666">[BASE TABLE]</text>
<polygon fill="none" stroke="black" points="729.2,-561.4 729.2,-592.2 941.68,-592.2 941.68,-561.4 729.2,-561.4"/>
<text text-anchor="start" x="736.2" y="-573.6" font-family="Arial" font-size="14.00">id </text>
<text text-anchor="start" x="750.99" y="-573.6" font-family="Arial" font-size="14.00" fill="#666666">[bigint]</text>
<polygon fill="none" stroke="black" points="729.2,-530.6 729.2,-561.4 941.68,-561.4 941.68,-530.6 729.2,-530.6"/>
<text text-anchor="start" x="736.2" y="-542.8" font-family="Arial" font-size="14.00">post_id </text>
<text text-anchor="start" x="785.24" y="-542.8" font-family="Arial" font-size="14.00" fill="#666666">[bigint]</text>
<polygon fill="none" stroke="black" points="729.2,-499.8 729.2,-530.6 941.68,-530.6 941.68,-499.8 729.2,-499.8"/>
<text text-anchor="start" x="736.2" y="-512" font-family="Arial" font-size="14.00">user_id </text>
<text text-anchor="start" x="786.01" y="-512" font-family="Arial" font-size="14.00" fill="#666666">[int]</text>
<polygon fill="none" stroke="black" points="729.2,-469 729.2,-499.8 941.68,-499.8 941.68,-469 729.2,-469"/>
<text text-anchor="start" x="736.2" y="-481.2" font-family="Arial" font-size="14.00">comment </text>
<text text-anchor="start" x="797.67" y="-481.2" font-family="Arial" font-size="14.00" fill="#666666">[text]</text>
<polygon fill="none" stroke="black" points="729.2,-438.2 729.2,-469 941.68,-469 941.68,-438.2 729.2,-438.2"/>
<text text-anchor="start" x="736.2" y="-450.4" font-family="Arial" font-size="14.00">created </text>
<text text-anchor="start" x="786.79" y="-450.4" font-family="Arial" font-size="14.00" fill="#666666">[datetime]</text>
<polygon fill="none" stroke="black" points="729.2,-407.4 729.2,-438.2 941.68,-438.2 941.68,-407.4 729.2,-407.4"/>
<text text-anchor="start" x="736.2" y="-419.6" font-family="Arial" font-size="14.00">updated </text>
<text text-anchor="start" x="790.7" y="-419.6" font-family="Arial" font-size="14.00" fill="#666666">[datetime]</text>
</g>
<!-- comments&#45;&gt;users -->
<g id="edge3" class="edge">
<title>comments:user_id&#45;&gt;users:id</title>
<path fill="none" stroke="black" stroke-dasharray="5,2" d="M952.53,-512.79C1007.3,-484.43 987.37,-215.6 924.18,-215.6"/>
<polygon fill="black" stroke="black" points="952.72,-512.74 941.93,-510.75 947.54,-514.01 943.33,-515.04 943.33,-515.04 943.33,-515.04 947.54,-514.01 944.08,-519.49 952.72,-512.74"/>
<text text-anchor="start" x="949.68" y="-525.2" font-family="Arial" font-size="10.00">Detected Relation</text>
</g>
<!-- logs -->
<g id="node5" class="node">
<title>logs</title>
<polygon fill="#efefef" stroke="none" points="1046.19,-607.6 1046.19,-643.2 1214.69,-643.2 1214.69,-607.6 1046.19,-607.6"/>
<polygon fill="none" stroke="black" points="1046.19,-607.6 1046.19,-643.2 1214.69,-643.2 1214.69,-607.6 1046.19,-607.6"/>
<text text-anchor="start" x="1053.19" y="-621" font-family="Arial Bold" font-size="18.00">logs</text>
<text text-anchor="start" x="1083.2" y="-621" font-family="Arial" font-size="14.00">    </text>
<text text-anchor="start" x="1114.32" y="-621" font-family="Arial" font-size="14.00" fill="#666666">[BASE TABLE]</text>
<polygon fill="none" stroke="black" points="1046.19,-576.8 1046.19,-607.6 1214.69,-607.6 1214.69,-576.8 1046.19,-576.8"/>
<text text-anchor="start" x="1053.19" y="-589" font-family="Arial" font-size="14.00">id </text>
<text text-anchor="start" x="1067.98" y="-589" font-family="Arial" font-size="14.00" fill="#666666">[bigint]</text>
<polygon fill="none" stroke="black" points="1046.19,-546 1046.19,-576.8 1214.69,-576.8 1214.69,-546 1046.19,-546"/>
<text text-anchor="start" x="1053.19" y="-558.2" font-family="Arial" font-size="14.00">user_id </text>
<text text-anchor="start" x="1103" y="-558.2" font-family="Arial" font-size="14.00" fill="#666666">[int]</text>
<polygon fill="none" stroke="black" points="1046.19,-515.2 1046.19,-546 1214.69,-546 1214.69,-515.2 1046.19,-515.2"/>
<text text-anchor="start" x="1053.19" y="-527.4" font-family="Arial" font-size="14.00">post_id </text>
<text text-anchor="start" x="1102.23" y="-527.4" font-family="Arial" font-size="14.00" fill="#666666">[bigint]</text>
<polygon fill="none" stroke="black" points="1046.19,-484.4 1046.19,-515.2 1214.69,-515.2 1214.69,-484.4 1046.19,-484.4"/>
<text text-anchor="start" x="1053.19" y="-496.6" font-family="Arial" font-size="14.00">comment_id </text>
<text text-anchor="start" x="1133.34" y="-496.6" font-family="Arial" font-size="14.00" fill="#666666">[bigint]</text>
<polygon fill="none" stroke="black" points="1046.19,-453.6 1046.19,-484.4 1214.69,-484.4 1214.69,-453.6 1046.19,-453.6"/>
<text text-anchor="start" x="1053.19" y="-465.8" font-family="Arial" font-size="14.00">comment_star_id </text>
<text text-anchor="start" x="1164.46" y="-465.8" font-family="Arial" font-size="14.00" fill="#666666">[bigint]</text>
<polygon fill="none" stroke="black" points="1046.19,-422.8 1046.19,-453.6 1214.69,-453.6 1214.69,-422.8 1046.19,-422.8"/>
<text text-anchor="start" x="1053.19" y="-435" font-family="Arial" font-size="14.00">payload </text>
<text text-anchor="start" x="1106.13" y="-435" font-family="Arial" font-size="14.00" fill="#666666">[text]</text>
<polygon fill="none" stroke="black" points="1046.19,-392 1046.19,-422.8 1214.69,-422.8 1214.69,-392 1046.19,-392"/>
<text text-anchor="start" x="1053.19" y="-404.2" font-family="Arial" font-size="14.00">created </text>
<text text-anchor="start" x="1103.78" y="-404.2" font-family="Arial" font-size="14.00" fill="#666666">[datetime]</text>
</g>
<!-- logs&#45;&gt;users -->
<g id="edge4" class="edge">
<title>logs:user_id&#45;&gt;users:id</title>
<path fill="none" stroke="black" stroke-dasharray="5,2" d="M1035.08,-560.91C953.7,-552.42 1026.35,-436.47 993.44,-348.8 969.99,-286.33 990.91,-215.6 924.18,-215.6"/>
<polygon fill="black" stroke="black" points="1034.87,-560.9 1044.64,-565.88 1040.2,-561.16 1044.53,-561.37 1044.53,-561.37 1044.53,-561.37 1040.2,-561.16 1045.08,-556.89 1034.87,-560.9"/>
<text text-anchor="start" x="958.7" y="-571.4" font-family="Arial" font-size="10.00">Detected Relation</text>
</g>
<!-- posts -->
<g id="node6" class="node">
<title>posts</title>
<polygon fill="#efefef" stroke="none" points="1318.87,-607.6 1318.87,-643.2 1580.02,-643.2 1580.02,-607.6 1318.87,-607.6"/>
<polygon fill="none" stroke="black" points="1318.87,-607.6 1318.87,-643.2 1580.02,-643.2 1580.02,-607.6 1318.87,-607.6"/>
<text text-anchor="start" x="1368.69" y="-621" font-family="Arial Bold" font-size="18.00">posts</text>
<text text-anchor="start" x="1405.7" y="-621" font-family="Arial" font-size="14.00">    </text>
<text text-anchor="start" x="1436.82" y="-621" font-family="Arial" font-size="14.00" fill="#666666">[BASE TABLE]</text>
<polygon fill="none" stroke="black" points="1318.87,-576.8 1318.87,-607.6 1580.02,-607.6 1580.02,-576.8 1318.87,-576.8"/>
<text text-anchor="start" x="1325.87" y="-589" font-family="Arial" font-size="14.00">id </text>
<text text-anchor="start" x="1340.65" y="-589" font-family="Arial" font-size="14.00" fill="#666666">[bigint]</text>
<polygon fill="none" stroke="black" points="1318.87,-546 1318.87,-576.8 1580.02,-576.8 1580.02,-546 1318.87,-546"/>
<text text-anchor="start" x="1325.87" y="-558.2" font-family="Arial" font-size="14.00">user_id </text>
<text text-anchor="start" x="1375.67" y="-558.2" font-family="Arial" font-size="14.00" fill="#666666">[int]</text>
<polygon fill="none" stroke="black" points="1318.87,-515.2 1318.87,-546 1580.02,-546 1580.02,-515.2 1318.87,-515.2"/>
<text text-anchor="start" x="1325.87" y="-527.4" font-family="Arial" font-size="14.00">title </text>
<text text-anchor="start" x="1351.54" y="-527.4" font-family="Arial" font-size="14.00" fill="#666666">[varchar(255)]</text>
<polygon fill="none" stroke="black" points="1318.87,-484.4 1318.87,-515.2 1580.02,-515.2 1580.02,-484.4 1318.87,-484.4"/>
<text text-anchor="start" x="1325.87" y="-496.6" font-family="Arial" font-size="14.00">body </text>
<text text-anchor="start" x="1360.11" y="-496.6" font-family="Arial" font-size="14.00" fill="#666666">[text]</text>
<polygon fill="none" stroke="black" points="1318.87,-453.6 1318.87,-484.4 1580.02,-484.4 1580.02,-453.6 1318.87,-453.6"/>
<text text-anchor="start" x="1325.87" y="-465.8" font-family="Arial" font-size="14.00">post_type </text>
<text text-anchor="start" x="1390.47" y="-465.8" font-family="Arial" font-size="14.00" fill="#666666">[enum(&#39;public&#39;,&#39;private&#39;,&#39;draft&#39;)]</text>
<polygon fill="none" stroke="black" points="1318.87,-422.8 1318.87,-453.6 1580.02,-453.6 1580.02,-422.8 1318.87,-422.8"/>
<text text-anchor="start" x="1325.87" y="-435" font-family="Arial" font-size="14.00">created </text>
<text text-anchor="start" x="1376.45" y="-435" font-family="Arial" font-size="14.00" fill="#666666">[datetime]</text>
<polygon fill="none" stroke="black" points="1318.87,-392 1318.87,-422.8 1580.02,-422.8 1580.02,-392 1318.87,-392"/>
<text text-anchor="start" x="1325.87" y="-404.2" font-family="Arial" font-size="14.00">updated </text>
<text text-anchor="start" x="1380.36" y="-404.2" font-family="Arial" font-size="14.00" fill="#666666">[datetime]</text>
</g>
<!-- posts&#45;&gt;users -->
<g id="edge5" class="edge">
<title>posts:user_id&#45;&gt;users:id</title>
<path fill="none" stroke="black" stroke-dasharray="5,2" d="M1307.88,-560.83C1228.56,-551.14 1328.06,-419.27 1266.44,-348.8 1159,-225.92 1087.41,-215.6 924.18,-215.6"/>
<polygon fill="black" stroke="black" points="1307.55,-560.82 1317.28,-565.87 1312.87,-561.12 1317.2,-561.36 1317.2,-561.36 1317.2,-561.36 1312.87,-561.12 1317.79,-556.89 1307.55,-560.82"/>
<text text-anchor="start" x="1231.37" y="-571.4" font-family="Arial" font-size="10.00">Detected Relation</text>
</g>
</g>
</svg>
