<?xml version="1.0" encoding="UTF-8" standalone="no"?>
<!DOCTYPE svg PUBLIC "-//W3C//DTD SVG 1.1//EN"
 "http://www.w3.org/Graphics/SVG/1.1/DTD/svg11.dtd">
<!-- Generated by graphviz version 2.40.1 (20161225.0304)
 -->
<!-- Title: users Pages: 1 -->
<svg width="1732pt" height="682pt"
 viewBox="0.00 0.00 1731.50 682.00" xmlns="http://www.w3.org/2000/svg" xmlns:xlink="http://www.w3.org/1999/xlink">
<g id="graph0" class="graph" transform="scale(1 1) rotate(0) translate(4 678)">
<title>users</title>
<polygon fill="#ffffff" stroke="transparent" points="-4,4 -4,-678 1727.5,-678 1727.5,4 -4,4"/>
<!-- users -->
<g id="node1" class="node">
<title>users</title>
<polygon fill="#efefef" stroke="transparent" points="778,-225.5 778,-260.5 963,-260.5 963,-225.5 778,-225.5"/>
<polygon fill="none" stroke="#000000" points="778,-225.5 778,-260.5 963,-260.5 963,-225.5 778,-225.5"/>
<text text-anchor="start" x="784.7137" y="-238.3" font-family="Arial Bold" font-size="18.00" fill="#000000">users</text>
<text text-anchor="start" x="828.7183" y="-238.3" font-family="Arial" font-size="14.00" fill="#000000">    </text>
<text text-anchor="start" x="862.9231" y="-238.3" font-family="Arial" font-size="14.00" fill="#666666">[BASE TABLE]</text>
<polygon fill="none" stroke="#000000" points="778,-195.5 778,-225.5 963,-225.5 963,-195.5 778,-195.5"/>
<text text-anchor="start" x="785" y="-206.9" font-family="Arial" font-size="14.00" fill="#000000">id </text>
<text text-anchor="start" x="799.7798" y="-206.9" font-family="Arial" font-size="14.00" fill="#666666">[int]</text>
<polygon fill="none" stroke="#000000" points="778,-165.5 778,-195.5 963,-195.5 963,-165.5 778,-165.5"/>
<text text-anchor="start" x="785" y="-176.9" font-family="Arial" font-size="14.00" fill="#000000">username </text>
<text text-anchor="start" x="851.1248" y="-176.9" font-family="Arial" font-size="14.00" fill="#666666">[varchar(50)]</text>
<polygon fill="none" stroke="#000000" points="778,-135.5 778,-165.5 963,-165.5 963,-135.5 778,-135.5"/>
<text text-anchor="start" x="785" y="-146.9" font-family="Arial" font-size="14.00" fill="#000000">password </text>
<text text-anchor="start" x="848.7882" y="-146.9" font-family="Arial" font-size="14.00" fill="#666666">[varchar(50)]</text>
<polygon fill="none" stroke="#000000" points="778,-105.5 778,-135.5 963,-135.5 963,-105.5 778,-105.5"/>
<text text-anchor="start" x="785" y="-116.9" font-family="Arial" font-size="14.00" fill="#000000">email </text>
<text text-anchor="start" x="822.3296" y="-116.9" font-family="Arial" font-size="14.00" fill="#666666">[varchar(355)]</text>
<polygon fill="none" stroke="#000000" points="778,-75.5 778,-105.5 963,-105.5 963,-75.5 778,-75.5"/>
<text text-anchor="start" x="785" y="-86.9" font-family="Arial" font-size="14.00" fill="#000000">created </text>
<text text-anchor="start" x="835.5722" y="-86.9" font-family="Arial" font-size="14.00" fill="#666666">[timestamp]</text>
<polygon fill="none" stroke="#000000" points="778,-45.5 778,-75.5 963,-75.5 963,-45.5 778,-45.5"/>
<text text-anchor="start" x="785" y="-56.9" font-family="Arial" font-size="14.00" fill="#000000">updated </text>
<text text-anchor="start" x="839.4768" y="-56.9" font-family="Arial" font-size="14.00" fill="#666666">[timestamp]</text>
<polygon fill="none" stroke="#000000" stroke-width="3" points="776,-44.5 776,-262.5 964,-262.5 964,-44.5 776,-44.5"/>
</g>
<!-- user_options -->
<g id="node2" class="node">
<title>user_options</title>
<polygon fill="#efefef" stroke="transparent" points="43,-550.5 43,-585.5 287,-585.5 287,-550.5 43,-550.5"/>
<polygon fill="none" stroke="#000000" points="43,-550.5 43,-585.5 287,-585.5 287,-550.5 43,-550.5"/>
<text text-anchor="start" x="49.7" y="-563.3" font-family="Arial Bold" font-size="18.00" fill="#000000">user_options</text>
<text text-anchor="start" x="152.732" y="-563.3" font-family="Arial" font-size="14.00" fill="#000000">    </text>
<text text-anchor="start" x="186.9368" y="-563.3" font-family="Arial" font-size="14.00" fill="#666666">[BASE TABLE]</text>
<polygon fill="none" stroke="#000000" points="43,-520.5 43,-550.5 287,-550.5 287,-520.5 43,-520.5"/>
<text text-anchor="start" x="50" y="-531.9" font-family="Arial" font-size="14.00" fill="#000000">user_id    </text>
<text text-anchor="start" x="130.1024" y="-531.9" font-family="Arial" font-size="14.00" fill="#666666">[int]</text>
<polygon fill="none" stroke="#000000" points="43,-490.5 43,-520.5 287,-520.5 287,-490.5 43,-490.5"/>
<text text-anchor="start" x="50" y="-501.9" font-family="Arial" font-size="14.00" fill="#000000">show_email    </text>
<text text-anchor="start" x="158.0982" y="-501.9" font-family="Arial" font-size="14.00" fill="#666666">[tinyint(1)]</text>
<polygon fill="none" stroke="#000000" points="43,-460.5 43,-490.5 287,-490.5 287,-460.5 43,-460.5"/>
<text text-anchor="start" x="50" y="-471.9" font-family="Arial" font-size="14.00" fill="#000000">created    </text>
<text text-anchor="start" x="130.8864" y="-471.9" font-family="Arial" font-size="14.00" fill="#666666">[timestamp]</text>
<polygon fill="none" stroke="#000000" points="43,-430.5 43,-460.5 287,-460.5 287,-430.5 43,-430.5"/>
<text text-anchor="start" x="50" y="-441.9" font-family="Arial" font-size="14.00" fill="#000000">updated    </text>
<text text-anchor="start" x="134.791" y="-441.9" font-family="Arial" font-size="14.00" fill="#666666">[timestamp]</text>
</g>
<!-- user_options&#45;&gt;users -->
<g id="edge1" class="edge">
<title>user_options:user_id&#45;&gt;users:id</title>
<path fill="none" stroke="#000000" d="M296.9849,-534.8627C367.8226,-525.0342 279.7916,-403.9688 339,-343 409.9926,-269.8966 676.0978,-210.5 778,-210.5"/>
<polygon fill="#000000" stroke="#000000" points="296.9797,-534.863 286.7133,-531.0091 291.9898,-535.1815 287,-535.5 287,-535.5 287,-535.5 291.9898,-535.1815 287.2867,-539.9909 296.9797,-534.863 296.9797,-534.863"/>
<text text-anchor="start" x="173.945" y="-519.5" font-family="Arial" font-size="10.00" fill="#000000">FOREIGN KEY (user_id) REFERENCES users (id)</text>
</g>
<!-- comment_stars -->
<g id="node3" class="node">
<title>comment_stars</title>
<polygon fill="#efefef" stroke="transparent" points="391,-580.5 391,-615.5 655,-615.5 655,-580.5 391,-580.5"/>
<polygon fill="none" stroke="#000000" points="391,-580.5 391,-615.5 655,-615.5 655,-580.5 391,-580.5"/>
<text text-anchor="start" x="397.71" y="-593.3" font-family="Arial Bold" font-size="18.00" fill="#000000">comment_stars</text>
<text text-anchor="start" x="520.722" y="-593.3" font-family="Arial" font-size="14.00" fill="#000000">    </text>
<text text-anchor="start" x="554.9268" y="-593.3" font-family="Arial" font-size="14.00" fill="#666666">[BASE TABLE]</text>
<polygon fill="none" stroke="#000000" points="391,-550.5 391,-580.5 655,-580.5 655,-550.5 391,-550.5"/>
<text text-anchor="start" x="398" y="-561.9" font-family="Arial" font-size="14.00" fill="#000000">id    </text>
<text text-anchor="start" x="443.094" y="-561.9" font-family="Arial" font-size="14.00" fill="#666666">[bigint]</text>
<polygon fill="none" stroke="#000000" points="391,-520.5 391,-550.5 655,-550.5 655,-520.5 391,-520.5"/>
<text text-anchor="start" x="398" y="-531.9" font-family="Arial" font-size="14.00" fill="#000000">user_id    </text>
<text text-anchor="start" x="478.1024" y="-531.9" font-family="Arial" font-size="14.00" fill="#666666">[int]</text>
<polygon fill="none" stroke="#000000" points="391,-490.5 391,-520.5 655,-520.5 655,-490.5 391,-490.5"/>
<text text-anchor="start" x="398" y="-501.9" font-family="Arial" font-size="14.00" fill="#000000">comment_post_id    </text>
<text text-anchor="start" x="542.6746" y="-501.9" font-family="Arial" font-size="14.00" fill="#666666">[bigint]</text>
<polygon fill="none" stroke="#000000" points="391,-460.5 391,-490.5 655,-490.5 655,-460.5 391,-460.5"/>
<text text-anchor="start" x="398" y="-471.9" font-family="Arial" font-size="14.00" fill="#000000">comment_user_id    </text>
<text text-anchor="start" x="543.4446" y="-471.9" font-family="Arial" font-size="14.00" fill="#666666">[int]</text>
<polygon fill="none" stroke="#000000" points="391,-430.5 391,-460.5 655,-460.5 655,-430.5 391,-430.5"/>
<text text-anchor="start" x="398" y="-441.9" font-family="Arial" font-size="14.00" fill="#000000">created    </text>
<text text-anchor="start" x="478.8864" y="-441.9" font-family="Arial" font-size="14.00" fill="#666666">[timestamp]</text>
<polygon fill="none" stroke="#000000" points="391,-400.5 391,-430.5 655,-430.5 655,-400.5 391,-400.5"/>
<text text-anchor="start" x="398" y="-411.9" font-family="Arial" font-size="14.00" fill="#000000">updated    </text>
<text text-anchor="start" x="482.791" y="-411.9" font-family="Arial" font-size="14.00" fill="#666666">[timestamp]</text>
</g>
<!-- comment_stars&#45;&gt;users -->
<g id="edge2" class="edge">
<title>comment_stars:user_id&#45;&gt;users:id</title>
<path fill="none" stroke="#000000" stroke-dasharray="5,2" d="M665.1255,-534.9537C738.1074,-526.5126 675.6444,-421.9915 707,-343 731.6494,-280.9028 711.1894,-210.5 778,-210.5"/>
<polygon fill="#000000" stroke="#000000" points="664.9855,-534.9612 654.7575,-531.0065 659.9927,-535.2306 655,-535.5 655,-535.5 655,-535.5 659.9927,-535.2306 655.2425,-539.9935 664.9855,-534.9612 664.9855,-534.9612"/>
<text text-anchor="start" x="662.268" y="-545.5" font-family="Arial" font-size="10.00" fill="#000000">Detected Relation</text>
</g>
<!-- comments -->
<g id="node4" class="node">
<title>comments</title>
<polygon fill="#efefef" stroke="transparent" points="759,-580.5 759,-615.5 983,-615.5 983,-580.5 759,-580.5"/>
<polygon fill="none" stroke="#000000" points="759,-580.5 759,-615.5 983,-615.5 983,-580.5 759,-580.5"/>
<text text-anchor="start" x="765.7134" y="-593.3" font-family="Arial Bold" font-size="18.00" fill="#000000">comments</text>
<text text-anchor="start" x="848.7186" y="-593.3" font-family="Arial" font-size="14.00" fill="#000000">    </text>
<text text-anchor="start" x="882.9234" y="-593.3" font-family="Arial" font-size="14.00" fill="#666666">[BASE TABLE]</text>
<polygon fill="none" stroke="#000000" points="759,-550.5 759,-580.5 983,-580.5 983,-550.5 759,-550.5"/>
<text text-anchor="start" x="766" y="-561.9" font-family="Arial" font-size="14.00" fill="#000000">id    </text>
<text text-anchor="start" x="811.094" y="-561.9" font-family="Arial" font-size="14.00" fill="#666666">[bigint]</text>
<polygon fill="none" stroke="#000000" points="759,-520.5 759,-550.5 983,-550.5 983,-520.5 759,-520.5"/>
<text text-anchor="start" x="766" y="-531.9" font-family="Arial" font-size="14.00" fill="#000000">post_id    </text>
<text text-anchor="start" x="845.3324" y="-531.9" font-family="Arial" font-size="14.00" fill="#666666">[bigint]</text>
<polygon fill="none" stroke="#000000" points="759,-490.5 759,-520.5 983,-520.5 983,-490.5 759,-490.5"/>
<text text-anchor="start" x="766" y="-501.9" font-family="Arial" font-size="14.00" fill="#000000">user_id    </text>
<text text-anchor="start" x="846.1024" y="-501.9" font-family="Arial" font-size="14.00" fill="#666666">[int]</text>
<polygon fill="none" stroke="#000000" points="759,-460.5 759,-490.5 983,-490.5 983,-460.5 759,-460.5"/>
<text text-anchor="start" x="766" y="-471.9" font-family="Arial" font-size="14.00" fill="#000000">comment    </text>
<text text-anchor="start" x="857.7644" y="-471.9" font-family="Arial" font-size="14.00" fill="#666666">[text]</text>
<polygon fill="none" stroke="#000000" points="759,-430.5 759,-460.5 983,-460.5 983,-430.5 759,-430.5"/>
<text text-anchor="start" x="766" y="-441.9" font-family="Arial" font-size="14.00" fill="#000000">created    </text>
<text text-anchor="start" x="846.8864" y="-441.9" font-family="Arial" font-size="14.00" fill="#666666">[datetime]</text>
<polygon fill="none" stroke="#000000" points="759,-400.5 759,-430.5 983,-430.5 983,-400.5 759,-400.5"/>
<text text-anchor="start" x="766" y="-411.9" font-family="Arial" font-size="14.00" fill="#000000">updated    </text>
<text text-anchor="start" x="850.791" y="-411.9" font-family="Arial" font-size="14.00" fill="#666666">[datetime]</text>
</g>
<!-- comments&#45;&gt;users -->
<g id="edge3" class="edge">
<title>comments:user_id&#45;&gt;users:id</title>
<path fill="none" stroke="#000000" stroke-dasharray="5,2" d="M748.7205,-504.6031C696.349,-494.7861 720.9414,-406.7446 759,-358 816.5146,-284.3366 905.4854,-380.6634 963,-307 989.3943,-273.1947 1005.8889,-210.5 963,-210.5"/>
<polygon fill="#000000" stroke="#000000" points="749.0378,-504.6307 758.6088,-509.983 754.0189,-505.0654 759,-505.5 759,-505.5 759,-505.5 754.0189,-505.0654 759.3912,-501.017 749.0378,-504.6307 749.0378,-504.6307"/>
<text text-anchor="start" x="673.268" y="-515.5" font-family="Arial" font-size="10.00" fill="#000000">Detected Relation</text>
</g>
<!-- logs -->
<g id="node5" class="node">
<title>logs</title>
<polygon fill="#efefef" stroke="transparent" points="1087,-595.5 1087,-630.5 1283,-630.5 1283,-595.5 1087,-595.5"/>
<polygon fill="none" stroke="#000000" points="1087,-595.5 1087,-630.5 1283,-630.5 1283,-595.5 1087,-595.5"/>
<text text-anchor="start" x="1104.7127" y="-608.3" font-family="Arial Bold" font-size="18.00" fill="#000000">logs</text>
<text text-anchor="start" x="1137.7193" y="-608.3" font-family="Arial" font-size="14.00" fill="#000000">    </text>
<text text-anchor="start" x="1171.9241" y="-608.3" font-family="Arial" font-size="14.00" fill="#666666">[BASE TABLE]</text>
<polygon fill="none" stroke="#000000" points="1087,-565.5 1087,-595.5 1283,-595.5 1283,-565.5 1087,-565.5"/>
<text text-anchor="start" x="1094" y="-576.9" font-family="Arial" font-size="14.00" fill="#000000">id    </text>
<text text-anchor="start" x="1139.094" y="-576.9" font-family="Arial" font-size="14.00" fill="#666666">[bigint]</text>
<polygon fill="none" stroke="#000000" points="1087,-535.5 1087,-565.5 1283,-565.5 1283,-535.5 1087,-535.5"/>
<text text-anchor="start" x="1094" y="-546.9" font-family="Arial" font-size="14.00" fill="#000000">user_id    </text>
<text text-anchor="start" x="1174.1024" y="-546.9" font-family="Arial" font-size="14.00" fill="#666666">[int]</text>
<polygon fill="none" stroke="#000000" points="1087,-505.5 1087,-535.5 1283,-535.5 1283,-505.5 1087,-505.5"/>
<text text-anchor="start" x="1094" y="-516.9" font-family="Arial" font-size="14.00" fill="#000000">post_id    </text>
<text text-anchor="start" x="1173.3324" y="-516.9" font-family="Arial" font-size="14.00" fill="#666666">[bigint]</text>
<polygon fill="none" stroke="#000000" points="1087,-475.5 1087,-505.5 1283,-505.5 1283,-475.5 1087,-475.5"/>
<text text-anchor="start" x="1094" y="-486.9" font-family="Arial" font-size="14.00" fill="#000000">comment_id    </text>
<text text-anchor="start" x="1204.4362" y="-486.9" font-family="Arial" font-size="14.00" fill="#666666">[bigint]</text>
<polygon fill="none" stroke="#000000" points="1087,-445.5 1087,-475.5 1283,-475.5 1283,-445.5 1087,-445.5"/>
<text text-anchor="start" x="1093.6073" y="-456.9" font-family="Arial" font-size="14.00" fill="#000000">comment_star_id    </text>
<text text-anchor="start" x="1235.1599" y="-456.9" font-family="Arial" font-size="14.00" fill="#666666">[bigint]</text>
<polygon fill="none" stroke="#000000" points="1087,-415.5 1087,-445.5 1283,-445.5 1283,-415.5 1087,-415.5"/>
<text text-anchor="start" x="1094" y="-426.9" font-family="Arial" font-size="14.00" fill="#000000">payload    </text>
<text text-anchor="start" x="1177.2244" y="-426.9" font-family="Arial" font-size="14.00" fill="#666666">[text]</text>
<polygon fill="none" stroke="#000000" points="1087,-385.5 1087,-415.5 1283,-415.5 1283,-385.5 1087,-385.5"/>
<text text-anchor="start" x="1094" y="-396.9" font-family="Arial" font-size="14.00" fill="#000000">created    </text>
<text text-anchor="start" x="1174.8864" y="-396.9" font-family="Arial" font-size="14.00" fill="#666666">[datetime]</text>
</g>
<!-- logs&#45;&gt;users -->
<g id="edge4" class="edge">
<title>logs:user_id&#45;&gt;users:id</title>
<path fill="none" stroke="#000000" stroke-dasharray="5,2" d="M1076.632,-549.9645C997.8175,-541.2559 1068.1779,-428.1229 1035,-343 1010.6607,-280.554 1030.0216,-210.5 963,-210.5"/>
<polygon fill="#000000" stroke="#000000" points="1077.0133,-549.9841 1086.7679,-554.994 1082.0067,-550.2421 1087,-550.5 1087,-550.5 1087,-550.5 1082.0067,-550.2421 1087.2321,-546.006 1077.0133,-549.9841 1077.0133,-549.9841"/>
<text text-anchor="start" x="1001.268" y="-560.5" font-family="Arial" font-size="10.00" fill="#000000">Detected Relation</text>
</g>
<!-- posts -->
<g id="node6" class="node">
<title>posts</title>
<polygon fill="#efefef" stroke="transparent" points="1388,-595.5 1388,-630.5 1681,-630.5 1681,-595.5 1388,-595.5"/>
<polygon fill="none" stroke="#000000" points="1388,-595.5 1388,-630.5 1681,-630.5 1681,-595.5 1388,-595.5"/>
<text text-anchor="start" x="1449.2087" y="-608.3" font-family="Arial Bold" font-size="18.00" fill="#000000">posts</text>
<text text-anchor="start" x="1492.2233" y="-608.3" font-family="Arial" font-size="14.00" fill="#000000">    </text>
<text text-anchor="start" x="1526.4281" y="-608.3" font-family="Arial" font-size="14.00" fill="#666666">[BASE TABLE]</text>
<polygon fill="none" stroke="#000000" points="1388,-565.5 1388,-595.5 1681,-595.5 1681,-565.5 1388,-565.5"/>
<text text-anchor="start" x="1395" y="-576.9" font-family="Arial" font-size="14.00" fill="#000000">id    </text>
<text text-anchor="start" x="1440.094" y="-576.9" font-family="Arial" font-size="14.00" fill="#666666">[bigint]</text>
<polygon fill="none" stroke="#000000" points="1388,-535.5 1388,-565.5 1681,-565.5 1681,-535.5 1388,-535.5"/>
<text text-anchor="start" x="1395" y="-546.9" font-family="Arial" font-size="14.00" fill="#000000">user_id    </text>
<text text-anchor="start" x="1475.1024" y="-546.9" font-family="Arial" font-size="14.00" fill="#666666">[int]</text>
<polygon fill="none" stroke="#000000" points="1388,-505.5 1388,-535.5 1681,-535.5 1681,-505.5 1388,-505.5"/>
<text text-anchor="start" x="1395" y="-516.9" font-family="Arial" font-size="14.00" fill="#000000">title    </text>
<text text-anchor="start" x="1450.9818" y="-516.9" font-family="Arial" font-size="14.00" fill="#666666">[varchar(255)]</text>
<polygon fill="none" stroke="#000000" points="1388,-475.5 1388,-505.5 1681,-505.5 1681,-475.5 1388,-475.5"/>
<text text-anchor="start" x="1395" y="-486.9" font-family="Arial" font-size="14.00" fill="#000000">body    </text>
<text text-anchor="start" x="1459.5526" y="-486.9" font-family="Arial" font-size="14.00" fill="#666666">[text]</text>
<polygon fill="none" stroke="#000000" points="1388,-445.5 1388,-475.5 1681,-475.5 1681,-445.5 1388,-445.5"/>
<text text-anchor="start" x="1394.5399" y="-456.9" font-family="Arial" font-size="14.00" fill="#000000">post_type    </text>
<text text-anchor="start" x="1489.4389" y="-456.9" font-family="Arial" font-size="14.00" fill="#666666">[enum(&#39;public&#39;,&#39;private&#39;,&#39;draft&#39;)]</text>
<polygon fill="none" stroke="#000000" points="1388,-415.5 1388,-445.5 1681,-445.5 1681,-415.5 1388,-415.5"/>
<text text-anchor="start" x="1395" y="-426.9" font-family="Arial" font-size="14.00" fill="#000000">created    </text>
<text text-anchor="start" x="1475.8864" y="-426.9" font-family="Arial" font-size="14.00" fill="#666666">[datetime]</text>
<polygon fill="none" stroke="#000000" points="1388,-385.5 1388,-415.5 1681,-415.5 1681,-385.5 1388,-385.5"/>
<text text-anchor="start" x="1395" y="-396.9" font-family="Arial" font-size="14.00" fill="#000000">updated    </text>
<text text-anchor="start" x="1479.791" y="-396.9" font-family="Arial" font-size="14.00" fill="#666666">[datetime]</text>
</g>
<!-- posts&#45;&gt;users -->
<g id="edge5" class="edge">
<title>posts:user_id&#45;&gt;users:id</title>
<path fill="none" stroke="#000000" stroke-dasharray="5,2" d="M1377.746,-549.8843C1300.863,-539.8857 1396.6297,-410.5841 1335,-343 1216.7415,-213.316 1138.5079,-210.5 963,-210.5"/>
<polygon fill="#000000" stroke="#000000" points="1378.018,-549.9005 1387.7302,-554.9919 1383.009,-550.2002 1388,-550.5 1388,-550.5 1388,-550.5 1383.009,-550.2002 1388.2698,-546.0081 1378.018,-549.9005 1378.018,-549.9005"/>
<text text-anchor="start" x="1302.268" y="-560.5" font-family="Arial" font-size="10.00" fill="#000000">Detected Relation</text>
</g>
</g>
</svg>
