<?xml version="1.0" encoding="UTF-8" standalone="no"?>
<!DOCTYPE svg PUBLIC "-//W3C//DTD SVG 1.1//EN"
 "http://www.w3.org/Graphics/SVG/1.1/DTD/svg11.dtd">
<!-- Generated by graphviz version 2.40.1 (20161225.0304)
 -->
<!-- Title: users Pages: 1 -->
<svg width="1264pt" height="682pt"
 viewBox="0.00 0.00 1263.50 682.00" xmlns="http://www.w3.org/2000/svg" xmlns:xlink="http://www.w3.org/1999/xlink">
<g id="graph0" class="graph" transform="scale(1 1) rotate(0) translate(4 678)">
<title>users</title>
<polygon fill="#ffffff" stroke="transparent" points="-4,4 -4,-678 1259.5,-678 1259.5,4 -4,4"/>
<!-- users -->
<g id="node1" class="node">
<title>users</title>
<polygon fill="#efefef" stroke="transparent" points="540,-225.5 540,-260.5 699,-260.5 699,-225.5 540,-225.5"/>
<polygon fill="none" stroke="#000000" points="540,-225.5 540,-260.5 699,-260.5 699,-225.5 540,-225.5"/>
<text text-anchor="start" x="548.8708" y="-238.3" font-family="Arial Bold" font-size="18.00" fill="#000000">users</text>
<text text-anchor="start" x="592.8754" y="-238.3" font-family="Arial" font-size="14.00" fill="#000000"> </text>
<text text-anchor="start" x="596.766" y="-238.3" font-family="Arial" font-size="14.00" fill="#666666">[BASE TABLE]</text>
<polygon fill="none" stroke="#000000" points="540,-195.5 540,-225.5 699,-225.5 699,-195.5 540,-195.5"/>
<text text-anchor="start" x="547" y="-206.9" font-family="Arial" font-size="14.00" fill="#000000">id </text>
<text text-anchor="start" x="561.7798" y="-206.9" font-family="Arial" font-size="14.00" fill="#666666">[int]</text>
<polygon fill="none" stroke="#000000" points="540,-165.5 540,-195.5 699,-195.5 699,-165.5 540,-165.5"/>
<text text-anchor="start" x="546.7693" y="-176.9" font-family="Arial" font-size="14.00" fill="#000000">username </text>
<text text-anchor="start" x="612.8941" y="-176.9" font-family="Arial" font-size="14.00" fill="#666666">[varchar(50)]</text>
<polygon fill="none" stroke="#000000" points="540,-135.5 540,-165.5 699,-165.5 699,-135.5 540,-135.5"/>
<text text-anchor="start" x="547" y="-146.9" font-family="Arial" font-size="14.00" fill="#000000">password </text>
<text text-anchor="start" x="610.7882" y="-146.9" font-family="Arial" font-size="14.00" fill="#666666">[varchar(50)]</text>
<polygon fill="none" stroke="#000000" points="540,-105.5 540,-135.5 699,-135.5 699,-105.5 540,-105.5"/>
<text text-anchor="start" x="547" y="-116.9" font-family="Arial" font-size="14.00" fill="#000000">email </text>
<text text-anchor="start" x="584.3296" y="-116.9" font-family="Arial" font-size="14.00" fill="#666666">[varchar(355)]</text>
<polygon fill="none" stroke="#000000" points="540,-75.5 540,-105.5 699,-105.5 699,-75.5 540,-75.5"/>
<text text-anchor="start" x="547" y="-86.9" font-family="Arial" font-size="14.00" fill="#000000">created </text>
<text text-anchor="start" x="597.5722" y="-86.9" font-family="Arial" font-size="14.00" fill="#666666">[timestamp]</text>
<polygon fill="none" stroke="#000000" points="540,-45.5 540,-75.5 699,-75.5 699,-45.5 540,-45.5"/>
<text text-anchor="start" x="547" y="-56.9" font-family="Arial" font-size="14.00" fill="#000000">updated </text>
<text text-anchor="start" x="601.4768" y="-56.9" font-family="Arial" font-size="14.00" fill="#666666">[timestamp]</text>
<polygon fill="none" stroke="#000000" stroke-width="3" points="538,-44.5 538,-262.5 700,-262.5 700,-44.5 538,-44.5"/>
</g>
<!-- comment_stars -->
<g id="node2" class="node">
<title>comment_stars</title>
<polygon fill="#efefef" stroke="transparent" points="43,-580.5 43,-615.5 277,-615.5 277,-580.5 43,-580.5"/>
<polygon fill="none" stroke="#000000" points="43,-580.5 43,-615.5 277,-615.5 277,-580.5 43,-580.5"/>
<text text-anchor="start" x="49.8671" y="-593.3" font-family="Arial Bold" font-size="18.00" fill="#000000">comment_stars</text>
<text text-anchor="start" x="172.8791" y="-593.3" font-family="Arial" font-size="14.00" fill="#000000"> </text>
<text text-anchor="start" x="176.7697" y="-593.3" font-family="Arial" font-size="14.00" fill="#666666">[BASE TABLE]</text>
<polygon fill="none" stroke="#000000" points="43,-550.5 43,-580.5 277,-580.5 277,-550.5 43,-550.5"/>
<text text-anchor="start" x="50" y="-561.9" font-family="Arial" font-size="14.00" fill="#000000">id </text>
<text text-anchor="start" x="64.7798" y="-561.9" font-family="Arial" font-size="14.00" fill="#666666">[bigint]</text>
<polygon fill="none" stroke="#000000" points="43,-520.5 43,-550.5 277,-550.5 277,-520.5 43,-520.5"/>
<text text-anchor="start" x="50" y="-531.9" font-family="Arial" font-size="14.00" fill="#000000">user_id </text>
<text text-anchor="start" x="99.7882" y="-531.9" font-family="Arial" font-size="14.00" fill="#666666">[int]</text>
<polygon fill="none" stroke="#000000" points="43,-490.5 43,-520.5 277,-520.5 277,-490.5 43,-490.5"/>
<text text-anchor="start" x="50" y="-501.9" font-family="Arial" font-size="14.00" fill="#000000">comment_post_id </text>
<text text-anchor="start" x="164.3604" y="-501.9" font-family="Arial" font-size="14.00" fill="#666666">[bigint]</text>
<polygon fill="none" stroke="#000000" points="43,-460.5 43,-490.5 277,-490.5 277,-460.5 43,-460.5"/>
<text text-anchor="start" x="50" y="-471.9" font-family="Arial" font-size="14.00" fill="#000000">comment_user_id </text>
<text text-anchor="start" x="165.1304" y="-471.9" font-family="Arial" font-size="14.00" fill="#666666">[int]</text>
<polygon fill="none" stroke="#000000" points="43,-430.5 43,-460.5 277,-460.5 277,-430.5 43,-430.5"/>
<text text-anchor="start" x="50" y="-441.9" font-family="Arial" font-size="14.00" fill="#000000">created </text>
<text text-anchor="start" x="100.5722" y="-441.9" font-family="Arial" font-size="14.00" fill="#666666">[timestamp]</text>
<polygon fill="none" stroke="#000000" points="43,-400.5 43,-430.5 277,-430.5 277,-400.5 43,-400.5"/>
<text text-anchor="start" x="50" y="-411.9" font-family="Arial" font-size="14.00" fill="#000000">updated </text>
<text text-anchor="start" x="104.4768" y="-411.9" font-family="Arial" font-size="14.00" fill="#666666">[timestamp]</text>
</g>
<!-- comment_stars&#45;&gt;users -->
<g id="edge1" class="edge">
<title>comment_stars:user_id&#45;&gt;users:id</title>
<path fill="none" stroke="#000000" stroke-dasharray="5,2" d="M287.0287,-534.8999C358.5332,-525.6374 278.4541,-411.3223 329,-343 394.8592,-253.979 429.2653,-210.5 540,-210.5"/>
<polygon fill="#000000" stroke="#000000" points="286.9821,-534.9025 276.7311,-531.008 281.9911,-535.2013 277,-535.5 277,-535.5 277,-535.5 281.9911,-535.2013 277.2689,-539.992 286.9821,-534.9025 286.9821,-534.9025"/>
<text text-anchor="start" x="284.268" y="-545.5" font-family="Arial" font-size="10.00" fill="#000000">Detected Relation</text>
</g>
<!-- comments -->
<g id="node3" class="node">
<title>comments</title>
<polygon fill="#efefef" stroke="transparent" points="381,-580.5 381,-615.5 575,-615.5 575,-580.5 381,-580.5"/>
<polygon fill="none" stroke="#000000" points="381,-580.5 381,-615.5 575,-615.5 575,-580.5 381,-580.5"/>
<text text-anchor="start" x="387.8705" y="-593.3" font-family="Arial Bold" font-size="18.00" fill="#000000">comments</text>
<text text-anchor="start" x="470.8757" y="-593.3" font-family="Arial" font-size="14.00" fill="#000000"> </text>
<text text-anchor="start" x="474.7663" y="-593.3" font-family="Arial" font-size="14.00" fill="#666666">[BASE TABLE]</text>
<polygon fill="none" stroke="#000000" points="381,-550.5 381,-580.5 575,-580.5 575,-550.5 381,-550.5"/>
<text text-anchor="start" x="388" y="-561.9" font-family="Arial" font-size="14.00" fill="#000000">id </text>
<text text-anchor="start" x="402.7798" y="-561.9" font-family="Arial" font-size="14.00" fill="#666666">[bigint]</text>
<polygon fill="none" stroke="#000000" points="381,-520.5 381,-550.5 575,-550.5 575,-520.5 381,-520.5"/>
<text text-anchor="start" x="388" y="-531.9" font-family="Arial" font-size="14.00" fill="#000000">post_id </text>
<text text-anchor="start" x="437.0182" y="-531.9" font-family="Arial" font-size="14.00" fill="#666666">[bigint]</text>
<polygon fill="none" stroke="#000000" points="381,-490.5 381,-520.5 575,-520.5 575,-490.5 381,-490.5"/>
<text text-anchor="start" x="388" y="-501.9" font-family="Arial" font-size="14.00" fill="#000000">user_id </text>
<text text-anchor="start" x="437.7882" y="-501.9" font-family="Arial" font-size="14.00" fill="#666666">[int]</text>
<polygon fill="none" stroke="#000000" points="381,-460.5 381,-490.5 575,-490.5 575,-460.5 381,-460.5"/>
<text text-anchor="start" x="388" y="-471.9" font-family="Arial" font-size="14.00" fill="#000000">comment </text>
<text text-anchor="start" x="449.4502" y="-471.9" font-family="Arial" font-size="14.00" fill="#666666">[text]</text>
<polygon fill="none" stroke="#000000" points="381,-430.5 381,-460.5 575,-460.5 575,-430.5 381,-430.5"/>
<text text-anchor="start" x="388" y="-441.9" font-family="Arial" font-size="14.00" fill="#000000">created </text>
<text text-anchor="start" x="438.5722" y="-441.9" font-family="Arial" font-size="14.00" fill="#666666">[datetime]</text>
<polygon fill="none" stroke="#000000" points="381,-400.5 381,-430.5 575,-430.5 575,-400.5 381,-400.5"/>
<text text-anchor="start" x="388" y="-411.9" font-family="Arial" font-size="14.00" fill="#000000">updated </text>
<text text-anchor="start" x="442.4768" y="-411.9" font-family="Arial" font-size="14.00" fill="#666666">[datetime]</text>
</g>
<!-- comments&#45;&gt;users -->
<g id="edge2" class="edge">
<title>comments:user_id&#45;&gt;users:id</title>
<path fill="none" stroke="#000000" stroke-dasharray="5,2" d="M585.0895,-504.7025C635.4148,-495.9554 593.3187,-417.067 575,-358 566.8568,-331.7428 548.1432,-333.2572 540,-307 527.2957,-266.0359 497.1111,-210.5 540,-210.5"/>
<polygon fill="#000000" stroke="#000000" points="584.9689,-504.7119 574.6454,-501.014 579.9845,-505.106 575,-505.5 575,-505.5 575,-505.5 579.9845,-505.106 575.3546,-509.986 584.9689,-504.7119 584.9689,-504.7119"/>
<text text-anchor="start" x="582.268" y="-515.5" font-family="Arial" font-size="10.00" fill="#000000">Detected Relation</text>
</g>
<!-- logs -->
<g id="node4" class="node">
<title>logs</title>
<polygon fill="#efefef" stroke="transparent" points="679,-595.5 679,-630.5 845,-630.5 845,-595.5 679,-595.5"/>
<polygon fill="none" stroke="#000000" points="679,-595.5 679,-630.5 845,-630.5 845,-595.5 679,-595.5"/>
<text text-anchor="start" x="696.8698" y="-608.3" font-family="Arial Bold" font-size="18.00" fill="#000000">logs</text>
<text text-anchor="start" x="729.8764" y="-608.3" font-family="Arial" font-size="14.00" fill="#000000"> </text>
<text text-anchor="start" x="733.767" y="-608.3" font-family="Arial" font-size="14.00" fill="#666666">[BASE TABLE]</text>
<polygon fill="none" stroke="#000000" points="679,-565.5 679,-595.5 845,-595.5 845,-565.5 679,-565.5"/>
<text text-anchor="start" x="686" y="-576.9" font-family="Arial" font-size="14.00" fill="#000000">id </text>
<text text-anchor="start" x="700.7798" y="-576.9" font-family="Arial" font-size="14.00" fill="#666666">[bigint]</text>
<polygon fill="none" stroke="#000000" points="679,-535.5 679,-565.5 845,-565.5 845,-535.5 679,-535.5"/>
<text text-anchor="start" x="686" y="-546.9" font-family="Arial" font-size="14.00" fill="#000000">user_id </text>
<text text-anchor="start" x="735.7882" y="-546.9" font-family="Arial" font-size="14.00" fill="#666666">[int]</text>
<polygon fill="none" stroke="#000000" points="679,-505.5 679,-535.5 845,-535.5 845,-505.5 679,-505.5"/>
<text text-anchor="start" x="686" y="-516.9" font-family="Arial" font-size="14.00" fill="#000000">post_id </text>
<text text-anchor="start" x="735.0182" y="-516.9" font-family="Arial" font-size="14.00" fill="#666666">[bigint]</text>
<polygon fill="none" stroke="#000000" points="679,-475.5 679,-505.5 845,-505.5 845,-475.5 679,-475.5"/>
<text text-anchor="start" x="686" y="-486.9" font-family="Arial" font-size="14.00" fill="#000000">comment_id </text>
<text text-anchor="start" x="766.122" y="-486.9" font-family="Arial" font-size="14.00" fill="#666666">[bigint]</text>
<polygon fill="none" stroke="#000000" points="679,-445.5 679,-475.5 845,-475.5 845,-445.5 679,-445.5"/>
<text text-anchor="start" x="685.7644" y="-456.9" font-family="Arial" font-size="14.00" fill="#000000">comment_star_id </text>
<text text-anchor="start" x="797.0028" y="-456.9" font-family="Arial" font-size="14.00" fill="#666666">[bigint]</text>
<polygon fill="none" stroke="#000000" points="679,-415.5 679,-445.5 845,-445.5 845,-415.5 679,-415.5"/>
<text text-anchor="start" x="686" y="-426.9" font-family="Arial" font-size="14.00" fill="#000000">payload </text>
<text text-anchor="start" x="738.9102" y="-426.9" font-family="Arial" font-size="14.00" fill="#666666">[text]</text>
<polygon fill="none" stroke="#000000" points="679,-385.5 679,-415.5 845,-415.5 845,-385.5 679,-385.5"/>
<text text-anchor="start" x="686" y="-396.9" font-family="Arial" font-size="14.00" fill="#000000">created </text>
<text text-anchor="start" x="736.5722" y="-396.9" font-family="Arial" font-size="14.00" fill="#666666">[datetime]</text>
</g>
<!-- logs&#45;&gt;users -->
<g id="edge3" class="edge">
<title>logs:user_id&#45;&gt;users:id</title>
<path fill="none" stroke="#000000" stroke-dasharray="5,2" d="M668.9188,-549.9676C592.1052,-541.3077 656.7705,-428.7865 679,-343 683.5912,-325.2818 694.4088,-324.7182 699,-307 709.7583,-265.4823 741.8889,-210.5 699,-210.5"/>
<polygon fill="#000000" stroke="#000000" points="669.0139,-549.9725 678.7626,-554.9937 674.007,-550.2363 679,-550.5 679,-550.5 679,-550.5 674.007,-550.2363 679.2374,-546.0063 669.0139,-549.9725 669.0139,-549.9725"/>
<text text-anchor="start" x="593.268" y="-560.5" font-family="Arial" font-size="10.00" fill="#000000">Detected Relation</text>
</g>
<!-- posts -->
<g id="node5" class="node">
<title>posts</title>
<polygon fill="#efefef" stroke="transparent" points="950,-595.5 950,-630.5 1213,-630.5 1213,-595.5 950,-595.5"/>
<polygon fill="none" stroke="#000000" points="950,-595.5 950,-630.5 1213,-630.5 1213,-595.5 950,-595.5"/>
<text text-anchor="start" x="1011.3658" y="-608.3" font-family="Arial Bold" font-size="18.00" fill="#000000">posts</text>
<text text-anchor="start" x="1054.3804" y="-608.3" font-family="Arial" font-size="14.00" fill="#000000"> </text>
<text text-anchor="start" x="1058.271" y="-608.3" font-family="Arial" font-size="14.00" fill="#666666">[BASE TABLE]</text>
<polygon fill="none" stroke="#000000" points="950,-565.5 950,-595.5 1213,-595.5 1213,-565.5 950,-565.5"/>
<text text-anchor="start" x="957" y="-576.9" font-family="Arial" font-size="14.00" fill="#000000">id </text>
<text text-anchor="start" x="971.7798" y="-576.9" font-family="Arial" font-size="14.00" fill="#666666">[bigint]</text>
<polygon fill="none" stroke="#000000" points="950,-535.5 950,-565.5 1213,-565.5 1213,-535.5 950,-535.5"/>
<text text-anchor="start" x="957" y="-546.9" font-family="Arial" font-size="14.00" fill="#000000">user_id </text>
<text text-anchor="start" x="1006.7882" y="-546.9" font-family="Arial" font-size="14.00" fill="#666666">[int]</text>
<polygon fill="none" stroke="#000000" points="950,-505.5 950,-535.5 1213,-535.5 1213,-505.5 950,-505.5"/>
<text text-anchor="start" x="957" y="-516.9" font-family="Arial" font-size="14.00" fill="#000000">title </text>
<text text-anchor="start" x="982.6676" y="-516.9" font-family="Arial" font-size="14.00" fill="#666666">[varchar(255)]</text>
<polygon fill="none" stroke="#000000" points="950,-475.5 950,-505.5 1213,-505.5 1213,-475.5 950,-475.5"/>
<text text-anchor="start" x="957" y="-486.9" font-family="Arial" font-size="14.00" fill="#000000">body </text>
<text text-anchor="start" x="991.2384" y="-486.9" font-family="Arial" font-size="14.00" fill="#666666">[text]</text>
<polygon fill="none" stroke="#000000" points="950,-445.5 950,-475.5 1213,-475.5 1213,-445.5 950,-445.5"/>
<text text-anchor="start" x="956.697" y="-456.9" font-family="Arial" font-size="14.00" fill="#000000">post_type </text>
<text text-anchor="start" x="1021.2818" y="-456.9" font-family="Arial" font-size="14.00" fill="#666666">[enum(&#39;public&#39;,&#39;private&#39;,&#39;draft&#39;)]</text>
<polygon fill="none" stroke="#000000" points="950,-415.5 950,-445.5 1213,-445.5 1213,-415.5 950,-415.5"/>
<text text-anchor="start" x="957" y="-426.9" font-family="Arial" font-size="14.00" fill="#000000">created </text>
<text text-anchor="start" x="1007.5722" y="-426.9" font-family="Arial" font-size="14.00" fill="#666666">[datetime]</text>
<polygon fill="none" stroke="#000000" points="950,-385.5 950,-415.5 1213,-415.5 1213,-385.5 950,-385.5"/>
<text text-anchor="start" x="957" y="-396.9" font-family="Arial" font-size="14.00" fill="#000000">updated </text>
<text text-anchor="start" x="1011.4768" y="-396.9" font-family="Arial" font-size="14.00" fill="#666666">[datetime]</text>
</g>
<!-- posts&#45;&gt;users -->
<g id="edge4" class="edge">
<title>posts:user_id&#45;&gt;users:id</title>
<path fill="none" stroke="#000000" stroke-dasharray="5,2" d="M939.7056,-549.9167C862.1742,-540.4398 949.8134,-417.6765 897,-343 835.8595,-256.5492 804.8863,-210.5 699,-210.5"/>
<polygon fill="#000000" stroke="#000000" points="940.016,-549.9342 949.7454,-554.9928 945.008,-550.2171 950,-550.5 950,-550.5 950,-550.5 945.008,-550.2171 950.2546,-546.0072 940.016,-549.9342 940.016,-549.9342"/>
<text text-anchor="start" x="864.268" y="-560.5" font-family="Arial" font-size="10.00" fill="#000000">Detected Relation</text>
</g>
</g>
</svg>
