<?xml version="1.0" encoding="UTF-8" standalone="no"?>
<!DOCTYPE svg PUBLIC "-//W3C//DTD SVG 1.1//EN"
 "http://www.w3.org/Graphics/SVG/1.1/DTD/svg11.dtd">
<!-- Generated by graphviz version 2.40.1 (20161225.0304)
 -->
<!-- Title: user_options Pages: 1 -->
<svg width="508pt" height="592pt"
 viewBox="0.00 0.00 508.00 592.00" xmlns="http://www.w3.org/2000/svg" xmlns:xlink="http://www.w3.org/1999/xlink">
<g id="graph0" class="graph" transform="scale(1 1) rotate(0) translate(4 588)">
<title>user_options</title>
<polygon fill="#ffffff" stroke="transparent" points="-4,4 -4,-588 504,-588 504,4 -4,4"/>
<!-- user_options -->
<g id="node1" class="node">
<title>user_options</title>
<polygon fill="#efefef" stroke="transparent" points="240,-502.5 240,-537.5 454,-537.5 454,-502.5 240,-502.5"/>
<polygon fill="none" stroke="#000000" points="240,-502.5 240,-537.5 454,-537.5 454,-502.5 240,-502.5"/>
<text text-anchor="start" x="246.8571" y="-515.3" font-family="Arial Bold" font-size="18.00" fill="#000000">user_options</text>
<text text-anchor="start" x="349.8891" y="-515.3" font-family="Arial" font-size="14.00" fill="#000000"> </text>
<text text-anchor="start" x="353.7797" y="-515.3" font-family="Arial" font-size="14.00" fill="#666666">[BASE TABLE]</text>
<polygon fill="none" stroke="#000000" points="240,-472.5 240,-502.5 454,-502.5 454,-472.5 240,-472.5"/>
<text text-anchor="start" x="247" y="-483.9" font-family="Arial" font-size="14.00" fill="#000000">user_id </text>
<text text-anchor="start" x="296.7882" y="-483.9" font-family="Arial" font-size="14.00" fill="#666666">[int]</text>
<polygon fill="none" stroke="#000000" points="240,-442.5 240,-472.5 454,-472.5 454,-442.5 240,-442.5"/>
<text text-anchor="start" x="247" y="-453.9" font-family="Arial" font-size="14.00" fill="#000000">show_email </text>
<text text-anchor="start" x="324.784" y="-453.9" font-family="Arial" font-size="14.00" fill="#666666">[tinyint(1)]</text>
<polygon fill="none" stroke="#000000" points="240,-412.5 240,-442.5 454,-442.5 454,-412.5 240,-412.5"/>
<text text-anchor="start" x="247" y="-423.9" font-family="Arial" font-size="14.00" fill="#000000">created </text>
<text text-anchor="start" x="297.5722" y="-423.9" font-family="Arial" font-size="14.00" fill="#666666">[timestamp]</text>
<polygon fill="none" stroke="#000000" points="240,-382.5 240,-412.5 454,-412.5 454,-382.5 240,-382.5"/>
<text text-anchor="start" x="247" y="-393.9" font-family="Arial" font-size="14.00" fill="#000000">updated </text>
<text text-anchor="start" x="301.4768" y="-393.9" font-family="Arial" font-size="14.00" fill="#666666">[timestamp]</text>
<polygon fill="none" stroke="#000000" stroke-width="3" points="238.5,-381.5 238.5,-539.5 455.5,-539.5 455.5,-381.5 238.5,-381.5"/>
</g>
<!-- users -->
<g id="node2" class="node">
<title>users</title>
<polygon fill="#efefef" stroke="transparent" points="267,-222.5 267,-257.5 426,-257.5 426,-222.5 267,-222.5"/>
<polygon fill="none" stroke="#000000" points="267,-222.5 267,-257.5 426,-257.5 426,-222.5 267,-222.5"/>
<text text-anchor="start" x="275.8708" y="-235.3" font-family="Arial Bold" font-size="18.00" fill="#000000">users</text>
<text text-anchor="start" x="319.8754" y="-235.3" font-family="Arial" font-size="14.00" fill="#000000"> </text>
<text text-anchor="start" x="323.766" y="-235.3" font-family="Arial" font-size="14.00" fill="#666666">[BASE TABLE]</text>
<polygon fill="none" stroke="#000000" points="267,-192.5 267,-222.5 426,-222.5 426,-192.5 267,-192.5"/>
<text text-anchor="start" x="274" y="-203.9" font-family="Arial" font-size="14.00" fill="#000000">id </text>
<text text-anchor="start" x="288.7798" y="-203.9" font-family="Arial" font-size="14.00" fill="#666666">[int]</text>
<polygon fill="none" stroke="#000000" points="267,-162.5 267,-192.5 426,-192.5 426,-162.5 267,-162.5"/>
<text text-anchor="start" x="273.7693" y="-173.9" font-family="Arial" font-size="14.00" fill="#000000">username </text>
<text text-anchor="start" x="339.8941" y="-173.9" font-family="Arial" font-size="14.00" fill="#666666">[varchar(50)]</text>
<polygon fill="none" stroke="#000000" points="267,-132.5 267,-162.5 426,-162.5 426,-132.5 267,-132.5"/>
<text text-anchor="start" x="274" y="-143.9" font-family="Arial" font-size="14.00" fill="#000000">password </text>
<text text-anchor="start" x="337.7882" y="-143.9" font-family="Arial" font-size="14.00" fill="#666666">[varchar(50)]</text>
<polygon fill="none" stroke="#000000" points="267,-102.5 267,-132.5 426,-132.5 426,-102.5 267,-102.5"/>
<text text-anchor="start" x="274" y="-113.9" font-family="Arial" font-size="14.00" fill="#000000">email </text>
<text text-anchor="start" x="311.3296" y="-113.9" font-family="Arial" font-size="14.00" fill="#666666">[varchar(355)]</text>
<polygon fill="none" stroke="#000000" points="267,-72.5 267,-102.5 426,-102.5 426,-72.5 267,-72.5"/>
<text text-anchor="start" x="274" y="-83.9" font-family="Arial" font-size="14.00" fill="#000000">created </text>
<text text-anchor="start" x="324.5722" y="-83.9" font-family="Arial" font-size="14.00" fill="#666666">[timestamp]</text>
<polygon fill="none" stroke="#000000" points="267,-42.5 267,-72.5 426,-72.5 426,-42.5 267,-42.5"/>
<text text-anchor="start" x="274" y="-53.9" font-family="Arial" font-size="14.00" fill="#000000">updated </text>
<text text-anchor="start" x="328.4768" y="-53.9" font-family="Arial" font-size="14.00" fill="#666666">[timestamp]</text>
</g>
<!-- user_options&#45;&gt;users -->
<g id="edge1" class="edge">
<title>user_options:user_id&#45;&gt;users:id</title>
<path fill="none" stroke="#000000" d="M229.9803,-486.8631C166.4314,-478.3317 190.4281,-386.1775 231,-337 284.5843,-272.0501 363.4157,-365.9499 417,-301 443.4454,-268.9453 458.5556,-207.5 426,-207.5"/>
<polygon fill="#000000" stroke="#000000" points="230.0201,-486.8655 239.7145,-491.9909 235.0101,-487.1828 240,-487.5 240,-487.5 240,-487.5 235.0101,-487.1828 240.2855,-483.0091 230.0201,-486.8655 230.0201,-486.8655"/>
<text text-anchor="start" x="6.945" y="-497.5" font-family="Arial" font-size="10.00" fill="#000000">FOREIGN KEY (user_id) REFERENCES users (id)</text>
</g>
<!-- user_options&#45;&gt;users -->
<g id="edge2" class="edge">
<title>user_options:user_id&#45;&gt;users:id</title>
<path fill="none" stroke="#000000" stroke-dasharray="5,2" d="M229.5542,-486.2391C185.4154,-474.597 209.2541,-385.1762 249,-337 302.5843,-272.0501 381.4157,-365.9499 435,-301 461.3938,-269.0079 476.4965,-207.7399 426.2955,-207.5007"/>
<polygon fill="#000000" stroke="#000000" points="229.7385,-486.262 239.1051,-491.9643 234.7001,-486.8804 239.6617,-487.4989 239.6617,-487.4989 239.6617,-487.4989 234.7001,-486.8804 240.2183,-483.0334 229.7385,-486.262 229.7385,-486.262"/>
<text text-anchor="start" x="153.9297" y="-471.4989" font-family="Arial" font-size="10.00" fill="#000000">Detected Relation</text>
</g>
</g>
</svg>
