<?xml version="1.0" encoding="UTF-8" standalone="no"?>
<!DOCTYPE svg PUBLIC "-//W3C//DTD SVG 1.1//EN"
 "http://www.w3.org/Graphics/SVG/1.1/DTD/svg11.dtd">
<!-- Generated by graphviz version 2.40.1 (20161225.0304)
 -->
<!-- Title: public.user_options Pages: 1 -->
<svg width="667pt" height="592pt"
 viewBox="0.00 0.00 667.00 592.00" xmlns="http://www.w3.org/2000/svg" xmlns:xlink="http://www.w3.org/1999/xlink">
<g id="graph0" class="graph" transform="scale(1 1) rotate(0) translate(4 588)">
<title>public.user_options</title>
<polygon fill="#ffffff" stroke="transparent" points="-4,4 -4,-588 663,-588 663,4 -4,4"/>
<!-- public.user_options -->
<g id="node1" class="node">
<title>public.user_options</title>
<polygon fill="#efefef" stroke="transparent" points="347,-502.5 347,-537.5 613,-537.5 613,-502.5 347,-502.5"/>
<polygon fill="none" stroke="#000000" points="347,-502.5 347,-537.5 613,-537.5 613,-502.5 347,-502.5"/>
<text text-anchor="start" x="353.8525" y="-515.3" font-family="Arial Bold" font-size="18.00" fill="#000000">public.user_options</text>
<text text-anchor="start" x="508.8937" y="-515.3" font-family="Arial" font-size="14.00" fill="#000000"> </text>
<text text-anchor="start" x="512.7843" y="-515.3" font-family="Arial" font-size="14.00" fill="#666666">[BASE TABLE]</text>
<polygon fill="none" stroke="#000000" points="347,-472.5 347,-502.5 613,-502.5 613,-472.5 347,-472.5"/>
<text text-anchor="start" x="354" y="-483.9" font-family="Arial" font-size="14.00" fill="#000000">user_id </text>
<text text-anchor="start" x="403.7882" y="-483.9" font-family="Arial" font-size="14.00" fill="#666666">[integer]</text>
<polygon fill="none" stroke="#000000" points="347,-442.5 347,-472.5 613,-472.5 613,-442.5 347,-442.5"/>
<text text-anchor="start" x="354" y="-453.9" font-family="Arial" font-size="14.00" fill="#000000">show_email </text>
<text text-anchor="start" x="431.784" y="-453.9" font-family="Arial" font-size="14.00" fill="#666666">[boolean]</text>
<polygon fill="none" stroke="#000000" points="347,-412.5 347,-442.5 613,-442.5 613,-412.5 347,-412.5"/>
<text text-anchor="start" x="354" y="-423.9" font-family="Arial" font-size="14.00" fill="#000000">created </text>
<text text-anchor="start" x="404.5722" y="-423.9" font-family="Arial" font-size="14.00" fill="#666666">[timestamp without time zone]</text>
<polygon fill="none" stroke="#000000" points="347,-382.5 347,-412.5 613,-412.5 613,-382.5 347,-382.5"/>
<text text-anchor="start" x="354" y="-393.9" font-family="Arial" font-size="14.00" fill="#000000">updated </text>
<text text-anchor="start" x="408.4768" y="-393.9" font-family="Arial" font-size="14.00" fill="#666666">[timestamp without time zone]</text>
<polygon fill="none" stroke="#000000" stroke-width="3" points="345.5,-381.5 345.5,-539.5 614.5,-539.5 614.5,-381.5 345.5,-381.5"/>
</g>
<!-- public.users -->
<g id="node2" class="node">
<title>public.users</title>
<polygon fill="#efefef" stroke="transparent" points="353,-222.5 353,-257.5 606,-257.5 606,-222.5 353,-222.5"/>
<polygon fill="none" stroke="#000000" points="353,-222.5 353,-257.5 606,-257.5 606,-222.5 353,-222.5"/>
<text text-anchor="start" x="382.8662" y="-235.3" font-family="Arial Bold" font-size="18.00" fill="#000000">public.users</text>
<text text-anchor="start" x="478.88" y="-235.3" font-family="Arial" font-size="14.00" fill="#000000"> </text>
<text text-anchor="start" x="482.7706" y="-235.3" font-family="Arial" font-size="14.00" fill="#666666">[BASE TABLE]</text>
<polygon fill="none" stroke="#000000" points="353,-192.5 353,-222.5 606,-222.5 606,-192.5 353,-192.5"/>
<text text-anchor="start" x="360" y="-203.9" font-family="Arial" font-size="14.00" fill="#000000">id </text>
<text text-anchor="start" x="374.7798" y="-203.9" font-family="Arial" font-size="14.00" fill="#666666">[integer]</text>
<polygon fill="none" stroke="#000000" points="353,-162.5 353,-192.5 606,-192.5 606,-162.5 353,-162.5"/>
<text text-anchor="start" x="360" y="-173.9" font-family="Arial" font-size="14.00" fill="#000000">username </text>
<text text-anchor="start" x="426.1248" y="-173.9" font-family="Arial" font-size="14.00" fill="#666666">[varchar(50)]</text>
<polygon fill="none" stroke="#000000" points="353,-132.5 353,-162.5 606,-162.5 606,-132.5 353,-132.5"/>
<text text-anchor="start" x="360" y="-143.9" font-family="Arial" font-size="14.00" fill="#000000">password </text>
<text text-anchor="start" x="423.7882" y="-143.9" font-family="Arial" font-size="14.00" fill="#666666">[varchar(50)]</text>
<polygon fill="none" stroke="#000000" points="353,-102.5 353,-132.5 606,-132.5 606,-102.5 353,-102.5"/>
<text text-anchor="start" x="360" y="-113.9" font-family="Arial" font-size="14.00" fill="#000000">email </text>
<text text-anchor="start" x="397.3296" y="-113.9" font-family="Arial" font-size="14.00" fill="#666666">[varchar(355)]</text>
<polygon fill="none" stroke="#000000" points="353,-72.5 353,-102.5 606,-102.5 606,-72.5 353,-72.5"/>
<text text-anchor="start" x="360" y="-83.9" font-family="Arial" font-size="14.00" fill="#000000">created </text>
<text text-anchor="start" x="410.5722" y="-83.9" font-family="Arial" font-size="14.00" fill="#666666">[timestamp without time zone]</text>
<polygon fill="none" stroke="#000000" points="353,-42.5 353,-72.5 606,-72.5 606,-42.5 353,-42.5"/>
<text text-anchor="start" x="359.6915" y="-53.9" font-family="Arial" font-size="14.00" fill="#000000">updated </text>
<text text-anchor="start" x="414.1683" y="-53.9" font-family="Arial" font-size="14.00" fill="#666666">[timestamp without time zone]</text>
</g>
<!-- public.user_options&#45;&gt;public.users -->
<g id="edge1" class="edge">
<title>public.user_options:user_id&#45;&gt;public.users:id</title>
<path fill="none" stroke="#000000" d="M336.821,-486.6268C282.6859,-476.7052 305.4807,-384.6895 347,-337 423.3121,-249.3471 529.6879,-388.6529 606,-301 633.2866,-269.6583 647.5556,-207.5 606,-207.5"/>
<polygon fill="#000000" stroke="#000000" points="337.0366,-486.6452 346.6153,-491.9835 342.0183,-487.0726 347,-487.5 347,-487.5 347,-487.5 342.0183,-487.0726 347.3847,-483.0165 337.0366,-486.6452 337.0366,-486.6452"/>
<text text-anchor="start" x="7.0535" y="-497.5" font-family="Arial" font-size="10.00" fill="#000000">FOREIGN KEY (user_id) REFERENCES users(id) ON DELETE CASCADE</text>
</g>
</g>
</svg>
