<?xml version="1.0" encoding="UTF-8" standalone="no"?>
<!DOCTYPE svg PUBLIC "-//W3C//DTD SVG 1.1//EN"
 "http://www.w3.org/Graphics/SVG/1.1/DTD/svg11.dtd">
<!-- Generated by graphviz version 12.1.2 (20240928.0832)
 -->
<!-- Title: public.comment_stars Pages: 1 -->
<svg width="1044pt" height="1068pt"
 viewBox="0.00 0.00 1044.06 1068.00" xmlns="http://www.w3.org/2000/svg" xmlns:xlink="http://www.w3.org/1999/xlink">
<g id="graph0" class="graph" transform="scale(1 1) rotate(0) translate(4 1064)">
<title>public.comment_stars</title>
<polygon fill="white" stroke="none" points="-4,4 -4,-1064 1040.06,-1064 1040.06,4 -4,4"/>
<!-- public.comment_stars -->
<g id="node1" class="node">
<title>public.comment_stars</title>
<polygon fill="#efefef" stroke="none" points="454.04,-604.6 454.04,-640.2 750.99,-640.2 750.99,-604.6 454.04,-604.6"/>
<polygon fill="none" stroke="black" points="454.04,-604.6 454.04,-640.2 750.99,-640.2 750.99,-604.6 454.04,-604.6"/>
<text text-anchor="start" x="461.04" y="-618" font-family="Arial Bold" font-size="18.00">public.comment_stars</text>
<text text-anchor="start" x="619.5" y="-618" font-family="Arial" font-size="14.00">    </text>
<text text-anchor="start" x="650.62" y="-618" font-family="Arial" font-size="14.00" fill="#666666">[BASE TABLE]</text>
<polygon fill="none" stroke="black" points="454.04,-573.8 454.04,-604.6 750.99,-604.6 750.99,-573.8 454.04,-573.8"/>
<text text-anchor="start" x="461.04" y="-586" font-family="Arial" font-size="14.00">id </text>
<text text-anchor="start" x="475.82" y="-586" font-family="Arial" font-size="14.00" fill="#666666">[uuid]</text>
<polygon fill="none" stroke="black" points="454.04,-543 454.04,-573.8 750.99,-573.8 750.99,-543 454.04,-543"/>
<text text-anchor="start" x="461.04" y="-555.2" font-family="Arial" font-size="14.00">user_id </text>
<text text-anchor="start" x="510.84" y="-555.2" font-family="Arial" font-size="14.00" fill="#666666">[integer]</text>
<polygon fill="none" stroke="black" points="454.04,-512.2 454.04,-543 750.99,-543 750.99,-512.2 454.04,-512.2"/>
<text text-anchor="start" x="461.04" y="-524.4" font-family="Arial" font-size="14.00">comment_post_id </text>
<text text-anchor="start" x="575.43" y="-524.4" font-family="Arial" font-size="14.00" fill="#666666">[bigint]</text>
<polygon fill="none" stroke="black" points="454.04,-481.4 454.04,-512.2 750.99,-512.2 750.99,-481.4 454.04,-481.4"/>
<text text-anchor="start" x="461.04" y="-493.6" font-family="Arial" font-size="14.00">comment_user_id </text>
<text text-anchor="start" x="576.2" y="-493.6" font-family="Arial" font-size="14.00" fill="#666666">[integer]</text>
<polygon fill="none" stroke="black" points="454.04,-450.6 454.04,-481.4 750.99,-481.4 750.99,-450.6 454.04,-450.6"/>
<text text-anchor="start" x="461.04" y="-462.8" font-family="Arial" font-size="14.00">created </text>
<text text-anchor="start" x="511.62" y="-462.8" font-family="Arial" font-size="14.00" fill="#666666">[timestamp without time zone]</text>
<polygon fill="none" stroke="black" points="454.04,-419.8 454.04,-450.6 750.99,-450.6 750.99,-419.8 454.04,-419.8"/>
<text text-anchor="start" x="461.04" y="-432" font-family="Arial" font-size="14.00">updated </text>
<text text-anchor="start" x="515.53" y="-432" font-family="Arial" font-size="14.00" fill="#666666">[timestamp without time zone]</text>
<polygon fill="none" stroke="black" stroke-width="3" points="452.54,-418.3 452.54,-641.7 752.49,-641.7 752.49,-418.3 452.54,-418.3"/>
</g>
<!-- public.comments -->
<g id="node3" class="node">
<title>public.comments</title>
<polygon fill="#efefef" stroke="none" points="270.06,-258.8 270.06,-294.4 550.97,-294.4 550.97,-258.8 270.06,-258.8"/>
<polygon fill="none" stroke="black" points="270.06,-258.8 270.06,-294.4 550.97,-294.4 550.97,-258.8 270.06,-258.8"/>
<text text-anchor="start" x="286.53" y="-272.2" font-family="Arial Bold" font-size="18.00">public.comments</text>
<text text-anchor="start" x="410.01" y="-272.2" font-family="Arial" font-size="14.00">    </text>
<text text-anchor="start" x="441.13" y="-272.2" font-family="Arial" font-size="14.00" fill="#666666">[BASE TABLE]</text>
<polygon fill="none" stroke="black" points="270.06,-228 270.06,-258.8 550.97,-258.8 550.97,-228 270.06,-228"/>
<text text-anchor="start" x="277.06" y="-240.2" font-family="Arial" font-size="14.00">id    </text>
<text text-anchor="start" x="319.08" y="-240.2" font-family="Arial" font-size="14.00" fill="#666666">[bigint]</text>
<polygon fill="none" stroke="black" points="270.06,-197.2 270.06,-228 550.97,-228 550.97,-197.2 270.06,-197.2"/>
<text text-anchor="start" x="277.06" y="-209.4" font-family="Arial" font-size="14.00">post_id    </text>
<text text-anchor="start" x="353.32" y="-209.4" font-family="Arial" font-size="14.00" fill="#666666">[bigint]</text>
<polygon fill="none" stroke="black" points="270.06,-166.4 270.06,-197.2 550.97,-197.2 550.97,-166.4 270.06,-166.4"/>
<text text-anchor="start" x="277.06" y="-178.6" font-family="Arial" font-size="14.00">user_id    </text>
<text text-anchor="start" x="354.1" y="-178.6" font-family="Arial" font-size="14.00" fill="#666666">[integer]</text>
<polygon fill="none" stroke="black" points="270.06,-135.6 270.06,-166.4 550.97,-166.4 550.97,-135.6 270.06,-135.6"/>
<text text-anchor="start" x="277.06" y="-147.8" font-family="Arial" font-size="14.00">comment    </text>
<text text-anchor="start" x="365.75" y="-147.8" font-family="Arial" font-size="14.00" fill="#666666">[text]</text>
<polygon fill="none" stroke="black" points="270.06,-104.8 270.06,-135.6 550.97,-135.6 550.97,-104.8 270.06,-104.8"/>
<text text-anchor="start" x="277.06" y="-117" font-family="Arial" font-size="14.00">post_id_desc    </text>
<text text-anchor="start" x="390.68" y="-117" font-family="Arial" font-size="14.00" fill="#666666">[bigint]</text>
<polygon fill="none" stroke="black" points="270.06,-74 270.06,-104.8 550.97,-104.8 550.97,-74 270.06,-74"/>
<text text-anchor="start" x="277.06" y="-86.2" font-family="Arial" font-size="14.00">created    </text>
<text text-anchor="start" x="354.88" y="-86.2" font-family="Arial" font-size="14.00" fill="#666666">[timestamp without time zone]</text>
<polygon fill="none" stroke="black" points="270.06,-43.2 270.06,-74 550.97,-74 550.97,-43.2 270.06,-43.2"/>
<text text-anchor="start" x="277.06" y="-55.4" font-family="Arial" font-size="14.00">updated    </text>
<text text-anchor="start" x="358.79" y="-55.4" font-family="Arial" font-size="14.00" fill="#666666">[timestamp without time zone]</text>
</g>
<!-- public.comment_stars&#45;&gt;public.comments -->
<g id="edge2" class="edge">
<title>public.comment_stars:comment_post_id&#45;&gt;public.comments:post_id</title>
<path fill="none" stroke="black" d="M442.68,-526.74C387.92,-517.01 416.93,-426.6 454.04,-373.6 480.4,-335.95 524.58,-375.23 550.97,-337.6 582.87,-292.11 607.53,-212.6 551.97,-212.6"/>
<polygon fill="black" stroke="black" points="442.74,-526.75 452.33,-532.06 448.06,-527.19 452.37,-527.54 452.37,-527.54 452.37,-527.54 448.06,-527.19 453.08,-523.09 442.74,-526.75"/>
<text text-anchor="start" x="7" y="-537.6" font-family="Arial" font-size="10.00">FOREIGN KEY (comment_post_id, comment_user_id) REFERENCES comments(post_id, user_id)</text>
</g>
<!-- public.users -->
<g id="node4" class="node">
<title>public.users</title>
<polygon fill="#efefef" stroke="none" points="655.06,-243.4 655.06,-279 935.97,-279 935.97,-243.4 655.06,-243.4"/>
<polygon fill="none" stroke="black" points="655.06,-243.4 655.06,-279 935.97,-279 935.97,-243.4 655.06,-243.4"/>
<text text-anchor="start" x="690.03" y="-256.8" font-family="Arial Bold" font-size="18.00">public.users</text>
<text text-anchor="start" x="776.51" y="-256.8" font-family="Arial" font-size="14.00">    </text>
<text text-anchor="start" x="807.63" y="-256.8" font-family="Arial" font-size="14.00" fill="#666666">[BASE TABLE]</text>
<polygon fill="none" stroke="black" points="655.06,-212.6 655.06,-243.4 935.97,-243.4 935.97,-212.6 655.06,-212.6"/>
<text text-anchor="start" x="662.06" y="-224.8" font-family="Arial" font-size="14.00">id    </text>
<text text-anchor="start" x="704.08" y="-224.8" font-family="Arial" font-size="14.00" fill="#666666">[integer]</text>
<polygon fill="none" stroke="black" points="655.06,-181.8 655.06,-212.6 935.97,-212.6 935.97,-181.8 655.06,-181.8"/>
<text text-anchor="start" x="662.06" y="-194" font-family="Arial" font-size="14.00">username    </text>
<text text-anchor="start" x="755.43" y="-194" font-family="Arial" font-size="14.00" fill="#666666">[varchar(50)]</text>
<polygon fill="none" stroke="black" points="655.06,-151 655.06,-181.8 935.97,-181.8 935.97,-151 655.06,-151"/>
<text text-anchor="start" x="662.06" y="-163.2" font-family="Arial" font-size="14.00">password    </text>
<text text-anchor="start" x="753.1" y="-163.2" font-family="Arial" font-size="14.00" fill="#666666">[varchar(50)]</text>
<polygon fill="none" stroke="black" points="655.06,-120.2 655.06,-151 935.97,-151 935.97,-120.2 655.06,-120.2"/>
<text text-anchor="start" x="662.06" y="-132.4" font-family="Arial" font-size="14.00">email    </text>
<text text-anchor="start" x="726.63" y="-132.4" font-family="Arial" font-size="14.00" fill="#666666">[varchar(355)]</text>
<polygon fill="none" stroke="black" points="655.06,-89.4 655.06,-120.2 935.97,-120.2 935.97,-89.4 655.06,-89.4"/>
<text text-anchor="start" x="662.06" y="-101.6" font-family="Arial" font-size="14.00">created    </text>
<text text-anchor="start" x="739.88" y="-101.6" font-family="Arial" font-size="14.00" fill="#666666">[timestamp without time zone]</text>
<polygon fill="none" stroke="black" points="655.06,-58.6 655.06,-89.4 935.97,-89.4 935.97,-58.6 655.06,-58.6"/>
<text text-anchor="start" x="662.06" y="-70.8" font-family="Arial" font-size="14.00">updated    </text>
<text text-anchor="start" x="743.79" y="-70.8" font-family="Arial" font-size="14.00" fill="#666666">[timestamp without time zone]</text>
</g>
<!-- public.comment_stars&#45;&gt;public.users -->
<g id="edge3" class="edge">
<title>public.comment_stars:comment_user_id&#45;&gt;public.users:id</title>
<path fill="none" stroke="black" d="M762.35,-495.7C802.89,-486.21 777.32,-417.17 750.99,-373.6 725.98,-332.2 680.13,-363.57 655.06,-322.2 633.36,-286.39 612.19,-228 654.06,-228"/>
<polygon fill="black" stroke="black" points="762.27,-495.71 751.85,-492.29 756.97,-496.27 752.66,-496.73 752.66,-496.73 752.66,-496.73 756.97,-496.27 752.8,-501.24 762.27,-495.71"/>
<text text-anchor="start" x="758.99" y="-506.8" font-family="Arial" font-size="10.00">FOREIGN KEY (comment_user_id) REFERENCES users(id)</text>
</g>
<!-- public.logs -->
<g id="node2" class="node">
<title>public.logs</title>
<polygon fill="#efefef" stroke="none" points="464.02,-981.2 464.02,-1016.8 741.02,-1016.8 741.02,-981.2 464.02,-981.2"/>
<polygon fill="none" stroke="black" points="464.02,-981.2 464.02,-1016.8 741.02,-1016.8 741.02,-981.2 464.02,-981.2"/>
<text text-anchor="start" x="500.52" y="-994.6" font-family="Arial Bold" font-size="18.00">public.logs</text>
<text text-anchor="start" x="580.02" y="-994.6" font-family="Arial" font-size="14.00">    </text>
<text text-anchor="start" x="611.14" y="-994.6" font-family="Arial" font-size="14.00" fill="#666666">[BASE TABLE]</text>
<polygon fill="none" stroke="black" points="464.02,-950.4 464.02,-981.2 741.02,-981.2 741.02,-950.4 464.02,-950.4"/>
<text text-anchor="start" x="471.02" y="-962.6" font-family="Arial" font-size="14.00">id    </text>
<text text-anchor="start" x="513.03" y="-962.6" font-family="Arial" font-size="14.00" fill="#666666">[uuid]</text>
<polygon fill="none" stroke="black" points="464.02,-919.6 464.02,-950.4 741.02,-950.4 741.02,-919.6 464.02,-919.6"/>
<text text-anchor="start" x="471.02" y="-931.8" font-family="Arial" font-size="14.00">user_id    </text>
<text text-anchor="start" x="548.05" y="-931.8" font-family="Arial" font-size="14.00" fill="#666666">[integer]</text>
<polygon fill="none" stroke="black" points="464.02,-888.8 464.02,-919.6 741.02,-919.6 741.02,-888.8 464.02,-888.8"/>
<text text-anchor="start" x="471.02" y="-901" font-family="Arial" font-size="14.00">post_id    </text>
<text text-anchor="start" x="547.28" y="-901" font-family="Arial" font-size="14.00" fill="#666666">[bigint]</text>
<polygon fill="none" stroke="black" points="464.02,-858 464.02,-888.8 741.02,-888.8 741.02,-858 464.02,-858"/>
<text text-anchor="start" x="471.02" y="-870.2" font-family="Arial" font-size="14.00">comment_id    </text>
<text text-anchor="start" x="578.39" y="-870.2" font-family="Arial" font-size="14.00" fill="#666666">[bigint]</text>
<polygon fill="none" stroke="black" points="464.02,-827.2 464.02,-858 741.02,-858 741.02,-827.2 464.02,-827.2"/>
<text text-anchor="start" x="471.02" y="-839.4" font-family="Arial" font-size="14.00">comment_star_id    </text>
<text text-anchor="start" x="609.51" y="-839.4" font-family="Arial" font-size="14.00" fill="#666666">[uuid]</text>
<polygon fill="none" stroke="black" points="464.02,-796.4 464.02,-827.2 741.02,-827.2 741.02,-796.4 464.02,-796.4"/>
<text text-anchor="start" x="471.02" y="-808.6" font-family="Arial" font-size="14.00">payload    </text>
<text text-anchor="start" x="551.17" y="-808.6" font-family="Arial" font-size="14.00" fill="#666666">[text]</text>
<polygon fill="none" stroke="black" points="464.02,-765.6 464.02,-796.4 741.02,-796.4 741.02,-765.6 464.02,-765.6"/>
<text text-anchor="start" x="471.02" y="-777.8" font-family="Arial" font-size="14.00">created    </text>
<text text-anchor="start" x="548.83" y="-777.8" font-family="Arial" font-size="14.00" fill="#666666">[timestamp without time zone]</text>
</g>
<!-- public.logs&#45;&gt;public.comment_stars -->
<g id="edge1" class="edge">
<title>public.logs:comment_star_id&#45;&gt;public.comment_stars:id</title>
<path fill="none" stroke="black" stroke-dasharray="5,2" d="M752.28,-841.87C855.23,-827.01 861.18,-589.2 751.99,-589.2"/>
<polygon fill="black" stroke="black" points="752.32,-841.87 742.03,-838.09 747,-842.25 742.68,-842.55 742.68,-842.55 742.68,-842.55 747,-842.25 742.67,-847.07 752.32,-841.87"/>
<text text-anchor="start" x="749.02" y="-852.6" font-family="Arial" font-size="10.00">Additional Relation</text>
</g>
</g>
</svg>
