<?xml version="1.0" encoding="UTF-8" standalone="no"?>
<!DOCTYPE svg PUBLIC "-//W3C//DTD SVG 1.1//EN"
 "http://www.w3.org/Graphics/SVG/1.1/DTD/svg11.dtd">
<!-- Generated by graphviz version 2.40.1 (20161225.0304)
 -->
<!-- Title: public.posts Pages: 1 -->
<svg width="900pt" height="1079pt"
 viewBox="0.00 0.00 900.00 1079.00" xmlns="http://www.w3.org/2000/svg" xmlns:xlink="http://www.w3.org/1999/xlink">
<g id="graph0" class="graph" transform="scale(1 1) rotate(0) translate(4 1075)">
<title>public.posts</title>
<polygon fill="#ffffff" stroke="transparent" points="-4,4 -4,-1075 896,-1075 896,4 -4,4"/>
<!-- public.posts -->
<g id="node1" class="node">
<title>public.posts</title>
<polygon fill="#efefef" stroke="transparent" points="389,-622.5 389,-657.5 642,-657.5 642,-622.5 389,-622.5"/>
<polygon fill="none" stroke="#000000" points="389,-622.5 389,-657.5 642,-657.5 642,-622.5 389,-622.5"/>
<text text-anchor="start" x="404.2041" y="-635.3" font-family="Arial Bold" font-size="18.00" fill="#000000">public.posts</text>
<text text-anchor="start" x="499.2279" y="-635.3" font-family="Arial" font-size="14.00" fill="#000000">    </text>
<text text-anchor="start" x="533.4327" y="-635.3" font-family="Arial" font-size="14.00" fill="#666666">[BASE TABLE]</text>
<polygon fill="none" stroke="#000000" points="389,-592.5 389,-622.5 642,-622.5 642,-592.5 389,-592.5"/>
<text text-anchor="start" x="396" y="-603.9" font-family="Arial" font-size="14.00" fill="#000000">id </text>
<text text-anchor="start" x="410.7798" y="-603.9" font-family="Arial" font-size="14.00" fill="#666666">[bigint]</text>
<polygon fill="none" stroke="#000000" points="389,-562.5 389,-592.5 642,-592.5 642,-562.5 389,-562.5"/>
<text text-anchor="start" x="396" y="-573.9" font-family="Arial" font-size="14.00" fill="#000000">user_id </text>
<text text-anchor="start" x="445.7882" y="-573.9" font-family="Arial" font-size="14.00" fill="#666666">[integer]</text>
<polygon fill="none" stroke="#000000" points="389,-532.5 389,-562.5 642,-562.5 642,-532.5 389,-532.5"/>
<text text-anchor="start" x="396" y="-543.9" font-family="Arial" font-size="14.00" fill="#000000">title </text>
<text text-anchor="start" x="421.6676" y="-543.9" font-family="Arial" font-size="14.00" fill="#666666">[varchar(255)]</text>
<polygon fill="none" stroke="#000000" points="389,-502.5 389,-532.5 642,-532.5 642,-502.5 389,-502.5"/>
<text text-anchor="start" x="396" y="-513.9" font-family="Arial" font-size="14.00" fill="#000000">body </text>
<text text-anchor="start" x="430.2384" y="-513.9" font-family="Arial" font-size="14.00" fill="#666666">[text]</text>
<polygon fill="none" stroke="#000000" points="389,-472.5 389,-502.5 642,-502.5 642,-472.5 389,-472.5"/>
<text text-anchor="start" x="396" y="-483.9" font-family="Arial" font-size="14.00" fill="#000000">post_type </text>
<text text-anchor="start" x="460.5848" y="-483.9" font-family="Arial" font-size="14.00" fill="#666666">[post_types]</text>
<polygon fill="none" stroke="#000000" points="389,-442.5 389,-472.5 642,-472.5 642,-442.5 389,-442.5"/>
<text text-anchor="start" x="396" y="-453.9" font-family="Arial" font-size="14.00" fill="#000000">labels </text>
<text text-anchor="start" x="436.4516" y="-453.9" font-family="Arial" font-size="14.00" fill="#666666">[varchar(50)[]]</text>
<polygon fill="none" stroke="#000000" points="389,-412.5 389,-442.5 642,-442.5 642,-412.5 389,-412.5"/>
<text text-anchor="start" x="396" y="-423.9" font-family="Arial" font-size="14.00" fill="#000000">created </text>
<text text-anchor="start" x="446.5722" y="-423.9" font-family="Arial" font-size="14.00" fill="#666666">[timestamp without time zone]</text>
<polygon fill="none" stroke="#000000" points="389,-382.5 389,-412.5 642,-412.5 642,-382.5 389,-382.5"/>
<text text-anchor="start" x="395.6915" y="-393.9" font-family="Arial" font-size="14.00" fill="#000000">updated </text>
<text text-anchor="start" x="450.1683" y="-393.9" font-family="Arial" font-size="14.00" fill="#666666">[timestamp without time zone]</text>
<polygon fill="none" stroke="#000000" stroke-width="3" points="387,-381.5 387,-659.5 643,-659.5 643,-381.5 387,-381.5"/>
</g>
<!-- public.users -->
<g id="node4" class="node">
<title>public.users</title>
<polygon fill="#efefef" stroke="transparent" points="374,-222.5 374,-257.5 657,-257.5 657,-222.5 374,-222.5"/>
<polygon fill="none" stroke="#000000" points="374,-222.5 374,-257.5 657,-257.5 657,-222.5 374,-222.5"/>
<text text-anchor="start" x="403.7091" y="-235.3" font-family="Arial Bold" font-size="18.00" fill="#000000">public.users</text>
<text text-anchor="start" x="499.7229" y="-235.3" font-family="Arial" font-size="14.00" fill="#000000">    </text>
<text text-anchor="start" x="533.9277" y="-235.3" font-family="Arial" font-size="14.00" fill="#666666">[BASE TABLE]</text>
<polygon fill="none" stroke="#000000" points="374,-192.5 374,-222.5 657,-222.5 657,-192.5 374,-192.5"/>
<text text-anchor="start" x="381" y="-203.9" font-family="Arial" font-size="14.00" fill="#000000">id    </text>
<text text-anchor="start" x="426.094" y="-203.9" font-family="Arial" font-size="14.00" fill="#666666">[integer]</text>
<polygon fill="none" stroke="#000000" points="374,-162.5 374,-192.5 657,-192.5 657,-162.5 374,-162.5"/>
<text text-anchor="start" x="381" y="-173.9" font-family="Arial" font-size="14.00" fill="#000000">username    </text>
<text text-anchor="start" x="477.439" y="-173.9" font-family="Arial" font-size="14.00" fill="#666666">[varchar(50)]</text>
<polygon fill="none" stroke="#000000" points="374,-132.5 374,-162.5 657,-162.5 657,-132.5 374,-132.5"/>
<text text-anchor="start" x="381" y="-143.9" font-family="Arial" font-size="14.00" fill="#000000">password    </text>
<text text-anchor="start" x="475.1024" y="-143.9" font-family="Arial" font-size="14.00" fill="#666666">[varchar(50)]</text>
<polygon fill="none" stroke="#000000" points="374,-102.5 374,-132.5 657,-132.5 657,-102.5 374,-102.5"/>
<text text-anchor="start" x="381" y="-113.9" font-family="Arial" font-size="14.00" fill="#000000">email    </text>
<text text-anchor="start" x="448.6438" y="-113.9" font-family="Arial" font-size="14.00" fill="#666666">[varchar(355)]</text>
<polygon fill="none" stroke="#000000" points="374,-72.5 374,-102.5 657,-102.5 657,-72.5 374,-72.5"/>
<text text-anchor="start" x="381" y="-83.9" font-family="Arial" font-size="14.00" fill="#000000">created    </text>
<text text-anchor="start" x="461.8864" y="-83.9" font-family="Arial" font-size="14.00" fill="#666666">[timestamp without time zone]</text>
<polygon fill="none" stroke="#000000" points="374,-42.5 374,-72.5 657,-72.5 657,-42.5 374,-42.5"/>
<text text-anchor="start" x="380.5344" y="-53.9" font-family="Arial" font-size="14.00" fill="#000000">updated    </text>
<text text-anchor="start" x="465.3254" y="-53.9" font-family="Arial" font-size="14.00" fill="#666666">[timestamp without time zone]</text>
</g>
<!-- public.posts&#45;&gt;public.users -->
<g id="edge3" class="edge">
<title>public.posts:user_id&#45;&gt;public.users:id</title>
<path fill="none" stroke="#000000" d="M378.5998,-576.995C223.8588,-561.7723 212.9564,-207.5 374,-207.5"/>
<polygon fill="#000000" stroke="#000000" points="379.0118,-577.0149 388.7817,-581.9947 384.0059,-577.2575 389,-577.5 389,-577.5 389,-577.5 384.0059,-577.2575 389.2183,-573.0053 379.0118,-577.0149 379.0118,-577.0149"/>
<text text-anchor="start" x="7.2185" y="-587.5" font-family="Arial" font-size="10.00" fill="#000000">FOREIGN KEY (user_id) REFERENCES users(id) ON DELETE SET NULL (user_id)</text>
</g>
<!-- public.comments -->
<g id="node2" class="node">
<title>public.comments</title>
<polygon fill="#efefef" stroke="transparent" points="182,-992.5 182,-1027.5 465,-1027.5 465,-992.5 182,-992.5"/>
<polygon fill="none" stroke="#000000" points="182,-992.5 182,-1027.5 465,-1027.5 465,-992.5 182,-992.5"/>
<text text-anchor="start" x="192.2088" y="-1005.3" font-family="Arial Bold" font-size="18.00" fill="#000000">public.comments</text>
<text text-anchor="start" x="327.2232" y="-1005.3" font-family="Arial" font-size="14.00" fill="#000000">    </text>
<text text-anchor="start" x="361.428" y="-1005.3" font-family="Arial" font-size="14.00" fill="#666666">[BASE TABLE]</text>
<polygon fill="none" stroke="#000000" points="182,-962.5 182,-992.5 465,-992.5 465,-962.5 182,-962.5"/>
<text text-anchor="start" x="189" y="-973.9" font-family="Arial" font-size="14.00" fill="#000000">id    </text>
<text text-anchor="start" x="234.094" y="-973.9" font-family="Arial" font-size="14.00" fill="#666666">[bigint]</text>
<polygon fill="none" stroke="#000000" points="182,-932.5 182,-962.5 465,-962.5 465,-932.5 182,-932.5"/>
<text text-anchor="start" x="189" y="-943.9" font-family="Arial" font-size="14.00" fill="#000000">post_id    </text>
<text text-anchor="start" x="268.3324" y="-943.9" font-family="Arial" font-size="14.00" fill="#666666">[bigint]</text>
<polygon fill="none" stroke="#000000" points="182,-902.5 182,-932.5 465,-932.5 465,-902.5 182,-902.5"/>
<text text-anchor="start" x="189" y="-913.9" font-family="Arial" font-size="14.00" fill="#000000">user_id    </text>
<text text-anchor="start" x="269.1024" y="-913.9" font-family="Arial" font-size="14.00" fill="#666666">[integer]</text>
<polygon fill="none" stroke="#000000" points="182,-872.5 182,-902.5 465,-902.5 465,-872.5 182,-872.5"/>
<text text-anchor="start" x="189" y="-883.9" font-family="Arial" font-size="14.00" fill="#000000">comment    </text>
<text text-anchor="start" x="280.7644" y="-883.9" font-family="Arial" font-size="14.00" fill="#666666">[text]</text>
<polygon fill="none" stroke="#000000" points="182,-842.5 182,-872.5 465,-872.5 465,-842.5 182,-842.5"/>
<text text-anchor="start" x="189" y="-853.9" font-family="Arial" font-size="14.00" fill="#000000">post_id_desc    </text>
<text text-anchor="start" x="305.6802" y="-853.9" font-family="Arial" font-size="14.00" fill="#666666">[bigint]</text>
<polygon fill="none" stroke="#000000" points="182,-812.5 182,-842.5 465,-842.5 465,-812.5 182,-812.5"/>
<text text-anchor="start" x="189" y="-823.9" font-family="Arial" font-size="14.00" fill="#000000">created    </text>
<text text-anchor="start" x="269.8864" y="-823.9" font-family="Arial" font-size="14.00" fill="#666666">[timestamp without time zone]</text>
<polygon fill="none" stroke="#000000" points="182,-782.5 182,-812.5 465,-812.5 465,-782.5 182,-782.5"/>
<text text-anchor="start" x="188.5344" y="-793.9" font-family="Arial" font-size="14.00" fill="#000000">updated    </text>
<text text-anchor="start" x="273.3254" y="-793.9" font-family="Arial" font-size="14.00" fill="#666666">[timestamp without time zone]</text>
</g>
<!-- public.comments&#45;&gt;public.posts -->
<g id="edge1" class="edge">
<title>public.comments:post_id&#45;&gt;public.posts:id</title>
<path fill="none" stroke="#000000" d="M474.6008,-944.5562C507.7395,-921.9572 487.7315,-775.9203 465,-740 445.0134,-708.4172 408.9866,-735.5828 389,-704 366.0652,-667.7584 346.1111,-607.5 389,-607.5"/>
<polygon fill="#000000" stroke="#000000" points="474.5607,-944.5684 463.6808,-943.1977 469.7803,-946.0342 465,-947.5 465,-947.5 465,-947.5 469.7803,-946.0342 466.3192,-951.8023 474.5607,-944.5684 474.5607,-944.5684"/>
<text text-anchor="start" x="471.8845" y="-957.5" font-family="Arial" font-size="10.00" fill="#000000">FOREIGN KEY (post_id) REFERENCES posts(id)</text>
</g>
<!-- public.logs -->
<g id="node3" class="node">
<title>public.logs</title>
<polygon fill="#efefef" stroke="transparent" points="569,-992.5 569,-1027.5 849,-1027.5 849,-992.5 569,-992.5"/>
<polygon fill="none" stroke="#000000" points="569,-992.5 569,-1027.5 849,-1027.5 849,-992.5 569,-992.5"/>
<text text-anchor="start" x="602.7081" y="-1005.3" font-family="Arial Bold" font-size="18.00" fill="#000000">public.logs</text>
<text text-anchor="start" x="687.7239" y="-1005.3" font-family="Arial" font-size="14.00" fill="#000000">    </text>
<text text-anchor="start" x="721.9287" y="-1005.3" font-family="Arial" font-size="14.00" fill="#666666">[BASE TABLE]</text>
<polygon fill="none" stroke="#000000" points="569,-962.5 569,-992.5 849,-992.5 849,-962.5 569,-962.5"/>
<text text-anchor="start" x="576" y="-973.9" font-family="Arial" font-size="14.00" fill="#000000">id    </text>
<text text-anchor="start" x="621.094" y="-973.9" font-family="Arial" font-size="14.00" fill="#666666">[uuid]</text>
<polygon fill="none" stroke="#000000" points="569,-932.5 569,-962.5 849,-962.5 849,-932.5 569,-932.5"/>
<text text-anchor="start" x="576" y="-943.9" font-family="Arial" font-size="14.00" fill="#000000">user_id    </text>
<text text-anchor="start" x="656.1024" y="-943.9" font-family="Arial" font-size="14.00" fill="#666666">[integer]</text>
<polygon fill="none" stroke="#000000" points="569,-902.5 569,-932.5 849,-932.5 849,-902.5 569,-902.5"/>
<text text-anchor="start" x="576" y="-913.9" font-family="Arial" font-size="14.00" fill="#000000">post_id    </text>
<text text-anchor="start" x="655.3324" y="-913.9" font-family="Arial" font-size="14.00" fill="#666666">[bigint]</text>
<polygon fill="none" stroke="#000000" points="569,-872.5 569,-902.5 849,-902.5 849,-872.5 569,-872.5"/>
<text text-anchor="start" x="576" y="-883.9" font-family="Arial" font-size="14.00" fill="#000000">comment_id    </text>
<text text-anchor="start" x="686.4362" y="-883.9" font-family="Arial" font-size="14.00" fill="#666666">[bigint]</text>
<polygon fill="none" stroke="#000000" points="569,-842.5 569,-872.5 849,-872.5 849,-842.5 569,-842.5"/>
<text text-anchor="start" x="576" y="-853.9" font-family="Arial" font-size="14.00" fill="#000000">comment_star_id    </text>
<text text-anchor="start" x="717.5526" y="-853.9" font-family="Arial" font-size="14.00" fill="#666666">[uuid]</text>
<polygon fill="none" stroke="#000000" points="569,-812.5 569,-842.5 849,-842.5 849,-812.5 569,-812.5"/>
<text text-anchor="start" x="576" y="-823.9" font-family="Arial" font-size="14.00" fill="#000000">payload    </text>
<text text-anchor="start" x="659.2244" y="-823.9" font-family="Arial" font-size="14.00" fill="#666666">[text]</text>
<polygon fill="none" stroke="#000000" points="569,-782.5 569,-812.5 849,-812.5 849,-782.5 569,-782.5"/>
<text text-anchor="start" x="575.9867" y="-793.9" font-family="Arial" font-size="14.00" fill="#000000">created    </text>
<text text-anchor="start" x="656.8731" y="-793.9" font-family="Arial" font-size="14.00" fill="#666666">[timestamp without time zone]</text>
</g>
<!-- public.logs&#45;&gt;public.posts -->
<g id="edge2" class="edge">
<title>public.logs:post_id&#45;&gt;public.posts:id</title>
<path fill="none" stroke="#000000" stroke-dasharray="5,2" d="M558.6602,-916.7874C493.6112,-907.2356 529.2942,-803.8524 569,-740 588.1029,-709.2799 622.8971,-734.7201 642,-704 664.6482,-667.5786 684.8889,-607.5 642,-607.5"/>
<polygon fill="#000000" stroke="#000000" points="559.0237,-916.8124 568.6906,-921.9894 564.0118,-917.1562 569,-917.5 569,-917.5 569,-917.5 564.0118,-917.1562 569.3094,-913.0106 559.0237,-916.8124 559.0237,-916.8124"/>
<text text-anchor="start" x="479.3245" y="-927.5" font-family="Arial" font-size="10.00" fill="#000000">Additional Relation</text>
</g>
</g>
</svg>
