<?xml version="1.0" encoding="UTF-8" standalone="no"?>
<!DOCTYPE svg PUBLIC "-//W3C//DTD SVG 1.1//EN"
 "http://www.w3.org/Graphics/SVG/1.1/DTD/svg11.dtd">
<!-- Generated by graphviz version 2.40.1 (20161225.0304)
 -->
<!-- Title: public.comment_stars Pages: 1 -->
<svg width="1030pt" height="1049pt"
 viewBox="0.00 0.00 1030.00 1049.00" xmlns="http://www.w3.org/2000/svg" xmlns:xlink="http://www.w3.org/1999/xlink">
<g id="graph0" class="graph" transform="scale(1 1) rotate(0) translate(4 1045)">
<title>public.comment_stars</title>
<polygon fill="#ffffff" stroke="transparent" points="-4,4 -4,-1045 1026,-1045 1026,4 -4,4"/>
<!-- public.comment_stars -->
<g id="node1" class="node">
<title>public.comment_stars</title>
<polygon fill="#efefef" stroke="transparent" points="452,-592.5 452,-627.5 738,-627.5 738,-592.5 452,-592.5"/>
<polygon fill="none" stroke="#000000" points="452,-592.5 452,-627.5 738,-627.5 738,-592.5 452,-592.5"/>
<text text-anchor="start" x="458.8625" y="-605.3" font-family="Arial Bold" font-size="18.00" fill="#000000">public.comment_stars</text>
<text text-anchor="start" x="633.8837" y="-605.3" font-family="Arial" font-size="14.00" fill="#000000"> </text>
<text text-anchor="start" x="637.7743" y="-605.3" font-family="Arial" font-size="14.00" fill="#666666">[BASE TABLE]</text>
<polygon fill="none" stroke="#000000" points="452,-562.5 452,-592.5 738,-592.5 738,-562.5 452,-562.5"/>
<text text-anchor="start" x="459" y="-573.9" font-family="Arial" font-size="14.00" fill="#000000">id </text>
<text text-anchor="start" x="473.7798" y="-573.9" font-family="Arial" font-size="14.00" fill="#666666">[uuid]</text>
<polygon fill="none" stroke="#000000" points="452,-532.5 452,-562.5 738,-562.5 738,-532.5 452,-532.5"/>
<text text-anchor="start" x="459" y="-543.9" font-family="Arial" font-size="14.00" fill="#000000">user_id </text>
<text text-anchor="start" x="508.7882" y="-543.9" font-family="Arial" font-size="14.00" fill="#666666">[integer]</text>
<polygon fill="none" stroke="#000000" points="452,-502.5 452,-532.5 738,-532.5 738,-502.5 452,-502.5"/>
<text text-anchor="start" x="459" y="-513.9" font-family="Arial" font-size="14.00" fill="#000000">comment_post_id </text>
<text text-anchor="start" x="573.3604" y="-513.9" font-family="Arial" font-size="14.00" fill="#666666">[bigint]</text>
<polygon fill="none" stroke="#000000" points="452,-472.5 452,-502.5 738,-502.5 738,-472.5 452,-472.5"/>
<text text-anchor="start" x="459" y="-483.9" font-family="Arial" font-size="14.00" fill="#000000">comment_user_id </text>
<text text-anchor="start" x="574.1304" y="-483.9" font-family="Arial" font-size="14.00" fill="#666666">[integer]</text>
<polygon fill="none" stroke="#000000" points="452,-442.5 452,-472.5 738,-472.5 738,-442.5 452,-442.5"/>
<text text-anchor="start" x="459" y="-453.9" font-family="Arial" font-size="14.00" fill="#000000">created </text>
<text text-anchor="start" x="509.5722" y="-453.9" font-family="Arial" font-size="14.00" fill="#666666">[timestamp without time zone]</text>
<polygon fill="none" stroke="#000000" points="452,-412.5 452,-442.5 738,-442.5 738,-412.5 452,-412.5"/>
<text text-anchor="start" x="459" y="-423.9" font-family="Arial" font-size="14.00" fill="#000000">updated </text>
<text text-anchor="start" x="513.4768" y="-423.9" font-family="Arial" font-size="14.00" fill="#666666">[timestamp without time zone]</text>
<polygon fill="none" stroke="#000000" stroke-width="3" points="450.5,-411.5 450.5,-629.5 739.5,-629.5 739.5,-411.5 450.5,-411.5"/>
</g>
<!-- public.comments -->
<g id="node3" class="node">
<title>public.comments</title>
<polygon fill="#efefef" stroke="transparent" points="290,-252.5 290,-287.5 543,-287.5 543,-252.5 290,-252.5"/>
<polygon fill="none" stroke="#000000" points="290,-252.5 290,-287.5 543,-287.5 543,-252.5 290,-252.5"/>
<text text-anchor="start" x="300.3659" y="-265.3" font-family="Arial Bold" font-size="18.00" fill="#000000">public.comments</text>
<text text-anchor="start" x="435.3803" y="-265.3" font-family="Arial" font-size="14.00" fill="#000000"> </text>
<text text-anchor="start" x="439.2709" y="-265.3" font-family="Arial" font-size="14.00" fill="#666666">[BASE TABLE]</text>
<polygon fill="none" stroke="#000000" points="290,-222.5 290,-252.5 543,-252.5 543,-222.5 290,-222.5"/>
<text text-anchor="start" x="297" y="-233.9" font-family="Arial" font-size="14.00" fill="#000000">id </text>
<text text-anchor="start" x="311.7798" y="-233.9" font-family="Arial" font-size="14.00" fill="#666666">[bigint]</text>
<polygon fill="none" stroke="#000000" points="290,-192.5 290,-222.5 543,-222.5 543,-192.5 290,-192.5"/>
<text text-anchor="start" x="297" y="-203.9" font-family="Arial" font-size="14.00" fill="#000000">post_id </text>
<text text-anchor="start" x="346.0182" y="-203.9" font-family="Arial" font-size="14.00" fill="#666666">[bigint]</text>
<polygon fill="none" stroke="#000000" points="290,-162.5 290,-192.5 543,-192.5 543,-162.5 290,-162.5"/>
<text text-anchor="start" x="297" y="-173.9" font-family="Arial" font-size="14.00" fill="#000000">user_id </text>
<text text-anchor="start" x="346.7882" y="-173.9" font-family="Arial" font-size="14.00" fill="#666666">[integer]</text>
<polygon fill="none" stroke="#000000" points="290,-132.5 290,-162.5 543,-162.5 543,-132.5 290,-132.5"/>
<text text-anchor="start" x="297" y="-143.9" font-family="Arial" font-size="14.00" fill="#000000">comment </text>
<text text-anchor="start" x="358.4502" y="-143.9" font-family="Arial" font-size="14.00" fill="#666666">[text]</text>
<polygon fill="none" stroke="#000000" points="290,-102.5 290,-132.5 543,-132.5 543,-102.5 290,-102.5"/>
<text text-anchor="start" x="297" y="-113.9" font-family="Arial" font-size="14.00" fill="#000000">post_id_desc </text>
<text text-anchor="start" x="383.366" y="-113.9" font-family="Arial" font-size="14.00" fill="#666666">[bigint]</text>
<polygon fill="none" stroke="#000000" points="290,-72.5 290,-102.5 543,-102.5 543,-72.5 290,-72.5"/>
<text text-anchor="start" x="297" y="-83.9" font-family="Arial" font-size="14.00" fill="#000000">created </text>
<text text-anchor="start" x="347.5722" y="-83.9" font-family="Arial" font-size="14.00" fill="#666666">[timestamp without time zone]</text>
<polygon fill="none" stroke="#000000" points="290,-42.5 290,-72.5 543,-72.5 543,-42.5 290,-42.5"/>
<text text-anchor="start" x="296.6915" y="-53.9" font-family="Arial" font-size="14.00" fill="#000000">updated </text>
<text text-anchor="start" x="351.1683" y="-53.9" font-family="Arial" font-size="14.00" fill="#666666">[timestamp without time zone]</text>
</g>
<!-- public.comment_stars&#45;&gt;public.comments -->
<g id="edge2" class="edge">
<title>public.comment_stars:comment_post_id&#45;&gt;public.comments:post_id</title>
<path fill="none" stroke="#000000" d="M441.8746,-516.6681C388.3389,-507.2086 416.4516,-419.2921 452,-367 476.4524,-331.0301 518.5476,-366.9699 543,-331 573.8585,-285.6068 597.8889,-207.5 543,-207.5"/>
<polygon fill="#000000" stroke="#000000" points="442.0336,-516.6811 451.6315,-521.9849 447.0168,-517.0905 452,-517.5 452,-517.5 452,-517.5 447.0168,-517.0905 452.3685,-513.0151 442.0336,-516.6811 442.0336,-516.6811"/>
<text text-anchor="start" x="6.533" y="-527.5" font-family="Arial" font-size="10.00" fill="#000000">FOREIGN KEY (comment_post_id, comment_user_id) REFERENCES comments(post_id, user_id)</text>
</g>
<!-- public.users -->
<g id="node4" class="node">
<title>public.users</title>
<polygon fill="#efefef" stroke="transparent" points="647,-237.5 647,-272.5 900,-272.5 900,-237.5 647,-237.5"/>
<polygon fill="none" stroke="#000000" points="647,-237.5 647,-272.5 900,-272.5 900,-237.5 647,-237.5"/>
<text text-anchor="start" x="676.8662" y="-250.3" font-family="Arial Bold" font-size="18.00" fill="#000000">public.users</text>
<text text-anchor="start" x="772.88" y="-250.3" font-family="Arial" font-size="14.00" fill="#000000"> </text>
<text text-anchor="start" x="776.7706" y="-250.3" font-family="Arial" font-size="14.00" fill="#666666">[BASE TABLE]</text>
<polygon fill="none" stroke="#000000" points="647,-207.5 647,-237.5 900,-237.5 900,-207.5 647,-207.5"/>
<text text-anchor="start" x="654" y="-218.9" font-family="Arial" font-size="14.00" fill="#000000">id </text>
<text text-anchor="start" x="668.7798" y="-218.9" font-family="Arial" font-size="14.00" fill="#666666">[integer]</text>
<polygon fill="none" stroke="#000000" points="647,-177.5 647,-207.5 900,-207.5 900,-177.5 647,-177.5"/>
<text text-anchor="start" x="654" y="-188.9" font-family="Arial" font-size="14.00" fill="#000000">username </text>
<text text-anchor="start" x="720.1248" y="-188.9" font-family="Arial" font-size="14.00" fill="#666666">[varchar(50)]</text>
<polygon fill="none" stroke="#000000" points="647,-147.5 647,-177.5 900,-177.5 900,-147.5 647,-147.5"/>
<text text-anchor="start" x="654" y="-158.9" font-family="Arial" font-size="14.00" fill="#000000">password </text>
<text text-anchor="start" x="717.7882" y="-158.9" font-family="Arial" font-size="14.00" fill="#666666">[varchar(50)]</text>
<polygon fill="none" stroke="#000000" points="647,-117.5 647,-147.5 900,-147.5 900,-117.5 647,-117.5"/>
<text text-anchor="start" x="654" y="-128.9" font-family="Arial" font-size="14.00" fill="#000000">email </text>
<text text-anchor="start" x="691.3296" y="-128.9" font-family="Arial" font-size="14.00" fill="#666666">[varchar(355)]</text>
<polygon fill="none" stroke="#000000" points="647,-87.5 647,-117.5 900,-117.5 900,-87.5 647,-87.5"/>
<text text-anchor="start" x="654" y="-98.9" font-family="Arial" font-size="14.00" fill="#000000">created </text>
<text text-anchor="start" x="704.5722" y="-98.9" font-family="Arial" font-size="14.00" fill="#666666">[timestamp without time zone]</text>
<polygon fill="none" stroke="#000000" points="647,-57.5 647,-87.5 900,-87.5 900,-57.5 647,-57.5"/>
<text text-anchor="start" x="653.6915" y="-68.9" font-family="Arial" font-size="14.00" fill="#000000">updated </text>
<text text-anchor="start" x="708.1683" y="-68.9" font-family="Arial" font-size="14.00" fill="#666666">[timestamp without time zone]</text>
</g>
<!-- public.comment_stars&#45;&gt;public.users -->
<g id="edge3" class="edge">
<title>public.comment_stars:comment_user_id&#45;&gt;public.users:id</title>
<path fill="none" stroke="#000000" d="M748.1374,-486.4337C787.8286,-477.1916 763.1699,-409.9594 738,-367 714.5625,-326.9973 670.4375,-356.0027 647,-316 625.9928,-280.1453 605.4444,-222.5 647,-222.5"/>
<polygon fill="#000000" stroke="#000000" points="747.9451,-486.4539 737.5292,-483.0247 742.9726,-486.9769 738,-487.5 738,-487.5 738,-487.5 742.9726,-486.9769 738.4708,-491.9753 747.9451,-486.4539 747.9451,-486.4539"/>
<text text-anchor="start" x="744.998" y="-497.5" font-family="Arial" font-size="10.00" fill="#000000">FOREIGN KEY (comment_user_id) REFERENCES users(id)</text>
</g>
<!-- public.logs -->
<g id="node2" class="node">
<title>public.logs</title>
<polygon fill="#efefef" stroke="transparent" points="470,-962.5 470,-997.5 719,-997.5 719,-962.5 470,-962.5"/>
<polygon fill="none" stroke="#000000" points="470,-962.5 470,-997.5 719,-997.5 719,-962.5 470,-962.5"/>
<text text-anchor="start" x="503.3652" y="-975.3" font-family="Arial Bold" font-size="18.00" fill="#000000">public.logs</text>
<text text-anchor="start" x="588.381" y="-975.3" font-family="Arial" font-size="14.00" fill="#000000"> </text>
<text text-anchor="start" x="592.2716" y="-975.3" font-family="Arial" font-size="14.00" fill="#666666">[BASE TABLE]</text>
<polygon fill="none" stroke="#000000" points="470,-932.5 470,-962.5 719,-962.5 719,-932.5 470,-932.5"/>
<text text-anchor="start" x="477" y="-943.9" font-family="Arial" font-size="14.00" fill="#000000">id </text>
<text text-anchor="start" x="491.7798" y="-943.9" font-family="Arial" font-size="14.00" fill="#666666">[uuid]</text>
<polygon fill="none" stroke="#000000" points="470,-902.5 470,-932.5 719,-932.5 719,-902.5 470,-902.5"/>
<text text-anchor="start" x="477" y="-913.9" font-family="Arial" font-size="14.00" fill="#000000">user_id </text>
<text text-anchor="start" x="526.7882" y="-913.9" font-family="Arial" font-size="14.00" fill="#666666">[integer]</text>
<polygon fill="none" stroke="#000000" points="470,-872.5 470,-902.5 719,-902.5 719,-872.5 470,-872.5"/>
<text text-anchor="start" x="477" y="-883.9" font-family="Arial" font-size="14.00" fill="#000000">post_id </text>
<text text-anchor="start" x="526.0182" y="-883.9" font-family="Arial" font-size="14.00" fill="#666666">[bigint]</text>
<polygon fill="none" stroke="#000000" points="470,-842.5 470,-872.5 719,-872.5 719,-842.5 470,-842.5"/>
<text text-anchor="start" x="477" y="-853.9" font-family="Arial" font-size="14.00" fill="#000000">comment_id </text>
<text text-anchor="start" x="557.122" y="-853.9" font-family="Arial" font-size="14.00" fill="#666666">[bigint]</text>
<polygon fill="none" stroke="#000000" points="470,-812.5 470,-842.5 719,-842.5 719,-812.5 470,-812.5"/>
<text text-anchor="start" x="477" y="-823.9" font-family="Arial" font-size="14.00" fill="#000000">comment_star_id </text>
<text text-anchor="start" x="588.2384" y="-823.9" font-family="Arial" font-size="14.00" fill="#666666">[uuid]</text>
<polygon fill="none" stroke="#000000" points="470,-782.5 470,-812.5 719,-812.5 719,-782.5 470,-782.5"/>
<text text-anchor="start" x="477" y="-793.9" font-family="Arial" font-size="14.00" fill="#000000">payload </text>
<text text-anchor="start" x="529.9102" y="-793.9" font-family="Arial" font-size="14.00" fill="#666666">[text]</text>
<polygon fill="none" stroke="#000000" points="470,-752.5 470,-782.5 719,-782.5 719,-752.5 470,-752.5"/>
<text text-anchor="start" x="476.6438" y="-763.9" font-family="Arial" font-size="14.00" fill="#000000">created </text>
<text text-anchor="start" x="527.216" y="-763.9" font-family="Arial" font-size="14.00" fill="#666666">[timestamp without time zone]</text>
</g>
<!-- public.logs&#45;&gt;public.comment_stars -->
<g id="edge1" class="edge">
<title>public.logs:comment_star_id&#45;&gt;public.comment_stars:id</title>
<path fill="none" stroke="#000000" stroke-dasharray="5,2" d="M728.9949,-826.3811C768.6302,-816.6976 750.9544,-746.552 719,-710 640.1903,-619.8512 530.8097,-764.1488 452,-674 423.7718,-641.7103 409.1111,-577.5 452,-577.5"/>
<polygon fill="#000000" stroke="#000000" points="728.9379,-826.3874 718.4993,-823.0279 723.969,-826.9437 719,-827.5 719,-827.5 719,-827.5 723.969,-826.9437 719.5007,-831.9721 728.9379,-826.3874 728.9379,-826.3874"/>
<text text-anchor="start" x="726.3245" y="-837.5" font-family="Arial" font-size="10.00" fill="#000000">Additional Relation</text>
</g>
</g>
</svg>
