<?xml version="1.0" encoding="UTF-8" standalone="no"?>
<!DOCTYPE svg PUBLIC "-//W3C//DTD SVG 1.1//EN"
 "http://www.w3.org/Graphics/SVG/1.1/DTD/svg11.dtd">
<!-- Generated by graphviz version 2.40.1 (20161225.0304)
 -->
<!-- Title: public.hyphen&#45;table Pages: 1 -->
<svg width="802pt" height="472pt"
 viewBox="0.00 0.00 801.50 472.00" xmlns="http://www.w3.org/2000/svg" xmlns:xlink="http://www.w3.org/1999/xlink">
<g id="graph0" class="graph" transform="scale(1 1) rotate(0) translate(4 468)">
<title>public.hyphen&#45;table</title>
<polygon fill="#ffffff" stroke="transparent" points="-4,4 -4,-468 797.5,-468 797.5,4 -4,4"/>
<!-- public.hyphen&#45;table -->
<g id="node1" class="node">
<title>public.hyphen&#45;table</title>
<polygon fill="#efefef" stroke="transparent" points="446,-382.5 446,-417.5 743,-417.5 743,-382.5 446,-382.5"/>
<polygon fill="none" stroke="#000000" points="446,-382.5 446,-417.5 743,-417.5 743,-382.5 446,-382.5"/>
<text text-anchor="start" x="452.6923" y="-395.3" font-family="Arial Bold" font-size="18.00" fill="#000000">public.hyphen&#45;table</text>
<text text-anchor="start" x="608.7397" y="-395.3" font-family="Arial" font-size="14.00" fill="#000000">    </text>
<text text-anchor="start" x="642.9445" y="-395.3" font-family="Arial" font-size="14.00" fill="#666666">[BASE TABLE]</text>
<polygon fill="none" stroke="#000000" points="446,-352.5 446,-382.5 743,-382.5 743,-352.5 446,-352.5"/>
<text text-anchor="start" x="453" y="-363.9" font-family="Arial" font-size="14.00" fill="#000000">id </text>
<text text-anchor="start" x="467.7798" y="-363.9" font-family="Arial" font-size="14.00" fill="#666666">[uuid]</text>
<polygon fill="none" stroke="#000000" points="446,-322.5 446,-352.5 743,-352.5 743,-322.5 446,-322.5"/>
<text text-anchor="start" x="453" y="-333.9" font-family="Arial" font-size="14.00" fill="#000000">hyphen&#45;column </text>
<text text-anchor="start" x="552.5792" y="-333.9" font-family="Arial" font-size="14.00" fill="#666666">[text]</text>
<polygon fill="none" stroke="#000000" points="446,-292.5 446,-322.5 743,-322.5 743,-292.5 446,-292.5"/>
<text text-anchor="start" x="453" y="-303.9" font-family="Arial" font-size="14.00" fill="#000000">CamelizeTableId </text>
<text text-anchor="start" x="561.899" y="-303.9" font-family="Arial" font-size="14.00" fill="#666666">[uuid]</text>
<polygon fill="none" stroke="#000000" points="446,-262.5 446,-292.5 743,-292.5 743,-262.5 446,-262.5"/>
<text text-anchor="start" x="453" y="-273.9" font-family="Arial" font-size="14.00" fill="#000000">created </text>
<text text-anchor="start" x="503.5722" y="-273.9" font-family="Arial" font-size="14.00" fill="#666666">[timestamp without time zone]</text>
<polygon fill="none" stroke="#000000" stroke-width="3" points="444,-261.5 444,-419.5 744,-419.5 744,-261.5 444,-261.5"/>
</g>
<!-- public.CamelizeTable -->
<g id="node2" class="node">
<title>public.CamelizeTable</title>
<polygon fill="#efefef" stroke="transparent" points="438,-102.5 438,-137.5 751,-137.5 751,-102.5 438,-102.5"/>
<polygon fill="none" stroke="#000000" points="438,-102.5 438,-137.5 751,-137.5 751,-102.5 438,-102.5"/>
<text text-anchor="start" x="444.7102" y="-115.3" font-family="Arial Bold" font-size="18.00" fill="#000000">public.CamelizeTable</text>
<text text-anchor="start" x="616.7218" y="-115.3" font-family="Arial" font-size="14.00" fill="#000000">    </text>
<text text-anchor="start" x="650.9266" y="-115.3" font-family="Arial" font-size="14.00" fill="#666666">[BASE TABLE]</text>
<polygon fill="none" stroke="#000000" points="438,-72.5 438,-102.5 751,-102.5 751,-72.5 438,-72.5"/>
<text text-anchor="start" x="445" y="-83.9" font-family="Arial" font-size="14.00" fill="#000000">id    </text>
<text text-anchor="start" x="490.094" y="-83.9" font-family="Arial" font-size="14.00" fill="#666666">[uuid]</text>
<polygon fill="none" stroke="#000000" points="438,-42.5 438,-72.5 751,-72.5 751,-42.5 438,-42.5"/>
<text text-anchor="start" x="445" y="-53.9" font-family="Arial" font-size="14.00" fill="#000000">created    </text>
<text text-anchor="start" x="525.8864" y="-53.9" font-family="Arial" font-size="14.00" fill="#666666">[timestamp without time zone]</text>
</g>
<!-- public.hyphen&#45;table&#45;&gt;public.CamelizeTable -->
<g id="edge1" class="edge">
<title>public.hyphen&#45;table:CamelizeTableId&#45;&gt;public.CamelizeTable:id</title>
<path fill="none" stroke="#000000" d="M436.0145,-306.7034C347.7259,-292.3032 343.5974,-87.5 438,-87.5"/>
<polygon fill="#000000" stroke="#000000" points="436.0317,-306.7047 445.6421,-311.9857 441.0158,-307.1023 446,-307.5 446,-307.5 446,-307.5 441.0158,-307.1023 446.3579,-303.0143 436.0317,-306.7047 436.0317,-306.7047"/>
<text text-anchor="start" x="6.734" y="-317.5" font-family="Arial" font-size="10.00" fill="#000000">FOREIGN KEY (&quot;CamelizeTableId&quot;) REFERENCES &quot;CamelizeTable&quot;(id) ON DELETE CASCADE</text>
</g>
</g>
</svg>
