<?xml version="1.0" encoding="UTF-8" standalone="no"?>
<!DOCTYPE svg PUBLIC "-//W3C//DTD SVG 1.1//EN"
 "http://www.w3.org/Graphics/SVG/1.1/DTD/svg11.dtd">
<!-- Generated by graphviz version 12.1.2 (20240928.0832)
 -->
<!-- Title: public.comments Pages: 1 -->
<svg width="884pt" height="1130pt"
 viewBox="0.00 0.00 884.26 1129.60" xmlns="http://www.w3.org/2000/svg" xmlns:xlink="http://www.w3.org/1999/xlink">
<g id="graph0" class="graph" transform="scale(1 1) rotate(0) translate(4 1125.6)">
<title>public.comments</title>
<polygon fill="white" stroke="none" points="-4,4 -4,-1125.6 880.26,-1125.6 880.26,4 -4,4"/>
<!-- public.comments -->
<g id="node1" class="node">
<title>public.comments</title>
<polygon fill="#efefef" stroke="none" points="245.72,-666.2 245.72,-701.8 507.68,-701.8 507.68,-666.2 245.72,-666.2"/>
<polygon fill="none" stroke="black" points="245.72,-666.2 245.72,-701.8 507.68,-701.8 507.68,-666.2 245.72,-666.2"/>
<text text-anchor="start" x="252.72" y="-679.6" font-family="Arial Bold" font-size="18.00">public.comments</text>
<text text-anchor="start" x="376.19" y="-679.6" font-family="Arial" font-size="14.00">    </text>
<text text-anchor="start" x="407.31" y="-679.6" font-family="Arial" font-size="14.00" fill="#666666">[BASE TABLE]</text>
<polygon fill="none" stroke="black" points="245.72,-635.4 245.72,-666.2 507.68,-666.2 507.68,-635.4 245.72,-635.4"/>
<text text-anchor="start" x="252.72" y="-647.6" font-family="Arial" font-size="14.00">id </text>
<text text-anchor="start" x="267.5" y="-647.6" font-family="Arial" font-size="14.00" fill="#666666">[bigint]</text>
<polygon fill="none" stroke="black" points="245.72,-604.6 245.72,-635.4 507.68,-635.4 507.68,-604.6 245.72,-604.6"/>
<text text-anchor="start" x="252.72" y="-616.8" font-family="Arial" font-size="14.00">post_id </text>
<text text-anchor="start" x="301.75" y="-616.8" font-family="Arial" font-size="14.00" fill="#666666">[bigint]</text>
<polygon fill="none" stroke="black" points="245.72,-573.8 245.72,-604.6 507.68,-604.6 507.68,-573.8 245.72,-573.8"/>
<text text-anchor="start" x="252.72" y="-586" font-family="Arial" font-size="14.00">user_id </text>
<text text-anchor="start" x="302.52" y="-586" font-family="Arial" font-size="14.00" fill="#666666">[integer]</text>
<polygon fill="none" stroke="black" points="245.72,-543 245.72,-573.8 507.68,-573.8 507.68,-543 245.72,-543"/>
<text text-anchor="start" x="252.72" y="-555.2" font-family="Arial" font-size="14.00">comment </text>
<text text-anchor="start" x="314.18" y="-555.2" font-family="Arial" font-size="14.00" fill="#666666">[text]</text>
<polygon fill="none" stroke="black" points="245.72,-512.2 245.72,-543 507.68,-543 507.68,-512.2 245.72,-512.2"/>
<text text-anchor="start" x="252.72" y="-524.4" font-family="Arial" font-size="14.00">post_id_desc </text>
<text text-anchor="start" x="339.11" y="-524.4" font-family="Arial" font-size="14.00" fill="#666666">[bigint]</text>
<polygon fill="none" stroke="black" points="245.72,-481.4 245.72,-512.2 507.68,-512.2 507.68,-481.4 245.72,-481.4"/>
<text text-anchor="start" x="252.72" y="-493.6" font-family="Arial" font-size="14.00">created </text>
<text text-anchor="start" x="303.3" y="-493.6" font-family="Arial" font-size="14.00" fill="#666666">[timestamp without time zone]</text>
<polygon fill="none" stroke="black" points="245.72,-450.6 245.72,-481.4 507.68,-481.4 507.68,-450.6 245.72,-450.6"/>
<text text-anchor="start" x="252.72" y="-462.8" font-family="Arial" font-size="14.00">updated </text>
<text text-anchor="start" x="307.21" y="-462.8" font-family="Arial" font-size="14.00" fill="#666666">[timestamp without time zone]</text>
<polygon fill="none" stroke="black" stroke-width="3" points="244.22,-449.1 244.22,-703.3 509.18,-703.3 509.18,-449.1 244.22,-449.1"/>
</g>
<!-- public.posts -->
<g id="node3" class="node">
<title>public.posts</title>
<polygon fill="#efefef" stroke="none" points="44.24,-289.6 44.24,-325.2 325.15,-325.2 325.15,-289.6 44.24,-289.6"/>
<polygon fill="none" stroke="black" points="44.24,-289.6 44.24,-325.2 325.15,-325.2 325.15,-289.6 44.24,-289.6"/>
<text text-anchor="start" x="79.2" y="-303" font-family="Arial Bold" font-size="18.00">public.posts</text>
<text text-anchor="start" x="165.71" y="-303" font-family="Arial" font-size="14.00">    </text>
<text text-anchor="start" x="196.82" y="-303" font-family="Arial" font-size="14.00" fill="#666666">[BASE TABLE]</text>
<polygon fill="none" stroke="black" points="44.24,-258.8 44.24,-289.6 325.15,-289.6 325.15,-258.8 44.24,-258.8"/>
<text text-anchor="start" x="51.24" y="-271" font-family="Arial" font-size="14.00">id    </text>
<text text-anchor="start" x="93.26" y="-271" font-family="Arial" font-size="14.00" fill="#666666">[bigint]</text>
<polygon fill="none" stroke="black" points="44.24,-228 44.24,-258.8 325.15,-258.8 325.15,-228 44.24,-228"/>
<text text-anchor="start" x="51.24" y="-240.2" font-family="Arial" font-size="14.00">user_id    </text>
<text text-anchor="start" x="128.28" y="-240.2" font-family="Arial" font-size="14.00" fill="#666666">[integer]</text>
<polygon fill="none" stroke="black" points="44.24,-197.2 44.24,-228 325.15,-228 325.15,-197.2 44.24,-197.2"/>
<text text-anchor="start" x="51.24" y="-209.4" font-family="Arial" font-size="14.00">title    </text>
<text text-anchor="start" x="104.15" y="-209.4" font-family="Arial" font-size="14.00" fill="#666666">[varchar(255)]</text>
<polygon fill="none" stroke="black" points="44.24,-166.4 44.24,-197.2 325.15,-197.2 325.15,-166.4 44.24,-166.4"/>
<text text-anchor="start" x="51.24" y="-178.6" font-family="Arial" font-size="14.00">body    </text>
<text text-anchor="start" x="112.72" y="-178.6" font-family="Arial" font-size="14.00" fill="#666666">[text]</text>
<polygon fill="none" stroke="black" points="44.24,-135.6 44.24,-166.4 325.15,-166.4 325.15,-135.6 44.24,-135.6"/>
<text text-anchor="start" x="51.24" y="-147.8" font-family="Arial" font-size="14.00">post_type    </text>
<text text-anchor="start" x="143.07" y="-147.8" font-family="Arial" font-size="14.00" fill="#666666">[post_types]</text>
<polygon fill="none" stroke="black" points="44.24,-104.8 44.24,-135.6 325.15,-135.6 325.15,-104.8 44.24,-104.8"/>
<text text-anchor="start" x="51.24" y="-117" font-family="Arial" font-size="14.00">labels    </text>
<text text-anchor="start" x="118.94" y="-117" font-family="Arial" font-size="14.00" fill="#666666">[varchar(50)[]]</text>
<polygon fill="none" stroke="black" points="44.24,-74 44.24,-104.8 325.15,-104.8 325.15,-74 44.24,-74"/>
<text text-anchor="start" x="51.24" y="-86.2" font-family="Arial" font-size="14.00">created    </text>
<text text-anchor="start" x="129.06" y="-86.2" font-family="Arial" font-size="14.00" fill="#666666">[timestamp without time zone]</text>
<polygon fill="none" stroke="black" points="44.24,-43.2 44.24,-74 325.15,-74 325.15,-43.2 44.24,-43.2"/>
<text text-anchor="start" x="51.24" y="-55.4" font-family="Arial" font-size="14.00">updated    </text>
<text text-anchor="start" x="132.97" y="-55.4" font-family="Arial" font-size="14.00" fill="#666666">[timestamp without time zone]</text>
</g>
<!-- public.comments&#45;&gt;public.posts -->
<g id="edge2" class="edge">
<title>public.comments:post_id&#45;&gt;public.posts:id</title>
<path fill="none" stroke="black" d="M234.37,-619.42C152.31,-609.78 195.59,-481.75 245.72,-404.4 266.8,-371.87 303.98,-400.87 325.15,-368.4 348.03,-333.33 368.02,-274.2 326.15,-274.2"/>
<polygon fill="black" stroke="black" points="234.4,-619.42 244.13,-624.47 239.72,-619.72 244.05,-619.96 244.05,-619.96 244.05,-619.96 239.72,-619.72 244.63,-615.49 234.4,-619.42"/>
<text text-anchor="start" x="15.44" y="-630" font-family="Arial" font-size="10.00">FOREIGN KEY (post_id) REFERENCES posts(id)</text>
</g>
<!-- public.users -->
<g id="node5" class="node">
<title>public.users</title>
<polygon fill="#efefef" stroke="none" points="429.24,-258.8 429.24,-294.4 710.15,-294.4 710.15,-258.8 429.24,-258.8"/>
<polygon fill="none" stroke="black" points="429.24,-258.8 429.24,-294.4 710.15,-294.4 710.15,-258.8 429.24,-258.8"/>
<text text-anchor="start" x="464.21" y="-272.2" font-family="Arial Bold" font-size="18.00">public.users</text>
<text text-anchor="start" x="550.7" y="-272.2" font-family="Arial" font-size="14.00">    </text>
<text text-anchor="start" x="581.81" y="-272.2" font-family="Arial" font-size="14.00" fill="#666666">[BASE TABLE]</text>
<polygon fill="none" stroke="black" points="429.24,-228 429.24,-258.8 710.15,-258.8 710.15,-228 429.24,-228"/>
<text text-anchor="start" x="436.24" y="-240.2" font-family="Arial" font-size="14.00">id    </text>
<text text-anchor="start" x="478.26" y="-240.2" font-family="Arial" font-size="14.00" fill="#666666">[integer]</text>
<polygon fill="none" stroke="black" points="429.24,-197.2 429.24,-228 710.15,-228 710.15,-197.2 429.24,-197.2"/>
<text text-anchor="start" x="436.24" y="-209.4" font-family="Arial" font-size="14.00">username    </text>
<text text-anchor="start" x="529.62" y="-209.4" font-family="Arial" font-size="14.00" fill="#666666">[varchar(50)]</text>
<polygon fill="none" stroke="black" points="429.24,-166.4 429.24,-197.2 710.15,-197.2 710.15,-166.4 429.24,-166.4"/>
<text text-anchor="start" x="436.24" y="-178.6" font-family="Arial" font-size="14.00">password    </text>
<text text-anchor="start" x="527.28" y="-178.6" font-family="Arial" font-size="14.00" fill="#666666">[varchar(50)]</text>
<polygon fill="none" stroke="black" points="429.24,-135.6 429.24,-166.4 710.15,-166.4 710.15,-135.6 429.24,-135.6"/>
<text text-anchor="start" x="436.24" y="-147.8" font-family="Arial" font-size="14.00">email    </text>
<text text-anchor="start" x="500.82" y="-147.8" font-family="Arial" font-size="14.00" fill="#666666">[varchar(355)]</text>
<polygon fill="none" stroke="black" points="429.24,-104.8 429.24,-135.6 710.15,-135.6 710.15,-104.8 429.24,-104.8"/>
<text text-anchor="start" x="436.24" y="-117" font-family="Arial" font-size="14.00">created    </text>
<text text-anchor="start" x="514.06" y="-117" font-family="Arial" font-size="14.00" fill="#666666">[timestamp without time zone]</text>
<polygon fill="none" stroke="black" points="429.24,-74 429.24,-104.8 710.15,-104.8 710.15,-74 429.24,-74"/>
<text text-anchor="start" x="436.24" y="-86.2" font-family="Arial" font-size="14.00">updated    </text>
<text text-anchor="start" x="517.97" y="-86.2" font-family="Arial" font-size="14.00" fill="#666666">[timestamp without time zone]</text>
</g>
<!-- public.comments&#45;&gt;public.users -->
<g id="edge4" class="edge">
<title>public.comments:user_id&#45;&gt;public.users:id</title>
<path fill="none" stroke="black" d="M518.97,-588.55C586.49,-579.36 540.77,-475.53 507.68,-404.4 488.37,-362.88 448.67,-379.07 429.24,-337.6 411.49,-299.68 386.38,-243.4 428.24,-243.4"/>
<polygon fill="black" stroke="black" points="519,-588.54 508.73,-584.69 513.67,-588.88 509.35,-589.16 509.35,-589.16 509.35,-589.16 513.67,-588.88 509.3,-593.67 519,-588.54"/>
<text text-anchor="start" x="515.68" y="-599.2" font-family="Arial" font-size="10.00">FOREIGN KEY (user_id) REFERENCES users(id)</text>
</g>
<!-- public.logs -->
<g id="node2" class="node">
<title>public.logs</title>
<polygon fill="#efefef" stroke="none" points="43.2,-1042.8 43.2,-1078.4 320.2,-1078.4 320.2,-1042.8 43.2,-1042.8"/>
<polygon fill="none" stroke="black" points="43.2,-1042.8 43.2,-1078.4 320.2,-1078.4 320.2,-1042.8 43.2,-1042.8"/>
<text text-anchor="start" x="79.71" y="-1056.2" font-family="Arial Bold" font-size="18.00">public.logs</text>
<text text-anchor="start" x="159.2" y="-1056.2" font-family="Arial" font-size="14.00">    </text>
<text text-anchor="start" x="190.32" y="-1056.2" font-family="Arial" font-size="14.00" fill="#666666">[BASE TABLE]</text>
<polygon fill="none" stroke="black" points="43.2,-1012 43.2,-1042.8 320.2,-1042.8 320.2,-1012 43.2,-1012"/>
<text text-anchor="start" x="50.2" y="-1024.2" font-family="Arial" font-size="14.00">id    </text>
<text text-anchor="start" x="92.21" y="-1024.2" font-family="Arial" font-size="14.00" fill="#666666">[uuid]</text>
<polygon fill="none" stroke="black" points="43.2,-981.2 43.2,-1012 320.2,-1012 320.2,-981.2 43.2,-981.2"/>
<text text-anchor="start" x="50.2" y="-993.4" font-family="Arial" font-size="14.00">user_id    </text>
<text text-anchor="start" x="127.23" y="-993.4" font-family="Arial" font-size="14.00" fill="#666666">[integer]</text>
<polygon fill="none" stroke="black" points="43.2,-950.4 43.2,-981.2 320.2,-981.2 320.2,-950.4 43.2,-950.4"/>
<text text-anchor="start" x="50.2" y="-962.6" font-family="Arial" font-size="14.00">post_id    </text>
<text text-anchor="start" x="126.46" y="-962.6" font-family="Arial" font-size="14.00" fill="#666666">[bigint]</text>
<polygon fill="none" stroke="black" points="43.2,-919.6 43.2,-950.4 320.2,-950.4 320.2,-919.6 43.2,-919.6"/>
<text text-anchor="start" x="50.2" y="-931.8" font-family="Arial" font-size="14.00">comment_id    </text>
<text text-anchor="start" x="157.57" y="-931.8" font-family="Arial" font-size="14.00" fill="#666666">[bigint]</text>
<polygon fill="none" stroke="black" points="43.2,-888.8 43.2,-919.6 320.2,-919.6 320.2,-888.8 43.2,-888.8"/>
<text text-anchor="start" x="50.2" y="-901" font-family="Arial" font-size="14.00">comment_star_id    </text>
<text text-anchor="start" x="188.7" y="-901" font-family="Arial" font-size="14.00" fill="#666666">[uuid]</text>
<polygon fill="none" stroke="black" points="43.2,-858 43.2,-888.8 320.2,-888.8 320.2,-858 43.2,-858"/>
<text text-anchor="start" x="50.2" y="-870.2" font-family="Arial" font-size="14.00">payload    </text>
<text text-anchor="start" x="130.36" y="-870.2" font-family="Arial" font-size="14.00" fill="#666666">[text]</text>
<polygon fill="none" stroke="black" points="43.2,-827.2 43.2,-858 320.2,-858 320.2,-827.2 43.2,-827.2"/>
<text text-anchor="start" x="50.2" y="-839.4" font-family="Arial" font-size="14.00">created    </text>
<text text-anchor="start" x="128.01" y="-839.4" font-family="Arial" font-size="14.00" fill="#666666">[timestamp without time zone]</text>
</g>
<!-- public.logs&#45;&gt;public.comments -->
<g id="edge1" class="edge">
<title>public.logs:comment_id&#45;&gt;public.comments:id</title>
<path fill="none" stroke="black" stroke-dasharray="5,2" d="M331.33,-934.18C384.77,-924.8 354.09,-837.63 320.2,-784 300.56,-752.92 265.42,-779.04 245.72,-748 222.57,-711.52 201.51,-650.8 244.72,-650.8"/>
<polygon fill="black" stroke="black" points="331.5,-934.16 321.17,-930.49 326.18,-934.59 321.87,-934.95 321.87,-934.95 321.87,-934.95 326.18,-934.59 321.9,-939.46 331.5,-934.16"/>
<text text-anchor="start" x="328.2" y="-945" font-family="Arial" font-size="10.00">Additional Relation</text>
</g>
<!-- public.comment_stars -->
<g id="node4" class="node">
<title>public.comment_stars</title>
<polygon fill="#efefef" stroke="none" points="424.22,-1027.4 424.22,-1063 721.18,-1063 721.18,-1027.4 424.22,-1027.4"/>
<polygon fill="none" stroke="black" points="424.22,-1027.4 424.22,-1063 721.18,-1063 721.18,-1027.4 424.22,-1027.4"/>
<text text-anchor="start" x="431.22" y="-1040.8" font-family="Arial Bold" font-size="18.00">public.comment_stars</text>
<text text-anchor="start" x="589.69" y="-1040.8" font-family="Arial" font-size="14.00">    </text>
<text text-anchor="start" x="620.81" y="-1040.8" font-family="Arial" font-size="14.00" fill="#666666">[BASE TABLE]</text>
<polygon fill="none" stroke="black" points="424.22,-996.6 424.22,-1027.4 721.18,-1027.4 721.18,-996.6 424.22,-996.6"/>
<text text-anchor="start" x="431.22" y="-1008.8" font-family="Arial" font-size="14.00">id    </text>
<text text-anchor="start" x="473.24" y="-1008.8" font-family="Arial" font-size="14.00" fill="#666666">[uuid]</text>
<polygon fill="none" stroke="black" points="424.22,-965.8 424.22,-996.6 721.18,-996.6 721.18,-965.8 424.22,-965.8"/>
<text text-anchor="start" x="431.22" y="-978" font-family="Arial" font-size="14.00">user_id    </text>
<text text-anchor="start" x="508.26" y="-978" font-family="Arial" font-size="14.00" fill="#666666">[integer]</text>
<polygon fill="none" stroke="black" points="424.22,-935 424.22,-965.8 721.18,-965.8 721.18,-935 424.22,-935"/>
<text text-anchor="start" x="431.22" y="-947.2" font-family="Arial" font-size="14.00">comment_post_id    </text>
<text text-anchor="start" x="572.84" y="-947.2" font-family="Arial" font-size="14.00" fill="#666666">[bigint]</text>
<polygon fill="none" stroke="black" points="424.22,-904.2 424.22,-935 721.18,-935 721.18,-904.2 424.22,-904.2"/>
<text text-anchor="start" x="431.22" y="-916.4" font-family="Arial" font-size="14.00">comment_user_id    </text>
<text text-anchor="start" x="573.61" y="-916.4" font-family="Arial" font-size="14.00" fill="#666666">[integer]</text>
<polygon fill="none" stroke="black" points="424.22,-873.4 424.22,-904.2 721.18,-904.2 721.18,-873.4 424.22,-873.4"/>
<text text-anchor="start" x="431.22" y="-885.6" font-family="Arial" font-size="14.00">created    </text>
<text text-anchor="start" x="509.03" y="-885.6" font-family="Arial" font-size="14.00" fill="#666666">[timestamp without time zone]</text>
<polygon fill="none" stroke="black" points="424.22,-842.6 424.22,-873.4 721.18,-873.4 721.18,-842.6 424.22,-842.6"/>
<text text-anchor="start" x="431.22" y="-854.8" font-family="Arial" font-size="14.00">updated    </text>
<text text-anchor="start" x="512.95" y="-854.8" font-family="Arial" font-size="14.00" fill="#666666">[timestamp without time zone]</text>
</g>
<!-- public.comment_stars&#45;&gt;public.comments -->
<g id="edge3" class="edge">
<title>public.comment_stars:comment_post_id&#45;&gt;public.comments:post_id</title>
<path fill="none" stroke="black" d="M413.11,-949.59C359.95,-940.38 393.1,-854.68 424.22,-799.4 445.59,-761.44 486.29,-785.95 507.68,-748 535.62,-698.44 565.57,-620 508.68,-620"/>
<polygon fill="black" stroke="black" points="412.92,-949.58 422.53,-954.86 418.24,-950 422.55,-950.35 422.55,-950.35 422.55,-950.35 418.24,-950 423.25,-945.89 412.92,-949.58"/>
<text text-anchor="start" x="430.22" y="-960.4" font-family="Arial" font-size="10.00">FOREIGN KEY (comment_post_id, comment_user_id) REFERENCES comments(post_id, user_id)</text>
</g>
</g>
</svg>
