<?xml version="1.0" encoding="UTF-8" standalone="no"?>
<!DOCTYPE svg PUBLIC "-//W3C//DTD SVG 1.1//EN"
 "http://www.w3.org/Graphics/SVG/1.1/DTD/svg11.dtd">
<!-- Generated by graphviz version 12.1.2 (20240928.0832)
 -->
<!-- Title: public.post_comment_stars Pages: 1 -->
<svg width="492pt" height="290pt"
 viewBox="0.00 0.00 492.34 290.00" xmlns="http://www.w3.org/2000/svg" xmlns:xlink="http://www.w3.org/1999/xlink">
<g id="graph0" class="graph" transform="scale(1 1) rotate(0) translate(4 286)">
<title>public.post_comment_stars</title>
<polygon fill="white" stroke="none" points="-4,4 -4,-286 488.34,-286 488.34,4 -4,4"/>
<!-- public.post_comment_stars -->
<g id="node1" class="node">
<title>public.post_comment_stars</title>
<polygon fill="#efefef" stroke="none" points="46.2,-200.2 46.2,-235.8 438.14,-235.8 438.14,-200.2 46.2,-200.2"/>
<polygon fill="none" stroke="black" points="46.2,-200.2 46.2,-235.8 438.14,-235.8 438.14,-200.2 46.2,-200.2"/>
<text text-anchor="start" x="53.2" y="-213.6" font-family="Arial Bold" font-size="18.00">public.post_comment_stars</text>
<text text-anchor="start" x="250.67" y="-213.6" font-family="Arial" font-size="14.00">    </text>
<text text-anchor="start" x="281.79" y="-213.6" font-family="Arial" font-size="14.00" fill="#666666">[MATERIALIZED VIEW]</text>
<polygon fill="none" stroke="black" points="46.2,-169.4 46.2,-200.2 438.14,-200.2 438.14,-169.4 46.2,-169.4"/>
<text text-anchor="start" x="53.2" y="-181.6" font-family="Arial" font-size="14.00">id </text>
<text text-anchor="start" x="67.99" y="-181.6" font-family="Arial" font-size="14.00" fill="#666666">[uuid]</text>
<polygon fill="none" stroke="black" points="46.2,-138.6 46.2,-169.4 438.14,-169.4 438.14,-138.6 46.2,-138.6"/>
<text text-anchor="start" x="53.2" y="-150.8" font-family="Arial" font-size="14.00">comment_user </text>
<text text-anchor="start" x="149.68" y="-150.8" font-family="Arial" font-size="14.00" fill="#666666">[varchar(50)]</text>
<polygon fill="none" stroke="black" points="46.2,-107.8 46.2,-138.6 438.14,-138.6 438.14,-107.8 46.2,-107.8"/>
<text text-anchor="start" x="53.2" y="-120" font-family="Arial" font-size="14.00">comment_star_user </text>
<text text-anchor="start" x="180.81" y="-120" font-family="Arial" font-size="14.00" fill="#666666">[varchar(50)]</text>
<polygon fill="none" stroke="black" points="46.2,-77 46.2,-107.8 438.14,-107.8 438.14,-77 46.2,-77"/>
<text text-anchor="start" x="53.2" y="-89.2" font-family="Arial" font-size="14.00">created </text>
<text text-anchor="start" x="103.79" y="-89.2" font-family="Arial" font-size="14.00" fill="#666666">[timestamp without time zone]</text>
<polygon fill="none" stroke="black" points="46.2,-46.2 46.2,-77 438.14,-77 438.14,-46.2 46.2,-46.2"/>
<text text-anchor="start" x="53.2" y="-58.4" font-family="Arial" font-size="14.00">updated </text>
<text text-anchor="start" x="107.7" y="-58.4" font-family="Arial" font-size="14.00" fill="#666666">[timestamp without time zone]</text>
<polygon fill="none" stroke="black" stroke-width="3" points="44.7,-44.7 44.7,-237.3 439.64,-237.3 439.64,-44.7 44.7,-44.7"/>
</g>
</g>
</svg>
