<?xml version="1.0" encoding="UTF-8" standalone="no"?>
<!DOCTYPE svg PUBLIC "-//W3C//DTD SVG 1.1//EN"
 "http://www.w3.org/Graphics/SVG/1.1/DTD/svg11.dtd">
<!-- Generated by graphviz version 12.1.2 (20240928.0832)
 -->
<!-- Title: public.users Pages: 1 -->
<svg width="2335pt" height="725pt"
 viewBox="0.00 0.00 2335.20 725.20" xmlns="http://www.w3.org/2000/svg" xmlns:xlink="http://www.w3.org/1999/xlink">
<g id="graph0" class="graph" transform="scale(1 1) rotate(0) translate(4 721.2)">
<title>public.users</title>
<polygon fill="white" stroke="none" points="-4,4 -4,-721.2 2331.2,-721.2 2331.2,4 -4,4"/>
<!-- public.users -->
<g id="node1" class="node">
<title>public.users</title>
<polygon fill="#efefef" stroke="none" points="1045.66,-231 1045.66,-266.6 1299.35,-266.6 1299.35,-231 1045.66,-231"/>
<polygon fill="none" stroke="black" points="1045.66,-231 1045.66,-266.6 1299.35,-266.6 1299.35,-231 1045.66,-231"/>
<text text-anchor="start" x="1067.02" y="-244.4" font-family="Arial Bold" font-size="18.00">public.users</text>
<text text-anchor="start" x="1153.5" y="-244.4" font-family="Arial" font-size="14.00">    </text>
<text text-anchor="start" x="1184.62" y="-244.4" font-family="Arial" font-size="14.00" fill="#666666">[BASE TABLE]</text>
<polygon fill="none" stroke="black" points="1045.66,-200.2 1045.66,-231 1299.35,-231 1299.35,-200.2 1045.66,-200.2"/>
<text text-anchor="start" x="1052.66" y="-212.4" font-family="Arial" font-size="14.00">id </text>
<text text-anchor="start" x="1067.45" y="-212.4" font-family="Arial" font-size="14.00" fill="#666666">[integer]</text>
<polygon fill="none" stroke="black" points="1045.66,-169.4 1045.66,-200.2 1299.35,-200.2 1299.35,-169.4 1045.66,-169.4"/>
<text text-anchor="start" x="1052.66" y="-181.6" font-family="Arial" font-size="14.00">username </text>
<text text-anchor="start" x="1118.81" y="-181.6" font-family="Arial" font-size="14.00" fill="#666666">[varchar(50)]</text>
<polygon fill="none" stroke="black" points="1045.66,-138.6 1045.66,-169.4 1299.35,-169.4 1299.35,-138.6 1045.66,-138.6"/>
<text text-anchor="start" x="1052.66" y="-150.8" font-family="Arial" font-size="14.00">password </text>
<text text-anchor="start" x="1116.47" y="-150.8" font-family="Arial" font-size="14.00" fill="#666666">[varchar(50)]</text>
<polygon fill="none" stroke="black" points="1045.66,-107.8 1045.66,-138.6 1299.35,-138.6 1299.35,-107.8 1045.66,-107.8"/>
<text text-anchor="start" x="1052.66" y="-120" font-family="Arial" font-size="14.00">email </text>
<text text-anchor="start" x="1090.01" y="-120" font-family="Arial" font-size="14.00" fill="#666666">[varchar(355)]</text>
<polygon fill="none" stroke="black" points="1045.66,-77 1045.66,-107.8 1299.35,-107.8 1299.35,-77 1045.66,-77"/>
<text text-anchor="start" x="1052.66" y="-89.2" font-family="Arial" font-size="14.00">created </text>
<text text-anchor="start" x="1103.25" y="-89.2" font-family="Arial" font-size="14.00" fill="#666666">[timestamp without time zone]</text>
<polygon fill="none" stroke="black" points="1045.66,-46.2 1045.66,-77 1299.35,-77 1299.35,-46.2 1045.66,-46.2"/>
<text text-anchor="start" x="1052.66" y="-58.4" font-family="Arial" font-size="14.00">updated </text>
<text text-anchor="start" x="1107.16" y="-58.4" font-family="Arial" font-size="14.00" fill="#666666">[timestamp without time zone]</text>
<polygon fill="none" stroke="black" stroke-width="3" points="1044.16,-44.7 1044.16,-268.1 1300.85,-268.1 1300.85,-44.7 1044.16,-44.7"/>
</g>
<!-- public.user_options -->
<g id="node2" class="node">
<title>public.user_options</title>
<polygon fill="#efefef" stroke="none" points="66.05,-576.8 66.05,-612.4 346.96,-612.4 346.96,-576.8 66.05,-576.8"/>
<polygon fill="none" stroke="black" points="66.05,-576.8 66.05,-612.4 346.96,-612.4 346.96,-576.8 66.05,-576.8"/>
<text text-anchor="start" x="73.52" y="-590.2" font-family="Arial Bold" font-size="18.00">public.user_options</text>
<text text-anchor="start" x="215" y="-590.2" font-family="Arial" font-size="14.00">    </text>
<text text-anchor="start" x="246.12" y="-590.2" font-family="Arial" font-size="14.00" fill="#666666">[BASE TABLE]</text>
<polygon fill="none" stroke="black" points="66.05,-546 66.05,-576.8 346.96,-576.8 346.96,-546 66.05,-546"/>
<text text-anchor="start" x="73.05" y="-558.2" font-family="Arial" font-size="14.00">user_id    </text>
<text text-anchor="start" x="150.08" y="-558.2" font-family="Arial" font-size="14.00" fill="#666666">[integer]</text>
<polygon fill="none" stroke="black" points="66.05,-515.2 66.05,-546 346.96,-546 346.96,-515.2 66.05,-515.2"/>
<text text-anchor="start" x="73.05" y="-527.4" font-family="Arial" font-size="14.00">show_email    </text>
<text text-anchor="start" x="178.09" y="-527.4" font-family="Arial" font-size="14.00" fill="#666666">[boolean]</text>
<polygon fill="none" stroke="black" points="66.05,-484.4 66.05,-515.2 346.96,-515.2 346.96,-484.4 66.05,-484.4"/>
<text text-anchor="start" x="73.05" y="-496.6" font-family="Arial" font-size="14.00">created    </text>
<text text-anchor="start" x="150.86" y="-496.6" font-family="Arial" font-size="14.00" fill="#666666">[timestamp without time zone]</text>
<polygon fill="none" stroke="black" points="66.05,-453.6 66.05,-484.4 346.96,-484.4 346.96,-453.6 66.05,-453.6"/>
<text text-anchor="start" x="73.05" y="-465.8" font-family="Arial" font-size="14.00">updated    </text>
<text text-anchor="start" x="154.77" y="-465.8" font-family="Arial" font-size="14.00" fill="#666666">[timestamp without time zone]</text>
</g>
<!-- public.user_options&#45;&gt;public.users -->
<g id="edge1" class="edge">
<title>public.user_options:user_id&#45;&gt;public.users:id</title>
<path fill="none" stroke="black" d="M357.91,-560.81C436.71,-550.75 331.39,-413.92 398.51,-348.8 503.72,-246.7 898.05,-215.6 1044.66,-215.6"/>
<polygon fill="black" stroke="black" points="358.28,-560.79 348.03,-556.89 352.95,-561.11 348.63,-561.36 348.63,-561.36 348.63,-561.36 352.95,-561.11 348.56,-565.87 358.28,-560.79"/>
<text text-anchor="start" x="7" y="-571.4" font-family="Arial" font-size="10.00">FOREIGN KEY (user_id) REFERENCES users(id) ON DELETE CASCADE</text>
</g>
<!-- public.posts -->
<g id="node3" class="node">
<title>public.posts</title>
<polygon fill="#efefef" stroke="none" points="451.05,-638.4 451.05,-674 731.96,-674 731.96,-638.4 451.05,-638.4"/>
<polygon fill="none" stroke="black" points="451.05,-638.4 451.05,-674 731.96,-674 731.96,-638.4 451.05,-638.4"/>
<text text-anchor="start" x="486.01" y="-651.8" font-family="Arial Bold" font-size="18.00">public.posts</text>
<text text-anchor="start" x="572.51" y="-651.8" font-family="Arial" font-size="14.00">    </text>
<text text-anchor="start" x="603.63" y="-651.8" font-family="Arial" font-size="14.00" fill="#666666">[BASE TABLE]</text>
<polygon fill="none" stroke="black" points="451.05,-607.6 451.05,-638.4 731.96,-638.4 731.96,-607.6 451.05,-607.6"/>
<text text-anchor="start" x="458.05" y="-619.8" font-family="Arial" font-size="14.00">id    </text>
<text text-anchor="start" x="500.06" y="-619.8" font-family="Arial" font-size="14.00" fill="#666666">[bigint]</text>
<polygon fill="none" stroke="black" points="451.05,-576.8 451.05,-607.6 731.96,-607.6 731.96,-576.8 451.05,-576.8"/>
<text text-anchor="start" x="458.05" y="-589" font-family="Arial" font-size="14.00">user_id    </text>
<text text-anchor="start" x="535.08" y="-589" font-family="Arial" font-size="14.00" fill="#666666">[integer]</text>
<polygon fill="none" stroke="black" points="451.05,-546 451.05,-576.8 731.96,-576.8 731.96,-546 451.05,-546"/>
<text text-anchor="start" x="458.05" y="-558.2" font-family="Arial" font-size="14.00">title    </text>
<text text-anchor="start" x="510.95" y="-558.2" font-family="Arial" font-size="14.00" fill="#666666">[varchar(255)]</text>
<polygon fill="none" stroke="black" points="451.05,-515.2 451.05,-546 731.96,-546 731.96,-515.2 451.05,-515.2"/>
<text text-anchor="start" x="458.05" y="-527.4" font-family="Arial" font-size="14.00">body    </text>
<text text-anchor="start" x="519.53" y="-527.4" font-family="Arial" font-size="14.00" fill="#666666">[text]</text>
<polygon fill="none" stroke="black" points="451.05,-484.4 451.05,-515.2 731.96,-515.2 731.96,-484.4 451.05,-484.4"/>
<text text-anchor="start" x="458.05" y="-496.6" font-family="Arial" font-size="14.00">post_type    </text>
<text text-anchor="start" x="549.88" y="-496.6" font-family="Arial" font-size="14.00" fill="#666666">[post_types]</text>
<polygon fill="none" stroke="black" points="451.05,-453.6 451.05,-484.4 731.96,-484.4 731.96,-453.6 451.05,-453.6"/>
<text text-anchor="start" x="458.05" y="-465.8" font-family="Arial" font-size="14.00">labels    </text>
<text text-anchor="start" x="525.75" y="-465.8" font-family="Arial" font-size="14.00" fill="#666666">[varchar(50)[]]</text>
<polygon fill="none" stroke="black" points="451.05,-422.8 451.05,-453.6 731.96,-453.6 731.96,-422.8 451.05,-422.8"/>
<text text-anchor="start" x="458.05" y="-435" font-family="Arial" font-size="14.00">created    </text>
<text text-anchor="start" x="535.86" y="-435" font-family="Arial" font-size="14.00" fill="#666666">[timestamp without time zone]</text>
<polygon fill="none" stroke="black" points="451.05,-392 451.05,-422.8 731.96,-422.8 731.96,-392 451.05,-392"/>
<text text-anchor="start" x="458.05" y="-404.2" font-family="Arial" font-size="14.00">updated    </text>
<text text-anchor="start" x="539.77" y="-404.2" font-family="Arial" font-size="14.00" fill="#666666">[timestamp without time zone]</text>
</g>
<!-- public.posts&#45;&gt;public.users -->
<g id="edge2" class="edge">
<title>public.posts:user_id&#45;&gt;public.users:id</title>
<path fill="none" stroke="black" d="M743.2,-591.69C835.23,-581.94 718.7,-433.71 783.51,-348.8 862.56,-245.23 914.37,-215.6 1044.66,-215.6"/>
<polygon fill="black" stroke="black" points="743.28,-591.69 733.07,-587.69 737.95,-591.95 733.63,-592.17 733.63,-592.17 733.63,-592.17 737.95,-591.95 733.52,-596.68 743.28,-591.69"/>
<text text-anchor="start" x="739.96" y="-602.2" font-family="Arial" font-size="10.00">FOREIGN KEY (user_id) REFERENCES users(id) ON DELETE SET NULL (user_id)</text>
</g>
<!-- public.comments -->
<g id="node4" class="node">
<title>public.comments</title>
<polygon fill="#efefef" stroke="none" points="836.05,-623 836.05,-658.6 1116.96,-658.6 1116.96,-623 836.05,-623"/>
<polygon fill="none" stroke="black" points="836.05,-623 836.05,-658.6 1116.96,-658.6 1116.96,-623 836.05,-623"/>
<text text-anchor="start" x="852.52" y="-636.4" font-family="Arial Bold" font-size="18.00">public.comments</text>
<text text-anchor="start" x="976" y="-636.4" font-family="Arial" font-size="14.00">    </text>
<text text-anchor="start" x="1007.12" y="-636.4" font-family="Arial" font-size="14.00" fill="#666666">[BASE TABLE]</text>
<polygon fill="none" stroke="black" points="836.05,-592.2 836.05,-623 1116.96,-623 1116.96,-592.2 836.05,-592.2"/>
<text text-anchor="start" x="843.05" y="-604.4" font-family="Arial" font-size="14.00">id    </text>
<text text-anchor="start" x="885.06" y="-604.4" font-family="Arial" font-size="14.00" fill="#666666">[bigint]</text>
<polygon fill="none" stroke="black" points="836.05,-561.4 836.05,-592.2 1116.96,-592.2 1116.96,-561.4 836.05,-561.4"/>
<text text-anchor="start" x="843.05" y="-573.6" font-family="Arial" font-size="14.00">post_id    </text>
<text text-anchor="start" x="919.31" y="-573.6" font-family="Arial" font-size="14.00" fill="#666666">[bigint]</text>
<polygon fill="none" stroke="black" points="836.05,-530.6 836.05,-561.4 1116.96,-561.4 1116.96,-530.6 836.05,-530.6"/>
<text text-anchor="start" x="843.05" y="-542.8" font-family="Arial" font-size="14.00">user_id    </text>
<text text-anchor="start" x="920.08" y="-542.8" font-family="Arial" font-size="14.00" fill="#666666">[integer]</text>
<polygon fill="none" stroke="black" points="836.05,-499.8 836.05,-530.6 1116.96,-530.6 1116.96,-499.8 836.05,-499.8"/>
<text text-anchor="start" x="843.05" y="-512" font-family="Arial" font-size="14.00">comment    </text>
<text text-anchor="start" x="931.74" y="-512" font-family="Arial" font-size="14.00" fill="#666666">[text]</text>
<polygon fill="none" stroke="black" points="836.05,-469 836.05,-499.8 1116.96,-499.8 1116.96,-469 836.05,-469"/>
<text text-anchor="start" x="843.05" y="-481.2" font-family="Arial" font-size="14.00">post_id_desc    </text>
<text text-anchor="start" x="956.67" y="-481.2" font-family="Arial" font-size="14.00" fill="#666666">[bigint]</text>
<polygon fill="none" stroke="black" points="836.05,-438.2 836.05,-469 1116.96,-469 1116.96,-438.2 836.05,-438.2"/>
<text text-anchor="start" x="843.05" y="-450.4" font-family="Arial" font-size="14.00">created    </text>
<text text-anchor="start" x="920.86" y="-450.4" font-family="Arial" font-size="14.00" fill="#666666">[timestamp without time zone]</text>
<polygon fill="none" stroke="black" points="836.05,-407.4 836.05,-438.2 1116.96,-438.2 1116.96,-407.4 836.05,-407.4"/>
<text text-anchor="start" x="843.05" y="-419.6" font-family="Arial" font-size="14.00">updated    </text>
<text text-anchor="start" x="924.77" y="-419.6" font-family="Arial" font-size="14.00" fill="#666666">[timestamp without time zone]</text>
</g>
<!-- public.comments&#45;&gt;public.users -->
<g id="edge3" class="edge">
<title>public.comments:user_id&#45;&gt;public.users:id</title>
<path fill="none" stroke="black" d="M1128.1,-545.35C1194.75,-536.2 1152.31,-432.8 1116.96,-364.2 1099.07,-329.48 1063.64,-347.48 1045.66,-312.8 1025.78,-274.44 1001.46,-215.6 1044.66,-215.6"/>
<polygon fill="black" stroke="black" points="1128.27,-545.34 1118,-541.49 1122.95,-545.68 1118.63,-545.96 1118.63,-545.96 1118.63,-545.96 1122.95,-545.68 1118.58,-550.47 1128.27,-545.34"/>
<text text-anchor="start" x="1124.96" y="-556" font-family="Arial" font-size="10.00">FOREIGN KEY (user_id) REFERENCES users(id)</text>
</g>
<!-- public.comment_stars -->
<g id="node5" class="node">
<title>public.comment_stars</title>
<polygon fill="#efefef" stroke="none" points="1221.03,-607.6 1221.03,-643.2 1517.98,-643.2 1517.98,-607.6 1221.03,-607.6"/>
<polygon fill="none" stroke="black" points="1221.03,-607.6 1221.03,-643.2 1517.98,-643.2 1517.98,-607.6 1221.03,-607.6"/>
<text text-anchor="start" x="1228.03" y="-621" font-family="Arial Bold" font-size="18.00">public.comment_stars</text>
<text text-anchor="start" x="1386.49" y="-621" font-family="Arial" font-size="14.00">    </text>
<text text-anchor="start" x="1417.61" y="-621" font-family="Arial" font-size="14.00" fill="#666666">[BASE TABLE]</text>
<polygon fill="none" stroke="black" points="1221.03,-576.8 1221.03,-607.6 1517.98,-607.6 1517.98,-576.8 1221.03,-576.8"/>
<text text-anchor="start" x="1228.03" y="-589" font-family="Arial" font-size="14.00">id    </text>
<text text-anchor="start" x="1270.04" y="-589" font-family="Arial" font-size="14.00" fill="#666666">[uuid]</text>
<polygon fill="none" stroke="black" points="1221.03,-546 1221.03,-576.8 1517.98,-576.8 1517.98,-546 1221.03,-546"/>
<text text-anchor="start" x="1228.03" y="-558.2" font-family="Arial" font-size="14.00">user_id    </text>
<text text-anchor="start" x="1305.06" y="-558.2" font-family="Arial" font-size="14.00" fill="#666666">[integer]</text>
<polygon fill="none" stroke="black" points="1221.03,-515.2 1221.03,-546 1517.98,-546 1517.98,-515.2 1221.03,-515.2"/>
<text text-anchor="start" x="1228.03" y="-527.4" font-family="Arial" font-size="14.00">comment_post_id    </text>
<text text-anchor="start" x="1369.65" y="-527.4" font-family="Arial" font-size="14.00" fill="#666666">[bigint]</text>
<polygon fill="none" stroke="black" points="1221.03,-484.4 1221.03,-515.2 1517.98,-515.2 1517.98,-484.4 1221.03,-484.4"/>
<text text-anchor="start" x="1228.03" y="-496.6" font-family="Arial" font-size="14.00">comment_user_id    </text>
<text text-anchor="start" x="1370.42" y="-496.6" font-family="Arial" font-size="14.00" fill="#666666">[integer]</text>
<polygon fill="none" stroke="black" points="1221.03,-453.6 1221.03,-484.4 1517.98,-484.4 1517.98,-453.6 1221.03,-453.6"/>
<text text-anchor="start" x="1228.03" y="-465.8" font-family="Arial" font-size="14.00">created    </text>
<text text-anchor="start" x="1305.84" y="-465.8" font-family="Arial" font-size="14.00" fill="#666666">[timestamp without time zone]</text>
<polygon fill="none" stroke="black" points="1221.03,-422.8 1221.03,-453.6 1517.98,-453.6 1517.98,-422.8 1221.03,-422.8"/>
<text text-anchor="start" x="1228.03" y="-435" font-family="Arial" font-size="14.00">updated    </text>
<text text-anchor="start" x="1309.75" y="-435" font-family="Arial" font-size="14.00" fill="#666666">[timestamp without time zone]</text>
</g>
<!-- public.comment_stars&#45;&gt;public.users -->
<g id="edge4" class="edge">
<title>public.comment_stars:comment_user_id&#45;&gt;public.users:id</title>
<path fill="none" stroke="black" d="M1209.99,-498.77C1171.03,-489.82 1200.03,-424.61 1221.03,-379.6 1240.37,-338.14 1279.97,-354.24 1299.35,-312.8 1317.65,-273.67 1343.55,-215.6 1300.35,-215.6"/>
<polygon fill="black" stroke="black" points="1209.75,-498.74 1219.23,-504.24 1215.05,-499.29 1219.36,-499.73 1219.36,-499.73 1219.36,-499.73 1215.05,-499.29 1220.15,-495.29 1209.75,-498.74"/>
<text text-anchor="start" x="1227.03" y="-509.8" font-family="Arial" font-size="10.00">FOREIGN KEY (comment_user_id) REFERENCES users(id)</text>
</g>
<!-- administrator.blogs -->
<g id="node6" class="node">
<title>administrator.blogs</title>
<polygon fill="#efefef" stroke="none" points="1622.05,-607.6 1622.05,-643.2 1902.96,-643.2 1902.96,-607.6 1622.05,-607.6"/>
<polygon fill="none" stroke="black" points="1622.05,-607.6 1622.05,-643.2 1902.96,-643.2 1902.96,-607.6 1622.05,-607.6"/>
<text text-anchor="start" x="1630.52" y="-621" font-family="Arial Bold" font-size="18.00">administrator.blogs</text>
<text text-anchor="start" x="1770" y="-621" font-family="Arial" font-size="14.00">    </text>
<text text-anchor="start" x="1801.12" y="-621" font-family="Arial" font-size="14.00" fill="#666666">[BASE TABLE]</text>
<polygon fill="none" stroke="black" points="1622.05,-576.8 1622.05,-607.6 1902.96,-607.6 1902.96,-576.8 1622.05,-576.8"/>
<text text-anchor="start" x="1629.05" y="-589" font-family="Arial" font-size="14.00">id    </text>
<text text-anchor="start" x="1671.06" y="-589" font-family="Arial" font-size="14.00" fill="#666666">[integer]</text>
<polygon fill="none" stroke="black" points="1622.05,-546 1622.05,-576.8 1902.96,-576.8 1902.96,-546 1622.05,-546"/>
<text text-anchor="start" x="1629.05" y="-558.2" font-family="Arial" font-size="14.00">user_id    </text>
<text text-anchor="start" x="1706.08" y="-558.2" font-family="Arial" font-size="14.00" fill="#666666">[integer]</text>
<polygon fill="none" stroke="black" points="1622.05,-515.2 1622.05,-546 1902.96,-546 1902.96,-515.2 1622.05,-515.2"/>
<text text-anchor="start" x="1629.05" y="-527.4" font-family="Arial" font-size="14.00">name    </text>
<text text-anchor="start" x="1695.19" y="-527.4" font-family="Arial" font-size="14.00" fill="#666666">[text]</text>
<polygon fill="none" stroke="black" points="1622.05,-484.4 1622.05,-515.2 1902.96,-515.2 1902.96,-484.4 1622.05,-484.4"/>
<text text-anchor="start" x="1629.05" y="-496.6" font-family="Arial" font-size="14.00">description    </text>
<text text-anchor="start" x="1727.87" y="-496.6" font-family="Arial" font-size="14.00" fill="#666666">[text]</text>
<polygon fill="none" stroke="black" points="1622.05,-453.6 1622.05,-484.4 1902.96,-484.4 1902.96,-453.6 1622.05,-453.6"/>
<text text-anchor="start" x="1629.05" y="-465.8" font-family="Arial" font-size="14.00">created    </text>
<text text-anchor="start" x="1706.86" y="-465.8" font-family="Arial" font-size="14.00" fill="#666666">[timestamp without time zone]</text>
<polygon fill="none" stroke="black" points="1622.05,-422.8 1622.05,-453.6 1902.96,-453.6 1902.96,-422.8 1622.05,-422.8"/>
<text text-anchor="start" x="1629.05" y="-435" font-family="Arial" font-size="14.00">updated    </text>
<text text-anchor="start" x="1710.77" y="-435" font-family="Arial" font-size="14.00" fill="#666666">[timestamp without time zone]</text>
</g>
<!-- administrator.blogs&#45;&gt;public.users -->
<g id="edge5" class="edge">
<title>administrator.blogs:user_id&#45;&gt;public.users:id</title>
<path fill="none" stroke="black" d="M1611.06,-560.85C1531.65,-551.34 1628.8,-421.92 1570.51,-348.8 1487.05,-244.12 1434.22,-215.6 1300.35,-215.6"/>
<polygon fill="black" stroke="black" points="1610.73,-560.83 1620.47,-565.87 1616.06,-561.12 1620.38,-561.36 1620.38,-561.36 1620.38,-561.36 1616.06,-561.12 1620.97,-556.89 1610.73,-560.83"/>
<text text-anchor="start" x="1628.05" y="-571.4" font-family="Arial" font-size="10.00">FOREIGN KEY (user_id) REFERENCES users(id) ON DELETE CASCADE</text>
</g>
<!-- public.logs -->
<g id="node7" class="node">
<title>public.logs</title>
<polygon fill="#efefef" stroke="none" points="2007.01,-623 2007.01,-658.6 2284,-658.6 2284,-623 2007.01,-623"/>
<polygon fill="none" stroke="black" points="2007.01,-623 2007.01,-658.6 2284,-658.6 2284,-623 2007.01,-623"/>
<text text-anchor="start" x="2043.51" y="-636.4" font-family="Arial Bold" font-size="18.00">public.logs</text>
<text text-anchor="start" x="2123.01" y="-636.4" font-family="Arial" font-size="14.00">    </text>
<text text-anchor="start" x="2154.13" y="-636.4" font-family="Arial" font-size="14.00" fill="#666666">[BASE TABLE]</text>
<polygon fill="none" stroke="black" points="2007.01,-592.2 2007.01,-623 2284,-623 2284,-592.2 2007.01,-592.2"/>
<text text-anchor="start" x="2014.01" y="-604.4" font-family="Arial" font-size="14.00">id    </text>
<text text-anchor="start" x="2056.02" y="-604.4" font-family="Arial" font-size="14.00" fill="#666666">[uuid]</text>
<polygon fill="none" stroke="black" points="2007.01,-561.4 2007.01,-592.2 2284,-592.2 2284,-561.4 2007.01,-561.4"/>
<text text-anchor="start" x="2014.01" y="-573.6" font-family="Arial" font-size="14.00">user_id    </text>
<text text-anchor="start" x="2091.04" y="-573.6" font-family="Arial" font-size="14.00" fill="#666666">[integer]</text>
<polygon fill="none" stroke="black" points="2007.01,-530.6 2007.01,-561.4 2284,-561.4 2284,-530.6 2007.01,-530.6"/>
<text text-anchor="start" x="2014.01" y="-542.8" font-family="Arial" font-size="14.00">post_id    </text>
<text text-anchor="start" x="2090.27" y="-542.8" font-family="Arial" font-size="14.00" fill="#666666">[bigint]</text>
<polygon fill="none" stroke="black" points="2007.01,-499.8 2007.01,-530.6 2284,-530.6 2284,-499.8 2007.01,-499.8"/>
<text text-anchor="start" x="2014.01" y="-512" font-family="Arial" font-size="14.00">comment_id    </text>
<text text-anchor="start" x="2121.38" y="-512" font-family="Arial" font-size="14.00" fill="#666666">[bigint]</text>
<polygon fill="none" stroke="black" points="2007.01,-469 2007.01,-499.8 2284,-499.8 2284,-469 2007.01,-469"/>
<text text-anchor="start" x="2014.01" y="-481.2" font-family="Arial" font-size="14.00">comment_star_id    </text>
<text text-anchor="start" x="2152.5" y="-481.2" font-family="Arial" font-size="14.00" fill="#666666">[uuid]</text>
<polygon fill="none" stroke="black" points="2007.01,-438.2 2007.01,-469 2284,-469 2284,-438.2 2007.01,-438.2"/>
<text text-anchor="start" x="2014.01" y="-450.4" font-family="Arial" font-size="14.00">payload    </text>
<text text-anchor="start" x="2094.16" y="-450.4" font-family="Arial" font-size="14.00" fill="#666666">[text]</text>
<polygon fill="none" stroke="black" points="2007.01,-407.4 2007.01,-438.2 2284,-438.2 2284,-407.4 2007.01,-407.4"/>
<text text-anchor="start" x="2014.01" y="-419.6" font-family="Arial" font-size="14.00">created    </text>
<text text-anchor="start" x="2091.82" y="-419.6" font-family="Arial" font-size="14.00" fill="#666666">[timestamp without time zone]</text>
</g>
<!-- public.logs&#45;&gt;public.users -->
<g id="edge6" class="edge">
<title>public.logs:user_id&#45;&gt;public.users:id</title>
<path fill="none" stroke="black" stroke-dasharray="5,2" d="M1995.64,-576.2C1911.15,-565.69 2026.86,-418.92 1955.51,-348.8 1849.54,-244.66 1448.92,-215.6 1300.35,-215.6"/>
<polygon fill="black" stroke="black" points="1995.69,-576.21 2005.41,-581.27 2001.01,-576.51 2005.34,-576.76 2005.34,-576.76 2005.34,-576.76 2001.01,-576.51 2005.93,-572.29 1995.69,-576.21"/>
<text text-anchor="start" x="1996.51" y="-560.8" font-family="Arial" font-size="10.00">logs&#45;&gt;users</text>
</g>
</g>
</svg>
