<?xml version="1.0" encoding="UTF-8" standalone="no"?>
<!DOCTYPE svg PUBLIC "-//W3C//DTD SVG 1.1//EN"
 "http://www.w3.org/Graphics/SVG/1.1/DTD/svg11.dtd">
<!-- Generated by graphviz version 2.40.1 (20161225.0304)
 -->
<!-- Title: public.comment_stars Pages: 1 -->
<svg width="1060pt" height="1049pt"
 viewBox="0.00 0.00 1060.00 1049.00" xmlns="http://www.w3.org/2000/svg" xmlns:xlink="http://www.w3.org/1999/xlink">
<g id="graph0" class="graph" transform="scale(1 1) rotate(0) translate(4 1045)">
<title>public.comment_stars</title>
<polygon fill="#ffffff" stroke="transparent" points="-4,4 -4,-1045 1056,-1045 1056,4 -4,4"/>
<!-- public.comment_stars -->
<g id="node1" class="node">
<title>public.comment_stars</title>
<polygon fill="#efefef" stroke="transparent" points="452,-592.5 452,-627.5 768,-627.5 768,-592.5 452,-592.5"/>
<polygon fill="none" stroke="#000000" points="452,-592.5 452,-627.5 768,-627.5 768,-592.5 452,-592.5"/>
<text text-anchor="start" x="458.7054" y="-605.3" font-family="Arial Bold" font-size="18.00" fill="#000000">public.comment_stars</text>
<text text-anchor="start" x="633.7266" y="-605.3" font-family="Arial" font-size="14.00" fill="#000000">    </text>
<text text-anchor="start" x="667.9314" y="-605.3" font-family="Arial" font-size="14.00" fill="#666666">[BASE TABLE]</text>
<polygon fill="none" stroke="#000000" points="452,-562.5 452,-592.5 768,-592.5 768,-562.5 452,-562.5"/>
<text text-anchor="start" x="459" y="-573.9" font-family="Arial" font-size="14.00" fill="#000000">id </text>
<text text-anchor="start" x="473.7798" y="-573.9" font-family="Arial" font-size="14.00" fill="#666666">[uuid]</text>
<polygon fill="none" stroke="#000000" points="452,-532.5 452,-562.5 768,-562.5 768,-532.5 452,-532.5"/>
<text text-anchor="start" x="459" y="-543.9" font-family="Arial" font-size="14.00" fill="#000000">user_id </text>
<text text-anchor="start" x="508.7882" y="-543.9" font-family="Arial" font-size="14.00" fill="#666666">[integer]</text>
<polygon fill="none" stroke="#000000" points="452,-502.5 452,-532.5 768,-532.5 768,-502.5 452,-502.5"/>
<text text-anchor="start" x="459" y="-513.9" font-family="Arial" font-size="14.00" fill="#000000">comment_post_id </text>
<text text-anchor="start" x="573.3604" y="-513.9" font-family="Arial" font-size="14.00" fill="#666666">[bigint]</text>
<polygon fill="none" stroke="#000000" points="452,-472.5 452,-502.5 768,-502.5 768,-472.5 452,-472.5"/>
<text text-anchor="start" x="459" y="-483.9" font-family="Arial" font-size="14.00" fill="#000000">comment_user_id </text>
<text text-anchor="start" x="574.1304" y="-483.9" font-family="Arial" font-size="14.00" fill="#666666">[integer]</text>
<polygon fill="none" stroke="#000000" points="452,-442.5 452,-472.5 768,-472.5 768,-442.5 452,-442.5"/>
<text text-anchor="start" x="459" y="-453.9" font-family="Arial" font-size="14.00" fill="#000000">created </text>
<text text-anchor="start" x="509.5722" y="-453.9" font-family="Arial" font-size="14.00" fill="#666666">[timestamp without time zone]</text>
<polygon fill="none" stroke="#000000" points="452,-412.5 452,-442.5 768,-442.5 768,-412.5 452,-412.5"/>
<text text-anchor="start" x="459" y="-423.9" font-family="Arial" font-size="14.00" fill="#000000">updated </text>
<text text-anchor="start" x="513.4768" y="-423.9" font-family="Arial" font-size="14.00" fill="#666666">[timestamp without time zone]</text>
<polygon fill="none" stroke="#000000" stroke-width="3" points="450.5,-411.5 450.5,-629.5 769.5,-629.5 769.5,-411.5 450.5,-411.5"/>
</g>
<!-- public.comments -->
<g id="node3" class="node">
<title>public.comments</title>
<polygon fill="#efefef" stroke="transparent" points="275,-252.5 275,-287.5 558,-287.5 558,-252.5 275,-252.5"/>
<polygon fill="none" stroke="#000000" points="275,-252.5 275,-287.5 558,-287.5 558,-252.5 275,-252.5"/>
<text text-anchor="start" x="285.2088" y="-265.3" font-family="Arial Bold" font-size="18.00" fill="#000000">public.comments</text>
<text text-anchor="start" x="420.2232" y="-265.3" font-family="Arial" font-size="14.00" fill="#000000">    </text>
<text text-anchor="start" x="454.428" y="-265.3" font-family="Arial" font-size="14.00" fill="#666666">[BASE TABLE]</text>
<polygon fill="none" stroke="#000000" points="275,-222.5 275,-252.5 558,-252.5 558,-222.5 275,-222.5"/>
<text text-anchor="start" x="282" y="-233.9" font-family="Arial" font-size="14.00" fill="#000000">id    </text>
<text text-anchor="start" x="327.094" y="-233.9" font-family="Arial" font-size="14.00" fill="#666666">[bigint]</text>
<polygon fill="none" stroke="#000000" points="275,-192.5 275,-222.5 558,-222.5 558,-192.5 275,-192.5"/>
<text text-anchor="start" x="282" y="-203.9" font-family="Arial" font-size="14.00" fill="#000000">post_id    </text>
<text text-anchor="start" x="361.3324" y="-203.9" font-family="Arial" font-size="14.00" fill="#666666">[bigint]</text>
<polygon fill="none" stroke="#000000" points="275,-162.5 275,-192.5 558,-192.5 558,-162.5 275,-162.5"/>
<text text-anchor="start" x="282" y="-173.9" font-family="Arial" font-size="14.00" fill="#000000">user_id    </text>
<text text-anchor="start" x="362.1024" y="-173.9" font-family="Arial" font-size="14.00" fill="#666666">[integer]</text>
<polygon fill="none" stroke="#000000" points="275,-132.5 275,-162.5 558,-162.5 558,-132.5 275,-132.5"/>
<text text-anchor="start" x="282" y="-143.9" font-family="Arial" font-size="14.00" fill="#000000">comment    </text>
<text text-anchor="start" x="373.7644" y="-143.9" font-family="Arial" font-size="14.00" fill="#666666">[text]</text>
<polygon fill="none" stroke="#000000" points="275,-102.5 275,-132.5 558,-132.5 558,-102.5 275,-102.5"/>
<text text-anchor="start" x="282" y="-113.9" font-family="Arial" font-size="14.00" fill="#000000">post_id_desc    </text>
<text text-anchor="start" x="398.6802" y="-113.9" font-family="Arial" font-size="14.00" fill="#666666">[bigint]</text>
<polygon fill="none" stroke="#000000" points="275,-72.5 275,-102.5 558,-102.5 558,-72.5 275,-72.5"/>
<text text-anchor="start" x="282" y="-83.9" font-family="Arial" font-size="14.00" fill="#000000">created    </text>
<text text-anchor="start" x="362.8864" y="-83.9" font-family="Arial" font-size="14.00" fill="#666666">[timestamp without time zone]</text>
<polygon fill="none" stroke="#000000" points="275,-42.5 275,-72.5 558,-72.5 558,-42.5 275,-42.5"/>
<text text-anchor="start" x="281.5344" y="-53.9" font-family="Arial" font-size="14.00" fill="#000000">updated    </text>
<text text-anchor="start" x="366.3254" y="-53.9" font-family="Arial" font-size="14.00" fill="#666666">[timestamp without time zone]</text>
</g>
<!-- public.comment_stars&#45;&gt;public.comments -->
<g id="edge2" class="edge">
<title>public.comment_stars:comment_post_id&#45;&gt;public.comments:post_id</title>
<path fill="none" stroke="#000000" d="M441.8631,-516.6601C388.1991,-507.111 415.1733,-418.3998 452,-367 480.9775,-326.5555 529.0225,-371.4445 558,-331 589.9682,-286.3813 612.8889,-207.5 558,-207.5"/>
<polygon fill="#000000" stroke="#000000" points="442.0342,-516.6742 451.6284,-521.9846 447.0171,-517.0871 452,-517.5 452,-517.5 452,-517.5 447.0171,-517.0871 452.3716,-513.0154 442.0342,-516.6742 442.0342,-516.6742"/>
<text text-anchor="start" x="6.533" y="-527.5" font-family="Arial" font-size="10.00" fill="#000000">FOREIGN KEY (comment_post_id, comment_user_id) REFERENCES comments(post_id, user_id)</text>
</g>
<!-- public.users -->
<g id="node4" class="node">
<title>public.users</title>
<polygon fill="#efefef" stroke="transparent" points="662,-237.5 662,-272.5 945,-272.5 945,-237.5 662,-237.5"/>
<polygon fill="none" stroke="#000000" points="662,-237.5 662,-272.5 945,-272.5 945,-237.5 662,-237.5"/>
<text text-anchor="start" x="691.7091" y="-250.3" font-family="Arial Bold" font-size="18.00" fill="#000000">public.users</text>
<text text-anchor="start" x="787.7229" y="-250.3" font-family="Arial" font-size="14.00" fill="#000000">    </text>
<text text-anchor="start" x="821.9277" y="-250.3" font-family="Arial" font-size="14.00" fill="#666666">[BASE TABLE]</text>
<polygon fill="none" stroke="#000000" points="662,-207.5 662,-237.5 945,-237.5 945,-207.5 662,-207.5"/>
<text text-anchor="start" x="669" y="-218.9" font-family="Arial" font-size="14.00" fill="#000000">id    </text>
<text text-anchor="start" x="714.094" y="-218.9" font-family="Arial" font-size="14.00" fill="#666666">[integer]</text>
<polygon fill="none" stroke="#000000" points="662,-177.5 662,-207.5 945,-207.5 945,-177.5 662,-177.5"/>
<text text-anchor="start" x="669" y="-188.9" font-family="Arial" font-size="14.00" fill="#000000">username    </text>
<text text-anchor="start" x="765.439" y="-188.9" font-family="Arial" font-size="14.00" fill="#666666">[varchar(50)]</text>
<polygon fill="none" stroke="#000000" points="662,-147.5 662,-177.5 945,-177.5 945,-147.5 662,-147.5"/>
<text text-anchor="start" x="669" y="-158.9" font-family="Arial" font-size="14.00" fill="#000000">password    </text>
<text text-anchor="start" x="763.1024" y="-158.9" font-family="Arial" font-size="14.00" fill="#666666">[varchar(50)]</text>
<polygon fill="none" stroke="#000000" points="662,-117.5 662,-147.5 945,-147.5 945,-117.5 662,-117.5"/>
<text text-anchor="start" x="669" y="-128.9" font-family="Arial" font-size="14.00" fill="#000000">email    </text>
<text text-anchor="start" x="736.6438" y="-128.9" font-family="Arial" font-size="14.00" fill="#666666">[varchar(355)]</text>
<polygon fill="none" stroke="#000000" points="662,-87.5 662,-117.5 945,-117.5 945,-87.5 662,-87.5"/>
<text text-anchor="start" x="669" y="-98.9" font-family="Arial" font-size="14.00" fill="#000000">created    </text>
<text text-anchor="start" x="749.8864" y="-98.9" font-family="Arial" font-size="14.00" fill="#666666">[timestamp without time zone]</text>
<polygon fill="none" stroke="#000000" points="662,-57.5 662,-87.5 945,-87.5 945,-57.5 662,-57.5"/>
<text text-anchor="start" x="668.5344" y="-68.9" font-family="Arial" font-size="14.00" fill="#000000">updated    </text>
<text text-anchor="start" x="753.3254" y="-68.9" font-family="Arial" font-size="14.00" fill="#666666">[timestamp without time zone]</text>
</g>
<!-- public.comment_stars&#45;&gt;public.users -->
<g id="edge3" class="edge">
<title>public.comment_stars:comment_user_id&#45;&gt;public.users:id</title>
<path fill="none" stroke="#000000" d="M778.1571,-486.4218C818.0153,-477.0783 794.4974,-409.1536 768,-367 740.1772,-322.738 689.8228,-360.262 662,-316 639.8848,-280.8179 620.4444,-222.5 662,-222.5"/>
<polygon fill="#000000" stroke="#000000" points="777.9441,-486.4443 767.5249,-483.0251 772.9721,-486.9721 768,-487.5 768,-487.5 768,-487.5 772.9721,-486.9721 768.4751,-491.9749 777.9441,-486.4443 777.9441,-486.4443"/>
<text text-anchor="start" x="774.998" y="-497.5" font-family="Arial" font-size="10.00" fill="#000000">FOREIGN KEY (comment_user_id) REFERENCES users(id)</text>
</g>
<!-- public.logs -->
<g id="node2" class="node">
<title>public.logs</title>
<polygon fill="#efefef" stroke="transparent" points="470,-962.5 470,-997.5 750,-997.5 750,-962.5 470,-962.5"/>
<polygon fill="none" stroke="#000000" points="470,-962.5 470,-997.5 750,-997.5 750,-962.5 470,-962.5"/>
<text text-anchor="start" x="503.7081" y="-975.3" font-family="Arial Bold" font-size="18.00" fill="#000000">public.logs</text>
<text text-anchor="start" x="588.7239" y="-975.3" font-family="Arial" font-size="14.00" fill="#000000">    </text>
<text text-anchor="start" x="622.9287" y="-975.3" font-family="Arial" font-size="14.00" fill="#666666">[BASE TABLE]</text>
<polygon fill="none" stroke="#000000" points="470,-932.5 470,-962.5 750,-962.5 750,-932.5 470,-932.5"/>
<text text-anchor="start" x="477" y="-943.9" font-family="Arial" font-size="14.00" fill="#000000">id    </text>
<text text-anchor="start" x="522.094" y="-943.9" font-family="Arial" font-size="14.00" fill="#666666">[uuid]</text>
<polygon fill="none" stroke="#000000" points="470,-902.5 470,-932.5 750,-932.5 750,-902.5 470,-902.5"/>
<text text-anchor="start" x="477" y="-913.9" font-family="Arial" font-size="14.00" fill="#000000">user_id    </text>
<text text-anchor="start" x="557.1024" y="-913.9" font-family="Arial" font-size="14.00" fill="#666666">[integer]</text>
<polygon fill="none" stroke="#000000" points="470,-872.5 470,-902.5 750,-902.5 750,-872.5 470,-872.5"/>
<text text-anchor="start" x="477" y="-883.9" font-family="Arial" font-size="14.00" fill="#000000">post_id    </text>
<text text-anchor="start" x="556.3324" y="-883.9" font-family="Arial" font-size="14.00" fill="#666666">[bigint]</text>
<polygon fill="none" stroke="#000000" points="470,-842.5 470,-872.5 750,-872.5 750,-842.5 470,-842.5"/>
<text text-anchor="start" x="477" y="-853.9" font-family="Arial" font-size="14.00" fill="#000000">comment_id    </text>
<text text-anchor="start" x="587.4362" y="-853.9" font-family="Arial" font-size="14.00" fill="#666666">[bigint]</text>
<polygon fill="none" stroke="#000000" points="470,-812.5 470,-842.5 750,-842.5 750,-812.5 470,-812.5"/>
<text text-anchor="start" x="477" y="-823.9" font-family="Arial" font-size="14.00" fill="#000000">comment_star_id    </text>
<text text-anchor="start" x="618.5526" y="-823.9" font-family="Arial" font-size="14.00" fill="#666666">[uuid]</text>
<polygon fill="none" stroke="#000000" points="470,-782.5 470,-812.5 750,-812.5 750,-782.5 470,-782.5"/>
<text text-anchor="start" x="477" y="-793.9" font-family="Arial" font-size="14.00" fill="#000000">payload    </text>
<text text-anchor="start" x="560.2244" y="-793.9" font-family="Arial" font-size="14.00" fill="#666666">[text]</text>
<polygon fill="none" stroke="#000000" points="470,-752.5 470,-782.5 750,-782.5 750,-752.5 470,-752.5"/>
<text text-anchor="start" x="476.9867" y="-763.9" font-family="Arial" font-size="14.00" fill="#000000">created    </text>
<text text-anchor="start" x="557.8731" y="-763.9" font-family="Arial" font-size="14.00" fill="#666666">[timestamp without time zone]</text>
</g>
<!-- public.logs&#45;&gt;public.comment_stars -->
<g id="edge1" class="edge">
<title>public.logs:comment_star_id&#45;&gt;public.comment_stars:id</title>
<path fill="none" stroke="#000000" stroke-dasharray="5,2" d="M760.1689,-826.7828C862.3974,-812.1191 875.9175,-577.5 768,-577.5"/>
<polygon fill="#000000" stroke="#000000" points="759.9752,-826.7964 749.6834,-823.0111 754.9876,-827.1482 750,-827.5 750,-827.5 750,-827.5 754.9876,-827.1482 750.3166,-831.9889 759.9752,-826.7964 759.9752,-826.7964"/>
<text text-anchor="start" x="757.3245" y="-837.5" font-family="Arial" font-size="10.00" fill="#000000">Additional Relation</text>
</g>
</g>
</svg>
