<?xml version="1.0" encoding="UTF-8" standalone="no"?>
<!DOCTYPE svg PUBLIC "-//W3C//DTD SVG 1.1//EN"
 "http://www.w3.org/Graphics/SVG/1.1/DTD/svg11.dtd">
<!-- Generated by graphviz version 2.40.1 (20161225.0304)
 -->
<!-- Title: public.comment_stars Pages: 1 -->
<svg width="1060pt" height="1049pt"
 viewBox="0.00 0.00 1060.00 1049.00" xmlns="http://www.w3.org/2000/svg" xmlns:xlink="http://www.w3.org/1999/xlink">
<g id="graph0" class="graph" transform="scale(1 1) rotate(0) translate(4 1045)">
<title>public.comment_stars</title>
<polygon fill="#ffffff" stroke="transparent" points="-4,4 -4,-1045 1056,-1045 1056,4 -4,4"/>
<!-- public.comment_stars -->
<g id="node1" class="node">
<title>public.comment_stars</title>
<polygon fill="#efefef" stroke="transparent" points="452,-592.5 452,-627.5 768,-627.5 768,-592.5 452,-592.5"/>
<polygon fill="none" stroke="#000000" points="452,-592.5 452,-627.5 768,-627.5 768,-592.5 452,-592.5"/>
<text text-anchor="start" x="458.7054" y="-605.3" font-family="Arial Bold" font-size="18.00" fill="#000000">public.comment_stars</text>
<text text-anchor="start" x="633.7266" y="-605.3" font-family="Arial" font-size="14.00" fill="#000000">    </text>
<text text-anchor="start" x="667.9314" y="-605.3" font-family="Arial" font-size="14.00" fill="#666666">[BASE TABLE]</text>
<polygon fill="none" stroke="#000000" points="452,-562.5 452,-592.5 768,-592.5 768,-562.5 452,-562.5"/>
<text text-anchor="start" x="459" y="-573.9" font-family="Arial" font-size="14.00" fill="#000000">id </text>
<text text-anchor="start" x="473.7798" y="-573.9" font-family="Arial" font-size="14.00" fill="#666666">[uuid]</text>
<polygon fill="none" stroke="#000000" points="452,-532.5 452,-562.5 768,-562.5 768,-532.5 452,-532.5"/>
<text text-anchor="start" x="459" y="-543.9" font-family="Arial" font-size="14.00" fill="#000000">user_id </text>
<text text-anchor="start" x="508.7882" y="-543.9" font-family="Arial" font-size="14.00" fill="#666666">[integer]</text>
<polygon fill="none" stroke="#000000" points="452,-502.5 452,-532.5 768,-532.5 768,-502.5 452,-502.5"/>
<text text-anchor="start" x="459" y="-513.9" font-family="Arial" font-size="14.00" fill="#000000">comment_post_id </text>
<text text-anchor="start" x="573.3604" y="-513.9" font-family="Arial" font-size="14.00" fill="#666666">[bigint]</text>
<polygon fill="none" stroke="#000000" points="452,-472.5 452,-502.5 768,-502.5 768,-472.5 452,-472.5"/>
<text text-anchor="start" x="459" y="-483.9" font-family="Arial" font-size="14.00" fill="#000000">comment_user_id </text>
<text text-anchor="start" x="574.1304" y="-483.9" font-family="Arial" font-size="14.00" fill="#666666">[integer]</text>
<polygon fill="none" stroke="#000000" points="452,-442.5 452,-472.5 768,-472.5 768,-442.5 452,-442.5"/>
<text text-anchor="start" x="459" y="-453.9" font-family="Arial" font-size="14.00" fill="#000000">created </text>
<text text-anchor="start" x="509.5722" y="-453.9" font-family="Arial" font-size="14.00" fill="#666666">[timestamp without time zone]</text>
<polygon fill="none" stroke="#000000" points="452,-412.5 452,-442.5 768,-442.5 768,-412.5 452,-412.5"/>
<text text-anchor="start" x="459" y="-423.9" font-family="Arial" font-size="14.00" fill="#000000">updated </text>
<text text-anchor="start" x="513.4768" y="-423.9" font-family="Arial" font-size="14.00" fill="#666666">[timestamp without time zone]</text>
<polygon fill="none" stroke="#000000" stroke-width="3" points="450.5,-411.5 450.5,-629.5 769.5,-629.5 769.5,-411.5 450.5,-411.5"/>
</g>
<!-- public.comments -->
<g id="node3" class="node">
<title>public.comments</title>
<polygon fill="#efefef" stroke="transparent" points="305,-252.5 305,-287.5 558,-287.5 558,-252.5 305,-252.5"/>
<polygon fill="none" stroke="#000000" points="305,-252.5 305,-287.5 558,-287.5 558,-252.5 305,-252.5"/>
<text text-anchor="start" x="315.3659" y="-265.3" font-family="Arial Bold" font-size="18.00" fill="#000000">public.comments</text>
<text text-anchor="start" x="450.3803" y="-265.3" font-family="Arial" font-size="14.00" fill="#000000"> </text>
<text text-anchor="start" x="454.2709" y="-265.3" font-family="Arial" font-size="14.00" fill="#666666">[BASE TABLE]</text>
<polygon fill="none" stroke="#000000" points="305,-222.5 305,-252.5 558,-252.5 558,-222.5 305,-222.5"/>
<text text-anchor="start" x="312" y="-233.9" font-family="Arial" font-size="14.00" fill="#000000">id </text>
<text text-anchor="start" x="326.7798" y="-233.9" font-family="Arial" font-size="14.00" fill="#666666">[bigint]</text>
<polygon fill="none" stroke="#000000" points="305,-192.5 305,-222.5 558,-222.5 558,-192.5 305,-192.5"/>
<text text-anchor="start" x="312" y="-203.9" font-family="Arial" font-size="14.00" fill="#000000">post_id </text>
<text text-anchor="start" x="361.0182" y="-203.9" font-family="Arial" font-size="14.00" fill="#666666">[bigint]</text>
<polygon fill="none" stroke="#000000" points="305,-162.5 305,-192.5 558,-192.5 558,-162.5 305,-162.5"/>
<text text-anchor="start" x="312" y="-173.9" font-family="Arial" font-size="14.00" fill="#000000">user_id </text>
<text text-anchor="start" x="361.7882" y="-173.9" font-family="Arial" font-size="14.00" fill="#666666">[integer]</text>
<polygon fill="none" stroke="#000000" points="305,-132.5 305,-162.5 558,-162.5 558,-132.5 305,-132.5"/>
<text text-anchor="start" x="312" y="-143.9" font-family="Arial" font-size="14.00" fill="#000000">comment </text>
<text text-anchor="start" x="373.4502" y="-143.9" font-family="Arial" font-size="14.00" fill="#666666">[text]</text>
<polygon fill="none" stroke="#000000" points="305,-102.5 305,-132.5 558,-132.5 558,-102.5 305,-102.5"/>
<text text-anchor="start" x="312" y="-113.9" font-family="Arial" font-size="14.00" fill="#000000">post_id_desc </text>
<text text-anchor="start" x="398.366" y="-113.9" font-family="Arial" font-size="14.00" fill="#666666">[bigint]</text>
<polygon fill="none" stroke="#000000" points="305,-72.5 305,-102.5 558,-102.5 558,-72.5 305,-72.5"/>
<text text-anchor="start" x="312" y="-83.9" font-family="Arial" font-size="14.00" fill="#000000">created </text>
<text text-anchor="start" x="362.5722" y="-83.9" font-family="Arial" font-size="14.00" fill="#666666">[timestamp without time zone]</text>
<polygon fill="none" stroke="#000000" points="305,-42.5 305,-72.5 558,-72.5 558,-42.5 305,-42.5"/>
<text text-anchor="start" x="311.6915" y="-53.9" font-family="Arial" font-size="14.00" fill="#000000">updated </text>
<text text-anchor="start" x="366.1683" y="-53.9" font-family="Arial" font-size="14.00" fill="#666666">[timestamp without time zone]</text>
</g>
<!-- public.comment_stars&#45;&gt;public.comments -->
<g id="edge2" class="edge">
<title>public.comment_stars:comment_post_id&#45;&gt;public.comments:post_id</title>
<path fill="none" stroke="#000000" d="M441.8631,-516.6601C388.1991,-507.111 415.1733,-418.3998 452,-367 480.9775,-326.5555 529.0225,-371.4445 558,-331 589.9682,-286.3813 612.8889,-207.5 558,-207.5"/>
<polygon fill="#000000" stroke="#000000" points="442.0342,-516.6742 451.6284,-521.9846 447.0171,-517.0871 452,-517.5 452,-517.5 452,-517.5 447.0171,-517.0871 452.3716,-513.0154 442.0342,-516.6742 442.0342,-516.6742"/>
<text text-anchor="start" x="6.533" y="-527.5" font-family="Arial" font-size="10.00" fill="#000000">FOREIGN KEY (comment_post_id, comment_user_id) REFERENCES comments(post_id, user_id)</text>
</g>
<!-- public.users -->
<g id="node4" class="node">
<title>public.users</title>
<polygon fill="#efefef" stroke="transparent" points="662,-237.5 662,-272.5 915,-272.5 915,-237.5 662,-237.5"/>
<polygon fill="none" stroke="#000000" points="662,-237.5 662,-272.5 915,-272.5 915,-237.5 662,-237.5"/>
<text text-anchor="start" x="691.8662" y="-250.3" font-family="Arial Bold" font-size="18.00" fill="#000000">public.users</text>
<text text-anchor="start" x="787.88" y="-250.3" font-family="Arial" font-size="14.00" fill="#000000"> </text>
<text text-anchor="start" x="791.7706" y="-250.3" font-family="Arial" font-size="14.00" fill="#666666">[BASE TABLE]</text>
<polygon fill="none" stroke="#000000" points="662,-207.5 662,-237.5 915,-237.5 915,-207.5 662,-207.5"/>
<text text-anchor="start" x="669" y="-218.9" font-family="Arial" font-size="14.00" fill="#000000">id </text>
<text text-anchor="start" x="683.7798" y="-218.9" font-family="Arial" font-size="14.00" fill="#666666">[integer]</text>
<polygon fill="none" stroke="#000000" points="662,-177.5 662,-207.5 915,-207.5 915,-177.5 662,-177.5"/>
<text text-anchor="start" x="669" y="-188.9" font-family="Arial" font-size="14.00" fill="#000000">username </text>
<text text-anchor="start" x="735.1248" y="-188.9" font-family="Arial" font-size="14.00" fill="#666666">[varchar(50)]</text>
<polygon fill="none" stroke="#000000" points="662,-147.5 662,-177.5 915,-177.5 915,-147.5 662,-147.5"/>
<text text-anchor="start" x="669" y="-158.9" font-family="Arial" font-size="14.00" fill="#000000">password </text>
<text text-anchor="start" x="732.7882" y="-158.9" font-family="Arial" font-size="14.00" fill="#666666">[varchar(50)]</text>
<polygon fill="none" stroke="#000000" points="662,-117.5 662,-147.5 915,-147.5 915,-117.5 662,-117.5"/>
<text text-anchor="start" x="669" y="-128.9" font-family="Arial" font-size="14.00" fill="#000000">email </text>
<text text-anchor="start" x="706.3296" y="-128.9" font-family="Arial" font-size="14.00" fill="#666666">[varchar(355)]</text>
<polygon fill="none" stroke="#000000" points="662,-87.5 662,-117.5 915,-117.5 915,-87.5 662,-87.5"/>
<text text-anchor="start" x="669" y="-98.9" font-family="Arial" font-size="14.00" fill="#000000">created </text>
<text text-anchor="start" x="719.5722" y="-98.9" font-family="Arial" font-size="14.00" fill="#666666">[timestamp without time zone]</text>
<polygon fill="none" stroke="#000000" points="662,-57.5 662,-87.5 915,-87.5 915,-57.5 662,-57.5"/>
<text text-anchor="start" x="668.6915" y="-68.9" font-family="Arial" font-size="14.00" fill="#000000">updated </text>
<text text-anchor="start" x="723.1683" y="-68.9" font-family="Arial" font-size="14.00" fill="#666666">[timestamp without time zone]</text>
</g>
<!-- public.comment_stars&#45;&gt;public.users -->
<g id="edge3" class="edge">
<title>public.comment_stars:comment_user_id&#45;&gt;public.users:id</title>
<path fill="none" stroke="#000000" d="M778.1571,-486.4218C818.0153,-477.0783 794.4974,-409.1536 768,-367 740.1772,-322.738 689.8228,-360.262 662,-316 639.8848,-280.8179 620.4444,-222.5 662,-222.5"/>
<polygon fill="#000000" stroke="#000000" points="777.9441,-486.4443 767.5249,-483.0251 772.9721,-486.9721 768,-487.5 768,-487.5 768,-487.5 772.9721,-486.9721 768.4751,-491.9749 777.9441,-486.4443 777.9441,-486.4443"/>
<text text-anchor="start" x="774.998" y="-497.5" font-family="Arial" font-size="10.00" fill="#000000">FOREIGN KEY (comment_user_id) REFERENCES users(id)</text>
</g>
<!-- public.logs -->
<g id="node2" class="node">
<title>public.logs</title>
<polygon fill="#efefef" stroke="transparent" points="485,-962.5 485,-997.5 734,-997.5 734,-962.5 485,-962.5"/>
<polygon fill="none" stroke="#000000" points="485,-962.5 485,-997.5 734,-997.5 734,-962.5 485,-962.5"/>
<text text-anchor="start" x="518.3652" y="-975.3" font-family="Arial Bold" font-size="18.00" fill="#000000">public.logs</text>
<text text-anchor="start" x="603.381" y="-975.3" font-family="Arial" font-size="14.00" fill="#000000"> </text>
<text text-anchor="start" x="607.2716" y="-975.3" font-family="Arial" font-size="14.00" fill="#666666">[BASE TABLE]</text>
<polygon fill="none" stroke="#000000" points="485,-932.5 485,-962.5 734,-962.5 734,-932.5 485,-932.5"/>
<text text-anchor="start" x="492" y="-943.9" font-family="Arial" font-size="14.00" fill="#000000">id </text>
<text text-anchor="start" x="506.7798" y="-943.9" font-family="Arial" font-size="14.00" fill="#666666">[uuid]</text>
<polygon fill="none" stroke="#000000" points="485,-902.5 485,-932.5 734,-932.5 734,-902.5 485,-902.5"/>
<text text-anchor="start" x="492" y="-913.9" font-family="Arial" font-size="14.00" fill="#000000">user_id </text>
<text text-anchor="start" x="541.7882" y="-913.9" font-family="Arial" font-size="14.00" fill="#666666">[integer]</text>
<polygon fill="none" stroke="#000000" points="485,-872.5 485,-902.5 734,-902.5 734,-872.5 485,-872.5"/>
<text text-anchor="start" x="492" y="-883.9" font-family="Arial" font-size="14.00" fill="#000000">post_id </text>
<text text-anchor="start" x="541.0182" y="-883.9" font-family="Arial" font-size="14.00" fill="#666666">[bigint]</text>
<polygon fill="none" stroke="#000000" points="485,-842.5 485,-872.5 734,-872.5 734,-842.5 485,-842.5"/>
<text text-anchor="start" x="492" y="-853.9" font-family="Arial" font-size="14.00" fill="#000000">comment_id </text>
<text text-anchor="start" x="572.122" y="-853.9" font-family="Arial" font-size="14.00" fill="#666666">[bigint]</text>
<polygon fill="none" stroke="#000000" points="485,-812.5 485,-842.5 734,-842.5 734,-812.5 485,-812.5"/>
<text text-anchor="start" x="492" y="-823.9" font-family="Arial" font-size="14.00" fill="#000000">comment_star_id </text>
<text text-anchor="start" x="603.2384" y="-823.9" font-family="Arial" font-size="14.00" fill="#666666">[uuid]</text>
<polygon fill="none" stroke="#000000" points="485,-782.5 485,-812.5 734,-812.5 734,-782.5 485,-782.5"/>
<text text-anchor="start" x="492" y="-793.9" font-family="Arial" font-size="14.00" fill="#000000">payload </text>
<text text-anchor="start" x="544.9102" y="-793.9" font-family="Arial" font-size="14.00" fill="#666666">[text]</text>
<polygon fill="none" stroke="#000000" points="485,-752.5 485,-782.5 734,-782.5 734,-752.5 485,-752.5"/>
<text text-anchor="start" x="491.6438" y="-763.9" font-family="Arial" font-size="14.00" fill="#000000">created </text>
<text text-anchor="start" x="542.216" y="-763.9" font-family="Arial" font-size="14.00" fill="#666666">[timestamp without time zone]</text>
</g>
<!-- public.logs&#45;&gt;public.comment_stars -->
<g id="edge1" class="edge">
<title>public.logs:comment_star_id&#45;&gt;public.comment_stars:id</title>
<path fill="none" stroke="#000000" stroke-dasharray="5,2" d="M743.9969,-826.3794C783.6483,-816.6817 766.0831,-746.4392 734,-710 650.505,-615.1684 535.495,-768.8316 452,-674 423.6581,-641.81 409.1111,-577.5 452,-577.5"/>
<polygon fill="#000000" stroke="#000000" points="743.9378,-826.386 733.4987,-823.028 738.9689,-826.943 734,-827.5 734,-827.5 734,-827.5 738.9689,-826.943 734.5013,-831.972 743.9378,-826.386 743.9378,-826.386"/>
<text text-anchor="start" x="741.3245" y="-837.5" font-family="Arial" font-size="10.00" fill="#000000">Additional Relation</text>
</g>
</g>
</svg>
