<?xml version="1.0" encoding="UTF-8" standalone="no"?>
<!DOCTYPE svg PUBLIC "-//W3C//DTD SVG 1.1//EN"
 "http://www.w3.org/Graphics/SVG/1.1/DTD/svg11.dtd">
<!-- Generated by graphviz version 2.40.1 (20161225.0304)
 -->
<!-- Title: public.comment_stars Pages: 1 -->
<svg width="1030pt" height="1019pt"
 viewBox="0.00 0.00 1030.00 1019.00" xmlns="http://www.w3.org/2000/svg" xmlns:xlink="http://www.w3.org/1999/xlink">
<g id="graph0" class="graph" transform="scale(1 1) rotate(0) translate(4 1015)">
<title>public.comment_stars</title>
<polygon fill="#ffffff" stroke="transparent" points="-4,4 -4,-1015 1026,-1015 1026,4 -4,4"/>
<!-- public.comment_stars -->
<g id="node1" class="node">
<title>public.comment_stars</title>
<polygon fill="#efefef" stroke="transparent" points="452,-562.5 452,-597.5 738,-597.5 738,-562.5 452,-562.5"/>
<polygon fill="none" stroke="#000000" points="452,-562.5 452,-597.5 738,-597.5 738,-562.5 452,-562.5"/>
<text text-anchor="start" x="458.8625" y="-575.3" font-family="Arial Bold" font-size="18.00" fill="#000000">public.comment_stars</text>
<text text-anchor="start" x="633.8837" y="-575.3" font-family="Arial" font-size="14.00" fill="#000000"> </text>
<text text-anchor="start" x="637.7743" y="-575.3" font-family="Arial" font-size="14.00" fill="#666666">[BASE TABLE]</text>
<polygon fill="none" stroke="#000000" points="452,-532.5 452,-562.5 738,-562.5 738,-532.5 452,-532.5"/>
<text text-anchor="start" x="459" y="-543.9" font-family="Arial" font-size="14.00" fill="#000000">id </text>
<text text-anchor="start" x="473.7798" y="-543.9" font-family="Arial" font-size="14.00" fill="#666666">[uuid]</text>
<polygon fill="none" stroke="#000000" points="452,-502.5 452,-532.5 738,-532.5 738,-502.5 452,-502.5"/>
<text text-anchor="start" x="459" y="-513.9" font-family="Arial" font-size="14.00" fill="#000000">user_id </text>
<text text-anchor="start" x="508.7882" y="-513.9" font-family="Arial" font-size="14.00" fill="#666666">[integer]</text>
<polygon fill="none" stroke="#000000" points="452,-472.5 452,-502.5 738,-502.5 738,-472.5 452,-472.5"/>
<text text-anchor="start" x="459" y="-483.9" font-family="Arial" font-size="14.00" fill="#000000">comment_post_id </text>
<text text-anchor="start" x="573.3604" y="-483.9" font-family="Arial" font-size="14.00" fill="#666666">[bigint]</text>
<polygon fill="none" stroke="#000000" points="452,-442.5 452,-472.5 738,-472.5 738,-442.5 452,-442.5"/>
<text text-anchor="start" x="459" y="-453.9" font-family="Arial" font-size="14.00" fill="#000000">comment_user_id </text>
<text text-anchor="start" x="574.1304" y="-453.9" font-family="Arial" font-size="14.00" fill="#666666">[integer]</text>
<polygon fill="none" stroke="#000000" points="452,-412.5 452,-442.5 738,-442.5 738,-412.5 452,-412.5"/>
<text text-anchor="start" x="459" y="-423.9" font-family="Arial" font-size="14.00" fill="#000000">created </text>
<text text-anchor="start" x="509.5722" y="-423.9" font-family="Arial" font-size="14.00" fill="#666666">[timestamp without time zone]</text>
<polygon fill="none" stroke="#000000" points="452,-382.5 452,-412.5 738,-412.5 738,-382.5 452,-382.5"/>
<text text-anchor="start" x="459" y="-393.9" font-family="Arial" font-size="14.00" fill="#000000">updated </text>
<text text-anchor="start" x="513.4768" y="-393.9" font-family="Arial" font-size="14.00" fill="#666666">[timestamp without time zone]</text>
<polygon fill="none" stroke="#000000" stroke-width="3" points="450.5,-381.5 450.5,-599.5 739.5,-599.5 739.5,-381.5 450.5,-381.5"/>
</g>
<!-- public.comments -->
<g id="node3" class="node">
<title>public.comments</title>
<polygon fill="#efefef" stroke="transparent" points="290,-222.5 290,-257.5 543,-257.5 543,-222.5 290,-222.5"/>
<polygon fill="none" stroke="#000000" points="290,-222.5 290,-257.5 543,-257.5 543,-222.5 290,-222.5"/>
<text text-anchor="start" x="300.3659" y="-235.3" font-family="Arial Bold" font-size="18.00" fill="#000000">public.comments</text>
<text text-anchor="start" x="435.3803" y="-235.3" font-family="Arial" font-size="14.00" fill="#000000"> </text>
<text text-anchor="start" x="439.2709" y="-235.3" font-family="Arial" font-size="14.00" fill="#666666">[BASE TABLE]</text>
<polygon fill="none" stroke="#000000" points="290,-192.5 290,-222.5 543,-222.5 543,-192.5 290,-192.5"/>
<text text-anchor="start" x="297" y="-203.9" font-family="Arial" font-size="14.00" fill="#000000">id </text>
<text text-anchor="start" x="311.7798" y="-203.9" font-family="Arial" font-size="14.00" fill="#666666">[bigint]</text>
<polygon fill="none" stroke="#000000" points="290,-162.5 290,-192.5 543,-192.5 543,-162.5 290,-162.5"/>
<text text-anchor="start" x="297" y="-173.9" font-family="Arial" font-size="14.00" fill="#000000">post_id </text>
<text text-anchor="start" x="346.0182" y="-173.9" font-family="Arial" font-size="14.00" fill="#666666">[bigint]</text>
<polygon fill="none" stroke="#000000" points="290,-132.5 290,-162.5 543,-162.5 543,-132.5 290,-132.5"/>
<text text-anchor="start" x="297" y="-143.9" font-family="Arial" font-size="14.00" fill="#000000">user_id </text>
<text text-anchor="start" x="346.7882" y="-143.9" font-family="Arial" font-size="14.00" fill="#666666">[integer]</text>
<polygon fill="none" stroke="#000000" points="290,-102.5 290,-132.5 543,-132.5 543,-102.5 290,-102.5"/>
<text text-anchor="start" x="297" y="-113.9" font-family="Arial" font-size="14.00" fill="#000000">comment </text>
<text text-anchor="start" x="358.4502" y="-113.9" font-family="Arial" font-size="14.00" fill="#666666">[text]</text>
<polygon fill="none" stroke="#000000" points="290,-72.5 290,-102.5 543,-102.5 543,-72.5 290,-72.5"/>
<text text-anchor="start" x="297" y="-83.9" font-family="Arial" font-size="14.00" fill="#000000">created </text>
<text text-anchor="start" x="347.5722" y="-83.9" font-family="Arial" font-size="14.00" fill="#666666">[timestamp without time zone]</text>
<polygon fill="none" stroke="#000000" points="290,-42.5 290,-72.5 543,-72.5 543,-42.5 290,-42.5"/>
<text text-anchor="start" x="296.6915" y="-53.9" font-family="Arial" font-size="14.00" fill="#000000">updated </text>
<text text-anchor="start" x="351.1683" y="-53.9" font-family="Arial" font-size="14.00" fill="#666666">[timestamp without time zone]</text>
</g>
<!-- public.comment_stars&#45;&gt;public.comments -->
<g id="edge2" class="edge">
<title>public.comment_stars:comment_post_id&#45;&gt;public.comments:post_id</title>
<path fill="none" stroke="#000000" d="M441.8746,-486.6681C388.3389,-477.2086 416.4516,-389.2921 452,-337 476.4524,-301.0301 518.5476,-336.9699 543,-301 573.8585,-255.6068 597.8889,-177.5 543,-177.5"/>
<polygon fill="#000000" stroke="#000000" points="442.0336,-486.6811 451.6315,-491.9849 447.0168,-487.0905 452,-487.5 452,-487.5 452,-487.5 447.0168,-487.0905 452.3685,-483.0151 442.0336,-486.6811 442.0336,-486.6811"/>
<text text-anchor="start" x="6.533" y="-497.5" font-family="Arial" font-size="10.00" fill="#000000">FOREIGN KEY (comment_post_id, comment_user_id) REFERENCES comments(post_id, user_id)</text>
</g>
<!-- public.users -->
<g id="node4" class="node">
<title>public.users</title>
<polygon fill="#efefef" stroke="transparent" points="647,-222.5 647,-257.5 900,-257.5 900,-222.5 647,-222.5"/>
<polygon fill="none" stroke="#000000" points="647,-222.5 647,-257.5 900,-257.5 900,-222.5 647,-222.5"/>
<text text-anchor="start" x="676.8662" y="-235.3" font-family="Arial Bold" font-size="18.00" fill="#000000">public.users</text>
<text text-anchor="start" x="772.88" y="-235.3" font-family="Arial" font-size="14.00" fill="#000000"> </text>
<text text-anchor="start" x="776.7706" y="-235.3" font-family="Arial" font-size="14.00" fill="#666666">[BASE TABLE]</text>
<polygon fill="none" stroke="#000000" points="647,-192.5 647,-222.5 900,-222.5 900,-192.5 647,-192.5"/>
<text text-anchor="start" x="654" y="-203.9" font-family="Arial" font-size="14.00" fill="#000000">id </text>
<text text-anchor="start" x="668.7798" y="-203.9" font-family="Arial" font-size="14.00" fill="#666666">[integer]</text>
<polygon fill="none" stroke="#000000" points="647,-162.5 647,-192.5 900,-192.5 900,-162.5 647,-162.5"/>
<text text-anchor="start" x="654" y="-173.9" font-family="Arial" font-size="14.00" fill="#000000">username </text>
<text text-anchor="start" x="720.1248" y="-173.9" font-family="Arial" font-size="14.00" fill="#666666">[varchar(50)]</text>
<polygon fill="none" stroke="#000000" points="647,-132.5 647,-162.5 900,-162.5 900,-132.5 647,-132.5"/>
<text text-anchor="start" x="654" y="-143.9" font-family="Arial" font-size="14.00" fill="#000000">password </text>
<text text-anchor="start" x="717.7882" y="-143.9" font-family="Arial" font-size="14.00" fill="#666666">[varchar(50)]</text>
<polygon fill="none" stroke="#000000" points="647,-102.5 647,-132.5 900,-132.5 900,-102.5 647,-102.5"/>
<text text-anchor="start" x="654" y="-113.9" font-family="Arial" font-size="14.00" fill="#000000">email </text>
<text text-anchor="start" x="691.3296" y="-113.9" font-family="Arial" font-size="14.00" fill="#666666">[varchar(355)]</text>
<polygon fill="none" stroke="#000000" points="647,-72.5 647,-102.5 900,-102.5 900,-72.5 647,-72.5"/>
<text text-anchor="start" x="654" y="-83.9" font-family="Arial" font-size="14.00" fill="#000000">created </text>
<text text-anchor="start" x="704.5722" y="-83.9" font-family="Arial" font-size="14.00" fill="#666666">[timestamp without time zone]</text>
<polygon fill="none" stroke="#000000" points="647,-42.5 647,-72.5 900,-72.5 900,-42.5 647,-42.5"/>
<text text-anchor="start" x="653.6915" y="-53.9" font-family="Arial" font-size="14.00" fill="#000000">updated </text>
<text text-anchor="start" x="708.1683" y="-53.9" font-family="Arial" font-size="14.00" fill="#666666">[timestamp without time zone]</text>
</g>
<!-- public.comment_stars&#45;&gt;public.users -->
<g id="edge3" class="edge">
<title>public.comment_stars:comment_user_id&#45;&gt;public.users:id</title>
<path fill="none" stroke="#000000" d="M748.1793,-456.4073C788.2254,-446.9408 765.9919,-378.1764 738,-337 713.5476,-301.0301 671.4524,-336.9699 647,-301 623.6375,-266.6335 605.4444,-207.5 647,-207.5"/>
<polygon fill="#000000" stroke="#000000" points="747.9429,-456.4326 737.5197,-453.0257 742.9714,-456.9663 738,-457.5 738,-457.5 738,-457.5 742.9714,-456.9663 738.4803,-461.9743 747.9429,-456.4326 747.9429,-456.4326"/>
<text text-anchor="start" x="744.998" y="-467.5" font-family="Arial" font-size="10.00" fill="#000000">FOREIGN KEY (comment_user_id) REFERENCES users(id)</text>
</g>
<!-- public.logs -->
<g id="node2" class="node">
<title>public.logs</title>
<polygon fill="#efefef" stroke="transparent" points="470,-932.5 470,-967.5 719,-967.5 719,-932.5 470,-932.5"/>
<polygon fill="none" stroke="#000000" points="470,-932.5 470,-967.5 719,-967.5 719,-932.5 470,-932.5"/>
<text text-anchor="start" x="503.3652" y="-945.3" font-family="Arial Bold" font-size="18.00" fill="#000000">public.logs</text>
<text text-anchor="start" x="588.381" y="-945.3" font-family="Arial" font-size="14.00" fill="#000000"> </text>
<text text-anchor="start" x="592.2716" y="-945.3" font-family="Arial" font-size="14.00" fill="#666666">[BASE TABLE]</text>
<polygon fill="none" stroke="#000000" points="470,-902.5 470,-932.5 719,-932.5 719,-902.5 470,-902.5"/>
<text text-anchor="start" x="477" y="-913.9" font-family="Arial" font-size="14.00" fill="#000000">id </text>
<text text-anchor="start" x="491.7798" y="-913.9" font-family="Arial" font-size="14.00" fill="#666666">[uuid]</text>
<polygon fill="none" stroke="#000000" points="470,-872.5 470,-902.5 719,-902.5 719,-872.5 470,-872.5"/>
<text text-anchor="start" x="477" y="-883.9" font-family="Arial" font-size="14.00" fill="#000000">user_id </text>
<text text-anchor="start" x="526.7882" y="-883.9" font-family="Arial" font-size="14.00" fill="#666666">[integer]</text>
<polygon fill="none" stroke="#000000" points="470,-842.5 470,-872.5 719,-872.5 719,-842.5 470,-842.5"/>
<text text-anchor="start" x="477" y="-853.9" font-family="Arial" font-size="14.00" fill="#000000">post_id </text>
<text text-anchor="start" x="526.0182" y="-853.9" font-family="Arial" font-size="14.00" fill="#666666">[bigint]</text>
<polygon fill="none" stroke="#000000" points="470,-812.5 470,-842.5 719,-842.5 719,-812.5 470,-812.5"/>
<text text-anchor="start" x="477" y="-823.9" font-family="Arial" font-size="14.00" fill="#000000">comment_id </text>
<text text-anchor="start" x="557.122" y="-823.9" font-family="Arial" font-size="14.00" fill="#666666">[bigint]</text>
<polygon fill="none" stroke="#000000" points="470,-782.5 470,-812.5 719,-812.5 719,-782.5 470,-782.5"/>
<text text-anchor="start" x="477" y="-793.9" font-family="Arial" font-size="14.00" fill="#000000">comment_star_id </text>
<text text-anchor="start" x="588.2384" y="-793.9" font-family="Arial" font-size="14.00" fill="#666666">[uuid]</text>
<polygon fill="none" stroke="#000000" points="470,-752.5 470,-782.5 719,-782.5 719,-752.5 470,-752.5"/>
<text text-anchor="start" x="477" y="-763.9" font-family="Arial" font-size="14.00" fill="#000000">payload </text>
<text text-anchor="start" x="529.9102" y="-763.9" font-family="Arial" font-size="14.00" fill="#666666">[text]</text>
<polygon fill="none" stroke="#000000" points="470,-722.5 470,-752.5 719,-752.5 719,-722.5 470,-722.5"/>
<text text-anchor="start" x="476.6438" y="-733.9" font-family="Arial" font-size="14.00" fill="#000000">created </text>
<text text-anchor="start" x="527.216" y="-733.9" font-family="Arial" font-size="14.00" fill="#666666">[timestamp without time zone]</text>
</g>
<!-- public.logs&#45;&gt;public.comment_stars -->
<g id="edge1" class="edge">
<title>public.logs:comment_star_id&#45;&gt;public.comment_stars:id</title>
<path fill="none" stroke="#000000" stroke-dasharray="5,2" d="M728.9949,-796.3811C768.6302,-786.6976 750.9544,-716.552 719,-680 640.1903,-589.8512 530.8097,-734.1488 452,-644 423.7718,-611.7103 409.1111,-547.5 452,-547.5"/>
<polygon fill="#000000" stroke="#000000" points="728.9379,-796.3874 718.4993,-793.0279 723.969,-796.9437 719,-797.5 719,-797.5 719,-797.5 723.969,-796.9437 719.5007,-801.9721 728.9379,-796.3874 728.9379,-796.3874"/>
<text text-anchor="start" x="726.3245" y="-807.5" font-family="Arial" font-size="10.00" fill="#000000">Additional Relation</text>
</g>
</g>
</svg>
