<?xml version="1.0" encoding="UTF-8" standalone="no"?>
<!DOCTYPE svg PUBLIC "-//W3C//DTD SVG 1.1//EN"
 "http://www.w3.org/Graphics/SVG/1.1/DTD/svg11.dtd">
<!-- Generated by graphviz version 2.40.1 (20161225.0304)
 -->
<!-- Title: public.comments Pages: 1 -->
<svg width="887pt" height="1109pt"
 viewBox="0.00 0.00 887.00 1109.00" xmlns="http://www.w3.org/2000/svg" xmlns:xlink="http://www.w3.org/1999/xlink">
<g id="graph0" class="graph" transform="scale(1 1) rotate(0) translate(4 1105)">
<title>public.comments</title>
<polygon fill="#ffffff" stroke="transparent" points="-4,4 -4,-1105 883,-1105 883,4 -4,4"/>
<!-- public.comments -->
<g id="node1" class="node">
<title>public.comments</title>
<polygon fill="#efefef" stroke="transparent" points="246,-652.5 246,-687.5 522,-687.5 522,-652.5 246,-652.5"/>
<polygon fill="none" stroke="#000000" points="246,-652.5 246,-687.5 522,-687.5 522,-652.5 246,-652.5"/>
<text text-anchor="start" x="252.7088" y="-665.3" font-family="Arial Bold" font-size="18.00" fill="#000000">public.comments</text>
<text text-anchor="start" x="387.7232" y="-665.3" font-family="Arial" font-size="14.00" fill="#000000">    </text>
<text text-anchor="start" x="421.928" y="-665.3" font-family="Arial" font-size="14.00" fill="#666666">[BASE TABLE]</text>
<polygon fill="none" stroke="#000000" points="246,-622.5 246,-652.5 522,-652.5 522,-622.5 246,-622.5"/>
<text text-anchor="start" x="253" y="-633.9" font-family="Arial" font-size="14.00" fill="#000000">id </text>
<text text-anchor="start" x="267.7798" y="-633.9" font-family="Arial" font-size="14.00" fill="#666666">[bigint]</text>
<polygon fill="none" stroke="#000000" points="246,-592.5 246,-622.5 522,-622.5 522,-592.5 246,-592.5"/>
<text text-anchor="start" x="253" y="-603.9" font-family="Arial" font-size="14.00" fill="#000000">post_id </text>
<text text-anchor="start" x="302.0182" y="-603.9" font-family="Arial" font-size="14.00" fill="#666666">[bigint]</text>
<polygon fill="none" stroke="#000000" points="246,-562.5 246,-592.5 522,-592.5 522,-562.5 246,-562.5"/>
<text text-anchor="start" x="253" y="-573.9" font-family="Arial" font-size="14.00" fill="#000000">user_id </text>
<text text-anchor="start" x="302.7882" y="-573.9" font-family="Arial" font-size="14.00" fill="#666666">[integer]</text>
<polygon fill="none" stroke="#000000" points="246,-532.5 246,-562.5 522,-562.5 522,-532.5 246,-532.5"/>
<text text-anchor="start" x="253" y="-543.9" font-family="Arial" font-size="14.00" fill="#000000">comment </text>
<text text-anchor="start" x="314.4502" y="-543.9" font-family="Arial" font-size="14.00" fill="#666666">[text]</text>
<polygon fill="none" stroke="#000000" points="246,-502.5 246,-532.5 522,-532.5 522,-502.5 246,-502.5"/>
<text text-anchor="start" x="253" y="-513.9" font-family="Arial" font-size="14.00" fill="#000000">post_id_desc </text>
<text text-anchor="start" x="339.366" y="-513.9" font-family="Arial" font-size="14.00" fill="#666666">[bigint]</text>
<polygon fill="none" stroke="#000000" points="246,-472.5 246,-502.5 522,-502.5 522,-472.5 246,-472.5"/>
<text text-anchor="start" x="253" y="-483.9" font-family="Arial" font-size="14.00" fill="#000000">created </text>
<text text-anchor="start" x="303.5722" y="-483.9" font-family="Arial" font-size="14.00" fill="#666666">[timestamp without time zone]</text>
<polygon fill="none" stroke="#000000" points="246,-442.5 246,-472.5 522,-472.5 522,-442.5 246,-442.5"/>
<text text-anchor="start" x="253" y="-453.9" font-family="Arial" font-size="14.00" fill="#000000">updated </text>
<text text-anchor="start" x="307.4768" y="-453.9" font-family="Arial" font-size="14.00" fill="#666666">[timestamp without time zone]</text>
<polygon fill="none" stroke="#000000" stroke-width="3" points="244.5,-441.5 244.5,-689.5 523.5,-689.5 523.5,-441.5 244.5,-441.5"/>
</g>
<!-- public.posts -->
<g id="node3" class="node">
<title>public.posts</title>
<polygon fill="#efefef" stroke="transparent" points="49,-282.5 49,-317.5 332,-317.5 332,-282.5 49,-282.5"/>
<polygon fill="none" stroke="#000000" points="49,-282.5 49,-317.5 332,-317.5 332,-282.5 49,-282.5"/>
<text text-anchor="start" x="79.2041" y="-295.3" font-family="Arial Bold" font-size="18.00" fill="#000000">public.posts</text>
<text text-anchor="start" x="174.2279" y="-295.3" font-family="Arial" font-size="14.00" fill="#000000">    </text>
<text text-anchor="start" x="208.4327" y="-295.3" font-family="Arial" font-size="14.00" fill="#666666">[BASE TABLE]</text>
<polygon fill="none" stroke="#000000" points="49,-252.5 49,-282.5 332,-282.5 332,-252.5 49,-252.5"/>
<text text-anchor="start" x="56" y="-263.9" font-family="Arial" font-size="14.00" fill="#000000">id    </text>
<text text-anchor="start" x="101.094" y="-263.9" font-family="Arial" font-size="14.00" fill="#666666">[bigint]</text>
<polygon fill="none" stroke="#000000" points="49,-222.5 49,-252.5 332,-252.5 332,-222.5 49,-222.5"/>
<text text-anchor="start" x="56" y="-233.9" font-family="Arial" font-size="14.00" fill="#000000">user_id    </text>
<text text-anchor="start" x="136.1024" y="-233.9" font-family="Arial" font-size="14.00" fill="#666666">[integer]</text>
<polygon fill="none" stroke="#000000" points="49,-192.5 49,-222.5 332,-222.5 332,-192.5 49,-192.5"/>
<text text-anchor="start" x="56" y="-203.9" font-family="Arial" font-size="14.00" fill="#000000">title    </text>
<text text-anchor="start" x="111.9818" y="-203.9" font-family="Arial" font-size="14.00" fill="#666666">[varchar(255)]</text>
<polygon fill="none" stroke="#000000" points="49,-162.5 49,-192.5 332,-192.5 332,-162.5 49,-162.5"/>
<text text-anchor="start" x="56" y="-173.9" font-family="Arial" font-size="14.00" fill="#000000">body    </text>
<text text-anchor="start" x="120.5526" y="-173.9" font-family="Arial" font-size="14.00" fill="#666666">[text]</text>
<polygon fill="none" stroke="#000000" points="49,-132.5 49,-162.5 332,-162.5 332,-132.5 49,-132.5"/>
<text text-anchor="start" x="56" y="-143.9" font-family="Arial" font-size="14.00" fill="#000000">post_type    </text>
<text text-anchor="start" x="150.899" y="-143.9" font-family="Arial" font-size="14.00" fill="#666666">[post_types]</text>
<polygon fill="none" stroke="#000000" points="49,-102.5 49,-132.5 332,-132.5 332,-102.5 49,-102.5"/>
<text text-anchor="start" x="56" y="-113.9" font-family="Arial" font-size="14.00" fill="#000000">labels    </text>
<text text-anchor="start" x="126.7658" y="-113.9" font-family="Arial" font-size="14.00" fill="#666666">[varchar(50)[]]</text>
<polygon fill="none" stroke="#000000" points="49,-72.5 49,-102.5 332,-102.5 332,-72.5 49,-72.5"/>
<text text-anchor="start" x="56" y="-83.9" font-family="Arial" font-size="14.00" fill="#000000">created    </text>
<text text-anchor="start" x="136.8864" y="-83.9" font-family="Arial" font-size="14.00" fill="#666666">[timestamp without time zone]</text>
<polygon fill="none" stroke="#000000" points="49,-42.5 49,-72.5 332,-72.5 332,-42.5 49,-42.5"/>
<text text-anchor="start" x="55.5344" y="-53.9" font-family="Arial" font-size="14.00" fill="#000000">updated    </text>
<text text-anchor="start" x="140.3254" y="-53.9" font-family="Arial" font-size="14.00" fill="#666666">[timestamp without time zone]</text>
</g>
<!-- public.comments&#45;&gt;public.posts -->
<g id="edge2" class="edge">
<title>public.comments:post_id&#45;&gt;public.posts:id</title>
<path fill="none" stroke="#000000" d="M235.6483,-606.9041C155.7196,-597.223 196.1936,-471.8433 246,-397 268.9561,-362.5043 309.0439,-395.4957 332,-361 355.0223,-326.4047 373.5556,-267.5 332,-267.5"/>
<polygon fill="#000000" stroke="#000000" points="236.0165,-606.9252 245.7413,-611.9926 241.0083,-607.2126 246,-607.5 246,-607.5 246,-607.5 241.0083,-607.2126 246.2587,-603.0074 236.0165,-606.9252 236.0165,-606.9252"/>
<text text-anchor="start" x="16.8845" y="-617.5" font-family="Arial" font-size="10.00" fill="#000000">FOREIGN KEY (post_id) REFERENCES posts(id)</text>
</g>
<!-- public.users -->
<g id="node5" class="node">
<title>public.users</title>
<polygon fill="#efefef" stroke="transparent" points="436,-252.5 436,-287.5 719,-287.5 719,-252.5 436,-252.5"/>
<polygon fill="none" stroke="#000000" points="436,-252.5 436,-287.5 719,-287.5 719,-252.5 436,-252.5"/>
<text text-anchor="start" x="465.7091" y="-265.3" font-family="Arial Bold" font-size="18.00" fill="#000000">public.users</text>
<text text-anchor="start" x="561.7229" y="-265.3" font-family="Arial" font-size="14.00" fill="#000000">    </text>
<text text-anchor="start" x="595.9277" y="-265.3" font-family="Arial" font-size="14.00" fill="#666666">[BASE TABLE]</text>
<polygon fill="none" stroke="#000000" points="436,-222.5 436,-252.5 719,-252.5 719,-222.5 436,-222.5"/>
<text text-anchor="start" x="443" y="-233.9" font-family="Arial" font-size="14.00" fill="#000000">id    </text>
<text text-anchor="start" x="488.094" y="-233.9" font-family="Arial" font-size="14.00" fill="#666666">[integer]</text>
<polygon fill="none" stroke="#000000" points="436,-192.5 436,-222.5 719,-222.5 719,-192.5 436,-192.5"/>
<text text-anchor="start" x="443" y="-203.9" font-family="Arial" font-size="14.00" fill="#000000">username    </text>
<text text-anchor="start" x="539.439" y="-203.9" font-family="Arial" font-size="14.00" fill="#666666">[varchar(50)]</text>
<polygon fill="none" stroke="#000000" points="436,-162.5 436,-192.5 719,-192.5 719,-162.5 436,-162.5"/>
<text text-anchor="start" x="443" y="-173.9" font-family="Arial" font-size="14.00" fill="#000000">password    </text>
<text text-anchor="start" x="537.1024" y="-173.9" font-family="Arial" font-size="14.00" fill="#666666">[varchar(50)]</text>
<polygon fill="none" stroke="#000000" points="436,-132.5 436,-162.5 719,-162.5 719,-132.5 436,-132.5"/>
<text text-anchor="start" x="443" y="-143.9" font-family="Arial" font-size="14.00" fill="#000000">email    </text>
<text text-anchor="start" x="510.6438" y="-143.9" font-family="Arial" font-size="14.00" fill="#666666">[varchar(355)]</text>
<polygon fill="none" stroke="#000000" points="436,-102.5 436,-132.5 719,-132.5 719,-102.5 436,-102.5"/>
<text text-anchor="start" x="443" y="-113.9" font-family="Arial" font-size="14.00" fill="#000000">created    </text>
<text text-anchor="start" x="523.8864" y="-113.9" font-family="Arial" font-size="14.00" fill="#666666">[timestamp without time zone]</text>
<polygon fill="none" stroke="#000000" points="436,-72.5 436,-102.5 719,-102.5 719,-72.5 436,-72.5"/>
<text text-anchor="start" x="442.5344" y="-83.9" font-family="Arial" font-size="14.00" fill="#000000">updated    </text>
<text text-anchor="start" x="527.3254" y="-83.9" font-family="Arial" font-size="14.00" fill="#666666">[timestamp without time zone]</text>
</g>
<!-- public.comments&#45;&gt;public.users -->
<g id="edge4" class="edge">
<title>public.comments:user_id&#45;&gt;public.users:id</title>
<path fill="none" stroke="#000000" d="M532.0668,-576.856C598.221,-567.8214 555.885,-465.7183 522,-397 500.6918,-353.7872 457.3082,-374.2128 436,-331 417.6218,-293.7293 394.4444,-237.5 436,-237.5"/>
<polygon fill="#000000" stroke="#000000" points="531.9796,-576.8615 521.7127,-573.0092 526.9898,-577.1807 522,-577.5 522,-577.5 522,-577.5 526.9898,-577.1807 522.2873,-581.9908 531.9796,-576.8615 531.9796,-576.8615"/>
<text text-anchor="start" x="529.3345" y="-587.5" font-family="Arial" font-size="10.00" fill="#000000">FOREIGN KEY (user_id) REFERENCES users(id)</text>
</g>
<!-- public.logs -->
<g id="node2" class="node">
<title>public.logs</title>
<polygon fill="#efefef" stroke="transparent" points="43,-1022.5 43,-1057.5 323,-1057.5 323,-1022.5 43,-1022.5"/>
<polygon fill="none" stroke="#000000" points="43,-1022.5 43,-1057.5 323,-1057.5 323,-1022.5 43,-1022.5"/>
<text text-anchor="start" x="76.7081" y="-1035.3" font-family="Arial Bold" font-size="18.00" fill="#000000">public.logs</text>
<text text-anchor="start" x="161.7239" y="-1035.3" font-family="Arial" font-size="14.00" fill="#000000">    </text>
<text text-anchor="start" x="195.9287" y="-1035.3" font-family="Arial" font-size="14.00" fill="#666666">[BASE TABLE]</text>
<polygon fill="none" stroke="#000000" points="43,-992.5 43,-1022.5 323,-1022.5 323,-992.5 43,-992.5"/>
<text text-anchor="start" x="50" y="-1003.9" font-family="Arial" font-size="14.00" fill="#000000">id    </text>
<text text-anchor="start" x="95.094" y="-1003.9" font-family="Arial" font-size="14.00" fill="#666666">[uuid]</text>
<polygon fill="none" stroke="#000000" points="43,-962.5 43,-992.5 323,-992.5 323,-962.5 43,-962.5"/>
<text text-anchor="start" x="50" y="-973.9" font-family="Arial" font-size="14.00" fill="#000000">user_id    </text>
<text text-anchor="start" x="130.1024" y="-973.9" font-family="Arial" font-size="14.00" fill="#666666">[integer]</text>
<polygon fill="none" stroke="#000000" points="43,-932.5 43,-962.5 323,-962.5 323,-932.5 43,-932.5"/>
<text text-anchor="start" x="50" y="-943.9" font-family="Arial" font-size="14.00" fill="#000000">post_id    </text>
<text text-anchor="start" x="129.3324" y="-943.9" font-family="Arial" font-size="14.00" fill="#666666">[bigint]</text>
<polygon fill="none" stroke="#000000" points="43,-902.5 43,-932.5 323,-932.5 323,-902.5 43,-902.5"/>
<text text-anchor="start" x="50" y="-913.9" font-family="Arial" font-size="14.00" fill="#000000">comment_id    </text>
<text text-anchor="start" x="160.4362" y="-913.9" font-family="Arial" font-size="14.00" fill="#666666">[bigint]</text>
<polygon fill="none" stroke="#000000" points="43,-872.5 43,-902.5 323,-902.5 323,-872.5 43,-872.5"/>
<text text-anchor="start" x="50" y="-883.9" font-family="Arial" font-size="14.00" fill="#000000">comment_star_id    </text>
<text text-anchor="start" x="191.5526" y="-883.9" font-family="Arial" font-size="14.00" fill="#666666">[uuid]</text>
<polygon fill="none" stroke="#000000" points="43,-842.5 43,-872.5 323,-872.5 323,-842.5 43,-842.5"/>
<text text-anchor="start" x="50" y="-853.9" font-family="Arial" font-size="14.00" fill="#000000">payload    </text>
<text text-anchor="start" x="133.2244" y="-853.9" font-family="Arial" font-size="14.00" fill="#666666">[text]</text>
<polygon fill="none" stroke="#000000" points="43,-812.5 43,-842.5 323,-842.5 323,-812.5 43,-812.5"/>
<text text-anchor="start" x="49.9867" y="-823.9" font-family="Arial" font-size="14.00" fill="#000000">created    </text>
<text text-anchor="start" x="130.8731" y="-823.9" font-family="Arial" font-size="14.00" fill="#666666">[timestamp without time zone]</text>
</g>
<!-- public.logs&#45;&gt;public.comments -->
<g id="edge1" class="edge">
<title>public.logs:comment_id&#45;&gt;public.comments:id</title>
<path fill="none" stroke="#000000" stroke-dasharray="5,2" d="M333.2327,-916.6361C385.1008,-907.1746 356.2017,-822.1741 323,-770 302.718,-738.1283 266.282,-765.8717 246,-734 222.974,-697.8163 203.1111,-637.5 246,-637.5"/>
<polygon fill="#000000" stroke="#000000" points="332.9646,-916.6587 322.6214,-913.016 327.9823,-917.0793 323,-917.5 323,-917.5 323,-917.5 327.9823,-917.0793 323.3786,-921.984 332.9646,-916.6587 332.9646,-916.6587"/>
<text text-anchor="start" x="330.3245" y="-927.5" font-family="Arial" font-size="10.00" fill="#000000">Additional Relation</text>
</g>
<!-- public.comment_stars -->
<g id="node4" class="node">
<title>public.comment_stars</title>
<polygon fill="#efefef" stroke="transparent" points="427,-1007.5 427,-1042.5 743,-1042.5 743,-1007.5 427,-1007.5"/>
<polygon fill="none" stroke="#000000" points="427,-1007.5 427,-1042.5 743,-1042.5 743,-1007.5 427,-1007.5"/>
<text text-anchor="start" x="433.7054" y="-1020.3" font-family="Arial Bold" font-size="18.00" fill="#000000">public.comment_stars</text>
<text text-anchor="start" x="608.7266" y="-1020.3" font-family="Arial" font-size="14.00" fill="#000000">    </text>
<text text-anchor="start" x="642.9314" y="-1020.3" font-family="Arial" font-size="14.00" fill="#666666">[BASE TABLE]</text>
<polygon fill="none" stroke="#000000" points="427,-977.5 427,-1007.5 743,-1007.5 743,-977.5 427,-977.5"/>
<text text-anchor="start" x="434" y="-988.9" font-family="Arial" font-size="14.00" fill="#000000">id    </text>
<text text-anchor="start" x="479.094" y="-988.9" font-family="Arial" font-size="14.00" fill="#666666">[uuid]</text>
<polygon fill="none" stroke="#000000" points="427,-947.5 427,-977.5 743,-977.5 743,-947.5 427,-947.5"/>
<text text-anchor="start" x="434" y="-958.9" font-family="Arial" font-size="14.00" fill="#000000">user_id    </text>
<text text-anchor="start" x="514.1024" y="-958.9" font-family="Arial" font-size="14.00" fill="#666666">[integer]</text>
<polygon fill="none" stroke="#000000" points="427,-917.5 427,-947.5 743,-947.5 743,-917.5 427,-917.5"/>
<text text-anchor="start" x="434" y="-928.9" font-family="Arial" font-size="14.00" fill="#000000">comment_post_id    </text>
<text text-anchor="start" x="578.6746" y="-928.9" font-family="Arial" font-size="14.00" fill="#666666">[bigint]</text>
<polygon fill="none" stroke="#000000" points="427,-887.5 427,-917.5 743,-917.5 743,-887.5 427,-887.5"/>
<text text-anchor="start" x="434" y="-898.9" font-family="Arial" font-size="14.00" fill="#000000">comment_user_id    </text>
<text text-anchor="start" x="579.4446" y="-898.9" font-family="Arial" font-size="14.00" fill="#666666">[integer]</text>
<polygon fill="none" stroke="#000000" points="427,-857.5 427,-887.5 743,-887.5 743,-857.5 427,-857.5"/>
<text text-anchor="start" x="434" y="-868.9" font-family="Arial" font-size="14.00" fill="#000000">created    </text>
<text text-anchor="start" x="514.8864" y="-868.9" font-family="Arial" font-size="14.00" fill="#666666">[timestamp without time zone]</text>
<polygon fill="none" stroke="#000000" points="427,-827.5 427,-857.5 743,-857.5 743,-827.5 427,-827.5"/>
<text text-anchor="start" x="434" y="-838.9" font-family="Arial" font-size="14.00" fill="#000000">updated    </text>
<text text-anchor="start" x="518.791" y="-838.9" font-family="Arial" font-size="14.00" fill="#666666">[timestamp without time zone]</text>
</g>
<!-- public.comment_stars&#45;&gt;public.comments -->
<g id="edge3" class="edge">
<title>public.comment_stars:comment_post_id&#45;&gt;public.comments:post_id</title>
<path fill="none" stroke="#000000" d="M416.7813,-931.6448C365.0642,-922.2764 395.2547,-838.0728 427,-785 451.5995,-743.8739 497.4005,-775.1261 522,-734 550.8603,-685.7504 578.2222,-607.5 522,-607.5"/>
<polygon fill="#000000" stroke="#000000" points="417.0348,-931.6659 426.6247,-936.9843 422.0174,-932.083 427,-932.5 427,-932.5 427,-932.5 422.0174,-932.083 427.3753,-928.0157 417.0348,-931.6659 417.0348,-931.6659"/>
<text text-anchor="start" x="433.533" y="-942.5" font-family="Arial" font-size="10.00" fill="#000000">FOREIGN KEY (comment_post_id, comment_user_id) REFERENCES comments(post_id, user_id)</text>
</g>
</g>
</svg>
