<?xml version="1.0" encoding="UTF-8" standalone="no"?>
<!DOCTYPE svg PUBLIC "-//W3C//DTD SVG 1.1//EN"
 "http://www.w3.org/Graphics/SVG/1.1/DTD/svg11.dtd">
<!-- Generated by graphviz version 2.40.1 (20161225.0304)
 -->
<!-- Title: public.comments Pages: 1 -->
<svg width="866pt" height="1109pt"
 viewBox="0.00 0.00 866.00 1109.00" xmlns="http://www.w3.org/2000/svg" xmlns:xlink="http://www.w3.org/1999/xlink">
<g id="graph0" class="graph" transform="scale(1 1) rotate(0) translate(4 1105)">
<title>public.comments</title>
<polygon fill="#ffffff" stroke="transparent" points="-4,4 -4,-1105 862,-1105 862,4 -4,4"/>
<!-- public.comments -->
<g id="node1" class="node">
<title>public.comments</title>
<polygon fill="#efefef" stroke="transparent" points="236,-652.5 236,-687.5 489,-687.5 489,-652.5 236,-652.5"/>
<polygon fill="none" stroke="#000000" points="236,-652.5 236,-687.5 489,-687.5 489,-652.5 236,-652.5"/>
<text text-anchor="start" x="246.3659" y="-665.3" font-family="Arial Bold" font-size="18.00" fill="#000000">public.comments</text>
<text text-anchor="start" x="381.3803" y="-665.3" font-family="Arial" font-size="14.00" fill="#000000"> </text>
<text text-anchor="start" x="385.2709" y="-665.3" font-family="Arial" font-size="14.00" fill="#666666">[BASE TABLE]</text>
<polygon fill="none" stroke="#000000" points="236,-622.5 236,-652.5 489,-652.5 489,-622.5 236,-622.5"/>
<text text-anchor="start" x="243" y="-633.9" font-family="Arial" font-size="14.00" fill="#000000">id </text>
<text text-anchor="start" x="257.7798" y="-633.9" font-family="Arial" font-size="14.00" fill="#666666">[bigint]</text>
<polygon fill="none" stroke="#000000" points="236,-592.5 236,-622.5 489,-622.5 489,-592.5 236,-592.5"/>
<text text-anchor="start" x="243" y="-603.9" font-family="Arial" font-size="14.00" fill="#000000">post_id </text>
<text text-anchor="start" x="292.0182" y="-603.9" font-family="Arial" font-size="14.00" fill="#666666">[bigint]</text>
<polygon fill="none" stroke="#000000" points="236,-562.5 236,-592.5 489,-592.5 489,-562.5 236,-562.5"/>
<text text-anchor="start" x="243" y="-573.9" font-family="Arial" font-size="14.00" fill="#000000">user_id </text>
<text text-anchor="start" x="292.7882" y="-573.9" font-family="Arial" font-size="14.00" fill="#666666">[integer]</text>
<polygon fill="none" stroke="#000000" points="236,-532.5 236,-562.5 489,-562.5 489,-532.5 236,-532.5"/>
<text text-anchor="start" x="243" y="-543.9" font-family="Arial" font-size="14.00" fill="#000000">comment </text>
<text text-anchor="start" x="304.4502" y="-543.9" font-family="Arial" font-size="14.00" fill="#666666">[text]</text>
<polygon fill="none" stroke="#000000" points="236,-502.5 236,-532.5 489,-532.5 489,-502.5 236,-502.5"/>
<text text-anchor="start" x="243" y="-513.9" font-family="Arial" font-size="14.00" fill="#000000">post_id_desc </text>
<text text-anchor="start" x="329.366" y="-513.9" font-family="Arial" font-size="14.00" fill="#666666">[bigint]</text>
<polygon fill="none" stroke="#000000" points="236,-472.5 236,-502.5 489,-502.5 489,-472.5 236,-472.5"/>
<text text-anchor="start" x="243" y="-483.9" font-family="Arial" font-size="14.00" fill="#000000">created </text>
<text text-anchor="start" x="293.5722" y="-483.9" font-family="Arial" font-size="14.00" fill="#666666">[timestamp without time zone]</text>
<polygon fill="none" stroke="#000000" points="236,-442.5 236,-472.5 489,-472.5 489,-442.5 236,-442.5"/>
<text text-anchor="start" x="242.6915" y="-453.9" font-family="Arial" font-size="14.00" fill="#000000">updated </text>
<text text-anchor="start" x="297.1683" y="-453.9" font-family="Arial" font-size="14.00" fill="#666666">[timestamp without time zone]</text>
<polygon fill="none" stroke="#000000" stroke-width="3" points="234,-441.5 234,-689.5 490,-689.5 490,-441.5 234,-441.5"/>
</g>
<!-- public.posts -->
<g id="node3" class="node">
<title>public.posts</title>
<polygon fill="#efefef" stroke="transparent" points="58,-282.5 58,-317.5 311,-317.5 311,-282.5 58,-282.5"/>
<polygon fill="none" stroke="#000000" points="58,-282.5 58,-317.5 311,-317.5 311,-282.5 58,-282.5"/>
<text text-anchor="start" x="88.3612" y="-295.3" font-family="Arial Bold" font-size="18.00" fill="#000000">public.posts</text>
<text text-anchor="start" x="183.385" y="-295.3" font-family="Arial" font-size="14.00" fill="#000000"> </text>
<text text-anchor="start" x="187.2756" y="-295.3" font-family="Arial" font-size="14.00" fill="#666666">[BASE TABLE]</text>
<polygon fill="none" stroke="#000000" points="58,-252.5 58,-282.5 311,-282.5 311,-252.5 58,-252.5"/>
<text text-anchor="start" x="65" y="-263.9" font-family="Arial" font-size="14.00" fill="#000000">id </text>
<text text-anchor="start" x="79.7798" y="-263.9" font-family="Arial" font-size="14.00" fill="#666666">[bigint]</text>
<polygon fill="none" stroke="#000000" points="58,-222.5 58,-252.5 311,-252.5 311,-222.5 58,-222.5"/>
<text text-anchor="start" x="65" y="-233.9" font-family="Arial" font-size="14.00" fill="#000000">user_id </text>
<text text-anchor="start" x="114.7882" y="-233.9" font-family="Arial" font-size="14.00" fill="#666666">[integer]</text>
<polygon fill="none" stroke="#000000" points="58,-192.5 58,-222.5 311,-222.5 311,-192.5 58,-192.5"/>
<text text-anchor="start" x="65" y="-203.9" font-family="Arial" font-size="14.00" fill="#000000">title </text>
<text text-anchor="start" x="90.6676" y="-203.9" font-family="Arial" font-size="14.00" fill="#666666">[varchar(255)]</text>
<polygon fill="none" stroke="#000000" points="58,-162.5 58,-192.5 311,-192.5 311,-162.5 58,-162.5"/>
<text text-anchor="start" x="65" y="-173.9" font-family="Arial" font-size="14.00" fill="#000000">body </text>
<text text-anchor="start" x="99.2384" y="-173.9" font-family="Arial" font-size="14.00" fill="#666666">[text]</text>
<polygon fill="none" stroke="#000000" points="58,-132.5 58,-162.5 311,-162.5 311,-132.5 58,-132.5"/>
<text text-anchor="start" x="65" y="-143.9" font-family="Arial" font-size="14.00" fill="#000000">post_type </text>
<text text-anchor="start" x="129.5848" y="-143.9" font-family="Arial" font-size="14.00" fill="#666666">[post_types]</text>
<polygon fill="none" stroke="#000000" points="58,-102.5 58,-132.5 311,-132.5 311,-102.5 58,-102.5"/>
<text text-anchor="start" x="65" y="-113.9" font-family="Arial" font-size="14.00" fill="#000000">labels </text>
<text text-anchor="start" x="105.4516" y="-113.9" font-family="Arial" font-size="14.00" fill="#666666">[varchar(50)[]]</text>
<polygon fill="none" stroke="#000000" points="58,-72.5 58,-102.5 311,-102.5 311,-72.5 58,-72.5"/>
<text text-anchor="start" x="65" y="-83.9" font-family="Arial" font-size="14.00" fill="#000000">created </text>
<text text-anchor="start" x="115.5722" y="-83.9" font-family="Arial" font-size="14.00" fill="#666666">[timestamp without time zone]</text>
<polygon fill="none" stroke="#000000" points="58,-42.5 58,-72.5 311,-72.5 311,-42.5 58,-42.5"/>
<text text-anchor="start" x="64.6915" y="-53.9" font-family="Arial" font-size="14.00" fill="#000000">updated </text>
<text text-anchor="start" x="119.1683" y="-53.9" font-family="Arial" font-size="14.00" fill="#666666">[timestamp without time zone]</text>
</g>
<!-- public.comments&#45;&gt;public.posts -->
<g id="edge2" class="edge">
<title>public.comments:post_id&#45;&gt;public.posts:id</title>
<path fill="none" stroke="#000000" d="M225.6571,-606.9098C145.8702,-597.3205 188.1211,-473.0908 236,-397 255.6916,-365.7054 291.3084,-392.2946 311,-361 333.1314,-325.8281 352.5556,-267.5 311,-267.5"/>
<polygon fill="#000000" stroke="#000000" points="226.0162,-606.9302 235.7436,-611.9927 231.0081,-607.2151 236,-607.5 236,-607.5 236,-607.5 231.0081,-607.2151 236.2564,-603.0073 226.0162,-606.9302 226.0162,-606.9302"/>
<text text-anchor="start" x="6.8845" y="-617.5" font-family="Arial" font-size="10.00" fill="#000000">FOREIGN KEY (post_id) REFERENCES posts(id)</text>
</g>
<!-- public.users -->
<g id="node5" class="node">
<title>public.users</title>
<polygon fill="#efefef" stroke="transparent" points="415,-252.5 415,-287.5 668,-287.5 668,-252.5 415,-252.5"/>
<polygon fill="none" stroke="#000000" points="415,-252.5 415,-287.5 668,-287.5 668,-252.5 415,-252.5"/>
<text text-anchor="start" x="444.8662" y="-265.3" font-family="Arial Bold" font-size="18.00" fill="#000000">public.users</text>
<text text-anchor="start" x="540.88" y="-265.3" font-family="Arial" font-size="14.00" fill="#000000"> </text>
<text text-anchor="start" x="544.7706" y="-265.3" font-family="Arial" font-size="14.00" fill="#666666">[BASE TABLE]</text>
<polygon fill="none" stroke="#000000" points="415,-222.5 415,-252.5 668,-252.5 668,-222.5 415,-222.5"/>
<text text-anchor="start" x="422" y="-233.9" font-family="Arial" font-size="14.00" fill="#000000">id </text>
<text text-anchor="start" x="436.7798" y="-233.9" font-family="Arial" font-size="14.00" fill="#666666">[integer]</text>
<polygon fill="none" stroke="#000000" points="415,-192.5 415,-222.5 668,-222.5 668,-192.5 415,-192.5"/>
<text text-anchor="start" x="422" y="-203.9" font-family="Arial" font-size="14.00" fill="#000000">username </text>
<text text-anchor="start" x="488.1248" y="-203.9" font-family="Arial" font-size="14.00" fill="#666666">[varchar(50)]</text>
<polygon fill="none" stroke="#000000" points="415,-162.5 415,-192.5 668,-192.5 668,-162.5 415,-162.5"/>
<text text-anchor="start" x="422" y="-173.9" font-family="Arial" font-size="14.00" fill="#000000">password </text>
<text text-anchor="start" x="485.7882" y="-173.9" font-family="Arial" font-size="14.00" fill="#666666">[varchar(50)]</text>
<polygon fill="none" stroke="#000000" points="415,-132.5 415,-162.5 668,-162.5 668,-132.5 415,-132.5"/>
<text text-anchor="start" x="422" y="-143.9" font-family="Arial" font-size="14.00" fill="#000000">email </text>
<text text-anchor="start" x="459.3296" y="-143.9" font-family="Arial" font-size="14.00" fill="#666666">[varchar(355)]</text>
<polygon fill="none" stroke="#000000" points="415,-102.5 415,-132.5 668,-132.5 668,-102.5 415,-102.5"/>
<text text-anchor="start" x="422" y="-113.9" font-family="Arial" font-size="14.00" fill="#000000">created </text>
<text text-anchor="start" x="472.5722" y="-113.9" font-family="Arial" font-size="14.00" fill="#666666">[timestamp without time zone]</text>
<polygon fill="none" stroke="#000000" points="415,-72.5 415,-102.5 668,-102.5 668,-72.5 415,-72.5"/>
<text text-anchor="start" x="421.6915" y="-83.9" font-family="Arial" font-size="14.00" fill="#000000">updated </text>
<text text-anchor="start" x="476.1683" y="-83.9" font-family="Arial" font-size="14.00" fill="#666666">[timestamp without time zone]</text>
</g>
<!-- public.comments&#45;&gt;public.users -->
<g id="edge4" class="edge">
<title>public.comments:user_id&#45;&gt;public.users:id</title>
<path fill="none" stroke="#000000" d="M499.3026,-577.4054C781.2655,-572.1044 421.6513,-345.8448 415,-331 398.0083,-293.0771 373.4444,-237.5 415,-237.5"/>
<polygon fill="#000000" stroke="#000000" points="498.9996,-577.408 488.9586,-573.0002 493.9998,-577.454 489,-577.5 489,-577.5 489,-577.5 493.9998,-577.454 489.0414,-581.9998 498.9996,-577.408 498.9996,-577.408"/>
<text text-anchor="start" x="496.3345" y="-587.5" font-family="Arial" font-size="10.00" fill="#000000">FOREIGN KEY (user_id) REFERENCES users(id)</text>
</g>
<!-- public.logs -->
<g id="node2" class="node">
<title>public.logs</title>
<polygon fill="#efefef" stroke="transparent" points="53,-1022.5 53,-1057.5 302,-1057.5 302,-1022.5 53,-1022.5"/>
<polygon fill="none" stroke="#000000" points="53,-1022.5 53,-1057.5 302,-1057.5 302,-1022.5 53,-1022.5"/>
<text text-anchor="start" x="86.3652" y="-1035.3" font-family="Arial Bold" font-size="18.00" fill="#000000">public.logs</text>
<text text-anchor="start" x="171.381" y="-1035.3" font-family="Arial" font-size="14.00" fill="#000000"> </text>
<text text-anchor="start" x="175.2716" y="-1035.3" font-family="Arial" font-size="14.00" fill="#666666">[BASE TABLE]</text>
<polygon fill="none" stroke="#000000" points="53,-992.5 53,-1022.5 302,-1022.5 302,-992.5 53,-992.5"/>
<text text-anchor="start" x="60" y="-1003.9" font-family="Arial" font-size="14.00" fill="#000000">id </text>
<text text-anchor="start" x="74.7798" y="-1003.9" font-family="Arial" font-size="14.00" fill="#666666">[uuid]</text>
<polygon fill="none" stroke="#000000" points="53,-962.5 53,-992.5 302,-992.5 302,-962.5 53,-962.5"/>
<text text-anchor="start" x="60" y="-973.9" font-family="Arial" font-size="14.00" fill="#000000">user_id </text>
<text text-anchor="start" x="109.7882" y="-973.9" font-family="Arial" font-size="14.00" fill="#666666">[integer]</text>
<polygon fill="none" stroke="#000000" points="53,-932.5 53,-962.5 302,-962.5 302,-932.5 53,-932.5"/>
<text text-anchor="start" x="60" y="-943.9" font-family="Arial" font-size="14.00" fill="#000000">post_id </text>
<text text-anchor="start" x="109.0182" y="-943.9" font-family="Arial" font-size="14.00" fill="#666666">[bigint]</text>
<polygon fill="none" stroke="#000000" points="53,-902.5 53,-932.5 302,-932.5 302,-902.5 53,-902.5"/>
<text text-anchor="start" x="60" y="-913.9" font-family="Arial" font-size="14.00" fill="#000000">comment_id </text>
<text text-anchor="start" x="140.122" y="-913.9" font-family="Arial" font-size="14.00" fill="#666666">[bigint]</text>
<polygon fill="none" stroke="#000000" points="53,-872.5 53,-902.5 302,-902.5 302,-872.5 53,-872.5"/>
<text text-anchor="start" x="60" y="-883.9" font-family="Arial" font-size="14.00" fill="#000000">comment_star_id </text>
<text text-anchor="start" x="171.2384" y="-883.9" font-family="Arial" font-size="14.00" fill="#666666">[uuid]</text>
<polygon fill="none" stroke="#000000" points="53,-842.5 53,-872.5 302,-872.5 302,-842.5 53,-842.5"/>
<text text-anchor="start" x="60" y="-853.9" font-family="Arial" font-size="14.00" fill="#000000">payload </text>
<text text-anchor="start" x="112.9102" y="-853.9" font-family="Arial" font-size="14.00" fill="#666666">[text]</text>
<polygon fill="none" stroke="#000000" points="53,-812.5 53,-842.5 302,-842.5 302,-812.5 53,-812.5"/>
<text text-anchor="start" x="59.6438" y="-823.9" font-family="Arial" font-size="14.00" fill="#000000">created </text>
<text text-anchor="start" x="110.216" y="-823.9" font-family="Arial" font-size="14.00" fill="#666666">[timestamp without time zone]</text>
</g>
<!-- public.logs&#45;&gt;public.comments -->
<g id="edge1" class="edge">
<title>public.logs:comment_id&#45;&gt;public.comments:id</title>
<path fill="none" stroke="#000000" stroke-dasharray="5,2" d="M312.217,-916.6458C363.9158,-907.2883 333.5684,-823.1783 302,-770 284.9437,-741.268 253.0563,-762.732 236,-734 214.1067,-697.1199 193.1111,-637.5 236,-637.5"/>
<polygon fill="#000000" stroke="#000000" points="311.9652,-916.6668 301.625,-913.0156 306.9826,-917.0834 302,-917.5 302,-917.5 302,-917.5 306.9826,-917.0834 302.375,-921.9844 311.9652,-916.6668 311.9652,-916.6668"/>
<text text-anchor="start" x="309.3245" y="-927.5" font-family="Arial" font-size="10.00" fill="#000000">Additional Relation</text>
</g>
<!-- public.comment_stars -->
<g id="node4" class="node">
<title>public.comment_stars</title>
<polygon fill="#efefef" stroke="transparent" points="406,-1007.5 406,-1042.5 692,-1042.5 692,-1007.5 406,-1007.5"/>
<polygon fill="none" stroke="#000000" points="406,-1007.5 406,-1042.5 692,-1042.5 692,-1007.5 406,-1007.5"/>
<text text-anchor="start" x="412.8625" y="-1020.3" font-family="Arial Bold" font-size="18.00" fill="#000000">public.comment_stars</text>
<text text-anchor="start" x="587.8837" y="-1020.3" font-family="Arial" font-size="14.00" fill="#000000"> </text>
<text text-anchor="start" x="591.7743" y="-1020.3" font-family="Arial" font-size="14.00" fill="#666666">[BASE TABLE]</text>
<polygon fill="none" stroke="#000000" points="406,-977.5 406,-1007.5 692,-1007.5 692,-977.5 406,-977.5"/>
<text text-anchor="start" x="413" y="-988.9" font-family="Arial" font-size="14.00" fill="#000000">id </text>
<text text-anchor="start" x="427.7798" y="-988.9" font-family="Arial" font-size="14.00" fill="#666666">[uuid]</text>
<polygon fill="none" stroke="#000000" points="406,-947.5 406,-977.5 692,-977.5 692,-947.5 406,-947.5"/>
<text text-anchor="start" x="413" y="-958.9" font-family="Arial" font-size="14.00" fill="#000000">user_id </text>
<text text-anchor="start" x="462.7882" y="-958.9" font-family="Arial" font-size="14.00" fill="#666666">[integer]</text>
<polygon fill="none" stroke="#000000" points="406,-917.5 406,-947.5 692,-947.5 692,-917.5 406,-917.5"/>
<text text-anchor="start" x="413" y="-928.9" font-family="Arial" font-size="14.00" fill="#000000">comment_post_id </text>
<text text-anchor="start" x="527.3604" y="-928.9" font-family="Arial" font-size="14.00" fill="#666666">[bigint]</text>
<polygon fill="none" stroke="#000000" points="406,-887.5 406,-917.5 692,-917.5 692,-887.5 406,-887.5"/>
<text text-anchor="start" x="413" y="-898.9" font-family="Arial" font-size="14.00" fill="#000000">comment_user_id </text>
<text text-anchor="start" x="528.1304" y="-898.9" font-family="Arial" font-size="14.00" fill="#666666">[integer]</text>
<polygon fill="none" stroke="#000000" points="406,-857.5 406,-887.5 692,-887.5 692,-857.5 406,-857.5"/>
<text text-anchor="start" x="413" y="-868.9" font-family="Arial" font-size="14.00" fill="#000000">created </text>
<text text-anchor="start" x="463.5722" y="-868.9" font-family="Arial" font-size="14.00" fill="#666666">[timestamp without time zone]</text>
<polygon fill="none" stroke="#000000" points="406,-827.5 406,-857.5 692,-857.5 692,-827.5 406,-827.5"/>
<text text-anchor="start" x="413" y="-838.9" font-family="Arial" font-size="14.00" fill="#000000">updated </text>
<text text-anchor="start" x="467.4768" y="-838.9" font-family="Arial" font-size="14.00" fill="#666666">[timestamp without time zone]</text>
</g>
<!-- public.comment_stars&#45;&gt;public.comments -->
<g id="edge3" class="edge">
<title>public.comment_stars:comment_post_id&#45;&gt;public.comments:post_id</title>
<path fill="none" stroke="#000000" d="M395.7963,-931.6535C344.2409,-922.3786 375.8149,-838.9755 406,-785 427.1327,-747.2114 467.8673,-771.7886 489,-734 516.4418,-684.9298 545.2222,-607.5 489,-607.5"/>
<polygon fill="#000000" stroke="#000000" points="396.0342,-931.6731 405.6279,-936.9846 401.0171,-932.0866 406,-932.5 406,-932.5 406,-932.5 401.0171,-932.0866 406.3721,-928.0154 396.0342,-931.6731 396.0342,-931.6731"/>
<text text-anchor="start" x="412.533" y="-942.5" font-family="Arial" font-size="10.00" fill="#000000">FOREIGN KEY (comment_post_id, comment_user_id) REFERENCES comments(post_id, user_id)</text>
</g>
</g>
</svg>
