<?xml version="1.0" encoding="UTF-8" standalone="no"?>
<!DOCTYPE svg PUBLIC "-//W3C//DTD SVG 1.1//EN"
 "http://www.w3.org/Graphics/SVG/1.1/DTD/svg11.dtd">
<!-- Generated by graphviz version 12.1.2 (20240928.0832)
 -->
<!-- Title: testdb Pages: 1 -->
<svg width="3100pt" height="1809pt"
 viewBox="0.00 0.00 3100.08 1809.20" xmlns="http://www.w3.org/2000/svg" xmlns:xlink="http://www.w3.org/1999/xlink">
<g id="graph0" class="graph" transform="scale(1 1) rotate(0) translate(4 1805.2)">
<title>testdb</title>
<polygon fill="white" stroke="none" points="-4,4 -4,-1805.2 3096.08,-1805.2 3096.08,4 -4,4"/>
<!-- public.users -->
<g id="node1" class="node">
<title>public.users</title>
<polygon fill="#efefef" stroke="none" points="573.2,-228 573.2,-263.6 854.11,-263.6 854.11,-228 573.2,-228"/>
<polygon fill="none" stroke="black" points="573.2,-228 573.2,-263.6 854.11,-263.6 854.11,-228 573.2,-228"/>
<text text-anchor="start" x="608.17" y="-241.4" font-family="Arial Bold" font-size="18.00">public.users</text>
<text text-anchor="start" x="694.65" y="-241.4" font-family="Arial" font-size="14.00">    </text>
<text text-anchor="start" x="725.77" y="-241.4" font-family="Arial" font-size="14.00" fill="#666666">[BASE TABLE]</text>
<polygon fill="none" stroke="black" points="573.2,-197.2 573.2,-228 854.11,-228 854.11,-197.2 573.2,-197.2"/>
<text text-anchor="start" x="580.2" y="-209.4" font-family="Arial" font-size="14.00">id    </text>
<text text-anchor="start" x="622.21" y="-209.4" font-family="Arial" font-size="14.00" fill="#666666">[integer]</text>
<polygon fill="none" stroke="black" points="573.2,-166.4 573.2,-197.2 854.11,-197.2 854.11,-166.4 573.2,-166.4"/>
<text text-anchor="start" x="580.2" y="-178.6" font-family="Arial" font-size="14.00">username    </text>
<text text-anchor="start" x="673.57" y="-178.6" font-family="Arial" font-size="14.00" fill="#666666">[varchar(50)]</text>
<polygon fill="none" stroke="black" points="573.2,-135.6 573.2,-166.4 854.11,-166.4 854.11,-135.6 573.2,-135.6"/>
<text text-anchor="start" x="580.2" y="-147.8" font-family="Arial" font-size="14.00">password    </text>
<text text-anchor="start" x="671.23" y="-147.8" font-family="Arial" font-size="14.00" fill="#666666">[varchar(50)]</text>
<polygon fill="none" stroke="black" points="573.2,-104.8 573.2,-135.6 854.11,-135.6 854.11,-104.8 573.2,-104.8"/>
<text text-anchor="start" x="580.2" y="-117" font-family="Arial" font-size="14.00">email    </text>
<text text-anchor="start" x="644.77" y="-117" font-family="Arial" font-size="14.00" fill="#666666">[varchar(355)]</text>
<polygon fill="none" stroke="black" points="573.2,-74 573.2,-104.8 854.11,-104.8 854.11,-74 573.2,-74"/>
<text text-anchor="start" x="580.2" y="-86.2" font-family="Arial" font-size="14.00">created    </text>
<text text-anchor="start" x="658.01" y="-86.2" font-family="Arial" font-size="14.00" fill="#666666">[timestamp without time zone]</text>
<polygon fill="none" stroke="black" points="573.2,-43.2 573.2,-74 854.11,-74 854.11,-43.2 573.2,-43.2"/>
<text text-anchor="start" x="580.2" y="-55.4" font-family="Arial" font-size="14.00">updated    </text>
<text text-anchor="start" x="661.92" y="-55.4" font-family="Arial" font-size="14.00" fill="#666666">[timestamp without time zone]</text>
</g>
<!-- public.user_options -->
<g id="node2" class="node">
<title>public.user_options</title>
<polygon fill="#efefef" stroke="none" points="43.2,-570.8 43.2,-606.4 324.11,-606.4 324.11,-570.8 43.2,-570.8"/>
<polygon fill="none" stroke="black" points="43.2,-570.8 43.2,-606.4 324.11,-606.4 324.11,-570.8 43.2,-570.8"/>
<text text-anchor="start" x="50.67" y="-584.2" font-family="Arial Bold" font-size="18.00">public.user_options</text>
<text text-anchor="start" x="192.15" y="-584.2" font-family="Arial" font-size="14.00">    </text>
<text text-anchor="start" x="223.27" y="-584.2" font-family="Arial" font-size="14.00" fill="#666666">[BASE TABLE]</text>
<polygon fill="none" stroke="black" points="43.2,-540 43.2,-570.8 324.11,-570.8 324.11,-540 43.2,-540"/>
<text text-anchor="start" x="50.2" y="-552.2" font-family="Arial" font-size="14.00">user_id    </text>
<text text-anchor="start" x="127.23" y="-552.2" font-family="Arial" font-size="14.00" fill="#666666">[integer]</text>
<polygon fill="none" stroke="black" points="43.2,-509.2 43.2,-540 324.11,-540 324.11,-509.2 43.2,-509.2"/>
<text text-anchor="start" x="50.2" y="-521.4" font-family="Arial" font-size="14.00">show_email    </text>
<text text-anchor="start" x="155.24" y="-521.4" font-family="Arial" font-size="14.00" fill="#666666">[boolean]</text>
<polygon fill="none" stroke="black" points="43.2,-478.4 43.2,-509.2 324.11,-509.2 324.11,-478.4 43.2,-478.4"/>
<text text-anchor="start" x="50.2" y="-490.6" font-family="Arial" font-size="14.00">created    </text>
<text text-anchor="start" x="128.01" y="-490.6" font-family="Arial" font-size="14.00" fill="#666666">[timestamp without time zone]</text>
<polygon fill="none" stroke="black" points="43.2,-447.6 43.2,-478.4 324.11,-478.4 324.11,-447.6 43.2,-447.6"/>
<text text-anchor="start" x="50.2" y="-459.8" font-family="Arial" font-size="14.00">updated    </text>
<text text-anchor="start" x="131.92" y="-459.8" font-family="Arial" font-size="14.00" fill="#666666">[timestamp without time zone]</text>
</g>
<!-- public.user_options&#45;&gt;public.users -->
<g id="edge1" class="edge">
<title>public.user_options:user_id&#45;&gt;public.users:id</title>
<path fill="none" stroke="black" d="M335.2,-554.86C415.84,-545.62 327.29,-419.66 381.65,-342.8 440.89,-259.06 469.63,-212.6 572.2,-212.6"/>
<polygon fill="black" stroke="black" points="335.43,-554.85 325.2,-550.89 330.1,-555.13 325.78,-555.36 325.78,-555.36 325.78,-555.36 330.1,-555.13 325.68,-559.88 335.43,-554.85"/>
<text text-anchor="start" x="158.13" y="-539.4" font-family="Arial" font-size="10.00">FOREIGN KEY (user_id) REFERENCES users(id) ON DELETE CASCADE</text>
</g>
<!-- public.posts -->
<g id="node3" class="node">
<title>public.posts</title>
<polygon fill="#efefef" stroke="none" points="467.2,-632.4 467.2,-668 748.11,-668 748.11,-632.4 467.2,-632.4"/>
<polygon fill="none" stroke="black" points="467.2,-632.4 467.2,-668 748.11,-668 748.11,-632.4 467.2,-632.4"/>
<text text-anchor="start" x="502.16" y="-645.8" font-family="Arial Bold" font-size="18.00">public.posts</text>
<text text-anchor="start" x="588.66" y="-645.8" font-family="Arial" font-size="14.00">    </text>
<text text-anchor="start" x="619.78" y="-645.8" font-family="Arial" font-size="14.00" fill="#666666">[BASE TABLE]</text>
<polygon fill="none" stroke="black" points="467.2,-601.6 467.2,-632.4 748.11,-632.4 748.11,-601.6 467.2,-601.6"/>
<text text-anchor="start" x="474.2" y="-613.8" font-family="Arial" font-size="14.00">id    </text>
<text text-anchor="start" x="516.21" y="-613.8" font-family="Arial" font-size="14.00" fill="#666666">[bigint]</text>
<polygon fill="none" stroke="black" points="467.2,-570.8 467.2,-601.6 748.11,-601.6 748.11,-570.8 467.2,-570.8"/>
<text text-anchor="start" x="474.2" y="-583" font-family="Arial" font-size="14.00">user_id    </text>
<text text-anchor="start" x="551.23" y="-583" font-family="Arial" font-size="14.00" fill="#666666">[integer]</text>
<polygon fill="none" stroke="black" points="467.2,-540 467.2,-570.8 748.11,-570.8 748.11,-540 467.2,-540"/>
<text text-anchor="start" x="474.2" y="-552.2" font-family="Arial" font-size="14.00">title    </text>
<text text-anchor="start" x="527.1" y="-552.2" font-family="Arial" font-size="14.00" fill="#666666">[varchar(255)]</text>
<polygon fill="none" stroke="black" points="467.2,-509.2 467.2,-540 748.11,-540 748.11,-509.2 467.2,-509.2"/>
<text text-anchor="start" x="474.2" y="-521.4" font-family="Arial" font-size="14.00">body    </text>
<text text-anchor="start" x="535.68" y="-521.4" font-family="Arial" font-size="14.00" fill="#666666">[text]</text>
<polygon fill="none" stroke="black" points="467.2,-478.4 467.2,-509.2 748.11,-509.2 748.11,-478.4 467.2,-478.4"/>
<text text-anchor="start" x="474.2" y="-490.6" font-family="Arial" font-size="14.00">post_type    </text>
<text text-anchor="start" x="566.03" y="-490.6" font-family="Arial" font-size="14.00" fill="#666666">[post_types]</text>
<polygon fill="none" stroke="black" points="467.2,-447.6 467.2,-478.4 748.11,-478.4 748.11,-447.6 467.2,-447.6"/>
<text text-anchor="start" x="474.2" y="-459.8" font-family="Arial" font-size="14.00">labels    </text>
<text text-anchor="start" x="541.9" y="-459.8" font-family="Arial" font-size="14.00" fill="#666666">[varchar(50)[]]</text>
<polygon fill="none" stroke="black" points="467.2,-416.8 467.2,-447.6 748.11,-447.6 748.11,-416.8 467.2,-416.8"/>
<text text-anchor="start" x="474.2" y="-429" font-family="Arial" font-size="14.00">created    </text>
<text text-anchor="start" x="552.01" y="-429" font-family="Arial" font-size="14.00" fill="#666666">[timestamp without time zone]</text>
<polygon fill="none" stroke="black" points="467.2,-386 467.2,-416.8 748.11,-416.8 748.11,-386 467.2,-386"/>
<text text-anchor="start" x="474.2" y="-398.2" font-family="Arial" font-size="14.00">updated    </text>
<text text-anchor="start" x="555.92" y="-398.2" font-family="Arial" font-size="14.00" fill="#666666">[timestamp without time zone]</text>
</g>
<!-- public.posts&#45;&gt;public.users -->
<g id="edge2" class="edge">
<title>public.posts:user_id&#45;&gt;public.users:id</title>
<path fill="none" stroke="black" d="M759.17,-583.49C800.29,-559.39 780.03,-381.79 748.11,-342.8 697.84,-281.38 623.67,-368.05 573.2,-306.8 546.57,-274.49 530.33,-212.6 572.2,-212.6"/>
<polygon fill="black" stroke="black" points="759.09,-583.51 748.26,-581.77 753.94,-584.9 749.76,-586.03 749.76,-586.03 749.76,-586.03 753.94,-584.9 750.6,-590.46 759.09,-583.51"/>
<text text-anchor="start" x="756.11" y="-596.2" font-family="Arial" font-size="10.00">FOREIGN KEY (user_id) REFERENCES users(id) ON DELETE SET NULL (user_id)</text>
</g>
<!-- public.comments -->
<g id="node4" class="node">
<title>public.comments</title>
<polygon fill="#efefef" stroke="none" points="505.2,-1006 505.2,-1041.6 786.11,-1041.6 786.11,-1006 505.2,-1006"/>
<polygon fill="none" stroke="black" points="505.2,-1006 505.2,-1041.6 786.11,-1041.6 786.11,-1006 505.2,-1006"/>
<text text-anchor="start" x="521.67" y="-1019.4" font-family="Arial Bold" font-size="18.00">public.comments</text>
<text text-anchor="start" x="645.15" y="-1019.4" font-family="Arial" font-size="14.00">    </text>
<text text-anchor="start" x="676.27" y="-1019.4" font-family="Arial" font-size="14.00" fill="#666666">[BASE TABLE]</text>
<polygon fill="none" stroke="black" points="505.2,-975.2 505.2,-1006 786.11,-1006 786.11,-975.2 505.2,-975.2"/>
<text text-anchor="start" x="512.2" y="-987.4" font-family="Arial" font-size="14.00">id    </text>
<text text-anchor="start" x="554.21" y="-987.4" font-family="Arial" font-size="14.00" fill="#666666">[bigint]</text>
<polygon fill="none" stroke="black" points="505.2,-944.4 505.2,-975.2 786.11,-975.2 786.11,-944.4 505.2,-944.4"/>
<text text-anchor="start" x="512.2" y="-956.6" font-family="Arial" font-size="14.00">post_id    </text>
<text text-anchor="start" x="588.46" y="-956.6" font-family="Arial" font-size="14.00" fill="#666666">[bigint]</text>
<polygon fill="none" stroke="black" points="505.2,-913.6 505.2,-944.4 786.11,-944.4 786.11,-913.6 505.2,-913.6"/>
<text text-anchor="start" x="512.2" y="-925.8" font-family="Arial" font-size="14.00">user_id    </text>
<text text-anchor="start" x="589.23" y="-925.8" font-family="Arial" font-size="14.00" fill="#666666">[integer]</text>
<polygon fill="none" stroke="black" points="505.2,-882.8 505.2,-913.6 786.11,-913.6 786.11,-882.8 505.2,-882.8"/>
<text text-anchor="start" x="512.2" y="-895" font-family="Arial" font-size="14.00">comment    </text>
<text text-anchor="start" x="600.89" y="-895" font-family="Arial" font-size="14.00" fill="#666666">[text]</text>
<polygon fill="none" stroke="black" points="505.2,-852 505.2,-882.8 786.11,-882.8 786.11,-852 505.2,-852"/>
<text text-anchor="start" x="512.2" y="-864.2" font-family="Arial" font-size="14.00">post_id_desc    </text>
<text text-anchor="start" x="625.82" y="-864.2" font-family="Arial" font-size="14.00" fill="#666666">[bigint]</text>
<polygon fill="none" stroke="black" points="505.2,-821.2 505.2,-852 786.11,-852 786.11,-821.2 505.2,-821.2"/>
<text text-anchor="start" x="512.2" y="-833.4" font-family="Arial" font-size="14.00">created    </text>
<text text-anchor="start" x="590.01" y="-833.4" font-family="Arial" font-size="14.00" fill="#666666">[timestamp without time zone]</text>
<polygon fill="none" stroke="black" points="505.2,-790.4 505.2,-821.2 786.11,-821.2 786.11,-790.4 505.2,-790.4"/>
<text text-anchor="start" x="512.2" y="-802.6" font-family="Arial" font-size="14.00">updated    </text>
<text text-anchor="start" x="593.92" y="-802.6" font-family="Arial" font-size="14.00" fill="#666666">[timestamp without time zone]</text>
</g>
<!-- public.comments&#45;&gt;public.users -->
<g id="edge3" class="edge">
<title>public.comments:user_id&#45;&gt;public.users:id</title>
<path fill="none" stroke="black" d="M796.42,-925.09C850.48,-877.17 831.96,-403.8 843.65,-342.8 854.59,-285.75 913.2,-212.6 855.11,-212.6"/>
<polygon fill="black" stroke="black" points="796.64,-925 785.68,-924.72 791.72,-927.06 787.73,-928.74 787.73,-928.74 787.73,-928.74 791.72,-927.06 789.16,-933.02 796.64,-925"/>
<text text-anchor="start" x="794.11" y="-939" font-family="Arial" font-size="10.00">FOREIGN KEY (user_id) REFERENCES users(id)</text>
</g>
<!-- public.comments&#45;&gt;public.posts -->
<g id="edge4" class="edge">
<title>public.comments:post_id&#45;&gt;public.posts:id</title>
<path fill="none" stroke="black" d="M494.28,-956.71C459.74,-933.02 476.67,-780.11 505.2,-747.2 576.69,-664.73 676.38,-793.46 748.11,-711.2 775.63,-679.64 790.98,-617 749.11,-617"/>
<polygon fill="black" stroke="black" points="494.33,-956.73 502.54,-964 499.43,-958.31 503.56,-959.6 503.56,-959.6 503.56,-959.6 499.43,-958.31 505.22,-955.4 494.33,-956.73"/>
<text text-anchor="start" x="274.92" y="-969.8" font-family="Arial" font-size="10.00">FOREIGN KEY (post_id) REFERENCES posts(id)</text>
</g>
<!-- public.comment_stars -->
<g id="node5" class="node">
<title>public.comment_stars</title>
<polygon fill="#efefef" stroke="none" points="543.18,-1348.8 543.18,-1384.4 840.13,-1384.4 840.13,-1348.8 543.18,-1348.8"/>
<polygon fill="none" stroke="black" points="543.18,-1348.8 543.18,-1384.4 840.13,-1384.4 840.13,-1348.8 543.18,-1348.8"/>
<text text-anchor="start" x="550.18" y="-1362.2" font-family="Arial Bold" font-size="18.00">public.comment_stars</text>
<text text-anchor="start" x="708.64" y="-1362.2" font-family="Arial" font-size="14.00">    </text>
<text text-anchor="start" x="739.76" y="-1362.2" font-family="Arial" font-size="14.00" fill="#666666">[BASE TABLE]</text>
<polygon fill="none" stroke="black" points="543.18,-1318 543.18,-1348.8 840.13,-1348.8 840.13,-1318 543.18,-1318"/>
<text text-anchor="start" x="550.18" y="-1330.2" font-family="Arial" font-size="14.00">id    </text>
<text text-anchor="start" x="592.19" y="-1330.2" font-family="Arial" font-size="14.00" fill="#666666">[uuid]</text>
<polygon fill="none" stroke="black" points="543.18,-1287.2 543.18,-1318 840.13,-1318 840.13,-1287.2 543.18,-1287.2"/>
<text text-anchor="start" x="550.18" y="-1299.4" font-family="Arial" font-size="14.00">user_id    </text>
<text text-anchor="start" x="627.21" y="-1299.4" font-family="Arial" font-size="14.00" fill="#666666">[integer]</text>
<polygon fill="none" stroke="black" points="543.18,-1256.4 543.18,-1287.2 840.13,-1287.2 840.13,-1256.4 543.18,-1256.4"/>
<text text-anchor="start" x="550.18" y="-1268.6" font-family="Arial" font-size="14.00">comment_post_id    </text>
<text text-anchor="start" x="691.8" y="-1268.6" font-family="Arial" font-size="14.00" fill="#666666">[bigint]</text>
<polygon fill="none" stroke="black" points="543.18,-1225.6 543.18,-1256.4 840.13,-1256.4 840.13,-1225.6 543.18,-1225.6"/>
<text text-anchor="start" x="550.18" y="-1237.8" font-family="Arial" font-size="14.00">comment_user_id    </text>
<text text-anchor="start" x="692.57" y="-1237.8" font-family="Arial" font-size="14.00" fill="#666666">[integer]</text>
<polygon fill="none" stroke="black" points="543.18,-1194.8 543.18,-1225.6 840.13,-1225.6 840.13,-1194.8 543.18,-1194.8"/>
<text text-anchor="start" x="550.18" y="-1207" font-family="Arial" font-size="14.00">created    </text>
<text text-anchor="start" x="627.99" y="-1207" font-family="Arial" font-size="14.00" fill="#666666">[timestamp without time zone]</text>
<polygon fill="none" stroke="black" points="543.18,-1164 543.18,-1194.8 840.13,-1194.8 840.13,-1164 543.18,-1164"/>
<text text-anchor="start" x="550.18" y="-1176.2" font-family="Arial" font-size="14.00">updated    </text>
<text text-anchor="start" x="631.9" y="-1176.2" font-family="Arial" font-size="14.00" fill="#666666">[timestamp without time zone]</text>
</g>
<!-- public.comment_stars&#45;&gt;public.users -->
<g id="edge5" class="edge">
<title>public.comment_stars:comment_user_id&#45;&gt;public.users:id</title>
<path fill="none" stroke="black" d="M845.76,-1231.8C871.13,-1129.7 882.09,-212.6 855.11,-212.6"/>
<polygon fill="black" stroke="black" points="845.78,-1231.77 837.26,-1238.68 843.38,-1236.53 841.43,-1240.4 841.43,-1240.4 841.43,-1240.4 843.38,-1236.53 845.3,-1242.72 845.78,-1231.77"/>
<text text-anchor="start" x="848.13" y="-1251" font-family="Arial" font-size="10.00">FOREIGN KEY (comment_user_id) REFERENCES users(id)</text>
</g>
<!-- public.comment_stars&#45;&gt;public.comments -->
<g id="edge6" class="edge">
<title>public.comment_stars:comment_post_id&#45;&gt;public.comments:post_id</title>
<path fill="none" stroke="black" d="M531.97,-1270.92C477.76,-1260.97 501.58,-1168.7 543.18,-1120.8 614.75,-1038.39 714.48,-1167.16 786.11,-1084.8 822.57,-1042.88 842.67,-959.8 787.11,-959.8"/>
<polygon fill="black" stroke="black" points="531.88,-1270.92 541.46,-1276.25 537.19,-1271.37 541.51,-1271.74 541.51,-1271.74 541.51,-1271.74 537.19,-1271.37 542.23,-1267.29 531.88,-1270.92"/>
<text text-anchor="start" x="96.14" y="-1281.8" font-family="Arial" font-size="10.00">FOREIGN KEY (comment_post_id, comment_user_id) REFERENCES comments(post_id, user_id)</text>
</g>
<!-- public.logs -->
<g id="node6" class="node">
<title>public.logs</title>
<polygon fill="#efefef" stroke="none" points="314.16,-1722.4 314.16,-1758 591.15,-1758 591.15,-1722.4 314.16,-1722.4"/>
<polygon fill="none" stroke="black" points="314.16,-1722.4 314.16,-1758 591.15,-1758 591.15,-1722.4 314.16,-1722.4"/>
<text text-anchor="start" x="350.66" y="-1735.8" font-family="Arial Bold" font-size="18.00">public.logs</text>
<text text-anchor="start" x="430.16" y="-1735.8" font-family="Arial" font-size="14.00">    </text>
<text text-anchor="start" x="461.28" y="-1735.8" font-family="Arial" font-size="14.00" fill="#666666">[BASE TABLE]</text>
<polygon fill="none" stroke="black" points="314.16,-1691.6 314.16,-1722.4 591.15,-1722.4 591.15,-1691.6 314.16,-1691.6"/>
<text text-anchor="start" x="321.16" y="-1703.8" font-family="Arial" font-size="14.00">id    </text>
<text text-anchor="start" x="363.17" y="-1703.8" font-family="Arial" font-size="14.00" fill="#666666">[uuid]</text>
<polygon fill="none" stroke="black" points="314.16,-1660.8 314.16,-1691.6 591.15,-1691.6 591.15,-1660.8 314.16,-1660.8"/>
<text text-anchor="start" x="321.16" y="-1673" font-family="Arial" font-size="14.00">user_id    </text>
<text text-anchor="start" x="398.19" y="-1673" font-family="Arial" font-size="14.00" fill="#666666">[integer]</text>
<polygon fill="none" stroke="black" points="314.16,-1630 314.16,-1660.8 591.15,-1660.8 591.15,-1630 314.16,-1630"/>
<text text-anchor="start" x="321.16" y="-1642.2" font-family="Arial" font-size="14.00">post_id    </text>
<text text-anchor="start" x="397.42" y="-1642.2" font-family="Arial" font-size="14.00" fill="#666666">[bigint]</text>
<polygon fill="none" stroke="black" points="314.16,-1599.2 314.16,-1630 591.15,-1630 591.15,-1599.2 314.16,-1599.2"/>
<text text-anchor="start" x="321.16" y="-1611.4" font-family="Arial" font-size="14.00">comment_id    </text>
<text text-anchor="start" x="428.53" y="-1611.4" font-family="Arial" font-size="14.00" fill="#666666">[bigint]</text>
<polygon fill="none" stroke="black" points="314.16,-1568.4 314.16,-1599.2 591.15,-1599.2 591.15,-1568.4 314.16,-1568.4"/>
<text text-anchor="start" x="321.16" y="-1580.6" font-family="Arial" font-size="14.00">comment_star_id    </text>
<text text-anchor="start" x="459.65" y="-1580.6" font-family="Arial" font-size="14.00" fill="#666666">[uuid]</text>
<polygon fill="none" stroke="black" points="314.16,-1537.6 314.16,-1568.4 591.15,-1568.4 591.15,-1537.6 314.16,-1537.6"/>
<text text-anchor="start" x="321.16" y="-1549.8" font-family="Arial" font-size="14.00">payload    </text>
<text text-anchor="start" x="401.31" y="-1549.8" font-family="Arial" font-size="14.00" fill="#666666">[text]</text>
<polygon fill="none" stroke="black" points="314.16,-1506.8 314.16,-1537.6 591.15,-1537.6 591.15,-1506.8 314.16,-1506.8"/>
<text text-anchor="start" x="321.16" y="-1519" font-family="Arial" font-size="14.00">created    </text>
<text text-anchor="start" x="398.97" y="-1519" font-family="Arial" font-size="14.00" fill="#666666">[timestamp without time zone]</text>
</g>
<!-- public.logs&#45;&gt;public.users -->
<g id="edge12" class="edge">
<title>public.logs:user_id&#45;&gt;public.users:id</title>
<path fill="none" stroke="black" stroke-dasharray="5,2" d="M302.92,-1675.67C225.65,-1667 309.88,-1554.3 314.16,-1463.6 314.89,-1447.99 407.37,-356.63 414.65,-342.8 456.99,-262.43 481.36,-212.6 572.2,-212.6"/>
<polygon fill="black" stroke="black" points="302.83,-1675.66 312.59,-1680.68 308.16,-1675.94 312.49,-1676.17 312.49,-1676.17 312.49,-1676.17 308.16,-1675.94 313.05,-1671.69 302.83,-1675.66"/>
<text text-anchor="start" x="254.19" y="-1686.2" font-family="Arial" font-size="10.00">logs&#45;&gt;users</text>
</g>
<!-- public.logs&#45;&gt;public.posts -->
<g id="edge13" class="edge">
<title>public.logs:post_id&#45;&gt;public.posts:id</title>
<path fill="none" stroke="black" stroke-dasharray="5,2" d="M302.96,-1644.72C235.58,-1635.12 270.08,-1526.95 314.16,-1463.6 340.06,-1426.37 382.69,-1464.07 409.65,-1427.6 463.33,-1355.01 375.91,-617 466.2,-617"/>
<polygon fill="black" stroke="black" points="302.84,-1644.71 312.52,-1649.87 308.17,-1645.07 312.49,-1645.36 312.49,-1645.36 312.49,-1645.36 308.17,-1645.07 313.12,-1640.89 302.84,-1644.71"/>
<text text-anchor="start" x="222.77" y="-1655.4" font-family="Arial" font-size="10.00">Additional Relation</text>
</g>
<!-- public.logs&#45;&gt;public.comments -->
<g id="edge14" class="edge">
<title>public.logs:comment_id&#45;&gt;public.comments:id</title>
<path fill="none" stroke="black" stroke-dasharray="5,2" d="M602.31,-1613.76C656.03,-1604.2 627.85,-1515.35 591.15,-1463.6 563.71,-1424.89 517.97,-1466.4 490.65,-1427.6 462.69,-1387.88 455.62,-990.6 504.2,-990.6"/>
<polygon fill="black" stroke="black" points="602.45,-1613.75 592.12,-1610.09 597.14,-1614.19 592.82,-1614.54 592.82,-1614.54 592.82,-1614.54 597.14,-1614.19 592.86,-1619.06 602.45,-1613.75"/>
<text text-anchor="start" x="599.15" y="-1624.6" font-family="Arial" font-size="10.00">Additional Relation</text>
</g>
<!-- public.logs&#45;&gt;public.comment_stars -->
<g id="edge15" class="edge">
<title>public.logs:comment_star_id&#45;&gt;public.comment_stars:id</title>
<path fill="none" stroke="black" stroke-dasharray="5,2" d="M602.21,-1582.76C641.34,-1573.73 613.55,-1507.93 591.15,-1463.6 579.14,-1439.8 555.22,-1451.38 543.18,-1427.6 524.26,-1390.25 500.31,-1333.4 542.18,-1333.4"/>
<polygon fill="black" stroke="black" points="602.43,-1582.74 592.02,-1579.29 597.13,-1583.28 592.82,-1583.73 592.82,-1583.73 592.82,-1583.73 597.13,-1583.28 592.95,-1588.24 602.43,-1582.74"/>
<text text-anchor="start" x="599.15" y="-1593.8" font-family="Arial" font-size="10.00">Additional Relation</text>
</g>
<!-- public.post_comments -->
<g id="node7" class="node">
<title>public.post_comments</title>
<polygon fill="#efefef" stroke="none" points="695.2,-1722.4 695.2,-1758 976.11,-1758 976.11,-1722.4 695.2,-1722.4"/>
<polygon fill="none" stroke="black" points="695.2,-1722.4 695.2,-1758 976.11,-1758 976.11,-1722.4 695.2,-1722.4"/>
<text text-anchor="start" x="717.08" y="-1735.8" font-family="Arial Bold" font-size="18.00">public.post_comments</text>
<text text-anchor="start" x="879.56" y="-1735.8" font-family="Arial" font-size="14.00">    </text>
<text text-anchor="start" x="910.68" y="-1735.8" font-family="Arial" font-size="14.00" fill="#666666">[VIEW]</text>
<polygon fill="none" stroke="black" points="695.2,-1691.6 695.2,-1722.4 976.11,-1722.4 976.11,-1691.6 695.2,-1691.6"/>
<text text-anchor="start" x="702.2" y="-1703.8" font-family="Arial" font-size="14.00">id    </text>
<text text-anchor="start" x="744.21" y="-1703.8" font-family="Arial" font-size="14.00" fill="#666666">[bigint]</text>
<polygon fill="none" stroke="black" points="695.2,-1660.8 695.2,-1691.6 976.11,-1691.6 976.11,-1660.8 695.2,-1660.8"/>
<text text-anchor="start" x="702.2" y="-1673" font-family="Arial" font-size="14.00">title    </text>
<text text-anchor="start" x="755.1" y="-1673" font-family="Arial" font-size="14.00" fill="#666666">[varchar(255)]</text>
<polygon fill="none" stroke="black" points="695.2,-1630 695.2,-1660.8 976.11,-1660.8 976.11,-1630 695.2,-1630"/>
<text text-anchor="start" x="702.2" y="-1642.2" font-family="Arial" font-size="14.00">post_user    </text>
<text text-anchor="start" x="794.8" y="-1642.2" font-family="Arial" font-size="14.00" fill="#666666">[varchar(50)]</text>
<polygon fill="none" stroke="black" points="695.2,-1599.2 695.2,-1630 976.11,-1630 976.11,-1599.2 695.2,-1599.2"/>
<text text-anchor="start" x="702.2" y="-1611.4" font-family="Arial" font-size="14.00">comment    </text>
<text text-anchor="start" x="790.89" y="-1611.4" font-family="Arial" font-size="14.00" fill="#666666">[text]</text>
<polygon fill="none" stroke="black" points="695.2,-1568.4 695.2,-1599.2 976.11,-1599.2 976.11,-1568.4 695.2,-1568.4"/>
<text text-anchor="start" x="702.2" y="-1580.6" font-family="Arial" font-size="14.00">comment_user    </text>
<text text-anchor="start" x="825.91" y="-1580.6" font-family="Arial" font-size="14.00" fill="#666666">[varchar(50)]</text>
<polygon fill="none" stroke="black" points="695.2,-1537.6 695.2,-1568.4 976.11,-1568.4 976.11,-1537.6 695.2,-1537.6"/>
<text text-anchor="start" x="702.2" y="-1549.8" font-family="Arial" font-size="14.00">created    </text>
<text text-anchor="start" x="780.01" y="-1549.8" font-family="Arial" font-size="14.00" fill="#666666">[timestamp without time zone]</text>
<polygon fill="none" stroke="black" points="695.2,-1506.8 695.2,-1537.6 976.11,-1537.6 976.11,-1506.8 695.2,-1506.8"/>
<text text-anchor="start" x="702.2" y="-1519" font-family="Arial" font-size="14.00">updated    </text>
<text text-anchor="start" x="783.92" y="-1519" font-family="Arial" font-size="14.00" fill="#666666">[timestamp without time zone]</text>
</g>
<!-- public.post_comment_stars -->
<g id="node8" class="node">
<title>public.post_comment_stars</title>
<polygon fill="#efefef" stroke="none" points="1080.68,-1691.6 1080.68,-1727.2 1472.63,-1727.2 1472.63,-1691.6 1080.68,-1691.6"/>
<polygon fill="none" stroke="black" points="1080.68,-1691.6 1080.68,-1727.2 1472.63,-1727.2 1472.63,-1691.6 1080.68,-1691.6"/>
<text text-anchor="start" x="1087.68" y="-1705" font-family="Arial Bold" font-size="18.00">public.post_comment_stars</text>
<text text-anchor="start" x="1285.16" y="-1705" font-family="Arial" font-size="14.00">    </text>
<text text-anchor="start" x="1316.27" y="-1705" font-family="Arial" font-size="14.00" fill="#666666">[MATERIALIZED VIEW]</text>
<polygon fill="none" stroke="black" points="1080.68,-1660.8 1080.68,-1691.6 1472.63,-1691.6 1472.63,-1660.8 1080.68,-1660.8"/>
<text text-anchor="start" x="1087.68" y="-1673" font-family="Arial" font-size="14.00">id    </text>
<text text-anchor="start" x="1129.7" y="-1673" font-family="Arial" font-size="14.00" fill="#666666">[uuid]</text>
<polygon fill="none" stroke="black" points="1080.68,-1630 1080.68,-1660.8 1472.63,-1660.8 1472.63,-1630 1080.68,-1630"/>
<text text-anchor="start" x="1087.68" y="-1642.2" font-family="Arial" font-size="14.00">comment_user    </text>
<text text-anchor="start" x="1211.39" y="-1642.2" font-family="Arial" font-size="14.00" fill="#666666">[varchar(50)]</text>
<polygon fill="none" stroke="black" points="1080.68,-1599.2 1080.68,-1630 1472.63,-1630 1472.63,-1599.2 1080.68,-1599.2"/>
<text text-anchor="start" x="1087.68" y="-1611.4" font-family="Arial" font-size="14.00">comment_star_user    </text>
<text text-anchor="start" x="1242.52" y="-1611.4" font-family="Arial" font-size="14.00" fill="#666666">[varchar(50)]</text>
<polygon fill="none" stroke="black" points="1080.68,-1568.4 1080.68,-1599.2 1472.63,-1599.2 1472.63,-1568.4 1080.68,-1568.4"/>
<text text-anchor="start" x="1087.68" y="-1580.6" font-family="Arial" font-size="14.00">created    </text>
<text text-anchor="start" x="1165.5" y="-1580.6" font-family="Arial" font-size="14.00" fill="#666666">[timestamp without time zone]</text>
<polygon fill="none" stroke="black" points="1080.68,-1537.6 1080.68,-1568.4 1472.63,-1568.4 1472.63,-1537.6 1080.68,-1537.6"/>
<text text-anchor="start" x="1087.68" y="-1549.8" font-family="Arial" font-size="14.00">updated    </text>
<text text-anchor="start" x="1169.41" y="-1549.8" font-family="Arial" font-size="14.00" fill="#666666">[timestamp without time zone]</text>
</g>
<!-- public.CamelizeTable -->
<g id="node9" class="node">
<title>public.CamelizeTable</title>
<polygon fill="#efefef" stroke="none" points="1569.19,-1287.2 1569.19,-1322.8 1866.12,-1322.8 1866.12,-1287.2 1569.19,-1287.2"/>
<polygon fill="none" stroke="black" points="1569.19,-1287.2 1569.19,-1322.8 1866.12,-1322.8 1866.12,-1287.2 1569.19,-1287.2"/>
<text text-anchor="start" x="1576.19" y="-1300.6" font-family="Arial Bold" font-size="18.00">public.CamelizeTable</text>
<text text-anchor="start" x="1734.63" y="-1300.6" font-family="Arial" font-size="14.00">    </text>
<text text-anchor="start" x="1765.74" y="-1300.6" font-family="Arial" font-size="14.00" fill="#666666">[BASE TABLE]</text>
<polygon fill="none" stroke="black" points="1569.19,-1256.4 1569.19,-1287.2 1866.12,-1287.2 1866.12,-1256.4 1569.19,-1256.4"/>
<text text-anchor="start" x="1576.19" y="-1268.6" font-family="Arial" font-size="14.00">id    </text>
<text text-anchor="start" x="1618.21" y="-1268.6" font-family="Arial" font-size="14.00" fill="#666666">[uuid]</text>
<polygon fill="none" stroke="black" points="1569.19,-1225.6 1569.19,-1256.4 1866.12,-1256.4 1866.12,-1225.6 1569.19,-1225.6"/>
<text text-anchor="start" x="1576.19" y="-1237.8" font-family="Arial" font-size="14.00">created    </text>
<text text-anchor="start" x="1654.01" y="-1237.8" font-family="Arial" font-size="14.00" fill="#666666">[timestamp without time zone]</text>
</g>
<!-- public.hyphen&#45;table -->
<g id="node10" class="node">
<title>public.hyphen&#45;table</title>
<polygon fill="#efefef" stroke="none" points="1576.68,-1676.2 1576.68,-1711.8 1858.63,-1711.8 1858.63,-1676.2 1576.68,-1676.2"/>
<polygon fill="none" stroke="black" points="1576.68,-1676.2 1576.68,-1711.8 1858.63,-1711.8 1858.63,-1676.2 1576.68,-1676.2"/>
<text text-anchor="start" x="1583.68" y="-1689.6" font-family="Arial Bold" font-size="18.00">public.hyphen&#45;table</text>
<text text-anchor="start" x="1727.14" y="-1689.6" font-family="Arial" font-size="14.00">    </text>
<text text-anchor="start" x="1758.25" y="-1689.6" font-family="Arial" font-size="14.00" fill="#666666">[BASE TABLE]</text>
<polygon fill="none" stroke="black" points="1576.68,-1645.4 1576.68,-1676.2 1858.63,-1676.2 1858.63,-1645.4 1576.68,-1645.4"/>
<text text-anchor="start" x="1583.68" y="-1657.6" font-family="Arial" font-size="14.00">id    </text>
<text text-anchor="start" x="1625.7" y="-1657.6" font-family="Arial" font-size="14.00" fill="#666666">[uuid]</text>
<polygon fill="none" stroke="black" points="1576.68,-1614.6 1576.68,-1645.4 1858.63,-1645.4 1858.63,-1614.6 1576.68,-1614.6"/>
<text text-anchor="start" x="1583.68" y="-1626.8" font-family="Arial" font-size="14.00">hyphen&#45;column    </text>
<text text-anchor="start" x="1710.52" y="-1626.8" font-family="Arial" font-size="14.00" fill="#666666">[text]</text>
<polygon fill="none" stroke="black" points="1576.68,-1583.8 1576.68,-1614.6 1858.63,-1614.6 1858.63,-1583.8 1576.68,-1583.8"/>
<text text-anchor="start" x="1583.68" y="-1596" font-family="Arial" font-size="14.00">CamelizeTableId    </text>
<text text-anchor="start" x="1719.85" y="-1596" font-family="Arial" font-size="14.00" fill="#666666">[uuid]</text>
<polygon fill="none" stroke="black" points="1576.68,-1553 1576.68,-1583.8 1858.63,-1583.8 1858.63,-1553 1576.68,-1553"/>
<text text-anchor="start" x="1583.68" y="-1565.2" font-family="Arial" font-size="14.00">created    </text>
<text text-anchor="start" x="1661.5" y="-1565.2" font-family="Arial" font-size="14.00" fill="#666666">[timestamp without time zone]</text>
</g>
<!-- public.hyphen&#45;table&#45;&gt;public.CamelizeTable -->
<g id="edge7" class="edge">
<title>public.hyphen&#45;table:CamelizeTableId&#45;&gt;public.CamelizeTable:id</title>
<path fill="none" stroke="black" d="M1867.99,-1592.95C1896.95,-1547.69 1900.52,-1271.8 1867.12,-1271.8"/>
<polygon fill="black" stroke="black" points="1867.91,-1593.01 1857.2,-1595.39 1863.63,-1596.21 1860.16,-1598.8 1860.16,-1598.8 1860.16,-1598.8 1863.63,-1596.21 1862.59,-1602.6 1867.91,-1593.01"/>
<text text-anchor="start" x="1866.63" y="-1609.2" font-family="Arial" font-size="10.00">FOREIGN KEY (&quot;CamelizeTableId&quot;) REFERENCES &quot;CamelizeTable&quot;(id) ON DELETE CASCADE</text>
</g>
<!-- administrator.blogs -->
<g id="node11" class="node">
<title>administrator.blogs</title>
<polygon fill="#efefef" stroke="none" points="929.2,-601.6 929.2,-637.2 1210.11,-637.2 1210.11,-601.6 929.2,-601.6"/>
<polygon fill="none" stroke="black" points="929.2,-601.6 929.2,-637.2 1210.11,-637.2 1210.11,-601.6 929.2,-601.6"/>
<text text-anchor="start" x="937.67" y="-615" font-family="Arial Bold" font-size="18.00">administrator.blogs</text>
<text text-anchor="start" x="1077.15" y="-615" font-family="Arial" font-size="14.00">    </text>
<text text-anchor="start" x="1108.27" y="-615" font-family="Arial" font-size="14.00" fill="#666666">[BASE TABLE]</text>
<polygon fill="none" stroke="black" points="929.2,-570.8 929.2,-601.6 1210.11,-601.6 1210.11,-570.8 929.2,-570.8"/>
<text text-anchor="start" x="936.2" y="-583" font-family="Arial" font-size="14.00">id    </text>
<text text-anchor="start" x="978.21" y="-583" font-family="Arial" font-size="14.00" fill="#666666">[integer]</text>
<polygon fill="none" stroke="black" points="929.2,-540 929.2,-570.8 1210.11,-570.8 1210.11,-540 929.2,-540"/>
<text text-anchor="start" x="936.2" y="-552.2" font-family="Arial" font-size="14.00">user_id    </text>
<text text-anchor="start" x="1013.23" y="-552.2" font-family="Arial" font-size="14.00" fill="#666666">[integer]</text>
<polygon fill="none" stroke="black" points="929.2,-509.2 929.2,-540 1210.11,-540 1210.11,-509.2 929.2,-509.2"/>
<text text-anchor="start" x="936.2" y="-521.4" font-family="Arial" font-size="14.00">name    </text>
<text text-anchor="start" x="1002.34" y="-521.4" font-family="Arial" font-size="14.00" fill="#666666">[text]</text>
<polygon fill="none" stroke="black" points="929.2,-478.4 929.2,-509.2 1210.11,-509.2 1210.11,-478.4 929.2,-478.4"/>
<text text-anchor="start" x="936.2" y="-490.6" font-family="Arial" font-size="14.00">description    </text>
<text text-anchor="start" x="1035.02" y="-490.6" font-family="Arial" font-size="14.00" fill="#666666">[text]</text>
<polygon fill="none" stroke="black" points="929.2,-447.6 929.2,-478.4 1210.11,-478.4 1210.11,-447.6 929.2,-447.6"/>
<text text-anchor="start" x="936.2" y="-459.8" font-family="Arial" font-size="14.00">created    </text>
<text text-anchor="start" x="1014.01" y="-459.8" font-family="Arial" font-size="14.00" fill="#666666">[timestamp without time zone]</text>
<polygon fill="none" stroke="black" points="929.2,-416.8 929.2,-447.6 1210.11,-447.6 1210.11,-416.8 929.2,-416.8"/>
<text text-anchor="start" x="936.2" y="-429" font-family="Arial" font-size="14.00">updated    </text>
<text text-anchor="start" x="1017.92" y="-429" font-family="Arial" font-size="14.00" fill="#666666">[timestamp without time zone]</text>
</g>
<!-- administrator.blogs&#45;&gt;public.users -->
<g id="edge8" class="edge">
<title>administrator.blogs:user_id&#45;&gt;public.users:id</title>
<path fill="none" stroke="black" d="M917.89,-554.84C783.38,-539.52 1007.24,-212.6 855.11,-212.6"/>
<polygon fill="black" stroke="black" points="917.88,-554.84 927.62,-559.88 923.21,-555.13 927.53,-555.36 927.53,-555.36 927.53,-555.36 923.21,-555.13 928.11,-550.89 917.88,-554.84"/>
<text text-anchor="start" x="674.23" y="-539.4" font-family="Arial" font-size="10.00">FOREIGN KEY (user_id) REFERENCES users(id) ON DELETE CASCADE</text>
</g>
<!-- backup.blogs -->
<g id="node12" class="node">
<title>backup.blogs</title>
<polygon fill="#efefef" stroke="none" points="1970.2,-1333.4 1970.2,-1369 2251.11,-1369 2251.11,-1333.4 1970.2,-1333.4"/>
<polygon fill="none" stroke="black" points="1970.2,-1333.4 1970.2,-1369 2251.11,-1369 2251.11,-1333.4 1970.2,-1333.4"/>
<text text-anchor="start" x="2000.67" y="-1346.8" font-family="Arial Bold" font-size="18.00">backup.blogs</text>
<text text-anchor="start" x="2096.15" y="-1346.8" font-family="Arial" font-size="14.00">    </text>
<text text-anchor="start" x="2127.27" y="-1346.8" font-family="Arial" font-size="14.00" fill="#666666">[BASE TABLE]</text>
<polygon fill="none" stroke="black" points="1970.2,-1302.6 1970.2,-1333.4 2251.11,-1333.4 2251.11,-1302.6 1970.2,-1302.6"/>
<text text-anchor="start" x="1977.2" y="-1314.8" font-family="Arial" font-size="14.00">id    </text>
<text text-anchor="start" x="2019.21" y="-1314.8" font-family="Arial" font-size="14.00" fill="#666666">[integer]</text>
<polygon fill="none" stroke="black" points="1970.2,-1271.8 1970.2,-1302.6 2251.11,-1302.6 2251.11,-1271.8 1970.2,-1271.8"/>
<text text-anchor="start" x="1977.2" y="-1284" font-family="Arial" font-size="14.00">user_id    </text>
<text text-anchor="start" x="2054.23" y="-1284" font-family="Arial" font-size="14.00" fill="#666666">[integer]</text>
<polygon fill="none" stroke="black" points="1970.2,-1241 1970.2,-1271.8 2251.11,-1271.8 2251.11,-1241 1970.2,-1241"/>
<text text-anchor="start" x="1977.2" y="-1253.2" font-family="Arial" font-size="14.00">dump    </text>
<text text-anchor="start" x="2043.34" y="-1253.2" font-family="Arial" font-size="14.00" fill="#666666">[text]</text>
<polygon fill="none" stroke="black" points="1970.2,-1210.2 1970.2,-1241 2251.11,-1241 2251.11,-1210.2 1970.2,-1210.2"/>
<text text-anchor="start" x="1977.2" y="-1222.4" font-family="Arial" font-size="14.00">created    </text>
<text text-anchor="start" x="2055.01" y="-1222.4" font-family="Arial" font-size="14.00" fill="#666666">[timestamp without time zone]</text>
<polygon fill="none" stroke="black" points="1970.2,-1179.4 1970.2,-1210.2 2251.11,-1210.2 2251.11,-1179.4 1970.2,-1179.4"/>
<text text-anchor="start" x="1977.2" y="-1191.6" font-family="Arial" font-size="14.00">updated    </text>
<text text-anchor="start" x="2058.92" y="-1191.6" font-family="Arial" font-size="14.00" fill="#666666">[timestamp without time zone]</text>
</g>
<!-- backup.blog_options -->
<g id="node13" class="node">
<title>backup.blog_options</title>
<polygon fill="#efefef" stroke="none" points="1966.17,-1676.2 1966.17,-1711.8 2255.14,-1711.8 2255.14,-1676.2 1966.17,-1676.2"/>
<polygon fill="none" stroke="black" points="1966.17,-1676.2 1966.17,-1711.8 2255.14,-1711.8 2255.14,-1676.2 1966.17,-1676.2"/>
<text text-anchor="start" x="1973.17" y="-1689.6" font-family="Arial Bold" font-size="18.00">backup.blog_options</text>
<text text-anchor="start" x="2123.65" y="-1689.6" font-family="Arial" font-size="14.00">    </text>
<text text-anchor="start" x="2154.77" y="-1689.6" font-family="Arial" font-size="14.00" fill="#666666">[BASE TABLE]</text>
<polygon fill="none" stroke="black" points="1966.17,-1645.4 1966.17,-1676.2 2255.14,-1676.2 2255.14,-1645.4 1966.17,-1645.4"/>
<text text-anchor="start" x="1973.17" y="-1657.6" font-family="Arial" font-size="14.00">id    </text>
<text text-anchor="start" x="2015.18" y="-1657.6" font-family="Arial" font-size="14.00" fill="#666666">[integer]</text>
<polygon fill="none" stroke="black" points="1966.17,-1614.6 1966.17,-1645.4 2255.14,-1645.4 2255.14,-1614.6 1966.17,-1614.6"/>
<text text-anchor="start" x="1973.17" y="-1626.8" font-family="Arial" font-size="14.00">blog_id    </text>
<text text-anchor="start" x="2049.44" y="-1626.8" font-family="Arial" font-size="14.00" fill="#666666">[integer]</text>
<polygon fill="none" stroke="black" points="1966.17,-1583.8 1966.17,-1614.6 2255.14,-1614.6 2255.14,-1583.8 1966.17,-1583.8"/>
<text text-anchor="start" x="1973.17" y="-1596" font-family="Arial" font-size="14.00">label    </text>
<text text-anchor="start" x="2033.86" y="-1596" font-family="Arial" font-size="14.00" fill="#666666">[text]</text>
<polygon fill="none" stroke="black" points="1966.17,-1553 1966.17,-1583.8 2255.14,-1583.8 2255.14,-1553 1966.17,-1553"/>
<text text-anchor="start" x="1973.17" y="-1565.2" font-family="Arial" font-size="14.00">updated    </text>
<text text-anchor="start" x="2054.89" y="-1565.2" font-family="Arial" font-size="14.00" fill="#666666">[timestamp without time zone]</text>
</g>
<!-- backup.blog_options&#45;&gt;backup.blogs -->
<g id="edge9" class="edge">
<title>backup.blog_options:blog_id&#45;&gt;backup.blogs:id</title>
<path fill="none" stroke="black" d="M2266.14,-1627.67C2324.9,-1599.12 2317.93,-1318 2252.11,-1318"/>
<polygon fill="black" stroke="black" points="2266.21,-1627.65 2255.45,-1625.54 2261.01,-1628.86 2256.79,-1629.85 2256.79,-1629.85 2256.79,-1629.85 2261.01,-1628.86 2257.49,-1634.31 2266.21,-1627.65"/>
<text text-anchor="start" x="2263.14" y="-1640" font-family="Arial" font-size="10.00">FOREIGN KEY (blog_id) REFERENCES blogs(id) ON DELETE CASCADE</text>
</g>
<!-- time.bar -->
<g id="node14" class="node">
<title>time.bar</title>
<polygon fill="#efefef" stroke="none" points="2355.67,-1271.8 2355.67,-1307.4 2553.64,-1307.4 2553.64,-1271.8 2355.67,-1271.8"/>
<polygon fill="none" stroke="black" points="2355.67,-1271.8 2355.67,-1307.4 2553.64,-1307.4 2553.64,-1271.8 2355.67,-1271.8"/>
<text text-anchor="start" x="2362.67" y="-1285.2" font-family="Arial Bold" font-size="18.00">time.bar</text>
<text text-anchor="start" x="2422.15" y="-1285.2" font-family="Arial" font-size="14.00">    </text>
<text text-anchor="start" x="2453.26" y="-1285.2" font-family="Arial" font-size="14.00" fill="#666666">[BASE TABLE]</text>
<polygon fill="none" stroke="black" points="2355.67,-1241 2355.67,-1271.8 2553.64,-1271.8 2553.64,-1241 2355.67,-1241"/>
<text text-anchor="start" x="2362.67" y="-1253.2" font-family="Arial" font-size="14.00">id    </text>
<text text-anchor="start" x="2404.69" y="-1253.2" font-family="Arial" font-size="14.00" fill="#666666">[integer]</text>
</g>
<!-- time.hyphenated&#45;table -->
<g id="node15" class="node">
<title>time.hyphenated&#45;table</title>
<polygon fill="#efefef" stroke="none" points="2658.19,-1271.8 2658.19,-1307.4 2957.12,-1307.4 2957.12,-1271.8 2658.19,-1271.8"/>
<polygon fill="none" stroke="black" points="2658.19,-1271.8 2658.19,-1307.4 2957.12,-1307.4 2957.12,-1271.8 2658.19,-1271.8"/>
<text text-anchor="start" x="2665.19" y="-1285.2" font-family="Arial Bold" font-size="18.00">time.hyphenated&#45;table</text>
<text text-anchor="start" x="2825.63" y="-1285.2" font-family="Arial" font-size="14.00">    </text>
<text text-anchor="start" x="2856.74" y="-1285.2" font-family="Arial" font-size="14.00" fill="#666666">[BASE TABLE]</text>
<polygon fill="none" stroke="black" points="2658.19,-1241 2658.19,-1271.8 2957.12,-1271.8 2957.12,-1241 2658.19,-1241"/>
<text text-anchor="start" x="2665.19" y="-1253.2" font-family="Arial" font-size="14.00">id    </text>
<text text-anchor="start" x="2707.21" y="-1253.2" font-family="Arial" font-size="14.00" fill="#666666">[integer]</text>
</g>
<!-- time.referencing -->
<g id="node16" class="node">
<title>time.referencing</title>
<polygon fill="#efefef" stroke="none" points="2519.19,-1660.8 2519.19,-1696.4 2776.12,-1696.4 2776.12,-1660.8 2519.19,-1660.8"/>
<polygon fill="none" stroke="black" points="2519.19,-1660.8 2519.19,-1696.4 2776.12,-1696.4 2776.12,-1660.8 2519.19,-1660.8"/>
<text text-anchor="start" x="2526.19" y="-1674.2" font-family="Arial Bold" font-size="18.00">time.referencing</text>
<text text-anchor="start" x="2644.63" y="-1674.2" font-family="Arial" font-size="14.00">    </text>
<text text-anchor="start" x="2675.74" y="-1674.2" font-family="Arial" font-size="14.00" fill="#666666">[BASE TABLE]</text>
<polygon fill="none" stroke="black" points="2519.19,-1630 2519.19,-1660.8 2776.12,-1660.8 2776.12,-1630 2519.19,-1630"/>
<text text-anchor="start" x="2526.19" y="-1642.2" font-family="Arial" font-size="14.00">id    </text>
<text text-anchor="start" x="2568.21" y="-1642.2" font-family="Arial" font-size="14.00" fill="#666666">[integer]</text>
<polygon fill="none" stroke="black" points="2519.19,-1599.2 2519.19,-1630 2776.12,-1630 2776.12,-1599.2 2519.19,-1599.2"/>
<text text-anchor="start" x="2526.19" y="-1611.4" font-family="Arial" font-size="14.00">bar_id    </text>
<text text-anchor="start" x="2596.23" y="-1611.4" font-family="Arial" font-size="14.00" fill="#666666">[integer]</text>
<polygon fill="none" stroke="black" points="2519.19,-1568.4 2519.19,-1599.2 2776.12,-1599.2 2776.12,-1568.4 2519.19,-1568.4"/>
<text text-anchor="start" x="2526.19" y="-1580.6" font-family="Arial" font-size="14.00">ht_id    </text>
<text text-anchor="start" x="2587.67" y="-1580.6" font-family="Arial" font-size="14.00" fill="#666666">[integer]</text>
</g>
<!-- time.referencing&#45;&gt;time.bar -->
<g id="edge10" class="edge">
<title>time.referencing:bar_id&#45;&gt;time.bar:id</title>
<path fill="none" stroke="black" d="M2507.78,-1614.02C2374.6,-1598.01 2710.91,-1256.4 2554.64,-1256.4"/>
<polygon fill="black" stroke="black" points="2507.88,-1614.02 2517.61,-1619.07 2513.2,-1614.32 2517.53,-1614.56 2517.53,-1614.56 2517.53,-1614.56 2513.2,-1614.32 2518.11,-1610.09 2507.88,-1614.02"/>
<text text-anchor="start" x="2274.05" y="-1598.6" font-family="Arial" font-size="10.00">FOREIGN KEY (bar_id) REFERENCES &quot;time&quot;.bar(id)</text>
</g>
<!-- time.referencing&#45;&gt;time.hyphenated&#45;table -->
<g id="edge11" class="edge">
<title>time.referencing:ht_id&#45;&gt;time.hyphenated&#45;table:id</title>
<path fill="none" stroke="black" d="M2787.1,-1580.78C2796.63,-1571.96 2782.54,-1545.58 2776.12,-1525.2 2747.95,-1435.9 2686.07,-1439.99 2658.19,-1350.6 2645.73,-1310.63 2615.32,-1256.4 2657.19,-1256.4"/>
<polygon fill="black" stroke="black" points="2787.01,-1580.81 2776.13,-1579.4 2781.9,-1582.35 2777.76,-1583.61 2777.76,-1583.61 2777.76,-1583.61 2781.9,-1582.35 2778.74,-1588.01 2787.01,-1580.81"/>
<text text-anchor="start" x="2784.12" y="-1593.8" font-family="Arial" font-size="10.00">FOREIGN KEY (ht_id) REFERENCES &quot;time&quot;.&quot;hyphenated&#45;table&quot;(id)</text>
</g>
</g>
</svg>
