<?xml version="1.0" encoding="UTF-8" standalone="no"?>
<!DOCTYPE svg PUBLIC "-//W3C//DTD SVG 1.1//EN"
 "http://www.w3.org/Graphics/SVG/1.1/DTD/svg11.dtd">
<!-- Generated by graphviz version 12.1.2 (20240928.0832)
 -->
<!-- Title: testdb Pages: 1 -->
<svg width="3048pt" height="1809pt"
 viewBox="0.00 0.00 3047.62 1809.20" xmlns="http://www.w3.org/2000/svg" xmlns:xlink="http://www.w3.org/1999/xlink">
<g id="graph0" class="graph" transform="scale(1 1) rotate(0) translate(4 1805.2)">
<title>testdb</title>
<polygon fill="white" stroke="none" points="-4,4 -4,-1805.2 3043.62,-1805.2 3043.62,4 -4,4"/>
<!-- public.users -->
<g id="node1" class="node">
<title>public.users</title>
<polygon fill="#efefef" stroke="none" points="564.35,-228 564.35,-263.6 818.03,-263.6 818.03,-228 564.35,-228"/>
<polygon fill="none" stroke="black" points="564.35,-228 564.35,-263.6 818.03,-263.6 818.03,-228 564.35,-228"/>
<text text-anchor="start" x="585.7" y="-241.4" font-family="Arial Bold" font-size="18.00">public.users</text>
<text text-anchor="start" x="672.19" y="-241.4" font-family="Arial" font-size="14.00">    </text>
<text text-anchor="start" x="703.3" y="-241.4" font-family="Arial" font-size="14.00" fill="#666666">[BASE TABLE]</text>
<polygon fill="none" stroke="black" points="564.35,-197.2 564.35,-228 818.03,-228 818.03,-197.2 564.35,-197.2"/>
<text text-anchor="start" x="571.35" y="-209.4" font-family="Arial" font-size="14.00">id </text>
<text text-anchor="start" x="586.13" y="-209.4" font-family="Arial" font-size="14.00" fill="#666666">[integer]</text>
<polygon fill="none" stroke="black" points="564.35,-166.4 564.35,-197.2 818.03,-197.2 818.03,-166.4 564.35,-166.4"/>
<text text-anchor="start" x="571.35" y="-178.6" font-family="Arial" font-size="14.00">username </text>
<text text-anchor="start" x="637.49" y="-178.6" font-family="Arial" font-size="14.00" fill="#666666">[varchar(50)]</text>
<polygon fill="none" stroke="black" points="564.35,-135.6 564.35,-166.4 818.03,-166.4 818.03,-135.6 564.35,-135.6"/>
<text text-anchor="start" x="571.35" y="-147.8" font-family="Arial" font-size="14.00">password </text>
<text text-anchor="start" x="635.15" y="-147.8" font-family="Arial" font-size="14.00" fill="#666666">[varchar(50)]</text>
<polygon fill="none" stroke="black" points="564.35,-104.8 564.35,-135.6 818.03,-135.6 818.03,-104.8 564.35,-104.8"/>
<text text-anchor="start" x="571.35" y="-117" font-family="Arial" font-size="14.00">email </text>
<text text-anchor="start" x="608.69" y="-117" font-family="Arial" font-size="14.00" fill="#666666">[varchar(355)]</text>
<polygon fill="none" stroke="black" points="564.35,-74 564.35,-104.8 818.03,-104.8 818.03,-74 564.35,-74"/>
<text text-anchor="start" x="571.35" y="-86.2" font-family="Arial" font-size="14.00">created </text>
<text text-anchor="start" x="621.93" y="-86.2" font-family="Arial" font-size="14.00" fill="#666666">[timestamp without time zone]</text>
<polygon fill="none" stroke="black" points="564.35,-43.2 564.35,-74 818.03,-74 818.03,-43.2 564.35,-43.2"/>
<text text-anchor="start" x="571.35" y="-55.4" font-family="Arial" font-size="14.00">updated </text>
<text text-anchor="start" x="625.84" y="-55.4" font-family="Arial" font-size="14.00" fill="#666666">[timestamp without time zone]</text>
</g>
<!-- public.user_options -->
<g id="node2" class="node">
<title>public.user_options</title>
<polygon fill="#efefef" stroke="none" points="43.2,-570.8 43.2,-606.4 323.18,-606.4 323.18,-570.8 43.2,-570.8"/>
<polygon fill="none" stroke="black" points="43.2,-570.8 43.2,-606.4 323.18,-606.4 323.18,-570.8 43.2,-570.8"/>
<text text-anchor="start" x="50.2" y="-584.2" font-family="Arial Bold" font-size="18.00">public.user_options</text>
<text text-anchor="start" x="191.69" y="-584.2" font-family="Arial" font-size="14.00">    </text>
<text text-anchor="start" x="222.8" y="-584.2" font-family="Arial" font-size="14.00" fill="#666666">[BASE TABLE]</text>
<polygon fill="none" stroke="black" points="43.2,-540 43.2,-570.8 323.18,-570.8 323.18,-540 43.2,-540"/>
<text text-anchor="start" x="50.2" y="-552.2" font-family="Arial" font-size="14.00">user_id </text>
<text text-anchor="start" x="100.01" y="-552.2" font-family="Arial" font-size="14.00" fill="#666666">[integer]</text>
<polygon fill="none" stroke="black" points="43.2,-509.2 43.2,-540 323.18,-540 323.18,-509.2 43.2,-509.2"/>
<text text-anchor="start" x="50.2" y="-521.4" font-family="Arial" font-size="14.00">show_email </text>
<text text-anchor="start" x="128.01" y="-521.4" font-family="Arial" font-size="14.00" fill="#666666">[boolean]</text>
<polygon fill="none" stroke="black" points="43.2,-478.4 43.2,-509.2 323.18,-509.2 323.18,-478.4 43.2,-478.4"/>
<text text-anchor="start" x="50.2" y="-490.6" font-family="Arial" font-size="14.00">created </text>
<text text-anchor="start" x="100.79" y="-490.6" font-family="Arial" font-size="14.00" fill="#666666">[timestamp without time zone]</text>
<polygon fill="none" stroke="black" points="43.2,-447.6 43.2,-478.4 323.18,-478.4 323.18,-447.6 43.2,-447.6"/>
<text text-anchor="start" x="50.2" y="-459.8" font-family="Arial" font-size="14.00">updated </text>
<text text-anchor="start" x="104.7" y="-459.8" font-family="Arial" font-size="14.00" fill="#666666">[timestamp without time zone]</text>
</g>
<!-- public.user_options&#45;&gt;public.users -->
<g id="edge1" class="edge">
<title>public.user_options:user_id&#45;&gt;public.users:id</title>
<path fill="none" stroke="black" d="M334.27,-554.86C414.88,-545.66 326.66,-420.18 380.19,-342.8 437.01,-260.66 463.47,-212.6 563.35,-212.6"/>
<polygon fill="black" stroke="black" points="334.5,-554.85 324.27,-550.89 329.17,-555.13 324.84,-555.36 324.84,-555.36 324.84,-555.36 329.17,-555.13 324.75,-559.88 334.5,-554.85"/>
<text text-anchor="start" x="157.2" y="-539.4" font-family="Arial" font-size="10.00">FOREIGN KEY (user_id) REFERENCES users(id) ON DELETE CASCADE</text>
</g>
<!-- public.posts -->
<g id="node3" class="node">
<title>public.posts</title>
<polygon fill="#efefef" stroke="none" points="465.35,-632.4 465.35,-668 719.03,-668 719.03,-632.4 465.35,-632.4"/>
<polygon fill="none" stroke="black" points="465.35,-632.4 465.35,-668 719.03,-668 719.03,-632.4 465.35,-632.4"/>
<text text-anchor="start" x="486.69" y="-645.8" font-family="Arial Bold" font-size="18.00">public.posts</text>
<text text-anchor="start" x="573.19" y="-645.8" font-family="Arial" font-size="14.00">    </text>
<text text-anchor="start" x="604.31" y="-645.8" font-family="Arial" font-size="14.00" fill="#666666">[BASE TABLE]</text>
<polygon fill="none" stroke="black" points="465.35,-601.6 465.35,-632.4 719.03,-632.4 719.03,-601.6 465.35,-601.6"/>
<text text-anchor="start" x="472.35" y="-613.8" font-family="Arial" font-size="14.00">id </text>
<text text-anchor="start" x="487.13" y="-613.8" font-family="Arial" font-size="14.00" fill="#666666">[bigint]</text>
<polygon fill="none" stroke="black" points="465.35,-570.8 465.35,-601.6 719.03,-601.6 719.03,-570.8 465.35,-570.8"/>
<text text-anchor="start" x="472.35" y="-583" font-family="Arial" font-size="14.00">user_id </text>
<text text-anchor="start" x="522.15" y="-583" font-family="Arial" font-size="14.00" fill="#666666">[integer]</text>
<polygon fill="none" stroke="black" points="465.35,-540 465.35,-570.8 719.03,-570.8 719.03,-540 465.35,-540"/>
<text text-anchor="start" x="472.35" y="-552.2" font-family="Arial" font-size="14.00">title </text>
<text text-anchor="start" x="498.02" y="-552.2" font-family="Arial" font-size="14.00" fill="#666666">[varchar(255)]</text>
<polygon fill="none" stroke="black" points="465.35,-509.2 465.35,-540 719.03,-540 719.03,-509.2 465.35,-509.2"/>
<text text-anchor="start" x="472.35" y="-521.4" font-family="Arial" font-size="14.00">body </text>
<text text-anchor="start" x="506.6" y="-521.4" font-family="Arial" font-size="14.00" fill="#666666">[text]</text>
<polygon fill="none" stroke="black" points="465.35,-478.4 465.35,-509.2 719.03,-509.2 719.03,-478.4 465.35,-478.4"/>
<text text-anchor="start" x="472.35" y="-490.6" font-family="Arial" font-size="14.00">post_type </text>
<text text-anchor="start" x="536.95" y="-490.6" font-family="Arial" font-size="14.00" fill="#666666">[post_types]</text>
<polygon fill="none" stroke="black" points="465.35,-447.6 465.35,-478.4 719.03,-478.4 719.03,-447.6 465.35,-447.6"/>
<text text-anchor="start" x="472.35" y="-459.8" font-family="Arial" font-size="14.00">labels </text>
<text text-anchor="start" x="512.82" y="-459.8" font-family="Arial" font-size="14.00" fill="#666666">[varchar(50)[]]</text>
<polygon fill="none" stroke="black" points="465.35,-416.8 465.35,-447.6 719.03,-447.6 719.03,-416.8 465.35,-416.8"/>
<text text-anchor="start" x="472.35" y="-429" font-family="Arial" font-size="14.00">created </text>
<text text-anchor="start" x="522.93" y="-429" font-family="Arial" font-size="14.00" fill="#666666">[timestamp without time zone]</text>
<polygon fill="none" stroke="black" points="465.35,-386 465.35,-416.8 719.03,-416.8 719.03,-386 465.35,-386"/>
<text text-anchor="start" x="472.35" y="-398.2" font-family="Arial" font-size="14.00">updated </text>
<text text-anchor="start" x="526.84" y="-398.2" font-family="Arial" font-size="14.00" fill="#666666">[timestamp without time zone]</text>
</g>
<!-- public.posts&#45;&gt;public.users -->
<g id="edge2" class="edge">
<title>public.posts:user_id&#45;&gt;public.users:id</title>
<path fill="none" stroke="black" d="M730.08,-583.5C771.14,-559.45 750.44,-382.2 719.03,-342.8 675.02,-287.61 608.53,-361.85 564.35,-306.8 538.14,-274.15 521.48,-212.6 563.35,-212.6"/>
<polygon fill="black" stroke="black" points="730.01,-583.52 719.18,-581.77 724.86,-584.9 720.67,-586.03 720.67,-586.03 720.67,-586.03 724.86,-584.9 721.52,-590.46 730.01,-583.52"/>
<text text-anchor="start" x="727.03" y="-596.2" font-family="Arial" font-size="10.00">FOREIGN KEY (user_id) REFERENCES users(id) ON DELETE SET NULL (user_id)</text>
</g>
<!-- public.comments -->
<g id="node4" class="node">
<title>public.comments</title>
<polygon fill="#efefef" stroke="none" points="503.2,-1006 503.2,-1041.6 765.17,-1041.6 765.17,-1006 503.2,-1006"/>
<polygon fill="none" stroke="black" points="503.2,-1006 503.2,-1041.6 765.17,-1041.6 765.17,-1006 503.2,-1006"/>
<text text-anchor="start" x="510.2" y="-1019.4" font-family="Arial Bold" font-size="18.00">public.comments</text>
<text text-anchor="start" x="633.68" y="-1019.4" font-family="Arial" font-size="14.00">    </text>
<text text-anchor="start" x="664.8" y="-1019.4" font-family="Arial" font-size="14.00" fill="#666666">[BASE TABLE]</text>
<polygon fill="none" stroke="black" points="503.2,-975.2 503.2,-1006 765.17,-1006 765.17,-975.2 503.2,-975.2"/>
<text text-anchor="start" x="510.2" y="-987.4" font-family="Arial" font-size="14.00">id </text>
<text text-anchor="start" x="524.99" y="-987.4" font-family="Arial" font-size="14.00" fill="#666666">[bigint]</text>
<polygon fill="none" stroke="black" points="503.2,-944.4 503.2,-975.2 765.17,-975.2 765.17,-944.4 503.2,-944.4"/>
<text text-anchor="start" x="510.2" y="-956.6" font-family="Arial" font-size="14.00">post_id </text>
<text text-anchor="start" x="559.24" y="-956.6" font-family="Arial" font-size="14.00" fill="#666666">[bigint]</text>
<polygon fill="none" stroke="black" points="503.2,-913.6 503.2,-944.4 765.17,-944.4 765.17,-913.6 503.2,-913.6"/>
<text text-anchor="start" x="510.2" y="-925.8" font-family="Arial" font-size="14.00">user_id </text>
<text text-anchor="start" x="560.01" y="-925.8" font-family="Arial" font-size="14.00" fill="#666666">[integer]</text>
<polygon fill="none" stroke="black" points="503.2,-882.8 503.2,-913.6 765.17,-913.6 765.17,-882.8 503.2,-882.8"/>
<text text-anchor="start" x="510.2" y="-895" font-family="Arial" font-size="14.00">comment </text>
<text text-anchor="start" x="571.67" y="-895" font-family="Arial" font-size="14.00" fill="#666666">[text]</text>
<polygon fill="none" stroke="black" points="503.2,-852 503.2,-882.8 765.17,-882.8 765.17,-852 503.2,-852"/>
<text text-anchor="start" x="510.2" y="-864.2" font-family="Arial" font-size="14.00">post_id_desc </text>
<text text-anchor="start" x="596.6" y="-864.2" font-family="Arial" font-size="14.00" fill="#666666">[bigint]</text>
<polygon fill="none" stroke="black" points="503.2,-821.2 503.2,-852 765.17,-852 765.17,-821.2 503.2,-821.2"/>
<text text-anchor="start" x="510.2" y="-833.4" font-family="Arial" font-size="14.00">created </text>
<text text-anchor="start" x="560.79" y="-833.4" font-family="Arial" font-size="14.00" fill="#666666">[timestamp without time zone]</text>
<polygon fill="none" stroke="black" points="503.2,-790.4 503.2,-821.2 765.17,-821.2 765.17,-790.4 503.2,-790.4"/>
<text text-anchor="start" x="510.2" y="-802.6" font-family="Arial" font-size="14.00">updated </text>
<text text-anchor="start" x="564.7" y="-802.6" font-family="Arial" font-size="14.00" fill="#666666">[timestamp without time zone]</text>
</g>
<!-- public.comments&#45;&gt;public.users -->
<g id="edge3" class="edge">
<title>public.comments:user_id&#45;&gt;public.users:id</title>
<path fill="none" stroke="black" d="M770.62,-919.68C792.92,-835.71 837.64,-212.6 819.03,-212.6"/>
<polygon fill="black" stroke="black" points="770.62,-919.67 762.25,-926.76 768.33,-924.49 766.46,-928.4 766.46,-928.4 766.46,-928.4 768.33,-924.49 770.38,-930.64 770.62,-919.67"/>
<text text-anchor="start" x="773.17" y="-939" font-family="Arial" font-size="10.00">FOREIGN KEY (user_id) REFERENCES users(id)</text>
</g>
<!-- public.comments&#45;&gt;public.posts -->
<g id="edge4" class="edge">
<title>public.comments:post_id&#45;&gt;public.posts:id</title>
<path fill="none" stroke="black" d="M492.29,-956.72C457.79,-933.06 474.98,-780.37 503.2,-747.2 566.23,-673.14 655.78,-785.07 719.03,-711.2 746.26,-679.4 761.9,-617 720.03,-617"/>
<polygon fill="black" stroke="black" points="492.34,-956.73 500.55,-964 497.43,-958.31 501.57,-959.6 501.57,-959.6 501.57,-959.6 497.43,-958.31 503.22,-955.4 492.34,-956.73"/>
<text text-anchor="start" x="272.93" y="-969.8" font-family="Arial" font-size="10.00">FOREIGN KEY (post_id) REFERENCES posts(id)</text>
</g>
<!-- public.comment_stars -->
<g id="node5" class="node">
<title>public.comment_stars</title>
<polygon fill="#efefef" stroke="none" points="541.71,-1348.8 541.71,-1384.4 838.67,-1384.4 838.67,-1348.8 541.71,-1348.8"/>
<polygon fill="none" stroke="black" points="541.71,-1348.8 541.71,-1384.4 838.67,-1384.4 838.67,-1348.8 541.71,-1348.8"/>
<text text-anchor="start" x="548.71" y="-1362.2" font-family="Arial Bold" font-size="18.00">public.comment_stars</text>
<text text-anchor="start" x="707.18" y="-1362.2" font-family="Arial" font-size="14.00">    </text>
<text text-anchor="start" x="738.29" y="-1362.2" font-family="Arial" font-size="14.00" fill="#666666">[BASE TABLE]</text>
<polygon fill="none" stroke="black" points="541.71,-1318 541.71,-1348.8 838.67,-1348.8 838.67,-1318 541.71,-1318"/>
<text text-anchor="start" x="548.71" y="-1330.2" font-family="Arial" font-size="14.00">id </text>
<text text-anchor="start" x="563.5" y="-1330.2" font-family="Arial" font-size="14.00" fill="#666666">[uuid]</text>
<polygon fill="none" stroke="black" points="541.71,-1287.2 541.71,-1318 838.67,-1318 838.67,-1287.2 541.71,-1287.2"/>
<text text-anchor="start" x="548.71" y="-1299.4" font-family="Arial" font-size="14.00">user_id </text>
<text text-anchor="start" x="598.52" y="-1299.4" font-family="Arial" font-size="14.00" fill="#666666">[integer]</text>
<polygon fill="none" stroke="black" points="541.71,-1256.4 541.71,-1287.2 838.67,-1287.2 838.67,-1256.4 541.71,-1256.4"/>
<text text-anchor="start" x="548.71" y="-1268.6" font-family="Arial" font-size="14.00">comment_post_id </text>
<text text-anchor="start" x="663.1" y="-1268.6" font-family="Arial" font-size="14.00" fill="#666666">[bigint]</text>
<polygon fill="none" stroke="black" points="541.71,-1225.6 541.71,-1256.4 838.67,-1256.4 838.67,-1225.6 541.71,-1225.6"/>
<text text-anchor="start" x="548.71" y="-1237.8" font-family="Arial" font-size="14.00">comment_user_id </text>
<text text-anchor="start" x="663.87" y="-1237.8" font-family="Arial" font-size="14.00" fill="#666666">[integer]</text>
<polygon fill="none" stroke="black" points="541.71,-1194.8 541.71,-1225.6 838.67,-1225.6 838.67,-1194.8 541.71,-1194.8"/>
<text text-anchor="start" x="548.71" y="-1207" font-family="Arial" font-size="14.00">created </text>
<text text-anchor="start" x="599.3" y="-1207" font-family="Arial" font-size="14.00" fill="#666666">[timestamp without time zone]</text>
<polygon fill="none" stroke="black" points="541.71,-1164 541.71,-1194.8 838.67,-1194.8 838.67,-1164 541.71,-1164"/>
<text text-anchor="start" x="548.71" y="-1176.2" font-family="Arial" font-size="14.00">updated </text>
<text text-anchor="start" x="603.21" y="-1176.2" font-family="Arial" font-size="14.00" fill="#666666">[timestamp without time zone]</text>
</g>
<!-- public.comment_stars&#45;&gt;public.users -->
<g id="edge5" class="edge">
<title>public.comment_stars:comment_user_id&#45;&gt;public.users:id</title>
<path fill="none" stroke="black" d="M843.99,-1231.8C865.92,-1129.7 846.01,-212.6 819.03,-212.6"/>
<polygon fill="black" stroke="black" points="844.06,-1231.65 835.73,-1238.78 841.79,-1236.47 839.95,-1240.39 839.95,-1240.39 839.95,-1240.39 841.79,-1236.47 843.88,-1242.61 844.06,-1231.65"/>
<text text-anchor="start" x="846.67" y="-1251" font-family="Arial" font-size="10.00">FOREIGN KEY (comment_user_id) REFERENCES users(id)</text>
</g>
<!-- public.comment_stars&#45;&gt;public.comments -->
<g id="edge6" class="edge">
<title>public.comment_stars:comment_post_id&#45;&gt;public.comments:post_id</title>
<path fill="none" stroke="black" d="M530.51,-1270.93C476.33,-1261 500.41,-1168.96 541.71,-1120.8 607.19,-1044.44 699.63,-1161.12 765.17,-1084.8 801.37,-1042.65 821.73,-959.8 766.17,-959.8"/>
<polygon fill="black" stroke="black" points="530.41,-1270.92 539.99,-1276.26 535.73,-1271.37 540.04,-1271.74 540.04,-1271.74 540.04,-1271.74 535.73,-1271.37 540.76,-1267.29 530.41,-1270.92"/>
<text text-anchor="start" x="94.67" y="-1281.8" font-family="Arial" font-size="10.00">FOREIGN KEY (comment_post_id, comment_user_id) REFERENCES comments(post_id, user_id)</text>
</g>
<!-- public.logs -->
<g id="node6" class="node">
<title>public.logs</title>
<polygon fill="#efefef" stroke="none" points="326.3,-1722.4 326.3,-1758 576.07,-1758 576.07,-1722.4 326.3,-1722.4"/>
<polygon fill="none" stroke="black" points="326.3,-1722.4 326.3,-1758 576.07,-1758 576.07,-1722.4 326.3,-1722.4"/>
<text text-anchor="start" x="349.19" y="-1735.8" font-family="Arial Bold" font-size="18.00">public.logs</text>
<text text-anchor="start" x="428.69" y="-1735.8" font-family="Arial" font-size="14.00">    </text>
<text text-anchor="start" x="459.81" y="-1735.8" font-family="Arial" font-size="14.00" fill="#666666">[BASE TABLE]</text>
<polygon fill="none" stroke="black" points="326.3,-1691.6 326.3,-1722.4 576.07,-1722.4 576.07,-1691.6 326.3,-1691.6"/>
<text text-anchor="start" x="333.3" y="-1703.8" font-family="Arial" font-size="14.00">id </text>
<text text-anchor="start" x="348.09" y="-1703.8" font-family="Arial" font-size="14.00" fill="#666666">[uuid]</text>
<polygon fill="none" stroke="black" points="326.3,-1660.8 326.3,-1691.6 576.07,-1691.6 576.07,-1660.8 326.3,-1660.8"/>
<text text-anchor="start" x="333.3" y="-1673" font-family="Arial" font-size="14.00">user_id </text>
<text text-anchor="start" x="383.11" y="-1673" font-family="Arial" font-size="14.00" fill="#666666">[integer]</text>
<polygon fill="none" stroke="black" points="326.3,-1630 326.3,-1660.8 576.07,-1660.8 576.07,-1630 326.3,-1630"/>
<text text-anchor="start" x="333.3" y="-1642.2" font-family="Arial" font-size="14.00">post_id </text>
<text text-anchor="start" x="382.34" y="-1642.2" font-family="Arial" font-size="14.00" fill="#666666">[bigint]</text>
<polygon fill="none" stroke="black" points="326.3,-1599.2 326.3,-1630 576.07,-1630 576.07,-1599.2 326.3,-1599.2"/>
<text text-anchor="start" x="333.3" y="-1611.4" font-family="Arial" font-size="14.00">comment_id </text>
<text text-anchor="start" x="413.45" y="-1611.4" font-family="Arial" font-size="14.00" fill="#666666">[bigint]</text>
<polygon fill="none" stroke="black" points="326.3,-1568.4 326.3,-1599.2 576.07,-1599.2 576.07,-1568.4 326.3,-1568.4"/>
<text text-anchor="start" x="333.3" y="-1580.6" font-family="Arial" font-size="14.00">comment_star_id </text>
<text text-anchor="start" x="444.57" y="-1580.6" font-family="Arial" font-size="14.00" fill="#666666">[uuid]</text>
<polygon fill="none" stroke="black" points="326.3,-1537.6 326.3,-1568.4 576.07,-1568.4 576.07,-1537.6 326.3,-1537.6"/>
<text text-anchor="start" x="333.3" y="-1549.8" font-family="Arial" font-size="14.00">payload </text>
<text text-anchor="start" x="386.23" y="-1549.8" font-family="Arial" font-size="14.00" fill="#666666">[text]</text>
<polygon fill="none" stroke="black" points="326.3,-1506.8 326.3,-1537.6 576.07,-1537.6 576.07,-1506.8 326.3,-1506.8"/>
<text text-anchor="start" x="333.3" y="-1519" font-family="Arial" font-size="14.00">created </text>
<text text-anchor="start" x="383.89" y="-1519" font-family="Arial" font-size="14.00" fill="#666666">[timestamp without time zone]</text>
</g>
<!-- public.logs&#45;&gt;public.users -->
<g id="edge12" class="edge">
<title>public.logs:user_id&#45;&gt;public.users:id</title>
<path fill="none" stroke="black" stroke-dasharray="5,2" d="M315.06,-1675.67C237.84,-1667 322.58,-1554.32 326.3,-1463.6 327.58,-1432.4 399.13,-370.68 413.19,-342.8 452.95,-263.92 475.02,-212.6 563.35,-212.6"/>
<polygon fill="black" stroke="black" points="314.98,-1675.66 324.73,-1680.68 320.31,-1675.94 324.63,-1676.17 324.63,-1676.17 324.63,-1676.17 320.31,-1675.94 325.2,-1671.69 314.98,-1675.66"/>
<text text-anchor="start" x="266.33" y="-1686.2" font-family="Arial" font-size="10.00">logs&#45;&gt;users</text>
</g>
<!-- public.logs&#45;&gt;public.posts -->
<g id="edge13" class="edge">
<title>public.logs:post_id&#45;&gt;public.posts:id</title>
<path fill="none" stroke="black" stroke-dasharray="5,2" d="M315.12,-1644.72C247.88,-1635.23 283.94,-1528.11 326.3,-1463.6 348.12,-1430.37 385.42,-1460.19 408.19,-1427.6 459.9,-1353.59 374.06,-617 464.35,-617"/>
<polygon fill="black" stroke="black" points="314.99,-1644.71 324.67,-1649.87 320.31,-1645.07 324.63,-1645.36 324.63,-1645.36 324.63,-1645.36 320.31,-1645.07 325.27,-1640.89 314.99,-1644.71"/>
<text text-anchor="start" x="234.91" y="-1655.4" font-family="Arial" font-size="10.00">Additional Relation</text>
</g>
<!-- public.logs&#45;&gt;public.comments -->
<g id="edge14" class="edge">
<title>public.logs:comment_id&#45;&gt;public.comments:id</title>
<path fill="none" stroke="black" stroke-dasharray="5,2" d="M587.22,-1613.77C640.81,-1604.29 611.49,-1516.24 576.07,-1463.6 552.74,-1428.92 512.41,-1462.36 489.19,-1427.6 462.2,-1387.21 453.63,-990.6 502.2,-990.6"/>
<polygon fill="black" stroke="black" points="587.37,-1613.75 577.04,-1610.09 582.06,-1614.19 577.74,-1614.55 577.74,-1614.55 577.74,-1614.55 582.06,-1614.19 577.78,-1619.06 587.37,-1613.75"/>
<text text-anchor="start" x="584.07" y="-1624.6" font-family="Arial" font-size="10.00">Additional Relation</text>
</g>
<!-- public.logs&#45;&gt;public.comment_stars -->
<g id="edge15" class="edge">
<title>public.logs:comment_star_id&#45;&gt;public.comment_stars:id</title>
<path fill="none" stroke="black" stroke-dasharray="5,2" d="M587.08,-1582.78C625.74,-1573.96 594.74,-1509.63 576.07,-1463.6 567.76,-1443.1 550.05,-1448.09 541.71,-1427.6 525.93,-1388.82 498.84,-1333.4 540.71,-1333.4"/>
<polygon fill="black" stroke="black" points="587.36,-1582.76 576.95,-1579.29 582.05,-1583.29 577.74,-1583.73 577.74,-1583.73 577.74,-1583.73 582.05,-1583.29 577.86,-1588.24 587.36,-1582.76"/>
<text text-anchor="start" x="584.07" y="-1593.8" font-family="Arial" font-size="10.00">Additional Relation</text>
</g>
<!-- public.post_comments -->
<g id="node7" class="node">
<title>public.post_comments</title>
<polygon fill="#efefef" stroke="none" points="680.35,-1722.4 680.35,-1758 934.03,-1758 934.03,-1722.4 680.35,-1722.4"/>
<polygon fill="none" stroke="black" points="680.35,-1722.4 680.35,-1758 934.03,-1758 934.03,-1722.4 680.35,-1722.4"/>
<text text-anchor="start" x="688.61" y="-1735.8" font-family="Arial Bold" font-size="18.00">public.post_comments</text>
<text text-anchor="start" x="851.09" y="-1735.8" font-family="Arial" font-size="14.00">    </text>
<text text-anchor="start" x="882.21" y="-1735.8" font-family="Arial" font-size="14.00" fill="#666666">[VIEW]</text>
<polygon fill="none" stroke="black" points="680.35,-1691.6 680.35,-1722.4 934.03,-1722.4 934.03,-1691.6 680.35,-1691.6"/>
<text text-anchor="start" x="687.35" y="-1703.8" font-family="Arial" font-size="14.00">id </text>
<text text-anchor="start" x="702.13" y="-1703.8" font-family="Arial" font-size="14.00" fill="#666666">[bigint]</text>
<polygon fill="none" stroke="black" points="680.35,-1660.8 680.35,-1691.6 934.03,-1691.6 934.03,-1660.8 680.35,-1660.8"/>
<text text-anchor="start" x="687.35" y="-1673" font-family="Arial" font-size="14.00">title </text>
<text text-anchor="start" x="713.02" y="-1673" font-family="Arial" font-size="14.00" fill="#666666">[varchar(255)]</text>
<polygon fill="none" stroke="black" points="680.35,-1630 680.35,-1660.8 934.03,-1660.8 934.03,-1630 680.35,-1630"/>
<text text-anchor="start" x="687.35" y="-1642.2" font-family="Arial" font-size="14.00">post_user </text>
<text text-anchor="start" x="752.72" y="-1642.2" font-family="Arial" font-size="14.00" fill="#666666">[varchar(50)]</text>
<polygon fill="none" stroke="black" points="680.35,-1599.2 680.35,-1630 934.03,-1630 934.03,-1599.2 680.35,-1599.2"/>
<text text-anchor="start" x="687.35" y="-1611.4" font-family="Arial" font-size="14.00">comment </text>
<text text-anchor="start" x="748.81" y="-1611.4" font-family="Arial" font-size="14.00" fill="#666666">[text]</text>
<polygon fill="none" stroke="black" points="680.35,-1568.4 680.35,-1599.2 934.03,-1599.2 934.03,-1568.4 680.35,-1568.4"/>
<text text-anchor="start" x="687.35" y="-1580.6" font-family="Arial" font-size="14.00">comment_user </text>
<text text-anchor="start" x="783.83" y="-1580.6" font-family="Arial" font-size="14.00" fill="#666666">[varchar(50)]</text>
<polygon fill="none" stroke="black" points="680.35,-1537.6 680.35,-1568.4 934.03,-1568.4 934.03,-1537.6 680.35,-1537.6"/>
<text text-anchor="start" x="687.35" y="-1549.8" font-family="Arial" font-size="14.00">created </text>
<text text-anchor="start" x="737.93" y="-1549.8" font-family="Arial" font-size="14.00" fill="#666666">[timestamp without time zone]</text>
<polygon fill="none" stroke="black" points="680.35,-1506.8 680.35,-1537.6 934.03,-1537.6 934.03,-1506.8 680.35,-1506.8"/>
<text text-anchor="start" x="687.35" y="-1519" font-family="Arial" font-size="14.00">updated </text>
<text text-anchor="start" x="741.84" y="-1519" font-family="Arial" font-size="14.00" fill="#666666">[timestamp without time zone]</text>
</g>
<!-- public.post_comment_stars -->
<g id="node8" class="node">
<title>public.post_comment_stars</title>
<polygon fill="#efefef" stroke="none" points="1038.22,-1691.6 1038.22,-1727.2 1430.16,-1727.2 1430.16,-1691.6 1038.22,-1691.6"/>
<polygon fill="none" stroke="black" points="1038.22,-1691.6 1038.22,-1727.2 1430.16,-1727.2 1430.16,-1691.6 1038.22,-1691.6"/>
<text text-anchor="start" x="1045.22" y="-1705" font-family="Arial Bold" font-size="18.00">public.post_comment_stars</text>
<text text-anchor="start" x="1242.69" y="-1705" font-family="Arial" font-size="14.00">    </text>
<text text-anchor="start" x="1273.81" y="-1705" font-family="Arial" font-size="14.00" fill="#666666">[MATERIALIZED VIEW]</text>
<polygon fill="none" stroke="black" points="1038.22,-1660.8 1038.22,-1691.6 1430.16,-1691.6 1430.16,-1660.8 1038.22,-1660.8"/>
<text text-anchor="start" x="1045.22" y="-1673" font-family="Arial" font-size="14.00">id </text>
<text text-anchor="start" x="1060" y="-1673" font-family="Arial" font-size="14.00" fill="#666666">[uuid]</text>
<polygon fill="none" stroke="black" points="1038.22,-1630 1038.22,-1660.8 1430.16,-1660.8 1430.16,-1630 1038.22,-1630"/>
<text text-anchor="start" x="1045.22" y="-1642.2" font-family="Arial" font-size="14.00">comment_user </text>
<text text-anchor="start" x="1141.7" y="-1642.2" font-family="Arial" font-size="14.00" fill="#666666">[varchar(50)]</text>
<polygon fill="none" stroke="black" points="1038.22,-1599.2 1038.22,-1630 1430.16,-1630 1430.16,-1599.2 1038.22,-1599.2"/>
<text text-anchor="start" x="1045.22" y="-1611.4" font-family="Arial" font-size="14.00">comment_star_user </text>
<text text-anchor="start" x="1172.82" y="-1611.4" font-family="Arial" font-size="14.00" fill="#666666">[varchar(50)]</text>
<polygon fill="none" stroke="black" points="1038.22,-1568.4 1038.22,-1599.2 1430.16,-1599.2 1430.16,-1568.4 1038.22,-1568.4"/>
<text text-anchor="start" x="1045.22" y="-1580.6" font-family="Arial" font-size="14.00">created </text>
<text text-anchor="start" x="1095.8" y="-1580.6" font-family="Arial" font-size="14.00" fill="#666666">[timestamp without time zone]</text>
<polygon fill="none" stroke="black" points="1038.22,-1537.6 1038.22,-1568.4 1430.16,-1568.4 1430.16,-1537.6 1038.22,-1537.6"/>
<text text-anchor="start" x="1045.22" y="-1549.8" font-family="Arial" font-size="14.00">updated </text>
<text text-anchor="start" x="1099.71" y="-1549.8" font-family="Arial" font-size="14.00" fill="#666666">[timestamp without time zone]</text>
</g>
<!-- public.CamelizeTable -->
<g id="node9" class="node">
<title>public.CamelizeTable</title>
<polygon fill="#efefef" stroke="none" points="1526.73,-1287.2 1526.73,-1322.8 1823.65,-1322.8 1823.65,-1287.2 1526.73,-1287.2"/>
<polygon fill="none" stroke="black" points="1526.73,-1287.2 1526.73,-1322.8 1823.65,-1322.8 1823.65,-1287.2 1526.73,-1287.2"/>
<text text-anchor="start" x="1533.73" y="-1300.6" font-family="Arial Bold" font-size="18.00">public.CamelizeTable</text>
<text text-anchor="start" x="1692.16" y="-1300.6" font-family="Arial" font-size="14.00">    </text>
<text text-anchor="start" x="1723.28" y="-1300.6" font-family="Arial" font-size="14.00" fill="#666666">[BASE TABLE]</text>
<polygon fill="none" stroke="black" points="1526.73,-1256.4 1526.73,-1287.2 1823.65,-1287.2 1823.65,-1256.4 1526.73,-1256.4"/>
<text text-anchor="start" x="1533.73" y="-1268.6" font-family="Arial" font-size="14.00">id </text>
<text text-anchor="start" x="1548.51" y="-1268.6" font-family="Arial" font-size="14.00" fill="#666666">[uuid]</text>
<polygon fill="none" stroke="black" points="1526.73,-1225.6 1526.73,-1256.4 1823.65,-1256.4 1823.65,-1225.6 1526.73,-1225.6"/>
<text text-anchor="start" x="1533.73" y="-1237.8" font-family="Arial" font-size="14.00">created </text>
<text text-anchor="start" x="1584.31" y="-1237.8" font-family="Arial" font-size="14.00" fill="#666666">[timestamp without time zone]</text>
</g>
<!-- public.hyphen&#45;table -->
<g id="node10" class="node">
<title>public.hyphen&#45;table</title>
<polygon fill="#efefef" stroke="none" points="1534.22,-1676.2 1534.22,-1711.8 1816.16,-1711.8 1816.16,-1676.2 1534.22,-1676.2"/>
<polygon fill="none" stroke="black" points="1534.22,-1676.2 1534.22,-1711.8 1816.16,-1711.8 1816.16,-1676.2 1534.22,-1676.2"/>
<text text-anchor="start" x="1541.22" y="-1689.6" font-family="Arial Bold" font-size="18.00">public.hyphen&#45;table</text>
<text text-anchor="start" x="1684.67" y="-1689.6" font-family="Arial" font-size="14.00">    </text>
<text text-anchor="start" x="1715.79" y="-1689.6" font-family="Arial" font-size="14.00" fill="#666666">[BASE TABLE]</text>
<polygon fill="none" stroke="black" points="1534.22,-1645.4 1534.22,-1676.2 1816.16,-1676.2 1816.16,-1645.4 1534.22,-1645.4"/>
<text text-anchor="start" x="1541.22" y="-1657.6" font-family="Arial" font-size="14.00">id </text>
<text text-anchor="start" x="1556" y="-1657.6" font-family="Arial" font-size="14.00" fill="#666666">[uuid]</text>
<polygon fill="none" stroke="black" points="1534.22,-1614.6 1534.22,-1645.4 1816.16,-1645.4 1816.16,-1614.6 1534.22,-1614.6"/>
<text text-anchor="start" x="1541.22" y="-1626.8" font-family="Arial" font-size="14.00">hyphen&#45;column </text>
<text text-anchor="start" x="1640.83" y="-1626.8" font-family="Arial" font-size="14.00" fill="#666666">[text]</text>
<polygon fill="none" stroke="black" points="1534.22,-1583.8 1534.22,-1614.6 1816.16,-1614.6 1816.16,-1583.8 1534.22,-1583.8"/>
<text text-anchor="start" x="1541.22" y="-1596" font-family="Arial" font-size="14.00">CamelizeTableId </text>
<text text-anchor="start" x="1650.15" y="-1596" font-family="Arial" font-size="14.00" fill="#666666">[uuid]</text>
<polygon fill="none" stroke="black" points="1534.22,-1553 1534.22,-1583.8 1816.16,-1583.8 1816.16,-1553 1534.22,-1553"/>
<text text-anchor="start" x="1541.22" y="-1565.2" font-family="Arial" font-size="14.00">created </text>
<text text-anchor="start" x="1591.8" y="-1565.2" font-family="Arial" font-size="14.00" fill="#666666">[timestamp without time zone]</text>
</g>
<!-- public.hyphen&#45;table&#45;&gt;public.CamelizeTable -->
<g id="edge7" class="edge">
<title>public.hyphen&#45;table:CamelizeTableId&#45;&gt;public.CamelizeTable:id</title>
<path fill="none" stroke="black" d="M1825.52,-1592.95C1854.48,-1547.69 1858.05,-1271.8 1824.65,-1271.8"/>
<polygon fill="black" stroke="black" points="1825.44,-1593.01 1814.73,-1595.39 1821.17,-1596.21 1817.7,-1598.8 1817.7,-1598.8 1817.7,-1598.8 1821.17,-1596.21 1820.12,-1602.6 1825.44,-1593.01"/>
<text text-anchor="start" x="1824.16" y="-1609.2" font-family="Arial" font-size="10.00">FOREIGN KEY (&quot;CamelizeTableId&quot;) REFERENCES &quot;CamelizeTable&quot;(id) ON DELETE CASCADE</text>
</g>
<!-- administrator.blogs -->
<g id="node11" class="node">
<title>administrator.blogs</title>
<polygon fill="#efefef" stroke="none" points="907.2,-601.6 907.2,-637.2 1185.17,-637.2 1185.17,-601.6 907.2,-601.6"/>
<polygon fill="none" stroke="black" points="907.2,-601.6 907.2,-637.2 1185.17,-637.2 1185.17,-601.6 907.2,-601.6"/>
<text text-anchor="start" x="914.2" y="-615" font-family="Arial Bold" font-size="18.00">administrator.blogs</text>
<text text-anchor="start" x="1053.68" y="-615" font-family="Arial" font-size="14.00">    </text>
<text text-anchor="start" x="1084.8" y="-615" font-family="Arial" font-size="14.00" fill="#666666">[BASE TABLE]</text>
<polygon fill="none" stroke="black" points="907.2,-570.8 907.2,-601.6 1185.17,-601.6 1185.17,-570.8 907.2,-570.8"/>
<text text-anchor="start" x="914.2" y="-583" font-family="Arial" font-size="14.00">id </text>
<text text-anchor="start" x="928.99" y="-583" font-family="Arial" font-size="14.00" fill="#666666">[integer]</text>
<polygon fill="none" stroke="black" points="907.2,-540 907.2,-570.8 1185.17,-570.8 1185.17,-540 907.2,-540"/>
<text text-anchor="start" x="914.2" y="-552.2" font-family="Arial" font-size="14.00">user_id </text>
<text text-anchor="start" x="964.01" y="-552.2" font-family="Arial" font-size="14.00" fill="#666666">[integer]</text>
<polygon fill="none" stroke="black" points="907.2,-509.2 907.2,-540 1185.17,-540 1185.17,-509.2 907.2,-509.2"/>
<text text-anchor="start" x="914.2" y="-521.4" font-family="Arial" font-size="14.00">name </text>
<text text-anchor="start" x="953.11" y="-521.4" font-family="Arial" font-size="14.00" fill="#666666">[text]</text>
<polygon fill="none" stroke="black" points="907.2,-478.4 907.2,-509.2 1185.17,-509.2 1185.17,-478.4 907.2,-478.4"/>
<text text-anchor="start" x="914.2" y="-490.6" font-family="Arial" font-size="14.00">description </text>
<text text-anchor="start" x="985.79" y="-490.6" font-family="Arial" font-size="14.00" fill="#666666">[text]</text>
<polygon fill="none" stroke="black" points="907.2,-447.6 907.2,-478.4 1185.17,-478.4 1185.17,-447.6 907.2,-447.6"/>
<text text-anchor="start" x="914.2" y="-459.8" font-family="Arial" font-size="14.00">created </text>
<text text-anchor="start" x="964.79" y="-459.8" font-family="Arial" font-size="14.00" fill="#666666">[timestamp without time zone]</text>
<polygon fill="none" stroke="black" points="907.2,-416.8 907.2,-447.6 1185.17,-447.6 1185.17,-416.8 907.2,-416.8"/>
<text text-anchor="start" x="914.2" y="-429" font-family="Arial" font-size="14.00">updated </text>
<text text-anchor="start" x="968.7" y="-429" font-family="Arial" font-size="14.00" fill="#666666">[timestamp without time zone]</text>
</g>
<!-- administrator.blogs&#45;&gt;public.users -->
<g id="edge8" class="edge">
<title>administrator.blogs:user_id&#45;&gt;public.users:id</title>
<path fill="none" stroke="black" d="M896.1,-553.21C833.84,-524.02 893.95,-212.6 819.03,-212.6"/>
<polygon fill="black" stroke="black" points="896.1,-553.21 904.92,-559.73 901.32,-554.34 905.55,-555.26 905.55,-555.26 905.55,-555.26 901.32,-554.34 906.83,-550.93 896.1,-553.21"/>
<text text-anchor="start" x="652.23" y="-539.4" font-family="Arial" font-size="10.00">FOREIGN KEY (user_id) REFERENCES users(id) ON DELETE CASCADE</text>
</g>
<!-- backup.blogs -->
<g id="node12" class="node">
<title>backup.blogs</title>
<polygon fill="#efefef" stroke="none" points="1938.35,-1333.4 1938.35,-1369 2192.03,-1369 2192.03,-1333.4 1938.35,-1333.4"/>
<polygon fill="none" stroke="black" points="1938.35,-1333.4 1938.35,-1369 2192.03,-1369 2192.03,-1333.4 1938.35,-1333.4"/>
<text text-anchor="start" x="1955.2" y="-1346.8" font-family="Arial Bold" font-size="18.00">backup.blogs</text>
<text text-anchor="start" x="2050.69" y="-1346.8" font-family="Arial" font-size="14.00">    </text>
<text text-anchor="start" x="2081.8" y="-1346.8" font-family="Arial" font-size="14.00" fill="#666666">[BASE TABLE]</text>
<polygon fill="none" stroke="black" points="1938.35,-1302.6 1938.35,-1333.4 2192.03,-1333.4 2192.03,-1302.6 1938.35,-1302.6"/>
<text text-anchor="start" x="1945.35" y="-1314.8" font-family="Arial" font-size="14.00">id </text>
<text text-anchor="start" x="1960.13" y="-1314.8" font-family="Arial" font-size="14.00" fill="#666666">[integer]</text>
<polygon fill="none" stroke="black" points="1938.35,-1271.8 1938.35,-1302.6 2192.03,-1302.6 2192.03,-1271.8 1938.35,-1271.8"/>
<text text-anchor="start" x="1945.35" y="-1284" font-family="Arial" font-size="14.00">user_id </text>
<text text-anchor="start" x="1995.15" y="-1284" font-family="Arial" font-size="14.00" fill="#666666">[integer]</text>
<polygon fill="none" stroke="black" points="1938.35,-1241 1938.35,-1271.8 2192.03,-1271.8 2192.03,-1241 1938.35,-1241"/>
<text text-anchor="start" x="1945.35" y="-1253.2" font-family="Arial" font-size="14.00">dump </text>
<text text-anchor="start" x="1984.26" y="-1253.2" font-family="Arial" font-size="14.00" fill="#666666">[text]</text>
<polygon fill="none" stroke="black" points="1938.35,-1210.2 1938.35,-1241 2192.03,-1241 2192.03,-1210.2 1938.35,-1210.2"/>
<text text-anchor="start" x="1945.35" y="-1222.4" font-family="Arial" font-size="14.00">created </text>
<text text-anchor="start" x="1995.93" y="-1222.4" font-family="Arial" font-size="14.00" fill="#666666">[timestamp without time zone]</text>
<polygon fill="none" stroke="black" points="1938.35,-1179.4 1938.35,-1210.2 2192.03,-1210.2 2192.03,-1179.4 1938.35,-1179.4"/>
<text text-anchor="start" x="1945.35" y="-1191.6" font-family="Arial" font-size="14.00">updated </text>
<text text-anchor="start" x="1999.84" y="-1191.6" font-family="Arial" font-size="14.00" fill="#666666">[timestamp without time zone]</text>
</g>
<!-- backup.blog_options -->
<g id="node13" class="node">
<title>backup.blog_options</title>
<polygon fill="#efefef" stroke="none" points="1920.7,-1676.2 1920.7,-1711.8 2209.68,-1711.8 2209.68,-1676.2 1920.7,-1676.2"/>
<polygon fill="none" stroke="black" points="1920.7,-1676.2 1920.7,-1711.8 2209.68,-1711.8 2209.68,-1676.2 1920.7,-1676.2"/>
<text text-anchor="start" x="1927.7" y="-1689.6" font-family="Arial Bold" font-size="18.00">backup.blog_options</text>
<text text-anchor="start" x="2078.19" y="-1689.6" font-family="Arial" font-size="14.00">    </text>
<text text-anchor="start" x="2109.3" y="-1689.6" font-family="Arial" font-size="14.00" fill="#666666">[BASE TABLE]</text>
<polygon fill="none" stroke="black" points="1920.7,-1645.4 1920.7,-1676.2 2209.68,-1676.2 2209.68,-1645.4 1920.7,-1645.4"/>
<text text-anchor="start" x="1927.7" y="-1657.6" font-family="Arial" font-size="14.00">id </text>
<text text-anchor="start" x="1942.49" y="-1657.6" font-family="Arial" font-size="14.00" fill="#666666">[integer]</text>
<polygon fill="none" stroke="black" points="1920.7,-1614.6 1920.7,-1645.4 2209.68,-1645.4 2209.68,-1614.6 1920.7,-1614.6"/>
<text text-anchor="start" x="1927.7" y="-1626.8" font-family="Arial" font-size="14.00">blog_id </text>
<text text-anchor="start" x="1976.74" y="-1626.8" font-family="Arial" font-size="14.00" fill="#666666">[integer]</text>
<polygon fill="none" stroke="black" points="1920.7,-1583.8 1920.7,-1614.6 2209.68,-1614.6 2209.68,-1583.8 1920.7,-1583.8"/>
<text text-anchor="start" x="1927.7" y="-1596" font-family="Arial" font-size="14.00">label </text>
<text text-anchor="start" x="1961.17" y="-1596" font-family="Arial" font-size="14.00" fill="#666666">[text]</text>
<polygon fill="none" stroke="black" points="1920.7,-1553 1920.7,-1583.8 2209.68,-1583.8 2209.68,-1553 1920.7,-1553"/>
<text text-anchor="start" x="1927.7" y="-1565.2" font-family="Arial" font-size="14.00">updated </text>
<text text-anchor="start" x="1982.2" y="-1565.2" font-family="Arial" font-size="14.00" fill="#666666">[timestamp without time zone]</text>
</g>
<!-- backup.blog_options&#45;&gt;backup.blogs -->
<g id="edge9" class="edge">
<title>backup.blog_options:blog_id&#45;&gt;backup.blogs:id</title>
<path fill="none" stroke="black" d="M2218.49,-1623.48C2242.24,-1578.68 2224.77,-1318 2193.03,-1318"/>
<polygon fill="black" stroke="black" points="2218.61,-1623.38 2208.05,-1626.33 2214.52,-1626.8 2211.19,-1629.57 2211.19,-1629.57 2211.19,-1629.57 2214.52,-1626.8 2213.81,-1633.24 2218.61,-1623.38"/>
<text text-anchor="start" x="2217.68" y="-1640" font-family="Arial" font-size="10.00">FOREIGN KEY (blog_id) REFERENCES blogs(id) ON DELETE CASCADE</text>
</g>
<!-- time.bar -->
<g id="node14" class="node">
<title>time.bar</title>
<polygon fill="#efefef" stroke="none" points="2296.21,-1271.8 2296.21,-1307.4 2494.17,-1307.4 2494.17,-1271.8 2296.21,-1271.8"/>
<polygon fill="none" stroke="black" points="2296.21,-1271.8 2296.21,-1307.4 2494.17,-1307.4 2494.17,-1271.8 2296.21,-1271.8"/>
<text text-anchor="start" x="2303.21" y="-1285.2" font-family="Arial Bold" font-size="18.00">time.bar</text>
<text text-anchor="start" x="2362.68" y="-1285.2" font-family="Arial" font-size="14.00">    </text>
<text text-anchor="start" x="2393.8" y="-1285.2" font-family="Arial" font-size="14.00" fill="#666666">[BASE TABLE]</text>
<polygon fill="none" stroke="black" points="2296.21,-1241 2296.21,-1271.8 2494.17,-1271.8 2494.17,-1241 2296.21,-1241"/>
<text text-anchor="start" x="2303.21" y="-1253.2" font-family="Arial" font-size="14.00">id </text>
<text text-anchor="start" x="2317.99" y="-1253.2" font-family="Arial" font-size="14.00" fill="#666666">[integer]</text>
</g>
<!-- time.hyphenated&#45;table -->
<g id="node15" class="node">
<title>time.hyphenated&#45;table</title>
<polygon fill="#efefef" stroke="none" points="2598.73,-1271.8 2598.73,-1307.4 2897.65,-1307.4 2897.65,-1271.8 2598.73,-1271.8"/>
<polygon fill="none" stroke="black" points="2598.73,-1271.8 2598.73,-1307.4 2897.65,-1307.4 2897.65,-1271.8 2598.73,-1271.8"/>
<text text-anchor="start" x="2605.73" y="-1285.2" font-family="Arial Bold" font-size="18.00">time.hyphenated&#45;table</text>
<text text-anchor="start" x="2766.16" y="-1285.2" font-family="Arial" font-size="14.00">    </text>
<text text-anchor="start" x="2797.28" y="-1285.2" font-family="Arial" font-size="14.00" fill="#666666">[BASE TABLE]</text>
<polygon fill="none" stroke="black" points="2598.73,-1241 2598.73,-1271.8 2897.65,-1271.8 2897.65,-1241 2598.73,-1241"/>
<text text-anchor="start" x="2605.73" y="-1253.2" font-family="Arial" font-size="14.00">id </text>
<text text-anchor="start" x="2620.51" y="-1253.2" font-family="Arial" font-size="14.00" fill="#666666">[integer]</text>
</g>
<!-- time.referencing -->
<g id="node16" class="node">
<title>time.referencing</title>
<polygon fill="#efefef" stroke="none" points="2466.73,-1660.8 2466.73,-1696.4 2723.65,-1696.4 2723.65,-1660.8 2466.73,-1660.8"/>
<polygon fill="none" stroke="black" points="2466.73,-1660.8 2466.73,-1696.4 2723.65,-1696.4 2723.65,-1660.8 2466.73,-1660.8"/>
<text text-anchor="start" x="2473.73" y="-1674.2" font-family="Arial Bold" font-size="18.00">time.referencing</text>
<text text-anchor="start" x="2592.16" y="-1674.2" font-family="Arial" font-size="14.00">    </text>
<text text-anchor="start" x="2623.28" y="-1674.2" font-family="Arial" font-size="14.00" fill="#666666">[BASE TABLE]</text>
<polygon fill="none" stroke="black" points="2466.73,-1630 2466.73,-1660.8 2723.65,-1660.8 2723.65,-1630 2466.73,-1630"/>
<text text-anchor="start" x="2473.73" y="-1642.2" font-family="Arial" font-size="14.00">id </text>
<text text-anchor="start" x="2488.51" y="-1642.2" font-family="Arial" font-size="14.00" fill="#666666">[integer]</text>
<polygon fill="none" stroke="black" points="2466.73,-1599.2 2466.73,-1630 2723.65,-1630 2723.65,-1599.2 2466.73,-1599.2"/>
<text text-anchor="start" x="2473.73" y="-1611.4" font-family="Arial" font-size="14.00">bar_id </text>
<text text-anchor="start" x="2516.53" y="-1611.4" font-family="Arial" font-size="14.00" fill="#666666">[integer]</text>
<polygon fill="none" stroke="black" points="2466.73,-1568.4 2466.73,-1599.2 2723.65,-1599.2 2723.65,-1568.4 2466.73,-1568.4"/>
<text text-anchor="start" x="2473.73" y="-1580.6" font-family="Arial" font-size="14.00">ht_id </text>
<text text-anchor="start" x="2507.97" y="-1580.6" font-family="Arial" font-size="14.00" fill="#666666">[integer]</text>
</g>
<!-- time.referencing&#45;&gt;time.bar -->
<g id="edge10" class="edge">
<title>time.referencing:bar_id&#45;&gt;time.bar:id</title>
<path fill="none" stroke="black" d="M2455.32,-1614.02C2322.07,-1598.01 2651.16,-1256.4 2495.17,-1256.4"/>
<polygon fill="black" stroke="black" points="2455.41,-1614.02 2465.14,-1619.07 2460.73,-1614.32 2465.06,-1614.56 2465.06,-1614.56 2465.06,-1614.56 2460.73,-1614.32 2465.64,-1610.09 2455.41,-1614.02"/>
<text text-anchor="start" x="2284.37" y="-1598.6" font-family="Arial" font-size="10.00">FOREIGN KEY (bar_id) REFERENCES &quot;time&quot;.bar(id)</text>
</g>
<!-- time.referencing&#45;&gt;time.hyphenated&#45;table -->
<g id="edge11" class="edge">
<title>time.referencing:ht_id&#45;&gt;time.hyphenated&#45;table:id</title>
<path fill="none" stroke="black" d="M2734.38,-1581.02C2744.52,-1572.43 2730.41,-1545.68 2723.65,-1525.2 2693.72,-1434.6 2628.36,-1441.3 2598.73,-1350.6 2585.72,-1310.8 2555.86,-1256.4 2597.73,-1256.4"/>
<polygon fill="black" stroke="black" points="2734.58,-1580.96 2723.73,-1579.38 2729.46,-1582.43 2725.29,-1583.62 2725.29,-1583.62 2725.29,-1583.62 2729.46,-1582.43 2726.21,-1588.03 2734.58,-1580.96"/>
<text text-anchor="start" x="2731.65" y="-1593.8" font-family="Arial" font-size="10.00">FOREIGN KEY (ht_id) REFERENCES &quot;time&quot;.&quot;hyphenated&#45;table&quot;(id)</text>
</g>
</g>
</svg>
