<?xml version="1.0" encoding="UTF-8" standalone="no"?>
<!DOCTYPE svg PUBLIC "-//W3C//DTD SVG 1.1//EN"
 "http://www.w3.org/Graphics/SVG/1.1/DTD/svg11.dtd">
<!-- Generated by graphviz version 2.40.1 (20161225.0304)
 -->
<!-- Title: time.hyphenated&#45;table Pages: 1 -->
<svg width="539pt" height="426pt"
 viewBox="0.00 0.00 538.55 425.52" xmlns="http://www.w3.org/2000/svg" xmlns:xlink="http://www.w3.org/1999/xlink">
<g id="graph0" class="graph" transform="scale(1 1) rotate(0) translate(4 421.5158)">
<title>time.hyphenated&#45;table</title>
<polygon fill="#ffffff" stroke="transparent" points="-4,4 -4,-421.5158 534.551,-421.5158 534.551,4 -4,4"/>
<!-- time.hyphenated&#45;table -->
<g id="node1" class="node">
<title>time.hyphenated&#45;table</title>
<polygon fill="#efefef" stroke="transparent" points="154,-89.0158 154,-124.0158 473,-124.0158 473,-89.0158 154,-89.0158"/>
<polygon fill="none" stroke="#000000" points="154,-89.0158 154,-124.0158 473,-124.0158 473,-89.0158 154,-89.0158"/>
<text text-anchor="start" x="160.688" y="-101.8158" font-family="Arial Bold" font-size="18.00" fill="#000000">time.hyphenated&#45;table</text>
<text text-anchor="start" x="338.744" y="-101.8158" font-family="Arial" font-size="14.00" fill="#000000">    </text>
<text text-anchor="start" x="372.9488" y="-101.8158" font-family="Arial" font-size="14.00" fill="#666666">[BASE TABLE]</text>
<polygon fill="none" stroke="#000000" points="154,-59.0158 154,-89.0158 473,-89.0158 473,-59.0158 154,-59.0158"/>
<text text-anchor="start" x="161" y="-70.4158" font-family="Arial" font-size="14.00" fill="#000000">id </text>
<text text-anchor="start" x="175.7798" y="-70.4158" font-family="Arial" font-size="14.00" fill="#666666">[integer]</text>
<polygon fill="none" stroke="#000000" stroke-width="3" points="152,-58.0158 152,-126.0158 474,-126.0158 474,-58.0158 152,-58.0158"/>
</g>
<!-- time.referencing -->
<g id="node2" class="node">
<title>time.referencing</title>
<polygon fill="#efefef" stroke="transparent" points="179,-339.0158 179,-374.0158 449,-374.0158 449,-339.0158 179,-339.0158"/>
<polygon fill="none" stroke="#000000" points="179,-339.0158 179,-374.0158 449,-374.0158 449,-339.0158 179,-339.0158"/>
<text text-anchor="start" x="185.7085" y="-351.8158" font-family="Arial Bold" font-size="18.00" fill="#000000">time.referencing</text>
<text text-anchor="start" x="314.7235" y="-351.8158" font-family="Arial" font-size="14.00" fill="#000000">    </text>
<text text-anchor="start" x="348.9283" y="-351.8158" font-family="Arial" font-size="14.00" fill="#666666">[BASE TABLE]</text>
<polygon fill="none" stroke="#000000" points="179,-309.0158 179,-339.0158 449,-339.0158 449,-309.0158 179,-309.0158"/>
<text text-anchor="start" x="186" y="-320.4158" font-family="Arial" font-size="14.00" fill="#000000">id    </text>
<text text-anchor="start" x="231.094" y="-320.4158" font-family="Arial" font-size="14.00" fill="#666666">[integer]</text>
<polygon fill="none" stroke="#000000" points="179,-279.0158 179,-309.0158 449,-309.0158 449,-279.0158 179,-279.0158"/>
<text text-anchor="start" x="186" y="-290.4158" font-family="Arial" font-size="14.00" fill="#000000">bar_id    </text>
<text text-anchor="start" x="259.1024" y="-290.4158" font-family="Arial" font-size="14.00" fill="#666666">[integer]</text>
<polygon fill="none" stroke="#000000" points="179,-249.0158 179,-279.0158 449,-279.0158 449,-249.0158 179,-249.0158"/>
<text text-anchor="start" x="186" y="-260.4158" font-family="Arial" font-size="14.00" fill="#000000">ht_id    </text>
<text text-anchor="start" x="250.5498" y="-260.4158" font-family="Arial" font-size="14.00" fill="#666666">[integer]</text>
</g>
<!-- time.referencing&#45;&gt;time.hyphenated&#45;table -->
<g id="edge1" class="edge">
<title>time.referencing:ht_id&#45;&gt;time.hyphenated&#45;table:id</title>
<path fill="none" stroke="#000000" d="M314.6046,-238.9698C324.9554,-158.7679 465.4037,-247.7713 518.5,-170.5158 532.5343,-150.0958 536.0205,-76.5363 518.5,-59.0158 454.2319,5.2524 314,31.8731 314,-59.0158"/>
<polygon fill="#000000" stroke="#000000" points="314.6008,-239.0338 309.5081,-248.7454 314.3004,-244.0248 314,-249.0158 314,-249.0158 314,-249.0158 314.3004,-244.0248 318.4919,-249.2862 314.6008,-239.0338 314.6008,-239.0338"/>
<text text-anchor="start" x="6.5545" y="-259.0158" font-family="Arial" font-size="10.00" fill="#000000">FOREIGN KEY (ht_id) REFERENCES &quot;time&quot;.&quot;hyphenated&#45;table&quot;(id)</text>
</g>
</g>
</svg>
