<?xml version="1.0" encoding="UTF-8" standalone="no"?>
<!DOCTYPE svg PUBLIC "-//W3C//DTD SVG 1.1//EN"
 "http://www.w3.org/Graphics/SVG/1.1/DTD/svg11.dtd">
<!-- Generated by graphviz version 12.1.2 (20240928.0832)
 -->
<!-- Pages: 1 -->
<svg width="313pt" height="346pt"
 viewBox="0.00 0.00 313.13 345.60" xmlns="http://www.w3.org/2000/svg" xmlns:xlink="http://www.w3.org/1999/xlink">
<g id="graph0" class="graph" transform="scale(1 1) rotate(0) translate(4 341.6)">
<polygon fill="white" stroke="none" points="-4,4 -4,-341.6 309.13,-341.6 309.13,4 -4,4"/>
<!-- test.restaurants -->
<g id="node1" class="node">
<title>test.restaurants</title>
<polygon fill="#efefef" stroke="none" points="43.2,-258.8 43.2,-294.4 261.93,-294.4 261.93,-258.8 43.2,-258.8"/>
<polygon fill="none" stroke="black" points="43.2,-258.8 43.2,-294.4 261.93,-294.4 261.93,-258.8 43.2,-258.8"/>
<text text-anchor="start" x="50.2" y="-272.2" font-family="Arial Bold" font-size="18.00">test.restaurants</text>
<text text-anchor="start" x="157.66" y="-272.2" font-family="Arial" font-size="14.00">    </text>
<text text-anchor="start" x="188.78" y="-272.2" font-family="Arial" font-size="14.00" fill="#666666">[collection]</text>
<polygon fill="none" stroke="black" points="43.2,-228 43.2,-258.8 261.93,-258.8 261.93,-228 43.2,-228"/>
<text text-anchor="start" x="50.2" y="-240.2" font-family="Arial" font-size="14.00">_id </text>
<text text-anchor="start" x="72.77" y="-240.2" font-family="Arial" font-size="14.00" fill="#666666">[objectId]</text>
<polygon fill="none" stroke="black" points="43.2,-197.2 43.2,-228 261.93,-228 261.93,-197.2 43.2,-197.2"/>
<text text-anchor="start" x="50.2" y="-209.4" font-family="Arial" font-size="14.00">address </text>
<text text-anchor="start" x="103.9" y="-209.4" font-family="Arial" font-size="14.00" fill="#666666">[document]</text>
<polygon fill="none" stroke="black" points="43.2,-166.4 43.2,-197.2 261.93,-197.2 261.93,-166.4 43.2,-166.4"/>
<text text-anchor="start" x="50.2" y="-178.6" font-family="Arial" font-size="14.00">borough </text>
<text text-anchor="start" x="105.47" y="-178.6" font-family="Arial" font-size="14.00" fill="#666666">[string]</text>
<polygon fill="none" stroke="black" points="43.2,-135.6 43.2,-166.4 261.93,-166.4 261.93,-135.6 43.2,-135.6"/>
<text text-anchor="start" x="50.2" y="-147.8" font-family="Arial" font-size="14.00">cuisine </text>
<text text-anchor="start" x="97.67" y="-147.8" font-family="Arial" font-size="14.00" fill="#666666">[string]</text>
<polygon fill="none" stroke="black" points="43.2,-104.8 43.2,-135.6 261.93,-135.6 261.93,-104.8 43.2,-104.8"/>
<text text-anchor="start" x="50.2" y="-117" font-family="Arial" font-size="14.00">grades </text>
<text text-anchor="start" x="96.9" y="-117" font-family="Arial" font-size="14.00" fill="#666666">[array]</text>
<polygon fill="none" stroke="black" points="43.2,-74 43.2,-104.8 261.93,-104.8 261.93,-74 43.2,-74"/>
<text text-anchor="start" x="50.2" y="-86.2" font-family="Arial" font-size="14.00">name </text>
<text text-anchor="start" x="89.11" y="-86.2" font-family="Arial" font-size="14.00" fill="#666666">[string]</text>
<polygon fill="none" stroke="black" points="43.2,-43.2 43.2,-74 261.93,-74 261.93,-43.2 43.2,-43.2"/>
<text text-anchor="start" x="50.2" y="-55.4" font-family="Arial" font-size="14.00">restaurant_id </text>
<text text-anchor="start" x="135.81" y="-55.4" font-family="Arial" font-size="14.00" fill="#666666">[string]</text>
</g>
</g>
</svg>
