<?xml version="1.0" encoding="UTF-8" standalone="no"?>
<!DOCTYPE svg PUBLIC "-//W3C//DTD SVG 1.1//EN"
 "http://www.w3.org/Graphics/SVG/1.1/DTD/svg11.dtd">
<!-- Generated by graphviz version 2.40.1 (20161225.0304)
 -->
<!-- Pages: 1 -->
<svg width="302pt" height="339pt"
 viewBox="0.00 0.00 302.00 339.00" xmlns="http://www.w3.org/2000/svg" xmlns:xlink="http://www.w3.org/1999/xlink">
<g id="graph0" class="graph" transform="scale(1 1) rotate(0) translate(4 335)">
<polygon fill="#ffffff" stroke="transparent" points="-4,4 -4,-335 298,-335 298,4 -4,4"/>
<!-- test.restaurants -->
<g id="node1" class="node">
<title>test.restaurants</title>
<polygon fill="#efefef" stroke="transparent" points="43,-252.5 43,-287.5 251,-287.5 251,-252.5 43,-252.5"/>
<polygon fill="none" stroke="#000000" points="43,-252.5 43,-287.5 251,-287.5 251,-252.5 43,-252.5"/>
<text text-anchor="start" x="49.9774" y="-265.3" font-family="Arial Bold" font-size="18.00" fill="#000000">test.restaurants</text>
<text text-anchor="start" x="174.01" y="-265.3" font-family="Arial" font-size="14.00" fill="#000000"> </text>
<text text-anchor="start" x="177.9006" y="-265.3" font-family="Arial" font-size="14.00" fill="#666666">[collection]</text>
<polygon fill="none" stroke="#000000" points="43,-222.5 43,-252.5 251,-252.5 251,-222.5 43,-222.5"/>
<text text-anchor="start" x="50" y="-233.9" font-family="Arial" font-size="14.00" fill="#000000">name </text>
<text text-anchor="start" x="88.899" y="-233.9" font-family="Arial" font-size="14.00" fill="#666666">[string]</text>
<polygon fill="none" stroke="#000000" points="43,-192.5 43,-222.5 251,-222.5 251,-192.5 43,-192.5"/>
<text text-anchor="start" x="50" y="-203.9" font-family="Arial" font-size="14.00" fill="#000000">restaurant_id </text>
<text text-anchor="start" x="135.5778" y="-203.9" font-family="Arial" font-size="14.00" fill="#666666">[string]</text>
<polygon fill="none" stroke="#000000" points="43,-162.5 43,-192.5 251,-192.5 251,-162.5 43,-162.5"/>
<text text-anchor="start" x="50" y="-173.9" font-family="Arial" font-size="14.00" fill="#000000">_id </text>
<text text-anchor="start" x="72.5624" y="-173.9" font-family="Arial" font-size="14.00" fill="#666666">[objectId]</text>
<polygon fill="none" stroke="#000000" points="43,-132.5 43,-162.5 251,-162.5 251,-132.5 43,-132.5"/>
<text text-anchor="start" x="50" y="-143.9" font-family="Arial" font-size="14.00" fill="#000000">address </text>
<text text-anchor="start" x="103.6816" y="-143.9" font-family="Arial" font-size="14.00" fill="#666666">[document]</text>
<polygon fill="none" stroke="#000000" points="43,-102.5 43,-132.5 251,-132.5 251,-102.5 43,-102.5"/>
<text text-anchor="start" x="50" y="-113.9" font-family="Arial" font-size="14.00" fill="#000000">borough </text>
<text text-anchor="start" x="105.2468" y="-113.9" font-family="Arial" font-size="14.00" fill="#666666">[string]</text>
<polygon fill="none" stroke="#000000" points="43,-72.5 43,-102.5 251,-102.5 251,-72.5 43,-72.5"/>
<text text-anchor="start" x="50" y="-83.9" font-family="Arial" font-size="14.00" fill="#000000">cuisine </text>
<text text-anchor="start" x="97.4516" y="-83.9" font-family="Arial" font-size="14.00" fill="#666666">[string]</text>
<polygon fill="none" stroke="#000000" points="43,-42.5 43,-72.5 251,-72.5 251,-42.5 43,-42.5"/>
<text text-anchor="start" x="50" y="-53.9" font-family="Arial" font-size="14.00" fill="#000000">grades </text>
<text text-anchor="start" x="96.6816" y="-53.9" font-family="Arial" font-size="14.00" fill="#666666">[array]</text>
</g>
</g>
</svg>
