<?xml version="1.0" encoding="UTF-8" standalone="no"?>
<!DOCTYPE svg PUBLIC "-//W3C//DTD SVG 1.1//EN"
 "http://www.w3.org/Graphics/SVG/1.1/DTD/svg11.dtd">
<!-- Generated by graphviz version 2.40.1 (20161225.0304)
 -->
<!-- Title: comments Pages: 1 -->
<svg width="861pt" height="1079pt"
 viewBox="0.00 0.00 860.50 1079.00" xmlns="http://www.w3.org/2000/svg" xmlns:xlink="http://www.w3.org/1999/xlink">
<g id="graph0" class="graph" transform="scale(1 1) rotate(0) translate(4 1075)">
<title>comments</title>
<polygon fill="#ffffff" stroke="transparent" points="-4,4 -4,-1075 856.5,-1075 856.5,4 -4,4"/>
<!-- comments -->
<g id="node1" class="node">
<title>comments</title>
<polygon fill="#efefef" stroke="transparent" points="250.5,-622.5 250.5,-657.5 474.5,-657.5 474.5,-622.5 250.5,-622.5"/>
<polygon fill="none" stroke="#000000" points="250.5,-622.5 250.5,-657.5 474.5,-657.5 474.5,-622.5 250.5,-622.5"/>
<text text-anchor="start" x="257.2134" y="-635.3" font-family="Arial Bold" font-size="18.00" fill="#000000">comments</text>
<text text-anchor="start" x="340.2186" y="-635.3" font-family="Arial" font-size="14.00" fill="#000000">    </text>
<text text-anchor="start" x="374.4234" y="-635.3" font-family="Arial" font-size="14.00" fill="#666666">[BASE TABLE]</text>
<polygon fill="none" stroke="#000000" points="250.5,-592.5 250.5,-622.5 474.5,-622.5 474.5,-592.5 250.5,-592.5"/>
<text text-anchor="start" x="257.5" y="-603.9" font-family="Arial" font-size="14.00" fill="#000000">id </text>
<text text-anchor="start" x="272.2798" y="-603.9" font-family="Arial" font-size="14.00" fill="#666666">[bigint]</text>
<polygon fill="none" stroke="#000000" points="250.5,-562.5 250.5,-592.5 474.5,-592.5 474.5,-562.5 250.5,-562.5"/>
<text text-anchor="start" x="257.5" y="-573.9" font-family="Arial" font-size="14.00" fill="#000000">post_id </text>
<text text-anchor="start" x="306.5182" y="-573.9" font-family="Arial" font-size="14.00" fill="#666666">[bigint]</text>
<polygon fill="none" stroke="#000000" points="250.5,-532.5 250.5,-562.5 474.5,-562.5 474.5,-532.5 250.5,-532.5"/>
<text text-anchor="start" x="257.5" y="-543.9" font-family="Arial" font-size="14.00" fill="#000000">user_id </text>
<text text-anchor="start" x="307.2882" y="-543.9" font-family="Arial" font-size="14.00" fill="#666666">[int]</text>
<polygon fill="none" stroke="#000000" points="250.5,-502.5 250.5,-532.5 474.5,-532.5 474.5,-502.5 250.5,-502.5"/>
<text text-anchor="start" x="257.5" y="-513.9" font-family="Arial" font-size="14.00" fill="#000000">comment </text>
<text text-anchor="start" x="318.9502" y="-513.9" font-family="Arial" font-size="14.00" fill="#666666">[text]</text>
<polygon fill="none" stroke="#000000" points="250.5,-472.5 250.5,-502.5 474.5,-502.5 474.5,-472.5 250.5,-472.5"/>
<text text-anchor="start" x="257.5" y="-483.9" font-family="Arial" font-size="14.00" fill="#000000">post_id_desc </text>
<text text-anchor="start" x="343.866" y="-483.9" font-family="Arial" font-size="14.00" fill="#666666">[bigint]</text>
<polygon fill="none" stroke="#000000" points="250.5,-442.5 250.5,-472.5 474.5,-472.5 474.5,-442.5 250.5,-442.5"/>
<text text-anchor="start" x="257.5" y="-453.9" font-family="Arial" font-size="14.00" fill="#000000">created </text>
<text text-anchor="start" x="308.0722" y="-453.9" font-family="Arial" font-size="14.00" fill="#666666">[datetime]</text>
<polygon fill="none" stroke="#000000" points="250.5,-412.5 250.5,-442.5 474.5,-442.5 474.5,-412.5 250.5,-412.5"/>
<text text-anchor="start" x="257.5" y="-423.9" font-family="Arial" font-size="14.00" fill="#000000">updated </text>
<text text-anchor="start" x="311.9768" y="-423.9" font-family="Arial" font-size="14.00" fill="#666666">[datetime]</text>
<polygon fill="none" stroke="#000000" stroke-width="3" points="249,-411.5 249,-659.5 476,-659.5 476,-411.5 249,-411.5"/>
</g>
<!-- posts -->
<g id="node3" class="node">
<title>posts</title>
<polygon fill="#efefef" stroke="transparent" points="43.5,-252.5 43.5,-287.5 336.5,-287.5 336.5,-252.5 43.5,-252.5"/>
<polygon fill="none" stroke="#000000" points="43.5,-252.5 43.5,-287.5 336.5,-287.5 336.5,-252.5 43.5,-252.5"/>
<text text-anchor="start" x="104.7087" y="-265.3" font-family="Arial Bold" font-size="18.00" fill="#000000">posts</text>
<text text-anchor="start" x="147.7233" y="-265.3" font-family="Arial" font-size="14.00" fill="#000000">    </text>
<text text-anchor="start" x="181.9281" y="-265.3" font-family="Arial" font-size="14.00" fill="#666666">[BASE TABLE]</text>
<polygon fill="none" stroke="#000000" points="43.5,-222.5 43.5,-252.5 336.5,-252.5 336.5,-222.5 43.5,-222.5"/>
<text text-anchor="start" x="50.5" y="-233.9" font-family="Arial" font-size="14.00" fill="#000000">id    </text>
<text text-anchor="start" x="95.594" y="-233.9" font-family="Arial" font-size="14.00" fill="#666666">[bigint]</text>
<polygon fill="none" stroke="#000000" points="43.5,-192.5 43.5,-222.5 336.5,-222.5 336.5,-192.5 43.5,-192.5"/>
<text text-anchor="start" x="50.5" y="-203.9" font-family="Arial" font-size="14.00" fill="#000000">user_id    </text>
<text text-anchor="start" x="130.6024" y="-203.9" font-family="Arial" font-size="14.00" fill="#666666">[int]</text>
<polygon fill="none" stroke="#000000" points="43.5,-162.5 43.5,-192.5 336.5,-192.5 336.5,-162.5 43.5,-162.5"/>
<text text-anchor="start" x="50.5" y="-173.9" font-family="Arial" font-size="14.00" fill="#000000">title    </text>
<text text-anchor="start" x="106.4818" y="-173.9" font-family="Arial" font-size="14.00" fill="#666666">[varchar(255)]</text>
<polygon fill="none" stroke="#000000" points="43.5,-132.5 43.5,-162.5 336.5,-162.5 336.5,-132.5 43.5,-132.5"/>
<text text-anchor="start" x="50.5" y="-143.9" font-family="Arial" font-size="14.00" fill="#000000">body    </text>
<text text-anchor="start" x="115.0526" y="-143.9" font-family="Arial" font-size="14.00" fill="#666666">[text]</text>
<polygon fill="none" stroke="#000000" points="43.5,-102.5 43.5,-132.5 336.5,-132.5 336.5,-102.5 43.5,-102.5"/>
<text text-anchor="start" x="50.0399" y="-113.9" font-family="Arial" font-size="14.00" fill="#000000">post_type    </text>
<text text-anchor="start" x="144.9389" y="-113.9" font-family="Arial" font-size="14.00" fill="#666666">[enum(&#39;public&#39;,&#39;private&#39;,&#39;draft&#39;)]</text>
<polygon fill="none" stroke="#000000" points="43.5,-72.5 43.5,-102.5 336.5,-102.5 336.5,-72.5 43.5,-72.5"/>
<text text-anchor="start" x="50.5" y="-83.9" font-family="Arial" font-size="14.00" fill="#000000">created    </text>
<text text-anchor="start" x="131.3864" y="-83.9" font-family="Arial" font-size="14.00" fill="#666666">[datetime]</text>
<polygon fill="none" stroke="#000000" points="43.5,-42.5 43.5,-72.5 336.5,-72.5 336.5,-42.5 43.5,-42.5"/>
<text text-anchor="start" x="50.5" y="-53.9" font-family="Arial" font-size="14.00" fill="#000000">updated    </text>
<text text-anchor="start" x="135.291" y="-53.9" font-family="Arial" font-size="14.00" fill="#666666">[datetime]</text>
</g>
<!-- comments&#45;&gt;posts -->
<g id="edge2" class="edge">
<title>comments:post_id&#45;&gt;posts:id</title>
<path fill="none" stroke="#000000" d="M240.1483,-576.9041C160.2196,-567.223 200.6936,-441.8433 250.5,-367 273.4561,-332.5043 313.5439,-365.4957 336.5,-331 359.5223,-296.4047 378.0556,-237.5 336.5,-237.5"/>
<polygon fill="#000000" stroke="#000000" points="240.5165,-576.9252 250.2413,-581.9926 245.5083,-577.2126 250.5,-577.5 250.5,-577.5 250.5,-577.5 245.5083,-577.2126 250.7587,-573.0074 240.5165,-576.9252 240.5165,-576.9252"/>
<text text-anchor="start" x="18.995" y="-587.5" font-family="Arial" font-size="10.00" fill="#000000">FOREIGN KEY (post_id) REFERENCES posts (id)</text>
</g>
<!-- users -->
<g id="node5" class="node">
<title>users</title>
<polygon fill="#efefef" stroke="transparent" points="440.5,-237.5 440.5,-272.5 629.5,-272.5 629.5,-237.5 440.5,-237.5"/>
<polygon fill="none" stroke="#000000" points="440.5,-237.5 440.5,-272.5 629.5,-272.5 629.5,-237.5 440.5,-237.5"/>
<text text-anchor="start" x="449.2137" y="-250.3" font-family="Arial Bold" font-size="18.00" fill="#000000">users</text>
<text text-anchor="start" x="493.2183" y="-250.3" font-family="Arial" font-size="14.00" fill="#000000">    </text>
<text text-anchor="start" x="527.4231" y="-250.3" font-family="Arial" font-size="14.00" fill="#666666">[BASE TABLE]</text>
<polygon fill="none" stroke="#000000" points="440.5,-207.5 440.5,-237.5 629.5,-237.5 629.5,-207.5 440.5,-207.5"/>
<text text-anchor="start" x="447.5" y="-218.9" font-family="Arial" font-size="14.00" fill="#000000">id    </text>
<text text-anchor="start" x="492.594" y="-218.9" font-family="Arial" font-size="14.00" fill="#666666">[int]</text>
<polygon fill="none" stroke="#000000" points="440.5,-177.5 440.5,-207.5 629.5,-207.5 629.5,-177.5 440.5,-177.5"/>
<text text-anchor="start" x="447.1122" y="-188.9" font-family="Arial" font-size="14.00" fill="#000000">username    </text>
<text text-anchor="start" x="543.5512" y="-188.9" font-family="Arial" font-size="14.00" fill="#666666">[varchar(50)]</text>
<polygon fill="none" stroke="#000000" points="440.5,-147.5 440.5,-177.5 629.5,-177.5 629.5,-147.5 440.5,-147.5"/>
<text text-anchor="start" x="447.5" y="-158.9" font-family="Arial" font-size="14.00" fill="#000000">password    </text>
<text text-anchor="start" x="541.6024" y="-158.9" font-family="Arial" font-size="14.00" fill="#666666">[varchar(50)]</text>
<polygon fill="none" stroke="#000000" points="440.5,-117.5 440.5,-147.5 629.5,-147.5 629.5,-117.5 440.5,-117.5"/>
<text text-anchor="start" x="447.5" y="-128.9" font-family="Arial" font-size="14.00" fill="#000000">email    </text>
<text text-anchor="start" x="515.1438" y="-128.9" font-family="Arial" font-size="14.00" fill="#666666">[varchar(355)]</text>
<polygon fill="none" stroke="#000000" points="440.5,-87.5 440.5,-117.5 629.5,-117.5 629.5,-87.5 440.5,-87.5"/>
<text text-anchor="start" x="447.5" y="-98.9" font-family="Arial" font-size="14.00" fill="#000000">created    </text>
<text text-anchor="start" x="528.3864" y="-98.9" font-family="Arial" font-size="14.00" fill="#666666">[timestamp]</text>
<polygon fill="none" stroke="#000000" points="440.5,-57.5 440.5,-87.5 629.5,-87.5 629.5,-57.5 440.5,-57.5"/>
<text text-anchor="start" x="447.5" y="-68.9" font-family="Arial" font-size="14.00" fill="#000000">updated    </text>
<text text-anchor="start" x="532.291" y="-68.9" font-family="Arial" font-size="14.00" fill="#666666">[timestamp]</text>
</g>
<!-- comments&#45;&gt;users -->
<g id="edge4" class="edge">
<title>comments:user_id&#45;&gt;users:id</title>
<path fill="none" stroke="#000000" d="M484.4961,-546.8839C549.6714,-538.2358 496.7028,-440.3309 474.5,-367 466.6057,-340.927 448.3943,-342.073 440.5,-316 428.4579,-276.2275 398.9444,-222.5 440.5,-222.5"/>
<polygon fill="#000000" stroke="#000000" points="484.4811,-546.8848 474.2231,-543.0085 479.4905,-547.1924 474.5,-547.5 474.5,-547.5 474.5,-547.5 479.4905,-547.1924 474.7769,-551.9915 484.4811,-546.8848 484.4811,-546.8848"/>
<text text-anchor="start" x="481.445" y="-557.5" font-family="Arial" font-size="10.00" fill="#000000">FOREIGN KEY (user_id) REFERENCES users (id)</text>
</g>
<!-- logs -->
<g id="node2" class="node">
<title>logs</title>
<polygon fill="#efefef" stroke="transparent" points="97.5,-992.5 97.5,-1027.5 293.5,-1027.5 293.5,-992.5 97.5,-992.5"/>
<polygon fill="none" stroke="#000000" points="97.5,-992.5 97.5,-1027.5 293.5,-1027.5 293.5,-992.5 97.5,-992.5"/>
<text text-anchor="start" x="115.2127" y="-1005.3" font-family="Arial Bold" font-size="18.00" fill="#000000">logs</text>
<text text-anchor="start" x="148.2193" y="-1005.3" font-family="Arial" font-size="14.00" fill="#000000">    </text>
<text text-anchor="start" x="182.4241" y="-1005.3" font-family="Arial" font-size="14.00" fill="#666666">[BASE TABLE]</text>
<polygon fill="none" stroke="#000000" points="97.5,-962.5 97.5,-992.5 293.5,-992.5 293.5,-962.5 97.5,-962.5"/>
<text text-anchor="start" x="104.5" y="-973.9" font-family="Arial" font-size="14.00" fill="#000000">id    </text>
<text text-anchor="start" x="149.594" y="-973.9" font-family="Arial" font-size="14.00" fill="#666666">[bigint]</text>
<polygon fill="none" stroke="#000000" points="97.5,-932.5 97.5,-962.5 293.5,-962.5 293.5,-932.5 97.5,-932.5"/>
<text text-anchor="start" x="104.5" y="-943.9" font-family="Arial" font-size="14.00" fill="#000000">user_id    </text>
<text text-anchor="start" x="184.6024" y="-943.9" font-family="Arial" font-size="14.00" fill="#666666">[int]</text>
<polygon fill="none" stroke="#000000" points="97.5,-902.5 97.5,-932.5 293.5,-932.5 293.5,-902.5 97.5,-902.5"/>
<text text-anchor="start" x="104.5" y="-913.9" font-family="Arial" font-size="14.00" fill="#000000">post_id    </text>
<text text-anchor="start" x="183.8324" y="-913.9" font-family="Arial" font-size="14.00" fill="#666666">[bigint]</text>
<polygon fill="none" stroke="#000000" points="97.5,-872.5 97.5,-902.5 293.5,-902.5 293.5,-872.5 97.5,-872.5"/>
<text text-anchor="start" x="104.5" y="-883.9" font-family="Arial" font-size="14.00" fill="#000000">comment_id    </text>
<text text-anchor="start" x="214.9362" y="-883.9" font-family="Arial" font-size="14.00" fill="#666666">[bigint]</text>
<polygon fill="none" stroke="#000000" points="97.5,-842.5 97.5,-872.5 293.5,-872.5 293.5,-842.5 97.5,-842.5"/>
<text text-anchor="start" x="104.1073" y="-853.9" font-family="Arial" font-size="14.00" fill="#000000">comment_star_id    </text>
<text text-anchor="start" x="245.6599" y="-853.9" font-family="Arial" font-size="14.00" fill="#666666">[bigint]</text>
<polygon fill="none" stroke="#000000" points="97.5,-812.5 97.5,-842.5 293.5,-842.5 293.5,-812.5 97.5,-812.5"/>
<text text-anchor="start" x="104.5" y="-823.9" font-family="Arial" font-size="14.00" fill="#000000">payload    </text>
<text text-anchor="start" x="187.7244" y="-823.9" font-family="Arial" font-size="14.00" fill="#666666">[text]</text>
<polygon fill="none" stroke="#000000" points="97.5,-782.5 97.5,-812.5 293.5,-812.5 293.5,-782.5 97.5,-782.5"/>
<text text-anchor="start" x="104.5" y="-793.9" font-family="Arial" font-size="14.00" fill="#000000">created    </text>
<text text-anchor="start" x="185.3864" y="-793.9" font-family="Arial" font-size="14.00" fill="#666666">[datetime]</text>
</g>
<!-- logs&#45;&gt;comments -->
<g id="edge1" class="edge">
<title>logs:comment_id&#45;&gt;comments:id</title>
<path fill="none" stroke="#000000" stroke-dasharray="5,2" d="M303.665,-886.6733C354.8039,-877.6118 319.6669,-796.0338 293.5,-740 282.9539,-717.4165 261.0461,-726.5835 250.5,-704 232.3528,-665.1395 207.6111,-607.5 250.5,-607.5"/>
<polygon fill="#000000" stroke="#000000" points="303.4671,-886.6893 293.1352,-883.0148 298.4835,-887.0946 293.5,-887.5 293.5,-887.5 293.5,-887.5 298.4835,-887.0946 293.8648,-891.9852 303.4671,-886.6893 303.4671,-886.6893"/>
<text text-anchor="start" x="300.8245" y="-897.5" font-family="Arial" font-size="10.00" fill="#000000">Additional Relation</text>
</g>
<!-- comment_stars -->
<g id="node4" class="node">
<title>comment_stars</title>
<polygon fill="#efefef" stroke="transparent" points="397.5,-977.5 397.5,-1012.5 661.5,-1012.5 661.5,-977.5 397.5,-977.5"/>
<polygon fill="none" stroke="#000000" points="397.5,-977.5 397.5,-1012.5 661.5,-1012.5 661.5,-977.5 397.5,-977.5"/>
<text text-anchor="start" x="404.21" y="-990.3" font-family="Arial Bold" font-size="18.00" fill="#000000">comment_stars</text>
<text text-anchor="start" x="527.222" y="-990.3" font-family="Arial" font-size="14.00" fill="#000000">    </text>
<text text-anchor="start" x="561.4268" y="-990.3" font-family="Arial" font-size="14.00" fill="#666666">[BASE TABLE]</text>
<polygon fill="none" stroke="#000000" points="397.5,-947.5 397.5,-977.5 661.5,-977.5 661.5,-947.5 397.5,-947.5"/>
<text text-anchor="start" x="404.5" y="-958.9" font-family="Arial" font-size="14.00" fill="#000000">id    </text>
<text text-anchor="start" x="449.594" y="-958.9" font-family="Arial" font-size="14.00" fill="#666666">[bigint]</text>
<polygon fill="none" stroke="#000000" points="397.5,-917.5 397.5,-947.5 661.5,-947.5 661.5,-917.5 397.5,-917.5"/>
<text text-anchor="start" x="404.5" y="-928.9" font-family="Arial" font-size="14.00" fill="#000000">user_id    </text>
<text text-anchor="start" x="484.6024" y="-928.9" font-family="Arial" font-size="14.00" fill="#666666">[int]</text>
<polygon fill="none" stroke="#000000" points="397.5,-887.5 397.5,-917.5 661.5,-917.5 661.5,-887.5 397.5,-887.5"/>
<text text-anchor="start" x="404.5" y="-898.9" font-family="Arial" font-size="14.00" fill="#000000">comment_post_id    </text>
<text text-anchor="start" x="549.1746" y="-898.9" font-family="Arial" font-size="14.00" fill="#666666">[bigint]</text>
<polygon fill="none" stroke="#000000" points="397.5,-857.5 397.5,-887.5 661.5,-887.5 661.5,-857.5 397.5,-857.5"/>
<text text-anchor="start" x="404.5" y="-868.9" font-family="Arial" font-size="14.00" fill="#000000">comment_user_id    </text>
<text text-anchor="start" x="549.9446" y="-868.9" font-family="Arial" font-size="14.00" fill="#666666">[int]</text>
<polygon fill="none" stroke="#000000" points="397.5,-827.5 397.5,-857.5 661.5,-857.5 661.5,-827.5 397.5,-827.5"/>
<text text-anchor="start" x="404.5" y="-838.9" font-family="Arial" font-size="14.00" fill="#000000">created    </text>
<text text-anchor="start" x="485.3864" y="-838.9" font-family="Arial" font-size="14.00" fill="#666666">[timestamp]</text>
<polygon fill="none" stroke="#000000" points="397.5,-797.5 397.5,-827.5 661.5,-827.5 661.5,-797.5 397.5,-797.5"/>
<text text-anchor="start" x="404.5" y="-808.9" font-family="Arial" font-size="14.00" fill="#000000">updated    </text>
<text text-anchor="start" x="489.291" y="-808.9" font-family="Arial" font-size="14.00" fill="#666666">[timestamp]</text>
</g>
<!-- comment_stars&#45;&gt;comments -->
<g id="edge3" class="edge">
<title>comment_stars:comment_post_id&#45;&gt;comments:post_id</title>
<path fill="none" stroke="#000000" d="M387.3052,-901.6583C335.8454,-892.4359 368.2373,-809.481 397.5,-755 416.9231,-718.8381 455.0769,-740.1619 474.5,-704 501.1033,-654.4702 530.7222,-577.5 474.5,-577.5"/>
<polygon fill="#000000" stroke="#000000" points="387.5339,-901.6771 397.1297,-906.9847 392.517,-902.0886 397.5,-902.5 397.5,-902.5 397.5,-902.5 392.517,-902.0886 397.8703,-898.0153 387.5339,-901.6771 387.5339,-901.6771"/>
<text text-anchor="start" x="404.6435" y="-912.5" font-family="Arial" font-size="10.00" fill="#000000">FOREIGN KEY (comment_post_id, comment_user_id) REFERENCES comments (post_id, user_id)</text>
</g>
</g>
</svg>
