<?xml version="1.0" encoding="UTF-8" standalone="no"?>
<!DOCTYPE svg PUBLIC "-//W3C//DTD SVG 1.1//EN"
 "http://www.w3.org/Graphics/SVG/1.1/DTD/svg11.dtd">
<!-- Generated by graphviz version 2.40.1 (20161225.0304)
 -->
<!-- Title: logs Pages: 1 -->
<svg width="1377pt" height="712pt"
 viewBox="0.00 0.00 1376.50 712.00" xmlns="http://www.w3.org/2000/svg" xmlns:xlink="http://www.w3.org/1999/xlink">
<g id="graph0" class="graph" transform="scale(1 1) rotate(0) translate(4 708)">
<title>logs</title>
<polygon fill="#ffffff" stroke="transparent" points="-4,4 -4,-708 1372.5,-708 1372.5,4 -4,4"/>
<!-- logs -->
<g id="node1" class="node">
<title>logs</title>
<polygon fill="#efefef" stroke="transparent" points="577.5,-622.5 577.5,-657.5 751.5,-657.5 751.5,-622.5 577.5,-622.5"/>
<polygon fill="none" stroke="#000000" points="577.5,-622.5 577.5,-657.5 751.5,-657.5 751.5,-622.5 577.5,-622.5"/>
<text text-anchor="start" x="584.2127" y="-635.3" font-family="Arial Bold" font-size="18.00" fill="#000000">logs</text>
<text text-anchor="start" x="617.2193" y="-635.3" font-family="Arial" font-size="14.00" fill="#000000">    </text>
<text text-anchor="start" x="651.4241" y="-635.3" font-family="Arial" font-size="14.00" fill="#666666">[BASE TABLE]</text>
<polygon fill="none" stroke="#000000" points="577.5,-592.5 577.5,-622.5 751.5,-622.5 751.5,-592.5 577.5,-592.5"/>
<text text-anchor="start" x="584.5" y="-603.9" font-family="Arial" font-size="14.00" fill="#000000">id </text>
<text text-anchor="start" x="599.2798" y="-603.9" font-family="Arial" font-size="14.00" fill="#666666">[bigint]</text>
<polygon fill="none" stroke="#000000" points="577.5,-562.5 577.5,-592.5 751.5,-592.5 751.5,-562.5 577.5,-562.5"/>
<text text-anchor="start" x="584.5" y="-573.9" font-family="Arial" font-size="14.00" fill="#000000">user_id </text>
<text text-anchor="start" x="634.2882" y="-573.9" font-family="Arial" font-size="14.00" fill="#666666">[int]</text>
<polygon fill="none" stroke="#000000" points="577.5,-532.5 577.5,-562.5 751.5,-562.5 751.5,-532.5 577.5,-532.5"/>
<text text-anchor="start" x="584.5" y="-543.9" font-family="Arial" font-size="14.00" fill="#000000">post_id </text>
<text text-anchor="start" x="633.5182" y="-543.9" font-family="Arial" font-size="14.00" fill="#666666">[bigint]</text>
<polygon fill="none" stroke="#000000" points="577.5,-502.5 577.5,-532.5 751.5,-532.5 751.5,-502.5 577.5,-502.5"/>
<text text-anchor="start" x="584.5" y="-513.9" font-family="Arial" font-size="14.00" fill="#000000">comment_id </text>
<text text-anchor="start" x="664.622" y="-513.9" font-family="Arial" font-size="14.00" fill="#666666">[bigint]</text>
<polygon fill="none" stroke="#000000" points="577.5,-472.5 577.5,-502.5 751.5,-502.5 751.5,-472.5 577.5,-472.5"/>
<text text-anchor="start" x="584.5" y="-483.9" font-family="Arial" font-size="14.00" fill="#000000">comment_star_id </text>
<text text-anchor="start" x="695.7384" y="-483.9" font-family="Arial" font-size="14.00" fill="#666666">[bigint]</text>
<polygon fill="none" stroke="#000000" points="577.5,-442.5 577.5,-472.5 751.5,-472.5 751.5,-442.5 577.5,-442.5"/>
<text text-anchor="start" x="584.5" y="-453.9" font-family="Arial" font-size="14.00" fill="#000000">payload </text>
<text text-anchor="start" x="637.4102" y="-453.9" font-family="Arial" font-size="14.00" fill="#666666">[text]</text>
<polygon fill="none" stroke="#000000" points="577.5,-412.5 577.5,-442.5 751.5,-442.5 751.5,-412.5 577.5,-412.5"/>
<text text-anchor="start" x="584.5" y="-423.9" font-family="Arial" font-size="14.00" fill="#000000">created </text>
<text text-anchor="start" x="635.0722" y="-423.9" font-family="Arial" font-size="14.00" fill="#666666">[datetime]</text>
<polygon fill="none" stroke="#000000" stroke-width="3" points="576,-411.5 576,-659.5 753,-659.5 753,-411.5 576,-411.5"/>
</g>
<!-- users -->
<g id="node2" class="node">
<title>users</title>
<polygon fill="#efefef" stroke="transparent" points="43.5,-237.5 43.5,-272.5 232.5,-272.5 232.5,-237.5 43.5,-237.5"/>
<polygon fill="none" stroke="#000000" points="43.5,-237.5 43.5,-272.5 232.5,-272.5 232.5,-237.5 43.5,-237.5"/>
<text text-anchor="start" x="52.2137" y="-250.3" font-family="Arial Bold" font-size="18.00" fill="#000000">users</text>
<text text-anchor="start" x="96.2183" y="-250.3" font-family="Arial" font-size="14.00" fill="#000000">    </text>
<text text-anchor="start" x="130.4231" y="-250.3" font-family="Arial" font-size="14.00" fill="#666666">[BASE TABLE]</text>
<polygon fill="none" stroke="#000000" points="43.5,-207.5 43.5,-237.5 232.5,-237.5 232.5,-207.5 43.5,-207.5"/>
<text text-anchor="start" x="50.5" y="-218.9" font-family="Arial" font-size="14.00" fill="#000000">id    </text>
<text text-anchor="start" x="95.594" y="-218.9" font-family="Arial" font-size="14.00" fill="#666666">[int]</text>
<polygon fill="none" stroke="#000000" points="43.5,-177.5 43.5,-207.5 232.5,-207.5 232.5,-177.5 43.5,-177.5"/>
<text text-anchor="start" x="50.1122" y="-188.9" font-family="Arial" font-size="14.00" fill="#000000">username    </text>
<text text-anchor="start" x="146.5512" y="-188.9" font-family="Arial" font-size="14.00" fill="#666666">[varchar(50)]</text>
<polygon fill="none" stroke="#000000" points="43.5,-147.5 43.5,-177.5 232.5,-177.5 232.5,-147.5 43.5,-147.5"/>
<text text-anchor="start" x="50.5" y="-158.9" font-family="Arial" font-size="14.00" fill="#000000">password    </text>
<text text-anchor="start" x="144.6024" y="-158.9" font-family="Arial" font-size="14.00" fill="#666666">[varchar(50)]</text>
<polygon fill="none" stroke="#000000" points="43.5,-117.5 43.5,-147.5 232.5,-147.5 232.5,-117.5 43.5,-117.5"/>
<text text-anchor="start" x="50.5" y="-128.9" font-family="Arial" font-size="14.00" fill="#000000">email    </text>
<text text-anchor="start" x="118.1438" y="-128.9" font-family="Arial" font-size="14.00" fill="#666666">[varchar(355)]</text>
<polygon fill="none" stroke="#000000" points="43.5,-87.5 43.5,-117.5 232.5,-117.5 232.5,-87.5 43.5,-87.5"/>
<text text-anchor="start" x="50.5" y="-98.9" font-family="Arial" font-size="14.00" fill="#000000">created    </text>
<text text-anchor="start" x="131.3864" y="-98.9" font-family="Arial" font-size="14.00" fill="#666666">[timestamp]</text>
<polygon fill="none" stroke="#000000" points="43.5,-57.5 43.5,-87.5 232.5,-87.5 232.5,-57.5 43.5,-57.5"/>
<text text-anchor="start" x="50.5" y="-68.9" font-family="Arial" font-size="14.00" fill="#000000">updated    </text>
<text text-anchor="start" x="135.291" y="-68.9" font-family="Arial" font-size="14.00" fill="#666666">[timestamp]</text>
</g>
<!-- logs&#45;&gt;users -->
<g id="edge1" class="edge">
<title>logs:user_id&#45;&gt;users:id</title>
<path fill="none" stroke="#000000" stroke-dasharray="5,2" d="M567.1978,-577.3602C406.1495,-572.9209 385.4045,-463.3304 283.5,-331 250.9899,-288.7833 285.7838,-222.5 232.5,-222.5"/>
<polygon fill="#000000" stroke="#000000" points="567.5009,-577.3642 577.4389,-581.9996 572.5005,-577.4321 577.5,-577.5 577.5,-577.5 577.5,-577.5 572.5005,-577.4321 577.5611,-573.0004 567.5009,-577.3642 567.5009,-577.3642"/>
<text text-anchor="start" x="519.524" y="-587.5" font-family="Arial" font-size="10.00" fill="#000000">logs&#45;&gt;users</text>
</g>
<!-- posts -->
<g id="node3" class="node">
<title>posts</title>
<polygon fill="#efefef" stroke="transparent" points="336.5,-252.5 336.5,-287.5 629.5,-287.5 629.5,-252.5 336.5,-252.5"/>
<polygon fill="none" stroke="#000000" points="336.5,-252.5 336.5,-287.5 629.5,-287.5 629.5,-252.5 336.5,-252.5"/>
<text text-anchor="start" x="397.7087" y="-265.3" font-family="Arial Bold" font-size="18.00" fill="#000000">posts</text>
<text text-anchor="start" x="440.7233" y="-265.3" font-family="Arial" font-size="14.00" fill="#000000">    </text>
<text text-anchor="start" x="474.9281" y="-265.3" font-family="Arial" font-size="14.00" fill="#666666">[BASE TABLE]</text>
<polygon fill="none" stroke="#000000" points="336.5,-222.5 336.5,-252.5 629.5,-252.5 629.5,-222.5 336.5,-222.5"/>
<text text-anchor="start" x="343.5" y="-233.9" font-family="Arial" font-size="14.00" fill="#000000">id    </text>
<text text-anchor="start" x="388.594" y="-233.9" font-family="Arial" font-size="14.00" fill="#666666">[bigint]</text>
<polygon fill="none" stroke="#000000" points="336.5,-192.5 336.5,-222.5 629.5,-222.5 629.5,-192.5 336.5,-192.5"/>
<text text-anchor="start" x="343.5" y="-203.9" font-family="Arial" font-size="14.00" fill="#000000">user_id    </text>
<text text-anchor="start" x="423.6024" y="-203.9" font-family="Arial" font-size="14.00" fill="#666666">[int]</text>
<polygon fill="none" stroke="#000000" points="336.5,-162.5 336.5,-192.5 629.5,-192.5 629.5,-162.5 336.5,-162.5"/>
<text text-anchor="start" x="343.5" y="-173.9" font-family="Arial" font-size="14.00" fill="#000000">title    </text>
<text text-anchor="start" x="399.4818" y="-173.9" font-family="Arial" font-size="14.00" fill="#666666">[varchar(255)]</text>
<polygon fill="none" stroke="#000000" points="336.5,-132.5 336.5,-162.5 629.5,-162.5 629.5,-132.5 336.5,-132.5"/>
<text text-anchor="start" x="343.5" y="-143.9" font-family="Arial" font-size="14.00" fill="#000000">body    </text>
<text text-anchor="start" x="408.0526" y="-143.9" font-family="Arial" font-size="14.00" fill="#666666">[text]</text>
<polygon fill="none" stroke="#000000" points="336.5,-102.5 336.5,-132.5 629.5,-132.5 629.5,-102.5 336.5,-102.5"/>
<text text-anchor="start" x="343.0399" y="-113.9" font-family="Arial" font-size="14.00" fill="#000000">post_type    </text>
<text text-anchor="start" x="437.9389" y="-113.9" font-family="Arial" font-size="14.00" fill="#666666">[enum(&#39;public&#39;,&#39;private&#39;,&#39;draft&#39;)]</text>
<polygon fill="none" stroke="#000000" points="336.5,-72.5 336.5,-102.5 629.5,-102.5 629.5,-72.5 336.5,-72.5"/>
<text text-anchor="start" x="343.5" y="-83.9" font-family="Arial" font-size="14.00" fill="#000000">created    </text>
<text text-anchor="start" x="424.3864" y="-83.9" font-family="Arial" font-size="14.00" fill="#666666">[datetime]</text>
<polygon fill="none" stroke="#000000" points="336.5,-42.5 336.5,-72.5 629.5,-72.5 629.5,-42.5 336.5,-42.5"/>
<text text-anchor="start" x="343.5" y="-53.9" font-family="Arial" font-size="14.00" fill="#000000">updated    </text>
<text text-anchor="start" x="428.291" y="-53.9" font-family="Arial" font-size="14.00" fill="#666666">[datetime]</text>
</g>
<!-- logs&#45;&gt;posts -->
<g id="edge2" class="edge">
<title>logs:post_id&#45;&gt;posts:id</title>
<path fill="none" stroke="#000000" stroke-dasharray="5,2" d="M567.4894,-547.4502C198.2929,-543.72 629.2334,-331.5088 629.5,-331 648.7862,-294.1909 671.0556,-237.5 629.5,-237.5"/>
<polygon fill="#000000" stroke="#000000" points="567.5001,-547.4502 577.4776,-551.9999 572.5001,-547.4751 577.5,-547.5 577.5,-547.5 577.5,-547.5 572.5001,-547.4751 577.5224,-543.0001 567.5001,-547.4502 567.5001,-547.4502"/>
<text text-anchor="start" x="487.8245" y="-557.5" font-family="Arial" font-size="10.00" fill="#000000">Additional Relation</text>
</g>
<!-- comments -->
<g id="node4" class="node">
<title>comments</title>
<polygon fill="#efefef" stroke="transparent" points="733.5,-252.5 733.5,-287.5 957.5,-287.5 957.5,-252.5 733.5,-252.5"/>
<polygon fill="none" stroke="#000000" points="733.5,-252.5 733.5,-287.5 957.5,-287.5 957.5,-252.5 733.5,-252.5"/>
<text text-anchor="start" x="740.2134" y="-265.3" font-family="Arial Bold" font-size="18.00" fill="#000000">comments</text>
<text text-anchor="start" x="823.2186" y="-265.3" font-family="Arial" font-size="14.00" fill="#000000">    </text>
<text text-anchor="start" x="857.4234" y="-265.3" font-family="Arial" font-size="14.00" fill="#666666">[BASE TABLE]</text>
<polygon fill="none" stroke="#000000" points="733.5,-222.5 733.5,-252.5 957.5,-252.5 957.5,-222.5 733.5,-222.5"/>
<text text-anchor="start" x="740.5" y="-233.9" font-family="Arial" font-size="14.00" fill="#000000">id    </text>
<text text-anchor="start" x="785.594" y="-233.9" font-family="Arial" font-size="14.00" fill="#666666">[bigint]</text>
<polygon fill="none" stroke="#000000" points="733.5,-192.5 733.5,-222.5 957.5,-222.5 957.5,-192.5 733.5,-192.5"/>
<text text-anchor="start" x="740.5" y="-203.9" font-family="Arial" font-size="14.00" fill="#000000">post_id    </text>
<text text-anchor="start" x="819.8324" y="-203.9" font-family="Arial" font-size="14.00" fill="#666666">[bigint]</text>
<polygon fill="none" stroke="#000000" points="733.5,-162.5 733.5,-192.5 957.5,-192.5 957.5,-162.5 733.5,-162.5"/>
<text text-anchor="start" x="740.5" y="-173.9" font-family="Arial" font-size="14.00" fill="#000000">user_id    </text>
<text text-anchor="start" x="820.6024" y="-173.9" font-family="Arial" font-size="14.00" fill="#666666">[int]</text>
<polygon fill="none" stroke="#000000" points="733.5,-132.5 733.5,-162.5 957.5,-162.5 957.5,-132.5 733.5,-132.5"/>
<text text-anchor="start" x="740.5" y="-143.9" font-family="Arial" font-size="14.00" fill="#000000">comment    </text>
<text text-anchor="start" x="832.2644" y="-143.9" font-family="Arial" font-size="14.00" fill="#666666">[text]</text>
<polygon fill="none" stroke="#000000" points="733.5,-102.5 733.5,-132.5 957.5,-132.5 957.5,-102.5 733.5,-102.5"/>
<text text-anchor="start" x="740.5" y="-113.9" font-family="Arial" font-size="14.00" fill="#000000">post_id_desc    </text>
<text text-anchor="start" x="857.1802" y="-113.9" font-family="Arial" font-size="14.00" fill="#666666">[bigint]</text>
<polygon fill="none" stroke="#000000" points="733.5,-72.5 733.5,-102.5 957.5,-102.5 957.5,-72.5 733.5,-72.5"/>
<text text-anchor="start" x="740.5" y="-83.9" font-family="Arial" font-size="14.00" fill="#000000">created    </text>
<text text-anchor="start" x="821.3864" y="-83.9" font-family="Arial" font-size="14.00" fill="#666666">[datetime]</text>
<polygon fill="none" stroke="#000000" points="733.5,-42.5 733.5,-72.5 957.5,-72.5 957.5,-42.5 733.5,-42.5"/>
<text text-anchor="start" x="740.5" y="-53.9" font-family="Arial" font-size="14.00" fill="#000000">updated    </text>
<text text-anchor="start" x="825.291" y="-53.9" font-family="Arial" font-size="14.00" fill="#666666">[datetime]</text>
</g>
<!-- logs&#45;&gt;comments -->
<g id="edge3" class="edge">
<title>logs:comment_id&#45;&gt;comments:id</title>
<path fill="none" stroke="#000000" stroke-dasharray="5,2" d="M761.7543,-516.6973C812.6685,-507.8909 765.9975,-428.4123 751.5,-367 747.3901,-349.59 737.6099,-348.41 733.5,-331 723.9525,-290.5561 691.9444,-237.5 733.5,-237.5"/>
<polygon fill="#000000" stroke="#000000" points="761.4695,-516.7195 751.1488,-513.0137 756.4848,-517.1097 751.5,-517.5 751.5,-517.5 751.5,-517.5 756.4848,-517.1097 751.8512,-521.9863 761.4695,-516.7195 761.4695,-516.7195"/>
<text text-anchor="start" x="758.8245" y="-527.5" font-family="Arial" font-size="10.00" fill="#000000">Additional Relation</text>
</g>
<!-- comment_stars -->
<g id="node5" class="node">
<title>comment_stars</title>
<polygon fill="#efefef" stroke="transparent" points="1061.5,-237.5 1061.5,-272.5 1325.5,-272.5 1325.5,-237.5 1061.5,-237.5"/>
<polygon fill="none" stroke="#000000" points="1061.5,-237.5 1061.5,-272.5 1325.5,-272.5 1325.5,-237.5 1061.5,-237.5"/>
<text text-anchor="start" x="1068.21" y="-250.3" font-family="Arial Bold" font-size="18.00" fill="#000000">comment_stars</text>
<text text-anchor="start" x="1191.222" y="-250.3" font-family="Arial" font-size="14.00" fill="#000000">    </text>
<text text-anchor="start" x="1225.4268" y="-250.3" font-family="Arial" font-size="14.00" fill="#666666">[BASE TABLE]</text>
<polygon fill="none" stroke="#000000" points="1061.5,-207.5 1061.5,-237.5 1325.5,-237.5 1325.5,-207.5 1061.5,-207.5"/>
<text text-anchor="start" x="1068.5" y="-218.9" font-family="Arial" font-size="14.00" fill="#000000">id    </text>
<text text-anchor="start" x="1113.594" y="-218.9" font-family="Arial" font-size="14.00" fill="#666666">[bigint]</text>
<polygon fill="none" stroke="#000000" points="1061.5,-177.5 1061.5,-207.5 1325.5,-207.5 1325.5,-177.5 1061.5,-177.5"/>
<text text-anchor="start" x="1068.5" y="-188.9" font-family="Arial" font-size="14.00" fill="#000000">user_id    </text>
<text text-anchor="start" x="1148.6024" y="-188.9" font-family="Arial" font-size="14.00" fill="#666666">[int]</text>
<polygon fill="none" stroke="#000000" points="1061.5,-147.5 1061.5,-177.5 1325.5,-177.5 1325.5,-147.5 1061.5,-147.5"/>
<text text-anchor="start" x="1068.5" y="-158.9" font-family="Arial" font-size="14.00" fill="#000000">comment_post_id    </text>
<text text-anchor="start" x="1213.1746" y="-158.9" font-family="Arial" font-size="14.00" fill="#666666">[bigint]</text>
<polygon fill="none" stroke="#000000" points="1061.5,-117.5 1061.5,-147.5 1325.5,-147.5 1325.5,-117.5 1061.5,-117.5"/>
<text text-anchor="start" x="1068.5" y="-128.9" font-family="Arial" font-size="14.00" fill="#000000">comment_user_id    </text>
<text text-anchor="start" x="1213.9446" y="-128.9" font-family="Arial" font-size="14.00" fill="#666666">[int]</text>
<polygon fill="none" stroke="#000000" points="1061.5,-87.5 1061.5,-117.5 1325.5,-117.5 1325.5,-87.5 1061.5,-87.5"/>
<text text-anchor="start" x="1068.5" y="-98.9" font-family="Arial" font-size="14.00" fill="#000000">created    </text>
<text text-anchor="start" x="1149.3864" y="-98.9" font-family="Arial" font-size="14.00" fill="#666666">[timestamp]</text>
<polygon fill="none" stroke="#000000" points="1061.5,-57.5 1061.5,-87.5 1325.5,-87.5 1325.5,-57.5 1061.5,-57.5"/>
<text text-anchor="start" x="1068.5" y="-68.9" font-family="Arial" font-size="14.00" fill="#000000">updated    </text>
<text text-anchor="start" x="1153.291" y="-68.9" font-family="Arial" font-size="14.00" fill="#666666">[timestamp]</text>
</g>
<!-- logs&#45;&gt;comment_stars -->
<g id="edge4" class="edge">
<title>logs:comment_star_id&#45;&gt;comment_stars:id</title>
<path fill="none" stroke="#000000" stroke-dasharray="5,2" d="M761.5243,-487.3898C887.3676,-484.5721 921.7292,-427.8552 1009.5,-331 1045.4081,-291.3753 1008.0256,-222.5 1061.5,-222.5"/>
<polygon fill="#000000" stroke="#000000" points="761.4994,-487.3899 751.4505,-483.0003 756.4997,-487.445 751.5,-487.5 751.5,-487.5 751.5,-487.5 756.4997,-487.445 751.5495,-491.9997 761.4994,-487.3899 761.4994,-487.3899"/>
<text text-anchor="start" x="758.8245" y="-497.5" font-family="Arial" font-size="10.00" fill="#000000">Additional Relation</text>
</g>
</g>
</svg>
