<?xml version="1.0" encoding="UTF-8" standalone="no"?>
<!DOCTYPE svg PUBLIC "-//W3C//DTD SVG 1.1//EN"
 "http://www.w3.org/Graphics/SVG/1.1/DTD/svg11.dtd">
<!-- Generated by graphviz version 2.40.1 (20161225.0304)
 -->
<!-- Title: posts Pages: 1 -->
<svg width="678pt" height="1049pt"
 viewBox="0.00 0.00 678.00 1049.00" xmlns="http://www.w3.org/2000/svg" xmlns:xlink="http://www.w3.org/1999/xlink">
<g id="graph0" class="graph" transform="scale(1 1) rotate(0) translate(4 1045)">
<title>posts</title>
<polygon fill="#ffffff" stroke="transparent" points="-4,4 -4,-1045 674,-1045 674,4 -4,4"/>
<!-- posts -->
<g id="node1" class="node">
<title>posts</title>
<polygon fill="#efefef" stroke="transparent" points="240,-592.5 240,-627.5 503,-627.5 503,-592.5 240,-592.5"/>
<polygon fill="none" stroke="#000000" points="240,-592.5 240,-627.5 503,-627.5 503,-592.5 240,-592.5"/>
<text text-anchor="start" x="286.2087" y="-605.3" font-family="Arial Bold" font-size="18.00" fill="#000000">posts</text>
<text text-anchor="start" x="329.2233" y="-605.3" font-family="Arial" font-size="14.00" fill="#000000">    </text>
<text text-anchor="start" x="363.4281" y="-605.3" font-family="Arial" font-size="14.00" fill="#666666">[BASE TABLE]</text>
<polygon fill="none" stroke="#000000" points="240,-562.5 240,-592.5 503,-592.5 503,-562.5 240,-562.5"/>
<text text-anchor="start" x="247" y="-573.9" font-family="Arial" font-size="14.00" fill="#000000">id </text>
<text text-anchor="start" x="261.7798" y="-573.9" font-family="Arial" font-size="14.00" fill="#666666">[bigint]</text>
<polygon fill="none" stroke="#000000" points="240,-532.5 240,-562.5 503,-562.5 503,-532.5 240,-532.5"/>
<text text-anchor="start" x="247" y="-543.9" font-family="Arial" font-size="14.00" fill="#000000">user_id </text>
<text text-anchor="start" x="296.7882" y="-543.9" font-family="Arial" font-size="14.00" fill="#666666">[int]</text>
<polygon fill="none" stroke="#000000" points="240,-502.5 240,-532.5 503,-532.5 503,-502.5 240,-502.5"/>
<text text-anchor="start" x="247" y="-513.9" font-family="Arial" font-size="14.00" fill="#000000">title </text>
<text text-anchor="start" x="272.6676" y="-513.9" font-family="Arial" font-size="14.00" fill="#666666">[varchar(255)]</text>
<polygon fill="none" stroke="#000000" points="240,-472.5 240,-502.5 503,-502.5 503,-472.5 240,-472.5"/>
<text text-anchor="start" x="247" y="-483.9" font-family="Arial" font-size="14.00" fill="#000000">body </text>
<text text-anchor="start" x="281.2384" y="-483.9" font-family="Arial" font-size="14.00" fill="#666666">[text]</text>
<polygon fill="none" stroke="#000000" points="240,-442.5 240,-472.5 503,-472.5 503,-442.5 240,-442.5"/>
<text text-anchor="start" x="246.697" y="-453.9" font-family="Arial" font-size="14.00" fill="#000000">post_type </text>
<text text-anchor="start" x="311.2818" y="-453.9" font-family="Arial" font-size="14.00" fill="#666666">[enum(&#39;public&#39;,&#39;private&#39;,&#39;draft&#39;)]</text>
<polygon fill="none" stroke="#000000" points="240,-412.5 240,-442.5 503,-442.5 503,-412.5 240,-412.5"/>
<text text-anchor="start" x="247" y="-423.9" font-family="Arial" font-size="14.00" fill="#000000">created </text>
<text text-anchor="start" x="297.5722" y="-423.9" font-family="Arial" font-size="14.00" fill="#666666">[datetime]</text>
<polygon fill="none" stroke="#000000" points="240,-382.5 240,-412.5 503,-412.5 503,-382.5 240,-382.5"/>
<text text-anchor="start" x="247" y="-393.9" font-family="Arial" font-size="14.00" fill="#000000">updated </text>
<text text-anchor="start" x="301.4768" y="-393.9" font-family="Arial" font-size="14.00" fill="#666666">[datetime]</text>
<polygon fill="none" stroke="#000000" stroke-width="3" points="238,-381.5 238,-629.5 504,-629.5 504,-381.5 238,-381.5"/>
</g>
<!-- users -->
<g id="node4" class="node">
<title>users</title>
<polygon fill="#efefef" stroke="transparent" points="277,-222.5 277,-257.5 466,-257.5 466,-222.5 277,-222.5"/>
<polygon fill="none" stroke="#000000" points="277,-222.5 277,-257.5 466,-257.5 466,-222.5 277,-222.5"/>
<text text-anchor="start" x="285.7137" y="-235.3" font-family="Arial Bold" font-size="18.00" fill="#000000">users</text>
<text text-anchor="start" x="329.7183" y="-235.3" font-family="Arial" font-size="14.00" fill="#000000">    </text>
<text text-anchor="start" x="363.9231" y="-235.3" font-family="Arial" font-size="14.00" fill="#666666">[BASE TABLE]</text>
<polygon fill="none" stroke="#000000" points="277,-192.5 277,-222.5 466,-222.5 466,-192.5 277,-192.5"/>
<text text-anchor="start" x="284" y="-203.9" font-family="Arial" font-size="14.00" fill="#000000">id    </text>
<text text-anchor="start" x="329.094" y="-203.9" font-family="Arial" font-size="14.00" fill="#666666">[int]</text>
<polygon fill="none" stroke="#000000" points="277,-162.5 277,-192.5 466,-192.5 466,-162.5 277,-162.5"/>
<text text-anchor="start" x="283.6122" y="-173.9" font-family="Arial" font-size="14.00" fill="#000000">username    </text>
<text text-anchor="start" x="380.0512" y="-173.9" font-family="Arial" font-size="14.00" fill="#666666">[varchar(50)]</text>
<polygon fill="none" stroke="#000000" points="277,-132.5 277,-162.5 466,-162.5 466,-132.5 277,-132.5"/>
<text text-anchor="start" x="284" y="-143.9" font-family="Arial" font-size="14.00" fill="#000000">password    </text>
<text text-anchor="start" x="378.1024" y="-143.9" font-family="Arial" font-size="14.00" fill="#666666">[varchar(50)]</text>
<polygon fill="none" stroke="#000000" points="277,-102.5 277,-132.5 466,-132.5 466,-102.5 277,-102.5"/>
<text text-anchor="start" x="284" y="-113.9" font-family="Arial" font-size="14.00" fill="#000000">email    </text>
<text text-anchor="start" x="351.6438" y="-113.9" font-family="Arial" font-size="14.00" fill="#666666">[varchar(355)]</text>
<polygon fill="none" stroke="#000000" points="277,-72.5 277,-102.5 466,-102.5 466,-72.5 277,-72.5"/>
<text text-anchor="start" x="284" y="-83.9" font-family="Arial" font-size="14.00" fill="#000000">created    </text>
<text text-anchor="start" x="364.8864" y="-83.9" font-family="Arial" font-size="14.00" fill="#666666">[timestamp]</text>
<polygon fill="none" stroke="#000000" points="277,-42.5 277,-72.5 466,-72.5 466,-42.5 277,-42.5"/>
<text text-anchor="start" x="284" y="-53.9" font-family="Arial" font-size="14.00" fill="#000000">updated    </text>
<text text-anchor="start" x="368.791" y="-53.9" font-family="Arial" font-size="14.00" fill="#666666">[timestamp]</text>
</g>
<!-- posts&#45;&gt;users -->
<g id="edge3" class="edge">
<title>posts:user_id&#45;&gt;users:id</title>
<path fill="none" stroke="#000000" d="M229.6228,-546.9485C89.7943,-531.7493 128.5593,-207.5 277,-207.5"/>
<polygon fill="#000000" stroke="#000000" points="230.0141,-546.9692 239.7611,-551.9937 235.007,-547.2346 240,-547.5 240,-547.5 240,-547.5 235.007,-547.2346 240.2389,-543.0063 230.0141,-546.9692 230.0141,-546.9692"/>
<text text-anchor="start" x="6.945" y="-557.5" font-family="Arial" font-size="10.00" fill="#000000">FOREIGN KEY (user_id) REFERENCES users (id)</text>
</g>
<!-- comments -->
<g id="node2" class="node">
<title>comments</title>
<polygon fill="#efefef" stroke="transparent" points="103,-962.5 103,-997.5 327,-997.5 327,-962.5 103,-962.5"/>
<polygon fill="none" stroke="#000000" points="103,-962.5 103,-997.5 327,-997.5 327,-962.5 103,-962.5"/>
<text text-anchor="start" x="109.7134" y="-975.3" font-family="Arial Bold" font-size="18.00" fill="#000000">comments</text>
<text text-anchor="start" x="192.7186" y="-975.3" font-family="Arial" font-size="14.00" fill="#000000">    </text>
<text text-anchor="start" x="226.9234" y="-975.3" font-family="Arial" font-size="14.00" fill="#666666">[BASE TABLE]</text>
<polygon fill="none" stroke="#000000" points="103,-932.5 103,-962.5 327,-962.5 327,-932.5 103,-932.5"/>
<text text-anchor="start" x="110" y="-943.9" font-family="Arial" font-size="14.00" fill="#000000">id    </text>
<text text-anchor="start" x="155.094" y="-943.9" font-family="Arial" font-size="14.00" fill="#666666">[bigint]</text>
<polygon fill="none" stroke="#000000" points="103,-902.5 103,-932.5 327,-932.5 327,-902.5 103,-902.5"/>
<text text-anchor="start" x="110" y="-913.9" font-family="Arial" font-size="14.00" fill="#000000">post_id    </text>
<text text-anchor="start" x="189.3324" y="-913.9" font-family="Arial" font-size="14.00" fill="#666666">[bigint]</text>
<polygon fill="none" stroke="#000000" points="103,-872.5 103,-902.5 327,-902.5 327,-872.5 103,-872.5"/>
<text text-anchor="start" x="110" y="-883.9" font-family="Arial" font-size="14.00" fill="#000000">user_id    </text>
<text text-anchor="start" x="190.1024" y="-883.9" font-family="Arial" font-size="14.00" fill="#666666">[int]</text>
<polygon fill="none" stroke="#000000" points="103,-842.5 103,-872.5 327,-872.5 327,-842.5 103,-842.5"/>
<text text-anchor="start" x="110" y="-853.9" font-family="Arial" font-size="14.00" fill="#000000">comment    </text>
<text text-anchor="start" x="201.7644" y="-853.9" font-family="Arial" font-size="14.00" fill="#666666">[text]</text>
<polygon fill="none" stroke="#000000" points="103,-812.5 103,-842.5 327,-842.5 327,-812.5 103,-812.5"/>
<text text-anchor="start" x="110" y="-823.9" font-family="Arial" font-size="14.00" fill="#000000">post_id_desc    </text>
<text text-anchor="start" x="226.6802" y="-823.9" font-family="Arial" font-size="14.00" fill="#666666">[bigint]</text>
<polygon fill="none" stroke="#000000" points="103,-782.5 103,-812.5 327,-812.5 327,-782.5 103,-782.5"/>
<text text-anchor="start" x="110" y="-793.9" font-family="Arial" font-size="14.00" fill="#000000">created    </text>
<text text-anchor="start" x="190.8864" y="-793.9" font-family="Arial" font-size="14.00" fill="#666666">[datetime]</text>
<polygon fill="none" stroke="#000000" points="103,-752.5 103,-782.5 327,-782.5 327,-752.5 103,-752.5"/>
<text text-anchor="start" x="110" y="-763.9" font-family="Arial" font-size="14.00" fill="#000000">updated    </text>
<text text-anchor="start" x="194.791" y="-763.9" font-family="Arial" font-size="14.00" fill="#666666">[datetime]</text>
</g>
<!-- comments&#45;&gt;posts -->
<g id="edge1" class="edge">
<title>comments:post_id&#45;&gt;posts:id</title>
<path fill="none" stroke="#000000" d="M336.6172,-914.5456C369.8788,-891.8665 350.6229,-745.3404 327,-710 303.7452,-675.2103 263.2548,-708.7897 240,-674 216.1658,-638.3435 197.1111,-577.5 240,-577.5"/>
<polygon fill="#000000" stroke="#000000" points="336.5591,-914.5633 325.6785,-913.1984 331.7796,-916.0317 327,-917.5 327,-917.5 327,-917.5 331.7796,-916.0317 328.3215,-921.8016 336.5591,-914.5633 336.5591,-914.5633"/>
<text text-anchor="start" x="334.495" y="-927.5" font-family="Arial" font-size="10.00" fill="#000000">FOREIGN KEY (post_id) REFERENCES posts (id)</text>
</g>
<!-- logs -->
<g id="node3" class="node">
<title>logs</title>
<polygon fill="#efefef" stroke="transparent" points="431,-962.5 431,-997.5 627,-997.5 627,-962.5 431,-962.5"/>
<polygon fill="none" stroke="#000000" points="431,-962.5 431,-997.5 627,-997.5 627,-962.5 431,-962.5"/>
<text text-anchor="start" x="448.7127" y="-975.3" font-family="Arial Bold" font-size="18.00" fill="#000000">logs</text>
<text text-anchor="start" x="481.7193" y="-975.3" font-family="Arial" font-size="14.00" fill="#000000">    </text>
<text text-anchor="start" x="515.9241" y="-975.3" font-family="Arial" font-size="14.00" fill="#666666">[BASE TABLE]</text>
<polygon fill="none" stroke="#000000" points="431,-932.5 431,-962.5 627,-962.5 627,-932.5 431,-932.5"/>
<text text-anchor="start" x="438" y="-943.9" font-family="Arial" font-size="14.00" fill="#000000">id    </text>
<text text-anchor="start" x="483.094" y="-943.9" font-family="Arial" font-size="14.00" fill="#666666">[bigint]</text>
<polygon fill="none" stroke="#000000" points="431,-902.5 431,-932.5 627,-932.5 627,-902.5 431,-902.5"/>
<text text-anchor="start" x="438" y="-913.9" font-family="Arial" font-size="14.00" fill="#000000">user_id    </text>
<text text-anchor="start" x="518.1024" y="-913.9" font-family="Arial" font-size="14.00" fill="#666666">[int]</text>
<polygon fill="none" stroke="#000000" points="431,-872.5 431,-902.5 627,-902.5 627,-872.5 431,-872.5"/>
<text text-anchor="start" x="438" y="-883.9" font-family="Arial" font-size="14.00" fill="#000000">post_id    </text>
<text text-anchor="start" x="517.3324" y="-883.9" font-family="Arial" font-size="14.00" fill="#666666">[bigint]</text>
<polygon fill="none" stroke="#000000" points="431,-842.5 431,-872.5 627,-872.5 627,-842.5 431,-842.5"/>
<text text-anchor="start" x="438" y="-853.9" font-family="Arial" font-size="14.00" fill="#000000">comment_id    </text>
<text text-anchor="start" x="548.4362" y="-853.9" font-family="Arial" font-size="14.00" fill="#666666">[bigint]</text>
<polygon fill="none" stroke="#000000" points="431,-812.5 431,-842.5 627,-842.5 627,-812.5 431,-812.5"/>
<text text-anchor="start" x="437.6073" y="-823.9" font-family="Arial" font-size="14.00" fill="#000000">comment_star_id    </text>
<text text-anchor="start" x="579.1599" y="-823.9" font-family="Arial" font-size="14.00" fill="#666666">[bigint]</text>
<polygon fill="none" stroke="#000000" points="431,-782.5 431,-812.5 627,-812.5 627,-782.5 431,-782.5"/>
<text text-anchor="start" x="438" y="-793.9" font-family="Arial" font-size="14.00" fill="#000000">payload    </text>
<text text-anchor="start" x="521.2244" y="-793.9" font-family="Arial" font-size="14.00" fill="#666666">[text]</text>
<polygon fill="none" stroke="#000000" points="431,-752.5 431,-782.5 627,-782.5 627,-752.5 431,-752.5"/>
<text text-anchor="start" x="438" y="-763.9" font-family="Arial" font-size="14.00" fill="#000000">created    </text>
<text text-anchor="start" x="518.8864" y="-763.9" font-family="Arial" font-size="14.00" fill="#666666">[datetime]</text>
</g>
<!-- logs&#45;&gt;posts -->
<g id="edge2" class="edge">
<title>logs:post_id&#45;&gt;posts:id</title>
<path fill="none" stroke="#000000" stroke-dasharray="5,2" d="M420.6613,-886.7881C355.6276,-877.2458 391.4698,-773.9613 431,-710 449.8091,-679.5662 484.1909,-704.4338 503,-674 525.548,-637.5165 545.8889,-577.5 503,-577.5"/>
<polygon fill="#000000" stroke="#000000" points="421.0236,-886.813 430.6908,-891.9894 426.0118,-887.1565 431,-887.5 431,-887.5 431,-887.5 426.0118,-887.1565 431.3092,-883.0106 421.0236,-886.813 421.0236,-886.813"/>
<text text-anchor="start" x="341.3245" y="-897.5" font-family="Arial" font-size="10.00" fill="#000000">Additional Relation</text>
</g>
</g>
</svg>
