<?xml version="1.0" encoding="UTF-8" standalone="no"?>
<!DOCTYPE svg PUBLIC "-//W3C//DTD SVG 1.1//EN"
 "http://www.w3.org/Graphics/SVG/1.1/DTD/svg11.dtd">
<!-- Generated by graphviz version 12.1.2 (20240928.0832)
 -->
<!-- Title: testdb Pages: 1 -->
<svg width="1911pt" height="1778pt"
 viewBox="0.00 0.00 1910.95 1778.40" xmlns="http://www.w3.org/2000/svg" xmlns:xlink="http://www.w3.org/1999/xlink">
<g id="graph0" class="graph" transform="scale(1 1) rotate(0) translate(4 1774.4)">
<title>testdb</title>
<polygon fill="white" stroke="none" points="-4,4 -4,-1774.4 1906.95,-1774.4 1906.95,4 -4,4"/>
<!-- CamelizeTable -->
<g id="node1" class="node">
<title>CamelizeTable</title>
<polygon fill="#efefef" stroke="none" points="43.2,-1614.6 43.2,-1650.2 290.63,-1650.2 290.63,-1614.6 43.2,-1614.6"/>
<polygon fill="none" stroke="black" points="43.2,-1614.6 43.2,-1650.2 290.63,-1650.2 290.63,-1614.6 43.2,-1614.6"/>
<text text-anchor="start" x="50.2" y="-1628" font-family="Arial Bold" font-size="18.00">CamelizeTable</text>
<text text-anchor="start" x="159.14" y="-1628" font-family="Arial" font-size="14.00">    </text>
<text text-anchor="start" x="190.26" y="-1628" font-family="Arial" font-size="14.00" fill="#666666">[BASE TABLE]</text>
<polygon fill="none" stroke="black" points="43.2,-1583.8 43.2,-1614.6 290.63,-1614.6 290.63,-1583.8 43.2,-1583.8"/>
<text text-anchor="start" x="50.2" y="-1596" font-family="Arial" font-size="14.00">id </text>
<text text-anchor="start" x="64.99" y="-1596" font-family="Arial" font-size="14.00" fill="#666666">[bigint]</text>
<polygon fill="none" stroke="black" points="43.2,-1553 43.2,-1583.8 290.63,-1583.8 290.63,-1553 43.2,-1553"/>
<text text-anchor="start" x="50.2" y="-1565.2" font-family="Arial" font-size="14.00">created </text>
<text text-anchor="start" x="100.79" y="-1565.2" font-family="Arial" font-size="14.00" fill="#666666">[datetime]</text>
</g>
<!-- comment_stars -->
<g id="node2" class="node">
<title>comment_stars</title>
<polygon fill="#efefef" stroke="none" points="569.18,-1318 569.18,-1353.6 816.65,-1353.6 816.65,-1318 569.18,-1318"/>
<polygon fill="none" stroke="black" points="569.18,-1318 569.18,-1353.6 816.65,-1353.6 816.65,-1318 569.18,-1318"/>
<text text-anchor="start" x="576.18" y="-1331.4" font-family="Arial Bold" font-size="18.00">comment_stars</text>
<text text-anchor="start" x="685.16" y="-1331.4" font-family="Arial" font-size="14.00">    </text>
<text text-anchor="start" x="716.28" y="-1331.4" font-family="Arial" font-size="14.00" fill="#666666">[BASE TABLE]</text>
<polygon fill="none" stroke="black" points="569.18,-1287.2 569.18,-1318 816.65,-1318 816.65,-1287.2 569.18,-1287.2"/>
<text text-anchor="start" x="576.18" y="-1299.4" font-family="Arial" font-size="14.00">id </text>
<text text-anchor="start" x="590.97" y="-1299.4" font-family="Arial" font-size="14.00" fill="#666666">[bigint]</text>
<polygon fill="none" stroke="black" points="569.18,-1256.4 569.18,-1287.2 816.65,-1287.2 816.65,-1256.4 569.18,-1256.4"/>
<text text-anchor="start" x="576.18" y="-1268.6" font-family="Arial" font-size="14.00">user_id </text>
<text text-anchor="start" x="625.99" y="-1268.6" font-family="Arial" font-size="14.00" fill="#666666">[int]</text>
<polygon fill="none" stroke="black" points="569.18,-1225.6 569.18,-1256.4 816.65,-1256.4 816.65,-1225.6 569.18,-1225.6"/>
<text text-anchor="start" x="576.18" y="-1237.8" font-family="Arial" font-size="14.00">comment_post_id </text>
<text text-anchor="start" x="690.58" y="-1237.8" font-family="Arial" font-size="14.00" fill="#666666">[bigint]</text>
<polygon fill="none" stroke="black" points="569.18,-1194.8 569.18,-1225.6 816.65,-1225.6 816.65,-1194.8 569.18,-1194.8"/>
<text text-anchor="start" x="576.18" y="-1207" font-family="Arial" font-size="14.00">comment_user_id </text>
<text text-anchor="start" x="691.35" y="-1207" font-family="Arial" font-size="14.00" fill="#666666">[int]</text>
<polygon fill="none" stroke="black" points="569.18,-1164 569.18,-1194.8 816.65,-1194.8 816.65,-1164 569.18,-1164"/>
<text text-anchor="start" x="576.18" y="-1176.2" font-family="Arial" font-size="14.00">created </text>
<text text-anchor="start" x="626.77" y="-1176.2" font-family="Arial" font-size="14.00" fill="#666666">[timestamp]</text>
<polygon fill="none" stroke="black" points="569.18,-1133.2 569.18,-1164 816.65,-1164 816.65,-1133.2 569.18,-1133.2"/>
<text text-anchor="start" x="576.18" y="-1145.4" font-family="Arial" font-size="14.00">updated </text>
<text text-anchor="start" x="630.68" y="-1145.4" font-family="Arial" font-size="14.00" fill="#666666">[timestamp]</text>
</g>
<!-- comments -->
<g id="node3" class="node">
<title>comments</title>
<polygon fill="#efefef" stroke="none" points="530.68,-975.2 530.68,-1010.8 743.15,-1010.8 743.15,-975.2 530.68,-975.2"/>
<polygon fill="none" stroke="black" points="530.68,-975.2 530.68,-1010.8 743.15,-1010.8 743.15,-975.2 530.68,-975.2"/>
<text text-anchor="start" x="537.68" y="-988.6" font-family="Arial Bold" font-size="18.00">comments</text>
<text text-anchor="start" x="611.66" y="-988.6" font-family="Arial" font-size="14.00">    </text>
<text text-anchor="start" x="642.78" y="-988.6" font-family="Arial" font-size="14.00" fill="#666666">[BASE TABLE]</text>
<polygon fill="none" stroke="black" points="530.68,-944.4 530.68,-975.2 743.15,-975.2 743.15,-944.4 530.68,-944.4"/>
<text text-anchor="start" x="537.68" y="-956.6" font-family="Arial" font-size="14.00">id </text>
<text text-anchor="start" x="552.46" y="-956.6" font-family="Arial" font-size="14.00" fill="#666666">[bigint]</text>
<polygon fill="none" stroke="black" points="530.68,-913.6 530.68,-944.4 743.15,-944.4 743.15,-913.6 530.68,-913.6"/>
<text text-anchor="start" x="537.68" y="-925.8" font-family="Arial" font-size="14.00">post_id </text>
<text text-anchor="start" x="586.71" y="-925.8" font-family="Arial" font-size="14.00" fill="#666666">[bigint]</text>
<polygon fill="none" stroke="black" points="530.68,-882.8 530.68,-913.6 743.15,-913.6 743.15,-882.8 530.68,-882.8"/>
<text text-anchor="start" x="537.68" y="-895" font-family="Arial" font-size="14.00">user_id </text>
<text text-anchor="start" x="587.48" y="-895" font-family="Arial" font-size="14.00" fill="#666666">[int]</text>
<polygon fill="none" stroke="black" points="530.68,-852 530.68,-882.8 743.15,-882.8 743.15,-852 530.68,-852"/>
<text text-anchor="start" x="537.68" y="-864.2" font-family="Arial" font-size="14.00">comment </text>
<text text-anchor="start" x="599.14" y="-864.2" font-family="Arial" font-size="14.00" fill="#666666">[text]</text>
<polygon fill="none" stroke="black" points="530.68,-821.2 530.68,-852 743.15,-852 743.15,-821.2 530.68,-821.2"/>
<text text-anchor="start" x="537.68" y="-833.4" font-family="Arial" font-size="14.00">post_id_desc </text>
<text text-anchor="start" x="624.07" y="-833.4" font-family="Arial" font-size="14.00" fill="#666666">[bigint]</text>
<polygon fill="none" stroke="black" points="530.68,-790.4 530.68,-821.2 743.15,-821.2 743.15,-790.4 530.68,-790.4"/>
<text text-anchor="start" x="537.68" y="-802.6" font-family="Arial" font-size="14.00">created </text>
<text text-anchor="start" x="588.26" y="-802.6" font-family="Arial" font-size="14.00" fill="#666666">[datetime]</text>
<polygon fill="none" stroke="black" points="530.68,-759.6 530.68,-790.4 743.15,-790.4 743.15,-759.6 530.68,-759.6"/>
<text text-anchor="start" x="537.68" y="-771.8" font-family="Arial" font-size="14.00">updated </text>
<text text-anchor="start" x="592.17" y="-771.8" font-family="Arial" font-size="14.00" fill="#666666">[datetime]</text>
</g>
<!-- comment_stars&#45;&gt;comments -->
<g id="edge2" class="edge">
<title>comment_stars:comment_post_id&#45;&gt;comments:post_id</title>
<path fill="none" stroke="black" d="M557.99,-1240.13C503.92,-1230.3 528.96,-1139.06 569.18,-1090 619.24,-1028.94 693.05,-1115.03 743.15,-1054 778.4,-1011.06 799.71,-929 744.15,-929"/>
<polygon fill="black" stroke="black" points="557.88,-1240.13 567.47,-1245.46 563.2,-1240.58 567.52,-1240.94 567.52,-1240.94 567.52,-1240.94 563.2,-1240.58 568.23,-1236.49 557.88,-1240.13"/>
<text text-anchor="start" x="119.37" y="-1251" font-family="Arial" font-size="10.00">FOREIGN KEY (comment_post_id, comment_user_id) REFERENCES comments (post_id, user_id)</text>
</g>
<!-- users -->
<g id="node10" class="node">
<title>users</title>
<polygon fill="#efefef" stroke="none" points="688.17,-228 688.17,-263.6 863.66,-263.6 863.66,-228 688.17,-228"/>
<polygon fill="none" stroke="black" points="688.17,-228 688.17,-263.6 863.66,-263.6 863.66,-228 688.17,-228"/>
<text text-anchor="start" x="695.17" y="-241.4" font-family="Arial Bold" font-size="18.00">users</text>
<text text-anchor="start" x="732.17" y="-241.4" font-family="Arial" font-size="14.00">    </text>
<text text-anchor="start" x="763.28" y="-241.4" font-family="Arial" font-size="14.00" fill="#666666">[BASE TABLE]</text>
<polygon fill="none" stroke="black" points="688.17,-197.2 688.17,-228 863.66,-228 863.66,-197.2 688.17,-197.2"/>
<text text-anchor="start" x="695.17" y="-209.4" font-family="Arial" font-size="14.00">id </text>
<text text-anchor="start" x="709.96" y="-209.4" font-family="Arial" font-size="14.00" fill="#666666">[int]</text>
<polygon fill="none" stroke="black" points="688.17,-166.4 688.17,-197.2 863.66,-197.2 863.66,-166.4 688.17,-166.4"/>
<text text-anchor="start" x="695.17" y="-178.6" font-family="Arial" font-size="14.00">username </text>
<text text-anchor="start" x="761.32" y="-178.6" font-family="Arial" font-size="14.00" fill="#666666">[varchar(50)]</text>
<polygon fill="none" stroke="black" points="688.17,-135.6 688.17,-166.4 863.66,-166.4 863.66,-135.6 688.17,-135.6"/>
<text text-anchor="start" x="695.17" y="-147.8" font-family="Arial" font-size="14.00">password </text>
<text text-anchor="start" x="758.98" y="-147.8" font-family="Arial" font-size="14.00" fill="#666666">[varchar(50)]</text>
<polygon fill="none" stroke="black" points="688.17,-104.8 688.17,-135.6 863.66,-135.6 863.66,-104.8 688.17,-104.8"/>
<text text-anchor="start" x="695.17" y="-117" font-family="Arial" font-size="14.00">email </text>
<text text-anchor="start" x="732.52" y="-117" font-family="Arial" font-size="14.00" fill="#666666">[varchar(355)]</text>
<polygon fill="none" stroke="black" points="688.17,-74 688.17,-104.8 863.66,-104.8 863.66,-74 688.17,-74"/>
<text text-anchor="start" x="695.17" y="-86.2" font-family="Arial" font-size="14.00">created </text>
<text text-anchor="start" x="745.76" y="-86.2" font-family="Arial" font-size="14.00" fill="#666666">[timestamp]</text>
<polygon fill="none" stroke="black" points="688.17,-43.2 688.17,-74 863.66,-74 863.66,-43.2 688.17,-43.2"/>
<text text-anchor="start" x="695.17" y="-55.4" font-family="Arial" font-size="14.00">updated </text>
<text text-anchor="start" x="749.67" y="-55.4" font-family="Arial" font-size="14.00" fill="#666666">[timestamp]</text>
</g>
<!-- comment_stars&#45;&gt;users -->
<g id="edge1" class="edge">
<title>comment_stars:comment_user_id&#45;&gt;users:id</title>
<path fill="none" stroke="black" d="M821.7,-1200.71C839.68,-1107.8 824.91,-363.93 832.91,-342.8 840.37,-323.13 856.27,-326.5 863.66,-306.8 878.35,-267.6 906.53,-212.6 864.66,-212.6"/>
<polygon fill="black" stroke="black" points="821.7,-1200.69 813.64,-1208.13 819.61,-1205.6 817.91,-1209.58 817.91,-1209.58 817.91,-1209.58 819.61,-1205.6 821.92,-1211.66 821.7,-1200.69"/>
<text text-anchor="start" x="824.65" y="-1220.2" font-family="Arial" font-size="10.00">FOREIGN KEY (comment_user_id) REFERENCES users (id)</text>
</g>
<!-- posts -->
<g id="node8" class="node">
<title>posts</title>
<polygon fill="#efefef" stroke="none" points="443.34,-601.6 443.34,-637.2 704.49,-637.2 704.49,-601.6 443.34,-601.6"/>
<polygon fill="none" stroke="black" points="443.34,-601.6 443.34,-637.2 704.49,-637.2 704.49,-601.6 443.34,-601.6"/>
<text text-anchor="start" x="493.16" y="-615" font-family="Arial Bold" font-size="18.00">posts</text>
<text text-anchor="start" x="530.18" y="-615" font-family="Arial" font-size="14.00">    </text>
<text text-anchor="start" x="561.29" y="-615" font-family="Arial" font-size="14.00" fill="#666666">[BASE TABLE]</text>
<polygon fill="none" stroke="black" points="443.34,-570.8 443.34,-601.6 704.49,-601.6 704.49,-570.8 443.34,-570.8"/>
<text text-anchor="start" x="450.34" y="-583" font-family="Arial" font-size="14.00">id </text>
<text text-anchor="start" x="465.12" y="-583" font-family="Arial" font-size="14.00" fill="#666666">[bigint]</text>
<polygon fill="none" stroke="black" points="443.34,-540 443.34,-570.8 704.49,-570.8 704.49,-540 443.34,-540"/>
<text text-anchor="start" x="450.34" y="-552.2" font-family="Arial" font-size="14.00">user_id </text>
<text text-anchor="start" x="500.14" y="-552.2" font-family="Arial" font-size="14.00" fill="#666666">[int]</text>
<polygon fill="none" stroke="black" points="443.34,-509.2 443.34,-540 704.49,-540 704.49,-509.2 443.34,-509.2"/>
<text text-anchor="start" x="450.34" y="-521.4" font-family="Arial" font-size="14.00">title </text>
<text text-anchor="start" x="476.01" y="-521.4" font-family="Arial" font-size="14.00" fill="#666666">[varchar(255)]</text>
<polygon fill="none" stroke="black" points="443.34,-478.4 443.34,-509.2 704.49,-509.2 704.49,-478.4 443.34,-478.4"/>
<text text-anchor="start" x="450.34" y="-490.6" font-family="Arial" font-size="14.00">body </text>
<text text-anchor="start" x="484.59" y="-490.6" font-family="Arial" font-size="14.00" fill="#666666">[text]</text>
<polygon fill="none" stroke="black" points="443.34,-447.6 443.34,-478.4 704.49,-478.4 704.49,-447.6 443.34,-447.6"/>
<text text-anchor="start" x="450.34" y="-459.8" font-family="Arial" font-size="14.00">post_type </text>
<text text-anchor="start" x="514.94" y="-459.8" font-family="Arial" font-size="14.00" fill="#666666">[enum(&#39;public&#39;,&#39;private&#39;,&#39;draft&#39;)]</text>
<polygon fill="none" stroke="black" points="443.34,-416.8 443.34,-447.6 704.49,-447.6 704.49,-416.8 443.34,-416.8"/>
<text text-anchor="start" x="450.34" y="-429" font-family="Arial" font-size="14.00">created </text>
<text text-anchor="start" x="500.92" y="-429" font-family="Arial" font-size="14.00" fill="#666666">[datetime]</text>
<polygon fill="none" stroke="black" points="443.34,-386 443.34,-416.8 704.49,-416.8 704.49,-386 443.34,-386"/>
<text text-anchor="start" x="450.34" y="-398.2" font-family="Arial" font-size="14.00">updated </text>
<text text-anchor="start" x="504.83" y="-398.2" font-family="Arial" font-size="14.00" fill="#666666">[datetime]</text>
</g>
<!-- comments&#45;&gt;posts -->
<g id="edge3" class="edge">
<title>comments:post_id&#45;&gt;posts:id</title>
<path fill="none" stroke="black" d="M519.78,-925.93C485.37,-902.35 503.1,-750.11 530.68,-716.4 580.63,-655.34 654.36,-741.31 704.49,-680.4 731.1,-648.07 747.36,-586.2 705.49,-586.2"/>
<polygon fill="black" stroke="black" points="519.81,-925.94 528.02,-933.2 524.9,-927.52 529.04,-928.8 529.04,-928.8 529.04,-928.8 524.9,-927.52 530.69,-924.6 519.81,-925.94"/>
<text text-anchor="start" x="297.62" y="-939" font-family="Arial" font-size="10.00">FOREIGN KEY (post_id) REFERENCES posts (id)</text>
</g>
<!-- comments&#45;&gt;users -->
<g id="edge4" class="edge">
<title>comments:user_id&#45;&gt;users:id</title>
<path fill="none" stroke="black" d="M754.4,-897.06C860.4,-872.04 734.09,-443.62 799.91,-342.8 817.7,-315.56 847.11,-334.81 863.66,-306.8 884.95,-270.75 906.53,-212.6 864.66,-212.6"/>
<polygon fill="black" stroke="black" points="754.42,-897.05 743.99,-893.69 749.12,-897.65 744.82,-898.13 744.82,-898.13 744.82,-898.13 749.12,-897.65 744.98,-902.64 754.42,-897.05"/>
<text text-anchor="start" x="751.15" y="-908.2" font-family="Arial" font-size="10.00">FOREIGN KEY (user_id) REFERENCES users (id)</text>
</g>
<!-- hyphen&#45;table -->
<g id="node4" class="node">
<title>hyphen&#45;table</title>
<polygon fill="#efefef" stroke="none" points="667.69,-1630 667.69,-1665.6 900.14,-1665.6 900.14,-1630 667.69,-1630"/>
<polygon fill="none" stroke="black" points="667.69,-1630 667.69,-1665.6 900.14,-1665.6 900.14,-1630 667.69,-1630"/>
<text text-anchor="start" x="674.69" y="-1643.4" font-family="Arial Bold" font-size="18.00">hyphen&#45;table</text>
<text text-anchor="start" x="768.65" y="-1643.4" font-family="Arial" font-size="14.00">    </text>
<text text-anchor="start" x="799.77" y="-1643.4" font-family="Arial" font-size="14.00" fill="#666666">[BASE TABLE]</text>
<polygon fill="none" stroke="black" points="667.69,-1599.2 667.69,-1630 900.14,-1630 900.14,-1599.2 667.69,-1599.2"/>
<text text-anchor="start" x="674.69" y="-1611.4" font-family="Arial" font-size="14.00">id </text>
<text text-anchor="start" x="689.47" y="-1611.4" font-family="Arial" font-size="14.00" fill="#666666">[bigint]</text>
<polygon fill="none" stroke="black" points="667.69,-1568.4 667.69,-1599.2 900.14,-1599.2 900.14,-1568.4 667.69,-1568.4"/>
<text text-anchor="start" x="674.69" y="-1580.6" font-family="Arial" font-size="14.00">hyphen&#45;column </text>
<text text-anchor="start" x="774.3" y="-1580.6" font-family="Arial" font-size="14.00" fill="#666666">[text]</text>
<polygon fill="none" stroke="black" points="667.69,-1537.6 667.69,-1568.4 900.14,-1568.4 900.14,-1537.6 667.69,-1537.6"/>
<text text-anchor="start" x="674.69" y="-1549.8" font-family="Arial" font-size="14.00">created </text>
<text text-anchor="start" x="725.27" y="-1549.8" font-family="Arial" font-size="14.00" fill="#666666">[datetime]</text>
</g>
<!-- logs -->
<g id="node5" class="node">
<title>logs</title>
<polygon fill="#efefef" stroke="none" points="394.67,-1691.6 394.67,-1727.2 563.16,-1727.2 563.16,-1691.6 394.67,-1691.6"/>
<polygon fill="none" stroke="black" points="394.67,-1691.6 394.67,-1727.2 563.16,-1727.2 563.16,-1691.6 394.67,-1691.6"/>
<text text-anchor="start" x="401.67" y="-1705" font-family="Arial Bold" font-size="18.00">logs</text>
<text text-anchor="start" x="431.67" y="-1705" font-family="Arial" font-size="14.00">    </text>
<text text-anchor="start" x="462.79" y="-1705" font-family="Arial" font-size="14.00" fill="#666666">[BASE TABLE]</text>
<polygon fill="none" stroke="black" points="394.67,-1660.8 394.67,-1691.6 563.16,-1691.6 563.16,-1660.8 394.67,-1660.8"/>
<text text-anchor="start" x="401.67" y="-1673" font-family="Arial" font-size="14.00">id </text>
<text text-anchor="start" x="416.45" y="-1673" font-family="Arial" font-size="14.00" fill="#666666">[bigint]</text>
<polygon fill="none" stroke="black" points="394.67,-1630 394.67,-1660.8 563.16,-1660.8 563.16,-1630 394.67,-1630"/>
<text text-anchor="start" x="401.67" y="-1642.2" font-family="Arial" font-size="14.00">user_id </text>
<text text-anchor="start" x="451.47" y="-1642.2" font-family="Arial" font-size="14.00" fill="#666666">[int]</text>
<polygon fill="none" stroke="black" points="394.67,-1599.2 394.67,-1630 563.16,-1630 563.16,-1599.2 394.67,-1599.2"/>
<text text-anchor="start" x="401.67" y="-1611.4" font-family="Arial" font-size="14.00">post_id </text>
<text text-anchor="start" x="450.7" y="-1611.4" font-family="Arial" font-size="14.00" fill="#666666">[bigint]</text>
<polygon fill="none" stroke="black" points="394.67,-1568.4 394.67,-1599.2 563.16,-1599.2 563.16,-1568.4 394.67,-1568.4"/>
<text text-anchor="start" x="401.67" y="-1580.6" font-family="Arial" font-size="14.00">comment_id </text>
<text text-anchor="start" x="481.81" y="-1580.6" font-family="Arial" font-size="14.00" fill="#666666">[bigint]</text>
<polygon fill="none" stroke="black" points="394.67,-1537.6 394.67,-1568.4 563.16,-1568.4 563.16,-1537.6 394.67,-1537.6"/>
<text text-anchor="start" x="401.67" y="-1549.8" font-family="Arial" font-size="14.00">comment_star_id </text>
<text text-anchor="start" x="512.94" y="-1549.8" font-family="Arial" font-size="14.00" fill="#666666">[bigint]</text>
<polygon fill="none" stroke="black" points="394.67,-1506.8 394.67,-1537.6 563.16,-1537.6 563.16,-1506.8 394.67,-1506.8"/>
<text text-anchor="start" x="401.67" y="-1519" font-family="Arial" font-size="14.00">payload </text>
<text text-anchor="start" x="454.6" y="-1519" font-family="Arial" font-size="14.00" fill="#666666">[text]</text>
<polygon fill="none" stroke="black" points="394.67,-1476 394.67,-1506.8 563.16,-1506.8 563.16,-1476 394.67,-1476"/>
<text text-anchor="start" x="401.67" y="-1488.2" font-family="Arial" font-size="14.00">created </text>
<text text-anchor="start" x="452.25" y="-1488.2" font-family="Arial" font-size="14.00" fill="#666666">[datetime]</text>
</g>
<!-- logs&#45;&gt;comment_stars -->
<g id="edge10" class="edge">
<title>logs:comment_star_id&#45;&gt;comment_stars:id</title>
<path fill="none" stroke="black" stroke-dasharray="5,2" d="M574.45,-1552.14C660.91,-1536.18 460.68,-1302.6 568.18,-1302.6"/>
<polygon fill="black" stroke="black" points="574.46,-1552.14 564.12,-1548.49 569.15,-1552.58 564.83,-1552.94 564.83,-1552.94 564.83,-1552.94 569.15,-1552.58 564.87,-1557.46 574.46,-1552.14"/>
<text text-anchor="start" x="571.16" y="-1563" font-family="Arial" font-size="10.00">Additional Relation</text>
</g>
<!-- logs&#45;&gt;comments -->
<g id="edge9" class="edge">
<title>logs:comment_id&#45;&gt;comments:id</title>
<path fill="none" stroke="black" stroke-dasharray="5,2" d="M574.24,-1583.01C627.1,-1573.96 591.21,-1489.7 563.16,-1432.8 551.65,-1409.44 528.35,-1420.2 516.91,-1396.8 457.03,-1274.3 510.26,-1226.19 516.91,-1090 519.75,-1031.93 471.53,-959.8 529.68,-959.8"/>
<polygon fill="black" stroke="black" points="574.46,-1582.99 564.14,-1579.29 569.15,-1583.41 564.83,-1583.75 564.83,-1583.75 564.83,-1583.75 569.15,-1583.41 564.85,-1588.26 574.46,-1582.99"/>
<text text-anchor="start" x="571.16" y="-1593.8" font-family="Arial" font-size="10.00">Additional Relation</text>
</g>
<!-- logs&#45;&gt;posts -->
<g id="edge8" class="edge">
<title>logs:post_id&#45;&gt;posts:id</title>
<path fill="none" stroke="black" stroke-dasharray="5,2" d="M389.53,-1605.08C370.52,-1501.4 415.36,-586.2 442.34,-586.2"/>
<polygon fill="black" stroke="black" points="389.55,-1605.12 389.41,-1616.08 391.68,-1610.01 393.4,-1613.99 393.4,-1613.99 393.4,-1613.99 391.68,-1610.01 397.66,-1612.5 389.55,-1605.12"/>
<text text-anchor="start" x="303.28" y="-1624.6" font-family="Arial" font-size="10.00">Additional Relation</text>
</g>
<!-- logs&#45;&gt;users -->
<g id="edge7" class="edge">
<title>logs:user_id&#45;&gt;users:id</title>
<path fill="none" stroke="black" stroke-dasharray="5,2" d="M385.52,-1638.91C327.58,-1546.03 296.61,-486.21 390.91,-342.8 469.94,-222.63 543.35,-212.6 687.17,-212.6"/>
<polygon fill="black" stroke="black" points="385.58,-1638.96 390.6,-1648.71 389.76,-1642.28 393.14,-1644.98 393.14,-1644.98 393.14,-1644.98 389.76,-1642.28 396.21,-1641.67 385.58,-1638.96"/>
<text text-anchor="start" x="400.67" y="-1655.4" font-family="Arial" font-size="10.00">logs&#45;&gt;users</text>
</g>
<!-- long_long_long_long_long_long_long_long_table_name -->
<g id="node6" class="node">
<title>long_long_long_long_long_long_long_long_table_name</title>
<polygon fill="#efefef" stroke="none" points="1004.19,-1614.6 1004.19,-1650.2 1553.64,-1650.2 1553.64,-1614.6 1004.19,-1614.6"/>
<polygon fill="none" stroke="black" points="1004.19,-1614.6 1004.19,-1650.2 1553.64,-1650.2 1553.64,-1614.6 1004.19,-1614.6"/>
<text text-anchor="start" x="1011.19" y="-1628" font-family="Arial Bold" font-size="18.00">long_long_long_long_long_long_long_long_table_name</text>
<text text-anchor="start" x="1422.15" y="-1628" font-family="Arial" font-size="14.00">    </text>
<text text-anchor="start" x="1453.27" y="-1628" font-family="Arial" font-size="14.00" fill="#666666">[BASE TABLE]</text>
<polygon fill="none" stroke="black" points="1004.19,-1583.8 1004.19,-1614.6 1553.64,-1614.6 1553.64,-1583.8 1004.19,-1583.8"/>
<text text-anchor="start" x="1011.19" y="-1596" font-family="Arial" font-size="14.00">id </text>
<text text-anchor="start" x="1025.97" y="-1596" font-family="Arial" font-size="14.00" fill="#666666">[bigint]</text>
<polygon fill="none" stroke="black" points="1004.19,-1553 1004.19,-1583.8 1553.64,-1583.8 1553.64,-1553 1004.19,-1553"/>
<text text-anchor="start" x="1011.19" y="-1565.2" font-family="Arial" font-size="14.00">created </text>
<text text-anchor="start" x="1061.77" y="-1565.2" font-family="Arial" font-size="14.00" fill="#666666">[datetime]</text>
</g>
<!-- post_comments -->
<g id="node7" class="node">
<title>post_comments</title>
<polygon fill="#efefef" stroke="none" points="1658.08,-1691.6 1658.08,-1727.2 1859.75,-1727.2 1859.75,-1691.6 1658.08,-1691.6"/>
<polygon fill="none" stroke="black" points="1658.08,-1691.6 1658.08,-1727.2 1859.75,-1727.2 1859.75,-1691.6 1658.08,-1691.6"/>
<text text-anchor="start" x="1665.08" y="-1705" font-family="Arial Bold" font-size="18.00">post_comments</text>
<text text-anchor="start" x="1778.07" y="-1705" font-family="Arial" font-size="14.00">    </text>
<text text-anchor="start" x="1809.19" y="-1705" font-family="Arial" font-size="14.00" fill="#666666">[VIEW]</text>
<polygon fill="none" stroke="black" points="1658.08,-1660.8 1658.08,-1691.6 1859.75,-1691.6 1859.75,-1660.8 1658.08,-1660.8"/>
<text text-anchor="start" x="1665.08" y="-1673" font-family="Arial" font-size="14.00">id </text>
<text text-anchor="start" x="1679.87" y="-1673" font-family="Arial" font-size="14.00" fill="#666666">[bigint]</text>
<polygon fill="none" stroke="black" points="1658.08,-1630 1658.08,-1660.8 1859.75,-1660.8 1859.75,-1630 1658.08,-1630"/>
<text text-anchor="start" x="1665.08" y="-1642.2" font-family="Arial" font-size="14.00">title </text>
<text text-anchor="start" x="1690.76" y="-1642.2" font-family="Arial" font-size="14.00" fill="#666666">[varchar(255)]</text>
<polygon fill="none" stroke="black" points="1658.08,-1599.2 1658.08,-1630 1859.75,-1630 1859.75,-1599.2 1658.08,-1599.2"/>
<text text-anchor="start" x="1665.08" y="-1611.4" font-family="Arial" font-size="14.00">post_user </text>
<text text-anchor="start" x="1730.45" y="-1611.4" font-family="Arial" font-size="14.00" fill="#666666">[varchar(50)]</text>
<polygon fill="none" stroke="black" points="1658.08,-1568.4 1658.08,-1599.2 1859.75,-1599.2 1859.75,-1568.4 1658.08,-1568.4"/>
<text text-anchor="start" x="1665.08" y="-1580.6" font-family="Arial" font-size="14.00">comment </text>
<text text-anchor="start" x="1726.54" y="-1580.6" font-family="Arial" font-size="14.00" fill="#666666">[text]</text>
<polygon fill="none" stroke="black" points="1658.08,-1537.6 1658.08,-1568.4 1859.75,-1568.4 1859.75,-1537.6 1658.08,-1537.6"/>
<text text-anchor="start" x="1665.08" y="-1549.8" font-family="Arial" font-size="14.00">comment_user </text>
<text text-anchor="start" x="1761.56" y="-1549.8" font-family="Arial" font-size="14.00" fill="#666666">[varchar(50)]</text>
<polygon fill="none" stroke="black" points="1658.08,-1506.8 1658.08,-1537.6 1859.75,-1537.6 1859.75,-1506.8 1658.08,-1506.8"/>
<text text-anchor="start" x="1665.08" y="-1519" font-family="Arial" font-size="14.00">created </text>
<text text-anchor="start" x="1715.67" y="-1519" font-family="Arial" font-size="14.00" fill="#666666">[datetime]</text>
<polygon fill="none" stroke="black" points="1658.08,-1476 1658.08,-1506.8 1859.75,-1506.8 1859.75,-1476 1658.08,-1476"/>
<text text-anchor="start" x="1665.08" y="-1488.2" font-family="Arial" font-size="14.00">updated </text>
<text text-anchor="start" x="1719.58" y="-1488.2" font-family="Arial" font-size="14.00" fill="#666666">[datetime]</text>
</g>
<!-- posts&#45;&gt;users -->
<g id="edge5" class="edge">
<title>posts:user_id&#45;&gt;users:id</title>
<path fill="none" stroke="black" d="M715.8,-554.86C794.18,-546.05 723.88,-431.51 704.49,-342.8 700.74,-325.64 691.97,-323.95 688.17,-306.8 679.11,-265.92 645.3,-212.6 687.17,-212.6"/>
<polygon fill="black" stroke="black" points="715.81,-554.86 705.59,-550.89 710.48,-555.14 706.16,-555.36 706.16,-555.36 706.16,-555.36 710.48,-555.14 706.06,-559.88 715.81,-554.86"/>
<text text-anchor="start" x="712.49" y="-565.4" font-family="Arial" font-size="10.00">FOREIGN KEY (user_id) REFERENCES users (id)</text>
</g>
<!-- user_options -->
<g id="node9" class="node">
<title>user_options</title>
<polygon fill="#efefef" stroke="none" points="884.67,-555.4 884.67,-591 1115.16,-591 1115.16,-555.4 884.67,-555.4"/>
<polygon fill="none" stroke="black" points="884.67,-555.4 884.67,-591 1115.16,-591 1115.16,-555.4 884.67,-555.4"/>
<text text-anchor="start" x="891.67" y="-568.8" font-family="Arial Bold" font-size="18.00">user_options</text>
<text text-anchor="start" x="983.67" y="-568.8" font-family="Arial" font-size="14.00">    </text>
<text text-anchor="start" x="1014.78" y="-568.8" font-family="Arial" font-size="14.00" fill="#666666">[BASE TABLE]</text>
<polygon fill="none" stroke="black" points="884.67,-524.6 884.67,-555.4 1115.16,-555.4 1115.16,-524.6 884.67,-524.6"/>
<text text-anchor="start" x="891.67" y="-536.8" font-family="Arial" font-size="14.00">user_id </text>
<text text-anchor="start" x="941.48" y="-536.8" font-family="Arial" font-size="14.00" fill="#666666">[int]</text>
<polygon fill="none" stroke="black" points="884.67,-493.8 884.67,-524.6 1115.16,-524.6 1115.16,-493.8 884.67,-493.8"/>
<text text-anchor="start" x="891.67" y="-506" font-family="Arial" font-size="14.00">show_email </text>
<text text-anchor="start" x="969.49" y="-506" font-family="Arial" font-size="14.00" fill="#666666">[tinyint(1)]</text>
<polygon fill="none" stroke="black" points="884.67,-463 884.67,-493.8 1115.16,-493.8 1115.16,-463 884.67,-463"/>
<text text-anchor="start" x="891.67" y="-475.2" font-family="Arial" font-size="14.00">created </text>
<text text-anchor="start" x="942.26" y="-475.2" font-family="Arial" font-size="14.00" fill="#666666">[timestamp]</text>
<polygon fill="none" stroke="black" points="884.67,-432.2 884.67,-463 1115.16,-463 1115.16,-432.2 884.67,-432.2"/>
<text text-anchor="start" x="891.67" y="-444.4" font-family="Arial" font-size="14.00">updated </text>
<text text-anchor="start" x="946.17" y="-444.4" font-family="Arial" font-size="14.00" fill="#666666">[timestamp]</text>
</g>
<!-- user_options&#45;&gt;users -->
<g id="edge6" class="edge">
<title>user_options:user_id&#45;&gt;users:id</title>
<path fill="none" stroke="black" d="M873.37,-539.38C751.48,-523.59 1006.71,-212.6 864.66,-212.6"/>
<polygon fill="black" stroke="black" points="873.36,-539.38 883.07,-544.47 878.68,-539.7 883,-539.96 883,-539.96 883,-539.96 878.68,-539.7 883.61,-535.49 873.36,-539.38"/>
<text text-anchor="start" x="770.59" y="-524" font-family="Arial" font-size="10.00">FOREIGN KEY (user_id) REFERENCES users (id)</text>
</g>
</g>
</svg>
