<?xml version="1.0" encoding="UTF-8" standalone="no"?>
<!DOCTYPE svg PUBLIC "-//W3C//DTD SVG 1.1//EN"
 "http://www.w3.org/Graphics/SVG/1.1/DTD/svg11.dtd">
<!-- Generated by graphviz version 2.40.1 (20161225.0304)
 -->
<!-- Title: user_options Pages: 1 -->
<svg width="538pt" height="592pt"
 viewBox="0.00 0.00 538.00 592.00" xmlns="http://www.w3.org/2000/svg" xmlns:xlink="http://www.w3.org/1999/xlink">
<g id="graph0" class="graph" transform="scale(1 1) rotate(0) translate(4 588)">
<title>user_options</title>
<polygon fill="#ffffff" stroke="transparent" points="-4,4 -4,-588 534,-588 534,4 -4,4"/>
<!-- user_options -->
<g id="node1" class="node">
<title>user_options</title>
<polygon fill="#efefef" stroke="transparent" points="240,-502.5 240,-537.5 484,-537.5 484,-502.5 240,-502.5"/>
<polygon fill="none" stroke="#000000" points="240,-502.5 240,-537.5 484,-537.5 484,-502.5 240,-502.5"/>
<text text-anchor="start" x="246.7" y="-515.3" font-family="Arial Bold" font-size="18.00" fill="#000000">user_options</text>
<text text-anchor="start" x="349.732" y="-515.3" font-family="Arial" font-size="14.00" fill="#000000">    </text>
<text text-anchor="start" x="383.9368" y="-515.3" font-family="Arial" font-size="14.00" fill="#666666">[BASE TABLE]</text>
<polygon fill="none" stroke="#000000" points="240,-472.5 240,-502.5 484,-502.5 484,-472.5 240,-472.5"/>
<text text-anchor="start" x="247" y="-483.9" font-family="Arial" font-size="14.00" fill="#000000">user_id </text>
<text text-anchor="start" x="296.7882" y="-483.9" font-family="Arial" font-size="14.00" fill="#666666">[int]</text>
<polygon fill="none" stroke="#000000" points="240,-442.5 240,-472.5 484,-472.5 484,-442.5 240,-442.5"/>
<text text-anchor="start" x="247" y="-453.9" font-family="Arial" font-size="14.00" fill="#000000">show_email </text>
<text text-anchor="start" x="324.784" y="-453.9" font-family="Arial" font-size="14.00" fill="#666666">[tinyint(1)]</text>
<polygon fill="none" stroke="#000000" points="240,-412.5 240,-442.5 484,-442.5 484,-412.5 240,-412.5"/>
<text text-anchor="start" x="247" y="-423.9" font-family="Arial" font-size="14.00" fill="#000000">created </text>
<text text-anchor="start" x="297.5722" y="-423.9" font-family="Arial" font-size="14.00" fill="#666666">[timestamp]</text>
<polygon fill="none" stroke="#000000" points="240,-382.5 240,-412.5 484,-412.5 484,-382.5 240,-382.5"/>
<text text-anchor="start" x="247" y="-393.9" font-family="Arial" font-size="14.00" fill="#000000">updated </text>
<text text-anchor="start" x="301.4768" y="-393.9" font-family="Arial" font-size="14.00" fill="#666666">[timestamp]</text>
<polygon fill="none" stroke="#000000" stroke-width="3" points="238.5,-381.5 238.5,-539.5 485.5,-539.5 485.5,-381.5 238.5,-381.5"/>
</g>
<!-- users -->
<g id="node2" class="node">
<title>users</title>
<polygon fill="#efefef" stroke="transparent" points="267,-222.5 267,-257.5 456,-257.5 456,-222.5 267,-222.5"/>
<polygon fill="none" stroke="#000000" points="267,-222.5 267,-257.5 456,-257.5 456,-222.5 267,-222.5"/>
<text text-anchor="start" x="275.7137" y="-235.3" font-family="Arial Bold" font-size="18.00" fill="#000000">users</text>
<text text-anchor="start" x="319.7183" y="-235.3" font-family="Arial" font-size="14.00" fill="#000000">    </text>
<text text-anchor="start" x="353.9231" y="-235.3" font-family="Arial" font-size="14.00" fill="#666666">[BASE TABLE]</text>
<polygon fill="none" stroke="#000000" points="267,-192.5 267,-222.5 456,-222.5 456,-192.5 267,-192.5"/>
<text text-anchor="start" x="274" y="-203.9" font-family="Arial" font-size="14.00" fill="#000000">id    </text>
<text text-anchor="start" x="319.094" y="-203.9" font-family="Arial" font-size="14.00" fill="#666666">[int]</text>
<polygon fill="none" stroke="#000000" points="267,-162.5 267,-192.5 456,-192.5 456,-162.5 267,-162.5"/>
<text text-anchor="start" x="273.6122" y="-173.9" font-family="Arial" font-size="14.00" fill="#000000">username    </text>
<text text-anchor="start" x="370.0512" y="-173.9" font-family="Arial" font-size="14.00" fill="#666666">[varchar(50)]</text>
<polygon fill="none" stroke="#000000" points="267,-132.5 267,-162.5 456,-162.5 456,-132.5 267,-132.5"/>
<text text-anchor="start" x="274" y="-143.9" font-family="Arial" font-size="14.00" fill="#000000">password    </text>
<text text-anchor="start" x="368.1024" y="-143.9" font-family="Arial" font-size="14.00" fill="#666666">[varchar(50)]</text>
<polygon fill="none" stroke="#000000" points="267,-102.5 267,-132.5 456,-132.5 456,-102.5 267,-102.5"/>
<text text-anchor="start" x="274" y="-113.9" font-family="Arial" font-size="14.00" fill="#000000">email    </text>
<text text-anchor="start" x="341.6438" y="-113.9" font-family="Arial" font-size="14.00" fill="#666666">[varchar(355)]</text>
<polygon fill="none" stroke="#000000" points="267,-72.5 267,-102.5 456,-102.5 456,-72.5 267,-72.5"/>
<text text-anchor="start" x="274" y="-83.9" font-family="Arial" font-size="14.00" fill="#000000">created    </text>
<text text-anchor="start" x="354.8864" y="-83.9" font-family="Arial" font-size="14.00" fill="#666666">[timestamp]</text>
<polygon fill="none" stroke="#000000" points="267,-42.5 267,-72.5 456,-72.5 456,-42.5 267,-42.5"/>
<text text-anchor="start" x="274" y="-53.9" font-family="Arial" font-size="14.00" fill="#000000">updated    </text>
<text text-anchor="start" x="358.791" y="-53.9" font-family="Arial" font-size="14.00" fill="#666666">[timestamp]</text>
</g>
<!-- user_options&#45;&gt;users -->
<g id="edge1" class="edge">
<title>user_options:user_id&#45;&gt;users:id</title>
<path fill="none" stroke="#000000" d="M229.8268,-486.6318C175.7568,-476.7661 199.1291,-385.2464 240,-337 302.9079,-262.7397 393.0921,-375.2603 456,-301 482.8605,-269.2923 497.5556,-207.5 456,-207.5"/>
<polygon fill="#000000" stroke="#000000" points="230.0362,-486.6496 239.6173,-491.9837 235.0181,-487.0748 240,-487.5 240,-487.5 240,-487.5 235.0181,-487.0748 240.3827,-483.0163 230.0362,-486.6496 230.0362,-486.6496"/>
<text text-anchor="start" x="6.945" y="-497.5" font-family="Arial" font-size="10.00" fill="#000000">FOREIGN KEY (user_id) REFERENCES users (id)</text>
</g>
</g>
</svg>
