<?xml version="1.0" encoding="UTF-8" standalone="no"?>
<!DOCTYPE svg PUBLIC "-//W3C//DTD SVG 1.1//EN"
 "http://www.w3.org/Graphics/SVG/1.1/DTD/svg11.dtd">
<!-- Generated by graphviz version 2.40.1 (20161225.0304)
 -->
<!-- Title: testdb Pages: 1 -->
<svg width="1078pt" height="1747pt"
 viewBox="0.00 0.00 1078.00 1747.00" xmlns="http://www.w3.org/2000/svg" xmlns:xlink="http://www.w3.org/1999/xlink">
<g id="graph0" class="graph" transform="scale(1 1) rotate(0) translate(4 1743)">
<title>testdb</title>
<polygon fill="#ffffff" stroke="transparent" points="-4,4 -4,-1743 1074,-1743 1074,4 -4,4"/>
<!-- comment_stars -->
<g id="node1" class="node">
<title>comment_stars</title>
<polygon fill="#efefef" stroke="transparent" points="455,-1293.5 455,-1328.5 719,-1328.5 719,-1293.5 455,-1293.5"/>
<polygon fill="none" stroke="#000000" points="455,-1293.5 455,-1328.5 719,-1328.5 719,-1293.5 455,-1293.5"/>
<text text-anchor="start" x="461.71" y="-1306.3" font-family="Arial Bold" font-size="18.00" fill="#000000">comment_stars</text>
<text text-anchor="start" x="584.722" y="-1306.3" font-family="Arial" font-size="14.00" fill="#000000">    </text>
<text text-anchor="start" x="618.9268" y="-1306.3" font-family="Arial" font-size="14.00" fill="#666666">[BASE TABLE]</text>
<polygon fill="none" stroke="#000000" points="455,-1263.5 455,-1293.5 719,-1293.5 719,-1263.5 455,-1263.5"/>
<text text-anchor="start" x="462" y="-1274.9" font-family="Arial" font-size="14.00" fill="#000000">id    </text>
<text text-anchor="start" x="507.094" y="-1274.9" font-family="Arial" font-size="14.00" fill="#666666">[bigint]</text>
<polygon fill="none" stroke="#000000" points="455,-1233.5 455,-1263.5 719,-1263.5 719,-1233.5 455,-1233.5"/>
<text text-anchor="start" x="462" y="-1244.9" font-family="Arial" font-size="14.00" fill="#000000">user_id    </text>
<text text-anchor="start" x="542.1024" y="-1244.9" font-family="Arial" font-size="14.00" fill="#666666">[int]</text>
<polygon fill="none" stroke="#000000" points="455,-1203.5 455,-1233.5 719,-1233.5 719,-1203.5 455,-1203.5"/>
<text text-anchor="start" x="462" y="-1214.9" font-family="Arial" font-size="14.00" fill="#000000">comment_post_id    </text>
<text text-anchor="start" x="606.6746" y="-1214.9" font-family="Arial" font-size="14.00" fill="#666666">[bigint]</text>
<polygon fill="none" stroke="#000000" points="455,-1173.5 455,-1203.5 719,-1203.5 719,-1173.5 455,-1173.5"/>
<text text-anchor="start" x="462" y="-1184.9" font-family="Arial" font-size="14.00" fill="#000000">comment_user_id    </text>
<text text-anchor="start" x="607.4446" y="-1184.9" font-family="Arial" font-size="14.00" fill="#666666">[int]</text>
<polygon fill="none" stroke="#000000" points="455,-1143.5 455,-1173.5 719,-1173.5 719,-1143.5 455,-1143.5"/>
<text text-anchor="start" x="462" y="-1154.9" font-family="Arial" font-size="14.00" fill="#000000">created    </text>
<text text-anchor="start" x="542.8864" y="-1154.9" font-family="Arial" font-size="14.00" fill="#666666">[timestamp]</text>
<polygon fill="none" stroke="#000000" points="455,-1113.5 455,-1143.5 719,-1143.5 719,-1113.5 455,-1113.5"/>
<text text-anchor="start" x="462" y="-1124.9" font-family="Arial" font-size="14.00" fill="#000000">updated    </text>
<text text-anchor="start" x="546.791" y="-1124.9" font-family="Arial" font-size="14.00" fill="#666666">[timestamp]</text>
</g>
<!-- comments -->
<g id="node2" class="node">
<title>comments</title>
<polygon fill="#efefef" stroke="transparent" points="417,-956.5 417,-991.5 641,-991.5 641,-956.5 417,-956.5"/>
<polygon fill="none" stroke="#000000" points="417,-956.5 417,-991.5 641,-991.5 641,-956.5 417,-956.5"/>
<text text-anchor="start" x="423.7134" y="-969.3" font-family="Arial Bold" font-size="18.00" fill="#000000">comments</text>
<text text-anchor="start" x="506.7186" y="-969.3" font-family="Arial" font-size="14.00" fill="#000000">    </text>
<text text-anchor="start" x="540.9234" y="-969.3" font-family="Arial" font-size="14.00" fill="#666666">[BASE TABLE]</text>
<polygon fill="none" stroke="#000000" points="417,-926.5 417,-956.5 641,-956.5 641,-926.5 417,-926.5"/>
<text text-anchor="start" x="424" y="-937.9" font-family="Arial" font-size="14.00" fill="#000000">id    </text>
<text text-anchor="start" x="469.094" y="-937.9" font-family="Arial" font-size="14.00" fill="#666666">[bigint]</text>
<polygon fill="none" stroke="#000000" points="417,-896.5 417,-926.5 641,-926.5 641,-896.5 417,-896.5"/>
<text text-anchor="start" x="424" y="-907.9" font-family="Arial" font-size="14.00" fill="#000000">post_id    </text>
<text text-anchor="start" x="503.3324" y="-907.9" font-family="Arial" font-size="14.00" fill="#666666">[bigint]</text>
<polygon fill="none" stroke="#000000" points="417,-866.5 417,-896.5 641,-896.5 641,-866.5 417,-866.5"/>
<text text-anchor="start" x="424" y="-877.9" font-family="Arial" font-size="14.00" fill="#000000">user_id    </text>
<text text-anchor="start" x="504.1024" y="-877.9" font-family="Arial" font-size="14.00" fill="#666666">[int]</text>
<polygon fill="none" stroke="#000000" points="417,-836.5 417,-866.5 641,-866.5 641,-836.5 417,-836.5"/>
<text text-anchor="start" x="424" y="-847.9" font-family="Arial" font-size="14.00" fill="#000000">comment    </text>
<text text-anchor="start" x="515.7644" y="-847.9" font-family="Arial" font-size="14.00" fill="#666666">[text]</text>
<polygon fill="none" stroke="#000000" points="417,-806.5 417,-836.5 641,-836.5 641,-806.5 417,-806.5"/>
<text text-anchor="start" x="424" y="-817.9" font-family="Arial" font-size="14.00" fill="#000000">post_id_desc    </text>
<text text-anchor="start" x="540.6802" y="-817.9" font-family="Arial" font-size="14.00" fill="#666666">[bigint]</text>
<polygon fill="none" stroke="#000000" points="417,-776.5 417,-806.5 641,-806.5 641,-776.5 417,-776.5"/>
<text text-anchor="start" x="424" y="-787.9" font-family="Arial" font-size="14.00" fill="#000000">created    </text>
<text text-anchor="start" x="504.8864" y="-787.9" font-family="Arial" font-size="14.00" fill="#666666">[datetime]</text>
<polygon fill="none" stroke="#000000" points="417,-746.5 417,-776.5 641,-776.5 641,-746.5 417,-746.5"/>
<text text-anchor="start" x="424" y="-757.9" font-family="Arial" font-size="14.00" fill="#000000">updated    </text>
<text text-anchor="start" x="508.791" y="-757.9" font-family="Arial" font-size="14.00" fill="#666666">[datetime]</text>
</g>
<!-- comment_stars&#45;&gt;comments -->
<g id="edge2" class="edge">
<title>comment_stars:comment_post_id&#45;&gt;comments:post_id</title>
<path fill="none" stroke="#000000" d="M445.0351,-1217.6537C392.1051,-1208.0367 415.5628,-1118.8021 455,-1071 508.5843,-1006.0501 587.4157,-1099.9499 641,-1035 675.9306,-992.6604 695.8889,-911.5 641,-911.5"/>
<polygon fill="#000000" stroke="#000000" points="445.0359,-1217.6537 454.6192,-1222.9839 450.0179,-1218.0769 455,-1218.5 455,-1218.5 455,-1218.5 450.0179,-1218.0769 455.3808,-1214.0161 445.0359,-1217.6537 445.0359,-1217.6537"/>
<text text-anchor="start" x="7.1435" y="-1228.5" font-family="Arial" font-size="10.00" fill="#000000">FOREIGN KEY (comment_post_id, comment_user_id) REFERENCES comments (post_id, user_id)</text>
</g>
<!-- users -->
<g id="node6" class="node">
<title>users</title>
<polygon fill="#efefef" stroke="transparent" points="579,-222.5 579,-257.5 768,-257.5 768,-222.5 579,-222.5"/>
<polygon fill="none" stroke="#000000" points="579,-222.5 579,-257.5 768,-257.5 768,-222.5 579,-222.5"/>
<text text-anchor="start" x="587.7137" y="-235.3" font-family="Arial Bold" font-size="18.00" fill="#000000">users</text>
<text text-anchor="start" x="631.7183" y="-235.3" font-family="Arial" font-size="14.00" fill="#000000">    </text>
<text text-anchor="start" x="665.9231" y="-235.3" font-family="Arial" font-size="14.00" fill="#666666">[BASE TABLE]</text>
<polygon fill="none" stroke="#000000" points="579,-192.5 579,-222.5 768,-222.5 768,-192.5 579,-192.5"/>
<text text-anchor="start" x="586" y="-203.9" font-family="Arial" font-size="14.00" fill="#000000">id    </text>
<text text-anchor="start" x="631.094" y="-203.9" font-family="Arial" font-size="14.00" fill="#666666">[int]</text>
<polygon fill="none" stroke="#000000" points="579,-162.5 579,-192.5 768,-192.5 768,-162.5 579,-162.5"/>
<text text-anchor="start" x="585.6122" y="-173.9" font-family="Arial" font-size="14.00" fill="#000000">username    </text>
<text text-anchor="start" x="682.0512" y="-173.9" font-family="Arial" font-size="14.00" fill="#666666">[varchar(50)]</text>
<polygon fill="none" stroke="#000000" points="579,-132.5 579,-162.5 768,-162.5 768,-132.5 579,-132.5"/>
<text text-anchor="start" x="586" y="-143.9" font-family="Arial" font-size="14.00" fill="#000000">password    </text>
<text text-anchor="start" x="680.1024" y="-143.9" font-family="Arial" font-size="14.00" fill="#666666">[varchar(50)]</text>
<polygon fill="none" stroke="#000000" points="579,-102.5 579,-132.5 768,-132.5 768,-102.5 579,-102.5"/>
<text text-anchor="start" x="586" y="-113.9" font-family="Arial" font-size="14.00" fill="#000000">email    </text>
<text text-anchor="start" x="653.6438" y="-113.9" font-family="Arial" font-size="14.00" fill="#666666">[varchar(355)]</text>
<polygon fill="none" stroke="#000000" points="579,-72.5 579,-102.5 768,-102.5 768,-72.5 579,-72.5"/>
<text text-anchor="start" x="586" y="-83.9" font-family="Arial" font-size="14.00" fill="#000000">created    </text>
<text text-anchor="start" x="666.8864" y="-83.9" font-family="Arial" font-size="14.00" fill="#666666">[timestamp]</text>
<polygon fill="none" stroke="#000000" points="579,-42.5 579,-72.5 768,-72.5 768,-42.5 579,-42.5"/>
<text text-anchor="start" x="586" y="-53.9" font-family="Arial" font-size="14.00" fill="#000000">updated    </text>
<text text-anchor="start" x="670.791" y="-53.9" font-family="Arial" font-size="14.00" fill="#666666">[timestamp]</text>
</g>
<!-- comment_stars&#45;&gt;users -->
<g id="edge1" class="edge">
<title>comment_stars:comment_user_id&#45;&gt;users:id</title>
<path fill="none" stroke="#000000" d="M722.9302,-1179.176C740.1475,-1087.9348 722.2295,-357.3687 731,-337 740.0739,-315.9267 759.0748,-322.1367 768,-301 784.1652,-262.7175 809.5556,-207.5 768,-207.5"/>
<polygon fill="#000000" stroke="#000000" points="722.8843,-1179.2852 714.8533,-1186.7521 720.9421,-1183.8926 719,-1188.5 719,-1188.5 719,-1188.5 720.9421,-1183.8926 723.1467,-1190.2479 722.8843,-1179.2852 722.8843,-1179.2852"/>
<text text-anchor="start" x="725.6085" y="-1198.5" font-family="Arial" font-size="10.00" fill="#000000">FOREIGN KEY (comment_user_id) REFERENCES users (id)</text>
</g>
<!-- posts -->
<g id="node4" class="node">
<title>posts</title>
<polygon fill="#efefef" stroke="transparent" points="310,-589.5 310,-624.5 603,-624.5 603,-589.5 310,-589.5"/>
<polygon fill="none" stroke="#000000" points="310,-589.5 310,-624.5 603,-624.5 603,-589.5 310,-589.5"/>
<text text-anchor="start" x="371.2087" y="-602.3" font-family="Arial Bold" font-size="18.00" fill="#000000">posts</text>
<text text-anchor="start" x="414.2233" y="-602.3" font-family="Arial" font-size="14.00" fill="#000000">    </text>
<text text-anchor="start" x="448.4281" y="-602.3" font-family="Arial" font-size="14.00" fill="#666666">[BASE TABLE]</text>
<polygon fill="none" stroke="#000000" points="310,-559.5 310,-589.5 603,-589.5 603,-559.5 310,-559.5"/>
<text text-anchor="start" x="317" y="-570.9" font-family="Arial" font-size="14.00" fill="#000000">id    </text>
<text text-anchor="start" x="362.094" y="-570.9" font-family="Arial" font-size="14.00" fill="#666666">[bigint]</text>
<polygon fill="none" stroke="#000000" points="310,-529.5 310,-559.5 603,-559.5 603,-529.5 310,-529.5"/>
<text text-anchor="start" x="317" y="-540.9" font-family="Arial" font-size="14.00" fill="#000000">user_id    </text>
<text text-anchor="start" x="397.1024" y="-540.9" font-family="Arial" font-size="14.00" fill="#666666">[int]</text>
<polygon fill="none" stroke="#000000" points="310,-499.5 310,-529.5 603,-529.5 603,-499.5 310,-499.5"/>
<text text-anchor="start" x="317" y="-510.9" font-family="Arial" font-size="14.00" fill="#000000">title    </text>
<text text-anchor="start" x="372.9818" y="-510.9" font-family="Arial" font-size="14.00" fill="#666666">[varchar(255)]</text>
<polygon fill="none" stroke="#000000" points="310,-469.5 310,-499.5 603,-499.5 603,-469.5 310,-469.5"/>
<text text-anchor="start" x="317" y="-480.9" font-family="Arial" font-size="14.00" fill="#000000">body    </text>
<text text-anchor="start" x="381.5526" y="-480.9" font-family="Arial" font-size="14.00" fill="#666666">[text]</text>
<polygon fill="none" stroke="#000000" points="310,-439.5 310,-469.5 603,-469.5 603,-439.5 310,-439.5"/>
<text text-anchor="start" x="316.5399" y="-450.9" font-family="Arial" font-size="14.00" fill="#000000">post_type    </text>
<text text-anchor="start" x="411.4389" y="-450.9" font-family="Arial" font-size="14.00" fill="#666666">[enum(&#39;public&#39;,&#39;private&#39;,&#39;draft&#39;)]</text>
<polygon fill="none" stroke="#000000" points="310,-409.5 310,-439.5 603,-439.5 603,-409.5 310,-409.5"/>
<text text-anchor="start" x="317" y="-420.9" font-family="Arial" font-size="14.00" fill="#000000">created    </text>
<text text-anchor="start" x="397.8864" y="-420.9" font-family="Arial" font-size="14.00" fill="#666666">[datetime]</text>
<polygon fill="none" stroke="#000000" points="310,-379.5 310,-409.5 603,-409.5 603,-379.5 310,-379.5"/>
<text text-anchor="start" x="317" y="-390.9" font-family="Arial" font-size="14.00" fill="#000000">updated    </text>
<text text-anchor="start" x="401.791" y="-390.9" font-family="Arial" font-size="14.00" fill="#666666">[datetime]</text>
</g>
<!-- comments&#45;&gt;posts -->
<g id="edge3" class="edge">
<title>comments:post_id&#45;&gt;posts:id</title>
<path fill="none" stroke="#000000" d="M407.32,-908.4988C373.5854,-885.468 389.948,-736.7899 417,-704 470.5843,-639.0501 549.4157,-732.9499 603,-668 629.4454,-635.9453 644.5556,-574.5 603,-574.5"/>
<polygon fill="#000000" stroke="#000000" points="407.4485,-908.5386 415.6674,-915.7982 412.2243,-910.0193 417,-911.5 417,-911.5 417,-911.5 412.2243,-910.0193 418.3326,-907.2018 407.4485,-908.5386 407.4485,-908.5386"/>
<text text-anchor="start" x="185.495" y="-921.5" font-family="Arial" font-size="10.00" fill="#000000">FOREIGN KEY (post_id) REFERENCES posts (id)</text>
</g>
<!-- comments&#45;&gt;users -->
<g id="edge4" class="edge">
<title>comments:user_id&#45;&gt;users:id</title>
<path fill="none" stroke="#000000" d="M651.0477,-880.3763C755.0205,-855.774 631.3131,-434.4666 698,-337 717.7549,-308.1271 749.777,-330.8634 768,-301 789.6459,-265.5272 809.5556,-207.5 768,-207.5"/>
<polygon fill="#000000" stroke="#000000" points="650.938,-880.3885 640.4998,-877.0279 645.969,-880.9442 641,-881.5 641,-881.5 641,-881.5 645.969,-880.9442 641.5002,-885.9721 650.938,-880.3885 650.938,-880.3885"/>
<text text-anchor="start" x="647.945" y="-891.5" font-family="Arial" font-size="10.00" fill="#000000">FOREIGN KEY (user_id) REFERENCES users (id)</text>
</g>
<!-- logs -->
<g id="node3" class="node">
<title>logs</title>
<polygon fill="#efefef" stroke="transparent" points="267,-1660.5 267,-1695.5 463,-1695.5 463,-1660.5 267,-1660.5"/>
<polygon fill="none" stroke="#000000" points="267,-1660.5 267,-1695.5 463,-1695.5 463,-1660.5 267,-1660.5"/>
<text text-anchor="start" x="284.7127" y="-1673.3" font-family="Arial Bold" font-size="18.00" fill="#000000">logs</text>
<text text-anchor="start" x="317.7193" y="-1673.3" font-family="Arial" font-size="14.00" fill="#000000">    </text>
<text text-anchor="start" x="351.9241" y="-1673.3" font-family="Arial" font-size="14.00" fill="#666666">[BASE TABLE]</text>
<polygon fill="none" stroke="#000000" points="267,-1630.5 267,-1660.5 463,-1660.5 463,-1630.5 267,-1630.5"/>
<text text-anchor="start" x="274" y="-1641.9" font-family="Arial" font-size="14.00" fill="#000000">id    </text>
<text text-anchor="start" x="319.094" y="-1641.9" font-family="Arial" font-size="14.00" fill="#666666">[bigint]</text>
<polygon fill="none" stroke="#000000" points="267,-1600.5 267,-1630.5 463,-1630.5 463,-1600.5 267,-1600.5"/>
<text text-anchor="start" x="274" y="-1611.9" font-family="Arial" font-size="14.00" fill="#000000">user_id    </text>
<text text-anchor="start" x="354.1024" y="-1611.9" font-family="Arial" font-size="14.00" fill="#666666">[int]</text>
<polygon fill="none" stroke="#000000" points="267,-1570.5 267,-1600.5 463,-1600.5 463,-1570.5 267,-1570.5"/>
<text text-anchor="start" x="274" y="-1581.9" font-family="Arial" font-size="14.00" fill="#000000">post_id    </text>
<text text-anchor="start" x="353.3324" y="-1581.9" font-family="Arial" font-size="14.00" fill="#666666">[bigint]</text>
<polygon fill="none" stroke="#000000" points="267,-1540.5 267,-1570.5 463,-1570.5 463,-1540.5 267,-1540.5"/>
<text text-anchor="start" x="274" y="-1551.9" font-family="Arial" font-size="14.00" fill="#000000">comment_id    </text>
<text text-anchor="start" x="384.4362" y="-1551.9" font-family="Arial" font-size="14.00" fill="#666666">[bigint]</text>
<polygon fill="none" stroke="#000000" points="267,-1510.5 267,-1540.5 463,-1540.5 463,-1510.5 267,-1510.5"/>
<text text-anchor="start" x="273.6073" y="-1521.9" font-family="Arial" font-size="14.00" fill="#000000">comment_star_id    </text>
<text text-anchor="start" x="415.1599" y="-1521.9" font-family="Arial" font-size="14.00" fill="#666666">[bigint]</text>
<polygon fill="none" stroke="#000000" points="267,-1480.5 267,-1510.5 463,-1510.5 463,-1480.5 267,-1480.5"/>
<text text-anchor="start" x="274" y="-1491.9" font-family="Arial" font-size="14.00" fill="#000000">payload    </text>
<text text-anchor="start" x="357.2244" y="-1491.9" font-family="Arial" font-size="14.00" fill="#666666">[text]</text>
<polygon fill="none" stroke="#000000" points="267,-1450.5 267,-1480.5 463,-1480.5 463,-1450.5 267,-1450.5"/>
<text text-anchor="start" x="274" y="-1461.9" font-family="Arial" font-size="14.00" fill="#000000">created    </text>
<text text-anchor="start" x="354.8864" y="-1461.9" font-family="Arial" font-size="14.00" fill="#666666">[datetime]</text>
</g>
<!-- logs&#45;&gt;comment_stars -->
<g id="edge10" class="edge">
<title>logs:comment_star_id&#45;&gt;comment_stars:id</title>
<path fill="none" stroke="#000000" stroke-dasharray="5,2" d="M473.0096,-1524.7489C523.9668,-1516.1911 462.0466,-1436.1932 455,-1372 450.4656,-1330.6926 413.4444,-1278.5 455,-1278.5"/>
<polygon fill="#000000" stroke="#000000" points="472.972,-1524.7517 462.6633,-1521.0126 467.986,-1525.1258 463,-1525.5 463,-1525.5 463,-1525.5 467.986,-1525.1258 463.3367,-1529.9874 472.972,-1524.7517 472.972,-1524.7517"/>
<text text-anchor="start" x="470.3245" y="-1535.5" font-family="Arial" font-size="10.00" fill="#000000">Additional Relation</text>
</g>
<!-- logs&#45;&gt;comments -->
<g id="edge9" class="edge">
<title>logs:comment_id&#45;&gt;comments:id</title>
<path fill="none" stroke="#000000" stroke-dasharray="5,2" d="M473.2064,-1554.6519C524.7913,-1545.3605 493.4697,-1461.8153 463,-1408 447.6779,-1380.9382 418.3221,-1399.0618 403,-1372 337.0878,-1255.5866 395.8002,-1204.5839 403,-1071 406.1156,-1013.193 359.1091,-941.5 417,-941.5"/>
<polygon fill="#000000" stroke="#000000" points="472.9657,-1554.6719 462.6273,-1551.0155 467.9828,-1555.0859 463,-1555.5 463,-1555.5 463,-1555.5 467.9828,-1555.0859 463.3727,-1559.9845 472.9657,-1554.6719 472.9657,-1554.6719"/>
<text text-anchor="start" x="470.3245" y="-1565.5" font-family="Arial" font-size="10.00" fill="#000000">Additional Relation</text>
</g>
<!-- logs&#45;&gt;posts -->
<g id="edge8" class="edge">
<title>logs:post_id&#45;&gt;posts:id</title>
<path fill="none" stroke="#000000" stroke-dasharray="5,2" d="M262.8925,-1576.1371C243.7146,-1474.2161 283.4834,-574.5 310,-574.5"/>
<polygon fill="#000000" stroke="#000000" points="262.9825,-1576.3425 262.8791,-1587.3079 264.9913,-1580.9212 267,-1585.5 267,-1585.5 267,-1585.5 264.9913,-1580.9212 271.1209,-1583.6921 262.9825,-1576.3425 262.9825,-1576.3425"/>
<text text-anchor="start" x="177.3245" y="-1595.5" font-family="Arial" font-size="10.00" fill="#000000">Additional Relation</text>
</g>
<!-- logs&#45;&gt;users -->
<g id="edge7" class="edge">
<title>logs:user_id&#45;&gt;users:id</title>
<path fill="none" stroke="#000000" stroke-dasharray="5,2" d="M258.6061,-1609.6751C195.9256,-1522.2727 161.0429,-478.6018 257,-337 343.5321,-209.3065 424.7488,-207.5 579,-207.5"/>
<polygon fill="#000000" stroke="#000000" points="258.7843,-1609.7988 264.4345,-1619.197 262.8922,-1612.6494 267,-1615.5 267,-1615.5 267,-1615.5 262.8922,-1612.6494 269.5655,-1611.803 258.7843,-1609.7988 258.7843,-1609.7988"/>
<text text-anchor="start" x="209.024" y="-1625.5" font-family="Arial" font-size="10.00" fill="#000000">logs&#45;&gt;users</text>
</g>
<!-- posts&#45;&gt;users -->
<g id="edge5" class="edge">
<title>posts:user_id&#45;&gt;users:id</title>
<path fill="none" stroke="#000000" d="M613.097,-543.9631C690.1644,-535.232 628.6806,-421.8173 603,-337 597.4276,-318.5955 584.5724,-319.4045 579,-301 566.9579,-261.2275 537.4444,-207.5 579,-207.5"/>
<polygon fill="#000000" stroke="#000000" points="612.9859,-543.969 602.761,-540.0063 607.9929,-544.2345 603,-544.5 603,-544.5 603,-544.5 607.9929,-544.2345 603.239,-548.9937 612.9859,-543.969 612.9859,-543.969"/>
<text text-anchor="start" x="609.945" y="-554.5" font-family="Arial" font-size="10.00" fill="#000000">FOREIGN KEY (user_id) REFERENCES users (id)</text>
</g>
<!-- user_options -->
<g id="node5" class="node">
<title>user_options</title>
<polygon fill="#efefef" stroke="transparent" points="783,-544.5 783,-579.5 1027,-579.5 1027,-544.5 783,-544.5"/>
<polygon fill="none" stroke="#000000" points="783,-544.5 783,-579.5 1027,-579.5 1027,-544.5 783,-544.5"/>
<text text-anchor="start" x="789.7" y="-557.3" font-family="Arial Bold" font-size="18.00" fill="#000000">user_options</text>
<text text-anchor="start" x="892.732" y="-557.3" font-family="Arial" font-size="14.00" fill="#000000">    </text>
<text text-anchor="start" x="926.9368" y="-557.3" font-family="Arial" font-size="14.00" fill="#666666">[BASE TABLE]</text>
<polygon fill="none" stroke="#000000" points="783,-514.5 783,-544.5 1027,-544.5 1027,-514.5 783,-514.5"/>
<text text-anchor="start" x="790" y="-525.9" font-family="Arial" font-size="14.00" fill="#000000">user_id    </text>
<text text-anchor="start" x="870.1024" y="-525.9" font-family="Arial" font-size="14.00" fill="#666666">[int]</text>
<polygon fill="none" stroke="#000000" points="783,-484.5 783,-514.5 1027,-514.5 1027,-484.5 783,-484.5"/>
<text text-anchor="start" x="790" y="-495.9" font-family="Arial" font-size="14.00" fill="#000000">show_email    </text>
<text text-anchor="start" x="898.0982" y="-495.9" font-family="Arial" font-size="14.00" fill="#666666">[tinyint(1)]</text>
<polygon fill="none" stroke="#000000" points="783,-454.5 783,-484.5 1027,-484.5 1027,-454.5 783,-454.5"/>
<text text-anchor="start" x="790" y="-465.9" font-family="Arial" font-size="14.00" fill="#000000">created    </text>
<text text-anchor="start" x="870.8864" y="-465.9" font-family="Arial" font-size="14.00" fill="#666666">[timestamp]</text>
<polygon fill="none" stroke="#000000" points="783,-424.5 783,-454.5 1027,-454.5 1027,-424.5 783,-424.5"/>
<text text-anchor="start" x="790" y="-435.9" font-family="Arial" font-size="14.00" fill="#000000">updated    </text>
<text text-anchor="start" x="874.791" y="-435.9" font-family="Arial" font-size="14.00" fill="#666666">[timestamp]</text>
</g>
<!-- user_options&#45;&gt;users -->
<g id="edge6" class="edge">
<title>user_options:user_id&#45;&gt;users:id</title>
<path fill="none" stroke="#000000" d="M772.8758,-528.8878C653.255,-513.356 907.6287,-207.5 768,-207.5"/>
<polygon fill="#000000" stroke="#000000" points="773.0182,-528.8963 782.7283,-533.9918 778.0091,-529.1981 783,-529.5 783,-529.5 783,-529.5 778.0091,-529.1981 783.2717,-525.0082 773.0182,-528.8963 773.0182,-528.8963"/>
<text text-anchor="start" x="669.945" y="-513.5" font-family="Arial" font-size="10.00" fill="#000000">FOREIGN KEY (user_id) REFERENCES users (id)</text>
</g>
</g>
</svg>
