<?xml version="1.0" encoding="UTF-8" standalone="no"?>
<!DOCTYPE svg PUBLIC "-//W3C//DTD SVG 1.1//EN"
 "http://www.w3.org/Graphics/SVG/1.1/DTD/svg11.dtd">
<!-- Generated by graphviz version 12.1.2 (20240928.0832)
 -->
<!-- Title: Secure data Pages: 1 -->
<svg width="281pt" height="315pt"
 viewBox="0.00 0.00 281.13 314.80" xmlns="http://www.w3.org/2000/svg" xmlns:xlink="http://www.w3.org/1999/xlink">
<g id="graph0" class="graph" transform="scale(1 1) rotate(0) translate(4 310.8)">
<title>Secure data</title>
<polygon fill="white" stroke="none" points="-4,4 -4,-310.8 277.13,-310.8 277.13,4 -4,4"/>
<!-- users -->
<g id="node1" class="node">
<title>users</title>
<polygon fill="#efefef" stroke="none" points="43.2,-228 43.2,-263.6 229.93,-263.6 229.93,-228 43.2,-228"/>
<polygon fill="none" stroke="black" points="43.2,-228 43.2,-263.6 229.93,-263.6 229.93,-228 43.2,-228"/>
<text text-anchor="start" x="55.82" y="-241.4" font-family="Arial Bold" font-size="18.00">users</text>
<text text-anchor="start" x="92.82" y="-241.4" font-family="Arial" font-size="14.00">    </text>
<text text-anchor="start" x="123.93" y="-241.4" font-family="Arial" font-size="14.00" fill="#666666">[BASE TABLE]</text>
<polygon fill="none" stroke="black" points="43.2,-197.2 43.2,-228 229.93,-228 229.93,-197.2 43.2,-197.2"/>
<text text-anchor="start" x="50.2" y="-209.4" font-family="Arial" font-size="14.00">id    </text>
<text text-anchor="start" x="92.21" y="-209.4" font-family="Arial" font-size="14.00" fill="#666666">[int]</text>
<polygon fill="none" stroke="black" points="43.2,-166.4 43.2,-197.2 229.93,-197.2 229.93,-166.4 43.2,-166.4"/>
<text text-anchor="start" x="50.2" y="-178.6" font-family="Arial" font-size="14.00">username    </text>
<text text-anchor="start" x="143.57" y="-178.6" font-family="Arial" font-size="14.00" fill="#666666">[varchar(50)]</text>
<polygon fill="none" stroke="black" points="43.2,-135.6 43.2,-166.4 229.93,-166.4 229.93,-135.6 43.2,-135.6"/>
<text text-anchor="start" x="50.2" y="-147.8" font-family="Arial" font-size="14.00">password    </text>
<text text-anchor="start" x="141.23" y="-147.8" font-family="Arial" font-size="14.00" fill="#666666">[varchar(50)]</text>
<polygon fill="none" stroke="black" points="43.2,-104.8 43.2,-135.6 229.93,-135.6 229.93,-104.8 43.2,-104.8"/>
<text text-anchor="start" x="50.2" y="-117" font-family="Arial" font-size="14.00">email    </text>
<text text-anchor="start" x="114.77" y="-117" font-family="Arial" font-size="14.00" fill="#666666">[varchar(355)]</text>
<polygon fill="none" stroke="black" points="43.2,-74 43.2,-104.8 229.93,-104.8 229.93,-74 43.2,-74"/>
<text text-anchor="start" x="50.2" y="-86.2" font-family="Arial" font-size="14.00">created    </text>
<text text-anchor="start" x="128.01" y="-86.2" font-family="Arial" font-size="14.00" fill="#666666">[timestamp]</text>
<polygon fill="none" stroke="black" points="43.2,-43.2 43.2,-74 229.93,-74 229.93,-43.2 43.2,-43.2"/>
<text text-anchor="start" x="50.2" y="-55.4" font-family="Arial" font-size="14.00">updated    </text>
<text text-anchor="start" x="131.92" y="-55.4" font-family="Arial" font-size="14.00" fill="#666666">[timestamp]</text>
</g>
</g>
</svg>
