<?xml version="1.0" encoding="UTF-8" standalone="no"?>
<!DOCTYPE svg PUBLIC "-//W3C//DTD SVG 1.1//EN"
 "http://www.w3.org/Graphics/SVG/1.1/DTD/svg11.dtd">
<!-- Generated by graphviz version 12.1.2 (20240928.0832)
 -->
<!-- Title: Ops Pages: 1 -->
<svg width="554pt" height="1062pt"
 viewBox="0.00 0.00 553.51 1062.00" xmlns="http://www.w3.org/2000/svg" xmlns:xlink="http://www.w3.org/1999/xlink">
<g id="graph0" class="graph" transform="scale(1 1) rotate(0) translate(4 1058)">
<title>Ops</title>
<polygon fill="white" stroke="none" points="-4,4 -4,-1058 549.51,-1058 549.51,4 -4,4"/>
<!-- logs -->
<g id="node1" class="node">
<title>logs</title>
<polygon fill="#efefef" stroke="none" points="190.53,-975.2 190.53,-1010.8 359.02,-1010.8 359.02,-975.2 190.53,-975.2"/>
<polygon fill="none" stroke="black" points="190.53,-975.2 190.53,-1010.8 359.02,-1010.8 359.02,-975.2 190.53,-975.2"/>
<text text-anchor="start" x="197.53" y="-988.6" font-family="Arial Bold" font-size="18.00">logs</text>
<text text-anchor="start" x="227.53" y="-988.6" font-family="Arial" font-size="14.00">    </text>
<text text-anchor="start" x="258.65" y="-988.6" font-family="Arial" font-size="14.00" fill="#666666">[BASE TABLE]</text>
<polygon fill="none" stroke="black" points="190.53,-944.4 190.53,-975.2 359.02,-975.2 359.02,-944.4 190.53,-944.4"/>
<text text-anchor="start" x="197.53" y="-956.6" font-family="Arial" font-size="14.00">id </text>
<text text-anchor="start" x="212.32" y="-956.6" font-family="Arial" font-size="14.00" fill="#666666">[bigint]</text>
<polygon fill="none" stroke="black" points="190.53,-913.6 190.53,-944.4 359.02,-944.4 359.02,-913.6 190.53,-913.6"/>
<text text-anchor="start" x="197.53" y="-925.8" font-family="Arial" font-size="14.00">user_id </text>
<text text-anchor="start" x="247.34" y="-925.8" font-family="Arial" font-size="14.00" fill="#666666">[int]</text>
<polygon fill="none" stroke="black" points="190.53,-882.8 190.53,-913.6 359.02,-913.6 359.02,-882.8 190.53,-882.8"/>
<text text-anchor="start" x="197.53" y="-895" font-family="Arial" font-size="14.00">post_id </text>
<text text-anchor="start" x="246.56" y="-895" font-family="Arial" font-size="14.00" fill="#666666">[bigint]</text>
<polygon fill="none" stroke="black" points="190.53,-852 190.53,-882.8 359.02,-882.8 359.02,-852 190.53,-852"/>
<text text-anchor="start" x="197.53" y="-864.2" font-family="Arial" font-size="14.00">comment_id </text>
<text text-anchor="start" x="277.67" y="-864.2" font-family="Arial" font-size="14.00" fill="#666666">[bigint]</text>
<polygon fill="none" stroke="black" points="190.53,-821.2 190.53,-852 359.02,-852 359.02,-821.2 190.53,-821.2"/>
<text text-anchor="start" x="197.53" y="-833.4" font-family="Arial" font-size="14.00">comment_star_id </text>
<text text-anchor="start" x="308.8" y="-833.4" font-family="Arial" font-size="14.00" fill="#666666">[bigint]</text>
<polygon fill="none" stroke="black" points="190.53,-790.4 190.53,-821.2 359.02,-821.2 359.02,-790.4 190.53,-790.4"/>
<text text-anchor="start" x="197.53" y="-802.6" font-family="Arial" font-size="14.00">payload </text>
<text text-anchor="start" x="250.46" y="-802.6" font-family="Arial" font-size="14.00" fill="#666666">[text]</text>
<polygon fill="none" stroke="black" points="190.53,-759.6 190.53,-790.4 359.02,-790.4 359.02,-759.6 190.53,-759.6"/>
<text text-anchor="start" x="197.53" y="-771.8" font-family="Arial" font-size="14.00">created </text>
<text text-anchor="start" x="248.12" y="-771.8" font-family="Arial" font-size="14.00" fill="#666666">[datetime]</text>
</g>
<!-- posts -->
<g id="node2" class="node">
<title>posts</title>
<polygon fill="#efefef" stroke="none" points="43.2,-601.6 43.2,-637.2 304.35,-637.2 304.35,-601.6 43.2,-601.6"/>
<polygon fill="none" stroke="black" points="43.2,-601.6 43.2,-637.2 304.35,-637.2 304.35,-601.6 43.2,-601.6"/>
<text text-anchor="start" x="93.03" y="-615" font-family="Arial Bold" font-size="18.00">posts</text>
<text text-anchor="start" x="130.04" y="-615" font-family="Arial" font-size="14.00">    </text>
<text text-anchor="start" x="161.15" y="-615" font-family="Arial" font-size="14.00" fill="#666666">[BASE TABLE]</text>
<polygon fill="none" stroke="black" points="43.2,-570.8 43.2,-601.6 304.35,-601.6 304.35,-570.8 43.2,-570.8"/>
<text text-anchor="start" x="50.2" y="-583" font-family="Arial" font-size="14.00">id </text>
<text text-anchor="start" x="64.99" y="-583" font-family="Arial" font-size="14.00" fill="#666666">[bigint]</text>
<polygon fill="none" stroke="black" points="43.2,-540 43.2,-570.8 304.35,-570.8 304.35,-540 43.2,-540"/>
<text text-anchor="start" x="50.2" y="-552.2" font-family="Arial" font-size="14.00">user_id </text>
<text text-anchor="start" x="100.01" y="-552.2" font-family="Arial" font-size="14.00" fill="#666666">[int]</text>
<polygon fill="none" stroke="black" points="43.2,-509.2 43.2,-540 304.35,-540 304.35,-509.2 43.2,-509.2"/>
<text text-anchor="start" x="50.2" y="-521.4" font-family="Arial" font-size="14.00">title </text>
<text text-anchor="start" x="75.88" y="-521.4" font-family="Arial" font-size="14.00" fill="#666666">[varchar(255)]</text>
<polygon fill="none" stroke="black" points="43.2,-478.4 43.2,-509.2 304.35,-509.2 304.35,-478.4 43.2,-478.4"/>
<text text-anchor="start" x="50.2" y="-490.6" font-family="Arial" font-size="14.00">body </text>
<text text-anchor="start" x="84.45" y="-490.6" font-family="Arial" font-size="14.00" fill="#666666">[text]</text>
<polygon fill="none" stroke="black" points="43.2,-447.6 43.2,-478.4 304.35,-478.4 304.35,-447.6 43.2,-447.6"/>
<text text-anchor="start" x="50.2" y="-459.8" font-family="Arial" font-size="14.00">post_type </text>
<text text-anchor="start" x="114.8" y="-459.8" font-family="Arial" font-size="14.00" fill="#666666">[enum(&#39;public&#39;,&#39;private&#39;,&#39;draft&#39;)]</text>
<polygon fill="none" stroke="black" points="43.2,-416.8 43.2,-447.6 304.35,-447.6 304.35,-416.8 43.2,-416.8"/>
<text text-anchor="start" x="50.2" y="-429" font-family="Arial" font-size="14.00">created </text>
<text text-anchor="start" x="100.79" y="-429" font-family="Arial" font-size="14.00" fill="#666666">[datetime]</text>
<polygon fill="none" stroke="black" points="43.2,-386 43.2,-416.8 304.35,-416.8 304.35,-386 43.2,-386"/>
<text text-anchor="start" x="50.2" y="-398.2" font-family="Arial" font-size="14.00">updated </text>
<text text-anchor="start" x="104.7" y="-398.2" font-family="Arial" font-size="14.00" fill="#666666">[datetime]</text>
</g>
<!-- logs&#45;&gt;posts -->
<g id="edge3" class="edge">
<title>logs:post_id&#45;&gt;posts:id</title>
<path fill="none" stroke="black" stroke-dasharray="5,2" d="M179.32,-897.51C111.8,-887.82 144.75,-778.53 190.53,-716.4 222,-673.68 272.77,-723.04 304.35,-680.4 329.27,-646.76 347.22,-586.2 305.35,-586.2"/>
<polygon fill="black" stroke="black" points="179.22,-897.5 188.89,-902.67 184.54,-897.86 188.86,-898.15 188.86,-898.15 188.86,-898.15 184.54,-897.86 189.5,-893.69 179.22,-897.5"/>
<text text-anchor="start" x="99.14" y="-908.2" font-family="Arial" font-size="10.00">Additional Relation</text>
</g>
<!-- users -->
<g id="node3" class="node">
<title>users</title>
<polygon fill="#efefef" stroke="none" points="187.04,-228 187.04,-263.6 362.52,-263.6 362.52,-228 187.04,-228"/>
<polygon fill="none" stroke="black" points="187.04,-228 187.04,-263.6 362.52,-263.6 362.52,-228 187.04,-228"/>
<text text-anchor="start" x="194.04" y="-241.4" font-family="Arial Bold" font-size="18.00">users</text>
<text text-anchor="start" x="231.03" y="-241.4" font-family="Arial" font-size="14.00">    </text>
<text text-anchor="start" x="262.15" y="-241.4" font-family="Arial" font-size="14.00" fill="#666666">[BASE TABLE]</text>
<polygon fill="none" stroke="black" points="187.04,-197.2 187.04,-228 362.52,-228 362.52,-197.2 187.04,-197.2"/>
<text text-anchor="start" x="194.04" y="-209.4" font-family="Arial" font-size="14.00">id </text>
<text text-anchor="start" x="208.82" y="-209.4" font-family="Arial" font-size="14.00" fill="#666666">[int]</text>
<polygon fill="none" stroke="black" points="187.04,-166.4 187.04,-197.2 362.52,-197.2 362.52,-166.4 187.04,-166.4"/>
<text text-anchor="start" x="194.04" y="-178.6" font-family="Arial" font-size="14.00">username </text>
<text text-anchor="start" x="260.18" y="-178.6" font-family="Arial" font-size="14.00" fill="#666666">[varchar(50)]</text>
<polygon fill="none" stroke="black" points="187.04,-135.6 187.04,-166.4 362.52,-166.4 362.52,-135.6 187.04,-135.6"/>
<text text-anchor="start" x="194.04" y="-147.8" font-family="Arial" font-size="14.00">password </text>
<text text-anchor="start" x="257.84" y="-147.8" font-family="Arial" font-size="14.00" fill="#666666">[varchar(50)]</text>
<polygon fill="none" stroke="black" points="187.04,-104.8 187.04,-135.6 362.52,-135.6 362.52,-104.8 187.04,-104.8"/>
<text text-anchor="start" x="194.04" y="-117" font-family="Arial" font-size="14.00">email </text>
<text text-anchor="start" x="231.38" y="-117" font-family="Arial" font-size="14.00" fill="#666666">[varchar(355)]</text>
<polygon fill="none" stroke="black" points="187.04,-74 187.04,-104.8 362.52,-104.8 362.52,-74 187.04,-74"/>
<text text-anchor="start" x="194.04" y="-86.2" font-family="Arial" font-size="14.00">created </text>
<text text-anchor="start" x="244.62" y="-86.2" font-family="Arial" font-size="14.00" fill="#666666">[timestamp]</text>
<polygon fill="none" stroke="black" points="187.04,-43.2 187.04,-74 362.52,-74 362.52,-43.2 187.04,-43.2"/>
<text text-anchor="start" x="194.04" y="-55.4" font-family="Arial" font-size="14.00">updated </text>
<text text-anchor="start" x="248.53" y="-55.4" font-family="Arial" font-size="14.00" fill="#666666">[timestamp]</text>
</g>
<!-- logs&#45;&gt;users -->
<g id="edge2" class="edge">
<title>logs:user_id&#45;&gt;users:id</title>
<path fill="none" stroke="black" stroke-dasharray="5,2" d="M369.43,-925.48C439.77,-871.44 439.85,-212.6 363.52,-212.6"/>
<polygon fill="black" stroke="black" points="369.7,-925.38 358.76,-924.67 364.71,-927.25 360.65,-928.77 360.65,-928.77 360.65,-928.77 364.71,-927.25 361.91,-933.1 369.7,-925.38"/>
<text text-anchor="start" x="367.02" y="-939" font-family="Arial" font-size="10.00">logs&#45;&gt;users</text>
</g>
<!-- posts&#45;&gt;users -->
<g id="edge1" class="edge">
<title>posts:user_id&#45;&gt;users:id</title>
<path fill="none" stroke="black" d="M315.22,-552.35C349.41,-528.94 330.32,-377.76 304.35,-342.8 271.83,-299.02 219.69,-350.49 187.04,-306.8 161.97,-273.26 144.17,-212.6 186.04,-212.6"/>
<polygon fill="black" stroke="black" points="315.23,-552.35 304.34,-551 310.13,-553.92 305.99,-555.2 305.99,-555.2 305.99,-555.2 310.13,-553.92 307,-559.6 315.23,-552.35"/>
<text text-anchor="start" x="312.35" y="-565.4" font-family="Arial" font-size="10.00">FOREIGN KEY (user_id) REFERENCES users (id)</text>
</g>
</g>
</svg>
