<?xml version="1.0" encoding="UTF-8" standalone="no"?>
<!DOCTYPE svg PUBLIC "-//W3C//DTD SVG 1.1//EN"
 "http://www.w3.org/Graphics/SVG/1.1/DTD/svg11.dtd">
<!-- Generated by graphviz version 12.1.2 (20240928.0832)
 -->
<!-- Title: Around the users table Pages: 1 -->
<svg width="1166pt" height="1783pt"
 viewBox="0.00 0.00 1165.99 1783.20" xmlns="http://www.w3.org/2000/svg" xmlns:xlink="http://www.w3.org/1999/xlink">
<g id="graph0" class="graph" transform="scale(1 1) rotate(0) translate(4 1779.2)">
<title>Around the users table</title>
<polygon fill="white" stroke="none" points="-4,4 -4,-1779.2 1161.99,-1779.2 1161.99,4 -4,4"/>
<g id="clust1" class="cluster">
<title>cluster_group_0</title>
<path fill="none" stroke="#1f91be" stroke-width="2" d="M377.55,-334.8C377.55,-334.8 743.55,-334.8 743.55,-334.8 749.55,-334.8 755.55,-340.8 755.55,-346.8 755.55,-346.8 755.55,-1417.6 755.55,-1417.6 755.55,-1423.6 749.55,-1429.6 743.55,-1429.6 743.55,-1429.6 377.55,-1429.6 377.55,-1429.6 371.55,-1429.6 365.55,-1423.6 365.55,-1417.6 365.55,-1417.6 365.55,-346.8 365.55,-346.8 365.55,-340.8 371.55,-334.8 377.55,-334.8"/>
<text text-anchor="middle" x="560.55" y="-1413" font-family="Arial" font-size="14.00">Content</text>
</g>
<!-- comment_stars -->
<g id="node1" class="node">
<title>comment_stars</title>
<polygon fill="#efefef" stroke="none" points="456.82,-1318 456.82,-1353.6 704.28,-1353.6 704.28,-1318 456.82,-1318"/>
<polygon fill="none" stroke="black" points="456.82,-1318 456.82,-1353.6 704.28,-1353.6 704.28,-1318 456.82,-1318"/>
<text text-anchor="start" x="463.82" y="-1331.4" font-family="Arial Bold" font-size="18.00">comment_stars</text>
<text text-anchor="start" x="572.79" y="-1331.4" font-family="Arial" font-size="14.00">    </text>
<text text-anchor="start" x="603.91" y="-1331.4" font-family="Arial" font-size="14.00" fill="#666666">[BASE TABLE]</text>
<polygon fill="none" stroke="black" points="456.82,-1287.2 456.82,-1318 704.28,-1318 704.28,-1287.2 456.82,-1287.2"/>
<text text-anchor="start" x="463.82" y="-1299.4" font-family="Arial" font-size="14.00">id    </text>
<text text-anchor="start" x="505.83" y="-1299.4" font-family="Arial" font-size="14.00" fill="#666666">[bigint]</text>
<polygon fill="none" stroke="black" points="456.82,-1256.4 456.82,-1287.2 704.28,-1287.2 704.28,-1256.4 456.82,-1256.4"/>
<text text-anchor="start" x="463.82" y="-1268.6" font-family="Arial" font-size="14.00">user_id    </text>
<text text-anchor="start" x="540.85" y="-1268.6" font-family="Arial" font-size="14.00" fill="#666666">[int]</text>
<polygon fill="none" stroke="black" points="456.82,-1225.6 456.82,-1256.4 704.28,-1256.4 704.28,-1225.6 456.82,-1225.6"/>
<text text-anchor="start" x="463.82" y="-1237.8" font-family="Arial" font-size="14.00">comment_post_id    </text>
<text text-anchor="start" x="605.44" y="-1237.8" font-family="Arial" font-size="14.00" fill="#666666">[bigint]</text>
<polygon fill="none" stroke="black" points="456.82,-1194.8 456.82,-1225.6 704.28,-1225.6 704.28,-1194.8 456.82,-1194.8"/>
<text text-anchor="start" x="463.82" y="-1207" font-family="Arial" font-size="14.00">comment_user_id    </text>
<text text-anchor="start" x="606.21" y="-1207" font-family="Arial" font-size="14.00" fill="#666666">[int]</text>
<polygon fill="none" stroke="black" points="456.82,-1164 456.82,-1194.8 704.28,-1194.8 704.28,-1164 456.82,-1164"/>
<text text-anchor="start" x="463.82" y="-1176.2" font-family="Arial" font-size="14.00">created    </text>
<text text-anchor="start" x="541.63" y="-1176.2" font-family="Arial" font-size="14.00" fill="#666666">[timestamp]</text>
<polygon fill="none" stroke="black" points="456.82,-1133.2 456.82,-1164 704.28,-1164 704.28,-1133.2 456.82,-1133.2"/>
<text text-anchor="start" x="463.82" y="-1145.4" font-family="Arial" font-size="14.00">updated    </text>
<text text-anchor="start" x="545.54" y="-1145.4" font-family="Arial" font-size="14.00" fill="#666666">[timestamp]</text>
</g>
<!-- comments -->
<g id="node2" class="node">
<title>comments</title>
<polygon fill="#efefef" stroke="none" points="464.31,-975.2 464.31,-1010.8 676.79,-1010.8 676.79,-975.2 464.31,-975.2"/>
<polygon fill="none" stroke="black" points="464.31,-975.2 464.31,-1010.8 676.79,-1010.8 676.79,-975.2 464.31,-975.2"/>
<text text-anchor="start" x="471.31" y="-988.6" font-family="Arial Bold" font-size="18.00">comments</text>
<text text-anchor="start" x="545.3" y="-988.6" font-family="Arial" font-size="14.00">    </text>
<text text-anchor="start" x="576.41" y="-988.6" font-family="Arial" font-size="14.00" fill="#666666">[BASE TABLE]</text>
<polygon fill="none" stroke="black" points="464.31,-944.4 464.31,-975.2 676.79,-975.2 676.79,-944.4 464.31,-944.4"/>
<text text-anchor="start" x="471.31" y="-956.6" font-family="Arial" font-size="14.00">id    </text>
<text text-anchor="start" x="513.32" y="-956.6" font-family="Arial" font-size="14.00" fill="#666666">[bigint]</text>
<polygon fill="none" stroke="black" points="464.31,-913.6 464.31,-944.4 676.79,-944.4 676.79,-913.6 464.31,-913.6"/>
<text text-anchor="start" x="471.31" y="-925.8" font-family="Arial" font-size="14.00">post_id    </text>
<text text-anchor="start" x="547.57" y="-925.8" font-family="Arial" font-size="14.00" fill="#666666">[bigint]</text>
<polygon fill="none" stroke="black" points="464.31,-882.8 464.31,-913.6 676.79,-913.6 676.79,-882.8 464.31,-882.8"/>
<text text-anchor="start" x="471.31" y="-895" font-family="Arial" font-size="14.00">user_id    </text>
<text text-anchor="start" x="548.35" y="-895" font-family="Arial" font-size="14.00" fill="#666666">[int]</text>
<polygon fill="none" stroke="black" points="464.31,-852 464.31,-882.8 676.79,-882.8 676.79,-852 464.31,-852"/>
<text text-anchor="start" x="471.31" y="-864.2" font-family="Arial" font-size="14.00">comment    </text>
<text text-anchor="start" x="560" y="-864.2" font-family="Arial" font-size="14.00" fill="#666666">[text]</text>
<polygon fill="none" stroke="black" points="464.31,-821.2 464.31,-852 676.79,-852 676.79,-821.2 464.31,-821.2"/>
<text text-anchor="start" x="471.31" y="-833.4" font-family="Arial" font-size="14.00">post_id_desc    </text>
<text text-anchor="start" x="584.93" y="-833.4" font-family="Arial" font-size="14.00" fill="#666666">[bigint]</text>
<polygon fill="none" stroke="black" points="464.31,-790.4 464.31,-821.2 676.79,-821.2 676.79,-790.4 464.31,-790.4"/>
<text text-anchor="start" x="471.31" y="-802.6" font-family="Arial" font-size="14.00">created    </text>
<text text-anchor="start" x="549.12" y="-802.6" font-family="Arial" font-size="14.00" fill="#666666">[datetime]</text>
<polygon fill="none" stroke="black" points="464.31,-759.6 464.31,-790.4 676.79,-790.4 676.79,-759.6 464.31,-759.6"/>
<text text-anchor="start" x="471.31" y="-771.8" font-family="Arial" font-size="14.00">updated    </text>
<text text-anchor="start" x="553.03" y="-771.8" font-family="Arial" font-size="14.00" fill="#666666">[datetime]</text>
</g>
<!-- comment_stars&#45;&gt;comments -->
<g id="edge2" class="edge">
<title>comment_stars:comment_post_id&#45;&gt;comments:post_id</title>
<path fill="none" stroke="black" d="M445.62,-1240.13C391.44,-1230.21 415.58,-1138.21 456.82,-1090 521.21,-1014.72 612.34,-1129.24 676.79,-1054 712.93,-1011.81 733.34,-929 677.79,-929"/>
<polygon fill="black" stroke="black" points="445.52,-1240.12 455.1,-1245.46 450.83,-1240.57 455.15,-1240.94 455.15,-1240.94 455.15,-1240.94 450.83,-1240.57 455.87,-1236.49 445.52,-1240.12"/>
<text text-anchor="start" x="7" y="-1251" font-family="Arial" font-size="10.00">FOREIGN KEY (comment_post_id, comment_user_id) REFERENCES comments (post_id, user_id)</text>
</g>
<!-- users -->
<g id="node6" class="node">
<title>users</title>
<polygon fill="#efefef" stroke="none" points="682.18,-228 682.18,-263.6 868.91,-263.6 868.91,-228 682.18,-228"/>
<polygon fill="none" stroke="black" points="682.18,-228 682.18,-263.6 868.91,-263.6 868.91,-228 682.18,-228"/>
<text text-anchor="start" x="694.81" y="-241.4" font-family="Arial Bold" font-size="18.00">users</text>
<text text-anchor="start" x="731.8" y="-241.4" font-family="Arial" font-size="14.00">    </text>
<text text-anchor="start" x="762.92" y="-241.4" font-family="Arial" font-size="14.00" fill="#666666">[BASE TABLE]</text>
<polygon fill="none" stroke="black" points="682.18,-197.2 682.18,-228 868.91,-228 868.91,-197.2 682.18,-197.2"/>
<text text-anchor="start" x="689.18" y="-209.4" font-family="Arial" font-size="14.00">id    </text>
<text text-anchor="start" x="731.2" y="-209.4" font-family="Arial" font-size="14.00" fill="#666666">[int]</text>
<polygon fill="none" stroke="black" points="682.18,-166.4 682.18,-197.2 868.91,-197.2 868.91,-166.4 682.18,-166.4"/>
<text text-anchor="start" x="689.18" y="-178.6" font-family="Arial" font-size="14.00">username    </text>
<text text-anchor="start" x="782.56" y="-178.6" font-family="Arial" font-size="14.00" fill="#666666">[varchar(50)]</text>
<polygon fill="none" stroke="black" points="682.18,-135.6 682.18,-166.4 868.91,-166.4 868.91,-135.6 682.18,-135.6"/>
<text text-anchor="start" x="689.18" y="-147.8" font-family="Arial" font-size="14.00">password    </text>
<text text-anchor="start" x="780.22" y="-147.8" font-family="Arial" font-size="14.00" fill="#666666">[varchar(50)]</text>
<polygon fill="none" stroke="black" points="682.18,-104.8 682.18,-135.6 868.91,-135.6 868.91,-104.8 682.18,-104.8"/>
<text text-anchor="start" x="689.18" y="-117" font-family="Arial" font-size="14.00">email    </text>
<text text-anchor="start" x="753.76" y="-117" font-family="Arial" font-size="14.00" fill="#666666">[varchar(355)]</text>
<polygon fill="none" stroke="black" points="682.18,-74 682.18,-104.8 868.91,-104.8 868.91,-74 682.18,-74"/>
<text text-anchor="start" x="689.18" y="-86.2" font-family="Arial" font-size="14.00">created    </text>
<text text-anchor="start" x="767" y="-86.2" font-family="Arial" font-size="14.00" fill="#666666">[timestamp]</text>
<polygon fill="none" stroke="black" points="682.18,-43.2 682.18,-74 868.91,-74 868.91,-43.2 682.18,-43.2"/>
<text text-anchor="start" x="689.18" y="-55.4" font-family="Arial" font-size="14.00">updated    </text>
<text text-anchor="start" x="770.91" y="-55.4" font-family="Arial" font-size="14.00" fill="#666666">[timestamp]</text>
</g>
<!-- comment_stars&#45;&gt;users -->
<g id="edge1" class="edge">
<title>comment_stars:comment_user_id&#45;&gt;users:id</title>
<path fill="none" stroke="black" d="M715.58,-1209.52C895.94,-1184.93 737.49,-502.8 832.55,-334.8 842.59,-317.05 859.81,-325.05 868.91,-306.8 887.6,-269.33 911.78,-212.6 869.91,-212.6"/>
<polygon fill="black" stroke="black" points="715.59,-1209.52 705.32,-1205.69 710.27,-1209.87 705.95,-1210.16 705.95,-1210.16 705.95,-1210.16 710.27,-1209.87 705.91,-1214.67 715.59,-1209.52"/>
<text text-anchor="start" x="712.28" y="-1220.2" font-family="Arial" font-size="10.00">FOREIGN KEY (comment_user_id) REFERENCES users (id)</text>
</g>
<!-- posts -->
<g id="node3" class="node">
<title>posts</title>
<polygon fill="#efefef" stroke="none" points="416.36,-601.6 416.36,-637.2 704.74,-637.2 704.74,-601.6 416.36,-601.6"/>
<polygon fill="none" stroke="black" points="416.36,-601.6 416.36,-637.2 704.74,-637.2 704.74,-601.6 416.36,-601.6"/>
<text text-anchor="start" x="479.8" y="-615" font-family="Arial Bold" font-size="18.00">posts</text>
<text text-anchor="start" x="516.81" y="-615" font-family="Arial" font-size="14.00">    </text>
<text text-anchor="start" x="547.93" y="-615" font-family="Arial" font-size="14.00" fill="#666666">[BASE TABLE]</text>
<polygon fill="none" stroke="black" points="416.36,-570.8 416.36,-601.6 704.74,-601.6 704.74,-570.8 416.36,-570.8"/>
<text text-anchor="start" x="423.36" y="-583" font-family="Arial" font-size="14.00">id    </text>
<text text-anchor="start" x="465.37" y="-583" font-family="Arial" font-size="14.00" fill="#666666">[bigint]</text>
<polygon fill="none" stroke="black" points="416.36,-540 416.36,-570.8 704.74,-570.8 704.74,-540 416.36,-540"/>
<text text-anchor="start" x="423.36" y="-552.2" font-family="Arial" font-size="14.00">user_id    </text>
<text text-anchor="start" x="500.39" y="-552.2" font-family="Arial" font-size="14.00" fill="#666666">[int]</text>
<polygon fill="none" stroke="black" points="416.36,-509.2 416.36,-540 704.74,-540 704.74,-509.2 416.36,-509.2"/>
<text text-anchor="start" x="423.36" y="-521.4" font-family="Arial" font-size="14.00">title    </text>
<text text-anchor="start" x="476.26" y="-521.4" font-family="Arial" font-size="14.00" fill="#666666">[varchar(255)]</text>
<polygon fill="none" stroke="black" points="416.36,-478.4 416.36,-509.2 704.74,-509.2 704.74,-478.4 416.36,-478.4"/>
<text text-anchor="start" x="423.36" y="-490.6" font-family="Arial" font-size="14.00">body    </text>
<text text-anchor="start" x="484.83" y="-490.6" font-family="Arial" font-size="14.00" fill="#666666">[text]</text>
<polygon fill="none" stroke="black" points="416.36,-447.6 416.36,-478.4 704.74,-478.4 704.74,-447.6 416.36,-447.6"/>
<text text-anchor="start" x="423.36" y="-459.8" font-family="Arial" font-size="14.00">post_type    </text>
<text text-anchor="start" x="515.19" y="-459.8" font-family="Arial" font-size="14.00" fill="#666666">[enum(&#39;public&#39;,&#39;private&#39;,&#39;draft&#39;)]</text>
<polygon fill="none" stroke="black" points="416.36,-416.8 416.36,-447.6 704.74,-447.6 704.74,-416.8 416.36,-416.8"/>
<text text-anchor="start" x="423.36" y="-429" font-family="Arial" font-size="14.00">created    </text>
<text text-anchor="start" x="501.17" y="-429" font-family="Arial" font-size="14.00" fill="#666666">[datetime]</text>
<polygon fill="none" stroke="black" points="416.36,-386 416.36,-416.8 704.74,-416.8 704.74,-386 416.36,-386"/>
<text text-anchor="start" x="423.36" y="-398.2" font-family="Arial" font-size="14.00">updated    </text>
<text text-anchor="start" x="505.08" y="-398.2" font-family="Arial" font-size="14.00" fill="#666666">[datetime]</text>
</g>
<!-- comments&#45;&gt;posts -->
<g id="edge3" class="edge">
<title>comments:post_id&#45;&gt;posts:id</title>
<path fill="none" stroke="black" d="M453.07,-928.4C371.43,-918.35 404.83,-785.12 464.31,-716.4 535.02,-634.7 633.79,-761.89 704.74,-680.4 732.23,-648.82 747.61,-586.2 705.74,-586.2"/>
<polygon fill="black" stroke="black" points="452.99,-928.39 462.71,-933.47 458.32,-928.71 462.64,-928.96 462.64,-928.96 462.64,-928.96 458.32,-928.71 463.24,-924.49 452.99,-928.39"/>
<text text-anchor="start" x="231.26" y="-939" font-family="Arial" font-size="10.00">FOREIGN KEY (post_id) REFERENCES posts (id)</text>
</g>
<!-- comments&#45;&gt;users -->
<g id="edge4" class="edge">
<title>comments:user_id&#45;&gt;users:id</title>
<path fill="none" stroke="black" d="M688.09,-897.77C777.42,-889.95 733.39,-776.98 756.55,-680.4 774.6,-605.14 752.38,-396.15 799.55,-334.8 819.81,-308.44 850.17,-334.26 868.91,-306.8 892.52,-272.22 911.78,-212.6 869.91,-212.6"/>
<polygon fill="black" stroke="black" points="688.11,-897.77 677.93,-893.69 682.78,-897.99 678.46,-898.17 678.46,-898.17 678.46,-898.17 682.78,-897.99 678.31,-902.68 688.11,-897.77"/>
<text text-anchor="start" x="684.79" y="-908.2" font-family="Arial" font-size="10.00">FOREIGN KEY (user_id) REFERENCES users (id)</text>
</g>
<!-- posts&#45;&gt;users -->
<g id="edge5" class="edge">
<title>posts:user_id&#45;&gt;users:id</title>
<path fill="none" stroke="black" d="M716.08,-554.85C794.89,-545.93 730.02,-430.01 704.74,-342.8 699.48,-324.67 687.5,-324.92 682.18,-306.8 670.41,-266.62 639.31,-212.6 681.18,-212.6"/>
<polygon fill="black" stroke="black" points="716.06,-554.85 705.83,-550.89 710.73,-555.13 706.41,-555.36 706.41,-555.36 706.41,-555.36 710.73,-555.13 706.31,-559.88 716.06,-554.85"/>
<text text-anchor="start" x="652.7" y="-539.4" font-family="Arial" font-size="10.00">FOREIGN KEY (user_id) REFERENCES users (id)</text>
</g>
<!-- logs -->
<g id="node4" class="node">
<title>logs</title>
<polygon fill="#efefef" stroke="none" points="269.68,-1696.4 269.68,-1732 463.42,-1732 463.42,-1696.4 269.68,-1696.4"/>
<polygon fill="none" stroke="black" points="269.68,-1696.4 269.68,-1732 463.42,-1732 463.42,-1696.4 269.68,-1696.4"/>
<text text-anchor="start" x="289.3" y="-1709.8" font-family="Arial Bold" font-size="18.00">logs</text>
<text text-anchor="start" x="319.31" y="-1709.8" font-family="Arial" font-size="14.00">    </text>
<text text-anchor="start" x="350.42" y="-1709.8" font-family="Arial" font-size="14.00" fill="#666666">[BASE TABLE]</text>
<polygon fill="none" stroke="black" points="269.68,-1665.6 269.68,-1696.4 463.42,-1696.4 463.42,-1665.6 269.68,-1665.6"/>
<text text-anchor="start" x="276.68" y="-1677.8" font-family="Arial" font-size="14.00">id    </text>
<text text-anchor="start" x="318.69" y="-1677.8" font-family="Arial" font-size="14.00" fill="#666666">[bigint]</text>
<polygon fill="none" stroke="black" points="269.68,-1634.8 269.68,-1665.6 463.42,-1665.6 463.42,-1634.8 269.68,-1634.8"/>
<text text-anchor="start" x="276.68" y="-1647" font-family="Arial" font-size="14.00">user_id    </text>
<text text-anchor="start" x="353.71" y="-1647" font-family="Arial" font-size="14.00" fill="#666666">[int]</text>
<polygon fill="none" stroke="black" points="269.68,-1604 269.68,-1634.8 463.42,-1634.8 463.42,-1604 269.68,-1604"/>
<text text-anchor="start" x="276.68" y="-1616.2" font-family="Arial" font-size="14.00">post_id    </text>
<text text-anchor="start" x="352.94" y="-1616.2" font-family="Arial" font-size="14.00" fill="#666666">[bigint]</text>
<polygon fill="none" stroke="black" points="269.68,-1573.2 269.68,-1604 463.42,-1604 463.42,-1573.2 269.68,-1573.2"/>
<text text-anchor="start" x="276.68" y="-1585.4" font-family="Arial" font-size="14.00">comment_id    </text>
<text text-anchor="start" x="384.05" y="-1585.4" font-family="Arial" font-size="14.00" fill="#666666">[bigint]</text>
<polygon fill="none" stroke="black" points="269.68,-1542.4 269.68,-1573.2 463.42,-1573.2 463.42,-1542.4 269.68,-1542.4"/>
<text text-anchor="start" x="276.68" y="-1554.6" font-family="Arial" font-size="14.00">comment_star_id    </text>
<text text-anchor="start" x="415.17" y="-1554.6" font-family="Arial" font-size="14.00" fill="#666666">[bigint]</text>
<polygon fill="none" stroke="black" points="269.68,-1511.6 269.68,-1542.4 463.42,-1542.4 463.42,-1511.6 269.68,-1511.6"/>
<text text-anchor="start" x="276.68" y="-1523.8" font-family="Arial" font-size="14.00">payload    </text>
<text text-anchor="start" x="356.83" y="-1523.8" font-family="Arial" font-size="14.00" fill="#666666">[text]</text>
<polygon fill="none" stroke="black" points="269.68,-1480.8 269.68,-1511.6 463.42,-1511.6 463.42,-1480.8 269.68,-1480.8"/>
<text text-anchor="start" x="276.68" y="-1493" font-family="Arial" font-size="14.00">created    </text>
<text text-anchor="start" x="354.49" y="-1493" font-family="Arial" font-size="14.00" fill="#666666">[datetime]</text>
</g>
<!-- logs&#45;&gt;comment_stars -->
<g id="edge10" class="edge">
<title>logs:comment_star_id&#45;&gt;comment_stars:id</title>
<path fill="none" stroke="black" stroke-dasharray="5,2" d="M474.6,-1556.97C562.65,-1541.13 346.1,-1302.6 455.82,-1302.6"/>
<polygon fill="black" stroke="black" points="474.72,-1556.96 464.39,-1553.29 469.4,-1557.4 465.09,-1557.75 465.09,-1557.75 465.09,-1557.75 469.4,-1557.4 465.12,-1562.26 474.72,-1556.96"/>
<text text-anchor="start" x="471.42" y="-1567.8" font-family="Arial" font-size="10.00">Additional Relation</text>
</g>
<!-- logs&#45;&gt;comments -->
<g id="edge9" class="edge">
<title>logs:comment_id&#45;&gt;comments:id</title>
<path fill="none" stroke="black" stroke-dasharray="5,2" d="M474.63,-1587.72C528.87,-1577.75 505.31,-1485.25 463.42,-1437.6 445.99,-1417.77 421.92,-1449.49 404.55,-1429.6 335.34,-1350.35 358.1,-959.8 463.31,-959.8"/>
<polygon fill="black" stroke="black" points="474.72,-1587.71 464.37,-1584.09 469.4,-1588.17 465.09,-1588.54 465.09,-1588.54 465.09,-1588.54 469.4,-1588.17 465.14,-1593.05 474.72,-1587.71"/>
<text text-anchor="start" x="471.42" y="-1598.6" font-family="Arial" font-size="10.00">Additional Relation</text>
</g>
<!-- logs&#45;&gt;posts -->
<g id="edge8" class="edge">
<title>logs:post_id&#45;&gt;posts:id</title>
<path fill="none" stroke="black" stroke-dasharray="5,2" d="M258.44,-1618.69C190.52,-1608.67 219.11,-1495.9 269.68,-1437.6 285.54,-1419.31 306.77,-1447.05 323.55,-1429.6 388.89,-1361.66 321.09,-586.2 415.36,-586.2"/>
<polygon fill="black" stroke="black" points="258.37,-1618.68 268.03,-1623.87 263.69,-1619.05 268.01,-1619.35 268.01,-1619.35 268.01,-1619.35 263.69,-1619.05 268.66,-1614.89 258.37,-1618.68"/>
<text text-anchor="start" x="178.29" y="-1629.4" font-family="Arial" font-size="10.00">Additional Relation</text>
</g>
<!-- logs&#45;&gt;users -->
<g id="edge7" class="edge">
<title>logs:user_id&#45;&gt;users:id</title>
<path fill="none" stroke="black" stroke-dasharray="5,2" d="M261.33,-1642.92C213.06,-1551.67 141.04,-628.28 361.55,-334.8 452.91,-213.21 529.1,-212.6 681.18,-212.6"/>
<polygon fill="black" stroke="black" points="261.33,-1642.93 265.27,-1653.16 265.12,-1646.68 268.2,-1649.73 268.2,-1649.73 268.2,-1649.73 265.12,-1646.68 271.61,-1646.77 261.33,-1642.93"/>
<text text-anchor="start" x="209.71" y="-1660.2" font-family="Arial" font-size="10.00">logs&#45;&gt;users</text>
</g>
<!-- user_options -->
<g id="node5" class="node">
<title>user_options</title>
<polygon fill="#efefef" stroke="none" points="884.31,-555.4 884.31,-591 1114.79,-591 1114.79,-555.4 884.31,-555.4"/>
<polygon fill="none" stroke="black" points="884.31,-555.4 884.31,-591 1114.79,-591 1114.79,-555.4 884.31,-555.4"/>
<text text-anchor="start" x="891.31" y="-568.8" font-family="Arial Bold" font-size="18.00">user_options</text>
<text text-anchor="start" x="983.3" y="-568.8" font-family="Arial" font-size="14.00">    </text>
<text text-anchor="start" x="1014.42" y="-568.8" font-family="Arial" font-size="14.00" fill="#666666">[BASE TABLE]</text>
<polygon fill="none" stroke="black" points="884.31,-524.6 884.31,-555.4 1114.79,-555.4 1114.79,-524.6 884.31,-524.6"/>
<text text-anchor="start" x="891.31" y="-536.8" font-family="Arial" font-size="14.00">user_id    </text>
<text text-anchor="start" x="968.34" y="-536.8" font-family="Arial" font-size="14.00" fill="#666666">[int]</text>
<polygon fill="none" stroke="black" points="884.31,-493.8 884.31,-524.6 1114.79,-524.6 1114.79,-493.8 884.31,-493.8"/>
<text text-anchor="start" x="891.31" y="-506" font-family="Arial" font-size="14.00">show_email    </text>
<text text-anchor="start" x="996.35" y="-506" font-family="Arial" font-size="14.00" fill="#666666">[tinyint(1)]</text>
<polygon fill="none" stroke="black" points="884.31,-463 884.31,-493.8 1114.79,-493.8 1114.79,-463 884.31,-463"/>
<text text-anchor="start" x="891.31" y="-475.2" font-family="Arial" font-size="14.00">created    </text>
<text text-anchor="start" x="969.12" y="-475.2" font-family="Arial" font-size="14.00" fill="#666666">[timestamp]</text>
<polygon fill="none" stroke="black" points="884.31,-432.2 884.31,-463 1114.79,-463 1114.79,-432.2 884.31,-432.2"/>
<text text-anchor="start" x="891.31" y="-444.4" font-family="Arial" font-size="14.00">updated    </text>
<text text-anchor="start" x="973.03" y="-444.4" font-family="Arial" font-size="14.00" fill="#666666">[timestamp]</text>
</g>
<!-- user_options&#45;&gt;users -->
<g id="edge6" class="edge">
<title>user_options:user_id&#45;&gt;users:id</title>
<path fill="none" stroke="black" d="M873.02,-539.38C751.51,-523.59 1011.85,-212.6 869.91,-212.6"/>
<polygon fill="black" stroke="black" points="872.99,-539.38 882.7,-544.47 878.32,-539.7 882.64,-539.96 882.64,-539.96 882.64,-539.96 878.32,-539.7 883.24,-535.49 872.99,-539.38"/>
<text text-anchor="start" x="890.31" y="-550" font-family="Arial" font-size="10.00">FOREIGN KEY (user_id) REFERENCES users (id)</text>
</g>
</g>
</svg>
