<?xml version="1.0" encoding="UTF-8" standalone="no"?>
<!DOCTYPE svg PUBLIC "-//W3C//DTD SVG 1.1//EN"
 "http://www.w3.org/Graphics/SVG/1.1/DTD/svg11.dtd">
<!-- Generated by graphviz version 2.40.1 (20161225.0304)
 -->
<!-- Title: testdb Pages: 1 -->
<svg width="585pt" height="1043pt"
 viewBox="0.00 0.00 584.50 1043.00" xmlns="http://www.w3.org/2000/svg" xmlns:xlink="http://www.w3.org/1999/xlink">
<g id="graph0" class="graph" transform="scale(1 1) rotate(0) translate(4 1039)">
<title>testdb</title>
<polygon fill="#ffffff" stroke="transparent" points="-4,4 -4,-1039 580.5,-1039 580.5,4 -4,4"/>
<!-- logs -->
<g id="node1" class="node">
<title>logs</title>
<polygon fill="#efefef" stroke="transparent" points="200.5,-956.5 200.5,-991.5 396.5,-991.5 396.5,-956.5 200.5,-956.5"/>
<polygon fill="none" stroke="#000000" points="200.5,-956.5 200.5,-991.5 396.5,-991.5 396.5,-956.5 200.5,-956.5"/>
<text text-anchor="start" x="218.2127" y="-969.3" font-family="Arial Bold" font-size="18.00" fill="#000000">logs</text>
<text text-anchor="start" x="251.2193" y="-969.3" font-family="Arial" font-size="14.00" fill="#000000">    </text>
<text text-anchor="start" x="285.4241" y="-969.3" font-family="Arial" font-size="14.00" fill="#666666">[BASE TABLE]</text>
<polygon fill="none" stroke="#000000" points="200.5,-926.5 200.5,-956.5 396.5,-956.5 396.5,-926.5 200.5,-926.5"/>
<text text-anchor="start" x="207.5" y="-937.9" font-family="Arial" font-size="14.00" fill="#000000">id    </text>
<text text-anchor="start" x="252.594" y="-937.9" font-family="Arial" font-size="14.00" fill="#666666">[bigint]</text>
<polygon fill="none" stroke="#000000" points="200.5,-896.5 200.5,-926.5 396.5,-926.5 396.5,-896.5 200.5,-896.5"/>
<text text-anchor="start" x="207.5" y="-907.9" font-family="Arial" font-size="14.00" fill="#000000">user_id    </text>
<text text-anchor="start" x="287.6024" y="-907.9" font-family="Arial" font-size="14.00" fill="#666666">[int]</text>
<polygon fill="none" stroke="#000000" points="200.5,-866.5 200.5,-896.5 396.5,-896.5 396.5,-866.5 200.5,-866.5"/>
<text text-anchor="start" x="207.5" y="-877.9" font-family="Arial" font-size="14.00" fill="#000000">post_id    </text>
<text text-anchor="start" x="286.8324" y="-877.9" font-family="Arial" font-size="14.00" fill="#666666">[bigint]</text>
<polygon fill="none" stroke="#000000" points="200.5,-836.5 200.5,-866.5 396.5,-866.5 396.5,-836.5 200.5,-836.5"/>
<text text-anchor="start" x="207.5" y="-847.9" font-family="Arial" font-size="14.00" fill="#000000">comment_id    </text>
<text text-anchor="start" x="317.9362" y="-847.9" font-family="Arial" font-size="14.00" fill="#666666">[bigint]</text>
<polygon fill="none" stroke="#000000" points="200.5,-806.5 200.5,-836.5 396.5,-836.5 396.5,-806.5 200.5,-806.5"/>
<text text-anchor="start" x="207.1073" y="-817.9" font-family="Arial" font-size="14.00" fill="#000000">comment_star_id    </text>
<text text-anchor="start" x="348.6599" y="-817.9" font-family="Arial" font-size="14.00" fill="#666666">[bigint]</text>
<polygon fill="none" stroke="#000000" points="200.5,-776.5 200.5,-806.5 396.5,-806.5 396.5,-776.5 200.5,-776.5"/>
<text text-anchor="start" x="207.5" y="-787.9" font-family="Arial" font-size="14.00" fill="#000000">payload    </text>
<text text-anchor="start" x="290.7244" y="-787.9" font-family="Arial" font-size="14.00" fill="#666666">[text]</text>
<polygon fill="none" stroke="#000000" points="200.5,-746.5 200.5,-776.5 396.5,-776.5 396.5,-746.5 200.5,-746.5"/>
<text text-anchor="start" x="207.5" y="-757.9" font-family="Arial" font-size="14.00" fill="#000000">created    </text>
<text text-anchor="start" x="288.3864" y="-757.9" font-family="Arial" font-size="14.00" fill="#666666">[datetime]</text>
</g>
<!-- posts -->
<g id="node2" class="node">
<title>posts</title>
<polygon fill="#efefef" stroke="transparent" points="43.5,-589.5 43.5,-624.5 336.5,-624.5 336.5,-589.5 43.5,-589.5"/>
<polygon fill="none" stroke="#000000" points="43.5,-589.5 43.5,-624.5 336.5,-624.5 336.5,-589.5 43.5,-589.5"/>
<text text-anchor="start" x="104.7087" y="-602.3" font-family="Arial Bold" font-size="18.00" fill="#000000">posts</text>
<text text-anchor="start" x="147.7233" y="-602.3" font-family="Arial" font-size="14.00" fill="#000000">    </text>
<text text-anchor="start" x="181.9281" y="-602.3" font-family="Arial" font-size="14.00" fill="#666666">[BASE TABLE]</text>
<polygon fill="none" stroke="#000000" points="43.5,-559.5 43.5,-589.5 336.5,-589.5 336.5,-559.5 43.5,-559.5"/>
<text text-anchor="start" x="50.5" y="-570.9" font-family="Arial" font-size="14.00" fill="#000000">id    </text>
<text text-anchor="start" x="95.594" y="-570.9" font-family="Arial" font-size="14.00" fill="#666666">[bigint]</text>
<polygon fill="none" stroke="#000000" points="43.5,-529.5 43.5,-559.5 336.5,-559.5 336.5,-529.5 43.5,-529.5"/>
<text text-anchor="start" x="50.5" y="-540.9" font-family="Arial" font-size="14.00" fill="#000000">user_id    </text>
<text text-anchor="start" x="130.6024" y="-540.9" font-family="Arial" font-size="14.00" fill="#666666">[int]</text>
<polygon fill="none" stroke="#000000" points="43.5,-499.5 43.5,-529.5 336.5,-529.5 336.5,-499.5 43.5,-499.5"/>
<text text-anchor="start" x="50.5" y="-510.9" font-family="Arial" font-size="14.00" fill="#000000">title    </text>
<text text-anchor="start" x="106.4818" y="-510.9" font-family="Arial" font-size="14.00" fill="#666666">[varchar(255)]</text>
<polygon fill="none" stroke="#000000" points="43.5,-469.5 43.5,-499.5 336.5,-499.5 336.5,-469.5 43.5,-469.5"/>
<text text-anchor="start" x="50.5" y="-480.9" font-family="Arial" font-size="14.00" fill="#000000">body    </text>
<text text-anchor="start" x="115.0526" y="-480.9" font-family="Arial" font-size="14.00" fill="#666666">[text]</text>
<polygon fill="none" stroke="#000000" points="43.5,-439.5 43.5,-469.5 336.5,-469.5 336.5,-439.5 43.5,-439.5"/>
<text text-anchor="start" x="50.0399" y="-450.9" font-family="Arial" font-size="14.00" fill="#000000">post_type    </text>
<text text-anchor="start" x="144.9389" y="-450.9" font-family="Arial" font-size="14.00" fill="#666666">[enum(&#39;public&#39;,&#39;private&#39;,&#39;draft&#39;)]</text>
<polygon fill="none" stroke="#000000" points="43.5,-409.5 43.5,-439.5 336.5,-439.5 336.5,-409.5 43.5,-409.5"/>
<text text-anchor="start" x="50.5" y="-420.9" font-family="Arial" font-size="14.00" fill="#000000">created    </text>
<text text-anchor="start" x="131.3864" y="-420.9" font-family="Arial" font-size="14.00" fill="#666666">[datetime]</text>
<polygon fill="none" stroke="#000000" points="43.5,-379.5 43.5,-409.5 336.5,-409.5 336.5,-379.5 43.5,-379.5"/>
<text text-anchor="start" x="50.5" y="-390.9" font-family="Arial" font-size="14.00" fill="#000000">updated    </text>
<text text-anchor="start" x="135.291" y="-390.9" font-family="Arial" font-size="14.00" fill="#666666">[datetime]</text>
</g>
<!-- logs&#45;&gt;posts -->
<g id="edge3" class="edge">
<title>logs:post_id&#45;&gt;posts:id</title>
<path fill="none" stroke="#000000" stroke-dasharray="5,2" d="M190.1196,-880.7593C124.5339,-870.8354 154.6364,-763.5836 200.5,-704 238.6386,-654.4523 298.3614,-717.5477 336.5,-668 361.8473,-635.0701 378.0556,-574.5 336.5,-574.5"/>
<polygon fill="#000000" stroke="#000000" points="190.5254,-880.7881 200.1797,-885.9886 195.5127,-881.1441 200.5,-881.5 200.5,-881.5 200.5,-881.5 195.5127,-881.1441 200.8203,-877.0114 190.5254,-880.7881 190.5254,-880.7881"/>
<text text-anchor="start" x="110.8245" y="-891.5" font-family="Arial" font-size="10.00" fill="#000000">Additional Relation</text>
</g>
<!-- users -->
<g id="node3" class="node">
<title>users</title>
<polygon fill="#efefef" stroke="transparent" points="203.5,-222.5 203.5,-257.5 392.5,-257.5 392.5,-222.5 203.5,-222.5"/>
<polygon fill="none" stroke="#000000" points="203.5,-222.5 203.5,-257.5 392.5,-257.5 392.5,-222.5 203.5,-222.5"/>
<text text-anchor="start" x="212.2137" y="-235.3" font-family="Arial Bold" font-size="18.00" fill="#000000">users</text>
<text text-anchor="start" x="256.2183" y="-235.3" font-family="Arial" font-size="14.00" fill="#000000">    </text>
<text text-anchor="start" x="290.4231" y="-235.3" font-family="Arial" font-size="14.00" fill="#666666">[BASE TABLE]</text>
<polygon fill="none" stroke="#000000" points="203.5,-192.5 203.5,-222.5 392.5,-222.5 392.5,-192.5 203.5,-192.5"/>
<text text-anchor="start" x="210.5" y="-203.9" font-family="Arial" font-size="14.00" fill="#000000">id    </text>
<text text-anchor="start" x="255.594" y="-203.9" font-family="Arial" font-size="14.00" fill="#666666">[int]</text>
<polygon fill="none" stroke="#000000" points="203.5,-162.5 203.5,-192.5 392.5,-192.5 392.5,-162.5 203.5,-162.5"/>
<text text-anchor="start" x="210.1122" y="-173.9" font-family="Arial" font-size="14.00" fill="#000000">username    </text>
<text text-anchor="start" x="306.5512" y="-173.9" font-family="Arial" font-size="14.00" fill="#666666">[varchar(50)]</text>
<polygon fill="none" stroke="#000000" points="203.5,-132.5 203.5,-162.5 392.5,-162.5 392.5,-132.5 203.5,-132.5"/>
<text text-anchor="start" x="210.5" y="-143.9" font-family="Arial" font-size="14.00" fill="#000000">password    </text>
<text text-anchor="start" x="304.6024" y="-143.9" font-family="Arial" font-size="14.00" fill="#666666">[varchar(50)]</text>
<polygon fill="none" stroke="#000000" points="203.5,-102.5 203.5,-132.5 392.5,-132.5 392.5,-102.5 203.5,-102.5"/>
<text text-anchor="start" x="210.5" y="-113.9" font-family="Arial" font-size="14.00" fill="#000000">email    </text>
<text text-anchor="start" x="278.1438" y="-113.9" font-family="Arial" font-size="14.00" fill="#666666">[varchar(355)]</text>
<polygon fill="none" stroke="#000000" points="203.5,-72.5 203.5,-102.5 392.5,-102.5 392.5,-72.5 203.5,-72.5"/>
<text text-anchor="start" x="210.5" y="-83.9" font-family="Arial" font-size="14.00" fill="#000000">created    </text>
<text text-anchor="start" x="291.3864" y="-83.9" font-family="Arial" font-size="14.00" fill="#666666">[timestamp]</text>
<polygon fill="none" stroke="#000000" points="203.5,-42.5 203.5,-72.5 392.5,-72.5 392.5,-42.5 203.5,-42.5"/>
<text text-anchor="start" x="210.5" y="-53.9" font-family="Arial" font-size="14.00" fill="#000000">updated    </text>
<text text-anchor="start" x="295.291" y="-53.9" font-family="Arial" font-size="14.00" fill="#666666">[timestamp]</text>
</g>
<!-- logs&#45;&gt;users -->
<g id="edge2" class="edge">
<title>logs:user_id&#45;&gt;users:id</title>
<path fill="none" stroke="#000000" stroke-dasharray="5,2" d="M406.1287,-907.7123C474.2427,-852.2998 467.3623,-207.5 392.5,-207.5"/>
<polygon fill="#000000" stroke="#000000" points="405.8059,-907.8392 394.8526,-907.3124 401.1529,-909.6696 396.5,-911.5 396.5,-911.5 396.5,-911.5 401.1529,-909.6696 398.1474,-915.6876 405.8059,-907.8392 405.8059,-907.8392"/>
<text text-anchor="start" x="403.524" y="-921.5" font-family="Arial" font-size="10.00" fill="#000000">logs&#45;&gt;users</text>
</g>
<!-- posts&#45;&gt;users -->
<g id="edge1" class="edge">
<title>posts:user_id&#45;&gt;users:id</title>
<path fill="none" stroke="#000000" d="M346.726,-543.897C425.8658,-534.1038 390.3589,-407.3753 336.5,-337 299.2823,-288.3691 240.7177,-349.6309 203.5,-301 178.2445,-267.9996 161.9444,-207.5 203.5,-207.5"/>
<polygon fill="#000000" stroke="#000000" points="346.4827,-543.9113 336.2351,-540.0078 341.4913,-544.2056 336.5,-544.5 336.5,-544.5 336.5,-544.5 341.4913,-544.2056 336.7649,-548.9922 346.4827,-543.9113 346.4827,-543.9113"/>
<text text-anchor="start" x="343.445" y="-554.5" font-family="Arial" font-size="10.00" fill="#000000">FOREIGN KEY (user_id) REFERENCES users (id)</text>
</g>
</g>
</svg>
