<?xml version="1.0" encoding="UTF-8" standalone="no"?>
<!DOCTYPE svg PUBLIC "-//W3C//DTD SVG 1.1//EN"
 "http://www.w3.org/Graphics/SVG/1.1/DTD/svg11.dtd">
<!-- Generated by graphviz version 2.40.1 (20161225.0304)
 -->
<!-- Title: comment_star Pages: 1 -->
<svg width="402pt" height="1019pt"
 viewBox="0.00 0.00 401.50 1019.00" xmlns="http://www.w3.org/2000/svg" xmlns:xlink="http://www.w3.org/1999/xlink">
<g id="graph0" class="graph" transform="scale(1 1) rotate(0) translate(4 1015)">
<title>comment_star</title>
<polygon fill="#ffffff" stroke="transparent" points="-4,4 -4,-1015 397.5,-1015 397.5,4 -4,4"/>
<!-- comment_star -->
<g id="node1" class="node">
<title>comment_star</title>
<polygon fill="#efefef" stroke="transparent" points="93,-562.5 93,-597.5 348,-597.5 348,-562.5 93,-562.5"/>
<polygon fill="none" stroke="#000000" points="93,-562.5 93,-597.5 348,-597.5 348,-562.5 93,-562.5"/>
<text text-anchor="start" x="99.71" y="-575.3" font-family="Arial Bold" font-size="18.00" fill="#000000">comment_star</text>
<text text-anchor="start" x="213.722" y="-575.3" font-family="Arial" font-size="14.00" fill="#000000">    </text>
<text text-anchor="start" x="247.9268" y="-575.3" font-family="Arial" font-size="14.00" fill="#666666">[BASE TABLE]</text>
<polygon fill="none" stroke="#000000" points="93,-532.5 93,-562.5 348,-562.5 348,-532.5 93,-532.5"/>
<text text-anchor="start" x="100" y="-543.9" font-family="Arial" font-size="14.00" fill="#000000">id </text>
<text text-anchor="start" x="114.7798" y="-543.9" font-family="Arial" font-size="14.00" fill="#666666">[bigint]</text>
<polygon fill="none" stroke="#000000" points="93,-502.5 93,-532.5 348,-532.5 348,-502.5 93,-502.5"/>
<text text-anchor="start" x="100" y="-513.9" font-family="Arial" font-size="14.00" fill="#000000">user_id </text>
<text text-anchor="start" x="149.7882" y="-513.9" font-family="Arial" font-size="14.00" fill="#666666">[int]</text>
<polygon fill="none" stroke="#000000" points="93,-472.5 93,-502.5 348,-502.5 348,-472.5 93,-472.5"/>
<text text-anchor="start" x="100" y="-483.9" font-family="Arial" font-size="14.00" fill="#000000">comment_post_id </text>
<text text-anchor="start" x="214.3604" y="-483.9" font-family="Arial" font-size="14.00" fill="#666666">[bigint]</text>
<polygon fill="none" stroke="#000000" points="93,-442.5 93,-472.5 348,-472.5 348,-442.5 93,-442.5"/>
<text text-anchor="start" x="100" y="-453.9" font-family="Arial" font-size="14.00" fill="#000000">comment_user_id </text>
<text text-anchor="start" x="215.1304" y="-453.9" font-family="Arial" font-size="14.00" fill="#666666">[int]</text>
<polygon fill="none" stroke="#000000" points="93,-412.5 93,-442.5 348,-442.5 348,-412.5 93,-412.5"/>
<text text-anchor="start" x="100" y="-423.9" font-family="Arial" font-size="14.00" fill="#000000">created </text>
<text text-anchor="start" x="150.5722" y="-423.9" font-family="Arial" font-size="14.00" fill="#666666">[timestamp]</text>
<polygon fill="none" stroke="#000000" points="93,-382.5 93,-412.5 348,-412.5 348,-382.5 93,-382.5"/>
<text text-anchor="start" x="100" y="-393.9" font-family="Arial" font-size="14.00" fill="#000000">updated </text>
<text text-anchor="start" x="154.4768" y="-393.9" font-family="Arial" font-size="14.00" fill="#666666">[timestamp]</text>
<polygon fill="none" stroke="#000000" stroke-width="3" points="91,-381.5 91,-599.5 349,-599.5 349,-381.5 91,-381.5"/>
</g>
<!-- user -->
<g id="node3" class="node">
<title>user</title>
<polygon fill="#efefef" stroke="transparent" points="126,-222.5 126,-257.5 315,-257.5 315,-222.5 126,-222.5"/>
<polygon fill="none" stroke="#000000" points="126,-222.5 126,-257.5 315,-257.5 315,-222.5 126,-222.5"/>
<text text-anchor="start" x="139.2137" y="-235.3" font-family="Arial Bold" font-size="18.00" fill="#000000">user</text>
<text text-anchor="start" x="174.2183" y="-235.3" font-family="Arial" font-size="14.00" fill="#000000">    </text>
<text text-anchor="start" x="208.4231" y="-235.3" font-family="Arial" font-size="14.00" fill="#666666">[BASE TABLE]</text>
<polygon fill="none" stroke="#000000" points="126,-192.5 126,-222.5 315,-222.5 315,-192.5 126,-192.5"/>
<text text-anchor="start" x="133" y="-203.9" font-family="Arial" font-size="14.00" fill="#000000">id    </text>
<text text-anchor="start" x="178.094" y="-203.9" font-family="Arial" font-size="14.00" fill="#666666">[int]</text>
<polygon fill="none" stroke="#000000" points="126,-162.5 126,-192.5 315,-192.5 315,-162.5 126,-162.5"/>
<text text-anchor="start" x="132.6122" y="-173.9" font-family="Arial" font-size="14.00" fill="#000000">username    </text>
<text text-anchor="start" x="229.0512" y="-173.9" font-family="Arial" font-size="14.00" fill="#666666">[varchar(50)]</text>
<polygon fill="none" stroke="#000000" points="126,-132.5 126,-162.5 315,-162.5 315,-132.5 126,-132.5"/>
<text text-anchor="start" x="133" y="-143.9" font-family="Arial" font-size="14.00" fill="#000000">password    </text>
<text text-anchor="start" x="227.1024" y="-143.9" font-family="Arial" font-size="14.00" fill="#666666">[varchar(50)]</text>
<polygon fill="none" stroke="#000000" points="126,-102.5 126,-132.5 315,-132.5 315,-102.5 126,-102.5"/>
<text text-anchor="start" x="133" y="-113.9" font-family="Arial" font-size="14.00" fill="#000000">email    </text>
<text text-anchor="start" x="200.6438" y="-113.9" font-family="Arial" font-size="14.00" fill="#666666">[varchar(355)]</text>
<polygon fill="none" stroke="#000000" points="126,-72.5 126,-102.5 315,-102.5 315,-72.5 126,-72.5"/>
<text text-anchor="start" x="133" y="-83.9" font-family="Arial" font-size="14.00" fill="#000000">created    </text>
<text text-anchor="start" x="213.8864" y="-83.9" font-family="Arial" font-size="14.00" fill="#666666">[timestamp]</text>
<polygon fill="none" stroke="#000000" points="126,-42.5 126,-72.5 315,-72.5 315,-42.5 126,-42.5"/>
<text text-anchor="start" x="133" y="-53.9" font-family="Arial" font-size="14.00" fill="#000000">updated    </text>
<text text-anchor="start" x="217.791" y="-53.9" font-family="Arial" font-size="14.00" fill="#666666">[timestamp]</text>
</g>
<!-- comment_star&#45;&gt;user -->
<g id="edge2" class="edge">
<title>comment_star:user_id&#45;&gt;user:id</title>
<path fill="none" stroke="#000000" stroke-dasharray="5,2" d="M83.2285,-515.183C27.167,-486.815 60.2399,-207.5 126,-207.5"/>
<polygon fill="#000000" stroke="#000000" points="83.2698,-515.1927 91.9617,-521.8786 88.1349,-516.3463 93,-517.5 93,-517.5 93,-517.5 88.1349,-516.3463 94.0383,-513.1214 83.2698,-515.1927 83.2698,-515.1927"/>
<text text-anchor="start" x="7.268" y="-527.5" font-family="Arial" font-size="10.00" fill="#000000">Detected Relation</text>
</g>
<!-- log -->
<g id="node2" class="node">
<title>log</title>
<polygon fill="#efefef" stroke="transparent" points="123,-932.5 123,-967.5 319,-967.5 319,-932.5 123,-932.5"/>
<polygon fill="none" stroke="#000000" points="123,-932.5 123,-967.5 319,-967.5 319,-932.5 123,-932.5"/>
<text text-anchor="start" x="145.2127" y="-945.3" font-family="Arial Bold" font-size="18.00" fill="#000000">log</text>
<text text-anchor="start" x="169.2193" y="-945.3" font-family="Arial" font-size="14.00" fill="#000000">    </text>
<text text-anchor="start" x="203.4241" y="-945.3" font-family="Arial" font-size="14.00" fill="#666666">[BASE TABLE]</text>
<polygon fill="none" stroke="#000000" points="123,-902.5 123,-932.5 319,-932.5 319,-902.5 123,-902.5"/>
<text text-anchor="start" x="130" y="-913.9" font-family="Arial" font-size="14.00" fill="#000000">id    </text>
<text text-anchor="start" x="175.094" y="-913.9" font-family="Arial" font-size="14.00" fill="#666666">[bigint]</text>
<polygon fill="none" stroke="#000000" points="123,-872.5 123,-902.5 319,-902.5 319,-872.5 123,-872.5"/>
<text text-anchor="start" x="130" y="-883.9" font-family="Arial" font-size="14.00" fill="#000000">user_id    </text>
<text text-anchor="start" x="210.1024" y="-883.9" font-family="Arial" font-size="14.00" fill="#666666">[int]</text>
<polygon fill="none" stroke="#000000" points="123,-842.5 123,-872.5 319,-872.5 319,-842.5 123,-842.5"/>
<text text-anchor="start" x="130" y="-853.9" font-family="Arial" font-size="14.00" fill="#000000">post_id    </text>
<text text-anchor="start" x="209.3324" y="-853.9" font-family="Arial" font-size="14.00" fill="#666666">[bigint]</text>
<polygon fill="none" stroke="#000000" points="123,-812.5 123,-842.5 319,-842.5 319,-812.5 123,-812.5"/>
<text text-anchor="start" x="130" y="-823.9" font-family="Arial" font-size="14.00" fill="#000000">comment_id    </text>
<text text-anchor="start" x="240.4362" y="-823.9" font-family="Arial" font-size="14.00" fill="#666666">[bigint]</text>
<polygon fill="none" stroke="#000000" points="123,-782.5 123,-812.5 319,-812.5 319,-782.5 123,-782.5"/>
<text text-anchor="start" x="129.6073" y="-793.9" font-family="Arial" font-size="14.00" fill="#000000">comment_star_id    </text>
<text text-anchor="start" x="271.1599" y="-793.9" font-family="Arial" font-size="14.00" fill="#666666">[bigint]</text>
<polygon fill="none" stroke="#000000" points="123,-752.5 123,-782.5 319,-782.5 319,-752.5 123,-752.5"/>
<text text-anchor="start" x="130" y="-763.9" font-family="Arial" font-size="14.00" fill="#000000">payload    </text>
<text text-anchor="start" x="213.2244" y="-763.9" font-family="Arial" font-size="14.00" fill="#666666">[text]</text>
<polygon fill="none" stroke="#000000" points="123,-722.5 123,-752.5 319,-752.5 319,-722.5 123,-722.5"/>
<text text-anchor="start" x="130" y="-733.9" font-family="Arial" font-size="14.00" fill="#000000">created    </text>
<text text-anchor="start" x="210.8864" y="-733.9" font-family="Arial" font-size="14.00" fill="#666666">[datetime]</text>
</g>
<!-- log&#45;&gt;comment_star -->
<g id="edge1" class="edge">
<title>log:comment_star_id&#45;&gt;comment_star:id</title>
<path fill="none" stroke="#000000" stroke-dasharray="5,2" d="M113.0118,-796.3869C73.4334,-786.7525 91.4982,-716.9428 123,-680 188.7102,-602.9404 282.2898,-721.0596 348,-644 375.8284,-611.3651 390.8889,-547.5 348,-547.5"/>
<polygon fill="#000000" stroke="#000000" points="113.0615,-796.3924 122.5016,-801.9723 118.0308,-796.9462 123,-797.5 123,-797.5 123,-797.5 118.0308,-796.9462 123.4984,-793.0277 113.0615,-796.3924 113.0615,-796.3924"/>
<text text-anchor="start" x="37.268" y="-807.5" font-family="Arial" font-size="10.00" fill="#000000">Detected Relation</text>
</g>
</g>
</svg>
