<?xml version="1.0" encoding="UTF-8" standalone="no"?>
<!DOCTYPE svg PUBLIC "-//W3C//DTD SVG 1.1//EN"
 "http://www.w3.org/Graphics/SVG/1.1/DTD/svg11.dtd">
<!-- Generated by graphviz version 12.1.2 (20240928.0832)
 -->
<!-- Title: comment Pages: 1 -->
<svg width="674pt" height="1068pt"
 viewBox="0.00 0.00 673.96 1068.00" xmlns="http://www.w3.org/2000/svg" xmlns:xlink="http://www.w3.org/1999/xlink">
<g id="graph0" class="graph" transform="scale(1 1) rotate(0) translate(4 1064)">
<title>comment</title>
<polygon fill="white" stroke="none" points="-4,4 -4,-1064 669.96,-1064 669.96,4 -4,4"/>
<!-- comment -->
<g id="node1" class="node">
<title>comment</title>
<polygon fill="#efefef" stroke="none" points="255.66,-604.6 255.66,-640.2 461.13,-640.2 461.13,-604.6 255.66,-604.6"/>
<polygon fill="none" stroke="black" points="255.66,-604.6 255.66,-640.2 461.13,-640.2 461.13,-604.6 255.66,-604.6"/>
<text text-anchor="start" x="262.66" y="-618" font-family="Arial Bold" font-size="18.00">comment</text>
<text text-anchor="start" x="329.64" y="-618" font-family="Arial" font-size="14.00">    </text>
<text text-anchor="start" x="360.75" y="-618" font-family="Arial" font-size="14.00" fill="#666666">[BASE TABLE]</text>
<polygon fill="none" stroke="black" points="255.66,-573.8 255.66,-604.6 461.13,-604.6 461.13,-573.8 255.66,-573.8"/>
<text text-anchor="start" x="262.66" y="-586" font-family="Arial" font-size="14.00">id </text>
<text text-anchor="start" x="277.44" y="-586" font-family="Arial" font-size="14.00" fill="#666666">[bigint]</text>
<polygon fill="none" stroke="black" points="255.66,-543 255.66,-573.8 461.13,-573.8 461.13,-543 255.66,-543"/>
<text text-anchor="start" x="262.66" y="-555.2" font-family="Arial" font-size="14.00">post_id </text>
<text text-anchor="start" x="311.69" y="-555.2" font-family="Arial" font-size="14.00" fill="#666666">[bigint]</text>
<polygon fill="none" stroke="black" points="255.66,-512.2 255.66,-543 461.13,-543 461.13,-512.2 255.66,-512.2"/>
<text text-anchor="start" x="262.66" y="-524.4" font-family="Arial" font-size="14.00">user_id </text>
<text text-anchor="start" x="312.46" y="-524.4" font-family="Arial" font-size="14.00" fill="#666666">[int]</text>
<polygon fill="none" stroke="black" points="255.66,-481.4 255.66,-512.2 461.13,-512.2 461.13,-481.4 255.66,-481.4"/>
<text text-anchor="start" x="262.66" y="-493.6" font-family="Arial" font-size="14.00">comment </text>
<text text-anchor="start" x="324.12" y="-493.6" font-family="Arial" font-size="14.00" fill="#666666">[text]</text>
<polygon fill="none" stroke="black" points="255.66,-450.6 255.66,-481.4 461.13,-481.4 461.13,-450.6 255.66,-450.6"/>
<text text-anchor="start" x="262.66" y="-462.8" font-family="Arial" font-size="14.00">created </text>
<text text-anchor="start" x="313.24" y="-462.8" font-family="Arial" font-size="14.00" fill="#666666">[datetime]</text>
<polygon fill="none" stroke="black" points="255.66,-419.8 255.66,-450.6 461.13,-450.6 461.13,-419.8 255.66,-419.8"/>
<text text-anchor="start" x="262.66" y="-432" font-family="Arial" font-size="14.00">updated </text>
<text text-anchor="start" x="317.15" y="-432" font-family="Arial" font-size="14.00" fill="#666666">[datetime]</text>
<polygon fill="none" stroke="black" stroke-width="3" points="254.16,-418.3 254.16,-641.7 462.63,-641.7 462.63,-418.3 254.16,-418.3"/>
</g>
<!-- post -->
<g id="node3" class="node">
<title>post</title>
<polygon fill="#efefef" stroke="none" points="43.2,-258.8 43.2,-294.4 331.58,-294.4 331.58,-258.8 43.2,-258.8"/>
<polygon fill="none" stroke="black" points="43.2,-258.8 43.2,-294.4 331.58,-294.4 331.58,-258.8 43.2,-258.8"/>
<text text-anchor="start" x="110.14" y="-272.2" font-family="Arial Bold" font-size="18.00">post</text>
<text text-anchor="start" x="140.15" y="-272.2" font-family="Arial" font-size="14.00">    </text>
<text text-anchor="start" x="171.27" y="-272.2" font-family="Arial" font-size="14.00" fill="#666666">[BASE TABLE]</text>
<polygon fill="none" stroke="black" points="43.2,-228 43.2,-258.8 331.58,-258.8 331.58,-228 43.2,-228"/>
<text text-anchor="start" x="50.2" y="-240.2" font-family="Arial" font-size="14.00">id    </text>
<text text-anchor="start" x="92.21" y="-240.2" font-family="Arial" font-size="14.00" fill="#666666">[bigint]</text>
<polygon fill="none" stroke="black" points="43.2,-197.2 43.2,-228 331.58,-228 331.58,-197.2 43.2,-197.2"/>
<text text-anchor="start" x="50.2" y="-209.4" font-family="Arial" font-size="14.00">user_id    </text>
<text text-anchor="start" x="127.23" y="-209.4" font-family="Arial" font-size="14.00" fill="#666666">[int]</text>
<polygon fill="none" stroke="black" points="43.2,-166.4 43.2,-197.2 331.58,-197.2 331.58,-166.4 43.2,-166.4"/>
<text text-anchor="start" x="50.2" y="-178.6" font-family="Arial" font-size="14.00">title    </text>
<text text-anchor="start" x="103.1" y="-178.6" font-family="Arial" font-size="14.00" fill="#666666">[varchar(255)]</text>
<polygon fill="none" stroke="black" points="43.2,-135.6 43.2,-166.4 331.58,-166.4 331.58,-135.6 43.2,-135.6"/>
<text text-anchor="start" x="50.2" y="-147.8" font-family="Arial" font-size="14.00">body    </text>
<text text-anchor="start" x="111.68" y="-147.8" font-family="Arial" font-size="14.00" fill="#666666">[text]</text>
<polygon fill="none" stroke="black" points="43.2,-104.8 43.2,-135.6 331.58,-135.6 331.58,-104.8 43.2,-104.8"/>
<text text-anchor="start" x="50.2" y="-117" font-family="Arial" font-size="14.00">post_type    </text>
<text text-anchor="start" x="142.03" y="-117" font-family="Arial" font-size="14.00" fill="#666666">[enum(&#39;public&#39;,&#39;private&#39;,&#39;draft&#39;)]</text>
<polygon fill="none" stroke="black" points="43.2,-74 43.2,-104.8 331.58,-104.8 331.58,-74 43.2,-74"/>
<text text-anchor="start" x="50.2" y="-86.2" font-family="Arial" font-size="14.00">created    </text>
<text text-anchor="start" x="128.01" y="-86.2" font-family="Arial" font-size="14.00" fill="#666666">[datetime]</text>
<polygon fill="none" stroke="black" points="43.2,-43.2 43.2,-74 331.58,-74 331.58,-43.2 43.2,-43.2"/>
<text text-anchor="start" x="50.2" y="-55.4" font-family="Arial" font-size="14.00">updated    </text>
<text text-anchor="start" x="131.92" y="-55.4" font-family="Arial" font-size="14.00" fill="#666666">[datetime]</text>
</g>
<!-- comment&#45;&gt;post -->
<g id="edge2" class="edge">
<title>comment:post_id&#45;&gt;post:id</title>
<path fill="none" stroke="black" stroke-dasharray="5,2" d="M244.31,-557.72C176.04,-548.12 213.54,-439.78 255.66,-373.6 275.71,-342.09 311.45,-369.05 331.58,-337.6 354.15,-302.34 374.45,-243.4 332.58,-243.4"/>
<polygon fill="black" stroke="black" points="244.34,-557.72 254.02,-562.87 249.67,-558.07 253.99,-558.36 253.99,-558.36 253.99,-558.36 249.67,-558.07 254.62,-553.89 244.34,-557.72"/>
<text text-anchor="start" x="168.16" y="-568.4" font-family="Arial" font-size="10.00">Detected Relation</text>
</g>
<!-- user -->
<g id="node4" class="node">
<title>user</title>
<polygon fill="#efefef" stroke="none" points="436.03,-243.4 436.03,-279 622.76,-279 622.76,-243.4 436.03,-243.4"/>
<polygon fill="none" stroke="black" points="436.03,-243.4 436.03,-279 622.76,-279 622.76,-243.4 436.03,-243.4"/>
<text text-anchor="start" x="452.15" y="-256.8" font-family="Arial Bold" font-size="18.00">user</text>
<text text-anchor="start" x="482.14" y="-256.8" font-family="Arial" font-size="14.00">    </text>
<text text-anchor="start" x="513.26" y="-256.8" font-family="Arial" font-size="14.00" fill="#666666">[BASE TABLE]</text>
<polygon fill="none" stroke="black" points="436.03,-212.6 436.03,-243.4 622.76,-243.4 622.76,-212.6 436.03,-212.6"/>
<text text-anchor="start" x="443.03" y="-224.8" font-family="Arial" font-size="14.00">id    </text>
<text text-anchor="start" x="485.04" y="-224.8" font-family="Arial" font-size="14.00" fill="#666666">[int]</text>
<polygon fill="none" stroke="black" points="436.03,-181.8 436.03,-212.6 622.76,-212.6 622.76,-181.8 436.03,-181.8"/>
<text text-anchor="start" x="443.03" y="-194" font-family="Arial" font-size="14.00">username    </text>
<text text-anchor="start" x="536.4" y="-194" font-family="Arial" font-size="14.00" fill="#666666">[varchar(50)]</text>
<polygon fill="none" stroke="black" points="436.03,-151 436.03,-181.8 622.76,-181.8 622.76,-151 436.03,-151"/>
<text text-anchor="start" x="443.03" y="-163.2" font-family="Arial" font-size="14.00">password    </text>
<text text-anchor="start" x="534.06" y="-163.2" font-family="Arial" font-size="14.00" fill="#666666">[varchar(50)]</text>
<polygon fill="none" stroke="black" points="436.03,-120.2 436.03,-151 622.76,-151 622.76,-120.2 436.03,-120.2"/>
<text text-anchor="start" x="443.03" y="-132.4" font-family="Arial" font-size="14.00">email    </text>
<text text-anchor="start" x="507.6" y="-132.4" font-family="Arial" font-size="14.00" fill="#666666">[varchar(355)]</text>
<polygon fill="none" stroke="black" points="436.03,-89.4 436.03,-120.2 622.76,-120.2 622.76,-89.4 436.03,-89.4"/>
<text text-anchor="start" x="443.03" y="-101.6" font-family="Arial" font-size="14.00">created    </text>
<text text-anchor="start" x="520.84" y="-101.6" font-family="Arial" font-size="14.00" fill="#666666">[timestamp]</text>
<polygon fill="none" stroke="black" points="436.03,-58.6 436.03,-89.4 622.76,-89.4 622.76,-58.6 436.03,-58.6"/>
<text text-anchor="start" x="443.03" y="-70.8" font-family="Arial" font-size="14.00">updated    </text>
<text text-anchor="start" x="524.75" y="-70.8" font-family="Arial" font-size="14.00" fill="#666666">[timestamp]</text>
</g>
<!-- comment&#45;&gt;user -->
<g id="edge3" class="edge">
<title>comment:user_id&#45;&gt;user:id</title>
<path fill="none" stroke="black" stroke-dasharray="5,2" d="M472.28,-526.83C524.8,-518.11 475.9,-436.59 461.13,-373.6 455.32,-348.85 441.88,-346.94 436.03,-322.2 426.38,-281.46 393.16,-228 435.03,-228"/>
<polygon fill="black" stroke="black" points="472.43,-526.82 462.12,-523.09 467.11,-527.22 462.79,-527.55 462.79,-527.55 462.79,-527.55 467.11,-527.22 462.8,-532.06 472.43,-526.82"/>
<text text-anchor="start" x="469.13" y="-537.6" font-family="Arial" font-size="10.00">Detected Relation</text>
</g>
<!-- log -->
<g id="node2" class="node">
<title>log</title>
<polygon fill="#efefef" stroke="none" points="261.52,-981.2 261.52,-1016.8 455.26,-1016.8 455.26,-981.2 261.52,-981.2"/>
<polygon fill="none" stroke="black" points="261.52,-981.2 261.52,-1016.8 455.26,-1016.8 455.26,-981.2 261.52,-981.2"/>
<text text-anchor="start" x="284.65" y="-994.6" font-family="Arial Bold" font-size="18.00">log</text>
<text text-anchor="start" x="307.65" y="-994.6" font-family="Arial" font-size="14.00">    </text>
<text text-anchor="start" x="338.76" y="-994.6" font-family="Arial" font-size="14.00" fill="#666666">[BASE TABLE]</text>
<polygon fill="none" stroke="black" points="261.52,-950.4 261.52,-981.2 455.26,-981.2 455.26,-950.4 261.52,-950.4"/>
<text text-anchor="start" x="268.52" y="-962.6" font-family="Arial" font-size="14.00">id    </text>
<text text-anchor="start" x="310.53" y="-962.6" font-family="Arial" font-size="14.00" fill="#666666">[bigint]</text>
<polygon fill="none" stroke="black" points="261.52,-919.6 261.52,-950.4 455.26,-950.4 455.26,-919.6 261.52,-919.6"/>
<text text-anchor="start" x="268.52" y="-931.8" font-family="Arial" font-size="14.00">user_id    </text>
<text text-anchor="start" x="345.55" y="-931.8" font-family="Arial" font-size="14.00" fill="#666666">[int]</text>
<polygon fill="none" stroke="black" points="261.52,-888.8 261.52,-919.6 455.26,-919.6 455.26,-888.8 261.52,-888.8"/>
<text text-anchor="start" x="268.52" y="-901" font-family="Arial" font-size="14.00">post_id    </text>
<text text-anchor="start" x="344.78" y="-901" font-family="Arial" font-size="14.00" fill="#666666">[bigint]</text>
<polygon fill="none" stroke="black" points="261.52,-858 261.52,-888.8 455.26,-888.8 455.26,-858 261.52,-858"/>
<text text-anchor="start" x="268.52" y="-870.2" font-family="Arial" font-size="14.00">comment_id    </text>
<text text-anchor="start" x="375.89" y="-870.2" font-family="Arial" font-size="14.00" fill="#666666">[bigint]</text>
<polygon fill="none" stroke="black" points="261.52,-827.2 261.52,-858 455.26,-858 455.26,-827.2 261.52,-827.2"/>
<text text-anchor="start" x="268.52" y="-839.4" font-family="Arial" font-size="14.00">comment_star_id    </text>
<text text-anchor="start" x="407.01" y="-839.4" font-family="Arial" font-size="14.00" fill="#666666">[bigint]</text>
<polygon fill="none" stroke="black" points="261.52,-796.4 261.52,-827.2 455.26,-827.2 455.26,-796.4 261.52,-796.4"/>
<text text-anchor="start" x="268.52" y="-808.6" font-family="Arial" font-size="14.00">payload    </text>
<text text-anchor="start" x="348.68" y="-808.6" font-family="Arial" font-size="14.00" fill="#666666">[text]</text>
<polygon fill="none" stroke="black" points="261.52,-765.6 261.52,-796.4 455.26,-796.4 455.26,-765.6 261.52,-765.6"/>
<text text-anchor="start" x="268.52" y="-777.8" font-family="Arial" font-size="14.00">created    </text>
<text text-anchor="start" x="346.33" y="-777.8" font-family="Arial" font-size="14.00" fill="#666666">[datetime]</text>
</g>
<!-- log&#45;&gt;comment -->
<g id="edge1" class="edge">
<title>log:comment_id&#45;&gt;comment:id</title>
<path fill="none" stroke="black" stroke-dasharray="5,2" d="M466.36,-872.77C582.82,-858.07 585.01,-589.2 462.13,-589.2"/>
<polygon fill="black" stroke="black" points="466.58,-872.76 456.32,-868.89 461.25,-873.09 456.93,-873.36 456.93,-873.36 456.93,-873.36 461.25,-873.09 456.87,-877.87 466.58,-872.76"/>
<text text-anchor="start" x="463.26" y="-883.4" font-family="Arial" font-size="10.00">Detected Relation</text>
</g>
</g>
</svg>
