<?xml version="1.0" encoding="UTF-8" standalone="no"?>
<!DOCTYPE svg PUBLIC "-//W3C//DTD SVG 1.1//EN"
 "http://www.w3.org/Graphics/SVG/1.1/DTD/svg11.dtd">
<!-- Generated by graphviz version 2.40.1 (20161225.0304)
 -->
<!-- Title: comment Pages: 1 -->
<svg width="620pt" height="1049pt"
 viewBox="0.00 0.00 620.00 1049.00" xmlns="http://www.w3.org/2000/svg" xmlns:xlink="http://www.w3.org/1999/xlink">
<g id="graph0" class="graph" transform="scale(1 1) rotate(0) translate(4 1045)">
<title>comment</title>
<polygon fill="#ffffff" stroke="transparent" points="-4,4 -4,-1045 616,-1045 616,4 -4,4"/>
<!-- comment -->
<g id="node1" class="node">
<title>comment</title>
<polygon fill="#efefef" stroke="transparent" points="239.5,-592.5 239.5,-627.5 424.5,-627.5 424.5,-592.5 239.5,-592.5"/>
<polygon fill="none" stroke="#000000" points="239.5,-592.5 239.5,-627.5 424.5,-627.5 424.5,-592.5 239.5,-592.5"/>
<text text-anchor="start" x="246.3705" y="-605.3" font-family="Arial Bold" font-size="18.00" fill="#000000">comment</text>
<text text-anchor="start" x="320.3757" y="-605.3" font-family="Arial" font-size="14.00" fill="#000000"> </text>
<text text-anchor="start" x="324.2663" y="-605.3" font-family="Arial" font-size="14.00" fill="#666666">[BASE TABLE]</text>
<polygon fill="none" stroke="#000000" points="239.5,-562.5 239.5,-592.5 424.5,-592.5 424.5,-562.5 239.5,-562.5"/>
<text text-anchor="start" x="246.5" y="-573.9" font-family="Arial" font-size="14.00" fill="#000000">id </text>
<text text-anchor="start" x="261.2798" y="-573.9" font-family="Arial" font-size="14.00" fill="#666666">[bigint]</text>
<polygon fill="none" stroke="#000000" points="239.5,-532.5 239.5,-562.5 424.5,-562.5 424.5,-532.5 239.5,-532.5"/>
<text text-anchor="start" x="246.5" y="-543.9" font-family="Arial" font-size="14.00" fill="#000000">post_id </text>
<text text-anchor="start" x="295.5182" y="-543.9" font-family="Arial" font-size="14.00" fill="#666666">[bigint]</text>
<polygon fill="none" stroke="#000000" points="239.5,-502.5 239.5,-532.5 424.5,-532.5 424.5,-502.5 239.5,-502.5"/>
<text text-anchor="start" x="246.5" y="-513.9" font-family="Arial" font-size="14.00" fill="#000000">user_id </text>
<text text-anchor="start" x="296.2882" y="-513.9" font-family="Arial" font-size="14.00" fill="#666666">[int]</text>
<polygon fill="none" stroke="#000000" points="239.5,-472.5 239.5,-502.5 424.5,-502.5 424.5,-472.5 239.5,-472.5"/>
<text text-anchor="start" x="246.5" y="-483.9" font-family="Arial" font-size="14.00" fill="#000000">comment </text>
<text text-anchor="start" x="307.9502" y="-483.9" font-family="Arial" font-size="14.00" fill="#666666">[text]</text>
<polygon fill="none" stroke="#000000" points="239.5,-442.5 239.5,-472.5 424.5,-472.5 424.5,-442.5 239.5,-442.5"/>
<text text-anchor="start" x="246.5" y="-453.9" font-family="Arial" font-size="14.00" fill="#000000">created </text>
<text text-anchor="start" x="297.0722" y="-453.9" font-family="Arial" font-size="14.00" fill="#666666">[datetime]</text>
<polygon fill="none" stroke="#000000" points="239.5,-412.5 239.5,-442.5 424.5,-442.5 424.5,-412.5 239.5,-412.5"/>
<text text-anchor="start" x="246.5" y="-423.9" font-family="Arial" font-size="14.00" fill="#000000">updated </text>
<text text-anchor="start" x="300.9768" y="-423.9" font-family="Arial" font-size="14.00" fill="#666666">[datetime]</text>
<polygon fill="none" stroke="#000000" stroke-width="3" points="237.5,-411.5 237.5,-629.5 425.5,-629.5 425.5,-411.5 237.5,-411.5"/>
</g>
<!-- post -->
<g id="node3" class="node">
<title>post</title>
<polygon fill="#efefef" stroke="transparent" points="43.5,-252.5 43.5,-287.5 306.5,-287.5 306.5,-252.5 43.5,-252.5"/>
<polygon fill="none" stroke="#000000" points="43.5,-252.5 43.5,-287.5 306.5,-287.5 306.5,-252.5 43.5,-252.5"/>
<text text-anchor="start" x="109.3658" y="-265.3" font-family="Arial Bold" font-size="18.00" fill="#000000">post</text>
<text text-anchor="start" x="143.3804" y="-265.3" font-family="Arial" font-size="14.00" fill="#000000"> </text>
<text text-anchor="start" x="147.271" y="-265.3" font-family="Arial" font-size="14.00" fill="#666666">[BASE TABLE]</text>
<polygon fill="none" stroke="#000000" points="43.5,-222.5 43.5,-252.5 306.5,-252.5 306.5,-222.5 43.5,-222.5"/>
<text text-anchor="start" x="50.5" y="-233.9" font-family="Arial" font-size="14.00" fill="#000000">id </text>
<text text-anchor="start" x="65.2798" y="-233.9" font-family="Arial" font-size="14.00" fill="#666666">[bigint]</text>
<polygon fill="none" stroke="#000000" points="43.5,-192.5 43.5,-222.5 306.5,-222.5 306.5,-192.5 43.5,-192.5"/>
<text text-anchor="start" x="50.5" y="-203.9" font-family="Arial" font-size="14.00" fill="#000000">user_id </text>
<text text-anchor="start" x="100.2882" y="-203.9" font-family="Arial" font-size="14.00" fill="#666666">[int]</text>
<polygon fill="none" stroke="#000000" points="43.5,-162.5 43.5,-192.5 306.5,-192.5 306.5,-162.5 43.5,-162.5"/>
<text text-anchor="start" x="50.5" y="-173.9" font-family="Arial" font-size="14.00" fill="#000000">title </text>
<text text-anchor="start" x="76.1676" y="-173.9" font-family="Arial" font-size="14.00" fill="#666666">[varchar(255)]</text>
<polygon fill="none" stroke="#000000" points="43.5,-132.5 43.5,-162.5 306.5,-162.5 306.5,-132.5 43.5,-132.5"/>
<text text-anchor="start" x="50.5" y="-143.9" font-family="Arial" font-size="14.00" fill="#000000">body </text>
<text text-anchor="start" x="84.7384" y="-143.9" font-family="Arial" font-size="14.00" fill="#666666">[text]</text>
<polygon fill="none" stroke="#000000" points="43.5,-102.5 43.5,-132.5 306.5,-132.5 306.5,-102.5 43.5,-102.5"/>
<text text-anchor="start" x="50.197" y="-113.9" font-family="Arial" font-size="14.00" fill="#000000">post_type </text>
<text text-anchor="start" x="114.7818" y="-113.9" font-family="Arial" font-size="14.00" fill="#666666">[enum(&#39;public&#39;,&#39;private&#39;,&#39;draft&#39;)]</text>
<polygon fill="none" stroke="#000000" points="43.5,-72.5 43.5,-102.5 306.5,-102.5 306.5,-72.5 43.5,-72.5"/>
<text text-anchor="start" x="50.5" y="-83.9" font-family="Arial" font-size="14.00" fill="#000000">created </text>
<text text-anchor="start" x="101.0722" y="-83.9" font-family="Arial" font-size="14.00" fill="#666666">[datetime]</text>
<polygon fill="none" stroke="#000000" points="43.5,-42.5 43.5,-72.5 306.5,-72.5 306.5,-42.5 43.5,-42.5"/>
<text text-anchor="start" x="50.5" y="-53.9" font-family="Arial" font-size="14.00" fill="#000000">updated </text>
<text text-anchor="start" x="104.9768" y="-53.9" font-family="Arial" font-size="14.00" fill="#666666">[datetime]</text>
</g>
<!-- comment&#45;&gt;post -->
<g id="edge2" class="edge">
<title>comment:post_id&#45;&gt;post:id</title>
<path fill="none" stroke="#000000" stroke-dasharray="5,2" d="M229.4003,-546.8381C162.7909,-537.5556 200.1818,-432.7607 239.5,-367 256.8472,-337.9864 289.1528,-360.0136 306.5,-331 327.825,-295.3334 348.0556,-237.5 306.5,-237.5"/>
<polygon fill="#000000" stroke="#000000" points="229.5214,-546.8459 239.2057,-551.9904 234.5107,-547.173 239.5,-547.5 239.5,-547.5 239.5,-547.5 234.5107,-547.173 239.7943,-543.0096 229.5214,-546.8459 229.5214,-546.8459"/>
<text text-anchor="start" x="153.768" y="-557.5" font-family="Arial" font-size="10.00" fill="#000000">Detected Relation</text>
</g>
<!-- user -->
<g id="node4" class="node">
<title>user</title>
<polygon fill="#efefef" stroke="transparent" points="410.5,-237.5 410.5,-272.5 569.5,-272.5 569.5,-237.5 410.5,-237.5"/>
<polygon fill="none" stroke="#000000" points="410.5,-237.5 410.5,-272.5 569.5,-272.5 569.5,-237.5 410.5,-237.5"/>
<text text-anchor="start" x="423.8708" y="-250.3" font-family="Arial Bold" font-size="18.00" fill="#000000">user</text>
<text text-anchor="start" x="458.8754" y="-250.3" font-family="Arial" font-size="14.00" fill="#000000"> </text>
<text text-anchor="start" x="462.766" y="-250.3" font-family="Arial" font-size="14.00" fill="#666666">[BASE TABLE]</text>
<polygon fill="none" stroke="#000000" points="410.5,-207.5 410.5,-237.5 569.5,-237.5 569.5,-207.5 410.5,-207.5"/>
<text text-anchor="start" x="417.5" y="-218.9" font-family="Arial" font-size="14.00" fill="#000000">id </text>
<text text-anchor="start" x="432.2798" y="-218.9" font-family="Arial" font-size="14.00" fill="#666666">[int]</text>
<polygon fill="none" stroke="#000000" points="410.5,-177.5 410.5,-207.5 569.5,-207.5 569.5,-177.5 410.5,-177.5"/>
<text text-anchor="start" x="417.2693" y="-188.9" font-family="Arial" font-size="14.00" fill="#000000">username </text>
<text text-anchor="start" x="483.3941" y="-188.9" font-family="Arial" font-size="14.00" fill="#666666">[varchar(50)]</text>
<polygon fill="none" stroke="#000000" points="410.5,-147.5 410.5,-177.5 569.5,-177.5 569.5,-147.5 410.5,-147.5"/>
<text text-anchor="start" x="417.5" y="-158.9" font-family="Arial" font-size="14.00" fill="#000000">password </text>
<text text-anchor="start" x="481.2882" y="-158.9" font-family="Arial" font-size="14.00" fill="#666666">[varchar(50)]</text>
<polygon fill="none" stroke="#000000" points="410.5,-117.5 410.5,-147.5 569.5,-147.5 569.5,-117.5 410.5,-117.5"/>
<text text-anchor="start" x="417.5" y="-128.9" font-family="Arial" font-size="14.00" fill="#000000">email </text>
<text text-anchor="start" x="454.8296" y="-128.9" font-family="Arial" font-size="14.00" fill="#666666">[varchar(355)]</text>
<polygon fill="none" stroke="#000000" points="410.5,-87.5 410.5,-117.5 569.5,-117.5 569.5,-87.5 410.5,-87.5"/>
<text text-anchor="start" x="417.5" y="-98.9" font-family="Arial" font-size="14.00" fill="#000000">created </text>
<text text-anchor="start" x="468.0722" y="-98.9" font-family="Arial" font-size="14.00" fill="#666666">[timestamp]</text>
<polygon fill="none" stroke="#000000" points="410.5,-57.5 410.5,-87.5 569.5,-87.5 569.5,-57.5 410.5,-57.5"/>
<text text-anchor="start" x="417.5" y="-68.9" font-family="Arial" font-size="14.00" fill="#000000">updated </text>
<text text-anchor="start" x="471.9768" y="-68.9" font-family="Arial" font-size="14.00" fill="#666666">[timestamp]</text>
</g>
<!-- comment&#45;&gt;user -->
<g id="edge3" class="edge">
<title>comment:user_id&#45;&gt;user:id</title>
<path fill="none" stroke="#000000" stroke-dasharray="5,2" d="M434.6959,-516.7081C484.9809,-508.018 432.9274,-429.535 424.5,-367 421.3608,-343.7054 413.6392,-339.2946 410.5,-316 404.95,-274.8167 368.9444,-222.5 410.5,-222.5"/>
<polygon fill="#000000" stroke="#000000" points="434.47,-516.7255 424.1515,-513.0135 429.485,-517.1128 424.5,-517.5 424.5,-517.5 424.5,-517.5 429.485,-517.1128 424.8485,-521.9865 434.47,-516.7255 434.47,-516.7255"/>
<text text-anchor="start" x="431.768" y="-527.5" font-family="Arial" font-size="10.00" fill="#000000">Detected Relation</text>
</g>
<!-- log -->
<g id="node2" class="node">
<title>log</title>
<polygon fill="#efefef" stroke="transparent" points="249.5,-962.5 249.5,-997.5 415.5,-997.5 415.5,-962.5 249.5,-962.5"/>
<polygon fill="none" stroke="#000000" points="249.5,-962.5 249.5,-997.5 415.5,-997.5 415.5,-962.5 249.5,-962.5"/>
<text text-anchor="start" x="271.8698" y="-975.3" font-family="Arial Bold" font-size="18.00" fill="#000000">log</text>
<text text-anchor="start" x="295.8764" y="-975.3" font-family="Arial" font-size="14.00" fill="#000000"> </text>
<text text-anchor="start" x="299.767" y="-975.3" font-family="Arial" font-size="14.00" fill="#666666">[BASE TABLE]</text>
<polygon fill="none" stroke="#000000" points="249.5,-932.5 249.5,-962.5 415.5,-962.5 415.5,-932.5 249.5,-932.5"/>
<text text-anchor="start" x="256.5" y="-943.9" font-family="Arial" font-size="14.00" fill="#000000">id </text>
<text text-anchor="start" x="271.2798" y="-943.9" font-family="Arial" font-size="14.00" fill="#666666">[bigint]</text>
<polygon fill="none" stroke="#000000" points="249.5,-902.5 249.5,-932.5 415.5,-932.5 415.5,-902.5 249.5,-902.5"/>
<text text-anchor="start" x="256.5" y="-913.9" font-family="Arial" font-size="14.00" fill="#000000">user_id </text>
<text text-anchor="start" x="306.2882" y="-913.9" font-family="Arial" font-size="14.00" fill="#666666">[int]</text>
<polygon fill="none" stroke="#000000" points="249.5,-872.5 249.5,-902.5 415.5,-902.5 415.5,-872.5 249.5,-872.5"/>
<text text-anchor="start" x="256.5" y="-883.9" font-family="Arial" font-size="14.00" fill="#000000">post_id </text>
<text text-anchor="start" x="305.5182" y="-883.9" font-family="Arial" font-size="14.00" fill="#666666">[bigint]</text>
<polygon fill="none" stroke="#000000" points="249.5,-842.5 249.5,-872.5 415.5,-872.5 415.5,-842.5 249.5,-842.5"/>
<text text-anchor="start" x="256.5" y="-853.9" font-family="Arial" font-size="14.00" fill="#000000">comment_id </text>
<text text-anchor="start" x="336.622" y="-853.9" font-family="Arial" font-size="14.00" fill="#666666">[bigint]</text>
<polygon fill="none" stroke="#000000" points="249.5,-812.5 249.5,-842.5 415.5,-842.5 415.5,-812.5 249.5,-812.5"/>
<text text-anchor="start" x="256.2644" y="-823.9" font-family="Arial" font-size="14.00" fill="#000000">comment_star_id </text>
<text text-anchor="start" x="367.5028" y="-823.9" font-family="Arial" font-size="14.00" fill="#666666">[bigint]</text>
<polygon fill="none" stroke="#000000" points="249.5,-782.5 249.5,-812.5 415.5,-812.5 415.5,-782.5 249.5,-782.5"/>
<text text-anchor="start" x="256.5" y="-793.9" font-family="Arial" font-size="14.00" fill="#000000">payload </text>
<text text-anchor="start" x="309.4102" y="-793.9" font-family="Arial" font-size="14.00" fill="#666666">[text]</text>
<polygon fill="none" stroke="#000000" points="249.5,-752.5 249.5,-782.5 415.5,-782.5 415.5,-752.5 249.5,-752.5"/>
<text text-anchor="start" x="256.5" y="-763.9" font-family="Arial" font-size="14.00" fill="#000000">created </text>
<text text-anchor="start" x="307.0722" y="-763.9" font-family="Arial" font-size="14.00" fill="#666666">[datetime]</text>
</g>
<!-- log&#45;&gt;comment -->
<g id="edge1" class="edge">
<title>log:comment_id&#45;&gt;comment:id</title>
<path fill="none" stroke="#000000" stroke-dasharray="5,2" d="M239.2107,-856.5953C186.7338,-846.6941 210.424,-757.9328 249.5,-710 299.6741,-648.4537 374.3259,-735.5463 424.5,-674 451.6,-640.7577 467.3889,-577.5 424.5,-577.5"/>
<polygon fill="#000000" stroke="#000000" points="239.5384,-856.624 249.1058,-861.9827 244.5192,-857.062 249.5,-857.5 249.5,-857.5 249.5,-857.5 244.5192,-857.062 249.8942,-853.0173 239.5384,-856.624 239.5384,-856.624"/>
<text text-anchor="start" x="163.768" y="-867.5" font-family="Arial" font-size="10.00" fill="#000000">Detected Relation</text>
</g>
</g>
</svg>
