<?xml version="1.0" encoding="UTF-8" standalone="no"?>
<!DOCTYPE svg PUBLIC "-//W3C//DTD SVG 1.1//EN"
 "http://www.w3.org/Graphics/SVG/1.1/DTD/svg11.dtd">
<!-- Generated by graphviz version 2.40.1 (20161225.0304)
 -->
<!-- Title: comment_star Pages: 1 -->
<svg width="402pt" height="1019pt"
 viewBox="0.00 0.00 401.50 1019.00" xmlns="http://www.w3.org/2000/svg" xmlns:xlink="http://www.w3.org/1999/xlink">
<g id="graph0" class="graph" transform="scale(1 1) rotate(0) translate(4 1015)">
<title>comment_star</title>
<polygon fill="#ffffff" stroke="transparent" points="-4,4 -4,-1015 397.5,-1015 397.5,4 -4,4"/>
<!-- comment_star -->
<g id="node1" class="node">
<title>comment_star</title>
<polygon fill="#efefef" stroke="transparent" points="93,-562.5 93,-597.5 348,-597.5 348,-562.5 93,-562.5"/>
<polygon fill="none" stroke="#000000" points="93,-562.5 93,-597.5 348,-597.5 348,-562.5 93,-562.5"/>
<text text-anchor="start" x="99.71" y="-575.3" font-family="Arial Bold" font-size="18.00" fill="#000000">comment_star</text>
<text text-anchor="start" x="213.722" y="-575.3" font-family="Arial" font-size="14.00" fill="#000000">    </text>
<text text-anchor="start" x="247.9268" y="-575.3" font-family="Arial" font-size="14.00" fill="#666666">[BASE TABLE]</text>
<polygon fill="none" stroke="#000000" points="93,-532.5 93,-562.5 348,-562.5 348,-532.5 93,-532.5"/>
<text text-anchor="start" x="100" y="-543.9" font-family="Arial" font-size="14.00" fill="#000000">id </text>
<text text-anchor="start" x="114.7798" y="-543.9" font-family="Arial" font-size="14.00" fill="#666666">[bigint]</text>
<polygon fill="none" stroke="#000000" points="93,-502.5 93,-532.5 348,-532.5 348,-502.5 93,-502.5"/>
<text text-anchor="start" x="100" y="-513.9" font-family="Arial" font-size="14.00" fill="#000000">user_id </text>
<text text-anchor="start" x="149.7882" y="-513.9" font-family="Arial" font-size="14.00" fill="#666666">[int]</text>
<polygon fill="none" stroke="#000000" points="93,-472.5 93,-502.5 348,-502.5 348,-472.5 93,-472.5"/>
<text text-anchor="start" x="100" y="-483.9" font-family="Arial" font-size="14.00" fill="#000000">comment_post_id </text>
<text text-anchor="start" x="214.3604" y="-483.9" font-family="Arial" font-size="14.00" fill="#666666">[bigint]</text>
<polygon fill="none" stroke="#000000" points="93,-442.5 93,-472.5 348,-472.5 348,-442.5 93,-442.5"/>
<text text-anchor="start" x="100" y="-453.9" font-family="Arial" font-size="14.00" fill="#000000">comment_user_id </text>
<text text-anchor="start" x="215.1304" y="-453.9" font-family="Arial" font-size="14.00" fill="#666666">[int]</text>
<polygon fill="none" stroke="#000000" points="93,-412.5 93,-442.5 348,-442.5 348,-412.5 93,-412.5"/>
<text text-anchor="start" x="100" y="-423.9" font-family="Arial" font-size="14.00" fill="#000000">created </text>
<text text-anchor="start" x="150.5722" y="-423.9" font-family="Arial" font-size="14.00" fill="#666666">[timestamp]</text>
<polygon fill="none" stroke="#000000" points="93,-382.5 93,-412.5 348,-412.5 348,-382.5 93,-382.5"/>
<text text-anchor="start" x="100" y="-393.9" font-family="Arial" font-size="14.00" fill="#000000">updated </text>
<text text-anchor="start" x="154.4768" y="-393.9" font-family="Arial" font-size="14.00" fill="#666666">[timestamp]</text>
<polygon fill="none" stroke="#000000" stroke-width="3" points="91,-381.5 91,-599.5 349,-599.5 349,-381.5 91,-381.5"/>
</g>
<!-- user -->
<g id="node3" class="node">
<title>user</title>
<polygon fill="#efefef" stroke="transparent" points="141,-222.5 141,-257.5 300,-257.5 300,-222.5 141,-222.5"/>
<polygon fill="none" stroke="#000000" points="141,-222.5 141,-257.5 300,-257.5 300,-222.5 141,-222.5"/>
<text text-anchor="start" x="154.3708" y="-235.3" font-family="Arial Bold" font-size="18.00" fill="#000000">user</text>
<text text-anchor="start" x="189.3754" y="-235.3" font-family="Arial" font-size="14.00" fill="#000000"> </text>
<text text-anchor="start" x="193.266" y="-235.3" font-family="Arial" font-size="14.00" fill="#666666">[BASE TABLE]</text>
<polygon fill="none" stroke="#000000" points="141,-192.5 141,-222.5 300,-222.5 300,-192.5 141,-192.5"/>
<text text-anchor="start" x="148" y="-203.9" font-family="Arial" font-size="14.00" fill="#000000">id </text>
<text text-anchor="start" x="162.7798" y="-203.9" font-family="Arial" font-size="14.00" fill="#666666">[int]</text>
<polygon fill="none" stroke="#000000" points="141,-162.5 141,-192.5 300,-192.5 300,-162.5 141,-162.5"/>
<text text-anchor="start" x="147.7693" y="-173.9" font-family="Arial" font-size="14.00" fill="#000000">username </text>
<text text-anchor="start" x="213.8941" y="-173.9" font-family="Arial" font-size="14.00" fill="#666666">[varchar(50)]</text>
<polygon fill="none" stroke="#000000" points="141,-132.5 141,-162.5 300,-162.5 300,-132.5 141,-132.5"/>
<text text-anchor="start" x="148" y="-143.9" font-family="Arial" font-size="14.00" fill="#000000">password </text>
<text text-anchor="start" x="211.7882" y="-143.9" font-family="Arial" font-size="14.00" fill="#666666">[varchar(50)]</text>
<polygon fill="none" stroke="#000000" points="141,-102.5 141,-132.5 300,-132.5 300,-102.5 141,-102.5"/>
<text text-anchor="start" x="148" y="-113.9" font-family="Arial" font-size="14.00" fill="#000000">email </text>
<text text-anchor="start" x="185.3296" y="-113.9" font-family="Arial" font-size="14.00" fill="#666666">[varchar(355)]</text>
<polygon fill="none" stroke="#000000" points="141,-72.5 141,-102.5 300,-102.5 300,-72.5 141,-72.5"/>
<text text-anchor="start" x="148" y="-83.9" font-family="Arial" font-size="14.00" fill="#000000">created </text>
<text text-anchor="start" x="198.5722" y="-83.9" font-family="Arial" font-size="14.00" fill="#666666">[timestamp]</text>
<polygon fill="none" stroke="#000000" points="141,-42.5 141,-72.5 300,-72.5 300,-42.5 141,-42.5"/>
<text text-anchor="start" x="148" y="-53.9" font-family="Arial" font-size="14.00" fill="#000000">updated </text>
<text text-anchor="start" x="202.4768" y="-53.9" font-family="Arial" font-size="14.00" fill="#666666">[timestamp]</text>
</g>
<!-- comment_star&#45;&gt;user -->
<g id="edge2" class="edge">
<title>comment_star:user_id&#45;&gt;user:id</title>
<path fill="none" stroke="#000000" stroke-dasharray="5,2" d="M82.9396,-515.0047C28.4131,-485.6668 74.9663,-207.5 141,-207.5"/>
<polygon fill="#000000" stroke="#000000" points="83.2941,-515.0925 91.9166,-521.8677 88.1471,-516.2963 93,-517.5 93,-517.5 93,-517.5 88.1471,-516.2963 94.0834,-513.1323 83.2941,-515.0925 83.2941,-515.0925"/>
<text text-anchor="start" x="7.268" y="-527.5" font-family="Arial" font-size="10.00" fill="#000000">Detected Relation</text>
</g>
<!-- log -->
<g id="node2" class="node">
<title>log</title>
<polygon fill="#efefef" stroke="transparent" points="138,-932.5 138,-967.5 304,-967.5 304,-932.5 138,-932.5"/>
<polygon fill="none" stroke="#000000" points="138,-932.5 138,-967.5 304,-967.5 304,-932.5 138,-932.5"/>
<text text-anchor="start" x="160.3698" y="-945.3" font-family="Arial Bold" font-size="18.00" fill="#000000">log</text>
<text text-anchor="start" x="184.3764" y="-945.3" font-family="Arial" font-size="14.00" fill="#000000"> </text>
<text text-anchor="start" x="188.267" y="-945.3" font-family="Arial" font-size="14.00" fill="#666666">[BASE TABLE]</text>
<polygon fill="none" stroke="#000000" points="138,-902.5 138,-932.5 304,-932.5 304,-902.5 138,-902.5"/>
<text text-anchor="start" x="145" y="-913.9" font-family="Arial" font-size="14.00" fill="#000000">id </text>
<text text-anchor="start" x="159.7798" y="-913.9" font-family="Arial" font-size="14.00" fill="#666666">[bigint]</text>
<polygon fill="none" stroke="#000000" points="138,-872.5 138,-902.5 304,-902.5 304,-872.5 138,-872.5"/>
<text text-anchor="start" x="145" y="-883.9" font-family="Arial" font-size="14.00" fill="#000000">user_id </text>
<text text-anchor="start" x="194.7882" y="-883.9" font-family="Arial" font-size="14.00" fill="#666666">[int]</text>
<polygon fill="none" stroke="#000000" points="138,-842.5 138,-872.5 304,-872.5 304,-842.5 138,-842.5"/>
<text text-anchor="start" x="145" y="-853.9" font-family="Arial" font-size="14.00" fill="#000000">post_id </text>
<text text-anchor="start" x="194.0182" y="-853.9" font-family="Arial" font-size="14.00" fill="#666666">[bigint]</text>
<polygon fill="none" stroke="#000000" points="138,-812.5 138,-842.5 304,-842.5 304,-812.5 138,-812.5"/>
<text text-anchor="start" x="145" y="-823.9" font-family="Arial" font-size="14.00" fill="#000000">comment_id </text>
<text text-anchor="start" x="225.122" y="-823.9" font-family="Arial" font-size="14.00" fill="#666666">[bigint]</text>
<polygon fill="none" stroke="#000000" points="138,-782.5 138,-812.5 304,-812.5 304,-782.5 138,-782.5"/>
<text text-anchor="start" x="144.7644" y="-793.9" font-family="Arial" font-size="14.00" fill="#000000">comment_star_id </text>
<text text-anchor="start" x="256.0028" y="-793.9" font-family="Arial" font-size="14.00" fill="#666666">[bigint]</text>
<polygon fill="none" stroke="#000000" points="138,-752.5 138,-782.5 304,-782.5 304,-752.5 138,-752.5"/>
<text text-anchor="start" x="145" y="-763.9" font-family="Arial" font-size="14.00" fill="#000000">payload </text>
<text text-anchor="start" x="197.9102" y="-763.9" font-family="Arial" font-size="14.00" fill="#666666">[text]</text>
<polygon fill="none" stroke="#000000" points="138,-722.5 138,-752.5 304,-752.5 304,-722.5 138,-722.5"/>
<text text-anchor="start" x="145" y="-733.9" font-family="Arial" font-size="14.00" fill="#000000">created </text>
<text text-anchor="start" x="195.5722" y="-733.9" font-family="Arial" font-size="14.00" fill="#666666">[datetime]</text>
</g>
<!-- log&#45;&gt;comment_star -->
<g id="edge1" class="edge">
<title>log:comment_star_id&#45;&gt;comment_star:id</title>
<path fill="none" stroke="#000000" stroke-dasharray="5,2" d="M128.0148,-796.3895C88.4624,-786.7771 106.7041,-717.1174 138,-680 199.0409,-607.6045 286.9591,-716.3955 348,-644 375.6465,-611.2108 390.8889,-547.5 348,-547.5"/>
<polygon fill="#000000" stroke="#000000" points="128.0613,-796.3946 137.5026,-801.9724 133.0306,-796.9473 138,-797.5 138,-797.5 138,-797.5 133.0306,-796.9473 138.4974,-793.0276 128.0613,-796.3946 128.0613,-796.3946"/>
<text text-anchor="start" x="52.268" y="-807.5" font-family="Arial" font-size="10.00" fill="#000000">Detected Relation</text>
</g>
</g>
</svg>
