<?xml version="1.0" encoding="UTF-8" standalone="no"?>
<!DOCTYPE svg PUBLIC "-//W3C//DTD SVG 1.1//EN"
 "http://www.w3.org/Graphics/SVG/1.1/DTD/svg11.dtd">
<!-- Generated by graphviz version 12.1.2 (20240928.0832)
 -->
<!-- Title: comment_star Pages: 1 -->
<svg width="389pt" height="1037pt"
 viewBox="0.00 0.00 389.15 1037.20" xmlns="http://www.w3.org/2000/svg" xmlns:xlink="http://www.w3.org/1999/xlink">
<g id="graph0" class="graph" transform="scale(1 1) rotate(0) translate(4 1033.2)">
<title>comment_star</title>
<polygon fill="white" stroke="none" points="-4,4 -4,-1033.2 385.15,-1033.2 385.15,4 -4,4"/>
<!-- comment_star -->
<g id="node1" class="node">
<title>comment_star</title>
<polygon fill="#efefef" stroke="none" points="46.2,-573.8 46.2,-609.4 286.66,-609.4 286.66,-573.8 46.2,-573.8"/>
<polygon fill="none" stroke="black" points="46.2,-573.8 46.2,-609.4 286.66,-609.4 286.66,-573.8 46.2,-573.8"/>
<text text-anchor="start" x="53.2" y="-587.2" font-family="Arial Bold" font-size="18.00">comment_star</text>
<text text-anchor="start" x="155.17" y="-587.2" font-family="Arial" font-size="14.00">    </text>
<text text-anchor="start" x="186.29" y="-587.2" font-family="Arial" font-size="14.00" fill="#666666">[BASE TABLE]</text>
<polygon fill="none" stroke="black" points="46.2,-543 46.2,-573.8 286.66,-573.8 286.66,-543 46.2,-543"/>
<text text-anchor="start" x="53.2" y="-555.2" font-family="Arial" font-size="14.00">id </text>
<text text-anchor="start" x="67.99" y="-555.2" font-family="Arial" font-size="14.00" fill="#666666">[bigint]</text>
<polygon fill="none" stroke="black" points="46.2,-512.2 46.2,-543 286.66,-543 286.66,-512.2 46.2,-512.2"/>
<text text-anchor="start" x="53.2" y="-524.4" font-family="Arial" font-size="14.00">user_id </text>
<text text-anchor="start" x="103.01" y="-524.4" font-family="Arial" font-size="14.00" fill="#666666">[int]</text>
<polygon fill="none" stroke="black" points="46.2,-481.4 46.2,-512.2 286.66,-512.2 286.66,-481.4 46.2,-481.4"/>
<text text-anchor="start" x="53.2" y="-493.6" font-family="Arial" font-size="14.00">comment_post_id </text>
<text text-anchor="start" x="167.59" y="-493.6" font-family="Arial" font-size="14.00" fill="#666666">[bigint]</text>
<polygon fill="none" stroke="black" points="46.2,-450.6 46.2,-481.4 286.66,-481.4 286.66,-450.6 46.2,-450.6"/>
<text text-anchor="start" x="53.2" y="-462.8" font-family="Arial" font-size="14.00">comment_user_id </text>
<text text-anchor="start" x="168.37" y="-462.8" font-family="Arial" font-size="14.00" fill="#666666">[int]</text>
<polygon fill="none" stroke="black" points="46.2,-419.8 46.2,-450.6 286.66,-450.6 286.66,-419.8 46.2,-419.8"/>
<text text-anchor="start" x="53.2" y="-432" font-family="Arial" font-size="14.00">created </text>
<text text-anchor="start" x="103.79" y="-432" font-family="Arial" font-size="14.00" fill="#666666">[timestamp]</text>
<polygon fill="none" stroke="black" points="46.2,-389 46.2,-419.8 286.66,-419.8 286.66,-389 46.2,-389"/>
<text text-anchor="start" x="53.2" y="-401.2" font-family="Arial" font-size="14.00">updated </text>
<text text-anchor="start" x="107.7" y="-401.2" font-family="Arial" font-size="14.00" fill="#666666">[timestamp]</text>
<polygon fill="none" stroke="black" stroke-width="3" points="44.7,-387.5 44.7,-610.9 288.16,-610.9 288.16,-387.5 44.7,-387.5"/>
</g>
<!-- user -->
<g id="node3" class="node">
<title>user</title>
<polygon fill="#efefef" stroke="none" points="82.19,-228 82.19,-263.6 250.67,-263.6 250.67,-228 82.19,-228"/>
<polygon fill="none" stroke="black" points="82.19,-228 82.19,-263.6 250.67,-263.6 250.67,-228 82.19,-228"/>
<text text-anchor="start" x="89.19" y="-241.4" font-family="Arial Bold" font-size="18.00">user</text>
<text text-anchor="start" x="119.18" y="-241.4" font-family="Arial" font-size="14.00">    </text>
<text text-anchor="start" x="150.3" y="-241.4" font-family="Arial" font-size="14.00" fill="#666666">[BASE TABLE]</text>
<polygon fill="none" stroke="black" points="82.19,-197.2 82.19,-228 250.67,-228 250.67,-197.2 82.19,-197.2"/>
<text text-anchor="start" x="89.19" y="-209.4" font-family="Arial" font-size="14.00">id </text>
<text text-anchor="start" x="103.98" y="-209.4" font-family="Arial" font-size="14.00" fill="#666666">[int]</text>
<polygon fill="none" stroke="black" points="82.19,-166.4 82.19,-197.2 250.67,-197.2 250.67,-166.4 82.19,-166.4"/>
<text text-anchor="start" x="89.19" y="-178.6" font-family="Arial" font-size="14.00">username </text>
<text text-anchor="start" x="155.34" y="-178.6" font-family="Arial" font-size="14.00" fill="#666666">[varchar(50)]</text>
<polygon fill="none" stroke="black" points="82.19,-135.6 82.19,-166.4 250.67,-166.4 250.67,-135.6 82.19,-135.6"/>
<text text-anchor="start" x="89.19" y="-147.8" font-family="Arial" font-size="14.00">password </text>
<text text-anchor="start" x="153" y="-147.8" font-family="Arial" font-size="14.00" fill="#666666">[varchar(50)]</text>
<polygon fill="none" stroke="black" points="82.19,-104.8 82.19,-135.6 250.67,-135.6 250.67,-104.8 82.19,-104.8"/>
<text text-anchor="start" x="89.19" y="-117" font-family="Arial" font-size="14.00">email </text>
<text text-anchor="start" x="126.54" y="-117" font-family="Arial" font-size="14.00" fill="#666666">[varchar(355)]</text>
<polygon fill="none" stroke="black" points="82.19,-74 82.19,-104.8 250.67,-104.8 250.67,-74 82.19,-74"/>
<text text-anchor="start" x="89.19" y="-86.2" font-family="Arial" font-size="14.00">created </text>
<text text-anchor="start" x="139.78" y="-86.2" font-family="Arial" font-size="14.00" fill="#666666">[timestamp]</text>
<polygon fill="none" stroke="black" points="82.19,-43.2 82.19,-74 250.67,-74 250.67,-43.2 82.19,-43.2"/>
<text text-anchor="start" x="89.19" y="-55.4" font-family="Arial" font-size="14.00">updated </text>
<text text-anchor="start" x="143.69" y="-55.4" font-family="Arial" font-size="14.00" fill="#666666">[timestamp]</text>
</g>
<!-- comment_star&#45;&gt;user -->
<g id="edge2" class="edge">
<title>comment_star:user_id&#45;&gt;user:id</title>
<path fill="none" stroke="black" stroke-dasharray="5,2" d="M297.58,-525.25C354.37,-496.42 318.55,-212.6 251.67,-212.6"/>
<polygon fill="black" stroke="black" points="297.72,-525.21 286.95,-523.14 292.52,-526.45 288.31,-527.45 288.31,-527.45 288.31,-527.45 292.52,-526.45 289.02,-531.9 297.72,-525.21"/>
<text text-anchor="start" x="294.66" y="-537.6" font-family="Arial" font-size="10.00">Detected Relation</text>
</g>
<!-- log -->
<g id="node2" class="node">
<title>log</title>
<polygon fill="#efefef" stroke="none" points="83.17,-950.4 83.17,-986 249.69,-986 249.69,-950.4 83.17,-950.4"/>
<polygon fill="none" stroke="black" points="83.17,-950.4 83.17,-986 249.69,-986 249.69,-950.4 83.17,-950.4"/>
<text text-anchor="start" x="92.68" y="-963.8" font-family="Arial Bold" font-size="18.00">log</text>
<text text-anchor="start" x="115.69" y="-963.8" font-family="Arial" font-size="14.00">    </text>
<text text-anchor="start" x="146.8" y="-963.8" font-family="Arial" font-size="14.00" fill="#666666">[BASE TABLE]</text>
<polygon fill="none" stroke="black" points="83.17,-919.6 83.17,-950.4 249.69,-950.4 249.69,-919.6 83.17,-919.6"/>
<text text-anchor="start" x="90.17" y="-931.8" font-family="Arial" font-size="14.00">id </text>
<text text-anchor="start" x="104.96" y="-931.8" font-family="Arial" font-size="14.00" fill="#666666">[bigint]</text>
<polygon fill="none" stroke="black" points="83.17,-888.8 83.17,-919.6 249.69,-919.6 249.69,-888.8 83.17,-888.8"/>
<text text-anchor="start" x="90.17" y="-901" font-family="Arial" font-size="14.00">user_id </text>
<text text-anchor="start" x="139.98" y="-901" font-family="Arial" font-size="14.00" fill="#666666">[int]</text>
<polygon fill="none" stroke="black" points="83.17,-858 83.17,-888.8 249.69,-888.8 249.69,-858 83.17,-858"/>
<text text-anchor="start" x="90.17" y="-870.2" font-family="Arial" font-size="14.00">post_id </text>
<text text-anchor="start" x="139.21" y="-870.2" font-family="Arial" font-size="14.00" fill="#666666">[bigint]</text>
<polygon fill="none" stroke="black" points="83.17,-827.2 83.17,-858 249.69,-858 249.69,-827.2 83.17,-827.2"/>
<text text-anchor="start" x="90.17" y="-839.4" font-family="Arial" font-size="14.00">comment_id </text>
<text text-anchor="start" x="170.32" y="-839.4" font-family="Arial" font-size="14.00" fill="#666666">[bigint]</text>
<polygon fill="none" stroke="black" points="83.17,-796.4 83.17,-827.2 249.69,-827.2 249.69,-796.4 83.17,-796.4"/>
<text text-anchor="start" x="90.17" y="-808.6" font-family="Arial" font-size="14.00">comment_star_id </text>
<text text-anchor="start" x="201.44" y="-808.6" font-family="Arial" font-size="14.00" fill="#666666">[bigint]</text>
<polygon fill="none" stroke="black" points="83.17,-765.6 83.17,-796.4 249.69,-796.4 249.69,-765.6 83.17,-765.6"/>
<text text-anchor="start" x="90.17" y="-777.8" font-family="Arial" font-size="14.00">payload </text>
<text text-anchor="start" x="143.1" y="-777.8" font-family="Arial" font-size="14.00" fill="#666666">[text]</text>
<polygon fill="none" stroke="black" points="83.17,-734.8 83.17,-765.6 249.69,-765.6 249.69,-734.8 83.17,-734.8"/>
<text text-anchor="start" x="90.17" y="-747" font-family="Arial" font-size="14.00">created </text>
<text text-anchor="start" x="140.76" y="-747" font-family="Arial" font-size="14.00" fill="#666666">[datetime]</text>
</g>
<!-- log&#45;&gt;comment_star -->
<g id="edge1" class="edge">
<title>log:comment_star_id&#45;&gt;comment_star:id</title>
<path fill="none" stroke="black" stroke-dasharray="5,2" d="M260.81,-811.12C366.6,-796.69 398.03,-558.4 287.66,-558.4"/>
<polygon fill="black" stroke="black" points="261,-811.1 250.72,-807.29 255.68,-811.46 251.36,-811.75 251.36,-811.75 251.36,-811.75 255.68,-811.46 251.32,-816.27 261,-811.1"/>
<text text-anchor="start" x="257.69" y="-821.8" font-family="Arial" font-size="10.00">Detected Relation</text>
</g>
</g>
</svg>
