<?xml version="1.0" encoding="UTF-8" standalone="no"?>
<!DOCTYPE svg PUBLIC "-//W3C//DTD SVG 1.1//EN"
 "http://www.w3.org/Graphics/SVG/1.1/DTD/svg11.dtd">
<!-- Generated by graphviz version 12.1.2 (20240928.0832)
 -->
<!-- Title: comment Pages: 1 -->
<svg width="628pt" height="1068pt"
 viewBox="0.00 0.00 628.22 1068.00" xmlns="http://www.w3.org/2000/svg" xmlns:xlink="http://www.w3.org/1999/xlink">
<g id="graph0" class="graph" transform="scale(1 1) rotate(0) translate(4 1064)">
<title>comment</title>
<polygon fill="white" stroke="none" points="-4,4 -4,-1064 624.22,-1064 624.22,4 -4,4"/>
<!-- comment -->
<g id="node1" class="node">
<title>comment</title>
<polygon fill="#efefef" stroke="none" points="230.04,-604.6 230.04,-640.2 435.51,-640.2 435.51,-604.6 230.04,-604.6"/>
<polygon fill="none" stroke="black" points="230.04,-604.6 230.04,-640.2 435.51,-640.2 435.51,-604.6 230.04,-604.6"/>
<text text-anchor="start" x="237.04" y="-618" font-family="Arial Bold" font-size="18.00">comment</text>
<text text-anchor="start" x="304.02" y="-618" font-family="Arial" font-size="14.00">    </text>
<text text-anchor="start" x="335.14" y="-618" font-family="Arial" font-size="14.00" fill="#666666">[BASE TABLE]</text>
<polygon fill="none" stroke="black" points="230.04,-573.8 230.04,-604.6 435.51,-604.6 435.51,-573.8 230.04,-573.8"/>
<text text-anchor="start" x="237.04" y="-586" font-family="Arial" font-size="14.00">id </text>
<text text-anchor="start" x="251.83" y="-586" font-family="Arial" font-size="14.00" fill="#666666">[bigint]</text>
<polygon fill="none" stroke="black" points="230.04,-543 230.04,-573.8 435.51,-573.8 435.51,-543 230.04,-543"/>
<text text-anchor="start" x="237.04" y="-555.2" font-family="Arial" font-size="14.00">post_id </text>
<text text-anchor="start" x="286.08" y="-555.2" font-family="Arial" font-size="14.00" fill="#666666">[bigint]</text>
<polygon fill="none" stroke="black" points="230.04,-512.2 230.04,-543 435.51,-543 435.51,-512.2 230.04,-512.2"/>
<text text-anchor="start" x="237.04" y="-524.4" font-family="Arial" font-size="14.00">user_id </text>
<text text-anchor="start" x="286.85" y="-524.4" font-family="Arial" font-size="14.00" fill="#666666">[int]</text>
<polygon fill="none" stroke="black" points="230.04,-481.4 230.04,-512.2 435.51,-512.2 435.51,-481.4 230.04,-481.4"/>
<text text-anchor="start" x="237.04" y="-493.6" font-family="Arial" font-size="14.00">comment </text>
<text text-anchor="start" x="298.5" y="-493.6" font-family="Arial" font-size="14.00" fill="#666666">[text]</text>
<polygon fill="none" stroke="black" points="230.04,-450.6 230.04,-481.4 435.51,-481.4 435.51,-450.6 230.04,-450.6"/>
<text text-anchor="start" x="237.04" y="-462.8" font-family="Arial" font-size="14.00">created </text>
<text text-anchor="start" x="287.63" y="-462.8" font-family="Arial" font-size="14.00" fill="#666666">[datetime]</text>
<polygon fill="none" stroke="black" points="230.04,-419.8 230.04,-450.6 435.51,-450.6 435.51,-419.8 230.04,-419.8"/>
<text text-anchor="start" x="237.04" y="-432" font-family="Arial" font-size="14.00">updated </text>
<text text-anchor="start" x="291.54" y="-432" font-family="Arial" font-size="14.00" fill="#666666">[datetime]</text>
<polygon fill="none" stroke="black" stroke-width="3" points="228.54,-418.3 228.54,-641.7 437.01,-641.7 437.01,-418.3 228.54,-418.3"/>
</g>
<!-- post -->
<g id="node3" class="node">
<title>post</title>
<polygon fill="#efefef" stroke="none" points="43.2,-258.8 43.2,-294.4 304.35,-294.4 304.35,-258.8 43.2,-258.8"/>
<polygon fill="none" stroke="black" points="43.2,-258.8 43.2,-294.4 304.35,-294.4 304.35,-258.8 43.2,-258.8"/>
<text text-anchor="start" x="96.53" y="-272.2" font-family="Arial Bold" font-size="18.00">post</text>
<text text-anchor="start" x="126.53" y="-272.2" font-family="Arial" font-size="14.00">    </text>
<text text-anchor="start" x="157.65" y="-272.2" font-family="Arial" font-size="14.00" fill="#666666">[BASE TABLE]</text>
<polygon fill="none" stroke="black" points="43.2,-228 43.2,-258.8 304.35,-258.8 304.35,-228 43.2,-228"/>
<text text-anchor="start" x="50.2" y="-240.2" font-family="Arial" font-size="14.00">id </text>
<text text-anchor="start" x="64.99" y="-240.2" font-family="Arial" font-size="14.00" fill="#666666">[bigint]</text>
<polygon fill="none" stroke="black" points="43.2,-197.2 43.2,-228 304.35,-228 304.35,-197.2 43.2,-197.2"/>
<text text-anchor="start" x="50.2" y="-209.4" font-family="Arial" font-size="14.00">user_id </text>
<text text-anchor="start" x="100.01" y="-209.4" font-family="Arial" font-size="14.00" fill="#666666">[int]</text>
<polygon fill="none" stroke="black" points="43.2,-166.4 43.2,-197.2 304.35,-197.2 304.35,-166.4 43.2,-166.4"/>
<text text-anchor="start" x="50.2" y="-178.6" font-family="Arial" font-size="14.00">title </text>
<text text-anchor="start" x="75.88" y="-178.6" font-family="Arial" font-size="14.00" fill="#666666">[varchar(255)]</text>
<polygon fill="none" stroke="black" points="43.2,-135.6 43.2,-166.4 304.35,-166.4 304.35,-135.6 43.2,-135.6"/>
<text text-anchor="start" x="50.2" y="-147.8" font-family="Arial" font-size="14.00">body </text>
<text text-anchor="start" x="84.45" y="-147.8" font-family="Arial" font-size="14.00" fill="#666666">[text]</text>
<polygon fill="none" stroke="black" points="43.2,-104.8 43.2,-135.6 304.35,-135.6 304.35,-104.8 43.2,-104.8"/>
<text text-anchor="start" x="50.2" y="-117" font-family="Arial" font-size="14.00">post_type </text>
<text text-anchor="start" x="114.8" y="-117" font-family="Arial" font-size="14.00" fill="#666666">[enum(&#39;public&#39;,&#39;private&#39;,&#39;draft&#39;)]</text>
<polygon fill="none" stroke="black" points="43.2,-74 43.2,-104.8 304.35,-104.8 304.35,-74 43.2,-74"/>
<text text-anchor="start" x="50.2" y="-86.2" font-family="Arial" font-size="14.00">created </text>
<text text-anchor="start" x="100.79" y="-86.2" font-family="Arial" font-size="14.00" fill="#666666">[datetime]</text>
<polygon fill="none" stroke="black" points="43.2,-43.2 43.2,-74 304.35,-74 304.35,-43.2 43.2,-43.2"/>
<text text-anchor="start" x="50.2" y="-55.4" font-family="Arial" font-size="14.00">updated </text>
<text text-anchor="start" x="104.7" y="-55.4" font-family="Arial" font-size="14.00" fill="#666666">[datetime]</text>
</g>
<!-- comment&#45;&gt;post -->
<g id="edge2" class="edge">
<title>comment:post_id&#45;&gt;post:id</title>
<path fill="none" stroke="black" stroke-dasharray="5,2" d="M218.7,-557.72C150.45,-548.13 188.2,-439.96 230.04,-373.6 249.61,-342.56 284.7,-368.59 304.35,-337.6 326.78,-302.24 347.22,-243.4 305.35,-243.4"/>
<polygon fill="black" stroke="black" points="218.73,-557.72 228.41,-562.87 224.05,-558.07 228.37,-558.36 228.37,-558.36 228.37,-558.36 224.05,-558.07 229,-553.89 218.73,-557.72"/>
<text text-anchor="start" x="142.55" y="-568.4" font-family="Arial" font-size="10.00">Detected Relation</text>
</g>
<!-- user -->
<g id="node4" class="node">
<title>user</title>
<polygon fill="#efefef" stroke="none" points="408.54,-243.4 408.54,-279 577.02,-279 577.02,-243.4 408.54,-243.4"/>
<polygon fill="none" stroke="black" points="408.54,-243.4 408.54,-279 577.02,-279 577.02,-243.4 408.54,-243.4"/>
<text text-anchor="start" x="415.54" y="-256.8" font-family="Arial Bold" font-size="18.00">user</text>
<text text-anchor="start" x="445.53" y="-256.8" font-family="Arial" font-size="14.00">    </text>
<text text-anchor="start" x="476.64" y="-256.8" font-family="Arial" font-size="14.00" fill="#666666">[BASE TABLE]</text>
<polygon fill="none" stroke="black" points="408.54,-212.6 408.54,-243.4 577.02,-243.4 577.02,-212.6 408.54,-212.6"/>
<text text-anchor="start" x="415.54" y="-224.8" font-family="Arial" font-size="14.00">id </text>
<text text-anchor="start" x="430.32" y="-224.8" font-family="Arial" font-size="14.00" fill="#666666">[int]</text>
<polygon fill="none" stroke="black" points="408.54,-181.8 408.54,-212.6 577.02,-212.6 577.02,-181.8 408.54,-181.8"/>
<text text-anchor="start" x="415.54" y="-194" font-family="Arial" font-size="14.00">username </text>
<text text-anchor="start" x="481.68" y="-194" font-family="Arial" font-size="14.00" fill="#666666">[varchar(50)]</text>
<polygon fill="none" stroke="black" points="408.54,-151 408.54,-181.8 577.02,-181.8 577.02,-151 408.54,-151"/>
<text text-anchor="start" x="415.54" y="-163.2" font-family="Arial" font-size="14.00">password </text>
<text text-anchor="start" x="479.34" y="-163.2" font-family="Arial" font-size="14.00" fill="#666666">[varchar(50)]</text>
<polygon fill="none" stroke="black" points="408.54,-120.2 408.54,-151 577.02,-151 577.02,-120.2 408.54,-120.2"/>
<text text-anchor="start" x="415.54" y="-132.4" font-family="Arial" font-size="14.00">email </text>
<text text-anchor="start" x="452.88" y="-132.4" font-family="Arial" font-size="14.00" fill="#666666">[varchar(355)]</text>
<polygon fill="none" stroke="black" points="408.54,-89.4 408.54,-120.2 577.02,-120.2 577.02,-89.4 408.54,-89.4"/>
<text text-anchor="start" x="415.54" y="-101.6" font-family="Arial" font-size="14.00">created </text>
<text text-anchor="start" x="466.12" y="-101.6" font-family="Arial" font-size="14.00" fill="#666666">[timestamp]</text>
<polygon fill="none" stroke="black" points="408.54,-58.6 408.54,-89.4 577.02,-89.4 577.02,-58.6 408.54,-58.6"/>
<text text-anchor="start" x="415.54" y="-70.8" font-family="Arial" font-size="14.00">updated </text>
<text text-anchor="start" x="470.03" y="-70.8" font-family="Arial" font-size="14.00" fill="#666666">[timestamp]</text>
</g>
<!-- comment&#45;&gt;user -->
<g id="edge3" class="edge">
<title>comment:user_id&#45;&gt;user:id</title>
<path fill="none" stroke="black" stroke-dasharray="5,2" d="M446.68,-526.83C499.29,-518.08 451.2,-436.37 435.51,-373.6 429.26,-348.57 414.84,-347.22 408.54,-322.2 398.3,-281.6 365.67,-228 407.54,-228"/>
<polygon fill="black" stroke="black" points="446.82,-526.82 436.51,-523.09 441.5,-527.22 437.18,-527.55 437.18,-527.55 437.18,-527.55 441.5,-527.22 437.18,-532.06 446.82,-526.82"/>
<text text-anchor="start" x="443.51" y="-537.6" font-family="Arial" font-size="10.00">Detected Relation</text>
</g>
<!-- log -->
<g id="node2" class="node">
<title>log</title>
<polygon fill="#efefef" stroke="none" points="249.52,-981.2 249.52,-1016.8 416.03,-1016.8 416.03,-981.2 249.52,-981.2"/>
<polygon fill="none" stroke="black" points="249.52,-981.2 249.52,-1016.8 416.03,-1016.8 416.03,-981.2 249.52,-981.2"/>
<text text-anchor="start" x="259.03" y="-994.6" font-family="Arial Bold" font-size="18.00">log</text>
<text text-anchor="start" x="282.03" y="-994.6" font-family="Arial" font-size="14.00">    </text>
<text text-anchor="start" x="313.15" y="-994.6" font-family="Arial" font-size="14.00" fill="#666666">[BASE TABLE]</text>
<polygon fill="none" stroke="black" points="249.52,-950.4 249.52,-981.2 416.03,-981.2 416.03,-950.4 249.52,-950.4"/>
<text text-anchor="start" x="256.52" y="-962.6" font-family="Arial" font-size="14.00">id </text>
<text text-anchor="start" x="271.3" y="-962.6" font-family="Arial" font-size="14.00" fill="#666666">[bigint]</text>
<polygon fill="none" stroke="black" points="249.52,-919.6 249.52,-950.4 416.03,-950.4 416.03,-919.6 249.52,-919.6"/>
<text text-anchor="start" x="256.52" y="-931.8" font-family="Arial" font-size="14.00">user_id </text>
<text text-anchor="start" x="306.32" y="-931.8" font-family="Arial" font-size="14.00" fill="#666666">[int]</text>
<polygon fill="none" stroke="black" points="249.52,-888.8 249.52,-919.6 416.03,-919.6 416.03,-888.8 249.52,-888.8"/>
<text text-anchor="start" x="256.52" y="-901" font-family="Arial" font-size="14.00">post_id </text>
<text text-anchor="start" x="305.55" y="-901" font-family="Arial" font-size="14.00" fill="#666666">[bigint]</text>
<polygon fill="none" stroke="black" points="249.52,-858 249.52,-888.8 416.03,-888.8 416.03,-858 249.52,-858"/>
<text text-anchor="start" x="256.52" y="-870.2" font-family="Arial" font-size="14.00">comment_id </text>
<text text-anchor="start" x="336.66" y="-870.2" font-family="Arial" font-size="14.00" fill="#666666">[bigint]</text>
<polygon fill="none" stroke="black" points="249.52,-827.2 249.52,-858 416.03,-858 416.03,-827.2 249.52,-827.2"/>
<text text-anchor="start" x="256.52" y="-839.4" font-family="Arial" font-size="14.00">comment_star_id </text>
<text text-anchor="start" x="367.79" y="-839.4" font-family="Arial" font-size="14.00" fill="#666666">[bigint]</text>
<polygon fill="none" stroke="black" points="249.52,-796.4 249.52,-827.2 416.03,-827.2 416.03,-796.4 249.52,-796.4"/>
<text text-anchor="start" x="256.52" y="-808.6" font-family="Arial" font-size="14.00">payload </text>
<text text-anchor="start" x="309.45" y="-808.6" font-family="Arial" font-size="14.00" fill="#666666">[text]</text>
<polygon fill="none" stroke="black" points="249.52,-765.6 249.52,-796.4 416.03,-796.4 416.03,-765.6 249.52,-765.6"/>
<text text-anchor="start" x="256.52" y="-777.8" font-family="Arial" font-size="14.00">created </text>
<text text-anchor="start" x="307.1" y="-777.8" font-family="Arial" font-size="14.00" fill="#666666">[datetime]</text>
</g>
<!-- log&#45;&gt;comment -->
<g id="edge1" class="edge">
<title>log:comment_id&#45;&gt;comment:id</title>
<path fill="none" stroke="black" stroke-dasharray="5,2" d="M427.18,-872.77C544.6,-858.07 559.66,-589.2 436.51,-589.2"/>
<polygon fill="black" stroke="black" points="427.35,-872.76 417.09,-868.89 422.03,-873.09 417.7,-873.36 417.7,-873.36 417.7,-873.36 422.03,-873.09 417.65,-877.87 427.35,-872.76"/>
<text text-anchor="start" x="424.03" y="-883.4" font-family="Arial" font-size="10.00">Detected Relation</text>
</g>
</g>
</svg>
