<?xml version="1.0" encoding="UTF-8" standalone="no"?>
<!DOCTYPE svg PUBLIC "-//W3C//DTD SVG 1.1//EN"
 "http://www.w3.org/Graphics/SVG/1.1/DTD/svg11.dtd">
<!-- Generated by graphviz version 12.1.2 (20240928.0832)
 -->
<!-- Title: log Pages: 1 -->
<svg width="1283pt" height="725pt"
 viewBox="0.00 0.00 1282.87 725.20" xmlns="http://www.w3.org/2000/svg" xmlns:xlink="http://www.w3.org/1999/xlink">
<g id="graph0" class="graph" transform="scale(1 1) rotate(0) translate(4 721.2)">
<title>log</title>
<polygon fill="white" stroke="none" points="-4,4 -4,-721.2 1278.87,-721.2 1278.87,4 -4,4"/>
<!-- log -->
<g id="node1" class="node">
<title>log</title>
<polygon fill="#efefef" stroke="none" points="532.18,-635.4 532.18,-671 698.7,-671 698.7,-635.4 532.18,-635.4"/>
<polygon fill="none" stroke="black" points="532.18,-635.4 532.18,-671 698.7,-671 698.7,-635.4 532.18,-635.4"/>
<text text-anchor="start" x="541.69" y="-648.8" font-family="Arial Bold" font-size="18.00">log</text>
<text text-anchor="start" x="564.69" y="-648.8" font-family="Arial" font-size="14.00">    </text>
<text text-anchor="start" x="595.81" y="-648.8" font-family="Arial" font-size="14.00" fill="#666666">[BASE TABLE]</text>
<polygon fill="none" stroke="black" points="532.18,-604.6 532.18,-635.4 698.7,-635.4 698.7,-604.6 532.18,-604.6"/>
<text text-anchor="start" x="539.18" y="-616.8" font-family="Arial" font-size="14.00">id </text>
<text text-anchor="start" x="553.97" y="-616.8" font-family="Arial" font-size="14.00" fill="#666666">[bigint]</text>
<polygon fill="none" stroke="black" points="532.18,-573.8 532.18,-604.6 698.7,-604.6 698.7,-573.8 532.18,-573.8"/>
<text text-anchor="start" x="539.18" y="-586" font-family="Arial" font-size="14.00">user_id </text>
<text text-anchor="start" x="588.99" y="-586" font-family="Arial" font-size="14.00" fill="#666666">[int]</text>
<polygon fill="none" stroke="black" points="532.18,-543 532.18,-573.8 698.7,-573.8 698.7,-543 532.18,-543"/>
<text text-anchor="start" x="539.18" y="-555.2" font-family="Arial" font-size="14.00">post_id </text>
<text text-anchor="start" x="588.21" y="-555.2" font-family="Arial" font-size="14.00" fill="#666666">[bigint]</text>
<polygon fill="none" stroke="black" points="532.18,-512.2 532.18,-543 698.7,-543 698.7,-512.2 532.18,-512.2"/>
<text text-anchor="start" x="539.18" y="-524.4" font-family="Arial" font-size="14.00">comment_id </text>
<text text-anchor="start" x="619.33" y="-524.4" font-family="Arial" font-size="14.00" fill="#666666">[bigint]</text>
<polygon fill="none" stroke="black" points="532.18,-481.4 532.18,-512.2 698.7,-512.2 698.7,-481.4 532.18,-481.4"/>
<text text-anchor="start" x="539.18" y="-493.6" font-family="Arial" font-size="14.00">comment_star_id </text>
<text text-anchor="start" x="650.45" y="-493.6" font-family="Arial" font-size="14.00" fill="#666666">[bigint]</text>
<polygon fill="none" stroke="black" points="532.18,-450.6 532.18,-481.4 698.7,-481.4 698.7,-450.6 532.18,-450.6"/>
<text text-anchor="start" x="539.18" y="-462.8" font-family="Arial" font-size="14.00">payload </text>
<text text-anchor="start" x="592.11" y="-462.8" font-family="Arial" font-size="14.00" fill="#666666">[text]</text>
<polygon fill="none" stroke="black" points="532.18,-419.8 532.18,-450.6 698.7,-450.6 698.7,-419.8 532.18,-419.8"/>
<text text-anchor="start" x="539.18" y="-432" font-family="Arial" font-size="14.00">created </text>
<text text-anchor="start" x="589.77" y="-432" font-family="Arial" font-size="14.00" fill="#666666">[datetime]</text>
<polygon fill="none" stroke="black" stroke-width="3" points="530.68,-418.3 530.68,-672.5 700.2,-672.5 700.2,-418.3 530.68,-418.3"/>
</g>
<!-- user -->
<g id="node2" class="node">
<title>user</title>
<polygon fill="#efefef" stroke="none" points="43.2,-243.4 43.2,-279 211.68,-279 211.68,-243.4 43.2,-243.4"/>
<polygon fill="none" stroke="black" points="43.2,-243.4 43.2,-279 211.68,-279 211.68,-243.4 43.2,-243.4"/>
<text text-anchor="start" x="50.2" y="-256.8" font-family="Arial Bold" font-size="18.00">user</text>
<text text-anchor="start" x="80.19" y="-256.8" font-family="Arial" font-size="14.00">    </text>
<text text-anchor="start" x="111.31" y="-256.8" font-family="Arial" font-size="14.00" fill="#666666">[BASE TABLE]</text>
<polygon fill="none" stroke="black" points="43.2,-212.6 43.2,-243.4 211.68,-243.4 211.68,-212.6 43.2,-212.6"/>
<text text-anchor="start" x="50.2" y="-224.8" font-family="Arial" font-size="14.00">id </text>
<text text-anchor="start" x="64.99" y="-224.8" font-family="Arial" font-size="14.00" fill="#666666">[int]</text>
<polygon fill="none" stroke="black" points="43.2,-181.8 43.2,-212.6 211.68,-212.6 211.68,-181.8 43.2,-181.8"/>
<text text-anchor="start" x="50.2" y="-194" font-family="Arial" font-size="14.00">username </text>
<text text-anchor="start" x="116.34" y="-194" font-family="Arial" font-size="14.00" fill="#666666">[varchar(50)]</text>
<polygon fill="none" stroke="black" points="43.2,-151 43.2,-181.8 211.68,-181.8 211.68,-151 43.2,-151"/>
<text text-anchor="start" x="50.2" y="-163.2" font-family="Arial" font-size="14.00">password </text>
<text text-anchor="start" x="114.01" y="-163.2" font-family="Arial" font-size="14.00" fill="#666666">[varchar(50)]</text>
<polygon fill="none" stroke="black" points="43.2,-120.2 43.2,-151 211.68,-151 211.68,-120.2 43.2,-120.2"/>
<text text-anchor="start" x="50.2" y="-132.4" font-family="Arial" font-size="14.00">email </text>
<text text-anchor="start" x="87.54" y="-132.4" font-family="Arial" font-size="14.00" fill="#666666">[varchar(355)]</text>
<polygon fill="none" stroke="black" points="43.2,-89.4 43.2,-120.2 211.68,-120.2 211.68,-89.4 43.2,-89.4"/>
<text text-anchor="start" x="50.2" y="-101.6" font-family="Arial" font-size="14.00">created </text>
<text text-anchor="start" x="100.79" y="-101.6" font-family="Arial" font-size="14.00" fill="#666666">[timestamp]</text>
<polygon fill="none" stroke="black" points="43.2,-58.6 43.2,-89.4 211.68,-89.4 211.68,-58.6 43.2,-58.6"/>
<text text-anchor="start" x="50.2" y="-70.8" font-family="Arial" font-size="14.00">updated </text>
<text text-anchor="start" x="104.7" y="-70.8" font-family="Arial" font-size="14.00" fill="#666666">[timestamp]</text>
</g>
<!-- log&#45;&gt;user -->
<g id="edge1" class="edge">
<title>log:user_id&#45;&gt;user:id</title>
<path fill="none" stroke="black" stroke-dasharray="5,2" d="M520.87,-589.04C367.47,-584.07 356.94,-467.17 263.44,-337.6 232.03,-294.07 266.36,-228 212.68,-228"/>
<polygon fill="black" stroke="black" points="520.85,-589.04 530.77,-593.69 526.18,-589.12 530.51,-589.19 530.51,-589.19 530.51,-589.19 526.18,-589.12 530.92,-584.7 520.85,-589.04"/>
<text text-anchor="start" x="444.69" y="-599.2" font-family="Arial" font-size="10.00">Detected Relation</text>
</g>
<!-- post -->
<g id="node3" class="node">
<title>post</title>
<polygon fill="#efefef" stroke="none" points="315.86,-258.8 315.86,-294.4 577.02,-294.4 577.02,-258.8 315.86,-258.8"/>
<polygon fill="none" stroke="black" points="315.86,-258.8 315.86,-294.4 577.02,-294.4 577.02,-258.8 315.86,-258.8"/>
<text text-anchor="start" x="369.19" y="-272.2" font-family="Arial Bold" font-size="18.00">post</text>
<text text-anchor="start" x="399.2" y="-272.2" font-family="Arial" font-size="14.00">    </text>
<text text-anchor="start" x="430.31" y="-272.2" font-family="Arial" font-size="14.00" fill="#666666">[BASE TABLE]</text>
<polygon fill="none" stroke="black" points="315.86,-228 315.86,-258.8 577.02,-258.8 577.02,-228 315.86,-228"/>
<text text-anchor="start" x="322.86" y="-240.2" font-family="Arial" font-size="14.00">id </text>
<text text-anchor="start" x="337.65" y="-240.2" font-family="Arial" font-size="14.00" fill="#666666">[bigint]</text>
<polygon fill="none" stroke="black" points="315.86,-197.2 315.86,-228 577.02,-228 577.02,-197.2 315.86,-197.2"/>
<text text-anchor="start" x="322.86" y="-209.4" font-family="Arial" font-size="14.00">user_id </text>
<text text-anchor="start" x="372.67" y="-209.4" font-family="Arial" font-size="14.00" fill="#666666">[int]</text>
<polygon fill="none" stroke="black" points="315.86,-166.4 315.86,-197.2 577.02,-197.2 577.02,-166.4 315.86,-166.4"/>
<text text-anchor="start" x="322.86" y="-178.6" font-family="Arial" font-size="14.00">title </text>
<text text-anchor="start" x="348.54" y="-178.6" font-family="Arial" font-size="14.00" fill="#666666">[varchar(255)]</text>
<polygon fill="none" stroke="black" points="315.86,-135.6 315.86,-166.4 577.02,-166.4 577.02,-135.6 315.86,-135.6"/>
<text text-anchor="start" x="322.86" y="-147.8" font-family="Arial" font-size="14.00">body </text>
<text text-anchor="start" x="357.11" y="-147.8" font-family="Arial" font-size="14.00" fill="#666666">[text]</text>
<polygon fill="none" stroke="black" points="315.86,-104.8 315.86,-135.6 577.02,-135.6 577.02,-104.8 315.86,-104.8"/>
<text text-anchor="start" x="322.86" y="-117" font-family="Arial" font-size="14.00">post_type </text>
<text text-anchor="start" x="387.46" y="-117" font-family="Arial" font-size="14.00" fill="#666666">[enum(&#39;public&#39;,&#39;private&#39;,&#39;draft&#39;)]</text>
<polygon fill="none" stroke="black" points="315.86,-74 315.86,-104.8 577.02,-104.8 577.02,-74 315.86,-74"/>
<text text-anchor="start" x="322.86" y="-86.2" font-family="Arial" font-size="14.00">created </text>
<text text-anchor="start" x="373.45" y="-86.2" font-family="Arial" font-size="14.00" fill="#666666">[datetime]</text>
<polygon fill="none" stroke="black" points="315.86,-43.2 315.86,-74 577.02,-74 577.02,-43.2 315.86,-43.2"/>
<text text-anchor="start" x="322.86" y="-55.4" font-family="Arial" font-size="14.00">updated </text>
<text text-anchor="start" x="377.36" y="-55.4" font-family="Arial" font-size="14.00" fill="#666666">[datetime]</text>
</g>
<!-- log&#45;&gt;post -->
<g id="edge2" class="edge">
<title>log:post_id&#45;&gt;post:id</title>
<path fill="none" stroke="black" stroke-dasharray="5,2" d="M520.88,-557.74C453.28,-548.52 498.07,-444.24 532.18,-373.6 543.29,-350.59 565.84,-360.58 577.02,-337.6 595.32,-299.94 619.88,-243.4 578.02,-243.4"/>
<polygon fill="black" stroke="black" points="520.87,-557.74 530.56,-562.87 526.19,-558.08 530.51,-558.36 530.51,-558.36 530.51,-558.36 526.19,-558.08 531.13,-553.89 520.87,-557.74"/>
<text text-anchor="start" x="444.69" y="-568.4" font-family="Arial" font-size="10.00">Detected Relation</text>
</g>
<!-- comment -->
<g id="node4" class="node">
<title>comment</title>
<polygon fill="#efefef" stroke="none" points="681.7,-243.4 681.7,-279 887.17,-279 887.17,-243.4 681.7,-243.4"/>
<polygon fill="none" stroke="black" points="681.7,-243.4 681.7,-279 887.17,-279 887.17,-243.4 681.7,-243.4"/>
<text text-anchor="start" x="688.7" y="-256.8" font-family="Arial Bold" font-size="18.00">comment</text>
<text text-anchor="start" x="755.68" y="-256.8" font-family="Arial" font-size="14.00">    </text>
<text text-anchor="start" x="786.8" y="-256.8" font-family="Arial" font-size="14.00" fill="#666666">[BASE TABLE]</text>
<polygon fill="none" stroke="black" points="681.7,-212.6 681.7,-243.4 887.17,-243.4 887.17,-212.6 681.7,-212.6"/>
<text text-anchor="start" x="688.7" y="-224.8" font-family="Arial" font-size="14.00">id </text>
<text text-anchor="start" x="703.49" y="-224.8" font-family="Arial" font-size="14.00" fill="#666666">[bigint]</text>
<polygon fill="none" stroke="black" points="681.7,-181.8 681.7,-212.6 887.17,-212.6 887.17,-181.8 681.7,-181.8"/>
<text text-anchor="start" x="688.7" y="-194" font-family="Arial" font-size="14.00">post_id </text>
<text text-anchor="start" x="737.74" y="-194" font-family="Arial" font-size="14.00" fill="#666666">[bigint]</text>
<polygon fill="none" stroke="black" points="681.7,-151 681.7,-181.8 887.17,-181.8 887.17,-151 681.7,-151"/>
<text text-anchor="start" x="688.7" y="-163.2" font-family="Arial" font-size="14.00">user_id </text>
<text text-anchor="start" x="738.51" y="-163.2" font-family="Arial" font-size="14.00" fill="#666666">[int]</text>
<polygon fill="none" stroke="black" points="681.7,-120.2 681.7,-151 887.17,-151 887.17,-120.2 681.7,-120.2"/>
<text text-anchor="start" x="688.7" y="-132.4" font-family="Arial" font-size="14.00">comment </text>
<text text-anchor="start" x="750.17" y="-132.4" font-family="Arial" font-size="14.00" fill="#666666">[text]</text>
<polygon fill="none" stroke="black" points="681.7,-89.4 681.7,-120.2 887.17,-120.2 887.17,-89.4 681.7,-89.4"/>
<text text-anchor="start" x="688.7" y="-101.6" font-family="Arial" font-size="14.00">created </text>
<text text-anchor="start" x="739.29" y="-101.6" font-family="Arial" font-size="14.00" fill="#666666">[datetime]</text>
<polygon fill="none" stroke="black" points="681.7,-58.6 681.7,-89.4 887.17,-89.4 887.17,-58.6 681.7,-58.6"/>
<text text-anchor="start" x="688.7" y="-70.8" font-family="Arial" font-size="14.00">updated </text>
<text text-anchor="start" x="743.2" y="-70.8" font-family="Arial" font-size="14.00" fill="#666666">[datetime]</text>
</g>
<!-- log&#45;&gt;comment -->
<g id="edge3" class="edge">
<title>log:comment_id&#45;&gt;comment:id</title>
<path fill="none" stroke="black" stroke-dasharray="5,2" d="M709.82,-526.84C761.9,-518.2 709.19,-437.45 698.7,-373.6 694.79,-349.86 685.65,-345.93 681.7,-322.2 674.83,-280.9 638.83,-228 680.7,-228"/>
<polygon fill="black" stroke="black" points="710,-526.83 699.69,-523.09 704.68,-527.23 700.36,-527.55 700.36,-527.55 700.36,-527.55 704.68,-527.23 700.37,-532.06 710,-526.83"/>
<text text-anchor="start" x="706.7" y="-537.6" font-family="Arial" font-size="10.00">Detected Relation</text>
</g>
<!-- comment_star -->
<g id="node5" class="node">
<title>comment_star</title>
<polygon fill="#efefef" stroke="none" points="991.21,-243.4 991.21,-279 1231.67,-279 1231.67,-243.4 991.21,-243.4"/>
<polygon fill="none" stroke="black" points="991.21,-243.4 991.21,-279 1231.67,-279 1231.67,-243.4 991.21,-243.4"/>
<text text-anchor="start" x="998.21" y="-256.8" font-family="Arial Bold" font-size="18.00">comment_star</text>
<text text-anchor="start" x="1100.18" y="-256.8" font-family="Arial" font-size="14.00">    </text>
<text text-anchor="start" x="1131.3" y="-256.8" font-family="Arial" font-size="14.00" fill="#666666">[BASE TABLE]</text>
<polygon fill="none" stroke="black" points="991.21,-212.6 991.21,-243.4 1231.67,-243.4 1231.67,-212.6 991.21,-212.6"/>
<text text-anchor="start" x="998.21" y="-224.8" font-family="Arial" font-size="14.00">id </text>
<text text-anchor="start" x="1012.99" y="-224.8" font-family="Arial" font-size="14.00" fill="#666666">[bigint]</text>
<polygon fill="none" stroke="black" points="991.21,-181.8 991.21,-212.6 1231.67,-212.6 1231.67,-181.8 991.21,-181.8"/>
<text text-anchor="start" x="998.21" y="-194" font-family="Arial" font-size="14.00">user_id </text>
<text text-anchor="start" x="1048.02" y="-194" font-family="Arial" font-size="14.00" fill="#666666">[int]</text>
<polygon fill="none" stroke="black" points="991.21,-151 991.21,-181.8 1231.67,-181.8 1231.67,-151 991.21,-151"/>
<text text-anchor="start" x="998.21" y="-163.2" font-family="Arial" font-size="14.00">comment_post_id </text>
<text text-anchor="start" x="1112.6" y="-163.2" font-family="Arial" font-size="14.00" fill="#666666">[bigint]</text>
<polygon fill="none" stroke="black" points="991.21,-120.2 991.21,-151 1231.67,-151 1231.67,-120.2 991.21,-120.2"/>
<text text-anchor="start" x="998.21" y="-132.4" font-family="Arial" font-size="14.00">comment_user_id </text>
<text text-anchor="start" x="1113.37" y="-132.4" font-family="Arial" font-size="14.00" fill="#666666">[int]</text>
<polygon fill="none" stroke="black" points="991.21,-89.4 991.21,-120.2 1231.67,-120.2 1231.67,-89.4 991.21,-89.4"/>
<text text-anchor="start" x="998.21" y="-101.6" font-family="Arial" font-size="14.00">created </text>
<text text-anchor="start" x="1048.79" y="-101.6" font-family="Arial" font-size="14.00" fill="#666666">[timestamp]</text>
<polygon fill="none" stroke="black" points="991.21,-58.6 991.21,-89.4 1231.67,-89.4 1231.67,-58.6 991.21,-58.6"/>
<text text-anchor="start" x="998.21" y="-70.8" font-family="Arial" font-size="14.00">updated </text>
<text text-anchor="start" x="1052.7" y="-70.8" font-family="Arial" font-size="14.00" fill="#666666">[timestamp]</text>
</g>
<!-- log&#45;&gt;comment_star -->
<g id="edge4" class="edge">
<title>log:comment_star_id&#45;&gt;comment_star:id</title>
<path fill="none" stroke="black" stroke-dasharray="5,2" d="M709.97,-496.66C829.2,-493.38 858.42,-432.01 939.44,-337.6 974.4,-296.86 936.53,-228 990.21,-228"/>
<polygon fill="black" stroke="black" points="710.03,-496.66 699.97,-492.3 704.7,-496.73 700.37,-496.79 700.37,-496.79 700.37,-496.79 704.7,-496.73 700.09,-501.3 710.03,-496.66"/>
<text text-anchor="start" x="706.7" y="-506.8" font-family="Arial" font-size="10.00">Detected Relation</text>
</g>
</g>
</svg>
