<?xml version="1.0" encoding="UTF-8" standalone="no"?>
<!DOCTYPE svg PUBLIC "-//W3C//DTD SVG 1.1//EN"
 "http://www.w3.org/Graphics/SVG/1.1/DTD/svg11.dtd">
<!-- Generated by graphviz version 2.40.1 (20161225.0304)
 -->
<!-- Title: log Pages: 1 -->
<svg width="1358pt" height="712pt"
 viewBox="0.00 0.00 1358.00 712.00" xmlns="http://www.w3.org/2000/svg" xmlns:xlink="http://www.w3.org/1999/xlink">
<g id="graph0" class="graph" transform="scale(1 1) rotate(0) translate(4 708)">
<title>log</title>
<polygon fill="#ffffff" stroke="transparent" points="-4,4 -4,-708 1354,-708 1354,4 -4,4"/>
<!-- log -->
<g id="node1" class="node">
<title>log</title>
<polygon fill="#efefef" stroke="transparent" points="579.5,-622.5 579.5,-657.5 745.5,-657.5 745.5,-622.5 579.5,-622.5"/>
<polygon fill="none" stroke="#000000" points="579.5,-622.5 579.5,-657.5 745.5,-657.5 745.5,-622.5 579.5,-622.5"/>
<text text-anchor="start" x="586.7127" y="-635.3" font-family="Arial Bold" font-size="18.00" fill="#000000">log</text>
<text text-anchor="start" x="610.7193" y="-635.3" font-family="Arial" font-size="14.00" fill="#000000">    </text>
<text text-anchor="start" x="644.9241" y="-635.3" font-family="Arial" font-size="14.00" fill="#666666">[BASE TABLE]</text>
<polygon fill="none" stroke="#000000" points="579.5,-592.5 579.5,-622.5 745.5,-622.5 745.5,-592.5 579.5,-592.5"/>
<text text-anchor="start" x="586.5" y="-603.9" font-family="Arial" font-size="14.00" fill="#000000">id </text>
<text text-anchor="start" x="601.2798" y="-603.9" font-family="Arial" font-size="14.00" fill="#666666">[bigint]</text>
<polygon fill="none" stroke="#000000" points="579.5,-562.5 579.5,-592.5 745.5,-592.5 745.5,-562.5 579.5,-562.5"/>
<text text-anchor="start" x="586.5" y="-573.9" font-family="Arial" font-size="14.00" fill="#000000">user_id </text>
<text text-anchor="start" x="636.2882" y="-573.9" font-family="Arial" font-size="14.00" fill="#666666">[int]</text>
<polygon fill="none" stroke="#000000" points="579.5,-532.5 579.5,-562.5 745.5,-562.5 745.5,-532.5 579.5,-532.5"/>
<text text-anchor="start" x="586.5" y="-543.9" font-family="Arial" font-size="14.00" fill="#000000">post_id </text>
<text text-anchor="start" x="635.5182" y="-543.9" font-family="Arial" font-size="14.00" fill="#666666">[bigint]</text>
<polygon fill="none" stroke="#000000" points="579.5,-502.5 579.5,-532.5 745.5,-532.5 745.5,-502.5 579.5,-502.5"/>
<text text-anchor="start" x="586.5" y="-513.9" font-family="Arial" font-size="14.00" fill="#000000">comment_id </text>
<text text-anchor="start" x="666.622" y="-513.9" font-family="Arial" font-size="14.00" fill="#666666">[bigint]</text>
<polygon fill="none" stroke="#000000" points="579.5,-472.5 579.5,-502.5 745.5,-502.5 745.5,-472.5 579.5,-472.5"/>
<text text-anchor="start" x="586.2644" y="-483.9" font-family="Arial" font-size="14.00" fill="#000000">comment_star_id </text>
<text text-anchor="start" x="697.5028" y="-483.9" font-family="Arial" font-size="14.00" fill="#666666">[bigint]</text>
<polygon fill="none" stroke="#000000" points="579.5,-442.5 579.5,-472.5 745.5,-472.5 745.5,-442.5 579.5,-442.5"/>
<text text-anchor="start" x="586.5" y="-453.9" font-family="Arial" font-size="14.00" fill="#000000">payload </text>
<text text-anchor="start" x="639.4102" y="-453.9" font-family="Arial" font-size="14.00" fill="#666666">[text]</text>
<polygon fill="none" stroke="#000000" points="579.5,-412.5 579.5,-442.5 745.5,-442.5 745.5,-412.5 579.5,-412.5"/>
<text text-anchor="start" x="586.5" y="-423.9" font-family="Arial" font-size="14.00" fill="#000000">created </text>
<text text-anchor="start" x="637.0722" y="-423.9" font-family="Arial" font-size="14.00" fill="#666666">[datetime]</text>
<polygon fill="none" stroke="#000000" stroke-width="3" points="578,-411.5 578,-659.5 747,-659.5 747,-411.5 578,-411.5"/>
</g>
<!-- user -->
<g id="node2" class="node">
<title>user</title>
<polygon fill="#efefef" stroke="transparent" points="43.5,-237.5 43.5,-272.5 232.5,-272.5 232.5,-237.5 43.5,-237.5"/>
<polygon fill="none" stroke="#000000" points="43.5,-237.5 43.5,-272.5 232.5,-272.5 232.5,-237.5 43.5,-237.5"/>
<text text-anchor="start" x="56.7137" y="-250.3" font-family="Arial Bold" font-size="18.00" fill="#000000">user</text>
<text text-anchor="start" x="91.7183" y="-250.3" font-family="Arial" font-size="14.00" fill="#000000">    </text>
<text text-anchor="start" x="125.9231" y="-250.3" font-family="Arial" font-size="14.00" fill="#666666">[BASE TABLE]</text>
<polygon fill="none" stroke="#000000" points="43.5,-207.5 43.5,-237.5 232.5,-237.5 232.5,-207.5 43.5,-207.5"/>
<text text-anchor="start" x="50.5" y="-218.9" font-family="Arial" font-size="14.00" fill="#000000">id    </text>
<text text-anchor="start" x="95.594" y="-218.9" font-family="Arial" font-size="14.00" fill="#666666">[int]</text>
<polygon fill="none" stroke="#000000" points="43.5,-177.5 43.5,-207.5 232.5,-207.5 232.5,-177.5 43.5,-177.5"/>
<text text-anchor="start" x="50.1122" y="-188.9" font-family="Arial" font-size="14.00" fill="#000000">username    </text>
<text text-anchor="start" x="146.5512" y="-188.9" font-family="Arial" font-size="14.00" fill="#666666">[varchar(50)]</text>
<polygon fill="none" stroke="#000000" points="43.5,-147.5 43.5,-177.5 232.5,-177.5 232.5,-147.5 43.5,-147.5"/>
<text text-anchor="start" x="50.5" y="-158.9" font-family="Arial" font-size="14.00" fill="#000000">password    </text>
<text text-anchor="start" x="144.6024" y="-158.9" font-family="Arial" font-size="14.00" fill="#666666">[varchar(50)]</text>
<polygon fill="none" stroke="#000000" points="43.5,-117.5 43.5,-147.5 232.5,-147.5 232.5,-117.5 43.5,-117.5"/>
<text text-anchor="start" x="50.5" y="-128.9" font-family="Arial" font-size="14.00" fill="#000000">email    </text>
<text text-anchor="start" x="118.1438" y="-128.9" font-family="Arial" font-size="14.00" fill="#666666">[varchar(355)]</text>
<polygon fill="none" stroke="#000000" points="43.5,-87.5 43.5,-117.5 232.5,-117.5 232.5,-87.5 43.5,-87.5"/>
<text text-anchor="start" x="50.5" y="-98.9" font-family="Arial" font-size="14.00" fill="#000000">created    </text>
<text text-anchor="start" x="131.3864" y="-98.9" font-family="Arial" font-size="14.00" fill="#666666">[timestamp]</text>
<polygon fill="none" stroke="#000000" points="43.5,-57.5 43.5,-87.5 232.5,-87.5 232.5,-57.5 43.5,-57.5"/>
<text text-anchor="start" x="50.5" y="-68.9" font-family="Arial" font-size="14.00" fill="#000000">updated    </text>
<text text-anchor="start" x="135.291" y="-68.9" font-family="Arial" font-size="14.00" fill="#666666">[timestamp]</text>
</g>
<!-- log&#45;&gt;user -->
<g id="edge1" class="edge">
<title>log:user_id&#45;&gt;user:id</title>
<path fill="none" stroke="#000000" stroke-dasharray="5,2" d="M569.1558,-577.3607C407.4397,-572.9356 386.0336,-463.6889 283.5,-331 250.9195,-288.8375 285.7838,-222.5 232.5,-222.5"/>
<polygon fill="#000000" stroke="#000000" points="569.5009,-577.3652 579.4393,-581.9996 574.5005,-577.4326 579.5,-577.5 579.5,-577.5 579.5,-577.5 574.5005,-577.4326 579.5607,-573.0004 569.5009,-577.3652 569.5009,-577.3652"/>
<text text-anchor="start" x="493.768" y="-587.5" font-family="Arial" font-size="10.00" fill="#000000">Detected Relation</text>
</g>
<!-- post -->
<g id="node3" class="node">
<title>post</title>
<polygon fill="#efefef" stroke="transparent" points="336.5,-252.5 336.5,-287.5 629.5,-287.5 629.5,-252.5 336.5,-252.5"/>
<polygon fill="none" stroke="#000000" points="336.5,-252.5 336.5,-287.5 629.5,-287.5 629.5,-252.5 336.5,-252.5"/>
<text text-anchor="start" x="402.2087" y="-265.3" font-family="Arial Bold" font-size="18.00" fill="#000000">post</text>
<text text-anchor="start" x="436.2233" y="-265.3" font-family="Arial" font-size="14.00" fill="#000000">    </text>
<text text-anchor="start" x="470.4281" y="-265.3" font-family="Arial" font-size="14.00" fill="#666666">[BASE TABLE]</text>
<polygon fill="none" stroke="#000000" points="336.5,-222.5 336.5,-252.5 629.5,-252.5 629.5,-222.5 336.5,-222.5"/>
<text text-anchor="start" x="343.5" y="-233.9" font-family="Arial" font-size="14.00" fill="#000000">id    </text>
<text text-anchor="start" x="388.594" y="-233.9" font-family="Arial" font-size="14.00" fill="#666666">[bigint]</text>
<polygon fill="none" stroke="#000000" points="336.5,-192.5 336.5,-222.5 629.5,-222.5 629.5,-192.5 336.5,-192.5"/>
<text text-anchor="start" x="343.5" y="-203.9" font-family="Arial" font-size="14.00" fill="#000000">user_id    </text>
<text text-anchor="start" x="423.6024" y="-203.9" font-family="Arial" font-size="14.00" fill="#666666">[int]</text>
<polygon fill="none" stroke="#000000" points="336.5,-162.5 336.5,-192.5 629.5,-192.5 629.5,-162.5 336.5,-162.5"/>
<text text-anchor="start" x="343.5" y="-173.9" font-family="Arial" font-size="14.00" fill="#000000">title    </text>
<text text-anchor="start" x="399.4818" y="-173.9" font-family="Arial" font-size="14.00" fill="#666666">[varchar(255)]</text>
<polygon fill="none" stroke="#000000" points="336.5,-132.5 336.5,-162.5 629.5,-162.5 629.5,-132.5 336.5,-132.5"/>
<text text-anchor="start" x="343.5" y="-143.9" font-family="Arial" font-size="14.00" fill="#000000">body    </text>
<text text-anchor="start" x="408.0526" y="-143.9" font-family="Arial" font-size="14.00" fill="#666666">[text]</text>
<polygon fill="none" stroke="#000000" points="336.5,-102.5 336.5,-132.5 629.5,-132.5 629.5,-102.5 336.5,-102.5"/>
<text text-anchor="start" x="343.0399" y="-113.9" font-family="Arial" font-size="14.00" fill="#000000">post_type    </text>
<text text-anchor="start" x="437.9389" y="-113.9" font-family="Arial" font-size="14.00" fill="#666666">[enum(&#39;public&#39;,&#39;private&#39;,&#39;draft&#39;)]</text>
<polygon fill="none" stroke="#000000" points="336.5,-72.5 336.5,-102.5 629.5,-102.5 629.5,-72.5 336.5,-72.5"/>
<text text-anchor="start" x="343.5" y="-83.9" font-family="Arial" font-size="14.00" fill="#000000">created    </text>
<text text-anchor="start" x="424.3864" y="-83.9" font-family="Arial" font-size="14.00" fill="#666666">[datetime]</text>
<polygon fill="none" stroke="#000000" points="336.5,-42.5 336.5,-72.5 629.5,-72.5 629.5,-42.5 336.5,-42.5"/>
<text text-anchor="start" x="343.5" y="-53.9" font-family="Arial" font-size="14.00" fill="#000000">updated    </text>
<text text-anchor="start" x="428.291" y="-53.9" font-family="Arial" font-size="14.00" fill="#666666">[datetime]</text>
</g>
<!-- log&#45;&gt;post -->
<g id="edge2" class="edge">
<title>log:post_id&#45;&gt;post:id</title>
<path fill="none" stroke="#000000" stroke-dasharray="5,2" d="M569.4268,-546.8528C503.1851,-537.7741 544.5694,-435.1927 579.5,-367 591.984,-342.6283 617.016,-355.3717 629.5,-331 648.4453,-294.0143 671.0556,-237.5 629.5,-237.5"/>
<polygon fill="#000000" stroke="#000000" points="569.5206,-546.8588 579.2114,-551.9907 574.5103,-547.1794 579.5,-547.5 579.5,-547.5 579.5,-547.5 574.5103,-547.1794 579.7886,-543.0093 569.5206,-546.8588 569.5206,-546.8588"/>
<text text-anchor="start" x="493.768" y="-557.5" font-family="Arial" font-size="10.00" fill="#000000">Detected Relation</text>
</g>
<!-- comment -->
<g id="node4" class="node">
<title>comment</title>
<polygon fill="#efefef" stroke="transparent" points="733.5,-237.5 733.5,-272.5 948.5,-272.5 948.5,-237.5 733.5,-237.5"/>
<polygon fill="none" stroke="#000000" points="733.5,-237.5 733.5,-272.5 948.5,-272.5 948.5,-237.5 733.5,-237.5"/>
<text text-anchor="start" x="740.2134" y="-250.3" font-family="Arial Bold" font-size="18.00" fill="#000000">comment</text>
<text text-anchor="start" x="814.2186" y="-250.3" font-family="Arial" font-size="14.00" fill="#000000">    </text>
<text text-anchor="start" x="848.4234" y="-250.3" font-family="Arial" font-size="14.00" fill="#666666">[BASE TABLE]</text>
<polygon fill="none" stroke="#000000" points="733.5,-207.5 733.5,-237.5 948.5,-237.5 948.5,-207.5 733.5,-207.5"/>
<text text-anchor="start" x="740.5" y="-218.9" font-family="Arial" font-size="14.00" fill="#000000">id    </text>
<text text-anchor="start" x="785.594" y="-218.9" font-family="Arial" font-size="14.00" fill="#666666">[bigint]</text>
<polygon fill="none" stroke="#000000" points="733.5,-177.5 733.5,-207.5 948.5,-207.5 948.5,-177.5 733.5,-177.5"/>
<text text-anchor="start" x="740.5" y="-188.9" font-family="Arial" font-size="14.00" fill="#000000">post_id    </text>
<text text-anchor="start" x="819.8324" y="-188.9" font-family="Arial" font-size="14.00" fill="#666666">[bigint]</text>
<polygon fill="none" stroke="#000000" points="733.5,-147.5 733.5,-177.5 948.5,-177.5 948.5,-147.5 733.5,-147.5"/>
<text text-anchor="start" x="740.5" y="-158.9" font-family="Arial" font-size="14.00" fill="#000000">user_id    </text>
<text text-anchor="start" x="820.6024" y="-158.9" font-family="Arial" font-size="14.00" fill="#666666">[int]</text>
<polygon fill="none" stroke="#000000" points="733.5,-117.5 733.5,-147.5 948.5,-147.5 948.5,-117.5 733.5,-117.5"/>
<text text-anchor="start" x="740.5" y="-128.9" font-family="Arial" font-size="14.00" fill="#000000">comment    </text>
<text text-anchor="start" x="832.2644" y="-128.9" font-family="Arial" font-size="14.00" fill="#666666">[text]</text>
<polygon fill="none" stroke="#000000" points="733.5,-87.5 733.5,-117.5 948.5,-117.5 948.5,-87.5 733.5,-87.5"/>
<text text-anchor="start" x="740.5" y="-98.9" font-family="Arial" font-size="14.00" fill="#000000">created    </text>
<text text-anchor="start" x="821.3864" y="-98.9" font-family="Arial" font-size="14.00" fill="#666666">[datetime]</text>
<polygon fill="none" stroke="#000000" points="733.5,-57.5 733.5,-87.5 948.5,-87.5 948.5,-57.5 733.5,-57.5"/>
<text text-anchor="start" x="740.5" y="-68.9" font-family="Arial" font-size="14.00" fill="#000000">updated    </text>
<text text-anchor="start" x="825.291" y="-68.9" font-family="Arial" font-size="14.00" fill="#666666">[datetime]</text>
</g>
<!-- log&#45;&gt;comment -->
<g id="edge3" class="edge">
<title>log:comment_id&#45;&gt;comment:id</title>
<path fill="none" stroke="#000000" stroke-dasharray="5,2" d="M755.6432,-516.9422C827.8552,-508.3201 743.4188,-401.4609 733.5,-316 728.7091,-274.7215 691.9444,-222.5 733.5,-222.5"/>
<polygon fill="#000000" stroke="#000000" points="755.4849,-516.9508 745.2529,-513.0068 750.4925,-517.2254 745.5,-517.5 745.5,-517.5 745.5,-517.5 750.4925,-517.2254 745.7471,-521.9932 755.4849,-516.9508 755.4849,-516.9508"/>
<text text-anchor="start" x="752.768" y="-527.5" font-family="Arial" font-size="10.00" fill="#000000">Detected Relation</text>
</g>
<!-- comment_star -->
<g id="node5" class="node">
<title>comment_star</title>
<polygon fill="#efefef" stroke="transparent" points="1052.5,-237.5 1052.5,-272.5 1307.5,-272.5 1307.5,-237.5 1052.5,-237.5"/>
<polygon fill="none" stroke="#000000" points="1052.5,-237.5 1052.5,-272.5 1307.5,-272.5 1307.5,-237.5 1052.5,-237.5"/>
<text text-anchor="start" x="1059.21" y="-250.3" font-family="Arial Bold" font-size="18.00" fill="#000000">comment_star</text>
<text text-anchor="start" x="1173.222" y="-250.3" font-family="Arial" font-size="14.00" fill="#000000">    </text>
<text text-anchor="start" x="1207.4268" y="-250.3" font-family="Arial" font-size="14.00" fill="#666666">[BASE TABLE]</text>
<polygon fill="none" stroke="#000000" points="1052.5,-207.5 1052.5,-237.5 1307.5,-237.5 1307.5,-207.5 1052.5,-207.5"/>
<text text-anchor="start" x="1059.5" y="-218.9" font-family="Arial" font-size="14.00" fill="#000000">id    </text>
<text text-anchor="start" x="1104.594" y="-218.9" font-family="Arial" font-size="14.00" fill="#666666">[bigint]</text>
<polygon fill="none" stroke="#000000" points="1052.5,-177.5 1052.5,-207.5 1307.5,-207.5 1307.5,-177.5 1052.5,-177.5"/>
<text text-anchor="start" x="1059.5" y="-188.9" font-family="Arial" font-size="14.00" fill="#000000">user_id    </text>
<text text-anchor="start" x="1139.6024" y="-188.9" font-family="Arial" font-size="14.00" fill="#666666">[int]</text>
<polygon fill="none" stroke="#000000" points="1052.5,-147.5 1052.5,-177.5 1307.5,-177.5 1307.5,-147.5 1052.5,-147.5"/>
<text text-anchor="start" x="1059.5" y="-158.9" font-family="Arial" font-size="14.00" fill="#000000">comment_post_id    </text>
<text text-anchor="start" x="1204.1746" y="-158.9" font-family="Arial" font-size="14.00" fill="#666666">[bigint]</text>
<polygon fill="none" stroke="#000000" points="1052.5,-117.5 1052.5,-147.5 1307.5,-147.5 1307.5,-117.5 1052.5,-117.5"/>
<text text-anchor="start" x="1059.5" y="-128.9" font-family="Arial" font-size="14.00" fill="#000000">comment_user_id    </text>
<text text-anchor="start" x="1204.9446" y="-128.9" font-family="Arial" font-size="14.00" fill="#666666">[int]</text>
<polygon fill="none" stroke="#000000" points="1052.5,-87.5 1052.5,-117.5 1307.5,-117.5 1307.5,-87.5 1052.5,-87.5"/>
<text text-anchor="start" x="1059.5" y="-98.9" font-family="Arial" font-size="14.00" fill="#000000">created    </text>
<text text-anchor="start" x="1140.3864" y="-98.9" font-family="Arial" font-size="14.00" fill="#666666">[timestamp]</text>
<polygon fill="none" stroke="#000000" points="1052.5,-57.5 1052.5,-87.5 1307.5,-87.5 1307.5,-57.5 1052.5,-57.5"/>
<text text-anchor="start" x="1059.5" y="-68.9" font-family="Arial" font-size="14.00" fill="#000000">updated    </text>
<text text-anchor="start" x="1144.291" y="-68.9" font-family="Arial" font-size="14.00" fill="#666666">[timestamp]</text>
</g>
<!-- log&#45;&gt;comment_star -->
<g id="edge4" class="edge">
<title>log:comment_star_id&#45;&gt;comment_star:id</title>
<path fill="none" stroke="#000000" stroke-dasharray="5,2" d="M755.8129,-487.3799C880.2538,-484.427 913.8111,-427.1627 1000.5,-331 1036.305,-291.2821 999.0256,-222.5 1052.5,-222.5"/>
<polygon fill="#000000" stroke="#000000" points="755.4993,-487.3834 745.4476,-483.0003 750.4997,-487.4417 745.5,-487.5 745.5,-487.5 745.5,-487.5 750.4997,-487.4417 745.5524,-491.9997 755.4993,-487.3834 755.4993,-487.3834"/>
<text text-anchor="start" x="752.768" y="-497.5" font-family="Arial" font-size="10.00" fill="#000000">Detected Relation</text>
</g>
</g>
</svg>
