<?xml version="1.0" encoding="UTF-8" standalone="no"?>
<!DOCTYPE svg PUBLIC "-//W3C//DTD SVG 1.1//EN"
 "http://www.w3.org/Graphics/SVG/1.1/DTD/svg11.dtd">
<!-- Generated by graphviz version 12.1.2 (20240928.0832)
 -->
<!-- Title: log Pages: 1 -->
<svg width="1328pt" height="725pt"
 viewBox="0.00 0.00 1328.00 725.20" xmlns="http://www.w3.org/2000/svg" xmlns:xlink="http://www.w3.org/1999/xlink">
<g id="graph0" class="graph" transform="scale(1 1) rotate(0) translate(4 721.2)">
<title>log</title>
<polygon fill="white" stroke="none" points="-4,4 -4,-721.2 1324,-721.2 1324,4 -4,4"/>
<!-- log -->
<g id="node1" class="node">
<title>log</title>
<polygon fill="#efefef" stroke="none" points="570.31,-635.4 570.31,-671 736.82,-671 736.82,-635.4 570.31,-635.4"/>
<polygon fill="none" stroke="black" points="570.31,-635.4 570.31,-671 736.82,-671 736.82,-635.4 570.31,-635.4"/>
<text text-anchor="start" x="579.82" y="-648.8" font-family="Arial Bold" font-size="18.00">log</text>
<text text-anchor="start" x="602.82" y="-648.8" font-family="Arial" font-size="14.00">    </text>
<text text-anchor="start" x="633.94" y="-648.8" font-family="Arial" font-size="14.00" fill="#666666">[BASE TABLE]</text>
<polygon fill="none" stroke="black" points="570.31,-604.6 570.31,-635.4 736.82,-635.4 736.82,-604.6 570.31,-604.6"/>
<text text-anchor="start" x="577.31" y="-616.8" font-family="Arial" font-size="14.00">id </text>
<text text-anchor="start" x="592.09" y="-616.8" font-family="Arial" font-size="14.00" fill="#666666">[bigint]</text>
<polygon fill="none" stroke="black" points="570.31,-573.8 570.31,-604.6 736.82,-604.6 736.82,-573.8 570.31,-573.8"/>
<text text-anchor="start" x="577.31" y="-586" font-family="Arial" font-size="14.00">user_id </text>
<text text-anchor="start" x="627.11" y="-586" font-family="Arial" font-size="14.00" fill="#666666">[int]</text>
<polygon fill="none" stroke="black" points="570.31,-543 570.31,-573.8 736.82,-573.8 736.82,-543 570.31,-543"/>
<text text-anchor="start" x="577.31" y="-555.2" font-family="Arial" font-size="14.00">post_id </text>
<text text-anchor="start" x="626.34" y="-555.2" font-family="Arial" font-size="14.00" fill="#666666">[bigint]</text>
<polygon fill="none" stroke="black" points="570.31,-512.2 570.31,-543 736.82,-543 736.82,-512.2 570.31,-512.2"/>
<text text-anchor="start" x="577.31" y="-524.4" font-family="Arial" font-size="14.00">comment_id </text>
<text text-anchor="start" x="657.45" y="-524.4" font-family="Arial" font-size="14.00" fill="#666666">[bigint]</text>
<polygon fill="none" stroke="black" points="570.31,-481.4 570.31,-512.2 736.82,-512.2 736.82,-481.4 570.31,-481.4"/>
<text text-anchor="start" x="577.31" y="-493.6" font-family="Arial" font-size="14.00">comment_star_id </text>
<text text-anchor="start" x="688.58" y="-493.6" font-family="Arial" font-size="14.00" fill="#666666">[bigint]</text>
<polygon fill="none" stroke="black" points="570.31,-450.6 570.31,-481.4 736.82,-481.4 736.82,-450.6 570.31,-450.6"/>
<text text-anchor="start" x="577.31" y="-462.8" font-family="Arial" font-size="14.00">payload </text>
<text text-anchor="start" x="630.24" y="-462.8" font-family="Arial" font-size="14.00" fill="#666666">[text]</text>
<polygon fill="none" stroke="black" points="570.31,-419.8 570.31,-450.6 736.82,-450.6 736.82,-419.8 570.31,-419.8"/>
<text text-anchor="start" x="577.31" y="-432" font-family="Arial" font-size="14.00">created </text>
<text text-anchor="start" x="627.89" y="-432" font-family="Arial" font-size="14.00" fill="#666666">[datetime]</text>
<polygon fill="none" stroke="black" stroke-width="3" points="568.81,-418.3 568.81,-672.5 738.32,-672.5 738.32,-418.3 568.81,-418.3"/>
</g>
<!-- user -->
<g id="node2" class="node">
<title>user</title>
<polygon fill="#efefef" stroke="none" points="43.2,-243.4 43.2,-279 229.93,-279 229.93,-243.4 43.2,-243.4"/>
<polygon fill="none" stroke="black" points="43.2,-243.4 43.2,-279 229.93,-279 229.93,-243.4 43.2,-243.4"/>
<text text-anchor="start" x="59.33" y="-256.8" font-family="Arial Bold" font-size="18.00">user</text>
<text text-anchor="start" x="89.31" y="-256.8" font-family="Arial" font-size="14.00">    </text>
<text text-anchor="start" x="120.43" y="-256.8" font-family="Arial" font-size="14.00" fill="#666666">[BASE TABLE]</text>
<polygon fill="none" stroke="black" points="43.2,-212.6 43.2,-243.4 229.93,-243.4 229.93,-212.6 43.2,-212.6"/>
<text text-anchor="start" x="50.2" y="-224.8" font-family="Arial" font-size="14.00">id    </text>
<text text-anchor="start" x="92.21" y="-224.8" font-family="Arial" font-size="14.00" fill="#666666">[int]</text>
<polygon fill="none" stroke="black" points="43.2,-181.8 43.2,-212.6 229.93,-212.6 229.93,-181.8 43.2,-181.8"/>
<text text-anchor="start" x="50.2" y="-194" font-family="Arial" font-size="14.00">username    </text>
<text text-anchor="start" x="143.57" y="-194" font-family="Arial" font-size="14.00" fill="#666666">[varchar(50)]</text>
<polygon fill="none" stroke="black" points="43.2,-151 43.2,-181.8 229.93,-181.8 229.93,-151 43.2,-151"/>
<text text-anchor="start" x="50.2" y="-163.2" font-family="Arial" font-size="14.00">password    </text>
<text text-anchor="start" x="141.23" y="-163.2" font-family="Arial" font-size="14.00" fill="#666666">[varchar(50)]</text>
<polygon fill="none" stroke="black" points="43.2,-120.2 43.2,-151 229.93,-151 229.93,-120.2 43.2,-120.2"/>
<text text-anchor="start" x="50.2" y="-132.4" font-family="Arial" font-size="14.00">email    </text>
<text text-anchor="start" x="114.77" y="-132.4" font-family="Arial" font-size="14.00" fill="#666666">[varchar(355)]</text>
<polygon fill="none" stroke="black" points="43.2,-89.4 43.2,-120.2 229.93,-120.2 229.93,-89.4 43.2,-89.4"/>
<text text-anchor="start" x="50.2" y="-101.6" font-family="Arial" font-size="14.00">created    </text>
<text text-anchor="start" x="128.01" y="-101.6" font-family="Arial" font-size="14.00" fill="#666666">[timestamp]</text>
<polygon fill="none" stroke="black" points="43.2,-58.6 43.2,-89.4 229.93,-89.4 229.93,-58.6 43.2,-58.6"/>
<text text-anchor="start" x="50.2" y="-70.8" font-family="Arial" font-size="14.00">updated    </text>
<text text-anchor="start" x="131.92" y="-70.8" font-family="Arial" font-size="14.00" fill="#666666">[timestamp]</text>
</g>
<!-- log&#45;&gt;user -->
<g id="edge1" class="edge">
<title>log:user_id&#45;&gt;user:id</title>
<path fill="none" stroke="black" stroke-dasharray="5,2" d="M559.07,-589.05C399.1,-584.43 382.46,-470.26 282.57,-337.6 250.17,-294.59 284.78,-228 230.93,-228"/>
<polygon fill="black" stroke="black" points="558.97,-589.05 568.91,-593.69 564.31,-589.13 568.64,-589.19 568.64,-589.19 568.64,-589.19 564.31,-589.13 569.04,-584.7 558.97,-589.05"/>
<text text-anchor="start" x="482.81" y="-599.2" font-family="Arial" font-size="10.00">Detected Relation</text>
</g>
<!-- post -->
<g id="node3" class="node">
<title>post</title>
<polygon fill="#efefef" stroke="none" points="334.37,-258.8 334.37,-294.4 622.76,-294.4 622.76,-258.8 334.37,-258.8"/>
<polygon fill="none" stroke="black" points="334.37,-258.8 334.37,-294.4 622.76,-294.4 622.76,-258.8 334.37,-258.8"/>
<text text-anchor="start" x="401.32" y="-272.2" font-family="Arial Bold" font-size="18.00">post</text>
<text text-anchor="start" x="431.32" y="-272.2" font-family="Arial" font-size="14.00">    </text>
<text text-anchor="start" x="462.44" y="-272.2" font-family="Arial" font-size="14.00" fill="#666666">[BASE TABLE]</text>
<polygon fill="none" stroke="black" points="334.37,-228 334.37,-258.8 622.76,-258.8 622.76,-228 334.37,-228"/>
<text text-anchor="start" x="341.37" y="-240.2" font-family="Arial" font-size="14.00">id    </text>
<text text-anchor="start" x="383.39" y="-240.2" font-family="Arial" font-size="14.00" fill="#666666">[bigint]</text>
<polygon fill="none" stroke="black" points="334.37,-197.2 334.37,-228 622.76,-228 622.76,-197.2 334.37,-197.2"/>
<text text-anchor="start" x="341.37" y="-209.4" font-family="Arial" font-size="14.00">user_id    </text>
<text text-anchor="start" x="418.41" y="-209.4" font-family="Arial" font-size="14.00" fill="#666666">[int]</text>
<polygon fill="none" stroke="black" points="334.37,-166.4 334.37,-197.2 622.76,-197.2 622.76,-166.4 334.37,-166.4"/>
<text text-anchor="start" x="341.37" y="-178.6" font-family="Arial" font-size="14.00">title    </text>
<text text-anchor="start" x="394.28" y="-178.6" font-family="Arial" font-size="14.00" fill="#666666">[varchar(255)]</text>
<polygon fill="none" stroke="black" points="334.37,-135.6 334.37,-166.4 622.76,-166.4 622.76,-135.6 334.37,-135.6"/>
<text text-anchor="start" x="341.37" y="-147.8" font-family="Arial" font-size="14.00">body    </text>
<text text-anchor="start" x="402.85" y="-147.8" font-family="Arial" font-size="14.00" fill="#666666">[text]</text>
<polygon fill="none" stroke="black" points="334.37,-104.8 334.37,-135.6 622.76,-135.6 622.76,-104.8 334.37,-104.8"/>
<text text-anchor="start" x="341.37" y="-117" font-family="Arial" font-size="14.00">post_type    </text>
<text text-anchor="start" x="433.2" y="-117" font-family="Arial" font-size="14.00" fill="#666666">[enum(&#39;public&#39;,&#39;private&#39;,&#39;draft&#39;)]</text>
<polygon fill="none" stroke="black" points="334.37,-74 334.37,-104.8 622.76,-104.8 622.76,-74 334.37,-74"/>
<text text-anchor="start" x="341.37" y="-86.2" font-family="Arial" font-size="14.00">created    </text>
<text text-anchor="start" x="419.19" y="-86.2" font-family="Arial" font-size="14.00" fill="#666666">[datetime]</text>
<polygon fill="none" stroke="black" points="334.37,-43.2 334.37,-74 622.76,-74 622.76,-43.2 334.37,-43.2"/>
<text text-anchor="start" x="341.37" y="-55.4" font-family="Arial" font-size="14.00">updated    </text>
<text text-anchor="start" x="423.1" y="-55.4" font-family="Arial" font-size="14.00" fill="#666666">[datetime]</text>
</g>
<!-- log&#45;&gt;post -->
<g id="edge2" class="edge">
<title>log:post_id&#45;&gt;post:id</title>
<path fill="none" stroke="black" stroke-dasharray="5,2" d="M559,-558.35C178.72,-554.54 622.72,-337.67 622.76,-337.6 642.46,-300.66 665.62,-243.4 623.76,-243.4"/>
<polygon fill="black" stroke="black" points="558.97,-558.35 568.95,-562.9 564.31,-558.38 568.64,-558.4 568.64,-558.4 568.64,-558.4 564.31,-558.38 568.99,-553.9 558.97,-558.35"/>
<text text-anchor="start" x="482.81" y="-568.4" font-family="Arial" font-size="10.00">Detected Relation</text>
</g>
<!-- comment -->
<g id="node4" class="node">
<title>comment</title>
<polygon fill="#efefef" stroke="none" points="726.83,-243.4 726.83,-279 932.3,-279 932.3,-243.4 726.83,-243.4"/>
<polygon fill="none" stroke="black" points="726.83,-243.4 726.83,-279 932.3,-279 932.3,-243.4 726.83,-243.4"/>
<text text-anchor="start" x="733.83" y="-256.8" font-family="Arial Bold" font-size="18.00">comment</text>
<text text-anchor="start" x="800.81" y="-256.8" font-family="Arial" font-size="14.00">    </text>
<text text-anchor="start" x="831.93" y="-256.8" font-family="Arial" font-size="14.00" fill="#666666">[BASE TABLE]</text>
<polygon fill="none" stroke="black" points="726.83,-212.6 726.83,-243.4 932.3,-243.4 932.3,-212.6 726.83,-212.6"/>
<text text-anchor="start" x="733.83" y="-224.8" font-family="Arial" font-size="14.00">id    </text>
<text text-anchor="start" x="775.84" y="-224.8" font-family="Arial" font-size="14.00" fill="#666666">[bigint]</text>
<polygon fill="none" stroke="black" points="726.83,-181.8 726.83,-212.6 932.3,-212.6 932.3,-181.8 726.83,-181.8"/>
<text text-anchor="start" x="733.83" y="-194" font-family="Arial" font-size="14.00">post_id    </text>
<text text-anchor="start" x="810.09" y="-194" font-family="Arial" font-size="14.00" fill="#666666">[bigint]</text>
<polygon fill="none" stroke="black" points="726.83,-151 726.83,-181.8 932.3,-181.8 932.3,-151 726.83,-151"/>
<text text-anchor="start" x="733.83" y="-163.2" font-family="Arial" font-size="14.00">user_id    </text>
<text text-anchor="start" x="810.86" y="-163.2" font-family="Arial" font-size="14.00" fill="#666666">[int]</text>
<polygon fill="none" stroke="black" points="726.83,-120.2 726.83,-151 932.3,-151 932.3,-120.2 726.83,-120.2"/>
<text text-anchor="start" x="733.83" y="-132.4" font-family="Arial" font-size="14.00">comment    </text>
<text text-anchor="start" x="822.52" y="-132.4" font-family="Arial" font-size="14.00" fill="#666666">[text]</text>
<polygon fill="none" stroke="black" points="726.83,-89.4 726.83,-120.2 932.3,-120.2 932.3,-89.4 726.83,-89.4"/>
<text text-anchor="start" x="733.83" y="-101.6" font-family="Arial" font-size="14.00">created    </text>
<text text-anchor="start" x="811.64" y="-101.6" font-family="Arial" font-size="14.00" fill="#666666">[datetime]</text>
<polygon fill="none" stroke="black" points="726.83,-58.6 726.83,-89.4 932.3,-89.4 932.3,-58.6 726.83,-58.6"/>
<text text-anchor="start" x="733.83" y="-70.8" font-family="Arial" font-size="14.00">updated    </text>
<text text-anchor="start" x="815.55" y="-70.8" font-family="Arial" font-size="14.00" fill="#666666">[datetime]</text>
</g>
<!-- log&#45;&gt;comment -->
<g id="edge3" class="edge">
<title>log:comment_id&#45;&gt;comment:id</title>
<path fill="none" stroke="black" stroke-dasharray="5,2" d="M748.16,-527.03C821.74,-518.25 735.7,-409.42 726.83,-322.2 722.59,-280.55 683.96,-228 725.83,-228"/>
<polygon fill="black" stroke="black" points="748.14,-527.03 737.91,-523.09 742.82,-527.33 738.49,-527.56 738.49,-527.56 738.49,-527.56 742.82,-527.33 738.4,-532.07 748.14,-527.03"/>
<text text-anchor="start" x="744.82" y="-537.6" font-family="Arial" font-size="10.00">Detected Relation</text>
</g>
<!-- comment_star -->
<g id="node5" class="node">
<title>comment_star</title>
<polygon fill="#efefef" stroke="none" points="1036.34,-243.4 1036.34,-279 1276.8,-279 1276.8,-243.4 1036.34,-243.4"/>
<polygon fill="none" stroke="black" points="1036.34,-243.4 1036.34,-279 1276.8,-279 1276.8,-243.4 1036.34,-243.4"/>
<text text-anchor="start" x="1043.34" y="-256.8" font-family="Arial Bold" font-size="18.00">comment_star</text>
<text text-anchor="start" x="1145.31" y="-256.8" font-family="Arial" font-size="14.00">    </text>
<text text-anchor="start" x="1176.42" y="-256.8" font-family="Arial" font-size="14.00" fill="#666666">[BASE TABLE]</text>
<polygon fill="none" stroke="black" points="1036.34,-212.6 1036.34,-243.4 1276.8,-243.4 1276.8,-212.6 1036.34,-212.6"/>
<text text-anchor="start" x="1043.34" y="-224.8" font-family="Arial" font-size="14.00">id    </text>
<text text-anchor="start" x="1085.35" y="-224.8" font-family="Arial" font-size="14.00" fill="#666666">[bigint]</text>
<polygon fill="none" stroke="black" points="1036.34,-181.8 1036.34,-212.6 1276.8,-212.6 1276.8,-181.8 1036.34,-181.8"/>
<text text-anchor="start" x="1043.34" y="-194" font-family="Arial" font-size="14.00">user_id    </text>
<text text-anchor="start" x="1120.37" y="-194" font-family="Arial" font-size="14.00" fill="#666666">[int]</text>
<polygon fill="none" stroke="black" points="1036.34,-151 1036.34,-181.8 1276.8,-181.8 1276.8,-151 1036.34,-151"/>
<text text-anchor="start" x="1043.34" y="-163.2" font-family="Arial" font-size="14.00">comment_post_id    </text>
<text text-anchor="start" x="1184.96" y="-163.2" font-family="Arial" font-size="14.00" fill="#666666">[bigint]</text>
<polygon fill="none" stroke="black" points="1036.34,-120.2 1036.34,-151 1276.8,-151 1276.8,-120.2 1036.34,-120.2"/>
<text text-anchor="start" x="1043.34" y="-132.4" font-family="Arial" font-size="14.00">comment_user_id    </text>
<text text-anchor="start" x="1185.73" y="-132.4" font-family="Arial" font-size="14.00" fill="#666666">[int]</text>
<polygon fill="none" stroke="black" points="1036.34,-89.4 1036.34,-120.2 1276.8,-120.2 1276.8,-89.4 1036.34,-89.4"/>
<text text-anchor="start" x="1043.34" y="-101.6" font-family="Arial" font-size="14.00">created    </text>
<text text-anchor="start" x="1121.15" y="-101.6" font-family="Arial" font-size="14.00" fill="#666666">[timestamp]</text>
<polygon fill="none" stroke="black" points="1036.34,-58.6 1036.34,-89.4 1276.8,-89.4 1276.8,-58.6 1036.34,-58.6"/>
<text text-anchor="start" x="1043.34" y="-70.8" font-family="Arial" font-size="14.00">updated    </text>
<text text-anchor="start" x="1125.06" y="-70.8" font-family="Arial" font-size="14.00" fill="#666666">[timestamp]</text>
</g>
<!-- log&#45;&gt;comment_star -->
<g id="edge4" class="edge">
<title>log:comment_star_id&#45;&gt;comment_star:id</title>
<path fill="none" stroke="black" stroke-dasharray="5,2" d="M747.94,-496.67C869.98,-493.57 901.18,-433.48 984.57,-337.6 1019.79,-297.09 981.65,-228 1035.34,-228"/>
<polygon fill="black" stroke="black" points="748.16,-496.67 738.1,-492.3 742.82,-496.74 738.49,-496.79 738.49,-496.79 738.49,-496.79 742.82,-496.74 738.21,-501.3 748.16,-496.67"/>
<text text-anchor="start" x="744.82" y="-506.8" font-family="Arial" font-size="10.00">Detected Relation</text>
</g>
</g>
</svg>
