<?xml version="1.0" encoding="UTF-8" standalone="no"?>
<!DOCTYPE svg PUBLIC "-//W3C//DTD SVG 1.1//EN"
 "http://www.w3.org/Graphics/SVG/1.1/DTD/svg11.dtd">
<!-- Generated by graphviz version 12.1.2 (20240928.0832)
 -->
<!-- Title: post Pages: 1 -->
<svg width="570pt" height="1068pt"
 viewBox="0.00 0.00 570.39 1068.00" xmlns="http://www.w3.org/2000/svg" xmlns:xlink="http://www.w3.org/1999/xlink">
<g id="graph0" class="graph" transform="scale(1 1) rotate(0) translate(4 1064)">
<title>post</title>
<polygon fill="white" stroke="none" points="-4,4 -4,-1064 566.39,-1064 566.39,4 -4,4"/>
<!-- post -->
<g id="node1" class="node">
<title>post</title>
<polygon fill="#efefef" stroke="none" points="160.36,-604.6 160.36,-640.2 421.51,-640.2 421.51,-604.6 160.36,-604.6"/>
<polygon fill="none" stroke="black" points="160.36,-604.6 160.36,-640.2 421.51,-640.2 421.51,-604.6 160.36,-604.6"/>
<text text-anchor="start" x="213.69" y="-618" font-family="Arial Bold" font-size="18.00">post</text>
<text text-anchor="start" x="243.69" y="-618" font-family="Arial" font-size="14.00">    </text>
<text text-anchor="start" x="274.81" y="-618" font-family="Arial" font-size="14.00" fill="#666666">[BASE TABLE]</text>
<polygon fill="none" stroke="black" points="160.36,-573.8 160.36,-604.6 421.51,-604.6 421.51,-573.8 160.36,-573.8"/>
<text text-anchor="start" x="167.36" y="-586" font-family="Arial" font-size="14.00">id </text>
<text text-anchor="start" x="182.14" y="-586" font-family="Arial" font-size="14.00" fill="#666666">[bigint]</text>
<polygon fill="none" stroke="black" points="160.36,-543 160.36,-573.8 421.51,-573.8 421.51,-543 160.36,-543"/>
<text text-anchor="start" x="167.36" y="-555.2" font-family="Arial" font-size="14.00">user_id </text>
<text text-anchor="start" x="217.17" y="-555.2" font-family="Arial" font-size="14.00" fill="#666666">[int]</text>
<polygon fill="none" stroke="black" points="160.36,-512.2 160.36,-543 421.51,-543 421.51,-512.2 160.36,-512.2"/>
<text text-anchor="start" x="167.36" y="-524.4" font-family="Arial" font-size="14.00">title </text>
<text text-anchor="start" x="193.03" y="-524.4" font-family="Arial" font-size="14.00" fill="#666666">[varchar(255)]</text>
<polygon fill="none" stroke="black" points="160.36,-481.4 160.36,-512.2 421.51,-512.2 421.51,-481.4 160.36,-481.4"/>
<text text-anchor="start" x="167.36" y="-493.6" font-family="Arial" font-size="14.00">body </text>
<text text-anchor="start" x="201.61" y="-493.6" font-family="Arial" font-size="14.00" fill="#666666">[text]</text>
<polygon fill="none" stroke="black" points="160.36,-450.6 160.36,-481.4 421.51,-481.4 421.51,-450.6 160.36,-450.6"/>
<text text-anchor="start" x="167.36" y="-462.8" font-family="Arial" font-size="14.00">post_type </text>
<text text-anchor="start" x="231.96" y="-462.8" font-family="Arial" font-size="14.00" fill="#666666">[enum(&#39;public&#39;,&#39;private&#39;,&#39;draft&#39;)]</text>
<polygon fill="none" stroke="black" points="160.36,-419.8 160.36,-450.6 421.51,-450.6 421.51,-419.8 160.36,-419.8"/>
<text text-anchor="start" x="167.36" y="-432" font-family="Arial" font-size="14.00">created </text>
<text text-anchor="start" x="217.94" y="-432" font-family="Arial" font-size="14.00" fill="#666666">[datetime]</text>
<polygon fill="none" stroke="black" points="160.36,-389 160.36,-419.8 421.51,-419.8 421.51,-389 160.36,-389"/>
<text text-anchor="start" x="167.36" y="-401.2" font-family="Arial" font-size="14.00">updated </text>
<text text-anchor="start" x="221.85" y="-401.2" font-family="Arial" font-size="14.00" fill="#666666">[datetime]</text>
<polygon fill="none" stroke="black" stroke-width="3" points="158.86,-387.5 158.86,-641.7 423.01,-641.7 423.01,-387.5 158.86,-387.5"/>
</g>
<!-- user -->
<g id="node4" class="node">
<title>user</title>
<polygon fill="#efefef" stroke="none" points="206.7,-228 206.7,-263.6 375.17,-263.6 375.17,-228 206.7,-228"/>
<polygon fill="none" stroke="black" points="206.7,-228 206.7,-263.6 375.17,-263.6 375.17,-228 206.7,-228"/>
<text text-anchor="start" x="213.7" y="-241.4" font-family="Arial Bold" font-size="18.00">user</text>
<text text-anchor="start" x="243.68" y="-241.4" font-family="Arial" font-size="14.00">    </text>
<text text-anchor="start" x="274.8" y="-241.4" font-family="Arial" font-size="14.00" fill="#666666">[BASE TABLE]</text>
<polygon fill="none" stroke="black" points="206.7,-197.2 206.7,-228 375.17,-228 375.17,-197.2 206.7,-197.2"/>
<text text-anchor="start" x="213.7" y="-209.4" font-family="Arial" font-size="14.00">id </text>
<text text-anchor="start" x="228.48" y="-209.4" font-family="Arial" font-size="14.00" fill="#666666">[int]</text>
<polygon fill="none" stroke="black" points="206.7,-166.4 206.7,-197.2 375.17,-197.2 375.17,-166.4 206.7,-166.4"/>
<text text-anchor="start" x="213.7" y="-178.6" font-family="Arial" font-size="14.00">username </text>
<text text-anchor="start" x="279.84" y="-178.6" font-family="Arial" font-size="14.00" fill="#666666">[varchar(50)]</text>
<polygon fill="none" stroke="black" points="206.7,-135.6 206.7,-166.4 375.17,-166.4 375.17,-135.6 206.7,-135.6"/>
<text text-anchor="start" x="213.7" y="-147.8" font-family="Arial" font-size="14.00">password </text>
<text text-anchor="start" x="277.5" y="-147.8" font-family="Arial" font-size="14.00" fill="#666666">[varchar(50)]</text>
<polygon fill="none" stroke="black" points="206.7,-104.8 206.7,-135.6 375.17,-135.6 375.17,-104.8 206.7,-104.8"/>
<text text-anchor="start" x="213.7" y="-117" font-family="Arial" font-size="14.00">email </text>
<text text-anchor="start" x="251.04" y="-117" font-family="Arial" font-size="14.00" fill="#666666">[varchar(355)]</text>
<polygon fill="none" stroke="black" points="206.7,-74 206.7,-104.8 375.17,-104.8 375.17,-74 206.7,-74"/>
<text text-anchor="start" x="213.7" y="-86.2" font-family="Arial" font-size="14.00">created </text>
<text text-anchor="start" x="264.28" y="-86.2" font-family="Arial" font-size="14.00" fill="#666666">[timestamp]</text>
<polygon fill="none" stroke="black" points="206.7,-43.2 206.7,-74 375.17,-74 375.17,-43.2 206.7,-43.2"/>
<text text-anchor="start" x="213.7" y="-55.4" font-family="Arial" font-size="14.00">updated </text>
<text text-anchor="start" x="268.19" y="-55.4" font-family="Arial" font-size="14.00" fill="#666666">[timestamp]</text>
</g>
<!-- post&#45;&gt;user -->
<g id="edge3" class="edge">
<title>post:user_id&#45;&gt;user:id</title>
<path fill="none" stroke="black" stroke-dasharray="5,2" d="M432.66,-557.88C575.44,-543.04 527.75,-212.6 376.17,-212.6"/>
<polygon fill="black" stroke="black" points="432.83,-557.88 422.62,-553.89 427.51,-558.15 423.18,-558.37 423.18,-558.37 423.18,-558.37 427.51,-558.15 423.07,-562.88 432.83,-557.88"/>
<text text-anchor="start" x="429.51" y="-568.4" font-family="Arial" font-size="10.00">Detected Relation</text>
</g>
<!-- comment -->
<g id="node2" class="node">
<title>comment</title>
<polygon fill="#efefef" stroke="none" points="43.2,-965.8 43.2,-1001.4 248.67,-1001.4 248.67,-965.8 43.2,-965.8"/>
<polygon fill="none" stroke="black" points="43.2,-965.8 43.2,-1001.4 248.67,-1001.4 248.67,-965.8 43.2,-965.8"/>
<text text-anchor="start" x="50.2" y="-979.2" font-family="Arial Bold" font-size="18.00">comment</text>
<text text-anchor="start" x="117.18" y="-979.2" font-family="Arial" font-size="14.00">    </text>
<text text-anchor="start" x="148.3" y="-979.2" font-family="Arial" font-size="14.00" fill="#666666">[BASE TABLE]</text>
<polygon fill="none" stroke="black" points="43.2,-935 43.2,-965.8 248.67,-965.8 248.67,-935 43.2,-935"/>
<text text-anchor="start" x="50.2" y="-947.2" font-family="Arial" font-size="14.00">id </text>
<text text-anchor="start" x="64.99" y="-947.2" font-family="Arial" font-size="14.00" fill="#666666">[bigint]</text>
<polygon fill="none" stroke="black" points="43.2,-904.2 43.2,-935 248.67,-935 248.67,-904.2 43.2,-904.2"/>
<text text-anchor="start" x="50.2" y="-916.4" font-family="Arial" font-size="14.00">post_id </text>
<text text-anchor="start" x="99.23" y="-916.4" font-family="Arial" font-size="14.00" fill="#666666">[bigint]</text>
<polygon fill="none" stroke="black" points="43.2,-873.4 43.2,-904.2 248.67,-904.2 248.67,-873.4 43.2,-873.4"/>
<text text-anchor="start" x="50.2" y="-885.6" font-family="Arial" font-size="14.00">user_id </text>
<text text-anchor="start" x="100.01" y="-885.6" font-family="Arial" font-size="14.00" fill="#666666">[int]</text>
<polygon fill="none" stroke="black" points="43.2,-842.6 43.2,-873.4 248.67,-873.4 248.67,-842.6 43.2,-842.6"/>
<text text-anchor="start" x="50.2" y="-854.8" font-family="Arial" font-size="14.00">comment </text>
<text text-anchor="start" x="111.66" y="-854.8" font-family="Arial" font-size="14.00" fill="#666666">[text]</text>
<polygon fill="none" stroke="black" points="43.2,-811.8 43.2,-842.6 248.67,-842.6 248.67,-811.8 43.2,-811.8"/>
<text text-anchor="start" x="50.2" y="-824" font-family="Arial" font-size="14.00">created </text>
<text text-anchor="start" x="100.79" y="-824" font-family="Arial" font-size="14.00" fill="#666666">[datetime]</text>
<polygon fill="none" stroke="black" points="43.2,-781 43.2,-811.8 248.67,-811.8 248.67,-781 43.2,-781"/>
<text text-anchor="start" x="50.2" y="-793.2" font-family="Arial" font-size="14.00">updated </text>
<text text-anchor="start" x="104.7" y="-793.2" font-family="Arial" font-size="14.00" fill="#666666">[datetime]</text>
</g>
<!-- comment&#45;&gt;post -->
<g id="edge1" class="edge">
<title>comment:post_id&#45;&gt;post:id</title>
<path fill="none" stroke="black" stroke-dasharray="5,2" d="M259.83,-918.94C326.76,-909.63 287.32,-804.59 248.67,-737.8 225.92,-698.49 183.2,-725.65 160.36,-686.4 138.63,-649.06 116.16,-589.2 159.36,-589.2"/>
<polygon fill="black" stroke="black" points="259.98,-918.93 249.71,-915.09 254.66,-919.27 250.34,-919.56 250.34,-919.56 250.34,-919.56 254.66,-919.27 250.3,-924.07 259.98,-918.93"/>
<text text-anchor="start" x="256.67" y="-929.6" font-family="Arial" font-size="10.00">Detected Relation</text>
</g>
<!-- log -->
<g id="node3" class="node">
<title>log</title>
<polygon fill="#efefef" stroke="none" points="352.68,-981.2 352.68,-1016.8 519.19,-1016.8 519.19,-981.2 352.68,-981.2"/>
<polygon fill="none" stroke="black" points="352.68,-981.2 352.68,-1016.8 519.19,-1016.8 519.19,-981.2 352.68,-981.2"/>
<text text-anchor="start" x="362.19" y="-994.6" font-family="Arial Bold" font-size="18.00">log</text>
<text text-anchor="start" x="385.19" y="-994.6" font-family="Arial" font-size="14.00">    </text>
<text text-anchor="start" x="416.31" y="-994.6" font-family="Arial" font-size="14.00" fill="#666666">[BASE TABLE]</text>
<polygon fill="none" stroke="black" points="352.68,-950.4 352.68,-981.2 519.19,-981.2 519.19,-950.4 352.68,-950.4"/>
<text text-anchor="start" x="359.68" y="-962.6" font-family="Arial" font-size="14.00">id </text>
<text text-anchor="start" x="374.46" y="-962.6" font-family="Arial" font-size="14.00" fill="#666666">[bigint]</text>
<polygon fill="none" stroke="black" points="352.68,-919.6 352.68,-950.4 519.19,-950.4 519.19,-919.6 352.68,-919.6"/>
<text text-anchor="start" x="359.68" y="-931.8" font-family="Arial" font-size="14.00">user_id </text>
<text text-anchor="start" x="409.48" y="-931.8" font-family="Arial" font-size="14.00" fill="#666666">[int]</text>
<polygon fill="none" stroke="black" points="352.68,-888.8 352.68,-919.6 519.19,-919.6 519.19,-888.8 352.68,-888.8"/>
<text text-anchor="start" x="359.68" y="-901" font-family="Arial" font-size="14.00">post_id </text>
<text text-anchor="start" x="408.71" y="-901" font-family="Arial" font-size="14.00" fill="#666666">[bigint]</text>
<polygon fill="none" stroke="black" points="352.68,-858 352.68,-888.8 519.19,-888.8 519.19,-858 352.68,-858"/>
<text text-anchor="start" x="359.68" y="-870.2" font-family="Arial" font-size="14.00">comment_id </text>
<text text-anchor="start" x="439.82" y="-870.2" font-family="Arial" font-size="14.00" fill="#666666">[bigint]</text>
<polygon fill="none" stroke="black" points="352.68,-827.2 352.68,-858 519.19,-858 519.19,-827.2 352.68,-827.2"/>
<text text-anchor="start" x="359.68" y="-839.4" font-family="Arial" font-size="14.00">comment_star_id </text>
<text text-anchor="start" x="470.95" y="-839.4" font-family="Arial" font-size="14.00" fill="#666666">[bigint]</text>
<polygon fill="none" stroke="black" points="352.68,-796.4 352.68,-827.2 519.19,-827.2 519.19,-796.4 352.68,-796.4"/>
<text text-anchor="start" x="359.68" y="-808.6" font-family="Arial" font-size="14.00">payload </text>
<text text-anchor="start" x="412.61" y="-808.6" font-family="Arial" font-size="14.00" fill="#666666">[text]</text>
<polygon fill="none" stroke="black" points="352.68,-765.6 352.68,-796.4 519.19,-796.4 519.19,-765.6 352.68,-765.6"/>
<text text-anchor="start" x="359.68" y="-777.8" font-family="Arial" font-size="14.00">created </text>
<text text-anchor="start" x="410.26" y="-777.8" font-family="Arial" font-size="14.00" fill="#666666">[datetime]</text>
</g>
<!-- log&#45;&gt;post -->
<g id="edge2" class="edge">
<title>log:post_id&#45;&gt;post:id</title>
<path fill="none" stroke="black" stroke-dasharray="5,2" d="M341.51,-903.53C274.45,-894.15 312.52,-788.3 352.68,-722.4 370.64,-692.92 403.48,-715.84 421.51,-686.4 444.08,-649.56 465.71,-589.2 422.51,-589.2"/>
<polygon fill="black" stroke="black" points="341.36,-903.52 351.05,-908.67 346.69,-903.87 351.01,-904.16 351.01,-904.16 351.01,-904.16 346.69,-903.87 351.64,-899.69 341.36,-903.52"/>
<text text-anchor="start" x="265.18" y="-888.2" font-family="Arial" font-size="10.00">Detected Relation</text>
</g>
</g>
</svg>
