<?xml version="1.0" encoding="UTF-8" standalone="no"?>
<!DOCTYPE svg PUBLIC "-//W3C//DTD SVG 1.1//EN"
 "http://www.w3.org/Graphics/SVG/1.1/DTD/svg11.dtd">
<!-- Generated by graphviz version 2.40.1 (20161225.0304)
 -->
<!-- Title: post Pages: 1 -->
<svg width="610pt" height="1049pt"
 viewBox="0.00 0.00 609.50 1049.00" xmlns="http://www.w3.org/2000/svg" xmlns:xlink="http://www.w3.org/1999/xlink">
<g id="graph0" class="graph" transform="scale(1 1) rotate(0) translate(4 1045)">
<title>post</title>
<polygon fill="#ffffff" stroke="transparent" points="-4,4 -4,-1045 605.5,-1045 605.5,4 -4,4"/>
<!-- post -->
<g id="node1" class="node">
<title>post</title>
<polygon fill="#efefef" stroke="transparent" points="173.5,-592.5 173.5,-627.5 436.5,-627.5 436.5,-592.5 173.5,-592.5"/>
<polygon fill="none" stroke="#000000" points="173.5,-592.5 173.5,-627.5 436.5,-627.5 436.5,-592.5 173.5,-592.5"/>
<text text-anchor="start" x="224.2087" y="-605.3" font-family="Arial Bold" font-size="18.00" fill="#000000">post</text>
<text text-anchor="start" x="258.2233" y="-605.3" font-family="Arial" font-size="14.00" fill="#000000">    </text>
<text text-anchor="start" x="292.4281" y="-605.3" font-family="Arial" font-size="14.00" fill="#666666">[BASE TABLE]</text>
<polygon fill="none" stroke="#000000" points="173.5,-562.5 173.5,-592.5 436.5,-592.5 436.5,-562.5 173.5,-562.5"/>
<text text-anchor="start" x="180.5" y="-573.9" font-family="Arial" font-size="14.00" fill="#000000">id </text>
<text text-anchor="start" x="195.2798" y="-573.9" font-family="Arial" font-size="14.00" fill="#666666">[bigint]</text>
<polygon fill="none" stroke="#000000" points="173.5,-532.5 173.5,-562.5 436.5,-562.5 436.5,-532.5 173.5,-532.5"/>
<text text-anchor="start" x="180.5" y="-543.9" font-family="Arial" font-size="14.00" fill="#000000">user_id </text>
<text text-anchor="start" x="230.2882" y="-543.9" font-family="Arial" font-size="14.00" fill="#666666">[int]</text>
<polygon fill="none" stroke="#000000" points="173.5,-502.5 173.5,-532.5 436.5,-532.5 436.5,-502.5 173.5,-502.5"/>
<text text-anchor="start" x="180.5" y="-513.9" font-family="Arial" font-size="14.00" fill="#000000">title </text>
<text text-anchor="start" x="206.1676" y="-513.9" font-family="Arial" font-size="14.00" fill="#666666">[varchar(255)]</text>
<polygon fill="none" stroke="#000000" points="173.5,-472.5 173.5,-502.5 436.5,-502.5 436.5,-472.5 173.5,-472.5"/>
<text text-anchor="start" x="180.5" y="-483.9" font-family="Arial" font-size="14.00" fill="#000000">body </text>
<text text-anchor="start" x="214.7384" y="-483.9" font-family="Arial" font-size="14.00" fill="#666666">[text]</text>
<polygon fill="none" stroke="#000000" points="173.5,-442.5 173.5,-472.5 436.5,-472.5 436.5,-442.5 173.5,-442.5"/>
<text text-anchor="start" x="180.197" y="-453.9" font-family="Arial" font-size="14.00" fill="#000000">post_type </text>
<text text-anchor="start" x="244.7818" y="-453.9" font-family="Arial" font-size="14.00" fill="#666666">[enum(&#39;public&#39;,&#39;private&#39;,&#39;draft&#39;)]</text>
<polygon fill="none" stroke="#000000" points="173.5,-412.5 173.5,-442.5 436.5,-442.5 436.5,-412.5 173.5,-412.5"/>
<text text-anchor="start" x="180.5" y="-423.9" font-family="Arial" font-size="14.00" fill="#000000">created </text>
<text text-anchor="start" x="231.0722" y="-423.9" font-family="Arial" font-size="14.00" fill="#666666">[datetime]</text>
<polygon fill="none" stroke="#000000" points="173.5,-382.5 173.5,-412.5 436.5,-412.5 436.5,-382.5 173.5,-382.5"/>
<text text-anchor="start" x="180.5" y="-393.9" font-family="Arial" font-size="14.00" fill="#000000">updated </text>
<text text-anchor="start" x="234.9768" y="-393.9" font-family="Arial" font-size="14.00" fill="#666666">[datetime]</text>
<polygon fill="none" stroke="#000000" stroke-width="3" points="171.5,-381.5 171.5,-629.5 437.5,-629.5 437.5,-381.5 171.5,-381.5"/>
</g>
<!-- user -->
<g id="node4" class="node">
<title>user</title>
<polygon fill="#efefef" stroke="transparent" points="210.5,-222.5 210.5,-257.5 399.5,-257.5 399.5,-222.5 210.5,-222.5"/>
<polygon fill="none" stroke="#000000" points="210.5,-222.5 210.5,-257.5 399.5,-257.5 399.5,-222.5 210.5,-222.5"/>
<text text-anchor="start" x="223.7137" y="-235.3" font-family="Arial Bold" font-size="18.00" fill="#000000">user</text>
<text text-anchor="start" x="258.7183" y="-235.3" font-family="Arial" font-size="14.00" fill="#000000">    </text>
<text text-anchor="start" x="292.9231" y="-235.3" font-family="Arial" font-size="14.00" fill="#666666">[BASE TABLE]</text>
<polygon fill="none" stroke="#000000" points="210.5,-192.5 210.5,-222.5 399.5,-222.5 399.5,-192.5 210.5,-192.5"/>
<text text-anchor="start" x="217.5" y="-203.9" font-family="Arial" font-size="14.00" fill="#000000">id    </text>
<text text-anchor="start" x="262.594" y="-203.9" font-family="Arial" font-size="14.00" fill="#666666">[int]</text>
<polygon fill="none" stroke="#000000" points="210.5,-162.5 210.5,-192.5 399.5,-192.5 399.5,-162.5 210.5,-162.5"/>
<text text-anchor="start" x="217.1122" y="-173.9" font-family="Arial" font-size="14.00" fill="#000000">username    </text>
<text text-anchor="start" x="313.5512" y="-173.9" font-family="Arial" font-size="14.00" fill="#666666">[varchar(50)]</text>
<polygon fill="none" stroke="#000000" points="210.5,-132.5 210.5,-162.5 399.5,-162.5 399.5,-132.5 210.5,-132.5"/>
<text text-anchor="start" x="217.5" y="-143.9" font-family="Arial" font-size="14.00" fill="#000000">password    </text>
<text text-anchor="start" x="311.6024" y="-143.9" font-family="Arial" font-size="14.00" fill="#666666">[varchar(50)]</text>
<polygon fill="none" stroke="#000000" points="210.5,-102.5 210.5,-132.5 399.5,-132.5 399.5,-102.5 210.5,-102.5"/>
<text text-anchor="start" x="217.5" y="-113.9" font-family="Arial" font-size="14.00" fill="#000000">email    </text>
<text text-anchor="start" x="285.1438" y="-113.9" font-family="Arial" font-size="14.00" fill="#666666">[varchar(355)]</text>
<polygon fill="none" stroke="#000000" points="210.5,-72.5 210.5,-102.5 399.5,-102.5 399.5,-72.5 210.5,-72.5"/>
<text text-anchor="start" x="217.5" y="-83.9" font-family="Arial" font-size="14.00" fill="#000000">created    </text>
<text text-anchor="start" x="298.3864" y="-83.9" font-family="Arial" font-size="14.00" fill="#666666">[timestamp]</text>
<polygon fill="none" stroke="#000000" points="210.5,-42.5 210.5,-72.5 399.5,-72.5 399.5,-42.5 210.5,-42.5"/>
<text text-anchor="start" x="217.5" y="-53.9" font-family="Arial" font-size="14.00" fill="#000000">updated    </text>
<text text-anchor="start" x="302.291" y="-53.9" font-family="Arial" font-size="14.00" fill="#666666">[timestamp]</text>
</g>
<!-- post&#45;&gt;user -->
<g id="edge3" class="edge">
<title>post:user_id&#45;&gt;user:id</title>
<path fill="none" stroke="#000000" stroke-dasharray="5,2" d="M163.1228,-546.9485C23.2943,-531.7493 62.0593,-207.5 210.5,-207.5"/>
<polygon fill="#000000" stroke="#000000" points="163.5141,-546.9692 173.2611,-551.9937 168.507,-547.2346 173.5,-547.5 173.5,-547.5 173.5,-547.5 168.507,-547.2346 173.7389,-543.0063 163.5141,-546.9692 163.5141,-546.9692"/>
<text text-anchor="start" x="87.768" y="-557.5" font-family="Arial" font-size="10.00" fill="#000000">Detected Relation</text>
</g>
<!-- comment -->
<g id="node2" class="node">
<title>comment</title>
<polygon fill="#efefef" stroke="transparent" points="43.5,-947.5 43.5,-982.5 258.5,-982.5 258.5,-947.5 43.5,-947.5"/>
<polygon fill="none" stroke="#000000" points="43.5,-947.5 43.5,-982.5 258.5,-982.5 258.5,-947.5 43.5,-947.5"/>
<text text-anchor="start" x="50.2134" y="-960.3" font-family="Arial Bold" font-size="18.00" fill="#000000">comment</text>
<text text-anchor="start" x="124.2186" y="-960.3" font-family="Arial" font-size="14.00" fill="#000000">    </text>
<text text-anchor="start" x="158.4234" y="-960.3" font-family="Arial" font-size="14.00" fill="#666666">[BASE TABLE]</text>
<polygon fill="none" stroke="#000000" points="43.5,-917.5 43.5,-947.5 258.5,-947.5 258.5,-917.5 43.5,-917.5"/>
<text text-anchor="start" x="50.5" y="-928.9" font-family="Arial" font-size="14.00" fill="#000000">id    </text>
<text text-anchor="start" x="95.594" y="-928.9" font-family="Arial" font-size="14.00" fill="#666666">[bigint]</text>
<polygon fill="none" stroke="#000000" points="43.5,-887.5 43.5,-917.5 258.5,-917.5 258.5,-887.5 43.5,-887.5"/>
<text text-anchor="start" x="50.5" y="-898.9" font-family="Arial" font-size="14.00" fill="#000000">post_id    </text>
<text text-anchor="start" x="129.8324" y="-898.9" font-family="Arial" font-size="14.00" fill="#666666">[bigint]</text>
<polygon fill="none" stroke="#000000" points="43.5,-857.5 43.5,-887.5 258.5,-887.5 258.5,-857.5 43.5,-857.5"/>
<text text-anchor="start" x="50.5" y="-868.9" font-family="Arial" font-size="14.00" fill="#000000">user_id    </text>
<text text-anchor="start" x="130.6024" y="-868.9" font-family="Arial" font-size="14.00" fill="#666666">[int]</text>
<polygon fill="none" stroke="#000000" points="43.5,-827.5 43.5,-857.5 258.5,-857.5 258.5,-827.5 43.5,-827.5"/>
<text text-anchor="start" x="50.5" y="-838.9" font-family="Arial" font-size="14.00" fill="#000000">comment    </text>
<text text-anchor="start" x="142.2644" y="-838.9" font-family="Arial" font-size="14.00" fill="#666666">[text]</text>
<polygon fill="none" stroke="#000000" points="43.5,-797.5 43.5,-827.5 258.5,-827.5 258.5,-797.5 43.5,-797.5"/>
<text text-anchor="start" x="50.5" y="-808.9" font-family="Arial" font-size="14.00" fill="#000000">created    </text>
<text text-anchor="start" x="131.3864" y="-808.9" font-family="Arial" font-size="14.00" fill="#666666">[datetime]</text>
<polygon fill="none" stroke="#000000" points="43.5,-767.5 43.5,-797.5 258.5,-797.5 258.5,-767.5 43.5,-767.5"/>
<text text-anchor="start" x="50.5" y="-778.9" font-family="Arial" font-size="14.00" fill="#000000">updated    </text>
<text text-anchor="start" x="135.291" y="-778.9" font-family="Arial" font-size="14.00" fill="#666666">[datetime]</text>
</g>
<!-- comment&#45;&gt;post -->
<g id="edge1" class="edge">
<title>comment:post_id&#45;&gt;post:id</title>
<path fill="none" stroke="#000000" stroke-dasharray="5,2" d="M268.8223,-901.7978C333.6395,-892.3836 295.5465,-790.4312 258.5,-725 236.7936,-686.6624 195.2064,-712.3376 173.5,-674 152.3687,-636.6781 130.6111,-577.5 173.5,-577.5"/>
<polygon fill="#000000" stroke="#000000" points="268.4769,-901.8212 258.1946,-898.0104 263.4885,-902.1606 258.5,-902.5 258.5,-902.5 258.5,-902.5 263.4885,-902.1606 258.8054,-906.9896 268.4769,-901.8212 268.4769,-901.8212"/>
<text text-anchor="start" x="265.768" y="-912.5" font-family="Arial" font-size="10.00" fill="#000000">Detected Relation</text>
</g>
<!-- log -->
<g id="node3" class="node">
<title>log</title>
<polygon fill="#efefef" stroke="transparent" points="362.5,-962.5 362.5,-997.5 558.5,-997.5 558.5,-962.5 362.5,-962.5"/>
<polygon fill="none" stroke="#000000" points="362.5,-962.5 362.5,-997.5 558.5,-997.5 558.5,-962.5 362.5,-962.5"/>
<text text-anchor="start" x="384.7127" y="-975.3" font-family="Arial Bold" font-size="18.00" fill="#000000">log</text>
<text text-anchor="start" x="408.7193" y="-975.3" font-family="Arial" font-size="14.00" fill="#000000">    </text>
<text text-anchor="start" x="442.9241" y="-975.3" font-family="Arial" font-size="14.00" fill="#666666">[BASE TABLE]</text>
<polygon fill="none" stroke="#000000" points="362.5,-932.5 362.5,-962.5 558.5,-962.5 558.5,-932.5 362.5,-932.5"/>
<text text-anchor="start" x="369.5" y="-943.9" font-family="Arial" font-size="14.00" fill="#000000">id    </text>
<text text-anchor="start" x="414.594" y="-943.9" font-family="Arial" font-size="14.00" fill="#666666">[bigint]</text>
<polygon fill="none" stroke="#000000" points="362.5,-902.5 362.5,-932.5 558.5,-932.5 558.5,-902.5 362.5,-902.5"/>
<text text-anchor="start" x="369.5" y="-913.9" font-family="Arial" font-size="14.00" fill="#000000">user_id    </text>
<text text-anchor="start" x="449.6024" y="-913.9" font-family="Arial" font-size="14.00" fill="#666666">[int]</text>
<polygon fill="none" stroke="#000000" points="362.5,-872.5 362.5,-902.5 558.5,-902.5 558.5,-872.5 362.5,-872.5"/>
<text text-anchor="start" x="369.5" y="-883.9" font-family="Arial" font-size="14.00" fill="#000000">post_id    </text>
<text text-anchor="start" x="448.8324" y="-883.9" font-family="Arial" font-size="14.00" fill="#666666">[bigint]</text>
<polygon fill="none" stroke="#000000" points="362.5,-842.5 362.5,-872.5 558.5,-872.5 558.5,-842.5 362.5,-842.5"/>
<text text-anchor="start" x="369.5" y="-853.9" font-family="Arial" font-size="14.00" fill="#000000">comment_id    </text>
<text text-anchor="start" x="479.9362" y="-853.9" font-family="Arial" font-size="14.00" fill="#666666">[bigint]</text>
<polygon fill="none" stroke="#000000" points="362.5,-812.5 362.5,-842.5 558.5,-842.5 558.5,-812.5 362.5,-812.5"/>
<text text-anchor="start" x="369.1073" y="-823.9" font-family="Arial" font-size="14.00" fill="#000000">comment_star_id    </text>
<text text-anchor="start" x="510.6599" y="-823.9" font-family="Arial" font-size="14.00" fill="#666666">[bigint]</text>
<polygon fill="none" stroke="#000000" points="362.5,-782.5 362.5,-812.5 558.5,-812.5 558.5,-782.5 362.5,-782.5"/>
<text text-anchor="start" x="369.5" y="-793.9" font-family="Arial" font-size="14.00" fill="#000000">payload    </text>
<text text-anchor="start" x="452.7244" y="-793.9" font-family="Arial" font-size="14.00" fill="#666666">[text]</text>
<polygon fill="none" stroke="#000000" points="362.5,-752.5 362.5,-782.5 558.5,-782.5 558.5,-752.5 362.5,-752.5"/>
<text text-anchor="start" x="369.5" y="-763.9" font-family="Arial" font-size="14.00" fill="#000000">created    </text>
<text text-anchor="start" x="450.3864" y="-763.9" font-family="Arial" font-size="14.00" fill="#666666">[datetime]</text>
</g>
<!-- log&#45;&gt;post -->
<g id="edge2" class="edge">
<title>log:post_id&#45;&gt;post:id</title>
<path fill="none" stroke="#000000" stroke-dasharray="5,2" d="M352.1591,-886.7867C287.0951,-877.2255 322.6228,-773.7455 362.5,-710 381.897,-678.993 417.103,-705.007 436.5,-674 459.246,-637.6396 479.3889,-577.5 436.5,-577.5"/>
<polygon fill="#000000" stroke="#000000" points="352.5237,-886.8118 362.1903,-891.9893 357.5119,-887.1559 362.5,-887.5 362.5,-887.5 362.5,-887.5 357.5119,-887.1559 362.8097,-883.0107 352.5237,-886.8118 352.5237,-886.8118"/>
<text text-anchor="start" x="276.768" y="-871.5" font-family="Arial" font-size="10.00" fill="#000000">Detected Relation</text>
</g>
</g>
</svg>
