<?xml version="1.0" encoding="UTF-8" standalone="no"?>
<!DOCTYPE svg PUBLIC "-//W3C//DTD SVG 1.1//EN"
 "http://www.w3.org/Graphics/SVG/1.1/DTD/svg11.dtd">
<!-- Generated by graphviz version 2.40.1 (20161225.0304)
 -->
<!-- Title: relations_singular Pages: 1 -->
<svg width="1340pt" height="1380pt"
 viewBox="0.00 0.00 1340.23 1380.00" xmlns="http://www.w3.org/2000/svg" xmlns:xlink="http://www.w3.org/1999/xlink">
<g id="graph0" class="graph" transform="scale(1 1) rotate(0) translate(4 1376)">
<title>relations_singular</title>
<polygon fill="#ffffff" stroke="transparent" points="-4,4 -4,-1376 1336.2338,-1376 1336.2338,4 -4,4"/>
<!-- CamelizeTable -->
<g id="node1" class="node">
<title>CamelizeTable</title>
<polygon fill="#efefef" stroke="transparent" points="95.7338,-1218.5 95.7338,-1253.5 356.7338,-1253.5 356.7338,-1218.5 95.7338,-1218.5"/>
<polygon fill="none" stroke="#000000" points="95.7338,-1218.5 95.7338,-1253.5 356.7338,-1253.5 356.7338,-1218.5 95.7338,-1218.5"/>
<text text-anchor="start" x="102.4486" y="-1231.3" font-family="Arial Bold" font-size="18.00" fill="#000000">CamelizeTable</text>
<text text-anchor="start" x="222.451" y="-1231.3" font-family="Arial" font-size="14.00" fill="#000000">    </text>
<text text-anchor="start" x="256.6558" y="-1231.3" font-family="Arial" font-size="14.00" fill="#666666">[BASE TABLE]</text>
<polygon fill="none" stroke="#000000" points="95.7338,-1188.5 95.7338,-1218.5 356.7338,-1218.5 356.7338,-1188.5 95.7338,-1188.5"/>
<text text-anchor="start" x="102.7338" y="-1199.9" font-family="Arial" font-size="14.00" fill="#000000">id </text>
<text text-anchor="start" x="117.5136" y="-1199.9" font-family="Arial" font-size="14.00" fill="#666666">[bigint]</text>
<polygon fill="none" stroke="#000000" points="95.7338,-1158.5 95.7338,-1188.5 356.7338,-1188.5 356.7338,-1158.5 95.7338,-1158.5"/>
<text text-anchor="start" x="102.7338" y="-1169.9" font-family="Arial" font-size="14.00" fill="#000000">created </text>
<text text-anchor="start" x="153.306" y="-1169.9" font-family="Arial" font-size="14.00" fill="#666666">[datetime]</text>
</g>
<!-- comment -->
<g id="node2" class="node">
<title>comment</title>
<polygon fill="#efefef" stroke="transparent" points="157.7338,-926.5 157.7338,-961.5 372.7338,-961.5 372.7338,-926.5 157.7338,-926.5"/>
<polygon fill="none" stroke="#000000" points="157.7338,-926.5 157.7338,-961.5 372.7338,-961.5 372.7338,-926.5 157.7338,-926.5"/>
<text text-anchor="start" x="164.4472" y="-939.3" font-family="Arial Bold" font-size="18.00" fill="#000000">comment</text>
<text text-anchor="start" x="238.4524" y="-939.3" font-family="Arial" font-size="14.00" fill="#000000">    </text>
<text text-anchor="start" x="272.6572" y="-939.3" font-family="Arial" font-size="14.00" fill="#666666">[BASE TABLE]</text>
<polygon fill="none" stroke="#000000" points="157.7338,-896.5 157.7338,-926.5 372.7338,-926.5 372.7338,-896.5 157.7338,-896.5"/>
<text text-anchor="start" x="164.7338" y="-907.9" font-family="Arial" font-size="14.00" fill="#000000">id </text>
<text text-anchor="start" x="179.5136" y="-907.9" font-family="Arial" font-size="14.00" fill="#666666">[bigint]</text>
<polygon fill="none" stroke="#000000" points="157.7338,-866.5 157.7338,-896.5 372.7338,-896.5 372.7338,-866.5 157.7338,-866.5"/>
<text text-anchor="start" x="164.7338" y="-877.9" font-family="Arial" font-size="14.00" fill="#000000">post_id </text>
<text text-anchor="start" x="213.752" y="-877.9" font-family="Arial" font-size="14.00" fill="#666666">[bigint]</text>
<polygon fill="none" stroke="#000000" points="157.7338,-836.5 157.7338,-866.5 372.7338,-866.5 372.7338,-836.5 157.7338,-836.5"/>
<text text-anchor="start" x="164.7338" y="-847.9" font-family="Arial" font-size="14.00" fill="#000000">user_id </text>
<text text-anchor="start" x="214.522" y="-847.9" font-family="Arial" font-size="14.00" fill="#666666">[int]</text>
<polygon fill="none" stroke="#000000" points="157.7338,-806.5 157.7338,-836.5 372.7338,-836.5 372.7338,-806.5 157.7338,-806.5"/>
<text text-anchor="start" x="164.7338" y="-817.9" font-family="Arial" font-size="14.00" fill="#000000">comment </text>
<text text-anchor="start" x="226.184" y="-817.9" font-family="Arial" font-size="14.00" fill="#666666">[text]</text>
<polygon fill="none" stroke="#000000" points="157.7338,-776.5 157.7338,-806.5 372.7338,-806.5 372.7338,-776.5 157.7338,-776.5"/>
<text text-anchor="start" x="164.7338" y="-787.9" font-family="Arial" font-size="14.00" fill="#000000">created </text>
<text text-anchor="start" x="215.306" y="-787.9" font-family="Arial" font-size="14.00" fill="#666666">[datetime]</text>
<polygon fill="none" stroke="#000000" points="157.7338,-746.5 157.7338,-776.5 372.7338,-776.5 372.7338,-746.5 157.7338,-746.5"/>
<text text-anchor="start" x="164.7338" y="-757.9" font-family="Arial" font-size="14.00" fill="#000000">updated </text>
<text text-anchor="start" x="219.2106" y="-757.9" font-family="Arial" font-size="14.00" fill="#666666">[datetime]</text>
</g>
<!-- post -->
<g id="node6" class="node">
<title>post</title>
<polygon fill="#efefef" stroke="transparent" points="324.7338,-589.5 324.7338,-624.5 587.7338,-624.5 587.7338,-589.5 324.7338,-589.5"/>
<polygon fill="none" stroke="#000000" points="324.7338,-589.5 324.7338,-624.5 587.7338,-624.5 587.7338,-589.5 324.7338,-589.5"/>
<text text-anchor="start" x="375.4425" y="-602.3" font-family="Arial Bold" font-size="18.00" fill="#000000">post</text>
<text text-anchor="start" x="409.4571" y="-602.3" font-family="Arial" font-size="14.00" fill="#000000">    </text>
<text text-anchor="start" x="443.6619" y="-602.3" font-family="Arial" font-size="14.00" fill="#666666">[BASE TABLE]</text>
<polygon fill="none" stroke="#000000" points="324.7338,-559.5 324.7338,-589.5 587.7338,-589.5 587.7338,-559.5 324.7338,-559.5"/>
<text text-anchor="start" x="331.7338" y="-570.9" font-family="Arial" font-size="14.00" fill="#000000">id </text>
<text text-anchor="start" x="346.5136" y="-570.9" font-family="Arial" font-size="14.00" fill="#666666">[bigint]</text>
<polygon fill="none" stroke="#000000" points="324.7338,-529.5 324.7338,-559.5 587.7338,-559.5 587.7338,-529.5 324.7338,-529.5"/>
<text text-anchor="start" x="331.7338" y="-540.9" font-family="Arial" font-size="14.00" fill="#000000">user_id </text>
<text text-anchor="start" x="381.522" y="-540.9" font-family="Arial" font-size="14.00" fill="#666666">[int]</text>
<polygon fill="none" stroke="#000000" points="324.7338,-499.5 324.7338,-529.5 587.7338,-529.5 587.7338,-499.5 324.7338,-499.5"/>
<text text-anchor="start" x="331.7338" y="-510.9" font-family="Arial" font-size="14.00" fill="#000000">title </text>
<text text-anchor="start" x="357.4014" y="-510.9" font-family="Arial" font-size="14.00" fill="#666666">[varchar(255)]</text>
<polygon fill="none" stroke="#000000" points="324.7338,-469.5 324.7338,-499.5 587.7338,-499.5 587.7338,-469.5 324.7338,-469.5"/>
<text text-anchor="start" x="331.7338" y="-480.9" font-family="Arial" font-size="14.00" fill="#000000">body </text>
<text text-anchor="start" x="365.9722" y="-480.9" font-family="Arial" font-size="14.00" fill="#666666">[text]</text>
<polygon fill="none" stroke="#000000" points="324.7338,-439.5 324.7338,-469.5 587.7338,-469.5 587.7338,-439.5 324.7338,-439.5"/>
<text text-anchor="start" x="331.4308" y="-450.9" font-family="Arial" font-size="14.00" fill="#000000">post_type </text>
<text text-anchor="start" x="396.0156" y="-450.9" font-family="Arial" font-size="14.00" fill="#666666">[enum(&#39;public&#39;,&#39;private&#39;,&#39;draft&#39;)]</text>
<polygon fill="none" stroke="#000000" points="324.7338,-409.5 324.7338,-439.5 587.7338,-439.5 587.7338,-409.5 324.7338,-409.5"/>
<text text-anchor="start" x="331.7338" y="-420.9" font-family="Arial" font-size="14.00" fill="#000000">created </text>
<text text-anchor="start" x="382.306" y="-420.9" font-family="Arial" font-size="14.00" fill="#666666">[datetime]</text>
<polygon fill="none" stroke="#000000" points="324.7338,-379.5 324.7338,-409.5 587.7338,-409.5 587.7338,-379.5 324.7338,-379.5"/>
<text text-anchor="start" x="331.7338" y="-390.9" font-family="Arial" font-size="14.00" fill="#000000">updated </text>
<text text-anchor="start" x="386.2106" y="-390.9" font-family="Arial" font-size="14.00" fill="#666666">[datetime]</text>
</g>
<!-- comment&#45;&gt;post -->
<g id="edge2" class="edge">
<title>comment:post_id&#45;&gt;post:id</title>
<path fill="none" stroke="#000000" stroke-dasharray="5,2" d="M383.0335,-880.8098C447.5527,-871.5543 406.3602,-771.2529 372.7338,-704 360.8081,-680.1486 336.6595,-691.8514 324.7338,-668 306.1496,-630.8316 283.1782,-574.5 324.7338,-574.5"/>
<polygon fill="#000000" stroke="#000000" points="382.7114,-880.8313 372.4329,-877.0101 377.7226,-881.1657 372.7338,-881.5 372.7338,-881.5 372.7338,-881.5 377.7226,-881.1657 373.0347,-885.9899 382.7114,-880.8313 382.7114,-880.8313"/>
<text text-anchor="start" x="380.0018" y="-891.5" font-family="Arial" font-size="10.00" fill="#000000">Detected Relation</text>
</g>
<!-- user -->
<g id="node8" class="node">
<title>user</title>
<polygon fill="#efefef" stroke="transparent" points="570.7338,-222.5 570.7338,-257.5 746.7338,-257.5 746.7338,-222.5 570.7338,-222.5"/>
<polygon fill="none" stroke="#000000" points="570.7338,-222.5 570.7338,-257.5 746.7338,-257.5 746.7338,-222.5 570.7338,-222.5"/>
<text text-anchor="start" x="577.4475" y="-235.3" font-family="Arial Bold" font-size="18.00" fill="#000000">user</text>
<text text-anchor="start" x="612.4521" y="-235.3" font-family="Arial" font-size="14.00" fill="#000000">    </text>
<text text-anchor="start" x="646.6569" y="-235.3" font-family="Arial" font-size="14.00" fill="#666666">[BASE TABLE]</text>
<polygon fill="none" stroke="#000000" points="570.7338,-192.5 570.7338,-222.5 746.7338,-222.5 746.7338,-192.5 570.7338,-192.5"/>
<text text-anchor="start" x="577.7338" y="-203.9" font-family="Arial" font-size="14.00" fill="#000000">id </text>
<text text-anchor="start" x="592.5136" y="-203.9" font-family="Arial" font-size="14.00" fill="#666666">[int]</text>
<polygon fill="none" stroke="#000000" points="570.7338,-162.5 570.7338,-192.5 746.7338,-192.5 746.7338,-162.5 570.7338,-162.5"/>
<text text-anchor="start" x="577.7338" y="-173.9" font-family="Arial" font-size="14.00" fill="#000000">username </text>
<text text-anchor="start" x="643.8586" y="-173.9" font-family="Arial" font-size="14.00" fill="#666666">[varchar(50)]</text>
<polygon fill="none" stroke="#000000" points="570.7338,-132.5 570.7338,-162.5 746.7338,-162.5 746.7338,-132.5 570.7338,-132.5"/>
<text text-anchor="start" x="577.7338" y="-143.9" font-family="Arial" font-size="14.00" fill="#000000">password </text>
<text text-anchor="start" x="641.522" y="-143.9" font-family="Arial" font-size="14.00" fill="#666666">[varchar(50)]</text>
<polygon fill="none" stroke="#000000" points="570.7338,-102.5 570.7338,-132.5 746.7338,-132.5 746.7338,-102.5 570.7338,-102.5"/>
<text text-anchor="start" x="577.7338" y="-113.9" font-family="Arial" font-size="14.00" fill="#000000">email </text>
<text text-anchor="start" x="615.0634" y="-113.9" font-family="Arial" font-size="14.00" fill="#666666">[varchar(355)]</text>
<polygon fill="none" stroke="#000000" points="570.7338,-72.5 570.7338,-102.5 746.7338,-102.5 746.7338,-72.5 570.7338,-72.5"/>
<text text-anchor="start" x="577.7338" y="-83.9" font-family="Arial" font-size="14.00" fill="#000000">created </text>
<text text-anchor="start" x="628.306" y="-83.9" font-family="Arial" font-size="14.00" fill="#666666">[timestamp]</text>
<polygon fill="none" stroke="#000000" points="570.7338,-42.5 570.7338,-72.5 746.7338,-72.5 746.7338,-42.5 570.7338,-42.5"/>
<text text-anchor="start" x="577.7338" y="-53.9" font-family="Arial" font-size="14.00" fill="#000000">updated </text>
<text text-anchor="start" x="632.2106" y="-53.9" font-family="Arial" font-size="14.00" fill="#666666">[timestamp]</text>
</g>
<!-- comment&#45;&gt;user -->
<g id="edge3" class="edge">
<title>comment:user_id&#45;&gt;user:id</title>
<path fill="none" stroke="#000000" stroke-dasharray="5,2" d="M147.6317,-851.409C-49.1618,-847.7979 -86.2664,-735.7299 271.7338,-337 368.4836,-229.243 425.9163,-207.5 570.7338,-207.5"/>
<polygon fill="#000000" stroke="#000000" points="147.7342,-851.4098 157.6932,-855.9998 152.734,-851.4549 157.7338,-851.5 157.7338,-851.5 157.7338,-851.5 152.734,-851.4549 157.7744,-847.0002 147.7342,-851.4098 147.7342,-851.4098"/>
<text text-anchor="start" x="72.0018" y="-861.5" font-family="Arial" font-size="10.00" fill="#000000">Detected Relation</text>
</g>
<!-- comment_star -->
<g id="node3" class="node">
<title>comment_star</title>
<polygon fill="#efefef" stroke="transparent" points="515.7338,-926.5 515.7338,-961.5 770.7338,-961.5 770.7338,-926.5 515.7338,-926.5"/>
<polygon fill="none" stroke="#000000" points="515.7338,-926.5 515.7338,-961.5 770.7338,-961.5 770.7338,-926.5 515.7338,-926.5"/>
<text text-anchor="start" x="522.4438" y="-939.3" font-family="Arial Bold" font-size="18.00" fill="#000000">comment_star</text>
<text text-anchor="start" x="636.4558" y="-939.3" font-family="Arial" font-size="14.00" fill="#000000">    </text>
<text text-anchor="start" x="670.6606" y="-939.3" font-family="Arial" font-size="14.00" fill="#666666">[BASE TABLE]</text>
<polygon fill="none" stroke="#000000" points="515.7338,-896.5 515.7338,-926.5 770.7338,-926.5 770.7338,-896.5 515.7338,-896.5"/>
<text text-anchor="start" x="522.7338" y="-907.9" font-family="Arial" font-size="14.00" fill="#000000">id </text>
<text text-anchor="start" x="537.5136" y="-907.9" font-family="Arial" font-size="14.00" fill="#666666">[bigint]</text>
<polygon fill="none" stroke="#000000" points="515.7338,-866.5 515.7338,-896.5 770.7338,-896.5 770.7338,-866.5 515.7338,-866.5"/>
<text text-anchor="start" x="522.7338" y="-877.9" font-family="Arial" font-size="14.00" fill="#000000">user_id </text>
<text text-anchor="start" x="572.522" y="-877.9" font-family="Arial" font-size="14.00" fill="#666666">[int]</text>
<polygon fill="none" stroke="#000000" points="515.7338,-836.5 515.7338,-866.5 770.7338,-866.5 770.7338,-836.5 515.7338,-836.5"/>
<text text-anchor="start" x="522.7338" y="-847.9" font-family="Arial" font-size="14.00" fill="#000000">comment_post_id </text>
<text text-anchor="start" x="637.0942" y="-847.9" font-family="Arial" font-size="14.00" fill="#666666">[bigint]</text>
<polygon fill="none" stroke="#000000" points="515.7338,-806.5 515.7338,-836.5 770.7338,-836.5 770.7338,-806.5 515.7338,-806.5"/>
<text text-anchor="start" x="522.7338" y="-817.9" font-family="Arial" font-size="14.00" fill="#000000">comment_user_id </text>
<text text-anchor="start" x="637.8642" y="-817.9" font-family="Arial" font-size="14.00" fill="#666666">[int]</text>
<polygon fill="none" stroke="#000000" points="515.7338,-776.5 515.7338,-806.5 770.7338,-806.5 770.7338,-776.5 515.7338,-776.5"/>
<text text-anchor="start" x="522.7338" y="-787.9" font-family="Arial" font-size="14.00" fill="#000000">created </text>
<text text-anchor="start" x="573.306" y="-787.9" font-family="Arial" font-size="14.00" fill="#666666">[timestamp]</text>
<polygon fill="none" stroke="#000000" points="515.7338,-746.5 515.7338,-776.5 770.7338,-776.5 770.7338,-746.5 515.7338,-746.5"/>
<text text-anchor="start" x="522.7338" y="-757.9" font-family="Arial" font-size="14.00" fill="#000000">updated </text>
<text text-anchor="start" x="577.2106" y="-757.9" font-family="Arial" font-size="14.00" fill="#666666">[timestamp]</text>
</g>
<!-- comment_star&#45;&gt;user -->
<g id="edge4" class="edge">
<title>comment_star:user_id&#45;&gt;user:id</title>
<path fill="none" stroke="#000000" stroke-dasharray="5,2" d="M780.238,-877.5419C843.4111,-822.3054 818.3039,-207.5 746.7338,-207.5"/>
<polygon fill="#000000" stroke="#000000" points="779.9652,-877.6554 769.0037,-877.3458 775.3495,-879.5777 770.7338,-881.5 770.7338,-881.5 770.7338,-881.5 775.3495,-879.5777 772.4639,-885.6542 779.9652,-877.6554 779.9652,-877.6554"/>
<text text-anchor="start" x="778.0018" y="-891.5" font-family="Arial" font-size="10.00" fill="#000000">Detected Relation</text>
</g>
<!-- hyphen&#45;table -->
<g id="node4" class="node">
<title>hyphen&#45;table</title>
<polygon fill="#efefef" stroke="transparent" points="731.7338,-1233.5 731.7338,-1268.5 976.7338,-1268.5 976.7338,-1233.5 731.7338,-1233.5"/>
<polygon fill="none" stroke="#000000" points="731.7338,-1233.5 731.7338,-1268.5 976.7338,-1268.5 976.7338,-1233.5 731.7338,-1233.5"/>
<text text-anchor="start" x="738.4307" y="-1246.3" font-family="Arial Bold" font-size="18.00" fill="#000000">hyphen&#45;table</text>
<text text-anchor="start" x="842.4689" y="-1246.3" font-family="Arial" font-size="14.00" fill="#000000">    </text>
<text text-anchor="start" x="876.6737" y="-1246.3" font-family="Arial" font-size="14.00" fill="#666666">[BASE TABLE]</text>
<polygon fill="none" stroke="#000000" points="731.7338,-1203.5 731.7338,-1233.5 976.7338,-1233.5 976.7338,-1203.5 731.7338,-1203.5"/>
<text text-anchor="start" x="738.7338" y="-1214.9" font-family="Arial" font-size="14.00" fill="#000000">id </text>
<text text-anchor="start" x="753.5136" y="-1214.9" font-family="Arial" font-size="14.00" fill="#666666">[bigint]</text>
<polygon fill="none" stroke="#000000" points="731.7338,-1173.5 731.7338,-1203.5 976.7338,-1203.5 976.7338,-1173.5 731.7338,-1173.5"/>
<text text-anchor="start" x="738.7338" y="-1184.9" font-family="Arial" font-size="14.00" fill="#000000">hyphen&#45;column </text>
<text text-anchor="start" x="838.313" y="-1184.9" font-family="Arial" font-size="14.00" fill="#666666">[text]</text>
<polygon fill="none" stroke="#000000" points="731.7338,-1143.5 731.7338,-1173.5 976.7338,-1173.5 976.7338,-1143.5 731.7338,-1143.5"/>
<text text-anchor="start" x="738.7338" y="-1154.9" font-family="Arial" font-size="14.00" fill="#000000">created </text>
<text text-anchor="start" x="789.306" y="-1154.9" font-family="Arial" font-size="14.00" fill="#666666">[datetime]</text>
</g>
<!-- log -->
<g id="node5" class="node">
<title>log</title>
<polygon fill="#efefef" stroke="transparent" points="460.7338,-1293.5 460.7338,-1328.5 626.7338,-1328.5 626.7338,-1293.5 460.7338,-1293.5"/>
<polygon fill="none" stroke="#000000" points="460.7338,-1293.5 460.7338,-1328.5 626.7338,-1328.5 626.7338,-1293.5 460.7338,-1293.5"/>
<text text-anchor="start" x="467.9465" y="-1306.3" font-family="Arial Bold" font-size="18.00" fill="#000000">log</text>
<text text-anchor="start" x="491.9531" y="-1306.3" font-family="Arial" font-size="14.00" fill="#000000">    </text>
<text text-anchor="start" x="526.1579" y="-1306.3" font-family="Arial" font-size="14.00" fill="#666666">[BASE TABLE]</text>
<polygon fill="none" stroke="#000000" points="460.7338,-1263.5 460.7338,-1293.5 626.7338,-1293.5 626.7338,-1263.5 460.7338,-1263.5"/>
<text text-anchor="start" x="467.7338" y="-1274.9" font-family="Arial" font-size="14.00" fill="#000000">id </text>
<text text-anchor="start" x="482.5136" y="-1274.9" font-family="Arial" font-size="14.00" fill="#666666">[bigint]</text>
<polygon fill="none" stroke="#000000" points="460.7338,-1233.5 460.7338,-1263.5 626.7338,-1263.5 626.7338,-1233.5 460.7338,-1233.5"/>
<text text-anchor="start" x="467.7338" y="-1244.9" font-family="Arial" font-size="14.00" fill="#000000">user_id </text>
<text text-anchor="start" x="517.522" y="-1244.9" font-family="Arial" font-size="14.00" fill="#666666">[int]</text>
<polygon fill="none" stroke="#000000" points="460.7338,-1203.5 460.7338,-1233.5 626.7338,-1233.5 626.7338,-1203.5 460.7338,-1203.5"/>
<text text-anchor="start" x="467.7338" y="-1214.9" font-family="Arial" font-size="14.00" fill="#000000">post_id </text>
<text text-anchor="start" x="516.752" y="-1214.9" font-family="Arial" font-size="14.00" fill="#666666">[bigint]</text>
<polygon fill="none" stroke="#000000" points="460.7338,-1173.5 460.7338,-1203.5 626.7338,-1203.5 626.7338,-1173.5 460.7338,-1173.5"/>
<text text-anchor="start" x="467.7338" y="-1184.9" font-family="Arial" font-size="14.00" fill="#000000">comment_id </text>
<text text-anchor="start" x="547.8558" y="-1184.9" font-family="Arial" font-size="14.00" fill="#666666">[bigint]</text>
<polygon fill="none" stroke="#000000" points="460.7338,-1143.5 460.7338,-1173.5 626.7338,-1173.5 626.7338,-1143.5 460.7338,-1143.5"/>
<text text-anchor="start" x="467.4982" y="-1154.9" font-family="Arial" font-size="14.00" fill="#000000">comment_star_id </text>
<text text-anchor="start" x="578.7366" y="-1154.9" font-family="Arial" font-size="14.00" fill="#666666">[bigint]</text>
<polygon fill="none" stroke="#000000" points="460.7338,-1113.5 460.7338,-1143.5 626.7338,-1143.5 626.7338,-1113.5 460.7338,-1113.5"/>
<text text-anchor="start" x="467.7338" y="-1124.9" font-family="Arial" font-size="14.00" fill="#000000">payload </text>
<text text-anchor="start" x="520.644" y="-1124.9" font-family="Arial" font-size="14.00" fill="#666666">[text]</text>
<polygon fill="none" stroke="#000000" points="460.7338,-1083.5 460.7338,-1113.5 626.7338,-1113.5 626.7338,-1083.5 460.7338,-1083.5"/>
<text text-anchor="start" x="467.7338" y="-1094.9" font-family="Arial" font-size="14.00" fill="#000000">created </text>
<text text-anchor="start" x="518.306" y="-1094.9" font-family="Arial" font-size="14.00" fill="#666666">[datetime]</text>
</g>
<!-- log&#45;&gt;comment -->
<g id="edge7" class="edge">
<title>log:comment_id&#45;&gt;comment:id</title>
<path fill="none" stroke="#000000" stroke-dasharray="5,2" d="M450.4661,-1187.8461C340.9678,-1173.0327 498.2499,-911.5 372.7338,-911.5"/>
<polygon fill="#000000" stroke="#000000" points="450.754,-1187.8643 460.4477,-1192.9909 455.7439,-1188.1822 460.7338,-1188.5 460.7338,-1188.5 460.7338,-1188.5 455.7439,-1188.1822 461.0198,-1184.0091 450.754,-1187.8643 450.754,-1187.8643"/>
<text text-anchor="start" x="375.0018" y="-1198.5" font-family="Arial" font-size="10.00" fill="#000000">Detected Relation</text>
</g>
<!-- log&#45;&gt;comment_star -->
<g id="edge8" class="edge">
<title>log:comment_star_id&#45;&gt;comment_star:id</title>
<path fill="none" stroke="#000000" stroke-dasharray="5,2" d="M636.6782,-1157.4214C675.885,-1148.0799 655.2815,-1080.2704 626.7338,-1041 596.2381,-999.0501 546.2294,-1046.9499 515.7338,-1005 491.299,-971.3874 474.1782,-911.5 515.7338,-911.5"/>
<polygon fill="#000000" stroke="#000000" points="636.6755,-1157.4216 626.2485,-1154.0262 631.7046,-1157.9608 626.7338,-1158.5 626.7338,-1158.5 626.7338,-1158.5 631.7046,-1157.9608 627.2191,-1162.9738 636.6755,-1157.4216 636.6755,-1157.4216"/>
<text text-anchor="start" x="634.0018" y="-1168.5" font-family="Arial" font-size="10.00" fill="#000000">Detected Relation</text>
</g>
<!-- log&#45;&gt;post -->
<g id="edge6" class="edge">
<title>log:post_id&#45;&gt;post:id</title>
<path fill="none" stroke="#000000" stroke-dasharray="5,2" d="M450.7385,-1217.2837C355.0643,-1192.3843 490.6639,-792.6096 423.7338,-704 395.5151,-666.6409 351.5936,-706.3478 324.7338,-668 300.8935,-633.9632 283.1782,-574.5 324.7338,-574.5"/>
<polygon fill="#000000" stroke="#000000" points="450.807,-1217.2919 460.1902,-1222.967 455.7704,-1217.896 460.7338,-1218.5 460.7338,-1218.5 460.7338,-1218.5 455.7704,-1217.896 461.2774,-1214.033 450.807,-1217.2919 450.807,-1217.2919"/>
<text text-anchor="start" x="375.0018" y="-1228.5" font-family="Arial" font-size="10.00" fill="#000000">Detected Relation</text>
</g>
<!-- log&#45;&gt;user -->
<g id="edge5" class="edge">
<title>log:user_id&#45;&gt;user:id</title>
<path fill="none" stroke="#000000" stroke-dasharray="5,2" d="M636.9734,-1247.8704C713.6241,-1237.6497 614.9468,-1105.5637 679.7338,-1041 726.1565,-994.7373 782.443,-1056.691 822.7338,-1005 834.4793,-989.9311 834.3569,-383.7292 821.7338,-337 804.3886,-272.7902 813.2451,-207.5 746.7338,-207.5"/>
<polygon fill="#000000" stroke="#000000" points="636.7149,-1247.8862 626.4576,-1244.0085 631.7244,-1248.1931 626.7338,-1248.5 626.7338,-1248.5 626.7338,-1248.5 631.7244,-1248.1931 627.01,-1252.9915 636.7149,-1247.8862 636.7149,-1247.8862"/>
<text text-anchor="start" x="634.0018" y="-1258.5" font-family="Arial" font-size="10.00" fill="#000000">Detected Relation</text>
</g>
<!-- post&#45;&gt;user -->
<g id="edge9" class="edge">
<title>post:user_id&#45;&gt;user:id</title>
<path fill="none" stroke="#000000" stroke-dasharray="5,2" d="M597.802,-543.9707C674.4068,-535.3613 607.1243,-423.4724 587.7338,-337 583.8622,-319.7345 574.6054,-318.2655 570.7338,-301 561.6412,-260.4514 529.1782,-207.5 570.7338,-207.5"/>
<polygon fill="#000000" stroke="#000000" points="597.72,-543.9749 587.4975,-540.0062 592.7269,-544.2375 587.7338,-544.5 587.7338,-544.5 587.7338,-544.5 592.7269,-544.2375 587.9701,-548.9938 597.72,-543.9749 597.72,-543.9749"/>
<text text-anchor="start" x="595.0018" y="-554.5" font-family="Arial" font-size="10.00" fill="#000000">Detected Relation</text>
</g>
<!-- post_comment -->
<g id="node7" class="node">
<title>post_comment</title>
<polygon fill="#efefef" stroke="transparent" points="1080.7338,-1293.5 1080.7338,-1328.5 1289.7338,-1328.5 1289.7338,-1293.5 1080.7338,-1293.5"/>
<polygon fill="none" stroke="#000000" points="1080.7338,-1293.5 1080.7338,-1328.5 1289.7338,-1328.5 1289.7338,-1293.5 1080.7338,-1293.5"/>
<text text-anchor="start" x="1087.3386" y="-1306.3" font-family="Arial Bold" font-size="18.00" fill="#000000">post_comment</text>
<text text-anchor="start" x="1205.3646" y="-1306.3" font-family="Arial" font-size="14.00" fill="#000000">    </text>
<text text-anchor="start" x="1239.5694" y="-1306.3" font-family="Arial" font-size="14.00" fill="#666666">[VIEW]</text>
<polygon fill="none" stroke="#000000" points="1080.7338,-1263.5 1080.7338,-1293.5 1289.7338,-1293.5 1289.7338,-1263.5 1080.7338,-1263.5"/>
<text text-anchor="start" x="1087.7338" y="-1274.9" font-family="Arial" font-size="14.00" fill="#000000">id </text>
<text text-anchor="start" x="1102.5136" y="-1274.9" font-family="Arial" font-size="14.00" fill="#666666">[bigint]</text>
<polygon fill="none" stroke="#000000" points="1080.7338,-1233.5 1080.7338,-1263.5 1289.7338,-1263.5 1289.7338,-1233.5 1080.7338,-1233.5"/>
<text text-anchor="start" x="1087.7338" y="-1244.9" font-family="Arial" font-size="14.00" fill="#000000">title </text>
<text text-anchor="start" x="1113.4014" y="-1244.9" font-family="Arial" font-size="14.00" fill="#666666">[varchar(255)]</text>
<polygon fill="none" stroke="#000000" points="1080.7338,-1203.5 1080.7338,-1233.5 1289.7338,-1233.5 1289.7338,-1203.5 1080.7338,-1203.5"/>
<text text-anchor="start" x="1087.7338" y="-1214.9" font-family="Arial" font-size="14.00" fill="#000000">post_user </text>
<text text-anchor="start" x="1153.0886" y="-1214.9" font-family="Arial" font-size="14.00" fill="#666666">[varchar(50)]</text>
<polygon fill="none" stroke="#000000" points="1080.7338,-1173.5 1080.7338,-1203.5 1289.7338,-1203.5 1289.7338,-1173.5 1080.7338,-1173.5"/>
<text text-anchor="start" x="1087.7338" y="-1184.9" font-family="Arial" font-size="14.00" fill="#000000">comment </text>
<text text-anchor="start" x="1149.184" y="-1184.9" font-family="Arial" font-size="14.00" fill="#666666">[text]</text>
<polygon fill="none" stroke="#000000" points="1080.7338,-1143.5 1080.7338,-1173.5 1289.7338,-1173.5 1289.7338,-1143.5 1080.7338,-1143.5"/>
<text text-anchor="start" x="1087.7338" y="-1154.9" font-family="Arial" font-size="14.00" fill="#000000">comment_user </text>
<text text-anchor="start" x="1184.1924" y="-1154.9" font-family="Arial" font-size="14.00" fill="#666666">[varchar(50)]</text>
<polygon fill="none" stroke="#000000" points="1080.7338,-1113.5 1080.7338,-1143.5 1289.7338,-1143.5 1289.7338,-1113.5 1080.7338,-1113.5"/>
<text text-anchor="start" x="1087.7338" y="-1124.9" font-family="Arial" font-size="14.00" fill="#000000">created </text>
<text text-anchor="start" x="1138.306" y="-1124.9" font-family="Arial" font-size="14.00" fill="#666666">[datetime]</text>
<polygon fill="none" stroke="#000000" points="1080.7338,-1083.5 1080.7338,-1113.5 1289.7338,-1113.5 1289.7338,-1083.5 1080.7338,-1083.5"/>
<text text-anchor="start" x="1087.7338" y="-1094.9" font-family="Arial" font-size="14.00" fill="#000000">updated </text>
<text text-anchor="start" x="1142.2106" y="-1094.9" font-family="Arial" font-size="14.00" fill="#666666">[datetime]</text>
</g>
<!-- user_option -->
<g id="node9" class="node">
<title>user_option</title>
<polygon fill="#efefef" stroke="transparent" points="913.7338,-544.5 913.7338,-579.5 1148.7338,-579.5 1148.7338,-544.5 913.7338,-544.5"/>
<polygon fill="none" stroke="#000000" points="913.7338,-544.5 913.7338,-579.5 1148.7338,-579.5 1148.7338,-544.5 913.7338,-544.5"/>
<text text-anchor="start" x="920.4338" y="-557.3" font-family="Arial Bold" font-size="18.00" fill="#000000">user_option</text>
<text text-anchor="start" x="1014.4658" y="-557.3" font-family="Arial" font-size="14.00" fill="#000000">    </text>
<text text-anchor="start" x="1048.6706" y="-557.3" font-family="Arial" font-size="14.00" fill="#666666">[BASE TABLE]</text>
<polygon fill="none" stroke="#000000" points="913.7338,-514.5 913.7338,-544.5 1148.7338,-544.5 1148.7338,-514.5 913.7338,-514.5"/>
<text text-anchor="start" x="920.7338" y="-525.9" font-family="Arial" font-size="14.00" fill="#000000">user_id </text>
<text text-anchor="start" x="970.522" y="-525.9" font-family="Arial" font-size="14.00" fill="#666666">[int]</text>
<polygon fill="none" stroke="#000000" points="913.7338,-484.5 913.7338,-514.5 1148.7338,-514.5 1148.7338,-484.5 913.7338,-484.5"/>
<text text-anchor="start" x="920.7338" y="-495.9" font-family="Arial" font-size="14.00" fill="#000000">show_email </text>
<text text-anchor="start" x="998.5178" y="-495.9" font-family="Arial" font-size="14.00" fill="#666666">[tinyint(1)]</text>
<polygon fill="none" stroke="#000000" points="913.7338,-454.5 913.7338,-484.5 1148.7338,-484.5 1148.7338,-454.5 913.7338,-454.5"/>
<text text-anchor="start" x="920.7338" y="-465.9" font-family="Arial" font-size="14.00" fill="#000000">created </text>
<text text-anchor="start" x="971.306" y="-465.9" font-family="Arial" font-size="14.00" fill="#666666">[timestamp]</text>
<polygon fill="none" stroke="#000000" points="913.7338,-424.5 913.7338,-454.5 1148.7338,-454.5 1148.7338,-424.5 913.7338,-424.5"/>
<text text-anchor="start" x="920.7338" y="-435.9" font-family="Arial" font-size="14.00" fill="#000000">updated </text>
<text text-anchor="start" x="975.2106" y="-435.9" font-family="Arial" font-size="14.00" fill="#666666">[timestamp]</text>
</g>
<!-- user_option&#45;&gt;user -->
<g id="edge1" class="edge">
<title>user_option:user_id&#45;&gt;user:id</title>
<path fill="none" stroke="#000000" d="M903.5436,-528.9354C830.2447,-520.2145 896.5259,-412.3573 855.7338,-337 819.9211,-270.8414 821.9635,-207.5 746.7338,-207.5"/>
<polygon fill="#000000" stroke="#000000" points="903.7491,-528.9467 913.4848,-533.9931 908.7415,-529.2233 913.7338,-529.5 913.7338,-529.5 913.7338,-529.5 908.7415,-529.2233 913.9828,-525.0069 903.7491,-528.9467 903.7491,-528.9467"/>
<text text-anchor="start" x="686.1788" y="-513.5" font-family="Arial" font-size="10.00" fill="#000000">FOREIGN KEY (user_id) REFERENCES user (id)</text>
</g>
</g>
</svg>
