<?xml version="1.0" encoding="UTF-8" standalone="no"?>
<!DOCTYPE svg PUBLIC "-//W3C//DTD SVG 1.1//EN"
 "http://www.w3.org/Graphics/SVG/1.1/DTD/svg11.dtd">
<!-- Generated by graphviz version 12.1.2 (20240928.0832)
 -->
<!-- Title: relations_singular Pages: 1 -->
<svg width="1332pt" height="1405pt"
 viewBox="0.00 0.00 1331.91 1404.80" xmlns="http://www.w3.org/2000/svg" xmlns:xlink="http://www.w3.org/1999/xlink">
<g id="graph0" class="graph" transform="scale(1 1) rotate(0) translate(4 1400.8)">
<title>relations_singular</title>
<polygon fill="white" stroke="none" points="-4,4 -4,-1400.8 1327.91,-1400.8 1327.91,4 -4,4"/>
<!-- CamelizeTable -->
<g id="node1" class="node">
<title>CamelizeTable</title>
<polygon fill="#efefef" stroke="none" points="77.46,-1241 77.46,-1276.6 324.89,-1276.6 324.89,-1241 77.46,-1241"/>
<polygon fill="none" stroke="black" points="77.46,-1241 77.46,-1276.6 324.89,-1276.6 324.89,-1241 77.46,-1241"/>
<text text-anchor="start" x="84.46" y="-1254.4" font-family="Arial Bold" font-size="18.00">CamelizeTable</text>
<text text-anchor="start" x="193.4" y="-1254.4" font-family="Arial" font-size="14.00">    </text>
<text text-anchor="start" x="224.52" y="-1254.4" font-family="Arial" font-size="14.00" fill="#666666">[BASE TABLE]</text>
<polygon fill="none" stroke="black" points="77.46,-1210.2 77.46,-1241 324.89,-1241 324.89,-1210.2 77.46,-1210.2"/>
<text text-anchor="start" x="84.46" y="-1222.4" font-family="Arial" font-size="14.00">id    </text>
<text text-anchor="start" x="126.47" y="-1222.4" font-family="Arial" font-size="14.00" fill="#666666">[bigint]</text>
<polygon fill="none" stroke="black" points="77.46,-1179.4 77.46,-1210.2 324.89,-1210.2 324.89,-1179.4 77.46,-1179.4"/>
<text text-anchor="start" x="84.46" y="-1191.6" font-family="Arial" font-size="14.00">created    </text>
<text text-anchor="start" x="162.27" y="-1191.6" font-family="Arial" font-size="14.00" fill="#666666">[datetime]</text>
</g>
<!-- comment -->
<g id="node2" class="node">
<title>comment</title>
<polygon fill="#efefef" stroke="none" points="153.44,-944.4 153.44,-980 358.91,-980 358.91,-944.4 153.44,-944.4"/>
<polygon fill="none" stroke="black" points="153.44,-944.4 153.44,-980 358.91,-980 358.91,-944.4 153.44,-944.4"/>
<text text-anchor="start" x="160.44" y="-957.8" font-family="Arial Bold" font-size="18.00">comment</text>
<text text-anchor="start" x="227.42" y="-957.8" font-family="Arial" font-size="14.00">    </text>
<text text-anchor="start" x="258.54" y="-957.8" font-family="Arial" font-size="14.00" fill="#666666">[BASE TABLE]</text>
<polygon fill="none" stroke="black" points="153.44,-913.6 153.44,-944.4 358.91,-944.4 358.91,-913.6 153.44,-913.6"/>
<text text-anchor="start" x="160.44" y="-925.8" font-family="Arial" font-size="14.00">id    </text>
<text text-anchor="start" x="202.45" y="-925.8" font-family="Arial" font-size="14.00" fill="#666666">[bigint]</text>
<polygon fill="none" stroke="black" points="153.44,-882.8 153.44,-913.6 358.91,-913.6 358.91,-882.8 153.44,-882.8"/>
<text text-anchor="start" x="160.44" y="-895" font-family="Arial" font-size="14.00">post_id    </text>
<text text-anchor="start" x="236.7" y="-895" font-family="Arial" font-size="14.00" fill="#666666">[bigint]</text>
<polygon fill="none" stroke="black" points="153.44,-852 153.44,-882.8 358.91,-882.8 358.91,-852 153.44,-852"/>
<text text-anchor="start" x="160.44" y="-864.2" font-family="Arial" font-size="14.00">user_id    </text>
<text text-anchor="start" x="237.47" y="-864.2" font-family="Arial" font-size="14.00" fill="#666666">[int]</text>
<polygon fill="none" stroke="black" points="153.44,-821.2 153.44,-852 358.91,-852 358.91,-821.2 153.44,-821.2"/>
<text text-anchor="start" x="160.44" y="-833.4" font-family="Arial" font-size="14.00">comment    </text>
<text text-anchor="start" x="249.13" y="-833.4" font-family="Arial" font-size="14.00" fill="#666666">[text]</text>
<polygon fill="none" stroke="black" points="153.44,-790.4 153.44,-821.2 358.91,-821.2 358.91,-790.4 153.44,-790.4"/>
<text text-anchor="start" x="160.44" y="-802.6" font-family="Arial" font-size="14.00">created    </text>
<text text-anchor="start" x="238.25" y="-802.6" font-family="Arial" font-size="14.00" fill="#666666">[datetime]</text>
<polygon fill="none" stroke="black" points="153.44,-759.6 153.44,-790.4 358.91,-790.4 358.91,-759.6 153.44,-759.6"/>
<text text-anchor="start" x="160.44" y="-771.8" font-family="Arial" font-size="14.00">updated    </text>
<text text-anchor="start" x="242.16" y="-771.8" font-family="Arial" font-size="14.00" fill="#666666">[datetime]</text>
</g>
<!-- post -->
<g id="node6" class="node">
<title>post</title>
<polygon fill="#efefef" stroke="none" points="306.98,-601.6 306.98,-637.2 595.37,-637.2 595.37,-601.6 306.98,-601.6"/>
<polygon fill="none" stroke="black" points="306.98,-601.6 306.98,-637.2 595.37,-637.2 595.37,-601.6 306.98,-601.6"/>
<text text-anchor="start" x="373.93" y="-615" font-family="Arial Bold" font-size="18.00">post</text>
<text text-anchor="start" x="403.93" y="-615" font-family="Arial" font-size="14.00">    </text>
<text text-anchor="start" x="435.05" y="-615" font-family="Arial" font-size="14.00" fill="#666666">[BASE TABLE]</text>
<polygon fill="none" stroke="black" points="306.98,-570.8 306.98,-601.6 595.37,-601.6 595.37,-570.8 306.98,-570.8"/>
<text text-anchor="start" x="313.98" y="-583" font-family="Arial" font-size="14.00">id    </text>
<text text-anchor="start" x="356" y="-583" font-family="Arial" font-size="14.00" fill="#666666">[bigint]</text>
<polygon fill="none" stroke="black" points="306.98,-540 306.98,-570.8 595.37,-570.8 595.37,-540 306.98,-540"/>
<text text-anchor="start" x="313.98" y="-552.2" font-family="Arial" font-size="14.00">user_id    </text>
<text text-anchor="start" x="391.02" y="-552.2" font-family="Arial" font-size="14.00" fill="#666666">[int]</text>
<polygon fill="none" stroke="black" points="306.98,-509.2 306.98,-540 595.37,-540 595.37,-509.2 306.98,-509.2"/>
<text text-anchor="start" x="313.98" y="-521.4" font-family="Arial" font-size="14.00">title    </text>
<text text-anchor="start" x="366.89" y="-521.4" font-family="Arial" font-size="14.00" fill="#666666">[varchar(255)]</text>
<polygon fill="none" stroke="black" points="306.98,-478.4 306.98,-509.2 595.37,-509.2 595.37,-478.4 306.98,-478.4"/>
<text text-anchor="start" x="313.98" y="-490.6" font-family="Arial" font-size="14.00">body    </text>
<text text-anchor="start" x="375.46" y="-490.6" font-family="Arial" font-size="14.00" fill="#666666">[text]</text>
<polygon fill="none" stroke="black" points="306.98,-447.6 306.98,-478.4 595.37,-478.4 595.37,-447.6 306.98,-447.6"/>
<text text-anchor="start" x="313.98" y="-459.8" font-family="Arial" font-size="14.00">post_type    </text>
<text text-anchor="start" x="405.81" y="-459.8" font-family="Arial" font-size="14.00" fill="#666666">[enum(&#39;public&#39;,&#39;private&#39;,&#39;draft&#39;)]</text>
<polygon fill="none" stroke="black" points="306.98,-416.8 306.98,-447.6 595.37,-447.6 595.37,-416.8 306.98,-416.8"/>
<text text-anchor="start" x="313.98" y="-429" font-family="Arial" font-size="14.00">created    </text>
<text text-anchor="start" x="391.8" y="-429" font-family="Arial" font-size="14.00" fill="#666666">[datetime]</text>
<polygon fill="none" stroke="black" points="306.98,-386 306.98,-416.8 595.37,-416.8 595.37,-386 306.98,-386"/>
<text text-anchor="start" x="313.98" y="-398.2" font-family="Arial" font-size="14.00">updated    </text>
<text text-anchor="start" x="395.71" y="-398.2" font-family="Arial" font-size="14.00" fill="#666666">[datetime]</text>
</g>
<!-- comment&#45;&gt;post -->
<g id="edge2" class="edge">
<title>comment:post_id&#45;&gt;post:id</title>
<path fill="none" stroke="black" stroke-dasharray="5,2" d="M370.05,-897.55C436.76,-888.37 394.89,-784.67 358.91,-716.4 345.82,-691.56 320.14,-705.21 306.98,-680.4 287.37,-643.41 264.12,-586.2 305.98,-586.2"/>
<polygon fill="black" stroke="black" points="370.22,-897.53 359.95,-893.69 364.9,-897.88 360.58,-898.16 360.58,-898.16 360.58,-898.16 364.9,-897.88 360.53,-902.67 370.22,-897.53"/>
<text text-anchor="start" x="366.91" y="-908.2" font-family="Arial" font-size="10.00">Detected Relation</text>
</g>
<!-- user -->
<g id="node8" class="node">
<title>user</title>
<polygon fill="#efefef" stroke="none" points="572.81,-228 572.81,-263.6 759.54,-263.6 759.54,-228 572.81,-228"/>
<polygon fill="none" stroke="black" points="572.81,-228 572.81,-263.6 759.54,-263.6 759.54,-228 572.81,-228"/>
<text text-anchor="start" x="588.94" y="-241.4" font-family="Arial Bold" font-size="18.00">user</text>
<text text-anchor="start" x="618.92" y="-241.4" font-family="Arial" font-size="14.00">    </text>
<text text-anchor="start" x="650.04" y="-241.4" font-family="Arial" font-size="14.00" fill="#666666">[BASE TABLE]</text>
<polygon fill="none" stroke="black" points="572.81,-197.2 572.81,-228 759.54,-228 759.54,-197.2 572.81,-197.2"/>
<text text-anchor="start" x="579.81" y="-209.4" font-family="Arial" font-size="14.00">id    </text>
<text text-anchor="start" x="621.82" y="-209.4" font-family="Arial" font-size="14.00" fill="#666666">[int]</text>
<polygon fill="none" stroke="black" points="572.81,-166.4 572.81,-197.2 759.54,-197.2 759.54,-166.4 572.81,-166.4"/>
<text text-anchor="start" x="579.81" y="-178.6" font-family="Arial" font-size="14.00">username    </text>
<text text-anchor="start" x="673.18" y="-178.6" font-family="Arial" font-size="14.00" fill="#666666">[varchar(50)]</text>
<polygon fill="none" stroke="black" points="572.81,-135.6 572.81,-166.4 759.54,-166.4 759.54,-135.6 572.81,-135.6"/>
<text text-anchor="start" x="579.81" y="-147.8" font-family="Arial" font-size="14.00">password    </text>
<text text-anchor="start" x="670.84" y="-147.8" font-family="Arial" font-size="14.00" fill="#666666">[varchar(50)]</text>
<polygon fill="none" stroke="black" points="572.81,-104.8 572.81,-135.6 759.54,-135.6 759.54,-104.8 572.81,-104.8"/>
<text text-anchor="start" x="579.81" y="-117" font-family="Arial" font-size="14.00">email    </text>
<text text-anchor="start" x="644.38" y="-117" font-family="Arial" font-size="14.00" fill="#666666">[varchar(355)]</text>
<polygon fill="none" stroke="black" points="572.81,-74 572.81,-104.8 759.54,-104.8 759.54,-74 572.81,-74"/>
<text text-anchor="start" x="579.81" y="-86.2" font-family="Arial" font-size="14.00">created    </text>
<text text-anchor="start" x="657.62" y="-86.2" font-family="Arial" font-size="14.00" fill="#666666">[timestamp]</text>
<polygon fill="none" stroke="black" points="572.81,-43.2 572.81,-74 759.54,-74 759.54,-43.2 572.81,-43.2"/>
<text text-anchor="start" x="579.81" y="-55.4" font-family="Arial" font-size="14.00">updated    </text>
<text text-anchor="start" x="661.53" y="-55.4" font-family="Arial" font-size="14.00" fill="#666666">[timestamp]</text>
</g>
<!-- comment&#45;&gt;user -->
<g id="edge3" class="edge">
<title>comment:user_id&#45;&gt;user:id</title>
<path fill="none" stroke="black" stroke-dasharray="5,2" d="M142.11,-867.27C-42.51,-862.62 -86.95,-730.31 255.17,-342.8 355.88,-228.73 419.65,-212.6 571.81,-212.6"/>
<polygon fill="black" stroke="black" points="142.11,-867.27 152.05,-871.9 147.44,-867.34 151.77,-867.39 151.77,-867.39 151.77,-867.39 147.44,-867.34 152.16,-862.9 142.11,-867.27"/>
<text text-anchor="start" x="65.95" y="-877.4" font-family="Arial" font-size="10.00">Detected Relation</text>
</g>
<!-- comment_star -->
<g id="node3" class="node">
<title>comment_star</title>
<polygon fill="#efefef" stroke="none" points="500.94,-944.4 500.94,-980 741.4,-980 741.4,-944.4 500.94,-944.4"/>
<polygon fill="none" stroke="black" points="500.94,-944.4 500.94,-980 741.4,-980 741.4,-944.4 500.94,-944.4"/>
<text text-anchor="start" x="507.94" y="-957.8" font-family="Arial Bold" font-size="18.00">comment_star</text>
<text text-anchor="start" x="609.92" y="-957.8" font-family="Arial" font-size="14.00">    </text>
<text text-anchor="start" x="641.03" y="-957.8" font-family="Arial" font-size="14.00" fill="#666666">[BASE TABLE]</text>
<polygon fill="none" stroke="black" points="500.94,-913.6 500.94,-944.4 741.4,-944.4 741.4,-913.6 500.94,-913.6"/>
<text text-anchor="start" x="507.94" y="-925.8" font-family="Arial" font-size="14.00">id    </text>
<text text-anchor="start" x="549.96" y="-925.8" font-family="Arial" font-size="14.00" fill="#666666">[bigint]</text>
<polygon fill="none" stroke="black" points="500.94,-882.8 500.94,-913.6 741.4,-913.6 741.4,-882.8 500.94,-882.8"/>
<text text-anchor="start" x="507.94" y="-895" font-family="Arial" font-size="14.00">user_id    </text>
<text text-anchor="start" x="584.98" y="-895" font-family="Arial" font-size="14.00" fill="#666666">[int]</text>
<polygon fill="none" stroke="black" points="500.94,-852 500.94,-882.8 741.4,-882.8 741.4,-852 500.94,-852"/>
<text text-anchor="start" x="507.94" y="-864.2" font-family="Arial" font-size="14.00">comment_post_id    </text>
<text text-anchor="start" x="649.56" y="-864.2" font-family="Arial" font-size="14.00" fill="#666666">[bigint]</text>
<polygon fill="none" stroke="black" points="500.94,-821.2 500.94,-852 741.4,-852 741.4,-821.2 500.94,-821.2"/>
<text text-anchor="start" x="507.94" y="-833.4" font-family="Arial" font-size="14.00">comment_user_id    </text>
<text text-anchor="start" x="650.34" y="-833.4" font-family="Arial" font-size="14.00" fill="#666666">[int]</text>
<polygon fill="none" stroke="black" points="500.94,-790.4 500.94,-821.2 741.4,-821.2 741.4,-790.4 500.94,-790.4"/>
<text text-anchor="start" x="507.94" y="-802.6" font-family="Arial" font-size="14.00">created    </text>
<text text-anchor="start" x="585.76" y="-802.6" font-family="Arial" font-size="14.00" fill="#666666">[timestamp]</text>
<polygon fill="none" stroke="black" points="500.94,-759.6 500.94,-790.4 741.4,-790.4 741.4,-759.6 500.94,-759.6"/>
<text text-anchor="start" x="507.94" y="-771.8" font-family="Arial" font-size="14.00">updated    </text>
<text text-anchor="start" x="589.67" y="-771.8" font-family="Arial" font-size="14.00" fill="#666666">[timestamp]</text>
</g>
<!-- comment_star&#45;&gt;user -->
<g id="edge4" class="edge">
<title>comment_star:user_id&#45;&gt;user:id</title>
<path fill="none" stroke="black" stroke-dasharray="5,2" d="M749.31,-890.5C782.55,-815.18 796.26,-212.6 760.54,-212.6"/>
<polygon fill="black" stroke="black" points="749.3,-890.5 739.28,-894.95 745.74,-894.48 742.85,-897.7 742.85,-897.7 742.85,-897.7 745.74,-894.48 745.98,-900.95 749.3,-890.5"/>
<text text-anchor="start" x="749.4" y="-908.2" font-family="Arial" font-size="10.00">Detected Relation</text>
</g>
<!-- hyphen&#45;table -->
<g id="node4" class="node">
<title>hyphen&#45;table</title>
<polygon fill="#efefef" stroke="none" points="726.95,-1256.4 726.95,-1292 959.4,-1292 959.4,-1256.4 726.95,-1256.4"/>
<polygon fill="none" stroke="black" points="726.95,-1256.4 726.95,-1292 959.4,-1292 959.4,-1256.4 726.95,-1256.4"/>
<text text-anchor="start" x="733.95" y="-1269.8" font-family="Arial Bold" font-size="18.00">hyphen&#45;table</text>
<text text-anchor="start" x="827.91" y="-1269.8" font-family="Arial" font-size="14.00">    </text>
<text text-anchor="start" x="859.03" y="-1269.8" font-family="Arial" font-size="14.00" fill="#666666">[BASE TABLE]</text>
<polygon fill="none" stroke="black" points="726.95,-1225.6 726.95,-1256.4 959.4,-1256.4 959.4,-1225.6 726.95,-1225.6"/>
<text text-anchor="start" x="733.95" y="-1237.8" font-family="Arial" font-size="14.00">id    </text>
<text text-anchor="start" x="775.96" y="-1237.8" font-family="Arial" font-size="14.00" fill="#666666">[bigint]</text>
<polygon fill="none" stroke="black" points="726.95,-1194.8 726.95,-1225.6 959.4,-1225.6 959.4,-1194.8 726.95,-1194.8"/>
<text text-anchor="start" x="733.95" y="-1207" font-family="Arial" font-size="14.00">hyphen&#45;column    </text>
<text text-anchor="start" x="860.79" y="-1207" font-family="Arial" font-size="14.00" fill="#666666">[text]</text>
<polygon fill="none" stroke="black" points="726.95,-1164 726.95,-1194.8 959.4,-1194.8 959.4,-1164 726.95,-1164"/>
<text text-anchor="start" x="733.95" y="-1176.2" font-family="Arial" font-size="14.00">created    </text>
<text text-anchor="start" x="811.76" y="-1176.2" font-family="Arial" font-size="14.00" fill="#666666">[datetime]</text>
</g>
<!-- log -->
<g id="node5" class="node">
<title>log</title>
<polygon fill="#efefef" stroke="none" points="429.3,-1318 429.3,-1353.6 623.05,-1353.6 623.05,-1318 429.3,-1318"/>
<polygon fill="none" stroke="black" points="429.3,-1318 429.3,-1353.6 623.05,-1353.6 623.05,-1318 429.3,-1318"/>
<text text-anchor="start" x="452.43" y="-1331.4" font-family="Arial Bold" font-size="18.00">log</text>
<text text-anchor="start" x="475.43" y="-1331.4" font-family="Arial" font-size="14.00">    </text>
<text text-anchor="start" x="506.55" y="-1331.4" font-family="Arial" font-size="14.00" fill="#666666">[BASE TABLE]</text>
<polygon fill="none" stroke="black" points="429.3,-1287.2 429.3,-1318 623.05,-1318 623.05,-1287.2 429.3,-1287.2"/>
<text text-anchor="start" x="436.3" y="-1299.4" font-family="Arial" font-size="14.00">id    </text>
<text text-anchor="start" x="478.32" y="-1299.4" font-family="Arial" font-size="14.00" fill="#666666">[bigint]</text>
<polygon fill="none" stroke="black" points="429.3,-1256.4 429.3,-1287.2 623.05,-1287.2 623.05,-1256.4 429.3,-1256.4"/>
<text text-anchor="start" x="436.3" y="-1268.6" font-family="Arial" font-size="14.00">user_id    </text>
<text text-anchor="start" x="513.34" y="-1268.6" font-family="Arial" font-size="14.00" fill="#666666">[int]</text>
<polygon fill="none" stroke="black" points="429.3,-1225.6 429.3,-1256.4 623.05,-1256.4 623.05,-1225.6 429.3,-1225.6"/>
<text text-anchor="start" x="436.3" y="-1237.8" font-family="Arial" font-size="14.00">post_id    </text>
<text text-anchor="start" x="512.56" y="-1237.8" font-family="Arial" font-size="14.00" fill="#666666">[bigint]</text>
<polygon fill="none" stroke="black" points="429.3,-1194.8 429.3,-1225.6 623.05,-1225.6 623.05,-1194.8 429.3,-1194.8"/>
<text text-anchor="start" x="436.3" y="-1207" font-family="Arial" font-size="14.00">comment_id    </text>
<text text-anchor="start" x="543.67" y="-1207" font-family="Arial" font-size="14.00" fill="#666666">[bigint]</text>
<polygon fill="none" stroke="black" points="429.3,-1164 429.3,-1194.8 623.05,-1194.8 623.05,-1164 429.3,-1164"/>
<text text-anchor="start" x="436.3" y="-1176.2" font-family="Arial" font-size="14.00">comment_star_id    </text>
<text text-anchor="start" x="574.8" y="-1176.2" font-family="Arial" font-size="14.00" fill="#666666">[bigint]</text>
<polygon fill="none" stroke="black" points="429.3,-1133.2 429.3,-1164 623.05,-1164 623.05,-1133.2 429.3,-1133.2"/>
<text text-anchor="start" x="436.3" y="-1145.4" font-family="Arial" font-size="14.00">payload    </text>
<text text-anchor="start" x="516.46" y="-1145.4" font-family="Arial" font-size="14.00" fill="#666666">[text]</text>
<polygon fill="none" stroke="black" points="429.3,-1102.4 429.3,-1133.2 623.05,-1133.2 623.05,-1102.4 429.3,-1102.4"/>
<text text-anchor="start" x="436.3" y="-1114.6" font-family="Arial" font-size="14.00">created    </text>
<text text-anchor="start" x="514.12" y="-1114.6" font-family="Arial" font-size="14.00" fill="#666666">[datetime]</text>
</g>
<!-- log&#45;&gt;comment -->
<g id="edge7" class="edge">
<title>log:comment_id&#45;&gt;comment:id</title>
<path fill="none" stroke="black" stroke-dasharray="5,2" d="M418.12,-1209.54C310.12,-1194.5 484.89,-929 359.91,-929"/>
<polygon fill="black" stroke="black" points="417.99,-1209.53 427.68,-1214.67 423.31,-1209.87 427.64,-1210.16 427.64,-1210.16 427.64,-1210.16 423.31,-1209.87 428.26,-1205.69 417.99,-1209.53"/>
<text text-anchor="start" x="341.81" y="-1220.2" font-family="Arial" font-size="10.00">Detected Relation</text>
</g>
<!-- log&#45;&gt;comment_star -->
<g id="edge8" class="edge">
<title>log:comment_star_id&#45;&gt;comment_star:id</title>
<path fill="none" stroke="black" stroke-dasharray="5,2" d="M634.22,-1178.29C674.29,-1168.67 652.95,-1098.85 623.05,-1059.2 588.98,-1014.03 535.06,-1068.33 500.94,-1023.2 475.69,-989.8 458.08,-929 499.94,-929"/>
<polygon fill="black" stroke="black" points="634.32,-1178.28 623.89,-1174.89 629.02,-1178.86 624.71,-1179.33 624.71,-1179.33 624.71,-1179.33 629.02,-1178.86 624.87,-1183.84 634.32,-1178.28"/>
<text text-anchor="start" x="631.05" y="-1189.4" font-family="Arial" font-size="10.00">Detected Relation</text>
</g>
<!-- log&#45;&gt;post -->
<g id="edge6" class="edge">
<title>log:post_id&#45;&gt;post:id</title>
<path fill="none" stroke="black" stroke-dasharray="5,2" d="M422.61,-1232.71C403.34,-1167.43 427.16,-738.08 411.17,-716.4 382.1,-676.97 335.62,-720.15 306.98,-680.4 282.51,-646.43 264.12,-586.2 305.98,-586.2"/>
<polygon fill="black" stroke="black" points="422.45,-1232.48 424.4,-1243.27 425.47,-1236.88 427.92,-1240.45 427.92,-1240.45 427.92,-1240.45 425.47,-1236.88 431.82,-1238.18 422.45,-1232.48"/>
<text text-anchor="start" x="341.81" y="-1251" font-family="Arial" font-size="10.00">Detected Relation</text>
</g>
<!-- log&#45;&gt;user -->
<g id="edge5" class="edge">
<title>log:user_id&#45;&gt;user:id</title>
<path fill="none" stroke="black" stroke-dasharray="5,2" d="M634.02,-1271.22C713.11,-1261.37 611.02,-1127.33 675.17,-1059.2 712.76,-1019.28 760.55,-1067.27 793.17,-1023.2 800,-1013.98 798.79,-397.42 792.17,-342.8 785.02,-283.68 820.09,-212.6 760.54,-212.6"/>
<polygon fill="black" stroke="black" points="634.36,-1271.2 624.12,-1267.29 629.04,-1271.51 624.71,-1271.76 624.71,-1271.76 624.71,-1271.76 629.04,-1271.51 624.64,-1276.27 634.36,-1271.2"/>
<text text-anchor="start" x="631.05" y="-1281.8" font-family="Arial" font-size="10.00">Detected Relation</text>
</g>
<!-- post&#45;&gt;user -->
<g id="edge9" class="edge">
<title>post:user_id&#45;&gt;user:id</title>
<path fill="none" stroke="black" stroke-dasharray="5,2" d="M606.7,-554.85C685.52,-545.93 620.65,-430.01 595.37,-342.8 590.11,-324.67 578.12,-324.92 572.81,-306.8 561.03,-266.62 529.94,-212.6 571.81,-212.6"/>
<polygon fill="black" stroke="black" points="606.69,-554.85 596.46,-550.89 601.36,-555.13 597.03,-555.36 597.03,-555.36 597.03,-555.36 601.36,-555.13 596.94,-559.88 606.69,-554.85"/>
<text text-anchor="start" x="603.37" y="-565.4" font-family="Arial" font-size="10.00">Detected Relation</text>
</g>
<!-- post_comment -->
<g id="node7" class="node">
<title>post_comment</title>
<polygon fill="#efefef" stroke="none" points="1063.64,-1318 1063.64,-1353.6 1280.71,-1353.6 1280.71,-1318 1063.64,-1318"/>
<polygon fill="none" stroke="black" points="1063.64,-1318 1063.64,-1353.6 1280.71,-1353.6 1280.71,-1318 1063.64,-1318"/>
<text text-anchor="start" x="1081.84" y="-1331.4" font-family="Arial Bold" font-size="18.00">post_comment</text>
<text text-anchor="start" x="1187.83" y="-1331.4" font-family="Arial" font-size="14.00">    </text>
<text text-anchor="start" x="1218.95" y="-1331.4" font-family="Arial" font-size="14.00" fill="#666666">[VIEW]</text>
<polygon fill="none" stroke="black" points="1063.64,-1287.2 1063.64,-1318 1280.71,-1318 1280.71,-1287.2 1063.64,-1287.2"/>
<text text-anchor="start" x="1070.64" y="-1299.4" font-family="Arial" font-size="14.00">id    </text>
<text text-anchor="start" x="1112.65" y="-1299.4" font-family="Arial" font-size="14.00" fill="#666666">[bigint]</text>
<polygon fill="none" stroke="black" points="1063.64,-1256.4 1063.64,-1287.2 1280.71,-1287.2 1280.71,-1256.4 1063.64,-1256.4"/>
<text text-anchor="start" x="1070.64" y="-1268.6" font-family="Arial" font-size="14.00">title    </text>
<text text-anchor="start" x="1123.54" y="-1268.6" font-family="Arial" font-size="14.00" fill="#666666">[varchar(255)]</text>
<polygon fill="none" stroke="black" points="1063.64,-1225.6 1063.64,-1256.4 1280.71,-1256.4 1280.71,-1225.6 1063.64,-1225.6"/>
<text text-anchor="start" x="1070.64" y="-1237.8" font-family="Arial" font-size="14.00">post_user    </text>
<text text-anchor="start" x="1163.24" y="-1237.8" font-family="Arial" font-size="14.00" fill="#666666">[varchar(50)]</text>
<polygon fill="none" stroke="black" points="1063.64,-1194.8 1063.64,-1225.6 1280.71,-1225.6 1280.71,-1194.8 1063.64,-1194.8"/>
<text text-anchor="start" x="1070.64" y="-1207" font-family="Arial" font-size="14.00">comment    </text>
<text text-anchor="start" x="1159.33" y="-1207" font-family="Arial" font-size="14.00" fill="#666666">[text]</text>
<polygon fill="none" stroke="black" points="1063.64,-1164 1063.64,-1194.8 1280.71,-1194.8 1280.71,-1164 1063.64,-1164"/>
<text text-anchor="start" x="1070.64" y="-1176.2" font-family="Arial" font-size="14.00">comment_user    </text>
<text text-anchor="start" x="1194.35" y="-1176.2" font-family="Arial" font-size="14.00" fill="#666666">[varchar(50)]</text>
<polygon fill="none" stroke="black" points="1063.64,-1133.2 1063.64,-1164 1280.71,-1164 1280.71,-1133.2 1063.64,-1133.2"/>
<text text-anchor="start" x="1070.64" y="-1145.4" font-family="Arial" font-size="14.00">created    </text>
<text text-anchor="start" x="1148.45" y="-1145.4" font-family="Arial" font-size="14.00" fill="#666666">[datetime]</text>
<polygon fill="none" stroke="black" points="1063.64,-1102.4 1063.64,-1133.2 1280.71,-1133.2 1280.71,-1102.4 1063.64,-1102.4"/>
<text text-anchor="start" x="1070.64" y="-1114.6" font-family="Arial" font-size="14.00">updated    </text>
<text text-anchor="start" x="1152.36" y="-1114.6" font-family="Arial" font-size="14.00" fill="#666666">[datetime]</text>
</g>
<!-- user_option -->
<g id="node9" class="node">
<title>user_option</title>
<polygon fill="#efefef" stroke="none" points="883.43,-555.4 883.43,-591 1106.91,-591 1106.91,-555.4 883.43,-555.4"/>
<polygon fill="none" stroke="black" points="883.43,-555.4 883.43,-591 1106.91,-591 1106.91,-555.4 883.43,-555.4"/>
<text text-anchor="start" x="890.43" y="-568.8" font-family="Arial Bold" font-size="18.00">user_option</text>
<text text-anchor="start" x="975.43" y="-568.8" font-family="Arial" font-size="14.00">    </text>
<text text-anchor="start" x="1006.54" y="-568.8" font-family="Arial" font-size="14.00" fill="#666666">[BASE TABLE]</text>
<polygon fill="none" stroke="black" points="883.43,-524.6 883.43,-555.4 1106.91,-555.4 1106.91,-524.6 883.43,-524.6"/>
<text text-anchor="start" x="890.43" y="-536.8" font-family="Arial" font-size="14.00">user_id    </text>
<text text-anchor="start" x="967.47" y="-536.8" font-family="Arial" font-size="14.00" fill="#666666">[int]</text>
<polygon fill="none" stroke="black" points="883.43,-493.8 883.43,-524.6 1106.91,-524.6 1106.91,-493.8 883.43,-493.8"/>
<text text-anchor="start" x="890.43" y="-506" font-family="Arial" font-size="14.00">show_email    </text>
<text text-anchor="start" x="995.48" y="-506" font-family="Arial" font-size="14.00" fill="#666666">[tinyint(1)]</text>
<polygon fill="none" stroke="black" points="883.43,-463 883.43,-493.8 1106.91,-493.8 1106.91,-463 883.43,-463"/>
<text text-anchor="start" x="890.43" y="-475.2" font-family="Arial" font-size="14.00">created    </text>
<text text-anchor="start" x="968.25" y="-475.2" font-family="Arial" font-size="14.00" fill="#666666">[timestamp]</text>
<polygon fill="none" stroke="black" points="883.43,-432.2 883.43,-463 1106.91,-463 1106.91,-432.2 883.43,-432.2"/>
<text text-anchor="start" x="890.43" y="-444.4" font-family="Arial" font-size="14.00">updated    </text>
<text text-anchor="start" x="972.16" y="-444.4" font-family="Arial" font-size="14.00" fill="#666666">[timestamp]</text>
</g>
<!-- user_option&#45;&gt;user -->
<g id="edge1" class="edge">
<title>user_option:user_id&#45;&gt;user:id</title>
<path fill="none" stroke="black" d="M872.47,-539.49C796.46,-531.27 858.04,-424.38 826.17,-342.8 802.59,-282.44 825.34,-212.6 760.54,-212.6"/>
<polygon fill="black" stroke="black" points="872.11,-539.48 881.87,-544.48 877.44,-539.75 881.77,-539.97 881.77,-539.97 881.77,-539.97 877.44,-539.75 882.33,-535.49 872.11,-539.48"/>
<text text-anchor="start" x="654.28" y="-524" font-family="Arial" font-size="10.00">FOREIGN KEY (user_id) REFERENCES user (id)</text>
</g>
</g>
</svg>
