<?xml version="1.0" encoding="UTF-8" standalone="no"?>
<!DOCTYPE svg PUBLIC "-//W3C//DTD SVG 1.1//EN"
 "http://www.w3.org/Graphics/SVG/1.1/DTD/svg11.dtd">
<!-- Generated by graphviz version 2.40.1 (20161225.0304)
 -->
<!-- Title: relations_singular Pages: 1 -->
<svg width="1367pt" height="1380pt"
 viewBox="0.00 0.00 1366.86 1380.00" xmlns="http://www.w3.org/2000/svg" xmlns:xlink="http://www.w3.org/1999/xlink">
<g id="graph0" class="graph" transform="scale(1 1) rotate(0) translate(4 1376)">
<title>relations_singular</title>
<polygon fill="#ffffff" stroke="transparent" points="-4,4 -4,-1376 1362.8573,-1376 1362.8573,4 -4,4"/>
<!-- CamelizeTable -->
<g id="node1" class="node">
<title>CamelizeTable</title>
<polygon fill="#efefef" stroke="transparent" points="80.8573,-1218.5 80.8573,-1253.5 341.8573,-1253.5 341.8573,-1218.5 80.8573,-1218.5"/>
<polygon fill="none" stroke="#000000" points="80.8573,-1218.5 80.8573,-1253.5 341.8573,-1253.5 341.8573,-1218.5 80.8573,-1218.5"/>
<text text-anchor="start" x="87.5721" y="-1231.3" font-family="Arial Bold" font-size="18.00" fill="#000000">CamelizeTable</text>
<text text-anchor="start" x="207.5745" y="-1231.3" font-family="Arial" font-size="14.00" fill="#000000">    </text>
<text text-anchor="start" x="241.7793" y="-1231.3" font-family="Arial" font-size="14.00" fill="#666666">[BASE TABLE]</text>
<polygon fill="none" stroke="#000000" points="80.8573,-1188.5 80.8573,-1218.5 341.8573,-1218.5 341.8573,-1188.5 80.8573,-1188.5"/>
<text text-anchor="start" x="87.8573" y="-1199.9" font-family="Arial" font-size="14.00" fill="#000000">id    </text>
<text text-anchor="start" x="132.9513" y="-1199.9" font-family="Arial" font-size="14.00" fill="#666666">[bigint]</text>
<polygon fill="none" stroke="#000000" points="80.8573,-1158.5 80.8573,-1188.5 341.8573,-1188.5 341.8573,-1158.5 80.8573,-1158.5"/>
<text text-anchor="start" x="87.8573" y="-1169.9" font-family="Arial" font-size="14.00" fill="#000000">created    </text>
<text text-anchor="start" x="168.7437" y="-1169.9" font-family="Arial" font-size="14.00" fill="#666666">[datetime]</text>
</g>
<!-- comment -->
<g id="node2" class="node">
<title>comment</title>
<polygon fill="#efefef" stroke="transparent" points="157.8573,-926.5 157.8573,-961.5 372.8573,-961.5 372.8573,-926.5 157.8573,-926.5"/>
<polygon fill="none" stroke="#000000" points="157.8573,-926.5 157.8573,-961.5 372.8573,-961.5 372.8573,-926.5 157.8573,-926.5"/>
<text text-anchor="start" x="164.5707" y="-939.3" font-family="Arial Bold" font-size="18.00" fill="#000000">comment</text>
<text text-anchor="start" x="238.5759" y="-939.3" font-family="Arial" font-size="14.00" fill="#000000">    </text>
<text text-anchor="start" x="272.7807" y="-939.3" font-family="Arial" font-size="14.00" fill="#666666">[BASE TABLE]</text>
<polygon fill="none" stroke="#000000" points="157.8573,-896.5 157.8573,-926.5 372.8573,-926.5 372.8573,-896.5 157.8573,-896.5"/>
<text text-anchor="start" x="164.8573" y="-907.9" font-family="Arial" font-size="14.00" fill="#000000">id    </text>
<text text-anchor="start" x="209.9513" y="-907.9" font-family="Arial" font-size="14.00" fill="#666666">[bigint]</text>
<polygon fill="none" stroke="#000000" points="157.8573,-866.5 157.8573,-896.5 372.8573,-896.5 372.8573,-866.5 157.8573,-866.5"/>
<text text-anchor="start" x="164.8573" y="-877.9" font-family="Arial" font-size="14.00" fill="#000000">post_id    </text>
<text text-anchor="start" x="244.1897" y="-877.9" font-family="Arial" font-size="14.00" fill="#666666">[bigint]</text>
<polygon fill="none" stroke="#000000" points="157.8573,-836.5 157.8573,-866.5 372.8573,-866.5 372.8573,-836.5 157.8573,-836.5"/>
<text text-anchor="start" x="164.8573" y="-847.9" font-family="Arial" font-size="14.00" fill="#000000">user_id    </text>
<text text-anchor="start" x="244.9597" y="-847.9" font-family="Arial" font-size="14.00" fill="#666666">[int]</text>
<polygon fill="none" stroke="#000000" points="157.8573,-806.5 157.8573,-836.5 372.8573,-836.5 372.8573,-806.5 157.8573,-806.5"/>
<text text-anchor="start" x="164.8573" y="-817.9" font-family="Arial" font-size="14.00" fill="#000000">comment    </text>
<text text-anchor="start" x="256.6217" y="-817.9" font-family="Arial" font-size="14.00" fill="#666666">[text]</text>
<polygon fill="none" stroke="#000000" points="157.8573,-776.5 157.8573,-806.5 372.8573,-806.5 372.8573,-776.5 157.8573,-776.5"/>
<text text-anchor="start" x="164.8573" y="-787.9" font-family="Arial" font-size="14.00" fill="#000000">created    </text>
<text text-anchor="start" x="245.7437" y="-787.9" font-family="Arial" font-size="14.00" fill="#666666">[datetime]</text>
<polygon fill="none" stroke="#000000" points="157.8573,-746.5 157.8573,-776.5 372.8573,-776.5 372.8573,-746.5 157.8573,-746.5"/>
<text text-anchor="start" x="164.8573" y="-757.9" font-family="Arial" font-size="14.00" fill="#000000">updated    </text>
<text text-anchor="start" x="249.6483" y="-757.9" font-family="Arial" font-size="14.00" fill="#666666">[datetime]</text>
</g>
<!-- post -->
<g id="node6" class="node">
<title>post</title>
<polygon fill="#efefef" stroke="transparent" points="317.8573,-589.5 317.8573,-624.5 610.8573,-624.5 610.8573,-589.5 317.8573,-589.5"/>
<polygon fill="none" stroke="#000000" points="317.8573,-589.5 317.8573,-624.5 610.8573,-624.5 610.8573,-589.5 317.8573,-589.5"/>
<text text-anchor="start" x="383.566" y="-602.3" font-family="Arial Bold" font-size="18.00" fill="#000000">post</text>
<text text-anchor="start" x="417.5806" y="-602.3" font-family="Arial" font-size="14.00" fill="#000000">    </text>
<text text-anchor="start" x="451.7854" y="-602.3" font-family="Arial" font-size="14.00" fill="#666666">[BASE TABLE]</text>
<polygon fill="none" stroke="#000000" points="317.8573,-559.5 317.8573,-589.5 610.8573,-589.5 610.8573,-559.5 317.8573,-559.5"/>
<text text-anchor="start" x="324.8573" y="-570.9" font-family="Arial" font-size="14.00" fill="#000000">id    </text>
<text text-anchor="start" x="369.9513" y="-570.9" font-family="Arial" font-size="14.00" fill="#666666">[bigint]</text>
<polygon fill="none" stroke="#000000" points="317.8573,-529.5 317.8573,-559.5 610.8573,-559.5 610.8573,-529.5 317.8573,-529.5"/>
<text text-anchor="start" x="324.8573" y="-540.9" font-family="Arial" font-size="14.00" fill="#000000">user_id    </text>
<text text-anchor="start" x="404.9597" y="-540.9" font-family="Arial" font-size="14.00" fill="#666666">[int]</text>
<polygon fill="none" stroke="#000000" points="317.8573,-499.5 317.8573,-529.5 610.8573,-529.5 610.8573,-499.5 317.8573,-499.5"/>
<text text-anchor="start" x="324.8573" y="-510.9" font-family="Arial" font-size="14.00" fill="#000000">title    </text>
<text text-anchor="start" x="380.8391" y="-510.9" font-family="Arial" font-size="14.00" fill="#666666">[varchar(255)]</text>
<polygon fill="none" stroke="#000000" points="317.8573,-469.5 317.8573,-499.5 610.8573,-499.5 610.8573,-469.5 317.8573,-469.5"/>
<text text-anchor="start" x="324.8573" y="-480.9" font-family="Arial" font-size="14.00" fill="#000000">body    </text>
<text text-anchor="start" x="389.4099" y="-480.9" font-family="Arial" font-size="14.00" fill="#666666">[text]</text>
<polygon fill="none" stroke="#000000" points="317.8573,-439.5 317.8573,-469.5 610.8573,-469.5 610.8573,-439.5 317.8573,-439.5"/>
<text text-anchor="start" x="324.3972" y="-450.9" font-family="Arial" font-size="14.00" fill="#000000">post_type    </text>
<text text-anchor="start" x="419.2962" y="-450.9" font-family="Arial" font-size="14.00" fill="#666666">[enum(&#39;public&#39;,&#39;private&#39;,&#39;draft&#39;)]</text>
<polygon fill="none" stroke="#000000" points="317.8573,-409.5 317.8573,-439.5 610.8573,-439.5 610.8573,-409.5 317.8573,-409.5"/>
<text text-anchor="start" x="324.8573" y="-420.9" font-family="Arial" font-size="14.00" fill="#000000">created    </text>
<text text-anchor="start" x="405.7437" y="-420.9" font-family="Arial" font-size="14.00" fill="#666666">[datetime]</text>
<polygon fill="none" stroke="#000000" points="317.8573,-379.5 317.8573,-409.5 610.8573,-409.5 610.8573,-379.5 317.8573,-379.5"/>
<text text-anchor="start" x="324.8573" y="-390.9" font-family="Arial" font-size="14.00" fill="#000000">updated    </text>
<text text-anchor="start" x="409.6483" y="-390.9" font-family="Arial" font-size="14.00" fill="#666666">[datetime]</text>
</g>
<!-- comment&#45;&gt;post -->
<g id="edge2" class="edge">
<title>comment:post_id&#45;&gt;post:id</title>
<path fill="none" stroke="#000000" stroke-dasharray="5,2" d="M383.1711,-880.8025C447.876,-871.4504 408.6161,-770.1437 372.8573,-704 358.9632,-678.3 331.7513,-693.7 317.8573,-668 298.0945,-631.4446 276.3017,-574.5 317.8573,-574.5"/>
<polygon fill="#000000" stroke="#000000" points="382.8345,-880.8252 372.5536,-877.0103 377.8459,-881.1626 372.8573,-881.5 372.8573,-881.5 372.8573,-881.5 377.8459,-881.1626 373.1609,-885.9897 382.8345,-880.8252 382.8345,-880.8252"/>
<text text-anchor="start" x="380.1253" y="-891.5" font-family="Arial" font-size="10.00" fill="#000000">Detected Relation</text>
</g>
<!-- user -->
<g id="node8" class="node">
<title>user</title>
<polygon fill="#efefef" stroke="transparent" points="586.8573,-222.5 586.8573,-257.5 775.8573,-257.5 775.8573,-222.5 586.8573,-222.5"/>
<polygon fill="none" stroke="#000000" points="586.8573,-222.5 586.8573,-257.5 775.8573,-257.5 775.8573,-222.5 586.8573,-222.5"/>
<text text-anchor="start" x="600.071" y="-235.3" font-family="Arial Bold" font-size="18.00" fill="#000000">user</text>
<text text-anchor="start" x="635.0756" y="-235.3" font-family="Arial" font-size="14.00" fill="#000000">    </text>
<text text-anchor="start" x="669.2804" y="-235.3" font-family="Arial" font-size="14.00" fill="#666666">[BASE TABLE]</text>
<polygon fill="none" stroke="#000000" points="586.8573,-192.5 586.8573,-222.5 775.8573,-222.5 775.8573,-192.5 586.8573,-192.5"/>
<text text-anchor="start" x="593.8573" y="-203.9" font-family="Arial" font-size="14.00" fill="#000000">id    </text>
<text text-anchor="start" x="638.9513" y="-203.9" font-family="Arial" font-size="14.00" fill="#666666">[int]</text>
<polygon fill="none" stroke="#000000" points="586.8573,-162.5 586.8573,-192.5 775.8573,-192.5 775.8573,-162.5 586.8573,-162.5"/>
<text text-anchor="start" x="593.4695" y="-173.9" font-family="Arial" font-size="14.00" fill="#000000">username    </text>
<text text-anchor="start" x="689.9085" y="-173.9" font-family="Arial" font-size="14.00" fill="#666666">[varchar(50)]</text>
<polygon fill="none" stroke="#000000" points="586.8573,-132.5 586.8573,-162.5 775.8573,-162.5 775.8573,-132.5 586.8573,-132.5"/>
<text text-anchor="start" x="593.8573" y="-143.9" font-family="Arial" font-size="14.00" fill="#000000">password    </text>
<text text-anchor="start" x="687.9597" y="-143.9" font-family="Arial" font-size="14.00" fill="#666666">[varchar(50)]</text>
<polygon fill="none" stroke="#000000" points="586.8573,-102.5 586.8573,-132.5 775.8573,-132.5 775.8573,-102.5 586.8573,-102.5"/>
<text text-anchor="start" x="593.8573" y="-113.9" font-family="Arial" font-size="14.00" fill="#000000">email    </text>
<text text-anchor="start" x="661.5011" y="-113.9" font-family="Arial" font-size="14.00" fill="#666666">[varchar(355)]</text>
<polygon fill="none" stroke="#000000" points="586.8573,-72.5 586.8573,-102.5 775.8573,-102.5 775.8573,-72.5 586.8573,-72.5"/>
<text text-anchor="start" x="593.8573" y="-83.9" font-family="Arial" font-size="14.00" fill="#000000">created    </text>
<text text-anchor="start" x="674.7437" y="-83.9" font-family="Arial" font-size="14.00" fill="#666666">[timestamp]</text>
<polygon fill="none" stroke="#000000" points="586.8573,-42.5 586.8573,-72.5 775.8573,-72.5 775.8573,-42.5 586.8573,-42.5"/>
<text text-anchor="start" x="593.8573" y="-53.9" font-family="Arial" font-size="14.00" fill="#000000">updated    </text>
<text text-anchor="start" x="678.6483" y="-53.9" font-family="Arial" font-size="14.00" fill="#666666">[timestamp]</text>
</g>
<!-- comment&#45;&gt;user -->
<g id="edge3" class="edge">
<title>comment:user_id&#45;&gt;user:id</title>
<path fill="none" stroke="#000000" stroke-dasharray="5,2" d="M147.6757,-851.3969C-44.9667,-847.4284 -89.3236,-727.9806 264.8573,-337 368.4166,-222.6807 432.6061,-207.5 586.8573,-207.5"/>
<polygon fill="#000000" stroke="#000000" points="147.8578,-851.3987 157.8117,-855.9998 152.8575,-851.4493 157.8573,-851.5 157.8573,-851.5 157.8573,-851.5 152.8575,-851.4493 157.9029,-847.0002 147.8578,-851.3987 147.8578,-851.3987"/>
<text text-anchor="start" x="72.1253" y="-861.5" font-family="Arial" font-size="10.00" fill="#000000">Detected Relation</text>
</g>
<!-- comment_star -->
<g id="node3" class="node">
<title>comment_star</title>
<polygon fill="#efefef" stroke="transparent" points="515.8573,-926.5 515.8573,-961.5 770.8573,-961.5 770.8573,-926.5 515.8573,-926.5"/>
<polygon fill="none" stroke="#000000" points="515.8573,-926.5 515.8573,-961.5 770.8573,-961.5 770.8573,-926.5 515.8573,-926.5"/>
<text text-anchor="start" x="522.5673" y="-939.3" font-family="Arial Bold" font-size="18.00" fill="#000000">comment_star</text>
<text text-anchor="start" x="636.5793" y="-939.3" font-family="Arial" font-size="14.00" fill="#000000">    </text>
<text text-anchor="start" x="670.7841" y="-939.3" font-family="Arial" font-size="14.00" fill="#666666">[BASE TABLE]</text>
<polygon fill="none" stroke="#000000" points="515.8573,-896.5 515.8573,-926.5 770.8573,-926.5 770.8573,-896.5 515.8573,-896.5"/>
<text text-anchor="start" x="522.8573" y="-907.9" font-family="Arial" font-size="14.00" fill="#000000">id    </text>
<text text-anchor="start" x="567.9513" y="-907.9" font-family="Arial" font-size="14.00" fill="#666666">[bigint]</text>
<polygon fill="none" stroke="#000000" points="515.8573,-866.5 515.8573,-896.5 770.8573,-896.5 770.8573,-866.5 515.8573,-866.5"/>
<text text-anchor="start" x="522.8573" y="-877.9" font-family="Arial" font-size="14.00" fill="#000000">user_id    </text>
<text text-anchor="start" x="602.9597" y="-877.9" font-family="Arial" font-size="14.00" fill="#666666">[int]</text>
<polygon fill="none" stroke="#000000" points="515.8573,-836.5 515.8573,-866.5 770.8573,-866.5 770.8573,-836.5 515.8573,-836.5"/>
<text text-anchor="start" x="522.8573" y="-847.9" font-family="Arial" font-size="14.00" fill="#000000">comment_post_id    </text>
<text text-anchor="start" x="667.5319" y="-847.9" font-family="Arial" font-size="14.00" fill="#666666">[bigint]</text>
<polygon fill="none" stroke="#000000" points="515.8573,-806.5 515.8573,-836.5 770.8573,-836.5 770.8573,-806.5 515.8573,-806.5"/>
<text text-anchor="start" x="522.8573" y="-817.9" font-family="Arial" font-size="14.00" fill="#000000">comment_user_id    </text>
<text text-anchor="start" x="668.3019" y="-817.9" font-family="Arial" font-size="14.00" fill="#666666">[int]</text>
<polygon fill="none" stroke="#000000" points="515.8573,-776.5 515.8573,-806.5 770.8573,-806.5 770.8573,-776.5 515.8573,-776.5"/>
<text text-anchor="start" x="522.8573" y="-787.9" font-family="Arial" font-size="14.00" fill="#000000">created    </text>
<text text-anchor="start" x="603.7437" y="-787.9" font-family="Arial" font-size="14.00" fill="#666666">[timestamp]</text>
<polygon fill="none" stroke="#000000" points="515.8573,-746.5 515.8573,-776.5 770.8573,-776.5 770.8573,-746.5 515.8573,-746.5"/>
<text text-anchor="start" x="522.8573" y="-757.9" font-family="Arial" font-size="14.00" fill="#000000">updated    </text>
<text text-anchor="start" x="607.6483" y="-757.9" font-family="Arial" font-size="14.00" fill="#666666">[timestamp]</text>
</g>
<!-- comment_star&#45;&gt;user -->
<g id="edge4" class="edge">
<title>comment_star:user_id&#45;&gt;user:id</title>
<path fill="none" stroke="#000000" stroke-dasharray="5,2" d="M777.4956,-873.9307C808.7619,-799.8828 810.9624,-207.5 775.8573,-207.5"/>
<polygon fill="#000000" stroke="#000000" points="777.4509,-873.9817 767.474,-878.5329 774.1541,-877.7408 770.8573,-881.5 770.8573,-881.5 770.8573,-881.5 774.1541,-877.7408 774.2405,-884.4671 777.4509,-873.9817 777.4509,-873.9817"/>
<text text-anchor="start" x="778.1253" y="-891.5" font-family="Arial" font-size="10.00" fill="#000000">Detected Relation</text>
</g>
<!-- hyphen&#45;table -->
<g id="node4" class="node">
<title>hyphen&#45;table</title>
<polygon fill="#efefef" stroke="transparent" points="746.8573,-1233.5 746.8573,-1268.5 991.8573,-1268.5 991.8573,-1233.5 746.8573,-1233.5"/>
<polygon fill="none" stroke="#000000" points="746.8573,-1233.5 746.8573,-1268.5 991.8573,-1268.5 991.8573,-1233.5 746.8573,-1233.5"/>
<text text-anchor="start" x="753.5542" y="-1246.3" font-family="Arial Bold" font-size="18.00" fill="#000000">hyphen&#45;table</text>
<text text-anchor="start" x="857.5924" y="-1246.3" font-family="Arial" font-size="14.00" fill="#000000">    </text>
<text text-anchor="start" x="891.7972" y="-1246.3" font-family="Arial" font-size="14.00" fill="#666666">[BASE TABLE]</text>
<polygon fill="none" stroke="#000000" points="746.8573,-1203.5 746.8573,-1233.5 991.8573,-1233.5 991.8573,-1203.5 746.8573,-1203.5"/>
<text text-anchor="start" x="753.8573" y="-1214.9" font-family="Arial" font-size="14.00" fill="#000000">id    </text>
<text text-anchor="start" x="798.9513" y="-1214.9" font-family="Arial" font-size="14.00" fill="#666666">[bigint]</text>
<polygon fill="none" stroke="#000000" points="746.8573,-1173.5 746.8573,-1203.5 991.8573,-1203.5 991.8573,-1173.5 746.8573,-1173.5"/>
<text text-anchor="start" x="753.8573" y="-1184.9" font-family="Arial" font-size="14.00" fill="#000000">hyphen&#45;column    </text>
<text text-anchor="start" x="883.7507" y="-1184.9" font-family="Arial" font-size="14.00" fill="#666666">[text]</text>
<polygon fill="none" stroke="#000000" points="746.8573,-1143.5 746.8573,-1173.5 991.8573,-1173.5 991.8573,-1143.5 746.8573,-1143.5"/>
<text text-anchor="start" x="753.8573" y="-1154.9" font-family="Arial" font-size="14.00" fill="#000000">created    </text>
<text text-anchor="start" x="834.7437" y="-1154.9" font-family="Arial" font-size="14.00" fill="#666666">[datetime]</text>
</g>
<!-- log -->
<g id="node5" class="node">
<title>log</title>
<polygon fill="#efefef" stroke="transparent" points="445.8573,-1293.5 445.8573,-1328.5 641.8573,-1328.5 641.8573,-1293.5 445.8573,-1293.5"/>
<polygon fill="none" stroke="#000000" points="445.8573,-1293.5 445.8573,-1328.5 641.8573,-1328.5 641.8573,-1293.5 445.8573,-1293.5"/>
<text text-anchor="start" x="468.07" y="-1306.3" font-family="Arial Bold" font-size="18.00" fill="#000000">log</text>
<text text-anchor="start" x="492.0766" y="-1306.3" font-family="Arial" font-size="14.00" fill="#000000">    </text>
<text text-anchor="start" x="526.2814" y="-1306.3" font-family="Arial" font-size="14.00" fill="#666666">[BASE TABLE]</text>
<polygon fill="none" stroke="#000000" points="445.8573,-1263.5 445.8573,-1293.5 641.8573,-1293.5 641.8573,-1263.5 445.8573,-1263.5"/>
<text text-anchor="start" x="452.8573" y="-1274.9" font-family="Arial" font-size="14.00" fill="#000000">id    </text>
<text text-anchor="start" x="497.9513" y="-1274.9" font-family="Arial" font-size="14.00" fill="#666666">[bigint]</text>
<polygon fill="none" stroke="#000000" points="445.8573,-1233.5 445.8573,-1263.5 641.8573,-1263.5 641.8573,-1233.5 445.8573,-1233.5"/>
<text text-anchor="start" x="452.8573" y="-1244.9" font-family="Arial" font-size="14.00" fill="#000000">user_id    </text>
<text text-anchor="start" x="532.9597" y="-1244.9" font-family="Arial" font-size="14.00" fill="#666666">[int]</text>
<polygon fill="none" stroke="#000000" points="445.8573,-1203.5 445.8573,-1233.5 641.8573,-1233.5 641.8573,-1203.5 445.8573,-1203.5"/>
<text text-anchor="start" x="452.8573" y="-1214.9" font-family="Arial" font-size="14.00" fill="#000000">post_id    </text>
<text text-anchor="start" x="532.1897" y="-1214.9" font-family="Arial" font-size="14.00" fill="#666666">[bigint]</text>
<polygon fill="none" stroke="#000000" points="445.8573,-1173.5 445.8573,-1203.5 641.8573,-1203.5 641.8573,-1173.5 445.8573,-1173.5"/>
<text text-anchor="start" x="452.8573" y="-1184.9" font-family="Arial" font-size="14.00" fill="#000000">comment_id    </text>
<text text-anchor="start" x="563.2935" y="-1184.9" font-family="Arial" font-size="14.00" fill="#666666">[bigint]</text>
<polygon fill="none" stroke="#000000" points="445.8573,-1143.5 445.8573,-1173.5 641.8573,-1173.5 641.8573,-1143.5 445.8573,-1143.5"/>
<text text-anchor="start" x="452.4646" y="-1154.9" font-family="Arial" font-size="14.00" fill="#000000">comment_star_id    </text>
<text text-anchor="start" x="594.0172" y="-1154.9" font-family="Arial" font-size="14.00" fill="#666666">[bigint]</text>
<polygon fill="none" stroke="#000000" points="445.8573,-1113.5 445.8573,-1143.5 641.8573,-1143.5 641.8573,-1113.5 445.8573,-1113.5"/>
<text text-anchor="start" x="452.8573" y="-1124.9" font-family="Arial" font-size="14.00" fill="#000000">payload    </text>
<text text-anchor="start" x="536.0817" y="-1124.9" font-family="Arial" font-size="14.00" fill="#666666">[text]</text>
<polygon fill="none" stroke="#000000" points="445.8573,-1083.5 445.8573,-1113.5 641.8573,-1113.5 641.8573,-1083.5 445.8573,-1083.5"/>
<text text-anchor="start" x="452.8573" y="-1094.9" font-family="Arial" font-size="14.00" fill="#000000">created    </text>
<text text-anchor="start" x="533.7437" y="-1094.9" font-family="Arial" font-size="14.00" fill="#666666">[datetime]</text>
</g>
<!-- log&#45;&gt;comment -->
<g id="edge7" class="edge">
<title>log:comment_id&#45;&gt;comment:id</title>
<path fill="none" stroke="#000000" stroke-dasharray="5,2" d="M435.7698,-1187.8461C328.5825,-1173.0327 496.5662,-911.5 372.8573,-911.5"/>
<polygon fill="#000000" stroke="#000000" points="435.8782,-1187.853 445.5661,-1192.9906 440.8677,-1188.1765 445.8573,-1188.5 445.8573,-1188.5 445.8573,-1188.5 440.8677,-1188.1765 446.1484,-1184.0094 435.8782,-1187.853 435.8782,-1187.853"/>
<text text-anchor="start" x="360.1253" y="-1198.5" font-family="Arial" font-size="10.00" fill="#000000">Detected Relation</text>
</g>
<!-- log&#45;&gt;comment_star -->
<g id="edge8" class="edge">
<title>log:comment_star_id&#45;&gt;comment_star:id</title>
<path fill="none" stroke="#000000" stroke-dasharray="5,2" d="M651.8119,-1157.4139C691.1053,-1148.0081 671.0941,-1079.7601 641.8573,-1041 606.7849,-994.5035 550.9297,-1051.4965 515.8573,-1005 490.8327,-971.8242 474.3017,-911.5 515.8573,-911.5"/>
<polygon fill="#000000" stroke="#000000" points="651.7983,-1157.4153 641.3691,-1154.0265 646.8278,-1157.9576 641.8573,-1158.5 641.8573,-1158.5 641.8573,-1158.5 646.8278,-1157.9576 642.3454,-1162.9735 651.7983,-1157.4153 651.7983,-1157.4153"/>
<text text-anchor="start" x="649.1253" y="-1168.5" font-family="Arial" font-size="10.00" fill="#000000">Detected Relation</text>
</g>
<!-- log&#45;&gt;post -->
<g id="edge6" class="edge">
<title>log:post_id&#45;&gt;post:id</title>
<path fill="none" stroke="#000000" stroke-dasharray="5,2" d="M436.8068,-1213.5431C396.6774,-1163.2926 456.0912,-747.0176 423.8573,-704 394.0222,-664.1838 346.8348,-708.4445 317.8573,-668 293.6546,-634.2199 276.3017,-574.5 317.8573,-574.5"/>
<polygon fill="#000000" stroke="#000000" points="437.0865,-1213.6963 443.6956,-1222.4468 441.4719,-1216.0982 445.8573,-1218.5 445.8573,-1218.5 445.8573,-1218.5 441.4719,-1216.0982 448.0189,-1214.5532 437.0865,-1213.6963 437.0865,-1213.6963"/>
<text text-anchor="start" x="360.1253" y="-1228.5" font-family="Arial" font-size="10.00" fill="#000000">Detected Relation</text>
</g>
<!-- log&#45;&gt;user -->
<g id="edge5" class="edge">
<title>log:user_id&#45;&gt;user:id</title>
<path fill="none" stroke="#000000" stroke-dasharray="5,2" d="M652.0857,-1247.8748C728.6576,-1237.7244 630.187,-1106.5192 693.8573,-1041 735.0422,-998.6191 786.1725,-1052.1056 821.8573,-1005 875.4535,-934.2504 864.6156,-207.5 775.8573,-207.5"/>
<polygon fill="#000000" stroke="#000000" points="651.8386,-1247.8898 641.5827,-1244.0084 646.8479,-1248.1949 641.8573,-1248.5 641.8573,-1248.5 641.8573,-1248.5 646.8479,-1248.1949 642.1318,-1252.9916 651.8386,-1247.8898 651.8386,-1247.8898"/>
<text text-anchor="start" x="649.1253" y="-1258.5" font-family="Arial" font-size="10.00" fill="#000000">Detected Relation</text>
</g>
<!-- post&#45;&gt;user -->
<g id="edge9" class="edge">
<title>post:user_id&#45;&gt;user:id</title>
<path fill="none" stroke="#000000" stroke-dasharray="5,2" d="M620.9543,-543.9631C698.0216,-535.232 636.5379,-421.8173 610.8573,-337 605.2848,-318.5955 592.4297,-319.4045 586.8573,-301 574.8151,-261.2275 545.3017,-207.5 586.8573,-207.5"/>
<polygon fill="#000000" stroke="#000000" points="620.8431,-543.969 610.6183,-540.0063 615.8502,-544.2345 610.8573,-544.5 610.8573,-544.5 610.8573,-544.5 615.8502,-544.2345 611.0962,-548.9937 620.8431,-543.969 620.8431,-543.969"/>
<text text-anchor="start" x="618.1253" y="-554.5" font-family="Arial" font-size="10.00" fill="#000000">Detected Relation</text>
</g>
<!-- post_comment -->
<g id="node7" class="node">
<title>post_comment</title>
<polygon fill="#efefef" stroke="transparent" points="1095.8573,-1293.5 1095.8573,-1328.5 1315.8573,-1328.5 1315.8573,-1293.5 1095.8573,-1293.5"/>
<polygon fill="none" stroke="#000000" points="1095.8573,-1293.5 1095.8573,-1328.5 1315.8573,-1328.5 1315.8573,-1293.5 1095.8573,-1293.5"/>
<text text-anchor="start" x="1107.9621" y="-1306.3" font-family="Arial Bold" font-size="18.00" fill="#000000">post_comment</text>
<text text-anchor="start" x="1225.9881" y="-1306.3" font-family="Arial" font-size="14.00" fill="#000000">    </text>
<text text-anchor="start" x="1260.1929" y="-1306.3" font-family="Arial" font-size="14.00" fill="#666666">[VIEW]</text>
<polygon fill="none" stroke="#000000" points="1095.8573,-1263.5 1095.8573,-1293.5 1315.8573,-1293.5 1315.8573,-1263.5 1095.8573,-1263.5"/>
<text text-anchor="start" x="1102.8573" y="-1274.9" font-family="Arial" font-size="14.00" fill="#000000">id    </text>
<text text-anchor="start" x="1147.9513" y="-1274.9" font-family="Arial" font-size="14.00" fill="#666666">[bigint]</text>
<polygon fill="none" stroke="#000000" points="1095.8573,-1233.5 1095.8573,-1263.5 1315.8573,-1263.5 1315.8573,-1233.5 1095.8573,-1233.5"/>
<text text-anchor="start" x="1102.8573" y="-1244.9" font-family="Arial" font-size="14.00" fill="#000000">title    </text>
<text text-anchor="start" x="1158.8391" y="-1244.9" font-family="Arial" font-size="14.00" fill="#666666">[varchar(255)]</text>
<polygon fill="none" stroke="#000000" points="1095.8573,-1203.5 1095.8573,-1233.5 1315.8573,-1233.5 1315.8573,-1203.5 1095.8573,-1203.5"/>
<text text-anchor="start" x="1102.8573" y="-1214.9" font-family="Arial" font-size="14.00" fill="#000000">post_user    </text>
<text text-anchor="start" x="1198.5263" y="-1214.9" font-family="Arial" font-size="14.00" fill="#666666">[varchar(50)]</text>
<polygon fill="none" stroke="#000000" points="1095.8573,-1173.5 1095.8573,-1203.5 1315.8573,-1203.5 1315.8573,-1173.5 1095.8573,-1173.5"/>
<text text-anchor="start" x="1102.8573" y="-1184.9" font-family="Arial" font-size="14.00" fill="#000000">comment    </text>
<text text-anchor="start" x="1194.6217" y="-1184.9" font-family="Arial" font-size="14.00" fill="#666666">[text]</text>
<polygon fill="none" stroke="#000000" points="1095.8573,-1143.5 1095.8573,-1173.5 1315.8573,-1173.5 1315.8573,-1143.5 1095.8573,-1143.5"/>
<text text-anchor="start" x="1102.8026" y="-1154.9" font-family="Arial" font-size="14.00" fill="#000000">comment_user    </text>
<text text-anchor="start" x="1229.5754" y="-1154.9" font-family="Arial" font-size="14.00" fill="#666666">[varchar(50)]</text>
<polygon fill="none" stroke="#000000" points="1095.8573,-1113.5 1095.8573,-1143.5 1315.8573,-1143.5 1315.8573,-1113.5 1095.8573,-1113.5"/>
<text text-anchor="start" x="1102.8573" y="-1124.9" font-family="Arial" font-size="14.00" fill="#000000">created    </text>
<text text-anchor="start" x="1183.7437" y="-1124.9" font-family="Arial" font-size="14.00" fill="#666666">[datetime]</text>
<polygon fill="none" stroke="#000000" points="1095.8573,-1083.5 1095.8573,-1113.5 1315.8573,-1113.5 1315.8573,-1083.5 1095.8573,-1083.5"/>
<text text-anchor="start" x="1102.8573" y="-1094.9" font-family="Arial" font-size="14.00" fill="#000000">updated    </text>
<text text-anchor="start" x="1187.6483" y="-1094.9" font-family="Arial" font-size="14.00" fill="#666666">[datetime]</text>
</g>
<!-- user_option -->
<g id="node9" class="node">
<title>user_option</title>
<polygon fill="#efefef" stroke="transparent" points="913.8573,-544.5 913.8573,-579.5 1148.8573,-579.5 1148.8573,-544.5 913.8573,-544.5"/>
<polygon fill="none" stroke="#000000" points="913.8573,-544.5 913.8573,-579.5 1148.8573,-579.5 1148.8573,-544.5 913.8573,-544.5"/>
<text text-anchor="start" x="920.5573" y="-557.3" font-family="Arial Bold" font-size="18.00" fill="#000000">user_option</text>
<text text-anchor="start" x="1014.5893" y="-557.3" font-family="Arial" font-size="14.00" fill="#000000">    </text>
<text text-anchor="start" x="1048.7941" y="-557.3" font-family="Arial" font-size="14.00" fill="#666666">[BASE TABLE]</text>
<polygon fill="none" stroke="#000000" points="913.8573,-514.5 913.8573,-544.5 1148.8573,-544.5 1148.8573,-514.5 913.8573,-514.5"/>
<text text-anchor="start" x="920.8573" y="-525.9" font-family="Arial" font-size="14.00" fill="#000000">user_id    </text>
<text text-anchor="start" x="1000.9597" y="-525.9" font-family="Arial" font-size="14.00" fill="#666666">[int]</text>
<polygon fill="none" stroke="#000000" points="913.8573,-484.5 913.8573,-514.5 1148.8573,-514.5 1148.8573,-484.5 913.8573,-484.5"/>
<text text-anchor="start" x="920.8573" y="-495.9" font-family="Arial" font-size="14.00" fill="#000000">show_email    </text>
<text text-anchor="start" x="1028.9555" y="-495.9" font-family="Arial" font-size="14.00" fill="#666666">[tinyint(1)]</text>
<polygon fill="none" stroke="#000000" points="913.8573,-454.5 913.8573,-484.5 1148.8573,-484.5 1148.8573,-454.5 913.8573,-454.5"/>
<text text-anchor="start" x="920.8573" y="-465.9" font-family="Arial" font-size="14.00" fill="#000000">created    </text>
<text text-anchor="start" x="1001.7437" y="-465.9" font-family="Arial" font-size="14.00" fill="#666666">[timestamp]</text>
<polygon fill="none" stroke="#000000" points="913.8573,-424.5 913.8573,-454.5 1148.8573,-454.5 1148.8573,-424.5 913.8573,-424.5"/>
<text text-anchor="start" x="920.8573" y="-435.9" font-family="Arial" font-size="14.00" fill="#000000">updated    </text>
<text text-anchor="start" x="1005.6483" y="-435.9" font-family="Arial" font-size="14.00" fill="#666666">[timestamp]</text>
</g>
<!-- user_option&#45;&gt;user -->
<g id="edge1" class="edge">
<title>user_option:user_id&#45;&gt;user:id</title>
<path fill="none" stroke="#000000" d="M903.6387,-528.9494C829.9075,-520.4425 891.0336,-415.1367 855.8573,-337 828.0854,-275.3108 843.5096,-207.5 775.8573,-207.5"/>
<polygon fill="#000000" stroke="#000000" points="903.8717,-528.9619 913.6151,-533.9935 908.8645,-529.2309 913.8573,-529.5 913.8573,-529.5 913.8573,-529.5 908.8645,-529.2309 914.0994,-525.0065 903.8717,-528.9619 903.8717,-528.9619"/>
<text text-anchor="start" x="686.3023" y="-513.5" font-family="Arial" font-size="10.00" fill="#000000">FOREIGN KEY (user_id) REFERENCES user (id)</text>
</g>
</g>
</svg>
