<?xml version="1.0" encoding="UTF-8" standalone="no"?>
<!DOCTYPE svg PUBLIC "-//W3C//DTD SVG 1.1//EN"
 "http://www.w3.org/Graphics/SVG/1.1/DTD/svg11.dtd">
<!-- Generated by graphviz version 2.40.1 (20161225.0304)
 -->
<!-- Title: relations_singular Pages: 1 -->
<svg width="1240pt" height="1380pt"
 viewBox="0.00 0.00 1240.35 1380.00" xmlns="http://www.w3.org/2000/svg" xmlns:xlink="http://www.w3.org/1999/xlink">
<g id="graph0" class="graph" transform="scale(1 1) rotate(0) translate(4 1376)">
<title>relations_singular</title>
<polygon fill="#ffffff" stroke="transparent" points="-4,4 -4,-1376 1236.3544,-1376 1236.3544,4 -4,4"/>
<!-- CamelizeTable -->
<g id="node1" class="node">
<title>CamelizeTable</title>
<polygon fill="#efefef" stroke="transparent" points="75.8544,-1218.5 75.8544,-1253.5 306.8544,-1253.5 306.8544,-1218.5 75.8544,-1218.5"/>
<polygon fill="none" stroke="#000000" points="75.8544,-1218.5 75.8544,-1253.5 306.8544,-1253.5 306.8544,-1218.5 75.8544,-1218.5"/>
<text text-anchor="start" x="82.7263" y="-1231.3" font-family="Arial Bold" font-size="18.00" fill="#000000">CamelizeTable</text>
<text text-anchor="start" x="202.7287" y="-1231.3" font-family="Arial" font-size="14.00" fill="#000000"> </text>
<text text-anchor="start" x="206.6193" y="-1231.3" font-family="Arial" font-size="14.00" fill="#666666">[BASE TABLE]</text>
<polygon fill="none" stroke="#000000" points="75.8544,-1188.5 75.8544,-1218.5 306.8544,-1218.5 306.8544,-1188.5 75.8544,-1188.5"/>
<text text-anchor="start" x="82.8544" y="-1199.9" font-family="Arial" font-size="14.00" fill="#000000">id </text>
<text text-anchor="start" x="97.6342" y="-1199.9" font-family="Arial" font-size="14.00" fill="#666666">[bigint]</text>
<polygon fill="none" stroke="#000000" points="75.8544,-1158.5 75.8544,-1188.5 306.8544,-1188.5 306.8544,-1158.5 75.8544,-1158.5"/>
<text text-anchor="start" x="82.8544" y="-1169.9" font-family="Arial" font-size="14.00" fill="#000000">created </text>
<text text-anchor="start" x="133.4266" y="-1169.9" font-family="Arial" font-size="14.00" fill="#666666">[datetime]</text>
</g>
<!-- comment -->
<g id="node2" class="node">
<title>comment</title>
<polygon fill="#efefef" stroke="transparent" points="145.8544,-926.5 145.8544,-961.5 330.8544,-961.5 330.8544,-926.5 145.8544,-926.5"/>
<polygon fill="none" stroke="#000000" points="145.8544,-926.5 145.8544,-961.5 330.8544,-961.5 330.8544,-926.5 145.8544,-926.5"/>
<text text-anchor="start" x="152.7249" y="-939.3" font-family="Arial Bold" font-size="18.00" fill="#000000">comment</text>
<text text-anchor="start" x="226.7301" y="-939.3" font-family="Arial" font-size="14.00" fill="#000000"> </text>
<text text-anchor="start" x="230.6207" y="-939.3" font-family="Arial" font-size="14.00" fill="#666666">[BASE TABLE]</text>
<polygon fill="none" stroke="#000000" points="145.8544,-896.5 145.8544,-926.5 330.8544,-926.5 330.8544,-896.5 145.8544,-896.5"/>
<text text-anchor="start" x="152.8544" y="-907.9" font-family="Arial" font-size="14.00" fill="#000000">id </text>
<text text-anchor="start" x="167.6342" y="-907.9" font-family="Arial" font-size="14.00" fill="#666666">[bigint]</text>
<polygon fill="none" stroke="#000000" points="145.8544,-866.5 145.8544,-896.5 330.8544,-896.5 330.8544,-866.5 145.8544,-866.5"/>
<text text-anchor="start" x="152.8544" y="-877.9" font-family="Arial" font-size="14.00" fill="#000000">post_id </text>
<text text-anchor="start" x="201.8726" y="-877.9" font-family="Arial" font-size="14.00" fill="#666666">[bigint]</text>
<polygon fill="none" stroke="#000000" points="145.8544,-836.5 145.8544,-866.5 330.8544,-866.5 330.8544,-836.5 145.8544,-836.5"/>
<text text-anchor="start" x="152.8544" y="-847.9" font-family="Arial" font-size="14.00" fill="#000000">user_id </text>
<text text-anchor="start" x="202.6426" y="-847.9" font-family="Arial" font-size="14.00" fill="#666666">[int]</text>
<polygon fill="none" stroke="#000000" points="145.8544,-806.5 145.8544,-836.5 330.8544,-836.5 330.8544,-806.5 145.8544,-806.5"/>
<text text-anchor="start" x="152.8544" y="-817.9" font-family="Arial" font-size="14.00" fill="#000000">comment </text>
<text text-anchor="start" x="214.3046" y="-817.9" font-family="Arial" font-size="14.00" fill="#666666">[text]</text>
<polygon fill="none" stroke="#000000" points="145.8544,-776.5 145.8544,-806.5 330.8544,-806.5 330.8544,-776.5 145.8544,-776.5"/>
<text text-anchor="start" x="152.8544" y="-787.9" font-family="Arial" font-size="14.00" fill="#000000">created </text>
<text text-anchor="start" x="203.4266" y="-787.9" font-family="Arial" font-size="14.00" fill="#666666">[datetime]</text>
<polygon fill="none" stroke="#000000" points="145.8544,-746.5 145.8544,-776.5 330.8544,-776.5 330.8544,-746.5 145.8544,-746.5"/>
<text text-anchor="start" x="152.8544" y="-757.9" font-family="Arial" font-size="14.00" fill="#000000">updated </text>
<text text-anchor="start" x="207.3312" y="-757.9" font-family="Arial" font-size="14.00" fill="#666666">[datetime]</text>
</g>
<!-- post -->
<g id="node6" class="node">
<title>post</title>
<polygon fill="#efefef" stroke="transparent" points="290.8544,-589.5 290.8544,-624.5 553.8544,-624.5 553.8544,-589.5 290.8544,-589.5"/>
<polygon fill="none" stroke="#000000" points="290.8544,-589.5 290.8544,-624.5 553.8544,-624.5 553.8544,-589.5 290.8544,-589.5"/>
<text text-anchor="start" x="356.7202" y="-602.3" font-family="Arial Bold" font-size="18.00" fill="#000000">post</text>
<text text-anchor="start" x="390.7348" y="-602.3" font-family="Arial" font-size="14.00" fill="#000000"> </text>
<text text-anchor="start" x="394.6254" y="-602.3" font-family="Arial" font-size="14.00" fill="#666666">[BASE TABLE]</text>
<polygon fill="none" stroke="#000000" points="290.8544,-559.5 290.8544,-589.5 553.8544,-589.5 553.8544,-559.5 290.8544,-559.5"/>
<text text-anchor="start" x="297.8544" y="-570.9" font-family="Arial" font-size="14.00" fill="#000000">id </text>
<text text-anchor="start" x="312.6342" y="-570.9" font-family="Arial" font-size="14.00" fill="#666666">[bigint]</text>
<polygon fill="none" stroke="#000000" points="290.8544,-529.5 290.8544,-559.5 553.8544,-559.5 553.8544,-529.5 290.8544,-529.5"/>
<text text-anchor="start" x="297.8544" y="-540.9" font-family="Arial" font-size="14.00" fill="#000000">user_id </text>
<text text-anchor="start" x="347.6426" y="-540.9" font-family="Arial" font-size="14.00" fill="#666666">[int]</text>
<polygon fill="none" stroke="#000000" points="290.8544,-499.5 290.8544,-529.5 553.8544,-529.5 553.8544,-499.5 290.8544,-499.5"/>
<text text-anchor="start" x="297.8544" y="-510.9" font-family="Arial" font-size="14.00" fill="#000000">title </text>
<text text-anchor="start" x="323.522" y="-510.9" font-family="Arial" font-size="14.00" fill="#666666">[varchar(255)]</text>
<polygon fill="none" stroke="#000000" points="290.8544,-469.5 290.8544,-499.5 553.8544,-499.5 553.8544,-469.5 290.8544,-469.5"/>
<text text-anchor="start" x="297.8544" y="-480.9" font-family="Arial" font-size="14.00" fill="#000000">body </text>
<text text-anchor="start" x="332.0928" y="-480.9" font-family="Arial" font-size="14.00" fill="#666666">[text]</text>
<polygon fill="none" stroke="#000000" points="290.8544,-439.5 290.8544,-469.5 553.8544,-469.5 553.8544,-439.5 290.8544,-439.5"/>
<text text-anchor="start" x="297.5514" y="-450.9" font-family="Arial" font-size="14.00" fill="#000000">post_type </text>
<text text-anchor="start" x="362.1362" y="-450.9" font-family="Arial" font-size="14.00" fill="#666666">[enum(&#39;public&#39;,&#39;private&#39;,&#39;draft&#39;)]</text>
<polygon fill="none" stroke="#000000" points="290.8544,-409.5 290.8544,-439.5 553.8544,-439.5 553.8544,-409.5 290.8544,-409.5"/>
<text text-anchor="start" x="297.8544" y="-420.9" font-family="Arial" font-size="14.00" fill="#000000">created </text>
<text text-anchor="start" x="348.4266" y="-420.9" font-family="Arial" font-size="14.00" fill="#666666">[datetime]</text>
<polygon fill="none" stroke="#000000" points="290.8544,-379.5 290.8544,-409.5 553.8544,-409.5 553.8544,-379.5 290.8544,-379.5"/>
<text text-anchor="start" x="297.8544" y="-390.9" font-family="Arial" font-size="14.00" fill="#000000">updated </text>
<text text-anchor="start" x="352.3312" y="-390.9" font-family="Arial" font-size="14.00" fill="#666666">[datetime]</text>
</g>
<!-- comment&#45;&gt;post -->
<g id="edge2" class="edge">
<title>comment:post_id&#45;&gt;post:id</title>
<path fill="none" stroke="#000000" stroke-dasharray="5,2" d="M341.1342,-880.8193C405.3887,-871.6888 361.445,-772.687 330.8544,-704 321.1238,-682.1513 300.585,-689.8487 290.8544,-668 273.948,-630.039 249.2989,-574.5 290.8544,-574.5"/>
<polygon fill="#000000" stroke="#000000" points="340.8326,-880.8392 330.5571,-877.0098 335.8435,-881.1696 330.8544,-881.5 330.8544,-881.5 330.8544,-881.5 335.8435,-881.1696 331.1518,-885.9902 340.8326,-880.8392 340.8326,-880.8392"/>
<text text-anchor="start" x="338.1224" y="-891.5" font-family="Arial" font-size="10.00" fill="#000000">Detected Relation</text>
</g>
<!-- user -->
<g id="node8" class="node">
<title>user</title>
<polygon fill="#efefef" stroke="transparent" points="544.8544,-222.5 544.8544,-257.5 703.8544,-257.5 703.8544,-222.5 544.8544,-222.5"/>
<polygon fill="none" stroke="#000000" points="544.8544,-222.5 544.8544,-257.5 703.8544,-257.5 703.8544,-222.5 544.8544,-222.5"/>
<text text-anchor="start" x="558.2252" y="-235.3" font-family="Arial Bold" font-size="18.00" fill="#000000">user</text>
<text text-anchor="start" x="593.2298" y="-235.3" font-family="Arial" font-size="14.00" fill="#000000"> </text>
<text text-anchor="start" x="597.1204" y="-235.3" font-family="Arial" font-size="14.00" fill="#666666">[BASE TABLE]</text>
<polygon fill="none" stroke="#000000" points="544.8544,-192.5 544.8544,-222.5 703.8544,-222.5 703.8544,-192.5 544.8544,-192.5"/>
<text text-anchor="start" x="551.8544" y="-203.9" font-family="Arial" font-size="14.00" fill="#000000">id </text>
<text text-anchor="start" x="566.6342" y="-203.9" font-family="Arial" font-size="14.00" fill="#666666">[int]</text>
<polygon fill="none" stroke="#000000" points="544.8544,-162.5 544.8544,-192.5 703.8544,-192.5 703.8544,-162.5 544.8544,-162.5"/>
<text text-anchor="start" x="551.6237" y="-173.9" font-family="Arial" font-size="14.00" fill="#000000">username </text>
<text text-anchor="start" x="617.7485" y="-173.9" font-family="Arial" font-size="14.00" fill="#666666">[varchar(50)]</text>
<polygon fill="none" stroke="#000000" points="544.8544,-132.5 544.8544,-162.5 703.8544,-162.5 703.8544,-132.5 544.8544,-132.5"/>
<text text-anchor="start" x="551.8544" y="-143.9" font-family="Arial" font-size="14.00" fill="#000000">password </text>
<text text-anchor="start" x="615.6426" y="-143.9" font-family="Arial" font-size="14.00" fill="#666666">[varchar(50)]</text>
<polygon fill="none" stroke="#000000" points="544.8544,-102.5 544.8544,-132.5 703.8544,-132.5 703.8544,-102.5 544.8544,-102.5"/>
<text text-anchor="start" x="551.8544" y="-113.9" font-family="Arial" font-size="14.00" fill="#000000">email </text>
<text text-anchor="start" x="589.184" y="-113.9" font-family="Arial" font-size="14.00" fill="#666666">[varchar(355)]</text>
<polygon fill="none" stroke="#000000" points="544.8544,-72.5 544.8544,-102.5 703.8544,-102.5 703.8544,-72.5 544.8544,-72.5"/>
<text text-anchor="start" x="551.8544" y="-83.9" font-family="Arial" font-size="14.00" fill="#000000">created </text>
<text text-anchor="start" x="602.4266" y="-83.9" font-family="Arial" font-size="14.00" fill="#666666">[timestamp]</text>
<polygon fill="none" stroke="#000000" points="544.8544,-42.5 544.8544,-72.5 703.8544,-72.5 703.8544,-42.5 544.8544,-42.5"/>
<text text-anchor="start" x="551.8544" y="-53.9" font-family="Arial" font-size="14.00" fill="#000000">updated </text>
<text text-anchor="start" x="606.3312" y="-53.9" font-family="Arial" font-size="14.00" fill="#666666">[timestamp]</text>
</g>
<!-- comment&#45;&gt;user -->
<g id="edge3" class="edge">
<title>comment:user_id&#45;&gt;user:id</title>
<path fill="none" stroke="#000000" stroke-dasharray="5,2" d="M135.5989,-851.356C-38.0518,-846.3967 -84.0902,-712.6075 237.8544,-337 334.2273,-224.5634 396.7675,-207.5 544.8544,-207.5"/>
<polygon fill="#000000" stroke="#000000" points="135.8554,-851.3595 145.7912,-855.9996 140.8549,-851.4298 145.8544,-851.5 145.8544,-851.5 145.8544,-851.5 140.8549,-851.4298 145.9177,-847.0004 135.8554,-851.3595 135.8554,-851.3595"/>
<text text-anchor="start" x="60.1224" y="-861.5" font-family="Arial" font-size="10.00" fill="#000000">Detected Relation</text>
</g>
<!-- comment_star -->
<g id="node3" class="node">
<title>comment_star</title>
<polygon fill="#efefef" stroke="transparent" points="473.8544,-926.5 473.8544,-961.5 698.8544,-961.5 698.8544,-926.5 473.8544,-926.5"/>
<polygon fill="none" stroke="#000000" points="473.8544,-926.5 473.8544,-961.5 698.8544,-961.5 698.8544,-926.5 473.8544,-926.5"/>
<text text-anchor="start" x="480.7215" y="-939.3" font-family="Arial Bold" font-size="18.00" fill="#000000">comment_star</text>
<text text-anchor="start" x="594.7335" y="-939.3" font-family="Arial" font-size="14.00" fill="#000000"> </text>
<text text-anchor="start" x="598.6241" y="-939.3" font-family="Arial" font-size="14.00" fill="#666666">[BASE TABLE]</text>
<polygon fill="none" stroke="#000000" points="473.8544,-896.5 473.8544,-926.5 698.8544,-926.5 698.8544,-896.5 473.8544,-896.5"/>
<text text-anchor="start" x="480.8544" y="-907.9" font-family="Arial" font-size="14.00" fill="#000000">id </text>
<text text-anchor="start" x="495.6342" y="-907.9" font-family="Arial" font-size="14.00" fill="#666666">[bigint]</text>
<polygon fill="none" stroke="#000000" points="473.8544,-866.5 473.8544,-896.5 698.8544,-896.5 698.8544,-866.5 473.8544,-866.5"/>
<text text-anchor="start" x="480.8544" y="-877.9" font-family="Arial" font-size="14.00" fill="#000000">user_id </text>
<text text-anchor="start" x="530.6426" y="-877.9" font-family="Arial" font-size="14.00" fill="#666666">[int]</text>
<polygon fill="none" stroke="#000000" points="473.8544,-836.5 473.8544,-866.5 698.8544,-866.5 698.8544,-836.5 473.8544,-836.5"/>
<text text-anchor="start" x="480.8544" y="-847.9" font-family="Arial" font-size="14.00" fill="#000000">comment_post_id </text>
<text text-anchor="start" x="595.2148" y="-847.9" font-family="Arial" font-size="14.00" fill="#666666">[bigint]</text>
<polygon fill="none" stroke="#000000" points="473.8544,-806.5 473.8544,-836.5 698.8544,-836.5 698.8544,-806.5 473.8544,-806.5"/>
<text text-anchor="start" x="480.8544" y="-817.9" font-family="Arial" font-size="14.00" fill="#000000">comment_user_id </text>
<text text-anchor="start" x="595.9848" y="-817.9" font-family="Arial" font-size="14.00" fill="#666666">[int]</text>
<polygon fill="none" stroke="#000000" points="473.8544,-776.5 473.8544,-806.5 698.8544,-806.5 698.8544,-776.5 473.8544,-776.5"/>
<text text-anchor="start" x="480.8544" y="-787.9" font-family="Arial" font-size="14.00" fill="#000000">created </text>
<text text-anchor="start" x="531.4266" y="-787.9" font-family="Arial" font-size="14.00" fill="#666666">[timestamp]</text>
<polygon fill="none" stroke="#000000" points="473.8544,-746.5 473.8544,-776.5 698.8544,-776.5 698.8544,-746.5 473.8544,-746.5"/>
<text text-anchor="start" x="480.8544" y="-757.9" font-family="Arial" font-size="14.00" fill="#000000">updated </text>
<text text-anchor="start" x="535.3312" y="-757.9" font-family="Arial" font-size="14.00" fill="#666666">[timestamp]</text>
</g>
<!-- comment_star&#45;&gt;user -->
<g id="edge4" class="edge">
<title>comment_star:user_id&#45;&gt;user:id</title>
<path fill="none" stroke="#000000" stroke-dasharray="5,2" d="M705.4928,-873.9307C736.7591,-799.8828 738.9596,-207.5 703.8544,-207.5"/>
<polygon fill="#000000" stroke="#000000" points="705.4481,-873.9817 695.4712,-878.5329 702.1512,-877.7408 698.8544,-881.5 698.8544,-881.5 698.8544,-881.5 702.1512,-877.7408 702.2377,-884.4671 705.4481,-873.9817 705.4481,-873.9817"/>
<text text-anchor="start" x="706.1224" y="-891.5" font-family="Arial" font-size="10.00" fill="#000000">Detected Relation</text>
</g>
<!-- hyphen&#45;table -->
<g id="node4" class="node">
<title>hyphen&#45;table</title>
<polygon fill="#efefef" stroke="transparent" points="681.8544,-1233.5 681.8544,-1268.5 896.8544,-1268.5 896.8544,-1233.5 681.8544,-1233.5"/>
<polygon fill="none" stroke="#000000" points="681.8544,-1233.5 681.8544,-1268.5 896.8544,-1268.5 896.8544,-1233.5 681.8544,-1233.5"/>
<text text-anchor="start" x="688.7084" y="-1246.3" font-family="Arial Bold" font-size="18.00" fill="#000000">hyphen&#45;table</text>
<text text-anchor="start" x="792.7466" y="-1246.3" font-family="Arial" font-size="14.00" fill="#000000"> </text>
<text text-anchor="start" x="796.6372" y="-1246.3" font-family="Arial" font-size="14.00" fill="#666666">[BASE TABLE]</text>
<polygon fill="none" stroke="#000000" points="681.8544,-1203.5 681.8544,-1233.5 896.8544,-1233.5 896.8544,-1203.5 681.8544,-1203.5"/>
<text text-anchor="start" x="688.8544" y="-1214.9" font-family="Arial" font-size="14.00" fill="#000000">id </text>
<text text-anchor="start" x="703.6342" y="-1214.9" font-family="Arial" font-size="14.00" fill="#666666">[bigint]</text>
<polygon fill="none" stroke="#000000" points="681.8544,-1173.5 681.8544,-1203.5 896.8544,-1203.5 896.8544,-1173.5 681.8544,-1173.5"/>
<text text-anchor="start" x="688.8544" y="-1184.9" font-family="Arial" font-size="14.00" fill="#000000">hyphen&#45;column </text>
<text text-anchor="start" x="788.4336" y="-1184.9" font-family="Arial" font-size="14.00" fill="#666666">[text]</text>
<polygon fill="none" stroke="#000000" points="681.8544,-1143.5 681.8544,-1173.5 896.8544,-1173.5 896.8544,-1143.5 681.8544,-1143.5"/>
<text text-anchor="start" x="688.8544" y="-1154.9" font-family="Arial" font-size="14.00" fill="#000000">created </text>
<text text-anchor="start" x="739.4266" y="-1154.9" font-family="Arial" font-size="14.00" fill="#666666">[datetime]</text>
</g>
<!-- log -->
<g id="node5" class="node">
<title>log</title>
<polygon fill="#efefef" stroke="transparent" points="410.8544,-1293.5 410.8544,-1328.5 576.8544,-1328.5 576.8544,-1293.5 410.8544,-1293.5"/>
<polygon fill="none" stroke="#000000" points="410.8544,-1293.5 410.8544,-1328.5 576.8544,-1328.5 576.8544,-1293.5 410.8544,-1293.5"/>
<text text-anchor="start" x="433.2242" y="-1306.3" font-family="Arial Bold" font-size="18.00" fill="#000000">log</text>
<text text-anchor="start" x="457.2308" y="-1306.3" font-family="Arial" font-size="14.00" fill="#000000"> </text>
<text text-anchor="start" x="461.1214" y="-1306.3" font-family="Arial" font-size="14.00" fill="#666666">[BASE TABLE]</text>
<polygon fill="none" stroke="#000000" points="410.8544,-1263.5 410.8544,-1293.5 576.8544,-1293.5 576.8544,-1263.5 410.8544,-1263.5"/>
<text text-anchor="start" x="417.8544" y="-1274.9" font-family="Arial" font-size="14.00" fill="#000000">id </text>
<text text-anchor="start" x="432.6342" y="-1274.9" font-family="Arial" font-size="14.00" fill="#666666">[bigint]</text>
<polygon fill="none" stroke="#000000" points="410.8544,-1233.5 410.8544,-1263.5 576.8544,-1263.5 576.8544,-1233.5 410.8544,-1233.5"/>
<text text-anchor="start" x="417.8544" y="-1244.9" font-family="Arial" font-size="14.00" fill="#000000">user_id </text>
<text text-anchor="start" x="467.6426" y="-1244.9" font-family="Arial" font-size="14.00" fill="#666666">[int]</text>
<polygon fill="none" stroke="#000000" points="410.8544,-1203.5 410.8544,-1233.5 576.8544,-1233.5 576.8544,-1203.5 410.8544,-1203.5"/>
<text text-anchor="start" x="417.8544" y="-1214.9" font-family="Arial" font-size="14.00" fill="#000000">post_id </text>
<text text-anchor="start" x="466.8726" y="-1214.9" font-family="Arial" font-size="14.00" fill="#666666">[bigint]</text>
<polygon fill="none" stroke="#000000" points="410.8544,-1173.5 410.8544,-1203.5 576.8544,-1203.5 576.8544,-1173.5 410.8544,-1173.5"/>
<text text-anchor="start" x="417.8544" y="-1184.9" font-family="Arial" font-size="14.00" fill="#000000">comment_id </text>
<text text-anchor="start" x="497.9764" y="-1184.9" font-family="Arial" font-size="14.00" fill="#666666">[bigint]</text>
<polygon fill="none" stroke="#000000" points="410.8544,-1143.5 410.8544,-1173.5 576.8544,-1173.5 576.8544,-1143.5 410.8544,-1143.5"/>
<text text-anchor="start" x="417.6188" y="-1154.9" font-family="Arial" font-size="14.00" fill="#000000">comment_star_id </text>
<text text-anchor="start" x="528.8572" y="-1154.9" font-family="Arial" font-size="14.00" fill="#666666">[bigint]</text>
<polygon fill="none" stroke="#000000" points="410.8544,-1113.5 410.8544,-1143.5 576.8544,-1143.5 576.8544,-1113.5 410.8544,-1113.5"/>
<text text-anchor="start" x="417.8544" y="-1124.9" font-family="Arial" font-size="14.00" fill="#000000">payload </text>
<text text-anchor="start" x="470.7646" y="-1124.9" font-family="Arial" font-size="14.00" fill="#666666">[text]</text>
<polygon fill="none" stroke="#000000" points="410.8544,-1083.5 410.8544,-1113.5 576.8544,-1113.5 576.8544,-1083.5 410.8544,-1083.5"/>
<text text-anchor="start" x="417.8544" y="-1094.9" font-family="Arial" font-size="14.00" fill="#000000">created </text>
<text text-anchor="start" x="468.4266" y="-1094.9" font-family="Arial" font-size="14.00" fill="#666666">[datetime]</text>
</g>
<!-- log&#45;&gt;comment -->
<g id="edge7" class="edge">
<title>log:comment_id&#45;&gt;comment:id</title>
<path fill="none" stroke="#000000" stroke-dasharray="5,2" d="M400.686,-1187.8461C292.4525,-1173.0327 455.3681,-911.5 330.8544,-911.5"/>
<polygon fill="#000000" stroke="#000000" points="400.875,-1187.8582 410.5656,-1192.9907 405.8647,-1188.1791 410.8544,-1188.5 410.8544,-1188.5 410.8544,-1188.5 405.8647,-1188.1791 411.1433,-1184.0093 400.875,-1187.8582 400.875,-1187.8582"/>
<text text-anchor="start" x="325.1224" y="-1198.5" font-family="Arial" font-size="10.00" fill="#000000">Detected Relation</text>
</g>
<!-- log&#45;&gt;comment_star -->
<g id="edge8" class="edge">
<title>log:comment_star_id&#45;&gt;comment_star:id</title>
<path fill="none" stroke="#000000" stroke-dasharray="5,2" d="M587.2826,-1157.3059C625.7664,-1147.5579 604.8381,-1080.4244 576.8544,-1041 548.7857,-1001.4557 501.9232,-1044.5443 473.8544,-1005 449.8014,-971.1132 432.2989,-911.5 473.8544,-911.5"/>
<polygon fill="#000000" stroke="#000000" points="586.7895,-1157.3622 576.3424,-1154.0292 581.822,-1157.9311 576.8544,-1158.5 576.8544,-1158.5 576.8544,-1158.5 581.822,-1157.9311 577.3664,-1162.9708 586.7895,-1157.3622 586.7895,-1157.3622"/>
<text text-anchor="start" x="584.1224" y="-1168.5" font-family="Arial" font-size="10.00" fill="#000000">Detected Relation</text>
</g>
<!-- log&#45;&gt;post -->
<g id="edge6" class="edge">
<title>log:post_id&#45;&gt;post:id</title>
<path fill="none" stroke="#000000" stroke-dasharray="5,2" d="M401.9725,-1213.858C360.5083,-1165.0953 413.4012,-747.7068 381.8544,-704 356.3992,-668.7327 315.3069,-703.9699 290.8544,-668 267.4919,-633.6335 249.2989,-574.5 290.8544,-574.5"/>
<polygon fill="#000000" stroke="#000000" points="401.9918,-1213.8681 408.7701,-1222.4882 406.4231,-1216.184 410.8544,-1218.5 410.8544,-1218.5 410.8544,-1218.5 406.4231,-1216.184 412.9388,-1214.5118 401.9918,-1213.8681 401.9918,-1213.8681"/>
<text text-anchor="start" x="325.1224" y="-1228.5" font-family="Arial" font-size="10.00" fill="#000000">Detected Relation</text>
</g>
<!-- log&#45;&gt;user -->
<g id="edge5" class="edge">
<title>log:user_id&#45;&gt;user:id</title>
<path fill="none" stroke="#000000" stroke-dasharray="5,2" d="M587.0851,-1247.877C663.6933,-1237.7616 565.6778,-1106.9953 628.8544,-1041 667.6535,-1000.4699 716.311,-1049.9765 749.8544,-1005 802.918,-933.8501 792.6128,-207.5 703.8544,-207.5"/>
<polygon fill="#000000" stroke="#000000" points="586.8359,-1247.8921 576.5809,-1244.0083 581.8452,-1248.196 576.8544,-1248.5 576.8544,-1248.5 576.8544,-1248.5 581.8452,-1248.196 577.128,-1252.9917 586.8359,-1247.8921 586.8359,-1247.8921"/>
<text text-anchor="start" x="584.1224" y="-1258.5" font-family="Arial" font-size="10.00" fill="#000000">Detected Relation</text>
</g>
<!-- post&#45;&gt;user -->
<g id="edge9" class="edge">
<title>post:user_id&#45;&gt;user:id</title>
<path fill="none" stroke="#000000" stroke-dasharray="5,2" d="M563.8835,-543.9775C639.8584,-535.4772 564.6823,-424.9558 553.8544,-337 551.8393,-320.6311 546.8695,-317.3689 544.8544,-301 539.777,-259.7558 503.2989,-207.5 544.8544,-207.5"/>
<polygon fill="#000000" stroke="#000000" points="563.8409,-543.9796 553.6203,-540.0061 558.8477,-544.2398 553.8544,-544.5 553.8544,-544.5 553.8544,-544.5 558.8477,-544.2398 554.0886,-548.9939 563.8409,-543.9796 563.8409,-543.9796"/>
<text text-anchor="start" x="561.1224" y="-554.5" font-family="Arial" font-size="10.00" fill="#000000">Detected Relation</text>
</g>
<!-- post_comment -->
<g id="node7" class="node">
<title>post_comment</title>
<polygon fill="#efefef" stroke="transparent" points="1000.8544,-1293.5 1000.8544,-1328.5 1189.8544,-1328.5 1189.8544,-1293.5 1000.8544,-1293.5"/>
<polygon fill="none" stroke="#000000" points="1000.8544,-1293.5 1000.8544,-1328.5 1189.8544,-1328.5 1189.8544,-1293.5 1000.8544,-1293.5"/>
<text text-anchor="start" x="1012.6163" y="-1306.3" font-family="Arial Bold" font-size="18.00" fill="#000000">post_comment</text>
<text text-anchor="start" x="1130.6423" y="-1306.3" font-family="Arial" font-size="14.00" fill="#000000"> </text>
<text text-anchor="start" x="1134.5329" y="-1306.3" font-family="Arial" font-size="14.00" fill="#666666">[VIEW]</text>
<polygon fill="none" stroke="#000000" points="1000.8544,-1263.5 1000.8544,-1293.5 1189.8544,-1293.5 1189.8544,-1263.5 1000.8544,-1263.5"/>
<text text-anchor="start" x="1007.8544" y="-1274.9" font-family="Arial" font-size="14.00" fill="#000000">id </text>
<text text-anchor="start" x="1022.6342" y="-1274.9" font-family="Arial" font-size="14.00" fill="#666666">[bigint]</text>
<polygon fill="none" stroke="#000000" points="1000.8544,-1233.5 1000.8544,-1263.5 1189.8544,-1263.5 1189.8544,-1233.5 1000.8544,-1233.5"/>
<text text-anchor="start" x="1007.8544" y="-1244.9" font-family="Arial" font-size="14.00" fill="#000000">title </text>
<text text-anchor="start" x="1033.522" y="-1244.9" font-family="Arial" font-size="14.00" fill="#666666">[varchar(255)]</text>
<polygon fill="none" stroke="#000000" points="1000.8544,-1203.5 1000.8544,-1233.5 1189.8544,-1233.5 1189.8544,-1203.5 1000.8544,-1203.5"/>
<text text-anchor="start" x="1007.8544" y="-1214.9" font-family="Arial" font-size="14.00" fill="#000000">post_user </text>
<text text-anchor="start" x="1073.2092" y="-1214.9" font-family="Arial" font-size="14.00" fill="#666666">[varchar(50)]</text>
<polygon fill="none" stroke="#000000" points="1000.8544,-1173.5 1000.8544,-1203.5 1189.8544,-1203.5 1189.8544,-1173.5 1000.8544,-1173.5"/>
<text text-anchor="start" x="1007.8544" y="-1184.9" font-family="Arial" font-size="14.00" fill="#000000">comment </text>
<text text-anchor="start" x="1069.3046" y="-1184.9" font-family="Arial" font-size="14.00" fill="#666666">[text]</text>
<polygon fill="none" stroke="#000000" points="1000.8544,-1143.5 1000.8544,-1173.5 1189.8544,-1173.5 1189.8544,-1143.5 1000.8544,-1143.5"/>
<text text-anchor="start" x="1007.4568" y="-1154.9" font-family="Arial" font-size="14.00" fill="#000000">comment_user </text>
<text text-anchor="start" x="1103.9154" y="-1154.9" font-family="Arial" font-size="14.00" fill="#666666">[varchar(50)]</text>
<polygon fill="none" stroke="#000000" points="1000.8544,-1113.5 1000.8544,-1143.5 1189.8544,-1143.5 1189.8544,-1113.5 1000.8544,-1113.5"/>
<text text-anchor="start" x="1007.8544" y="-1124.9" font-family="Arial" font-size="14.00" fill="#000000">created </text>
<text text-anchor="start" x="1058.4266" y="-1124.9" font-family="Arial" font-size="14.00" fill="#666666">[datetime]</text>
<polygon fill="none" stroke="#000000" points="1000.8544,-1083.5 1000.8544,-1113.5 1189.8544,-1113.5 1189.8544,-1083.5 1000.8544,-1083.5"/>
<text text-anchor="start" x="1007.8544" y="-1094.9" font-family="Arial" font-size="14.00" fill="#000000">updated </text>
<text text-anchor="start" x="1062.3312" y="-1094.9" font-family="Arial" font-size="14.00" fill="#666666">[datetime]</text>
</g>
<!-- user_option -->
<g id="node9" class="node">
<title>user_option</title>
<polygon fill="#efefef" stroke="transparent" points="841.8544,-544.5 841.8544,-579.5 1046.8544,-579.5 1046.8544,-544.5 841.8544,-544.5"/>
<polygon fill="none" stroke="#000000" points="841.8544,-544.5 841.8544,-579.5 1046.8544,-579.5 1046.8544,-544.5 841.8544,-544.5"/>
<text text-anchor="start" x="848.7115" y="-557.3" font-family="Arial Bold" font-size="18.00" fill="#000000">user_option</text>
<text text-anchor="start" x="942.7435" y="-557.3" font-family="Arial" font-size="14.00" fill="#000000"> </text>
<text text-anchor="start" x="946.6341" y="-557.3" font-family="Arial" font-size="14.00" fill="#666666">[BASE TABLE]</text>
<polygon fill="none" stroke="#000000" points="841.8544,-514.5 841.8544,-544.5 1046.8544,-544.5 1046.8544,-514.5 841.8544,-514.5"/>
<text text-anchor="start" x="848.8544" y="-525.9" font-family="Arial" font-size="14.00" fill="#000000">user_id </text>
<text text-anchor="start" x="898.6426" y="-525.9" font-family="Arial" font-size="14.00" fill="#666666">[int]</text>
<polygon fill="none" stroke="#000000" points="841.8544,-484.5 841.8544,-514.5 1046.8544,-514.5 1046.8544,-484.5 841.8544,-484.5"/>
<text text-anchor="start" x="848.8544" y="-495.9" font-family="Arial" font-size="14.00" fill="#000000">show_email </text>
<text text-anchor="start" x="926.6384" y="-495.9" font-family="Arial" font-size="14.00" fill="#666666">[tinyint(1)]</text>
<polygon fill="none" stroke="#000000" points="841.8544,-454.5 841.8544,-484.5 1046.8544,-484.5 1046.8544,-454.5 841.8544,-454.5"/>
<text text-anchor="start" x="848.8544" y="-465.9" font-family="Arial" font-size="14.00" fill="#000000">created </text>
<text text-anchor="start" x="899.4266" y="-465.9" font-family="Arial" font-size="14.00" fill="#666666">[timestamp]</text>
<polygon fill="none" stroke="#000000" points="841.8544,-424.5 841.8544,-454.5 1046.8544,-454.5 1046.8544,-424.5 841.8544,-424.5"/>
<text text-anchor="start" x="848.8544" y="-435.9" font-family="Arial" font-size="14.00" fill="#000000">updated </text>
<text text-anchor="start" x="903.3312" y="-435.9" font-family="Arial" font-size="14.00" fill="#666666">[timestamp]</text>
</g>
<!-- user_option&#45;&gt;user -->
<g id="edge1" class="edge">
<title>user_option:user_id&#45;&gt;user:id</title>
<path fill="none" stroke="#000000" d="M831.6359,-528.9494C757.9047,-520.4425 819.0308,-415.1367 783.8544,-337 756.0825,-275.3108 771.5068,-207.5 703.8544,-207.5"/>
<polygon fill="#000000" stroke="#000000" points="831.8689,-528.9619 841.6123,-533.9935 836.8617,-529.2309 841.8544,-529.5 841.8544,-529.5 841.8544,-529.5 836.8617,-529.2309 842.0966,-525.0065 831.8689,-528.9619 831.8689,-528.9619"/>
<text text-anchor="start" x="614.2994" y="-513.5" font-family="Arial" font-size="10.00" fill="#000000">FOREIGN KEY (user_id) REFERENCES user (id)</text>
</g>
</g>
</svg>
