<?xml version="1.0" encoding="UTF-8" standalone="no"?>
<!DOCTYPE svg PUBLIC "-//W3C//DTD SVG 1.1//EN"
 "http://www.w3.org/Graphics/SVG/1.1/DTD/svg11.dtd">
<!-- Generated by graphviz version 2.40.1 (20161225.0304)
 -->
<!-- Title: user Pages: 1 -->
<svg width="1555pt" height="682pt"
 viewBox="0.00 0.00 1555.00 682.00" xmlns="http://www.w3.org/2000/svg" xmlns:xlink="http://www.w3.org/1999/xlink">
<g id="graph0" class="graph" transform="scale(1 1) rotate(0) translate(4 678)">
<title>user</title>
<polygon fill="#ffffff" stroke="transparent" points="-4,4 -4,-678 1551,-678 1551,4 -4,4"/>
<!-- user -->
<g id="node1" class="node">
<title>user</title>
<polygon fill="#efefef" stroke="transparent" points="674.5,-225.5 674.5,-260.5 833.5,-260.5 833.5,-225.5 674.5,-225.5"/>
<polygon fill="none" stroke="#000000" points="674.5,-225.5 674.5,-260.5 833.5,-260.5 833.5,-225.5 674.5,-225.5"/>
<text text-anchor="start" x="687.8708" y="-238.3" font-family="Arial Bold" font-size="18.00" fill="#000000">user</text>
<text text-anchor="start" x="722.8754" y="-238.3" font-family="Arial" font-size="14.00" fill="#000000"> </text>
<text text-anchor="start" x="726.766" y="-238.3" font-family="Arial" font-size="14.00" fill="#666666">[BASE TABLE]</text>
<polygon fill="none" stroke="#000000" points="674.5,-195.5 674.5,-225.5 833.5,-225.5 833.5,-195.5 674.5,-195.5"/>
<text text-anchor="start" x="681.5" y="-206.9" font-family="Arial" font-size="14.00" fill="#000000">id </text>
<text text-anchor="start" x="696.2798" y="-206.9" font-family="Arial" font-size="14.00" fill="#666666">[int]</text>
<polygon fill="none" stroke="#000000" points="674.5,-165.5 674.5,-195.5 833.5,-195.5 833.5,-165.5 674.5,-165.5"/>
<text text-anchor="start" x="681.2693" y="-176.9" font-family="Arial" font-size="14.00" fill="#000000">username </text>
<text text-anchor="start" x="747.3941" y="-176.9" font-family="Arial" font-size="14.00" fill="#666666">[varchar(50)]</text>
<polygon fill="none" stroke="#000000" points="674.5,-135.5 674.5,-165.5 833.5,-165.5 833.5,-135.5 674.5,-135.5"/>
<text text-anchor="start" x="681.5" y="-146.9" font-family="Arial" font-size="14.00" fill="#000000">password </text>
<text text-anchor="start" x="745.2882" y="-146.9" font-family="Arial" font-size="14.00" fill="#666666">[varchar(50)]</text>
<polygon fill="none" stroke="#000000" points="674.5,-105.5 674.5,-135.5 833.5,-135.5 833.5,-105.5 674.5,-105.5"/>
<text text-anchor="start" x="681.5" y="-116.9" font-family="Arial" font-size="14.00" fill="#000000">email </text>
<text text-anchor="start" x="718.8296" y="-116.9" font-family="Arial" font-size="14.00" fill="#666666">[varchar(355)]</text>
<polygon fill="none" stroke="#000000" points="674.5,-75.5 674.5,-105.5 833.5,-105.5 833.5,-75.5 674.5,-75.5"/>
<text text-anchor="start" x="681.5" y="-86.9" font-family="Arial" font-size="14.00" fill="#000000">created </text>
<text text-anchor="start" x="732.0722" y="-86.9" font-family="Arial" font-size="14.00" fill="#666666">[timestamp]</text>
<polygon fill="none" stroke="#000000" points="674.5,-45.5 674.5,-75.5 833.5,-75.5 833.5,-45.5 674.5,-45.5"/>
<text text-anchor="start" x="681.5" y="-56.9" font-family="Arial" font-size="14.00" fill="#000000">updated </text>
<text text-anchor="start" x="735.9768" y="-56.9" font-family="Arial" font-size="14.00" fill="#666666">[timestamp]</text>
<polygon fill="none" stroke="#000000" stroke-width="3" points="672.5,-44.5 672.5,-262.5 834.5,-262.5 834.5,-44.5 672.5,-44.5"/>
</g>
<!-- user_option -->
<g id="node2" class="node">
<title>user_option</title>
<polygon fill="#efefef" stroke="transparent" points="43.5,-550.5 43.5,-585.5 248.5,-585.5 248.5,-550.5 43.5,-550.5"/>
<polygon fill="none" stroke="#000000" points="43.5,-550.5 43.5,-585.5 248.5,-585.5 248.5,-550.5 43.5,-550.5"/>
<text text-anchor="start" x="50.3571" y="-563.3" font-family="Arial Bold" font-size="18.00" fill="#000000">user_option</text>
<text text-anchor="start" x="144.3891" y="-563.3" font-family="Arial" font-size="14.00" fill="#000000"> </text>
<text text-anchor="start" x="148.2797" y="-563.3" font-family="Arial" font-size="14.00" fill="#666666">[BASE TABLE]</text>
<polygon fill="none" stroke="#000000" points="43.5,-520.5 43.5,-550.5 248.5,-550.5 248.5,-520.5 43.5,-520.5"/>
<text text-anchor="start" x="50.5" y="-531.9" font-family="Arial" font-size="14.00" fill="#000000">user_id </text>
<text text-anchor="start" x="100.2882" y="-531.9" font-family="Arial" font-size="14.00" fill="#666666">[int]</text>
<polygon fill="none" stroke="#000000" points="43.5,-490.5 43.5,-520.5 248.5,-520.5 248.5,-490.5 43.5,-490.5"/>
<text text-anchor="start" x="50.5" y="-501.9" font-family="Arial" font-size="14.00" fill="#000000">show_email </text>
<text text-anchor="start" x="128.284" y="-501.9" font-family="Arial" font-size="14.00" fill="#666666">[tinyint(1)]</text>
<polygon fill="none" stroke="#000000" points="43.5,-460.5 43.5,-490.5 248.5,-490.5 248.5,-460.5 43.5,-460.5"/>
<text text-anchor="start" x="50.5" y="-471.9" font-family="Arial" font-size="14.00" fill="#000000">created </text>
<text text-anchor="start" x="101.0722" y="-471.9" font-family="Arial" font-size="14.00" fill="#666666">[timestamp]</text>
<polygon fill="none" stroke="#000000" points="43.5,-430.5 43.5,-460.5 248.5,-460.5 248.5,-430.5 43.5,-430.5"/>
<text text-anchor="start" x="50.5" y="-441.9" font-family="Arial" font-size="14.00" fill="#000000">updated </text>
<text text-anchor="start" x="104.9768" y="-441.9" font-family="Arial" font-size="14.00" fill="#666666">[timestamp]</text>
</g>
<!-- user_option&#45;&gt;user -->
<g id="edge1" class="edge">
<title>user_option:user_id&#45;&gt;user:id</title>
<path fill="none" stroke="#000000" d="M258.906,-534.8092C328.9177,-524.663 242.0686,-405.261 299.5,-343 419.3504,-213.071 497.7355,-210.5 674.5,-210.5"/>
<polygon fill="#000000" stroke="#000000" points="258.478,-534.8375 248.2019,-531.0099 253.489,-535.1687 248.5,-535.5 248.5,-535.5 248.5,-535.5 253.489,-535.1687 248.7981,-539.9901 258.478,-534.8375 258.478,-534.8375"/>
<text text-anchor="start" x="138.445" y="-519.5" font-family="Arial" font-size="10.00" fill="#000000">FOREIGN KEY (user_id) REFERENCES user (id)</text>
</g>
<!-- comment -->
<g id="node3" class="node">
<title>comment</title>
<polygon fill="#efefef" stroke="transparent" points="352.5,-580.5 352.5,-615.5 537.5,-615.5 537.5,-580.5 352.5,-580.5"/>
<polygon fill="none" stroke="#000000" points="352.5,-580.5 352.5,-615.5 537.5,-615.5 537.5,-580.5 352.5,-580.5"/>
<text text-anchor="start" x="359.3705" y="-593.3" font-family="Arial Bold" font-size="18.00" fill="#000000">comment</text>
<text text-anchor="start" x="433.3757" y="-593.3" font-family="Arial" font-size="14.00" fill="#000000"> </text>
<text text-anchor="start" x="437.2663" y="-593.3" font-family="Arial" font-size="14.00" fill="#666666">[BASE TABLE]</text>
<polygon fill="none" stroke="#000000" points="352.5,-550.5 352.5,-580.5 537.5,-580.5 537.5,-550.5 352.5,-550.5"/>
<text text-anchor="start" x="359.5" y="-561.9" font-family="Arial" font-size="14.00" fill="#000000">id </text>
<text text-anchor="start" x="374.2798" y="-561.9" font-family="Arial" font-size="14.00" fill="#666666">[bigint]</text>
<polygon fill="none" stroke="#000000" points="352.5,-520.5 352.5,-550.5 537.5,-550.5 537.5,-520.5 352.5,-520.5"/>
<text text-anchor="start" x="359.5" y="-531.9" font-family="Arial" font-size="14.00" fill="#000000">post_id </text>
<text text-anchor="start" x="408.5182" y="-531.9" font-family="Arial" font-size="14.00" fill="#666666">[bigint]</text>
<polygon fill="none" stroke="#000000" points="352.5,-490.5 352.5,-520.5 537.5,-520.5 537.5,-490.5 352.5,-490.5"/>
<text text-anchor="start" x="359.5" y="-501.9" font-family="Arial" font-size="14.00" fill="#000000">user_id </text>
<text text-anchor="start" x="409.2882" y="-501.9" font-family="Arial" font-size="14.00" fill="#666666">[int]</text>
<polygon fill="none" stroke="#000000" points="352.5,-460.5 352.5,-490.5 537.5,-490.5 537.5,-460.5 352.5,-460.5"/>
<text text-anchor="start" x="359.5" y="-471.9" font-family="Arial" font-size="14.00" fill="#000000">comment </text>
<text text-anchor="start" x="420.9502" y="-471.9" font-family="Arial" font-size="14.00" fill="#666666">[text]</text>
<polygon fill="none" stroke="#000000" points="352.5,-430.5 352.5,-460.5 537.5,-460.5 537.5,-430.5 352.5,-430.5"/>
<text text-anchor="start" x="359.5" y="-441.9" font-family="Arial" font-size="14.00" fill="#000000">created </text>
<text text-anchor="start" x="410.0722" y="-441.9" font-family="Arial" font-size="14.00" fill="#666666">[datetime]</text>
<polygon fill="none" stroke="#000000" points="352.5,-400.5 352.5,-430.5 537.5,-430.5 537.5,-400.5 352.5,-400.5"/>
<text text-anchor="start" x="359.5" y="-411.9" font-family="Arial" font-size="14.00" fill="#000000">updated </text>
<text text-anchor="start" x="413.9768" y="-411.9" font-family="Arial" font-size="14.00" fill="#666666">[datetime]</text>
</g>
<!-- comment&#45;&gt;user -->
<g id="edge2" class="edge">
<title>comment:user_id&#45;&gt;user:id</title>
<path fill="none" stroke="#000000" stroke-dasharray="5,2" d="M547.6654,-504.8415C607.8485,-496.3801 557.8383,-408.1444 588.5,-343 618.3977,-279.4786 604.2943,-210.5 674.5,-210.5"/>
<polygon fill="#000000" stroke="#000000" points="547.4791,-504.8535 537.2091,-501.0094 542.4895,-505.1767 537.5,-505.5 537.5,-505.5 537.5,-505.5 542.4895,-505.1767 537.7909,-509.9906 547.4791,-504.8535 547.4791,-504.8535"/>
<text text-anchor="start" x="544.768" y="-515.5" font-family="Arial" font-size="10.00" fill="#000000">Detected Relation</text>
</g>
<!-- comment_star -->
<g id="node4" class="node">
<title>comment_star</title>
<polygon fill="#efefef" stroke="transparent" points="641.5,-580.5 641.5,-615.5 866.5,-615.5 866.5,-580.5 641.5,-580.5"/>
<polygon fill="none" stroke="#000000" points="641.5,-580.5 641.5,-615.5 866.5,-615.5 866.5,-580.5 641.5,-580.5"/>
<text text-anchor="start" x="648.3671" y="-593.3" font-family="Arial Bold" font-size="18.00" fill="#000000">comment_star</text>
<text text-anchor="start" x="762.3791" y="-593.3" font-family="Arial" font-size="14.00" fill="#000000"> </text>
<text text-anchor="start" x="766.2697" y="-593.3" font-family="Arial" font-size="14.00" fill="#666666">[BASE TABLE]</text>
<polygon fill="none" stroke="#000000" points="641.5,-550.5 641.5,-580.5 866.5,-580.5 866.5,-550.5 641.5,-550.5"/>
<text text-anchor="start" x="648.5" y="-561.9" font-family="Arial" font-size="14.00" fill="#000000">id </text>
<text text-anchor="start" x="663.2798" y="-561.9" font-family="Arial" font-size="14.00" fill="#666666">[bigint]</text>
<polygon fill="none" stroke="#000000" points="641.5,-520.5 641.5,-550.5 866.5,-550.5 866.5,-520.5 641.5,-520.5"/>
<text text-anchor="start" x="648.5" y="-531.9" font-family="Arial" font-size="14.00" fill="#000000">user_id </text>
<text text-anchor="start" x="698.2882" y="-531.9" font-family="Arial" font-size="14.00" fill="#666666">[int]</text>
<polygon fill="none" stroke="#000000" points="641.5,-490.5 641.5,-520.5 866.5,-520.5 866.5,-490.5 641.5,-490.5"/>
<text text-anchor="start" x="648.5" y="-501.9" font-family="Arial" font-size="14.00" fill="#000000">comment_post_id </text>
<text text-anchor="start" x="762.8604" y="-501.9" font-family="Arial" font-size="14.00" fill="#666666">[bigint]</text>
<polygon fill="none" stroke="#000000" points="641.5,-460.5 641.5,-490.5 866.5,-490.5 866.5,-460.5 641.5,-460.5"/>
<text text-anchor="start" x="648.5" y="-471.9" font-family="Arial" font-size="14.00" fill="#000000">comment_user_id </text>
<text text-anchor="start" x="763.6304" y="-471.9" font-family="Arial" font-size="14.00" fill="#666666">[int]</text>
<polygon fill="none" stroke="#000000" points="641.5,-430.5 641.5,-460.5 866.5,-460.5 866.5,-430.5 641.5,-430.5"/>
<text text-anchor="start" x="648.5" y="-441.9" font-family="Arial" font-size="14.00" fill="#000000">created </text>
<text text-anchor="start" x="699.0722" y="-441.9" font-family="Arial" font-size="14.00" fill="#666666">[timestamp]</text>
<polygon fill="none" stroke="#000000" points="641.5,-400.5 641.5,-430.5 866.5,-430.5 866.5,-400.5 641.5,-400.5"/>
<text text-anchor="start" x="648.5" y="-411.9" font-family="Arial" font-size="14.00" fill="#000000">updated </text>
<text text-anchor="start" x="702.9768" y="-411.9" font-family="Arial" font-size="14.00" fill="#666666">[timestamp]</text>
</g>
<!-- comment_star&#45;&gt;user -->
<g id="edge3" class="edge">
<title>comment_star:user_id&#45;&gt;user:id</title>
<path fill="none" stroke="#000000" stroke-dasharray="5,2" d="M631.6138,-533.2511C572.2235,-504.5366 605.451,-210.5 674.5,-210.5"/>
<polygon fill="#000000" stroke="#000000" points="631.7491,-533.2818 640.5018,-539.8879 636.6246,-534.3909 641.5,-535.5 641.5,-535.5 641.5,-535.5 636.6246,-534.3909 642.4982,-531.1121 631.7491,-533.2818 631.7491,-533.2818"/>
<text text-anchor="start" x="555.768" y="-545.5" font-family="Arial" font-size="10.00" fill="#000000">Detected Relation</text>
</g>
<!-- log -->
<g id="node5" class="node">
<title>log</title>
<polygon fill="#efefef" stroke="transparent" points="970.5,-595.5 970.5,-630.5 1136.5,-630.5 1136.5,-595.5 970.5,-595.5"/>
<polygon fill="none" stroke="#000000" points="970.5,-595.5 970.5,-630.5 1136.5,-630.5 1136.5,-595.5 970.5,-595.5"/>
<text text-anchor="start" x="992.8698" y="-608.3" font-family="Arial Bold" font-size="18.00" fill="#000000">log</text>
<text text-anchor="start" x="1016.8764" y="-608.3" font-family="Arial" font-size="14.00" fill="#000000"> </text>
<text text-anchor="start" x="1020.767" y="-608.3" font-family="Arial" font-size="14.00" fill="#666666">[BASE TABLE]</text>
<polygon fill="none" stroke="#000000" points="970.5,-565.5 970.5,-595.5 1136.5,-595.5 1136.5,-565.5 970.5,-565.5"/>
<text text-anchor="start" x="977.5" y="-576.9" font-family="Arial" font-size="14.00" fill="#000000">id </text>
<text text-anchor="start" x="992.2798" y="-576.9" font-family="Arial" font-size="14.00" fill="#666666">[bigint]</text>
<polygon fill="none" stroke="#000000" points="970.5,-535.5 970.5,-565.5 1136.5,-565.5 1136.5,-535.5 970.5,-535.5"/>
<text text-anchor="start" x="977.5" y="-546.9" font-family="Arial" font-size="14.00" fill="#000000">user_id </text>
<text text-anchor="start" x="1027.2882" y="-546.9" font-family="Arial" font-size="14.00" fill="#666666">[int]</text>
<polygon fill="none" stroke="#000000" points="970.5,-505.5 970.5,-535.5 1136.5,-535.5 1136.5,-505.5 970.5,-505.5"/>
<text text-anchor="start" x="977.5" y="-516.9" font-family="Arial" font-size="14.00" fill="#000000">post_id </text>
<text text-anchor="start" x="1026.5182" y="-516.9" font-family="Arial" font-size="14.00" fill="#666666">[bigint]</text>
<polygon fill="none" stroke="#000000" points="970.5,-475.5 970.5,-505.5 1136.5,-505.5 1136.5,-475.5 970.5,-475.5"/>
<text text-anchor="start" x="977.5" y="-486.9" font-family="Arial" font-size="14.00" fill="#000000">comment_id </text>
<text text-anchor="start" x="1057.622" y="-486.9" font-family="Arial" font-size="14.00" fill="#666666">[bigint]</text>
<polygon fill="none" stroke="#000000" points="970.5,-445.5 970.5,-475.5 1136.5,-475.5 1136.5,-445.5 970.5,-445.5"/>
<text text-anchor="start" x="977.2644" y="-456.9" font-family="Arial" font-size="14.00" fill="#000000">comment_star_id </text>
<text text-anchor="start" x="1088.5028" y="-456.9" font-family="Arial" font-size="14.00" fill="#666666">[bigint]</text>
<polygon fill="none" stroke="#000000" points="970.5,-415.5 970.5,-445.5 1136.5,-445.5 1136.5,-415.5 970.5,-415.5"/>
<text text-anchor="start" x="977.5" y="-426.9" font-family="Arial" font-size="14.00" fill="#000000">payload </text>
<text text-anchor="start" x="1030.4102" y="-426.9" font-family="Arial" font-size="14.00" fill="#666666">[text]</text>
<polygon fill="none" stroke="#000000" points="970.5,-385.5 970.5,-415.5 1136.5,-415.5 1136.5,-385.5 970.5,-385.5"/>
<text text-anchor="start" x="977.5" y="-396.9" font-family="Arial" font-size="14.00" fill="#000000">created </text>
<text text-anchor="start" x="1028.0722" y="-396.9" font-family="Arial" font-size="14.00" fill="#666666">[datetime]</text>
</g>
<!-- log&#45;&gt;user -->
<g id="edge4" class="edge">
<title>log:user_id&#45;&gt;user:id</title>
<path fill="none" stroke="#000000" stroke-dasharray="5,2" d="M960.146,-549.9588C881.5572,-541.1574 954.7464,-426.8623 918.5,-343 890.7421,-278.7773 903.4647,-210.5 833.5,-210.5"/>
<polygon fill="#000000" stroke="#000000" points="960.5136,-549.9779 970.2651,-554.9939 965.5068,-550.2389 970.5,-550.5 970.5,-550.5 970.5,-550.5 965.5068,-550.2389 970.7349,-546.0061 960.5136,-549.9779 960.5136,-549.9779"/>
<text text-anchor="start" x="884.768" y="-560.5" font-family="Arial" font-size="10.00" fill="#000000">Detected Relation</text>
</g>
<!-- post -->
<g id="node6" class="node">
<title>post</title>
<polygon fill="#efefef" stroke="transparent" points="1241.5,-595.5 1241.5,-630.5 1504.5,-630.5 1504.5,-595.5 1241.5,-595.5"/>
<polygon fill="none" stroke="#000000" points="1241.5,-595.5 1241.5,-630.5 1504.5,-630.5 1504.5,-595.5 1241.5,-595.5"/>
<text text-anchor="start" x="1307.3658" y="-608.3" font-family="Arial Bold" font-size="18.00" fill="#000000">post</text>
<text text-anchor="start" x="1341.3804" y="-608.3" font-family="Arial" font-size="14.00" fill="#000000"> </text>
<text text-anchor="start" x="1345.271" y="-608.3" font-family="Arial" font-size="14.00" fill="#666666">[BASE TABLE]</text>
<polygon fill="none" stroke="#000000" points="1241.5,-565.5 1241.5,-595.5 1504.5,-595.5 1504.5,-565.5 1241.5,-565.5"/>
<text text-anchor="start" x="1248.5" y="-576.9" font-family="Arial" font-size="14.00" fill="#000000">id </text>
<text text-anchor="start" x="1263.2798" y="-576.9" font-family="Arial" font-size="14.00" fill="#666666">[bigint]</text>
<polygon fill="none" stroke="#000000" points="1241.5,-535.5 1241.5,-565.5 1504.5,-565.5 1504.5,-535.5 1241.5,-535.5"/>
<text text-anchor="start" x="1248.5" y="-546.9" font-family="Arial" font-size="14.00" fill="#000000">user_id </text>
<text text-anchor="start" x="1298.2882" y="-546.9" font-family="Arial" font-size="14.00" fill="#666666">[int]</text>
<polygon fill="none" stroke="#000000" points="1241.5,-505.5 1241.5,-535.5 1504.5,-535.5 1504.5,-505.5 1241.5,-505.5"/>
<text text-anchor="start" x="1248.5" y="-516.9" font-family="Arial" font-size="14.00" fill="#000000">title </text>
<text text-anchor="start" x="1274.1676" y="-516.9" font-family="Arial" font-size="14.00" fill="#666666">[varchar(255)]</text>
<polygon fill="none" stroke="#000000" points="1241.5,-475.5 1241.5,-505.5 1504.5,-505.5 1504.5,-475.5 1241.5,-475.5"/>
<text text-anchor="start" x="1248.5" y="-486.9" font-family="Arial" font-size="14.00" fill="#000000">body </text>
<text text-anchor="start" x="1282.7384" y="-486.9" font-family="Arial" font-size="14.00" fill="#666666">[text]</text>
<polygon fill="none" stroke="#000000" points="1241.5,-445.5 1241.5,-475.5 1504.5,-475.5 1504.5,-445.5 1241.5,-445.5"/>
<text text-anchor="start" x="1248.197" y="-456.9" font-family="Arial" font-size="14.00" fill="#000000">post_type </text>
<text text-anchor="start" x="1312.7818" y="-456.9" font-family="Arial" font-size="14.00" fill="#666666">[enum(&#39;public&#39;,&#39;private&#39;,&#39;draft&#39;)]</text>
<polygon fill="none" stroke="#000000" points="1241.5,-415.5 1241.5,-445.5 1504.5,-445.5 1504.5,-415.5 1241.5,-415.5"/>
<text text-anchor="start" x="1248.5" y="-426.9" font-family="Arial" font-size="14.00" fill="#000000">created </text>
<text text-anchor="start" x="1299.0722" y="-426.9" font-family="Arial" font-size="14.00" fill="#666666">[datetime]</text>
<polygon fill="none" stroke="#000000" points="1241.5,-385.5 1241.5,-415.5 1504.5,-415.5 1504.5,-385.5 1241.5,-385.5"/>
<text text-anchor="start" x="1248.5" y="-396.9" font-family="Arial" font-size="14.00" fill="#000000">updated </text>
<text text-anchor="start" x="1302.9768" y="-396.9" font-family="Arial" font-size="14.00" fill="#666666">[datetime]</text>
</g>
<!-- post&#45;&gt;user -->
<g id="edge5" class="edge">
<title>post:user_id&#45;&gt;user:id</title>
<path fill="none" stroke="#000000" stroke-dasharray="5,2" d="M1231.2436,-549.8864C1154.3231,-539.9218 1249.6193,-411.046 1188.5,-343 1075.9644,-217.7105 1001.9094,-210.5 833.5,-210.5"/>
<polygon fill="#000000" stroke="#000000" points="1231.5178,-549.9027 1241.2312,-554.992 1236.5089,-550.2013 1241.5,-550.5 1241.5,-550.5 1241.5,-550.5 1236.5089,-550.2013 1241.7688,-546.008 1231.5178,-549.9027 1231.5178,-549.9027"/>
<text text-anchor="start" x="1155.768" y="-560.5" font-family="Arial" font-size="10.00" fill="#000000">Detected Relation</text>
</g>
</g>
</svg>
