<?xml version="1.0" encoding="UTF-8" standalone="no"?>
<!DOCTYPE svg PUBLIC "-//W3C//DTD SVG 1.1//EN"
 "http://www.w3.org/Graphics/SVG/1.1/DTD/svg11.dtd">
<!-- Generated by graphviz version 12.1.2 (20240928.0832)
 -->
<!-- Title: user Pages: 1 -->
<svg width="1663pt" height="694pt"
 viewBox="0.00 0.00 1663.33 694.40" xmlns="http://www.w3.org/2000/svg" xmlns:xlink="http://www.w3.org/1999/xlink">
<g id="graph0" class="graph" transform="scale(1 1) rotate(0) translate(4 690.4)">
<title>user</title>
<polygon fill="white" stroke="none" points="-4,4 -4,-690.4 1659.33,-690.4 1659.33,4 -4,4"/>
<!-- user -->
<g id="node1" class="node">
<title>user</title>
<polygon fill="#efefef" stroke="none" points="716.7,-231 716.7,-266.6 885.18,-266.6 885.18,-231 716.7,-231"/>
<polygon fill="none" stroke="black" points="716.7,-231 716.7,-266.6 885.18,-266.6 885.18,-231 716.7,-231"/>
<text text-anchor="start" x="723.7" y="-244.4" font-family="Arial Bold" font-size="18.00">user</text>
<text text-anchor="start" x="753.69" y="-244.4" font-family="Arial" font-size="14.00">    </text>
<text text-anchor="start" x="784.81" y="-244.4" font-family="Arial" font-size="14.00" fill="#666666">[BASE TABLE]</text>
<polygon fill="none" stroke="black" points="716.7,-200.2 716.7,-231 885.18,-231 885.18,-200.2 716.7,-200.2"/>
<text text-anchor="start" x="723.7" y="-212.4" font-family="Arial" font-size="14.00">id </text>
<text text-anchor="start" x="738.49" y="-212.4" font-family="Arial" font-size="14.00" fill="#666666">[int]</text>
<polygon fill="none" stroke="black" points="716.7,-169.4 716.7,-200.2 885.18,-200.2 885.18,-169.4 716.7,-169.4"/>
<text text-anchor="start" x="723.7" y="-181.6" font-family="Arial" font-size="14.00">username </text>
<text text-anchor="start" x="789.85" y="-181.6" font-family="Arial" font-size="14.00" fill="#666666">[varchar(50)]</text>
<polygon fill="none" stroke="black" points="716.7,-138.6 716.7,-169.4 885.18,-169.4 885.18,-138.6 716.7,-138.6"/>
<text text-anchor="start" x="723.7" y="-150.8" font-family="Arial" font-size="14.00">password </text>
<text text-anchor="start" x="787.51" y="-150.8" font-family="Arial" font-size="14.00" fill="#666666">[varchar(50)]</text>
<polygon fill="none" stroke="black" points="716.7,-107.8 716.7,-138.6 885.18,-138.6 885.18,-107.8 716.7,-107.8"/>
<text text-anchor="start" x="723.7" y="-120" font-family="Arial" font-size="14.00">email </text>
<text text-anchor="start" x="761.05" y="-120" font-family="Arial" font-size="14.00" fill="#666666">[varchar(355)]</text>
<polygon fill="none" stroke="black" points="716.7,-77 716.7,-107.8 885.18,-107.8 885.18,-77 716.7,-77"/>
<text text-anchor="start" x="723.7" y="-89.2" font-family="Arial" font-size="14.00">created </text>
<text text-anchor="start" x="774.29" y="-89.2" font-family="Arial" font-size="14.00" fill="#666666">[timestamp]</text>
<polygon fill="none" stroke="black" points="716.7,-46.2 716.7,-77 885.18,-77 885.18,-46.2 716.7,-46.2"/>
<text text-anchor="start" x="723.7" y="-58.4" font-family="Arial" font-size="14.00">updated </text>
<text text-anchor="start" x="778.2" y="-58.4" font-family="Arial" font-size="14.00" fill="#666666">[timestamp]</text>
<polygon fill="none" stroke="black" stroke-width="3" points="715.2,-44.7 715.2,-268.1 886.68,-268.1 886.68,-44.7 715.2,-44.7"/>
</g>
<!-- user_option -->
<g id="node2" class="node">
<title>user_option</title>
<polygon fill="#efefef" stroke="none" points="43.2,-561.4 43.2,-597 266.68,-597 266.68,-561.4 43.2,-561.4"/>
<polygon fill="none" stroke="black" points="43.2,-561.4 43.2,-597 266.68,-597 266.68,-561.4 43.2,-561.4"/>
<text text-anchor="start" x="50.2" y="-574.8" font-family="Arial Bold" font-size="18.00">user_option</text>
<text text-anchor="start" x="135.19" y="-574.8" font-family="Arial" font-size="14.00">    </text>
<text text-anchor="start" x="166.31" y="-574.8" font-family="Arial" font-size="14.00" fill="#666666">[BASE TABLE]</text>
<polygon fill="none" stroke="black" points="43.2,-530.6 43.2,-561.4 266.68,-561.4 266.68,-530.6 43.2,-530.6"/>
<text text-anchor="start" x="50.2" y="-542.8" font-family="Arial" font-size="14.00">user_id    </text>
<text text-anchor="start" x="127.23" y="-542.8" font-family="Arial" font-size="14.00" fill="#666666">[int]</text>
<polygon fill="none" stroke="black" points="43.2,-499.8 43.2,-530.6 266.68,-530.6 266.68,-499.8 43.2,-499.8"/>
<text text-anchor="start" x="50.2" y="-512" font-family="Arial" font-size="14.00">show_email    </text>
<text text-anchor="start" x="155.24" y="-512" font-family="Arial" font-size="14.00" fill="#666666">[tinyint(1)]</text>
<polygon fill="none" stroke="black" points="43.2,-469 43.2,-499.8 266.68,-499.8 266.68,-469 43.2,-469"/>
<text text-anchor="start" x="50.2" y="-481.2" font-family="Arial" font-size="14.00">created    </text>
<text text-anchor="start" x="128.01" y="-481.2" font-family="Arial" font-size="14.00" fill="#666666">[timestamp]</text>
<polygon fill="none" stroke="black" points="43.2,-438.2 43.2,-469 266.68,-469 266.68,-438.2 43.2,-438.2"/>
<text text-anchor="start" x="50.2" y="-450.4" font-family="Arial" font-size="14.00">updated    </text>
<text text-anchor="start" x="131.92" y="-450.4" font-family="Arial" font-size="14.00" fill="#666666">[timestamp]</text>
</g>
<!-- user_option&#45;&gt;user -->
<g id="edge1" class="edge">
<title>user_option:user_id&#45;&gt;user:id</title>
<path fill="none" stroke="black" d="M277.88,-545.35C350.22,-535.36 259.71,-412.31 318.94,-348.8 382.38,-280.79 622.7,-215.6 715.7,-215.6"/>
<polygon fill="black" stroke="black" points="277.99,-545.35 267.73,-541.49 272.67,-545.68 268.35,-545.96 268.35,-545.96 268.35,-545.96 272.67,-545.68 268.3,-550.47 277.99,-545.35"/>
<text text-anchor="start" x="157.1" y="-530" font-family="Arial" font-size="10.00">FOREIGN KEY (user_id) REFERENCES user (id)</text>
</g>
<!-- comment -->
<g id="node3" class="node">
<title>comment</title>
<polygon fill="#efefef" stroke="none" points="371.2,-592.2 371.2,-627.8 576.68,-627.8 576.68,-592.2 371.2,-592.2"/>
<polygon fill="none" stroke="black" points="371.2,-592.2 371.2,-627.8 576.68,-627.8 576.68,-592.2 371.2,-592.2"/>
<text text-anchor="start" x="378.2" y="-605.6" font-family="Arial Bold" font-size="18.00">comment</text>
<text text-anchor="start" x="445.19" y="-605.6" font-family="Arial" font-size="14.00">    </text>
<text text-anchor="start" x="476.3" y="-605.6" font-family="Arial" font-size="14.00" fill="#666666">[BASE TABLE]</text>
<polygon fill="none" stroke="black" points="371.2,-561.4 371.2,-592.2 576.68,-592.2 576.68,-561.4 371.2,-561.4"/>
<text text-anchor="start" x="378.2" y="-573.6" font-family="Arial" font-size="14.00">id    </text>
<text text-anchor="start" x="420.22" y="-573.6" font-family="Arial" font-size="14.00" fill="#666666">[bigint]</text>
<polygon fill="none" stroke="black" points="371.2,-530.6 371.2,-561.4 576.68,-561.4 576.68,-530.6 371.2,-530.6"/>
<text text-anchor="start" x="378.2" y="-542.8" font-family="Arial" font-size="14.00">post_id    </text>
<text text-anchor="start" x="454.47" y="-542.8" font-family="Arial" font-size="14.00" fill="#666666">[bigint]</text>
<polygon fill="none" stroke="black" points="371.2,-499.8 371.2,-530.6 576.68,-530.6 576.68,-499.8 371.2,-499.8"/>
<text text-anchor="start" x="378.2" y="-512" font-family="Arial" font-size="14.00">user_id    </text>
<text text-anchor="start" x="455.24" y="-512" font-family="Arial" font-size="14.00" fill="#666666">[int]</text>
<polygon fill="none" stroke="black" points="371.2,-469 371.2,-499.8 576.68,-499.8 576.68,-469 371.2,-469"/>
<text text-anchor="start" x="378.2" y="-481.2" font-family="Arial" font-size="14.00">comment    </text>
<text text-anchor="start" x="466.89" y="-481.2" font-family="Arial" font-size="14.00" fill="#666666">[text]</text>
<polygon fill="none" stroke="black" points="371.2,-438.2 371.2,-469 576.68,-469 576.68,-438.2 371.2,-438.2"/>
<text text-anchor="start" x="378.2" y="-450.4" font-family="Arial" font-size="14.00">created    </text>
<text text-anchor="start" x="456.02" y="-450.4" font-family="Arial" font-size="14.00" fill="#666666">[datetime]</text>
<polygon fill="none" stroke="black" points="371.2,-407.4 371.2,-438.2 576.68,-438.2 576.68,-407.4 371.2,-407.4"/>
<text text-anchor="start" x="378.2" y="-419.6" font-family="Arial" font-size="14.00">updated    </text>
<text text-anchor="start" x="459.93" y="-419.6" font-family="Arial" font-size="14.00" fill="#666666">[datetime]</text>
</g>
<!-- comment&#45;&gt;user -->
<g id="edge2" class="edge">
<title>comment:user_id&#45;&gt;user:id</title>
<path fill="none" stroke="black" stroke-dasharray="5,2" d="M588.06,-514.53C649.52,-505.86 597.71,-415.46 628.94,-348.8 658.91,-284.82 645.05,-215.6 715.7,-215.6"/>
<polygon fill="black" stroke="black" points="587.99,-514.53 577.72,-510.69 582.66,-514.88 578.34,-515.16 578.34,-515.16 578.34,-515.16 582.66,-514.88 578.3,-519.67 587.99,-514.53"/>
<text text-anchor="start" x="584.68" y="-525.2" font-family="Arial" font-size="10.00">Detected Relation</text>
</g>
<!-- comment_star -->
<g id="node4" class="node">
<title>comment_star</title>
<polygon fill="#efefef" stroke="none" points="680.71,-592.2 680.71,-627.8 921.17,-627.8 921.17,-592.2 680.71,-592.2"/>
<polygon fill="none" stroke="black" points="680.71,-592.2 680.71,-627.8 921.17,-627.8 921.17,-592.2 680.71,-592.2"/>
<text text-anchor="start" x="687.71" y="-605.6" font-family="Arial Bold" font-size="18.00">comment_star</text>
<text text-anchor="start" x="789.68" y="-605.6" font-family="Arial" font-size="14.00">    </text>
<text text-anchor="start" x="820.8" y="-605.6" font-family="Arial" font-size="14.00" fill="#666666">[BASE TABLE]</text>
<polygon fill="none" stroke="black" points="680.71,-561.4 680.71,-592.2 921.17,-592.2 921.17,-561.4 680.71,-561.4"/>
<text text-anchor="start" x="687.71" y="-573.6" font-family="Arial" font-size="14.00">id    </text>
<text text-anchor="start" x="729.72" y="-573.6" font-family="Arial" font-size="14.00" fill="#666666">[bigint]</text>
<polygon fill="none" stroke="black" points="680.71,-530.6 680.71,-561.4 921.17,-561.4 921.17,-530.6 680.71,-530.6"/>
<text text-anchor="start" x="687.71" y="-542.8" font-family="Arial" font-size="14.00">user_id    </text>
<text text-anchor="start" x="764.74" y="-542.8" font-family="Arial" font-size="14.00" fill="#666666">[int]</text>
<polygon fill="none" stroke="black" points="680.71,-499.8 680.71,-530.6 921.17,-530.6 921.17,-499.8 680.71,-499.8"/>
<text text-anchor="start" x="687.71" y="-512" font-family="Arial" font-size="14.00">comment_post_id    </text>
<text text-anchor="start" x="829.33" y="-512" font-family="Arial" font-size="14.00" fill="#666666">[bigint]</text>
<polygon fill="none" stroke="black" points="680.71,-469 680.71,-499.8 921.17,-499.8 921.17,-469 680.71,-469"/>
<text text-anchor="start" x="687.71" y="-481.2" font-family="Arial" font-size="14.00">comment_user_id    </text>
<text text-anchor="start" x="830.1" y="-481.2" font-family="Arial" font-size="14.00" fill="#666666">[int]</text>
<polygon fill="none" stroke="black" points="680.71,-438.2 680.71,-469 921.17,-469 921.17,-438.2 680.71,-438.2"/>
<text text-anchor="start" x="687.71" y="-450.4" font-family="Arial" font-size="14.00">created    </text>
<text text-anchor="start" x="765.52" y="-450.4" font-family="Arial" font-size="14.00" fill="#666666">[timestamp]</text>
<polygon fill="none" stroke="black" points="680.71,-407.4 680.71,-438.2 921.17,-438.2 921.17,-407.4 680.71,-407.4"/>
<text text-anchor="start" x="687.71" y="-419.6" font-family="Arial" font-size="14.00">updated    </text>
<text text-anchor="start" x="769.43" y="-419.6" font-family="Arial" font-size="14.00" fill="#666666">[timestamp]</text>
</g>
<!-- comment_star&#45;&gt;user -->
<g id="edge3" class="edge">
<title>comment_star:user_id&#45;&gt;user:id</title>
<path fill="none" stroke="black" stroke-dasharray="5,2" d="M932.21,-543.71C992.42,-514.52 956.43,-215.6 886.18,-215.6"/>
<polygon fill="black" stroke="black" points="932.25,-543.71 921.5,-541.54 927.04,-544.89 922.82,-545.85 922.82,-545.85 922.82,-545.85 927.04,-544.89 923.49,-550.31 932.25,-543.71"/>
<text text-anchor="start" x="929.17" y="-556" font-family="Arial" font-size="10.00">Detected Relation</text>
</g>
<!-- log -->
<g id="node5" class="node">
<title>log</title>
<polygon fill="#efefef" stroke="none" points="1026.07,-607.6 1026.07,-643.2 1219.81,-643.2 1219.81,-607.6 1026.07,-607.6"/>
<polygon fill="none" stroke="black" points="1026.07,-607.6 1026.07,-643.2 1219.81,-643.2 1219.81,-607.6 1026.07,-607.6"/>
<text text-anchor="start" x="1049.19" y="-621" font-family="Arial Bold" font-size="18.00">log</text>
<text text-anchor="start" x="1072.2" y="-621" font-family="Arial" font-size="14.00">    </text>
<text text-anchor="start" x="1103.31" y="-621" font-family="Arial" font-size="14.00" fill="#666666">[BASE TABLE]</text>
<polygon fill="none" stroke="black" points="1026.07,-576.8 1026.07,-607.6 1219.81,-607.6 1219.81,-576.8 1026.07,-576.8"/>
<text text-anchor="start" x="1033.07" y="-589" font-family="Arial" font-size="14.00">id    </text>
<text text-anchor="start" x="1075.08" y="-589" font-family="Arial" font-size="14.00" fill="#666666">[bigint]</text>
<polygon fill="none" stroke="black" points="1026.07,-546 1026.07,-576.8 1219.81,-576.8 1219.81,-546 1026.07,-546"/>
<text text-anchor="start" x="1033.07" y="-558.2" font-family="Arial" font-size="14.00">user_id    </text>
<text text-anchor="start" x="1110.1" y="-558.2" font-family="Arial" font-size="14.00" fill="#666666">[int]</text>
<polygon fill="none" stroke="black" points="1026.07,-515.2 1026.07,-546 1219.81,-546 1219.81,-515.2 1026.07,-515.2"/>
<text text-anchor="start" x="1033.07" y="-527.4" font-family="Arial" font-size="14.00">post_id    </text>
<text text-anchor="start" x="1109.33" y="-527.4" font-family="Arial" font-size="14.00" fill="#666666">[bigint]</text>
<polygon fill="none" stroke="black" points="1026.07,-484.4 1026.07,-515.2 1219.81,-515.2 1219.81,-484.4 1026.07,-484.4"/>
<text text-anchor="start" x="1033.07" y="-496.6" font-family="Arial" font-size="14.00">comment_id    </text>
<text text-anchor="start" x="1140.44" y="-496.6" font-family="Arial" font-size="14.00" fill="#666666">[bigint]</text>
<polygon fill="none" stroke="black" points="1026.07,-453.6 1026.07,-484.4 1219.81,-484.4 1219.81,-453.6 1026.07,-453.6"/>
<text text-anchor="start" x="1033.07" y="-465.8" font-family="Arial" font-size="14.00">comment_star_id    </text>
<text text-anchor="start" x="1171.56" y="-465.8" font-family="Arial" font-size="14.00" fill="#666666">[bigint]</text>
<polygon fill="none" stroke="black" points="1026.07,-422.8 1026.07,-453.6 1219.81,-453.6 1219.81,-422.8 1026.07,-422.8"/>
<text text-anchor="start" x="1033.07" y="-435" font-family="Arial" font-size="14.00">payload    </text>
<text text-anchor="start" x="1113.23" y="-435" font-family="Arial" font-size="14.00" fill="#666666">[text]</text>
<polygon fill="none" stroke="black" points="1026.07,-392 1026.07,-422.8 1219.81,-422.8 1219.81,-392 1026.07,-392"/>
<text text-anchor="start" x="1033.07" y="-404.2" font-family="Arial" font-size="14.00">created    </text>
<text text-anchor="start" x="1110.88" y="-404.2" font-family="Arial" font-size="14.00" fill="#666666">[datetime]</text>
</g>
<!-- log&#45;&gt;user -->
<g id="edge4" class="edge">
<title>log:user_id&#45;&gt;user:id</title>
<path fill="none" stroke="black" stroke-dasharray="5,2" d="M1014.97,-560.9C933.83,-552.29 1010.19,-434.75 972.94,-348.8 944.85,-283.97 956.83,-215.6 886.18,-215.6"/>
<polygon fill="black" stroke="black" points="1014.75,-560.89 1024.51,-565.88 1020.07,-561.15 1024.4,-561.37 1024.4,-561.37 1024.4,-561.37 1020.07,-561.15 1024.96,-556.89 1014.75,-560.89"/>
<text text-anchor="start" x="1032.07" y="-571.4" font-family="Arial" font-size="10.00">Detected Relation</text>
</g>
<!-- post -->
<g id="node6" class="node">
<title>post</title>
<polygon fill="#efefef" stroke="none" points="1323.75,-607.6 1323.75,-643.2 1612.13,-643.2 1612.13,-607.6 1323.75,-607.6"/>
<polygon fill="none" stroke="black" points="1323.75,-607.6 1323.75,-643.2 1612.13,-643.2 1612.13,-607.6 1323.75,-607.6"/>
<text text-anchor="start" x="1390.69" y="-621" font-family="Arial Bold" font-size="18.00">post</text>
<text text-anchor="start" x="1420.7" y="-621" font-family="Arial" font-size="14.00">    </text>
<text text-anchor="start" x="1451.82" y="-621" font-family="Arial" font-size="14.00" fill="#666666">[BASE TABLE]</text>
<polygon fill="none" stroke="black" points="1323.75,-576.8 1323.75,-607.6 1612.13,-607.6 1612.13,-576.8 1323.75,-576.8"/>
<text text-anchor="start" x="1330.75" y="-589" font-family="Arial" font-size="14.00">id    </text>
<text text-anchor="start" x="1372.76" y="-589" font-family="Arial" font-size="14.00" fill="#666666">[bigint]</text>
<polygon fill="none" stroke="black" points="1323.75,-546 1323.75,-576.8 1612.13,-576.8 1612.13,-546 1323.75,-546"/>
<text text-anchor="start" x="1330.75" y="-558.2" font-family="Arial" font-size="14.00">user_id    </text>
<text text-anchor="start" x="1407.78" y="-558.2" font-family="Arial" font-size="14.00" fill="#666666">[int]</text>
<polygon fill="none" stroke="black" points="1323.75,-515.2 1323.75,-546 1612.13,-546 1612.13,-515.2 1323.75,-515.2"/>
<text text-anchor="start" x="1330.75" y="-527.4" font-family="Arial" font-size="14.00">title    </text>
<text text-anchor="start" x="1383.65" y="-527.4" font-family="Arial" font-size="14.00" fill="#666666">[varchar(255)]</text>
<polygon fill="none" stroke="black" points="1323.75,-484.4 1323.75,-515.2 1612.13,-515.2 1612.13,-484.4 1323.75,-484.4"/>
<text text-anchor="start" x="1330.75" y="-496.6" font-family="Arial" font-size="14.00">body    </text>
<text text-anchor="start" x="1392.22" y="-496.6" font-family="Arial" font-size="14.00" fill="#666666">[text]</text>
<polygon fill="none" stroke="black" points="1323.75,-453.6 1323.75,-484.4 1612.13,-484.4 1612.13,-453.6 1323.75,-453.6"/>
<text text-anchor="start" x="1330.75" y="-465.8" font-family="Arial" font-size="14.00">post_type    </text>
<text text-anchor="start" x="1422.58" y="-465.8" font-family="Arial" font-size="14.00" fill="#666666">[enum(&#39;public&#39;,&#39;private&#39;,&#39;draft&#39;)]</text>
<polygon fill="none" stroke="black" points="1323.75,-422.8 1323.75,-453.6 1612.13,-453.6 1612.13,-422.8 1323.75,-422.8"/>
<text text-anchor="start" x="1330.75" y="-435" font-family="Arial" font-size="14.00">created    </text>
<text text-anchor="start" x="1408.56" y="-435" font-family="Arial" font-size="14.00" fill="#666666">[datetime]</text>
<polygon fill="none" stroke="black" points="1323.75,-392 1323.75,-422.8 1612.13,-422.8 1612.13,-392 1323.75,-392"/>
<text text-anchor="start" x="1330.75" y="-404.2" font-family="Arial" font-size="14.00">updated    </text>
<text text-anchor="start" x="1412.47" y="-404.2" font-family="Arial" font-size="14.00" fill="#666666">[datetime]</text>
</g>
<!-- post&#45;&gt;user -->
<g id="edge5" class="edge">
<title>post:user_id&#45;&gt;user:id</title>
<path fill="none" stroke="black" stroke-dasharray="5,2" d="M1312.78,-560.83C1233.64,-551.06 1334.77,-418.1 1271.94,-348.8 1211.03,-281.61 976.87,-215.6 886.18,-215.6"/>
<polygon fill="black" stroke="black" points="1312.43,-560.81 1322.16,-565.87 1317.76,-561.11 1322.08,-561.36 1322.08,-561.36 1322.08,-561.36 1317.76,-561.11 1322.67,-556.89 1312.43,-560.81"/>
<text text-anchor="start" x="1236.26" y="-571.4" font-family="Arial" font-size="10.00">Detected Relation</text>
</g>
</g>
</svg>
