<?xml version="1.0" encoding="UTF-8" standalone="no"?>
<!DOCTYPE svg PUBLIC "-//W3C//DTD SVG 1.1//EN"
 "http://www.w3.org/Graphics/SVG/1.1/DTD/svg11.dtd">
<!-- Generated by graphviz version 12.1.2 (20240928.0832)
 -->
<!-- Title: user_option Pages: 1 -->
<svg width="514pt" height="602pt"
 viewBox="0.00 0.00 513.84 602.00" xmlns="http://www.w3.org/2000/svg" xmlns:xlink="http://www.w3.org/1999/xlink">
<g id="graph0" class="graph" transform="scale(1 1) rotate(0) translate(4 598)">
<title>user_option</title>
<polygon fill="white" stroke="none" points="-4,4 -4,-598 509.84,-598 509.84,4 -4,4"/>
<!-- user_option -->
<g id="node1" class="node">
<title>user_option</title>
<polygon fill="#efefef" stroke="none" points="46.2,-512.2 46.2,-547.8 269.68,-547.8 269.68,-512.2 46.2,-512.2"/>
<polygon fill="none" stroke="black" points="46.2,-512.2 46.2,-547.8 269.68,-547.8 269.68,-512.2 46.2,-512.2"/>
<text text-anchor="start" x="53.2" y="-525.6" font-family="Arial Bold" font-size="18.00">user_option</text>
<text text-anchor="start" x="138.19" y="-525.6" font-family="Arial" font-size="14.00">    </text>
<text text-anchor="start" x="169.31" y="-525.6" font-family="Arial" font-size="14.00" fill="#666666">[BASE TABLE]</text>
<polygon fill="none" stroke="black" points="46.2,-481.4 46.2,-512.2 269.68,-512.2 269.68,-481.4 46.2,-481.4"/>
<text text-anchor="start" x="53.2" y="-493.6" font-family="Arial" font-size="14.00">user_id </text>
<text text-anchor="start" x="103.01" y="-493.6" font-family="Arial" font-size="14.00" fill="#666666">[int]</text>
<polygon fill="none" stroke="black" points="46.2,-450.6 46.2,-481.4 269.68,-481.4 269.68,-450.6 46.2,-450.6"/>
<text text-anchor="start" x="53.2" y="-462.8" font-family="Arial" font-size="14.00">show_email </text>
<text text-anchor="start" x="131.01" y="-462.8" font-family="Arial" font-size="14.00" fill="#666666">[tinyint(1)]</text>
<polygon fill="none" stroke="black" points="46.2,-419.8 46.2,-450.6 269.68,-450.6 269.68,-419.8 46.2,-419.8"/>
<text text-anchor="start" x="53.2" y="-432" font-family="Arial" font-size="14.00">created </text>
<text text-anchor="start" x="103.79" y="-432" font-family="Arial" font-size="14.00" fill="#666666">[timestamp]</text>
<polygon fill="none" stroke="black" points="46.2,-389 46.2,-419.8 269.68,-419.8 269.68,-389 46.2,-389"/>
<text text-anchor="start" x="53.2" y="-401.2" font-family="Arial" font-size="14.00">updated </text>
<text text-anchor="start" x="107.7" y="-401.2" font-family="Arial" font-size="14.00" fill="#666666">[timestamp]</text>
<polygon fill="none" stroke="black" stroke-width="3" points="44.7,-387.5 44.7,-549.3 271.18,-549.3 271.18,-387.5 44.7,-387.5"/>
</g>
<!-- user -->
<g id="node2" class="node">
<title>user</title>
<polygon fill="#efefef" stroke="none" points="64.57,-228 64.57,-263.6 251.3,-263.6 251.3,-228 64.57,-228"/>
<polygon fill="none" stroke="black" points="64.57,-228 64.57,-263.6 251.3,-263.6 251.3,-228 64.57,-228"/>
<text text-anchor="start" x="80.7" y="-241.4" font-family="Arial Bold" font-size="18.00">user</text>
<text text-anchor="start" x="110.69" y="-241.4" font-family="Arial" font-size="14.00">    </text>
<text text-anchor="start" x="141.81" y="-241.4" font-family="Arial" font-size="14.00" fill="#666666">[BASE TABLE]</text>
<polygon fill="none" stroke="black" points="64.57,-197.2 64.57,-228 251.3,-228 251.3,-197.2 64.57,-197.2"/>
<text text-anchor="start" x="71.57" y="-209.4" font-family="Arial" font-size="14.00">id    </text>
<text text-anchor="start" x="113.59" y="-209.4" font-family="Arial" font-size="14.00" fill="#666666">[int]</text>
<polygon fill="none" stroke="black" points="64.57,-166.4 64.57,-197.2 251.3,-197.2 251.3,-166.4 64.57,-166.4"/>
<text text-anchor="start" x="71.57" y="-178.6" font-family="Arial" font-size="14.00">username    </text>
<text text-anchor="start" x="164.95" y="-178.6" font-family="Arial" font-size="14.00" fill="#666666">[varchar(50)]</text>
<polygon fill="none" stroke="black" points="64.57,-135.6 64.57,-166.4 251.3,-166.4 251.3,-135.6 64.57,-135.6"/>
<text text-anchor="start" x="71.57" y="-147.8" font-family="Arial" font-size="14.00">password    </text>
<text text-anchor="start" x="162.61" y="-147.8" font-family="Arial" font-size="14.00" fill="#666666">[varchar(50)]</text>
<polygon fill="none" stroke="black" points="64.57,-104.8 64.57,-135.6 251.3,-135.6 251.3,-104.8 64.57,-104.8"/>
<text text-anchor="start" x="71.57" y="-117" font-family="Arial" font-size="14.00">email    </text>
<text text-anchor="start" x="136.15" y="-117" font-family="Arial" font-size="14.00" fill="#666666">[varchar(355)]</text>
<polygon fill="none" stroke="black" points="64.57,-74 64.57,-104.8 251.3,-104.8 251.3,-74 64.57,-74"/>
<text text-anchor="start" x="71.57" y="-86.2" font-family="Arial" font-size="14.00">created    </text>
<text text-anchor="start" x="149.39" y="-86.2" font-family="Arial" font-size="14.00" fill="#666666">[timestamp]</text>
<polygon fill="none" stroke="black" points="64.57,-43.2 64.57,-74 251.3,-74 251.3,-43.2 64.57,-43.2"/>
<text text-anchor="start" x="71.57" y="-55.4" font-family="Arial" font-size="14.00">updated    </text>
<text text-anchor="start" x="153.3" y="-55.4" font-family="Arial" font-size="14.00" fill="#666666">[timestamp]</text>
</g>
<!-- user_option&#45;&gt;user -->
<g id="edge1" class="edge">
<title>user_option:user_id&#45;&gt;user:id</title>
<path fill="none" stroke="black" d="M280.65,-494.17C331.74,-465.52 312.01,-212.6 252.3,-212.6"/>
<polygon fill="black" stroke="black" points="280.67,-494.16 269.85,-492.36 275.51,-495.52 271.33,-496.63 271.33,-496.63 271.33,-496.63 275.51,-495.52 272.15,-501.07 280.67,-494.16"/>
<text text-anchor="start" x="277.68" y="-506.8" font-family="Arial" font-size="10.00">FOREIGN KEY (user_id) REFERENCES user (id)</text>
</g>
</g>
</svg>
