<?xml version="1.0" encoding="UTF-8" standalone="no"?>
<!DOCTYPE svg PUBLIC "-//W3C//DTD SVG 1.1//EN"
 "http://www.w3.org/Graphics/SVG/1.1/DTD/svg11.dtd">
<!-- Generated by graphviz version 2.40.1 (20161225.0304)
 -->
<!-- Title: user Pages: 1 -->
<svg width="1705pt" height="682pt"
 viewBox="0.00 0.00 1705.00 682.00" xmlns="http://www.w3.org/2000/svg" xmlns:xlink="http://www.w3.org/1999/xlink">
<g id="graph0" class="graph" transform="scale(1 1) rotate(0) translate(4 678)">
<title>user</title>
<polygon fill="#ffffff" stroke="transparent" points="-4,4 -4,-678 1701,-678 1701,4 -4,4"/>
<!-- user -->
<g id="node1" class="node">
<title>user</title>
<polygon fill="#efefef" stroke="transparent" points="741.5,-225.5 741.5,-260.5 917.5,-260.5 917.5,-225.5 741.5,-225.5"/>
<polygon fill="none" stroke="#000000" points="741.5,-225.5 741.5,-260.5 917.5,-260.5 917.5,-225.5 741.5,-225.5"/>
<text text-anchor="start" x="748.2137" y="-238.3" font-family="Arial Bold" font-size="18.00" fill="#000000">user</text>
<text text-anchor="start" x="783.2183" y="-238.3" font-family="Arial" font-size="14.00" fill="#000000">    </text>
<text text-anchor="start" x="817.4231" y="-238.3" font-family="Arial" font-size="14.00" fill="#666666">[BASE TABLE]</text>
<polygon fill="none" stroke="#000000" points="741.5,-195.5 741.5,-225.5 917.5,-225.5 917.5,-195.5 741.5,-195.5"/>
<text text-anchor="start" x="748.5" y="-206.9" font-family="Arial" font-size="14.00" fill="#000000">id </text>
<text text-anchor="start" x="763.2798" y="-206.9" font-family="Arial" font-size="14.00" fill="#666666">[int]</text>
<polygon fill="none" stroke="#000000" points="741.5,-165.5 741.5,-195.5 917.5,-195.5 917.5,-165.5 741.5,-165.5"/>
<text text-anchor="start" x="748.5" y="-176.9" font-family="Arial" font-size="14.00" fill="#000000">username </text>
<text text-anchor="start" x="814.6248" y="-176.9" font-family="Arial" font-size="14.00" fill="#666666">[varchar(50)]</text>
<polygon fill="none" stroke="#000000" points="741.5,-135.5 741.5,-165.5 917.5,-165.5 917.5,-135.5 741.5,-135.5"/>
<text text-anchor="start" x="748.5" y="-146.9" font-family="Arial" font-size="14.00" fill="#000000">password </text>
<text text-anchor="start" x="812.2882" y="-146.9" font-family="Arial" font-size="14.00" fill="#666666">[varchar(50)]</text>
<polygon fill="none" stroke="#000000" points="741.5,-105.5 741.5,-135.5 917.5,-135.5 917.5,-105.5 741.5,-105.5"/>
<text text-anchor="start" x="748.5" y="-116.9" font-family="Arial" font-size="14.00" fill="#000000">email </text>
<text text-anchor="start" x="785.8296" y="-116.9" font-family="Arial" font-size="14.00" fill="#666666">[varchar(355)]</text>
<polygon fill="none" stroke="#000000" points="741.5,-75.5 741.5,-105.5 917.5,-105.5 917.5,-75.5 741.5,-75.5"/>
<text text-anchor="start" x="748.5" y="-86.9" font-family="Arial" font-size="14.00" fill="#000000">created </text>
<text text-anchor="start" x="799.0722" y="-86.9" font-family="Arial" font-size="14.00" fill="#666666">[timestamp]</text>
<polygon fill="none" stroke="#000000" points="741.5,-45.5 741.5,-75.5 917.5,-75.5 917.5,-45.5 741.5,-45.5"/>
<text text-anchor="start" x="748.5" y="-56.9" font-family="Arial" font-size="14.00" fill="#000000">updated </text>
<text text-anchor="start" x="802.9768" y="-56.9" font-family="Arial" font-size="14.00" fill="#666666">[timestamp]</text>
<polygon fill="none" stroke="#000000" stroke-width="3" points="740,-44.5 740,-262.5 919,-262.5 919,-44.5 740,-44.5"/>
</g>
<!-- user_option -->
<g id="node2" class="node">
<title>user_option</title>
<polygon fill="#efefef" stroke="transparent" points="43.5,-550.5 43.5,-585.5 278.5,-585.5 278.5,-550.5 43.5,-550.5"/>
<polygon fill="none" stroke="#000000" points="43.5,-550.5 43.5,-585.5 278.5,-585.5 278.5,-550.5 43.5,-550.5"/>
<text text-anchor="start" x="50.2" y="-563.3" font-family="Arial Bold" font-size="18.00" fill="#000000">user_option</text>
<text text-anchor="start" x="144.232" y="-563.3" font-family="Arial" font-size="14.00" fill="#000000">    </text>
<text text-anchor="start" x="178.4368" y="-563.3" font-family="Arial" font-size="14.00" fill="#666666">[BASE TABLE]</text>
<polygon fill="none" stroke="#000000" points="43.5,-520.5 43.5,-550.5 278.5,-550.5 278.5,-520.5 43.5,-520.5"/>
<text text-anchor="start" x="50.5" y="-531.9" font-family="Arial" font-size="14.00" fill="#000000">user_id    </text>
<text text-anchor="start" x="130.6024" y="-531.9" font-family="Arial" font-size="14.00" fill="#666666">[int]</text>
<polygon fill="none" stroke="#000000" points="43.5,-490.5 43.5,-520.5 278.5,-520.5 278.5,-490.5 43.5,-490.5"/>
<text text-anchor="start" x="50.5" y="-501.9" font-family="Arial" font-size="14.00" fill="#000000">show_email    </text>
<text text-anchor="start" x="158.5982" y="-501.9" font-family="Arial" font-size="14.00" fill="#666666">[tinyint(1)]</text>
<polygon fill="none" stroke="#000000" points="43.5,-460.5 43.5,-490.5 278.5,-490.5 278.5,-460.5 43.5,-460.5"/>
<text text-anchor="start" x="50.5" y="-471.9" font-family="Arial" font-size="14.00" fill="#000000">created    </text>
<text text-anchor="start" x="131.3864" y="-471.9" font-family="Arial" font-size="14.00" fill="#666666">[timestamp]</text>
<polygon fill="none" stroke="#000000" points="43.5,-430.5 43.5,-460.5 278.5,-460.5 278.5,-430.5 43.5,-430.5"/>
<text text-anchor="start" x="50.5" y="-441.9" font-family="Arial" font-size="14.00" fill="#000000">updated    </text>
<text text-anchor="start" x="135.291" y="-441.9" font-family="Arial" font-size="14.00" fill="#666666">[timestamp]</text>
</g>
<!-- user_option&#45;&gt;user -->
<g id="edge1" class="edge">
<title>user_option:user_id&#45;&gt;user:id</title>
<path fill="none" stroke="#000000" d="M288.9011,-534.8046C358.842,-524.5922 271.1877,-404.4367 329.5,-343 395.7083,-273.2443 645.3262,-210.5 741.5,-210.5"/>
<polygon fill="#000000" stroke="#000000" points="288.4777,-534.8328 278.1998,-531.01 283.4889,-535.1664 278.5,-535.5 278.5,-535.5 278.5,-535.5 283.4889,-535.1664 278.8002,-539.99 288.4777,-534.8328 288.4777,-534.8328"/>
<text text-anchor="start" x="168.445" y="-519.5" font-family="Arial" font-size="10.00" fill="#000000">FOREIGN KEY (user_id) REFERENCES user (id)</text>
</g>
<!-- comment -->
<g id="node3" class="node">
<title>comment</title>
<polygon fill="#efefef" stroke="transparent" points="382.5,-580.5 382.5,-615.5 597.5,-615.5 597.5,-580.5 382.5,-580.5"/>
<polygon fill="none" stroke="#000000" points="382.5,-580.5 382.5,-615.5 597.5,-615.5 597.5,-580.5 382.5,-580.5"/>
<text text-anchor="start" x="389.2134" y="-593.3" font-family="Arial Bold" font-size="18.00" fill="#000000">comment</text>
<text text-anchor="start" x="463.2186" y="-593.3" font-family="Arial" font-size="14.00" fill="#000000">    </text>
<text text-anchor="start" x="497.4234" y="-593.3" font-family="Arial" font-size="14.00" fill="#666666">[BASE TABLE]</text>
<polygon fill="none" stroke="#000000" points="382.5,-550.5 382.5,-580.5 597.5,-580.5 597.5,-550.5 382.5,-550.5"/>
<text text-anchor="start" x="389.5" y="-561.9" font-family="Arial" font-size="14.00" fill="#000000">id    </text>
<text text-anchor="start" x="434.594" y="-561.9" font-family="Arial" font-size="14.00" fill="#666666">[bigint]</text>
<polygon fill="none" stroke="#000000" points="382.5,-520.5 382.5,-550.5 597.5,-550.5 597.5,-520.5 382.5,-520.5"/>
<text text-anchor="start" x="389.5" y="-531.9" font-family="Arial" font-size="14.00" fill="#000000">post_id    </text>
<text text-anchor="start" x="468.8324" y="-531.9" font-family="Arial" font-size="14.00" fill="#666666">[bigint]</text>
<polygon fill="none" stroke="#000000" points="382.5,-490.5 382.5,-520.5 597.5,-520.5 597.5,-490.5 382.5,-490.5"/>
<text text-anchor="start" x="389.5" y="-501.9" font-family="Arial" font-size="14.00" fill="#000000">user_id    </text>
<text text-anchor="start" x="469.6024" y="-501.9" font-family="Arial" font-size="14.00" fill="#666666">[int]</text>
<polygon fill="none" stroke="#000000" points="382.5,-460.5 382.5,-490.5 597.5,-490.5 597.5,-460.5 382.5,-460.5"/>
<text text-anchor="start" x="389.5" y="-471.9" font-family="Arial" font-size="14.00" fill="#000000">comment    </text>
<text text-anchor="start" x="481.2644" y="-471.9" font-family="Arial" font-size="14.00" fill="#666666">[text]</text>
<polygon fill="none" stroke="#000000" points="382.5,-430.5 382.5,-460.5 597.5,-460.5 597.5,-430.5 382.5,-430.5"/>
<text text-anchor="start" x="389.5" y="-441.9" font-family="Arial" font-size="14.00" fill="#000000">created    </text>
<text text-anchor="start" x="470.3864" y="-441.9" font-family="Arial" font-size="14.00" fill="#666666">[datetime]</text>
<polygon fill="none" stroke="#000000" points="382.5,-400.5 382.5,-430.5 597.5,-430.5 597.5,-400.5 382.5,-400.5"/>
<text text-anchor="start" x="389.5" y="-411.9" font-family="Arial" font-size="14.00" fill="#000000">updated    </text>
<text text-anchor="start" x="474.291" y="-411.9" font-family="Arial" font-size="14.00" fill="#666666">[datetime]</text>
</g>
<!-- comment&#45;&gt;user -->
<g id="edge2" class="edge">
<title>comment:user_id&#45;&gt;user:id</title>
<path fill="none" stroke="#000000" stroke-dasharray="5,2" d="M607.657,-504.8374C667.7336,-496.3247 616.6617,-407.5775 648.5,-343 680.3149,-278.4697 669.5532,-210.5 741.5,-210.5"/>
<polygon fill="#000000" stroke="#000000" points="607.4788,-504.849 597.207,-501.0095 602.4894,-505.1745 597.5,-505.5 597.5,-505.5 597.5,-505.5 602.4894,-505.1745 597.793,-509.9905 607.4788,-504.849 607.4788,-504.849"/>
<text text-anchor="start" x="604.768" y="-515.5" font-family="Arial" font-size="10.00" fill="#000000">Detected Relation</text>
</g>
<!-- comment_star -->
<g id="node4" class="node">
<title>comment_star</title>
<polygon fill="#efefef" stroke="transparent" points="701.5,-580.5 701.5,-615.5 956.5,-615.5 956.5,-580.5 701.5,-580.5"/>
<polygon fill="none" stroke="#000000" points="701.5,-580.5 701.5,-615.5 956.5,-615.5 956.5,-580.5 701.5,-580.5"/>
<text text-anchor="start" x="708.21" y="-593.3" font-family="Arial Bold" font-size="18.00" fill="#000000">comment_star</text>
<text text-anchor="start" x="822.222" y="-593.3" font-family="Arial" font-size="14.00" fill="#000000">    </text>
<text text-anchor="start" x="856.4268" y="-593.3" font-family="Arial" font-size="14.00" fill="#666666">[BASE TABLE]</text>
<polygon fill="none" stroke="#000000" points="701.5,-550.5 701.5,-580.5 956.5,-580.5 956.5,-550.5 701.5,-550.5"/>
<text text-anchor="start" x="708.5" y="-561.9" font-family="Arial" font-size="14.00" fill="#000000">id    </text>
<text text-anchor="start" x="753.594" y="-561.9" font-family="Arial" font-size="14.00" fill="#666666">[bigint]</text>
<polygon fill="none" stroke="#000000" points="701.5,-520.5 701.5,-550.5 956.5,-550.5 956.5,-520.5 701.5,-520.5"/>
<text text-anchor="start" x="708.5" y="-531.9" font-family="Arial" font-size="14.00" fill="#000000">user_id    </text>
<text text-anchor="start" x="788.6024" y="-531.9" font-family="Arial" font-size="14.00" fill="#666666">[int]</text>
<polygon fill="none" stroke="#000000" points="701.5,-490.5 701.5,-520.5 956.5,-520.5 956.5,-490.5 701.5,-490.5"/>
<text text-anchor="start" x="708.5" y="-501.9" font-family="Arial" font-size="14.00" fill="#000000">comment_post_id    </text>
<text text-anchor="start" x="853.1746" y="-501.9" font-family="Arial" font-size="14.00" fill="#666666">[bigint]</text>
<polygon fill="none" stroke="#000000" points="701.5,-460.5 701.5,-490.5 956.5,-490.5 956.5,-460.5 701.5,-460.5"/>
<text text-anchor="start" x="708.5" y="-471.9" font-family="Arial" font-size="14.00" fill="#000000">comment_user_id    </text>
<text text-anchor="start" x="853.9446" y="-471.9" font-family="Arial" font-size="14.00" fill="#666666">[int]</text>
<polygon fill="none" stroke="#000000" points="701.5,-430.5 701.5,-460.5 956.5,-460.5 956.5,-430.5 701.5,-430.5"/>
<text text-anchor="start" x="708.5" y="-441.9" font-family="Arial" font-size="14.00" fill="#000000">created    </text>
<text text-anchor="start" x="789.3864" y="-441.9" font-family="Arial" font-size="14.00" fill="#666666">[timestamp]</text>
<polygon fill="none" stroke="#000000" points="701.5,-400.5 701.5,-430.5 956.5,-430.5 956.5,-400.5 701.5,-400.5"/>
<text text-anchor="start" x="708.5" y="-411.9" font-family="Arial" font-size="14.00" fill="#000000">updated    </text>
<text text-anchor="start" x="793.291" y="-411.9" font-family="Arial" font-size="14.00" fill="#666666">[timestamp]</text>
</g>
<!-- comment_star&#45;&gt;user -->
<g id="edge3" class="edge">
<title>comment_star:user_id&#45;&gt;user:id</title>
<path fill="none" stroke="#000000" stroke-dasharray="5,2" d="M966.4807,-534.8154C1032.6584,-525.2213 1003.2259,-417.1064 956.5,-358 895.5959,-280.9589 802.4041,-384.0411 741.5,-307 714.9021,-273.3547 698.6111,-210.5 741.5,-210.5"/>
<polygon fill="#000000" stroke="#000000" points="966.4766,-534.8156 956.192,-531.0105 961.4883,-535.1578 956.5,-535.5 956.5,-535.5 956.5,-535.5 961.4883,-535.1578 956.808,-539.9895 966.4766,-534.8156 966.4766,-534.8156"/>
<text text-anchor="start" x="963.768" y="-545.5" font-family="Arial" font-size="10.00" fill="#000000">Detected Relation</text>
</g>
<!-- log -->
<g id="node5" class="node">
<title>log</title>
<polygon fill="#efefef" stroke="transparent" points="1060.5,-595.5 1060.5,-630.5 1256.5,-630.5 1256.5,-595.5 1060.5,-595.5"/>
<polygon fill="none" stroke="#000000" points="1060.5,-595.5 1060.5,-630.5 1256.5,-630.5 1256.5,-595.5 1060.5,-595.5"/>
<text text-anchor="start" x="1082.7127" y="-608.3" font-family="Arial Bold" font-size="18.00" fill="#000000">log</text>
<text text-anchor="start" x="1106.7193" y="-608.3" font-family="Arial" font-size="14.00" fill="#000000">    </text>
<text text-anchor="start" x="1140.9241" y="-608.3" font-family="Arial" font-size="14.00" fill="#666666">[BASE TABLE]</text>
<polygon fill="none" stroke="#000000" points="1060.5,-565.5 1060.5,-595.5 1256.5,-595.5 1256.5,-565.5 1060.5,-565.5"/>
<text text-anchor="start" x="1067.5" y="-576.9" font-family="Arial" font-size="14.00" fill="#000000">id    </text>
<text text-anchor="start" x="1112.594" y="-576.9" font-family="Arial" font-size="14.00" fill="#666666">[bigint]</text>
<polygon fill="none" stroke="#000000" points="1060.5,-535.5 1060.5,-565.5 1256.5,-565.5 1256.5,-535.5 1060.5,-535.5"/>
<text text-anchor="start" x="1067.5" y="-546.9" font-family="Arial" font-size="14.00" fill="#000000">user_id    </text>
<text text-anchor="start" x="1147.6024" y="-546.9" font-family="Arial" font-size="14.00" fill="#666666">[int]</text>
<polygon fill="none" stroke="#000000" points="1060.5,-505.5 1060.5,-535.5 1256.5,-535.5 1256.5,-505.5 1060.5,-505.5"/>
<text text-anchor="start" x="1067.5" y="-516.9" font-family="Arial" font-size="14.00" fill="#000000">post_id    </text>
<text text-anchor="start" x="1146.8324" y="-516.9" font-family="Arial" font-size="14.00" fill="#666666">[bigint]</text>
<polygon fill="none" stroke="#000000" points="1060.5,-475.5 1060.5,-505.5 1256.5,-505.5 1256.5,-475.5 1060.5,-475.5"/>
<text text-anchor="start" x="1067.5" y="-486.9" font-family="Arial" font-size="14.00" fill="#000000">comment_id    </text>
<text text-anchor="start" x="1177.9362" y="-486.9" font-family="Arial" font-size="14.00" fill="#666666">[bigint]</text>
<polygon fill="none" stroke="#000000" points="1060.5,-445.5 1060.5,-475.5 1256.5,-475.5 1256.5,-445.5 1060.5,-445.5"/>
<text text-anchor="start" x="1067.1073" y="-456.9" font-family="Arial" font-size="14.00" fill="#000000">comment_star_id    </text>
<text text-anchor="start" x="1208.6599" y="-456.9" font-family="Arial" font-size="14.00" fill="#666666">[bigint]</text>
<polygon fill="none" stroke="#000000" points="1060.5,-415.5 1060.5,-445.5 1256.5,-445.5 1256.5,-415.5 1060.5,-415.5"/>
<text text-anchor="start" x="1067.5" y="-426.9" font-family="Arial" font-size="14.00" fill="#000000">payload    </text>
<text text-anchor="start" x="1150.7244" y="-426.9" font-family="Arial" font-size="14.00" fill="#666666">[text]</text>
<polygon fill="none" stroke="#000000" points="1060.5,-385.5 1060.5,-415.5 1256.5,-415.5 1256.5,-385.5 1060.5,-385.5"/>
<text text-anchor="start" x="1067.5" y="-396.9" font-family="Arial" font-size="14.00" fill="#000000">created    </text>
<text text-anchor="start" x="1148.3864" y="-396.9" font-family="Arial" font-size="14.00" fill="#666666">[datetime]</text>
</g>
<!-- log&#45;&gt;user -->
<g id="edge4" class="edge">
<title>log:user_id&#45;&gt;user:id</title>
<path fill="none" stroke="#000000" stroke-dasharray="5,2" d="M1050.152,-549.9561C971.6598,-541.1121 1046.0595,-426.2824 1008.5,-343 979.13,-277.8766 988.9399,-210.5 917.5,-210.5"/>
<polygon fill="#000000" stroke="#000000" points="1050.5138,-549.975 1060.2638,-554.9938 1055.5069,-550.2375 1060.5,-550.5 1060.5,-550.5 1060.5,-550.5 1055.5069,-550.2375 1060.7362,-546.0062 1050.5138,-549.975 1050.5138,-549.975"/>
<text text-anchor="start" x="1067.768" y="-560.5" font-family="Arial" font-size="10.00" fill="#000000">Detected Relation</text>
</g>
<!-- post -->
<g id="node6" class="node">
<title>post</title>
<polygon fill="#efefef" stroke="transparent" points="1361.5,-595.5 1361.5,-630.5 1654.5,-630.5 1654.5,-595.5 1361.5,-595.5"/>
<polygon fill="none" stroke="#000000" points="1361.5,-595.5 1361.5,-630.5 1654.5,-630.5 1654.5,-595.5 1361.5,-595.5"/>
<text text-anchor="start" x="1427.2087" y="-608.3" font-family="Arial Bold" font-size="18.00" fill="#000000">post</text>
<text text-anchor="start" x="1461.2233" y="-608.3" font-family="Arial" font-size="14.00" fill="#000000">    </text>
<text text-anchor="start" x="1495.4281" y="-608.3" font-family="Arial" font-size="14.00" fill="#666666">[BASE TABLE]</text>
<polygon fill="none" stroke="#000000" points="1361.5,-565.5 1361.5,-595.5 1654.5,-595.5 1654.5,-565.5 1361.5,-565.5"/>
<text text-anchor="start" x="1368.5" y="-576.9" font-family="Arial" font-size="14.00" fill="#000000">id    </text>
<text text-anchor="start" x="1413.594" y="-576.9" font-family="Arial" font-size="14.00" fill="#666666">[bigint]</text>
<polygon fill="none" stroke="#000000" points="1361.5,-535.5 1361.5,-565.5 1654.5,-565.5 1654.5,-535.5 1361.5,-535.5"/>
<text text-anchor="start" x="1368.5" y="-546.9" font-family="Arial" font-size="14.00" fill="#000000">user_id    </text>
<text text-anchor="start" x="1448.6024" y="-546.9" font-family="Arial" font-size="14.00" fill="#666666">[int]</text>
<polygon fill="none" stroke="#000000" points="1361.5,-505.5 1361.5,-535.5 1654.5,-535.5 1654.5,-505.5 1361.5,-505.5"/>
<text text-anchor="start" x="1368.5" y="-516.9" font-family="Arial" font-size="14.00" fill="#000000">title    </text>
<text text-anchor="start" x="1424.4818" y="-516.9" font-family="Arial" font-size="14.00" fill="#666666">[varchar(255)]</text>
<polygon fill="none" stroke="#000000" points="1361.5,-475.5 1361.5,-505.5 1654.5,-505.5 1654.5,-475.5 1361.5,-475.5"/>
<text text-anchor="start" x="1368.5" y="-486.9" font-family="Arial" font-size="14.00" fill="#000000">body    </text>
<text text-anchor="start" x="1433.0526" y="-486.9" font-family="Arial" font-size="14.00" fill="#666666">[text]</text>
<polygon fill="none" stroke="#000000" points="1361.5,-445.5 1361.5,-475.5 1654.5,-475.5 1654.5,-445.5 1361.5,-445.5"/>
<text text-anchor="start" x="1368.0399" y="-456.9" font-family="Arial" font-size="14.00" fill="#000000">post_type    </text>
<text text-anchor="start" x="1462.9389" y="-456.9" font-family="Arial" font-size="14.00" fill="#666666">[enum(&#39;public&#39;,&#39;private&#39;,&#39;draft&#39;)]</text>
<polygon fill="none" stroke="#000000" points="1361.5,-415.5 1361.5,-445.5 1654.5,-445.5 1654.5,-415.5 1361.5,-415.5"/>
<text text-anchor="start" x="1368.5" y="-426.9" font-family="Arial" font-size="14.00" fill="#000000">created    </text>
<text text-anchor="start" x="1449.3864" y="-426.9" font-family="Arial" font-size="14.00" fill="#666666">[datetime]</text>
<polygon fill="none" stroke="#000000" points="1361.5,-385.5 1361.5,-415.5 1654.5,-415.5 1654.5,-385.5 1361.5,-385.5"/>
<text text-anchor="start" x="1368.5" y="-396.9" font-family="Arial" font-size="14.00" fill="#000000">updated    </text>
<text text-anchor="start" x="1453.291" y="-396.9" font-family="Arial" font-size="14.00" fill="#666666">[datetime]</text>
</g>
<!-- post&#45;&gt;user -->
<g id="edge5" class="edge">
<title>post:user_id&#45;&gt;user:id</title>
<path fill="none" stroke="#000000" stroke-dasharray="5,2" d="M1351.2484,-549.8821C1274.4036,-539.8484 1370.6497,-410.1062 1308.5,-343 1246.1618,-275.6903 1009.2423,-210.5 917.5,-210.5"/>
<polygon fill="#000000" stroke="#000000" points="1351.5181,-549.8982 1361.2292,-554.9918 1356.5091,-550.1991 1361.5,-550.5 1361.5,-550.5 1361.5,-550.5 1356.5091,-550.1991 1361.7708,-546.0082 1351.5181,-549.8982 1351.5181,-549.8982"/>
<text text-anchor="start" x="1275.768" y="-560.5" font-family="Arial" font-size="10.00" fill="#000000">Detected Relation</text>
</g>
</g>
</svg>
