<?xml version="1.0" encoding="UTF-8" standalone="no"?>
<!DOCTYPE svg PUBLIC "-//W3C//DTD SVG 1.1//EN"
 "http://www.w3.org/Graphics/SVG/1.1/DTD/svg11.dtd">
<!-- Generated by graphviz version 2.40.1 (20161225.0304)
 -->
<!-- Title: user_option Pages: 1 -->
<svg width="524pt" height="592pt"
 viewBox="0.00 0.00 523.50 592.00" xmlns="http://www.w3.org/2000/svg" xmlns:xlink="http://www.w3.org/1999/xlink">
<g id="graph0" class="graph" transform="scale(1 1) rotate(0) translate(4 588)">
<title>user_option</title>
<polygon fill="#ffffff" stroke="transparent" points="-4,4 -4,-588 519.5,-588 519.5,4 -4,4"/>
<!-- user_option -->
<g id="node1" class="node">
<title>user_option</title>
<polygon fill="#efefef" stroke="transparent" points="235,-502.5 235,-537.5 470,-537.5 470,-502.5 235,-502.5"/>
<polygon fill="none" stroke="#000000" points="235,-502.5 235,-537.5 470,-537.5 470,-502.5 235,-502.5"/>
<text text-anchor="start" x="241.7" y="-515.3" font-family="Arial Bold" font-size="18.00" fill="#000000">user_option</text>
<text text-anchor="start" x="335.732" y="-515.3" font-family="Arial" font-size="14.00" fill="#000000">    </text>
<text text-anchor="start" x="369.9368" y="-515.3" font-family="Arial" font-size="14.00" fill="#666666">[BASE TABLE]</text>
<polygon fill="none" stroke="#000000" points="235,-472.5 235,-502.5 470,-502.5 470,-472.5 235,-472.5"/>
<text text-anchor="start" x="242" y="-483.9" font-family="Arial" font-size="14.00" fill="#000000">user_id </text>
<text text-anchor="start" x="291.7882" y="-483.9" font-family="Arial" font-size="14.00" fill="#666666">[int]</text>
<polygon fill="none" stroke="#000000" points="235,-442.5 235,-472.5 470,-472.5 470,-442.5 235,-442.5"/>
<text text-anchor="start" x="242" y="-453.9" font-family="Arial" font-size="14.00" fill="#000000">show_email </text>
<text text-anchor="start" x="319.784" y="-453.9" font-family="Arial" font-size="14.00" fill="#666666">[tinyint(1)]</text>
<polygon fill="none" stroke="#000000" points="235,-412.5 235,-442.5 470,-442.5 470,-412.5 235,-412.5"/>
<text text-anchor="start" x="242" y="-423.9" font-family="Arial" font-size="14.00" fill="#000000">created </text>
<text text-anchor="start" x="292.5722" y="-423.9" font-family="Arial" font-size="14.00" fill="#666666">[timestamp]</text>
<polygon fill="none" stroke="#000000" points="235,-382.5 235,-412.5 470,-412.5 470,-382.5 235,-382.5"/>
<text text-anchor="start" x="242" y="-393.9" font-family="Arial" font-size="14.00" fill="#000000">updated </text>
<text text-anchor="start" x="296.4768" y="-393.9" font-family="Arial" font-size="14.00" fill="#666666">[timestamp]</text>
<polygon fill="none" stroke="#000000" stroke-width="3" points="233,-381.5 233,-539.5 471,-539.5 471,-381.5 233,-381.5"/>
</g>
<!-- user -->
<g id="node2" class="node">
<title>user</title>
<polygon fill="#efefef" stroke="transparent" points="258,-222.5 258,-257.5 447,-257.5 447,-222.5 258,-222.5"/>
<polygon fill="none" stroke="#000000" points="258,-222.5 258,-257.5 447,-257.5 447,-222.5 258,-222.5"/>
<text text-anchor="start" x="271.2137" y="-235.3" font-family="Arial Bold" font-size="18.00" fill="#000000">user</text>
<text text-anchor="start" x="306.2183" y="-235.3" font-family="Arial" font-size="14.00" fill="#000000">    </text>
<text text-anchor="start" x="340.4231" y="-235.3" font-family="Arial" font-size="14.00" fill="#666666">[BASE TABLE]</text>
<polygon fill="none" stroke="#000000" points="258,-192.5 258,-222.5 447,-222.5 447,-192.5 258,-192.5"/>
<text text-anchor="start" x="265" y="-203.9" font-family="Arial" font-size="14.00" fill="#000000">id    </text>
<text text-anchor="start" x="310.094" y="-203.9" font-family="Arial" font-size="14.00" fill="#666666">[int]</text>
<polygon fill="none" stroke="#000000" points="258,-162.5 258,-192.5 447,-192.5 447,-162.5 258,-162.5"/>
<text text-anchor="start" x="264.6122" y="-173.9" font-family="Arial" font-size="14.00" fill="#000000">username    </text>
<text text-anchor="start" x="361.0512" y="-173.9" font-family="Arial" font-size="14.00" fill="#666666">[varchar(50)]</text>
<polygon fill="none" stroke="#000000" points="258,-132.5 258,-162.5 447,-162.5 447,-132.5 258,-132.5"/>
<text text-anchor="start" x="265" y="-143.9" font-family="Arial" font-size="14.00" fill="#000000">password    </text>
<text text-anchor="start" x="359.1024" y="-143.9" font-family="Arial" font-size="14.00" fill="#666666">[varchar(50)]</text>
<polygon fill="none" stroke="#000000" points="258,-102.5 258,-132.5 447,-132.5 447,-102.5 258,-102.5"/>
<text text-anchor="start" x="265" y="-113.9" font-family="Arial" font-size="14.00" fill="#000000">email    </text>
<text text-anchor="start" x="332.6438" y="-113.9" font-family="Arial" font-size="14.00" fill="#666666">[varchar(355)]</text>
<polygon fill="none" stroke="#000000" points="258,-72.5 258,-102.5 447,-102.5 447,-72.5 258,-72.5"/>
<text text-anchor="start" x="265" y="-83.9" font-family="Arial" font-size="14.00" fill="#000000">created    </text>
<text text-anchor="start" x="345.8864" y="-83.9" font-family="Arial" font-size="14.00" fill="#666666">[timestamp]</text>
<polygon fill="none" stroke="#000000" points="258,-42.5 258,-72.5 447,-72.5 447,-42.5 258,-42.5"/>
<text text-anchor="start" x="265" y="-53.9" font-family="Arial" font-size="14.00" fill="#000000">updated    </text>
<text text-anchor="start" x="349.791" y="-53.9" font-family="Arial" font-size="14.00" fill="#666666">[timestamp]</text>
</g>
<!-- user_option&#45;&gt;user -->
<g id="edge1" class="edge">
<title>user_option:user_id&#45;&gt;user:id</title>
<path fill="none" stroke="#000000" d="M225.2054,-484.9069C175.3002,-456.6795 199.1044,-207.5 258,-207.5"/>
<polygon fill="#000000" stroke="#000000" points="225.333,-484.9406 233.8483,-491.8501 230.1665,-486.2203 235,-487.5 235,-487.5 235,-487.5 230.1665,-486.2203 236.1517,-483.1499 225.333,-484.9406 225.333,-484.9406"/>
<text text-anchor="start" x="7.445" y="-497.5" font-family="Arial" font-size="10.00" fill="#000000">FOREIGN KEY (user_id) REFERENCES user (id)</text>
</g>
</g>
</svg>
