<?xml version="1.0" encoding="UTF-8" standalone="no"?>
<!DOCTYPE svg PUBLIC "-//W3C//DTD SVG 1.1//EN"
 "http://www.w3.org/Graphics/SVG/1.1/DTD/svg11.dtd">
<!-- Generated by graphviz version 2.40.1 (20161225.0304)
 -->
<!-- Title: CUSTOMER Pages: 1 -->
<svg width="410pt" height="1079pt"
 viewBox="0.00 0.00 410.00 1079.00" xmlns="http://www.w3.org/2000/svg" xmlns:xlink="http://www.w3.org/1999/xlink">
<g id="graph0" class="graph" transform="scale(1 1) rotate(0) translate(4 1075)">
<title>CUSTOMER</title>
<polygon fill="#ffffff" stroke="transparent" points="-4,4 -4,-1075 406,-1075 406,4 -4,4"/>
<!-- CUSTOMER -->
<g id="node1" class="node">
<title>CUSTOMER</title>
<polygon fill="#efefef" stroke="transparent" points="97,-562.5 97,-597.5 311,-597.5 311,-562.5 97,-562.5"/>
<polygon fill="none" stroke="#000000" points="97,-562.5 97,-597.5 311,-597.5 311,-562.5 97,-562.5"/>
<text text-anchor="start" x="103.8823" y="-575.3" font-family="Arial Bold" font-size="18.00" fill="#000000">CUSTOMER</text>
<text text-anchor="start" x="206.8639" y="-575.3" font-family="Arial" font-size="14.00" fill="#000000"> </text>
<text text-anchor="start" x="210.7545" y="-575.3" font-family="Arial" font-size="14.00" fill="#666666">[BASE TABLE]</text>
<polygon fill="none" stroke="#000000" points="97,-532.5 97,-562.5 311,-562.5 311,-532.5 97,-532.5"/>
<text text-anchor="start" x="104" y="-543.9" font-family="Arial" font-size="14.00" fill="#000000">C_CUSTKEY </text>
<text text-anchor="start" x="191.892" y="-543.9" font-family="Arial" font-size="14.00" fill="#666666">[NUMBER]</text>
<polygon fill="none" stroke="#000000" points="97,-502.5 97,-532.5 311,-532.5 311,-502.5 97,-502.5"/>
<text text-anchor="start" x="104" y="-513.9" font-family="Arial" font-size="14.00" fill="#000000">C_NAME </text>
<text text-anchor="start" x="166.2202" y="-513.9" font-family="Arial" font-size="14.00" fill="#666666">[TEXT]</text>
<polygon fill="none" stroke="#000000" points="97,-472.5 97,-502.5 311,-502.5 311,-472.5 97,-472.5"/>
<text text-anchor="start" x="104" y="-483.9" font-family="Arial" font-size="14.00" fill="#000000">C_ADDRESS </text>
<text text-anchor="start" x="193.446" y="-483.9" font-family="Arial" font-size="14.00" fill="#666666">[TEXT]</text>
<polygon fill="none" stroke="#000000" points="97,-442.5 97,-472.5 311,-472.5 311,-442.5 97,-442.5"/>
<text text-anchor="start" x="104" y="-453.9" font-family="Arial" font-size="14.00" fill="#000000">C_NATIONKEY </text>
<text text-anchor="start" x="206.6732" y="-453.9" font-family="Arial" font-size="14.00" fill="#666666">[NUMBER]</text>
<polygon fill="none" stroke="#000000" points="97,-412.5 97,-442.5 311,-442.5 311,-412.5 97,-412.5"/>
<text text-anchor="start" x="104" y="-423.9" font-family="Arial" font-size="14.00" fill="#000000">C_PHONE </text>
<text text-anchor="start" x="175.5568" y="-423.9" font-family="Arial" font-size="14.00" fill="#666666">[TEXT]</text>
<polygon fill="none" stroke="#000000" points="97,-382.5 97,-412.5 311,-412.5 311,-382.5 97,-382.5"/>
<text text-anchor="start" x="104" y="-393.9" font-family="Arial" font-size="14.00" fill="#000000">C_ACCTBAL </text>
<text text-anchor="start" x="190.338" y="-393.9" font-family="Arial" font-size="14.00" fill="#666666">[NUMBER]</text>
<polygon fill="none" stroke="#000000" points="97,-352.5 97,-382.5 311,-382.5 311,-352.5 97,-352.5"/>
<text text-anchor="start" x="104" y="-363.9" font-family="Arial" font-size="14.00" fill="#000000">C_MKTSEGMENT </text>
<text text-anchor="start" x="224.5498" y="-363.9" font-family="Arial" font-size="14.00" fill="#666666">[TEXT]</text>
<polygon fill="none" stroke="#000000" points="97,-322.5 97,-352.5 311,-352.5 311,-322.5 97,-322.5"/>
<text text-anchor="start" x="104" y="-333.9" font-family="Arial" font-size="14.00" fill="#000000">C_COMMENT </text>
<text text-anchor="start" x="198.094" y="-333.9" font-family="Arial" font-size="14.00" fill="#666666">[TEXT]</text>
<polygon fill="none" stroke="#000000" stroke-width="3" points="95.5,-321.5 95.5,-599.5 312.5,-599.5 312.5,-321.5 95.5,-321.5"/>
</g>
<!-- NATION -->
<g id="node3" class="node">
<title>NATION</title>
<polygon fill="#efefef" stroke="transparent" points="110,-162.5 110,-197.5 297,-197.5 297,-162.5 110,-162.5"/>
<polygon fill="none" stroke="#000000" points="110,-162.5 110,-197.5 297,-197.5 297,-162.5 110,-162.5"/>
<text text-anchor="start" x="120.8765" y="-175.3" font-family="Arial Bold" font-size="18.00" fill="#000000">NATION</text>
<text text-anchor="start" x="188.8697" y="-175.3" font-family="Arial" font-size="14.00" fill="#000000"> </text>
<text text-anchor="start" x="192.7603" y="-175.3" font-family="Arial" font-size="14.00" fill="#666666">[BASE TABLE]</text>
<polygon fill="none" stroke="#000000" points="110,-132.5 110,-162.5 297,-162.5 297,-132.5 110,-132.5"/>
<text text-anchor="start" x="117" y="-143.9" font-family="Arial" font-size="14.00" fill="#000000">N_NATIONKEY </text>
<text text-anchor="start" x="219.6732" y="-143.9" font-family="Arial" font-size="14.00" fill="#666666">[NUMBER]</text>
<polygon fill="none" stroke="#000000" points="110,-102.5 110,-132.5 297,-132.5 297,-102.5 110,-102.5"/>
<text text-anchor="start" x="117" y="-113.9" font-family="Arial" font-size="14.00" fill="#000000">N_NAME </text>
<text text-anchor="start" x="179.2202" y="-113.9" font-family="Arial" font-size="14.00" fill="#666666">[TEXT]</text>
<polygon fill="none" stroke="#000000" points="110,-72.5 110,-102.5 297,-102.5 297,-72.5 110,-72.5"/>
<text text-anchor="start" x="116.777" y="-83.9" font-family="Arial" font-size="14.00" fill="#000000">N_REGIONKEY </text>
<text text-anchor="start" x="221.7882" y="-83.9" font-family="Arial" font-size="14.00" fill="#666666">[NUMBER]</text>
<polygon fill="none" stroke="#000000" points="110,-42.5 110,-72.5 297,-72.5 297,-42.5 110,-42.5"/>
<text text-anchor="start" x="117" y="-53.9" font-family="Arial" font-size="14.00" fill="#000000">N_COMMENT </text>
<text text-anchor="start" x="211.094" y="-53.9" font-family="Arial" font-size="14.00" fill="#666666">[TEXT]</text>
</g>
<!-- CUSTOMER&#45;&gt;NATION -->
<g id="edge2" class="edge">
<title>CUSTOMER:C_NATIONKEY&#45;&gt;NATION:N_NATIONKEY</title>
<path fill="none" stroke="#000000" stroke-dasharray="5,2" d="M86.8408,-456.7958C19.408,-446.9285 47.8551,-335.7807 97,-277 154.9317,-207.7096 239.0683,-310.2904 297,-241 323.6547,-209.1191 338.5556,-147.5 297,-147.5"/>
<polygon fill="#000000" stroke="#000000" points="87.0239,-456.8084 96.6888,-461.9892 92.012,-457.1542 97,-457.5 97,-457.5 97,-457.5 92.012,-457.1542 97.3112,-453.0108 87.0239,-456.8084 87.0239,-456.8084"/>
<text text-anchor="start" x="7.3245" y="-467.5" font-family="Arial" font-size="10.00" fill="#000000">Additional Relation</text>
</g>
<!-- ORDERS -->
<g id="node2" class="node">
<title>ORDERS</title>
<polygon fill="#efefef" stroke="transparent" points="102,-992.5 102,-1027.5 305,-1027.5 305,-992.5 102,-992.5"/>
<polygon fill="none" stroke="#000000" points="102,-992.5 102,-1027.5 305,-1027.5 305,-992.5 102,-992.5"/>
<text text-anchor="start" x="116.3765" y="-1005.3" font-family="Arial Bold" font-size="18.00" fill="#000000">ORDERS</text>
<text text-anchor="start" x="193.3697" y="-1005.3" font-family="Arial" font-size="14.00" fill="#000000"> </text>
<text text-anchor="start" x="197.2603" y="-1005.3" font-family="Arial" font-size="14.00" fill="#666666">[BASE TABLE]</text>
<polygon fill="none" stroke="#000000" points="102,-962.5 102,-992.5 305,-992.5 305,-962.5 102,-962.5"/>
<text text-anchor="start" x="109" y="-973.9" font-family="Arial" font-size="14.00" fill="#000000">O_ORDERKEY </text>
<text text-anchor="start" x="210.1206" y="-973.9" font-family="Arial" font-size="14.00" fill="#666666">[NUMBER]</text>
<polygon fill="none" stroke="#000000" points="102,-932.5 102,-962.5 305,-962.5 305,-932.5 102,-932.5"/>
<text text-anchor="start" x="109" y="-943.9" font-family="Arial" font-size="14.00" fill="#000000">O_CUSTKEY </text>
<text text-anchor="start" x="197.676" y="-943.9" font-family="Arial" font-size="14.00" fill="#666666">[NUMBER]</text>
<polygon fill="none" stroke="#000000" points="102,-902.5 102,-932.5 305,-932.5 305,-902.5 102,-902.5"/>
<text text-anchor="start" x="109" y="-913.9" font-family="Arial" font-size="14.00" fill="#000000">O_ORDERSTATUS </text>
<text text-anchor="start" x="237.3324" y="-913.9" font-family="Arial" font-size="14.00" fill="#666666">[TEXT]</text>
<polygon fill="none" stroke="#000000" points="102,-872.5 102,-902.5 305,-902.5 305,-872.5 102,-872.5"/>
<text text-anchor="start" x="109" y="-883.9" font-family="Arial" font-size="14.00" fill="#000000">O_TOTALPRICE </text>
<text text-anchor="start" x="219.4558" y="-883.9" font-family="Arial" font-size="14.00" fill="#666666">[NUMBER]</text>
<polygon fill="none" stroke="#000000" points="102,-842.5 102,-872.5 305,-872.5 305,-842.5 102,-842.5"/>
<text text-anchor="start" x="109" y="-853.9" font-family="Arial" font-size="14.00" fill="#000000">O_ORDERDATE </text>
<text text-anchor="start" x="219.4432" y="-853.9" font-family="Arial" font-size="14.00" fill="#666666">[DATE]</text>
<polygon fill="none" stroke="#000000" points="102,-812.5 102,-842.5 305,-842.5 305,-812.5 102,-812.5"/>
<text text-anchor="start" x="109" y="-823.9" font-family="Arial" font-size="14.00" fill="#000000">O_ORDERPRIORITY </text>
<text text-anchor="start" x="248.2216" y="-823.9" font-family="Arial" font-size="14.00" fill="#666666">[TEXT]</text>
<polygon fill="none" stroke="#000000" points="102,-782.5 102,-812.5 305,-812.5 305,-782.5 102,-782.5"/>
<text text-anchor="start" x="109" y="-793.9" font-family="Arial" font-size="14.00" fill="#000000">O_CLERK </text>
<text text-anchor="start" x="178.2328" y="-793.9" font-family="Arial" font-size="14.00" fill="#666666">[TEXT]</text>
<polygon fill="none" stroke="#000000" points="102,-752.5 102,-782.5 305,-782.5 305,-752.5 102,-752.5"/>
<text text-anchor="start" x="108.6101" y="-763.9" font-family="Arial" font-size="14.00" fill="#000000">O_SHIPPRIORITY </text>
<text text-anchor="start" x="229.9551" y="-763.9" font-family="Arial" font-size="14.00" fill="#666666">[NUMBER]</text>
<polygon fill="none" stroke="#000000" points="102,-722.5 102,-752.5 305,-752.5 305,-722.5 102,-722.5"/>
<text text-anchor="start" x="109" y="-733.9" font-family="Arial" font-size="14.00" fill="#000000">O_COMMENT </text>
<text text-anchor="start" x="203.878" y="-733.9" font-family="Arial" font-size="14.00" fill="#666666">[TEXT]</text>
</g>
<!-- ORDERS&#45;&gt;CUSTOMER -->
<g id="edge1" class="edge">
<title>ORDERS:O_CUSTKEY&#45;&gt;CUSTOMER:C_CUSTKEY</title>
<path fill="none" stroke="#000000" stroke-dasharray="5,2" d="M315.0373,-947.052C421.3795,-937.2289 379.3207,-768.2889 305,-680 244.5812,-608.2258 157.4188,-715.7742 97,-644 69.3798,-611.1887 54.1111,-547.5 97,-547.5"/>
<polygon fill="#000000" stroke="#000000" points="314.9901,-947.054 304.7993,-943.0045 309.995,-947.277 305,-947.5 305,-947.5 305,-947.5 309.995,-947.277 305.2007,-951.9955 314.9901,-947.054 314.9901,-947.054"/>
<text text-anchor="start" x="312.3245" y="-957.5" font-family="Arial" font-size="10.00" fill="#000000">Additional Relation</text>
</g>
</g>
</svg>
