<?xml version="1.0" encoding="UTF-8" standalone="no"?>
<!DOCTYPE svg PUBLIC "-//W3C//DTD SVG 1.1//EN"
 "http://www.w3.org/Graphics/SVG/1.1/DTD/svg11.dtd">
<!-- Generated by graphviz version 2.40.1 (20161225.0304)
 -->
<!-- Title: LINEITEM Pages: 1 -->
<svg width="610pt" height="1042pt"
 viewBox="0.00 0.00 609.50 1042.00" xmlns="http://www.w3.org/2000/svg" xmlns:xlink="http://www.w3.org/1999/xlink">
<g id="graph0" class="graph" transform="scale(1 1) rotate(0) translate(4 1038)">
<title>LINEITEM</title>
<polygon fill="#ffffff" stroke="transparent" points="-4,4 -4,-1038 605.5,-1038 605.5,4 -4,4"/>
<!-- LINEITEM -->
<g id="node1" class="node">
<title>LINEITEM</title>
<polygon fill="#efefef" stroke="transparent" points="189.5,-952.5 189.5,-987.5 409.5,-987.5 409.5,-952.5 189.5,-952.5"/>
<polygon fill="none" stroke="#000000" points="189.5,-952.5 189.5,-987.5 409.5,-987.5 409.5,-952.5 189.5,-952.5"/>
<text text-anchor="start" x="209.3723" y="-965.3" font-family="Arial Bold" font-size="18.00" fill="#000000">LINEITEM</text>
<text text-anchor="start" x="292.3739" y="-965.3" font-family="Arial" font-size="14.00" fill="#000000"> </text>
<text text-anchor="start" x="296.2645" y="-965.3" font-family="Arial" font-size="14.00" fill="#666666">[BASE TABLE]</text>
<polygon fill="none" stroke="#000000" points="189.5,-922.5 189.5,-952.5 409.5,-952.5 409.5,-922.5 189.5,-922.5"/>
<text text-anchor="start" x="196.5" y="-933.9" font-family="Arial" font-size="14.00" fill="#000000">L_ORDERKEY </text>
<text text-anchor="start" x="294.5126" y="-933.9" font-family="Arial" font-size="14.00" fill="#666666">[NUMBER]</text>
<polygon fill="none" stroke="#000000" points="189.5,-892.5 189.5,-922.5 409.5,-922.5 409.5,-892.5 189.5,-892.5"/>
<text text-anchor="start" x="196.5" y="-903.9" font-family="Arial" font-size="14.00" fill="#000000">L_PARTKEY </text>
<text text-anchor="start" x="281.298" y="-903.9" font-family="Arial" font-size="14.00" fill="#666666">[NUMBER]</text>
<polygon fill="none" stroke="#000000" points="189.5,-862.5 189.5,-892.5 409.5,-892.5 409.5,-862.5 189.5,-862.5"/>
<text text-anchor="start" x="196.5" y="-873.9" font-family="Arial" font-size="14.00" fill="#000000">L_SUPPKEY </text>
<text text-anchor="start" x="282.082" y="-873.9" font-family="Arial" font-size="14.00" fill="#666666">[NUMBER]</text>
<polygon fill="none" stroke="#000000" points="189.5,-832.5 189.5,-862.5 409.5,-862.5 409.5,-832.5 189.5,-832.5"/>
<text text-anchor="start" x="196.5" y="-843.9" font-family="Arial" font-size="14.00" fill="#000000">L_LINENUMBER </text>
<text text-anchor="start" x="307.7258" y="-843.9" font-family="Arial" font-size="14.00" fill="#666666">[NUMBER]</text>
<polygon fill="none" stroke="#000000" points="189.5,-802.5 189.5,-832.5 409.5,-832.5 409.5,-802.5 189.5,-802.5"/>
<text text-anchor="start" x="196.5" y="-813.9" font-family="Arial" font-size="14.00" fill="#000000">L_QUANTITY </text>
<text text-anchor="start" x="286.7286" y="-813.9" font-family="Arial" font-size="14.00" fill="#666666">[NUMBER]</text>
<polygon fill="none" stroke="#000000" points="189.5,-772.5 189.5,-802.5 409.5,-802.5 409.5,-772.5 189.5,-772.5"/>
<text text-anchor="start" x="196.0568" y="-783.9" font-family="Arial" font-size="14.00" fill="#000000">L_EXTENDEDPRICE </text>
<text text-anchor="start" x="334.5084" y="-783.9" font-family="Arial" font-size="14.00" fill="#666666">[NUMBER]</text>
<polygon fill="none" stroke="#000000" points="189.5,-742.5 189.5,-772.5 409.5,-772.5 409.5,-742.5 189.5,-742.5"/>
<text text-anchor="start" x="196.5" y="-753.9" font-family="Arial" font-size="14.00" fill="#000000">L_DISCOUNT </text>
<text text-anchor="start" x="289.0526" y="-753.9" font-family="Arial" font-size="14.00" fill="#666666">[NUMBER]</text>
<polygon fill="none" stroke="#000000" points="189.5,-712.5 189.5,-742.5 409.5,-742.5 409.5,-712.5 189.5,-712.5"/>
<text text-anchor="start" x="196.5" y="-723.9" font-family="Arial" font-size="14.00" fill="#000000">L_TAX </text>
<text text-anchor="start" x="243.1816" y="-723.9" font-family="Arial" font-size="14.00" fill="#666666">[NUMBER]</text>
<polygon fill="none" stroke="#000000" points="189.5,-682.5 189.5,-712.5 409.5,-712.5 409.5,-682.5 189.5,-682.5"/>
<text text-anchor="start" x="196.5" y="-693.9" font-family="Arial" font-size="14.00" fill="#000000">L_RETURNFLAG </text>
<text text-anchor="start" x="310.8338" y="-693.9" font-family="Arial" font-size="14.00" fill="#666666">[TEXT]</text>
<polygon fill="none" stroke="#000000" points="189.5,-652.5 189.5,-682.5 409.5,-682.5 409.5,-652.5 189.5,-652.5"/>
<text text-anchor="start" x="196.5" y="-663.9" font-family="Arial" font-size="14.00" fill="#000000">L_LINESTATUS </text>
<text text-anchor="start" x="302.2938" y="-663.9" font-family="Arial" font-size="14.00" fill="#666666">[TEXT]</text>
<polygon fill="none" stroke="#000000" points="189.5,-622.5 189.5,-652.5 409.5,-652.5 409.5,-622.5 189.5,-622.5"/>
<text text-anchor="start" x="196.5" y="-633.9" font-family="Arial" font-size="14.00" fill="#000000">L_SHIPDATE </text>
<text text-anchor="start" x="285.9586" y="-633.9" font-family="Arial" font-size="14.00" fill="#666666">[DATE]</text>
<polygon fill="none" stroke="#000000" points="189.5,-592.5 189.5,-622.5 409.5,-622.5 409.5,-592.5 189.5,-592.5"/>
<text text-anchor="start" x="196.5" y="-603.9" font-family="Arial" font-size="14.00" fill="#000000">L_COMMITDATE </text>
<text text-anchor="start" x="310.0498" y="-603.9" font-family="Arial" font-size="14.00" fill="#666666">[DATE]</text>
<polygon fill="none" stroke="#000000" points="189.5,-562.5 189.5,-592.5 409.5,-592.5 409.5,-562.5 189.5,-562.5"/>
<text text-anchor="start" x="196.5" y="-573.9" font-family="Arial" font-size="14.00" fill="#000000">L_RECEIPTDATE </text>
<text text-anchor="start" x="313.9544" y="-573.9" font-family="Arial" font-size="14.00" fill="#666666">[DATE]</text>
<polygon fill="none" stroke="#000000" points="189.5,-532.5 189.5,-562.5 409.5,-562.5 409.5,-532.5 189.5,-532.5"/>
<text text-anchor="start" x="196.5" y="-543.9" font-family="Arial" font-size="14.00" fill="#000000">L_SHIPINSTRUCT </text>
<text text-anchor="start" x="319.385" y="-543.9" font-family="Arial" font-size="14.00" fill="#666666">[TEXT]</text>
<polygon fill="none" stroke="#000000" points="189.5,-502.5 189.5,-532.5 409.5,-532.5 409.5,-502.5 189.5,-502.5"/>
<text text-anchor="start" x="196.5" y="-513.9" font-family="Arial" font-size="14.00" fill="#000000">L_SHIPMODE </text>
<text text-anchor="start" x="290.6206" y="-513.9" font-family="Arial" font-size="14.00" fill="#666666">[TEXT]</text>
<polygon fill="none" stroke="#000000" points="189.5,-472.5 189.5,-502.5 409.5,-502.5 409.5,-472.5 189.5,-472.5"/>
<text text-anchor="start" x="196.5" y="-483.9" font-family="Arial" font-size="14.00" fill="#000000">L_COMMENT </text>
<text text-anchor="start" x="288.27" y="-483.9" font-family="Arial" font-size="14.00" fill="#666666">[TEXT]</text>
<polygon fill="none" stroke="#000000" stroke-width="3" points="188,-471.5 188,-989.5 411,-989.5 411,-471.5 188,-471.5"/>
</g>
<!-- ORDERS -->
<g id="node2" class="node">
<title>ORDERS</title>
<polygon fill="#efefef" stroke="transparent" points="43.5,-312.5 43.5,-347.5 246.5,-347.5 246.5,-312.5 43.5,-312.5"/>
<polygon fill="none" stroke="#000000" points="43.5,-312.5 43.5,-347.5 246.5,-347.5 246.5,-312.5 43.5,-312.5"/>
<text text-anchor="start" x="57.8765" y="-325.3" font-family="Arial Bold" font-size="18.00" fill="#000000">ORDERS</text>
<text text-anchor="start" x="134.8697" y="-325.3" font-family="Arial" font-size="14.00" fill="#000000"> </text>
<text text-anchor="start" x="138.7603" y="-325.3" font-family="Arial" font-size="14.00" fill="#666666">[BASE TABLE]</text>
<polygon fill="none" stroke="#000000" points="43.5,-282.5 43.5,-312.5 246.5,-312.5 246.5,-282.5 43.5,-282.5"/>
<text text-anchor="start" x="50.5" y="-293.9" font-family="Arial" font-size="14.00" fill="#000000">O_ORDERKEY </text>
<text text-anchor="start" x="151.6206" y="-293.9" font-family="Arial" font-size="14.00" fill="#666666">[NUMBER]</text>
<polygon fill="none" stroke="#000000" points="43.5,-252.5 43.5,-282.5 246.5,-282.5 246.5,-252.5 43.5,-252.5"/>
<text text-anchor="start" x="50.5" y="-263.9" font-family="Arial" font-size="14.00" fill="#000000">O_CUSTKEY </text>
<text text-anchor="start" x="139.176" y="-263.9" font-family="Arial" font-size="14.00" fill="#666666">[NUMBER]</text>
<polygon fill="none" stroke="#000000" points="43.5,-222.5 43.5,-252.5 246.5,-252.5 246.5,-222.5 43.5,-222.5"/>
<text text-anchor="start" x="50.5" y="-233.9" font-family="Arial" font-size="14.00" fill="#000000">O_ORDERSTATUS </text>
<text text-anchor="start" x="178.8324" y="-233.9" font-family="Arial" font-size="14.00" fill="#666666">[TEXT]</text>
<polygon fill="none" stroke="#000000" points="43.5,-192.5 43.5,-222.5 246.5,-222.5 246.5,-192.5 43.5,-192.5"/>
<text text-anchor="start" x="50.5" y="-203.9" font-family="Arial" font-size="14.00" fill="#000000">O_TOTALPRICE </text>
<text text-anchor="start" x="160.9558" y="-203.9" font-family="Arial" font-size="14.00" fill="#666666">[NUMBER]</text>
<polygon fill="none" stroke="#000000" points="43.5,-162.5 43.5,-192.5 246.5,-192.5 246.5,-162.5 43.5,-162.5"/>
<text text-anchor="start" x="50.5" y="-173.9" font-family="Arial" font-size="14.00" fill="#000000">O_ORDERDATE </text>
<text text-anchor="start" x="160.9432" y="-173.9" font-family="Arial" font-size="14.00" fill="#666666">[DATE]</text>
<polygon fill="none" stroke="#000000" points="43.5,-132.5 43.5,-162.5 246.5,-162.5 246.5,-132.5 43.5,-132.5"/>
<text text-anchor="start" x="50.5" y="-143.9" font-family="Arial" font-size="14.00" fill="#000000">O_ORDERPRIORITY </text>
<text text-anchor="start" x="189.7216" y="-143.9" font-family="Arial" font-size="14.00" fill="#666666">[TEXT]</text>
<polygon fill="none" stroke="#000000" points="43.5,-102.5 43.5,-132.5 246.5,-132.5 246.5,-102.5 43.5,-102.5"/>
<text text-anchor="start" x="50.5" y="-113.9" font-family="Arial" font-size="14.00" fill="#000000">O_CLERK </text>
<text text-anchor="start" x="119.7328" y="-113.9" font-family="Arial" font-size="14.00" fill="#666666">[TEXT]</text>
<polygon fill="none" stroke="#000000" points="43.5,-72.5 43.5,-102.5 246.5,-102.5 246.5,-72.5 43.5,-72.5"/>
<text text-anchor="start" x="50.1101" y="-83.9" font-family="Arial" font-size="14.00" fill="#000000">O_SHIPPRIORITY </text>
<text text-anchor="start" x="171.4551" y="-83.9" font-family="Arial" font-size="14.00" fill="#666666">[NUMBER]</text>
<polygon fill="none" stroke="#000000" points="43.5,-42.5 43.5,-72.5 246.5,-72.5 246.5,-42.5 43.5,-42.5"/>
<text text-anchor="start" x="50.5" y="-53.9" font-family="Arial" font-size="14.00" fill="#000000">O_COMMENT </text>
<text text-anchor="start" x="145.378" y="-53.9" font-family="Arial" font-size="14.00" fill="#666666">[TEXT]</text>
</g>
<!-- LINEITEM&#45;&gt;ORDERS -->
<g id="edge1" class="edge">
<title>LINEITEM:L_ORDERKEY&#45;&gt;ORDERS:O_ORDERKEY</title>
<path fill="none" stroke="#000000" stroke-dasharray="5,2" d="M179.4323,-937.2872C-33.8375,-928.0868 81.6375,-622.6978 189.5,-427 203.9632,-400.759 232.0368,-417.241 246.5,-391 266.559,-354.6063 288.0556,-297.5 246.5,-297.5"/>
<polygon fill="#000000" stroke="#000000" points="179.5022,-937.2885 189.4048,-941.999 184.5011,-937.3943 189.5,-937.5 189.5,-937.5 189.5,-937.5 184.5011,-937.3943 189.5952,-933.001 179.5022,-937.2885 179.5022,-937.2885"/>
<text text-anchor="start" x="99.8245" y="-947.5" font-family="Arial" font-size="10.00" fill="#000000">Additional Relation</text>
</g>
<!-- PARTSUPP -->
<g id="node3" class="node">
<title>PARTSUPP</title>
<polygon fill="#efefef" stroke="transparent" points="350.5,-252.5 350.5,-287.5 558.5,-287.5 558.5,-252.5 350.5,-252.5"/>
<polygon fill="none" stroke="#000000" points="350.5,-252.5 350.5,-287.5 558.5,-287.5 558.5,-252.5 350.5,-252.5"/>
<text text-anchor="start" x="357.3703" y="-265.3" font-family="Arial Bold" font-size="18.00" fill="#000000">PARTSUPP</text>
<text text-anchor="start" x="454.3759" y="-265.3" font-family="Arial" font-size="14.00" fill="#000000"> </text>
<text text-anchor="start" x="458.2665" y="-265.3" font-family="Arial" font-size="14.00" fill="#666666">[BASE TABLE]</text>
<polygon fill="none" stroke="#000000" points="350.5,-222.5 350.5,-252.5 558.5,-252.5 558.5,-222.5 350.5,-222.5"/>
<text text-anchor="start" x="357.5" y="-233.9" font-family="Arial" font-size="14.00" fill="#000000">PS_PARTKEY </text>
<text text-anchor="start" x="453.1886" y="-233.9" font-family="Arial" font-size="14.00" fill="#666666">[NUMBER]</text>
<polygon fill="none" stroke="#000000" points="350.5,-192.5 350.5,-222.5 558.5,-222.5 558.5,-192.5 350.5,-192.5"/>
<text text-anchor="start" x="357.5" y="-203.9" font-family="Arial" font-size="14.00" fill="#000000">PS_SUPPKEY </text>
<text text-anchor="start" x="453.9726" y="-203.9" font-family="Arial" font-size="14.00" fill="#666666">[NUMBER]</text>
<polygon fill="none" stroke="#000000" points="350.5,-162.5 350.5,-192.5 558.5,-192.5 558.5,-162.5 350.5,-162.5"/>
<text text-anchor="start" x="357.5" y="-173.9" font-family="Arial" font-size="14.00" fill="#000000">PS_AVAILQTY </text>
<text text-anchor="start" x="456.3092" y="-173.9" font-family="Arial" font-size="14.00" fill="#666666">[NUMBER]</text>
<polygon fill="none" stroke="#000000" points="350.5,-132.5 350.5,-162.5 558.5,-162.5 558.5,-132.5 350.5,-132.5"/>
<text text-anchor="start" x="357.5" y="-143.9" font-family="Arial" font-size="14.00" fill="#000000">PS_SUPPLYCOST </text>
<text text-anchor="start" x="481.9684" y="-143.9" font-family="Arial" font-size="14.00" fill="#666666">[NUMBER]</text>
<polygon fill="none" stroke="#000000" points="350.5,-102.5 350.5,-132.5 558.5,-132.5 558.5,-102.5 350.5,-102.5"/>
<text text-anchor="start" x="357.5" y="-113.9" font-family="Arial" font-size="14.00" fill="#000000">PS_COMMENT </text>
<text text-anchor="start" x="460.1606" y="-113.9" font-family="Arial" font-size="14.00" fill="#666666">[TEXT]</text>
</g>
<!-- LINEITEM&#45;&gt;PARTSUPP -->
<g id="edge2" class="edge">
<title>LINEITEM:L_PARTKEY&#45;&gt;PARTSUPP:PS_PARTKEY</title>
<path fill="none" stroke="#000000" stroke-dasharray="5,2" d="M419.5378,-907.2872C618.0711,-898.6557 466.6645,-629.1888 409.5,-427 395.8749,-378.8086 364.1251,-379.1914 350.5,-331 339.1942,-291.0119 308.9444,-237.5 350.5,-237.5"/>
<polygon fill="#000000" stroke="#000000" points="419.4978,-907.288 409.4046,-903.001 414.4989,-907.394 409.5,-907.5 409.5,-907.5 409.5,-907.5 414.4989,-907.394 409.5954,-911.999 419.4978,-907.288 419.4978,-907.288"/>
<text text-anchor="start" x="416.8245" y="-917.5" font-family="Arial" font-size="10.00" fill="#000000">Additional Relation</text>
</g>
</g>
</svg>
