<?xml version="1.0" encoding="UTF-8" standalone="no"?>
<!DOCTYPE svg PUBLIC "-//W3C//DTD SVG 1.1//EN"
 "http://www.w3.org/Graphics/SVG/1.1/DTD/svg11.dtd">
<!-- Generated by graphviz version 2.40.1 (20161225.0304)
 -->
<!-- Title: PARTSUPP Pages: 1 -->
<svg width="594pt" height="1349pt"
 viewBox="0.00 0.00 593.50 1349.00" xmlns="http://www.w3.org/2000/svg" xmlns:xlink="http://www.w3.org/1999/xlink">
<g id="graph0" class="graph" transform="scale(1 1) rotate(0) translate(4 1345)">
<title>PARTSUPP</title>
<polygon fill="#ffffff" stroke="transparent" points="-4,4 -4,-1345 589.5,-1345 589.5,4 -4,4"/>
<!-- PARTSUPP -->
<g id="node1" class="node">
<title>PARTSUPP</title>
<polygon fill="#efefef" stroke="transparent" points="187.5,-622.5 187.5,-657.5 395.5,-657.5 395.5,-622.5 187.5,-622.5"/>
<polygon fill="none" stroke="#000000" points="187.5,-622.5 187.5,-657.5 395.5,-657.5 395.5,-622.5 187.5,-622.5"/>
<text text-anchor="start" x="194.3703" y="-635.3" font-family="Arial Bold" font-size="18.00" fill="#000000">PARTSUPP</text>
<text text-anchor="start" x="291.3759" y="-635.3" font-family="Arial" font-size="14.00" fill="#000000"> </text>
<text text-anchor="start" x="295.2665" y="-635.3" font-family="Arial" font-size="14.00" fill="#666666">[BASE TABLE]</text>
<polygon fill="none" stroke="#000000" points="187.5,-592.5 187.5,-622.5 395.5,-622.5 395.5,-592.5 187.5,-592.5"/>
<text text-anchor="start" x="194.5" y="-603.9" font-family="Arial" font-size="14.00" fill="#000000">PS_PARTKEY </text>
<text text-anchor="start" x="290.1886" y="-603.9" font-family="Arial" font-size="14.00" fill="#666666">[NUMBER]</text>
<polygon fill="none" stroke="#000000" points="187.5,-562.5 187.5,-592.5 395.5,-592.5 395.5,-562.5 187.5,-562.5"/>
<text text-anchor="start" x="194.5" y="-573.9" font-family="Arial" font-size="14.00" fill="#000000">PS_SUPPKEY </text>
<text text-anchor="start" x="290.9726" y="-573.9" font-family="Arial" font-size="14.00" fill="#666666">[NUMBER]</text>
<polygon fill="none" stroke="#000000" points="187.5,-532.5 187.5,-562.5 395.5,-562.5 395.5,-532.5 187.5,-532.5"/>
<text text-anchor="start" x="194.5" y="-543.9" font-family="Arial" font-size="14.00" fill="#000000">PS_AVAILQTY </text>
<text text-anchor="start" x="293.3092" y="-543.9" font-family="Arial" font-size="14.00" fill="#666666">[NUMBER]</text>
<polygon fill="none" stroke="#000000" points="187.5,-502.5 187.5,-532.5 395.5,-532.5 395.5,-502.5 187.5,-502.5"/>
<text text-anchor="start" x="194.5" y="-513.9" font-family="Arial" font-size="14.00" fill="#000000">PS_SUPPLYCOST </text>
<text text-anchor="start" x="318.9684" y="-513.9" font-family="Arial" font-size="14.00" fill="#666666">[NUMBER]</text>
<polygon fill="none" stroke="#000000" points="187.5,-472.5 187.5,-502.5 395.5,-502.5 395.5,-472.5 187.5,-472.5"/>
<text text-anchor="start" x="194.5" y="-483.9" font-family="Arial" font-size="14.00" fill="#000000">PS_COMMENT </text>
<text text-anchor="start" x="297.1606" y="-483.9" font-family="Arial" font-size="14.00" fill="#666666">[TEXT]</text>
<polygon fill="none" stroke="#000000" stroke-width="3" points="186,-471.5 186,-659.5 397,-659.5 397,-471.5 186,-471.5"/>
</g>
<!-- PART -->
<g id="node2" class="node">
<title>PART</title>
<polygon fill="#efefef" stroke="transparent" points="43.5,-312.5 43.5,-347.5 238.5,-347.5 238.5,-312.5 43.5,-312.5"/>
<polygon fill="none" stroke="#000000" points="43.5,-312.5 43.5,-347.5 238.5,-347.5 238.5,-312.5 43.5,-312.5"/>
<text text-anchor="start" x="68.3737" y="-325.3" font-family="Arial Bold" font-size="18.00" fill="#000000">PART</text>
<text text-anchor="start" x="116.3725" y="-325.3" font-family="Arial" font-size="14.00" fill="#000000"> </text>
<text text-anchor="start" x="120.2631" y="-325.3" font-family="Arial" font-size="14.00" fill="#666666">[BASE TABLE]</text>
<polygon fill="none" stroke="#000000" points="43.5,-282.5 43.5,-312.5 238.5,-312.5 238.5,-282.5 43.5,-282.5"/>
<text text-anchor="start" x="50.5" y="-293.9" font-family="Arial" font-size="14.00" fill="#000000">P_PARTKEY </text>
<text text-anchor="start" x="136.852" y="-293.9" font-family="Arial" font-size="14.00" fill="#666666">[NUMBER]</text>
<polygon fill="none" stroke="#000000" points="43.5,-252.5 43.5,-282.5 238.5,-282.5 238.5,-252.5 43.5,-252.5"/>
<text text-anchor="start" x="50.5" y="-263.9" font-family="Arial" font-size="14.00" fill="#000000">P_NAME </text>
<text text-anchor="start" x="111.9502" y="-263.9" font-family="Arial" font-size="14.00" fill="#666666">[TEXT]</text>
<polygon fill="none" stroke="#000000" points="43.5,-222.5 43.5,-252.5 238.5,-252.5 238.5,-222.5 43.5,-222.5"/>
<text text-anchor="start" x="50.5" y="-233.9" font-family="Arial" font-size="14.00" fill="#000000">P_MFGR </text>
<text text-anchor="start" x="112.7202" y="-233.9" font-family="Arial" font-size="14.00" fill="#666666">[TEXT]</text>
<polygon fill="none" stroke="#000000" points="43.5,-192.5 43.5,-222.5 238.5,-222.5 238.5,-192.5 43.5,-192.5"/>
<text text-anchor="start" x="50.5" y="-203.9" font-family="Arial" font-size="14.00" fill="#000000">P_BRAND </text>
<text text-anchor="start" x="120.5028" y="-203.9" font-family="Arial" font-size="14.00" fill="#666666">[TEXT]</text>
<polygon fill="none" stroke="#000000" points="43.5,-162.5 43.5,-192.5 238.5,-192.5 238.5,-162.5 43.5,-162.5"/>
<text text-anchor="start" x="50.5" y="-173.9" font-family="Arial" font-size="14.00" fill="#000000">P_TYPE </text>
<text text-anchor="start" x="108.0722" y="-173.9" font-family="Arial" font-size="14.00" fill="#666666">[TEXT]</text>
<polygon fill="none" stroke="#000000" points="43.5,-132.5 43.5,-162.5 238.5,-162.5 238.5,-132.5 43.5,-132.5"/>
<text text-anchor="start" x="50.5" y="-143.9" font-family="Arial" font-size="14.00" fill="#000000">P_SIZE </text>
<text text-anchor="start" x="102.6262" y="-143.9" font-family="Arial" font-size="14.00" fill="#666666">[NUMBER]</text>
<polygon fill="none" stroke="#000000" points="43.5,-102.5 43.5,-132.5 238.5,-132.5 238.5,-102.5 43.5,-102.5"/>
<text text-anchor="start" x="50.5" y="-113.9" font-family="Arial" font-size="14.00" fill="#000000">P_CONTAINER </text>
<text text-anchor="start" x="153.9432" y="-113.9" font-family="Arial" font-size="14.00" fill="#666666">[TEXT]</text>
<polygon fill="none" stroke="#000000" points="43.5,-72.5 43.5,-102.5 238.5,-102.5 238.5,-72.5 43.5,-72.5"/>
<text text-anchor="start" x="50.3864" y="-83.9" font-family="Arial" font-size="14.00" fill="#000000">P_RETAILPRICE </text>
<text text-anchor="start" x="163.1788" y="-83.9" font-family="Arial" font-size="14.00" fill="#666666">[NUMBER]</text>
<polygon fill="none" stroke="#000000" points="43.5,-42.5 43.5,-72.5 238.5,-72.5 238.5,-42.5 43.5,-42.5"/>
<text text-anchor="start" x="50.5" y="-53.9" font-family="Arial" font-size="14.00" fill="#000000">P_COMMENT </text>
<text text-anchor="start" x="143.824" y="-53.9" font-family="Arial" font-size="14.00" fill="#666666">[TEXT]</text>
</g>
<!-- PARTSUPP&#45;&gt;PART -->
<g id="edge1" class="edge">
<title>PARTSUPP:PS_PARTKEY&#45;&gt;PART:P_PARTKEY</title>
<path fill="none" stroke="#000000" stroke-dasharray="5,2" d="M177.4249,-606.8518C111.1564,-597.7594 152.2506,-495.0285 187.5,-427 200.2644,-402.3657 225.7356,-415.6343 238.5,-391 257.6182,-354.1034 280.0556,-297.5 238.5,-297.5"/>
<polygon fill="#000000" stroke="#000000" points="177.5206,-606.8579 187.2111,-611.9907 182.5103,-607.1789 187.5,-607.5 187.5,-607.5 187.5,-607.5 182.5103,-607.1789 187.7889,-603.0093 177.5206,-606.8579 177.5206,-606.8579"/>
<text text-anchor="start" x="97.8245" y="-617.5" font-family="Arial" font-size="10.00" fill="#000000">Additional Relation</text>
</g>
<!-- SUPPLIER -->
<g id="node4" class="node">
<title>SUPPLIER</title>
<polygon fill="#efefef" stroke="transparent" points="342.5,-282.5 342.5,-317.5 542.5,-317.5 542.5,-282.5 342.5,-282.5"/>
<polygon fill="none" stroke="#000000" points="342.5,-282.5 342.5,-317.5 542.5,-317.5 542.5,-282.5 342.5,-282.5"/>
<text text-anchor="start" x="349.3663" y="-295.3" font-family="Arial Bold" font-size="18.00" fill="#000000">SUPPLIER</text>
<text text-anchor="start" x="438.3799" y="-295.3" font-family="Arial" font-size="14.00" fill="#000000"> </text>
<text text-anchor="start" x="442.2705" y="-295.3" font-family="Arial" font-size="14.00" fill="#666666">[BASE TABLE]</text>
<polygon fill="none" stroke="#000000" points="342.5,-252.5 342.5,-282.5 542.5,-282.5 542.5,-252.5 342.5,-252.5"/>
<text text-anchor="start" x="349.5" y="-263.9" font-family="Arial" font-size="14.00" fill="#000000">S_SUPPKEY </text>
<text text-anchor="start" x="436.636" y="-263.9" font-family="Arial" font-size="14.00" fill="#666666">[NUMBER]</text>
<polygon fill="none" stroke="#000000" points="342.5,-222.5 342.5,-252.5 542.5,-252.5 542.5,-222.5 342.5,-222.5"/>
<text text-anchor="start" x="349.5" y="-233.9" font-family="Arial" font-size="14.00" fill="#000000">S_NAME </text>
<text text-anchor="start" x="410.9502" y="-233.9" font-family="Arial" font-size="14.00" fill="#666666">[TEXT]</text>
<polygon fill="none" stroke="#000000" points="342.5,-192.5 342.5,-222.5 542.5,-222.5 542.5,-192.5 342.5,-192.5"/>
<text text-anchor="start" x="349.5" y="-203.9" font-family="Arial" font-size="14.00" fill="#000000">S_ADDRESS </text>
<text text-anchor="start" x="438.176" y="-203.9" font-family="Arial" font-size="14.00" fill="#666666">[TEXT]</text>
<polygon fill="none" stroke="#000000" points="342.5,-162.5 342.5,-192.5 542.5,-192.5 542.5,-162.5 342.5,-162.5"/>
<text text-anchor="start" x="349.5" y="-173.9" font-family="Arial" font-size="14.00" fill="#000000">S_NATIONKEY </text>
<text text-anchor="start" x="451.4032" y="-173.9" font-family="Arial" font-size="14.00" fill="#666666">[NUMBER]</text>
<polygon fill="none" stroke="#000000" points="342.5,-132.5 342.5,-162.5 542.5,-162.5 542.5,-132.5 342.5,-132.5"/>
<text text-anchor="start" x="349.5" y="-143.9" font-family="Arial" font-size="14.00" fill="#000000">S_PHONE </text>
<text text-anchor="start" x="420.2868" y="-143.9" font-family="Arial" font-size="14.00" fill="#666666">[TEXT]</text>
<polygon fill="none" stroke="#000000" points="342.5,-102.5 342.5,-132.5 542.5,-132.5 542.5,-102.5 342.5,-102.5"/>
<text text-anchor="start" x="349.5" y="-113.9" font-family="Arial" font-size="14.00" fill="#000000">S_ACCTBAL </text>
<text text-anchor="start" x="435.068" y="-113.9" font-family="Arial" font-size="14.00" fill="#666666">[NUMBER]</text>
<polygon fill="none" stroke="#000000" points="342.5,-72.5 342.5,-102.5 542.5,-102.5 542.5,-72.5 342.5,-72.5"/>
<text text-anchor="start" x="349.5" y="-83.9" font-family="Arial" font-size="14.00" fill="#000000">S_COMMENT </text>
<text text-anchor="start" x="442.824" y="-83.9" font-family="Arial" font-size="14.00" fill="#666666">[TEXT]</text>
</g>
<!-- PARTSUPP&#45;&gt;SUPPLIER -->
<g id="edge3" class="edge">
<title>PARTSUPP:PS_SUPPKEY&#45;&gt;SUPPLIER:S_SUPPKEY</title>
<path fill="none" stroke="#000000" stroke-dasharray="5,2" d="M405.4948,-576.7341C457.5682,-568.0131 416.4849,-486.6471 395.5,-427 383.0146,-391.5117 354.9854,-396.4883 342.5,-361 328.7087,-321.7997 300.9444,-267.5 342.5,-267.5"/>
<polygon fill="#000000" stroke="#000000" points="405.4708,-576.7358 395.1561,-573.0132 400.4854,-577.1179 395.5,-577.5 395.5,-577.5 395.5,-577.5 400.4854,-577.1179 395.8439,-581.9868 405.4708,-576.7358 405.4708,-576.7358"/>
<text text-anchor="start" x="402.8245" y="-587.5" font-family="Arial" font-size="10.00" fill="#000000">Additional Relation</text>
</g>
<!-- LINEITEM -->
<g id="node3" class="node">
<title>LINEITEM</title>
<polygon fill="#efefef" stroke="transparent" points="181.5,-1262.5 181.5,-1297.5 401.5,-1297.5 401.5,-1262.5 181.5,-1262.5"/>
<polygon fill="none" stroke="#000000" points="181.5,-1262.5 181.5,-1297.5 401.5,-1297.5 401.5,-1262.5 181.5,-1262.5"/>
<text text-anchor="start" x="201.3723" y="-1275.3" font-family="Arial Bold" font-size="18.00" fill="#000000">LINEITEM</text>
<text text-anchor="start" x="284.3739" y="-1275.3" font-family="Arial" font-size="14.00" fill="#000000"> </text>
<text text-anchor="start" x="288.2645" y="-1275.3" font-family="Arial" font-size="14.00" fill="#666666">[BASE TABLE]</text>
<polygon fill="none" stroke="#000000" points="181.5,-1232.5 181.5,-1262.5 401.5,-1262.5 401.5,-1232.5 181.5,-1232.5"/>
<text text-anchor="start" x="188.5" y="-1243.9" font-family="Arial" font-size="14.00" fill="#000000">L_ORDERKEY </text>
<text text-anchor="start" x="286.5126" y="-1243.9" font-family="Arial" font-size="14.00" fill="#666666">[NUMBER]</text>
<polygon fill="none" stroke="#000000" points="181.5,-1202.5 181.5,-1232.5 401.5,-1232.5 401.5,-1202.5 181.5,-1202.5"/>
<text text-anchor="start" x="188.5" y="-1213.9" font-family="Arial" font-size="14.00" fill="#000000">L_PARTKEY </text>
<text text-anchor="start" x="273.298" y="-1213.9" font-family="Arial" font-size="14.00" fill="#666666">[NUMBER]</text>
<polygon fill="none" stroke="#000000" points="181.5,-1172.5 181.5,-1202.5 401.5,-1202.5 401.5,-1172.5 181.5,-1172.5"/>
<text text-anchor="start" x="188.5" y="-1183.9" font-family="Arial" font-size="14.00" fill="#000000">L_SUPPKEY </text>
<text text-anchor="start" x="274.082" y="-1183.9" font-family="Arial" font-size="14.00" fill="#666666">[NUMBER]</text>
<polygon fill="none" stroke="#000000" points="181.5,-1142.5 181.5,-1172.5 401.5,-1172.5 401.5,-1142.5 181.5,-1142.5"/>
<text text-anchor="start" x="188.5" y="-1153.9" font-family="Arial" font-size="14.00" fill="#000000">L_LINENUMBER </text>
<text text-anchor="start" x="299.7258" y="-1153.9" font-family="Arial" font-size="14.00" fill="#666666">[NUMBER]</text>
<polygon fill="none" stroke="#000000" points="181.5,-1112.5 181.5,-1142.5 401.5,-1142.5 401.5,-1112.5 181.5,-1112.5"/>
<text text-anchor="start" x="188.5" y="-1123.9" font-family="Arial" font-size="14.00" fill="#000000">L_QUANTITY </text>
<text text-anchor="start" x="278.7286" y="-1123.9" font-family="Arial" font-size="14.00" fill="#666666">[NUMBER]</text>
<polygon fill="none" stroke="#000000" points="181.5,-1082.5 181.5,-1112.5 401.5,-1112.5 401.5,-1082.5 181.5,-1082.5"/>
<text text-anchor="start" x="188.0568" y="-1093.9" font-family="Arial" font-size="14.00" fill="#000000">L_EXTENDEDPRICE </text>
<text text-anchor="start" x="326.5084" y="-1093.9" font-family="Arial" font-size="14.00" fill="#666666">[NUMBER]</text>
<polygon fill="none" stroke="#000000" points="181.5,-1052.5 181.5,-1082.5 401.5,-1082.5 401.5,-1052.5 181.5,-1052.5"/>
<text text-anchor="start" x="188.5" y="-1063.9" font-family="Arial" font-size="14.00" fill="#000000">L_DISCOUNT </text>
<text text-anchor="start" x="281.0526" y="-1063.9" font-family="Arial" font-size="14.00" fill="#666666">[NUMBER]</text>
<polygon fill="none" stroke="#000000" points="181.5,-1022.5 181.5,-1052.5 401.5,-1052.5 401.5,-1022.5 181.5,-1022.5"/>
<text text-anchor="start" x="188.5" y="-1033.9" font-family="Arial" font-size="14.00" fill="#000000">L_TAX </text>
<text text-anchor="start" x="235.1816" y="-1033.9" font-family="Arial" font-size="14.00" fill="#666666">[NUMBER]</text>
<polygon fill="none" stroke="#000000" points="181.5,-992.5 181.5,-1022.5 401.5,-1022.5 401.5,-992.5 181.5,-992.5"/>
<text text-anchor="start" x="188.5" y="-1003.9" font-family="Arial" font-size="14.00" fill="#000000">L_RETURNFLAG </text>
<text text-anchor="start" x="302.8338" y="-1003.9" font-family="Arial" font-size="14.00" fill="#666666">[TEXT]</text>
<polygon fill="none" stroke="#000000" points="181.5,-962.5 181.5,-992.5 401.5,-992.5 401.5,-962.5 181.5,-962.5"/>
<text text-anchor="start" x="188.5" y="-973.9" font-family="Arial" font-size="14.00" fill="#000000">L_LINESTATUS </text>
<text text-anchor="start" x="294.2938" y="-973.9" font-family="Arial" font-size="14.00" fill="#666666">[TEXT]</text>
<polygon fill="none" stroke="#000000" points="181.5,-932.5 181.5,-962.5 401.5,-962.5 401.5,-932.5 181.5,-932.5"/>
<text text-anchor="start" x="188.5" y="-943.9" font-family="Arial" font-size="14.00" fill="#000000">L_SHIPDATE </text>
<text text-anchor="start" x="277.9586" y="-943.9" font-family="Arial" font-size="14.00" fill="#666666">[DATE]</text>
<polygon fill="none" stroke="#000000" points="181.5,-902.5 181.5,-932.5 401.5,-932.5 401.5,-902.5 181.5,-902.5"/>
<text text-anchor="start" x="188.5" y="-913.9" font-family="Arial" font-size="14.00" fill="#000000">L_COMMITDATE </text>
<text text-anchor="start" x="302.0498" y="-913.9" font-family="Arial" font-size="14.00" fill="#666666">[DATE]</text>
<polygon fill="none" stroke="#000000" points="181.5,-872.5 181.5,-902.5 401.5,-902.5 401.5,-872.5 181.5,-872.5"/>
<text text-anchor="start" x="188.5" y="-883.9" font-family="Arial" font-size="14.00" fill="#000000">L_RECEIPTDATE </text>
<text text-anchor="start" x="305.9544" y="-883.9" font-family="Arial" font-size="14.00" fill="#666666">[DATE]</text>
<polygon fill="none" stroke="#000000" points="181.5,-842.5 181.5,-872.5 401.5,-872.5 401.5,-842.5 181.5,-842.5"/>
<text text-anchor="start" x="188.5" y="-853.9" font-family="Arial" font-size="14.00" fill="#000000">L_SHIPINSTRUCT </text>
<text text-anchor="start" x="311.385" y="-853.9" font-family="Arial" font-size="14.00" fill="#666666">[TEXT]</text>
<polygon fill="none" stroke="#000000" points="181.5,-812.5 181.5,-842.5 401.5,-842.5 401.5,-812.5 181.5,-812.5"/>
<text text-anchor="start" x="188.5" y="-823.9" font-family="Arial" font-size="14.00" fill="#000000">L_SHIPMODE </text>
<text text-anchor="start" x="282.6206" y="-823.9" font-family="Arial" font-size="14.00" fill="#666666">[TEXT]</text>
<polygon fill="none" stroke="#000000" points="181.5,-782.5 181.5,-812.5 401.5,-812.5 401.5,-782.5 181.5,-782.5"/>
<text text-anchor="start" x="188.5" y="-793.9" font-family="Arial" font-size="14.00" fill="#000000">L_COMMENT </text>
<text text-anchor="start" x="280.27" y="-793.9" font-family="Arial" font-size="14.00" fill="#666666">[TEXT]</text>
</g>
<!-- LINEITEM&#45;&gt;PARTSUPP -->
<g id="edge2" class="edge">
<title>LINEITEM:L_PARTKEY&#45;&gt;PARTSUPP:PS_PARTKEY</title>
<path fill="none" stroke="#000000" stroke-dasharray="5,2" d="M411.5524,-1216.3402C536.6739,-1186.9167 527.6201,-607.5 395.5,-607.5"/>
<polygon fill="#000000" stroke="#000000" points="411.4341,-1216.3538 400.9842,-1213.0297 406.4671,-1216.9269 401.5,-1217.5 401.5,-1217.5 401.5,-1217.5 406.4671,-1216.9269 402.0158,-1221.9703 411.4341,-1216.3538 411.4341,-1216.3538"/>
<text text-anchor="start" x="408.8245" y="-1227.5" font-family="Arial" font-size="10.00" fill="#000000">Additional Relation</text>
</g>
</g>
</svg>
