<?xml version="1.0" encoding="UTF-8" standalone="no"?>
<!DOCTYPE svg PUBLIC "-//W3C//DTD SVG 1.1//EN"
 "http://www.w3.org/Graphics/SVG/1.1/DTD/svg11.dtd">
<!-- Generated by graphviz version 2.40.1 (20161225.0304)
 -->
<!-- Title: SUPPLIER Pages: 1 -->
<svg width="406pt" height="929pt"
 viewBox="0.00 0.00 406.00 929.00" xmlns="http://www.w3.org/2000/svg" xmlns:xlink="http://www.w3.org/1999/xlink">
<g id="graph0" class="graph" transform="scale(1 1) rotate(0) translate(4 925)">
<title>SUPPLIER</title>
<polygon fill="#ffffff" stroke="transparent" points="-4,4 -4,-925 402,-925 402,4 -4,4"/>
<!-- SUPPLIER -->
<g id="node1" class="node">
<title>SUPPLIER</title>
<polygon fill="#efefef" stroke="transparent" points="97,-532.5 97,-567.5 297,-567.5 297,-532.5 97,-532.5"/>
<polygon fill="none" stroke="#000000" points="97,-532.5 97,-567.5 297,-567.5 297,-532.5 97,-532.5"/>
<text text-anchor="start" x="103.8663" y="-545.3" font-family="Arial Bold" font-size="18.00" fill="#000000">SUPPLIER</text>
<text text-anchor="start" x="192.8799" y="-545.3" font-family="Arial" font-size="14.00" fill="#000000"> </text>
<text text-anchor="start" x="196.7705" y="-545.3" font-family="Arial" font-size="14.00" fill="#666666">[BASE TABLE]</text>
<polygon fill="none" stroke="#000000" points="97,-502.5 97,-532.5 297,-532.5 297,-502.5 97,-502.5"/>
<text text-anchor="start" x="104" y="-513.9" font-family="Arial" font-size="14.00" fill="#000000">S_SUPPKEY </text>
<text text-anchor="start" x="191.136" y="-513.9" font-family="Arial" font-size="14.00" fill="#666666">[NUMBER]</text>
<polygon fill="none" stroke="#000000" points="97,-472.5 97,-502.5 297,-502.5 297,-472.5 97,-472.5"/>
<text text-anchor="start" x="104" y="-483.9" font-family="Arial" font-size="14.00" fill="#000000">S_NAME </text>
<text text-anchor="start" x="165.4502" y="-483.9" font-family="Arial" font-size="14.00" fill="#666666">[TEXT]</text>
<polygon fill="none" stroke="#000000" points="97,-442.5 97,-472.5 297,-472.5 297,-442.5 97,-442.5"/>
<text text-anchor="start" x="104" y="-453.9" font-family="Arial" font-size="14.00" fill="#000000">S_ADDRESS </text>
<text text-anchor="start" x="192.676" y="-453.9" font-family="Arial" font-size="14.00" fill="#666666">[TEXT]</text>
<polygon fill="none" stroke="#000000" points="97,-412.5 97,-442.5 297,-442.5 297,-412.5 97,-412.5"/>
<text text-anchor="start" x="104" y="-423.9" font-family="Arial" font-size="14.00" fill="#000000">S_NATIONKEY </text>
<text text-anchor="start" x="205.9032" y="-423.9" font-family="Arial" font-size="14.00" fill="#666666">[NUMBER]</text>
<polygon fill="none" stroke="#000000" points="97,-382.5 97,-412.5 297,-412.5 297,-382.5 97,-382.5"/>
<text text-anchor="start" x="104" y="-393.9" font-family="Arial" font-size="14.00" fill="#000000">S_PHONE </text>
<text text-anchor="start" x="174.7868" y="-393.9" font-family="Arial" font-size="14.00" fill="#666666">[TEXT]</text>
<polygon fill="none" stroke="#000000" points="97,-352.5 97,-382.5 297,-382.5 297,-352.5 97,-352.5"/>
<text text-anchor="start" x="104" y="-363.9" font-family="Arial" font-size="14.00" fill="#000000">S_ACCTBAL </text>
<text text-anchor="start" x="189.568" y="-363.9" font-family="Arial" font-size="14.00" fill="#666666">[NUMBER]</text>
<polygon fill="none" stroke="#000000" points="97,-322.5 97,-352.5 297,-352.5 297,-322.5 97,-322.5"/>
<text text-anchor="start" x="104" y="-333.9" font-family="Arial" font-size="14.00" fill="#000000">S_COMMENT </text>
<text text-anchor="start" x="197.324" y="-333.9" font-family="Arial" font-size="14.00" fill="#666666">[TEXT]</text>
<polygon fill="none" stroke="#000000" stroke-width="3" points="95.5,-321.5 95.5,-569.5 298.5,-569.5 298.5,-321.5 95.5,-321.5"/>
</g>
<!-- NATION -->
<g id="node3" class="node">
<title>NATION</title>
<polygon fill="#efefef" stroke="transparent" points="103,-162.5 103,-197.5 290,-197.5 290,-162.5 103,-162.5"/>
<polygon fill="none" stroke="#000000" points="103,-162.5 103,-197.5 290,-197.5 290,-162.5 103,-162.5"/>
<text text-anchor="start" x="113.8765" y="-175.3" font-family="Arial Bold" font-size="18.00" fill="#000000">NATION</text>
<text text-anchor="start" x="181.8697" y="-175.3" font-family="Arial" font-size="14.00" fill="#000000"> </text>
<text text-anchor="start" x="185.7603" y="-175.3" font-family="Arial" font-size="14.00" fill="#666666">[BASE TABLE]</text>
<polygon fill="none" stroke="#000000" points="103,-132.5 103,-162.5 290,-162.5 290,-132.5 103,-132.5"/>
<text text-anchor="start" x="110" y="-143.9" font-family="Arial" font-size="14.00" fill="#000000">N_NATIONKEY </text>
<text text-anchor="start" x="212.6732" y="-143.9" font-family="Arial" font-size="14.00" fill="#666666">[NUMBER]</text>
<polygon fill="none" stroke="#000000" points="103,-102.5 103,-132.5 290,-132.5 290,-102.5 103,-102.5"/>
<text text-anchor="start" x="110" y="-113.9" font-family="Arial" font-size="14.00" fill="#000000">N_NAME </text>
<text text-anchor="start" x="172.2202" y="-113.9" font-family="Arial" font-size="14.00" fill="#666666">[TEXT]</text>
<polygon fill="none" stroke="#000000" points="103,-72.5 103,-102.5 290,-102.5 290,-72.5 103,-72.5"/>
<text text-anchor="start" x="109.777" y="-83.9" font-family="Arial" font-size="14.00" fill="#000000">N_REGIONKEY </text>
<text text-anchor="start" x="214.7882" y="-83.9" font-family="Arial" font-size="14.00" fill="#666666">[NUMBER]</text>
<polygon fill="none" stroke="#000000" points="103,-42.5 103,-72.5 290,-72.5 290,-42.5 103,-42.5"/>
<text text-anchor="start" x="110" y="-53.9" font-family="Arial" font-size="14.00" fill="#000000">N_COMMENT </text>
<text text-anchor="start" x="204.094" y="-53.9" font-family="Arial" font-size="14.00" fill="#666666">[TEXT]</text>
</g>
<!-- SUPPLIER&#45;&gt;NATION -->
<g id="edge2" class="edge">
<title>SUPPLIER:S_NATIONKEY&#45;&gt;NATION:N_NATIONKEY</title>
<path fill="none" stroke="#000000" stroke-dasharray="5,2" d="M86.831,-426.6353C32.8078,-416.8089 56.5956,-325.6378 97,-277 152.7571,-209.8809 234.2429,-308.1191 290,-241 316.5539,-209.0351 331.5556,-147.5 290,-147.5"/>
<polygon fill="#000000" stroke="#000000" points="87.036,-426.6526 96.6187,-431.9838 92.018,-427.0763 97,-427.5 97,-427.5 97,-427.5 92.018,-427.0763 97.3813,-423.0162 87.036,-426.6526 87.036,-426.6526"/>
<text text-anchor="start" x="7.3245" y="-437.5" font-family="Arial" font-size="10.00" fill="#000000">Additional Relation</text>
</g>
<!-- PARTSUPP -->
<g id="node2" class="node">
<title>PARTSUPP</title>
<polygon fill="#efefef" stroke="transparent" points="93,-842.5 93,-877.5 301,-877.5 301,-842.5 93,-842.5"/>
<polygon fill="none" stroke="#000000" points="93,-842.5 93,-877.5 301,-877.5 301,-842.5 93,-842.5"/>
<text text-anchor="start" x="99.8703" y="-855.3" font-family="Arial Bold" font-size="18.00" fill="#000000">PARTSUPP</text>
<text text-anchor="start" x="196.8759" y="-855.3" font-family="Arial" font-size="14.00" fill="#000000"> </text>
<text text-anchor="start" x="200.7665" y="-855.3" font-family="Arial" font-size="14.00" fill="#666666">[BASE TABLE]</text>
<polygon fill="none" stroke="#000000" points="93,-812.5 93,-842.5 301,-842.5 301,-812.5 93,-812.5"/>
<text text-anchor="start" x="100" y="-823.9" font-family="Arial" font-size="14.00" fill="#000000">PS_PARTKEY </text>
<text text-anchor="start" x="195.6886" y="-823.9" font-family="Arial" font-size="14.00" fill="#666666">[NUMBER]</text>
<polygon fill="none" stroke="#000000" points="93,-782.5 93,-812.5 301,-812.5 301,-782.5 93,-782.5"/>
<text text-anchor="start" x="100" y="-793.9" font-family="Arial" font-size="14.00" fill="#000000">PS_SUPPKEY </text>
<text text-anchor="start" x="196.4726" y="-793.9" font-family="Arial" font-size="14.00" fill="#666666">[NUMBER]</text>
<polygon fill="none" stroke="#000000" points="93,-752.5 93,-782.5 301,-782.5 301,-752.5 93,-752.5"/>
<text text-anchor="start" x="100" y="-763.9" font-family="Arial" font-size="14.00" fill="#000000">PS_AVAILQTY </text>
<text text-anchor="start" x="198.8092" y="-763.9" font-family="Arial" font-size="14.00" fill="#666666">[NUMBER]</text>
<polygon fill="none" stroke="#000000" points="93,-722.5 93,-752.5 301,-752.5 301,-722.5 93,-722.5"/>
<text text-anchor="start" x="100" y="-733.9" font-family="Arial" font-size="14.00" fill="#000000">PS_SUPPLYCOST </text>
<text text-anchor="start" x="224.4684" y="-733.9" font-family="Arial" font-size="14.00" fill="#666666">[NUMBER]</text>
<polygon fill="none" stroke="#000000" points="93,-692.5 93,-722.5 301,-722.5 301,-692.5 93,-692.5"/>
<text text-anchor="start" x="100" y="-703.9" font-family="Arial" font-size="14.00" fill="#000000">PS_COMMENT </text>
<text text-anchor="start" x="202.6606" y="-703.9" font-family="Arial" font-size="14.00" fill="#666666">[TEXT]</text>
</g>
<!-- PARTSUPP&#45;&gt;SUPPLIER -->
<g id="edge1" class="edge">
<title>PARTSUPP:PS_SUPPKEY&#45;&gt;SUPPLIER:S_SUPPKEY</title>
<path fill="none" stroke="#000000" stroke-dasharray="5,2" d="M310.938,-794.9069C362.5886,-766.6795 355.7039,-517.5 297,-517.5"/>
<polygon fill="#000000" stroke="#000000" points="310.676,-794.9752 299.8638,-793.1458 305.838,-796.2376 301,-797.5 301,-797.5 301,-797.5 305.838,-796.2376 302.1362,-801.8542 310.676,-794.9752 310.676,-794.9752"/>
<text text-anchor="start" x="308.3245" y="-807.5" font-family="Arial" font-size="10.00" fill="#000000">Additional Relation</text>
</g>
</g>
</svg>
