<?xml version="1.0" encoding="UTF-8" standalone="no"?>
<!DOCTYPE svg PUBLIC "-//W3C//DTD SVG 1.1//EN"
 "http://www.w3.org/Graphics/SVG/1.1/DTD/svg11.dtd">
<!-- Generated by graphviz version 12.1.2 (20240928.0832)
 -->
<!-- Title: CamelizeTable Pages: 1 -->
<svg width="288pt" height="198pt"
 viewBox="0.00 0.00 287.87 197.60" xmlns="http://www.w3.org/2000/svg" xmlns:xlink="http://www.w3.org/1999/xlink">
<g id="graph0" class="graph" transform="scale(1 1) rotate(0) translate(4 193.6)">
<title>CamelizeTable</title>
<polygon fill="white" stroke="none" points="-4,4 -4,-193.6 283.87,-193.6 283.87,4 -4,4"/>
<!-- CamelizeTable -->
<g id="node1" class="node">
<title>CamelizeTable</title>
<polygon fill="#efefef" stroke="none" points="46.2,-107.8 46.2,-143.4 233.67,-143.4 233.67,-107.8 46.2,-107.8"/>
<polygon fill="none" stroke="black" points="46.2,-107.8 46.2,-143.4 233.67,-143.4 233.67,-107.8 46.2,-107.8"/>
<text text-anchor="start" x="53.2" y="-121.2" font-family="M+ 1p light Bold" font-size="18.00">CamelizeTable</text>
<text text-anchor="start" x="162.14" y="-121.2" font-family="M+ 1p light" font-size="14.00">    </text>
<text text-anchor="start" x="190.14" y="-121.2" font-family="M+ 1p light" font-size="14.00" fill="#666666">[table]</text>
<polygon fill="none" stroke="black" points="46.2,-77 46.2,-107.8 233.67,-107.8 233.67,-77 46.2,-77"/>
<text text-anchor="start" x="53.2" y="-89.2" font-family="M+ 1p light" font-size="14.00">id </text>
<text text-anchor="start" x="67.59" y="-89.2" font-family="M+ 1p light" font-size="14.00" fill="#666666">[INTEGER]</text>
<polygon fill="none" stroke="black" points="46.2,-46.2 46.2,-77 233.67,-77 233.67,-46.2 46.2,-46.2"/>
<text text-anchor="start" x="53.2" y="-58.4" font-family="M+ 1p light" font-size="14.00">created </text>
<text text-anchor="start" x="97.11" y="-58.4" font-family="M+ 1p light" font-size="14.00" fill="#666666">[NUMERIC]</text>
<polygon fill="none" stroke="black" stroke-width="3" points="44.7,-44.7 44.7,-144.9 235.17,-144.9 235.17,-44.7 44.7,-44.7"/>
</g>
</g>
</svg>
