<?xml version="1.0" encoding="UTF-8" standalone="no"?>
<!DOCTYPE svg PUBLIC "-//W3C//DTD SVG 1.1//EN"
 "http://www.w3.org/Graphics/SVG/1.1/DTD/svg11.dtd">
<!-- Generated by graphviz version 12.1.2 (20240928.0832)
 -->
<!-- Title: check_constraints Pages: 1 -->
<svg width="308pt" height="321pt"
 viewBox="0.00 0.00 307.88 320.80" xmlns="http://www.w3.org/2000/svg" xmlns:xlink="http://www.w3.org/1999/xlink">
<g id="graph0" class="graph" transform="scale(1 1) rotate(0) translate(4 316.8)">
<title>check_constraints</title>
<polygon fill="white" stroke="none" points="-4,4 -4,-316.8 303.88,-316.8 303.88,4 -4,4"/>
<!-- check_constraints -->
<g id="node1" class="node">
<title>check_constraints</title>
<polygon fill="#efefef" stroke="none" points="46.2,-231 46.2,-266.6 253.68,-266.6 253.68,-231 46.2,-231"/>
<polygon fill="none" stroke="black" points="46.2,-231 46.2,-266.6 253.68,-266.6 253.68,-231 46.2,-231"/>
<text text-anchor="start" x="53.2" y="-244.4" font-family="M+ 1p light Bold" font-size="18.00">check_constraints</text>
<text text-anchor="start" x="182.15" y="-244.4" font-family="M+ 1p light" font-size="14.00">    </text>
<text text-anchor="start" x="210.15" y="-244.4" font-family="M+ 1p light" font-size="14.00" fill="#666666">[table]</text>
<polygon fill="none" stroke="black" points="46.2,-200.2 46.2,-231 253.68,-231 253.68,-200.2 46.2,-200.2"/>
<text text-anchor="start" x="53.2" y="-212.4" font-family="M+ 1p light" font-size="14.00">id </text>
<text text-anchor="start" x="67.59" y="-212.4" font-family="M+ 1p light" font-size="14.00" fill="#666666">[INTEGER]</text>
<polygon fill="none" stroke="black" points="46.2,-169.4 46.2,-200.2 253.68,-200.2 253.68,-169.4 46.2,-169.4"/>
<text text-anchor="start" x="53.2" y="-181.6" font-family="M+ 1p light" font-size="14.00">col </text>
<text text-anchor="start" x="73.8" y="-181.6" font-family="M+ 1p light" font-size="14.00" fill="#666666">[TEXT]</text>
<polygon fill="none" stroke="black" points="46.2,-138.6 46.2,-169.4 253.68,-169.4 253.68,-138.6 46.2,-138.6"/>
<text text-anchor="start" x="53.2" y="-150.8" font-family="M+ 1p light" font-size="14.00">brackets </text>
<text text-anchor="start" x="103.34" y="-150.8" font-family="M+ 1p light" font-size="14.00" fill="#666666">[TEXT]</text>
<polygon fill="none" stroke="black" points="46.2,-107.8 46.2,-138.6 253.68,-138.6 253.68,-107.8 46.2,-107.8"/>
<text text-anchor="start" x="53.2" y="-120" font-family="M+ 1p light" font-size="14.00">checkcheck </text>
<text text-anchor="start" x="121.98" y="-120" font-family="M+ 1p light" font-size="14.00" fill="#666666">[TEXT]</text>
<polygon fill="none" stroke="black" points="46.2,-77 46.2,-107.8 253.68,-107.8 253.68,-77 46.2,-77"/>
<text text-anchor="start" x="53.2" y="-89.2" font-family="M+ 1p light" font-size="14.00">downcase </text>
<text text-anchor="start" x="111.9" y="-89.2" font-family="M+ 1p light" font-size="14.00" fill="#666666">[TEXT]</text>
<polygon fill="none" stroke="black" points="46.2,-46.2 46.2,-77 253.68,-77 253.68,-46.2 46.2,-46.2"/>
<text text-anchor="start" x="53.2" y="-58.4" font-family="M+ 1p light" font-size="14.00">nl </text>
<text text-anchor="start" x="67.59" y="-58.4" font-family="M+ 1p light" font-size="14.00" fill="#666666">[TEXT]</text>
<polygon fill="none" stroke="black" stroke-width="3" points="44.7,-44.7 44.7,-268.1 255.18,-268.1 255.18,-44.7 44.7,-44.7"/>
</g>
</g>
</svg>
