<?xml version="1.0" encoding="UTF-8" standalone="no"?>
<!DOCTYPE svg PUBLIC "-//W3C//DTD SVG 1.1//EN"
 "http://www.w3.org/Graphics/SVG/1.1/DTD/svg11.dtd">
<!-- Generated by graphviz version 12.1.2 (20240928.0832)
 -->
<!-- Title: comment_stars Pages: 1 -->
<svg width="1801pt" height="684pt"
 viewBox="0.00 0.00 1801.46 684.40" xmlns="http://www.w3.org/2000/svg" xmlns:xlink="http://www.w3.org/1999/xlink">
<g id="graph0" class="graph" transform="scale(1 1) rotate(0) translate(4 680.4)">
<title>comment_stars</title>
<polygon fill="white" stroke="none" points="-4,4 -4,-680.4 1797.46,-680.4 1797.46,4 -4,4"/>
<!-- comment_stars -->
<g id="node1" class="node">
<title>comment_stars</title>
<polygon fill="#efefef" stroke="none" points="720.21,-584.2 720.21,-630.2 1226.57,-630.2 1226.57,-584.2 720.21,-584.2"/>
<polygon fill="none" stroke="black" points="720.21,-584.2 720.21,-630.2 1226.57,-630.2 1226.57,-584.2 720.21,-584.2"/>
<text text-anchor="start" x="886.64" y="-608" font-family="M+ 1p light Bold" font-size="18.00">comment_stars</text>
<text text-anchor="start" x="995.61" y="-608" font-family="M+ 1p light" font-size="14.00">    </text>
<text text-anchor="start" x="1023.61" y="-608" font-family="M+ 1p light" font-size="14.00" fill="#666666">[table]</text>
<text text-anchor="start" x="852.64" y="-593.6" font-family="M+ 1p light" font-size="14.00" fill="#333333">コメントへのスター（いいね）を管理するテーブル</text>
<polygon fill="none" stroke="black" points="720.21,-553.4 720.21,-584.2 1226.57,-584.2 1226.57,-553.4 720.21,-553.4"/>
<text text-anchor="start" x="727.21" y="-565.6" font-family="M+ 1p light" font-size="14.00">id </text>
<text text-anchor="start" x="741.6" y="-565.6" font-family="M+ 1p light" font-size="14.00" fill="#666666">[INTEGER]</text>
<text text-anchor="start" x="810.8" y="-565.6" font-family="M+ 1p light" font-size="14.00"> スターID|スターの一意識別子</text>
<polygon fill="none" stroke="black" points="720.21,-522.6 720.21,-553.4 1226.57,-553.4 1226.57,-522.6 720.21,-522.6"/>
<text text-anchor="start" x="727.21" y="-534.8" font-family="M+ 1p light" font-size="14.00">user_id </text>
<text text-anchor="start" x="771.92" y="-534.8" font-family="M+ 1p light" font-size="14.00" fill="#666666">[INTEGER]</text>
<text text-anchor="start" x="841.12" y="-534.8" font-family="M+ 1p light" font-size="14.00"> ユーザーID|スターを付けたユーザーのID</text>
<polygon fill="none" stroke="black" points="720.21,-491.8 720.21,-522.6 1226.57,-522.6 1226.57,-491.8 720.21,-491.8"/>
<text text-anchor="start" x="727.21" y="-504" font-family="M+ 1p light" font-size="14.00">comment_post_id </text>
<text text-anchor="start" x="831.03" y="-504" font-family="M+ 1p light" font-size="14.00" fill="#666666">[INTEGER]</text>
<text text-anchor="start" x="900.23" y="-504" font-family="M+ 1p light" font-size="14.00"> 投稿ID|コメントの投稿ID（複合外部キーの一部）</text>
<polygon fill="none" stroke="black" points="720.21,-461 720.21,-491.8 1226.57,-491.8 1226.57,-461 720.21,-461"/>
<text text-anchor="start" x="727.21" y="-473.2" font-family="M+ 1p light" font-size="14.00">comment_user_id </text>
<text text-anchor="start" x="831.02" y="-473.2" font-family="M+ 1p light" font-size="14.00" fill="#666666">[INTEGER]</text>
<text text-anchor="start" x="900.22" y="-473.2" font-family="M+ 1p light" font-size="14.00"> コメント者ID|コメントしたユーザーのID（複合外部キーの一部）</text>
<polygon fill="none" stroke="black" points="720.21,-430.2 720.21,-461 1226.57,-461 1226.57,-430.2 720.21,-430.2"/>
<text text-anchor="start" x="727.21" y="-442.4" font-family="M+ 1p light" font-size="14.00">created </text>
<text text-anchor="start" x="771.12" y="-442.4" font-family="M+ 1p light" font-size="14.00" fill="#666666">[NUMERIC]</text>
<text text-anchor="start" x="845" y="-442.4" font-family="M+ 1p light" font-size="14.00"> スター日時|スターを付けた日時</text>
<polygon fill="none" stroke="black" points="720.21,-399.4 720.21,-430.2 1226.57,-430.2 1226.57,-399.4 720.21,-399.4"/>
<text text-anchor="start" x="727.21" y="-411.6" font-family="M+ 1p light" font-size="14.00">updated </text>
<text text-anchor="start" x="775.03" y="-411.6" font-family="M+ 1p light" font-size="14.00" fill="#666666">[NUMERIC]</text>
<text text-anchor="start" x="848.91" y="-411.6" font-family="M+ 1p light" font-size="14.00"> 更新日時|最終更新日時</text>
<polygon fill="none" stroke="black" stroke-width="3" points="718.71,-397.9 718.71,-631.7 1228.07,-631.7 1228.07,-397.9 718.71,-397.9"/>
</g>
<!-- comments -->
<g id="node2" class="node">
<title>comments</title>
<polygon fill="#efefef" stroke="none" points="527.01,-228 527.01,-274 921.77,-274 921.77,-228 527.01,-228"/>
<polygon fill="none" stroke="black" points="527.01,-228 527.01,-274 921.77,-274 921.77,-228 527.01,-228"/>
<text text-anchor="start" x="655.13" y="-251.8" font-family="M+ 1p light Bold" font-size="18.00">comments</text>
<text text-anchor="start" x="729.12" y="-251.8" font-family="M+ 1p light" font-size="14.00">    </text>
<text text-anchor="start" x="757.12" y="-251.8" font-family="M+ 1p light" font-size="14.00" fill="#666666">[table]</text>
<text text-anchor="start" x="635.14" y="-237.4" font-family="M+ 1p light" font-size="14.00" fill="#333333">投稿へのコメントを管理するテーブル</text>
<polygon fill="none" stroke="black" points="527.01,-197.2 527.01,-228 921.77,-228 921.77,-197.2 527.01,-197.2"/>
<text text-anchor="start" x="534.01" y="-209.4" font-family="M+ 1p light" font-size="14.00">id </text>
<text text-anchor="start" x="548.4" y="-209.4" font-family="M+ 1p light" font-size="14.00" fill="#666666">[INTEGER]</text>
<text text-anchor="start" x="617.6" y="-209.4" font-family="M+ 1p light" font-size="14.00"> コメントID|コメントの一意識別子</text>
<polygon fill="none" stroke="black" points="527.01,-166.4 527.01,-197.2 921.77,-197.2 921.77,-166.4 527.01,-166.4"/>
<text text-anchor="start" x="534.01" y="-178.6" font-family="M+ 1p light" font-size="14.00">post_id </text>
<text text-anchor="start" x="578.74" y="-178.6" font-family="M+ 1p light" font-size="14.00" fill="#666666">[INTEGER]</text>
<text text-anchor="start" x="647.94" y="-178.6" font-family="M+ 1p light" font-size="14.00"> 投稿ID|コメント対象の投稿ID（外部キー）</text>
<polygon fill="none" stroke="black" points="527.01,-135.6 527.01,-166.4 921.77,-166.4 921.77,-135.6 527.01,-135.6"/>
<text text-anchor="start" x="534.01" y="-147.8" font-family="M+ 1p light" font-size="14.00">user_id </text>
<text text-anchor="start" x="578.72" y="-147.8" font-family="M+ 1p light" font-size="14.00" fill="#666666">[INTEGER]</text>
<text text-anchor="start" x="647.92" y="-147.8" font-family="M+ 1p light" font-size="14.00"> コメント者ID|コメントしたユーザーのID（外部キー）</text>
<polygon fill="none" stroke="black" points="527.01,-104.8 527.01,-135.6 921.77,-135.6 921.77,-104.8 527.01,-104.8"/>
<text text-anchor="start" x="534.01" y="-117" font-family="M+ 1p light" font-size="14.00">comment </text>
<text text-anchor="start" x="589.6" y="-117" font-family="M+ 1p light" font-size="14.00" fill="#666666">[TEXT]</text>
<text text-anchor="start" x="634.69" y="-117" font-family="M+ 1p light" font-size="14.00"> コメント内容|コメントの本文</text>
<polygon fill="none" stroke="black" points="527.01,-74 527.01,-104.8 921.77,-104.8 921.77,-74 527.01,-74"/>
<text text-anchor="start" x="534.01" y="-86.2" font-family="M+ 1p light" font-size="14.00">created </text>
<text text-anchor="start" x="577.92" y="-86.2" font-family="M+ 1p light" font-size="14.00" fill="#666666">[NUMERIC]</text>
<text text-anchor="start" x="651.8" y="-86.2" font-family="M+ 1p light" font-size="14.00"> コメント日時|コメント投稿日時</text>
<polygon fill="none" stroke="black" points="527.01,-43.2 527.01,-74 921.77,-74 921.77,-43.2 527.01,-43.2"/>
<text text-anchor="start" x="534.01" y="-55.4" font-family="M+ 1p light" font-size="14.00">updated </text>
<text text-anchor="start" x="581.83" y="-55.4" font-family="M+ 1p light" font-size="14.00" fill="#666666">[NUMERIC]</text>
<text text-anchor="start" x="655.71" y="-55.4" font-family="M+ 1p light" font-size="14.00"> 更新日時|コメントの最終更新日時</text>
</g>
<!-- comment_stars&#45;&gt;comments -->
<g id="edge1" class="edge">
<title>comment_stars:comment_post_id&#45;&gt;comments:post_id</title>
<path fill="none" stroke="black" d="M708.81,-506.31C653.59,-496.23 678.51,-402.68 720.21,-353.2 778.85,-283.62 863.1,-386.76 921.77,-317.2 960.57,-271.2 982.95,-181.8 922.77,-181.8"/>
<polygon fill="black" stroke="black" points="708.91,-506.32 718.49,-511.66 714.23,-506.77 718.54,-507.14 718.54,-507.14 718.54,-507.14 714.23,-506.77 719.26,-502.69 708.91,-506.32"/>
<text text-anchor="start" x="7" y="-517.2" font-family="M+ 1p light" font-size="10.00">FOREIGN KEY (comment_post_id, comment_user_id) REFERENCES comments (post_id, user_id) ON UPDATE NO ACTION ON DELETE NO ACTION MATCH NONE</text>
</g>
<!-- users -->
<g id="node3" class="node">
<title>users</title>
<polygon fill="#efefef" stroke="none" points="1026.37,-228 1026.37,-274 1418.41,-274 1418.41,-228 1026.37,-228"/>
<polygon fill="none" stroke="black" points="1026.37,-228 1026.37,-274 1418.41,-274 1418.41,-228 1026.37,-228"/>
<text text-anchor="start" x="1171.63" y="-251.8" font-family="M+ 1p light Bold" font-size="18.00">users</text>
<text text-anchor="start" x="1208.62" y="-251.8" font-family="M+ 1p light" font-size="14.00">    </text>
<text text-anchor="start" x="1236.62" y="-251.8" font-family="M+ 1p light" font-size="14.00" fill="#666666">[table]</text>
<text text-anchor="start" x="1122.64" y="-237.4" font-family="M+ 1p light" font-size="14.00" fill="#333333">ユーザー情報を管理するマスターテーブル</text>
<polygon fill="none" stroke="black" points="1026.37,-197.2 1026.37,-228 1418.41,-228 1418.41,-197.2 1026.37,-197.2"/>
<text text-anchor="start" x="1033.37" y="-209.4" font-family="M+ 1p light" font-size="14.00">id </text>
<text text-anchor="start" x="1047.76" y="-209.4" font-family="M+ 1p light" font-size="14.00" fill="#666666">[INTEGER]</text>
<text text-anchor="start" x="1116.96" y="-209.4" font-family="M+ 1p light" font-size="14.00"> ユーザーID|システム内で一意のユーザー識別子</text>
<polygon fill="none" stroke="black" points="1026.37,-166.4 1026.37,-197.2 1418.41,-197.2 1418.41,-166.4 1026.37,-166.4"/>
<text text-anchor="start" x="1033.37" y="-178.6" font-family="M+ 1p light" font-size="14.00">username </text>
<text text-anchor="start" x="1090.51" y="-178.6" font-family="M+ 1p light" font-size="14.00" fill="#666666">[TEXT]</text>
<text text-anchor="start" x="1135.6" y="-178.6" font-family="M+ 1p light" font-size="14.00"> ユーザー名|ログイン時に使用する名前（4文字以上必須）</text>
<polygon fill="none" stroke="black" points="1026.37,-135.6 1026.37,-166.4 1418.41,-166.4 1418.41,-135.6 1026.37,-135.6"/>
<text text-anchor="start" x="1033.37" y="-147.8" font-family="M+ 1p light" font-size="14.00">password </text>
<text text-anchor="start" x="1089.75" y="-147.8" font-family="M+ 1p light" font-size="14.00" fill="#666666">[TEXT]</text>
<text text-anchor="start" x="1134.84" y="-147.8" font-family="M+ 1p light" font-size="14.00"> パスワード|ハッシュ化されたパスワード</text>
<polygon fill="none" stroke="black" points="1026.37,-104.8 1026.37,-135.6 1418.41,-135.6 1418.41,-104.8 1026.37,-104.8"/>
<text text-anchor="start" x="1033.37" y="-117" font-family="M+ 1p light" font-size="14.00">email </text>
<text text-anchor="start" x="1067.97" y="-117" font-family="M+ 1p light" font-size="14.00" fill="#666666">[TEXT]</text>
<text text-anchor="start" x="1113.06" y="-117" font-family="M+ 1p light" font-size="14.00"> メールアドレス|連絡用メールアドレス（一意制約あり）</text>
<polygon fill="none" stroke="black" points="1026.37,-74 1026.37,-104.8 1418.41,-104.8 1418.41,-74 1026.37,-74"/>
<text text-anchor="start" x="1033.37" y="-86.2" font-family="M+ 1p light" font-size="14.00">created </text>
<text text-anchor="start" x="1077.28" y="-86.2" font-family="M+ 1p light" font-size="14.00" fill="#666666">[NUMERIC]</text>
<text text-anchor="start" x="1151.16" y="-86.2" font-family="M+ 1p light" font-size="14.00"> 登録日時|アカウント作成日時</text>
<polygon fill="none" stroke="black" points="1026.37,-43.2 1026.37,-74 1418.41,-74 1418.41,-43.2 1026.37,-43.2"/>
<text text-anchor="start" x="1033.37" y="-55.4" font-family="M+ 1p light" font-size="14.00">updated </text>
<text text-anchor="start" x="1081.19" y="-55.4" font-family="M+ 1p light" font-size="14.00" fill="#666666">[NUMERIC]</text>
<text text-anchor="start" x="1155.07" y="-55.4" font-family="M+ 1p light" font-size="14.00"> 更新日時|最終更新日時</text>
</g>
<!-- comment_stars&#45;&gt;users -->
<g id="edge2" class="edge">
<title>comment_stars:comment_user_id&#45;&gt;users:id</title>
<path fill="none" stroke="black" d="M1237.76,-475.3C1279.46,-465.46 1259.45,-392.2 1226.57,-353.2 1168.29,-284.08 1084.7,-386.27 1026.37,-317.2 996.38,-281.68 978.88,-212.6 1025.37,-212.6"/>
<polygon fill="black" stroke="black" points="1237.84,-475.29 1227.42,-471.89 1232.54,-475.86 1228.23,-476.33 1228.23,-476.33 1228.23,-476.33 1232.54,-475.86 1228.38,-480.84 1237.84,-475.29"/>
<text text-anchor="start" x="1234.57" y="-486.4" font-family="M+ 1p light" font-size="10.00">FOREIGN KEY (comment_user_id) REFERENCES users (id) ON UPDATE NO ACTION ON DELETE NO ACTION MATCH NONE</text>
</g>
</g>
</svg>
