<?xml version="1.0" encoding="UTF-8" standalone="no"?>
<!DOCTYPE svg PUBLIC "-//W3C//DTD SVG 1.1//EN"
 "http://www.w3.org/Graphics/SVG/1.1/DTD/svg11.dtd">
<!-- Generated by graphviz version 12.1.2 (20240928.0832)
 -->
<!-- Title: posts Pages: 1 -->
<svg width="971pt" height="1038pt"
 viewBox="0.00 0.00 970.66 1037.60" xmlns="http://www.w3.org/2000/svg" xmlns:xlink="http://www.w3.org/1999/xlink">
<g id="graph0" class="graph" transform="scale(1 1) rotate(0) translate(4 1033.6)">
<title>posts</title>
<polygon fill="white" stroke="none" points="-4,4 -4,-1033.6 966.66,-1033.6 966.66,4 -4,4"/>
<!-- posts -->
<g id="node1" class="node">
<title>posts</title>
<polygon fill="#efefef" stroke="none" points="64.2,-584.2 64.2,-630.2 416.96,-630.2 416.96,-584.2 64.2,-584.2"/>
<polygon fill="none" stroke="black" points="64.2,-584.2 64.2,-630.2 416.96,-630.2 416.96,-584.2 64.2,-584.2"/>
<text text-anchor="start" x="189.81" y="-608" font-family="M+ 1p light Bold" font-size="18.00">posts</text>
<text text-anchor="start" x="226.82" y="-608" font-family="M+ 1p light" font-size="14.00">    </text>
<text text-anchor="start" x="254.82" y="-608" font-family="M+ 1p light" font-size="14.00" fill="#666666">[table]</text>
<text text-anchor="start" x="167.08" y="-593.6" font-family="M+ 1p light" font-size="14.00" fill="#333333">ブログ投稿を管理するテーブル</text>
<polygon fill="none" stroke="black" points="64.2,-553.4 64.2,-584.2 416.96,-584.2 416.96,-553.4 64.2,-553.4"/>
<text text-anchor="start" x="71.2" y="-565.6" font-family="M+ 1p light" font-size="14.00">id </text>
<text text-anchor="start" x="85.59" y="-565.6" font-family="M+ 1p light" font-size="14.00" fill="#666666">[INTEGER]</text>
<text text-anchor="start" x="154.79" y="-565.6" font-family="M+ 1p light" font-size="14.00"> 投稿ID|投稿の一意識別子</text>
<polygon fill="none" stroke="black" points="64.2,-522.6 64.2,-553.4 416.96,-553.4 416.96,-522.6 64.2,-522.6"/>
<text text-anchor="start" x="71.2" y="-534.8" font-family="M+ 1p light" font-size="14.00">user_id </text>
<text text-anchor="start" x="115.91" y="-534.8" font-family="M+ 1p light" font-size="14.00" fill="#666666">[INTEGER]</text>
<text text-anchor="start" x="185.11" y="-534.8" font-family="M+ 1p light" font-size="14.00"> 投稿者ID|投稿したユーザーのID（外部キー）</text>
<polygon fill="none" stroke="black" points="64.2,-491.8 64.2,-522.6 416.96,-522.6 416.96,-491.8 64.2,-491.8"/>
<text text-anchor="start" x="71.2" y="-504" font-family="M+ 1p light" font-size="14.00">title </text>
<text text-anchor="start" x="96.47" y="-504" font-family="M+ 1p light" font-size="14.00" fill="#666666">[TEXT]</text>
<text text-anchor="start" x="141.56" y="-504" font-family="M+ 1p light" font-size="14.00"> タイトル|投稿のタイトル（最大255文字）</text>
<polygon fill="none" stroke="black" points="64.2,-461 64.2,-491.8 416.96,-491.8 416.96,-461 64.2,-461"/>
<text text-anchor="start" x="71.2" y="-473.2" font-family="M+ 1p light" font-size="14.00">body </text>
<text text-anchor="start" x="102.7" y="-473.2" font-family="M+ 1p light" font-size="14.00" fill="#666666">[TEXT]</text>
<text text-anchor="start" x="147.79" y="-473.2" font-family="M+ 1p light" font-size="14.00"> 本文|投稿の本文内容</text>
<polygon fill="none" stroke="black" points="64.2,-430.2 64.2,-461 416.96,-461 416.96,-430.2 64.2,-430.2"/>
<text text-anchor="start" x="71.2" y="-442.4" font-family="M+ 1p light" font-size="14.00">created </text>
<text text-anchor="start" x="115.11" y="-442.4" font-family="M+ 1p light" font-size="14.00" fill="#666666">[NUMERIC]</text>
<text text-anchor="start" x="188.99" y="-442.4" font-family="M+ 1p light" font-size="14.00"> 投稿日時|投稿作成日時</text>
<polygon fill="none" stroke="black" points="64.2,-399.4 64.2,-430.2 416.96,-430.2 416.96,-399.4 64.2,-399.4"/>
<text text-anchor="start" x="71.2" y="-411.6" font-family="M+ 1p light" font-size="14.00">updated </text>
<text text-anchor="start" x="119.02" y="-411.6" font-family="M+ 1p light" font-size="14.00" fill="#666666">[NUMERIC]</text>
<text text-anchor="start" x="192.9" y="-411.6" font-family="M+ 1p light" font-size="14.00"> 更新日時|投稿の最終更新日時</text>
<polygon fill="none" stroke="black" stroke-width="3" points="62.7,-397.9 62.7,-631.7 418.46,-631.7 418.46,-397.9 62.7,-397.9"/>
</g>
<!-- users -->
<g id="node3" class="node">
<title>users</title>
<polygon fill="#efefef" stroke="none" points="44.56,-228 44.56,-274 436.6,-274 436.6,-228 44.56,-228"/>
<polygon fill="none" stroke="black" points="44.56,-228 44.56,-274 436.6,-274 436.6,-228 44.56,-228"/>
<text text-anchor="start" x="189.82" y="-251.8" font-family="M+ 1p light Bold" font-size="18.00">users</text>
<text text-anchor="start" x="226.81" y="-251.8" font-family="M+ 1p light" font-size="14.00">    </text>
<text text-anchor="start" x="254.81" y="-251.8" font-family="M+ 1p light" font-size="14.00" fill="#666666">[table]</text>
<text text-anchor="start" x="140.83" y="-237.4" font-family="M+ 1p light" font-size="14.00" fill="#333333">ユーザー情報を管理するマスターテーブル</text>
<polygon fill="none" stroke="black" points="44.56,-197.2 44.56,-228 436.6,-228 436.6,-197.2 44.56,-197.2"/>
<text text-anchor="start" x="51.56" y="-209.4" font-family="M+ 1p light" font-size="14.00">id </text>
<text text-anchor="start" x="65.95" y="-209.4" font-family="M+ 1p light" font-size="14.00" fill="#666666">[INTEGER]</text>
<text text-anchor="start" x="135.15" y="-209.4" font-family="M+ 1p light" font-size="14.00"> ユーザーID|システム内で一意のユーザー識別子</text>
<polygon fill="none" stroke="black" points="44.56,-166.4 44.56,-197.2 436.6,-197.2 436.6,-166.4 44.56,-166.4"/>
<text text-anchor="start" x="51.56" y="-178.6" font-family="M+ 1p light" font-size="14.00">username </text>
<text text-anchor="start" x="108.71" y="-178.6" font-family="M+ 1p light" font-size="14.00" fill="#666666">[TEXT]</text>
<text text-anchor="start" x="153.8" y="-178.6" font-family="M+ 1p light" font-size="14.00"> ユーザー名|ログイン時に使用する名前（4文字以上必須）</text>
<polygon fill="none" stroke="black" points="44.56,-135.6 44.56,-166.4 436.6,-166.4 436.6,-135.6 44.56,-135.6"/>
<text text-anchor="start" x="51.56" y="-147.8" font-family="M+ 1p light" font-size="14.00">password </text>
<text text-anchor="start" x="107.95" y="-147.8" font-family="M+ 1p light" font-size="14.00" fill="#666666">[TEXT]</text>
<text text-anchor="start" x="153.04" y="-147.8" font-family="M+ 1p light" font-size="14.00"> パスワード|ハッシュ化されたパスワード</text>
<polygon fill="none" stroke="black" points="44.56,-104.8 44.56,-135.6 436.6,-135.6 436.6,-104.8 44.56,-104.8"/>
<text text-anchor="start" x="51.56" y="-117" font-family="M+ 1p light" font-size="14.00">email </text>
<text text-anchor="start" x="86.16" y="-117" font-family="M+ 1p light" font-size="14.00" fill="#666666">[TEXT]</text>
<text text-anchor="start" x="131.25" y="-117" font-family="M+ 1p light" font-size="14.00"> メールアドレス|連絡用メールアドレス（一意制約あり）</text>
<polygon fill="none" stroke="black" points="44.56,-74 44.56,-104.8 436.6,-104.8 436.6,-74 44.56,-74"/>
<text text-anchor="start" x="51.56" y="-86.2" font-family="M+ 1p light" font-size="14.00">created </text>
<text text-anchor="start" x="95.47" y="-86.2" font-family="M+ 1p light" font-size="14.00" fill="#666666">[NUMERIC]</text>
<text text-anchor="start" x="169.35" y="-86.2" font-family="M+ 1p light" font-size="14.00"> 登録日時|アカウント作成日時</text>
<polygon fill="none" stroke="black" points="44.56,-43.2 44.56,-74 436.6,-74 436.6,-43.2 44.56,-43.2"/>
<text text-anchor="start" x="51.56" y="-55.4" font-family="M+ 1p light" font-size="14.00">updated </text>
<text text-anchor="start" x="99.38" y="-55.4" font-family="M+ 1p light" font-size="14.00" fill="#666666">[NUMERIC]</text>
<text text-anchor="start" x="173.26" y="-55.4" font-family="M+ 1p light" font-size="14.00"> 更新日時|最終更新日時</text>
</g>
<!-- posts&#45;&gt;users -->
<g id="edge2" class="edge">
<title>posts:user_id&#45;&gt;users:id</title>
<path fill="none" stroke="black" d="M427.8,-535.92C492.04,-508.21 506.64,-212.6 437.6,-212.6"/>
<polygon fill="black" stroke="black" points="428.07,-535.86 417.36,-533.53 422.85,-536.97 418.62,-537.86 418.62,-537.86 418.62,-537.86 422.85,-536.97 419.22,-542.33 428.07,-535.86"/>
<text text-anchor="start" x="424.96" y="-548" font-family="M+ 1p light" font-size="10.00">FOREIGN KEY (user_id) REFERENCES users (id) ON UPDATE NO ACTION ON DELETE CASCADE MATCH NONE</text>
</g>
<!-- comments -->
<g id="node2" class="node">
<title>comments</title>
<polygon fill="#efefef" stroke="none" points="43.2,-940.4 43.2,-986.4 437.96,-986.4 437.96,-940.4 43.2,-940.4"/>
<polygon fill="none" stroke="black" points="43.2,-940.4 43.2,-986.4 437.96,-986.4 437.96,-940.4 43.2,-940.4"/>
<text text-anchor="start" x="171.32" y="-964.2" font-family="M+ 1p light Bold" font-size="18.00">comments</text>
<text text-anchor="start" x="245.31" y="-964.2" font-family="M+ 1p light" font-size="14.00">    </text>
<text text-anchor="start" x="273.31" y="-964.2" font-family="M+ 1p light" font-size="14.00" fill="#666666">[table]</text>
<text text-anchor="start" x="151.33" y="-949.8" font-family="M+ 1p light" font-size="14.00" fill="#333333">投稿へのコメントを管理するテーブル</text>
<polygon fill="none" stroke="black" points="43.2,-909.6 43.2,-940.4 437.96,-940.4 437.96,-909.6 43.2,-909.6"/>
<text text-anchor="start" x="50.2" y="-921.8" font-family="M+ 1p light" font-size="14.00">id </text>
<text text-anchor="start" x="64.59" y="-921.8" font-family="M+ 1p light" font-size="14.00" fill="#666666">[INTEGER]</text>
<text text-anchor="start" x="133.79" y="-921.8" font-family="M+ 1p light" font-size="14.00"> コメントID|コメントの一意識別子</text>
<polygon fill="none" stroke="black" points="43.2,-878.8 43.2,-909.6 437.96,-909.6 437.96,-878.8 43.2,-878.8"/>
<text text-anchor="start" x="50.2" y="-891" font-family="M+ 1p light" font-size="14.00">post_id </text>
<text text-anchor="start" x="94.93" y="-891" font-family="M+ 1p light" font-size="14.00" fill="#666666">[INTEGER]</text>
<text text-anchor="start" x="164.13" y="-891" font-family="M+ 1p light" font-size="14.00"> 投稿ID|コメント対象の投稿ID（外部キー）</text>
<polygon fill="none" stroke="black" points="43.2,-848 43.2,-878.8 437.96,-878.8 437.96,-848 43.2,-848"/>
<text text-anchor="start" x="50.2" y="-860.2" font-family="M+ 1p light" font-size="14.00">user_id </text>
<text text-anchor="start" x="94.91" y="-860.2" font-family="M+ 1p light" font-size="14.00" fill="#666666">[INTEGER]</text>
<text text-anchor="start" x="164.11" y="-860.2" font-family="M+ 1p light" font-size="14.00"> コメント者ID|コメントしたユーザーのID（外部キー）</text>
<polygon fill="none" stroke="black" points="43.2,-817.2 43.2,-848 437.96,-848 437.96,-817.2 43.2,-817.2"/>
<text text-anchor="start" x="50.2" y="-829.4" font-family="M+ 1p light" font-size="14.00">comment </text>
<text text-anchor="start" x="105.8" y="-829.4" font-family="M+ 1p light" font-size="14.00" fill="#666666">[TEXT]</text>
<text text-anchor="start" x="150.89" y="-829.4" font-family="M+ 1p light" font-size="14.00"> コメント内容|コメントの本文</text>
<polygon fill="none" stroke="black" points="43.2,-786.4 43.2,-817.2 437.96,-817.2 437.96,-786.4 43.2,-786.4"/>
<text text-anchor="start" x="50.2" y="-798.6" font-family="M+ 1p light" font-size="14.00">created </text>
<text text-anchor="start" x="94.11" y="-798.6" font-family="M+ 1p light" font-size="14.00" fill="#666666">[NUMERIC]</text>
<text text-anchor="start" x="167.99" y="-798.6" font-family="M+ 1p light" font-size="14.00"> コメント日時|コメント投稿日時</text>
<polygon fill="none" stroke="black" points="43.2,-755.6 43.2,-786.4 437.96,-786.4 437.96,-755.6 43.2,-755.6"/>
<text text-anchor="start" x="50.2" y="-767.8" font-family="M+ 1p light" font-size="14.00">updated </text>
<text text-anchor="start" x="98.02" y="-767.8" font-family="M+ 1p light" font-size="14.00" fill="#666666">[NUMERIC]</text>
<text text-anchor="start" x="171.9" y="-767.8" font-family="M+ 1p light" font-size="14.00"> 更新日時|コメントの最終更新日時</text>
</g>
<!-- comments&#45;&gt;posts -->
<g id="edge1" class="edge">
<title>comments:post_id&#45;&gt;posts:id</title>
<path fill="none" stroke="black" d="M448.91,-891.95C509.25,-863.2 486.89,-568.8 417.96,-568.8"/>
<polygon fill="black" stroke="black" points="449.04,-891.92 438.29,-889.74 443.84,-893.1 439.61,-894.05 439.61,-894.05 439.61,-894.05 443.84,-893.1 440.28,-898.52 449.04,-891.92"/>
<text text-anchor="start" x="445.96" y="-904.2" font-family="M+ 1p light" font-size="10.00">FOREIGN KEY (post_id) REFERENCES posts (id) ON UPDATE NO ACTION ON DELETE NO ACTION MATCH NONE</text>
</g>
</g>
</svg>
