<?xml version="1.0" encoding="UTF-8" standalone="no"?>
<!DOCTYPE svg PUBLIC "-//W3C//DTD SVG 1.1//EN"
 "http://www.w3.org/Graphics/SVG/1.1/DTD/svg11.dtd">
<!-- Generated by graphviz version 12.1.2 (20240928.0832)
 -->
<!-- Title: public.user_access_logs Pages: 1 -->
<svg width="825pt" height="592pt"
 viewBox="0.00 0.00 825.18 592.00" xmlns="http://www.w3.org/2000/svg" xmlns:xlink="http://www.w3.org/1999/xlink">
<g id="graph0" class="graph" transform="scale(1 1) rotate(0) translate(4 588)">
<title>public.user_access_logs</title>
<polygon fill="white" stroke="none" points="-4,4 -4,-588 821.18,-588 821.18,4 -4,4"/>
<!-- public.user_access_logs -->
<g id="node1" class="node">
<title>public.user_access_logs</title>
<polygon fill="#efefef" stroke="none" points="156.28,-491.8 156.28,-537.8 468.22,-537.8 468.22,-491.8 156.28,-491.8"/>
<polygon fill="none" stroke="black" points="156.28,-491.8 156.28,-537.8 468.22,-537.8 468.22,-491.8 156.28,-491.8"/>
<text text-anchor="start" x="163.28" y="-515.6" font-family="Arial Bold" font-size="18.00">public.user_access_logs</text>
<text text-anchor="start" x="336.73" y="-515.6" font-family="Arial" font-size="14.00">    </text>
<text text-anchor="start" x="367.85" y="-515.6" font-family="Arial" font-size="14.00" fill="#666666">[BASE TABLE]</text>
<text text-anchor="start" x="253.9" y="-501.2" font-family="Arial" font-size="14.00" fill="#333333">ユーザーアクセスログ</text>
<polygon fill="none" stroke="black" points="156.28,-461 156.28,-491.8 468.22,-491.8 468.22,-461 156.28,-461"/>
<text text-anchor="start" x="163.28" y="-473.2" font-family="Arial" font-size="14.00">user_id </text>
<text text-anchor="start" x="213.08" y="-473.2" font-family="Arial" font-size="14.00" fill="#666666">[integer]</text>
<polygon fill="none" stroke="black" points="156.28,-430.2 156.28,-461 468.22,-461 468.22,-430.2 156.28,-430.2"/>
<text text-anchor="start" x="163.28" y="-442.4" font-family="Arial" font-size="14.00">ua </text>
<text text-anchor="start" x="182.74" y="-442.4" font-family="Arial" font-size="14.00" fill="#666666">[text]</text>
<polygon fill="none" stroke="black" points="156.28,-399.4 156.28,-430.2 468.22,-430.2 468.22,-399.4 156.28,-399.4"/>
<text text-anchor="start" x="163.28" y="-411.6" font-family="Arial" font-size="14.00">created </text>
<text text-anchor="start" x="213.86" y="-411.6" font-family="Arial" font-size="14.00" fill="#666666">[timestamp without time zone]</text>
<polygon fill="none" stroke="black" stroke-width="3" points="154.78,-397.9 154.78,-539.3 469.72,-539.3 469.72,-397.9 154.78,-397.9"/>
</g>
<!-- public.users -->
<g id="node2" class="node">
<title>public.users</title>
<polygon fill="#efefef" stroke="none" points="43.2,-228 43.2,-274 581.3,-274 581.3,-228 43.2,-228"/>
<polygon fill="none" stroke="black" points="43.2,-228 43.2,-274 581.3,-274 581.3,-228 43.2,-228"/>
<text text-anchor="start" x="206.76" y="-251.8" font-family="Arial Bold" font-size="18.00">public.users</text>
<text text-anchor="start" x="293.25" y="-251.8" font-family="Arial" font-size="14.00">    </text>
<text text-anchor="start" x="324.36" y="-251.8" font-family="Arial" font-size="14.00" fill="#666666">[BASE TABLE]</text>
<text text-anchor="start" x="201.39" y="-237.4" font-family="Arial" font-size="14.00" fill="#333333">ユーザー情報を管理するマスターテーブル</text>
<polygon fill="none" stroke="black" points="43.2,-197.2 43.2,-228 581.3,-228 581.3,-197.2 43.2,-197.2"/>
<text text-anchor="start" x="50.2" y="-209.4" font-family="Arial" font-size="14.00">id (ユーザーID) </text>
<text text-anchor="start" x="138.88" y="-209.4" font-family="Arial" font-size="14.00" fill="#666666">[integer]</text>
<text text-anchor="start" x="189.46" y="-209.4" font-family="Arial" font-size="14.00"> ユーザーID|システム内で一意のユーザー識別子</text>
<polygon fill="none" stroke="black" points="43.2,-166.4 43.2,-197.2 581.3,-197.2 581.3,-166.4 43.2,-166.4"/>
<text text-anchor="start" x="50.2" y="-178.6" font-family="Arial" font-size="14.00">username (ユーザー名) </text>
<text text-anchor="start" x="187.9" y="-178.6" font-family="Arial" font-size="14.00" fill="#666666">[varchar(50)]</text>
<text text-anchor="start" x="267.26" y="-178.6" font-family="Arial" font-size="14.00"> ユーザー名|ログイン時に使用する名前（4文字以上必須）</text>
<polygon fill="none" stroke="black" points="43.2,-135.6 43.2,-166.4 581.3,-166.4 581.3,-135.6 43.2,-135.6"/>
<text text-anchor="start" x="50.2" y="-147.8" font-family="Arial" font-size="14.00">password (パスワード) </text>
<text text-anchor="start" x="185.57" y="-147.8" font-family="Arial" font-size="14.00" fill="#666666">[varchar(50)]</text>
<text text-anchor="start" x="264.92" y="-147.8" font-family="Arial" font-size="14.00"> パスワード|ハッシュ化されたパスワード</text>
<polygon fill="none" stroke="black" points="43.2,-104.8 43.2,-135.6 581.3,-135.6 581.3,-104.8 43.2,-104.8"/>
<text text-anchor="start" x="50.2" y="-117" font-family="Arial" font-size="14.00">email (メールアドレス) </text>
<text text-anchor="start" x="182.44" y="-117" font-family="Arial" font-size="14.00" fill="#666666">[varchar(355)]</text>
<text text-anchor="start" x="269.59" y="-117" font-family="Arial" font-size="14.00"> メールアドレス|連絡用メールアドレス（一意制約あり）</text>
<polygon fill="none" stroke="black" points="43.2,-74 43.2,-104.8 581.3,-104.8 581.3,-74 43.2,-74"/>
<text text-anchor="start" x="50.2" y="-86.2" font-family="Arial" font-size="14.00">created (登録日時) </text>
<text text-anchor="start" x="160.68" y="-86.2" font-family="Arial" font-size="14.00" fill="#666666">[timestamp without time zone]</text>
<text text-anchor="start" x="345.86" y="-86.2" font-family="Arial" font-size="14.00"> 登録日時|アカウント作成日時</text>
<polygon fill="none" stroke="black" points="43.2,-43.2 43.2,-74 581.3,-74 581.3,-43.2 43.2,-43.2"/>
<text text-anchor="start" x="50.2" y="-55.4" font-family="Arial" font-size="14.00">updated (更新日時) </text>
<text text-anchor="start" x="164.59" y="-55.4" font-family="Arial" font-size="14.00" fill="#666666">[timestamp without time zone]</text>
<text text-anchor="start" x="349.77" y="-55.4" font-family="Arial" font-size="14.00"> 更新日時|最終更新日時</text>
</g>
<!-- public.user_access_logs&#45;&gt;public.users -->
<g id="edge1" class="edge">
<title>public.user_access_logs:user_id&#45;&gt;public.users:id</title>
<path fill="none" stroke="black" d="M479.28,-475.86C602.58,-462.67 706.5,-212.6 582.3,-212.6"/>
<polygon fill="black" stroke="black" points="479.54,-475.85 469.31,-471.89 474.21,-476.13 469.89,-476.36 469.89,-476.36 469.89,-476.36 474.21,-476.13 469.8,-480.88 479.54,-475.85"/>
<text text-anchor="start" x="476.22" y="-486.4" font-family="Arial" font-size="10.00">FOREIGN KEY (user_id) REFERENCES users(id) ON DELETE CASCADE</text>
</g>
</g>
</svg>
