<?xml version="1.0" encoding="UTF-8" standalone="no"?>
<!DOCTYPE svg PUBLIC "-//W3C//DTD SVG 1.1//EN"
 "http://www.w3.org/Graphics/SVG/1.1/DTD/svg11.dtd">
<!-- Generated by graphviz version 12.1.2 (20240928.0832)
 -->
<!-- Title: public.user_options Pages: 1 -->
<svg width="809pt" height="623pt"
 viewBox="0.00 0.00 809.20 622.80" xmlns="http://www.w3.org/2000/svg" xmlns:xlink="http://www.w3.org/1999/xlink">
<g id="graph0" class="graph" transform="scale(1 1) rotate(0) translate(4 618.8)">
<title>public.user_options</title>
<polygon fill="white" stroke="none" points="-4,4 -4,-618.8 805.2,-618.8 805.2,4 -4,4"/>
<!-- public.user_options -->
<g id="node1" class="node">
<title>public.user_options</title>
<polygon fill="#efefef" stroke="none" points="172.26,-522.6 172.26,-568.6 452.24,-568.6 452.24,-522.6 172.26,-522.6"/>
<polygon fill="none" stroke="black" points="172.26,-522.6 172.26,-568.6 452.24,-568.6 452.24,-522.6 172.26,-522.6"/>
<text text-anchor="start" x="179.26" y="-546.4" font-family="Arial Bold" font-size="18.00">public.user_options</text>
<text text-anchor="start" x="320.75" y="-546.4" font-family="Arial" font-size="14.00">    </text>
<text text-anchor="start" x="351.86" y="-546.4" font-family="Arial" font-size="14.00" fill="#666666">[BASE TABLE]</text>
<text text-anchor="start" x="277.24" y="-532" font-family="Arial" font-size="14.00" fill="#333333">ユーザー設定</text>
<polygon fill="none" stroke="black" points="172.26,-491.8 172.26,-522.6 452.24,-522.6 452.24,-491.8 172.26,-491.8"/>
<text text-anchor="start" x="179.26" y="-504" font-family="Arial" font-size="14.00">user_id </text>
<text text-anchor="start" x="229.07" y="-504" font-family="Arial" font-size="14.00" fill="#666666">[integer]</text>
<polygon fill="none" stroke="black" points="172.26,-461 172.26,-491.8 452.24,-491.8 452.24,-461 172.26,-461"/>
<text text-anchor="start" x="179.26" y="-473.2" font-family="Arial" font-size="14.00">show_email </text>
<text text-anchor="start" x="257.07" y="-473.2" font-family="Arial" font-size="14.00" fill="#666666">[boolean]</text>
<polygon fill="none" stroke="black" points="172.26,-430.2 172.26,-461 452.24,-461 452.24,-430.2 172.26,-430.2"/>
<text text-anchor="start" x="179.26" y="-442.4" font-family="Arial" font-size="14.00">created </text>
<text text-anchor="start" x="229.85" y="-442.4" font-family="Arial" font-size="14.00" fill="#666666">[timestamp without time zone]</text>
<polygon fill="none" stroke="black" points="172.26,-399.4 172.26,-430.2 452.24,-430.2 452.24,-399.4 172.26,-399.4"/>
<text text-anchor="start" x="179.26" y="-411.6" font-family="Arial" font-size="14.00">updated </text>
<text text-anchor="start" x="233.76" y="-411.6" font-family="Arial" font-size="14.00" fill="#666666">[timestamp without time zone]</text>
<polygon fill="none" stroke="black" stroke-width="3" points="170.76,-397.9 170.76,-570.1 453.74,-570.1 453.74,-397.9 170.76,-397.9"/>
</g>
<!-- public.users -->
<g id="node2" class="node">
<title>public.users</title>
<polygon fill="#efefef" stroke="none" points="43.2,-228 43.2,-274 581.3,-274 581.3,-228 43.2,-228"/>
<polygon fill="none" stroke="black" points="43.2,-228 43.2,-274 581.3,-274 581.3,-228 43.2,-228"/>
<text text-anchor="start" x="206.76" y="-251.8" font-family="Arial Bold" font-size="18.00">public.users</text>
<text text-anchor="start" x="293.25" y="-251.8" font-family="Arial" font-size="14.00">    </text>
<text text-anchor="start" x="324.36" y="-251.8" font-family="Arial" font-size="14.00" fill="#666666">[BASE TABLE]</text>
<text text-anchor="start" x="201.39" y="-237.4" font-family="Arial" font-size="14.00" fill="#333333">ユーザー情報を管理するマスターテーブル</text>
<polygon fill="none" stroke="black" points="43.2,-197.2 43.2,-228 581.3,-228 581.3,-197.2 43.2,-197.2"/>
<text text-anchor="start" x="50.2" y="-209.4" font-family="Arial" font-size="14.00">id (ユーザーID) </text>
<text text-anchor="start" x="138.88" y="-209.4" font-family="Arial" font-size="14.00" fill="#666666">[integer]</text>
<text text-anchor="start" x="189.46" y="-209.4" font-family="Arial" font-size="14.00"> ユーザーID|システム内で一意のユーザー識別子</text>
<polygon fill="none" stroke="black" points="43.2,-166.4 43.2,-197.2 581.3,-197.2 581.3,-166.4 43.2,-166.4"/>
<text text-anchor="start" x="50.2" y="-178.6" font-family="Arial" font-size="14.00">username (ユーザー名) </text>
<text text-anchor="start" x="187.9" y="-178.6" font-family="Arial" font-size="14.00" fill="#666666">[varchar(50)]</text>
<text text-anchor="start" x="267.26" y="-178.6" font-family="Arial" font-size="14.00"> ユーザー名|ログイン時に使用する名前（4文字以上必須）</text>
<polygon fill="none" stroke="black" points="43.2,-135.6 43.2,-166.4 581.3,-166.4 581.3,-135.6 43.2,-135.6"/>
<text text-anchor="start" x="50.2" y="-147.8" font-family="Arial" font-size="14.00">password (パスワード) </text>
<text text-anchor="start" x="185.57" y="-147.8" font-family="Arial" font-size="14.00" fill="#666666">[varchar(50)]</text>
<text text-anchor="start" x="264.92" y="-147.8" font-family="Arial" font-size="14.00"> パスワード|ハッシュ化されたパスワード</text>
<polygon fill="none" stroke="black" points="43.2,-104.8 43.2,-135.6 581.3,-135.6 581.3,-104.8 43.2,-104.8"/>
<text text-anchor="start" x="50.2" y="-117" font-family="Arial" font-size="14.00">email (メールアドレス) </text>
<text text-anchor="start" x="182.44" y="-117" font-family="Arial" font-size="14.00" fill="#666666">[varchar(355)]</text>
<text text-anchor="start" x="269.59" y="-117" font-family="Arial" font-size="14.00"> メールアドレス|連絡用メールアドレス（一意制約あり）</text>
<polygon fill="none" stroke="black" points="43.2,-74 43.2,-104.8 581.3,-104.8 581.3,-74 43.2,-74"/>
<text text-anchor="start" x="50.2" y="-86.2" font-family="Arial" font-size="14.00">created (登録日時) </text>
<text text-anchor="start" x="160.68" y="-86.2" font-family="Arial" font-size="14.00" fill="#666666">[timestamp without time zone]</text>
<text text-anchor="start" x="345.86" y="-86.2" font-family="Arial" font-size="14.00"> 登録日時|アカウント作成日時</text>
<polygon fill="none" stroke="black" points="43.2,-43.2 43.2,-74 581.3,-74 581.3,-43.2 43.2,-43.2"/>
<text text-anchor="start" x="50.2" y="-55.4" font-family="Arial" font-size="14.00">updated (更新日時) </text>
<text text-anchor="start" x="164.59" y="-55.4" font-family="Arial" font-size="14.00" fill="#666666">[timestamp without time zone]</text>
<text text-anchor="start" x="349.77" y="-55.4" font-family="Arial" font-size="14.00"> 更新日時|最終更新日時</text>
</g>
<!-- public.user_options&#45;&gt;public.users -->
<g id="edge1" class="edge">
<title>public.user_options:user_id&#45;&gt;public.users:id</title>
<path fill="none" stroke="black" d="M463.19,-505.47C535.9,-481.33 650.56,-212.6 582.3,-212.6"/>
<polygon fill="black" stroke="black" points="463.42,-505.43 452.8,-502.71 458.16,-506.34 453.9,-507.09 453.9,-507.09 453.9,-507.09 458.16,-506.34 454.34,-511.58 463.42,-505.43"/>
<text text-anchor="start" x="460.24" y="-517.2" font-family="Arial" font-size="10.00">FOREIGN KEY (user_id) REFERENCES users(id) ON DELETE CASCADE</text>
</g>
</g>
</svg>
