<?xml version="1.0" encoding="UTF-8" standalone="no"?>
<!DOCTYPE svg PUBLIC "-//W3C//DTD SVG 1.1//EN"
 "http://www.w3.org/Graphics/SVG/1.1/DTD/svg11.dtd">
<!-- Generated by graphviz version 12.1.2 (20240928.0832)
 -->
<!-- Title: testdb.sqlite3 Pages: 1 -->
<svg width="3159pt" height="1405pt"
 viewBox="0.00 0.00 3158.54 1405.20" xmlns="http://www.w3.org/2000/svg" xmlns:xlink="http://www.w3.org/1999/xlink">
<g id="graph0" class="graph" transform="scale(1 1) rotate(0) translate(4 1401.2)">
<title>testdb.sqlite3</title>
<polygon fill="white" stroke="none" points="-4,4 -4,-1401.2 3154.54,-1401.2 3154.54,4 -4,4"/>
<!-- users -->
<g id="node1" class="node">
<title>users</title>
<polygon fill="#efefef" stroke="none" points="509.05,-228 509.05,-274 901.09,-274 901.09,-228 509.05,-228"/>
<polygon fill="none" stroke="black" points="509.05,-228 509.05,-274 901.09,-274 901.09,-228 509.05,-228"/>
<text text-anchor="start" x="654.31" y="-251.8" font-family="M+ 1p light Bold" font-size="18.00">users</text>
<text text-anchor="start" x="691.3" y="-251.8" font-family="M+ 1p light" font-size="14.00">    </text>
<text text-anchor="start" x="719.3" y="-251.8" font-family="M+ 1p light" font-size="14.00" fill="#666666">[table]</text>
<text text-anchor="start" x="605.32" y="-237.4" font-family="M+ 1p light" font-size="14.00" fill="#333333">ユーザー情報を管理するマスターテーブル</text>
<polygon fill="none" stroke="black" points="509.05,-197.2 509.05,-228 901.09,-228 901.09,-197.2 509.05,-197.2"/>
<text text-anchor="start" x="516.05" y="-209.4" font-family="M+ 1p light" font-size="14.00">id </text>
<text text-anchor="start" x="530.44" y="-209.4" font-family="M+ 1p light" font-size="14.00" fill="#666666">[INTEGER]</text>
<text text-anchor="start" x="599.64" y="-209.4" font-family="M+ 1p light" font-size="14.00"> ユーザーID|システム内で一意のユーザー識別子</text>
<polygon fill="none" stroke="black" points="509.05,-166.4 509.05,-197.2 901.09,-197.2 901.09,-166.4 509.05,-166.4"/>
<text text-anchor="start" x="516.05" y="-178.6" font-family="M+ 1p light" font-size="14.00">username </text>
<text text-anchor="start" x="573.19" y="-178.6" font-family="M+ 1p light" font-size="14.00" fill="#666666">[TEXT]</text>
<text text-anchor="start" x="618.28" y="-178.6" font-family="M+ 1p light" font-size="14.00"> ユーザー名|ログイン時に使用する名前（4文字以上必須）</text>
<polygon fill="none" stroke="black" points="509.05,-135.6 509.05,-166.4 901.09,-166.4 901.09,-135.6 509.05,-135.6"/>
<text text-anchor="start" x="516.05" y="-147.8" font-family="M+ 1p light" font-size="14.00">password </text>
<text text-anchor="start" x="572.43" y="-147.8" font-family="M+ 1p light" font-size="14.00" fill="#666666">[TEXT]</text>
<text text-anchor="start" x="617.52" y="-147.8" font-family="M+ 1p light" font-size="14.00"> パスワード|ハッシュ化されたパスワード</text>
<polygon fill="none" stroke="black" points="509.05,-104.8 509.05,-135.6 901.09,-135.6 901.09,-104.8 509.05,-104.8"/>
<text text-anchor="start" x="516.05" y="-117" font-family="M+ 1p light" font-size="14.00">email </text>
<text text-anchor="start" x="550.65" y="-117" font-family="M+ 1p light" font-size="14.00" fill="#666666">[TEXT]</text>
<text text-anchor="start" x="595.74" y="-117" font-family="M+ 1p light" font-size="14.00"> メールアドレス|連絡用メールアドレス（一意制約あり）</text>
<polygon fill="none" stroke="black" points="509.05,-74 509.05,-104.8 901.09,-104.8 901.09,-74 509.05,-74"/>
<text text-anchor="start" x="516.05" y="-86.2" font-family="M+ 1p light" font-size="14.00">created </text>
<text text-anchor="start" x="559.96" y="-86.2" font-family="M+ 1p light" font-size="14.00" fill="#666666">[NUMERIC]</text>
<text text-anchor="start" x="633.84" y="-86.2" font-family="M+ 1p light" font-size="14.00"> 登録日時|アカウント作成日時</text>
<polygon fill="none" stroke="black" points="509.05,-43.2 509.05,-74 901.09,-74 901.09,-43.2 509.05,-43.2"/>
<text text-anchor="start" x="516.05" y="-55.4" font-family="M+ 1p light" font-size="14.00">updated </text>
<text text-anchor="start" x="563.87" y="-55.4" font-family="M+ 1p light" font-size="14.00" fill="#666666">[NUMERIC]</text>
<text text-anchor="start" x="637.75" y="-55.4" font-family="M+ 1p light" font-size="14.00"> 更新日時|最終更新日時</text>
</g>
<!-- user_options -->
<g id="node2" class="node">
<title>user_options</title>
<polygon fill="#efefef" stroke="none" points="444.81,-555.6 444.81,-591.2 615.33,-591.2 615.33,-555.6 444.81,-555.6"/>
<polygon fill="none" stroke="black" points="444.81,-555.6 444.81,-591.2 615.33,-591.2 615.33,-555.6 444.81,-555.6"/>
<text text-anchor="start" x="451.81" y="-569" font-family="M+ 1p light Bold" font-size="18.00">user_options</text>
<text text-anchor="start" x="543.8" y="-569" font-family="M+ 1p light" font-size="14.00">    </text>
<text text-anchor="start" x="571.8" y="-569" font-family="M+ 1p light" font-size="14.00" fill="#666666">[table]</text>
<polygon fill="none" stroke="black" points="444.81,-524.8 444.81,-555.6 615.33,-555.6 615.33,-524.8 444.81,-524.8"/>
<text text-anchor="start" x="451.81" y="-537" font-family="M+ 1p light" font-size="14.00">user_id </text>
<text text-anchor="start" x="496.52" y="-537" font-family="M+ 1p light" font-size="14.00" fill="#666666">[INTEGER]</text>
<polygon fill="none" stroke="black" points="444.81,-494 444.81,-524.8 615.33,-524.8 615.33,-494 444.81,-494"/>
<text text-anchor="start" x="451.81" y="-506.2" font-family="M+ 1p light" font-size="14.00">show_email </text>
<text text-anchor="start" x="522.96" y="-506.2" font-family="M+ 1p light" font-size="14.00" fill="#666666">[INTEGER]</text>
<polygon fill="none" stroke="black" points="444.81,-463.2 444.81,-494 615.33,-494 615.33,-463.2 444.81,-463.2"/>
<text text-anchor="start" x="451.81" y="-475.4" font-family="M+ 1p light" font-size="14.00">created </text>
<text text-anchor="start" x="495.71" y="-475.4" font-family="M+ 1p light" font-size="14.00" fill="#666666">[NUMERIC]</text>
<polygon fill="none" stroke="black" points="444.81,-432.4 444.81,-463.2 615.33,-463.2 615.33,-432.4 444.81,-432.4"/>
<text text-anchor="start" x="451.81" y="-444.6" font-family="M+ 1p light" font-size="14.00">updated </text>
<text text-anchor="start" x="499.62" y="-444.6" font-family="M+ 1p light" font-size="14.00" fill="#666666">[NUMERIC]</text>
</g>
<!-- user_options&#45;&gt;users -->
<g id="edge1" class="edge">
<title>user_options:user_id&#45;&gt;users:id</title>
<path fill="none" stroke="black" d="M626.43,-539.4C679.47,-530.26 645.25,-445.15 615.33,-389.2 588.43,-338.89 536.03,-367.47 509.05,-317.2 487.07,-276.23 461.56,-212.6 508.05,-212.6"/>
<polygon fill="black" stroke="black" points="626.63,-539.38 616.31,-535.69 621.32,-539.8 617,-540.15 617,-540.15 617,-540.15 621.32,-539.8 617.02,-544.66 626.63,-539.38"/>
<text text-anchor="start" x="107.7" y="-550.2" font-family="M+ 1p light" font-size="10.00">FOREIGN KEY (user_id) REFERENCES users (id) ON UPDATE NO ACTION ON DELETE CASCADE MATCH NONE</text>
</g>
<!-- posts -->
<g id="node3" class="node">
<title>posts</title>
<polygon fill="#efefef" stroke="none" points="795.69,-581.2 795.69,-627.2 1148.45,-627.2 1148.45,-581.2 795.69,-581.2"/>
<polygon fill="none" stroke="black" points="795.69,-581.2 795.69,-627.2 1148.45,-627.2 1148.45,-581.2 795.69,-581.2"/>
<text text-anchor="start" x="921.3" y="-605" font-family="M+ 1p light Bold" font-size="18.00">posts</text>
<text text-anchor="start" x="958.31" y="-605" font-family="M+ 1p light" font-size="14.00">    </text>
<text text-anchor="start" x="986.31" y="-605" font-family="M+ 1p light" font-size="14.00" fill="#666666">[table]</text>
<text text-anchor="start" x="898.57" y="-590.6" font-family="M+ 1p light" font-size="14.00" fill="#333333">ブログ投稿を管理するテーブル</text>
<polygon fill="none" stroke="black" points="795.69,-550.4 795.69,-581.2 1148.45,-581.2 1148.45,-550.4 795.69,-550.4"/>
<text text-anchor="start" x="802.69" y="-562.6" font-family="M+ 1p light" font-size="14.00">id </text>
<text text-anchor="start" x="817.08" y="-562.6" font-family="M+ 1p light" font-size="14.00" fill="#666666">[INTEGER]</text>
<text text-anchor="start" x="886.28" y="-562.6" font-family="M+ 1p light" font-size="14.00"> 投稿ID|投稿の一意識別子</text>
<polygon fill="none" stroke="black" points="795.69,-519.6 795.69,-550.4 1148.45,-550.4 1148.45,-519.6 795.69,-519.6"/>
<text text-anchor="start" x="802.69" y="-531.8" font-family="M+ 1p light" font-size="14.00">user_id </text>
<text text-anchor="start" x="847.4" y="-531.8" font-family="M+ 1p light" font-size="14.00" fill="#666666">[INTEGER]</text>
<text text-anchor="start" x="916.6" y="-531.8" font-family="M+ 1p light" font-size="14.00"> 投稿者ID|投稿したユーザーのID（外部キー）</text>
<polygon fill="none" stroke="black" points="795.69,-488.8 795.69,-519.6 1148.45,-519.6 1148.45,-488.8 795.69,-488.8"/>
<text text-anchor="start" x="802.69" y="-501" font-family="M+ 1p light" font-size="14.00">title </text>
<text text-anchor="start" x="827.96" y="-501" font-family="M+ 1p light" font-size="14.00" fill="#666666">[TEXT]</text>
<text text-anchor="start" x="873.05" y="-501" font-family="M+ 1p light" font-size="14.00"> タイトル|投稿のタイトル（最大255文字）</text>
<polygon fill="none" stroke="black" points="795.69,-458 795.69,-488.8 1148.45,-488.8 1148.45,-458 795.69,-458"/>
<text text-anchor="start" x="802.69" y="-470.2" font-family="M+ 1p light" font-size="14.00">body </text>
<text text-anchor="start" x="834.19" y="-470.2" font-family="M+ 1p light" font-size="14.00" fill="#666666">[TEXT]</text>
<text text-anchor="start" x="879.28" y="-470.2" font-family="M+ 1p light" font-size="14.00"> 本文|投稿の本文内容</text>
<polygon fill="none" stroke="black" points="795.69,-427.2 795.69,-458 1148.45,-458 1148.45,-427.2 795.69,-427.2"/>
<text text-anchor="start" x="802.69" y="-439.4" font-family="M+ 1p light" font-size="14.00">created </text>
<text text-anchor="start" x="846.6" y="-439.4" font-family="M+ 1p light" font-size="14.00" fill="#666666">[NUMERIC]</text>
<text text-anchor="start" x="920.48" y="-439.4" font-family="M+ 1p light" font-size="14.00"> 投稿日時|投稿作成日時</text>
<polygon fill="none" stroke="black" points="795.69,-396.4 795.69,-427.2 1148.45,-427.2 1148.45,-396.4 795.69,-396.4"/>
<text text-anchor="start" x="802.69" y="-408.6" font-family="M+ 1p light" font-size="14.00">updated </text>
<text text-anchor="start" x="850.51" y="-408.6" font-family="M+ 1p light" font-size="14.00" fill="#666666">[NUMERIC]</text>
<text text-anchor="start" x="924.39" y="-408.6" font-family="M+ 1p light" font-size="14.00"> 更新日時|投稿の最終更新日時</text>
</g>
<!-- posts&#45;&gt;users -->
<g id="edge2" class="edge">
<title>posts:user_id&#45;&gt;users:id</title>
<path fill="none" stroke="black" d="M784.49,-534.31C717.02,-524.66 750.62,-415.85 795.69,-353.2 824.59,-313.02 872.1,-357.33 901.09,-317.2 928.31,-279.51 948.58,-212.6 902.09,-212.6"/>
<polygon fill="black" stroke="black" points="784.38,-534.3 794.05,-539.47 789.7,-534.66 794.02,-534.95 794.02,-534.95 794.02,-534.95 789.7,-534.66 794.66,-530.49 784.38,-534.3"/>
<text text-anchor="start" x="801.69" y="-545" font-family="M+ 1p light" font-size="10.00">FOREIGN KEY (user_id) REFERENCES users (id) ON UPDATE NO ACTION ON DELETE CASCADE MATCH NONE</text>
</g>
<!-- comments -->
<g id="node4" class="node">
<title>comments</title>
<polygon fill="#efefef" stroke="none" points="757.69,-934.4 757.69,-980.4 1152.45,-980.4 1152.45,-934.4 757.69,-934.4"/>
<polygon fill="none" stroke="black" points="757.69,-934.4 757.69,-980.4 1152.45,-980.4 1152.45,-934.4 757.69,-934.4"/>
<text text-anchor="start" x="885.81" y="-958.2" font-family="M+ 1p light Bold" font-size="18.00">comments</text>
<text text-anchor="start" x="959.8" y="-958.2" font-family="M+ 1p light" font-size="14.00">    </text>
<text text-anchor="start" x="987.8" y="-958.2" font-family="M+ 1p light" font-size="14.00" fill="#666666">[table]</text>
<text text-anchor="start" x="865.82" y="-943.8" font-family="M+ 1p light" font-size="14.00" fill="#333333">投稿へのコメントを管理するテーブル</text>
<polygon fill="none" stroke="black" points="757.69,-903.6 757.69,-934.4 1152.45,-934.4 1152.45,-903.6 757.69,-903.6"/>
<text text-anchor="start" x="764.69" y="-915.8" font-family="M+ 1p light" font-size="14.00">id </text>
<text text-anchor="start" x="779.08" y="-915.8" font-family="M+ 1p light" font-size="14.00" fill="#666666">[INTEGER]</text>
<text text-anchor="start" x="848.28" y="-915.8" font-family="M+ 1p light" font-size="14.00"> コメントID|コメントの一意識別子</text>
<polygon fill="none" stroke="black" points="757.69,-872.8 757.69,-903.6 1152.45,-903.6 1152.45,-872.8 757.69,-872.8"/>
<text text-anchor="start" x="764.69" y="-885" font-family="M+ 1p light" font-size="14.00">post_id </text>
<text text-anchor="start" x="809.42" y="-885" font-family="M+ 1p light" font-size="14.00" fill="#666666">[INTEGER]</text>
<text text-anchor="start" x="878.62" y="-885" font-family="M+ 1p light" font-size="14.00"> 投稿ID|コメント対象の投稿ID（外部キー）</text>
<polygon fill="none" stroke="black" points="757.69,-842 757.69,-872.8 1152.45,-872.8 1152.45,-842 757.69,-842"/>
<text text-anchor="start" x="764.69" y="-854.2" font-family="M+ 1p light" font-size="14.00">user_id </text>
<text text-anchor="start" x="809.4" y="-854.2" font-family="M+ 1p light" font-size="14.00" fill="#666666">[INTEGER]</text>
<text text-anchor="start" x="878.6" y="-854.2" font-family="M+ 1p light" font-size="14.00"> コメント者ID|コメントしたユーザーのID（外部キー）</text>
<polygon fill="none" stroke="black" points="757.69,-811.2 757.69,-842 1152.45,-842 1152.45,-811.2 757.69,-811.2"/>
<text text-anchor="start" x="764.69" y="-823.4" font-family="M+ 1p light" font-size="14.00">comment </text>
<text text-anchor="start" x="820.28" y="-823.4" font-family="M+ 1p light" font-size="14.00" fill="#666666">[TEXT]</text>
<text text-anchor="start" x="865.37" y="-823.4" font-family="M+ 1p light" font-size="14.00"> コメント内容|コメントの本文</text>
<polygon fill="none" stroke="black" points="757.69,-780.4 757.69,-811.2 1152.45,-811.2 1152.45,-780.4 757.69,-780.4"/>
<text text-anchor="start" x="764.69" y="-792.6" font-family="M+ 1p light" font-size="14.00">created </text>
<text text-anchor="start" x="808.6" y="-792.6" font-family="M+ 1p light" font-size="14.00" fill="#666666">[NUMERIC]</text>
<text text-anchor="start" x="882.48" y="-792.6" font-family="M+ 1p light" font-size="14.00"> コメント日時|コメント投稿日時</text>
<polygon fill="none" stroke="black" points="757.69,-749.6 757.69,-780.4 1152.45,-780.4 1152.45,-749.6 757.69,-749.6"/>
<text text-anchor="start" x="764.69" y="-761.8" font-family="M+ 1p light" font-size="14.00">updated </text>
<text text-anchor="start" x="812.51" y="-761.8" font-family="M+ 1p light" font-size="14.00" fill="#666666">[NUMERIC]</text>
<text text-anchor="start" x="886.39" y="-761.8" font-family="M+ 1p light" font-size="14.00"> 更新日時|コメントの最終更新日時</text>
</g>
<!-- comments&#45;&gt;users -->
<g id="edge3" class="edge">
<title>comments:user_id&#45;&gt;users:id</title>
<path fill="none" stroke="black" d="M747.56,-852.58C703.59,-805.33 685.69,-425.12 743.07,-353.2 787.99,-296.89 855.9,-373.29 901.09,-317.2 930.25,-281 948.58,-212.6 902.09,-212.6"/>
<polygon fill="black" stroke="black" points="747.55,-852.57 754.29,-861.22 752.27,-855.07 756.1,-857.09 756.1,-857.09 756.1,-857.09 752.27,-855.07 758.49,-853.26 747.55,-852.57"/>
<text text-anchor="start" x="240.01" y="-867.4" font-family="M+ 1p light" font-size="10.00">FOREIGN KEY (user_id) REFERENCES users (id) ON UPDATE NO ACTION ON DELETE NO ACTION MATCH NONE</text>
</g>
<!-- comments&#45;&gt;posts -->
<g id="edge4" class="edge">
<title>comments:post_id&#45;&gt;posts:id</title>
<path fill="none" stroke="black" d="M1163.69,-887.48C1231.73,-877.36 1204.36,-763.5 1152.45,-706.4 1098.85,-647.44 849.41,-729.25 795.69,-670.4 764.34,-636.06 748.2,-565.8 794.69,-565.8"/>
<polygon fill="black" stroke="black" points="1163.76,-887.47 1153.47,-883.69 1158.44,-887.85 1154.12,-888.15 1154.12,-888.15 1154.12,-888.15 1158.44,-887.85 1154.1,-892.67 1163.76,-887.47"/>
<text text-anchor="start" x="1160.45" y="-898.2" font-family="M+ 1p light" font-size="10.00">FOREIGN KEY (post_id) REFERENCES posts (id) ON UPDATE NO ACTION ON DELETE NO ACTION MATCH NONE</text>
</g>
<!-- comment_stars -->
<g id="node5" class="node">
<title>comment_stars</title>
<polygon fill="#efefef" stroke="none" points="566.89,-1297.8 566.89,-1343.8 1073.25,-1343.8 1073.25,-1297.8 566.89,-1297.8"/>
<polygon fill="none" stroke="black" points="566.89,-1297.8 566.89,-1343.8 1073.25,-1343.8 1073.25,-1297.8 566.89,-1297.8"/>
<text text-anchor="start" x="733.32" y="-1321.6" font-family="M+ 1p light Bold" font-size="18.00">comment_stars</text>
<text text-anchor="start" x="842.29" y="-1321.6" font-family="M+ 1p light" font-size="14.00">    </text>
<text text-anchor="start" x="870.29" y="-1321.6" font-family="M+ 1p light" font-size="14.00" fill="#666666">[table]</text>
<text text-anchor="start" x="699.32" y="-1307.2" font-family="M+ 1p light" font-size="14.00" fill="#333333">コメントへのスター（いいね）を管理するテーブル</text>
<polygon fill="none" stroke="black" points="566.89,-1267 566.89,-1297.8 1073.25,-1297.8 1073.25,-1267 566.89,-1267"/>
<text text-anchor="start" x="573.89" y="-1279.2" font-family="M+ 1p light" font-size="14.00">id </text>
<text text-anchor="start" x="588.28" y="-1279.2" font-family="M+ 1p light" font-size="14.00" fill="#666666">[INTEGER]</text>
<text text-anchor="start" x="657.48" y="-1279.2" font-family="M+ 1p light" font-size="14.00"> スターID|スターの一意識別子</text>
<polygon fill="none" stroke="black" points="566.89,-1236.2 566.89,-1267 1073.25,-1267 1073.25,-1236.2 566.89,-1236.2"/>
<text text-anchor="start" x="573.89" y="-1248.4" font-family="M+ 1p light" font-size="14.00">user_id </text>
<text text-anchor="start" x="618.6" y="-1248.4" font-family="M+ 1p light" font-size="14.00" fill="#666666">[INTEGER]</text>
<text text-anchor="start" x="687.8" y="-1248.4" font-family="M+ 1p light" font-size="14.00"> ユーザーID|スターを付けたユーザーのID</text>
<polygon fill="none" stroke="black" points="566.89,-1205.4 566.89,-1236.2 1073.25,-1236.2 1073.25,-1205.4 566.89,-1205.4"/>
<text text-anchor="start" x="573.89" y="-1217.6" font-family="M+ 1p light" font-size="14.00">comment_post_id </text>
<text text-anchor="start" x="677.71" y="-1217.6" font-family="M+ 1p light" font-size="14.00" fill="#666666">[INTEGER]</text>
<text text-anchor="start" x="746.91" y="-1217.6" font-family="M+ 1p light" font-size="14.00"> 投稿ID|コメントの投稿ID（複合外部キーの一部）</text>
<polygon fill="none" stroke="black" points="566.89,-1174.6 566.89,-1205.4 1073.25,-1205.4 1073.25,-1174.6 566.89,-1174.6"/>
<text text-anchor="start" x="573.89" y="-1186.8" font-family="M+ 1p light" font-size="14.00">comment_user_id </text>
<text text-anchor="start" x="677.7" y="-1186.8" font-family="M+ 1p light" font-size="14.00" fill="#666666">[INTEGER]</text>
<text text-anchor="start" x="746.9" y="-1186.8" font-family="M+ 1p light" font-size="14.00"> コメント者ID|コメントしたユーザーのID（複合外部キーの一部）</text>
<polygon fill="none" stroke="black" points="566.89,-1143.8 566.89,-1174.6 1073.25,-1174.6 1073.25,-1143.8 566.89,-1143.8"/>
<text text-anchor="start" x="573.89" y="-1156" font-family="M+ 1p light" font-size="14.00">created </text>
<text text-anchor="start" x="617.8" y="-1156" font-family="M+ 1p light" font-size="14.00" fill="#666666">[NUMERIC]</text>
<text text-anchor="start" x="691.68" y="-1156" font-family="M+ 1p light" font-size="14.00"> スター日時|スターを付けた日時</text>
<polygon fill="none" stroke="black" points="566.89,-1113 566.89,-1143.8 1073.25,-1143.8 1073.25,-1113 566.89,-1113"/>
<text text-anchor="start" x="573.89" y="-1125.2" font-family="M+ 1p light" font-size="14.00">updated </text>
<text text-anchor="start" x="621.71" y="-1125.2" font-family="M+ 1p light" font-size="14.00" fill="#666666">[NUMERIC]</text>
<text text-anchor="start" x="695.59" y="-1125.2" font-family="M+ 1p light" font-size="14.00"> 更新日時|最終更新日時</text>
</g>
<!-- comment_stars&#45;&gt;users -->
<g id="edge5" class="edge">
<title>comment_stars:comment_user_id&#45;&gt;users:id</title>
<path fill="none" stroke="black" d="M555.61,-1188.92C519.31,-1180.1 560.62,-1118.86 566.89,-1069.8 590.08,-888.26 644.64,-852.03 667.07,-670.4 675.71,-600.44 711.03,-408.3 667.07,-353.2 622.15,-296.89 554.24,-373.29 509.05,-317.2 479.88,-281 461.56,-212.6 508.05,-212.6"/>
<polygon fill="black" stroke="black" points="555.61,-1188.92 565.09,-1194.44 560.92,-1189.48 565.22,-1189.93 565.22,-1189.93 565.22,-1189.93 560.92,-1189.48 566.03,-1185.49 555.61,-1188.92"/>
<text text-anchor="start" x="7" y="-1200" font-family="M+ 1p light" font-size="10.00">FOREIGN KEY (comment_user_id) REFERENCES users (id) ON UPDATE NO ACTION ON DELETE NO ACTION MATCH NONE</text>
</g>
<!-- comment_stars&#45;&gt;comments -->
<g id="edge6" class="edge">
<title>comment_stars:comment_post_id&#45;&gt;comments:post_id</title>
<path fill="none" stroke="black" d="M1084.45,-1219.92C1138.67,-1209.97 1114.89,-1117.66 1073.25,-1069.8 980.21,-962.87 850.77,-1130.5 757.69,-1023.6 718.17,-978.21 696.51,-888.2 756.69,-888.2"/>
<polygon fill="black" stroke="black" points="1084.54,-1219.92 1074.2,-1216.29 1079.23,-1220.37 1074.91,-1220.74 1074.91,-1220.74 1074.91,-1220.74 1079.23,-1220.37 1074.97,-1225.25 1084.54,-1219.92"/>
<text text-anchor="start" x="362.04" y="-1230.8" font-family="M+ 1p light" font-size="10.00">FOREIGN KEY (comment_post_id, comment_user_id) REFERENCES comments (post_id, user_id) ON UPDATE NO ACTION ON DELETE NO ACTION MATCH NONE</text>
</g>
<!-- logs -->
<g id="node6" class="node">
<title>logs</title>
<polygon fill="#efefef" stroke="none" points="1178.12,-1318.4 1178.12,-1354 1362.02,-1354 1362.02,-1318.4 1178.12,-1318.4"/>
<polygon fill="none" stroke="black" points="1178.12,-1318.4 1178.12,-1354 1362.02,-1354 1362.02,-1318.4 1178.12,-1318.4"/>
<text text-anchor="start" x="1222.8" y="-1331.8" font-family="M+ 1p light Bold" font-size="18.00">logs</text>
<text text-anchor="start" x="1252.81" y="-1331.8" font-family="M+ 1p light" font-size="14.00">    </text>
<text text-anchor="start" x="1280.81" y="-1331.8" font-family="M+ 1p light" font-size="14.00" fill="#666666">[table]</text>
<polygon fill="none" stroke="black" points="1178.12,-1287.6 1178.12,-1318.4 1362.02,-1318.4 1362.02,-1287.6 1178.12,-1287.6"/>
<text text-anchor="start" x="1185.12" y="-1299.8" font-family="M+ 1p light" font-size="14.00">id </text>
<text text-anchor="start" x="1199.51" y="-1299.8" font-family="M+ 1p light" font-size="14.00" fill="#666666">[INTEGER]</text>
<polygon fill="none" stroke="black" points="1178.12,-1256.8 1178.12,-1287.6 1362.02,-1287.6 1362.02,-1256.8 1178.12,-1256.8"/>
<text text-anchor="start" x="1185.12" y="-1269" font-family="M+ 1p light" font-size="14.00">user_id </text>
<text text-anchor="start" x="1229.83" y="-1269" font-family="M+ 1p light" font-size="14.00" fill="#666666">[INTEGER]</text>
<polygon fill="none" stroke="black" points="1178.12,-1226 1178.12,-1256.8 1362.02,-1256.8 1362.02,-1226 1178.12,-1226"/>
<text text-anchor="start" x="1185.12" y="-1238.2" font-family="M+ 1p light" font-size="14.00">post_id </text>
<text text-anchor="start" x="1229.85" y="-1238.2" font-family="M+ 1p light" font-size="14.00" fill="#666666">[INTEGER]</text>
<polygon fill="none" stroke="black" points="1178.12,-1195.2 1178.12,-1226 1362.02,-1226 1362.02,-1195.2 1178.12,-1195.2"/>
<text text-anchor="start" x="1185.12" y="-1207.4" font-family="M+ 1p light" font-size="14.00">comment_id </text>
<text text-anchor="start" x="1258.6" y="-1207.4" font-family="M+ 1p light" font-size="14.00" fill="#666666">[INTEGER]</text>
<polygon fill="none" stroke="black" points="1178.12,-1164.4 1178.12,-1195.2 1362.02,-1195.2 1362.02,-1164.4 1178.12,-1164.4"/>
<text text-anchor="start" x="1185.12" y="-1176.6" font-family="M+ 1p light" font-size="14.00">comment_star_id </text>
<text text-anchor="start" x="1285.82" y="-1176.6" font-family="M+ 1p light" font-size="14.00" fill="#666666">[INTEGER]</text>
<polygon fill="none" stroke="black" points="1178.12,-1133.6 1178.12,-1164.4 1362.02,-1164.4 1362.02,-1133.6 1178.12,-1133.6"/>
<text text-anchor="start" x="1185.12" y="-1145.8" font-family="M+ 1p light" font-size="14.00">payload </text>
<text text-anchor="start" x="1232.94" y="-1145.8" font-family="M+ 1p light" font-size="14.00" fill="#666666">[TEXT]</text>
<polygon fill="none" stroke="black" points="1178.12,-1102.8 1178.12,-1133.6 1362.02,-1133.6 1362.02,-1102.8 1178.12,-1102.8"/>
<text text-anchor="start" x="1185.12" y="-1115" font-family="M+ 1p light" font-size="14.00">created </text>
<text text-anchor="start" x="1229.03" y="-1115" font-family="M+ 1p light" font-size="14.00" fill="#666666">[NUMERIC]</text>
</g>
<!-- post_comments -->
<g id="node7" class="node">
<title>post_comments</title>
<polygon fill="#efefef" stroke="none" points="1466.3,-1318.4 1466.3,-1354 1657.83,-1354 1657.83,-1318.4 1466.3,-1318.4"/>
<polygon fill="none" stroke="black" points="1466.3,-1318.4 1466.3,-1354 1657.83,-1354 1657.83,-1318.4 1466.3,-1318.4"/>
<text text-anchor="start" x="1473.3" y="-1331.8" font-family="M+ 1p light Bold" font-size="18.00">post_comments</text>
<text text-anchor="start" x="1586.3" y="-1331.8" font-family="M+ 1p light" font-size="14.00">    </text>
<text text-anchor="start" x="1614.3" y="-1331.8" font-family="M+ 1p light" font-size="14.00" fill="#666666">[view]</text>
<polygon fill="none" stroke="black" points="1466.3,-1287.6 1466.3,-1318.4 1657.83,-1318.4 1657.83,-1287.6 1466.3,-1287.6"/>
<text text-anchor="start" x="1473.3" y="-1299.8" font-family="M+ 1p light" font-size="14.00">id </text>
<text text-anchor="start" x="1487.69" y="-1299.8" font-family="M+ 1p light" font-size="14.00" fill="#666666">[INTEGER]</text>
<polygon fill="none" stroke="black" points="1466.3,-1256.8 1466.3,-1287.6 1657.83,-1287.6 1657.83,-1256.8 1466.3,-1256.8"/>
<text text-anchor="start" x="1473.3" y="-1269" font-family="M+ 1p light" font-size="14.00">title </text>
<text text-anchor="start" x="1498.58" y="-1269" font-family="M+ 1p light" font-size="14.00" fill="#666666">[TEXT]</text>
<polygon fill="none" stroke="black" points="1466.3,-1226 1466.3,-1256.8 1657.83,-1256.8 1657.83,-1226 1466.3,-1226"/>
<text text-anchor="start" x="1473.3" y="-1238.2" font-family="M+ 1p light" font-size="14.00">post_user </text>
<text text-anchor="start" x="1530.47" y="-1238.2" font-family="M+ 1p light" font-size="14.00" fill="#666666">[TEXT]</text>
<polygon fill="none" stroke="black" points="1466.3,-1195.2 1466.3,-1226 1657.83,-1226 1657.83,-1195.2 1466.3,-1195.2"/>
<text text-anchor="start" x="1473.3" y="-1207.4" font-family="M+ 1p light" font-size="14.00">comment </text>
<text text-anchor="start" x="1528.9" y="-1207.4" font-family="M+ 1p light" font-size="14.00" fill="#666666">[TEXT]</text>
<polygon fill="none" stroke="black" points="1466.3,-1164.4 1466.3,-1195.2 1657.83,-1195.2 1657.83,-1164.4 1466.3,-1164.4"/>
<text text-anchor="start" x="1473.3" y="-1176.6" font-family="M+ 1p light" font-size="14.00">comment_user </text>
<text text-anchor="start" x="1559.22" y="-1176.6" font-family="M+ 1p light" font-size="14.00" fill="#666666">[TEXT]</text>
<polygon fill="none" stroke="black" points="1466.3,-1133.6 1466.3,-1164.4 1657.83,-1164.4 1657.83,-1133.6 1466.3,-1133.6"/>
<text text-anchor="start" x="1473.3" y="-1145.8" font-family="M+ 1p light" font-size="14.00">created </text>
<text text-anchor="start" x="1517.21" y="-1145.8" font-family="M+ 1p light" font-size="14.00" fill="#666666">[NUMERIC]</text>
<polygon fill="none" stroke="black" points="1466.3,-1102.8 1466.3,-1133.6 1657.83,-1133.6 1657.83,-1102.8 1466.3,-1102.8"/>
<text text-anchor="start" x="1473.3" y="-1115" font-family="M+ 1p light" font-size="14.00">updated </text>
<text text-anchor="start" x="1521.12" y="-1115" font-family="M+ 1p light" font-size="14.00" fill="#666666">[NUMERIC]</text>
</g>
<!-- CamelizeTable -->
<g id="node8" class="node">
<title>CamelizeTable</title>
<polygon fill="#efefef" stroke="none" points="1762.33,-1241.4 1762.33,-1277 1949.8,-1277 1949.8,-1241.4 1762.33,-1241.4"/>
<polygon fill="none" stroke="black" points="1762.33,-1241.4 1762.33,-1277 1949.8,-1277 1949.8,-1241.4 1762.33,-1241.4"/>
<text text-anchor="start" x="1769.33" y="-1254.8" font-family="M+ 1p light Bold" font-size="18.00">CamelizeTable</text>
<text text-anchor="start" x="1878.27" y="-1254.8" font-family="M+ 1p light" font-size="14.00">    </text>
<text text-anchor="start" x="1906.27" y="-1254.8" font-family="M+ 1p light" font-size="14.00" fill="#666666">[table]</text>
<polygon fill="none" stroke="black" points="1762.33,-1210.6 1762.33,-1241.4 1949.8,-1241.4 1949.8,-1210.6 1762.33,-1210.6"/>
<text text-anchor="start" x="1769.33" y="-1222.8" font-family="M+ 1p light" font-size="14.00">id </text>
<text text-anchor="start" x="1783.72" y="-1222.8" font-family="M+ 1p light" font-size="14.00" fill="#666666">[INTEGER]</text>
<polygon fill="none" stroke="black" points="1762.33,-1179.8 1762.33,-1210.6 1949.8,-1210.6 1949.8,-1179.8 1762.33,-1179.8"/>
<text text-anchor="start" x="1769.33" y="-1192" font-family="M+ 1p light" font-size="14.00">created </text>
<text text-anchor="start" x="1813.24" y="-1192" font-family="M+ 1p light" font-size="14.00" fill="#666666">[NUMERIC]</text>
</g>
<!-- hyphen&#45;table -->
<g id="node9" class="node">
<title>hyphen&#45;table</title>
<polygon fill="#efefef" stroke="none" points="2053.82,-1256.8 2053.82,-1292.4 2226.32,-1292.4 2226.32,-1256.8 2053.82,-1256.8"/>
<polygon fill="none" stroke="black" points="2053.82,-1256.8 2053.82,-1292.4 2226.32,-1292.4 2226.32,-1256.8 2053.82,-1256.8"/>
<text text-anchor="start" x="2060.82" y="-1270.2" font-family="M+ 1p light Bold" font-size="18.00">hyphen&#45;table</text>
<text text-anchor="start" x="2154.79" y="-1270.2" font-family="M+ 1p light" font-size="14.00">    </text>
<text text-anchor="start" x="2182.79" y="-1270.2" font-family="M+ 1p light" font-size="14.00" fill="#666666">[table]</text>
<polygon fill="none" stroke="black" points="2053.82,-1226 2053.82,-1256.8 2226.32,-1256.8 2226.32,-1226 2053.82,-1226"/>
<text text-anchor="start" x="2060.82" y="-1238.2" font-family="M+ 1p light" font-size="14.00">id </text>
<text text-anchor="start" x="2075.21" y="-1238.2" font-family="M+ 1p light" font-size="14.00" fill="#666666">[INTEGER]</text>
<polygon fill="none" stroke="black" points="2053.82,-1195.2 2053.82,-1226 2226.32,-1226 2226.32,-1195.2 2053.82,-1195.2"/>
<text text-anchor="start" x="2060.82" y="-1207.4" font-family="M+ 1p light" font-size="14.00">hyphen&#45;column </text>
<text text-anchor="start" x="2152.19" y="-1207.4" font-family="M+ 1p light" font-size="14.00" fill="#666666">[TEXT]</text>
<polygon fill="none" stroke="black" points="2053.82,-1164.4 2053.82,-1195.2 2226.32,-1195.2 2226.32,-1164.4 2053.82,-1164.4"/>
<text text-anchor="start" x="2060.82" y="-1176.6" font-family="M+ 1p light" font-size="14.00">created </text>
<text text-anchor="start" x="2104.73" y="-1176.6" font-family="M+ 1p light" font-size="14.00" fill="#666666">[NUMERIC]</text>
</g>
<!-- check_constraints -->
<g id="node10" class="node">
<title>check_constraints</title>
<polygon fill="#efefef" stroke="none" points="2330.33,-1303 2330.33,-1338.6 2537.81,-1338.6 2537.81,-1303 2330.33,-1303"/>
<polygon fill="none" stroke="black" points="2330.33,-1303 2330.33,-1338.6 2537.81,-1338.6 2537.81,-1303 2330.33,-1303"/>
<text text-anchor="start" x="2337.33" y="-1316.4" font-family="M+ 1p light Bold" font-size="18.00">check_constraints</text>
<text text-anchor="start" x="2466.28" y="-1316.4" font-family="M+ 1p light" font-size="14.00">    </text>
<text text-anchor="start" x="2494.28" y="-1316.4" font-family="M+ 1p light" font-size="14.00" fill="#666666">[table]</text>
<polygon fill="none" stroke="black" points="2330.33,-1272.2 2330.33,-1303 2537.81,-1303 2537.81,-1272.2 2330.33,-1272.2"/>
<text text-anchor="start" x="2337.33" y="-1284.4" font-family="M+ 1p light" font-size="14.00">id </text>
<text text-anchor="start" x="2351.72" y="-1284.4" font-family="M+ 1p light" font-size="14.00" fill="#666666">[INTEGER]</text>
<polygon fill="none" stroke="black" points="2330.33,-1241.4 2330.33,-1272.2 2537.81,-1272.2 2537.81,-1241.4 2330.33,-1241.4"/>
<text text-anchor="start" x="2337.33" y="-1253.6" font-family="M+ 1p light" font-size="14.00">col </text>
<text text-anchor="start" x="2357.93" y="-1253.6" font-family="M+ 1p light" font-size="14.00" fill="#666666">[TEXT]</text>
<polygon fill="none" stroke="black" points="2330.33,-1210.6 2330.33,-1241.4 2537.81,-1241.4 2537.81,-1210.6 2330.33,-1210.6"/>
<text text-anchor="start" x="2337.33" y="-1222.8" font-family="M+ 1p light" font-size="14.00">brackets </text>
<text text-anchor="start" x="2387.47" y="-1222.8" font-family="M+ 1p light" font-size="14.00" fill="#666666">[TEXT]</text>
<polygon fill="none" stroke="black" points="2330.33,-1179.8 2330.33,-1210.6 2537.81,-1210.6 2537.81,-1179.8 2330.33,-1179.8"/>
<text text-anchor="start" x="2337.33" y="-1192" font-family="M+ 1p light" font-size="14.00">checkcheck </text>
<text text-anchor="start" x="2406.11" y="-1192" font-family="M+ 1p light" font-size="14.00" fill="#666666">[TEXT]</text>
<polygon fill="none" stroke="black" points="2330.33,-1149 2330.33,-1179.8 2537.81,-1179.8 2537.81,-1149 2330.33,-1149"/>
<text text-anchor="start" x="2337.33" y="-1161.2" font-family="M+ 1p light" font-size="14.00">downcase </text>
<text text-anchor="start" x="2396.03" y="-1161.2" font-family="M+ 1p light" font-size="14.00" fill="#666666">[TEXT]</text>
<polygon fill="none" stroke="black" points="2330.33,-1118.2 2330.33,-1149 2537.81,-1149 2537.81,-1118.2 2330.33,-1118.2"/>
<text text-anchor="start" x="2337.33" y="-1130.4" font-family="M+ 1p light" font-size="14.00">nl </text>
<text text-anchor="start" x="2351.72" y="-1130.4" font-family="M+ 1p light" font-size="14.00" fill="#666666">[TEXT]</text>
</g>
<!-- syslog -->
<g id="node11" class="node">
<title>syslog</title>
<polygon fill="#efefef" stroke="none" points="2641.78,-1226 2641.78,-1261.6 2806.36,-1261.6 2806.36,-1226 2641.78,-1226"/>
<polygon fill="none" stroke="black" points="2641.78,-1226 2641.78,-1261.6 2806.36,-1261.6 2806.36,-1226 2641.78,-1226"/>
<text text-anchor="start" x="2648.78" y="-1239.4" font-family="M+ 1p light Bold" font-size="18.00">syslog</text>
<text text-anchor="start" x="2694.79" y="-1239.4" font-family="M+ 1p light" font-size="14.00">    </text>
<text text-anchor="start" x="2722.79" y="-1239.4" font-family="M+ 1p light" font-size="14.00" fill="#666666">[virtual table]</text>
<polygon fill="none" stroke="black" points="2641.78,-1195.2 2641.78,-1226 2806.36,-1226 2806.36,-1195.2 2641.78,-1195.2"/>
<text text-anchor="start" x="2648.78" y="-1207.4" font-family="M+ 1p light" font-size="14.00">logs </text>
<text text-anchor="start" x="2675.61" y="-1207.4" font-family="M+ 1p light" font-size="14.00" fill="#666666">[]</text>
</g>
<!-- access_log -->
<g id="node12" class="node">
<title>access_log</title>
<polygon fill="#efefef" stroke="none" points="2910.8,-1226 2910.8,-1261.6 3107.34,-1261.6 3107.34,-1226 2910.8,-1226"/>
<polygon fill="none" stroke="black" points="2910.8,-1226 2910.8,-1261.6 3107.34,-1261.6 3107.34,-1226 2910.8,-1226"/>
<text text-anchor="start" x="2917.8" y="-1239.4" font-family="M+ 1p light Bold" font-size="18.00">access_log</text>
<text text-anchor="start" x="2995.76" y="-1239.4" font-family="M+ 1p light" font-size="14.00">    </text>
<text text-anchor="start" x="3023.76" y="-1239.4" font-family="M+ 1p light" font-size="14.00" fill="#666666">[virtual table]</text>
<polygon fill="none" stroke="black" points="2910.8,-1195.2 2910.8,-1226 3107.34,-1226 3107.34,-1195.2 2910.8,-1195.2"/>
<text text-anchor="start" x="2917.8" y="-1207.4" font-family="M+ 1p light" font-size="14.00">logs </text>
<text text-anchor="start" x="2944.63" y="-1207.4" font-family="M+ 1p light" font-size="14.00" fill="#666666">[]</text>
</g>
</g>
</svg>
