<?xml version="1.0" encoding="UTF-8" standalone="no"?>
<!DOCTYPE svg PUBLIC "-//W3C//DTD SVG 1.1//EN"
 "http://www.w3.org/Graphics/SVG/1.1/DTD/svg11.dtd">
<!-- Generated by graphviz version 2.40.1 (20161225.0304)
 -->
<!-- Title: comment Pages: 1 -->
<svg width="800pt" height="706pt"
 viewBox="0.00 0.00 799.50 706.00" xmlns="http://www.w3.org/2000/svg" xmlns:xlink="http://www.w3.org/1999/xlink">
<g id="graph0" class="graph" transform="scale(1 1) rotate(0) translate(4 702)">
<title>comment</title>
<polygon fill="#ffffff" stroke="transparent" points="-4,4 -4,-702 795.5,-702 795.5,4 -4,4"/>
<!-- comment_stars -->
<g id="node1" class="node">
<title>comment_stars</title>
<polygon fill="#efefef" stroke="transparent" points="221,-604.5 221,-639.5 455,-639.5 455,-604.5 221,-604.5"/>
<polygon fill="none" stroke="#000000" points="221,-604.5 221,-639.5 455,-639.5 455,-604.5 221,-604.5"/>
<text text-anchor="start" x="227.8671" y="-617.3" font-family="Arial Bold" font-size="18.00" fill="#000000">comment_stars</text>
<text text-anchor="start" x="350.8791" y="-617.3" font-family="Arial" font-size="14.00" fill="#000000"> </text>
<text text-anchor="start" x="354.7697" y="-617.3" font-family="Arial" font-size="14.00" fill="#666666">[BASE TABLE]</text>
<polygon fill="none" stroke="#000000" points="221,-574.5 221,-604.5 455,-604.5 455,-574.5 221,-574.5"/>
<text text-anchor="start" x="228" y="-585.9" font-family="Arial" font-size="14.00" fill="#000000">id </text>
<text text-anchor="start" x="242.7798" y="-585.9" font-family="Arial" font-size="14.00" fill="#666666">[bigint]</text>
<polygon fill="none" stroke="#000000" points="221,-544.5 221,-574.5 455,-574.5 455,-544.5 221,-544.5"/>
<text text-anchor="start" x="228" y="-555.9" font-family="Arial" font-size="14.00" fill="#000000">user_id </text>
<text text-anchor="start" x="277.7882" y="-555.9" font-family="Arial" font-size="14.00" fill="#666666">[int]</text>
<polygon fill="none" stroke="#000000" points="221,-514.5 221,-544.5 455,-544.5 455,-514.5 221,-514.5"/>
<text text-anchor="start" x="228" y="-525.9" font-family="Arial" font-size="14.00" fill="#000000">comment_post_id </text>
<text text-anchor="start" x="342.3604" y="-525.9" font-family="Arial" font-size="14.00" fill="#666666">[bigint]</text>
<polygon fill="none" stroke="#000000" points="221,-484.5 221,-514.5 455,-514.5 455,-484.5 221,-484.5"/>
<text text-anchor="start" x="228" y="-495.9" font-family="Arial" font-size="14.00" fill="#000000">comment_user_id </text>
<text text-anchor="start" x="343.1304" y="-495.9" font-family="Arial" font-size="14.00" fill="#666666">[int]</text>
<polygon fill="none" stroke="#000000" points="221,-454.5 221,-484.5 455,-484.5 455,-454.5 221,-454.5"/>
<text text-anchor="start" x="228" y="-465.9" font-family="Arial" font-size="14.00" fill="#000000">created </text>
<text text-anchor="start" x="278.5722" y="-465.9" font-family="Arial" font-size="14.00" fill="#666666">[timestamp]</text>
<polygon fill="none" stroke="#000000" points="221,-424.5 221,-454.5 455,-454.5 455,-424.5 221,-424.5"/>
<text text-anchor="start" x="228" y="-435.9" font-family="Arial" font-size="14.00" fill="#000000">updated </text>
<text text-anchor="start" x="282.4768" y="-435.9" font-family="Arial" font-size="14.00" fill="#666666">[timestamp]</text>
</g>
<!-- comments -->
<g id="node2" class="node">
<title>comments</title>
<polygon fill="#efefef" stroke="transparent" points="241,-252.5 241,-287.5 435,-287.5 435,-252.5 241,-252.5"/>
<polygon fill="none" stroke="#000000" points="241,-252.5 241,-287.5 435,-287.5 435,-252.5 241,-252.5"/>
<text text-anchor="start" x="247.8705" y="-265.3" font-family="Arial Bold" font-size="18.00" fill="#000000">comments</text>
<text text-anchor="start" x="330.8757" y="-265.3" font-family="Arial" font-size="14.00" fill="#000000"> </text>
<text text-anchor="start" x="334.7663" y="-265.3" font-family="Arial" font-size="14.00" fill="#666666">[BASE TABLE]</text>
<polygon fill="none" stroke="#000000" points="241,-222.5 241,-252.5 435,-252.5 435,-222.5 241,-222.5"/>
<text text-anchor="start" x="248" y="-233.9" font-family="Arial" font-size="14.00" fill="#000000">id </text>
<text text-anchor="start" x="262.7798" y="-233.9" font-family="Arial" font-size="14.00" fill="#666666">[bigint]</text>
<polygon fill="none" stroke="#000000" points="241,-192.5 241,-222.5 435,-222.5 435,-192.5 241,-192.5"/>
<text text-anchor="start" x="248" y="-203.9" font-family="Arial" font-size="14.00" fill="#000000">post_id </text>
<text text-anchor="start" x="297.0182" y="-203.9" font-family="Arial" font-size="14.00" fill="#666666">[bigint]</text>
<polygon fill="none" stroke="#000000" points="241,-162.5 241,-192.5 435,-192.5 435,-162.5 241,-162.5"/>
<text text-anchor="start" x="248" y="-173.9" font-family="Arial" font-size="14.00" fill="#000000">user_id </text>
<text text-anchor="start" x="297.7882" y="-173.9" font-family="Arial" font-size="14.00" fill="#666666">[int]</text>
<polygon fill="none" stroke="#000000" points="241,-132.5 241,-162.5 435,-162.5 435,-132.5 241,-132.5"/>
<text text-anchor="start" x="248" y="-143.9" font-family="Arial" font-size="14.00" fill="#000000">comment </text>
<text text-anchor="start" x="309.4502" y="-143.9" font-family="Arial" font-size="14.00" fill="#666666">[text]</text>
<polygon fill="none" stroke="#000000" points="241,-102.5 241,-132.5 435,-132.5 435,-102.5 241,-102.5"/>
<text text-anchor="start" x="248" y="-113.9" font-family="Arial" font-size="14.00" fill="#000000">post_id_desc </text>
<text text-anchor="start" x="334.366" y="-113.9" font-family="Arial" font-size="14.00" fill="#666666">[bigint]</text>
<polygon fill="none" stroke="#000000" points="241,-72.5 241,-102.5 435,-102.5 435,-72.5 241,-72.5"/>
<text text-anchor="start" x="248" y="-83.9" font-family="Arial" font-size="14.00" fill="#000000">created </text>
<text text-anchor="start" x="298.5722" y="-83.9" font-family="Arial" font-size="14.00" fill="#666666">[datetime]</text>
<polygon fill="none" stroke="#000000" points="241,-42.5 241,-72.5 435,-72.5 435,-42.5 241,-42.5"/>
<text text-anchor="start" x="248" y="-53.9" font-family="Arial" font-size="14.00" fill="#000000">updated </text>
<text text-anchor="start" x="302.4768" y="-53.9" font-family="Arial" font-size="14.00" fill="#666666">[datetime]</text>
</g>
<!-- comment_stars&#45;&gt;comments -->
<g id="edge1" class="edge">
<title>comment_stars:comment_post_id&#45;&gt;comments:post_id</title>
<path fill="none" stroke="#000000" d="M464.8508,-527.2718C524.6171,-498.8224 503.1928,-207.5 435,-207.5"/>
<polygon fill="#000000" stroke="#000000" points="464.7536,-527.2938 454.0072,-525.1109 459.8768,-528.3969 455,-529.5 455,-529.5 455,-529.5 459.8768,-528.3969 455.9928,-533.8891 464.7536,-527.2938 464.7536,-527.2938"/>
<text text-anchor="start" x="7.1435" y="-539.5" font-family="Arial" font-size="10.00" fill="#000000">FOREIGN KEY (comment_post_id, comment_user_id) REFERENCES comments (post_id, user_id)</text>
</g>
<!-- post_comments -->
<g id="node3" class="node">
<title>post_comments</title>
<polygon fill="#efefef" stroke="transparent" points="560,-619.5 560,-654.5 749,-654.5 749,-619.5 560,-619.5"/>
<polygon fill="none" stroke="#000000" points="560,-619.5 560,-654.5 749,-654.5 749,-619.5 560,-619.5"/>
<text text-anchor="start" x="567.2619" y="-632.3" font-family="Arial Bold" font-size="18.00" fill="#000000">post_comments</text>
<text text-anchor="start" x="694.2879" y="-632.3" font-family="Arial" font-size="14.00" fill="#000000"> </text>
<text text-anchor="start" x="698.1785" y="-632.3" font-family="Arial" font-size="14.00" fill="#666666">[VIEW]</text>
<polygon fill="none" stroke="#000000" points="560,-589.5 560,-619.5 749,-619.5 749,-589.5 560,-589.5"/>
<text text-anchor="start" x="567" y="-600.9" font-family="Arial" font-size="14.00" fill="#000000">id </text>
<text text-anchor="start" x="581.7798" y="-600.9" font-family="Arial" font-size="14.00" fill="#666666">[bigint]</text>
<polygon fill="none" stroke="#000000" points="560,-559.5 560,-589.5 749,-589.5 749,-559.5 560,-559.5"/>
<text text-anchor="start" x="567" y="-570.9" font-family="Arial" font-size="14.00" fill="#000000">title </text>
<text text-anchor="start" x="592.6676" y="-570.9" font-family="Arial" font-size="14.00" fill="#666666">[varchar(255)]</text>
<polygon fill="none" stroke="#000000" points="560,-529.5 560,-559.5 749,-559.5 749,-529.5 560,-529.5"/>
<text text-anchor="start" x="567" y="-540.9" font-family="Arial" font-size="14.00" fill="#000000">post_user </text>
<text text-anchor="start" x="632.3548" y="-540.9" font-family="Arial" font-size="14.00" fill="#666666">[varchar(50)]</text>
<polygon fill="none" stroke="#000000" points="560,-499.5 560,-529.5 749,-529.5 749,-499.5 560,-499.5"/>
<text text-anchor="start" x="567" y="-510.9" font-family="Arial" font-size="14.00" fill="#000000">comment </text>
<text text-anchor="start" x="628.4502" y="-510.9" font-family="Arial" font-size="14.00" fill="#666666">[text]</text>
<polygon fill="none" stroke="#000000" points="560,-469.5 560,-499.5 749,-499.5 749,-469.5 560,-469.5"/>
<text text-anchor="start" x="566.6024" y="-480.9" font-family="Arial" font-size="14.00" fill="#000000">comment_user </text>
<text text-anchor="start" x="663.061" y="-480.9" font-family="Arial" font-size="14.00" fill="#666666">[varchar(50)]</text>
<polygon fill="none" stroke="#000000" points="560,-439.5 560,-469.5 749,-469.5 749,-439.5 560,-439.5"/>
<text text-anchor="start" x="567" y="-450.9" font-family="Arial" font-size="14.00" fill="#000000">created </text>
<text text-anchor="start" x="617.5722" y="-450.9" font-family="Arial" font-size="14.00" fill="#666666">[datetime]</text>
<polygon fill="none" stroke="#000000" points="560,-409.5 560,-439.5 749,-439.5 749,-409.5 560,-409.5"/>
<text text-anchor="start" x="567" y="-420.9" font-family="Arial" font-size="14.00" fill="#000000">updated </text>
<text text-anchor="start" x="621.4768" y="-420.9" font-family="Arial" font-size="14.00" fill="#666666">[datetime]</text>
</g>
</g>
</svg>
