<?xml version="1.0" encoding="UTF-8" standalone="no"?>
<!DOCTYPE svg PUBLIC "-//W3C//DTD SVG 1.1//EN"
 "http://www.w3.org/Graphics/SVG/1.1/DTD/svg11.dtd">
<!-- Generated by graphviz version 2.40.1 (20161225.0304)
 -->
<!-- Title: option Pages: 1 -->
<svg width="893pt" height="129pt"
 viewBox="0.00 0.00 892.50 129.00" xmlns="http://www.w3.org/2000/svg" xmlns:xlink="http://www.w3.org/1999/xlink">
<g id="graph0" class="graph" transform="scale(1 1) rotate(0) translate(4 125)">
<title>option</title>
<polygon fill="#ffffff" stroke="transparent" points="-4,4 -4,-125 888.5,-125 888.5,4 -4,4"/>
<!-- CamelizeTable -->
<g id="node1" class="node">
<title>CamelizeTable</title>
<polygon fill="#efefef" stroke="transparent" points="43.5,-42.5 43.5,-77.5 274.5,-77.5 274.5,-42.5 43.5,-42.5"/>
<polygon fill="none" stroke="#000000" points="43.5,-42.5 43.5,-77.5 274.5,-77.5 274.5,-42.5 43.5,-42.5"/>
<text text-anchor="start" x="50.3719" y="-55.3" font-family="Arial Bold" font-size="18.00" fill="#000000">CamelizeTable</text>
<text text-anchor="start" x="170.3743" y="-55.3" font-family="Arial" font-size="14.00" fill="#000000"> </text>
<text text-anchor="start" x="174.2649" y="-55.3" font-family="Arial" font-size="14.00" fill="#666666">[BASE TABLE]</text>
</g>
<!-- hyphen&#45;table -->
<g id="node2" class="node">
<title>hyphen&#45;table</title>
<polygon fill="#efefef" stroke="transparent" points="378.5,-42.5 378.5,-77.5 593.5,-77.5 593.5,-42.5 378.5,-42.5"/>
<polygon fill="none" stroke="#000000" points="378.5,-42.5 378.5,-77.5 593.5,-77.5 593.5,-42.5 378.5,-42.5"/>
<text text-anchor="start" x="385.354" y="-55.3" font-family="Arial Bold" font-size="18.00" fill="#000000">hyphen&#45;table</text>
<text text-anchor="start" x="489.3922" y="-55.3" font-family="Arial" font-size="14.00" fill="#000000"> </text>
<text text-anchor="start" x="493.2828" y="-55.3" font-family="Arial" font-size="14.00" fill="#666666">[BASE TABLE]</text>
</g>
<!-- logs -->
<g id="node3" class="node">
<title>logs</title>
<polygon fill="#efefef" stroke="transparent" points="697.5,-42.5 697.5,-77.5 841.5,-77.5 841.5,-42.5 697.5,-42.5"/>
<polygon fill="none" stroke="#000000" points="697.5,-42.5 697.5,-77.5 841.5,-77.5 841.5,-42.5 697.5,-42.5"/>
<text text-anchor="start" x="704.3698" y="-55.3" font-family="Arial Bold" font-size="18.00" fill="#000000">logs</text>
<text text-anchor="start" x="737.3764" y="-55.3" font-family="Arial" font-size="14.00" fill="#000000"> </text>
<text text-anchor="start" x="741.267" y="-55.3" font-family="Arial" font-size="14.00" fill="#666666">[BASE TABLE]</text>
</g>
</g>
</svg>
