<?xml version="1.0" encoding="UTF-8" standalone="no"?>
<!DOCTYPE svg PUBLIC "-//W3C//DTD SVG 1.1//EN"
 "http://www.w3.org/Graphics/SVG/1.1/DTD/svg11.dtd">
<!-- Generated by graphviz version 12.1.2 (20240928.0832)
 -->
<!-- Title: orders Pages: 1 -->
<svg width="364pt" height="976pt"
 viewBox="0.00 0.00 364.04 975.60" xmlns="http://www.w3.org/2000/svg" xmlns:xlink="http://www.w3.org/1999/xlink">
<g id="graph0" class="graph" transform="scale(1 1) rotate(0) translate(4 971.6)">
<title>orders</title>
<polygon fill="white" stroke="none" points="-4,4 -4,-971.6 360.04,-971.6 360.04,4 -4,4"/>
<!-- orders -->
<g id="node1" class="node">
<title>orders</title>
<polygon fill="#efefef" stroke="none" points="63.7,-543 63.7,-578.6 251.83,-578.6 251.83,-543 63.7,-543"/>
<polygon fill="none" stroke="black" points="63.7,-543 63.7,-578.6 251.83,-578.6 251.83,-543 63.7,-543"/>
<text text-anchor="start" x="70.7" y="-556.4" font-family="Arial Bold" font-size="18.00">orders</text>
<text text-anchor="start" x="115.68" y="-556.4" font-family="Arial" font-size="14.00">    </text>
<text text-anchor="start" x="146.8" y="-556.4" font-family="Arial" font-size="14.00" fill="#666666">[BASIC TABLE]</text>
<polygon fill="none" stroke="black" points="63.7,-512.2 63.7,-543 251.83,-543 251.83,-512.2 63.7,-512.2"/>
<text text-anchor="start" x="70.7" y="-524.4" font-family="Arial" font-size="14.00">id </text>
<text text-anchor="start" x="85.48" y="-524.4" font-family="Arial" font-size="14.00" fill="#666666">[int]</text>
<polygon fill="none" stroke="black" points="63.7,-481.4 63.7,-512.2 251.83,-512.2 251.83,-481.4 63.7,-481.4"/>
<text text-anchor="start" x="70.7" y="-493.6" font-family="Arial" font-size="14.00">user_id </text>
<text text-anchor="start" x="120.5" y="-493.6" font-family="Arial" font-size="14.00" fill="#666666">[int]</text>
<polygon fill="none" stroke="black" points="63.7,-450.6 63.7,-481.4 251.83,-481.4 251.83,-450.6 63.7,-450.6"/>
<text text-anchor="start" x="70.7" y="-462.8" font-family="Arial" font-size="14.00">total_amount </text>
<text text-anchor="start" x="155.53" y="-462.8" font-family="Arial" font-size="14.00" fill="#666666">[decimal]</text>
<polygon fill="none" stroke="black" points="63.7,-419.8 63.7,-450.6 251.83,-450.6 251.83,-419.8 63.7,-419.8"/>
<text text-anchor="start" x="70.7" y="-432" font-family="Arial" font-size="14.00">status </text>
<text text-anchor="start" x="111.94" y="-432" font-family="Arial" font-size="14.00" fill="#666666">[varchar(20)]</text>
<polygon fill="none" stroke="black" points="63.7,-389 63.7,-419.8 251.83,-419.8 251.83,-389 63.7,-389"/>
<text text-anchor="start" x="70.7" y="-401.2" font-family="Arial" font-size="14.00">created </text>
<text text-anchor="start" x="121.28" y="-401.2" font-family="Arial" font-size="14.00" fill="#666666">[date]</text>
<polygon fill="none" stroke="black" points="63.7,-358.2 63.7,-389 251.83,-389 251.83,-358.2 63.7,-358.2"/>
<text text-anchor="start" x="70.7" y="-370.4" font-family="Arial" font-size="14.00">updated </text>
<text text-anchor="start" x="125.19" y="-370.4" font-family="Arial" font-size="14.00" fill="#666666">[date]</text>
<polygon fill="none" stroke="black" stroke-width="3" points="62.2,-356.7 62.2,-580.1 253.33,-580.1 253.33,-356.7 62.2,-356.7"/>
</g>
<!-- users -->
<g id="node3" class="node">
<title>users</title>
<polygon fill="#efefef" stroke="none" points="67.69,-197.2 67.69,-232.8 247.84,-232.8 247.84,-197.2 67.69,-197.2"/>
<polygon fill="none" stroke="black" points="67.69,-197.2 67.69,-232.8 247.84,-232.8 247.84,-197.2 67.69,-197.2"/>
<text text-anchor="start" x="74.69" y="-210.6" font-family="Arial Bold" font-size="18.00">users</text>
<text text-anchor="start" x="111.68" y="-210.6" font-family="Arial" font-size="14.00">    </text>
<text text-anchor="start" x="142.8" y="-210.6" font-family="Arial" font-size="14.00" fill="#666666">[BASIC TABLE]</text>
<polygon fill="none" stroke="black" points="67.69,-166.4 67.69,-197.2 247.84,-197.2 247.84,-166.4 67.69,-166.4"/>
<text text-anchor="start" x="74.69" y="-178.6" font-family="Arial" font-size="14.00">id </text>
<text text-anchor="start" x="89.48" y="-178.6" font-family="Arial" font-size="14.00" fill="#666666">[int]</text>
<polygon fill="none" stroke="black" points="67.69,-135.6 67.69,-166.4 247.84,-166.4 247.84,-135.6 67.69,-135.6"/>
<text text-anchor="start" x="74.69" y="-147.8" font-family="Arial" font-size="14.00">username </text>
<text text-anchor="start" x="140.84" y="-147.8" font-family="Arial" font-size="14.00" fill="#666666">[varchar(50)]</text>
<polygon fill="none" stroke="black" points="67.69,-104.8 67.69,-135.6 247.84,-135.6 247.84,-104.8 67.69,-104.8"/>
<text text-anchor="start" x="74.69" y="-117" font-family="Arial" font-size="14.00">email </text>
<text text-anchor="start" x="112.04" y="-117" font-family="Arial" font-size="14.00" fill="#666666">[varchar(355)]</text>
<polygon fill="none" stroke="black" points="67.69,-74 67.69,-104.8 247.84,-104.8 247.84,-74 67.69,-74"/>
<text text-anchor="start" x="74.69" y="-86.2" font-family="Arial" font-size="14.00">created </text>
<text text-anchor="start" x="125.28" y="-86.2" font-family="Arial" font-size="14.00" fill="#666666">[date]</text>
<polygon fill="none" stroke="black" points="67.69,-43.2 67.69,-74 247.84,-74 247.84,-43.2 67.69,-43.2"/>
<text text-anchor="start" x="74.69" y="-55.4" font-family="Arial" font-size="14.00">updated </text>
<text text-anchor="start" x="129.19" y="-55.4" font-family="Arial" font-size="14.00" fill="#666666">[date]</text>
</g>
<!-- orders&#45;&gt;users -->
<g id="edge2" class="edge">
<title>orders:user_id&#45;&gt;users:id</title>
<path fill="none" stroke="black" d="M263.22,-496.2C392.55,-481.01 385.29,-181.8 248.84,-181.8"/>
<polygon fill="black" stroke="black" points="263.15,-496.2 252.9,-492.29 257.82,-496.51 253.5,-496.76 253.5,-496.76 253.5,-496.76 257.82,-496.51 253.42,-501.27 263.15,-496.2"/>
</g>
<!-- order_items -->
<g id="node2" class="node">
<title>order_items</title>
<polygon fill="#efefef" stroke="none" points="43.2,-888.8 43.2,-924.4 272.33,-924.4 272.33,-888.8 43.2,-888.8"/>
<polygon fill="none" stroke="black" points="43.2,-888.8 43.2,-924.4 272.33,-924.4 272.33,-888.8 43.2,-888.8"/>
<text text-anchor="start" x="50.2" y="-902.2" font-family="Arial Bold" font-size="18.00">order_items</text>
<text text-anchor="start" x="136.17" y="-902.2" font-family="Arial" font-size="14.00">    </text>
<text text-anchor="start" x="167.29" y="-902.2" font-family="Arial" font-size="14.00" fill="#666666">[BASIC TABLE]</text>
<polygon fill="none" stroke="black" points="43.2,-858 43.2,-888.8 272.33,-888.8 272.33,-858 43.2,-858"/>
<text text-anchor="start" x="50.2" y="-870.2" font-family="Arial" font-size="14.00">id </text>
<text text-anchor="start" x="64.99" y="-870.2" font-family="Arial" font-size="14.00" fill="#666666">[int]</text>
<polygon fill="none" stroke="black" points="43.2,-827.2 43.2,-858 272.33,-858 272.33,-827.2 43.2,-827.2"/>
<text text-anchor="start" x="50.2" y="-839.4" font-family="Arial" font-size="14.00">order_id </text>
<text text-anchor="start" x="105.45" y="-839.4" font-family="Arial" font-size="14.00" fill="#666666">[int]</text>
<polygon fill="none" stroke="black" points="43.2,-796.4 43.2,-827.2 272.33,-827.2 272.33,-796.4 43.2,-796.4"/>
<text text-anchor="start" x="50.2" y="-808.6" font-family="Arial" font-size="14.00">product_id </text>
<text text-anchor="start" x="119.47" y="-808.6" font-family="Arial" font-size="14.00" fill="#666666">[int]</text>
<polygon fill="none" stroke="black" points="43.2,-765.6 43.2,-796.4 272.33,-796.4 272.33,-765.6 43.2,-765.6"/>
<text text-anchor="start" x="50.2" y="-777.8" font-family="Arial" font-size="14.00">quantity </text>
<text text-anchor="start" x="103.12" y="-777.8" font-family="Arial" font-size="14.00" fill="#666666">[int]</text>
<polygon fill="none" stroke="black" points="43.2,-734.8 43.2,-765.6 272.33,-765.6 272.33,-734.8 43.2,-734.8"/>
<text text-anchor="start" x="50.2" y="-747" font-family="Arial" font-size="14.00">unit_price </text>
<text text-anchor="start" x="114.79" y="-747" font-family="Arial" font-size="14.00" fill="#666666">[decimal]</text>
<polygon fill="none" stroke="black" points="43.2,-704 43.2,-734.8 272.33,-734.8 272.33,-704 43.2,-704"/>
<text text-anchor="start" x="50.2" y="-716.2" font-family="Arial" font-size="14.00">created </text>
<text text-anchor="start" x="100.79" y="-716.2" font-family="Arial" font-size="14.00" fill="#666666">[date]</text>
</g>
<!-- order_items&#45;&gt;orders -->
<g id="edge1" class="edge">
<title>order_items:order_id&#45;&gt;orders:id</title>
<path fill="none" stroke="black" d="M283.32,-840.25C341.26,-811.42 319.42,-527.6 252.83,-527.6"/>
<polygon fill="black" stroke="black" points="283.38,-840.23 272.62,-838.14 278.19,-841.45 273.98,-842.45 273.98,-842.45 273.98,-842.45 278.19,-841.45 274.68,-846.9 283.38,-840.23"/>
</g>
</g>
</svg>
