<?xml version="1.0" encoding="UTF-8" standalone="no"?>
<!DOCTYPE svg PUBLIC "-//W3C//DTD SVG 1.1//EN"
 "http://www.w3.org/Graphics/SVG/1.1/DTD/svg11.dtd">
<!-- Generated by graphviz version 12.1.2 (20240928.0832)
 -->
<!-- Title: order_summary Pages: 1 -->
<svg width="303pt" height="290pt"
 viewBox="0.00 0.00 303.04 290.00" xmlns="http://www.w3.org/2000/svg" xmlns:xlink="http://www.w3.org/1999/xlink">
<g id="graph0" class="graph" transform="scale(1 1) rotate(0) translate(4 286)">
<title>order_summary</title>
<polygon fill="white" stroke="none" points="-4,4 -4,-286 299.04,-286 299.04,4 -4,4"/>
<!-- order_summary -->
<g id="node1" class="node">
<title>order_summary</title>
<polygon fill="#efefef" stroke="none" points="46.2,-200.2 46.2,-235.8 248.84,-235.8 248.84,-200.2 46.2,-200.2"/>
<polygon fill="none" stroke="black" points="46.2,-200.2 46.2,-235.8 248.84,-235.8 248.84,-200.2 46.2,-200.2"/>
<text text-anchor="start" x="53.2" y="-213.6" font-family="Arial Bold" font-size="18.00">order_summary</text>
<text text-anchor="start" x="167.17" y="-213.6" font-family="Arial" font-size="14.00">    </text>
<text text-anchor="start" x="198.28" y="-213.6" font-family="Arial" font-size="14.00" fill="#666666">[VIEW]</text>
<polygon fill="none" stroke="black" points="46.2,-169.4 46.2,-200.2 248.84,-200.2 248.84,-169.4 46.2,-169.4"/>
<text text-anchor="start" x="53.2" y="-181.6" font-family="Arial" font-size="14.00">id </text>
<text text-anchor="start" x="67.99" y="-181.6" font-family="Arial" font-size="14.00" fill="#666666">[int]</text>
<polygon fill="none" stroke="black" points="46.2,-138.6 46.2,-169.4 248.84,-169.4 248.84,-138.6 46.2,-138.6"/>
<text text-anchor="start" x="53.2" y="-150.8" font-family="Arial" font-size="14.00">username </text>
<text text-anchor="start" x="119.34" y="-150.8" font-family="Arial" font-size="14.00" fill="#666666">[varchar(50)]</text>
<polygon fill="none" stroke="black" points="46.2,-107.8 46.2,-138.6 248.84,-138.6 248.84,-107.8 46.2,-107.8"/>
<text text-anchor="start" x="53.2" y="-120" font-family="Arial" font-size="14.00">total_amount </text>
<text text-anchor="start" x="138.03" y="-120" font-family="Arial" font-size="14.00" fill="#666666">[decimal]</text>
<polygon fill="none" stroke="black" points="46.2,-77 46.2,-107.8 248.84,-107.8 248.84,-77 46.2,-77"/>
<text text-anchor="start" x="53.2" y="-89.2" font-family="Arial" font-size="14.00">status </text>
<text text-anchor="start" x="94.44" y="-89.2" font-family="Arial" font-size="14.00" fill="#666666">[varchar(20)]</text>
<polygon fill="none" stroke="black" points="46.2,-46.2 46.2,-77 248.84,-77 248.84,-46.2 46.2,-46.2"/>
<text text-anchor="start" x="53.2" y="-58.4" font-family="Arial" font-size="14.00">created </text>
<text text-anchor="start" x="103.79" y="-58.4" font-family="Arial" font-size="14.00" fill="#666666">[date]</text>
<polygon fill="none" stroke="black" stroke-width="3" points="44.7,-44.7 44.7,-237.3 250.34,-237.3 250.34,-44.7 44.7,-44.7"/>
</g>
</g>
</svg>
