<?xml version="1.0" encoding="UTF-8" standalone="no"?>
<!DOCTYPE svg PUBLIC "-//W3C//DTD SVG 1.1//EN"
 "http://www.w3.org/Graphics/SVG/1.1/DTD/svg11.dtd">
<!-- Generated by graphviz version 12.1.2 (20240928.0832)
 -->
<!-- Title: products Pages: 1 -->
<svg width="324pt" height="633pt"
 viewBox="0.00 0.00 323.53 632.80" xmlns="http://www.w3.org/2000/svg" xmlns:xlink="http://www.w3.org/1999/xlink">
<g id="graph0" class="graph" transform="scale(1 1) rotate(0) translate(4 628.8)">
<title>products</title>
<polygon fill="white" stroke="none" points="-4,4 -4,-628.8 319.53,-628.8 319.53,4 -4,4"/>
<!-- products -->
<g id="node1" class="node">
<title>products</title>
<polygon fill="#efefef" stroke="none" points="55.19,-200.2 55.19,-235.8 260.33,-235.8 260.33,-200.2 55.19,-200.2"/>
<polygon fill="none" stroke="black" points="55.19,-200.2 55.19,-235.8 260.33,-235.8 260.33,-200.2 55.19,-200.2"/>
<text text-anchor="start" x="62.19" y="-213.6" font-family="Arial Bold" font-size="18.00">products</text>
<text text-anchor="start" x="124.18" y="-213.6" font-family="Arial" font-size="14.00">    </text>
<text text-anchor="start" x="155.3" y="-213.6" font-family="Arial" font-size="14.00" fill="#666666">[BASIC TABLE]</text>
<polygon fill="none" stroke="black" points="55.19,-169.4 55.19,-200.2 260.33,-200.2 260.33,-169.4 55.19,-169.4"/>
<text text-anchor="start" x="62.19" y="-181.6" font-family="Arial" font-size="14.00">id </text>
<text text-anchor="start" x="76.98" y="-181.6" font-family="Arial" font-size="14.00" fill="#666666">[int]</text>
<polygon fill="none" stroke="black" points="55.19,-138.6 55.19,-169.4 260.33,-169.4 260.33,-138.6 55.19,-138.6"/>
<text text-anchor="start" x="62.19" y="-150.8" font-family="Arial" font-size="14.00">name </text>
<text text-anchor="start" x="101.1" y="-150.8" font-family="Arial" font-size="14.00" fill="#666666">[nvarchar(255)]</text>
<polygon fill="none" stroke="black" points="55.19,-107.8 55.19,-138.6 260.33,-138.6 260.33,-107.8 55.19,-107.8"/>
<text text-anchor="start" x="62.19" y="-120" font-family="Arial" font-size="14.00">price </text>
<text text-anchor="start" x="96.43" y="-120" font-family="Arial" font-size="14.00" fill="#666666">[decimal]</text>
<polygon fill="none" stroke="black" points="55.19,-77 55.19,-107.8 260.33,-107.8 260.33,-77 55.19,-77"/>
<text text-anchor="start" x="62.19" y="-89.2" font-family="Arial" font-size="14.00">stock_quantity </text>
<text text-anchor="start" x="155.58" y="-89.2" font-family="Arial" font-size="14.00" fill="#666666">[int]</text>
<polygon fill="none" stroke="black" points="55.19,-46.2 55.19,-77 260.33,-77 260.33,-46.2 55.19,-46.2"/>
<text text-anchor="start" x="62.19" y="-58.4" font-family="Arial" font-size="14.00">created </text>
<text text-anchor="start" x="112.78" y="-58.4" font-family="Arial" font-size="14.00" fill="#666666">[date]</text>
<polygon fill="none" stroke="black" stroke-width="3" points="53.69,-44.7 53.69,-237.3 261.83,-237.3 261.83,-44.7 53.69,-44.7"/>
</g>
<!-- order_items -->
<g id="node2" class="node">
<title>order_items</title>
<polygon fill="#efefef" stroke="none" points="43.2,-546 43.2,-581.6 272.33,-581.6 272.33,-546 43.2,-546"/>
<polygon fill="none" stroke="black" points="43.2,-546 43.2,-581.6 272.33,-581.6 272.33,-546 43.2,-546"/>
<text text-anchor="start" x="50.2" y="-559.4" font-family="Arial Bold" font-size="18.00">order_items</text>
<text text-anchor="start" x="136.17" y="-559.4" font-family="Arial" font-size="14.00">    </text>
<text text-anchor="start" x="167.29" y="-559.4" font-family="Arial" font-size="14.00" fill="#666666">[BASIC TABLE]</text>
<polygon fill="none" stroke="black" points="43.2,-515.2 43.2,-546 272.33,-546 272.33,-515.2 43.2,-515.2"/>
<text text-anchor="start" x="50.2" y="-527.4" font-family="Arial" font-size="14.00">id </text>
<text text-anchor="start" x="64.99" y="-527.4" font-family="Arial" font-size="14.00" fill="#666666">[int]</text>
<polygon fill="none" stroke="black" points="43.2,-484.4 43.2,-515.2 272.33,-515.2 272.33,-484.4 43.2,-484.4"/>
<text text-anchor="start" x="50.2" y="-496.6" font-family="Arial" font-size="14.00">order_id </text>
<text text-anchor="start" x="105.45" y="-496.6" font-family="Arial" font-size="14.00" fill="#666666">[int]</text>
<polygon fill="none" stroke="black" points="43.2,-453.6 43.2,-484.4 272.33,-484.4 272.33,-453.6 43.2,-453.6"/>
<text text-anchor="start" x="50.2" y="-465.8" font-family="Arial" font-size="14.00">product_id </text>
<text text-anchor="start" x="119.47" y="-465.8" font-family="Arial" font-size="14.00" fill="#666666">[int]</text>
<polygon fill="none" stroke="black" points="43.2,-422.8 43.2,-453.6 272.33,-453.6 272.33,-422.8 43.2,-422.8"/>
<text text-anchor="start" x="50.2" y="-435" font-family="Arial" font-size="14.00">quantity </text>
<text text-anchor="start" x="103.12" y="-435" font-family="Arial" font-size="14.00" fill="#666666">[int]</text>
<polygon fill="none" stroke="black" points="43.2,-392 43.2,-422.8 272.33,-422.8 272.33,-392 43.2,-392"/>
<text text-anchor="start" x="50.2" y="-404.2" font-family="Arial" font-size="14.00">unit_price </text>
<text text-anchor="start" x="114.79" y="-404.2" font-family="Arial" font-size="14.00" fill="#666666">[decimal]</text>
<polygon fill="none" stroke="black" points="43.2,-361.2 43.2,-392 272.33,-392 272.33,-361.2 43.2,-361.2"/>
<text text-anchor="start" x="50.2" y="-373.4" font-family="Arial" font-size="14.00">created </text>
<text text-anchor="start" x="100.79" y="-373.4" font-family="Arial" font-size="14.00" fill="#666666">[date]</text>
</g>
<!-- order_items&#45;&gt;products -->
<g id="edge1" class="edge">
<title>order_items:product_id&#45;&gt;products:id</title>
<path fill="none" stroke="black" d="M283.35,-466.37C335.01,-437.72 320.96,-184.8 261.33,-184.8"/>
<polygon fill="black" stroke="black" points="283.32,-466.37 272.51,-464.56 278.16,-467.73 273.97,-468.83 273.97,-468.83 273.97,-468.83 278.16,-467.73 274.79,-473.27 283.32,-466.37"/>
</g>
</g>
</svg>
