<?xml version="1.0" encoding="UTF-8" standalone="no"?>
<!DOCTYPE svg PUBLIC "-//W3C//DTD SVG 1.1//EN"
 "http://www.w3.org/Graphics/SVG/1.1/DTD/svg11.dtd">
<!-- Generated by graphviz version 12.1.2 (20240928.0832)
 -->
<!-- Title: azuresqldb Pages: 1 -->
<svg width="1108pt" height="970pt"
 viewBox="0.00 0.00 1108.30 969.60" xmlns="http://www.w3.org/2000/svg" xmlns:xlink="http://www.w3.org/1999/xlink">
<g id="graph0" class="graph" transform="scale(1 1) rotate(0) translate(4 965.6)">
<title>azuresqldb</title>
<polygon fill="white" stroke="none" points="-4,4 -4,-965.6 1104.3,-965.6 1104.3,4 -4,4"/>
<!-- users -->
<g id="node1" class="node">
<title>users</title>
<polygon fill="#efefef" stroke="none" points="383.7,-197.2 383.7,-232.8 563.85,-232.8 563.85,-197.2 383.7,-197.2"/>
<polygon fill="none" stroke="black" points="383.7,-197.2 383.7,-232.8 563.85,-232.8 563.85,-197.2 383.7,-197.2"/>
<text text-anchor="start" x="390.7" y="-210.6" font-family="Arial Bold" font-size="18.00">users</text>
<text text-anchor="start" x="427.69" y="-210.6" font-family="Arial" font-size="14.00">    </text>
<text text-anchor="start" x="458.81" y="-210.6" font-family="Arial" font-size="14.00" fill="#666666">[BASIC TABLE]</text>
<polygon fill="none" stroke="black" points="383.7,-166.4 383.7,-197.2 563.85,-197.2 563.85,-166.4 383.7,-166.4"/>
<text text-anchor="start" x="390.7" y="-178.6" font-family="Arial" font-size="14.00">id </text>
<text text-anchor="start" x="405.49" y="-178.6" font-family="Arial" font-size="14.00" fill="#666666">[int]</text>
<polygon fill="none" stroke="black" points="383.7,-135.6 383.7,-166.4 563.85,-166.4 563.85,-135.6 383.7,-135.6"/>
<text text-anchor="start" x="390.7" y="-147.8" font-family="Arial" font-size="14.00">username </text>
<text text-anchor="start" x="456.85" y="-147.8" font-family="Arial" font-size="14.00" fill="#666666">[varchar(50)]</text>
<polygon fill="none" stroke="black" points="383.7,-104.8 383.7,-135.6 563.85,-135.6 563.85,-104.8 383.7,-104.8"/>
<text text-anchor="start" x="390.7" y="-117" font-family="Arial" font-size="14.00">email </text>
<text text-anchor="start" x="428.05" y="-117" font-family="Arial" font-size="14.00" fill="#666666">[varchar(355)]</text>
<polygon fill="none" stroke="black" points="383.7,-74 383.7,-104.8 563.85,-104.8 563.85,-74 383.7,-74"/>
<text text-anchor="start" x="390.7" y="-86.2" font-family="Arial" font-size="14.00">created </text>
<text text-anchor="start" x="441.29" y="-86.2" font-family="Arial" font-size="14.00" fill="#666666">[date]</text>
<polygon fill="none" stroke="black" points="383.7,-43.2 383.7,-74 563.85,-74 563.85,-43.2 383.7,-43.2"/>
<text text-anchor="start" x="390.7" y="-55.4" font-family="Arial" font-size="14.00">updated </text>
<text text-anchor="start" x="445.2" y="-55.4" font-family="Arial" font-size="14.00" fill="#666666">[date]</text>
</g>
<!-- user_options -->
<g id="node2" class="node">
<title>user_options</title>
<polygon fill="#efefef" stroke="none" points="43.2,-509.2 43.2,-544.8 278.35,-544.8 278.35,-509.2 43.2,-509.2"/>
<polygon fill="none" stroke="black" points="43.2,-509.2 43.2,-544.8 278.35,-544.8 278.35,-509.2 43.2,-509.2"/>
<text text-anchor="start" x="50.2" y="-522.6" font-family="Arial Bold" font-size="18.00">user_options</text>
<text text-anchor="start" x="142.2" y="-522.6" font-family="Arial" font-size="14.00">    </text>
<text text-anchor="start" x="173.31" y="-522.6" font-family="Arial" font-size="14.00" fill="#666666">[BASIC TABLE]</text>
<polygon fill="none" stroke="black" points="43.2,-478.4 43.2,-509.2 278.35,-509.2 278.35,-478.4 43.2,-478.4"/>
<text text-anchor="start" x="50.2" y="-490.6" font-family="Arial" font-size="14.00">user_id </text>
<text text-anchor="start" x="100.01" y="-490.6" font-family="Arial" font-size="14.00" fill="#666666">[int]</text>
<polygon fill="none" stroke="black" points="43.2,-447.6 43.2,-478.4 278.35,-478.4 278.35,-447.6 43.2,-447.6"/>
<text text-anchor="start" x="50.2" y="-459.8" font-family="Arial" font-size="14.00">show_email </text>
<text text-anchor="start" x="128.01" y="-459.8" font-family="Arial" font-size="14.00" fill="#666666">[bit]</text>
<polygon fill="none" stroke="black" points="43.2,-416.8 43.2,-447.6 278.35,-447.6 278.35,-416.8 43.2,-416.8"/>
<text text-anchor="start" x="50.2" y="-429" font-family="Arial" font-size="14.00">created </text>
<text text-anchor="start" x="100.79" y="-429" font-family="Arial" font-size="14.00" fill="#666666">[date]</text>
<polygon fill="none" stroke="black" points="43.2,-386 43.2,-416.8 278.35,-416.8 278.35,-386 43.2,-386"/>
<text text-anchor="start" x="50.2" y="-398.2" font-family="Arial" font-size="14.00">updated </text>
<text text-anchor="start" x="104.7" y="-398.2" font-family="Arial" font-size="14.00" fill="#666666">[date]</text>
</g>
<!-- user_options&#45;&gt;users -->
<g id="edge1" class="edge">
<title>user_options:user_id&#45;&gt;users:id</title>
<path fill="none" stroke="black" d="M289.39,-493.24C358.36,-485.05 304.92,-388.09 330.77,-312 350.82,-253.01 320.4,-181.8 382.7,-181.8"/>
<polygon fill="black" stroke="black" points="289.67,-493.23 279.43,-489.29 284.34,-493.52 280.01,-493.76 280.01,-493.76 280.01,-493.76 284.34,-493.52 279.93,-498.27 289.67,-493.23"/>
</g>
<!-- products -->
<g id="node3" class="node">
<title>products</title>
<polygon fill="#efefef" stroke="none" points="383.2,-524.6 383.2,-560.2 588.34,-560.2 588.34,-524.6 383.2,-524.6"/>
<polygon fill="none" stroke="black" points="383.2,-524.6 383.2,-560.2 588.34,-560.2 588.34,-524.6 383.2,-524.6"/>
<text text-anchor="start" x="390.2" y="-538" font-family="Arial Bold" font-size="18.00">products</text>
<text text-anchor="start" x="452.19" y="-538" font-family="Arial" font-size="14.00">    </text>
<text text-anchor="start" x="483.31" y="-538" font-family="Arial" font-size="14.00" fill="#666666">[BASIC TABLE]</text>
<polygon fill="none" stroke="black" points="383.2,-493.8 383.2,-524.6 588.34,-524.6 588.34,-493.8 383.2,-493.8"/>
<text text-anchor="start" x="390.2" y="-506" font-family="Arial" font-size="14.00">id </text>
<text text-anchor="start" x="404.99" y="-506" font-family="Arial" font-size="14.00" fill="#666666">[int]</text>
<polygon fill="none" stroke="black" points="383.2,-463 383.2,-493.8 588.34,-493.8 588.34,-463 383.2,-463"/>
<text text-anchor="start" x="390.2" y="-475.2" font-family="Arial" font-size="14.00">name </text>
<text text-anchor="start" x="429.11" y="-475.2" font-family="Arial" font-size="14.00" fill="#666666">[nvarchar(255)]</text>
<polygon fill="none" stroke="black" points="383.2,-432.2 383.2,-463 588.34,-463 588.34,-432.2 383.2,-432.2"/>
<text text-anchor="start" x="390.2" y="-444.4" font-family="Arial" font-size="14.00">price </text>
<text text-anchor="start" x="424.44" y="-444.4" font-family="Arial" font-size="14.00" fill="#666666">[decimal]</text>
<polygon fill="none" stroke="black" points="383.2,-401.4 383.2,-432.2 588.34,-432.2 588.34,-401.4 383.2,-401.4"/>
<text text-anchor="start" x="390.2" y="-413.6" font-family="Arial" font-size="14.00">stock_quantity </text>
<text text-anchor="start" x="483.59" y="-413.6" font-family="Arial" font-size="14.00" fill="#666666">[int]</text>
<polygon fill="none" stroke="black" points="383.2,-370.6 383.2,-401.4 588.34,-401.4 588.34,-370.6 383.2,-370.6"/>
<text text-anchor="start" x="390.2" y="-382.8" font-family="Arial" font-size="14.00">created </text>
<text text-anchor="start" x="440.79" y="-382.8" font-family="Arial" font-size="14.00" fill="#666666">[date]</text>
</g>
<!-- orders -->
<g id="node4" class="node">
<title>orders</title>
<polygon fill="#efefef" stroke="none" points="692.71,-540 692.71,-575.6 880.84,-575.6 880.84,-540 692.71,-540"/>
<polygon fill="none" stroke="black" points="692.71,-540 692.71,-575.6 880.84,-575.6 880.84,-540 692.71,-540"/>
<text text-anchor="start" x="699.71" y="-553.4" font-family="Arial Bold" font-size="18.00">orders</text>
<text text-anchor="start" x="744.69" y="-553.4" font-family="Arial" font-size="14.00">    </text>
<text text-anchor="start" x="775.81" y="-553.4" font-family="Arial" font-size="14.00" fill="#666666">[BASIC TABLE]</text>
<polygon fill="none" stroke="black" points="692.71,-509.2 692.71,-540 880.84,-540 880.84,-509.2 692.71,-509.2"/>
<text text-anchor="start" x="699.71" y="-521.4" font-family="Arial" font-size="14.00">id </text>
<text text-anchor="start" x="714.49" y="-521.4" font-family="Arial" font-size="14.00" fill="#666666">[int]</text>
<polygon fill="none" stroke="black" points="692.71,-478.4 692.71,-509.2 880.84,-509.2 880.84,-478.4 692.71,-478.4"/>
<text text-anchor="start" x="699.71" y="-490.6" font-family="Arial" font-size="14.00">user_id </text>
<text text-anchor="start" x="749.51" y="-490.6" font-family="Arial" font-size="14.00" fill="#666666">[int]</text>
<polygon fill="none" stroke="black" points="692.71,-447.6 692.71,-478.4 880.84,-478.4 880.84,-447.6 692.71,-447.6"/>
<text text-anchor="start" x="699.71" y="-459.8" font-family="Arial" font-size="14.00">total_amount </text>
<text text-anchor="start" x="784.54" y="-459.8" font-family="Arial" font-size="14.00" fill="#666666">[decimal]</text>
<polygon fill="none" stroke="black" points="692.71,-416.8 692.71,-447.6 880.84,-447.6 880.84,-416.8 692.71,-416.8"/>
<text text-anchor="start" x="699.71" y="-429" font-family="Arial" font-size="14.00">status </text>
<text text-anchor="start" x="740.95" y="-429" font-family="Arial" font-size="14.00" fill="#666666">[varchar(20)]</text>
<polygon fill="none" stroke="black" points="692.71,-386 692.71,-416.8 880.84,-416.8 880.84,-386 692.71,-386"/>
<text text-anchor="start" x="699.71" y="-398.2" font-family="Arial" font-size="14.00">created </text>
<text text-anchor="start" x="750.29" y="-398.2" font-family="Arial" font-size="14.00" fill="#666666">[date]</text>
<polygon fill="none" stroke="black" points="692.71,-355.2 692.71,-386 880.84,-386 880.84,-355.2 692.71,-355.2"/>
<text text-anchor="start" x="699.71" y="-367.4" font-family="Arial" font-size="14.00">updated </text>
<text text-anchor="start" x="754.2" y="-367.4" font-family="Arial" font-size="14.00" fill="#666666">[date]</text>
</g>
<!-- orders&#45;&gt;users -->
<g id="edge2" class="edge">
<title>orders:user_id&#45;&gt;users:id</title>
<path fill="none" stroke="black" d="M681.7,-493.23C613.26,-484.87 672.09,-385.95 640.77,-312 614.65,-250.31 631.83,-181.8 564.85,-181.8"/>
<polygon fill="black" stroke="black" points="681.39,-493.21 691.12,-498.27 686.71,-493.52 691.04,-493.76 691.04,-493.76 691.04,-493.76 686.71,-493.52 691.63,-489.29 681.39,-493.21"/>
</g>
<!-- order_items -->
<g id="node5" class="node">
<title>order_items</title>
<polygon fill="#efefef" stroke="none" points="521.21,-882.8 521.21,-918.4 750.34,-918.4 750.34,-882.8 521.21,-882.8"/>
<polygon fill="none" stroke="black" points="521.21,-882.8 521.21,-918.4 750.34,-918.4 750.34,-882.8 521.21,-882.8"/>
<text text-anchor="start" x="528.21" y="-896.2" font-family="Arial Bold" font-size="18.00">order_items</text>
<text text-anchor="start" x="614.18" y="-896.2" font-family="Arial" font-size="14.00">    </text>
<text text-anchor="start" x="645.3" y="-896.2" font-family="Arial" font-size="14.00" fill="#666666">[BASIC TABLE]</text>
<polygon fill="none" stroke="black" points="521.21,-852 521.21,-882.8 750.34,-882.8 750.34,-852 521.21,-852"/>
<text text-anchor="start" x="528.21" y="-864.2" font-family="Arial" font-size="14.00">id </text>
<text text-anchor="start" x="543" y="-864.2" font-family="Arial" font-size="14.00" fill="#666666">[int]</text>
<polygon fill="none" stroke="black" points="521.21,-821.2 521.21,-852 750.34,-852 750.34,-821.2 521.21,-821.2"/>
<text text-anchor="start" x="528.21" y="-833.4" font-family="Arial" font-size="14.00">order_id </text>
<text text-anchor="start" x="583.47" y="-833.4" font-family="Arial" font-size="14.00" fill="#666666">[int]</text>
<polygon fill="none" stroke="black" points="521.21,-790.4 521.21,-821.2 750.34,-821.2 750.34,-790.4 521.21,-790.4"/>
<text text-anchor="start" x="528.21" y="-802.6" font-family="Arial" font-size="14.00">product_id </text>
<text text-anchor="start" x="597.48" y="-802.6" font-family="Arial" font-size="14.00" fill="#666666">[int]</text>
<polygon fill="none" stroke="black" points="521.21,-759.6 521.21,-790.4 750.34,-790.4 750.34,-759.6 521.21,-759.6"/>
<text text-anchor="start" x="528.21" y="-771.8" font-family="Arial" font-size="14.00">quantity </text>
<text text-anchor="start" x="581.13" y="-771.8" font-family="Arial" font-size="14.00" fill="#666666">[int]</text>
<polygon fill="none" stroke="black" points="521.21,-728.8 521.21,-759.6 750.34,-759.6 750.34,-728.8 521.21,-728.8"/>
<text text-anchor="start" x="528.21" y="-741" font-family="Arial" font-size="14.00">unit_price </text>
<text text-anchor="start" x="592.8" y="-741" font-family="Arial" font-size="14.00" fill="#666666">[decimal]</text>
<polygon fill="none" stroke="black" points="521.21,-698 521.21,-728.8 750.34,-728.8 750.34,-698 521.21,-698"/>
<text text-anchor="start" x="528.21" y="-710.2" font-family="Arial" font-size="14.00">created </text>
<text text-anchor="start" x="578.8" y="-710.2" font-family="Arial" font-size="14.00" fill="#666666">[date]</text>
</g>
<!-- order_items&#45;&gt;products -->
<g id="edge4" class="edge">
<title>order_items:product_id&#45;&gt;products:id</title>
<path fill="none" stroke="black" d="M510.02,-805.71C253.28,-801.31 576.27,-627.53 588.34,-603.4 607.08,-565.96 631.21,-509.2 589.34,-509.2"/>
<polygon fill="black" stroke="black" points="509.88,-805.71 519.84,-810.3 515.21,-805.76 519.54,-805.79 519.54,-805.79 519.54,-805.79 515.21,-805.76 519.91,-801.3 509.88,-805.71"/>
</g>
<!-- order_items&#45;&gt;orders -->
<g id="edge3" class="edge">
<title>order_items:order_id&#45;&gt;orders:id</title>
<path fill="none" stroke="black" d="M761.49,-835.94C828.33,-826.69 787.94,-722.19 750.34,-654.8 735.62,-628.43 707.49,-645.13 692.71,-618.8 672.21,-582.29 649.84,-524.6 691.71,-524.6"/>
<polygon fill="black" stroke="black" points="761.65,-835.93 751.38,-832.09 756.33,-836.28 752,-836.56 752,-836.56 752,-836.56 756.33,-836.28 751.96,-841.07 761.65,-835.93"/>
</g>
<!-- order_summary -->
<g id="node6" class="node">
<title>order_summary</title>
<polygon fill="#efefef" stroke="none" points="854.45,-867.4 854.45,-903 1057.1,-903 1057.1,-867.4 854.45,-867.4"/>
<polygon fill="none" stroke="black" points="854.45,-867.4 854.45,-903 1057.1,-903 1057.1,-867.4 854.45,-867.4"/>
<text text-anchor="start" x="861.45" y="-880.8" font-family="Arial Bold" font-size="18.00">order_summary</text>
<text text-anchor="start" x="975.42" y="-880.8" font-family="Arial" font-size="14.00">    </text>
<text text-anchor="start" x="1006.54" y="-880.8" font-family="Arial" font-size="14.00" fill="#666666">[VIEW]</text>
<polygon fill="none" stroke="black" points="854.45,-836.6 854.45,-867.4 1057.1,-867.4 1057.1,-836.6 854.45,-836.6"/>
<text text-anchor="start" x="861.45" y="-848.8" font-family="Arial" font-size="14.00">id </text>
<text text-anchor="start" x="876.24" y="-848.8" font-family="Arial" font-size="14.00" fill="#666666">[int]</text>
<polygon fill="none" stroke="black" points="854.45,-805.8 854.45,-836.6 1057.1,-836.6 1057.1,-805.8 854.45,-805.8"/>
<text text-anchor="start" x="861.45" y="-818" font-family="Arial" font-size="14.00">username </text>
<text text-anchor="start" x="927.6" y="-818" font-family="Arial" font-size="14.00" fill="#666666">[varchar(50)]</text>
<polygon fill="none" stroke="black" points="854.45,-775 854.45,-805.8 1057.1,-805.8 1057.1,-775 854.45,-775"/>
<text text-anchor="start" x="861.45" y="-787.2" font-family="Arial" font-size="14.00">total_amount </text>
<text text-anchor="start" x="946.29" y="-787.2" font-family="Arial" font-size="14.00" fill="#666666">[decimal]</text>
<polygon fill="none" stroke="black" points="854.45,-744.2 854.45,-775 1057.1,-775 1057.1,-744.2 854.45,-744.2"/>
<text text-anchor="start" x="861.45" y="-756.4" font-family="Arial" font-size="14.00">status </text>
<text text-anchor="start" x="902.69" y="-756.4" font-family="Arial" font-size="14.00" fill="#666666">[varchar(20)]</text>
<polygon fill="none" stroke="black" points="854.45,-713.4 854.45,-744.2 1057.1,-744.2 1057.1,-713.4 854.45,-713.4"/>
<text text-anchor="start" x="861.45" y="-725.6" font-family="Arial" font-size="14.00">created </text>
<text text-anchor="start" x="912.04" y="-725.6" font-family="Arial" font-size="14.00" fill="#666666">[date]</text>
</g>
</g>
</svg>
