<?xml version="1.0" encoding="UTF-8" standalone="no"?>
<!DOCTYPE svg PUBLIC "-//W3C//DTD SVG 1.1//EN"
 "http://www.w3.org/Graphics/SVG/1.1/DTD/svg11.dtd">
<!-- Generated by graphviz version 12.1.2 (20240928.0832)
 -->
<!-- Title: user_options Pages: 1 -->
<svg width="336pt" height="571pt"
 viewBox="0.00 0.00 335.55 571.20" xmlns="http://www.w3.org/2000/svg" xmlns:xlink="http://www.w3.org/1999/xlink">
<g id="graph0" class="graph" transform="scale(1 1) rotate(0) translate(4 567.2)">
<title>user_options</title>
<polygon fill="white" stroke="none" points="-4,4 -4,-567.2 331.55,-567.2 331.55,4 -4,4"/>
<!-- user_options -->
<g id="node1" class="node">
<title>user_options</title>
<polygon fill="#efefef" stroke="none" points="46.2,-481.4 46.2,-517 281.35,-517 281.35,-481.4 46.2,-481.4"/>
<polygon fill="none" stroke="black" points="46.2,-481.4 46.2,-517 281.35,-517 281.35,-481.4 46.2,-481.4"/>
<text text-anchor="start" x="53.2" y="-494.8" font-family="Arial Bold" font-size="18.00">user_options</text>
<text text-anchor="start" x="145.2" y="-494.8" font-family="Arial" font-size="14.00">    </text>
<text text-anchor="start" x="176.31" y="-494.8" font-family="Arial" font-size="14.00" fill="#666666">[BASIC TABLE]</text>
<polygon fill="none" stroke="black" points="46.2,-450.6 46.2,-481.4 281.35,-481.4 281.35,-450.6 46.2,-450.6"/>
<text text-anchor="start" x="53.2" y="-462.8" font-family="Arial" font-size="14.00">user_id </text>
<text text-anchor="start" x="103.01" y="-462.8" font-family="Arial" font-size="14.00" fill="#666666">[int]</text>
<polygon fill="none" stroke="black" points="46.2,-419.8 46.2,-450.6 281.35,-450.6 281.35,-419.8 46.2,-419.8"/>
<text text-anchor="start" x="53.2" y="-432" font-family="Arial" font-size="14.00">show_email </text>
<text text-anchor="start" x="131.01" y="-432" font-family="Arial" font-size="14.00" fill="#666666">[bit]</text>
<polygon fill="none" stroke="black" points="46.2,-389 46.2,-419.8 281.35,-419.8 281.35,-389 46.2,-389"/>
<text text-anchor="start" x="53.2" y="-401.2" font-family="Arial" font-size="14.00">created </text>
<text text-anchor="start" x="103.79" y="-401.2" font-family="Arial" font-size="14.00" fill="#666666">[date]</text>
<polygon fill="none" stroke="black" points="46.2,-358.2 46.2,-389 281.35,-389 281.35,-358.2 46.2,-358.2"/>
<text text-anchor="start" x="53.2" y="-370.4" font-family="Arial" font-size="14.00">updated </text>
<text text-anchor="start" x="107.7" y="-370.4" font-family="Arial" font-size="14.00" fill="#666666">[date]</text>
<polygon fill="none" stroke="black" stroke-width="3" points="44.7,-356.7 44.7,-518.5 282.85,-518.5 282.85,-356.7 44.7,-356.7"/>
</g>
<!-- users -->
<g id="node2" class="node">
<title>users</title>
<polygon fill="#efefef" stroke="none" points="73.7,-197.2 73.7,-232.8 253.85,-232.8 253.85,-197.2 73.7,-197.2"/>
<polygon fill="none" stroke="black" points="73.7,-197.2 73.7,-232.8 253.85,-232.8 253.85,-197.2 73.7,-197.2"/>
<text text-anchor="start" x="80.7" y="-210.6" font-family="Arial Bold" font-size="18.00">users</text>
<text text-anchor="start" x="117.69" y="-210.6" font-family="Arial" font-size="14.00">    </text>
<text text-anchor="start" x="148.81" y="-210.6" font-family="Arial" font-size="14.00" fill="#666666">[BASIC TABLE]</text>
<polygon fill="none" stroke="black" points="73.7,-166.4 73.7,-197.2 253.85,-197.2 253.85,-166.4 73.7,-166.4"/>
<text text-anchor="start" x="80.7" y="-178.6" font-family="Arial" font-size="14.00">id </text>
<text text-anchor="start" x="95.49" y="-178.6" font-family="Arial" font-size="14.00" fill="#666666">[int]</text>
<polygon fill="none" stroke="black" points="73.7,-135.6 73.7,-166.4 253.85,-166.4 253.85,-135.6 73.7,-135.6"/>
<text text-anchor="start" x="80.7" y="-147.8" font-family="Arial" font-size="14.00">username </text>
<text text-anchor="start" x="146.85" y="-147.8" font-family="Arial" font-size="14.00" fill="#666666">[varchar(50)]</text>
<polygon fill="none" stroke="black" points="73.7,-104.8 73.7,-135.6 253.85,-135.6 253.85,-104.8 73.7,-104.8"/>
<text text-anchor="start" x="80.7" y="-117" font-family="Arial" font-size="14.00">email </text>
<text text-anchor="start" x="118.05" y="-117" font-family="Arial" font-size="14.00" fill="#666666">[varchar(355)]</text>
<polygon fill="none" stroke="black" points="73.7,-74 73.7,-104.8 253.85,-104.8 253.85,-74 73.7,-74"/>
<text text-anchor="start" x="80.7" y="-86.2" font-family="Arial" font-size="14.00">created </text>
<text text-anchor="start" x="131.29" y="-86.2" font-family="Arial" font-size="14.00" fill="#666666">[date]</text>
<polygon fill="none" stroke="black" points="73.7,-43.2 73.7,-74 253.85,-74 253.85,-43.2 73.7,-43.2"/>
<text text-anchor="start" x="80.7" y="-55.4" font-family="Arial" font-size="14.00">updated </text>
<text text-anchor="start" x="135.2" y="-55.4" font-family="Arial" font-size="14.00" fill="#666666">[date]</text>
</g>
<!-- user_options&#45;&gt;users -->
<g id="edge1" class="edge">
<title>user_options:user_id&#45;&gt;users:id</title>
<path fill="none" stroke="black" d="M292.26,-463.37C342.57,-434.72 314.7,-181.8 254.85,-181.8"/>
<polygon fill="black" stroke="black" points="292.34,-463.35 281.52,-461.56 287.18,-464.72 282.99,-465.83 282.99,-465.83 282.99,-465.83 287.18,-464.72 283.82,-470.26 292.34,-463.35"/>
</g>
</g>
</svg>
