<?xml version="1.0" encoding="UTF-8" standalone="no"?>
<!DOCTYPE svg PUBLIC "-//W3C//DTD SVG 1.1//EN"
 "http://www.w3.org/Graphics/SVG/1.1/DTD/svg11.dtd">
<!-- Generated by graphviz version 12.1.2 (20240928.0832)
 -->
<!-- Title: users Pages: 1 -->
<svg width="622pt" height="633pt"
 viewBox="0.00 0.00 622.04 632.80" xmlns="http://www.w3.org/2000/svg" xmlns:xlink="http://www.w3.org/1999/xlink">
<g id="graph0" class="graph" transform="scale(1 1) rotate(0) translate(4 628.8)">
<title>users</title>
<polygon fill="white" stroke="none" points="-4,4 -4,-628.8 618.04,-628.8 618.04,4 -4,4"/>
<!-- users -->
<g id="node1" class="node">
<title>users</title>
<polygon fill="#efefef" stroke="none" points="228.7,-200.2 228.7,-235.8 408.85,-235.8 408.85,-200.2 228.7,-200.2"/>
<polygon fill="none" stroke="black" points="228.7,-200.2 228.7,-235.8 408.85,-235.8 408.85,-200.2 228.7,-200.2"/>
<text text-anchor="start" x="235.7" y="-213.6" font-family="Arial Bold" font-size="18.00">users</text>
<text text-anchor="start" x="272.69" y="-213.6" font-family="Arial" font-size="14.00">    </text>
<text text-anchor="start" x="303.81" y="-213.6" font-family="Arial" font-size="14.00" fill="#666666">[BASIC TABLE]</text>
<polygon fill="none" stroke="black" points="228.7,-169.4 228.7,-200.2 408.85,-200.2 408.85,-169.4 228.7,-169.4"/>
<text text-anchor="start" x="235.7" y="-181.6" font-family="Arial" font-size="14.00">id </text>
<text text-anchor="start" x="250.49" y="-181.6" font-family="Arial" font-size="14.00" fill="#666666">[int]</text>
<polygon fill="none" stroke="black" points="228.7,-138.6 228.7,-169.4 408.85,-169.4 408.85,-138.6 228.7,-138.6"/>
<text text-anchor="start" x="235.7" y="-150.8" font-family="Arial" font-size="14.00">username </text>
<text text-anchor="start" x="301.85" y="-150.8" font-family="Arial" font-size="14.00" fill="#666666">[varchar(50)]</text>
<polygon fill="none" stroke="black" points="228.7,-107.8 228.7,-138.6 408.85,-138.6 408.85,-107.8 228.7,-107.8"/>
<text text-anchor="start" x="235.7" y="-120" font-family="Arial" font-size="14.00">email </text>
<text text-anchor="start" x="273.05" y="-120" font-family="Arial" font-size="14.00" fill="#666666">[varchar(355)]</text>
<polygon fill="none" stroke="black" points="228.7,-77 228.7,-107.8 408.85,-107.8 408.85,-77 228.7,-77"/>
<text text-anchor="start" x="235.7" y="-89.2" font-family="Arial" font-size="14.00">created </text>
<text text-anchor="start" x="286.29" y="-89.2" font-family="Arial" font-size="14.00" fill="#666666">[date]</text>
<polygon fill="none" stroke="black" points="228.7,-46.2 228.7,-77 408.85,-77 408.85,-46.2 228.7,-46.2"/>
<text text-anchor="start" x="235.7" y="-58.4" font-family="Arial" font-size="14.00">updated </text>
<text text-anchor="start" x="290.2" y="-58.4" font-family="Arial" font-size="14.00" fill="#666666">[date]</text>
<polygon fill="none" stroke="black" stroke-width="3" points="227.2,-44.7 227.2,-237.3 410.35,-237.3 410.35,-44.7 227.2,-44.7"/>
</g>
<!-- user_options -->
<g id="node2" class="node">
<title>user_options</title>
<polygon fill="#efefef" stroke="none" points="43.2,-515.2 43.2,-550.8 278.35,-550.8 278.35,-515.2 43.2,-515.2"/>
<polygon fill="none" stroke="black" points="43.2,-515.2 43.2,-550.8 278.35,-550.8 278.35,-515.2 43.2,-515.2"/>
<text text-anchor="start" x="50.2" y="-528.6" font-family="Arial Bold" font-size="18.00">user_options</text>
<text text-anchor="start" x="142.2" y="-528.6" font-family="Arial" font-size="14.00">    </text>
<text text-anchor="start" x="173.31" y="-528.6" font-family="Arial" font-size="14.00" fill="#666666">[BASIC TABLE]</text>
<polygon fill="none" stroke="black" points="43.2,-484.4 43.2,-515.2 278.35,-515.2 278.35,-484.4 43.2,-484.4"/>
<text text-anchor="start" x="50.2" y="-496.6" font-family="Arial" font-size="14.00">user_id </text>
<text text-anchor="start" x="100.01" y="-496.6" font-family="Arial" font-size="14.00" fill="#666666">[int]</text>
<polygon fill="none" stroke="black" points="43.2,-453.6 43.2,-484.4 278.35,-484.4 278.35,-453.6 43.2,-453.6"/>
<text text-anchor="start" x="50.2" y="-465.8" font-family="Arial" font-size="14.00">show_email </text>
<text text-anchor="start" x="128.01" y="-465.8" font-family="Arial" font-size="14.00" fill="#666666">[bit]</text>
<polygon fill="none" stroke="black" points="43.2,-422.8 43.2,-453.6 278.35,-453.6 278.35,-422.8 43.2,-422.8"/>
<text text-anchor="start" x="50.2" y="-435" font-family="Arial" font-size="14.00">created </text>
<text text-anchor="start" x="100.79" y="-435" font-family="Arial" font-size="14.00" fill="#666666">[date]</text>
<polygon fill="none" stroke="black" points="43.2,-392 43.2,-422.8 278.35,-422.8 278.35,-392 43.2,-392"/>
<text text-anchor="start" x="50.2" y="-404.2" font-family="Arial" font-size="14.00">updated </text>
<text text-anchor="start" x="104.7" y="-404.2" font-family="Arial" font-size="14.00" fill="#666666">[date]</text>
</g>
<!-- user_options&#45;&gt;users -->
<g id="edge1" class="edge">
<title>user_options:user_id&#45;&gt;users:id</title>
<path fill="none" stroke="black" d="M289.68,-498.98C341.24,-489.98 298.43,-408.84 278.35,-348.8 266.61,-313.72 240.5,-317.06 228.7,-282 214.92,-241.06 184.5,-184.8 227.7,-184.8"/>
<polygon fill="black" stroke="black" points="289.65,-498.98 279.32,-495.29 284.33,-499.4 280.01,-499.75 280.01,-499.75 280.01,-499.75 284.33,-499.4 280.04,-504.26 289.65,-498.98"/>
</g>
<!-- orders -->
<g id="node3" class="node">
<title>orders</title>
<polygon fill="#efefef" stroke="none" points="382.71,-546 382.71,-581.6 570.84,-581.6 570.84,-546 382.71,-546"/>
<polygon fill="none" stroke="black" points="382.71,-546 382.71,-581.6 570.84,-581.6 570.84,-546 382.71,-546"/>
<text text-anchor="start" x="389.71" y="-559.4" font-family="Arial Bold" font-size="18.00">orders</text>
<text text-anchor="start" x="434.69" y="-559.4" font-family="Arial" font-size="14.00">    </text>
<text text-anchor="start" x="465.81" y="-559.4" font-family="Arial" font-size="14.00" fill="#666666">[BASIC TABLE]</text>
<polygon fill="none" stroke="black" points="382.71,-515.2 382.71,-546 570.84,-546 570.84,-515.2 382.71,-515.2"/>
<text text-anchor="start" x="389.71" y="-527.4" font-family="Arial" font-size="14.00">id </text>
<text text-anchor="start" x="404.49" y="-527.4" font-family="Arial" font-size="14.00" fill="#666666">[int]</text>
<polygon fill="none" stroke="black" points="382.71,-484.4 382.71,-515.2 570.84,-515.2 570.84,-484.4 382.71,-484.4"/>
<text text-anchor="start" x="389.71" y="-496.6" font-family="Arial" font-size="14.00">user_id </text>
<text text-anchor="start" x="439.51" y="-496.6" font-family="Arial" font-size="14.00" fill="#666666">[int]</text>
<polygon fill="none" stroke="black" points="382.71,-453.6 382.71,-484.4 570.84,-484.4 570.84,-453.6 382.71,-453.6"/>
<text text-anchor="start" x="389.71" y="-465.8" font-family="Arial" font-size="14.00">total_amount </text>
<text text-anchor="start" x="474.54" y="-465.8" font-family="Arial" font-size="14.00" fill="#666666">[decimal]</text>
<polygon fill="none" stroke="black" points="382.71,-422.8 382.71,-453.6 570.84,-453.6 570.84,-422.8 382.71,-422.8"/>
<text text-anchor="start" x="389.71" y="-435" font-family="Arial" font-size="14.00">status </text>
<text text-anchor="start" x="430.95" y="-435" font-family="Arial" font-size="14.00" fill="#666666">[varchar(20)]</text>
<polygon fill="none" stroke="black" points="382.71,-392 382.71,-422.8 570.84,-422.8 570.84,-392 382.71,-392"/>
<text text-anchor="start" x="389.71" y="-404.2" font-family="Arial" font-size="14.00">created </text>
<text text-anchor="start" x="440.29" y="-404.2" font-family="Arial" font-size="14.00" fill="#666666">[date]</text>
<polygon fill="none" stroke="black" points="382.71,-361.2 382.71,-392 570.84,-392 570.84,-361.2 382.71,-361.2"/>
<text text-anchor="start" x="389.71" y="-373.4" font-family="Arial" font-size="14.00">updated </text>
<text text-anchor="start" x="444.2" y="-373.4" font-family="Arial" font-size="14.00" fill="#666666">[date]</text>
</g>
<!-- orders&#45;&gt;users -->
<g id="edge2" class="edge">
<title>orders:user_id&#45;&gt;users:id</title>
<path fill="none" stroke="black" d="M371.63,-499.18C305.93,-490.42 358.67,-391.33 382.71,-318 388.87,-299.21 402.64,-300.77 408.85,-282 422.4,-240.98 453.05,-184.8 409.85,-184.8"/>
<polygon fill="black" stroke="black" points="371.39,-499.16 381.09,-504.27 376.72,-499.49 381.04,-499.76 381.04,-499.76 381.04,-499.76 376.72,-499.49 381.65,-495.29 371.39,-499.16"/>
</g>
</g>
</svg>
