<?xml version="1.0" encoding="UTF-8" standalone="no"?>
<!DOCTYPE svg PUBLIC "-//W3C//DTD SVG 1.1//EN"
 "http://www.w3.org/Graphics/SVG/1.1/DTD/svg11.dtd">
<!-- Generated by graphviz version 2.40.1 (20161225.0304)
 -->
<!-- Title: comments Pages: 1 -->
<svg width="916pt" height="1019pt"
 viewBox="0.00 0.00 916.00 1019.00" xmlns="http://www.w3.org/2000/svg" xmlns:xlink="http://www.w3.org/1999/xlink">
<g id="graph0" class="graph" transform="scale(1 1) rotate(0) translate(4 1015)">
<title>comments</title>
<polygon fill="#ffffff" stroke="transparent" points="-4,4 -4,-1015 912,-1015 912,4 -4,4"/>
<!-- comments -->
<g id="node1" class="node">
<title>comments</title>
<polygon fill="#efefef" stroke="transparent" points="239,-592.5 239,-627.5 433,-627.5 433,-592.5 239,-592.5"/>
<polygon fill="none" stroke="#000000" points="239,-592.5 239,-627.5 433,-627.5 433,-592.5 239,-592.5"/>
<text text-anchor="start" x="245.8705" y="-605.3" font-family="Arial Bold" font-size="18.00" fill="#000000">comments</text>
<text text-anchor="start" x="328.8757" y="-605.3" font-family="Arial" font-size="14.00" fill="#000000"> </text>
<text text-anchor="start" x="332.7663" y="-605.3" font-family="Arial" font-size="14.00" fill="#666666">[BASE TABLE]</text>
<polygon fill="none" stroke="#000000" points="239,-562.5 239,-592.5 433,-592.5 433,-562.5 239,-562.5"/>
<text text-anchor="start" x="246" y="-573.9" font-family="Arial" font-size="14.00" fill="#000000">id </text>
<text text-anchor="start" x="260.7798" y="-573.9" font-family="Arial" font-size="14.00" fill="#666666">[bigint(20)]</text>
<polygon fill="none" stroke="#000000" points="239,-532.5 239,-562.5 433,-562.5 433,-532.5 239,-532.5"/>
<text text-anchor="start" x="246" y="-543.9" font-family="Arial" font-size="14.00" fill="#000000">post_id </text>
<text text-anchor="start" x="295.0182" y="-543.9" font-family="Arial" font-size="14.00" fill="#666666">[bigint(20)]</text>
<polygon fill="none" stroke="#000000" points="239,-502.5 239,-532.5 433,-532.5 433,-502.5 239,-502.5"/>
<text text-anchor="start" x="246" y="-513.9" font-family="Arial" font-size="14.00" fill="#000000">user_id </text>
<text text-anchor="start" x="295.7882" y="-513.9" font-family="Arial" font-size="14.00" fill="#666666">[int(11)]</text>
<polygon fill="none" stroke="#000000" points="239,-472.5 239,-502.5 433,-502.5 433,-472.5 239,-472.5"/>
<text text-anchor="start" x="246" y="-483.9" font-family="Arial" font-size="14.00" fill="#000000">comment </text>
<text text-anchor="start" x="307.4502" y="-483.9" font-family="Arial" font-size="14.00" fill="#666666">[text]</text>
<polygon fill="none" stroke="#000000" points="239,-442.5 239,-472.5 433,-472.5 433,-442.5 239,-442.5"/>
<text text-anchor="start" x="246" y="-453.9" font-family="Arial" font-size="14.00" fill="#000000">created </text>
<text text-anchor="start" x="296.5722" y="-453.9" font-family="Arial" font-size="14.00" fill="#666666">[datetime]</text>
<polygon fill="none" stroke="#000000" points="239,-412.5 239,-442.5 433,-442.5 433,-412.5 239,-412.5"/>
<text text-anchor="start" x="246" y="-423.9" font-family="Arial" font-size="14.00" fill="#000000">updated </text>
<text text-anchor="start" x="300.4768" y="-423.9" font-family="Arial" font-size="14.00" fill="#666666">[datetime]</text>
<polygon fill="none" stroke="#000000" stroke-width="3" points="237.5,-411.5 237.5,-629.5 434.5,-629.5 434.5,-411.5 237.5,-411.5"/>
</g>
<!-- posts -->
<g id="node2" class="node">
<title>posts</title>
<polygon fill="#efefef" stroke="transparent" points="47,-252.5 47,-287.5 310,-287.5 310,-252.5 47,-252.5"/>
<polygon fill="none" stroke="#000000" points="47,-252.5 47,-287.5 310,-287.5 310,-252.5 47,-252.5"/>
<text text-anchor="start" x="108.3658" y="-265.3" font-family="Arial Bold" font-size="18.00" fill="#000000">posts</text>
<text text-anchor="start" x="151.3804" y="-265.3" font-family="Arial" font-size="14.00" fill="#000000"> </text>
<text text-anchor="start" x="155.271" y="-265.3" font-family="Arial" font-size="14.00" fill="#666666">[BASE TABLE]</text>
<polygon fill="none" stroke="#000000" points="47,-222.5 47,-252.5 310,-252.5 310,-222.5 47,-222.5"/>
<text text-anchor="start" x="54" y="-233.9" font-family="Arial" font-size="14.00" fill="#000000">id </text>
<text text-anchor="start" x="68.7798" y="-233.9" font-family="Arial" font-size="14.00" fill="#666666">[bigint(20)]</text>
<polygon fill="none" stroke="#000000" points="47,-192.5 47,-222.5 310,-222.5 310,-192.5 47,-192.5"/>
<text text-anchor="start" x="54" y="-203.9" font-family="Arial" font-size="14.00" fill="#000000">user_id </text>
<text text-anchor="start" x="103.7882" y="-203.9" font-family="Arial" font-size="14.00" fill="#666666">[int(11)]</text>
<polygon fill="none" stroke="#000000" points="47,-162.5 47,-192.5 310,-192.5 310,-162.5 47,-162.5"/>
<text text-anchor="start" x="54" y="-173.9" font-family="Arial" font-size="14.00" fill="#000000">title </text>
<text text-anchor="start" x="79.6676" y="-173.9" font-family="Arial" font-size="14.00" fill="#666666">[varchar(255)]</text>
<polygon fill="none" stroke="#000000" points="47,-132.5 47,-162.5 310,-162.5 310,-132.5 47,-132.5"/>
<text text-anchor="start" x="54" y="-143.9" font-family="Arial" font-size="14.00" fill="#000000">body </text>
<text text-anchor="start" x="88.2384" y="-143.9" font-family="Arial" font-size="14.00" fill="#666666">[text]</text>
<polygon fill="none" stroke="#000000" points="47,-102.5 47,-132.5 310,-132.5 310,-102.5 47,-102.5"/>
<text text-anchor="start" x="53.697" y="-113.9" font-family="Arial" font-size="14.00" fill="#000000">post_type </text>
<text text-anchor="start" x="118.2818" y="-113.9" font-family="Arial" font-size="14.00" fill="#666666">[enum(&#39;public&#39;,&#39;private&#39;,&#39;draft&#39;)]</text>
<polygon fill="none" stroke="#000000" points="47,-72.5 47,-102.5 310,-102.5 310,-72.5 47,-72.5"/>
<text text-anchor="start" x="54" y="-83.9" font-family="Arial" font-size="14.00" fill="#000000">created </text>
<text text-anchor="start" x="104.5722" y="-83.9" font-family="Arial" font-size="14.00" fill="#666666">[datetime]</text>
<polygon fill="none" stroke="#000000" points="47,-42.5 47,-72.5 310,-72.5 310,-42.5 47,-42.5"/>
<text text-anchor="start" x="54" y="-53.9" font-family="Arial" font-size="14.00" fill="#000000">updated </text>
<text text-anchor="start" x="108.4768" y="-53.9" font-family="Arial" font-size="14.00" fill="#666666">[datetime]</text>
</g>
<!-- comments&#45;&gt;posts -->
<g id="edge1" class="edge">
<title>comments:post_id&#45;&gt;posts:id</title>
<path fill="none" stroke="#000000" d="M228.8956,-546.8352C162.2208,-537.5132 198.9025,-432.2885 239,-367 257.5158,-336.8517 291.4842,-361.1483 310,-331 331.7477,-295.5895 351.5556,-237.5 310,-237.5"/>
<polygon fill="#000000" stroke="#000000" points="229.0216,-546.8434 238.7045,-551.9903 234.0108,-547.1717 239,-547.5 239,-547.5 239,-547.5 234.0108,-547.1717 239.2955,-543.0097 229.0216,-546.8434 229.0216,-546.8434"/>
<text text-anchor="start" x="7.495" y="-557.5" font-family="Arial" font-size="10.00" fill="#000000">FOREIGN KEY (post_id) REFERENCES posts (id)</text>
</g>
<!-- users -->
<g id="node4" class="node">
<title>users</title>
<polygon fill="#efefef" stroke="transparent" points="414,-237.5 414,-272.5 573,-272.5 573,-237.5 414,-237.5"/>
<polygon fill="none" stroke="#000000" points="414,-237.5 414,-272.5 573,-272.5 573,-237.5 414,-237.5"/>
<text text-anchor="start" x="422.8708" y="-250.3" font-family="Arial Bold" font-size="18.00" fill="#000000">users</text>
<text text-anchor="start" x="466.8754" y="-250.3" font-family="Arial" font-size="14.00" fill="#000000"> </text>
<text text-anchor="start" x="470.766" y="-250.3" font-family="Arial" font-size="14.00" fill="#666666">[BASE TABLE]</text>
<polygon fill="none" stroke="#000000" points="414,-207.5 414,-237.5 573,-237.5 573,-207.5 414,-207.5"/>
<text text-anchor="start" x="421" y="-218.9" font-family="Arial" font-size="14.00" fill="#000000">id </text>
<text text-anchor="start" x="435.7798" y="-218.9" font-family="Arial" font-size="14.00" fill="#666666">[int(11)]</text>
<polygon fill="none" stroke="#000000" points="414,-177.5 414,-207.5 573,-207.5 573,-177.5 414,-177.5"/>
<text text-anchor="start" x="420.7693" y="-188.9" font-family="Arial" font-size="14.00" fill="#000000">username </text>
<text text-anchor="start" x="486.8941" y="-188.9" font-family="Arial" font-size="14.00" fill="#666666">[varchar(50)]</text>
<polygon fill="none" stroke="#000000" points="414,-147.5 414,-177.5 573,-177.5 573,-147.5 414,-147.5"/>
<text text-anchor="start" x="421" y="-158.9" font-family="Arial" font-size="14.00" fill="#000000">password </text>
<text text-anchor="start" x="484.7882" y="-158.9" font-family="Arial" font-size="14.00" fill="#666666">[varchar(50)]</text>
<polygon fill="none" stroke="#000000" points="414,-117.5 414,-147.5 573,-147.5 573,-117.5 414,-117.5"/>
<text text-anchor="start" x="421" y="-128.9" font-family="Arial" font-size="14.00" fill="#000000">email </text>
<text text-anchor="start" x="458.3296" y="-128.9" font-family="Arial" font-size="14.00" fill="#666666">[varchar(355)]</text>
<polygon fill="none" stroke="#000000" points="414,-87.5 414,-117.5 573,-117.5 573,-87.5 414,-87.5"/>
<text text-anchor="start" x="421" y="-98.9" font-family="Arial" font-size="14.00" fill="#000000">created </text>
<text text-anchor="start" x="471.5722" y="-98.9" font-family="Arial" font-size="14.00" fill="#666666">[timestamp]</text>
<polygon fill="none" stroke="#000000" points="414,-57.5 414,-87.5 573,-87.5 573,-57.5 414,-57.5"/>
<text text-anchor="start" x="421" y="-68.9" font-family="Arial" font-size="14.00" fill="#000000">updated </text>
<text text-anchor="start" x="475.4768" y="-68.9" font-family="Arial" font-size="14.00" fill="#666666">[timestamp]</text>
</g>
<!-- comments&#45;&gt;users -->
<g id="edge3" class="edge">
<title>comments:user_id&#45;&gt;users:id</title>
<path fill="none" stroke="#000000" d="M443.2225,-516.7039C493.7941,-507.9687 444.1919,-429.0998 433,-367 428.7098,-343.195 418.2902,-339.805 414,-316 406.6294,-275.1033 372.4444,-222.5 414,-222.5"/>
<polygon fill="#000000" stroke="#000000" points="442.9698,-516.7235 432.6506,-513.0136 437.9849,-517.1117 433,-517.5 433,-517.5 433,-517.5 437.9849,-517.1117 433.3494,-521.9864 442.9698,-516.7235 442.9698,-516.7235"/>
<text text-anchor="start" x="439.945" y="-527.5" font-family="Arial" font-size="10.00" fill="#000000">FOREIGN KEY (user_id) REFERENCES users (id)</text>
</g>
<!-- comment_stars -->
<g id="node3" class="node">
<title>comment_stars</title>
<polygon fill="#efefef" stroke="transparent" points="219,-932.5 219,-967.5 453,-967.5 453,-932.5 219,-932.5"/>
<polygon fill="none" stroke="#000000" points="219,-932.5 219,-967.5 453,-967.5 453,-932.5 219,-932.5"/>
<text text-anchor="start" x="225.8671" y="-945.3" font-family="Arial Bold" font-size="18.00" fill="#000000">comment_stars</text>
<text text-anchor="start" x="348.8791" y="-945.3" font-family="Arial" font-size="14.00" fill="#000000"> </text>
<text text-anchor="start" x="352.7697" y="-945.3" font-family="Arial" font-size="14.00" fill="#666666">[BASE TABLE]</text>
<polygon fill="none" stroke="#000000" points="219,-902.5 219,-932.5 453,-932.5 453,-902.5 219,-902.5"/>
<text text-anchor="start" x="226" y="-913.9" font-family="Arial" font-size="14.00" fill="#000000">id </text>
<text text-anchor="start" x="240.7798" y="-913.9" font-family="Arial" font-size="14.00" fill="#666666">[bigint(20)]</text>
<polygon fill="none" stroke="#000000" points="219,-872.5 219,-902.5 453,-902.5 453,-872.5 219,-872.5"/>
<text text-anchor="start" x="226" y="-883.9" font-family="Arial" font-size="14.00" fill="#000000">user_id </text>
<text text-anchor="start" x="275.7882" y="-883.9" font-family="Arial" font-size="14.00" fill="#666666">[int(11)]</text>
<polygon fill="none" stroke="#000000" points="219,-842.5 219,-872.5 453,-872.5 453,-842.5 219,-842.5"/>
<text text-anchor="start" x="226" y="-853.9" font-family="Arial" font-size="14.00" fill="#000000">comment_post_id </text>
<text text-anchor="start" x="340.3604" y="-853.9" font-family="Arial" font-size="14.00" fill="#666666">[bigint(20)]</text>
<polygon fill="none" stroke="#000000" points="219,-812.5 219,-842.5 453,-842.5 453,-812.5 219,-812.5"/>
<text text-anchor="start" x="226" y="-823.9" font-family="Arial" font-size="14.00" fill="#000000">comment_user_id </text>
<text text-anchor="start" x="341.1304" y="-823.9" font-family="Arial" font-size="14.00" fill="#666666">[int(11)]</text>
<polygon fill="none" stroke="#000000" points="219,-782.5 219,-812.5 453,-812.5 453,-782.5 219,-782.5"/>
<text text-anchor="start" x="226" y="-793.9" font-family="Arial" font-size="14.00" fill="#000000">created </text>
<text text-anchor="start" x="276.5722" y="-793.9" font-family="Arial" font-size="14.00" fill="#666666">[timestamp]</text>
<polygon fill="none" stroke="#000000" points="219,-752.5 219,-782.5 453,-782.5 453,-752.5 219,-752.5"/>
<text text-anchor="start" x="226" y="-763.9" font-family="Arial" font-size="14.00" fill="#000000">updated </text>
<text text-anchor="start" x="280.4768" y="-763.9" font-family="Arial" font-size="14.00" fill="#666666">[timestamp]</text>
</g>
<!-- comment_stars&#45;&gt;comments -->
<g id="edge2" class="edge">
<title>comment_stars:comment_post_id&#45;&gt;comments:post_id</title>
<path fill="none" stroke="#000000" d="M463.2116,-856.9106C589.9725,-841.9577 567.5587,-547.5 433,-547.5"/>
<polygon fill="#000000" stroke="#000000" points="462.9834,-856.9237 452.7407,-853.0075 457.9917,-857.2118 453,-857.5 453,-857.5 453,-857.5 457.9917,-857.2118 453.2593,-861.9925 462.9834,-856.9237 462.9834,-856.9237"/>
<text text-anchor="start" x="460.1435" y="-867.5" font-family="Arial" font-size="10.00" fill="#000000">FOREIGN KEY (comment_post_id, comment_user_id) REFERENCES comments (post_id, user_id)</text>
</g>
</g>
</svg>
