<?xml version="1.0" encoding="UTF-8" standalone="no"?>
<!DOCTYPE svg PUBLIC "-//W3C//DTD SVG 1.1//EN"
 "http://www.w3.org/Graphics/SVG/1.1/DTD/svg11.dtd">
<!-- Generated by graphviz version 2.40.1 (20161225.0304)
 -->
<!-- Title: testdb Pages: 1 -->
<svg width="2436pt" height="1410pt"
 viewBox="0.00 0.00 2436.00 1410.00" xmlns="http://www.w3.org/2000/svg" xmlns:xlink="http://www.w3.org/1999/xlink">
<g id="graph0" class="graph" transform="scale(1 1) rotate(0) translate(4 1406)">
<title>testdb</title>
<polygon fill="#ffffff" stroke="transparent" points="-4,4 -4,-1406 2432,-1406 2432,4 -4,4"/>
<!-- CamelizeTable -->
<g id="node1" class="node">
<title>CamelizeTable</title>
<polygon fill="#efefef" stroke="transparent" points="90,-1248.5 90,-1283.5 351,-1283.5 351,-1248.5 90,-1248.5"/>
<polygon fill="none" stroke="#000000" points="90,-1248.5 90,-1283.5 351,-1283.5 351,-1248.5 90,-1248.5"/>
<text text-anchor="start" x="96.7148" y="-1261.3" font-family="Arial Bold" font-size="18.00" fill="#000000">CamelizeTable</text>
<text text-anchor="start" x="216.7172" y="-1261.3" font-family="Arial" font-size="14.00" fill="#000000">    </text>
<text text-anchor="start" x="250.922" y="-1261.3" font-family="Arial" font-size="14.00" fill="#666666">[BASE TABLE]</text>
<polygon fill="none" stroke="#000000" points="90,-1218.5 90,-1248.5 351,-1248.5 351,-1218.5 90,-1218.5"/>
<text text-anchor="start" x="97" y="-1229.9" font-family="Arial" font-size="14.00" fill="#000000">id    </text>
<text text-anchor="start" x="142.094" y="-1229.9" font-family="Arial" font-size="14.00" fill="#666666">[bigint]</text>
<polygon fill="none" stroke="#000000" points="90,-1188.5 90,-1218.5 351,-1218.5 351,-1188.5 90,-1188.5"/>
<text text-anchor="start" x="97" y="-1199.9" font-family="Arial" font-size="14.00" fill="#000000">created    </text>
<text text-anchor="start" x="177.8864" y="-1199.9" font-family="Arial" font-size="14.00" fill="#666666">[datetime]</text>
</g>
<!-- comment_stars -->
<g id="node2" class="node">
<title>comment_stars</title>
<polygon fill="#efefef" stroke="transparent" points="455,-1308.5 455,-1343.5 719,-1343.5 719,-1308.5 455,-1308.5"/>
<polygon fill="none" stroke="#000000" points="455,-1308.5 455,-1343.5 719,-1343.5 719,-1308.5 455,-1308.5"/>
<text text-anchor="start" x="461.71" y="-1321.3" font-family="Arial Bold" font-size="18.00" fill="#000000">comment_stars</text>
<text text-anchor="start" x="584.722" y="-1321.3" font-family="Arial" font-size="14.00" fill="#000000">    </text>
<text text-anchor="start" x="618.9268" y="-1321.3" font-family="Arial" font-size="14.00" fill="#666666">[BASE TABLE]</text>
<polygon fill="none" stroke="#000000" points="455,-1278.5 455,-1308.5 719,-1308.5 719,-1278.5 455,-1278.5"/>
<text text-anchor="start" x="462" y="-1289.9" font-family="Arial" font-size="14.00" fill="#000000">id    </text>
<text text-anchor="start" x="507.094" y="-1289.9" font-family="Arial" font-size="14.00" fill="#666666">[bigint]</text>
<polygon fill="none" stroke="#000000" points="455,-1248.5 455,-1278.5 719,-1278.5 719,-1248.5 455,-1248.5"/>
<text text-anchor="start" x="462" y="-1259.9" font-family="Arial" font-size="14.00" fill="#000000">user_id    </text>
<text text-anchor="start" x="542.1024" y="-1259.9" font-family="Arial" font-size="14.00" fill="#666666">[int]</text>
<polygon fill="none" stroke="#000000" points="455,-1218.5 455,-1248.5 719,-1248.5 719,-1218.5 455,-1218.5"/>
<text text-anchor="start" x="462" y="-1229.9" font-family="Arial" font-size="14.00" fill="#000000">comment_post_id    </text>
<text text-anchor="start" x="606.6746" y="-1229.9" font-family="Arial" font-size="14.00" fill="#666666">[bigint]</text>
<polygon fill="none" stroke="#000000" points="455,-1188.5 455,-1218.5 719,-1218.5 719,-1188.5 455,-1188.5"/>
<text text-anchor="start" x="462" y="-1199.9" font-family="Arial" font-size="14.00" fill="#000000">comment_user_id    </text>
<text text-anchor="start" x="607.4446" y="-1199.9" font-family="Arial" font-size="14.00" fill="#666666">[int]</text>
<polygon fill="none" stroke="#000000" points="455,-1158.5 455,-1188.5 719,-1188.5 719,-1158.5 455,-1158.5"/>
<text text-anchor="start" x="462" y="-1169.9" font-family="Arial" font-size="14.00" fill="#000000">created    </text>
<text text-anchor="start" x="542.8864" y="-1169.9" font-family="Arial" font-size="14.00" fill="#666666">[timestamp]</text>
<polygon fill="none" stroke="#000000" points="455,-1128.5 455,-1158.5 719,-1158.5 719,-1128.5 455,-1128.5"/>
<text text-anchor="start" x="462" y="-1139.9" font-family="Arial" font-size="14.00" fill="#000000">updated    </text>
<text text-anchor="start" x="546.791" y="-1139.9" font-family="Arial" font-size="14.00" fill="#666666">[timestamp]</text>
</g>
<!-- comments -->
<g id="node3" class="node">
<title>comments</title>
<polygon fill="#efefef" stroke="transparent" points="384,-956.5 384,-991.5 608,-991.5 608,-956.5 384,-956.5"/>
<polygon fill="none" stroke="#000000" points="384,-956.5 384,-991.5 608,-991.5 608,-956.5 384,-956.5"/>
<text text-anchor="start" x="390.7134" y="-969.3" font-family="Arial Bold" font-size="18.00" fill="#000000">comments</text>
<text text-anchor="start" x="473.7186" y="-969.3" font-family="Arial" font-size="14.00" fill="#000000">    </text>
<text text-anchor="start" x="507.9234" y="-969.3" font-family="Arial" font-size="14.00" fill="#666666">[BASE TABLE]</text>
<polygon fill="none" stroke="#000000" points="384,-926.5 384,-956.5 608,-956.5 608,-926.5 384,-926.5"/>
<text text-anchor="start" x="391" y="-937.9" font-family="Arial" font-size="14.00" fill="#000000">id    </text>
<text text-anchor="start" x="436.094" y="-937.9" font-family="Arial" font-size="14.00" fill="#666666">[bigint]</text>
<polygon fill="none" stroke="#000000" points="384,-896.5 384,-926.5 608,-926.5 608,-896.5 384,-896.5"/>
<text text-anchor="start" x="391" y="-907.9" font-family="Arial" font-size="14.00" fill="#000000">post_id    </text>
<text text-anchor="start" x="470.3324" y="-907.9" font-family="Arial" font-size="14.00" fill="#666666">[bigint]</text>
<polygon fill="none" stroke="#000000" points="384,-866.5 384,-896.5 608,-896.5 608,-866.5 384,-866.5"/>
<text text-anchor="start" x="391" y="-877.9" font-family="Arial" font-size="14.00" fill="#000000">user_id    </text>
<text text-anchor="start" x="471.1024" y="-877.9" font-family="Arial" font-size="14.00" fill="#666666">[int]</text>
<polygon fill="none" stroke="#000000" points="384,-836.5 384,-866.5 608,-866.5 608,-836.5 384,-836.5"/>
<text text-anchor="start" x="391" y="-847.9" font-family="Arial" font-size="14.00" fill="#000000">comment    </text>
<text text-anchor="start" x="482.7644" y="-847.9" font-family="Arial" font-size="14.00" fill="#666666">[text]</text>
<polygon fill="none" stroke="#000000" points="384,-806.5 384,-836.5 608,-836.5 608,-806.5 384,-806.5"/>
<text text-anchor="start" x="391" y="-817.9" font-family="Arial" font-size="14.00" fill="#000000">post_id_desc    </text>
<text text-anchor="start" x="507.6802" y="-817.9" font-family="Arial" font-size="14.00" fill="#666666">[bigint]</text>
<polygon fill="none" stroke="#000000" points="384,-776.5 384,-806.5 608,-806.5 608,-776.5 384,-776.5"/>
<text text-anchor="start" x="391" y="-787.9" font-family="Arial" font-size="14.00" fill="#000000">created    </text>
<text text-anchor="start" x="471.8864" y="-787.9" font-family="Arial" font-size="14.00" fill="#666666">[datetime]</text>
<polygon fill="none" stroke="#000000" points="384,-746.5 384,-776.5 608,-776.5 608,-746.5 384,-746.5"/>
<text text-anchor="start" x="391" y="-757.9" font-family="Arial" font-size="14.00" fill="#000000">updated    </text>
<text text-anchor="start" x="475.791" y="-757.9" font-family="Arial" font-size="14.00" fill="#666666">[datetime]</text>
</g>
<!-- comment_stars&#45;&gt;comments -->
<g id="edge2" class="edge">
<title>comment_stars:comment_post_id&#45;&gt;comments:post_id</title>
<path fill="none" stroke="#000000" d="M444.7388,-1232.6168C392.5641,-1222.9474 418.8401,-1136.1692 455,-1086 496.911,-1027.8515 566.089,-1093.1485 608,-1035 640.0941,-990.4718 662.8889,-911.5 608,-911.5"/>
<polygon fill="#000000" stroke="#000000" points="445.0368,-1232.6424 454.6141,-1237.9834 450.0184,-1233.0712 455,-1233.5 455,-1233.5 455,-1233.5 450.0184,-1233.0712 455.3859,-1229.0166 445.0368,-1232.6424 445.0368,-1232.6424"/>
<text text-anchor="start" x="7.1435" y="-1243.5" font-family="Arial" font-size="10.00" fill="#000000">FOREIGN KEY (comment_post_id, comment_user_id) REFERENCES comments (post_id, user_id)</text>
</g>
<!-- users -->
<g id="node10" class="node">
<title>users</title>
<polygon fill="#efefef" stroke="transparent" points="565,-222.5 565,-257.5 754,-257.5 754,-222.5 565,-222.5"/>
<polygon fill="none" stroke="#000000" points="565,-222.5 565,-257.5 754,-257.5 754,-222.5 565,-222.5"/>
<text text-anchor="start" x="573.7137" y="-235.3" font-family="Arial Bold" font-size="18.00" fill="#000000">users</text>
<text text-anchor="start" x="617.7183" y="-235.3" font-family="Arial" font-size="14.00" fill="#000000">    </text>
<text text-anchor="start" x="651.9231" y="-235.3" font-family="Arial" font-size="14.00" fill="#666666">[BASE TABLE]</text>
<polygon fill="none" stroke="#000000" points="565,-192.5 565,-222.5 754,-222.5 754,-192.5 565,-192.5"/>
<text text-anchor="start" x="572" y="-203.9" font-family="Arial" font-size="14.00" fill="#000000">id    </text>
<text text-anchor="start" x="617.094" y="-203.9" font-family="Arial" font-size="14.00" fill="#666666">[int]</text>
<polygon fill="none" stroke="#000000" points="565,-162.5 565,-192.5 754,-192.5 754,-162.5 565,-162.5"/>
<text text-anchor="start" x="571.6122" y="-173.9" font-family="Arial" font-size="14.00" fill="#000000">username    </text>
<text text-anchor="start" x="668.0512" y="-173.9" font-family="Arial" font-size="14.00" fill="#666666">[varchar(50)]</text>
<polygon fill="none" stroke="#000000" points="565,-132.5 565,-162.5 754,-162.5 754,-132.5 565,-132.5"/>
<text text-anchor="start" x="572" y="-143.9" font-family="Arial" font-size="14.00" fill="#000000">password    </text>
<text text-anchor="start" x="666.1024" y="-143.9" font-family="Arial" font-size="14.00" fill="#666666">[varchar(50)]</text>
<polygon fill="none" stroke="#000000" points="565,-102.5 565,-132.5 754,-132.5 754,-102.5 565,-102.5"/>
<text text-anchor="start" x="572" y="-113.9" font-family="Arial" font-size="14.00" fill="#000000">email    </text>
<text text-anchor="start" x="639.6438" y="-113.9" font-family="Arial" font-size="14.00" fill="#666666">[varchar(355)]</text>
<polygon fill="none" stroke="#000000" points="565,-72.5 565,-102.5 754,-102.5 754,-72.5 565,-72.5"/>
<text text-anchor="start" x="572" y="-83.9" font-family="Arial" font-size="14.00" fill="#000000">created    </text>
<text text-anchor="start" x="652.8864" y="-83.9" font-family="Arial" font-size="14.00" fill="#666666">[timestamp]</text>
<polygon fill="none" stroke="#000000" points="565,-42.5 565,-72.5 754,-72.5 754,-42.5 565,-42.5"/>
<text text-anchor="start" x="572" y="-53.9" font-family="Arial" font-size="14.00" fill="#000000">updated    </text>
<text text-anchor="start" x="656.791" y="-53.9" font-family="Arial" font-size="14.00" fill="#666666">[timestamp]</text>
</g>
<!-- comment_stars&#45;&gt;users -->
<g id="edge1" class="edge">
<title>comment_stars:comment_user_id&#45;&gt;users:id</title>
<path fill="none" stroke="#000000" d="M728.9857,-1202.453C763.9382,-1193.88 720.2133,-1134.3311 719,-1086 714.8213,-919.5426 618.2105,-483.1477 698,-337 712.1783,-311.0301 739.8217,-326.9699 754,-301 773.9129,-264.5262 795.5556,-207.5 754,-207.5"/>
<polygon fill="#000000" stroke="#000000" points="728.9455,-1202.4572 718.5307,-1199.0245 723.9727,-1202.9786 719,-1203.5 719,-1203.5 719,-1203.5 723.9727,-1202.9786 719.4693,-1207.9755 728.9455,-1202.4572 728.9455,-1202.4572"/>
<text text-anchor="start" x="725.6085" y="-1213.5" font-family="Arial" font-size="10.00" fill="#000000">FOREIGN KEY (comment_user_id) REFERENCES users (id)</text>
</g>
<!-- posts -->
<g id="node8" class="node">
<title>posts</title>
<polygon fill="#efefef" stroke="transparent" points="277,-589.5 277,-624.5 570,-624.5 570,-589.5 277,-589.5"/>
<polygon fill="none" stroke="#000000" points="277,-589.5 277,-624.5 570,-624.5 570,-589.5 277,-589.5"/>
<text text-anchor="start" x="338.2087" y="-602.3" font-family="Arial Bold" font-size="18.00" fill="#000000">posts</text>
<text text-anchor="start" x="381.2233" y="-602.3" font-family="Arial" font-size="14.00" fill="#000000">    </text>
<text text-anchor="start" x="415.4281" y="-602.3" font-family="Arial" font-size="14.00" fill="#666666">[BASE TABLE]</text>
<polygon fill="none" stroke="#000000" points="277,-559.5 277,-589.5 570,-589.5 570,-559.5 277,-559.5"/>
<text text-anchor="start" x="284" y="-570.9" font-family="Arial" font-size="14.00" fill="#000000">id    </text>
<text text-anchor="start" x="329.094" y="-570.9" font-family="Arial" font-size="14.00" fill="#666666">[bigint]</text>
<polygon fill="none" stroke="#000000" points="277,-529.5 277,-559.5 570,-559.5 570,-529.5 277,-529.5"/>
<text text-anchor="start" x="284" y="-540.9" font-family="Arial" font-size="14.00" fill="#000000">user_id    </text>
<text text-anchor="start" x="364.1024" y="-540.9" font-family="Arial" font-size="14.00" fill="#666666">[int]</text>
<polygon fill="none" stroke="#000000" points="277,-499.5 277,-529.5 570,-529.5 570,-499.5 277,-499.5"/>
<text text-anchor="start" x="284" y="-510.9" font-family="Arial" font-size="14.00" fill="#000000">title    </text>
<text text-anchor="start" x="339.9818" y="-510.9" font-family="Arial" font-size="14.00" fill="#666666">[varchar(255)]</text>
<polygon fill="none" stroke="#000000" points="277,-469.5 277,-499.5 570,-499.5 570,-469.5 277,-469.5"/>
<text text-anchor="start" x="284" y="-480.9" font-family="Arial" font-size="14.00" fill="#000000">body    </text>
<text text-anchor="start" x="348.5526" y="-480.9" font-family="Arial" font-size="14.00" fill="#666666">[text]</text>
<polygon fill="none" stroke="#000000" points="277,-439.5 277,-469.5 570,-469.5 570,-439.5 277,-439.5"/>
<text text-anchor="start" x="283.5399" y="-450.9" font-family="Arial" font-size="14.00" fill="#000000">post_type    </text>
<text text-anchor="start" x="378.4389" y="-450.9" font-family="Arial" font-size="14.00" fill="#666666">[enum(&#39;public&#39;,&#39;private&#39;,&#39;draft&#39;)]</text>
<polygon fill="none" stroke="#000000" points="277,-409.5 277,-439.5 570,-439.5 570,-409.5 277,-409.5"/>
<text text-anchor="start" x="284" y="-420.9" font-family="Arial" font-size="14.00" fill="#000000">created    </text>
<text text-anchor="start" x="364.8864" y="-420.9" font-family="Arial" font-size="14.00" fill="#666666">[datetime]</text>
<polygon fill="none" stroke="#000000" points="277,-379.5 277,-409.5 570,-409.5 570,-379.5 277,-379.5"/>
<text text-anchor="start" x="284" y="-390.9" font-family="Arial" font-size="14.00" fill="#000000">updated    </text>
<text text-anchor="start" x="368.791" y="-390.9" font-family="Arial" font-size="14.00" fill="#666666">[datetime]</text>
</g>
<!-- comments&#45;&gt;posts -->
<g id="edge3" class="edge">
<title>comments:post_id&#45;&gt;posts:id</title>
<path fill="none" stroke="#000000" d="M373.7624,-910.8878C294.4359,-900.9462 327.6035,-772.3586 384,-704 437.5843,-639.0501 516.4157,-732.9499 570,-668 596.4454,-635.9453 611.5556,-574.5 570,-574.5"/>
<polygon fill="#000000" stroke="#000000" points="374.0178,-910.903 383.7313,-915.992 379.0089,-911.2015 384,-911.5 384,-911.5 384,-911.5 379.0089,-911.2015 384.2687,-907.008 374.0178,-910.903 374.0178,-910.903"/>
<text text-anchor="start" x="152.495" y="-921.5" font-family="Arial" font-size="10.00" fill="#000000">FOREIGN KEY (post_id) REFERENCES posts (id)</text>
</g>
<!-- comments&#45;&gt;users -->
<g id="edge4" class="edge">
<title>comments:user_id&#45;&gt;users:id</title>
<path fill="none" stroke="#000000" d="M615.4898,-874.3349C645.8682,-814.4525 654.2645,-397.9294 621,-337 606.8217,-311.0301 579.1783,-326.9699 565,-301 545.0871,-264.5262 523.4444,-207.5 565,-207.5"/>
<polygon fill="#000000" stroke="#000000" points="615.226,-874.5873 604.8893,-878.2483 611.613,-878.0436 608,-881.5 608,-881.5 608,-881.5 611.613,-878.0436 611.1107,-884.7517 615.226,-874.5873 615.226,-874.5873"/>
<text text-anchor="start" x="614.945" y="-891.5" font-family="Arial" font-size="10.00" fill="#000000">FOREIGN KEY (user_id) REFERENCES users (id)</text>
</g>
<!-- hyphen&#45;table -->
<g id="node4" class="node">
<title>hyphen&#45;table</title>
<polygon fill="#efefef" stroke="transparent" points="824,-1263.5 824,-1298.5 1069,-1298.5 1069,-1263.5 824,-1263.5"/>
<polygon fill="none" stroke="#000000" points="824,-1263.5 824,-1298.5 1069,-1298.5 1069,-1263.5 824,-1263.5"/>
<text text-anchor="start" x="830.6969" y="-1276.3" font-family="Arial Bold" font-size="18.00" fill="#000000">hyphen&#45;table</text>
<text text-anchor="start" x="934.7351" y="-1276.3" font-family="Arial" font-size="14.00" fill="#000000">    </text>
<text text-anchor="start" x="968.9399" y="-1276.3" font-family="Arial" font-size="14.00" fill="#666666">[BASE TABLE]</text>
<polygon fill="none" stroke="#000000" points="824,-1233.5 824,-1263.5 1069,-1263.5 1069,-1233.5 824,-1233.5"/>
<text text-anchor="start" x="831" y="-1244.9" font-family="Arial" font-size="14.00" fill="#000000">id    </text>
<text text-anchor="start" x="876.094" y="-1244.9" font-family="Arial" font-size="14.00" fill="#666666">[bigint]</text>
<polygon fill="none" stroke="#000000" points="824,-1203.5 824,-1233.5 1069,-1233.5 1069,-1203.5 824,-1203.5"/>
<text text-anchor="start" x="831" y="-1214.9" font-family="Arial" font-size="14.00" fill="#000000">hyphen&#45;column    </text>
<text text-anchor="start" x="960.8934" y="-1214.9" font-family="Arial" font-size="14.00" fill="#666666">[text]</text>
<polygon fill="none" stroke="#000000" points="824,-1173.5 824,-1203.5 1069,-1203.5 1069,-1173.5 824,-1173.5"/>
<text text-anchor="start" x="831" y="-1184.9" font-family="Arial" font-size="14.00" fill="#000000">created    </text>
<text text-anchor="start" x="911.8864" y="-1184.9" font-family="Arial" font-size="14.00" fill="#666666">[datetime]</text>
</g>
<!-- logs -->
<g id="node5" class="node">
<title>logs</title>
<polygon fill="#efefef" stroke="transparent" points="1173,-1323.5 1173,-1358.5 1369,-1358.5 1369,-1323.5 1173,-1323.5"/>
<polygon fill="none" stroke="#000000" points="1173,-1323.5 1173,-1358.5 1369,-1358.5 1369,-1323.5 1173,-1323.5"/>
<text text-anchor="start" x="1190.7127" y="-1336.3" font-family="Arial Bold" font-size="18.00" fill="#000000">logs</text>
<text text-anchor="start" x="1223.7193" y="-1336.3" font-family="Arial" font-size="14.00" fill="#000000">    </text>
<text text-anchor="start" x="1257.9241" y="-1336.3" font-family="Arial" font-size="14.00" fill="#666666">[BASE TABLE]</text>
<polygon fill="none" stroke="#000000" points="1173,-1293.5 1173,-1323.5 1369,-1323.5 1369,-1293.5 1173,-1293.5"/>
<text text-anchor="start" x="1180" y="-1304.9" font-family="Arial" font-size="14.00" fill="#000000">id    </text>
<text text-anchor="start" x="1225.094" y="-1304.9" font-family="Arial" font-size="14.00" fill="#666666">[bigint]</text>
<polygon fill="none" stroke="#000000" points="1173,-1263.5 1173,-1293.5 1369,-1293.5 1369,-1263.5 1173,-1263.5"/>
<text text-anchor="start" x="1180" y="-1274.9" font-family="Arial" font-size="14.00" fill="#000000">user_id    </text>
<text text-anchor="start" x="1260.1024" y="-1274.9" font-family="Arial" font-size="14.00" fill="#666666">[int]</text>
<polygon fill="none" stroke="#000000" points="1173,-1233.5 1173,-1263.5 1369,-1263.5 1369,-1233.5 1173,-1233.5"/>
<text text-anchor="start" x="1180" y="-1244.9" font-family="Arial" font-size="14.00" fill="#000000">post_id    </text>
<text text-anchor="start" x="1259.3324" y="-1244.9" font-family="Arial" font-size="14.00" fill="#666666">[bigint]</text>
<polygon fill="none" stroke="#000000" points="1173,-1203.5 1173,-1233.5 1369,-1233.5 1369,-1203.5 1173,-1203.5"/>
<text text-anchor="start" x="1180" y="-1214.9" font-family="Arial" font-size="14.00" fill="#000000">comment_id    </text>
<text text-anchor="start" x="1290.4362" y="-1214.9" font-family="Arial" font-size="14.00" fill="#666666">[bigint]</text>
<polygon fill="none" stroke="#000000" points="1173,-1173.5 1173,-1203.5 1369,-1203.5 1369,-1173.5 1173,-1173.5"/>
<text text-anchor="start" x="1179.6073" y="-1184.9" font-family="Arial" font-size="14.00" fill="#000000">comment_star_id    </text>
<text text-anchor="start" x="1321.1599" y="-1184.9" font-family="Arial" font-size="14.00" fill="#666666">[bigint]</text>
<polygon fill="none" stroke="#000000" points="1173,-1143.5 1173,-1173.5 1369,-1173.5 1369,-1143.5 1173,-1143.5"/>
<text text-anchor="start" x="1180" y="-1154.9" font-family="Arial" font-size="14.00" fill="#000000">payload    </text>
<text text-anchor="start" x="1263.2244" y="-1154.9" font-family="Arial" font-size="14.00" fill="#666666">[text]</text>
<polygon fill="none" stroke="#000000" points="1173,-1113.5 1173,-1143.5 1369,-1143.5 1369,-1113.5 1173,-1113.5"/>
<text text-anchor="start" x="1180" y="-1124.9" font-family="Arial" font-size="14.00" fill="#000000">created    </text>
<text text-anchor="start" x="1260.8864" y="-1124.9" font-family="Arial" font-size="14.00" fill="#666666">[datetime]</text>
</g>
<!-- long_long_long_long_long_long_long_long_table_name -->
<g id="node6" class="node">
<title>long_long_long_long_long_long_long_long_table_name</title>
<polygon fill="#efefef" stroke="transparent" points="1474,-1248.5 1474,-1283.5 2061,-1283.5 2061,-1248.5 1474,-1248.5"/>
<polygon fill="none" stroke="#000000" points="1474,-1248.5 1474,-1283.5 2061,-1283.5 2061,-1248.5 1474,-1248.5"/>
<text text-anchor="start" x="1480.624" y="-1261.3" font-family="Arial Bold" font-size="18.00" fill="#000000">long_long_long_long_long_long_long_long_table_name</text>
<text text-anchor="start" x="1926.808" y="-1261.3" font-family="Arial" font-size="14.00" fill="#000000">    </text>
<text text-anchor="start" x="1961.0128" y="-1261.3" font-family="Arial" font-size="14.00" fill="#666666">[BASE TABLE]</text>
<polygon fill="none" stroke="#000000" points="1474,-1218.5 1474,-1248.5 2061,-1248.5 2061,-1218.5 1474,-1218.5"/>
<text text-anchor="start" x="1481" y="-1229.9" font-family="Arial" font-size="14.00" fill="#000000">id    </text>
<text text-anchor="start" x="1526.094" y="-1229.9" font-family="Arial" font-size="14.00" fill="#666666">[bigint]</text>
<polygon fill="none" stroke="#000000" points="1474,-1188.5 1474,-1218.5 2061,-1218.5 2061,-1188.5 1474,-1188.5"/>
<text text-anchor="start" x="1481" y="-1199.9" font-family="Arial" font-size="14.00" fill="#000000">created    </text>
<text text-anchor="start" x="1561.8864" y="-1199.9" font-family="Arial" font-size="14.00" fill="#666666">[datetime]</text>
</g>
<!-- post_comments -->
<g id="node7" class="node">
<title>post_comments</title>
<polygon fill="#efefef" stroke="transparent" points="2165,-1323.5 2165,-1358.5 2385,-1358.5 2385,-1323.5 2165,-1323.5"/>
<polygon fill="none" stroke="#000000" points="2165,-1323.5 2165,-1358.5 2385,-1358.5 2385,-1323.5 2165,-1323.5"/>
<text text-anchor="start" x="2172.6048" y="-1336.3" font-family="Arial Bold" font-size="18.00" fill="#000000">post_comments</text>
<text text-anchor="start" x="2299.6308" y="-1336.3" font-family="Arial" font-size="14.00" fill="#000000">    </text>
<text text-anchor="start" x="2333.8356" y="-1336.3" font-family="Arial" font-size="14.00" fill="#666666">[VIEW]</text>
<polygon fill="none" stroke="#000000" points="2165,-1293.5 2165,-1323.5 2385,-1323.5 2385,-1293.5 2165,-1293.5"/>
<text text-anchor="start" x="2172" y="-1304.9" font-family="Arial" font-size="14.00" fill="#000000">id    </text>
<text text-anchor="start" x="2217.094" y="-1304.9" font-family="Arial" font-size="14.00" fill="#666666">[bigint]</text>
<polygon fill="none" stroke="#000000" points="2165,-1263.5 2165,-1293.5 2385,-1293.5 2385,-1263.5 2165,-1263.5"/>
<text text-anchor="start" x="2172" y="-1274.9" font-family="Arial" font-size="14.00" fill="#000000">title    </text>
<text text-anchor="start" x="2227.9818" y="-1274.9" font-family="Arial" font-size="14.00" fill="#666666">[varchar(255)]</text>
<polygon fill="none" stroke="#000000" points="2165,-1233.5 2165,-1263.5 2385,-1263.5 2385,-1233.5 2165,-1233.5"/>
<text text-anchor="start" x="2172" y="-1244.9" font-family="Arial" font-size="14.00" fill="#000000">post_user    </text>
<text text-anchor="start" x="2267.669" y="-1244.9" font-family="Arial" font-size="14.00" fill="#666666">[varchar(50)]</text>
<polygon fill="none" stroke="#000000" points="2165,-1203.5 2165,-1233.5 2385,-1233.5 2385,-1203.5 2165,-1203.5"/>
<text text-anchor="start" x="2172" y="-1214.9" font-family="Arial" font-size="14.00" fill="#000000">comment    </text>
<text text-anchor="start" x="2263.7644" y="-1214.9" font-family="Arial" font-size="14.00" fill="#666666">[text]</text>
<polygon fill="none" stroke="#000000" points="2165,-1173.5 2165,-1203.5 2385,-1203.5 2385,-1173.5 2165,-1173.5"/>
<text text-anchor="start" x="2171.9453" y="-1184.9" font-family="Arial" font-size="14.00" fill="#000000">comment_user    </text>
<text text-anchor="start" x="2298.7181" y="-1184.9" font-family="Arial" font-size="14.00" fill="#666666">[varchar(50)]</text>
<polygon fill="none" stroke="#000000" points="2165,-1143.5 2165,-1173.5 2385,-1173.5 2385,-1143.5 2165,-1143.5"/>
<text text-anchor="start" x="2172" y="-1154.9" font-family="Arial" font-size="14.00" fill="#000000">created    </text>
<text text-anchor="start" x="2252.8864" y="-1154.9" font-family="Arial" font-size="14.00" fill="#666666">[datetime]</text>
<polygon fill="none" stroke="#000000" points="2165,-1113.5 2165,-1143.5 2385,-1143.5 2385,-1113.5 2165,-1113.5"/>
<text text-anchor="start" x="2172" y="-1124.9" font-family="Arial" font-size="14.00" fill="#000000">updated    </text>
<text text-anchor="start" x="2256.791" y="-1124.9" font-family="Arial" font-size="14.00" fill="#666666">[datetime]</text>
</g>
<!-- posts&#45;&gt;users -->
<g id="edge5" class="edge">
<title>posts:user_id&#45;&gt;users:id</title>
<path fill="none" stroke="#000000" d="M580.0858,-544.0578C671.3289,-535.5315 572.2155,-405.4019 565,-301 562.1348,-259.5433 523.4444,-207.5 565,-207.5"/>
<polygon fill="#000000" stroke="#000000" points="579.9904,-544.0619 569.8028,-540.0043 574.9952,-544.2809 570,-544.5 570,-544.5 570,-544.5 574.9952,-544.2809 570.1972,-548.9957 579.9904,-544.0619 579.9904,-544.0619"/>
<text text-anchor="start" x="576.945" y="-554.5" font-family="Arial" font-size="10.00" fill="#000000">FOREIGN KEY (user_id) REFERENCES users (id)</text>
</g>
<!-- user_options -->
<g id="node9" class="node">
<title>user_options</title>
<polygon fill="#efefef" stroke="transparent" points="750,-544.5 750,-579.5 994,-579.5 994,-544.5 750,-544.5"/>
<polygon fill="none" stroke="#000000" points="750,-544.5 750,-579.5 994,-579.5 994,-544.5 750,-544.5"/>
<text text-anchor="start" x="756.7" y="-557.3" font-family="Arial Bold" font-size="18.00" fill="#000000">user_options</text>
<text text-anchor="start" x="859.732" y="-557.3" font-family="Arial" font-size="14.00" fill="#000000">    </text>
<text text-anchor="start" x="893.9368" y="-557.3" font-family="Arial" font-size="14.00" fill="#666666">[BASE TABLE]</text>
<polygon fill="none" stroke="#000000" points="750,-514.5 750,-544.5 994,-544.5 994,-514.5 750,-514.5"/>
<text text-anchor="start" x="757" y="-525.9" font-family="Arial" font-size="14.00" fill="#000000">user_id    </text>
<text text-anchor="start" x="837.1024" y="-525.9" font-family="Arial" font-size="14.00" fill="#666666">[int]</text>
<polygon fill="none" stroke="#000000" points="750,-484.5 750,-514.5 994,-514.5 994,-484.5 750,-484.5"/>
<text text-anchor="start" x="757" y="-495.9" font-family="Arial" font-size="14.00" fill="#000000">show_email    </text>
<text text-anchor="start" x="865.0982" y="-495.9" font-family="Arial" font-size="14.00" fill="#666666">[tinyint(1)]</text>
<polygon fill="none" stroke="#000000" points="750,-454.5 750,-484.5 994,-484.5 994,-454.5 750,-454.5"/>
<text text-anchor="start" x="757" y="-465.9" font-family="Arial" font-size="14.00" fill="#000000">created    </text>
<text text-anchor="start" x="837.8864" y="-465.9" font-family="Arial" font-size="14.00" fill="#666666">[timestamp]</text>
<polygon fill="none" stroke="#000000" points="750,-424.5 750,-454.5 994,-454.5 994,-424.5 750,-424.5"/>
<text text-anchor="start" x="757" y="-435.9" font-family="Arial" font-size="14.00" fill="#000000">updated    </text>
<text text-anchor="start" x="841.791" y="-435.9" font-family="Arial" font-size="14.00" fill="#666666">[timestamp]</text>
</g>
<!-- user_options&#45;&gt;users -->
<g id="edge6" class="edge">
<title>user_options:user_id&#45;&gt;users:id</title>
<path fill="none" stroke="#000000" d="M739.9221,-528.8878C621.3374,-513.356 893.4882,-207.5 754,-207.5"/>
<polygon fill="#000000" stroke="#000000" points="740.0184,-528.8935 749.7271,-533.9917 745.0092,-529.1968 750,-529.5 750,-529.5 750,-529.5 745.0092,-529.1968 750.2729,-525.0083 740.0184,-528.8935 740.0184,-528.8935"/>
<text text-anchor="start" x="636.945" y="-513.5" font-family="Arial" font-size="10.00" fill="#000000">FOREIGN KEY (user_id) REFERENCES users (id)</text>
</g>
</g>
</svg>
