<?xml version="1.0" encoding="UTF-8" standalone="no"?>
<!DOCTYPE svg PUBLIC "-//W3C//DTD SVG 1.1//EN"
 "http://www.w3.org/Graphics/SVG/1.1/DTD/svg11.dtd">
<!-- Generated by graphviz version 12.1.2 (20240928.0832)
 -->
<!-- Title: testdb Pages: 1 -->
<svg width="2365pt" height="1436pt"
 viewBox="0.00 0.00 2365.28 1435.60" xmlns="http://www.w3.org/2000/svg" xmlns:xlink="http://www.w3.org/1999/xlink">
<g id="graph0" class="graph" transform="scale(1 1) rotate(0) translate(4 1431.6)">
<title>testdb</title>
<polygon fill="white" stroke="none" points="-4,4 -4,-1431.6 2361.28,-1431.6 2361.28,4 -4,4"/>
<!-- CamelizeTable -->
<g id="node1" class="node">
<title>CamelizeTable</title>
<polygon fill="#efefef" stroke="none" points="104.83,-1271.8 104.83,-1307.4 352.26,-1307.4 352.26,-1271.8 104.83,-1271.8"/>
<polygon fill="none" stroke="black" points="104.83,-1271.8 104.83,-1307.4 352.26,-1307.4 352.26,-1271.8 104.83,-1271.8"/>
<text text-anchor="start" x="111.83" y="-1285.2" font-family="Arial Bold" font-size="18.00">CamelizeTable</text>
<text text-anchor="start" x="220.77" y="-1285.2" font-family="Arial" font-size="14.00">    </text>
<text text-anchor="start" x="251.89" y="-1285.2" font-family="Arial" font-size="14.00" fill="#666666">[BASE TABLE]</text>
<polygon fill="none" stroke="black" points="104.83,-1241 104.83,-1271.8 352.26,-1271.8 352.26,-1241 104.83,-1241"/>
<text text-anchor="start" x="111.83" y="-1253.2" font-family="Arial" font-size="14.00">id    </text>
<text text-anchor="start" x="153.85" y="-1253.2" font-family="Arial" font-size="14.00" fill="#666666">[bigint]</text>
<polygon fill="none" stroke="black" points="104.83,-1210.2 104.83,-1241 352.26,-1241 352.26,-1210.2 104.83,-1210.2"/>
<text text-anchor="start" x="111.83" y="-1222.4" font-family="Arial" font-size="14.00">created    </text>
<text text-anchor="start" x="189.65" y="-1222.4" font-family="Arial" font-size="14.00" fill="#666666">[datetime]</text>
</g>
<!-- comment_stars -->
<g id="node2" class="node">
<title>comment_stars</title>
<polygon fill="#efefef" stroke="none" points="456.82,-1333.4 456.82,-1369 704.28,-1369 704.28,-1333.4 456.82,-1333.4"/>
<polygon fill="none" stroke="black" points="456.82,-1333.4 456.82,-1369 704.28,-1369 704.28,-1333.4 456.82,-1333.4"/>
<text text-anchor="start" x="463.82" y="-1346.8" font-family="Arial Bold" font-size="18.00">comment_stars</text>
<text text-anchor="start" x="572.79" y="-1346.8" font-family="Arial" font-size="14.00">    </text>
<text text-anchor="start" x="603.91" y="-1346.8" font-family="Arial" font-size="14.00" fill="#666666">[BASE TABLE]</text>
<polygon fill="none" stroke="black" points="456.82,-1302.6 456.82,-1333.4 704.28,-1333.4 704.28,-1302.6 456.82,-1302.6"/>
<text text-anchor="start" x="463.82" y="-1314.8" font-family="Arial" font-size="14.00">id    </text>
<text text-anchor="start" x="505.83" y="-1314.8" font-family="Arial" font-size="14.00" fill="#666666">[bigint]</text>
<polygon fill="none" stroke="black" points="456.82,-1271.8 456.82,-1302.6 704.28,-1302.6 704.28,-1271.8 456.82,-1271.8"/>
<text text-anchor="start" x="463.82" y="-1284" font-family="Arial" font-size="14.00">user_id    </text>
<text text-anchor="start" x="540.85" y="-1284" font-family="Arial" font-size="14.00" fill="#666666">[int]</text>
<polygon fill="none" stroke="black" points="456.82,-1241 456.82,-1271.8 704.28,-1271.8 704.28,-1241 456.82,-1241"/>
<text text-anchor="start" x="463.82" y="-1253.2" font-family="Arial" font-size="14.00">comment_post_id    </text>
<text text-anchor="start" x="605.44" y="-1253.2" font-family="Arial" font-size="14.00" fill="#666666">[bigint]</text>
<polygon fill="none" stroke="black" points="456.82,-1210.2 456.82,-1241 704.28,-1241 704.28,-1210.2 456.82,-1210.2"/>
<text text-anchor="start" x="463.82" y="-1222.4" font-family="Arial" font-size="14.00">comment_user_id    </text>
<text text-anchor="start" x="606.21" y="-1222.4" font-family="Arial" font-size="14.00" fill="#666666">[int]</text>
<polygon fill="none" stroke="black" points="456.82,-1179.4 456.82,-1210.2 704.28,-1210.2 704.28,-1179.4 456.82,-1179.4"/>
<text text-anchor="start" x="463.82" y="-1191.6" font-family="Arial" font-size="14.00">created    </text>
<text text-anchor="start" x="541.63" y="-1191.6" font-family="Arial" font-size="14.00" fill="#666666">[timestamp]</text>
<polygon fill="none" stroke="black" points="456.82,-1148.6 456.82,-1179.4 704.28,-1179.4 704.28,-1148.6 456.82,-1148.6"/>
<text text-anchor="start" x="463.82" y="-1160.8" font-family="Arial" font-size="14.00">updated    </text>
<text text-anchor="start" x="545.54" y="-1160.8" font-family="Arial" font-size="14.00" fill="#666666">[timestamp]</text>
</g>
<!-- comments -->
<g id="node3" class="node">
<title>comments</title>
<polygon fill="#efefef" stroke="none" points="385.31,-975.2 385.31,-1010.8 597.79,-1010.8 597.79,-975.2 385.31,-975.2"/>
<polygon fill="none" stroke="black" points="385.31,-975.2 385.31,-1010.8 597.79,-1010.8 597.79,-975.2 385.31,-975.2"/>
<text text-anchor="start" x="392.31" y="-988.6" font-family="Arial Bold" font-size="18.00">comments</text>
<text text-anchor="start" x="466.3" y="-988.6" font-family="Arial" font-size="14.00">    </text>
<text text-anchor="start" x="497.41" y="-988.6" font-family="Arial" font-size="14.00" fill="#666666">[BASE TABLE]</text>
<polygon fill="none" stroke="black" points="385.31,-944.4 385.31,-975.2 597.79,-975.2 597.79,-944.4 385.31,-944.4"/>
<text text-anchor="start" x="392.31" y="-956.6" font-family="Arial" font-size="14.00">id    </text>
<text text-anchor="start" x="434.32" y="-956.6" font-family="Arial" font-size="14.00" fill="#666666">[bigint]</text>
<polygon fill="none" stroke="black" points="385.31,-913.6 385.31,-944.4 597.79,-944.4 597.79,-913.6 385.31,-913.6"/>
<text text-anchor="start" x="392.31" y="-925.8" font-family="Arial" font-size="14.00">post_id    </text>
<text text-anchor="start" x="468.57" y="-925.8" font-family="Arial" font-size="14.00" fill="#666666">[bigint]</text>
<polygon fill="none" stroke="black" points="385.31,-882.8 385.31,-913.6 597.79,-913.6 597.79,-882.8 385.31,-882.8"/>
<text text-anchor="start" x="392.31" y="-895" font-family="Arial" font-size="14.00">user_id    </text>
<text text-anchor="start" x="469.35" y="-895" font-family="Arial" font-size="14.00" fill="#666666">[int]</text>
<polygon fill="none" stroke="black" points="385.31,-852 385.31,-882.8 597.79,-882.8 597.79,-852 385.31,-852"/>
<text text-anchor="start" x="392.31" y="-864.2" font-family="Arial" font-size="14.00">comment    </text>
<text text-anchor="start" x="481" y="-864.2" font-family="Arial" font-size="14.00" fill="#666666">[text]</text>
<polygon fill="none" stroke="black" points="385.31,-821.2 385.31,-852 597.79,-852 597.79,-821.2 385.31,-821.2"/>
<text text-anchor="start" x="392.31" y="-833.4" font-family="Arial" font-size="14.00">post_id_desc    </text>
<text text-anchor="start" x="505.93" y="-833.4" font-family="Arial" font-size="14.00" fill="#666666">[bigint]</text>
<polygon fill="none" stroke="black" points="385.31,-790.4 385.31,-821.2 597.79,-821.2 597.79,-790.4 385.31,-790.4"/>
<text text-anchor="start" x="392.31" y="-802.6" font-family="Arial" font-size="14.00">created    </text>
<text text-anchor="start" x="470.12" y="-802.6" font-family="Arial" font-size="14.00" fill="#666666">[datetime]</text>
<polygon fill="none" stroke="black" points="385.31,-759.6 385.31,-790.4 597.79,-790.4 597.79,-759.6 385.31,-759.6"/>
<text text-anchor="start" x="392.31" y="-771.8" font-family="Arial" font-size="14.00">updated    </text>
<text text-anchor="start" x="474.03" y="-771.8" font-family="Arial" font-size="14.00" fill="#666666">[datetime]</text>
</g>
<!-- comment_stars&#45;&gt;comments -->
<g id="edge2" class="edge">
<title>comment_stars:comment_post_id&#45;&gt;comments:post_id</title>
<path fill="none" stroke="black" d="M445.66,-1255.56C391.95,-1246.01 420.27,-1157.26 456.82,-1105.4 495.23,-1050.89 559.33,-1108.49 597.79,-1054 629.82,-1008.61 654.34,-929 598.79,-929"/>
<polygon fill="black" stroke="black" points="445.52,-1255.55 455.11,-1260.86 450.83,-1255.99 455.15,-1256.34 455.15,-1256.34 455.15,-1256.34 450.83,-1255.99 455.85,-1251.89 445.52,-1255.55"/>
<text text-anchor="start" x="7" y="-1266.4" font-family="Arial" font-size="10.00">FOREIGN KEY (comment_post_id, comment_user_id) REFERENCES comments (post_id, user_id)</text>
</g>
<!-- users -->
<g id="node10" class="node">
<title>users</title>
<polygon fill="#efefef" stroke="none" points="556.18,-228 556.18,-263.6 742.91,-263.6 742.91,-228 556.18,-228"/>
<polygon fill="none" stroke="black" points="556.18,-228 556.18,-263.6 742.91,-263.6 742.91,-228 556.18,-228"/>
<text text-anchor="start" x="568.81" y="-241.4" font-family="Arial Bold" font-size="18.00">users</text>
<text text-anchor="start" x="605.8" y="-241.4" font-family="Arial" font-size="14.00">    </text>
<text text-anchor="start" x="636.92" y="-241.4" font-family="Arial" font-size="14.00" fill="#666666">[BASE TABLE]</text>
<polygon fill="none" stroke="black" points="556.18,-197.2 556.18,-228 742.91,-228 742.91,-197.2 556.18,-197.2"/>
<text text-anchor="start" x="563.18" y="-209.4" font-family="Arial" font-size="14.00">id    </text>
<text text-anchor="start" x="605.2" y="-209.4" font-family="Arial" font-size="14.00" fill="#666666">[int]</text>
<polygon fill="none" stroke="black" points="556.18,-166.4 556.18,-197.2 742.91,-197.2 742.91,-166.4 556.18,-166.4"/>
<text text-anchor="start" x="563.18" y="-178.6" font-family="Arial" font-size="14.00">username    </text>
<text text-anchor="start" x="656.56" y="-178.6" font-family="Arial" font-size="14.00" fill="#666666">[varchar(50)]</text>
<polygon fill="none" stroke="black" points="556.18,-135.6 556.18,-166.4 742.91,-166.4 742.91,-135.6 556.18,-135.6"/>
<text text-anchor="start" x="563.18" y="-147.8" font-family="Arial" font-size="14.00">password    </text>
<text text-anchor="start" x="654.22" y="-147.8" font-family="Arial" font-size="14.00" fill="#666666">[varchar(50)]</text>
<polygon fill="none" stroke="black" points="556.18,-104.8 556.18,-135.6 742.91,-135.6 742.91,-104.8 556.18,-104.8"/>
<text text-anchor="start" x="563.18" y="-117" font-family="Arial" font-size="14.00">email    </text>
<text text-anchor="start" x="627.76" y="-117" font-family="Arial" font-size="14.00" fill="#666666">[varchar(355)]</text>
<polygon fill="none" stroke="black" points="556.18,-74 556.18,-104.8 742.91,-104.8 742.91,-74 556.18,-74"/>
<text text-anchor="start" x="563.18" y="-86.2" font-family="Arial" font-size="14.00">created    </text>
<text text-anchor="start" x="641" y="-86.2" font-family="Arial" font-size="14.00" fill="#666666">[timestamp]</text>
<polygon fill="none" stroke="black" points="556.18,-43.2 556.18,-74 742.91,-74 742.91,-43.2 556.18,-43.2"/>
<text text-anchor="start" x="563.18" y="-55.4" font-family="Arial" font-size="14.00">updated    </text>
<text text-anchor="start" x="644.91" y="-55.4" font-family="Arial" font-size="14.00" fill="#666666">[timestamp]</text>
</g>
<!-- comment_stars&#45;&gt;users -->
<g id="edge1" class="edge">
<title>comment_stars:comment_user_id&#45;&gt;users:id</title>
<path fill="none" stroke="black" d="M715.48,-1224.53C751.1,-1215.76 705.46,-1154.84 704.28,-1105.4 700.24,-935.94 606.71,-491.79 687.55,-342.8 701.55,-317 728.78,-332.52 742.91,-306.8 763.08,-270.11 785.78,-212.6 743.91,-212.6"/>
<polygon fill="black" stroke="black" points="715.56,-1224.52 705.14,-1221.09 710.25,-1225.08 705.95,-1225.53 705.95,-1225.53 705.95,-1225.53 710.25,-1225.08 706.08,-1230.04 715.56,-1224.52"/>
<text text-anchor="start" x="712.28" y="-1235.6" font-family="Arial" font-size="10.00">FOREIGN KEY (comment_user_id) REFERENCES users (id)</text>
</g>
<!-- posts -->
<g id="node8" class="node">
<title>posts</title>
<polygon fill="#efefef" stroke="none" points="271.36,-601.6 271.36,-637.2 559.74,-637.2 559.74,-601.6 271.36,-601.6"/>
<polygon fill="none" stroke="black" points="271.36,-601.6 271.36,-637.2 559.74,-637.2 559.74,-601.6 271.36,-601.6"/>
<text text-anchor="start" x="334.8" y="-615" font-family="Arial Bold" font-size="18.00">posts</text>
<text text-anchor="start" x="371.81" y="-615" font-family="Arial" font-size="14.00">    </text>
<text text-anchor="start" x="402.93" y="-615" font-family="Arial" font-size="14.00" fill="#666666">[BASE TABLE]</text>
<polygon fill="none" stroke="black" points="271.36,-570.8 271.36,-601.6 559.74,-601.6 559.74,-570.8 271.36,-570.8"/>
<text text-anchor="start" x="278.36" y="-583" font-family="Arial" font-size="14.00">id    </text>
<text text-anchor="start" x="320.37" y="-583" font-family="Arial" font-size="14.00" fill="#666666">[bigint]</text>
<polygon fill="none" stroke="black" points="271.36,-540 271.36,-570.8 559.74,-570.8 559.74,-540 271.36,-540"/>
<text text-anchor="start" x="278.36" y="-552.2" font-family="Arial" font-size="14.00">user_id    </text>
<text text-anchor="start" x="355.39" y="-552.2" font-family="Arial" font-size="14.00" fill="#666666">[int]</text>
<polygon fill="none" stroke="black" points="271.36,-509.2 271.36,-540 559.74,-540 559.74,-509.2 271.36,-509.2"/>
<text text-anchor="start" x="278.36" y="-521.4" font-family="Arial" font-size="14.00">title    </text>
<text text-anchor="start" x="331.26" y="-521.4" font-family="Arial" font-size="14.00" fill="#666666">[varchar(255)]</text>
<polygon fill="none" stroke="black" points="271.36,-478.4 271.36,-509.2 559.74,-509.2 559.74,-478.4 271.36,-478.4"/>
<text text-anchor="start" x="278.36" y="-490.6" font-family="Arial" font-size="14.00">body    </text>
<text text-anchor="start" x="339.83" y="-490.6" font-family="Arial" font-size="14.00" fill="#666666">[text]</text>
<polygon fill="none" stroke="black" points="271.36,-447.6 271.36,-478.4 559.74,-478.4 559.74,-447.6 271.36,-447.6"/>
<text text-anchor="start" x="278.36" y="-459.8" font-family="Arial" font-size="14.00">post_type    </text>
<text text-anchor="start" x="370.19" y="-459.8" font-family="Arial" font-size="14.00" fill="#666666">[enum(&#39;public&#39;,&#39;private&#39;,&#39;draft&#39;)]</text>
<polygon fill="none" stroke="black" points="271.36,-416.8 271.36,-447.6 559.74,-447.6 559.74,-416.8 271.36,-416.8"/>
<text text-anchor="start" x="278.36" y="-429" font-family="Arial" font-size="14.00">created    </text>
<text text-anchor="start" x="356.17" y="-429" font-family="Arial" font-size="14.00" fill="#666666">[datetime]</text>
<polygon fill="none" stroke="black" points="271.36,-386 271.36,-416.8 559.74,-416.8 559.74,-386 271.36,-386"/>
<text text-anchor="start" x="278.36" y="-398.2" font-family="Arial" font-size="14.00">updated    </text>
<text text-anchor="start" x="360.08" y="-398.2" font-family="Arial" font-size="14.00" fill="#666666">[datetime]</text>
</g>
<!-- comments&#45;&gt;posts -->
<g id="edge3" class="edge">
<title>comments:post_id&#45;&gt;posts:id</title>
<path fill="none" stroke="black" d="M374.32,-928.43C292.5,-918.74 327.68,-786.8 385.31,-716.4 435.45,-655.15 509.42,-741.5 559.74,-680.4 586.36,-648.08 602.61,-586.2 560.74,-586.2"/>
<polygon fill="black" stroke="black" points="373.99,-928.42 383.72,-933.47 379.32,-928.72 383.64,-928.96 383.64,-928.96 383.64,-928.96 379.32,-928.72 384.23,-924.49 373.99,-928.42"/>
<text text-anchor="start" x="152.26" y="-939" font-family="Arial" font-size="10.00">FOREIGN KEY (post_id) REFERENCES posts (id)</text>
</g>
<!-- comments&#45;&gt;users -->
<g id="edge4" class="edge">
<title>comments:user_id&#45;&gt;users:id</title>
<path fill="none" stroke="black" d="M606.1,-891.27C636.73,-831.6 645.36,-405.11 611.55,-342.8 597.55,-317 570.32,-332.52 556.18,-306.8 536.02,-270.11 513.31,-212.6 555.18,-212.6"/>
<polygon fill="black" stroke="black" points="606.29,-891.1 595.94,-894.7 602.42,-894.76 599.27,-897.74 599.27,-897.74 599.27,-897.74 602.42,-894.76 602.12,-901.24 606.29,-891.1"/>
<text text-anchor="start" x="605.79" y="-908.2" font-family="Arial" font-size="10.00">FOREIGN KEY (user_id) REFERENCES users (id)</text>
</g>
<!-- hyphen&#45;table -->
<g id="node4" class="node">
<title>hyphen&#45;table</title>
<polygon fill="#efefef" stroke="none" points="808.32,-1287.2 808.32,-1322.8 1040.78,-1322.8 1040.78,-1287.2 808.32,-1287.2"/>
<polygon fill="none" stroke="black" points="808.32,-1287.2 808.32,-1322.8 1040.78,-1322.8 1040.78,-1287.2 808.32,-1287.2"/>
<text text-anchor="start" x="815.32" y="-1300.6" font-family="Arial Bold" font-size="18.00">hyphen&#45;table</text>
<text text-anchor="start" x="909.29" y="-1300.6" font-family="Arial" font-size="14.00">    </text>
<text text-anchor="start" x="940.4" y="-1300.6" font-family="Arial" font-size="14.00" fill="#666666">[BASE TABLE]</text>
<polygon fill="none" stroke="black" points="808.32,-1256.4 808.32,-1287.2 1040.78,-1287.2 1040.78,-1256.4 808.32,-1256.4"/>
<text text-anchor="start" x="815.32" y="-1268.6" font-family="Arial" font-size="14.00">id    </text>
<text text-anchor="start" x="857.34" y="-1268.6" font-family="Arial" font-size="14.00" fill="#666666">[bigint]</text>
<polygon fill="none" stroke="black" points="808.32,-1225.6 808.32,-1256.4 1040.78,-1256.4 1040.78,-1225.6 808.32,-1225.6"/>
<text text-anchor="start" x="815.32" y="-1237.8" font-family="Arial" font-size="14.00">hyphen&#45;column    </text>
<text text-anchor="start" x="942.16" y="-1237.8" font-family="Arial" font-size="14.00" fill="#666666">[text]</text>
<polygon fill="none" stroke="black" points="808.32,-1194.8 808.32,-1225.6 1040.78,-1225.6 1040.78,-1194.8 808.32,-1194.8"/>
<text text-anchor="start" x="815.32" y="-1207" font-family="Arial" font-size="14.00">created    </text>
<text text-anchor="start" x="893.14" y="-1207" font-family="Arial" font-size="14.00" fill="#666666">[datetime]</text>
</g>
<!-- logs -->
<g id="node5" class="node">
<title>logs</title>
<polygon fill="#efefef" stroke="none" points="1144.68,-1348.8 1144.68,-1384.4 1338.42,-1384.4 1338.42,-1348.8 1144.68,-1348.8"/>
<polygon fill="none" stroke="black" points="1144.68,-1348.8 1144.68,-1384.4 1338.42,-1384.4 1338.42,-1348.8 1144.68,-1348.8"/>
<text text-anchor="start" x="1164.3" y="-1362.2" font-family="Arial Bold" font-size="18.00">logs</text>
<text text-anchor="start" x="1194.31" y="-1362.2" font-family="Arial" font-size="14.00">    </text>
<text text-anchor="start" x="1225.42" y="-1362.2" font-family="Arial" font-size="14.00" fill="#666666">[BASE TABLE]</text>
<polygon fill="none" stroke="black" points="1144.68,-1318 1144.68,-1348.8 1338.42,-1348.8 1338.42,-1318 1144.68,-1318"/>
<text text-anchor="start" x="1151.68" y="-1330.2" font-family="Arial" font-size="14.00">id    </text>
<text text-anchor="start" x="1193.69" y="-1330.2" font-family="Arial" font-size="14.00" fill="#666666">[bigint]</text>
<polygon fill="none" stroke="black" points="1144.68,-1287.2 1144.68,-1318 1338.42,-1318 1338.42,-1287.2 1144.68,-1287.2"/>
<text text-anchor="start" x="1151.68" y="-1299.4" font-family="Arial" font-size="14.00">user_id    </text>
<text text-anchor="start" x="1228.71" y="-1299.4" font-family="Arial" font-size="14.00" fill="#666666">[int]</text>
<polygon fill="none" stroke="black" points="1144.68,-1256.4 1144.68,-1287.2 1338.42,-1287.2 1338.42,-1256.4 1144.68,-1256.4"/>
<text text-anchor="start" x="1151.68" y="-1268.6" font-family="Arial" font-size="14.00">post_id    </text>
<text text-anchor="start" x="1227.94" y="-1268.6" font-family="Arial" font-size="14.00" fill="#666666">[bigint]</text>
<polygon fill="none" stroke="black" points="1144.68,-1225.6 1144.68,-1256.4 1338.42,-1256.4 1338.42,-1225.6 1144.68,-1225.6"/>
<text text-anchor="start" x="1151.68" y="-1237.8" font-family="Arial" font-size="14.00">comment_id    </text>
<text text-anchor="start" x="1259.05" y="-1237.8" font-family="Arial" font-size="14.00" fill="#666666">[bigint]</text>
<polygon fill="none" stroke="black" points="1144.68,-1194.8 1144.68,-1225.6 1338.42,-1225.6 1338.42,-1194.8 1144.68,-1194.8"/>
<text text-anchor="start" x="1151.68" y="-1207" font-family="Arial" font-size="14.00">comment_star_id    </text>
<text text-anchor="start" x="1290.17" y="-1207" font-family="Arial" font-size="14.00" fill="#666666">[bigint]</text>
<polygon fill="none" stroke="black" points="1144.68,-1164 1144.68,-1194.8 1338.42,-1194.8 1338.42,-1164 1144.68,-1164"/>
<text text-anchor="start" x="1151.68" y="-1176.2" font-family="Arial" font-size="14.00">payload    </text>
<text text-anchor="start" x="1231.83" y="-1176.2" font-family="Arial" font-size="14.00" fill="#666666">[text]</text>
<polygon fill="none" stroke="black" points="1144.68,-1133.2 1144.68,-1164 1338.42,-1164 1338.42,-1133.2 1144.68,-1133.2"/>
<text text-anchor="start" x="1151.68" y="-1145.4" font-family="Arial" font-size="14.00">created    </text>
<text text-anchor="start" x="1229.49" y="-1145.4" font-family="Arial" font-size="14.00" fill="#666666">[datetime]</text>
</g>
<!-- long_long_long_long_long_long_long_long_table_name -->
<g id="node6" class="node">
<title>long_long_long_long_long_long_long_long_table_name</title>
<polygon fill="#efefef" stroke="none" points="1442.82,-1271.8 1442.82,-1307.4 1992.28,-1307.4 1992.28,-1271.8 1442.82,-1271.8"/>
<polygon fill="none" stroke="black" points="1442.82,-1271.8 1442.82,-1307.4 1992.28,-1307.4 1992.28,-1271.8 1442.82,-1271.8"/>
<text text-anchor="start" x="1449.82" y="-1285.2" font-family="Arial Bold" font-size="18.00">long_long_long_long_long_long_long_long_table_name</text>
<text text-anchor="start" x="1860.79" y="-1285.2" font-family="Arial" font-size="14.00">    </text>
<text text-anchor="start" x="1891.91" y="-1285.2" font-family="Arial" font-size="14.00" fill="#666666">[BASE TABLE]</text>
<polygon fill="none" stroke="black" points="1442.82,-1241 1442.82,-1271.8 1992.28,-1271.8 1992.28,-1241 1442.82,-1241"/>
<text text-anchor="start" x="1449.82" y="-1253.2" font-family="Arial" font-size="14.00">id    </text>
<text text-anchor="start" x="1491.83" y="-1253.2" font-family="Arial" font-size="14.00" fill="#666666">[bigint]</text>
<polygon fill="none" stroke="black" points="1442.82,-1210.2 1442.82,-1241 1992.28,-1241 1992.28,-1210.2 1442.82,-1210.2"/>
<text text-anchor="start" x="1449.82" y="-1222.4" font-family="Arial" font-size="14.00">created    </text>
<text text-anchor="start" x="1527.63" y="-1222.4" font-family="Arial" font-size="14.00" fill="#666666">[datetime]</text>
</g>
<!-- post_comments -->
<g id="node7" class="node">
<title>post_comments</title>
<polygon fill="#efefef" stroke="none" points="2097.01,-1348.8 2097.01,-1384.4 2314.08,-1384.4 2314.08,-1348.8 2097.01,-1348.8"/>
<polygon fill="none" stroke="black" points="2097.01,-1348.8 2097.01,-1384.4 2314.08,-1384.4 2314.08,-1348.8 2097.01,-1348.8"/>
<text text-anchor="start" x="2111.71" y="-1362.2" font-family="Arial Bold" font-size="18.00">post_comments</text>
<text text-anchor="start" x="2224.71" y="-1362.2" font-family="Arial" font-size="14.00">    </text>
<text text-anchor="start" x="2255.82" y="-1362.2" font-family="Arial" font-size="14.00" fill="#666666">[VIEW]</text>
<polygon fill="none" stroke="black" points="2097.01,-1318 2097.01,-1348.8 2314.08,-1348.8 2314.08,-1318 2097.01,-1318"/>
<text text-anchor="start" x="2104.01" y="-1330.2" font-family="Arial" font-size="14.00">id    </text>
<text text-anchor="start" x="2146.03" y="-1330.2" font-family="Arial" font-size="14.00" fill="#666666">[bigint]</text>
<polygon fill="none" stroke="black" points="2097.01,-1287.2 2097.01,-1318 2314.08,-1318 2314.08,-1287.2 2097.01,-1287.2"/>
<text text-anchor="start" x="2104.01" y="-1299.4" font-family="Arial" font-size="14.00">title    </text>
<text text-anchor="start" x="2156.92" y="-1299.4" font-family="Arial" font-size="14.00" fill="#666666">[varchar(255)]</text>
<polygon fill="none" stroke="black" points="2097.01,-1256.4 2097.01,-1287.2 2314.08,-1287.2 2314.08,-1256.4 2097.01,-1256.4"/>
<text text-anchor="start" x="2104.01" y="-1268.6" font-family="Arial" font-size="14.00">post_user    </text>
<text text-anchor="start" x="2196.61" y="-1268.6" font-family="Arial" font-size="14.00" fill="#666666">[varchar(50)]</text>
<polygon fill="none" stroke="black" points="2097.01,-1225.6 2097.01,-1256.4 2314.08,-1256.4 2314.08,-1225.6 2097.01,-1225.6"/>
<text text-anchor="start" x="2104.01" y="-1237.8" font-family="Arial" font-size="14.00">comment    </text>
<text text-anchor="start" x="2192.7" y="-1237.8" font-family="Arial" font-size="14.00" fill="#666666">[text]</text>
<polygon fill="none" stroke="black" points="2097.01,-1194.8 2097.01,-1225.6 2314.08,-1225.6 2314.08,-1194.8 2097.01,-1194.8"/>
<text text-anchor="start" x="2104.01" y="-1207" font-family="Arial" font-size="14.00">comment_user    </text>
<text text-anchor="start" x="2227.72" y="-1207" font-family="Arial" font-size="14.00" fill="#666666">[varchar(50)]</text>
<polygon fill="none" stroke="black" points="2097.01,-1164 2097.01,-1194.8 2314.08,-1194.8 2314.08,-1164 2097.01,-1164"/>
<text text-anchor="start" x="2104.01" y="-1176.2" font-family="Arial" font-size="14.00">created    </text>
<text text-anchor="start" x="2181.83" y="-1176.2" font-family="Arial" font-size="14.00" fill="#666666">[datetime]</text>
<polygon fill="none" stroke="black" points="2097.01,-1133.2 2097.01,-1164 2314.08,-1164 2314.08,-1133.2 2097.01,-1133.2"/>
<text text-anchor="start" x="2104.01" y="-1145.4" font-family="Arial" font-size="14.00">updated    </text>
<text text-anchor="start" x="2185.74" y="-1145.4" font-family="Arial" font-size="14.00" fill="#666666">[datetime]</text>
</g>
<!-- posts&#45;&gt;users -->
<g id="edge5" class="edge">
<title>posts:user_id&#45;&gt;users:id</title>
<path fill="none" stroke="black" d="M571.03,-554.95C664.12,-546.25 562.01,-413.48 556.18,-306.8 553.9,-264.99 513.31,-212.6 555.18,-212.6"/>
<polygon fill="black" stroke="black" points="571.06,-554.95 560.88,-550.89 565.73,-555.18 561.41,-555.37 561.41,-555.37 561.41,-555.37 565.73,-555.18 561.27,-559.88 571.06,-554.95"/>
<text text-anchor="start" x="567.74" y="-565.4" font-family="Arial" font-size="10.00">FOREIGN KEY (user_id) REFERENCES users (id)</text>
</g>
<!-- user_options -->
<g id="node9" class="node">
<title>user_options</title>
<polygon fill="#efefef" stroke="none" points="739.31,-555.4 739.31,-591 969.79,-591 969.79,-555.4 739.31,-555.4"/>
<polygon fill="none" stroke="black" points="739.31,-555.4 739.31,-591 969.79,-591 969.79,-555.4 739.31,-555.4"/>
<text text-anchor="start" x="746.31" y="-568.8" font-family="Arial Bold" font-size="18.00">user_options</text>
<text text-anchor="start" x="838.3" y="-568.8" font-family="Arial" font-size="14.00">    </text>
<text text-anchor="start" x="869.42" y="-568.8" font-family="Arial" font-size="14.00" fill="#666666">[BASE TABLE]</text>
<polygon fill="none" stroke="black" points="739.31,-524.6 739.31,-555.4 969.79,-555.4 969.79,-524.6 739.31,-524.6"/>
<text text-anchor="start" x="746.31" y="-536.8" font-family="Arial" font-size="14.00">user_id    </text>
<text text-anchor="start" x="823.34" y="-536.8" font-family="Arial" font-size="14.00" fill="#666666">[int]</text>
<polygon fill="none" stroke="black" points="739.31,-493.8 739.31,-524.6 969.79,-524.6 969.79,-493.8 739.31,-493.8"/>
<text text-anchor="start" x="746.31" y="-506" font-family="Arial" font-size="14.00">show_email    </text>
<text text-anchor="start" x="851.35" y="-506" font-family="Arial" font-size="14.00" fill="#666666">[tinyint(1)]</text>
<polygon fill="none" stroke="black" points="739.31,-463 739.31,-493.8 969.79,-493.8 969.79,-463 739.31,-463"/>
<text text-anchor="start" x="746.31" y="-475.2" font-family="Arial" font-size="14.00">created    </text>
<text text-anchor="start" x="824.12" y="-475.2" font-family="Arial" font-size="14.00" fill="#666666">[timestamp]</text>
<polygon fill="none" stroke="black" points="739.31,-432.2 739.31,-463 969.79,-463 969.79,-432.2 739.31,-432.2"/>
<text text-anchor="start" x="746.31" y="-444.4" font-family="Arial" font-size="14.00">updated    </text>
<text text-anchor="start" x="828.03" y="-444.4" font-family="Arial" font-size="14.00" fill="#666666">[timestamp]</text>
</g>
<!-- user_options&#45;&gt;users -->
<g id="edge6" class="edge">
<title>user_options:user_id&#45;&gt;users:id</title>
<path fill="none" stroke="black" d="M728.06,-539.38C607.55,-523.59 885.75,-212.6 743.91,-212.6"/>
<polygon fill="black" stroke="black" points="727.99,-539.37 737.7,-544.47 733.32,-539.7 737.64,-539.96 737.64,-539.96 737.64,-539.96 733.32,-539.7 738.25,-535.49 727.99,-539.37"/>
<text text-anchor="start" x="625.23" y="-524" font-family="Arial" font-size="10.00">FOREIGN KEY (user_id) REFERENCES users (id)</text>
</g>
</g>
</svg>
