<?xml version="1.0" encoding="UTF-8" standalone="no"?>
<!DOCTYPE svg PUBLIC "-//W3C//DTD SVG 1.1//EN"
 "http://www.w3.org/Graphics/SVG/1.1/DTD/svg11.dtd">
<!-- Generated by graphviz version 2.40.1 (20161225.0304)
 -->
<!-- Title: testdb Pages: 1 -->
<svg width="1780pt" height="1380pt"
 viewBox="0.00 0.00 1779.50 1380.00" xmlns="http://www.w3.org/2000/svg" xmlns:xlink="http://www.w3.org/1999/xlink">
<g id="graph0" class="graph" transform="scale(1 1) rotate(0) translate(4 1376)">
<title>testdb</title>
<polygon fill="#ffffff" stroke="transparent" points="-4,4 -4,-1376 1775.5,-1376 1775.5,4 -4,4"/>
<!-- CamelizeTable -->
<g id="node1" class="node">
<title>CamelizeTable</title>
<polygon fill="#efefef" stroke="transparent" points="487,-881.5 487,-916.5 718,-916.5 718,-881.5 487,-881.5"/>
<polygon fill="none" stroke="#000000" points="487,-881.5 487,-916.5 718,-916.5 718,-881.5 487,-881.5"/>
<text text-anchor="start" x="493.8719" y="-894.3" font-family="Arial Bold" font-size="18.00" fill="#000000">CamelizeTable</text>
<text text-anchor="start" x="613.8743" y="-894.3" font-family="Arial" font-size="14.00" fill="#000000"> </text>
<text text-anchor="start" x="617.7649" y="-894.3" font-family="Arial" font-size="14.00" fill="#666666">[BASE TABLE]</text>
<polygon fill="none" stroke="#000000" points="487,-851.5 487,-881.5 718,-881.5 718,-851.5 487,-851.5"/>
<text text-anchor="start" x="494" y="-862.9" font-family="Arial" font-size="14.00" fill="#000000">id </text>
<text text-anchor="start" x="508.7798" y="-862.9" font-family="Arial" font-size="14.00" fill="#666666">[bigint(20)]</text>
<polygon fill="none" stroke="#000000" points="487,-821.5 487,-851.5 718,-851.5 718,-821.5 487,-821.5"/>
<text text-anchor="start" x="494" y="-832.9" font-family="Arial" font-size="14.00" fill="#000000">CamelizeColumn </text>
<text text-anchor="start" x="604.4404" y="-832.9" font-family="Arial" font-size="14.00" fill="#666666">[int(11)]</text>
<polygon fill="none" stroke="#000000" points="487,-791.5 487,-821.5 718,-821.5 718,-791.5 487,-791.5"/>
<text text-anchor="start" x="494" y="-802.9" font-family="Arial" font-size="14.00" fill="#000000">created </text>
<text text-anchor="start" x="544.5722" y="-802.9" font-family="Arial" font-size="14.00" fill="#666666">[datetime]</text>
</g>
<!-- comment_stars -->
<g id="node2" class="node">
<title>comment_stars</title>
<polygon fill="#efefef" stroke="transparent" points="906,-1278.5 906,-1313.5 1140,-1313.5 1140,-1278.5 906,-1278.5"/>
<polygon fill="none" stroke="#000000" points="906,-1278.5 906,-1313.5 1140,-1313.5 1140,-1278.5 906,-1278.5"/>
<text text-anchor="start" x="912.8671" y="-1291.3" font-family="Arial Bold" font-size="18.00" fill="#000000">comment_stars</text>
<text text-anchor="start" x="1035.8791" y="-1291.3" font-family="Arial" font-size="14.00" fill="#000000"> </text>
<text text-anchor="start" x="1039.7697" y="-1291.3" font-family="Arial" font-size="14.00" fill="#666666">[BASE TABLE]</text>
<polygon fill="none" stroke="#000000" points="906,-1248.5 906,-1278.5 1140,-1278.5 1140,-1248.5 906,-1248.5"/>
<text text-anchor="start" x="913" y="-1259.9" font-family="Arial" font-size="14.00" fill="#000000">id </text>
<text text-anchor="start" x="927.7798" y="-1259.9" font-family="Arial" font-size="14.00" fill="#666666">[bigint(20)]</text>
<polygon fill="none" stroke="#000000" points="906,-1218.5 906,-1248.5 1140,-1248.5 1140,-1218.5 906,-1218.5"/>
<text text-anchor="start" x="913" y="-1229.9" font-family="Arial" font-size="14.00" fill="#000000">user_id </text>
<text text-anchor="start" x="962.7882" y="-1229.9" font-family="Arial" font-size="14.00" fill="#666666">[int(11)]</text>
<polygon fill="none" stroke="#000000" points="906,-1188.5 906,-1218.5 1140,-1218.5 1140,-1188.5 906,-1188.5"/>
<text text-anchor="start" x="913" y="-1199.9" font-family="Arial" font-size="14.00" fill="#000000">comment_post_id </text>
<text text-anchor="start" x="1027.3604" y="-1199.9" font-family="Arial" font-size="14.00" fill="#666666">[bigint(20)]</text>
<polygon fill="none" stroke="#000000" points="906,-1158.5 906,-1188.5 1140,-1188.5 1140,-1158.5 906,-1158.5"/>
<text text-anchor="start" x="913" y="-1169.9" font-family="Arial" font-size="14.00" fill="#000000">comment_user_id </text>
<text text-anchor="start" x="1028.1304" y="-1169.9" font-family="Arial" font-size="14.00" fill="#666666">[int(11)]</text>
<polygon fill="none" stroke="#000000" points="906,-1128.5 906,-1158.5 1140,-1158.5 1140,-1128.5 906,-1128.5"/>
<text text-anchor="start" x="913" y="-1139.9" font-family="Arial" font-size="14.00" fill="#000000">created </text>
<text text-anchor="start" x="963.5722" y="-1139.9" font-family="Arial" font-size="14.00" fill="#666666">[timestamp]</text>
<polygon fill="none" stroke="#000000" points="906,-1098.5 906,-1128.5 1140,-1128.5 1140,-1098.5 906,-1098.5"/>
<text text-anchor="start" x="913" y="-1109.9" font-family="Arial" font-size="14.00" fill="#000000">updated </text>
<text text-anchor="start" x="967.4768" y="-1109.9" font-family="Arial" font-size="14.00" fill="#666666">[timestamp]</text>
</g>
<!-- comments -->
<g id="node3" class="node">
<title>comments</title>
<polygon fill="#efefef" stroke="transparent" points="874,-926.5 874,-961.5 1068,-961.5 1068,-926.5 874,-926.5"/>
<polygon fill="none" stroke="#000000" points="874,-926.5 874,-961.5 1068,-961.5 1068,-926.5 874,-926.5"/>
<text text-anchor="start" x="880.8705" y="-939.3" font-family="Arial Bold" font-size="18.00" fill="#000000">comments</text>
<text text-anchor="start" x="963.8757" y="-939.3" font-family="Arial" font-size="14.00" fill="#000000"> </text>
<text text-anchor="start" x="967.7663" y="-939.3" font-family="Arial" font-size="14.00" fill="#666666">[BASE TABLE]</text>
<polygon fill="none" stroke="#000000" points="874,-896.5 874,-926.5 1068,-926.5 1068,-896.5 874,-896.5"/>
<text text-anchor="start" x="881" y="-907.9" font-family="Arial" font-size="14.00" fill="#000000">id </text>
<text text-anchor="start" x="895.7798" y="-907.9" font-family="Arial" font-size="14.00" fill="#666666">[bigint(20)]</text>
<polygon fill="none" stroke="#000000" points="874,-866.5 874,-896.5 1068,-896.5 1068,-866.5 874,-866.5"/>
<text text-anchor="start" x="881" y="-877.9" font-family="Arial" font-size="14.00" fill="#000000">post_id </text>
<text text-anchor="start" x="930.0182" y="-877.9" font-family="Arial" font-size="14.00" fill="#666666">[bigint(20)]</text>
<polygon fill="none" stroke="#000000" points="874,-836.5 874,-866.5 1068,-866.5 1068,-836.5 874,-836.5"/>
<text text-anchor="start" x="881" y="-847.9" font-family="Arial" font-size="14.00" fill="#000000">user_id </text>
<text text-anchor="start" x="930.7882" y="-847.9" font-family="Arial" font-size="14.00" fill="#666666">[int(11)]</text>
<polygon fill="none" stroke="#000000" points="874,-806.5 874,-836.5 1068,-836.5 1068,-806.5 874,-806.5"/>
<text text-anchor="start" x="881" y="-817.9" font-family="Arial" font-size="14.00" fill="#000000">comment </text>
<text text-anchor="start" x="942.4502" y="-817.9" font-family="Arial" font-size="14.00" fill="#666666">[text]</text>
<polygon fill="none" stroke="#000000" points="874,-776.5 874,-806.5 1068,-806.5 1068,-776.5 874,-776.5"/>
<text text-anchor="start" x="881" y="-787.9" font-family="Arial" font-size="14.00" fill="#000000">created </text>
<text text-anchor="start" x="931.5722" y="-787.9" font-family="Arial" font-size="14.00" fill="#666666">[datetime]</text>
<polygon fill="none" stroke="#000000" points="874,-746.5 874,-776.5 1068,-776.5 1068,-746.5 874,-746.5"/>
<text text-anchor="start" x="881" y="-757.9" font-family="Arial" font-size="14.00" fill="#000000">updated </text>
<text text-anchor="start" x="935.4768" y="-757.9" font-family="Arial" font-size="14.00" fill="#666666">[datetime]</text>
</g>
<!-- comment_stars&#45;&gt;comments -->
<g id="edge2" class="edge">
<title>comment_stars:comment_post_id&#45;&gt;comments:post_id</title>
<path fill="none" stroke="#000000" d="M895.7348,-1202.6139C843.5166,-1192.9129 869.421,-1105.8645 906,-1056 950.6476,-995.1365 1023.3524,-1065.8635 1068,-1005 1100.4661,-960.7423 1122.8889,-881.5 1068,-881.5"/>
<polygon fill="#000000" stroke="#000000" points="896.037,-1202.6399 905.613,-1207.9833 901.0185,-1203.07 906,-1203.5 906,-1203.5 906,-1203.5 901.0185,-1203.07 906.387,-1199.0167 896.037,-1202.6399 896.037,-1202.6399"/>
<text text-anchor="start" x="458.1435" y="-1213.5" font-family="Arial" font-size="10.00" fill="#000000">FOREIGN KEY (comment_post_id, comment_user_id) REFERENCES comments (post_id, user_id)</text>
</g>
<!-- users -->
<g id="node9" class="node">
<title>users</title>
<polygon fill="#efefef" stroke="transparent" points="1040,-222.5 1040,-257.5 1199,-257.5 1199,-222.5 1040,-222.5"/>
<polygon fill="none" stroke="#000000" points="1040,-222.5 1040,-257.5 1199,-257.5 1199,-222.5 1040,-222.5"/>
<text text-anchor="start" x="1048.8708" y="-235.3" font-family="Arial Bold" font-size="18.00" fill="#000000">users</text>
<text text-anchor="start" x="1092.8754" y="-235.3" font-family="Arial" font-size="14.00" fill="#000000"> </text>
<text text-anchor="start" x="1096.766" y="-235.3" font-family="Arial" font-size="14.00" fill="#666666">[BASE TABLE]</text>
<polygon fill="none" stroke="#000000" points="1040,-192.5 1040,-222.5 1199,-222.5 1199,-192.5 1040,-192.5"/>
<text text-anchor="start" x="1047" y="-203.9" font-family="Arial" font-size="14.00" fill="#000000">id </text>
<text text-anchor="start" x="1061.7798" y="-203.9" font-family="Arial" font-size="14.00" fill="#666666">[int(11)]</text>
<polygon fill="none" stroke="#000000" points="1040,-162.5 1040,-192.5 1199,-192.5 1199,-162.5 1040,-162.5"/>
<text text-anchor="start" x="1046.7693" y="-173.9" font-family="Arial" font-size="14.00" fill="#000000">username </text>
<text text-anchor="start" x="1112.8941" y="-173.9" font-family="Arial" font-size="14.00" fill="#666666">[varchar(50)]</text>
<polygon fill="none" stroke="#000000" points="1040,-132.5 1040,-162.5 1199,-162.5 1199,-132.5 1040,-132.5"/>
<text text-anchor="start" x="1047" y="-143.9" font-family="Arial" font-size="14.00" fill="#000000">password </text>
<text text-anchor="start" x="1110.7882" y="-143.9" font-family="Arial" font-size="14.00" fill="#666666">[varchar(50)]</text>
<polygon fill="none" stroke="#000000" points="1040,-102.5 1040,-132.5 1199,-132.5 1199,-102.5 1040,-102.5"/>
<text text-anchor="start" x="1047" y="-113.9" font-family="Arial" font-size="14.00" fill="#000000">email </text>
<text text-anchor="start" x="1084.3296" y="-113.9" font-family="Arial" font-size="14.00" fill="#666666">[varchar(355)]</text>
<polygon fill="none" stroke="#000000" points="1040,-72.5 1040,-102.5 1199,-102.5 1199,-72.5 1040,-72.5"/>
<text text-anchor="start" x="1047" y="-83.9" font-family="Arial" font-size="14.00" fill="#000000">created </text>
<text text-anchor="start" x="1097.5722" y="-83.9" font-family="Arial" font-size="14.00" fill="#666666">[timestamp]</text>
<polygon fill="none" stroke="#000000" points="1040,-42.5 1040,-72.5 1199,-72.5 1199,-42.5 1040,-42.5"/>
<text text-anchor="start" x="1047" y="-53.9" font-family="Arial" font-size="14.00" fill="#000000">updated </text>
<text text-anchor="start" x="1101.4768" y="-53.9" font-family="Arial" font-size="14.00" fill="#666666">[timestamp]</text>
</g>
<!-- comment_stars&#45;&gt;users -->
<g id="edge1" class="edge">
<title>comment_stars:comment_user_id&#45;&gt;users:id</title>
<path fill="none" stroke="#000000" d="M1147.0176,-1166.1357C1181.2505,-1085.9268 1139.4862,-376.7501 1158,-337 1168.2384,-315.0176 1188.9987,-323.0912 1199,-301 1216.1388,-263.1434 1240.5556,-207.5 1199,-207.5"/>
<polygon fill="#000000" stroke="#000000" points="1146.8986,-1166.2605 1136.7422,-1170.3956 1143.4493,-1169.8803 1140,-1173.5 1140,-1173.5 1140,-1173.5 1143.4493,-1169.8803 1143.2578,-1176.6044 1146.8986,-1166.2605 1146.8986,-1166.2605"/>
<text text-anchor="start" x="1003.6085" y="-1157.5" font-family="Arial" font-size="10.00" fill="#000000">FOREIGN KEY (comment_user_id) REFERENCES users (id)</text>
</g>
<!-- posts -->
<g id="node7" class="node">
<title>posts</title>
<polygon fill="#efefef" stroke="transparent" points="767,-589.5 767,-624.5 1030,-624.5 1030,-589.5 767,-589.5"/>
<polygon fill="none" stroke="#000000" points="767,-589.5 767,-624.5 1030,-624.5 1030,-589.5 767,-589.5"/>
<text text-anchor="start" x="828.3658" y="-602.3" font-family="Arial Bold" font-size="18.00" fill="#000000">posts</text>
<text text-anchor="start" x="871.3804" y="-602.3" font-family="Arial" font-size="14.00" fill="#000000"> </text>
<text text-anchor="start" x="875.271" y="-602.3" font-family="Arial" font-size="14.00" fill="#666666">[BASE TABLE]</text>
<polygon fill="none" stroke="#000000" points="767,-559.5 767,-589.5 1030,-589.5 1030,-559.5 767,-559.5"/>
<text text-anchor="start" x="774" y="-570.9" font-family="Arial" font-size="14.00" fill="#000000">id </text>
<text text-anchor="start" x="788.7798" y="-570.9" font-family="Arial" font-size="14.00" fill="#666666">[bigint(20)]</text>
<polygon fill="none" stroke="#000000" points="767,-529.5 767,-559.5 1030,-559.5 1030,-529.5 767,-529.5"/>
<text text-anchor="start" x="774" y="-540.9" font-family="Arial" font-size="14.00" fill="#000000">user_id </text>
<text text-anchor="start" x="823.7882" y="-540.9" font-family="Arial" font-size="14.00" fill="#666666">[int(11)]</text>
<polygon fill="none" stroke="#000000" points="767,-499.5 767,-529.5 1030,-529.5 1030,-499.5 767,-499.5"/>
<text text-anchor="start" x="774" y="-510.9" font-family="Arial" font-size="14.00" fill="#000000">title </text>
<text text-anchor="start" x="799.6676" y="-510.9" font-family="Arial" font-size="14.00" fill="#666666">[varchar(255)]</text>
<polygon fill="none" stroke="#000000" points="767,-469.5 767,-499.5 1030,-499.5 1030,-469.5 767,-469.5"/>
<text text-anchor="start" x="774" y="-480.9" font-family="Arial" font-size="14.00" fill="#000000">body </text>
<text text-anchor="start" x="808.2384" y="-480.9" font-family="Arial" font-size="14.00" fill="#666666">[text]</text>
<polygon fill="none" stroke="#000000" points="767,-439.5 767,-469.5 1030,-469.5 1030,-439.5 767,-439.5"/>
<text text-anchor="start" x="773.697" y="-450.9" font-family="Arial" font-size="14.00" fill="#000000">post_type </text>
<text text-anchor="start" x="838.2818" y="-450.9" font-family="Arial" font-size="14.00" fill="#666666">[enum(&#39;public&#39;,&#39;private&#39;,&#39;draft&#39;)]</text>
<polygon fill="none" stroke="#000000" points="767,-409.5 767,-439.5 1030,-439.5 1030,-409.5 767,-409.5"/>
<text text-anchor="start" x="774" y="-420.9" font-family="Arial" font-size="14.00" fill="#000000">created </text>
<text text-anchor="start" x="824.5722" y="-420.9" font-family="Arial" font-size="14.00" fill="#666666">[datetime]</text>
<polygon fill="none" stroke="#000000" points="767,-379.5 767,-409.5 1030,-409.5 1030,-379.5 767,-379.5"/>
<text text-anchor="start" x="774" y="-390.9" font-family="Arial" font-size="14.00" fill="#000000">updated </text>
<text text-anchor="start" x="828.4768" y="-390.9" font-family="Arial" font-size="14.00" fill="#666666">[datetime]</text>
</g>
<!-- comments&#45;&gt;posts -->
<g id="edge3" class="edge">
<title>comments:post_id&#45;&gt;posts:id</title>
<path fill="none" stroke="#000000" d="M864.0182,-880.8146C797.8254,-871.2084 827.0938,-762.9634 874,-704 918.298,-648.3152 985.702,-723.6848 1030,-668 1055.8705,-635.4795 1071.5556,-574.5 1030,-574.5"/>
<polygon fill="#000000" stroke="#000000" points="864.0235,-880.8148 873.6917,-885.9894 869.0117,-881.1574 874,-881.5 874,-881.5 874,-881.5 869.0117,-881.1574 874.3083,-877.0106 864.0235,-880.8148 864.0235,-880.8148"/>
<text text-anchor="start" x="702.245" y="-865.5" font-family="Arial" font-size="10.00" fill="#000000">FOREIGN KEY (post_id) REFERENCES posts (id)</text>
</g>
<!-- comments&#45;&gt;users -->
<g id="edge4" class="edge">
<title>comments:user_id&#45;&gt;users:id</title>
<path fill="none" stroke="#000000" d="M1078.1104,-850.8948C1143.473,-842.3952 1078.2392,-746.0383 1081,-668 1086.2012,-520.9809 1141.6732,-471.0166 1081,-337 1070.9987,-314.9088 1050.0013,-323.0912 1040,-301 1022.8612,-263.1434 998.4444,-207.5 1040,-207.5"/>
<polygon fill="#000000" stroke="#000000" points="1077.9821,-850.9024 1067.7311,-847.008 1072.9911,-851.2012 1068,-851.5 1068,-851.5 1068,-851.5 1072.9911,-851.2012 1068.2689,-855.992 1077.9821,-850.9024 1077.9821,-850.9024"/>
<text text-anchor="start" x="1074.945" y="-861.5" font-family="Arial" font-size="10.00" fill="#000000">FOREIGN KEY (user_id) REFERENCES users (id)</text>
</g>
<!-- hyphen&#45;table -->
<g id="node4" class="node">
<title>hyphen&#45;table</title>
<polygon fill="#efefef" stroke="transparent" points="466,-1248.5 466,-1283.5 739,-1283.5 739,-1248.5 466,-1248.5"/>
<polygon fill="none" stroke="#000000" points="466,-1248.5 466,-1283.5 739,-1283.5 739,-1248.5 466,-1248.5"/>
<text text-anchor="start" x="501.854" y="-1261.3" font-family="Arial Bold" font-size="18.00" fill="#000000">hyphen&#45;table</text>
<text text-anchor="start" x="605.8922" y="-1261.3" font-family="Arial" font-size="14.00" fill="#000000"> </text>
<text text-anchor="start" x="609.7828" y="-1261.3" font-family="Arial" font-size="14.00" fill="#666666">[BASE TABLE]</text>
<polygon fill="none" stroke="#000000" points="466,-1218.5 466,-1248.5 739,-1248.5 739,-1218.5 466,-1218.5"/>
<text text-anchor="start" x="473" y="-1229.9" font-family="Arial" font-size="14.00" fill="#000000">id </text>
<text text-anchor="start" x="487.7798" y="-1229.9" font-family="Arial" font-size="14.00" fill="#666666">[bigint(20)]</text>
<polygon fill="none" stroke="#000000" points="466,-1188.5 466,-1218.5 739,-1218.5 739,-1188.5 466,-1188.5"/>
<text text-anchor="start" x="473" y="-1199.9" font-family="Arial" font-size="14.00" fill="#000000">hyphen&#45;column </text>
<text text-anchor="start" x="572.5792" y="-1199.9" font-family="Arial" font-size="14.00" fill="#666666">[text]</text>
<polygon fill="none" stroke="#000000" points="466,-1158.5 466,-1188.5 739,-1188.5 739,-1158.5 466,-1158.5"/>
<text text-anchor="start" x="472.9972" y="-1169.9" font-family="Arial" font-size="14.00" fill="#000000">CamelizeTable_CamelizeColumn </text>
<text text-anchor="start" x="684.5554" y="-1169.9" font-family="Arial" font-size="14.00" fill="#666666">[int(11)]</text>
<polygon fill="none" stroke="#000000" points="466,-1128.5 466,-1158.5 739,-1158.5 739,-1128.5 466,-1128.5"/>
<text text-anchor="start" x="473" y="-1139.9" font-family="Arial" font-size="14.00" fill="#000000">created </text>
<text text-anchor="start" x="523.5722" y="-1139.9" font-family="Arial" font-size="14.00" fill="#666666">[datetime]</text>
</g>
<!-- hyphen&#45;table&#45;&gt;CamelizeTable -->
<g id="edge5" class="edge">
<title>hyphen&#45;table:CamelizeTable_CamelizeColumn&#45;&gt;CamelizeTable:CamelizeColumn</title>
<path fill="none" stroke="#000000" d="M455.7297,-1172.9533C316.987,-1157.8882 340.4489,-836.5 487,-836.5"/>
<polygon fill="#000000" stroke="#000000" points="456.0141,-1172.9684 465.7608,-1177.9936 461.0071,-1173.2342 466,-1173.5 466,-1173.5 466,-1173.5 461.0071,-1173.2342 466.2392,-1169.0064 456.0141,-1172.9684 456.0141,-1172.9684"/>
<text text-anchor="start" x="6.895" y="-1183.5" font-family="Arial" font-size="10.00" fill="#000000">FOREIGN KEY (CamelizeTable_CamelizeColumn) REFERENCES CamelizeTable (CamelizeColumn)</text>
</g>
<!-- logs -->
<g id="node5" class="node">
<title>logs</title>
<polygon fill="#efefef" stroke="transparent" points="1245,-1293.5 1245,-1328.5 1436,-1328.5 1436,-1293.5 1245,-1293.5"/>
<polygon fill="none" stroke="#000000" points="1245,-1293.5 1245,-1328.5 1436,-1328.5 1436,-1293.5 1245,-1293.5"/>
<text text-anchor="start" x="1275.3698" y="-1306.3" font-family="Arial Bold" font-size="18.00" fill="#000000">logs</text>
<text text-anchor="start" x="1308.3764" y="-1306.3" font-family="Arial" font-size="14.00" fill="#000000"> </text>
<text text-anchor="start" x="1312.267" y="-1306.3" font-family="Arial" font-size="14.00" fill="#666666">[BASE TABLE]</text>
<polygon fill="none" stroke="#000000" points="1245,-1263.5 1245,-1293.5 1436,-1293.5 1436,-1263.5 1245,-1263.5"/>
<text text-anchor="start" x="1252" y="-1274.9" font-family="Arial" font-size="14.00" fill="#000000">id </text>
<text text-anchor="start" x="1266.7798" y="-1274.9" font-family="Arial" font-size="14.00" fill="#666666">[bigint(20)]</text>
<polygon fill="none" stroke="#000000" points="1245,-1233.5 1245,-1263.5 1436,-1263.5 1436,-1233.5 1245,-1233.5"/>
<text text-anchor="start" x="1252" y="-1244.9" font-family="Arial" font-size="14.00" fill="#000000">user_id </text>
<text text-anchor="start" x="1301.7882" y="-1244.9" font-family="Arial" font-size="14.00" fill="#666666">[int(11)]</text>
<polygon fill="none" stroke="#000000" points="1245,-1203.5 1245,-1233.5 1436,-1233.5 1436,-1203.5 1245,-1203.5"/>
<text text-anchor="start" x="1252" y="-1214.9" font-family="Arial" font-size="14.00" fill="#000000">post_id </text>
<text text-anchor="start" x="1301.0182" y="-1214.9" font-family="Arial" font-size="14.00" fill="#666666">[bigint(20)]</text>
<polygon fill="none" stroke="#000000" points="1245,-1173.5 1245,-1203.5 1436,-1203.5 1436,-1173.5 1245,-1173.5"/>
<text text-anchor="start" x="1252" y="-1184.9" font-family="Arial" font-size="14.00" fill="#000000">comment_id </text>
<text text-anchor="start" x="1332.122" y="-1184.9" font-family="Arial" font-size="14.00" fill="#666666">[bigint(20)]</text>
<polygon fill="none" stroke="#000000" points="1245,-1143.5 1245,-1173.5 1436,-1173.5 1436,-1143.5 1245,-1143.5"/>
<text text-anchor="start" x="1251.8212" y="-1154.9" font-family="Arial" font-size="14.00" fill="#000000">comment_star_id </text>
<text text-anchor="start" x="1363.0596" y="-1154.9" font-family="Arial" font-size="14.00" fill="#666666">[bigint(20)]</text>
<polygon fill="none" stroke="#000000" points="1245,-1113.5 1245,-1143.5 1436,-1143.5 1436,-1113.5 1245,-1113.5"/>
<text text-anchor="start" x="1252" y="-1124.9" font-family="Arial" font-size="14.00" fill="#000000">payload </text>
<text text-anchor="start" x="1304.9102" y="-1124.9" font-family="Arial" font-size="14.00" fill="#666666">[text]</text>
<polygon fill="none" stroke="#000000" points="1245,-1083.5 1245,-1113.5 1436,-1113.5 1436,-1083.5 1245,-1083.5"/>
<text text-anchor="start" x="1252" y="-1094.9" font-family="Arial" font-size="14.00" fill="#000000">created </text>
<text text-anchor="start" x="1302.5722" y="-1094.9" font-family="Arial" font-size="14.00" fill="#666666">[datetime]</text>
</g>
<!-- post_comments -->
<g id="node6" class="node">
<title>post_comments</title>
<polygon fill="#efefef" stroke="transparent" points="1540,-1293.5 1540,-1328.5 1729,-1328.5 1729,-1293.5 1540,-1293.5"/>
<polygon fill="none" stroke="#000000" points="1540,-1293.5 1540,-1328.5 1729,-1328.5 1729,-1293.5 1540,-1293.5"/>
<text text-anchor="start" x="1547.2619" y="-1306.3" font-family="Arial Bold" font-size="18.00" fill="#000000">post_comments</text>
<text text-anchor="start" x="1674.2879" y="-1306.3" font-family="Arial" font-size="14.00" fill="#000000"> </text>
<text text-anchor="start" x="1678.1785" y="-1306.3" font-family="Arial" font-size="14.00" fill="#666666">[VIEW]</text>
<polygon fill="none" stroke="#000000" points="1540,-1263.5 1540,-1293.5 1729,-1293.5 1729,-1263.5 1540,-1263.5"/>
<text text-anchor="start" x="1547" y="-1274.9" font-family="Arial" font-size="14.00" fill="#000000">id </text>
<text text-anchor="start" x="1561.7798" y="-1274.9" font-family="Arial" font-size="14.00" fill="#666666">[bigint(20)]</text>
<polygon fill="none" stroke="#000000" points="1540,-1233.5 1540,-1263.5 1729,-1263.5 1729,-1233.5 1540,-1233.5"/>
<text text-anchor="start" x="1547" y="-1244.9" font-family="Arial" font-size="14.00" fill="#000000">title </text>
<text text-anchor="start" x="1572.6676" y="-1244.9" font-family="Arial" font-size="14.00" fill="#666666">[varchar(255)]</text>
<polygon fill="none" stroke="#000000" points="1540,-1203.5 1540,-1233.5 1729,-1233.5 1729,-1203.5 1540,-1203.5"/>
<text text-anchor="start" x="1547" y="-1214.9" font-family="Arial" font-size="14.00" fill="#000000">post_user </text>
<text text-anchor="start" x="1612.3548" y="-1214.9" font-family="Arial" font-size="14.00" fill="#666666">[varchar(50)]</text>
<polygon fill="none" stroke="#000000" points="1540,-1173.5 1540,-1203.5 1729,-1203.5 1729,-1173.5 1540,-1173.5"/>
<text text-anchor="start" x="1547" y="-1184.9" font-family="Arial" font-size="14.00" fill="#000000">comment </text>
<text text-anchor="start" x="1608.4502" y="-1184.9" font-family="Arial" font-size="14.00" fill="#666666">[text]</text>
<polygon fill="none" stroke="#000000" points="1540,-1143.5 1540,-1173.5 1729,-1173.5 1729,-1143.5 1540,-1143.5"/>
<text text-anchor="start" x="1546.6024" y="-1154.9" font-family="Arial" font-size="14.00" fill="#000000">comment_user </text>
<text text-anchor="start" x="1643.061" y="-1154.9" font-family="Arial" font-size="14.00" fill="#666666">[varchar(50)]</text>
<polygon fill="none" stroke="#000000" points="1540,-1113.5 1540,-1143.5 1729,-1143.5 1729,-1113.5 1540,-1113.5"/>
<text text-anchor="start" x="1547" y="-1124.9" font-family="Arial" font-size="14.00" fill="#000000">created </text>
<text text-anchor="start" x="1597.5722" y="-1124.9" font-family="Arial" font-size="14.00" fill="#666666">[datetime]</text>
<polygon fill="none" stroke="#000000" points="1540,-1083.5 1540,-1113.5 1729,-1113.5 1729,-1083.5 1540,-1083.5"/>
<text text-anchor="start" x="1547" y="-1094.9" font-family="Arial" font-size="14.00" fill="#000000">updated </text>
<text text-anchor="start" x="1601.4768" y="-1094.9" font-family="Arial" font-size="14.00" fill="#666666">[datetime]</text>
</g>
<!-- posts&#45;&gt;users -->
<g id="edge6" class="edge">
<title>posts:user_id&#45;&gt;users:id</title>
<path fill="none" stroke="#000000" d="M1037.5195,-537.4613C1057.0586,-489.067 1005.7584,-207.5 1040,-207.5"/>
<polygon fill="#000000" stroke="#000000" points="1037.3006,-537.6661 1026.9248,-541.2147 1033.6503,-541.0831 1030,-544.5 1030,-544.5 1030,-544.5 1033.6503,-541.0831 1033.0752,-547.7853 1037.3006,-537.6661 1037.3006,-537.6661"/>
<text text-anchor="start" x="976.945" y="-528.5" font-family="Arial" font-size="10.00" fill="#000000">FOREIGN KEY (user_id) REFERENCES users (id)</text>
</g>
<!-- user_options -->
<g id="node8" class="node">
<title>user_options</title>
<polygon fill="#efefef" stroke="transparent" points="1210,-544.5 1210,-579.5 1424,-579.5 1424,-544.5 1210,-544.5"/>
<polygon fill="none" stroke="#000000" points="1210,-544.5 1210,-579.5 1424,-579.5 1424,-544.5 1210,-544.5"/>
<text text-anchor="start" x="1216.8571" y="-557.3" font-family="Arial Bold" font-size="18.00" fill="#000000">user_options</text>
<text text-anchor="start" x="1319.8891" y="-557.3" font-family="Arial" font-size="14.00" fill="#000000"> </text>
<text text-anchor="start" x="1323.7797" y="-557.3" font-family="Arial" font-size="14.00" fill="#666666">[BASE TABLE]</text>
<polygon fill="none" stroke="#000000" points="1210,-514.5 1210,-544.5 1424,-544.5 1424,-514.5 1210,-514.5"/>
<text text-anchor="start" x="1217" y="-525.9" font-family="Arial" font-size="14.00" fill="#000000">user_id </text>
<text text-anchor="start" x="1266.7882" y="-525.9" font-family="Arial" font-size="14.00" fill="#666666">[int(11)]</text>
<polygon fill="none" stroke="#000000" points="1210,-484.5 1210,-514.5 1424,-514.5 1424,-484.5 1210,-484.5"/>
<text text-anchor="start" x="1217" y="-495.9" font-family="Arial" font-size="14.00" fill="#000000">show_email </text>
<text text-anchor="start" x="1294.784" y="-495.9" font-family="Arial" font-size="14.00" fill="#666666">[tinyint(1)]</text>
<polygon fill="none" stroke="#000000" points="1210,-454.5 1210,-484.5 1424,-484.5 1424,-454.5 1210,-454.5"/>
<text text-anchor="start" x="1217" y="-465.9" font-family="Arial" font-size="14.00" fill="#000000">created </text>
<text text-anchor="start" x="1267.5722" y="-465.9" font-family="Arial" font-size="14.00" fill="#666666">[timestamp]</text>
<polygon fill="none" stroke="#000000" points="1210,-424.5 1210,-454.5 1424,-454.5 1424,-424.5 1210,-424.5"/>
<text text-anchor="start" x="1217" y="-435.9" font-family="Arial" font-size="14.00" fill="#000000">updated </text>
<text text-anchor="start" x="1271.4768" y="-435.9" font-family="Arial" font-size="14.00" fill="#666666">[timestamp]</text>
</g>
<!-- user_options&#45;&gt;users -->
<g id="edge7" class="edge">
<title>user_options:user_id&#45;&gt;users:id</title>
<path fill="none" stroke="#000000" d="M1199.8885,-528.8878C1080.5202,-513.356 1338.5588,-207.5 1199,-207.5"/>
<polygon fill="#000000" stroke="#000000" points="1200.0183,-528.8955 1209.728,-533.9918 1205.0091,-529.1978 1210,-529.5 1210,-529.5 1210,-529.5 1205.0091,-529.1978 1210.272,-525.0082 1200.0183,-528.8955 1200.0183,-528.8955"/>
<text text-anchor="start" x="1216.945" y="-539.5" font-family="Arial" font-size="10.00" fill="#000000">FOREIGN KEY (user_id) REFERENCES users (id)</text>
</g>
</g>
</svg>
