<?xml version="1.0" encoding="UTF-8" standalone="no"?>
<!DOCTYPE svg PUBLIC "-//W3C//DTD SVG 1.1//EN"
 "http://www.w3.org/Graphics/SVG/1.1/DTD/svg11.dtd">
<!-- Generated by graphviz version 12.1.2 (20240928.0832)
 -->
<!-- Title: testdb Pages: 1 -->
<svg width="2325pt" height="1436pt"
 viewBox="0.00 0.00 2324.58 1435.60" xmlns="http://www.w3.org/2000/svg" xmlns:xlink="http://www.w3.org/1999/xlink">
<g id="graph0" class="graph" transform="scale(1 1) rotate(0) translate(4 1431.6)">
<title>testdb</title>
<polygon fill="white" stroke="none" points="-4,4 -4,-1431.6 2320.58,-1431.6 2320.58,4 -4,4"/>
<!-- CamelizeTable -->
<g id="node1" class="node">
<title>CamelizeTable</title>
<polygon fill="#efefef" stroke="none" points="104.83,-1271.8 104.83,-1307.4 352.26,-1307.4 352.26,-1271.8 104.83,-1271.8"/>
<polygon fill="none" stroke="black" points="104.83,-1271.8 104.83,-1307.4 352.26,-1307.4 352.26,-1271.8 104.83,-1271.8"/>
<text text-anchor="start" x="111.83" y="-1285.2" font-family="Arial Bold" font-size="18.00">CamelizeTable</text>
<text text-anchor="start" x="220.77" y="-1285.2" font-family="Arial" font-size="14.00">    </text>
<text text-anchor="start" x="251.89" y="-1285.2" font-family="Arial" font-size="14.00" fill="#666666">[BASE TABLE]</text>
<polygon fill="none" stroke="black" points="104.83,-1241 104.83,-1271.8 352.26,-1271.8 352.26,-1241 104.83,-1241"/>
<text text-anchor="start" x="111.83" y="-1253.2" font-family="Arial" font-size="14.00">id </text>
<text text-anchor="start" x="126.62" y="-1253.2" font-family="Arial" font-size="14.00" fill="#666666">[bigint]</text>
<polygon fill="none" stroke="black" points="104.83,-1210.2 104.83,-1241 352.26,-1241 352.26,-1210.2 104.83,-1210.2"/>
<text text-anchor="start" x="111.83" y="-1222.4" font-family="Arial" font-size="14.00">created </text>
<text text-anchor="start" x="162.42" y="-1222.4" font-family="Arial" font-size="14.00" fill="#666666">[datetime]</text>
</g>
<!-- comment_stars -->
<g id="node2" class="node">
<title>comment_stars</title>
<polygon fill="#efefef" stroke="none" points="456.82,-1333.4 456.82,-1369 704.28,-1369 704.28,-1333.4 456.82,-1333.4"/>
<polygon fill="none" stroke="black" points="456.82,-1333.4 456.82,-1369 704.28,-1369 704.28,-1333.4 456.82,-1333.4"/>
<text text-anchor="start" x="463.82" y="-1346.8" font-family="Arial Bold" font-size="18.00">comment_stars</text>
<text text-anchor="start" x="572.79" y="-1346.8" font-family="Arial" font-size="14.00">    </text>
<text text-anchor="start" x="603.91" y="-1346.8" font-family="Arial" font-size="14.00" fill="#666666">[BASE TABLE]</text>
<polygon fill="none" stroke="black" points="456.82,-1302.6 456.82,-1333.4 704.28,-1333.4 704.28,-1302.6 456.82,-1302.6"/>
<text text-anchor="start" x="463.82" y="-1314.8" font-family="Arial" font-size="14.00">id </text>
<text text-anchor="start" x="478.6" y="-1314.8" font-family="Arial" font-size="14.00" fill="#666666">[bigint]</text>
<polygon fill="none" stroke="black" points="456.82,-1271.8 456.82,-1302.6 704.28,-1302.6 704.28,-1271.8 456.82,-1271.8"/>
<text text-anchor="start" x="463.82" y="-1284" font-family="Arial" font-size="14.00">user_id </text>
<text text-anchor="start" x="513.62" y="-1284" font-family="Arial" font-size="14.00" fill="#666666">[int]</text>
<polygon fill="none" stroke="black" points="456.82,-1241 456.82,-1271.8 704.28,-1271.8 704.28,-1241 456.82,-1241"/>
<text text-anchor="start" x="463.82" y="-1253.2" font-family="Arial" font-size="14.00">comment_post_id </text>
<text text-anchor="start" x="578.21" y="-1253.2" font-family="Arial" font-size="14.00" fill="#666666">[bigint]</text>
<polygon fill="none" stroke="black" points="456.82,-1210.2 456.82,-1241 704.28,-1241 704.28,-1210.2 456.82,-1210.2"/>
<text text-anchor="start" x="463.82" y="-1222.4" font-family="Arial" font-size="14.00">comment_user_id </text>
<text text-anchor="start" x="578.98" y="-1222.4" font-family="Arial" font-size="14.00" fill="#666666">[int]</text>
<polygon fill="none" stroke="black" points="456.82,-1179.4 456.82,-1210.2 704.28,-1210.2 704.28,-1179.4 456.82,-1179.4"/>
<text text-anchor="start" x="463.82" y="-1191.6" font-family="Arial" font-size="14.00">created </text>
<text text-anchor="start" x="514.4" y="-1191.6" font-family="Arial" font-size="14.00" fill="#666666">[timestamp]</text>
<polygon fill="none" stroke="black" points="456.82,-1148.6 456.82,-1179.4 704.28,-1179.4 704.28,-1148.6 456.82,-1148.6"/>
<text text-anchor="start" x="463.82" y="-1160.8" font-family="Arial" font-size="14.00">updated </text>
<text text-anchor="start" x="518.31" y="-1160.8" font-family="Arial" font-size="14.00" fill="#666666">[timestamp]</text>
</g>
<!-- comments -->
<g id="node3" class="node">
<title>comments</title>
<polygon fill="#efefef" stroke="none" points="385.31,-975.2 385.31,-1010.8 597.79,-1010.8 597.79,-975.2 385.31,-975.2"/>
<polygon fill="none" stroke="black" points="385.31,-975.2 385.31,-1010.8 597.79,-1010.8 597.79,-975.2 385.31,-975.2"/>
<text text-anchor="start" x="392.31" y="-988.6" font-family="Arial Bold" font-size="18.00">comments</text>
<text text-anchor="start" x="466.3" y="-988.6" font-family="Arial" font-size="14.00">    </text>
<text text-anchor="start" x="497.41" y="-988.6" font-family="Arial" font-size="14.00" fill="#666666">[BASE TABLE]</text>
<polygon fill="none" stroke="black" points="385.31,-944.4 385.31,-975.2 597.79,-975.2 597.79,-944.4 385.31,-944.4"/>
<text text-anchor="start" x="392.31" y="-956.6" font-family="Arial" font-size="14.00">id </text>
<text text-anchor="start" x="407.1" y="-956.6" font-family="Arial" font-size="14.00" fill="#666666">[bigint]</text>
<polygon fill="none" stroke="black" points="385.31,-913.6 385.31,-944.4 597.79,-944.4 597.79,-913.6 385.31,-913.6"/>
<text text-anchor="start" x="392.31" y="-925.8" font-family="Arial" font-size="14.00">post_id </text>
<text text-anchor="start" x="441.35" y="-925.8" font-family="Arial" font-size="14.00" fill="#666666">[bigint]</text>
<polygon fill="none" stroke="black" points="385.31,-882.8 385.31,-913.6 597.79,-913.6 597.79,-882.8 385.31,-882.8"/>
<text text-anchor="start" x="392.31" y="-895" font-family="Arial" font-size="14.00">user_id </text>
<text text-anchor="start" x="442.12" y="-895" font-family="Arial" font-size="14.00" fill="#666666">[int]</text>
<polygon fill="none" stroke="black" points="385.31,-852 385.31,-882.8 597.79,-882.8 597.79,-852 385.31,-852"/>
<text text-anchor="start" x="392.31" y="-864.2" font-family="Arial" font-size="14.00">comment </text>
<text text-anchor="start" x="453.77" y="-864.2" font-family="Arial" font-size="14.00" fill="#666666">[text]</text>
<polygon fill="none" stroke="black" points="385.31,-821.2 385.31,-852 597.79,-852 597.79,-821.2 385.31,-821.2"/>
<text text-anchor="start" x="392.31" y="-833.4" font-family="Arial" font-size="14.00">post_id_desc </text>
<text text-anchor="start" x="478.7" y="-833.4" font-family="Arial" font-size="14.00" fill="#666666">[bigint]</text>
<polygon fill="none" stroke="black" points="385.31,-790.4 385.31,-821.2 597.79,-821.2 597.79,-790.4 385.31,-790.4"/>
<text text-anchor="start" x="392.31" y="-802.6" font-family="Arial" font-size="14.00">created </text>
<text text-anchor="start" x="442.9" y="-802.6" font-family="Arial" font-size="14.00" fill="#666666">[datetime]</text>
<polygon fill="none" stroke="black" points="385.31,-759.6 385.31,-790.4 597.79,-790.4 597.79,-759.6 385.31,-759.6"/>
<text text-anchor="start" x="392.31" y="-771.8" font-family="Arial" font-size="14.00">updated </text>
<text text-anchor="start" x="446.81" y="-771.8" font-family="Arial" font-size="14.00" fill="#666666">[datetime]</text>
</g>
<!-- comment_stars&#45;&gt;comments -->
<g id="edge2" class="edge">
<title>comment_stars:comment_post_id&#45;&gt;comments:post_id</title>
<path fill="none" stroke="black" d="M445.66,-1255.56C391.95,-1246.01 420.27,-1157.26 456.82,-1105.4 495.23,-1050.89 559.33,-1108.49 597.79,-1054 629.82,-1008.61 654.34,-929 598.79,-929"/>
<polygon fill="black" stroke="black" points="445.52,-1255.55 455.11,-1260.86 450.83,-1255.99 455.15,-1256.34 455.15,-1256.34 455.15,-1256.34 450.83,-1255.99 455.85,-1251.89 445.52,-1255.55"/>
<text text-anchor="start" x="7" y="-1266.4" font-family="Arial" font-size="10.00">FOREIGN KEY (comment_post_id, comment_user_id) REFERENCES comments (post_id, user_id)</text>
</g>
<!-- users -->
<g id="node10" class="node">
<title>users</title>
<polygon fill="#efefef" stroke="none" points="561.81,-228 561.81,-263.6 737.29,-263.6 737.29,-228 561.81,-228"/>
<polygon fill="none" stroke="black" points="561.81,-228 561.81,-263.6 737.29,-263.6 737.29,-228 561.81,-228"/>
<text text-anchor="start" x="568.81" y="-241.4" font-family="Arial Bold" font-size="18.00">users</text>
<text text-anchor="start" x="605.8" y="-241.4" font-family="Arial" font-size="14.00">    </text>
<text text-anchor="start" x="636.92" y="-241.4" font-family="Arial" font-size="14.00" fill="#666666">[BASE TABLE]</text>
<polygon fill="none" stroke="black" points="561.81,-197.2 561.81,-228 737.29,-228 737.29,-197.2 561.81,-197.2"/>
<text text-anchor="start" x="568.81" y="-209.4" font-family="Arial" font-size="14.00">id </text>
<text text-anchor="start" x="583.59" y="-209.4" font-family="Arial" font-size="14.00" fill="#666666">[int]</text>
<polygon fill="none" stroke="black" points="561.81,-166.4 561.81,-197.2 737.29,-197.2 737.29,-166.4 561.81,-166.4"/>
<text text-anchor="start" x="568.81" y="-178.6" font-family="Arial" font-size="14.00">username </text>
<text text-anchor="start" x="634.95" y="-178.6" font-family="Arial" font-size="14.00" fill="#666666">[varchar(50)]</text>
<polygon fill="none" stroke="black" points="561.81,-135.6 561.81,-166.4 737.29,-166.4 737.29,-135.6 561.81,-135.6"/>
<text text-anchor="start" x="568.81" y="-147.8" font-family="Arial" font-size="14.00">password </text>
<text text-anchor="start" x="632.61" y="-147.8" font-family="Arial" font-size="14.00" fill="#666666">[varchar(50)]</text>
<polygon fill="none" stroke="black" points="561.81,-104.8 561.81,-135.6 737.29,-135.6 737.29,-104.8 561.81,-104.8"/>
<text text-anchor="start" x="568.81" y="-117" font-family="Arial" font-size="14.00">email </text>
<text text-anchor="start" x="606.15" y="-117" font-family="Arial" font-size="14.00" fill="#666666">[varchar(355)]</text>
<polygon fill="none" stroke="black" points="561.81,-74 561.81,-104.8 737.29,-104.8 737.29,-74 561.81,-74"/>
<text text-anchor="start" x="568.81" y="-86.2" font-family="Arial" font-size="14.00">created </text>
<text text-anchor="start" x="619.39" y="-86.2" font-family="Arial" font-size="14.00" fill="#666666">[timestamp]</text>
<polygon fill="none" stroke="black" points="561.81,-43.2 561.81,-74 737.29,-74 737.29,-43.2 561.81,-43.2"/>
<text text-anchor="start" x="568.81" y="-55.4" font-family="Arial" font-size="14.00">updated </text>
<text text-anchor="start" x="623.3" y="-55.4" font-family="Arial" font-size="14.00" fill="#666666">[timestamp]</text>
</g>
<!-- comment_stars&#45;&gt;users -->
<g id="edge1" class="edge">
<title>comment_stars:comment_user_id&#45;&gt;users:id</title>
<path fill="none" stroke="black" d="M715.48,-1224.53C751.1,-1215.76 705.46,-1154.84 704.28,-1105.4 700.24,-935.94 610.46,-493.76 687.55,-342.8 699.96,-318.5 724.75,-331.04 737.29,-306.8 756.53,-269.61 780.16,-212.6 738.29,-212.6"/>
<polygon fill="black" stroke="black" points="715.56,-1224.52 705.14,-1221.09 710.25,-1225.08 705.95,-1225.53 705.95,-1225.53 705.95,-1225.53 710.25,-1225.08 706.08,-1230.04 715.56,-1224.52"/>
<text text-anchor="start" x="712.28" y="-1235.6" font-family="Arial" font-size="10.00">FOREIGN KEY (comment_user_id) REFERENCES users (id)</text>
</g>
<!-- posts -->
<g id="node8" class="node">
<title>posts</title>
<polygon fill="#efefef" stroke="none" points="297.97,-601.6 297.97,-637.2 559.13,-637.2 559.13,-601.6 297.97,-601.6"/>
<polygon fill="none" stroke="black" points="297.97,-601.6 297.97,-637.2 559.13,-637.2 559.13,-601.6 297.97,-601.6"/>
<text text-anchor="start" x="347.8" y="-615" font-family="Arial Bold" font-size="18.00">posts</text>
<text text-anchor="start" x="384.81" y="-615" font-family="Arial" font-size="14.00">    </text>
<text text-anchor="start" x="415.93" y="-615" font-family="Arial" font-size="14.00" fill="#666666">[BASE TABLE]</text>
<polygon fill="none" stroke="black" points="297.97,-570.8 297.97,-601.6 559.13,-601.6 559.13,-570.8 297.97,-570.8"/>
<text text-anchor="start" x="304.97" y="-583" font-family="Arial" font-size="14.00">id </text>
<text text-anchor="start" x="319.76" y="-583" font-family="Arial" font-size="14.00" fill="#666666">[bigint]</text>
<polygon fill="none" stroke="black" points="297.97,-540 297.97,-570.8 559.13,-570.8 559.13,-540 297.97,-540"/>
<text text-anchor="start" x="304.97" y="-552.2" font-family="Arial" font-size="14.00">user_id </text>
<text text-anchor="start" x="354.78" y="-552.2" font-family="Arial" font-size="14.00" fill="#666666">[int]</text>
<polygon fill="none" stroke="black" points="297.97,-509.2 297.97,-540 559.13,-540 559.13,-509.2 297.97,-509.2"/>
<text text-anchor="start" x="304.97" y="-521.4" font-family="Arial" font-size="14.00">title </text>
<text text-anchor="start" x="330.65" y="-521.4" font-family="Arial" font-size="14.00" fill="#666666">[varchar(255)]</text>
<polygon fill="none" stroke="black" points="297.97,-478.4 297.97,-509.2 559.13,-509.2 559.13,-478.4 297.97,-478.4"/>
<text text-anchor="start" x="304.97" y="-490.6" font-family="Arial" font-size="14.00">body </text>
<text text-anchor="start" x="339.22" y="-490.6" font-family="Arial" font-size="14.00" fill="#666666">[text]</text>
<polygon fill="none" stroke="black" points="297.97,-447.6 297.97,-478.4 559.13,-478.4 559.13,-447.6 297.97,-447.6"/>
<text text-anchor="start" x="304.97" y="-459.8" font-family="Arial" font-size="14.00">post_type </text>
<text text-anchor="start" x="369.57" y="-459.8" font-family="Arial" font-size="14.00" fill="#666666">[enum(&#39;public&#39;,&#39;private&#39;,&#39;draft&#39;)]</text>
<polygon fill="none" stroke="black" points="297.97,-416.8 297.97,-447.6 559.13,-447.6 559.13,-416.8 297.97,-416.8"/>
<text text-anchor="start" x="304.97" y="-429" font-family="Arial" font-size="14.00">created </text>
<text text-anchor="start" x="355.56" y="-429" font-family="Arial" font-size="14.00" fill="#666666">[datetime]</text>
<polygon fill="none" stroke="black" points="297.97,-386 297.97,-416.8 559.13,-416.8 559.13,-386 297.97,-386"/>
<text text-anchor="start" x="304.97" y="-398.2" font-family="Arial" font-size="14.00">updated </text>
<text text-anchor="start" x="359.47" y="-398.2" font-family="Arial" font-size="14.00" fill="#666666">[datetime]</text>
</g>
<!-- comments&#45;&gt;posts -->
<g id="edge3" class="edge">
<title>comments:post_id&#45;&gt;posts:id</title>
<path fill="none" stroke="black" d="M374.32,-928.43C292.5,-918.74 327.7,-786.82 385.31,-716.4 435.26,-655.34 508.99,-741.31 559.13,-680.4 585.73,-648.07 601.99,-586.2 560.13,-586.2"/>
<polygon fill="black" stroke="black" points="373.99,-928.42 383.72,-933.47 379.32,-928.72 383.64,-928.96 383.64,-928.96 383.64,-928.96 379.32,-928.72 384.23,-924.49 373.99,-928.42"/>
<text text-anchor="start" x="152.26" y="-939" font-family="Arial" font-size="10.00">FOREIGN KEY (post_id) REFERENCES posts (id)</text>
</g>
<!-- comments&#45;&gt;users -->
<g id="edge4" class="edge">
<title>comments:user_id&#45;&gt;users:id</title>
<path fill="none" stroke="black" d="M606.01,-890.89C635.29,-829.81 643.3,-404.98 611.55,-342.8 599.14,-318.5 574.35,-331.04 561.81,-306.8 542.57,-269.61 518.94,-212.6 560.81,-212.6"/>
<polygon fill="black" stroke="black" points="606.05,-890.85 595.82,-894.8 602.3,-894.64 599.26,-897.72 599.26,-897.72 599.26,-897.72 602.3,-894.64 602.22,-901.13 606.05,-890.85"/>
<text text-anchor="start" x="605.79" y="-908.2" font-family="Arial" font-size="10.00">FOREIGN KEY (user_id) REFERENCES users (id)</text>
</g>
<!-- hyphen&#45;table -->
<g id="node4" class="node">
<title>hyphen&#45;table</title>
<polygon fill="#efefef" stroke="none" points="808.32,-1287.2 808.32,-1322.8 1040.78,-1322.8 1040.78,-1287.2 808.32,-1287.2"/>
<polygon fill="none" stroke="black" points="808.32,-1287.2 808.32,-1322.8 1040.78,-1322.8 1040.78,-1287.2 808.32,-1287.2"/>
<text text-anchor="start" x="815.32" y="-1300.6" font-family="Arial Bold" font-size="18.00">hyphen&#45;table</text>
<text text-anchor="start" x="909.29" y="-1300.6" font-family="Arial" font-size="14.00">    </text>
<text text-anchor="start" x="940.4" y="-1300.6" font-family="Arial" font-size="14.00" fill="#666666">[BASE TABLE]</text>
<polygon fill="none" stroke="black" points="808.32,-1256.4 808.32,-1287.2 1040.78,-1287.2 1040.78,-1256.4 808.32,-1256.4"/>
<text text-anchor="start" x="815.32" y="-1268.6" font-family="Arial" font-size="14.00">id </text>
<text text-anchor="start" x="830.11" y="-1268.6" font-family="Arial" font-size="14.00" fill="#666666">[bigint]</text>
<polygon fill="none" stroke="black" points="808.32,-1225.6 808.32,-1256.4 1040.78,-1256.4 1040.78,-1225.6 808.32,-1225.6"/>
<text text-anchor="start" x="815.32" y="-1237.8" font-family="Arial" font-size="14.00">hyphen&#45;column </text>
<text text-anchor="start" x="914.94" y="-1237.8" font-family="Arial" font-size="14.00" fill="#666666">[text]</text>
<polygon fill="none" stroke="black" points="808.32,-1194.8 808.32,-1225.6 1040.78,-1225.6 1040.78,-1194.8 808.32,-1194.8"/>
<text text-anchor="start" x="815.32" y="-1207" font-family="Arial" font-size="14.00">created </text>
<text text-anchor="start" x="865.91" y="-1207" font-family="Arial" font-size="14.00" fill="#666666">[datetime]</text>
</g>
<!-- logs -->
<g id="node5" class="node">
<title>logs</title>
<polygon fill="#efefef" stroke="none" points="1145.3,-1348.8 1145.3,-1384.4 1313.8,-1384.4 1313.8,-1348.8 1145.3,-1348.8"/>
<polygon fill="none" stroke="black" points="1145.3,-1348.8 1145.3,-1384.4 1313.8,-1384.4 1313.8,-1348.8 1145.3,-1348.8"/>
<text text-anchor="start" x="1152.3" y="-1362.2" font-family="Arial Bold" font-size="18.00">logs</text>
<text text-anchor="start" x="1182.31" y="-1362.2" font-family="Arial" font-size="14.00">    </text>
<text text-anchor="start" x="1213.42" y="-1362.2" font-family="Arial" font-size="14.00" fill="#666666">[BASE TABLE]</text>
<polygon fill="none" stroke="black" points="1145.3,-1318 1145.3,-1348.8 1313.8,-1348.8 1313.8,-1318 1145.3,-1318"/>
<text text-anchor="start" x="1152.3" y="-1330.2" font-family="Arial" font-size="14.00">id </text>
<text text-anchor="start" x="1167.09" y="-1330.2" font-family="Arial" font-size="14.00" fill="#666666">[bigint]</text>
<polygon fill="none" stroke="black" points="1145.3,-1287.2 1145.3,-1318 1313.8,-1318 1313.8,-1287.2 1145.3,-1287.2"/>
<text text-anchor="start" x="1152.3" y="-1299.4" font-family="Arial" font-size="14.00">user_id </text>
<text text-anchor="start" x="1202.11" y="-1299.4" font-family="Arial" font-size="14.00" fill="#666666">[int]</text>
<polygon fill="none" stroke="black" points="1145.3,-1256.4 1145.3,-1287.2 1313.8,-1287.2 1313.8,-1256.4 1145.3,-1256.4"/>
<text text-anchor="start" x="1152.3" y="-1268.6" font-family="Arial" font-size="14.00">post_id </text>
<text text-anchor="start" x="1201.34" y="-1268.6" font-family="Arial" font-size="14.00" fill="#666666">[bigint]</text>
<polygon fill="none" stroke="black" points="1145.3,-1225.6 1145.3,-1256.4 1313.8,-1256.4 1313.8,-1225.6 1145.3,-1225.6"/>
<text text-anchor="start" x="1152.3" y="-1237.8" font-family="Arial" font-size="14.00">comment_id </text>
<text text-anchor="start" x="1232.45" y="-1237.8" font-family="Arial" font-size="14.00" fill="#666666">[bigint]</text>
<polygon fill="none" stroke="black" points="1145.3,-1194.8 1145.3,-1225.6 1313.8,-1225.6 1313.8,-1194.8 1145.3,-1194.8"/>
<text text-anchor="start" x="1152.3" y="-1207" font-family="Arial" font-size="14.00">comment_star_id </text>
<text text-anchor="start" x="1263.57" y="-1207" font-family="Arial" font-size="14.00" fill="#666666">[bigint]</text>
<polygon fill="none" stroke="black" points="1145.3,-1164 1145.3,-1194.8 1313.8,-1194.8 1313.8,-1164 1145.3,-1164"/>
<text text-anchor="start" x="1152.3" y="-1176.2" font-family="Arial" font-size="14.00">payload </text>
<text text-anchor="start" x="1205.23" y="-1176.2" font-family="Arial" font-size="14.00" fill="#666666">[text]</text>
<polygon fill="none" stroke="black" points="1145.3,-1133.2 1145.3,-1164 1313.8,-1164 1313.8,-1133.2 1145.3,-1133.2"/>
<text text-anchor="start" x="1152.3" y="-1145.4" font-family="Arial" font-size="14.00">created </text>
<text text-anchor="start" x="1202.89" y="-1145.4" font-family="Arial" font-size="14.00" fill="#666666">[datetime]</text>
</g>
<!-- long_long_long_long_long_long_long_long_table_name -->
<g id="node6" class="node">
<title>long_long_long_long_long_long_long_long_table_name</title>
<polygon fill="#efefef" stroke="none" points="1417.82,-1271.8 1417.82,-1307.4 1967.28,-1307.4 1967.28,-1271.8 1417.82,-1271.8"/>
<polygon fill="none" stroke="black" points="1417.82,-1271.8 1417.82,-1307.4 1967.28,-1307.4 1967.28,-1271.8 1417.82,-1271.8"/>
<text text-anchor="start" x="1424.82" y="-1285.2" font-family="Arial Bold" font-size="18.00">long_long_long_long_long_long_long_long_table_name</text>
<text text-anchor="start" x="1835.79" y="-1285.2" font-family="Arial" font-size="14.00">    </text>
<text text-anchor="start" x="1866.91" y="-1285.2" font-family="Arial" font-size="14.00" fill="#666666">[BASE TABLE]</text>
<polygon fill="none" stroke="black" points="1417.82,-1241 1417.82,-1271.8 1967.28,-1271.8 1967.28,-1241 1417.82,-1241"/>
<text text-anchor="start" x="1424.82" y="-1253.2" font-family="Arial" font-size="14.00">id </text>
<text text-anchor="start" x="1439.61" y="-1253.2" font-family="Arial" font-size="14.00" fill="#666666">[bigint]</text>
<polygon fill="none" stroke="black" points="1417.82,-1210.2 1417.82,-1241 1967.28,-1241 1967.28,-1210.2 1417.82,-1210.2"/>
<text text-anchor="start" x="1424.82" y="-1222.4" font-family="Arial" font-size="14.00">created </text>
<text text-anchor="start" x="1475.41" y="-1222.4" font-family="Arial" font-size="14.00" fill="#666666">[datetime]</text>
</g>
<!-- post_comments -->
<g id="node7" class="node">
<title>post_comments</title>
<polygon fill="#efefef" stroke="none" points="2071.71,-1348.8 2071.71,-1384.4 2273.38,-1384.4 2273.38,-1348.8 2071.71,-1348.8"/>
<polygon fill="none" stroke="black" points="2071.71,-1348.8 2071.71,-1384.4 2273.38,-1384.4 2273.38,-1348.8 2071.71,-1348.8"/>
<text text-anchor="start" x="2078.71" y="-1362.2" font-family="Arial Bold" font-size="18.00">post_comments</text>
<text text-anchor="start" x="2191.71" y="-1362.2" font-family="Arial" font-size="14.00">    </text>
<text text-anchor="start" x="2222.82" y="-1362.2" font-family="Arial" font-size="14.00" fill="#666666">[VIEW]</text>
<polygon fill="none" stroke="black" points="2071.71,-1318 2071.71,-1348.8 2273.38,-1348.8 2273.38,-1318 2071.71,-1318"/>
<text text-anchor="start" x="2078.71" y="-1330.2" font-family="Arial" font-size="14.00">id </text>
<text text-anchor="start" x="2093.5" y="-1330.2" font-family="Arial" font-size="14.00" fill="#666666">[bigint]</text>
<polygon fill="none" stroke="black" points="2071.71,-1287.2 2071.71,-1318 2273.38,-1318 2273.38,-1287.2 2071.71,-1287.2"/>
<text text-anchor="start" x="2078.71" y="-1299.4" font-family="Arial" font-size="14.00">title </text>
<text text-anchor="start" x="2104.39" y="-1299.4" font-family="Arial" font-size="14.00" fill="#666666">[varchar(255)]</text>
<polygon fill="none" stroke="black" points="2071.71,-1256.4 2071.71,-1287.2 2273.38,-1287.2 2273.38,-1256.4 2071.71,-1256.4"/>
<text text-anchor="start" x="2078.71" y="-1268.6" font-family="Arial" font-size="14.00">post_user </text>
<text text-anchor="start" x="2144.09" y="-1268.6" font-family="Arial" font-size="14.00" fill="#666666">[varchar(50)]</text>
<polygon fill="none" stroke="black" points="2071.71,-1225.6 2071.71,-1256.4 2273.38,-1256.4 2273.38,-1225.6 2071.71,-1225.6"/>
<text text-anchor="start" x="2078.71" y="-1237.8" font-family="Arial" font-size="14.00">comment </text>
<text text-anchor="start" x="2140.18" y="-1237.8" font-family="Arial" font-size="14.00" fill="#666666">[text]</text>
<polygon fill="none" stroke="black" points="2071.71,-1194.8 2071.71,-1225.6 2273.38,-1225.6 2273.38,-1194.8 2071.71,-1194.8"/>
<text text-anchor="start" x="2078.71" y="-1207" font-family="Arial" font-size="14.00">comment_user </text>
<text text-anchor="start" x="2175.2" y="-1207" font-family="Arial" font-size="14.00" fill="#666666">[varchar(50)]</text>
<polygon fill="none" stroke="black" points="2071.71,-1164 2071.71,-1194.8 2273.38,-1194.8 2273.38,-1164 2071.71,-1164"/>
<text text-anchor="start" x="2078.71" y="-1176.2" font-family="Arial" font-size="14.00">created </text>
<text text-anchor="start" x="2129.3" y="-1176.2" font-family="Arial" font-size="14.00" fill="#666666">[datetime]</text>
<polygon fill="none" stroke="black" points="2071.71,-1133.2 2071.71,-1164 2273.38,-1164 2273.38,-1133.2 2071.71,-1133.2"/>
<text text-anchor="start" x="2078.71" y="-1145.4" font-family="Arial" font-size="14.00">updated </text>
<text text-anchor="start" x="2133.21" y="-1145.4" font-family="Arial" font-size="14.00" fill="#666666">[datetime]</text>
</g>
<!-- posts&#45;&gt;users -->
<g id="edge5" class="edge">
<title>posts:user_id&#45;&gt;users:id</title>
<path fill="none" stroke="black" d="M562.22,-545.51C566.21,-489.3 552.25,-212.6 560.81,-212.6"/>
<polygon fill="black" stroke="black" points="562.27,-545.29 555.79,-554.14 561.16,-550.51 560.26,-554.75 560.26,-554.75 560.26,-554.75 561.16,-550.51 564.6,-556.01 562.27,-545.29"/>
<text text-anchor="start" x="567.13" y="-565.4" font-family="Arial" font-size="10.00">FOREIGN KEY (user_id) REFERENCES users (id)</text>
</g>
<!-- user_options -->
<g id="node9" class="node">
<title>user_options</title>
<polygon fill="#efefef" stroke="none" points="739.31,-555.4 739.31,-591 969.79,-591 969.79,-555.4 739.31,-555.4"/>
<polygon fill="none" stroke="black" points="739.31,-555.4 739.31,-591 969.79,-591 969.79,-555.4 739.31,-555.4"/>
<text text-anchor="start" x="746.31" y="-568.8" font-family="Arial Bold" font-size="18.00">user_options</text>
<text text-anchor="start" x="838.3" y="-568.8" font-family="Arial" font-size="14.00">    </text>
<text text-anchor="start" x="869.42" y="-568.8" font-family="Arial" font-size="14.00" fill="#666666">[BASE TABLE]</text>
<polygon fill="none" stroke="black" points="739.31,-524.6 739.31,-555.4 969.79,-555.4 969.79,-524.6 739.31,-524.6"/>
<text text-anchor="start" x="746.31" y="-536.8" font-family="Arial" font-size="14.00">user_id </text>
<text text-anchor="start" x="796.11" y="-536.8" font-family="Arial" font-size="14.00" fill="#666666">[int]</text>
<polygon fill="none" stroke="black" points="739.31,-493.8 739.31,-524.6 969.79,-524.6 969.79,-493.8 739.31,-493.8"/>
<text text-anchor="start" x="746.31" y="-506" font-family="Arial" font-size="14.00">show_email </text>
<text text-anchor="start" x="824.12" y="-506" font-family="Arial" font-size="14.00" fill="#666666">[tinyint(1)]</text>
<polygon fill="none" stroke="black" points="739.31,-463 739.31,-493.8 969.79,-493.8 969.79,-463 739.31,-463"/>
<text text-anchor="start" x="746.31" y="-475.2" font-family="Arial" font-size="14.00">created </text>
<text text-anchor="start" x="796.89" y="-475.2" font-family="Arial" font-size="14.00" fill="#666666">[timestamp]</text>
<polygon fill="none" stroke="black" points="739.31,-432.2 739.31,-463 969.79,-463 969.79,-432.2 739.31,-432.2"/>
<text text-anchor="start" x="746.31" y="-444.4" font-family="Arial" font-size="14.00">updated </text>
<text text-anchor="start" x="800.8" y="-444.4" font-family="Arial" font-size="14.00" fill="#666666">[timestamp]</text>
</g>
<!-- user_options&#45;&gt;users -->
<g id="edge6" class="edge">
<title>user_options:user_id&#45;&gt;users:id</title>
<path fill="none" stroke="black" d="M728.05,-539.38C607.29,-523.59 880.11,-212.6 738.29,-212.6"/>
<polygon fill="black" stroke="black" points="727.99,-539.37 737.7,-544.47 733.32,-539.7 737.64,-539.96 737.64,-539.96 737.64,-539.96 733.32,-539.7 738.25,-535.49 727.99,-539.37"/>
<text text-anchor="start" x="625.23" y="-524" font-family="Arial" font-size="10.00">FOREIGN KEY (user_id) REFERENCES users (id)</text>
</g>
</g>
</svg>
