<?xml version="1.0" encoding="UTF-8" standalone="no"?>
<!DOCTYPE svg PUBLIC "-//W3C//DTD SVG 1.1//EN"
 "http://www.w3.org/Graphics/SVG/1.1/DTD/svg11.dtd">
<!-- Generated by graphviz version 2.40.1 (20161225.0304)
 -->
<!-- Title: users Pages: 1 -->
<svg width="1432pt" height="682pt"
 viewBox="0.00 0.00 1432.00 682.00" xmlns="http://www.w3.org/2000/svg" xmlns:xlink="http://www.w3.org/1999/xlink">
<g id="graph0" class="graph" transform="scale(1 1) rotate(0) translate(4 678)">
<title>users</title>
<polygon fill="#ffffff" stroke="transparent" points="-4,4 -4,-678 1428,-678 1428,4 -4,4"/>
<!-- users -->
<g id="node1" class="node">
<title>users</title>
<polygon fill="#efefef" stroke="transparent" points="612,-225.5 612,-260.5 797,-260.5 797,-225.5 612,-225.5"/>
<polygon fill="none" stroke="#000000" points="612,-225.5 612,-260.5 797,-260.5 797,-225.5 612,-225.5"/>
<text text-anchor="start" x="618.7137" y="-238.3" font-family="Arial Bold" font-size="18.00" fill="#000000">users</text>
<text text-anchor="start" x="662.7183" y="-238.3" font-family="Arial" font-size="14.00" fill="#000000">    </text>
<text text-anchor="start" x="696.9231" y="-238.3" font-family="Arial" font-size="14.00" fill="#666666">[BASE TABLE]</text>
<polygon fill="none" stroke="#000000" points="612,-195.5 612,-225.5 797,-225.5 797,-195.5 612,-195.5"/>
<text text-anchor="start" x="619" y="-206.9" font-family="Arial" font-size="14.00" fill="#000000">id </text>
<text text-anchor="start" x="633.7798" y="-206.9" font-family="Arial" font-size="14.00" fill="#666666">[int]</text>
<polygon fill="none" stroke="#000000" points="612,-165.5 612,-195.5 797,-195.5 797,-165.5 612,-165.5"/>
<text text-anchor="start" x="619" y="-176.9" font-family="Arial" font-size="14.00" fill="#000000">username </text>
<text text-anchor="start" x="685.1248" y="-176.9" font-family="Arial" font-size="14.00" fill="#666666">[varchar(50)]</text>
<polygon fill="none" stroke="#000000" points="612,-135.5 612,-165.5 797,-165.5 797,-135.5 612,-135.5"/>
<text text-anchor="start" x="619" y="-146.9" font-family="Arial" font-size="14.00" fill="#000000">password </text>
<text text-anchor="start" x="682.7882" y="-146.9" font-family="Arial" font-size="14.00" fill="#666666">[varchar(50)]</text>
<polygon fill="none" stroke="#000000" points="612,-105.5 612,-135.5 797,-135.5 797,-105.5 612,-105.5"/>
<text text-anchor="start" x="619" y="-116.9" font-family="Arial" font-size="14.00" fill="#000000">email </text>
<text text-anchor="start" x="656.3296" y="-116.9" font-family="Arial" font-size="14.00" fill="#666666">[varchar(355)]</text>
<polygon fill="none" stroke="#000000" points="612,-75.5 612,-105.5 797,-105.5 797,-75.5 612,-75.5"/>
<text text-anchor="start" x="619" y="-86.9" font-family="Arial" font-size="14.00" fill="#000000">created </text>
<text text-anchor="start" x="669.5722" y="-86.9" font-family="Arial" font-size="14.00" fill="#666666">[timestamp]</text>
<polygon fill="none" stroke="#000000" points="612,-45.5 612,-75.5 797,-75.5 797,-45.5 612,-45.5"/>
<text text-anchor="start" x="619" y="-56.9" font-family="Arial" font-size="14.00" fill="#000000">updated </text>
<text text-anchor="start" x="673.4768" y="-56.9" font-family="Arial" font-size="14.00" fill="#666666">[timestamp]</text>
<polygon fill="none" stroke="#000000" stroke-width="3" points="610,-44.5 610,-262.5 798,-262.5 798,-44.5 610,-44.5"/>
</g>
<!-- comment_stars -->
<g id="node2" class="node">
<title>comment_stars</title>
<polygon fill="#efefef" stroke="transparent" points="43,-580.5 43,-615.5 307,-615.5 307,-580.5 43,-580.5"/>
<polygon fill="none" stroke="#000000" points="43,-580.5 43,-615.5 307,-615.5 307,-580.5 43,-580.5"/>
<text text-anchor="start" x="49.71" y="-593.3" font-family="Arial Bold" font-size="18.00" fill="#000000">comment_stars</text>
<text text-anchor="start" x="172.722" y="-593.3" font-family="Arial" font-size="14.00" fill="#000000">    </text>
<text text-anchor="start" x="206.9268" y="-593.3" font-family="Arial" font-size="14.00" fill="#666666">[BASE TABLE]</text>
<polygon fill="none" stroke="#000000" points="43,-550.5 43,-580.5 307,-580.5 307,-550.5 43,-550.5"/>
<text text-anchor="start" x="50" y="-561.9" font-family="Arial" font-size="14.00" fill="#000000">id    </text>
<text text-anchor="start" x="95.094" y="-561.9" font-family="Arial" font-size="14.00" fill="#666666">[bigint]</text>
<polygon fill="none" stroke="#000000" points="43,-520.5 43,-550.5 307,-550.5 307,-520.5 43,-520.5"/>
<text text-anchor="start" x="50" y="-531.9" font-family="Arial" font-size="14.00" fill="#000000">user_id    </text>
<text text-anchor="start" x="130.1024" y="-531.9" font-family="Arial" font-size="14.00" fill="#666666">[int]</text>
<polygon fill="none" stroke="#000000" points="43,-490.5 43,-520.5 307,-520.5 307,-490.5 43,-490.5"/>
<text text-anchor="start" x="50" y="-501.9" font-family="Arial" font-size="14.00" fill="#000000">comment_post_id    </text>
<text text-anchor="start" x="194.6746" y="-501.9" font-family="Arial" font-size="14.00" fill="#666666">[bigint]</text>
<polygon fill="none" stroke="#000000" points="43,-460.5 43,-490.5 307,-490.5 307,-460.5 43,-460.5"/>
<text text-anchor="start" x="50" y="-471.9" font-family="Arial" font-size="14.00" fill="#000000">comment_user_id    </text>
<text text-anchor="start" x="195.4446" y="-471.9" font-family="Arial" font-size="14.00" fill="#666666">[int]</text>
<polygon fill="none" stroke="#000000" points="43,-430.5 43,-460.5 307,-460.5 307,-430.5 43,-430.5"/>
<text text-anchor="start" x="50" y="-441.9" font-family="Arial" font-size="14.00" fill="#000000">created    </text>
<text text-anchor="start" x="130.8864" y="-441.9" font-family="Arial" font-size="14.00" fill="#666666">[timestamp]</text>
<polygon fill="none" stroke="#000000" points="43,-400.5 43,-430.5 307,-430.5 307,-400.5 43,-400.5"/>
<text text-anchor="start" x="50" y="-411.9" font-family="Arial" font-size="14.00" fill="#000000">updated    </text>
<text text-anchor="start" x="134.791" y="-411.9" font-family="Arial" font-size="14.00" fill="#666666">[timestamp]</text>
</g>
<!-- comment_stars&#45;&gt;users -->
<g id="edge1" class="edge">
<title>comment_stars:comment_user_id&#45;&gt;users:id</title>
<path fill="none" stroke="#000000" d="M317.2539,-474.5882C364.1336,-465.298 319.3153,-387.2403 359,-343 443.7575,-248.5129 485.0683,-210.5 612,-210.5"/>
<polygon fill="#000000" stroke="#000000" points="316.9607,-474.6141 306.6014,-471.0177 311.9803,-475.0571 307,-475.5 307,-475.5 307,-475.5 311.9803,-475.0571 307.3986,-479.9823 316.9607,-474.6141 316.9607,-474.6141"/>
<text text-anchor="start" x="170.6085" y="-459.5" font-family="Arial" font-size="10.00" fill="#000000">FOREIGN KEY (comment_user_id) REFERENCES users (id)</text>
</g>
<!-- comments -->
<g id="node3" class="node">
<title>comments</title>
<polygon fill="#efefef" stroke="transparent" points="411,-595.5 411,-630.5 635,-630.5 635,-595.5 411,-595.5"/>
<polygon fill="none" stroke="#000000" points="411,-595.5 411,-630.5 635,-630.5 635,-595.5 411,-595.5"/>
<text text-anchor="start" x="417.7134" y="-608.3" font-family="Arial Bold" font-size="18.00" fill="#000000">comments</text>
<text text-anchor="start" x="500.7186" y="-608.3" font-family="Arial" font-size="14.00" fill="#000000">    </text>
<text text-anchor="start" x="534.9234" y="-608.3" font-family="Arial" font-size="14.00" fill="#666666">[BASE TABLE]</text>
<polygon fill="none" stroke="#000000" points="411,-565.5 411,-595.5 635,-595.5 635,-565.5 411,-565.5"/>
<text text-anchor="start" x="418" y="-576.9" font-family="Arial" font-size="14.00" fill="#000000">id    </text>
<text text-anchor="start" x="463.094" y="-576.9" font-family="Arial" font-size="14.00" fill="#666666">[bigint]</text>
<polygon fill="none" stroke="#000000" points="411,-535.5 411,-565.5 635,-565.5 635,-535.5 411,-535.5"/>
<text text-anchor="start" x="418" y="-546.9" font-family="Arial" font-size="14.00" fill="#000000">post_id    </text>
<text text-anchor="start" x="497.3324" y="-546.9" font-family="Arial" font-size="14.00" fill="#666666">[bigint]</text>
<polygon fill="none" stroke="#000000" points="411,-505.5 411,-535.5 635,-535.5 635,-505.5 411,-505.5"/>
<text text-anchor="start" x="418" y="-516.9" font-family="Arial" font-size="14.00" fill="#000000">user_id    </text>
<text text-anchor="start" x="498.1024" y="-516.9" font-family="Arial" font-size="14.00" fill="#666666">[int]</text>
<polygon fill="none" stroke="#000000" points="411,-475.5 411,-505.5 635,-505.5 635,-475.5 411,-475.5"/>
<text text-anchor="start" x="418" y="-486.9" font-family="Arial" font-size="14.00" fill="#000000">comment    </text>
<text text-anchor="start" x="509.7644" y="-486.9" font-family="Arial" font-size="14.00" fill="#666666">[text]</text>
<polygon fill="none" stroke="#000000" points="411,-445.5 411,-475.5 635,-475.5 635,-445.5 411,-445.5"/>
<text text-anchor="start" x="418" y="-456.9" font-family="Arial" font-size="14.00" fill="#000000">post_id_desc    </text>
<text text-anchor="start" x="534.6802" y="-456.9" font-family="Arial" font-size="14.00" fill="#666666">[bigint]</text>
<polygon fill="none" stroke="#000000" points="411,-415.5 411,-445.5 635,-445.5 635,-415.5 411,-415.5"/>
<text text-anchor="start" x="418" y="-426.9" font-family="Arial" font-size="14.00" fill="#000000">created    </text>
<text text-anchor="start" x="498.8864" y="-426.9" font-family="Arial" font-size="14.00" fill="#666666">[datetime]</text>
<polygon fill="none" stroke="#000000" points="411,-385.5 411,-415.5 635,-415.5 635,-385.5 411,-385.5"/>
<text text-anchor="start" x="418" y="-396.9" font-family="Arial" font-size="14.00" fill="#000000">updated    </text>
<text text-anchor="start" x="502.791" y="-396.9" font-family="Arial" font-size="14.00" fill="#666666">[datetime]</text>
</g>
<!-- comments&#45;&gt;users -->
<g id="edge2" class="edge">
<title>comments:user_id&#45;&gt;users:id</title>
<path fill="none" stroke="#000000" d="M645.2171,-519.8423C708.6433,-511.0157 656.0873,-415.1735 635,-343 629.6752,-324.7753 617.3248,-325.2247 612,-307 599.9718,-265.8323 569.1111,-210.5 612,-210.5"/>
<polygon fill="#000000" stroke="#000000" points="644.9793,-519.8575 634.7109,-516.0093 639.9897,-520.1787 635,-520.5 635,-520.5 635,-520.5 639.9897,-520.1787 635.2891,-524.9907 644.9793,-519.8575 644.9793,-519.8575"/>
<text text-anchor="start" x="641.945" y="-530.5" font-family="Arial" font-size="10.00" fill="#000000">FOREIGN KEY (user_id) REFERENCES users (id)</text>
</g>
<!-- posts -->
<g id="node4" class="node">
<title>posts</title>
<polygon fill="#efefef" stroke="transparent" points="740,-595.5 740,-630.5 1033,-630.5 1033,-595.5 740,-595.5"/>
<polygon fill="none" stroke="#000000" points="740,-595.5 740,-630.5 1033,-630.5 1033,-595.5 740,-595.5"/>
<text text-anchor="start" x="801.2087" y="-608.3" font-family="Arial Bold" font-size="18.00" fill="#000000">posts</text>
<text text-anchor="start" x="844.2233" y="-608.3" font-family="Arial" font-size="14.00" fill="#000000">    </text>
<text text-anchor="start" x="878.4281" y="-608.3" font-family="Arial" font-size="14.00" fill="#666666">[BASE TABLE]</text>
<polygon fill="none" stroke="#000000" points="740,-565.5 740,-595.5 1033,-595.5 1033,-565.5 740,-565.5"/>
<text text-anchor="start" x="747" y="-576.9" font-family="Arial" font-size="14.00" fill="#000000">id    </text>
<text text-anchor="start" x="792.094" y="-576.9" font-family="Arial" font-size="14.00" fill="#666666">[bigint]</text>
<polygon fill="none" stroke="#000000" points="740,-535.5 740,-565.5 1033,-565.5 1033,-535.5 740,-535.5"/>
<text text-anchor="start" x="747" y="-546.9" font-family="Arial" font-size="14.00" fill="#000000">user_id    </text>
<text text-anchor="start" x="827.1024" y="-546.9" font-family="Arial" font-size="14.00" fill="#666666">[int]</text>
<polygon fill="none" stroke="#000000" points="740,-505.5 740,-535.5 1033,-535.5 1033,-505.5 740,-505.5"/>
<text text-anchor="start" x="747" y="-516.9" font-family="Arial" font-size="14.00" fill="#000000">title    </text>
<text text-anchor="start" x="802.9818" y="-516.9" font-family="Arial" font-size="14.00" fill="#666666">[varchar(255)]</text>
<polygon fill="none" stroke="#000000" points="740,-475.5 740,-505.5 1033,-505.5 1033,-475.5 740,-475.5"/>
<text text-anchor="start" x="747" y="-486.9" font-family="Arial" font-size="14.00" fill="#000000">body    </text>
<text text-anchor="start" x="811.5526" y="-486.9" font-family="Arial" font-size="14.00" fill="#666666">[text]</text>
<polygon fill="none" stroke="#000000" points="740,-445.5 740,-475.5 1033,-475.5 1033,-445.5 740,-445.5"/>
<text text-anchor="start" x="746.5399" y="-456.9" font-family="Arial" font-size="14.00" fill="#000000">post_type    </text>
<text text-anchor="start" x="841.4389" y="-456.9" font-family="Arial" font-size="14.00" fill="#666666">[enum(&#39;public&#39;,&#39;private&#39;,&#39;draft&#39;)]</text>
<polygon fill="none" stroke="#000000" points="740,-415.5 740,-445.5 1033,-445.5 1033,-415.5 740,-415.5"/>
<text text-anchor="start" x="747" y="-426.9" font-family="Arial" font-size="14.00" fill="#000000">created    </text>
<text text-anchor="start" x="827.8864" y="-426.9" font-family="Arial" font-size="14.00" fill="#666666">[datetime]</text>
<polygon fill="none" stroke="#000000" points="740,-385.5 740,-415.5 1033,-415.5 1033,-385.5 740,-385.5"/>
<text text-anchor="start" x="747" y="-396.9" font-family="Arial" font-size="14.00" fill="#000000">updated    </text>
<text text-anchor="start" x="831.791" y="-396.9" font-family="Arial" font-size="14.00" fill="#666666">[datetime]</text>
</g>
<!-- posts&#45;&gt;users -->
<g id="edge3" class="edge">
<title>posts:user_id&#45;&gt;users:id</title>
<path fill="none" stroke="#000000" d="M729.8247,-549.9302C651.5,-540.6691 697.2228,-420.6117 740,-343 754.4632,-316.759 782.5368,-333.241 797,-307 817.7027,-269.4386 839.8889,-210.5 797,-210.5"/>
<polygon fill="#000000" stroke="#000000" points="730.0156,-549.9408 739.7483,-554.993 735.0078,-550.2204 740,-550.5 740,-550.5 740,-550.5 735.0078,-550.2204 740.2517,-546.007 730.0156,-549.9408 730.0156,-549.9408"/>
<text text-anchor="start" x="746.945" y="-560.5" font-family="Arial" font-size="10.00" fill="#000000">FOREIGN KEY (user_id) REFERENCES users (id)</text>
</g>
<!-- user_options -->
<g id="node5" class="node">
<title>user_options</title>
<polygon fill="#efefef" stroke="transparent" points="1137,-550.5 1137,-585.5 1381,-585.5 1381,-550.5 1137,-550.5"/>
<polygon fill="none" stroke="#000000" points="1137,-550.5 1137,-585.5 1381,-585.5 1381,-550.5 1137,-550.5"/>
<text text-anchor="start" x="1143.7" y="-563.3" font-family="Arial Bold" font-size="18.00" fill="#000000">user_options</text>
<text text-anchor="start" x="1246.732" y="-563.3" font-family="Arial" font-size="14.00" fill="#000000">    </text>
<text text-anchor="start" x="1280.9368" y="-563.3" font-family="Arial" font-size="14.00" fill="#666666">[BASE TABLE]</text>
<polygon fill="none" stroke="#000000" points="1137,-520.5 1137,-550.5 1381,-550.5 1381,-520.5 1137,-520.5"/>
<text text-anchor="start" x="1144" y="-531.9" font-family="Arial" font-size="14.00" fill="#000000">user_id    </text>
<text text-anchor="start" x="1224.1024" y="-531.9" font-family="Arial" font-size="14.00" fill="#666666">[int]</text>
<polygon fill="none" stroke="#000000" points="1137,-490.5 1137,-520.5 1381,-520.5 1381,-490.5 1137,-490.5"/>
<text text-anchor="start" x="1144" y="-501.9" font-family="Arial" font-size="14.00" fill="#000000">show_email    </text>
<text text-anchor="start" x="1252.0982" y="-501.9" font-family="Arial" font-size="14.00" fill="#666666">[tinyint(1)]</text>
<polygon fill="none" stroke="#000000" points="1137,-460.5 1137,-490.5 1381,-490.5 1381,-460.5 1137,-460.5"/>
<text text-anchor="start" x="1144" y="-471.9" font-family="Arial" font-size="14.00" fill="#000000">created    </text>
<text text-anchor="start" x="1224.8864" y="-471.9" font-family="Arial" font-size="14.00" fill="#666666">[timestamp]</text>
<polygon fill="none" stroke="#000000" points="1137,-430.5 1137,-460.5 1381,-460.5 1381,-430.5 1137,-430.5"/>
<text text-anchor="start" x="1144" y="-441.9" font-family="Arial" font-size="14.00" fill="#000000">updated    </text>
<text text-anchor="start" x="1228.791" y="-441.9" font-family="Arial" font-size="14.00" fill="#666666">[timestamp]</text>
</g>
<!-- user_options&#45;&gt;users -->
<g id="edge4" class="edge">
<title>user_options:user_id&#45;&gt;users:id</title>
<path fill="none" stroke="#000000" d="M1126.9931,-534.8826C1055.8208,-525.3573 1139.8618,-407.9077 1085,-343 994.047,-235.3922 937.8968,-210.5 797,-210.5"/>
<polygon fill="#000000" stroke="#000000" points="1127.019,-534.8841 1136.7229,-539.9915 1132.0095,-535.1921 1137,-535.5 1137,-535.5 1137,-535.5 1132.0095,-535.1921 1137.2771,-531.0085 1127.019,-534.8841 1127.019,-534.8841"/>
<text text-anchor="start" x="963.945" y="-519.5" font-family="Arial" font-size="10.00" fill="#000000">FOREIGN KEY (user_id) REFERENCES users (id)</text>
</g>
</g>
</svg>
