<?xml version="1.0" encoding="UTF-8" standalone="no"?>
<!DOCTYPE svg PUBLIC "-//W3C//DTD SVG 1.1//EN"
 "http://www.w3.org/Graphics/SVG/1.1/DTD/svg11.dtd">
<!-- Generated by graphviz version 2.40.1 (20161225.0304)
 -->
<!-- Title: comment_stars Pages: 1 -->
<svg width="1013pt" height="1019pt"
 viewBox="0.00 0.00 1013.00 1019.00" xmlns="http://www.w3.org/2000/svg" xmlns:xlink="http://www.w3.org/1999/xlink">
<g id="graph0" class="graph" transform="scale(1 1) rotate(0) translate(4 1015)">
<title>comment_stars</title>
<polygon fill="#ffffff" stroke="transparent" points="-4,4 -4,-1015 1009,-1015 1009,4 -4,4"/>
<!-- comment_stars -->
<g id="node1" class="node">
<title>comment_stars</title>
<polygon fill="#efefef" stroke="transparent" points="455,-562.5 455,-597.5 719,-597.5 719,-562.5 455,-562.5"/>
<polygon fill="none" stroke="#000000" points="455,-562.5 455,-597.5 719,-597.5 719,-562.5 455,-562.5"/>
<text text-anchor="start" x="461.71" y="-575.3" font-family="Arial Bold" font-size="18.00" fill="#000000">comment_stars</text>
<text text-anchor="start" x="584.722" y="-575.3" font-family="Arial" font-size="14.00" fill="#000000">    </text>
<text text-anchor="start" x="618.9268" y="-575.3" font-family="Arial" font-size="14.00" fill="#666666">[BASE TABLE]</text>
<polygon fill="none" stroke="#000000" points="455,-532.5 455,-562.5 719,-562.5 719,-532.5 455,-532.5"/>
<text text-anchor="start" x="462" y="-543.9" font-family="Arial" font-size="14.00" fill="#000000">id </text>
<text text-anchor="start" x="476.7798" y="-543.9" font-family="Arial" font-size="14.00" fill="#666666">[bigint(20)]</text>
<polygon fill="none" stroke="#000000" points="455,-502.5 455,-532.5 719,-532.5 719,-502.5 455,-502.5"/>
<text text-anchor="start" x="462" y="-513.9" font-family="Arial" font-size="14.00" fill="#000000">user_id </text>
<text text-anchor="start" x="511.7882" y="-513.9" font-family="Arial" font-size="14.00" fill="#666666">[int(11)]</text>
<polygon fill="none" stroke="#000000" points="455,-472.5 455,-502.5 719,-502.5 719,-472.5 455,-472.5"/>
<text text-anchor="start" x="462" y="-483.9" font-family="Arial" font-size="14.00" fill="#000000">comment_post_id </text>
<text text-anchor="start" x="576.3604" y="-483.9" font-family="Arial" font-size="14.00" fill="#666666">[bigint(20)]</text>
<polygon fill="none" stroke="#000000" points="455,-442.5 455,-472.5 719,-472.5 719,-442.5 455,-442.5"/>
<text text-anchor="start" x="462" y="-453.9" font-family="Arial" font-size="14.00" fill="#000000">comment_user_id </text>
<text text-anchor="start" x="577.1304" y="-453.9" font-family="Arial" font-size="14.00" fill="#666666">[int(11)]</text>
<polygon fill="none" stroke="#000000" points="455,-412.5 455,-442.5 719,-442.5 719,-412.5 455,-412.5"/>
<text text-anchor="start" x="462" y="-423.9" font-family="Arial" font-size="14.00" fill="#000000">created </text>
<text text-anchor="start" x="512.5722" y="-423.9" font-family="Arial" font-size="14.00" fill="#666666">[timestamp]</text>
<polygon fill="none" stroke="#000000" points="455,-382.5 455,-412.5 719,-412.5 719,-382.5 455,-382.5"/>
<text text-anchor="start" x="462" y="-393.9" font-family="Arial" font-size="14.00" fill="#000000">updated </text>
<text text-anchor="start" x="516.4768" y="-393.9" font-family="Arial" font-size="14.00" fill="#666666">[timestamp]</text>
<polygon fill="none" stroke="#000000" stroke-width="3" points="453.5,-381.5 453.5,-599.5 720.5,-599.5 720.5,-381.5 453.5,-381.5"/>
</g>
<!-- comments -->
<g id="node3" class="node">
<title>comments</title>
<polygon fill="#efefef" stroke="transparent" points="349,-222.5 349,-257.5 543,-257.5 543,-222.5 349,-222.5"/>
<polygon fill="none" stroke="#000000" points="349,-222.5 349,-257.5 543,-257.5 543,-222.5 349,-222.5"/>
<text text-anchor="start" x="355.8705" y="-235.3" font-family="Arial Bold" font-size="18.00" fill="#000000">comments</text>
<text text-anchor="start" x="438.8757" y="-235.3" font-family="Arial" font-size="14.00" fill="#000000"> </text>
<text text-anchor="start" x="442.7663" y="-235.3" font-family="Arial" font-size="14.00" fill="#666666">[BASE TABLE]</text>
<polygon fill="none" stroke="#000000" points="349,-192.5 349,-222.5 543,-222.5 543,-192.5 349,-192.5"/>
<text text-anchor="start" x="356" y="-203.9" font-family="Arial" font-size="14.00" fill="#000000">id </text>
<text text-anchor="start" x="370.7798" y="-203.9" font-family="Arial" font-size="14.00" fill="#666666">[bigint(20)]</text>
<polygon fill="none" stroke="#000000" points="349,-162.5 349,-192.5 543,-192.5 543,-162.5 349,-162.5"/>
<text text-anchor="start" x="356" y="-173.9" font-family="Arial" font-size="14.00" fill="#000000">post_id </text>
<text text-anchor="start" x="405.0182" y="-173.9" font-family="Arial" font-size="14.00" fill="#666666">[bigint(20)]</text>
<polygon fill="none" stroke="#000000" points="349,-132.5 349,-162.5 543,-162.5 543,-132.5 349,-132.5"/>
<text text-anchor="start" x="356" y="-143.9" font-family="Arial" font-size="14.00" fill="#000000">user_id </text>
<text text-anchor="start" x="405.7882" y="-143.9" font-family="Arial" font-size="14.00" fill="#666666">[int(11)]</text>
<polygon fill="none" stroke="#000000" points="349,-102.5 349,-132.5 543,-132.5 543,-102.5 349,-102.5"/>
<text text-anchor="start" x="356" y="-113.9" font-family="Arial" font-size="14.00" fill="#000000">comment </text>
<text text-anchor="start" x="417.4502" y="-113.9" font-family="Arial" font-size="14.00" fill="#666666">[text]</text>
<polygon fill="none" stroke="#000000" points="349,-72.5 349,-102.5 543,-102.5 543,-72.5 349,-72.5"/>
<text text-anchor="start" x="356" y="-83.9" font-family="Arial" font-size="14.00" fill="#000000">created </text>
<text text-anchor="start" x="406.5722" y="-83.9" font-family="Arial" font-size="14.00" fill="#666666">[datetime]</text>
<polygon fill="none" stroke="#000000" points="349,-42.5 349,-72.5 543,-72.5 543,-42.5 349,-42.5"/>
<text text-anchor="start" x="356" y="-53.9" font-family="Arial" font-size="14.00" fill="#000000">updated </text>
<text text-anchor="start" x="410.4768" y="-53.9" font-family="Arial" font-size="14.00" fill="#666666">[datetime]</text>
</g>
<!-- comment_stars&#45;&gt;comments -->
<g id="edge2" class="edge">
<title>comment_stars:comment_post_id&#45;&gt;comments:post_id</title>
<path fill="none" stroke="#000000" d="M444.8773,-486.6699C391.3722,-477.2311 419.7557,-389.4975 455,-337 478.5538,-301.9158 519.4462,-336.0842 543,-301 573.5945,-255.4285 597.8889,-177.5 543,-177.5"/>
<polygon fill="#000000" stroke="#000000" points="445.0335,-486.6827 454.6322,-491.9849 450.0167,-487.0913 455,-487.5 455,-487.5 455,-487.5 450.0167,-487.0913 455.3678,-483.0151 445.0335,-486.6827 445.0335,-486.6827"/>
<text text-anchor="start" x="7.1435" y="-497.5" font-family="Arial" font-size="10.00" fill="#000000">FOREIGN KEY (comment_post_id, comment_user_id) REFERENCES comments (post_id, user_id)</text>
</g>
<!-- users -->
<g id="node4" class="node">
<title>users</title>
<polygon fill="#efefef" stroke="transparent" points="648,-222.5 648,-257.5 807,-257.5 807,-222.5 648,-222.5"/>
<polygon fill="none" stroke="#000000" points="648,-222.5 648,-257.5 807,-257.5 807,-222.5 648,-222.5"/>
<text text-anchor="start" x="656.8708" y="-235.3" font-family="Arial Bold" font-size="18.00" fill="#000000">users</text>
<text text-anchor="start" x="700.8754" y="-235.3" font-family="Arial" font-size="14.00" fill="#000000"> </text>
<text text-anchor="start" x="704.766" y="-235.3" font-family="Arial" font-size="14.00" fill="#666666">[BASE TABLE]</text>
<polygon fill="none" stroke="#000000" points="648,-192.5 648,-222.5 807,-222.5 807,-192.5 648,-192.5"/>
<text text-anchor="start" x="655" y="-203.9" font-family="Arial" font-size="14.00" fill="#000000">id </text>
<text text-anchor="start" x="669.7798" y="-203.9" font-family="Arial" font-size="14.00" fill="#666666">[int(11)]</text>
<polygon fill="none" stroke="#000000" points="648,-162.5 648,-192.5 807,-192.5 807,-162.5 648,-162.5"/>
<text text-anchor="start" x="654.7693" y="-173.9" font-family="Arial" font-size="14.00" fill="#000000">username </text>
<text text-anchor="start" x="720.8941" y="-173.9" font-family="Arial" font-size="14.00" fill="#666666">[varchar(50)]</text>
<polygon fill="none" stroke="#000000" points="648,-132.5 648,-162.5 807,-162.5 807,-132.5 648,-132.5"/>
<text text-anchor="start" x="655" y="-143.9" font-family="Arial" font-size="14.00" fill="#000000">password </text>
<text text-anchor="start" x="718.7882" y="-143.9" font-family="Arial" font-size="14.00" fill="#666666">[varchar(50)]</text>
<polygon fill="none" stroke="#000000" points="648,-102.5 648,-132.5 807,-132.5 807,-102.5 648,-102.5"/>
<text text-anchor="start" x="655" y="-113.9" font-family="Arial" font-size="14.00" fill="#000000">email </text>
<text text-anchor="start" x="692.3296" y="-113.9" font-family="Arial" font-size="14.00" fill="#666666">[varchar(355)]</text>
<polygon fill="none" stroke="#000000" points="648,-72.5 648,-102.5 807,-102.5 807,-72.5 648,-72.5"/>
<text text-anchor="start" x="655" y="-83.9" font-family="Arial" font-size="14.00" fill="#000000">created </text>
<text text-anchor="start" x="705.5722" y="-83.9" font-family="Arial" font-size="14.00" fill="#666666">[timestamp]</text>
<polygon fill="none" stroke="#000000" points="648,-42.5 648,-72.5 807,-72.5 807,-42.5 648,-42.5"/>
<text text-anchor="start" x="655" y="-53.9" font-family="Arial" font-size="14.00" fill="#000000">updated </text>
<text text-anchor="start" x="709.4768" y="-53.9" font-family="Arial" font-size="14.00" fill="#666666">[timestamp]</text>
</g>
<!-- comment_stars&#45;&gt;users -->
<g id="edge3" class="edge">
<title>comment_stars:comment_user_id&#45;&gt;users:id</title>
<path fill="none" stroke="#000000" d="M729.1506,-456.4258C768.9533,-447.1167 745.057,-379.4272 719,-337 700.4842,-306.8517 666.5158,-331.1483 648,-301 626.2523,-265.5895 606.4444,-207.5 648,-207.5"/>
<polygon fill="#000000" stroke="#000000" points="728.9445,-456.4476 718.5264,-453.025 723.9722,-456.9738 719,-457.5 719,-457.5 719,-457.5 723.9722,-456.9738 719.4736,-461.975 728.9445,-456.4476 728.9445,-456.4476"/>
<text text-anchor="start" x="725.6085" y="-467.5" font-family="Arial" font-size="10.00" fill="#000000">FOREIGN KEY (comment_user_id) REFERENCES users (id)</text>
</g>
<!-- logs -->
<g id="node2" class="node">
<title>logs</title>
<polygon fill="#efefef" stroke="transparent" points="491,-932.5 491,-967.5 682,-967.5 682,-932.5 491,-932.5"/>
<polygon fill="none" stroke="#000000" points="491,-932.5 491,-967.5 682,-967.5 682,-932.5 491,-932.5"/>
<text text-anchor="start" x="521.3698" y="-945.3" font-family="Arial Bold" font-size="18.00" fill="#000000">logs</text>
<text text-anchor="start" x="554.3764" y="-945.3" font-family="Arial" font-size="14.00" fill="#000000"> </text>
<text text-anchor="start" x="558.267" y="-945.3" font-family="Arial" font-size="14.00" fill="#666666">[BASE TABLE]</text>
<polygon fill="none" stroke="#000000" points="491,-902.5 491,-932.5 682,-932.5 682,-902.5 491,-902.5"/>
<text text-anchor="start" x="498" y="-913.9" font-family="Arial" font-size="14.00" fill="#000000">id </text>
<text text-anchor="start" x="512.7798" y="-913.9" font-family="Arial" font-size="14.00" fill="#666666">[bigint(20)]</text>
<polygon fill="none" stroke="#000000" points="491,-872.5 491,-902.5 682,-902.5 682,-872.5 491,-872.5"/>
<text text-anchor="start" x="498" y="-883.9" font-family="Arial" font-size="14.00" fill="#000000">user_id </text>
<text text-anchor="start" x="547.7882" y="-883.9" font-family="Arial" font-size="14.00" fill="#666666">[int(11)]</text>
<polygon fill="none" stroke="#000000" points="491,-842.5 491,-872.5 682,-872.5 682,-842.5 491,-842.5"/>
<text text-anchor="start" x="498" y="-853.9" font-family="Arial" font-size="14.00" fill="#000000">post_id </text>
<text text-anchor="start" x="547.0182" y="-853.9" font-family="Arial" font-size="14.00" fill="#666666">[bigint(20)]</text>
<polygon fill="none" stroke="#000000" points="491,-812.5 491,-842.5 682,-842.5 682,-812.5 491,-812.5"/>
<text text-anchor="start" x="498" y="-823.9" font-family="Arial" font-size="14.00" fill="#000000">comment_id </text>
<text text-anchor="start" x="578.122" y="-823.9" font-family="Arial" font-size="14.00" fill="#666666">[bigint(20)]</text>
<polygon fill="none" stroke="#000000" points="491,-782.5 491,-812.5 682,-812.5 682,-782.5 491,-782.5"/>
<text text-anchor="start" x="497.8212" y="-793.9" font-family="Arial" font-size="14.00" fill="#000000">comment_star_id </text>
<text text-anchor="start" x="609.0596" y="-793.9" font-family="Arial" font-size="14.00" fill="#666666">[bigint(20)]</text>
<polygon fill="none" stroke="#000000" points="491,-752.5 491,-782.5 682,-782.5 682,-752.5 491,-752.5"/>
<text text-anchor="start" x="498" y="-763.9" font-family="Arial" font-size="14.00" fill="#000000">payload </text>
<text text-anchor="start" x="550.9102" y="-763.9" font-family="Arial" font-size="14.00" fill="#666666">[text]</text>
<polygon fill="none" stroke="#000000" points="491,-722.5 491,-752.5 682,-752.5 682,-722.5 491,-722.5"/>
<text text-anchor="start" x="498" y="-733.9" font-family="Arial" font-size="14.00" fill="#000000">created </text>
<text text-anchor="start" x="548.5722" y="-733.9" font-family="Arial" font-size="14.00" fill="#666666">[datetime]</text>
</g>
<!-- logs&#45;&gt;comment_stars -->
<g id="edge1" class="edge">
<title>logs:comment_star_id&#45;&gt;comment_stars:id</title>
<path fill="none" stroke="#000000" stroke-dasharray="5,2" d="M691.9886,-796.3866C731.5702,-786.7495 713.5272,-716.9211 682,-680 615.6669,-602.3181 521.3331,-721.6819 455,-644 427.1492,-611.3842 412.1111,-547.5 455,-547.5"/>
<polygon fill="#000000" stroke="#000000" points="691.9384,-796.3921 681.5014,-793.0277 686.9692,-796.946 682,-797.5 682,-797.5 682,-797.5 686.9692,-796.946 682.4986,-801.9723 691.9384,-796.3921 691.9384,-796.3921"/>
<text text-anchor="start" x="689.3245" y="-807.5" font-family="Arial" font-size="10.00" fill="#000000">Additional Relation</text>
</g>
</g>
</svg>
