<?xml version="1.0" encoding="UTF-8" standalone="no"?>
<!DOCTYPE svg PUBLIC "-//W3C//DTD SVG 1.1//EN"
 "http://www.w3.org/Graphics/SVG/1.1/DTD/svg11.dtd">
<!-- Generated by graphviz version 12.1.2 (20240928.0832)
 -->
<!-- Title: comments Pages: 1 -->
<svg width="847pt" height="1068pt"
 viewBox="0.00 0.00 847.38 1068.00" xmlns="http://www.w3.org/2000/svg" xmlns:xlink="http://www.w3.org/1999/xlink">
<g id="graph0" class="graph" transform="scale(1 1) rotate(0) translate(4 1064)">
<title>comments</title>
<polygon fill="white" stroke="none" points="-4,4 -4,-1064 843.38,-1064 843.38,4 -4,4"/>
<!-- comments -->
<g id="node1" class="node">
<title>comments</title>
<polygon fill="#efefef" stroke="none" points="240.05,-604.6 240.05,-640.2 452.53,-640.2 452.53,-604.6 240.05,-604.6"/>
<polygon fill="none" stroke="black" points="240.05,-604.6 240.05,-640.2 452.53,-640.2 452.53,-604.6 240.05,-604.6"/>
<text text-anchor="start" x="247.05" y="-618" font-family="Arial Bold" font-size="18.00">comments</text>
<text text-anchor="start" x="321.04" y="-618" font-family="Arial" font-size="14.00">    </text>
<text text-anchor="start" x="352.16" y="-618" font-family="Arial" font-size="14.00" fill="#666666">[BASE TABLE]</text>
<polygon fill="none" stroke="black" points="240.05,-573.8 240.05,-604.6 452.53,-604.6 452.53,-573.8 240.05,-573.8"/>
<text text-anchor="start" x="247.05" y="-586" font-family="Arial" font-size="14.00">id </text>
<text text-anchor="start" x="261.84" y="-586" font-family="Arial" font-size="14.00" fill="#666666">[bigint(20)]</text>
<polygon fill="none" stroke="black" points="240.05,-543 240.05,-573.8 452.53,-573.8 452.53,-543 240.05,-543"/>
<text text-anchor="start" x="247.05" y="-555.2" font-family="Arial" font-size="14.00">post_id </text>
<text text-anchor="start" x="296.09" y="-555.2" font-family="Arial" font-size="14.00" fill="#666666">[bigint(20)]</text>
<polygon fill="none" stroke="black" points="240.05,-512.2 240.05,-543 452.53,-543 452.53,-512.2 240.05,-512.2"/>
<text text-anchor="start" x="247.05" y="-524.4" font-family="Arial" font-size="14.00">user_id </text>
<text text-anchor="start" x="296.86" y="-524.4" font-family="Arial" font-size="14.00" fill="#666666">[int(11)]</text>
<polygon fill="none" stroke="black" points="240.05,-481.4 240.05,-512.2 452.53,-512.2 452.53,-481.4 240.05,-481.4"/>
<text text-anchor="start" x="247.05" y="-493.6" font-family="Arial" font-size="14.00">comment </text>
<text text-anchor="start" x="308.52" y="-493.6" font-family="Arial" font-size="14.00" fill="#666666">[text]</text>
<polygon fill="none" stroke="black" points="240.05,-450.6 240.05,-481.4 452.53,-481.4 452.53,-450.6 240.05,-450.6"/>
<text text-anchor="start" x="247.05" y="-462.8" font-family="Arial" font-size="14.00">created </text>
<text text-anchor="start" x="297.64" y="-462.8" font-family="Arial" font-size="14.00" fill="#666666">[datetime]</text>
<polygon fill="none" stroke="black" points="240.05,-419.8 240.05,-450.6 452.53,-450.6 452.53,-419.8 240.05,-419.8"/>
<text text-anchor="start" x="247.05" y="-432" font-family="Arial" font-size="14.00">updated </text>
<text text-anchor="start" x="301.55" y="-432" font-family="Arial" font-size="14.00" fill="#666666">[datetime]</text>
<polygon fill="none" stroke="black" stroke-width="3" points="238.55,-418.3 238.55,-641.7 454.03,-641.7 454.03,-418.3 238.55,-418.3"/>
</g>
<!-- posts -->
<g id="node3" class="node">
<title>posts</title>
<polygon fill="#efefef" stroke="none" points="54.71,-258.8 54.71,-294.4 315.87,-294.4 315.87,-258.8 54.71,-258.8"/>
<polygon fill="none" stroke="black" points="54.71,-258.8 54.71,-294.4 315.87,-294.4 315.87,-258.8 54.71,-258.8"/>
<text text-anchor="start" x="104.54" y="-272.2" font-family="Arial Bold" font-size="18.00">posts</text>
<text text-anchor="start" x="141.55" y="-272.2" font-family="Arial" font-size="14.00">    </text>
<text text-anchor="start" x="172.67" y="-272.2" font-family="Arial" font-size="14.00" fill="#666666">[BASE TABLE]</text>
<polygon fill="none" stroke="black" points="54.71,-228 54.71,-258.8 315.87,-258.8 315.87,-228 54.71,-228"/>
<text text-anchor="start" x="61.71" y="-240.2" font-family="Arial" font-size="14.00">id </text>
<text text-anchor="start" x="76.5" y="-240.2" font-family="Arial" font-size="14.00" fill="#666666">[bigint(20)]</text>
<polygon fill="none" stroke="black" points="54.71,-197.2 54.71,-228 315.87,-228 315.87,-197.2 54.71,-197.2"/>
<text text-anchor="start" x="61.71" y="-209.4" font-family="Arial" font-size="14.00">user_id </text>
<text text-anchor="start" x="111.52" y="-209.4" font-family="Arial" font-size="14.00" fill="#666666">[int(11)]</text>
<polygon fill="none" stroke="black" points="54.71,-166.4 54.71,-197.2 315.87,-197.2 315.87,-166.4 54.71,-166.4"/>
<text text-anchor="start" x="61.71" y="-178.6" font-family="Arial" font-size="14.00">title </text>
<text text-anchor="start" x="87.39" y="-178.6" font-family="Arial" font-size="14.00" fill="#666666">[varchar(255)]</text>
<polygon fill="none" stroke="black" points="54.71,-135.6 54.71,-166.4 315.87,-166.4 315.87,-135.6 54.71,-135.6"/>
<text text-anchor="start" x="61.71" y="-147.8" font-family="Arial" font-size="14.00">body </text>
<text text-anchor="start" x="95.96" y="-147.8" font-family="Arial" font-size="14.00" fill="#666666">[text]</text>
<polygon fill="none" stroke="black" points="54.71,-104.8 54.71,-135.6 315.87,-135.6 315.87,-104.8 54.71,-104.8"/>
<text text-anchor="start" x="61.71" y="-117" font-family="Arial" font-size="14.00">post_type </text>
<text text-anchor="start" x="126.31" y="-117" font-family="Arial" font-size="14.00" fill="#666666">[enum(&#39;public&#39;,&#39;private&#39;,&#39;draft&#39;)]</text>
<polygon fill="none" stroke="black" points="54.71,-74 54.71,-104.8 315.87,-104.8 315.87,-74 54.71,-74"/>
<text text-anchor="start" x="61.71" y="-86.2" font-family="Arial" font-size="14.00">created </text>
<text text-anchor="start" x="112.3" y="-86.2" font-family="Arial" font-size="14.00" fill="#666666">[datetime]</text>
<polygon fill="none" stroke="black" points="54.71,-43.2 54.71,-74 315.87,-74 315.87,-43.2 54.71,-43.2"/>
<text text-anchor="start" x="61.71" y="-55.4" font-family="Arial" font-size="14.00">updated </text>
<text text-anchor="start" x="116.21" y="-55.4" font-family="Arial" font-size="14.00" fill="#666666">[datetime]</text>
</g>
<!-- comments&#45;&gt;posts -->
<g id="edge2" class="edge">
<title>comments:post_id&#45;&gt;posts:id</title>
<path fill="none" stroke="black" d="M228.71,-557.72C160.44,-548.12 197.96,-439.79 240.05,-373.6 260.07,-342.12 295.77,-369.02 315.87,-337.6 338.43,-302.33 358.74,-243.4 316.87,-243.4"/>
<polygon fill="black" stroke="black" points="228.74,-557.72 238.42,-562.87 234.06,-558.07 238.39,-558.36 238.39,-558.36 238.39,-558.36 234.06,-558.07 239.02,-553.89 228.74,-557.72"/>
<text text-anchor="start" x="7" y="-568.4" font-family="Arial" font-size="10.00">FOREIGN KEY (post_id) REFERENCES posts (id)</text>
</g>
<!-- users -->
<g id="node5" class="node">
<title>users</title>
<polygon fill="#efefef" stroke="none" points="420.55,-243.4 420.55,-279 596.03,-279 596.03,-243.4 420.55,-243.4"/>
<polygon fill="none" stroke="black" points="420.55,-243.4 420.55,-279 596.03,-279 596.03,-243.4 420.55,-243.4"/>
<text text-anchor="start" x="427.55" y="-256.8" font-family="Arial Bold" font-size="18.00">users</text>
<text text-anchor="start" x="464.54" y="-256.8" font-family="Arial" font-size="14.00">    </text>
<text text-anchor="start" x="495.66" y="-256.8" font-family="Arial" font-size="14.00" fill="#666666">[BASE TABLE]</text>
<polygon fill="none" stroke="black" points="420.55,-212.6 420.55,-243.4 596.03,-243.4 596.03,-212.6 420.55,-212.6"/>
<text text-anchor="start" x="427.55" y="-224.8" font-family="Arial" font-size="14.00">id </text>
<text text-anchor="start" x="442.34" y="-224.8" font-family="Arial" font-size="14.00" fill="#666666">[int(11)]</text>
<polygon fill="none" stroke="black" points="420.55,-181.8 420.55,-212.6 596.03,-212.6 596.03,-181.8 420.55,-181.8"/>
<text text-anchor="start" x="427.55" y="-194" font-family="Arial" font-size="14.00">username </text>
<text text-anchor="start" x="493.69" y="-194" font-family="Arial" font-size="14.00" fill="#666666">[varchar(50)]</text>
<polygon fill="none" stroke="black" points="420.55,-151 420.55,-181.8 596.03,-181.8 596.03,-151 420.55,-151"/>
<text text-anchor="start" x="427.55" y="-163.2" font-family="Arial" font-size="14.00">password </text>
<text text-anchor="start" x="491.36" y="-163.2" font-family="Arial" font-size="14.00" fill="#666666">[varchar(50)]</text>
<polygon fill="none" stroke="black" points="420.55,-120.2 420.55,-151 596.03,-151 596.03,-120.2 420.55,-120.2"/>
<text text-anchor="start" x="427.55" y="-132.4" font-family="Arial" font-size="14.00">email </text>
<text text-anchor="start" x="464.9" y="-132.4" font-family="Arial" font-size="14.00" fill="#666666">[varchar(355)]</text>
<polygon fill="none" stroke="black" points="420.55,-89.4 420.55,-120.2 596.03,-120.2 596.03,-89.4 420.55,-89.4"/>
<text text-anchor="start" x="427.55" y="-101.6" font-family="Arial" font-size="14.00">created </text>
<text text-anchor="start" x="478.14" y="-101.6" font-family="Arial" font-size="14.00" fill="#666666">[timestamp]</text>
<polygon fill="none" stroke="black" points="420.55,-58.6 420.55,-89.4 596.03,-89.4 596.03,-58.6 420.55,-58.6"/>
<text text-anchor="start" x="427.55" y="-70.8" font-family="Arial" font-size="14.00">updated </text>
<text text-anchor="start" x="482.05" y="-70.8" font-family="Arial" font-size="14.00" fill="#666666">[timestamp]</text>
</g>
<!-- comments&#45;&gt;users -->
<g id="edge4" class="edge">
<title>comments:user_id&#45;&gt;users:id</title>
<path fill="none" stroke="black" d="M463.72,-526.83C516.55,-518.02 470.51,-435.76 452.53,-373.6 445.05,-347.75 428.08,-348.03 420.55,-322.2 408.84,-282 377.68,-228 419.55,-228"/>
<polygon fill="black" stroke="black" points="463.83,-526.82 453.52,-523.09 458.51,-527.22 454.2,-527.55 454.2,-527.55 454.2,-527.55 458.51,-527.22 454.2,-532.06 463.83,-526.82"/>
<text text-anchor="start" x="460.53" y="-537.6" font-family="Arial" font-size="10.00">FOREIGN KEY (user_id) REFERENCES users (id)</text>
</g>
<!-- logs -->
<g id="node2" class="node">
<title>logs</title>
<polygon fill="#efefef" stroke="none" points="88.58,-981.2 88.58,-1016.8 280,-1016.8 280,-981.2 88.58,-981.2"/>
<polygon fill="none" stroke="black" points="88.58,-981.2 88.58,-1016.8 280,-1016.8 280,-981.2 88.58,-981.2"/>
<text text-anchor="start" x="107.04" y="-994.6" font-family="Arial Bold" font-size="18.00">logs</text>
<text text-anchor="start" x="137.05" y="-994.6" font-family="Arial" font-size="14.00">    </text>
<text text-anchor="start" x="168.17" y="-994.6" font-family="Arial" font-size="14.00" fill="#666666">[BASE TABLE]</text>
<polygon fill="none" stroke="black" points="88.58,-950.4 88.58,-981.2 280,-981.2 280,-950.4 88.58,-950.4"/>
<text text-anchor="start" x="95.58" y="-962.6" font-family="Arial" font-size="14.00">id </text>
<text text-anchor="start" x="110.37" y="-962.6" font-family="Arial" font-size="14.00" fill="#666666">[bigint(20)]</text>
<polygon fill="none" stroke="black" points="88.58,-919.6 88.58,-950.4 280,-950.4 280,-919.6 88.58,-919.6"/>
<text text-anchor="start" x="95.58" y="-931.8" font-family="Arial" font-size="14.00">user_id </text>
<text text-anchor="start" x="145.39" y="-931.8" font-family="Arial" font-size="14.00" fill="#666666">[int(11)]</text>
<polygon fill="none" stroke="black" points="88.58,-888.8 88.58,-919.6 280,-919.6 280,-888.8 88.58,-888.8"/>
<text text-anchor="start" x="95.58" y="-901" font-family="Arial" font-size="14.00">post_id </text>
<text text-anchor="start" x="144.62" y="-901" font-family="Arial" font-size="14.00" fill="#666666">[bigint(20)]</text>
<polygon fill="none" stroke="black" points="88.58,-858 88.58,-888.8 280,-888.8 280,-858 88.58,-858"/>
<text text-anchor="start" x="95.58" y="-870.2" font-family="Arial" font-size="14.00">comment_id </text>
<text text-anchor="start" x="175.73" y="-870.2" font-family="Arial" font-size="14.00" fill="#666666">[bigint(20)]</text>
<polygon fill="none" stroke="black" points="88.58,-827.2 88.58,-858 280,-858 280,-827.2 88.58,-827.2"/>
<text text-anchor="start" x="95.58" y="-839.4" font-family="Arial" font-size="14.00">comment_star_id </text>
<text text-anchor="start" x="206.85" y="-839.4" font-family="Arial" font-size="14.00" fill="#666666">[bigint(20)]</text>
<polygon fill="none" stroke="black" points="88.58,-796.4 88.58,-827.2 280,-827.2 280,-796.4 88.58,-796.4"/>
<text text-anchor="start" x="95.58" y="-808.6" font-family="Arial" font-size="14.00">payload </text>
<text text-anchor="start" x="148.52" y="-808.6" font-family="Arial" font-size="14.00" fill="#666666">[text]</text>
<polygon fill="none" stroke="black" points="88.58,-765.6 88.58,-796.4 280,-796.4 280,-765.6 88.58,-765.6"/>
<text text-anchor="start" x="95.58" y="-777.8" font-family="Arial" font-size="14.00">created </text>
<text text-anchor="start" x="146.17" y="-777.8" font-family="Arial" font-size="14.00" fill="#666666">[datetime]</text>
</g>
<!-- logs&#45;&gt;comments -->
<g id="edge1" class="edge">
<title>logs:comment_id&#45;&gt;comments:id</title>
<path fill="none" stroke="black" stroke-dasharray="5,2" d="M291.39,-872.56C343.55,-863.32 305.93,-780.16 280,-722.4 270.21,-700.6 249.88,-708.18 240.05,-686.4 222.29,-647.02 195.85,-589.2 239.05,-589.2"/>
<polygon fill="black" stroke="black" points="291.3,-872.56 280.97,-868.89 285.98,-873 281.66,-873.35 281.66,-873.35 281.66,-873.35 285.98,-873 281.7,-877.86 291.3,-872.56"/>
<text text-anchor="start" x="288" y="-883.4" font-family="Arial" font-size="10.00">Additional Relation</text>
</g>
<!-- comment_stars -->
<g id="node4" class="node">
<title>comment_stars</title>
<polygon fill="#efefef" stroke="none" points="384.56,-965.8 384.56,-1001.4 632.02,-1001.4 632.02,-965.8 384.56,-965.8"/>
<polygon fill="none" stroke="black" points="384.56,-965.8 384.56,-1001.4 632.02,-1001.4 632.02,-965.8 384.56,-965.8"/>
<text text-anchor="start" x="391.56" y="-979.2" font-family="Arial Bold" font-size="18.00">comment_stars</text>
<text text-anchor="start" x="500.53" y="-979.2" font-family="Arial" font-size="14.00">    </text>
<text text-anchor="start" x="531.65" y="-979.2" font-family="Arial" font-size="14.00" fill="#666666">[BASE TABLE]</text>
<polygon fill="none" stroke="black" points="384.56,-935 384.56,-965.8 632.02,-965.8 632.02,-935 384.56,-935"/>
<text text-anchor="start" x="391.56" y="-947.2" font-family="Arial" font-size="14.00">id </text>
<text text-anchor="start" x="406.35" y="-947.2" font-family="Arial" font-size="14.00" fill="#666666">[bigint(20)]</text>
<polygon fill="none" stroke="black" points="384.56,-904.2 384.56,-935 632.02,-935 632.02,-904.2 384.56,-904.2"/>
<text text-anchor="start" x="391.56" y="-916.4" font-family="Arial" font-size="14.00">user_id </text>
<text text-anchor="start" x="441.37" y="-916.4" font-family="Arial" font-size="14.00" fill="#666666">[int(11)]</text>
<polygon fill="none" stroke="black" points="384.56,-873.4 384.56,-904.2 632.02,-904.2 632.02,-873.4 384.56,-873.4"/>
<text text-anchor="start" x="391.56" y="-885.6" font-family="Arial" font-size="14.00">comment_post_id </text>
<text text-anchor="start" x="505.95" y="-885.6" font-family="Arial" font-size="14.00" fill="#666666">[bigint(20)]</text>
<polygon fill="none" stroke="black" points="384.56,-842.6 384.56,-873.4 632.02,-873.4 632.02,-842.6 384.56,-842.6"/>
<text text-anchor="start" x="391.56" y="-854.8" font-family="Arial" font-size="14.00">comment_user_id </text>
<text text-anchor="start" x="506.72" y="-854.8" font-family="Arial" font-size="14.00" fill="#666666">[int(11)]</text>
<polygon fill="none" stroke="black" points="384.56,-811.8 384.56,-842.6 632.02,-842.6 632.02,-811.8 384.56,-811.8"/>
<text text-anchor="start" x="391.56" y="-824" font-family="Arial" font-size="14.00">created </text>
<text text-anchor="start" x="442.15" y="-824" font-family="Arial" font-size="14.00" fill="#666666">[timestamp]</text>
<polygon fill="none" stroke="black" points="384.56,-781 384.56,-811.8 632.02,-811.8 632.02,-781 384.56,-781"/>
<text text-anchor="start" x="391.56" y="-793.2" font-family="Arial" font-size="14.00">updated </text>
<text text-anchor="start" x="446.06" y="-793.2" font-family="Arial" font-size="14.00" fill="#666666">[timestamp]</text>
</g>
<!-- comment_stars&#45;&gt;comments -->
<g id="edge3" class="edge">
<title>comment_stars:comment_post_id&#45;&gt;comments:post_id</title>
<path fill="none" stroke="black" d="M373.47,-888C320.58,-878.94 356.11,-794.51 384.56,-737.8 401.54,-703.95 435.53,-720.24 452.53,-686.4 478.07,-635.56 510.42,-558.4 453.53,-558.4"/>
<polygon fill="black" stroke="black" points="373.26,-887.99 382.87,-893.26 378.57,-888.41 382.89,-888.75 382.89,-888.75 382.89,-888.75 378.57,-888.41 383.58,-884.29 373.26,-887.99"/>
<text text-anchor="start" x="390.56" y="-898.8" font-family="Arial" font-size="10.00">FOREIGN KEY (comment_post_id, comment_user_id) REFERENCES comments (post_id, user_id)</text>
</g>
</g>
</svg>
