<?xml version="1.0" encoding="UTF-8" standalone="no"?>
<!DOCTYPE svg PUBLIC "-//W3C//DTD SVG 1.1//EN"
 "http://www.w3.org/Graphics/SVG/1.1/DTD/svg11.dtd">
<!-- Generated by graphviz version 12.1.2 (20240928.0832)
 -->
<!-- Title: comments Pages: 1 -->
<svg width="866pt" height="1068pt"
 viewBox="0.00 0.00 866.47 1068.00" xmlns="http://www.w3.org/2000/svg" xmlns:xlink="http://www.w3.org/1999/xlink">
<g id="graph0" class="graph" transform="scale(1 1) rotate(0) translate(4 1064)">
<title>comments</title>
<polygon fill="white" stroke="none" points="-4,4 -4,-1064 862.47,-1064 862.47,4 -4,4"/>
<!-- comments -->
<g id="node1" class="node">
<title>comments</title>
<polygon fill="#efefef" stroke="none" points="252.15,-604.6 252.15,-640.2 464.63,-640.2 464.63,-604.6 252.15,-604.6"/>
<polygon fill="none" stroke="black" points="252.15,-604.6 252.15,-640.2 464.63,-640.2 464.63,-604.6 252.15,-604.6"/>
<text text-anchor="start" x="259.15" y="-618" font-family="Arial Bold" font-size="18.00">comments</text>
<text text-anchor="start" x="333.14" y="-618" font-family="Arial" font-size="14.00">    </text>
<text text-anchor="start" x="364.26" y="-618" font-family="Arial" font-size="14.00" fill="#666666">[BASE TABLE]</text>
<polygon fill="none" stroke="black" points="252.15,-573.8 252.15,-604.6 464.63,-604.6 464.63,-573.8 252.15,-573.8"/>
<text text-anchor="start" x="259.15" y="-586" font-family="Arial" font-size="14.00">id </text>
<text text-anchor="start" x="273.94" y="-586" font-family="Arial" font-size="14.00" fill="#666666">[bigint(20)]</text>
<polygon fill="none" stroke="black" points="252.15,-543 252.15,-573.8 464.63,-573.8 464.63,-543 252.15,-543"/>
<text text-anchor="start" x="259.15" y="-555.2" font-family="Arial" font-size="14.00">post_id </text>
<text text-anchor="start" x="308.19" y="-555.2" font-family="Arial" font-size="14.00" fill="#666666">[bigint(20)]</text>
<polygon fill="none" stroke="black" points="252.15,-512.2 252.15,-543 464.63,-543 464.63,-512.2 252.15,-512.2"/>
<text text-anchor="start" x="259.15" y="-524.4" font-family="Arial" font-size="14.00">user_id </text>
<text text-anchor="start" x="308.96" y="-524.4" font-family="Arial" font-size="14.00" fill="#666666">[int(11)]</text>
<polygon fill="none" stroke="black" points="252.15,-481.4 252.15,-512.2 464.63,-512.2 464.63,-481.4 252.15,-481.4"/>
<text text-anchor="start" x="259.15" y="-493.6" font-family="Arial" font-size="14.00">comment </text>
<text text-anchor="start" x="320.61" y="-493.6" font-family="Arial" font-size="14.00" fill="#666666">[text]</text>
<polygon fill="none" stroke="black" points="252.15,-450.6 252.15,-481.4 464.63,-481.4 464.63,-450.6 252.15,-450.6"/>
<text text-anchor="start" x="259.15" y="-462.8" font-family="Arial" font-size="14.00">created </text>
<text text-anchor="start" x="309.74" y="-462.8" font-family="Arial" font-size="14.00" fill="#666666">[datetime]</text>
<polygon fill="none" stroke="black" points="252.15,-419.8 252.15,-450.6 464.63,-450.6 464.63,-419.8 252.15,-419.8"/>
<text text-anchor="start" x="259.15" y="-432" font-family="Arial" font-size="14.00">updated </text>
<text text-anchor="start" x="313.65" y="-432" font-family="Arial" font-size="14.00" fill="#666666">[datetime]</text>
<polygon fill="none" stroke="black" stroke-width="3" points="250.65,-418.3 250.65,-641.7 466.13,-641.7 466.13,-418.3 250.65,-418.3"/>
</g>
<!-- posts -->
<g id="node3" class="node">
<title>posts</title>
<polygon fill="#efefef" stroke="none" points="43.2,-258.8 43.2,-294.4 331.58,-294.4 331.58,-258.8 43.2,-258.8"/>
<polygon fill="none" stroke="black" points="43.2,-258.8 43.2,-294.4 331.58,-294.4 331.58,-258.8 43.2,-258.8"/>
<text text-anchor="start" x="106.64" y="-272.2" font-family="Arial Bold" font-size="18.00">posts</text>
<text text-anchor="start" x="143.65" y="-272.2" font-family="Arial" font-size="14.00">    </text>
<text text-anchor="start" x="174.77" y="-272.2" font-family="Arial" font-size="14.00" fill="#666666">[BASE TABLE]</text>
<polygon fill="none" stroke="black" points="43.2,-228 43.2,-258.8 331.58,-258.8 331.58,-228 43.2,-228"/>
<text text-anchor="start" x="50.2" y="-240.2" font-family="Arial" font-size="14.00">id    </text>
<text text-anchor="start" x="92.21" y="-240.2" font-family="Arial" font-size="14.00" fill="#666666">[bigint(20)]</text>
<polygon fill="none" stroke="black" points="43.2,-197.2 43.2,-228 331.58,-228 331.58,-197.2 43.2,-197.2"/>
<text text-anchor="start" x="50.2" y="-209.4" font-family="Arial" font-size="14.00">user_id    </text>
<text text-anchor="start" x="127.23" y="-209.4" font-family="Arial" font-size="14.00" fill="#666666">[int(11)]</text>
<polygon fill="none" stroke="black" points="43.2,-166.4 43.2,-197.2 331.58,-197.2 331.58,-166.4 43.2,-166.4"/>
<text text-anchor="start" x="50.2" y="-178.6" font-family="Arial" font-size="14.00">title    </text>
<text text-anchor="start" x="103.1" y="-178.6" font-family="Arial" font-size="14.00" fill="#666666">[varchar(255)]</text>
<polygon fill="none" stroke="black" points="43.2,-135.6 43.2,-166.4 331.58,-166.4 331.58,-135.6 43.2,-135.6"/>
<text text-anchor="start" x="50.2" y="-147.8" font-family="Arial" font-size="14.00">body    </text>
<text text-anchor="start" x="111.68" y="-147.8" font-family="Arial" font-size="14.00" fill="#666666">[text]</text>
<polygon fill="none" stroke="black" points="43.2,-104.8 43.2,-135.6 331.58,-135.6 331.58,-104.8 43.2,-104.8"/>
<text text-anchor="start" x="50.2" y="-117" font-family="Arial" font-size="14.00">post_type    </text>
<text text-anchor="start" x="142.03" y="-117" font-family="Arial" font-size="14.00" fill="#666666">[enum(&#39;public&#39;,&#39;private&#39;,&#39;draft&#39;)]</text>
<polygon fill="none" stroke="black" points="43.2,-74 43.2,-104.8 331.58,-104.8 331.58,-74 43.2,-74"/>
<text text-anchor="start" x="50.2" y="-86.2" font-family="Arial" font-size="14.00">created    </text>
<text text-anchor="start" x="128.01" y="-86.2" font-family="Arial" font-size="14.00" fill="#666666">[datetime]</text>
<polygon fill="none" stroke="black" points="43.2,-43.2 43.2,-74 331.58,-74 331.58,-43.2 43.2,-43.2"/>
<text text-anchor="start" x="50.2" y="-55.4" font-family="Arial" font-size="14.00">updated    </text>
<text text-anchor="start" x="131.92" y="-55.4" font-family="Arial" font-size="14.00" fill="#666666">[datetime]</text>
</g>
<!-- comments&#45;&gt;posts -->
<g id="edge2" class="edge">
<title>comments:post_id&#45;&gt;posts:id</title>
<path fill="none" stroke="black" d="M240.8,-557.71C172.48,-548.08 209.47,-439.42 252.15,-373.6 273.24,-341.08 310.41,-370.06 331.58,-337.6 354.45,-302.53 374.45,-243.4 332.58,-243.4"/>
<polygon fill="black" stroke="black" points="240.84,-557.72 250.52,-562.87 246.16,-558.07 250.49,-558.36 250.49,-558.36 250.49,-558.36 246.16,-558.07 251.12,-553.89 240.84,-557.72"/>
<text text-anchor="start" x="19.1" y="-568.4" font-family="Arial" font-size="10.00">FOREIGN KEY (post_id) REFERENCES posts (id)</text>
</g>
<!-- users -->
<g id="node5" class="node">
<title>users</title>
<polygon fill="#efefef" stroke="none" points="436.03,-243.4 436.03,-279 622.76,-279 622.76,-243.4 436.03,-243.4"/>
<polygon fill="none" stroke="black" points="436.03,-243.4 436.03,-279 622.76,-279 622.76,-243.4 436.03,-243.4"/>
<text text-anchor="start" x="448.65" y="-256.8" font-family="Arial Bold" font-size="18.00">users</text>
<text text-anchor="start" x="485.64" y="-256.8" font-family="Arial" font-size="14.00">    </text>
<text text-anchor="start" x="516.76" y="-256.8" font-family="Arial" font-size="14.00" fill="#666666">[BASE TABLE]</text>
<polygon fill="none" stroke="black" points="436.03,-212.6 436.03,-243.4 622.76,-243.4 622.76,-212.6 436.03,-212.6"/>
<text text-anchor="start" x="443.03" y="-224.8" font-family="Arial" font-size="14.00">id    </text>
<text text-anchor="start" x="485.04" y="-224.8" font-family="Arial" font-size="14.00" fill="#666666">[int(11)]</text>
<polygon fill="none" stroke="black" points="436.03,-181.8 436.03,-212.6 622.76,-212.6 622.76,-181.8 436.03,-181.8"/>
<text text-anchor="start" x="443.03" y="-194" font-family="Arial" font-size="14.00">username    </text>
<text text-anchor="start" x="536.4" y="-194" font-family="Arial" font-size="14.00" fill="#666666">[varchar(50)]</text>
<polygon fill="none" stroke="black" points="436.03,-151 436.03,-181.8 622.76,-181.8 622.76,-151 436.03,-151"/>
<text text-anchor="start" x="443.03" y="-163.2" font-family="Arial" font-size="14.00">password    </text>
<text text-anchor="start" x="534.06" y="-163.2" font-family="Arial" font-size="14.00" fill="#666666">[varchar(50)]</text>
<polygon fill="none" stroke="black" points="436.03,-120.2 436.03,-151 622.76,-151 622.76,-120.2 436.03,-120.2"/>
<text text-anchor="start" x="443.03" y="-132.4" font-family="Arial" font-size="14.00">email    </text>
<text text-anchor="start" x="507.6" y="-132.4" font-family="Arial" font-size="14.00" fill="#666666">[varchar(355)]</text>
<polygon fill="none" stroke="black" points="436.03,-89.4 436.03,-120.2 622.76,-120.2 622.76,-89.4 436.03,-89.4"/>
<text text-anchor="start" x="443.03" y="-101.6" font-family="Arial" font-size="14.00">created    </text>
<text text-anchor="start" x="520.84" y="-101.6" font-family="Arial" font-size="14.00" fill="#666666">[timestamp]</text>
<polygon fill="none" stroke="black" points="436.03,-58.6 436.03,-89.4 622.76,-89.4 622.76,-58.6 436.03,-58.6"/>
<text text-anchor="start" x="443.03" y="-70.8" font-family="Arial" font-size="14.00">updated    </text>
<text text-anchor="start" x="524.75" y="-70.8" font-family="Arial" font-size="14.00" fill="#666666">[timestamp]</text>
</g>
<!-- comments&#45;&gt;users -->
<g id="edge4" class="edge">
<title>comments:user_id&#45;&gt;users:id</title>
<path fill="none" stroke="black" d="M475.8,-526.83C528.49,-518.06 481.08,-436.18 464.63,-373.6 457.98,-348.32 442.73,-347.47 436.03,-322.2 425.29,-281.73 393.16,-228 435.03,-228"/>
<polygon fill="black" stroke="black" points="475.93,-526.82 465.62,-523.09 470.61,-527.22 466.3,-527.55 466.3,-527.55 466.3,-527.55 470.61,-527.22 466.3,-532.06 475.93,-526.82"/>
<text text-anchor="start" x="472.63" y="-537.6" font-family="Arial" font-size="10.00">FOREIGN KEY (user_id) REFERENCES users (id)</text>
</g>
<!-- logs -->
<g id="node2" class="node">
<title>logs</title>
<polygon fill="#efefef" stroke="none" points="81.07,-981.2 81.07,-1016.8 299.71,-1016.8 299.71,-981.2 81.07,-981.2"/>
<polygon fill="none" stroke="black" points="81.07,-981.2 81.07,-1016.8 299.71,-1016.8 299.71,-981.2 81.07,-981.2"/>
<text text-anchor="start" x="113.14" y="-994.6" font-family="Arial Bold" font-size="18.00">logs</text>
<text text-anchor="start" x="143.15" y="-994.6" font-family="Arial" font-size="14.00">    </text>
<text text-anchor="start" x="174.27" y="-994.6" font-family="Arial" font-size="14.00" fill="#666666">[BASE TABLE]</text>
<polygon fill="none" stroke="black" points="81.07,-950.4 81.07,-981.2 299.71,-981.2 299.71,-950.4 81.07,-950.4"/>
<text text-anchor="start" x="88.07" y="-962.6" font-family="Arial" font-size="14.00">id    </text>
<text text-anchor="start" x="130.08" y="-962.6" font-family="Arial" font-size="14.00" fill="#666666">[bigint(20)]</text>
<polygon fill="none" stroke="black" points="81.07,-919.6 81.07,-950.4 299.71,-950.4 299.71,-919.6 81.07,-919.6"/>
<text text-anchor="start" x="88.07" y="-931.8" font-family="Arial" font-size="14.00">user_id    </text>
<text text-anchor="start" x="165.1" y="-931.8" font-family="Arial" font-size="14.00" fill="#666666">[int(11)]</text>
<polygon fill="none" stroke="black" points="81.07,-888.8 81.07,-919.6 299.71,-919.6 299.71,-888.8 81.07,-888.8"/>
<text text-anchor="start" x="88.07" y="-901" font-family="Arial" font-size="14.00">post_id    </text>
<text text-anchor="start" x="164.33" y="-901" font-family="Arial" font-size="14.00" fill="#666666">[bigint(20)]</text>
<polygon fill="none" stroke="black" points="81.07,-858 81.07,-888.8 299.71,-888.8 299.71,-858 81.07,-858"/>
<text text-anchor="start" x="88.07" y="-870.2" font-family="Arial" font-size="14.00">comment_id    </text>
<text text-anchor="start" x="195.44" y="-870.2" font-family="Arial" font-size="14.00" fill="#666666">[bigint(20)]</text>
<polygon fill="none" stroke="black" points="81.07,-827.2 81.07,-858 299.71,-858 299.71,-827.2 81.07,-827.2"/>
<text text-anchor="start" x="88.07" y="-839.4" font-family="Arial" font-size="14.00">comment_star_id    </text>
<text text-anchor="start" x="226.57" y="-839.4" font-family="Arial" font-size="14.00" fill="#666666">[bigint(20)]</text>
<polygon fill="none" stroke="black" points="81.07,-796.4 81.07,-827.2 299.71,-827.2 299.71,-796.4 81.07,-796.4"/>
<text text-anchor="start" x="88.07" y="-808.6" font-family="Arial" font-size="14.00">payload    </text>
<text text-anchor="start" x="168.23" y="-808.6" font-family="Arial" font-size="14.00" fill="#666666">[text]</text>
<polygon fill="none" stroke="black" points="81.07,-765.6 81.07,-796.4 299.71,-796.4 299.71,-765.6 81.07,-765.6"/>
<text text-anchor="start" x="88.07" y="-777.8" font-family="Arial" font-size="14.00">created    </text>
<text text-anchor="start" x="165.88" y="-777.8" font-family="Arial" font-size="14.00" fill="#666666">[datetime]</text>
</g>
<!-- logs&#45;&gt;comments -->
<g id="edge1" class="edge">
<title>logs:comment_id&#45;&gt;comments:id</title>
<path fill="none" stroke="black" stroke-dasharray="5,2" d="M310.8,-872.6C363.69,-863.54 328.14,-779.11 299.71,-722.4 287.83,-698.7 264.08,-710.08 252.15,-686.4 232.72,-647.82 207.95,-589.2 251.15,-589.2"/>
<polygon fill="black" stroke="black" points="311.01,-872.59 300.69,-868.89 305.7,-873.01 301.38,-873.35 301.38,-873.35 301.38,-873.35 305.7,-873.01 301.4,-877.86 311.01,-872.59"/>
<text text-anchor="start" x="307.71" y="-883.4" font-family="Arial" font-size="10.00">Additional Relation</text>
</g>
<!-- comment_stars -->
<g id="node4" class="node">
<title>comment_stars</title>
<polygon fill="#efefef" stroke="none" points="403.66,-965.8 403.66,-1001.4 651.12,-1001.4 651.12,-965.8 403.66,-965.8"/>
<polygon fill="none" stroke="black" points="403.66,-965.8 403.66,-1001.4 651.12,-1001.4 651.12,-965.8 403.66,-965.8"/>
<text text-anchor="start" x="410.66" y="-979.2" font-family="Arial Bold" font-size="18.00">comment_stars</text>
<text text-anchor="start" x="519.63" y="-979.2" font-family="Arial" font-size="14.00">    </text>
<text text-anchor="start" x="550.75" y="-979.2" font-family="Arial" font-size="14.00" fill="#666666">[BASE TABLE]</text>
<polygon fill="none" stroke="black" points="403.66,-935 403.66,-965.8 651.12,-965.8 651.12,-935 403.66,-935"/>
<text text-anchor="start" x="410.66" y="-947.2" font-family="Arial" font-size="14.00">id    </text>
<text text-anchor="start" x="452.67" y="-947.2" font-family="Arial" font-size="14.00" fill="#666666">[bigint(20)]</text>
<polygon fill="none" stroke="black" points="403.66,-904.2 403.66,-935 651.12,-935 651.12,-904.2 403.66,-904.2"/>
<text text-anchor="start" x="410.66" y="-916.4" font-family="Arial" font-size="14.00">user_id    </text>
<text text-anchor="start" x="487.69" y="-916.4" font-family="Arial" font-size="14.00" fill="#666666">[int(11)]</text>
<polygon fill="none" stroke="black" points="403.66,-873.4 403.66,-904.2 651.12,-904.2 651.12,-873.4 403.66,-873.4"/>
<text text-anchor="start" x="410.66" y="-885.6" font-family="Arial" font-size="14.00">comment_post_id    </text>
<text text-anchor="start" x="552.28" y="-885.6" font-family="Arial" font-size="14.00" fill="#666666">[bigint(20)]</text>
<polygon fill="none" stroke="black" points="403.66,-842.6 403.66,-873.4 651.12,-873.4 651.12,-842.6 403.66,-842.6"/>
<text text-anchor="start" x="410.66" y="-854.8" font-family="Arial" font-size="14.00">comment_user_id    </text>
<text text-anchor="start" x="553.05" y="-854.8" font-family="Arial" font-size="14.00" fill="#666666">[int(11)]</text>
<polygon fill="none" stroke="black" points="403.66,-811.8 403.66,-842.6 651.12,-842.6 651.12,-811.8 403.66,-811.8"/>
<text text-anchor="start" x="410.66" y="-824" font-family="Arial" font-size="14.00">created    </text>
<text text-anchor="start" x="488.47" y="-824" font-family="Arial" font-size="14.00" fill="#666666">[timestamp]</text>
<polygon fill="none" stroke="black" points="403.66,-781 403.66,-811.8 651.12,-811.8 651.12,-781 403.66,-781"/>
<text text-anchor="start" x="410.66" y="-793.2" font-family="Arial" font-size="14.00">updated    </text>
<text text-anchor="start" x="492.38" y="-793.2" font-family="Arial" font-size="14.00" fill="#666666">[timestamp]</text>
</g>
<!-- comment_stars&#45;&gt;comments -->
<g id="edge3" class="edge">
<title>comment_stars:comment_post_id&#45;&gt;comments:post_id</title>
<path fill="none" stroke="black" d="M392.26,-887.95C340,-878.67 376.78,-795.12 403.66,-737.8 418.71,-705.71 449.56,-718.48 464.63,-686.4 488.81,-634.91 522.52,-558.4 465.63,-558.4"/>
<polygon fill="black" stroke="black" points="392.36,-887.96 401.96,-893.26 397.67,-888.39 401.99,-888.75 401.99,-888.75 401.99,-888.75 397.67,-888.39 402.69,-884.29 392.36,-887.96"/>
<text text-anchor="start" x="409.66" y="-898.8" font-family="Arial" font-size="10.00">FOREIGN KEY (comment_post_id, comment_user_id) REFERENCES comments (post_id, user_id)</text>
</g>
</g>
</svg>
