<?xml version="1.0" encoding="UTF-8" standalone="no"?>
<!DOCTYPE svg PUBLIC "-//W3C//DTD SVG 1.1//EN"
 "http://www.w3.org/Graphics/SVG/1.1/DTD/svg11.dtd">
<!-- Generated by graphviz version 2.40.1 (20161225.0304)
 -->
<!-- Title: comments Pages: 1 -->
<svg width="855pt" height="1049pt"
 viewBox="0.00 0.00 855.00 1049.00" xmlns="http://www.w3.org/2000/svg" xmlns:xlink="http://www.w3.org/1999/xlink">
<g id="graph0" class="graph" transform="scale(1 1) rotate(0) translate(4 1045)">
<title>comments</title>
<polygon fill="#ffffff" stroke="transparent" points="-4,4 -4,-1045 851,-1045 851,4 -4,4"/>
<!-- comments -->
<g id="node1" class="node">
<title>comments</title>
<polygon fill="#efefef" stroke="transparent" points="239,-592.5 239,-627.5 463,-627.5 463,-592.5 239,-592.5"/>
<polygon fill="none" stroke="#000000" points="239,-592.5 239,-627.5 463,-627.5 463,-592.5 239,-592.5"/>
<text text-anchor="start" x="245.7134" y="-605.3" font-family="Arial Bold" font-size="18.00" fill="#000000">comments</text>
<text text-anchor="start" x="328.7186" y="-605.3" font-family="Arial" font-size="14.00" fill="#000000">    </text>
<text text-anchor="start" x="362.9234" y="-605.3" font-family="Arial" font-size="14.00" fill="#666666">[BASE TABLE]</text>
<polygon fill="none" stroke="#000000" points="239,-562.5 239,-592.5 463,-592.5 463,-562.5 239,-562.5"/>
<text text-anchor="start" x="246" y="-573.9" font-family="Arial" font-size="14.00" fill="#000000">id </text>
<text text-anchor="start" x="260.7798" y="-573.9" font-family="Arial" font-size="14.00" fill="#666666">[bigint(20)]</text>
<polygon fill="none" stroke="#000000" points="239,-532.5 239,-562.5 463,-562.5 463,-532.5 239,-532.5"/>
<text text-anchor="start" x="246" y="-543.9" font-family="Arial" font-size="14.00" fill="#000000">post_id </text>
<text text-anchor="start" x="295.0182" y="-543.9" font-family="Arial" font-size="14.00" fill="#666666">[bigint(20)]</text>
<polygon fill="none" stroke="#000000" points="239,-502.5 239,-532.5 463,-532.5 463,-502.5 239,-502.5"/>
<text text-anchor="start" x="246" y="-513.9" font-family="Arial" font-size="14.00" fill="#000000">user_id </text>
<text text-anchor="start" x="295.7882" y="-513.9" font-family="Arial" font-size="14.00" fill="#666666">[int(11)]</text>
<polygon fill="none" stroke="#000000" points="239,-472.5 239,-502.5 463,-502.5 463,-472.5 239,-472.5"/>
<text text-anchor="start" x="246" y="-483.9" font-family="Arial" font-size="14.00" fill="#000000">comment </text>
<text text-anchor="start" x="307.4502" y="-483.9" font-family="Arial" font-size="14.00" fill="#666666">[text]</text>
<polygon fill="none" stroke="#000000" points="239,-442.5 239,-472.5 463,-472.5 463,-442.5 239,-442.5"/>
<text text-anchor="start" x="246" y="-453.9" font-family="Arial" font-size="14.00" fill="#000000">created </text>
<text text-anchor="start" x="296.5722" y="-453.9" font-family="Arial" font-size="14.00" fill="#666666">[datetime]</text>
<polygon fill="none" stroke="#000000" points="239,-412.5 239,-442.5 463,-442.5 463,-412.5 239,-412.5"/>
<text text-anchor="start" x="246" y="-423.9" font-family="Arial" font-size="14.00" fill="#000000">updated </text>
<text text-anchor="start" x="300.4768" y="-423.9" font-family="Arial" font-size="14.00" fill="#666666">[datetime]</text>
<polygon fill="none" stroke="#000000" stroke-width="3" points="237.5,-411.5 237.5,-629.5 464.5,-629.5 464.5,-411.5 237.5,-411.5"/>
</g>
<!-- posts -->
<g id="node3" class="node">
<title>posts</title>
<polygon fill="#efefef" stroke="transparent" points="62,-252.5 62,-287.5 325,-287.5 325,-252.5 62,-252.5"/>
<polygon fill="none" stroke="#000000" points="62,-252.5 62,-287.5 325,-287.5 325,-252.5 62,-252.5"/>
<text text-anchor="start" x="123.3658" y="-265.3" font-family="Arial Bold" font-size="18.00" fill="#000000">posts</text>
<text text-anchor="start" x="166.3804" y="-265.3" font-family="Arial" font-size="14.00" fill="#000000"> </text>
<text text-anchor="start" x="170.271" y="-265.3" font-family="Arial" font-size="14.00" fill="#666666">[BASE TABLE]</text>
<polygon fill="none" stroke="#000000" points="62,-222.5 62,-252.5 325,-252.5 325,-222.5 62,-222.5"/>
<text text-anchor="start" x="69" y="-233.9" font-family="Arial" font-size="14.00" fill="#000000">id </text>
<text text-anchor="start" x="83.7798" y="-233.9" font-family="Arial" font-size="14.00" fill="#666666">[bigint(20)]</text>
<polygon fill="none" stroke="#000000" points="62,-192.5 62,-222.5 325,-222.5 325,-192.5 62,-192.5"/>
<text text-anchor="start" x="69" y="-203.9" font-family="Arial" font-size="14.00" fill="#000000">user_id </text>
<text text-anchor="start" x="118.7882" y="-203.9" font-family="Arial" font-size="14.00" fill="#666666">[int(11)]</text>
<polygon fill="none" stroke="#000000" points="62,-162.5 62,-192.5 325,-192.5 325,-162.5 62,-162.5"/>
<text text-anchor="start" x="69" y="-173.9" font-family="Arial" font-size="14.00" fill="#000000">title </text>
<text text-anchor="start" x="94.6676" y="-173.9" font-family="Arial" font-size="14.00" fill="#666666">[varchar(255)]</text>
<polygon fill="none" stroke="#000000" points="62,-132.5 62,-162.5 325,-162.5 325,-132.5 62,-132.5"/>
<text text-anchor="start" x="69" y="-143.9" font-family="Arial" font-size="14.00" fill="#000000">body </text>
<text text-anchor="start" x="103.2384" y="-143.9" font-family="Arial" font-size="14.00" fill="#666666">[text]</text>
<polygon fill="none" stroke="#000000" points="62,-102.5 62,-132.5 325,-132.5 325,-102.5 62,-102.5"/>
<text text-anchor="start" x="68.697" y="-113.9" font-family="Arial" font-size="14.00" fill="#000000">post_type </text>
<text text-anchor="start" x="133.2818" y="-113.9" font-family="Arial" font-size="14.00" fill="#666666">[enum(&#39;public&#39;,&#39;private&#39;,&#39;draft&#39;)]</text>
<polygon fill="none" stroke="#000000" points="62,-72.5 62,-102.5 325,-102.5 325,-72.5 62,-72.5"/>
<text text-anchor="start" x="69" y="-83.9" font-family="Arial" font-size="14.00" fill="#000000">created </text>
<text text-anchor="start" x="119.5722" y="-83.9" font-family="Arial" font-size="14.00" fill="#666666">[datetime]</text>
<polygon fill="none" stroke="#000000" points="62,-42.5 62,-72.5 325,-72.5 325,-42.5 62,-42.5"/>
<text text-anchor="start" x="69" y="-53.9" font-family="Arial" font-size="14.00" fill="#000000">updated </text>
<text text-anchor="start" x="123.4768" y="-53.9" font-family="Arial" font-size="14.00" fill="#666666">[datetime]</text>
</g>
<!-- comments&#45;&gt;posts -->
<g id="edge2" class="edge">
<title>comments:post_id&#45;&gt;posts:id</title>
<path fill="none" stroke="#000000" d="M228.8813,-546.8261C162.0097,-537.3782 196.5523,-430.7855 239,-367 261.9561,-332.5043 302.0439,-365.4957 325,-331 348.0223,-296.4047 366.5556,-237.5 325,-237.5"/>
<polygon fill="#000000" stroke="#000000" points="229.0221,-546.8354 238.7009,-551.9901 234.0111,-547.1677 239,-547.5 239,-547.5 239,-547.5 234.0111,-547.1677 239.2991,-543.0099 229.0221,-546.8354 229.0221,-546.8354"/>
<text text-anchor="start" x="7.495" y="-557.5" font-family="Arial" font-size="10.00" fill="#000000">FOREIGN KEY (post_id) REFERENCES posts (id)</text>
</g>
<!-- users -->
<g id="node5" class="node">
<title>users</title>
<polygon fill="#efefef" stroke="transparent" points="429,-237.5 429,-272.5 588,-272.5 588,-237.5 429,-237.5"/>
<polygon fill="none" stroke="#000000" points="429,-237.5 429,-272.5 588,-272.5 588,-237.5 429,-237.5"/>
<text text-anchor="start" x="437.8708" y="-250.3" font-family="Arial Bold" font-size="18.00" fill="#000000">users</text>
<text text-anchor="start" x="481.8754" y="-250.3" font-family="Arial" font-size="14.00" fill="#000000"> </text>
<text text-anchor="start" x="485.766" y="-250.3" font-family="Arial" font-size="14.00" fill="#666666">[BASE TABLE]</text>
<polygon fill="none" stroke="#000000" points="429,-207.5 429,-237.5 588,-237.5 588,-207.5 429,-207.5"/>
<text text-anchor="start" x="436" y="-218.9" font-family="Arial" font-size="14.00" fill="#000000">id </text>
<text text-anchor="start" x="450.7798" y="-218.9" font-family="Arial" font-size="14.00" fill="#666666">[int(11)]</text>
<polygon fill="none" stroke="#000000" points="429,-177.5 429,-207.5 588,-207.5 588,-177.5 429,-177.5"/>
<text text-anchor="start" x="435.7693" y="-188.9" font-family="Arial" font-size="14.00" fill="#000000">username </text>
<text text-anchor="start" x="501.8941" y="-188.9" font-family="Arial" font-size="14.00" fill="#666666">[varchar(50)]</text>
<polygon fill="none" stroke="#000000" points="429,-147.5 429,-177.5 588,-177.5 588,-147.5 429,-147.5"/>
<text text-anchor="start" x="436" y="-158.9" font-family="Arial" font-size="14.00" fill="#000000">password </text>
<text text-anchor="start" x="499.7882" y="-158.9" font-family="Arial" font-size="14.00" fill="#666666">[varchar(50)]</text>
<polygon fill="none" stroke="#000000" points="429,-117.5 429,-147.5 588,-147.5 588,-117.5 429,-117.5"/>
<text text-anchor="start" x="436" y="-128.9" font-family="Arial" font-size="14.00" fill="#000000">email </text>
<text text-anchor="start" x="473.3296" y="-128.9" font-family="Arial" font-size="14.00" fill="#666666">[varchar(355)]</text>
<polygon fill="none" stroke="#000000" points="429,-87.5 429,-117.5 588,-117.5 588,-87.5 429,-87.5"/>
<text text-anchor="start" x="436" y="-98.9" font-family="Arial" font-size="14.00" fill="#000000">created </text>
<text text-anchor="start" x="486.5722" y="-98.9" font-family="Arial" font-size="14.00" fill="#666666">[timestamp]</text>
<polygon fill="none" stroke="#000000" points="429,-57.5 429,-87.5 588,-87.5 588,-57.5 429,-57.5"/>
<text text-anchor="start" x="436" y="-68.9" font-family="Arial" font-size="14.00" fill="#000000">updated </text>
<text text-anchor="start" x="490.4768" y="-68.9" font-family="Arial" font-size="14.00" fill="#666666">[timestamp]</text>
</g>
<!-- comments&#45;&gt;users -->
<g id="edge4" class="edge">
<title>comments:user_id&#45;&gt;users:id</title>
<path fill="none" stroke="#000000" d="M473.2908,-516.6875C524.5976,-507.7754 481.2855,-427.3928 463,-367 455.1057,-340.927 436.8943,-342.073 429,-316 416.9579,-276.2275 387.4444,-222.5 429,-222.5"/>
<polygon fill="#000000" stroke="#000000" points="472.969,-516.7128 462.6458,-513.014 467.9845,-517.1064 463,-517.5 463,-517.5 463,-517.5 467.9845,-517.1064 463.3542,-521.986 472.969,-516.7128 472.969,-516.7128"/>
<text text-anchor="start" x="469.945" y="-527.5" font-family="Arial" font-size="10.00" fill="#000000">FOREIGN KEY (user_id) REFERENCES users (id)</text>
</g>
<!-- logs -->
<g id="node2" class="node">
<title>logs</title>
<polygon fill="#efefef" stroke="transparent" points="97,-962.5 97,-997.5 288,-997.5 288,-962.5 97,-962.5"/>
<polygon fill="none" stroke="#000000" points="97,-962.5 97,-997.5 288,-997.5 288,-962.5 97,-962.5"/>
<text text-anchor="start" x="127.3698" y="-975.3" font-family="Arial Bold" font-size="18.00" fill="#000000">logs</text>
<text text-anchor="start" x="160.3764" y="-975.3" font-family="Arial" font-size="14.00" fill="#000000"> </text>
<text text-anchor="start" x="164.267" y="-975.3" font-family="Arial" font-size="14.00" fill="#666666">[BASE TABLE]</text>
<polygon fill="none" stroke="#000000" points="97,-932.5 97,-962.5 288,-962.5 288,-932.5 97,-932.5"/>
<text text-anchor="start" x="104" y="-943.9" font-family="Arial" font-size="14.00" fill="#000000">id </text>
<text text-anchor="start" x="118.7798" y="-943.9" font-family="Arial" font-size="14.00" fill="#666666">[bigint(20)]</text>
<polygon fill="none" stroke="#000000" points="97,-902.5 97,-932.5 288,-932.5 288,-902.5 97,-902.5"/>
<text text-anchor="start" x="104" y="-913.9" font-family="Arial" font-size="14.00" fill="#000000">user_id </text>
<text text-anchor="start" x="153.7882" y="-913.9" font-family="Arial" font-size="14.00" fill="#666666">[int(11)]</text>
<polygon fill="none" stroke="#000000" points="97,-872.5 97,-902.5 288,-902.5 288,-872.5 97,-872.5"/>
<text text-anchor="start" x="104" y="-883.9" font-family="Arial" font-size="14.00" fill="#000000">post_id </text>
<text text-anchor="start" x="153.0182" y="-883.9" font-family="Arial" font-size="14.00" fill="#666666">[bigint(20)]</text>
<polygon fill="none" stroke="#000000" points="97,-842.5 97,-872.5 288,-872.5 288,-842.5 97,-842.5"/>
<text text-anchor="start" x="104" y="-853.9" font-family="Arial" font-size="14.00" fill="#000000">comment_id </text>
<text text-anchor="start" x="184.122" y="-853.9" font-family="Arial" font-size="14.00" fill="#666666">[bigint(20)]</text>
<polygon fill="none" stroke="#000000" points="97,-812.5 97,-842.5 288,-842.5 288,-812.5 97,-812.5"/>
<text text-anchor="start" x="103.8212" y="-823.9" font-family="Arial" font-size="14.00" fill="#000000">comment_star_id </text>
<text text-anchor="start" x="215.0596" y="-823.9" font-family="Arial" font-size="14.00" fill="#666666">[bigint(20)]</text>
<polygon fill="none" stroke="#000000" points="97,-782.5 97,-812.5 288,-812.5 288,-782.5 97,-782.5"/>
<text text-anchor="start" x="104" y="-793.9" font-family="Arial" font-size="14.00" fill="#000000">payload </text>
<text text-anchor="start" x="156.9102" y="-793.9" font-family="Arial" font-size="14.00" fill="#666666">[text]</text>
<polygon fill="none" stroke="#000000" points="97,-752.5 97,-782.5 288,-782.5 288,-752.5 97,-752.5"/>
<text text-anchor="start" x="104" y="-763.9" font-family="Arial" font-size="14.00" fill="#000000">created </text>
<text text-anchor="start" x="154.5722" y="-763.9" font-family="Arial" font-size="14.00" fill="#666666">[datetime]</text>
</g>
<!-- logs&#45;&gt;comments -->
<g id="edge1" class="edge">
<title>logs:comment_id&#45;&gt;comments:id</title>
<path fill="none" stroke="#000000" stroke-dasharray="5,2" d="M298.182,-856.665C349.5035,-847.5147 315.9294,-765.1764 288,-710 275.7956,-685.8893 251.2044,-698.1107 239,-674 219.6305,-635.7341 196.1111,-577.5 239,-577.5"/>
<polygon fill="#000000" stroke="#000000" points="297.9665,-856.6826 287.6322,-853.0151 292.9833,-857.0913 288,-857.5 288,-857.5 288,-857.5 292.9833,-857.0913 288.3678,-861.9849 297.9665,-856.6826 297.9665,-856.6826"/>
<text text-anchor="start" x="295.3245" y="-867.5" font-family="Arial" font-size="10.00" fill="#000000">Additional Relation</text>
</g>
<!-- comment_stars -->
<g id="node4" class="node">
<title>comment_stars</title>
<polygon fill="#efefef" stroke="transparent" points="392,-947.5 392,-982.5 626,-982.5 626,-947.5 392,-947.5"/>
<polygon fill="none" stroke="#000000" points="392,-947.5 392,-982.5 626,-982.5 626,-947.5 392,-947.5"/>
<text text-anchor="start" x="398.8671" y="-960.3" font-family="Arial Bold" font-size="18.00" fill="#000000">comment_stars</text>
<text text-anchor="start" x="521.8791" y="-960.3" font-family="Arial" font-size="14.00" fill="#000000"> </text>
<text text-anchor="start" x="525.7697" y="-960.3" font-family="Arial" font-size="14.00" fill="#666666">[BASE TABLE]</text>
<polygon fill="none" stroke="#000000" points="392,-917.5 392,-947.5 626,-947.5 626,-917.5 392,-917.5"/>
<text text-anchor="start" x="399" y="-928.9" font-family="Arial" font-size="14.00" fill="#000000">id </text>
<text text-anchor="start" x="413.7798" y="-928.9" font-family="Arial" font-size="14.00" fill="#666666">[bigint(20)]</text>
<polygon fill="none" stroke="#000000" points="392,-887.5 392,-917.5 626,-917.5 626,-887.5 392,-887.5"/>
<text text-anchor="start" x="399" y="-898.9" font-family="Arial" font-size="14.00" fill="#000000">user_id </text>
<text text-anchor="start" x="448.7882" y="-898.9" font-family="Arial" font-size="14.00" fill="#666666">[int(11)]</text>
<polygon fill="none" stroke="#000000" points="392,-857.5 392,-887.5 626,-887.5 626,-857.5 392,-857.5"/>
<text text-anchor="start" x="399" y="-868.9" font-family="Arial" font-size="14.00" fill="#000000">comment_post_id </text>
<text text-anchor="start" x="513.3604" y="-868.9" font-family="Arial" font-size="14.00" fill="#666666">[bigint(20)]</text>
<polygon fill="none" stroke="#000000" points="392,-827.5 392,-857.5 626,-857.5 626,-827.5 392,-827.5"/>
<text text-anchor="start" x="399" y="-838.9" font-family="Arial" font-size="14.00" fill="#000000">comment_user_id </text>
<text text-anchor="start" x="514.1304" y="-838.9" font-family="Arial" font-size="14.00" fill="#666666">[int(11)]</text>
<polygon fill="none" stroke="#000000" points="392,-797.5 392,-827.5 626,-827.5 626,-797.5 392,-797.5"/>
<text text-anchor="start" x="399" y="-808.9" font-family="Arial" font-size="14.00" fill="#000000">created </text>
<text text-anchor="start" x="449.5722" y="-808.9" font-family="Arial" font-size="14.00" fill="#666666">[timestamp]</text>
<polygon fill="none" stroke="#000000" points="392,-767.5 392,-797.5 626,-797.5 626,-767.5 392,-767.5"/>
<text text-anchor="start" x="399" y="-778.9" font-family="Arial" font-size="14.00" fill="#000000">updated </text>
<text text-anchor="start" x="453.4768" y="-778.9" font-family="Arial" font-size="14.00" fill="#666666">[timestamp]</text>
</g>
<!-- comment_stars&#45;&gt;comments -->
<g id="edge3" class="edge">
<title>comment_stars:comment_post_id&#45;&gt;comments:post_id</title>
<path fill="none" stroke="#000000" d="M381.8152,-871.6636C330.463,-862.4976 363.7752,-780.0259 392,-725 409.7323,-690.4298 445.2677,-708.5702 463,-674 488.6598,-623.9749 519.2222,-547.5 463,-547.5"/>
<polygon fill="#000000" stroke="#000000" points="382.0336,-871.6814 391.6316,-876.9849 387.0168,-872.0907 392,-872.5 392,-872.5 392,-872.5 387.0168,-872.0907 392.3684,-868.0151 382.0336,-871.6814 382.0336,-871.6814"/>
<text text-anchor="start" x="399.1435" y="-882.5" font-family="Arial" font-size="10.00" fill="#000000">FOREIGN KEY (comment_post_id, comment_user_id) REFERENCES comments (post_id, user_id)</text>
</g>
</g>
</svg>
