<?xml version="1.0" encoding="UTF-8" standalone="no"?>
<!DOCTYPE svg PUBLIC "-//W3C//DTD SVG 1.1//EN"
 "http://www.w3.org/Graphics/SVG/1.1/DTD/svg11.dtd">
<!-- Generated by graphviz version 2.40.1 (20161225.0304)
 -->
<!-- Title: posts Pages: 1 -->
<svg width="697pt" height="1049pt"
 viewBox="0.00 0.00 696.50 1049.00" xmlns="http://www.w3.org/2000/svg" xmlns:xlink="http://www.w3.org/1999/xlink">
<g id="graph0" class="graph" transform="scale(1 1) rotate(0) translate(4 1045)">
<title>posts</title>
<polygon fill="#ffffff" stroke="transparent" points="-4,4 -4,-1045 692.5,-1045 692.5,4 -4,4"/>
<!-- posts -->
<g id="node1" class="node">
<title>posts</title>
<polygon fill="#efefef" stroke="transparent" points="240,-592.5 240,-627.5 503,-627.5 503,-592.5 240,-592.5"/>
<polygon fill="none" stroke="#000000" points="240,-592.5 240,-627.5 503,-627.5 503,-592.5 240,-592.5"/>
<text text-anchor="start" x="286.2087" y="-605.3" font-family="Arial Bold" font-size="18.00" fill="#000000">posts</text>
<text text-anchor="start" x="329.2233" y="-605.3" font-family="Arial" font-size="14.00" fill="#000000">    </text>
<text text-anchor="start" x="363.4281" y="-605.3" font-family="Arial" font-size="14.00" fill="#666666">[BASE TABLE]</text>
<polygon fill="none" stroke="#000000" points="240,-562.5 240,-592.5 503,-592.5 503,-562.5 240,-562.5"/>
<text text-anchor="start" x="247" y="-573.9" font-family="Arial" font-size="14.00" fill="#000000">id </text>
<text text-anchor="start" x="261.7798" y="-573.9" font-family="Arial" font-size="14.00" fill="#666666">[bigint(20)]</text>
<polygon fill="none" stroke="#000000" points="240,-532.5 240,-562.5 503,-562.5 503,-532.5 240,-532.5"/>
<text text-anchor="start" x="247" y="-543.9" font-family="Arial" font-size="14.00" fill="#000000">user_id </text>
<text text-anchor="start" x="296.7882" y="-543.9" font-family="Arial" font-size="14.00" fill="#666666">[int(11)]</text>
<polygon fill="none" stroke="#000000" points="240,-502.5 240,-532.5 503,-532.5 503,-502.5 240,-502.5"/>
<text text-anchor="start" x="247" y="-513.9" font-family="Arial" font-size="14.00" fill="#000000">title </text>
<text text-anchor="start" x="272.6676" y="-513.9" font-family="Arial" font-size="14.00" fill="#666666">[varchar(255)]</text>
<polygon fill="none" stroke="#000000" points="240,-472.5 240,-502.5 503,-502.5 503,-472.5 240,-472.5"/>
<text text-anchor="start" x="247" y="-483.9" font-family="Arial" font-size="14.00" fill="#000000">body </text>
<text text-anchor="start" x="281.2384" y="-483.9" font-family="Arial" font-size="14.00" fill="#666666">[text]</text>
<polygon fill="none" stroke="#000000" points="240,-442.5 240,-472.5 503,-472.5 503,-442.5 240,-442.5"/>
<text text-anchor="start" x="246.697" y="-453.9" font-family="Arial" font-size="14.00" fill="#000000">post_type </text>
<text text-anchor="start" x="311.2818" y="-453.9" font-family="Arial" font-size="14.00" fill="#666666">[enum(&#39;public&#39;,&#39;private&#39;,&#39;draft&#39;)]</text>
<polygon fill="none" stroke="#000000" points="240,-412.5 240,-442.5 503,-442.5 503,-412.5 240,-412.5"/>
<text text-anchor="start" x="247" y="-423.9" font-family="Arial" font-size="14.00" fill="#000000">created </text>
<text text-anchor="start" x="297.5722" y="-423.9" font-family="Arial" font-size="14.00" fill="#666666">[datetime]</text>
<polygon fill="none" stroke="#000000" points="240,-382.5 240,-412.5 503,-412.5 503,-382.5 240,-382.5"/>
<text text-anchor="start" x="247" y="-393.9" font-family="Arial" font-size="14.00" fill="#000000">updated </text>
<text text-anchor="start" x="301.4768" y="-393.9" font-family="Arial" font-size="14.00" fill="#666666">[datetime]</text>
<polygon fill="none" stroke="#000000" stroke-width="3" points="238,-381.5 238,-629.5 504,-629.5 504,-381.5 238,-381.5"/>
</g>
<!-- users -->
<g id="node4" class="node">
<title>users</title>
<polygon fill="#efefef" stroke="transparent" points="277,-222.5 277,-257.5 466,-257.5 466,-222.5 277,-222.5"/>
<polygon fill="none" stroke="#000000" points="277,-222.5 277,-257.5 466,-257.5 466,-222.5 277,-222.5"/>
<text text-anchor="start" x="285.7137" y="-235.3" font-family="Arial Bold" font-size="18.00" fill="#000000">users</text>
<text text-anchor="start" x="329.7183" y="-235.3" font-family="Arial" font-size="14.00" fill="#000000">    </text>
<text text-anchor="start" x="363.9231" y="-235.3" font-family="Arial" font-size="14.00" fill="#666666">[BASE TABLE]</text>
<polygon fill="none" stroke="#000000" points="277,-192.5 277,-222.5 466,-222.5 466,-192.5 277,-192.5"/>
<text text-anchor="start" x="284" y="-203.9" font-family="Arial" font-size="14.00" fill="#000000">id    </text>
<text text-anchor="start" x="329.094" y="-203.9" font-family="Arial" font-size="14.00" fill="#666666">[int(11)]</text>
<polygon fill="none" stroke="#000000" points="277,-162.5 277,-192.5 466,-192.5 466,-162.5 277,-162.5"/>
<text text-anchor="start" x="283.6122" y="-173.9" font-family="Arial" font-size="14.00" fill="#000000">username    </text>
<text text-anchor="start" x="380.0512" y="-173.9" font-family="Arial" font-size="14.00" fill="#666666">[varchar(50)]</text>
<polygon fill="none" stroke="#000000" points="277,-132.5 277,-162.5 466,-162.5 466,-132.5 277,-132.5"/>
<text text-anchor="start" x="284" y="-143.9" font-family="Arial" font-size="14.00" fill="#000000">password    </text>
<text text-anchor="start" x="378.1024" y="-143.9" font-family="Arial" font-size="14.00" fill="#666666">[varchar(50)]</text>
<polygon fill="none" stroke="#000000" points="277,-102.5 277,-132.5 466,-132.5 466,-102.5 277,-102.5"/>
<text text-anchor="start" x="284" y="-113.9" font-family="Arial" font-size="14.00" fill="#000000">email    </text>
<text text-anchor="start" x="351.6438" y="-113.9" font-family="Arial" font-size="14.00" fill="#666666">[varchar(355)]</text>
<polygon fill="none" stroke="#000000" points="277,-72.5 277,-102.5 466,-102.5 466,-72.5 277,-72.5"/>
<text text-anchor="start" x="284" y="-83.9" font-family="Arial" font-size="14.00" fill="#000000">created    </text>
<text text-anchor="start" x="364.8864" y="-83.9" font-family="Arial" font-size="14.00" fill="#666666">[timestamp]</text>
<polygon fill="none" stroke="#000000" points="277,-42.5 277,-72.5 466,-72.5 466,-42.5 277,-42.5"/>
<text text-anchor="start" x="284" y="-53.9" font-family="Arial" font-size="14.00" fill="#000000">updated    </text>
<text text-anchor="start" x="368.791" y="-53.9" font-family="Arial" font-size="14.00" fill="#666666">[timestamp]</text>
</g>
<!-- posts&#45;&gt;users -->
<g id="edge3" class="edge">
<title>posts:user_id&#45;&gt;users:id</title>
<path fill="none" stroke="#000000" d="M229.6228,-546.9485C89.7943,-531.7493 128.5593,-207.5 277,-207.5"/>
<polygon fill="#000000" stroke="#000000" points="230.0141,-546.9692 239.7611,-551.9937 235.007,-547.2346 240,-547.5 240,-547.5 240,-547.5 235.007,-547.2346 240.2389,-543.0063 230.0141,-546.9692 230.0141,-546.9692"/>
<text text-anchor="start" x="6.945" y="-557.5" font-family="Arial" font-size="10.00" fill="#000000">FOREIGN KEY (user_id) REFERENCES users (id)</text>
</g>
<!-- comments -->
<g id="node2" class="node">
<title>comments</title>
<polygon fill="#efefef" stroke="transparent" points="96,-947.5 96,-982.5 320,-982.5 320,-947.5 96,-947.5"/>
<polygon fill="none" stroke="#000000" points="96,-947.5 96,-982.5 320,-982.5 320,-947.5 96,-947.5"/>
<text text-anchor="start" x="102.7134" y="-960.3" font-family="Arial Bold" font-size="18.00" fill="#000000">comments</text>
<text text-anchor="start" x="185.7186" y="-960.3" font-family="Arial" font-size="14.00" fill="#000000">    </text>
<text text-anchor="start" x="219.9234" y="-960.3" font-family="Arial" font-size="14.00" fill="#666666">[BASE TABLE]</text>
<polygon fill="none" stroke="#000000" points="96,-917.5 96,-947.5 320,-947.5 320,-917.5 96,-917.5"/>
<text text-anchor="start" x="103" y="-928.9" font-family="Arial" font-size="14.00" fill="#000000">id    </text>
<text text-anchor="start" x="148.094" y="-928.9" font-family="Arial" font-size="14.00" fill="#666666">[bigint(20)]</text>
<polygon fill="none" stroke="#000000" points="96,-887.5 96,-917.5 320,-917.5 320,-887.5 96,-887.5"/>
<text text-anchor="start" x="103" y="-898.9" font-family="Arial" font-size="14.00" fill="#000000">post_id    </text>
<text text-anchor="start" x="182.3324" y="-898.9" font-family="Arial" font-size="14.00" fill="#666666">[bigint(20)]</text>
<polygon fill="none" stroke="#000000" points="96,-857.5 96,-887.5 320,-887.5 320,-857.5 96,-857.5"/>
<text text-anchor="start" x="103" y="-868.9" font-family="Arial" font-size="14.00" fill="#000000">user_id    </text>
<text text-anchor="start" x="183.1024" y="-868.9" font-family="Arial" font-size="14.00" fill="#666666">[int(11)]</text>
<polygon fill="none" stroke="#000000" points="96,-827.5 96,-857.5 320,-857.5 320,-827.5 96,-827.5"/>
<text text-anchor="start" x="103" y="-838.9" font-family="Arial" font-size="14.00" fill="#000000">comment    </text>
<text text-anchor="start" x="194.7644" y="-838.9" font-family="Arial" font-size="14.00" fill="#666666">[text]</text>
<polygon fill="none" stroke="#000000" points="96,-797.5 96,-827.5 320,-827.5 320,-797.5 96,-797.5"/>
<text text-anchor="start" x="103" y="-808.9" font-family="Arial" font-size="14.00" fill="#000000">created    </text>
<text text-anchor="start" x="183.8864" y="-808.9" font-family="Arial" font-size="14.00" fill="#666666">[datetime]</text>
<polygon fill="none" stroke="#000000" points="96,-767.5 96,-797.5 320,-797.5 320,-767.5 96,-767.5"/>
<text text-anchor="start" x="103" y="-778.9" font-family="Arial" font-size="14.00" fill="#000000">updated    </text>
<text text-anchor="start" x="187.791" y="-778.9" font-family="Arial" font-size="14.00" fill="#666666">[datetime]</text>
</g>
<!-- comments&#45;&gt;posts -->
<g id="edge1" class="edge">
<title>comments:post_id&#45;&gt;posts:id</title>
<path fill="none" stroke="#000000" d="M330.3164,-901.8011C395.056,-892.4301 356.1559,-790.9275 320,-725 299.7243,-688.0288 260.2757,-710.9712 240,-674 219.3767,-636.395 197.1111,-577.5 240,-577.5"/>
<polygon fill="#000000" stroke="#000000" points="329.9771,-901.824 319.6958,-898.0103 324.9886,-902.162 320,-902.5 320,-902.5 320,-902.5 324.9886,-902.162 320.3042,-906.9897 329.9771,-901.824 329.9771,-901.824"/>
<text text-anchor="start" x="327.495" y="-912.5" font-family="Arial" font-size="10.00" fill="#000000">FOREIGN KEY (post_id) REFERENCES posts (id)</text>
</g>
<!-- logs -->
<g id="node3" class="node">
<title>logs</title>
<polygon fill="#efefef" stroke="transparent" points="425,-962.5 425,-997.5 646,-997.5 646,-962.5 425,-962.5"/>
<polygon fill="none" stroke="#000000" points="425,-962.5 425,-997.5 646,-997.5 646,-962.5 425,-962.5"/>
<text text-anchor="start" x="455.2127" y="-975.3" font-family="Arial Bold" font-size="18.00" fill="#000000">logs</text>
<text text-anchor="start" x="488.2193" y="-975.3" font-family="Arial" font-size="14.00" fill="#000000">    </text>
<text text-anchor="start" x="522.4241" y="-975.3" font-family="Arial" font-size="14.00" fill="#666666">[BASE TABLE]</text>
<polygon fill="none" stroke="#000000" points="425,-932.5 425,-962.5 646,-962.5 646,-932.5 425,-932.5"/>
<text text-anchor="start" x="432" y="-943.9" font-family="Arial" font-size="14.00" fill="#000000">id    </text>
<text text-anchor="start" x="477.094" y="-943.9" font-family="Arial" font-size="14.00" fill="#666666">[bigint(20)]</text>
<polygon fill="none" stroke="#000000" points="425,-902.5 425,-932.5 646,-932.5 646,-902.5 425,-902.5"/>
<text text-anchor="start" x="432" y="-913.9" font-family="Arial" font-size="14.00" fill="#000000">user_id    </text>
<text text-anchor="start" x="512.1024" y="-913.9" font-family="Arial" font-size="14.00" fill="#666666">[int(11)]</text>
<polygon fill="none" stroke="#000000" points="425,-872.5 425,-902.5 646,-902.5 646,-872.5 425,-872.5"/>
<text text-anchor="start" x="432" y="-883.9" font-family="Arial" font-size="14.00" fill="#000000">post_id    </text>
<text text-anchor="start" x="511.3324" y="-883.9" font-family="Arial" font-size="14.00" fill="#666666">[bigint(20)]</text>
<polygon fill="none" stroke="#000000" points="425,-842.5 425,-872.5 646,-872.5 646,-842.5 425,-842.5"/>
<text text-anchor="start" x="432" y="-853.9" font-family="Arial" font-size="14.00" fill="#000000">comment_id    </text>
<text text-anchor="start" x="542.4362" y="-853.9" font-family="Arial" font-size="14.00" fill="#666666">[bigint(20)]</text>
<polygon fill="none" stroke="#000000" points="425,-812.5 425,-842.5 646,-842.5 646,-812.5 425,-812.5"/>
<text text-anchor="start" x="431.6641" y="-823.9" font-family="Arial" font-size="14.00" fill="#000000">comment_star_id    </text>
<text text-anchor="start" x="573.2167" y="-823.9" font-family="Arial" font-size="14.00" fill="#666666">[bigint(20)]</text>
<polygon fill="none" stroke="#000000" points="425,-782.5 425,-812.5 646,-812.5 646,-782.5 425,-782.5"/>
<text text-anchor="start" x="432" y="-793.9" font-family="Arial" font-size="14.00" fill="#000000">payload    </text>
<text text-anchor="start" x="515.2244" y="-793.9" font-family="Arial" font-size="14.00" fill="#666666">[text]</text>
<polygon fill="none" stroke="#000000" points="425,-752.5 425,-782.5 646,-782.5 646,-752.5 425,-752.5"/>
<text text-anchor="start" x="432" y="-763.9" font-family="Arial" font-size="14.00" fill="#000000">created    </text>
<text text-anchor="start" x="512.8864" y="-763.9" font-family="Arial" font-size="14.00" fill="#666666">[datetime]</text>
</g>
<!-- logs&#45;&gt;posts -->
<g id="edge2" class="edge">
<title>logs:post_id&#45;&gt;posts:id</title>
<path fill="none" stroke="#000000" stroke-dasharray="5,2" d="M414.6548,-886.784C349.5344,-877.1871 384.4756,-773.336 425,-710 445.5777,-677.8389 482.4223,-706.1611 503,-674 526.1151,-637.8732 545.8889,-577.5 503,-577.5"/>
<polygon fill="#000000" stroke="#000000" points="415.0239,-886.8095 424.6893,-891.9893 420.0119,-887.1547 425,-887.5 425,-887.5 425,-887.5 420.0119,-887.1547 425.3107,-883.0107 415.0239,-886.8095 415.0239,-886.8095"/>
<text text-anchor="start" x="335.3245" y="-871.5" font-family="Arial" font-size="10.00" fill="#000000">Additional Relation</text>
</g>
</g>
</svg>
