<?xml version="1.0" encoding="UTF-8" standalone="no"?>
<!DOCTYPE svg PUBLIC "-//W3C//DTD SVG 1.1//EN"
 "http://www.w3.org/Graphics/SVG/1.1/DTD/svg11.dtd">
<!-- Generated by graphviz version 12.1.2 (20240928.0832)
 -->
<!-- Title: testdb Pages: 1 -->
<svg width="1280pt" height="1748pt"
 viewBox="0.00 0.00 1279.95 1747.60" xmlns="http://www.w3.org/2000/svg" xmlns:xlink="http://www.w3.org/1999/xlink">
<g id="graph0" class="graph" transform="scale(1 1) rotate(0) translate(4 1743.6)">
<title>testdb</title>
<polygon fill="white" stroke="none" points="-4,4 -4,-1743.6 1275.95,-1743.6 1275.95,4 -4,4"/>
<!-- CamelizeTable -->
<g id="node1" class="node">
<title>CamelizeTable</title>
<polygon fill="#efefef" stroke="none" points="43.2,-1583.8 43.2,-1619.4 290.63,-1619.4 290.63,-1583.8 43.2,-1583.8"/>
<polygon fill="none" stroke="black" points="43.2,-1583.8 43.2,-1619.4 290.63,-1619.4 290.63,-1583.8 43.2,-1583.8"/>
<text text-anchor="start" x="50.2" y="-1597.2" font-family="Arial Bold" font-size="18.00">CamelizeTable</text>
<text text-anchor="start" x="159.14" y="-1597.2" font-family="Arial" font-size="14.00">    </text>
<text text-anchor="start" x="190.26" y="-1597.2" font-family="Arial" font-size="14.00" fill="#666666">[BASE TABLE]</text>
<polygon fill="none" stroke="black" points="43.2,-1553 43.2,-1583.8 290.63,-1583.8 290.63,-1553 43.2,-1553"/>
<text text-anchor="start" x="50.2" y="-1565.2" font-family="Arial" font-size="14.00">id </text>
<text text-anchor="start" x="64.99" y="-1565.2" font-family="Arial" font-size="14.00" fill="#666666">[bigint(20)]</text>
<polygon fill="none" stroke="black" points="43.2,-1522.2 43.2,-1553 290.63,-1553 290.63,-1522.2 43.2,-1522.2"/>
<text text-anchor="start" x="50.2" y="-1534.4" font-family="Arial" font-size="14.00">created </text>
<text text-anchor="start" x="100.79" y="-1534.4" font-family="Arial" font-size="14.00" fill="#666666">[datetime]</text>
</g>
<!-- comment_stars -->
<g id="node2" class="node">
<title>comment_stars</title>
<polygon fill="#efefef" stroke="none" points="581.18,-1287.2 581.18,-1322.8 828.65,-1322.8 828.65,-1287.2 581.18,-1287.2"/>
<polygon fill="none" stroke="black" points="581.18,-1287.2 581.18,-1322.8 828.65,-1322.8 828.65,-1287.2 581.18,-1287.2"/>
<text text-anchor="start" x="588.18" y="-1300.6" font-family="Arial Bold" font-size="18.00">comment_stars</text>
<text text-anchor="start" x="697.16" y="-1300.6" font-family="Arial" font-size="14.00">    </text>
<text text-anchor="start" x="728.28" y="-1300.6" font-family="Arial" font-size="14.00" fill="#666666">[BASE TABLE]</text>
<polygon fill="none" stroke="black" points="581.18,-1256.4 581.18,-1287.2 828.65,-1287.2 828.65,-1256.4 581.18,-1256.4"/>
<text text-anchor="start" x="588.18" y="-1268.6" font-family="Arial" font-size="14.00">id </text>
<text text-anchor="start" x="602.97" y="-1268.6" font-family="Arial" font-size="14.00" fill="#666666">[bigint(20)]</text>
<polygon fill="none" stroke="black" points="581.18,-1225.6 581.18,-1256.4 828.65,-1256.4 828.65,-1225.6 581.18,-1225.6"/>
<text text-anchor="start" x="588.18" y="-1237.8" font-family="Arial" font-size="14.00">user_id </text>
<text text-anchor="start" x="637.99" y="-1237.8" font-family="Arial" font-size="14.00" fill="#666666">[int(11)]</text>
<polygon fill="none" stroke="black" points="581.18,-1194.8 581.18,-1225.6 828.65,-1225.6 828.65,-1194.8 581.18,-1194.8"/>
<text text-anchor="start" x="588.18" y="-1207" font-family="Arial" font-size="14.00">comment_post_id </text>
<text text-anchor="start" x="702.58" y="-1207" font-family="Arial" font-size="14.00" fill="#666666">[bigint(20)]</text>
<polygon fill="none" stroke="black" points="581.18,-1164 581.18,-1194.8 828.65,-1194.8 828.65,-1164 581.18,-1164"/>
<text text-anchor="start" x="588.18" y="-1176.2" font-family="Arial" font-size="14.00">comment_user_id </text>
<text text-anchor="start" x="703.35" y="-1176.2" font-family="Arial" font-size="14.00" fill="#666666">[int(11)]</text>
<polygon fill="none" stroke="black" points="581.18,-1133.2 581.18,-1164 828.65,-1164 828.65,-1133.2 581.18,-1133.2"/>
<text text-anchor="start" x="588.18" y="-1145.4" font-family="Arial" font-size="14.00">created </text>
<text text-anchor="start" x="638.77" y="-1145.4" font-family="Arial" font-size="14.00" fill="#666666">[timestamp]</text>
<polygon fill="none" stroke="black" points="581.18,-1102.4 581.18,-1133.2 828.65,-1133.2 828.65,-1102.4 581.18,-1102.4"/>
<text text-anchor="start" x="588.18" y="-1114.6" font-family="Arial" font-size="14.00">updated </text>
<text text-anchor="start" x="642.68" y="-1114.6" font-family="Arial" font-size="14.00" fill="#666666">[timestamp]</text>
</g>
<!-- comments -->
<g id="node3" class="node">
<title>comments</title>
<polygon fill="#efefef" stroke="none" points="542.68,-944.4 542.68,-980 755.15,-980 755.15,-944.4 542.68,-944.4"/>
<polygon fill="none" stroke="black" points="542.68,-944.4 542.68,-980 755.15,-980 755.15,-944.4 542.68,-944.4"/>
<text text-anchor="start" x="549.68" y="-957.8" font-family="Arial Bold" font-size="18.00">comments</text>
<text text-anchor="start" x="623.66" y="-957.8" font-family="Arial" font-size="14.00">    </text>
<text text-anchor="start" x="654.78" y="-957.8" font-family="Arial" font-size="14.00" fill="#666666">[BASE TABLE]</text>
<polygon fill="none" stroke="black" points="542.68,-913.6 542.68,-944.4 755.15,-944.4 755.15,-913.6 542.68,-913.6"/>
<text text-anchor="start" x="549.68" y="-925.8" font-family="Arial" font-size="14.00">id </text>
<text text-anchor="start" x="564.46" y="-925.8" font-family="Arial" font-size="14.00" fill="#666666">[bigint(20)]</text>
<polygon fill="none" stroke="black" points="542.68,-882.8 542.68,-913.6 755.15,-913.6 755.15,-882.8 542.68,-882.8"/>
<text text-anchor="start" x="549.68" y="-895" font-family="Arial" font-size="14.00">post_id </text>
<text text-anchor="start" x="598.71" y="-895" font-family="Arial" font-size="14.00" fill="#666666">[bigint(20)]</text>
<polygon fill="none" stroke="black" points="542.68,-852 542.68,-882.8 755.15,-882.8 755.15,-852 542.68,-852"/>
<text text-anchor="start" x="549.68" y="-864.2" font-family="Arial" font-size="14.00">user_id </text>
<text text-anchor="start" x="599.48" y="-864.2" font-family="Arial" font-size="14.00" fill="#666666">[int(11)]</text>
<polygon fill="none" stroke="black" points="542.68,-821.2 542.68,-852 755.15,-852 755.15,-821.2 542.68,-821.2"/>
<text text-anchor="start" x="549.68" y="-833.4" font-family="Arial" font-size="14.00">comment </text>
<text text-anchor="start" x="611.14" y="-833.4" font-family="Arial" font-size="14.00" fill="#666666">[text]</text>
<polygon fill="none" stroke="black" points="542.68,-790.4 542.68,-821.2 755.15,-821.2 755.15,-790.4 542.68,-790.4"/>
<text text-anchor="start" x="549.68" y="-802.6" font-family="Arial" font-size="14.00">created </text>
<text text-anchor="start" x="600.26" y="-802.6" font-family="Arial" font-size="14.00" fill="#666666">[datetime]</text>
<polygon fill="none" stroke="black" points="542.68,-759.6 542.68,-790.4 755.15,-790.4 755.15,-759.6 542.68,-759.6"/>
<text text-anchor="start" x="549.68" y="-771.8" font-family="Arial" font-size="14.00">updated </text>
<text text-anchor="start" x="604.17" y="-771.8" font-family="Arial" font-size="14.00" fill="#666666">[datetime]</text>
</g>
<!-- comment_stars&#45;&gt;comments -->
<g id="edge2" class="edge">
<title>comment_stars:comment_post_id&#45;&gt;comments:post_id</title>
<path fill="none" stroke="black" d="M569.99,-1209.33C515.92,-1199.5 540.96,-1108.26 581.18,-1059.2 631.24,-998.14 705.05,-1084.23 755.15,-1023.2 790.4,-980.26 811.71,-898.2 756.15,-898.2"/>
<polygon fill="black" stroke="black" points="569.88,-1209.33 579.47,-1214.66 575.2,-1209.78 579.52,-1210.14 579.52,-1210.14 579.52,-1210.14 575.2,-1209.78 580.23,-1205.69 569.88,-1209.33"/>
<text text-anchor="start" x="131.37" y="-1220.2" font-family="Arial" font-size="10.00">FOREIGN KEY (comment_post_id, comment_user_id) REFERENCES comments (post_id, user_id)</text>
</g>
<!-- users -->
<g id="node9" class="node">
<title>users</title>
<polygon fill="#efefef" stroke="none" points="700.17,-228 700.17,-263.6 875.66,-263.6 875.66,-228 700.17,-228"/>
<polygon fill="none" stroke="black" points="700.17,-228 700.17,-263.6 875.66,-263.6 875.66,-228 700.17,-228"/>
<text text-anchor="start" x="707.17" y="-241.4" font-family="Arial Bold" font-size="18.00">users</text>
<text text-anchor="start" x="744.17" y="-241.4" font-family="Arial" font-size="14.00">    </text>
<text text-anchor="start" x="775.28" y="-241.4" font-family="Arial" font-size="14.00" fill="#666666">[BASE TABLE]</text>
<polygon fill="none" stroke="black" points="700.17,-197.2 700.17,-228 875.66,-228 875.66,-197.2 700.17,-197.2"/>
<text text-anchor="start" x="707.17" y="-209.4" font-family="Arial" font-size="14.00">id </text>
<text text-anchor="start" x="721.96" y="-209.4" font-family="Arial" font-size="14.00" fill="#666666">[int(11)]</text>
<polygon fill="none" stroke="black" points="700.17,-166.4 700.17,-197.2 875.66,-197.2 875.66,-166.4 700.17,-166.4"/>
<text text-anchor="start" x="707.17" y="-178.6" font-family="Arial" font-size="14.00">username </text>
<text text-anchor="start" x="773.32" y="-178.6" font-family="Arial" font-size="14.00" fill="#666666">[varchar(50)]</text>
<polygon fill="none" stroke="black" points="700.17,-135.6 700.17,-166.4 875.66,-166.4 875.66,-135.6 700.17,-135.6"/>
<text text-anchor="start" x="707.17" y="-147.8" font-family="Arial" font-size="14.00">password </text>
<text text-anchor="start" x="770.98" y="-147.8" font-family="Arial" font-size="14.00" fill="#666666">[varchar(50)]</text>
<polygon fill="none" stroke="black" points="700.17,-104.8 700.17,-135.6 875.66,-135.6 875.66,-104.8 700.17,-104.8"/>
<text text-anchor="start" x="707.17" y="-117" font-family="Arial" font-size="14.00">email </text>
<text text-anchor="start" x="744.52" y="-117" font-family="Arial" font-size="14.00" fill="#666666">[varchar(355)]</text>
<polygon fill="none" stroke="black" points="700.17,-74 700.17,-104.8 875.66,-104.8 875.66,-74 700.17,-74"/>
<text text-anchor="start" x="707.17" y="-86.2" font-family="Arial" font-size="14.00">created </text>
<text text-anchor="start" x="757.76" y="-86.2" font-family="Arial" font-size="14.00" fill="#666666">[timestamp]</text>
<polygon fill="none" stroke="black" points="700.17,-43.2 700.17,-74 875.66,-74 875.66,-43.2 700.17,-43.2"/>
<text text-anchor="start" x="707.17" y="-55.4" font-family="Arial" font-size="14.00">updated </text>
<text text-anchor="start" x="761.67" y="-55.4" font-family="Arial" font-size="14.00" fill="#666666">[timestamp]</text>
</g>
<!-- comment_stars&#45;&gt;users -->
<g id="edge1" class="edge">
<title>comment_stars:comment_user_id&#45;&gt;users:id</title>
<path fill="none" stroke="black" d="M833.61,-1169.96C850.93,-1079.15 837.2,-363.15 844.91,-342.8 852.38,-323.13 868.27,-326.5 875.66,-306.8 890.35,-267.6 918.53,-212.6 876.66,-212.6"/>
<polygon fill="black" stroke="black" points="833.65,-1169.87 825.63,-1177.35 831.58,-1174.79 829.91,-1178.78 829.91,-1178.78 829.91,-1178.78 831.58,-1174.79 833.93,-1180.83 833.65,-1169.87"/>
<text text-anchor="start" x="836.65" y="-1189.4" font-family="Arial" font-size="10.00">FOREIGN KEY (comment_user_id) REFERENCES users (id)</text>
</g>
<!-- posts -->
<g id="node7" class="node">
<title>posts</title>
<polygon fill="#efefef" stroke="none" points="455.34,-601.6 455.34,-637.2 716.49,-637.2 716.49,-601.6 455.34,-601.6"/>
<polygon fill="none" stroke="black" points="455.34,-601.6 455.34,-637.2 716.49,-637.2 716.49,-601.6 455.34,-601.6"/>
<text text-anchor="start" x="505.16" y="-615" font-family="Arial Bold" font-size="18.00">posts</text>
<text text-anchor="start" x="542.18" y="-615" font-family="Arial" font-size="14.00">    </text>
<text text-anchor="start" x="573.29" y="-615" font-family="Arial" font-size="14.00" fill="#666666">[BASE TABLE]</text>
<polygon fill="none" stroke="black" points="455.34,-570.8 455.34,-601.6 716.49,-601.6 716.49,-570.8 455.34,-570.8"/>
<text text-anchor="start" x="462.34" y="-583" font-family="Arial" font-size="14.00">id </text>
<text text-anchor="start" x="477.12" y="-583" font-family="Arial" font-size="14.00" fill="#666666">[bigint(20)]</text>
<polygon fill="none" stroke="black" points="455.34,-540 455.34,-570.8 716.49,-570.8 716.49,-540 455.34,-540"/>
<text text-anchor="start" x="462.34" y="-552.2" font-family="Arial" font-size="14.00">user_id </text>
<text text-anchor="start" x="512.14" y="-552.2" font-family="Arial" font-size="14.00" fill="#666666">[int(11)]</text>
<polygon fill="none" stroke="black" points="455.34,-509.2 455.34,-540 716.49,-540 716.49,-509.2 455.34,-509.2"/>
<text text-anchor="start" x="462.34" y="-521.4" font-family="Arial" font-size="14.00">title </text>
<text text-anchor="start" x="488.01" y="-521.4" font-family="Arial" font-size="14.00" fill="#666666">[varchar(255)]</text>
<polygon fill="none" stroke="black" points="455.34,-478.4 455.34,-509.2 716.49,-509.2 716.49,-478.4 455.34,-478.4"/>
<text text-anchor="start" x="462.34" y="-490.6" font-family="Arial" font-size="14.00">body </text>
<text text-anchor="start" x="496.59" y="-490.6" font-family="Arial" font-size="14.00" fill="#666666">[text]</text>
<polygon fill="none" stroke="black" points="455.34,-447.6 455.34,-478.4 716.49,-478.4 716.49,-447.6 455.34,-447.6"/>
<text text-anchor="start" x="462.34" y="-459.8" font-family="Arial" font-size="14.00">post_type </text>
<text text-anchor="start" x="526.94" y="-459.8" font-family="Arial" font-size="14.00" fill="#666666">[enum(&#39;public&#39;,&#39;private&#39;,&#39;draft&#39;)]</text>
<polygon fill="none" stroke="black" points="455.34,-416.8 455.34,-447.6 716.49,-447.6 716.49,-416.8 455.34,-416.8"/>
<text text-anchor="start" x="462.34" y="-429" font-family="Arial" font-size="14.00">created </text>
<text text-anchor="start" x="512.92" y="-429" font-family="Arial" font-size="14.00" fill="#666666">[datetime]</text>
<polygon fill="none" stroke="black" points="455.34,-386 455.34,-416.8 716.49,-416.8 716.49,-386 455.34,-386"/>
<text text-anchor="start" x="462.34" y="-398.2" font-family="Arial" font-size="14.00">updated </text>
<text text-anchor="start" x="516.83" y="-398.2" font-family="Arial" font-size="14.00" fill="#666666">[datetime]</text>
</g>
<!-- comments&#45;&gt;posts -->
<g id="edge3" class="edge">
<title>comments:post_id&#45;&gt;posts:id</title>
<path fill="none" stroke="black" d="M531.45,-897.49C463.67,-887.6 493.79,-776.11 542.68,-716.4 592.65,-655.36 666.36,-741.31 716.49,-680.4 743.1,-648.07 759.36,-586.2 717.49,-586.2"/>
<polygon fill="black" stroke="black" points="531.37,-897.49 541.03,-902.67 536.69,-897.86 541.01,-898.15 541.01,-898.15 541.01,-898.15 536.69,-897.86 541.65,-893.69 531.37,-897.49"/>
<text text-anchor="start" x="309.62" y="-908.2" font-family="Arial" font-size="10.00">FOREIGN KEY (post_id) REFERENCES posts (id)</text>
</g>
<!-- comments&#45;&gt;users -->
<g id="edge4" class="edge">
<title>comments:user_id&#45;&gt;users:id</title>
<path fill="none" stroke="black" d="M766.44,-866.17C865.71,-841.06 749.55,-437.72 811.91,-342.8 829.78,-315.61 859.11,-334.81 875.66,-306.8 896.95,-270.75 918.53,-212.6 876.66,-212.6"/>
<polygon fill="black" stroke="black" points="766.41,-866.18 755.95,-862.89 761.12,-866.81 756.82,-867.32 756.82,-867.32 756.82,-867.32 761.12,-866.81 757.02,-871.83 766.41,-866.18"/>
<text text-anchor="start" x="763.15" y="-877.4" font-family="Arial" font-size="10.00">FOREIGN KEY (user_id) REFERENCES users (id)</text>
</g>
<!-- hyphen&#45;table -->
<g id="node4" class="node">
<title>hyphen&#45;table</title>
<polygon fill="#efefef" stroke="none" points="690.69,-1599.2 690.69,-1634.8 923.14,-1634.8 923.14,-1599.2 690.69,-1599.2"/>
<polygon fill="none" stroke="black" points="690.69,-1599.2 690.69,-1634.8 923.14,-1634.8 923.14,-1599.2 690.69,-1599.2"/>
<text text-anchor="start" x="697.69" y="-1612.6" font-family="Arial Bold" font-size="18.00">hyphen&#45;table</text>
<text text-anchor="start" x="791.65" y="-1612.6" font-family="Arial" font-size="14.00">    </text>
<text text-anchor="start" x="822.77" y="-1612.6" font-family="Arial" font-size="14.00" fill="#666666">[BASE TABLE]</text>
<polygon fill="none" stroke="black" points="690.69,-1568.4 690.69,-1599.2 923.14,-1599.2 923.14,-1568.4 690.69,-1568.4"/>
<text text-anchor="start" x="697.69" y="-1580.6" font-family="Arial" font-size="14.00">id </text>
<text text-anchor="start" x="712.47" y="-1580.6" font-family="Arial" font-size="14.00" fill="#666666">[bigint(20)]</text>
<polygon fill="none" stroke="black" points="690.69,-1537.6 690.69,-1568.4 923.14,-1568.4 923.14,-1537.6 690.69,-1537.6"/>
<text text-anchor="start" x="697.69" y="-1549.8" font-family="Arial" font-size="14.00">hyphen&#45;column </text>
<text text-anchor="start" x="797.3" y="-1549.8" font-family="Arial" font-size="14.00" fill="#666666">[text]</text>
<polygon fill="none" stroke="black" points="690.69,-1506.8 690.69,-1537.6 923.14,-1537.6 923.14,-1506.8 690.69,-1506.8"/>
<text text-anchor="start" x="697.69" y="-1519" font-family="Arial" font-size="14.00">created </text>
<text text-anchor="start" x="748.27" y="-1519" font-family="Arial" font-size="14.00" fill="#666666">[datetime]</text>
</g>
<!-- logs -->
<g id="node5" class="node">
<title>logs</title>
<polygon fill="#efefef" stroke="none" points="395.21,-1660.8 395.21,-1696.4 586.62,-1696.4 586.62,-1660.8 395.21,-1660.8"/>
<polygon fill="none" stroke="black" points="395.21,-1660.8 395.21,-1696.4 586.62,-1696.4 586.62,-1660.8 395.21,-1660.8"/>
<text text-anchor="start" x="413.67" y="-1674.2" font-family="Arial Bold" font-size="18.00">logs</text>
<text text-anchor="start" x="443.67" y="-1674.2" font-family="Arial" font-size="14.00">    </text>
<text text-anchor="start" x="474.79" y="-1674.2" font-family="Arial" font-size="14.00" fill="#666666">[BASE TABLE]</text>
<polygon fill="none" stroke="black" points="395.21,-1630 395.21,-1660.8 586.62,-1660.8 586.62,-1630 395.21,-1630"/>
<text text-anchor="start" x="402.21" y="-1642.2" font-family="Arial" font-size="14.00">id </text>
<text text-anchor="start" x="416.99" y="-1642.2" font-family="Arial" font-size="14.00" fill="#666666">[bigint(20)]</text>
<polygon fill="none" stroke="black" points="395.21,-1599.2 395.21,-1630 586.62,-1630 586.62,-1599.2 395.21,-1599.2"/>
<text text-anchor="start" x="402.21" y="-1611.4" font-family="Arial" font-size="14.00">user_id </text>
<text text-anchor="start" x="452.01" y="-1611.4" font-family="Arial" font-size="14.00" fill="#666666">[int(11)]</text>
<polygon fill="none" stroke="black" points="395.21,-1568.4 395.21,-1599.2 586.62,-1599.2 586.62,-1568.4 395.21,-1568.4"/>
<text text-anchor="start" x="402.21" y="-1580.6" font-family="Arial" font-size="14.00">post_id </text>
<text text-anchor="start" x="451.24" y="-1580.6" font-family="Arial" font-size="14.00" fill="#666666">[bigint(20)]</text>
<polygon fill="none" stroke="black" points="395.21,-1537.6 395.21,-1568.4 586.62,-1568.4 586.62,-1537.6 395.21,-1537.6"/>
<text text-anchor="start" x="402.21" y="-1549.8" font-family="Arial" font-size="14.00">comment_id </text>
<text text-anchor="start" x="482.35" y="-1549.8" font-family="Arial" font-size="14.00" fill="#666666">[bigint(20)]</text>
<polygon fill="none" stroke="black" points="395.21,-1506.8 395.21,-1537.6 586.62,-1537.6 586.62,-1506.8 395.21,-1506.8"/>
<text text-anchor="start" x="402.21" y="-1519" font-family="Arial" font-size="14.00">comment_star_id </text>
<text text-anchor="start" x="513.48" y="-1519" font-family="Arial" font-size="14.00" fill="#666666">[bigint(20)]</text>
<polygon fill="none" stroke="black" points="395.21,-1476 395.21,-1506.8 586.62,-1506.8 586.62,-1476 395.21,-1476"/>
<text text-anchor="start" x="402.21" y="-1488.2" font-family="Arial" font-size="14.00">payload </text>
<text text-anchor="start" x="455.14" y="-1488.2" font-family="Arial" font-size="14.00" fill="#666666">[text]</text>
<polygon fill="none" stroke="black" points="395.21,-1445.2 395.21,-1476 586.62,-1476 586.62,-1445.2 395.21,-1445.2"/>
<text text-anchor="start" x="402.21" y="-1457.4" font-family="Arial" font-size="14.00">created </text>
<text text-anchor="start" x="452.79" y="-1457.4" font-family="Arial" font-size="14.00" fill="#666666">[datetime]</text>
</g>
<!-- logs&#45;&gt;comment_stars -->
<g id="edge10" class="edge">
<title>logs:comment_star_id&#45;&gt;comment_stars:id</title>
<path fill="none" stroke="black" stroke-dasharray="5,2" d="M597.8,-1521.44C649.6,-1512.74 586.45,-1431.47 581.18,-1366 577.82,-1324.27 538.31,-1271.8 580.18,-1271.8"/>
<polygon fill="black" stroke="black" points="597.93,-1521.43 587.62,-1517.69 592.61,-1521.83 588.29,-1522.15 588.29,-1522.15 588.29,-1522.15 592.61,-1521.83 588.29,-1526.66 597.93,-1521.43"/>
<text text-anchor="start" x="594.62" y="-1532.2" font-family="Arial" font-size="10.00">Additional Relation</text>
</g>
<!-- logs&#45;&gt;comments -->
<g id="edge9" class="edge">
<title>logs:comment_id&#45;&gt;comments:id</title>
<path fill="none" stroke="black" stroke-dasharray="5,2" d="M597.73,-1552.19C650.87,-1542.99 617.58,-1457.37 586.62,-1402 571.87,-1375.62 543.58,-1392.43 528.91,-1366 462.76,-1246.77 522.26,-1195.39 528.91,-1059.2 531.75,-1001.13 483.53,-929 541.68,-929"/>
<polygon fill="black" stroke="black" points="597.92,-1552.18 587.6,-1548.49 592.61,-1552.6 588.29,-1552.95 588.29,-1552.95 588.29,-1552.95 592.61,-1552.6 588.31,-1557.46 597.92,-1552.18"/>
<text text-anchor="start" x="594.62" y="-1563" font-family="Arial" font-size="10.00">Additional Relation</text>
</g>
<!-- logs&#45;&gt;posts -->
<g id="edge8" class="edge">
<title>logs:post_id&#45;&gt;posts:id</title>
<path fill="none" stroke="black" stroke-dasharray="5,2" d="M384.2,-1583.31C304.21,-1574.84 391.06,-1458.97 397.91,-1366 401.11,-1322.68 410.9,-586.2 454.34,-586.2"/>
<polygon fill="black" stroke="black" points="383.89,-1583.29 393.65,-1588.28 389.21,-1583.55 393.54,-1583.77 393.54,-1583.77 393.54,-1583.77 389.21,-1583.55 394.1,-1579.29 383.89,-1583.29"/>
<text text-anchor="start" x="303.82" y="-1593.8" font-family="Arial" font-size="10.00">Additional Relation</text>
</g>
<!-- logs&#45;&gt;users -->
<g id="edge7" class="edge">
<title>logs:user_id&#45;&gt;users:id</title>
<path fill="none" stroke="black" stroke-dasharray="5,2" d="M387.56,-1606.59C343.41,-1512.11 227.53,-609.33 402.91,-342.8 481.97,-222.65 555.35,-212.6 699.17,-212.6"/>
<polygon fill="black" stroke="black" points="387.61,-1606.64 390.53,-1617.21 391.02,-1610.75 393.78,-1614.09 393.78,-1614.09 393.78,-1614.09 391.02,-1610.75 397.46,-1611.47 387.61,-1606.64"/>
<text text-anchor="start" x="401.21" y="-1624.6" font-family="Arial" font-size="10.00">logs&#45;&gt;users</text>
</g>
<!-- post_comments -->
<g id="node6" class="node">
<title>post_comments</title>
<polygon fill="#efefef" stroke="none" points="1027.08,-1660.8 1027.08,-1696.4 1228.75,-1696.4 1228.75,-1660.8 1027.08,-1660.8"/>
<polygon fill="none" stroke="black" points="1027.08,-1660.8 1027.08,-1696.4 1228.75,-1696.4 1228.75,-1660.8 1027.08,-1660.8"/>
<text text-anchor="start" x="1034.08" y="-1674.2" font-family="Arial Bold" font-size="18.00">post_comments</text>
<text text-anchor="start" x="1147.07" y="-1674.2" font-family="Arial" font-size="14.00">    </text>
<text text-anchor="start" x="1178.19" y="-1674.2" font-family="Arial" font-size="14.00" fill="#666666">[VIEW]</text>
<polygon fill="none" stroke="black" points="1027.08,-1630 1027.08,-1660.8 1228.75,-1660.8 1228.75,-1630 1027.08,-1630"/>
<text text-anchor="start" x="1034.08" y="-1642.2" font-family="Arial" font-size="14.00">id </text>
<text text-anchor="start" x="1048.87" y="-1642.2" font-family="Arial" font-size="14.00" fill="#666666">[bigint(20)]</text>
<polygon fill="none" stroke="black" points="1027.08,-1599.2 1027.08,-1630 1228.75,-1630 1228.75,-1599.2 1027.08,-1599.2"/>
<text text-anchor="start" x="1034.08" y="-1611.4" font-family="Arial" font-size="14.00">title </text>
<text text-anchor="start" x="1059.76" y="-1611.4" font-family="Arial" font-size="14.00" fill="#666666">[varchar(255)]</text>
<polygon fill="none" stroke="black" points="1027.08,-1568.4 1027.08,-1599.2 1228.75,-1599.2 1228.75,-1568.4 1027.08,-1568.4"/>
<text text-anchor="start" x="1034.08" y="-1580.6" font-family="Arial" font-size="14.00">post_user </text>
<text text-anchor="start" x="1099.45" y="-1580.6" font-family="Arial" font-size="14.00" fill="#666666">[varchar(50)]</text>
<polygon fill="none" stroke="black" points="1027.08,-1537.6 1027.08,-1568.4 1228.75,-1568.4 1228.75,-1537.6 1027.08,-1537.6"/>
<text text-anchor="start" x="1034.08" y="-1549.8" font-family="Arial" font-size="14.00">comment </text>
<text text-anchor="start" x="1095.54" y="-1549.8" font-family="Arial" font-size="14.00" fill="#666666">[text]</text>
<polygon fill="none" stroke="black" points="1027.08,-1506.8 1027.08,-1537.6 1228.75,-1537.6 1228.75,-1506.8 1027.08,-1506.8"/>
<text text-anchor="start" x="1034.08" y="-1519" font-family="Arial" font-size="14.00">comment_user </text>
<text text-anchor="start" x="1130.56" y="-1519" font-family="Arial" font-size="14.00" fill="#666666">[varchar(50)]</text>
<polygon fill="none" stroke="black" points="1027.08,-1476 1027.08,-1506.8 1228.75,-1506.8 1228.75,-1476 1027.08,-1476"/>
<text text-anchor="start" x="1034.08" y="-1488.2" font-family="Arial" font-size="14.00">created </text>
<text text-anchor="start" x="1084.67" y="-1488.2" font-family="Arial" font-size="14.00" fill="#666666">[datetime]</text>
<polygon fill="none" stroke="black" points="1027.08,-1445.2 1027.08,-1476 1228.75,-1476 1228.75,-1445.2 1027.08,-1445.2"/>
<text text-anchor="start" x="1034.08" y="-1457.4" font-family="Arial" font-size="14.00">updated </text>
<text text-anchor="start" x="1088.58" y="-1457.4" font-family="Arial" font-size="14.00" fill="#666666">[datetime]</text>
</g>
<!-- posts&#45;&gt;users -->
<g id="edge5" class="edge">
<title>posts:user_id&#45;&gt;users:id</title>
<path fill="none" stroke="black" d="M727.8,-554.86C806.18,-546.05 735.88,-431.51 716.49,-342.8 712.74,-325.64 703.97,-323.95 700.17,-306.8 691.11,-265.92 657.3,-212.6 699.17,-212.6"/>
<polygon fill="black" stroke="black" points="727.81,-554.86 717.59,-550.89 722.48,-555.14 718.16,-555.36 718.16,-555.36 718.16,-555.36 722.48,-555.14 718.06,-559.88 727.81,-554.86"/>
<text text-anchor="start" x="724.49" y="-565.4" font-family="Arial" font-size="10.00">FOREIGN KEY (user_id) REFERENCES users (id)</text>
</g>
<!-- user_options -->
<g id="node8" class="node">
<title>user_options</title>
<polygon fill="#efefef" stroke="none" points="896.67,-555.4 896.67,-591 1127.16,-591 1127.16,-555.4 896.67,-555.4"/>
<polygon fill="none" stroke="black" points="896.67,-555.4 896.67,-591 1127.16,-591 1127.16,-555.4 896.67,-555.4"/>
<text text-anchor="start" x="903.67" y="-568.8" font-family="Arial Bold" font-size="18.00">user_options</text>
<text text-anchor="start" x="995.67" y="-568.8" font-family="Arial" font-size="14.00">    </text>
<text text-anchor="start" x="1026.78" y="-568.8" font-family="Arial" font-size="14.00" fill="#666666">[BASE TABLE]</text>
<polygon fill="none" stroke="black" points="896.67,-524.6 896.67,-555.4 1127.16,-555.4 1127.16,-524.6 896.67,-524.6"/>
<text text-anchor="start" x="903.67" y="-536.8" font-family="Arial" font-size="14.00">user_id </text>
<text text-anchor="start" x="953.48" y="-536.8" font-family="Arial" font-size="14.00" fill="#666666">[int(11)]</text>
<polygon fill="none" stroke="black" points="896.67,-493.8 896.67,-524.6 1127.16,-524.6 1127.16,-493.8 896.67,-493.8"/>
<text text-anchor="start" x="903.67" y="-506" font-family="Arial" font-size="14.00">show_email </text>
<text text-anchor="start" x="981.49" y="-506" font-family="Arial" font-size="14.00" fill="#666666">[tinyint(1)]</text>
<polygon fill="none" stroke="black" points="896.67,-463 896.67,-493.8 1127.16,-493.8 1127.16,-463 896.67,-463"/>
<text text-anchor="start" x="903.67" y="-475.2" font-family="Arial" font-size="14.00">created </text>
<text text-anchor="start" x="954.26" y="-475.2" font-family="Arial" font-size="14.00" fill="#666666">[timestamp]</text>
<polygon fill="none" stroke="black" points="896.67,-432.2 896.67,-463 1127.16,-463 1127.16,-432.2 896.67,-432.2"/>
<text text-anchor="start" x="903.67" y="-444.4" font-family="Arial" font-size="14.00">updated </text>
<text text-anchor="start" x="958.17" y="-444.4" font-family="Arial" font-size="14.00" fill="#666666">[timestamp]</text>
</g>
<!-- user_options&#45;&gt;users -->
<g id="edge6" class="edge">
<title>user_options:user_id&#45;&gt;users:id</title>
<path fill="none" stroke="black" d="M885.37,-539.38C763.48,-523.59 1018.71,-212.6 876.66,-212.6"/>
<polygon fill="black" stroke="black" points="885.36,-539.38 895.07,-544.47 890.68,-539.7 895,-539.96 895,-539.96 895,-539.96 890.68,-539.7 895.61,-535.49 885.36,-539.38"/>
<text text-anchor="start" x="782.59" y="-524" font-family="Arial" font-size="10.00">FOREIGN KEY (user_id) REFERENCES users (id)</text>
</g>
</g>
</svg>
