<?xml version="1.0" encoding="UTF-8" standalone="no"?>
<!DOCTYPE svg PUBLIC "-//W3C//DTD SVG 1.1//EN"
 "http://www.w3.org/Graphics/SVG/1.1/DTD/svg11.dtd">
<!-- Generated by graphviz version 2.40.1 (20161225.0304)
 -->
<!-- Title: testdb Pages: 1 -->
<svg width="1368pt" height="1717pt"
 viewBox="0.00 0.00 1367.50 1717.00" xmlns="http://www.w3.org/2000/svg" xmlns:xlink="http://www.w3.org/1999/xlink">
<g id="graph0" class="graph" transform="scale(1 1) rotate(0) translate(4 1713)">
<title>testdb</title>
<polygon fill="#ffffff" stroke="transparent" points="-4,4 -4,-1713 1363.5,-1713 1363.5,4 -4,4"/>
<!-- CamelizeTable -->
<g id="node1" class="node">
<title>CamelizeTable</title>
<polygon fill="#efefef" stroke="transparent" points="179,-1555.5 179,-1590.5 410,-1590.5 410,-1555.5 179,-1555.5"/>
<polygon fill="none" stroke="#000000" points="179,-1555.5 179,-1590.5 410,-1590.5 410,-1555.5 179,-1555.5"/>
<text text-anchor="start" x="185.8719" y="-1568.3" font-family="Arial Bold" font-size="18.00" fill="#000000">CamelizeTable</text>
<text text-anchor="start" x="305.8743" y="-1568.3" font-family="Arial" font-size="14.00" fill="#000000"> </text>
<text text-anchor="start" x="309.7649" y="-1568.3" font-family="Arial" font-size="14.00" fill="#666666">[BASE TABLE]</text>
<polygon fill="none" stroke="#000000" points="179,-1525.5 179,-1555.5 410,-1555.5 410,-1525.5 179,-1525.5"/>
<text text-anchor="start" x="186" y="-1536.9" font-family="Arial" font-size="14.00" fill="#000000">id </text>
<text text-anchor="start" x="200.7798" y="-1536.9" font-family="Arial" font-size="14.00" fill="#666666">[bigint(20)]</text>
<polygon fill="none" stroke="#000000" points="179,-1495.5 179,-1525.5 410,-1525.5 410,-1495.5 179,-1495.5"/>
<text text-anchor="start" x="186" y="-1506.9" font-family="Arial" font-size="14.00" fill="#000000">created </text>
<text text-anchor="start" x="236.5722" y="-1506.9" font-family="Arial" font-size="14.00" fill="#666666">[datetime]</text>
</g>
<!-- comment_stars -->
<g id="node2" class="node">
<title>comment_stars</title>
<polygon fill="#efefef" stroke="transparent" points="286,-1263.5 286,-1298.5 520,-1298.5 520,-1263.5 286,-1263.5"/>
<polygon fill="none" stroke="#000000" points="286,-1263.5 286,-1298.5 520,-1298.5 520,-1263.5 286,-1263.5"/>
<text text-anchor="start" x="292.8671" y="-1276.3" font-family="Arial Bold" font-size="18.00" fill="#000000">comment_stars</text>
<text text-anchor="start" x="415.8791" y="-1276.3" font-family="Arial" font-size="14.00" fill="#000000"> </text>
<text text-anchor="start" x="419.7697" y="-1276.3" font-family="Arial" font-size="14.00" fill="#666666">[BASE TABLE]</text>
<polygon fill="none" stroke="#000000" points="286,-1233.5 286,-1263.5 520,-1263.5 520,-1233.5 286,-1233.5"/>
<text text-anchor="start" x="293" y="-1244.9" font-family="Arial" font-size="14.00" fill="#000000">id </text>
<text text-anchor="start" x="307.7798" y="-1244.9" font-family="Arial" font-size="14.00" fill="#666666">[bigint(20)]</text>
<polygon fill="none" stroke="#000000" points="286,-1203.5 286,-1233.5 520,-1233.5 520,-1203.5 286,-1203.5"/>
<text text-anchor="start" x="293" y="-1214.9" font-family="Arial" font-size="14.00" fill="#000000">user_id </text>
<text text-anchor="start" x="342.7882" y="-1214.9" font-family="Arial" font-size="14.00" fill="#666666">[int(11)]</text>
<polygon fill="none" stroke="#000000" points="286,-1173.5 286,-1203.5 520,-1203.5 520,-1173.5 286,-1173.5"/>
<text text-anchor="start" x="293" y="-1184.9" font-family="Arial" font-size="14.00" fill="#000000">comment_post_id </text>
<text text-anchor="start" x="407.3604" y="-1184.9" font-family="Arial" font-size="14.00" fill="#666666">[bigint(20)]</text>
<polygon fill="none" stroke="#000000" points="286,-1143.5 286,-1173.5 520,-1173.5 520,-1143.5 286,-1143.5"/>
<text text-anchor="start" x="293" y="-1154.9" font-family="Arial" font-size="14.00" fill="#000000">comment_user_id </text>
<text text-anchor="start" x="408.1304" y="-1154.9" font-family="Arial" font-size="14.00" fill="#666666">[int(11)]</text>
<polygon fill="none" stroke="#000000" points="286,-1113.5 286,-1143.5 520,-1143.5 520,-1113.5 286,-1113.5"/>
<text text-anchor="start" x="293" y="-1124.9" font-family="Arial" font-size="14.00" fill="#000000">created </text>
<text text-anchor="start" x="343.5722" y="-1124.9" font-family="Arial" font-size="14.00" fill="#666666">[timestamp]</text>
<polygon fill="none" stroke="#000000" points="286,-1083.5 286,-1113.5 520,-1113.5 520,-1083.5 286,-1083.5"/>
<text text-anchor="start" x="293" y="-1094.9" font-family="Arial" font-size="14.00" fill="#000000">updated </text>
<text text-anchor="start" x="347.4768" y="-1094.9" font-family="Arial" font-size="14.00" fill="#666666">[timestamp]</text>
</g>
<!-- comments -->
<g id="node3" class="node">
<title>comments</title>
<polygon fill="#efefef" stroke="transparent" points="364,-926.5 364,-961.5 558,-961.5 558,-926.5 364,-926.5"/>
<polygon fill="none" stroke="#000000" points="364,-926.5 364,-961.5 558,-961.5 558,-926.5 364,-926.5"/>
<text text-anchor="start" x="370.8705" y="-939.3" font-family="Arial Bold" font-size="18.00" fill="#000000">comments</text>
<text text-anchor="start" x="453.8757" y="-939.3" font-family="Arial" font-size="14.00" fill="#000000"> </text>
<text text-anchor="start" x="457.7663" y="-939.3" font-family="Arial" font-size="14.00" fill="#666666">[BASE TABLE]</text>
<polygon fill="none" stroke="#000000" points="364,-896.5 364,-926.5 558,-926.5 558,-896.5 364,-896.5"/>
<text text-anchor="start" x="371" y="-907.9" font-family="Arial" font-size="14.00" fill="#000000">id </text>
<text text-anchor="start" x="385.7798" y="-907.9" font-family="Arial" font-size="14.00" fill="#666666">[bigint(20)]</text>
<polygon fill="none" stroke="#000000" points="364,-866.5 364,-896.5 558,-896.5 558,-866.5 364,-866.5"/>
<text text-anchor="start" x="371" y="-877.9" font-family="Arial" font-size="14.00" fill="#000000">post_id </text>
<text text-anchor="start" x="420.0182" y="-877.9" font-family="Arial" font-size="14.00" fill="#666666">[bigint(20)]</text>
<polygon fill="none" stroke="#000000" points="364,-836.5 364,-866.5 558,-866.5 558,-836.5 364,-836.5"/>
<text text-anchor="start" x="371" y="-847.9" font-family="Arial" font-size="14.00" fill="#000000">user_id </text>
<text text-anchor="start" x="420.7882" y="-847.9" font-family="Arial" font-size="14.00" fill="#666666">[int(11)]</text>
<polygon fill="none" stroke="#000000" points="364,-806.5 364,-836.5 558,-836.5 558,-806.5 364,-806.5"/>
<text text-anchor="start" x="371" y="-817.9" font-family="Arial" font-size="14.00" fill="#000000">comment </text>
<text text-anchor="start" x="432.4502" y="-817.9" font-family="Arial" font-size="14.00" fill="#666666">[text]</text>
<polygon fill="none" stroke="#000000" points="364,-776.5 364,-806.5 558,-806.5 558,-776.5 364,-776.5"/>
<text text-anchor="start" x="371" y="-787.9" font-family="Arial" font-size="14.00" fill="#000000">created </text>
<text text-anchor="start" x="421.5722" y="-787.9" font-family="Arial" font-size="14.00" fill="#666666">[datetime]</text>
<polygon fill="none" stroke="#000000" points="364,-746.5 364,-776.5 558,-776.5 558,-746.5 364,-746.5"/>
<text text-anchor="start" x="371" y="-757.9" font-family="Arial" font-size="14.00" fill="#000000">updated </text>
<text text-anchor="start" x="425.4768" y="-757.9" font-family="Arial" font-size="14.00" fill="#666666">[datetime]</text>
</g>
<!-- comment_stars&#45;&gt;comments -->
<g id="edge2" class="edge">
<title>comment_stars:comment_post_id&#45;&gt;comments:post_id</title>
<path fill="none" stroke="#000000" d="M530.2837,-1187.5998C582.701,-1177.7466 558.5001,-1089.3966 520,-1041 475.702,-985.3152 408.298,-1060.6848 364,-1005 329.8288,-962.0451 309.1111,-881.5 364,-881.5"/>
<polygon fill="#000000" stroke="#000000" points="529.9619,-1187.6279 519.6075,-1184.0171 524.981,-1188.0639 520,-1188.5 520,-1188.5 520,-1188.5 524.981,-1188.0639 520.3925,-1192.9829 529.9619,-1187.6279 529.9619,-1187.6279"/>
<text text-anchor="start" x="527.1435" y="-1198.5" font-family="Arial" font-size="10.00" fill="#000000">FOREIGN KEY (comment_post_id, comment_user_id) REFERENCES comments (post_id, user_id)</text>
</g>
<!-- users -->
<g id="node9" class="node">
<title>users</title>
<polygon fill="#efefef" stroke="transparent" points="455,-222.5 455,-257.5 614,-257.5 614,-222.5 455,-222.5"/>
<polygon fill="none" stroke="#000000" points="455,-222.5 455,-257.5 614,-257.5 614,-222.5 455,-222.5"/>
<text text-anchor="start" x="463.8708" y="-235.3" font-family="Arial Bold" font-size="18.00" fill="#000000">users</text>
<text text-anchor="start" x="507.8754" y="-235.3" font-family="Arial" font-size="14.00" fill="#000000"> </text>
<text text-anchor="start" x="511.766" y="-235.3" font-family="Arial" font-size="14.00" fill="#666666">[BASE TABLE]</text>
<polygon fill="none" stroke="#000000" points="455,-192.5 455,-222.5 614,-222.5 614,-192.5 455,-192.5"/>
<text text-anchor="start" x="462" y="-203.9" font-family="Arial" font-size="14.00" fill="#000000">id </text>
<text text-anchor="start" x="476.7798" y="-203.9" font-family="Arial" font-size="14.00" fill="#666666">[int(11)]</text>
<polygon fill="none" stroke="#000000" points="455,-162.5 455,-192.5 614,-192.5 614,-162.5 455,-162.5"/>
<text text-anchor="start" x="461.7693" y="-173.9" font-family="Arial" font-size="14.00" fill="#000000">username </text>
<text text-anchor="start" x="527.8941" y="-173.9" font-family="Arial" font-size="14.00" fill="#666666">[varchar(50)]</text>
<polygon fill="none" stroke="#000000" points="455,-132.5 455,-162.5 614,-162.5 614,-132.5 455,-132.5"/>
<text text-anchor="start" x="462" y="-143.9" font-family="Arial" font-size="14.00" fill="#000000">password </text>
<text text-anchor="start" x="525.7882" y="-143.9" font-family="Arial" font-size="14.00" fill="#666666">[varchar(50)]</text>
<polygon fill="none" stroke="#000000" points="455,-102.5 455,-132.5 614,-132.5 614,-102.5 455,-102.5"/>
<text text-anchor="start" x="462" y="-113.9" font-family="Arial" font-size="14.00" fill="#000000">email </text>
<text text-anchor="start" x="499.3296" y="-113.9" font-family="Arial" font-size="14.00" fill="#666666">[varchar(355)]</text>
<polygon fill="none" stroke="#000000" points="455,-72.5 455,-102.5 614,-102.5 614,-72.5 455,-72.5"/>
<text text-anchor="start" x="462" y="-83.9" font-family="Arial" font-size="14.00" fill="#000000">created </text>
<text text-anchor="start" x="512.5722" y="-83.9" font-family="Arial" font-size="14.00" fill="#666666">[timestamp]</text>
<polygon fill="none" stroke="#000000" points="455,-42.5 455,-72.5 614,-72.5 614,-42.5 455,-42.5"/>
<text text-anchor="start" x="462" y="-53.9" font-family="Arial" font-size="14.00" fill="#000000">updated </text>
<text text-anchor="start" x="516.4768" y="-53.9" font-family="Arial" font-size="14.00" fill="#666666">[timestamp]</text>
</g>
<!-- comment_stars&#45;&gt;users -->
<g id="edge1" class="edge">
<title>comment_stars:comment_user_id&#45;&gt;users:id</title>
<path fill="none" stroke="#000000" d="M276.0167,-1157.4531C241.084,-1148.8805 284.9363,-1089.3347 286,-1041 294.316,-663.109 77.0175,-207.5 455,-207.5"/>
<polygon fill="#000000" stroke="#000000" points="276.0545,-1157.457 285.5306,-1162.9755 281.0273,-1157.9785 286,-1158.5 286,-1158.5 286,-1158.5 281.0273,-1157.9785 286.4694,-1154.0245 276.0545,-1157.457 276.0545,-1157.457"/>
<text text-anchor="start" x="6.6085" y="-1168.5" font-family="Arial" font-size="10.00" fill="#000000">FOREIGN KEY (comment_user_id) REFERENCES users (id)</text>
</g>
<!-- posts -->
<g id="node7" class="node">
<title>posts</title>
<polygon fill="#efefef" stroke="transparent" points="403,-589.5 403,-624.5 666,-624.5 666,-589.5 403,-589.5"/>
<polygon fill="none" stroke="#000000" points="403,-589.5 403,-624.5 666,-624.5 666,-589.5 403,-589.5"/>
<text text-anchor="start" x="464.3658" y="-602.3" font-family="Arial Bold" font-size="18.00" fill="#000000">posts</text>
<text text-anchor="start" x="507.3804" y="-602.3" font-family="Arial" font-size="14.00" fill="#000000"> </text>
<text text-anchor="start" x="511.271" y="-602.3" font-family="Arial" font-size="14.00" fill="#666666">[BASE TABLE]</text>
<polygon fill="none" stroke="#000000" points="403,-559.5 403,-589.5 666,-589.5 666,-559.5 403,-559.5"/>
<text text-anchor="start" x="410" y="-570.9" font-family="Arial" font-size="14.00" fill="#000000">id </text>
<text text-anchor="start" x="424.7798" y="-570.9" font-family="Arial" font-size="14.00" fill="#666666">[bigint(20)]</text>
<polygon fill="none" stroke="#000000" points="403,-529.5 403,-559.5 666,-559.5 666,-529.5 403,-529.5"/>
<text text-anchor="start" x="410" y="-540.9" font-family="Arial" font-size="14.00" fill="#000000">user_id </text>
<text text-anchor="start" x="459.7882" y="-540.9" font-family="Arial" font-size="14.00" fill="#666666">[int(11)]</text>
<polygon fill="none" stroke="#000000" points="403,-499.5 403,-529.5 666,-529.5 666,-499.5 403,-499.5"/>
<text text-anchor="start" x="410" y="-510.9" font-family="Arial" font-size="14.00" fill="#000000">title </text>
<text text-anchor="start" x="435.6676" y="-510.9" font-family="Arial" font-size="14.00" fill="#666666">[varchar(255)]</text>
<polygon fill="none" stroke="#000000" points="403,-469.5 403,-499.5 666,-499.5 666,-469.5 403,-469.5"/>
<text text-anchor="start" x="410" y="-480.9" font-family="Arial" font-size="14.00" fill="#000000">body </text>
<text text-anchor="start" x="444.2384" y="-480.9" font-family="Arial" font-size="14.00" fill="#666666">[text]</text>
<polygon fill="none" stroke="#000000" points="403,-439.5 403,-469.5 666,-469.5 666,-439.5 403,-439.5"/>
<text text-anchor="start" x="409.697" y="-450.9" font-family="Arial" font-size="14.00" fill="#000000">post_type </text>
<text text-anchor="start" x="474.2818" y="-450.9" font-family="Arial" font-size="14.00" fill="#666666">[enum(&#39;public&#39;,&#39;private&#39;,&#39;draft&#39;)]</text>
<polygon fill="none" stroke="#000000" points="403,-409.5 403,-439.5 666,-439.5 666,-409.5 403,-409.5"/>
<text text-anchor="start" x="410" y="-420.9" font-family="Arial" font-size="14.00" fill="#000000">created </text>
<text text-anchor="start" x="460.5722" y="-420.9" font-family="Arial" font-size="14.00" fill="#666666">[datetime]</text>
<polygon fill="none" stroke="#000000" points="403,-379.5 403,-409.5 666,-409.5 666,-379.5 403,-379.5"/>
<text text-anchor="start" x="410" y="-390.9" font-family="Arial" font-size="14.00" fill="#000000">updated </text>
<text text-anchor="start" x="464.4768" y="-390.9" font-family="Arial" font-size="14.00" fill="#666666">[datetime]</text>
</g>
<!-- comments&#45;&gt;posts -->
<g id="edge3" class="edge">
<title>comments:post_id&#45;&gt;posts:id</title>
<path fill="none" stroke="#000000" d="M567.9815,-880.8148C634.1709,-871.2114 604.8645,-762.9966 558,-704 514.0107,-648.6229 446.9893,-723.3771 403,-668 377.1525,-635.4612 361.4444,-574.5 403,-574.5"/>
<polygon fill="#000000" stroke="#000000" points="567.9765,-880.815 557.6918,-877.0106 562.9883,-881.1575 558,-881.5 558,-881.5 558,-881.5 562.9883,-881.1575 558.3082,-885.9894 567.9765,-880.815 567.9765,-880.815"/>
<text text-anchor="start" x="565.495" y="-891.5" font-family="Arial" font-size="10.00" fill="#000000">FOREIGN KEY (post_id) REFERENCES posts (id)</text>
</g>
<!-- comments&#45;&gt;users -->
<g id="edge4" class="edge">
<title>comments:user_id&#45;&gt;users:id</title>
<path fill="none" stroke="#000000" d="M353.881,-850.895C288.4285,-842.3973 352.9735,-746.0617 350,-668 342.0096,-458.2326 245.0804,-207.5 455,-207.5"/>
<polygon fill="#000000" stroke="#000000" points="354.0178,-850.903 363.7314,-855.992 359.0089,-851.2015 364,-851.5 364,-851.5 364,-851.5 359.0089,-851.2015 364.2686,-847.008 354.0178,-850.903 354.0178,-850.903"/>
<text text-anchor="start" x="130.945" y="-861.5" font-family="Arial" font-size="10.00" fill="#000000">FOREIGN KEY (user_id) REFERENCES users (id)</text>
</g>
<!-- hyphen&#45;table -->
<g id="node4" class="node">
<title>hyphen&#45;table</title>
<polygon fill="#efefef" stroke="transparent" points="809,-1570.5 809,-1605.5 1024,-1605.5 1024,-1570.5 809,-1570.5"/>
<polygon fill="none" stroke="#000000" points="809,-1570.5 809,-1605.5 1024,-1605.5 1024,-1570.5 809,-1570.5"/>
<text text-anchor="start" x="815.854" y="-1583.3" font-family="Arial Bold" font-size="18.00" fill="#000000">hyphen&#45;table</text>
<text text-anchor="start" x="919.8922" y="-1583.3" font-family="Arial" font-size="14.00" fill="#000000"> </text>
<text text-anchor="start" x="923.7828" y="-1583.3" font-family="Arial" font-size="14.00" fill="#666666">[BASE TABLE]</text>
<polygon fill="none" stroke="#000000" points="809,-1540.5 809,-1570.5 1024,-1570.5 1024,-1540.5 809,-1540.5"/>
<text text-anchor="start" x="816" y="-1551.9" font-family="Arial" font-size="14.00" fill="#000000">id </text>
<text text-anchor="start" x="830.7798" y="-1551.9" font-family="Arial" font-size="14.00" fill="#666666">[bigint(20)]</text>
<polygon fill="none" stroke="#000000" points="809,-1510.5 809,-1540.5 1024,-1540.5 1024,-1510.5 809,-1510.5"/>
<text text-anchor="start" x="816" y="-1521.9" font-family="Arial" font-size="14.00" fill="#000000">hyphen&#45;column </text>
<text text-anchor="start" x="915.5792" y="-1521.9" font-family="Arial" font-size="14.00" fill="#666666">[text]</text>
<polygon fill="none" stroke="#000000" points="809,-1480.5 809,-1510.5 1024,-1510.5 1024,-1480.5 809,-1480.5"/>
<text text-anchor="start" x="816" y="-1491.9" font-family="Arial" font-size="14.00" fill="#000000">created </text>
<text text-anchor="start" x="866.5722" y="-1491.9" font-family="Arial" font-size="14.00" fill="#666666">[datetime]</text>
</g>
<!-- logs -->
<g id="node5" class="node">
<title>logs</title>
<polygon fill="#efefef" stroke="transparent" points="514,-1630.5 514,-1665.5 705,-1665.5 705,-1630.5 514,-1630.5"/>
<polygon fill="none" stroke="#000000" points="514,-1630.5 514,-1665.5 705,-1665.5 705,-1630.5 514,-1630.5"/>
<text text-anchor="start" x="544.3698" y="-1643.3" font-family="Arial Bold" font-size="18.00" fill="#000000">logs</text>
<text text-anchor="start" x="577.3764" y="-1643.3" font-family="Arial" font-size="14.00" fill="#000000"> </text>
<text text-anchor="start" x="581.267" y="-1643.3" font-family="Arial" font-size="14.00" fill="#666666">[BASE TABLE]</text>
<polygon fill="none" stroke="#000000" points="514,-1600.5 514,-1630.5 705,-1630.5 705,-1600.5 514,-1600.5"/>
<text text-anchor="start" x="521" y="-1611.9" font-family="Arial" font-size="14.00" fill="#000000">id </text>
<text text-anchor="start" x="535.7798" y="-1611.9" font-family="Arial" font-size="14.00" fill="#666666">[bigint(20)]</text>
<polygon fill="none" stroke="#000000" points="514,-1570.5 514,-1600.5 705,-1600.5 705,-1570.5 514,-1570.5"/>
<text text-anchor="start" x="521" y="-1581.9" font-family="Arial" font-size="14.00" fill="#000000">user_id </text>
<text text-anchor="start" x="570.7882" y="-1581.9" font-family="Arial" font-size="14.00" fill="#666666">[int(11)]</text>
<polygon fill="none" stroke="#000000" points="514,-1540.5 514,-1570.5 705,-1570.5 705,-1540.5 514,-1540.5"/>
<text text-anchor="start" x="521" y="-1551.9" font-family="Arial" font-size="14.00" fill="#000000">post_id </text>
<text text-anchor="start" x="570.0182" y="-1551.9" font-family="Arial" font-size="14.00" fill="#666666">[bigint(20)]</text>
<polygon fill="none" stroke="#000000" points="514,-1510.5 514,-1540.5 705,-1540.5 705,-1510.5 514,-1510.5"/>
<text text-anchor="start" x="521" y="-1521.9" font-family="Arial" font-size="14.00" fill="#000000">comment_id </text>
<text text-anchor="start" x="601.122" y="-1521.9" font-family="Arial" font-size="14.00" fill="#666666">[bigint(20)]</text>
<polygon fill="none" stroke="#000000" points="514,-1480.5 514,-1510.5 705,-1510.5 705,-1480.5 514,-1480.5"/>
<text text-anchor="start" x="520.8212" y="-1491.9" font-family="Arial" font-size="14.00" fill="#000000">comment_star_id </text>
<text text-anchor="start" x="632.0596" y="-1491.9" font-family="Arial" font-size="14.00" fill="#666666">[bigint(20)]</text>
<polygon fill="none" stroke="#000000" points="514,-1450.5 514,-1480.5 705,-1480.5 705,-1450.5 514,-1450.5"/>
<text text-anchor="start" x="521" y="-1461.9" font-family="Arial" font-size="14.00" fill="#000000">payload </text>
<text text-anchor="start" x="573.9102" y="-1461.9" font-family="Arial" font-size="14.00" fill="#666666">[text]</text>
<polygon fill="none" stroke="#000000" points="514,-1420.5 514,-1450.5 705,-1450.5 705,-1420.5 514,-1420.5"/>
<text text-anchor="start" x="521" y="-1431.9" font-family="Arial" font-size="14.00" fill="#000000">created </text>
<text text-anchor="start" x="571.5722" y="-1431.9" font-family="Arial" font-size="14.00" fill="#666666">[datetime]</text>
</g>
<!-- logs&#45;&gt;comment_stars -->
<g id="edge10" class="edge">
<title>logs:comment_star_id&#45;&gt;comment_stars:id</title>
<path fill="none" stroke="#000000" stroke-dasharray="5,2" d="M503.9945,-1494.7501C453.0451,-1486.2051 514.6767,-1406.3207 520,-1342 523.4275,-1300.586 561.5556,-1248.5 520,-1248.5"/>
<polygon fill="#000000" stroke="#000000" points="504.028,-1494.7525 513.6636,-1499.9874 509.014,-1495.1262 514,-1495.5 514,-1495.5 514,-1495.5 509.014,-1495.1262 514.3364,-1491.0126 504.028,-1494.7525 504.028,-1494.7525"/>
<text text-anchor="start" x="424.3245" y="-1505.5" font-family="Arial" font-size="10.00" fill="#000000">Additional Relation</text>
</g>
<!-- logs&#45;&gt;comments -->
<g id="edge9" class="edge">
<title>logs:comment_id&#45;&gt;comments:id</title>
<path fill="none" stroke="#000000" stroke-dasharray="5,2" d="M503.7975,-1524.6541C452.2547,-1515.3863 483.9368,-1432.0434 514,-1378 528.7489,-1351.4865 557.2511,-1368.5135 572,-1342 637.0329,-1225.0931 579.1998,-1174.5839 572,-1041 568.8844,-983.193 615.8909,-911.5 558,-911.5"/>
<polygon fill="#000000" stroke="#000000" points="504.0342,-1524.6737 513.6282,-1529.9846 509.0171,-1525.0868 514,-1525.5 514,-1525.5 514,-1525.5 509.0171,-1525.0868 514.3718,-1521.0154 504.0342,-1524.6737 504.0342,-1524.6737"/>
<text text-anchor="start" x="424.3245" y="-1535.5" font-family="Arial" font-size="10.00" fill="#000000">Additional Relation</text>
</g>
<!-- logs&#45;&gt;posts -->
<g id="edge8" class="edge">
<title>logs:post_id&#45;&gt;posts:id</title>
<path fill="none" stroke="#000000" stroke-dasharray="5,2" d="M709.0688,-1546.1053C727.8163,-1445.7117 691.7002,-574.5 666,-574.5"/>
<polygon fill="#000000" stroke="#000000" points="708.9743,-1546.3236 700.8706,-1553.7116 706.9872,-1550.9118 705,-1555.5 705,-1555.5 705,-1555.5 706.9872,-1550.9118 709.1294,-1557.2884 708.9743,-1546.3236 708.9743,-1546.3236"/>
<text text-anchor="start" x="712.3245" y="-1565.5" font-family="Arial" font-size="10.00" fill="#000000">Additional Relation</text>
</g>
<!-- logs&#45;&gt;users -->
<g id="edge7" class="edge">
<title>logs:user_id&#45;&gt;users:id</title>
<path fill="none" stroke="#000000" stroke-dasharray="5,2" d="M715.1192,-1582.8055C754.0775,-1559.5505 721.1394,-1392.4094 723,-1342 731.9166,-1100.4285 728.7153,-370.096 717,-337 692.4601,-267.6744 687.5408,-207.5 614,-207.5"/>
<polygon fill="#000000" stroke="#000000" points="714.6633,-1582.9268 703.8421,-1581.1515 709.8316,-1584.2134 705,-1585.5 705,-1585.5 705,-1585.5 709.8316,-1584.2134 706.1579,-1589.8485 714.6633,-1582.9268 714.6633,-1582.9268"/>
<text text-anchor="start" x="647.024" y="-1595.5" font-family="Arial" font-size="10.00" fill="#000000">logs&#45;&gt;users</text>
</g>
<!-- post_comments -->
<g id="node6" class="node">
<title>post_comments</title>
<polygon fill="#efefef" stroke="transparent" points="1128,-1630.5 1128,-1665.5 1317,-1665.5 1317,-1630.5 1128,-1630.5"/>
<polygon fill="none" stroke="#000000" points="1128,-1630.5 1128,-1665.5 1317,-1665.5 1317,-1630.5 1128,-1630.5"/>
<text text-anchor="start" x="1135.2619" y="-1643.3" font-family="Arial Bold" font-size="18.00" fill="#000000">post_comments</text>
<text text-anchor="start" x="1262.2879" y="-1643.3" font-family="Arial" font-size="14.00" fill="#000000"> </text>
<text text-anchor="start" x="1266.1785" y="-1643.3" font-family="Arial" font-size="14.00" fill="#666666">[VIEW]</text>
<polygon fill="none" stroke="#000000" points="1128,-1600.5 1128,-1630.5 1317,-1630.5 1317,-1600.5 1128,-1600.5"/>
<text text-anchor="start" x="1135" y="-1611.9" font-family="Arial" font-size="14.00" fill="#000000">id </text>
<text text-anchor="start" x="1149.7798" y="-1611.9" font-family="Arial" font-size="14.00" fill="#666666">[bigint(20)]</text>
<polygon fill="none" stroke="#000000" points="1128,-1570.5 1128,-1600.5 1317,-1600.5 1317,-1570.5 1128,-1570.5"/>
<text text-anchor="start" x="1135" y="-1581.9" font-family="Arial" font-size="14.00" fill="#000000">title </text>
<text text-anchor="start" x="1160.6676" y="-1581.9" font-family="Arial" font-size="14.00" fill="#666666">[varchar(255)]</text>
<polygon fill="none" stroke="#000000" points="1128,-1540.5 1128,-1570.5 1317,-1570.5 1317,-1540.5 1128,-1540.5"/>
<text text-anchor="start" x="1135" y="-1551.9" font-family="Arial" font-size="14.00" fill="#000000">post_user </text>
<text text-anchor="start" x="1200.3548" y="-1551.9" font-family="Arial" font-size="14.00" fill="#666666">[varchar(50)]</text>
<polygon fill="none" stroke="#000000" points="1128,-1510.5 1128,-1540.5 1317,-1540.5 1317,-1510.5 1128,-1510.5"/>
<text text-anchor="start" x="1135" y="-1521.9" font-family="Arial" font-size="14.00" fill="#000000">comment </text>
<text text-anchor="start" x="1196.4502" y="-1521.9" font-family="Arial" font-size="14.00" fill="#666666">[text]</text>
<polygon fill="none" stroke="#000000" points="1128,-1480.5 1128,-1510.5 1317,-1510.5 1317,-1480.5 1128,-1480.5"/>
<text text-anchor="start" x="1134.6024" y="-1491.9" font-family="Arial" font-size="14.00" fill="#000000">comment_user </text>
<text text-anchor="start" x="1231.061" y="-1491.9" font-family="Arial" font-size="14.00" fill="#666666">[varchar(50)]</text>
<polygon fill="none" stroke="#000000" points="1128,-1450.5 1128,-1480.5 1317,-1480.5 1317,-1450.5 1128,-1450.5"/>
<text text-anchor="start" x="1135" y="-1461.9" font-family="Arial" font-size="14.00" fill="#000000">created </text>
<text text-anchor="start" x="1185.5722" y="-1461.9" font-family="Arial" font-size="14.00" fill="#666666">[datetime]</text>
<polygon fill="none" stroke="#000000" points="1128,-1420.5 1128,-1450.5 1317,-1450.5 1317,-1420.5 1128,-1420.5"/>
<text text-anchor="start" x="1135" y="-1431.9" font-family="Arial" font-size="14.00" fill="#000000">updated </text>
<text text-anchor="start" x="1189.4768" y="-1431.9" font-family="Arial" font-size="14.00" fill="#666666">[datetime]</text>
</g>
<!-- posts&#45;&gt;users -->
<g id="edge5" class="edge">
<title>posts:user_id&#45;&gt;users:id</title>
<path fill="none" stroke="#000000" d="M393.1757,-542.348C332.1521,-513.6467 382.7768,-207.5 455,-207.5"/>
<polygon fill="#000000" stroke="#000000" points="393.2316,-542.3602 402.0371,-548.8958 398.1158,-543.4301 403,-544.5 403,-544.5 403,-544.5 398.1158,-543.4301 403.9629,-540.1042 393.2316,-542.3602 393.2316,-542.3602"/>
<text text-anchor="start" x="169.945" y="-554.5" font-family="Arial" font-size="10.00" fill="#000000">FOREIGN KEY (user_id) REFERENCES users (id)</text>
</g>
<!-- user_options -->
<g id="node8" class="node">
<title>user_options</title>
<polygon fill="#efefef" stroke="transparent" points="808,-544.5 808,-579.5 1022,-579.5 1022,-544.5 808,-544.5"/>
<polygon fill="none" stroke="#000000" points="808,-544.5 808,-579.5 1022,-579.5 1022,-544.5 808,-544.5"/>
<text text-anchor="start" x="814.8571" y="-557.3" font-family="Arial Bold" font-size="18.00" fill="#000000">user_options</text>
<text text-anchor="start" x="917.8891" y="-557.3" font-family="Arial" font-size="14.00" fill="#000000"> </text>
<text text-anchor="start" x="921.7797" y="-557.3" font-family="Arial" font-size="14.00" fill="#666666">[BASE TABLE]</text>
<polygon fill="none" stroke="#000000" points="808,-514.5 808,-544.5 1022,-544.5 1022,-514.5 808,-514.5"/>
<text text-anchor="start" x="815" y="-525.9" font-family="Arial" font-size="14.00" fill="#000000">user_id </text>
<text text-anchor="start" x="864.7882" y="-525.9" font-family="Arial" font-size="14.00" fill="#666666">[int(11)]</text>
<polygon fill="none" stroke="#000000" points="808,-484.5 808,-514.5 1022,-514.5 1022,-484.5 808,-484.5"/>
<text text-anchor="start" x="815" y="-495.9" font-family="Arial" font-size="14.00" fill="#000000">show_email </text>
<text text-anchor="start" x="892.784" y="-495.9" font-family="Arial" font-size="14.00" fill="#666666">[tinyint(1)]</text>
<polygon fill="none" stroke="#000000" points="808,-454.5 808,-484.5 1022,-484.5 1022,-454.5 808,-454.5"/>
<text text-anchor="start" x="815" y="-465.9" font-family="Arial" font-size="14.00" fill="#000000">created </text>
<text text-anchor="start" x="865.5722" y="-465.9" font-family="Arial" font-size="14.00" fill="#666666">[timestamp]</text>
<polygon fill="none" stroke="#000000" points="808,-424.5 808,-454.5 1022,-454.5 1022,-424.5 808,-424.5"/>
<text text-anchor="start" x="815" y="-435.9" font-family="Arial" font-size="14.00" fill="#000000">updated </text>
<text text-anchor="start" x="869.4768" y="-435.9" font-family="Arial" font-size="14.00" fill="#666666">[timestamp]</text>
</g>
<!-- user_options&#45;&gt;users -->
<g id="edge6" class="edge">
<title>user_options:user_id&#45;&gt;users:id</title>
<path fill="none" stroke="#000000" d="M797.8492,-528.923C725.0351,-520.0143 795.7766,-409.917 751,-337 707.1557,-265.6013 697.786,-207.5 614,-207.5"/>
<polygon fill="#000000" stroke="#000000" points="798.0161,-528.9324 807.7446,-533.9927 803.0081,-529.2162 808,-529.5 808,-529.5 808,-529.5 803.0081,-529.2162 808.2554,-525.0073 798.0161,-528.9324 798.0161,-528.9324"/>
<text text-anchor="start" x="634.945" y="-513.5" font-family="Arial" font-size="10.00" fill="#000000">FOREIGN KEY (user_id) REFERENCES users (id)</text>
</g>
</g>
</svg>
