<?xml version="1.0" encoding="UTF-8" standalone="no"?>
<!DOCTYPE svg PUBLIC "-//W3C//DTD SVG 1.1//EN"
 "http://www.w3.org/Graphics/SVG/1.1/DTD/svg11.dtd">
<!-- Generated by graphviz version 2.40.1 (20161225.0304)
 -->
<!-- Title: testdb Pages: 1 -->
<svg width="1457pt" height="1717pt"
 viewBox="0.00 0.00 1457.00 1717.00" xmlns="http://www.w3.org/2000/svg" xmlns:xlink="http://www.w3.org/1999/xlink">
<g id="graph0" class="graph" transform="scale(1 1) rotate(0) translate(4 1713)">
<title>testdb</title>
<polygon fill="#ffffff" stroke="transparent" points="-4,4 -4,-1713 1453,-1713 1453,4 -4,4"/>
<!-- CamelizeTable -->
<g id="node1" class="node">
<title>CamelizeTable</title>
<polygon fill="#efefef" stroke="transparent" points="179,-1555.5 179,-1590.5 440,-1590.5 440,-1555.5 179,-1555.5"/>
<polygon fill="none" stroke="#000000" points="179,-1555.5 179,-1590.5 440,-1590.5 440,-1555.5 179,-1555.5"/>
<text text-anchor="start" x="185.7148" y="-1568.3" font-family="Arial Bold" font-size="18.00" fill="#000000">CamelizeTable</text>
<text text-anchor="start" x="305.7172" y="-1568.3" font-family="Arial" font-size="14.00" fill="#000000">    </text>
<text text-anchor="start" x="339.922" y="-1568.3" font-family="Arial" font-size="14.00" fill="#666666">[BASE TABLE]</text>
<polygon fill="none" stroke="#000000" points="179,-1525.5 179,-1555.5 440,-1555.5 440,-1525.5 179,-1525.5"/>
<text text-anchor="start" x="186" y="-1536.9" font-family="Arial" font-size="14.00" fill="#000000">id </text>
<text text-anchor="start" x="200.7798" y="-1536.9" font-family="Arial" font-size="14.00" fill="#666666">[bigint(20)]</text>
<polygon fill="none" stroke="#000000" points="179,-1495.5 179,-1525.5 440,-1525.5 440,-1495.5 179,-1495.5"/>
<text text-anchor="start" x="186" y="-1506.9" font-family="Arial" font-size="14.00" fill="#000000">created </text>
<text text-anchor="start" x="236.5722" y="-1506.9" font-family="Arial" font-size="14.00" fill="#666666">[datetime]</text>
</g>
<!-- comment_stars -->
<g id="node2" class="node">
<title>comment_stars</title>
<polygon fill="#efefef" stroke="transparent" points="286,-1263.5 286,-1298.5 550,-1298.5 550,-1263.5 286,-1263.5"/>
<polygon fill="none" stroke="#000000" points="286,-1263.5 286,-1298.5 550,-1298.5 550,-1263.5 286,-1263.5"/>
<text text-anchor="start" x="292.71" y="-1276.3" font-family="Arial Bold" font-size="18.00" fill="#000000">comment_stars</text>
<text text-anchor="start" x="415.722" y="-1276.3" font-family="Arial" font-size="14.00" fill="#000000">    </text>
<text text-anchor="start" x="449.9268" y="-1276.3" font-family="Arial" font-size="14.00" fill="#666666">[BASE TABLE]</text>
<polygon fill="none" stroke="#000000" points="286,-1233.5 286,-1263.5 550,-1263.5 550,-1233.5 286,-1233.5"/>
<text text-anchor="start" x="293" y="-1244.9" font-family="Arial" font-size="14.00" fill="#000000">id </text>
<text text-anchor="start" x="307.7798" y="-1244.9" font-family="Arial" font-size="14.00" fill="#666666">[bigint(20)]</text>
<polygon fill="none" stroke="#000000" points="286,-1203.5 286,-1233.5 550,-1233.5 550,-1203.5 286,-1203.5"/>
<text text-anchor="start" x="293" y="-1214.9" font-family="Arial" font-size="14.00" fill="#000000">user_id </text>
<text text-anchor="start" x="342.7882" y="-1214.9" font-family="Arial" font-size="14.00" fill="#666666">[int(11)]</text>
<polygon fill="none" stroke="#000000" points="286,-1173.5 286,-1203.5 550,-1203.5 550,-1173.5 286,-1173.5"/>
<text text-anchor="start" x="293" y="-1184.9" font-family="Arial" font-size="14.00" fill="#000000">comment_post_id </text>
<text text-anchor="start" x="407.3604" y="-1184.9" font-family="Arial" font-size="14.00" fill="#666666">[bigint(20)]</text>
<polygon fill="none" stroke="#000000" points="286,-1143.5 286,-1173.5 550,-1173.5 550,-1143.5 286,-1143.5"/>
<text text-anchor="start" x="293" y="-1154.9" font-family="Arial" font-size="14.00" fill="#000000">comment_user_id </text>
<text text-anchor="start" x="408.1304" y="-1154.9" font-family="Arial" font-size="14.00" fill="#666666">[int(11)]</text>
<polygon fill="none" stroke="#000000" points="286,-1113.5 286,-1143.5 550,-1143.5 550,-1113.5 286,-1113.5"/>
<text text-anchor="start" x="293" y="-1124.9" font-family="Arial" font-size="14.00" fill="#000000">created </text>
<text text-anchor="start" x="343.5722" y="-1124.9" font-family="Arial" font-size="14.00" fill="#666666">[timestamp]</text>
<polygon fill="none" stroke="#000000" points="286,-1083.5 286,-1113.5 550,-1113.5 550,-1083.5 286,-1083.5"/>
<text text-anchor="start" x="293" y="-1094.9" font-family="Arial" font-size="14.00" fill="#000000">updated </text>
<text text-anchor="start" x="347.4768" y="-1094.9" font-family="Arial" font-size="14.00" fill="#666666">[timestamp]</text>
</g>
<!-- comments -->
<g id="node3" class="node">
<title>comments</title>
<polygon fill="#efefef" stroke="transparent" points="364,-926.5 364,-961.5 588,-961.5 588,-926.5 364,-926.5"/>
<polygon fill="none" stroke="#000000" points="364,-926.5 364,-961.5 588,-961.5 588,-926.5 364,-926.5"/>
<text text-anchor="start" x="370.7134" y="-939.3" font-family="Arial Bold" font-size="18.00" fill="#000000">comments</text>
<text text-anchor="start" x="453.7186" y="-939.3" font-family="Arial" font-size="14.00" fill="#000000">    </text>
<text text-anchor="start" x="487.9234" y="-939.3" font-family="Arial" font-size="14.00" fill="#666666">[BASE TABLE]</text>
<polygon fill="none" stroke="#000000" points="364,-896.5 364,-926.5 588,-926.5 588,-896.5 364,-896.5"/>
<text text-anchor="start" x="371" y="-907.9" font-family="Arial" font-size="14.00" fill="#000000">id </text>
<text text-anchor="start" x="385.7798" y="-907.9" font-family="Arial" font-size="14.00" fill="#666666">[bigint(20)]</text>
<polygon fill="none" stroke="#000000" points="364,-866.5 364,-896.5 588,-896.5 588,-866.5 364,-866.5"/>
<text text-anchor="start" x="371" y="-877.9" font-family="Arial" font-size="14.00" fill="#000000">post_id </text>
<text text-anchor="start" x="420.0182" y="-877.9" font-family="Arial" font-size="14.00" fill="#666666">[bigint(20)]</text>
<polygon fill="none" stroke="#000000" points="364,-836.5 364,-866.5 588,-866.5 588,-836.5 364,-836.5"/>
<text text-anchor="start" x="371" y="-847.9" font-family="Arial" font-size="14.00" fill="#000000">user_id </text>
<text text-anchor="start" x="420.7882" y="-847.9" font-family="Arial" font-size="14.00" fill="#666666">[int(11)]</text>
<polygon fill="none" stroke="#000000" points="364,-806.5 364,-836.5 588,-836.5 588,-806.5 364,-806.5"/>
<text text-anchor="start" x="371" y="-817.9" font-family="Arial" font-size="14.00" fill="#000000">comment </text>
<text text-anchor="start" x="432.4502" y="-817.9" font-family="Arial" font-size="14.00" fill="#666666">[text]</text>
<polygon fill="none" stroke="#000000" points="364,-776.5 364,-806.5 588,-806.5 588,-776.5 364,-776.5"/>
<text text-anchor="start" x="371" y="-787.9" font-family="Arial" font-size="14.00" fill="#000000">created </text>
<text text-anchor="start" x="421.5722" y="-787.9" font-family="Arial" font-size="14.00" fill="#666666">[datetime]</text>
<polygon fill="none" stroke="#000000" points="364,-746.5 364,-776.5 588,-776.5 588,-746.5 364,-746.5"/>
<text text-anchor="start" x="371" y="-757.9" font-family="Arial" font-size="14.00" fill="#000000">updated </text>
<text text-anchor="start" x="425.4768" y="-757.9" font-family="Arial" font-size="14.00" fill="#666666">[datetime]</text>
</g>
<!-- comment_stars&#45;&gt;comments -->
<g id="edge2" class="edge">
<title>comment_stars:comment_post_id&#45;&gt;comments:post_id</title>
<path fill="none" stroke="#000000" d="M559.9649,-1187.6537C612.8949,-1178.0367 589.4372,-1088.8021 550,-1041 496.4157,-976.0501 417.5843,-1069.9499 364,-1005 329.0694,-962.6604 309.1111,-881.5 364,-881.5"/>
<polygon fill="#000000" stroke="#000000" points="559.9641,-1187.6537 549.6192,-1184.0161 554.9821,-1188.0769 550,-1188.5 550,-1188.5 550,-1188.5 554.9821,-1188.0769 550.3808,-1192.9839 559.9641,-1187.6537 559.9641,-1187.6537"/>
<text text-anchor="start" x="557.1435" y="-1198.5" font-family="Arial" font-size="10.00" fill="#000000">FOREIGN KEY (comment_post_id, comment_user_id) REFERENCES comments (post_id, user_id)</text>
</g>
<!-- users -->
<g id="node9" class="node">
<title>users</title>
<polygon fill="#efefef" stroke="transparent" points="442,-222.5 442,-257.5 627,-257.5 627,-222.5 442,-222.5"/>
<polygon fill="none" stroke="#000000" points="442,-222.5 442,-257.5 627,-257.5 627,-222.5 442,-222.5"/>
<text text-anchor="start" x="448.7137" y="-235.3" font-family="Arial Bold" font-size="18.00" fill="#000000">users</text>
<text text-anchor="start" x="492.7183" y="-235.3" font-family="Arial" font-size="14.00" fill="#000000">    </text>
<text text-anchor="start" x="526.9231" y="-235.3" font-family="Arial" font-size="14.00" fill="#666666">[BASE TABLE]</text>
<polygon fill="none" stroke="#000000" points="442,-192.5 442,-222.5 627,-222.5 627,-192.5 442,-192.5"/>
<text text-anchor="start" x="449" y="-203.9" font-family="Arial" font-size="14.00" fill="#000000">id </text>
<text text-anchor="start" x="463.7798" y="-203.9" font-family="Arial" font-size="14.00" fill="#666666">[int(11)]</text>
<polygon fill="none" stroke="#000000" points="442,-162.5 442,-192.5 627,-192.5 627,-162.5 442,-162.5"/>
<text text-anchor="start" x="449" y="-173.9" font-family="Arial" font-size="14.00" fill="#000000">username </text>
<text text-anchor="start" x="515.1248" y="-173.9" font-family="Arial" font-size="14.00" fill="#666666">[varchar(50)]</text>
<polygon fill="none" stroke="#000000" points="442,-132.5 442,-162.5 627,-162.5 627,-132.5 442,-132.5"/>
<text text-anchor="start" x="449" y="-143.9" font-family="Arial" font-size="14.00" fill="#000000">password </text>
<text text-anchor="start" x="512.7882" y="-143.9" font-family="Arial" font-size="14.00" fill="#666666">[varchar(50)]</text>
<polygon fill="none" stroke="#000000" points="442,-102.5 442,-132.5 627,-132.5 627,-102.5 442,-102.5"/>
<text text-anchor="start" x="449" y="-113.9" font-family="Arial" font-size="14.00" fill="#000000">email </text>
<text text-anchor="start" x="486.3296" y="-113.9" font-family="Arial" font-size="14.00" fill="#666666">[varchar(355)]</text>
<polygon fill="none" stroke="#000000" points="442,-72.5 442,-102.5 627,-102.5 627,-72.5 442,-72.5"/>
<text text-anchor="start" x="449" y="-83.9" font-family="Arial" font-size="14.00" fill="#000000">created </text>
<text text-anchor="start" x="499.5722" y="-83.9" font-family="Arial" font-size="14.00" fill="#666666">[timestamp]</text>
<polygon fill="none" stroke="#000000" points="442,-42.5 442,-72.5 627,-72.5 627,-42.5 442,-42.5"/>
<text text-anchor="start" x="449" y="-53.9" font-family="Arial" font-size="14.00" fill="#000000">updated </text>
<text text-anchor="start" x="503.4768" y="-53.9" font-family="Arial" font-size="14.00" fill="#666666">[timestamp]</text>
</g>
<!-- comment_stars&#45;&gt;users -->
<g id="edge1" class="edge">
<title>comment_stars:comment_user_id&#45;&gt;users:id</title>
<path fill="none" stroke="#000000" d="M275.9347,-1157.7672C76.8847,-1128.0995 231.293,-207.5 442,-207.5"/>
<polygon fill="#000000" stroke="#000000" points="276.0264,-1157.7738 285.6732,-1162.9881 281.0132,-1158.1369 286,-1158.5 286,-1158.5 286,-1158.5 281.0132,-1158.1369 286.3268,-1154.0119 276.0264,-1157.7738 276.0264,-1157.7738"/>
<text text-anchor="start" x="6.6085" y="-1168.5" font-family="Arial" font-size="10.00" fill="#000000">FOREIGN KEY (comment_user_id) REFERENCES users (id)</text>
</g>
<!-- posts -->
<g id="node7" class="node">
<title>posts</title>
<polygon fill="#efefef" stroke="transparent" points="403,-589.5 403,-624.5 666,-624.5 666,-589.5 403,-589.5"/>
<polygon fill="none" stroke="#000000" points="403,-589.5 403,-624.5 666,-624.5 666,-589.5 403,-589.5"/>
<text text-anchor="start" x="449.2087" y="-602.3" font-family="Arial Bold" font-size="18.00" fill="#000000">posts</text>
<text text-anchor="start" x="492.2233" y="-602.3" font-family="Arial" font-size="14.00" fill="#000000">    </text>
<text text-anchor="start" x="526.4281" y="-602.3" font-family="Arial" font-size="14.00" fill="#666666">[BASE TABLE]</text>
<polygon fill="none" stroke="#000000" points="403,-559.5 403,-589.5 666,-589.5 666,-559.5 403,-559.5"/>
<text text-anchor="start" x="410" y="-570.9" font-family="Arial" font-size="14.00" fill="#000000">id </text>
<text text-anchor="start" x="424.7798" y="-570.9" font-family="Arial" font-size="14.00" fill="#666666">[bigint(20)]</text>
<polygon fill="none" stroke="#000000" points="403,-529.5 403,-559.5 666,-559.5 666,-529.5 403,-529.5"/>
<text text-anchor="start" x="410" y="-540.9" font-family="Arial" font-size="14.00" fill="#000000">user_id </text>
<text text-anchor="start" x="459.7882" y="-540.9" font-family="Arial" font-size="14.00" fill="#666666">[int(11)]</text>
<polygon fill="none" stroke="#000000" points="403,-499.5 403,-529.5 666,-529.5 666,-499.5 403,-499.5"/>
<text text-anchor="start" x="410" y="-510.9" font-family="Arial" font-size="14.00" fill="#000000">title </text>
<text text-anchor="start" x="435.6676" y="-510.9" font-family="Arial" font-size="14.00" fill="#666666">[varchar(255)]</text>
<polygon fill="none" stroke="#000000" points="403,-469.5 403,-499.5 666,-499.5 666,-469.5 403,-469.5"/>
<text text-anchor="start" x="410" y="-480.9" font-family="Arial" font-size="14.00" fill="#000000">body </text>
<text text-anchor="start" x="444.2384" y="-480.9" font-family="Arial" font-size="14.00" fill="#666666">[text]</text>
<polygon fill="none" stroke="#000000" points="403,-439.5 403,-469.5 666,-469.5 666,-439.5 403,-439.5"/>
<text text-anchor="start" x="409.697" y="-450.9" font-family="Arial" font-size="14.00" fill="#000000">post_type </text>
<text text-anchor="start" x="474.2818" y="-450.9" font-family="Arial" font-size="14.00" fill="#666666">[enum(&#39;public&#39;,&#39;private&#39;,&#39;draft&#39;)]</text>
<polygon fill="none" stroke="#000000" points="403,-409.5 403,-439.5 666,-439.5 666,-409.5 403,-409.5"/>
<text text-anchor="start" x="410" y="-420.9" font-family="Arial" font-size="14.00" fill="#000000">created </text>
<text text-anchor="start" x="460.5722" y="-420.9" font-family="Arial" font-size="14.00" fill="#666666">[datetime]</text>
<polygon fill="none" stroke="#000000" points="403,-379.5 403,-409.5 666,-409.5 666,-379.5 403,-379.5"/>
<text text-anchor="start" x="410" y="-390.9" font-family="Arial" font-size="14.00" fill="#000000">updated </text>
<text text-anchor="start" x="464.4768" y="-390.9" font-family="Arial" font-size="14.00" fill="#666666">[datetime]</text>
</g>
<!-- comments&#45;&gt;posts -->
<g id="edge3" class="edge">
<title>comments:post_id&#45;&gt;posts:id</title>
<path fill="none" stroke="#000000" d="M597.9879,-880.8096C664.2657,-871.1347 635.9193,-762.143 588,-704 534.7259,-639.3597 456.2741,-732.6403 403,-668 376.5707,-635.932 361.4444,-574.5 403,-574.5"/>
<polygon fill="#000000" stroke="#000000" points="597.9762,-880.8103 587.6896,-877.0107 592.9881,-881.1552 588,-881.5 588,-881.5 588,-881.5 592.9881,-881.1552 588.3104,-885.9893 597.9762,-880.8103 597.9762,-880.8103"/>
<text text-anchor="start" x="595.495" y="-891.5" font-family="Arial" font-size="10.00" fill="#000000">FOREIGN KEY (post_id) REFERENCES posts (id)</text>
</g>
<!-- comments&#45;&gt;users -->
<g id="edge4" class="edge">
<title>comments:user_id&#45;&gt;users:id</title>
<path fill="none" stroke="#000000" d="M353.881,-850.895C288.4285,-842.3973 352.9735,-746.0617 350,-668 342.0556,-459.4401 233.2888,-207.5 442,-207.5"/>
<polygon fill="#000000" stroke="#000000" points="354.0178,-850.903 363.7314,-855.992 359.0089,-851.2015 364,-851.5 364,-851.5 364,-851.5 359.0089,-851.2015 364.2686,-847.008 354.0178,-850.903 354.0178,-850.903"/>
<text text-anchor="start" x="130.945" y="-861.5" font-family="Arial" font-size="10.00" fill="#000000">FOREIGN KEY (user_id) REFERENCES users (id)</text>
</g>
<!-- hyphen&#45;table -->
<g id="node4" class="node">
<title>hyphen&#45;table</title>
<polygon fill="#efefef" stroke="transparent" points="839,-1570.5 839,-1605.5 1084,-1605.5 1084,-1570.5 839,-1570.5"/>
<polygon fill="none" stroke="#000000" points="839,-1570.5 839,-1605.5 1084,-1605.5 1084,-1570.5 839,-1570.5"/>
<text text-anchor="start" x="845.6969" y="-1583.3" font-family="Arial Bold" font-size="18.00" fill="#000000">hyphen&#45;table</text>
<text text-anchor="start" x="949.7351" y="-1583.3" font-family="Arial" font-size="14.00" fill="#000000">    </text>
<text text-anchor="start" x="983.9399" y="-1583.3" font-family="Arial" font-size="14.00" fill="#666666">[BASE TABLE]</text>
<polygon fill="none" stroke="#000000" points="839,-1540.5 839,-1570.5 1084,-1570.5 1084,-1540.5 839,-1540.5"/>
<text text-anchor="start" x="846" y="-1551.9" font-family="Arial" font-size="14.00" fill="#000000">id </text>
<text text-anchor="start" x="860.7798" y="-1551.9" font-family="Arial" font-size="14.00" fill="#666666">[bigint(20)]</text>
<polygon fill="none" stroke="#000000" points="839,-1510.5 839,-1540.5 1084,-1540.5 1084,-1510.5 839,-1510.5"/>
<text text-anchor="start" x="846" y="-1521.9" font-family="Arial" font-size="14.00" fill="#000000">hyphen&#45;column </text>
<text text-anchor="start" x="945.5792" y="-1521.9" font-family="Arial" font-size="14.00" fill="#666666">[text]</text>
<polygon fill="none" stroke="#000000" points="839,-1480.5 839,-1510.5 1084,-1510.5 1084,-1480.5 839,-1480.5"/>
<text text-anchor="start" x="846" y="-1491.9" font-family="Arial" font-size="14.00" fill="#000000">created </text>
<text text-anchor="start" x="896.5722" y="-1491.9" font-family="Arial" font-size="14.00" fill="#666666">[datetime]</text>
</g>
<!-- logs -->
<g id="node5" class="node">
<title>logs</title>
<polygon fill="#efefef" stroke="transparent" points="544,-1630.5 544,-1665.5 735,-1665.5 735,-1630.5 544,-1630.5"/>
<polygon fill="none" stroke="#000000" points="544,-1630.5 544,-1665.5 735,-1665.5 735,-1630.5 544,-1630.5"/>
<text text-anchor="start" x="559.2127" y="-1643.3" font-family="Arial Bold" font-size="18.00" fill="#000000">logs</text>
<text text-anchor="start" x="592.2193" y="-1643.3" font-family="Arial" font-size="14.00" fill="#000000">    </text>
<text text-anchor="start" x="626.4241" y="-1643.3" font-family="Arial" font-size="14.00" fill="#666666">[BASE TABLE]</text>
<polygon fill="none" stroke="#000000" points="544,-1600.5 544,-1630.5 735,-1630.5 735,-1600.5 544,-1600.5"/>
<text text-anchor="start" x="551" y="-1611.9" font-family="Arial" font-size="14.00" fill="#000000">id </text>
<text text-anchor="start" x="565.7798" y="-1611.9" font-family="Arial" font-size="14.00" fill="#666666">[bigint(20)]</text>
<polygon fill="none" stroke="#000000" points="544,-1570.5 544,-1600.5 735,-1600.5 735,-1570.5 544,-1570.5"/>
<text text-anchor="start" x="551" y="-1581.9" font-family="Arial" font-size="14.00" fill="#000000">user_id </text>
<text text-anchor="start" x="600.7882" y="-1581.9" font-family="Arial" font-size="14.00" fill="#666666">[int(11)]</text>
<polygon fill="none" stroke="#000000" points="544,-1540.5 544,-1570.5 735,-1570.5 735,-1540.5 544,-1540.5"/>
<text text-anchor="start" x="551" y="-1551.9" font-family="Arial" font-size="14.00" fill="#000000">post_id </text>
<text text-anchor="start" x="600.0182" y="-1551.9" font-family="Arial" font-size="14.00" fill="#666666">[bigint(20)]</text>
<polygon fill="none" stroke="#000000" points="544,-1510.5 544,-1540.5 735,-1540.5 735,-1510.5 544,-1510.5"/>
<text text-anchor="start" x="551" y="-1521.9" font-family="Arial" font-size="14.00" fill="#000000">comment_id </text>
<text text-anchor="start" x="631.122" y="-1521.9" font-family="Arial" font-size="14.00" fill="#666666">[bigint(20)]</text>
<polygon fill="none" stroke="#000000" points="544,-1480.5 544,-1510.5 735,-1510.5 735,-1480.5 544,-1480.5"/>
<text text-anchor="start" x="550.8212" y="-1491.9" font-family="Arial" font-size="14.00" fill="#000000">comment_star_id </text>
<text text-anchor="start" x="662.0596" y="-1491.9" font-family="Arial" font-size="14.00" fill="#666666">[bigint(20)]</text>
<polygon fill="none" stroke="#000000" points="544,-1450.5 544,-1480.5 735,-1480.5 735,-1450.5 544,-1450.5"/>
<text text-anchor="start" x="551" y="-1461.9" font-family="Arial" font-size="14.00" fill="#000000">payload </text>
<text text-anchor="start" x="603.9102" y="-1461.9" font-family="Arial" font-size="14.00" fill="#666666">[text]</text>
<polygon fill="none" stroke="#000000" points="544,-1420.5 544,-1450.5 735,-1450.5 735,-1420.5 544,-1420.5"/>
<text text-anchor="start" x="551" y="-1431.9" font-family="Arial" font-size="14.00" fill="#000000">created </text>
<text text-anchor="start" x="601.5722" y="-1431.9" font-family="Arial" font-size="14.00" fill="#666666">[datetime]</text>
</g>
<!-- logs&#45;&gt;comment_stars -->
<g id="edge10" class="edge">
<title>logs:comment_star_id&#45;&gt;comment_stars:id</title>
<path fill="none" stroke="#000000" stroke-dasharray="5,2" d="M533.9945,-1494.7501C483.0451,-1486.2051 544.6767,-1406.3207 550,-1342 553.4275,-1300.586 591.5556,-1248.5 550,-1248.5"/>
<polygon fill="#000000" stroke="#000000" points="534.028,-1494.7525 543.6636,-1499.9874 539.014,-1495.1262 544,-1495.5 544,-1495.5 544,-1495.5 539.014,-1495.1262 544.3364,-1491.0126 534.028,-1494.7525 534.028,-1494.7525"/>
<text text-anchor="start" x="454.3245" y="-1505.5" font-family="Arial" font-size="10.00" fill="#000000">Additional Relation</text>
</g>
<!-- logs&#45;&gt;comments -->
<g id="edge9" class="edge">
<title>logs:comment_id&#45;&gt;comments:id</title>
<path fill="none" stroke="#000000" stroke-dasharray="5,2" d="M533.7975,-1524.6541C482.2547,-1515.3863 513.9368,-1432.0434 544,-1378 558.7489,-1351.4865 587.2511,-1368.5135 602,-1342 667.0329,-1225.0931 609.1998,-1174.5839 602,-1041 598.8844,-983.193 645.8909,-911.5 588,-911.5"/>
<polygon fill="#000000" stroke="#000000" points="534.0342,-1524.6737 543.6282,-1529.9846 539.0171,-1525.0868 544,-1525.5 544,-1525.5 544,-1525.5 539.0171,-1525.0868 544.3718,-1521.0154 534.0342,-1524.6737 534.0342,-1524.6737"/>
<text text-anchor="start" x="454.3245" y="-1535.5" font-family="Arial" font-size="10.00" fill="#000000">Additional Relation</text>
</g>
<!-- logs&#45;&gt;posts -->
<g id="edge8" class="edge">
<title>logs:post_id&#45;&gt;posts:id</title>
<path fill="none" stroke="#000000" stroke-dasharray="5,2" d="M745.1575,-1554.8558C807.7955,-1546.2075 747.0443,-1452.2201 735,-1378 732.2984,-1361.3523 726.3166,-1358.5362 723,-1342 706.1839,-1258.1571 751.5126,-574.5 666,-574.5"/>
<polygon fill="#000000" stroke="#000000" points="744.9799,-1554.8669 734.7151,-1551.009 739.99,-1555.1835 735,-1555.5 735,-1555.5 735,-1555.5 739.99,-1555.1835 735.2849,-1559.991 744.9799,-1554.8669 744.9799,-1554.8669"/>
<text text-anchor="start" x="742.3245" y="-1565.5" font-family="Arial" font-size="10.00" fill="#000000">Additional Relation</text>
</g>
<!-- logs&#45;&gt;users -->
<g id="edge7" class="edge">
<title>logs:user_id&#45;&gt;users:id</title>
<path fill="none" stroke="#000000" stroke-dasharray="5,2" d="M745.4397,-1584.9277C819.875,-1576.0821 735.7645,-1466.4364 735,-1378 732.9999,-1146.6407 788.0916,-557.1751 717,-337 695.4636,-270.3005 697.0902,-207.5 627,-207.5"/>
<polygon fill="#000000" stroke="#000000" points="744.985,-1584.9526 734.7537,-1581.0067 739.9925,-1585.2263 735,-1585.5 735,-1585.5 735,-1585.5 739.9925,-1585.2263 735.2463,-1589.9933 744.985,-1584.9526 744.985,-1584.9526"/>
<text text-anchor="start" x="677.024" y="-1595.5" font-family="Arial" font-size="10.00" fill="#000000">logs&#45;&gt;users</text>
</g>
<!-- post_comments -->
<g id="node6" class="node">
<title>post_comments</title>
<polygon fill="#efefef" stroke="transparent" points="1188,-1630.5 1188,-1665.5 1406,-1665.5 1406,-1630.5 1188,-1630.5"/>
<polygon fill="none" stroke="#000000" points="1188,-1630.5 1188,-1665.5 1406,-1665.5 1406,-1630.5 1188,-1630.5"/>
<text text-anchor="start" x="1194.6048" y="-1643.3" font-family="Arial Bold" font-size="18.00" fill="#000000">post_comments</text>
<text text-anchor="start" x="1321.6308" y="-1643.3" font-family="Arial" font-size="14.00" fill="#000000">    </text>
<text text-anchor="start" x="1355.8356" y="-1643.3" font-family="Arial" font-size="14.00" fill="#666666">[VIEW]</text>
<polygon fill="none" stroke="#000000" points="1188,-1600.5 1188,-1630.5 1406,-1630.5 1406,-1600.5 1188,-1600.5"/>
<text text-anchor="start" x="1195" y="-1611.9" font-family="Arial" font-size="14.00" fill="#000000">id </text>
<text text-anchor="start" x="1209.7798" y="-1611.9" font-family="Arial" font-size="14.00" fill="#666666">[bigint(20)]</text>
<polygon fill="none" stroke="#000000" points="1188,-1570.5 1188,-1600.5 1406,-1600.5 1406,-1570.5 1188,-1570.5"/>
<text text-anchor="start" x="1195" y="-1581.9" font-family="Arial" font-size="14.00" fill="#000000">title </text>
<text text-anchor="start" x="1220.6676" y="-1581.9" font-family="Arial" font-size="14.00" fill="#666666">[varchar(255)]</text>
<polygon fill="none" stroke="#000000" points="1188,-1540.5 1188,-1570.5 1406,-1570.5 1406,-1540.5 1188,-1540.5"/>
<text text-anchor="start" x="1195" y="-1551.9" font-family="Arial" font-size="14.00" fill="#000000">post_user </text>
<text text-anchor="start" x="1260.3548" y="-1551.9" font-family="Arial" font-size="14.00" fill="#666666">[varchar(50)]</text>
<polygon fill="none" stroke="#000000" points="1188,-1510.5 1188,-1540.5 1406,-1540.5 1406,-1510.5 1188,-1510.5"/>
<text text-anchor="start" x="1195" y="-1521.9" font-family="Arial" font-size="14.00" fill="#000000">comment </text>
<text text-anchor="start" x="1256.4502" y="-1521.9" font-family="Arial" font-size="14.00" fill="#666666">[text]</text>
<polygon fill="none" stroke="#000000" points="1188,-1480.5 1188,-1510.5 1406,-1510.5 1406,-1480.5 1188,-1480.5"/>
<text text-anchor="start" x="1195" y="-1491.9" font-family="Arial" font-size="14.00" fill="#000000">comment_user </text>
<text text-anchor="start" x="1291.4586" y="-1491.9" font-family="Arial" font-size="14.00" fill="#666666">[varchar(50)]</text>
<polygon fill="none" stroke="#000000" points="1188,-1450.5 1188,-1480.5 1406,-1480.5 1406,-1450.5 1188,-1450.5"/>
<text text-anchor="start" x="1195" y="-1461.9" font-family="Arial" font-size="14.00" fill="#000000">created </text>
<text text-anchor="start" x="1245.5722" y="-1461.9" font-family="Arial" font-size="14.00" fill="#666666">[datetime]</text>
<polygon fill="none" stroke="#000000" points="1188,-1420.5 1188,-1450.5 1406,-1450.5 1406,-1420.5 1188,-1420.5"/>
<text text-anchor="start" x="1195" y="-1431.9" font-family="Arial" font-size="14.00" fill="#000000">updated </text>
<text text-anchor="start" x="1249.4768" y="-1431.9" font-family="Arial" font-size="14.00" fill="#666666">[datetime]</text>
</g>
<!-- posts&#45;&gt;users -->
<g id="edge5" class="edge">
<title>posts:user_id&#45;&gt;users:id</title>
<path fill="none" stroke="#000000" d="M393.1445,-542.348C331.3475,-513.6467 370.1451,-207.5 442,-207.5"/>
<polygon fill="#000000" stroke="#000000" points="393.2302,-542.3666 402.04,-548.8964 398.1151,-543.4333 403,-544.5 403,-544.5 403,-544.5 398.1151,-543.4333 403.96,-540.1036 393.2302,-542.3666 393.2302,-542.3666"/>
<text text-anchor="start" x="169.945" y="-554.5" font-family="Arial" font-size="10.00" fill="#000000">FOREIGN KEY (user_id) REFERENCES users (id)</text>
</g>
<!-- user_options -->
<g id="node8" class="node">
<title>user_options</title>
<polygon fill="#efefef" stroke="transparent" points="808,-544.5 808,-579.5 1052,-579.5 1052,-544.5 808,-544.5"/>
<polygon fill="none" stroke="#000000" points="808,-544.5 808,-579.5 1052,-579.5 1052,-544.5 808,-544.5"/>
<text text-anchor="start" x="814.7" y="-557.3" font-family="Arial Bold" font-size="18.00" fill="#000000">user_options</text>
<text text-anchor="start" x="917.732" y="-557.3" font-family="Arial" font-size="14.00" fill="#000000">    </text>
<text text-anchor="start" x="951.9368" y="-557.3" font-family="Arial" font-size="14.00" fill="#666666">[BASE TABLE]</text>
<polygon fill="none" stroke="#000000" points="808,-514.5 808,-544.5 1052,-544.5 1052,-514.5 808,-514.5"/>
<text text-anchor="start" x="815" y="-525.9" font-family="Arial" font-size="14.00" fill="#000000">user_id </text>
<text text-anchor="start" x="864.7882" y="-525.9" font-family="Arial" font-size="14.00" fill="#666666">[int(11)]</text>
<polygon fill="none" stroke="#000000" points="808,-484.5 808,-514.5 1052,-514.5 1052,-484.5 808,-484.5"/>
<text text-anchor="start" x="815" y="-495.9" font-family="Arial" font-size="14.00" fill="#000000">show_email </text>
<text text-anchor="start" x="892.784" y="-495.9" font-family="Arial" font-size="14.00" fill="#666666">[tinyint(1)]</text>
<polygon fill="none" stroke="#000000" points="808,-454.5 808,-484.5 1052,-484.5 1052,-454.5 808,-454.5"/>
<text text-anchor="start" x="815" y="-465.9" font-family="Arial" font-size="14.00" fill="#000000">created </text>
<text text-anchor="start" x="865.5722" y="-465.9" font-family="Arial" font-size="14.00" fill="#666666">[timestamp]</text>
<polygon fill="none" stroke="#000000" points="808,-424.5 808,-454.5 1052,-454.5 1052,-424.5 808,-424.5"/>
<text text-anchor="start" x="815" y="-435.9" font-family="Arial" font-size="14.00" fill="#000000">updated </text>
<text text-anchor="start" x="869.4768" y="-435.9" font-family="Arial" font-size="14.00" fill="#666666">[timestamp]</text>
</g>
<!-- user_options&#45;&gt;users -->
<g id="edge6" class="edge">
<title>user_options:user_id&#45;&gt;users:id</title>
<path fill="none" stroke="#000000" d="M797.8399,-528.9286C724.885,-520.1039 793.9463,-411.0098 751,-337 711.0057,-268.0774 706.6861,-207.5 627,-207.5"/>
<polygon fill="#000000" stroke="#000000" points="798.0158,-528.9384 807.7473,-533.9929 803.0079,-529.2192 808,-529.5 808,-529.5 808,-529.5 803.0079,-529.2192 808.2527,-525.0071 798.0158,-528.9384 798.0158,-528.9384"/>
<text text-anchor="start" x="634.945" y="-513.5" font-family="Arial" font-size="10.00" fill="#000000">FOREIGN KEY (user_id) REFERENCES users (id)</text>
</g>
</g>
</svg>
