<?xml version="1.0" encoding="UTF-8" standalone="no"?>
<!DOCTYPE svg PUBLIC "-//W3C//DTD SVG 1.1//EN"
 "http://www.w3.org/Graphics/SVG/1.1/DTD/svg11.dtd">
<!-- Generated by graphviz version 12.1.2 (20240928.0832)
 -->
<!-- Title: user_options Pages: 1 -->
<svg width="526pt" height="602pt"
 viewBox="0.00 0.00 525.84 602.00" xmlns="http://www.w3.org/2000/svg" xmlns:xlink="http://www.w3.org/1999/xlink">
<g id="graph0" class="graph" transform="scale(1 1) rotate(0) translate(4 598)">
<title>user_options</title>
<polygon fill="white" stroke="none" points="-4,4 -4,-598 521.84,-598 521.84,4 -4,4"/>
<!-- user_options -->
<g id="node1" class="node">
<title>user_options</title>
<polygon fill="#efefef" stroke="none" points="46.2,-512.2 46.2,-547.8 276.68,-547.8 276.68,-512.2 46.2,-512.2"/>
<polygon fill="none" stroke="black" points="46.2,-512.2 46.2,-547.8 276.68,-547.8 276.68,-512.2 46.2,-512.2"/>
<text text-anchor="start" x="53.2" y="-525.6" font-family="Arial Bold" font-size="18.00">user_options</text>
<text text-anchor="start" x="145.2" y="-525.6" font-family="Arial" font-size="14.00">    </text>
<text text-anchor="start" x="176.31" y="-525.6" font-family="Arial" font-size="14.00" fill="#666666">[BASE TABLE]</text>
<polygon fill="none" stroke="black" points="46.2,-481.4 46.2,-512.2 276.68,-512.2 276.68,-481.4 46.2,-481.4"/>
<text text-anchor="start" x="53.2" y="-493.6" font-family="Arial" font-size="14.00">user_id </text>
<text text-anchor="start" x="103.01" y="-493.6" font-family="Arial" font-size="14.00" fill="#666666">[int(11)]</text>
<polygon fill="none" stroke="black" points="46.2,-450.6 46.2,-481.4 276.68,-481.4 276.68,-450.6 46.2,-450.6"/>
<text text-anchor="start" x="53.2" y="-462.8" font-family="Arial" font-size="14.00">show_email </text>
<text text-anchor="start" x="131.01" y="-462.8" font-family="Arial" font-size="14.00" fill="#666666">[tinyint(1)]</text>
<polygon fill="none" stroke="black" points="46.2,-419.8 46.2,-450.6 276.68,-450.6 276.68,-419.8 46.2,-419.8"/>
<text text-anchor="start" x="53.2" y="-432" font-family="Arial" font-size="14.00">created </text>
<text text-anchor="start" x="103.79" y="-432" font-family="Arial" font-size="14.00" fill="#666666">[timestamp]</text>
<polygon fill="none" stroke="black" points="46.2,-389 46.2,-419.8 276.68,-419.8 276.68,-389 46.2,-389"/>
<text text-anchor="start" x="53.2" y="-401.2" font-family="Arial" font-size="14.00">updated </text>
<text text-anchor="start" x="107.7" y="-401.2" font-family="Arial" font-size="14.00" fill="#666666">[timestamp]</text>
<polygon fill="none" stroke="black" stroke-width="3" points="44.7,-387.5 44.7,-549.3 278.18,-549.3 278.18,-387.5 44.7,-387.5"/>
</g>
<!-- users -->
<g id="node2" class="node">
<title>users</title>
<polygon fill="#efefef" stroke="none" points="73.7,-228 73.7,-263.6 249.18,-263.6 249.18,-228 73.7,-228"/>
<polygon fill="none" stroke="black" points="73.7,-228 73.7,-263.6 249.18,-263.6 249.18,-228 73.7,-228"/>
<text text-anchor="start" x="80.7" y="-241.4" font-family="Arial Bold" font-size="18.00">users</text>
<text text-anchor="start" x="117.69" y="-241.4" font-family="Arial" font-size="14.00">    </text>
<text text-anchor="start" x="148.81" y="-241.4" font-family="Arial" font-size="14.00" fill="#666666">[BASE TABLE]</text>
<polygon fill="none" stroke="black" points="73.7,-197.2 73.7,-228 249.18,-228 249.18,-197.2 73.7,-197.2"/>
<text text-anchor="start" x="80.7" y="-209.4" font-family="Arial" font-size="14.00">id </text>
<text text-anchor="start" x="95.49" y="-209.4" font-family="Arial" font-size="14.00" fill="#666666">[int(11)]</text>
<polygon fill="none" stroke="black" points="73.7,-166.4 73.7,-197.2 249.18,-197.2 249.18,-166.4 73.7,-166.4"/>
<text text-anchor="start" x="80.7" y="-178.6" font-family="Arial" font-size="14.00">username </text>
<text text-anchor="start" x="146.85" y="-178.6" font-family="Arial" font-size="14.00" fill="#666666">[varchar(50)]</text>
<polygon fill="none" stroke="black" points="73.7,-135.6 73.7,-166.4 249.18,-166.4 249.18,-135.6 73.7,-135.6"/>
<text text-anchor="start" x="80.7" y="-147.8" font-family="Arial" font-size="14.00">password </text>
<text text-anchor="start" x="144.51" y="-147.8" font-family="Arial" font-size="14.00" fill="#666666">[varchar(50)]</text>
<polygon fill="none" stroke="black" points="73.7,-104.8 73.7,-135.6 249.18,-135.6 249.18,-104.8 73.7,-104.8"/>
<text text-anchor="start" x="80.7" y="-117" font-family="Arial" font-size="14.00">email </text>
<text text-anchor="start" x="118.05" y="-117" font-family="Arial" font-size="14.00" fill="#666666">[varchar(355)]</text>
<polygon fill="none" stroke="black" points="73.7,-74 73.7,-104.8 249.18,-104.8 249.18,-74 73.7,-74"/>
<text text-anchor="start" x="80.7" y="-86.2" font-family="Arial" font-size="14.00">created </text>
<text text-anchor="start" x="131.29" y="-86.2" font-family="Arial" font-size="14.00" fill="#666666">[timestamp]</text>
<polygon fill="none" stroke="black" points="73.7,-43.2 73.7,-74 249.18,-74 249.18,-43.2 73.7,-43.2"/>
<text text-anchor="start" x="80.7" y="-55.4" font-family="Arial" font-size="14.00">updated </text>
<text text-anchor="start" x="135.2" y="-55.4" font-family="Arial" font-size="14.00" fill="#666666">[timestamp]</text>
</g>
<!-- user_options&#45;&gt;users -->
<g id="edge1" class="edge">
<title>user_options:user_id&#45;&gt;users:id</title>
<path fill="none" stroke="black" d="M287.6,-494.17C337.9,-465.52 310.04,-212.6 250.18,-212.6"/>
<polygon fill="black" stroke="black" points="287.67,-494.15 276.85,-492.36 282.52,-495.52 278.33,-496.63 278.33,-496.63 278.33,-496.63 282.52,-495.52 279.16,-501.06 287.67,-494.15"/>
<text text-anchor="start" x="284.68" y="-506.8" font-family="Arial" font-size="10.00">FOREIGN KEY (user_id) REFERENCES users (id)</text>
</g>
</g>
</svg>
