<?xml version="1.0" encoding="UTF-8" standalone="no"?>
<!DOCTYPE svg PUBLIC "-//W3C//DTD SVG 1.1//EN"
 "http://www.w3.org/Graphics/SVG/1.1/DTD/svg11.dtd">
<!-- Generated by graphviz version 2.40.1 (20161225.0304)
 -->
<!-- Title: outputs Pages: 1 -->
<svg width="664pt" height="1642pt"
 viewBox="0.00 0.00 664.00 1642.00" xmlns="http://www.w3.org/2000/svg" xmlns:xlink="http://www.w3.org/1999/xlink">
<g id="graph0" class="graph" transform="scale(1 1) rotate(0) translate(4 1638)">
<title>outputs</title>
<polygon fill="#ffffff" stroke="transparent" points="-4,4 -4,-1638 660,-1638 660,4 -4,4"/>
<!-- outputs -->
<g id="node1" class="node">
<title>outputs</title>
<polygon fill="#efefef" stroke="transparent" points="239,-1552.5 239,-1587.5 451,-1587.5 451,-1552.5 239,-1552.5"/>
<polygon fill="none" stroke="#000000" points="239,-1552.5 239,-1587.5 451,-1587.5 451,-1552.5 239,-1552.5"/>
<text text-anchor="start" x="291.7603" y="-1565.3" font-family="Arial Bold" font-size="18.00" fill="#000000">outputs</text>
<text text-anchor="start" x="350.7895" y="-1565.3" font-family="Arial" font-size="14.00" fill="#000000"> </text>
<text text-anchor="start" x="354.6801" y="-1565.3" font-family="Arial" font-size="14.00" fill="#666666">[VIEW]</text>
<polygon fill="none" stroke="#000000" points="239,-1522.5 239,-1552.5 451,-1552.5 451,-1522.5 239,-1522.5"/>
<text text-anchor="start" x="246" y="-1533.9" font-family="Arial" font-size="14.00" fill="#000000">transaction_hash </text>
<text text-anchor="start" x="356.4824" y="-1533.9" font-family="Arial" font-size="14.00" fill="#666666">[STRING]</text>
<polygon fill="none" stroke="#000000" points="239,-1492.5 239,-1522.5 451,-1522.5 451,-1492.5 239,-1492.5"/>
<text text-anchor="start" x="246" y="-1503.9" font-family="Arial" font-size="14.00" fill="#000000">block_hash </text>
<text text-anchor="start" x="320.6928" y="-1503.9" font-family="Arial" font-size="14.00" fill="#666666">[STRING]</text>
<polygon fill="none" stroke="#000000" points="239,-1462.5 239,-1492.5 451,-1492.5 451,-1462.5 239,-1462.5"/>
<text text-anchor="start" x="246" y="-1473.9" font-family="Arial" font-size="14.00" fill="#000000">block_number </text>
<text text-anchor="start" x="337.7966" y="-1473.9" font-family="Arial" font-size="14.00" fill="#666666">[INTEGER]</text>
<polygon fill="none" stroke="#000000" points="239,-1432.5 239,-1462.5 451,-1462.5 451,-1432.5 239,-1432.5"/>
<text text-anchor="start" x="245.8268" y="-1443.9" font-family="Arial" font-size="14.00" fill="#000000">block_timestamp </text>
<text text-anchor="start" x="354.7286" y="-1443.9" font-family="Arial" font-size="14.00" fill="#666666">[TIMESTAMP]</text>
<polygon fill="none" stroke="#000000" points="239,-1402.5 239,-1432.5 451,-1432.5 451,-1402.5 239,-1402.5"/>
<text text-anchor="start" x="246" y="-1413.9" font-family="Arial" font-size="14.00" fill="#000000">index </text>
<text text-anchor="start" x="283.345" y="-1413.9" font-family="Arial" font-size="14.00" fill="#666666">[INTEGER]</text>
<polygon fill="none" stroke="#000000" points="239,-1372.5 239,-1402.5 451,-1402.5 451,-1372.5 239,-1372.5"/>
<text text-anchor="start" x="246" y="-1383.9" font-family="Arial" font-size="14.00" fill="#000000">script_asm </text>
<text text-anchor="start" x="317.5568" y="-1383.9" font-family="Arial" font-size="14.00" fill="#666666">[STRING]</text>
<polygon fill="none" stroke="#000000" points="239,-1342.5 239,-1372.5 451,-1372.5 451,-1342.5 239,-1342.5"/>
<text text-anchor="start" x="246" y="-1353.9" font-family="Arial" font-size="14.00" fill="#000000">script_hex </text>
<text text-anchor="start" x="313.6788" y="-1353.9" font-family="Arial" font-size="14.00" fill="#666666">[STRING]</text>
<polygon fill="none" stroke="#000000" points="239,-1312.5 239,-1342.5 451,-1342.5 451,-1312.5 239,-1312.5"/>
<text text-anchor="start" x="246" y="-1323.9" font-family="Arial" font-size="14.00" fill="#000000">required_signatures </text>
<text text-anchor="start" x="373.5848" y="-1323.9" font-family="Arial" font-size="14.00" fill="#666666">[INTEGER]</text>
<polygon fill="none" stroke="#000000" points="239,-1282.5 239,-1312.5 451,-1312.5 451,-1282.5 239,-1282.5"/>
<text text-anchor="start" x="246" y="-1293.9" font-family="Arial" font-size="14.00" fill="#000000">type </text>
<text text-anchor="start" x="276.3464" y="-1293.9" font-family="Arial" font-size="14.00" fill="#666666">[STRING]</text>
<polygon fill="none" stroke="#000000" points="239,-1252.5 239,-1282.5 451,-1282.5 451,-1252.5 239,-1252.5"/>
<text text-anchor="start" x="246" y="-1263.9" font-family="Arial" font-size="14.00" fill="#000000">addresses </text>
<text text-anchor="start" x="314.4642" y="-1263.9" font-family="Arial" font-size="14.00" fill="#666666">[STRING]</text>
<polygon fill="none" stroke="#000000" points="239,-1222.5 239,-1252.5 451,-1252.5 451,-1222.5 239,-1222.5"/>
<text text-anchor="start" x="246" y="-1233.9" font-family="Arial" font-size="14.00" fill="#000000">value </text>
<text text-anchor="start" x="283.345" y="-1233.9" font-family="Arial" font-size="14.00" fill="#666666">[NUMERIC]</text>
<polygon fill="none" stroke="#000000" stroke-width="3" points="237.5,-1221.5 237.5,-1589.5 452.5,-1589.5 452.5,-1221.5 237.5,-1221.5"/>
</g>
<!-- transactions -->
<g id="node2" class="node">
<title>transactions</title>
<polygon fill="#efefef" stroke="transparent" points="43,-1062.5 43,-1097.5 311,-1097.5 311,-1062.5 43,-1062.5"/>
<polygon fill="none" stroke="#000000" points="43,-1062.5 43,-1097.5 311,-1097.5 311,-1062.5 43,-1062.5"/>
<text text-anchor="start" x="100.4807" y="-1075.3" font-family="Arial Bold" font-size="18.00" fill="#000000">transactions</text>
<text text-anchor="start" x="197.5025" y="-1075.3" font-family="Arial" font-size="14.00" fill="#000000"> </text>
<text text-anchor="start" x="201.3931" y="-1075.3" font-family="Arial" font-size="14.00" fill="#666666">[TABLE]</text>
<polygon fill="none" stroke="#000000" points="43,-1032.5 43,-1062.5 311,-1062.5 311,-1032.5 43,-1032.5"/>
<text text-anchor="start" x="50" y="-1043.9" font-family="Arial" font-size="14.00" fill="#000000">hash </text>
<text text-anchor="start" x="84.2384" y="-1043.9" font-family="Arial" font-size="14.00" fill="#666666">[STRING]</text>
<polygon fill="none" stroke="#000000" points="43,-1002.5 43,-1032.5 311,-1032.5 311,-1002.5 43,-1002.5"/>
<text text-anchor="start" x="50" y="-1013.9" font-family="Arial" font-size="14.00" fill="#000000">size </text>
<text text-anchor="start" x="78.7798" y="-1013.9" font-family="Arial" font-size="14.00" fill="#666666">[INTEGER]</text>
<polygon fill="none" stroke="#000000" points="43,-972.5 43,-1002.5 311,-1002.5 311,-972.5 43,-972.5"/>
<text text-anchor="start" x="50" y="-983.9" font-family="Arial" font-size="14.00" fill="#000000">virtual_size </text>
<text text-anchor="start" x="123.892" y="-983.9" font-family="Arial" font-size="14.00" fill="#666666">[INTEGER]</text>
<polygon fill="none" stroke="#000000" points="43,-942.5 43,-972.5 311,-972.5 311,-942.5 43,-942.5"/>
<text text-anchor="start" x="50" y="-953.9" font-family="Arial" font-size="14.00" fill="#000000">version </text>
<text text-anchor="start" x="99.0056" y="-953.9" font-family="Arial" font-size="14.00" fill="#666666">[INTEGER]</text>
<polygon fill="none" stroke="#000000" points="43,-912.5 43,-942.5 311,-942.5 311,-912.5 43,-912.5"/>
<text text-anchor="start" x="50" y="-923.9" font-family="Arial" font-size="14.00" fill="#000000">lock_time </text>
<text text-anchor="start" x="113.0028" y="-923.9" font-family="Arial" font-size="14.00" fill="#666666">[INTEGER]</text>
<polygon fill="none" stroke="#000000" points="43,-882.5 43,-912.5 311,-912.5 311,-882.5 43,-882.5"/>
<text text-anchor="start" x="50" y="-893.9" font-family="Arial" font-size="14.00" fill="#000000">block_hash </text>
<text text-anchor="start" x="124.6928" y="-893.9" font-family="Arial" font-size="14.00" fill="#666666">[STRING]</text>
<polygon fill="none" stroke="#000000" points="43,-852.5 43,-882.5 311,-882.5 311,-852.5 43,-852.5"/>
<text text-anchor="start" x="50" y="-863.9" font-family="Arial" font-size="14.00" fill="#000000">block_number </text>
<text text-anchor="start" x="141.7966" y="-863.9" font-family="Arial" font-size="14.00" fill="#666666">[INTEGER]</text>
<polygon fill="none" stroke="#000000" points="43,-822.5 43,-852.5 311,-852.5 311,-822.5 43,-822.5"/>
<text text-anchor="start" x="50" y="-833.9" font-family="Arial" font-size="14.00" fill="#000000">block_timestamp </text>
<text text-anchor="start" x="158.9018" y="-833.9" font-family="Arial" font-size="14.00" fill="#666666">[TIMESTAMP]</text>
<polygon fill="none" stroke="#000000" points="43,-792.5 43,-822.5 311,-822.5 311,-792.5 43,-792.5"/>
<text text-anchor="start" x="50" y="-803.9" font-family="Arial" font-size="14.00" fill="#000000">block_timestamp_month </text>
<text text-anchor="start" x="205.5834" y="-803.9" font-family="Arial" font-size="14.00" fill="#666666">[DATE]</text>
<polygon fill="none" stroke="#000000" points="43,-762.5 43,-792.5 311,-792.5 311,-762.5 43,-762.5"/>
<text text-anchor="start" x="50" y="-773.9" font-family="Arial" font-size="14.00" fill="#000000">input_count </text>
<text text-anchor="start" x="126.2566" y="-773.9" font-family="Arial" font-size="14.00" fill="#666666">[INTEGER]</text>
<polygon fill="none" stroke="#000000" points="43,-732.5 43,-762.5 311,-762.5 311,-732.5 43,-732.5"/>
<text text-anchor="start" x="50" y="-743.9" font-family="Arial" font-size="14.00" fill="#000000">output_count </text>
<text text-anchor="start" x="134.8232" y="-743.9" font-family="Arial" font-size="14.00" fill="#666666">[INTEGER]</text>
<polygon fill="none" stroke="#000000" points="43,-702.5 43,-732.5 311,-732.5 311,-702.5 43,-702.5"/>
<text text-anchor="start" x="50" y="-713.9" font-family="Arial" font-size="14.00" fill="#000000">input_value </text>
<text text-anchor="start" x="125.4726" y="-713.9" font-family="Arial" font-size="14.00" fill="#666666">[NUMERIC]</text>
<polygon fill="none" stroke="#000000" points="43,-672.5 43,-702.5 311,-702.5 311,-672.5 43,-672.5"/>
<text text-anchor="start" x="50" y="-683.9" font-family="Arial" font-size="14.00" fill="#000000">output_value </text>
<text text-anchor="start" x="134.0392" y="-683.9" font-family="Arial" font-size="14.00" fill="#666666">[NUMERIC]</text>
<polygon fill="none" stroke="#000000" points="43,-642.5 43,-672.5 311,-672.5 311,-642.5 43,-642.5"/>
<text text-anchor="start" x="50" y="-653.9" font-family="Arial" font-size="14.00" fill="#000000">is_coinbase </text>
<text text-anchor="start" x="127.7994" y="-653.9" font-family="Arial" font-size="14.00" fill="#666666">[BOOLEAN]</text>
<polygon fill="none" stroke="#000000" points="43,-612.5 43,-642.5 311,-642.5 311,-612.5 43,-612.5"/>
<text text-anchor="start" x="50" y="-623.9" font-family="Arial" font-size="14.00" fill="#000000">fee </text>
<text text-anchor="start" x="73.3464" y="-623.9" font-family="Arial" font-size="14.00" fill="#666666">[NUMERIC]</text>
<polygon fill="none" stroke="#000000" points="43,-582.5 43,-612.5 311,-612.5 311,-582.5 43,-582.5"/>
<text text-anchor="start" x="50" y="-593.9" font-family="Arial" font-size="14.00" fill="#000000">inputs </text>
<text text-anchor="start" x="91.2356" y="-593.9" font-family="Arial" font-size="14.00" fill="#666666">[RECORD]</text>
<polygon fill="none" stroke="#000000" points="43,-552.5 43,-582.5 311,-582.5 311,-552.5 43,-552.5"/>
<text text-anchor="start" x="50" y="-563.9" font-family="Arial" font-size="14.00" fill="#000000">inputs.index </text>
<text text-anchor="start" x="128.5806" y="-563.9" font-family="Arial" font-size="14.00" fill="#666666">[INTEGER]</text>
<polygon fill="none" stroke="#000000" points="43,-522.5 43,-552.5 311,-552.5 311,-522.5 43,-522.5"/>
<text text-anchor="start" x="49.7981" y="-533.9" font-family="Arial" font-size="14.00" fill="#000000">inputs.spent_transaction_hash </text>
<text text-anchor="start" x="243.5371" y="-533.9" font-family="Arial" font-size="14.00" fill="#666666">[STRING]</text>
<polygon fill="none" stroke="#000000" points="43,-492.5 43,-522.5 311,-522.5 311,-492.5 43,-492.5"/>
<text text-anchor="start" x="50" y="-503.9" font-family="Arial" font-size="14.00" fill="#000000">inputs.spent_output_index </text>
<text text-anchor="start" x="217.2958" y="-503.9" font-family="Arial" font-size="14.00" fill="#666666">[INTEGER]</text>
<polygon fill="none" stroke="#000000" points="43,-462.5 43,-492.5 311,-492.5 311,-462.5 43,-462.5"/>
<text text-anchor="start" x="50" y="-473.9" font-family="Arial" font-size="14.00" fill="#000000">inputs.script_asm </text>
<text text-anchor="start" x="162.7924" y="-473.9" font-family="Arial" font-size="14.00" fill="#666666">[STRING]</text>
<polygon fill="none" stroke="#000000" points="43,-432.5 43,-462.5 311,-462.5 311,-432.5 43,-432.5"/>
<text text-anchor="start" x="50" y="-443.9" font-family="Arial" font-size="14.00" fill="#000000">inputs.script_hex </text>
<text text-anchor="start" x="158.9144" y="-443.9" font-family="Arial" font-size="14.00" fill="#666666">[STRING]</text>
<polygon fill="none" stroke="#000000" points="43,-402.5 43,-432.5 311,-432.5 311,-402.5 43,-402.5"/>
<text text-anchor="start" x="50" y="-413.9" font-family="Arial" font-size="14.00" fill="#000000">inputs.sequence </text>
<text text-anchor="start" x="155.8218" y="-413.9" font-family="Arial" font-size="14.00" fill="#666666">[INTEGER]</text>
<polygon fill="none" stroke="#000000" points="43,-372.5 43,-402.5 311,-402.5 311,-372.5 43,-372.5"/>
<text text-anchor="start" x="50" y="-383.9" font-family="Arial" font-size="14.00" fill="#000000">inputs.required_signatures </text>
<text text-anchor="start" x="218.8204" y="-383.9" font-family="Arial" font-size="14.00" fill="#666666">[INTEGER]</text>
<polygon fill="none" stroke="#000000" points="43,-342.5 43,-372.5 311,-372.5 311,-342.5 43,-342.5"/>
<text text-anchor="start" x="50" y="-353.9" font-family="Arial" font-size="14.00" fill="#000000">inputs.type </text>
<text text-anchor="start" x="121.582" y="-353.9" font-family="Arial" font-size="14.00" fill="#666666">[STRING]</text>
<polygon fill="none" stroke="#000000" points="43,-312.5 43,-342.5 311,-342.5 311,-312.5 43,-312.5"/>
<text text-anchor="start" x="50" y="-323.9" font-family="Arial" font-size="14.00" fill="#000000">inputs.addresses </text>
<text text-anchor="start" x="159.6998" y="-323.9" font-family="Arial" font-size="14.00" fill="#666666">[STRING]</text>
<polygon fill="none" stroke="#000000" points="43,-282.5 43,-312.5 311,-312.5 311,-282.5 43,-282.5"/>
<text text-anchor="start" x="50" y="-293.9" font-family="Arial" font-size="14.00" fill="#000000">inputs.value </text>
<text text-anchor="start" x="128.5806" y="-293.9" font-family="Arial" font-size="14.00" fill="#666666">[NUMERIC]</text>
<polygon fill="none" stroke="#000000" points="43,-252.5 43,-282.5 311,-282.5 311,-252.5 43,-252.5"/>
<text text-anchor="start" x="50" y="-263.9" font-family="Arial" font-size="14.00" fill="#000000">outputs </text>
<text text-anchor="start" x="99.8022" y="-263.9" font-family="Arial" font-size="14.00" fill="#666666">[RECORD]</text>
<polygon fill="none" stroke="#000000" points="43,-222.5 43,-252.5 311,-252.5 311,-222.5 43,-222.5"/>
<text text-anchor="start" x="50" y="-233.9" font-family="Arial" font-size="14.00" fill="#000000">outputs.index </text>
<text text-anchor="start" x="137.1472" y="-233.9" font-family="Arial" font-size="14.00" fill="#666666">[INTEGER]</text>
<polygon fill="none" stroke="#000000" points="43,-192.5 43,-222.5 311,-222.5 311,-192.5 43,-192.5"/>
<text text-anchor="start" x="50" y="-203.9" font-family="Arial" font-size="14.00" fill="#000000">outputs.script_asm </text>
<text text-anchor="start" x="171.359" y="-203.9" font-family="Arial" font-size="14.00" fill="#666666">[STRING]</text>
<polygon fill="none" stroke="#000000" points="43,-162.5 43,-192.5 311,-192.5 311,-162.5 43,-162.5"/>
<text text-anchor="start" x="50" y="-173.9" font-family="Arial" font-size="14.00" fill="#000000">outputs.script_hex </text>
<text text-anchor="start" x="167.481" y="-173.9" font-family="Arial" font-size="14.00" fill="#666666">[STRING]</text>
<polygon fill="none" stroke="#000000" points="43,-132.5 43,-162.5 311,-162.5 311,-132.5 43,-132.5"/>
<text text-anchor="start" x="50" y="-143.9" font-family="Arial" font-size="14.00" fill="#000000">outputs.required_signatures </text>
<text text-anchor="start" x="227.387" y="-143.9" font-family="Arial" font-size="14.00" fill="#666666">[INTEGER]</text>
<polygon fill="none" stroke="#000000" points="43,-102.5 43,-132.5 311,-132.5 311,-102.5 43,-102.5"/>
<text text-anchor="start" x="50" y="-113.9" font-family="Arial" font-size="14.00" fill="#000000">outputs.type </text>
<text text-anchor="start" x="130.1486" y="-113.9" font-family="Arial" font-size="14.00" fill="#666666">[STRING]</text>
<polygon fill="none" stroke="#000000" points="43,-72.5 43,-102.5 311,-102.5 311,-72.5 43,-72.5"/>
<text text-anchor="start" x="50" y="-83.9" font-family="Arial" font-size="14.00" fill="#000000">outputs.addresses </text>
<text text-anchor="start" x="168.2664" y="-83.9" font-family="Arial" font-size="14.00" fill="#666666">[STRING]</text>
<polygon fill="none" stroke="#000000" points="43,-42.5 43,-72.5 311,-72.5 311,-42.5 43,-42.5"/>
<text text-anchor="start" x="50" y="-53.9" font-family="Arial" font-size="14.00" fill="#000000">outputs.value </text>
<text text-anchor="start" x="137.1472" y="-53.9" font-family="Arial" font-size="14.00" fill="#666666">[NUMERIC]</text>
</g>
<!-- outputs&#45;&gt;transactions -->
<g id="edge1" class="edge">
<title>outputs:transaction_hash&#45;&gt;transactions:hash</title>
<path fill="none" stroke="#000000" stroke-dasharray="5,2" d="M228.998,-1537.1926C82.0467,-1527.9067 156.5759,-1310.365 239,-1177 257.8091,-1146.5662 292.1909,-1171.4338 311,-1141 332.847,-1105.6507 352.5556,-1047.5 311,-1047.5"/>
<polygon fill="#000000" stroke="#000000" points="229.0047,-1537.1927 238.8617,-1541.9979 234.0024,-1537.3464 239,-1537.5 239,-1537.5 239,-1537.5 234.0024,-1537.3464 239.1383,-1533.0021 229.0047,-1537.1927 229.0047,-1537.1927"/>
<text text-anchor="start" x="137.0685" y="-1547.5" font-family="Arial" font-size="10.00" fill="#000000">outputs&#45;&gt;transactions</text>
</g>
<!-- blocks -->
<g id="node3" class="node">
<title>blocks</title>
<polygon fill="#efefef" stroke="transparent" points="415,-747.5 415,-782.5 613,-782.5 613,-747.5 415,-747.5"/>
<polygon fill="none" stroke="#000000" points="415,-747.5 415,-782.5 613,-782.5 613,-747.5 415,-747.5"/>
<text text-anchor="start" x="460.4883" y="-760.3" font-family="Arial Bold" font-size="18.00" fill="#000000">blocks</text>
<text text-anchor="start" x="511.4949" y="-760.3" font-family="Arial" font-size="14.00" fill="#000000"> </text>
<text text-anchor="start" x="515.3855" y="-760.3" font-family="Arial" font-size="14.00" fill="#666666">[TABLE]</text>
<polygon fill="none" stroke="#000000" points="415,-717.5 415,-747.5 613,-747.5 613,-717.5 415,-717.5"/>
<text text-anchor="start" x="422" y="-728.9" font-family="Arial" font-size="14.00" fill="#000000">hash </text>
<text text-anchor="start" x="456.2384" y="-728.9" font-family="Arial" font-size="14.00" fill="#666666">[STRING]</text>
<polygon fill="none" stroke="#000000" points="415,-687.5 415,-717.5 613,-717.5 613,-687.5 415,-687.5"/>
<text text-anchor="start" x="422" y="-698.9" font-family="Arial" font-size="14.00" fill="#000000">size </text>
<text text-anchor="start" x="450.7798" y="-698.9" font-family="Arial" font-size="14.00" fill="#666666">[INTEGER]</text>
<polygon fill="none" stroke="#000000" points="415,-657.5 415,-687.5 613,-687.5 613,-657.5 415,-657.5"/>
<text text-anchor="start" x="422" y="-668.9" font-family="Arial" font-size="14.00" fill="#000000">stripped_size </text>
<text text-anchor="start" x="508.3506" y="-668.9" font-family="Arial" font-size="14.00" fill="#666666">[INTEGER]</text>
<polygon fill="none" stroke="#000000" points="415,-627.5 415,-657.5 613,-657.5 613,-627.5 415,-627.5"/>
<text text-anchor="start" x="422" y="-638.9" font-family="Arial" font-size="14.00" fill="#000000">weight </text>
<text text-anchor="start" x="466.3422" y="-638.9" font-family="Arial" font-size="14.00" fill="#666666">[INTEGER]</text>
<polygon fill="none" stroke="#000000" points="415,-597.5 415,-627.5 613,-627.5 613,-597.5 415,-597.5"/>
<text text-anchor="start" x="422" y="-608.9" font-family="Arial" font-size="14.00" fill="#000000">number </text>
<text text-anchor="start" x="473.3422" y="-608.9" font-family="Arial" font-size="14.00" fill="#666666">[INTEGER]</text>
<polygon fill="none" stroke="#000000" points="415,-567.5 415,-597.5 613,-597.5 613,-567.5 415,-567.5"/>
<text text-anchor="start" x="422" y="-578.9" font-family="Arial" font-size="14.00" fill="#000000">version </text>
<text text-anchor="start" x="471.0056" y="-578.9" font-family="Arial" font-size="14.00" fill="#666666">[INTEGER]</text>
<polygon fill="none" stroke="#000000" points="415,-537.5 415,-567.5 613,-567.5 613,-537.5 415,-537.5"/>
<text text-anchor="start" x="422" y="-548.9" font-family="Arial" font-size="14.00" fill="#000000">merkle_root </text>
<text text-anchor="start" x="499.7826" y="-548.9" font-family="Arial" font-size="14.00" fill="#666666">[STRING]</text>
<polygon fill="none" stroke="#000000" points="415,-507.5 415,-537.5 613,-537.5 613,-507.5 415,-507.5"/>
<text text-anchor="start" x="422" y="-518.9" font-family="Arial" font-size="14.00" fill="#000000">timestamp </text>
<text text-anchor="start" x="490.4474" y="-518.9" font-family="Arial" font-size="14.00" fill="#666666">[TIMESTAMP]</text>
<polygon fill="none" stroke="#000000" points="415,-477.5 415,-507.5 613,-507.5 613,-477.5 415,-477.5"/>
<text text-anchor="start" x="422" y="-488.9" font-family="Arial" font-size="14.00" fill="#000000">timestamp_month </text>
<text text-anchor="start" x="537.129" y="-488.9" font-family="Arial" font-size="14.00" fill="#666666">[DATE]</text>
<polygon fill="none" stroke="#000000" points="415,-447.5 415,-477.5 613,-477.5 613,-447.5 415,-447.5"/>
<text text-anchor="start" x="422" y="-458.9" font-family="Arial" font-size="14.00" fill="#000000">nonce </text>
<text text-anchor="start" x="464.021" y="-458.9" font-family="Arial" font-size="14.00" fill="#666666">[STRING]</text>
<polygon fill="none" stroke="#000000" points="415,-417.5 415,-447.5 613,-447.5 613,-417.5 415,-417.5"/>
<text text-anchor="start" x="422" y="-428.9" font-family="Arial" font-size="14.00" fill="#000000">bits </text>
<text text-anchor="start" x="447.6704" y="-428.9" font-family="Arial" font-size="14.00" fill="#666666">[STRING]</text>
<polygon fill="none" stroke="#000000" points="415,-387.5 415,-417.5 613,-417.5 613,-387.5 415,-387.5"/>
<text text-anchor="start" x="422" y="-398.9" font-family="Arial" font-size="14.00" fill="#000000">coinbase_param </text>
<text text-anchor="start" x="529.3618" y="-398.9" font-family="Arial" font-size="14.00" fill="#666666">[STRING]</text>
<polygon fill="none" stroke="#000000" points="415,-357.5 415,-387.5 613,-387.5 613,-357.5 415,-357.5"/>
<text text-anchor="start" x="421.8128" y="-368.9" font-family="Arial" font-size="14.00" fill="#000000">transaction_count </text>
<text text-anchor="start" x="536.1858" y="-368.9" font-family="Arial" font-size="14.00" fill="#666666">[INTEGER]</text>
</g>
<!-- outputs&#45;&gt;blocks -->
<g id="edge2" class="edge">
<title>outputs:block_hash&#45;&gt;blocks:hash</title>
<path fill="none" stroke="#000000" stroke-dasharray="5,2" d="M459.5156,-1501.8098C501.0348,-1437.4549 416.1484,-848.4529 415,-826 412.8773,-784.4987 373.4444,-732.5 415,-732.5"/>
<polygon fill="#000000" stroke="#000000" points="459.3146,-1501.9441 448.4999,-1503.7584 455.1573,-1504.7221 451,-1507.5 451,-1507.5 451,-1507.5 455.1573,-1504.7221 453.5001,-1511.2416 459.3146,-1501.9441 459.3146,-1501.9441"/>
<text text-anchor="start" x="457.8505" y="-1517.5" font-family="Arial" font-size="10.00" fill="#000000">outputs&#45;&gt;blocks</text>
</g>
</g>
</svg>
