<?xml version="1.0" encoding="UTF-8" standalone="no"?>
<!DOCTYPE svg PUBLIC "-//W3C//DTD SVG 1.1//EN"
 "http://www.w3.org/Graphics/SVG/1.1/DTD/svg11.dtd">
<!-- Generated by graphviz version 2.40.1 (20161225.0304)
 -->
<!-- Title: bigquery&#45;public&#45;data:crypto_bitcoin Pages: 1 -->
<svg width="1169pt" height="2873pt"
 viewBox="0.00 0.00 1169.29 2873.00" xmlns="http://www.w3.org/2000/svg" xmlns:xlink="http://www.w3.org/1999/xlink">
<g id="graph0" class="graph" transform="scale(1 1) rotate(0) translate(4 2869)">
<title>bigquery&#45;public&#45;data:crypto_bitcoin</title>
<polygon fill="#ffffff" stroke="transparent" points="-4,4 -4,-2869 1165.2922,-2869 1165.2922,4 -4,4"/>
<!-- blocks -->
<g id="node1" class="node">
<title>blocks</title>
<polygon fill="#efefef" stroke="transparent" points="216.2922,-432.5 216.2922,-467.5 414.2922,-467.5 414.2922,-432.5 216.2922,-432.5"/>
<polygon fill="none" stroke="#000000" points="216.2922,-432.5 216.2922,-467.5 414.2922,-467.5 414.2922,-432.5 216.2922,-432.5"/>
<text text-anchor="start" x="261.7805" y="-445.3" font-family="Arial Bold" font-size="18.00" fill="#000000">blocks</text>
<text text-anchor="start" x="312.7871" y="-445.3" font-family="Arial" font-size="14.00" fill="#000000"> </text>
<text text-anchor="start" x="316.6777" y="-445.3" font-family="Arial" font-size="14.00" fill="#666666">[TABLE]</text>
<polygon fill="none" stroke="#000000" points="216.2922,-402.5 216.2922,-432.5 414.2922,-432.5 414.2922,-402.5 216.2922,-402.5"/>
<text text-anchor="start" x="223.2922" y="-413.9" font-family="Arial" font-size="14.00" fill="#000000">hash </text>
<text text-anchor="start" x="257.5306" y="-413.9" font-family="Arial" font-size="14.00" fill="#666666">[STRING]</text>
<polygon fill="none" stroke="#000000" points="216.2922,-372.5 216.2922,-402.5 414.2922,-402.5 414.2922,-372.5 216.2922,-372.5"/>
<text text-anchor="start" x="223.2922" y="-383.9" font-family="Arial" font-size="14.00" fill="#000000">size </text>
<text text-anchor="start" x="252.072" y="-383.9" font-family="Arial" font-size="14.00" fill="#666666">[INTEGER]</text>
<polygon fill="none" stroke="#000000" points="216.2922,-342.5 216.2922,-372.5 414.2922,-372.5 414.2922,-342.5 216.2922,-342.5"/>
<text text-anchor="start" x="223.2922" y="-353.9" font-family="Arial" font-size="14.00" fill="#000000">stripped_size </text>
<text text-anchor="start" x="309.6428" y="-353.9" font-family="Arial" font-size="14.00" fill="#666666">[INTEGER]</text>
<polygon fill="none" stroke="#000000" points="216.2922,-312.5 216.2922,-342.5 414.2922,-342.5 414.2922,-312.5 216.2922,-312.5"/>
<text text-anchor="start" x="223.2922" y="-323.9" font-family="Arial" font-size="14.00" fill="#000000">weight </text>
<text text-anchor="start" x="267.6344" y="-323.9" font-family="Arial" font-size="14.00" fill="#666666">[INTEGER]</text>
<polygon fill="none" stroke="#000000" points="216.2922,-282.5 216.2922,-312.5 414.2922,-312.5 414.2922,-282.5 216.2922,-282.5"/>
<text text-anchor="start" x="223.2922" y="-293.9" font-family="Arial" font-size="14.00" fill="#000000">number </text>
<text text-anchor="start" x="274.6344" y="-293.9" font-family="Arial" font-size="14.00" fill="#666666">[INTEGER]</text>
<polygon fill="none" stroke="#000000" points="216.2922,-252.5 216.2922,-282.5 414.2922,-282.5 414.2922,-252.5 216.2922,-252.5"/>
<text text-anchor="start" x="223.2922" y="-263.9" font-family="Arial" font-size="14.00" fill="#000000">version </text>
<text text-anchor="start" x="272.2978" y="-263.9" font-family="Arial" font-size="14.00" fill="#666666">[INTEGER]</text>
<polygon fill="none" stroke="#000000" points="216.2922,-222.5 216.2922,-252.5 414.2922,-252.5 414.2922,-222.5 216.2922,-222.5"/>
<text text-anchor="start" x="223.2922" y="-233.9" font-family="Arial" font-size="14.00" fill="#000000">merkle_root </text>
<text text-anchor="start" x="301.0748" y="-233.9" font-family="Arial" font-size="14.00" fill="#666666">[STRING]</text>
<polygon fill="none" stroke="#000000" points="216.2922,-192.5 216.2922,-222.5 414.2922,-222.5 414.2922,-192.5 216.2922,-192.5"/>
<text text-anchor="start" x="223.2922" y="-203.9" font-family="Arial" font-size="14.00" fill="#000000">timestamp </text>
<text text-anchor="start" x="291.7396" y="-203.9" font-family="Arial" font-size="14.00" fill="#666666">[TIMESTAMP]</text>
<polygon fill="none" stroke="#000000" points="216.2922,-162.5 216.2922,-192.5 414.2922,-192.5 414.2922,-162.5 216.2922,-162.5"/>
<text text-anchor="start" x="223.2922" y="-173.9" font-family="Arial" font-size="14.00" fill="#000000">timestamp_month </text>
<text text-anchor="start" x="338.4212" y="-173.9" font-family="Arial" font-size="14.00" fill="#666666">[DATE]</text>
<polygon fill="none" stroke="#000000" points="216.2922,-132.5 216.2922,-162.5 414.2922,-162.5 414.2922,-132.5 216.2922,-132.5"/>
<text text-anchor="start" x="223.2922" y="-143.9" font-family="Arial" font-size="14.00" fill="#000000">nonce </text>
<text text-anchor="start" x="265.3132" y="-143.9" font-family="Arial" font-size="14.00" fill="#666666">[STRING]</text>
<polygon fill="none" stroke="#000000" points="216.2922,-102.5 216.2922,-132.5 414.2922,-132.5 414.2922,-102.5 216.2922,-102.5"/>
<text text-anchor="start" x="223.2922" y="-113.9" font-family="Arial" font-size="14.00" fill="#000000">bits </text>
<text text-anchor="start" x="248.9626" y="-113.9" font-family="Arial" font-size="14.00" fill="#666666">[STRING]</text>
<polygon fill="none" stroke="#000000" points="216.2922,-72.5 216.2922,-102.5 414.2922,-102.5 414.2922,-72.5 216.2922,-72.5"/>
<text text-anchor="start" x="223.2922" y="-83.9" font-family="Arial" font-size="14.00" fill="#000000">coinbase_param </text>
<text text-anchor="start" x="330.654" y="-83.9" font-family="Arial" font-size="14.00" fill="#666666">[STRING]</text>
<polygon fill="none" stroke="#000000" points="216.2922,-42.5 216.2922,-72.5 414.2922,-72.5 414.2922,-42.5 216.2922,-42.5"/>
<text text-anchor="start" x="223.105" y="-53.9" font-family="Arial" font-size="14.00" fill="#000000">transaction_count </text>
<text text-anchor="start" x="337.478" y="-53.9" font-family="Arial" font-size="14.00" fill="#666666">[INTEGER]</text>
</g>
<!-- inputs -->
<g id="node2" class="node">
<title>inputs</title>
<polygon fill="#efefef" stroke="transparent" points="83.2922,-2486.5 83.2922,-2521.5 310.2922,-2521.5 310.2922,-2486.5 83.2922,-2486.5"/>
<polygon fill="none" stroke="#000000" points="83.2922,-2486.5 83.2922,-2521.5 310.2922,-2521.5 310.2922,-2486.5 83.2922,-2486.5"/>
<text text-anchor="start" x="149.0596" y="-2499.3" font-family="Arial Bold" font-size="18.00" fill="#000000">inputs</text>
<text text-anchor="start" x="197.0746" y="-2499.3" font-family="Arial" font-size="14.00" fill="#000000"> </text>
<text text-anchor="start" x="200.9652" y="-2499.3" font-family="Arial" font-size="14.00" fill="#666666">[VIEW]</text>
<polygon fill="none" stroke="#000000" points="83.2922,-2456.5 83.2922,-2486.5 310.2922,-2486.5 310.2922,-2456.5 83.2922,-2456.5"/>
<text text-anchor="start" x="90.2922" y="-2467.9" font-family="Arial" font-size="14.00" fill="#000000">transaction_hash </text>
<text text-anchor="start" x="200.7746" y="-2467.9" font-family="Arial" font-size="14.00" fill="#666666">[STRING]</text>
<polygon fill="none" stroke="#000000" points="83.2922,-2426.5 83.2922,-2456.5 310.2922,-2456.5 310.2922,-2426.5 83.2922,-2426.5"/>
<text text-anchor="start" x="90.2922" y="-2437.9" font-family="Arial" font-size="14.00" fill="#000000">block_hash </text>
<text text-anchor="start" x="164.985" y="-2437.9" font-family="Arial" font-size="14.00" fill="#666666">[STRING]</text>
<polygon fill="none" stroke="#000000" points="83.2922,-2396.5 83.2922,-2426.5 310.2922,-2426.5 310.2922,-2396.5 83.2922,-2396.5"/>
<text text-anchor="start" x="90.2922" y="-2407.9" font-family="Arial" font-size="14.00" fill="#000000">block_number </text>
<text text-anchor="start" x="182.0888" y="-2407.9" font-family="Arial" font-size="14.00" fill="#666666">[INTEGER]</text>
<polygon fill="none" stroke="#000000" points="83.2922,-2366.5 83.2922,-2396.5 310.2922,-2396.5 310.2922,-2366.5 83.2922,-2366.5"/>
<text text-anchor="start" x="90.2922" y="-2377.9" font-family="Arial" font-size="14.00" fill="#000000">block_timestamp </text>
<text text-anchor="start" x="199.194" y="-2377.9" font-family="Arial" font-size="14.00" fill="#666666">[TIMESTAMP]</text>
<polygon fill="none" stroke="#000000" points="83.2922,-2336.5 83.2922,-2366.5 310.2922,-2366.5 310.2922,-2336.5 83.2922,-2336.5"/>
<text text-anchor="start" x="90.2922" y="-2347.9" font-family="Arial" font-size="14.00" fill="#000000">index </text>
<text text-anchor="start" x="127.6372" y="-2347.9" font-family="Arial" font-size="14.00" fill="#666666">[INTEGER]</text>
<polygon fill="none" stroke="#000000" points="83.2922,-2306.5 83.2922,-2336.5 310.2922,-2336.5 310.2922,-2306.5 83.2922,-2306.5"/>
<text text-anchor="start" x="90.2081" y="-2317.9" font-family="Arial" font-size="14.00" fill="#000000">spent_transaction_hash </text>
<text text-anchor="start" x="242.7115" y="-2317.9" font-family="Arial" font-size="14.00" fill="#666666">[STRING]</text>
<polygon fill="none" stroke="#000000" points="83.2922,-2276.5 83.2922,-2306.5 310.2922,-2306.5 310.2922,-2276.5 83.2922,-2276.5"/>
<text text-anchor="start" x="90.2922" y="-2287.9" font-family="Arial" font-size="14.00" fill="#000000">spent_output_index </text>
<text text-anchor="start" x="216.3524" y="-2287.9" font-family="Arial" font-size="14.00" fill="#666666">[INTEGER]</text>
<polygon fill="none" stroke="#000000" points="83.2922,-2246.5 83.2922,-2276.5 310.2922,-2276.5 310.2922,-2246.5 83.2922,-2246.5"/>
<text text-anchor="start" x="90.2922" y="-2257.9" font-family="Arial" font-size="14.00" fill="#000000">script_asm </text>
<text text-anchor="start" x="161.849" y="-2257.9" font-family="Arial" font-size="14.00" fill="#666666">[STRING]</text>
<polygon fill="none" stroke="#000000" points="83.2922,-2216.5 83.2922,-2246.5 310.2922,-2246.5 310.2922,-2216.5 83.2922,-2216.5"/>
<text text-anchor="start" x="90.2922" y="-2227.9" font-family="Arial" font-size="14.00" fill="#000000">script_hex </text>
<text text-anchor="start" x="157.971" y="-2227.9" font-family="Arial" font-size="14.00" fill="#666666">[STRING]</text>
<polygon fill="none" stroke="#000000" points="83.2922,-2186.5 83.2922,-2216.5 310.2922,-2216.5 310.2922,-2186.5 83.2922,-2186.5"/>
<text text-anchor="start" x="90.2922" y="-2197.9" font-family="Arial" font-size="14.00" fill="#000000">sequence </text>
<text text-anchor="start" x="154.8784" y="-2197.9" font-family="Arial" font-size="14.00" fill="#666666">[INTEGER]</text>
<polygon fill="none" stroke="#000000" points="83.2922,-2156.5 83.2922,-2186.5 310.2922,-2186.5 310.2922,-2156.5 83.2922,-2156.5"/>
<text text-anchor="start" x="90.2922" y="-2167.9" font-family="Arial" font-size="14.00" fill="#000000">required_signatures </text>
<text text-anchor="start" x="217.877" y="-2167.9" font-family="Arial" font-size="14.00" fill="#666666">[INTEGER]</text>
<polygon fill="none" stroke="#000000" points="83.2922,-2126.5 83.2922,-2156.5 310.2922,-2156.5 310.2922,-2126.5 83.2922,-2126.5"/>
<text text-anchor="start" x="90.2922" y="-2137.9" font-family="Arial" font-size="14.00" fill="#000000">type </text>
<text text-anchor="start" x="120.6386" y="-2137.9" font-family="Arial" font-size="14.00" fill="#666666">[STRING]</text>
<polygon fill="none" stroke="#000000" points="83.2922,-2096.5 83.2922,-2126.5 310.2922,-2126.5 310.2922,-2096.5 83.2922,-2096.5"/>
<text text-anchor="start" x="90.2922" y="-2107.9" font-family="Arial" font-size="14.00" fill="#000000">addresses </text>
<text text-anchor="start" x="158.7564" y="-2107.9" font-family="Arial" font-size="14.00" fill="#666666">[STRING]</text>
<polygon fill="none" stroke="#000000" points="83.2922,-2066.5 83.2922,-2096.5 310.2922,-2096.5 310.2922,-2066.5 83.2922,-2066.5"/>
<text text-anchor="start" x="90.2922" y="-2077.9" font-family="Arial" font-size="14.00" fill="#000000">value </text>
<text text-anchor="start" x="127.6372" y="-2077.9" font-family="Arial" font-size="14.00" fill="#666666">[NUMERIC]</text>
</g>
<!-- inputs&#45;&gt;blocks -->
<g id="edge4" class="edge">
<title>inputs:block_hash&#45;&gt;blocks:hash</title>
<path fill="none" stroke="#000000" stroke-dasharray="5,2" d="M73.0884,-2441.2496C-95.3715,-2432.6822 80.4588,-2206 83.2922,-2024 88.8684,-1665.8221 -141.9291,-417.5 216.2922,-417.5"/>
<polygon fill="#000000" stroke="#000000" points="73.2952,-2441.2545 83.1818,-2445.9986 78.2937,-2441.3773 83.2922,-2441.5 83.2922,-2441.5 83.2922,-2441.5 78.2937,-2441.3773 83.4027,-2437.0014 73.2952,-2441.2545 73.2952,-2441.2545"/>
<text text-anchor="start" x="12.2022" y="-2451.5" font-family="Arial" font-size="10.00" fill="#000000">inputs&#45;&gt;blocks</text>
</g>
<!-- transactions -->
<g id="node4" class="node">
<title>transactions</title>
<polygon fill="#efefef" stroke="transparent" points="181.2922,-1609.5 181.2922,-1644.5 449.2922,-1644.5 449.2922,-1609.5 181.2922,-1609.5"/>
<polygon fill="none" stroke="#000000" points="181.2922,-1609.5 181.2922,-1644.5 449.2922,-1644.5 449.2922,-1609.5 181.2922,-1609.5"/>
<text text-anchor="start" x="238.7729" y="-1622.3" font-family="Arial Bold" font-size="18.00" fill="#000000">transactions</text>
<text text-anchor="start" x="335.7947" y="-1622.3" font-family="Arial" font-size="14.00" fill="#000000"> </text>
<text text-anchor="start" x="339.6853" y="-1622.3" font-family="Arial" font-size="14.00" fill="#666666">[TABLE]</text>
<polygon fill="none" stroke="#000000" points="181.2922,-1579.5 181.2922,-1609.5 449.2922,-1609.5 449.2922,-1579.5 181.2922,-1579.5"/>
<text text-anchor="start" x="188.2922" y="-1590.9" font-family="Arial" font-size="14.00" fill="#000000">hash </text>
<text text-anchor="start" x="222.5306" y="-1590.9" font-family="Arial" font-size="14.00" fill="#666666">[STRING]</text>
<polygon fill="none" stroke="#000000" points="181.2922,-1549.5 181.2922,-1579.5 449.2922,-1579.5 449.2922,-1549.5 181.2922,-1549.5"/>
<text text-anchor="start" x="188.2922" y="-1560.9" font-family="Arial" font-size="14.00" fill="#000000">size </text>
<text text-anchor="start" x="217.072" y="-1560.9" font-family="Arial" font-size="14.00" fill="#666666">[INTEGER]</text>
<polygon fill="none" stroke="#000000" points="181.2922,-1519.5 181.2922,-1549.5 449.2922,-1549.5 449.2922,-1519.5 181.2922,-1519.5"/>
<text text-anchor="start" x="188.2922" y="-1530.9" font-family="Arial" font-size="14.00" fill="#000000">virtual_size </text>
<text text-anchor="start" x="262.1842" y="-1530.9" font-family="Arial" font-size="14.00" fill="#666666">[INTEGER]</text>
<polygon fill="none" stroke="#000000" points="181.2922,-1489.5 181.2922,-1519.5 449.2922,-1519.5 449.2922,-1489.5 181.2922,-1489.5"/>
<text text-anchor="start" x="188.2922" y="-1500.9" font-family="Arial" font-size="14.00" fill="#000000">version </text>
<text text-anchor="start" x="237.2978" y="-1500.9" font-family="Arial" font-size="14.00" fill="#666666">[INTEGER]</text>
<polygon fill="none" stroke="#000000" points="181.2922,-1459.5 181.2922,-1489.5 449.2922,-1489.5 449.2922,-1459.5 181.2922,-1459.5"/>
<text text-anchor="start" x="188.2922" y="-1470.9" font-family="Arial" font-size="14.00" fill="#000000">lock_time </text>
<text text-anchor="start" x="251.295" y="-1470.9" font-family="Arial" font-size="14.00" fill="#666666">[INTEGER]</text>
<polygon fill="none" stroke="#000000" points="181.2922,-1429.5 181.2922,-1459.5 449.2922,-1459.5 449.2922,-1429.5 181.2922,-1429.5"/>
<text text-anchor="start" x="188.2922" y="-1440.9" font-family="Arial" font-size="14.00" fill="#000000">block_hash </text>
<text text-anchor="start" x="262.985" y="-1440.9" font-family="Arial" font-size="14.00" fill="#666666">[STRING]</text>
<polygon fill="none" stroke="#000000" points="181.2922,-1399.5 181.2922,-1429.5 449.2922,-1429.5 449.2922,-1399.5 181.2922,-1399.5"/>
<text text-anchor="start" x="188.2922" y="-1410.9" font-family="Arial" font-size="14.00" fill="#000000">block_number </text>
<text text-anchor="start" x="280.0888" y="-1410.9" font-family="Arial" font-size="14.00" fill="#666666">[INTEGER]</text>
<polygon fill="none" stroke="#000000" points="181.2922,-1369.5 181.2922,-1399.5 449.2922,-1399.5 449.2922,-1369.5 181.2922,-1369.5"/>
<text text-anchor="start" x="188.2922" y="-1380.9" font-family="Arial" font-size="14.00" fill="#000000">block_timestamp </text>
<text text-anchor="start" x="297.194" y="-1380.9" font-family="Arial" font-size="14.00" fill="#666666">[TIMESTAMP]</text>
<polygon fill="none" stroke="#000000" points="181.2922,-1339.5 181.2922,-1369.5 449.2922,-1369.5 449.2922,-1339.5 181.2922,-1339.5"/>
<text text-anchor="start" x="188.2922" y="-1350.9" font-family="Arial" font-size="14.00" fill="#000000">block_timestamp_month </text>
<text text-anchor="start" x="343.8756" y="-1350.9" font-family="Arial" font-size="14.00" fill="#666666">[DATE]</text>
<polygon fill="none" stroke="#000000" points="181.2922,-1309.5 181.2922,-1339.5 449.2922,-1339.5 449.2922,-1309.5 181.2922,-1309.5"/>
<text text-anchor="start" x="188.2922" y="-1320.9" font-family="Arial" font-size="14.00" fill="#000000">input_count </text>
<text text-anchor="start" x="264.5488" y="-1320.9" font-family="Arial" font-size="14.00" fill="#666666">[INTEGER]</text>
<polygon fill="none" stroke="#000000" points="181.2922,-1279.5 181.2922,-1309.5 449.2922,-1309.5 449.2922,-1279.5 181.2922,-1279.5"/>
<text text-anchor="start" x="188.2922" y="-1290.9" font-family="Arial" font-size="14.00" fill="#000000">output_count </text>
<text text-anchor="start" x="273.1154" y="-1290.9" font-family="Arial" font-size="14.00" fill="#666666">[INTEGER]</text>
<polygon fill="none" stroke="#000000" points="181.2922,-1249.5 181.2922,-1279.5 449.2922,-1279.5 449.2922,-1249.5 181.2922,-1249.5"/>
<text text-anchor="start" x="188.2922" y="-1260.9" font-family="Arial" font-size="14.00" fill="#000000">input_value </text>
<text text-anchor="start" x="263.7648" y="-1260.9" font-family="Arial" font-size="14.00" fill="#666666">[NUMERIC]</text>
<polygon fill="none" stroke="#000000" points="181.2922,-1219.5 181.2922,-1249.5 449.2922,-1249.5 449.2922,-1219.5 181.2922,-1219.5"/>
<text text-anchor="start" x="188.2922" y="-1230.9" font-family="Arial" font-size="14.00" fill="#000000">output_value </text>
<text text-anchor="start" x="272.3314" y="-1230.9" font-family="Arial" font-size="14.00" fill="#666666">[NUMERIC]</text>
<polygon fill="none" stroke="#000000" points="181.2922,-1189.5 181.2922,-1219.5 449.2922,-1219.5 449.2922,-1189.5 181.2922,-1189.5"/>
<text text-anchor="start" x="188.2922" y="-1200.9" font-family="Arial" font-size="14.00" fill="#000000">is_coinbase </text>
<text text-anchor="start" x="266.0916" y="-1200.9" font-family="Arial" font-size="14.00" fill="#666666">[BOOLEAN]</text>
<polygon fill="none" stroke="#000000" points="181.2922,-1159.5 181.2922,-1189.5 449.2922,-1189.5 449.2922,-1159.5 181.2922,-1159.5"/>
<text text-anchor="start" x="188.2922" y="-1170.9" font-family="Arial" font-size="14.00" fill="#000000">fee </text>
<text text-anchor="start" x="211.6386" y="-1170.9" font-family="Arial" font-size="14.00" fill="#666666">[NUMERIC]</text>
<polygon fill="none" stroke="#000000" points="181.2922,-1129.5 181.2922,-1159.5 449.2922,-1159.5 449.2922,-1129.5 181.2922,-1129.5"/>
<text text-anchor="start" x="188.2922" y="-1140.9" font-family="Arial" font-size="14.00" fill="#000000">inputs </text>
<text text-anchor="start" x="229.5278" y="-1140.9" font-family="Arial" font-size="14.00" fill="#666666">[RECORD]</text>
<polygon fill="none" stroke="#000000" points="181.2922,-1099.5 181.2922,-1129.5 449.2922,-1129.5 449.2922,-1099.5 181.2922,-1099.5"/>
<text text-anchor="start" x="188.2922" y="-1110.9" font-family="Arial" font-size="14.00" fill="#000000">inputs.index </text>
<text text-anchor="start" x="266.8728" y="-1110.9" font-family="Arial" font-size="14.00" fill="#666666">[INTEGER]</text>
<polygon fill="none" stroke="#000000" points="181.2922,-1069.5 181.2922,-1099.5 449.2922,-1099.5 449.2922,-1069.5 181.2922,-1069.5"/>
<text text-anchor="start" x="188.0903" y="-1080.9" font-family="Arial" font-size="14.00" fill="#000000">inputs.spent_transaction_hash </text>
<text text-anchor="start" x="381.8293" y="-1080.9" font-family="Arial" font-size="14.00" fill="#666666">[STRING]</text>
<polygon fill="none" stroke="#000000" points="181.2922,-1039.5 181.2922,-1069.5 449.2922,-1069.5 449.2922,-1039.5 181.2922,-1039.5"/>
<text text-anchor="start" x="188.2922" y="-1050.9" font-family="Arial" font-size="14.00" fill="#000000">inputs.spent_output_index </text>
<text text-anchor="start" x="355.588" y="-1050.9" font-family="Arial" font-size="14.00" fill="#666666">[INTEGER]</text>
<polygon fill="none" stroke="#000000" points="181.2922,-1009.5 181.2922,-1039.5 449.2922,-1039.5 449.2922,-1009.5 181.2922,-1009.5"/>
<text text-anchor="start" x="188.2922" y="-1020.9" font-family="Arial" font-size="14.00" fill="#000000">inputs.script_asm </text>
<text text-anchor="start" x="301.0846" y="-1020.9" font-family="Arial" font-size="14.00" fill="#666666">[STRING]</text>
<polygon fill="none" stroke="#000000" points="181.2922,-979.5 181.2922,-1009.5 449.2922,-1009.5 449.2922,-979.5 181.2922,-979.5"/>
<text text-anchor="start" x="188.2922" y="-990.9" font-family="Arial" font-size="14.00" fill="#000000">inputs.script_hex </text>
<text text-anchor="start" x="297.2066" y="-990.9" font-family="Arial" font-size="14.00" fill="#666666">[STRING]</text>
<polygon fill="none" stroke="#000000" points="181.2922,-949.5 181.2922,-979.5 449.2922,-979.5 449.2922,-949.5 181.2922,-949.5"/>
<text text-anchor="start" x="188.2922" y="-960.9" font-family="Arial" font-size="14.00" fill="#000000">inputs.sequence </text>
<text text-anchor="start" x="294.114" y="-960.9" font-family="Arial" font-size="14.00" fill="#666666">[INTEGER]</text>
<polygon fill="none" stroke="#000000" points="181.2922,-919.5 181.2922,-949.5 449.2922,-949.5 449.2922,-919.5 181.2922,-919.5"/>
<text text-anchor="start" x="188.2922" y="-930.9" font-family="Arial" font-size="14.00" fill="#000000">inputs.required_signatures </text>
<text text-anchor="start" x="357.1126" y="-930.9" font-family="Arial" font-size="14.00" fill="#666666">[INTEGER]</text>
<polygon fill="none" stroke="#000000" points="181.2922,-889.5 181.2922,-919.5 449.2922,-919.5 449.2922,-889.5 181.2922,-889.5"/>
<text text-anchor="start" x="188.2922" y="-900.9" font-family="Arial" font-size="14.00" fill="#000000">inputs.type </text>
<text text-anchor="start" x="259.8742" y="-900.9" font-family="Arial" font-size="14.00" fill="#666666">[STRING]</text>
<polygon fill="none" stroke="#000000" points="181.2922,-859.5 181.2922,-889.5 449.2922,-889.5 449.2922,-859.5 181.2922,-859.5"/>
<text text-anchor="start" x="188.2922" y="-870.9" font-family="Arial" font-size="14.00" fill="#000000">inputs.addresses </text>
<text text-anchor="start" x="297.992" y="-870.9" font-family="Arial" font-size="14.00" fill="#666666">[STRING]</text>
<polygon fill="none" stroke="#000000" points="181.2922,-829.5 181.2922,-859.5 449.2922,-859.5 449.2922,-829.5 181.2922,-829.5"/>
<text text-anchor="start" x="188.2922" y="-840.9" font-family="Arial" font-size="14.00" fill="#000000">inputs.value </text>
<text text-anchor="start" x="266.8728" y="-840.9" font-family="Arial" font-size="14.00" fill="#666666">[NUMERIC]</text>
<polygon fill="none" stroke="#000000" points="181.2922,-799.5 181.2922,-829.5 449.2922,-829.5 449.2922,-799.5 181.2922,-799.5"/>
<text text-anchor="start" x="188.2922" y="-810.9" font-family="Arial" font-size="14.00" fill="#000000">outputs </text>
<text text-anchor="start" x="238.0944" y="-810.9" font-family="Arial" font-size="14.00" fill="#666666">[RECORD]</text>
<polygon fill="none" stroke="#000000" points="181.2922,-769.5 181.2922,-799.5 449.2922,-799.5 449.2922,-769.5 181.2922,-769.5"/>
<text text-anchor="start" x="188.2922" y="-780.9" font-family="Arial" font-size="14.00" fill="#000000">outputs.index </text>
<text text-anchor="start" x="275.4394" y="-780.9" font-family="Arial" font-size="14.00" fill="#666666">[INTEGER]</text>
<polygon fill="none" stroke="#000000" points="181.2922,-739.5 181.2922,-769.5 449.2922,-769.5 449.2922,-739.5 181.2922,-739.5"/>
<text text-anchor="start" x="188.2922" y="-750.9" font-family="Arial" font-size="14.00" fill="#000000">outputs.script_asm </text>
<text text-anchor="start" x="309.6512" y="-750.9" font-family="Arial" font-size="14.00" fill="#666666">[STRING]</text>
<polygon fill="none" stroke="#000000" points="181.2922,-709.5 181.2922,-739.5 449.2922,-739.5 449.2922,-709.5 181.2922,-709.5"/>
<text text-anchor="start" x="188.2922" y="-720.9" font-family="Arial" font-size="14.00" fill="#000000">outputs.script_hex </text>
<text text-anchor="start" x="305.7732" y="-720.9" font-family="Arial" font-size="14.00" fill="#666666">[STRING]</text>
<polygon fill="none" stroke="#000000" points="181.2922,-679.5 181.2922,-709.5 449.2922,-709.5 449.2922,-679.5 181.2922,-679.5"/>
<text text-anchor="start" x="188.2922" y="-690.9" font-family="Arial" font-size="14.00" fill="#000000">outputs.required_signatures </text>
<text text-anchor="start" x="365.6792" y="-690.9" font-family="Arial" font-size="14.00" fill="#666666">[INTEGER]</text>
<polygon fill="none" stroke="#000000" points="181.2922,-649.5 181.2922,-679.5 449.2922,-679.5 449.2922,-649.5 181.2922,-649.5"/>
<text text-anchor="start" x="188.2922" y="-660.9" font-family="Arial" font-size="14.00" fill="#000000">outputs.type </text>
<text text-anchor="start" x="268.4408" y="-660.9" font-family="Arial" font-size="14.00" fill="#666666">[STRING]</text>
<polygon fill="none" stroke="#000000" points="181.2922,-619.5 181.2922,-649.5 449.2922,-649.5 449.2922,-619.5 181.2922,-619.5"/>
<text text-anchor="start" x="188.2922" y="-630.9" font-family="Arial" font-size="14.00" fill="#000000">outputs.addresses </text>
<text text-anchor="start" x="306.5586" y="-630.9" font-family="Arial" font-size="14.00" fill="#666666">[STRING]</text>
<polygon fill="none" stroke="#000000" points="181.2922,-589.5 181.2922,-619.5 449.2922,-619.5 449.2922,-589.5 181.2922,-589.5"/>
<text text-anchor="start" x="188.2922" y="-600.9" font-family="Arial" font-size="14.00" fill="#000000">outputs.value </text>
<text text-anchor="start" x="275.4394" y="-600.9" font-family="Arial" font-size="14.00" fill="#666666">[NUMERIC]</text>
</g>
<!-- inputs&#45;&gt;transactions -->
<g id="edge2" class="edge">
<title>inputs:transaction_hash&#45;&gt;transactions:hash</title>
<path fill="none" stroke="#000000" stroke-dasharray="5,2" d="M320.3753,-2470.1586C403.9426,-2446.5561 327.7624,-2118.2457 310.2922,-2024 281.1372,-1866.7183 210.4472,-1845.2817 181.2922,-1688 173.7182,-1647.1405 139.7367,-1594.5 181.2922,-1594.5"/>
<polygon fill="#000000" stroke="#000000" points="320.2049,-2470.1812 309.6988,-2467.0393 315.2486,-2470.8406 310.2922,-2471.5 310.2922,-2471.5 310.2922,-2471.5 315.2486,-2470.8406 310.8857,-2475.9607 320.2049,-2470.1812 320.2049,-2470.1812"/>
<text text-anchor="start" x="317.4202" y="-2481.5" font-family="Arial" font-size="10.00" fill="#000000">inputs&#45;&gt;transactions</text>
</g>
<!-- inputs&#45;&gt;transactions -->
<g id="edge3" class="edge">
<title>inputs:spent_transaction_hash&#45;&gt;transactions:hash</title>
<path fill="none" stroke="#000000" stroke-dasharray="5,2" d="M320.0869,-2319.4794C370.616,-2296.5716 321.6829,-2085.4488 310.2922,-2024 281.1372,-1866.7183 210.4472,-1845.2817 181.2922,-1688 173.7182,-1647.1405 139.7367,-1594.5 181.2922,-1594.5"/>
<polygon fill="#000000" stroke="#000000" points="320.086,-2319.4795 309.383,-2317.0928 315.1891,-2320.4898 310.2922,-2321.5 310.2922,-2321.5 310.2922,-2321.5 315.1891,-2320.4898 311.2014,-2325.9072 320.086,-2319.4795 320.086,-2319.4795"/>
<text text-anchor="start" x="317.4202" y="-2331.5" font-family="Arial" font-size="10.00" fill="#000000">inputs&#45;&gt;transactions</text>
</g>
<!-- outputs -->
<g id="node3" class="node">
<title>outputs</title>
<polygon fill="#efefef" stroke="transparent" points="414.2922,-2441.5 414.2922,-2476.5 626.2922,-2476.5 626.2922,-2441.5 414.2922,-2441.5"/>
<polygon fill="none" stroke="#000000" points="414.2922,-2441.5 414.2922,-2476.5 626.2922,-2476.5 626.2922,-2441.5 414.2922,-2441.5"/>
<text text-anchor="start" x="467.0525" y="-2454.3" font-family="Arial Bold" font-size="18.00" fill="#000000">outputs</text>
<text text-anchor="start" x="526.0817" y="-2454.3" font-family="Arial" font-size="14.00" fill="#000000"> </text>
<text text-anchor="start" x="529.9723" y="-2454.3" font-family="Arial" font-size="14.00" fill="#666666">[VIEW]</text>
<polygon fill="none" stroke="#000000" points="414.2922,-2411.5 414.2922,-2441.5 626.2922,-2441.5 626.2922,-2411.5 414.2922,-2411.5"/>
<text text-anchor="start" x="421.2922" y="-2422.9" font-family="Arial" font-size="14.00" fill="#000000">transaction_hash </text>
<text text-anchor="start" x="531.7746" y="-2422.9" font-family="Arial" font-size="14.00" fill="#666666">[STRING]</text>
<polygon fill="none" stroke="#000000" points="414.2922,-2381.5 414.2922,-2411.5 626.2922,-2411.5 626.2922,-2381.5 414.2922,-2381.5"/>
<text text-anchor="start" x="421.2922" y="-2392.9" font-family="Arial" font-size="14.00" fill="#000000">block_hash </text>
<text text-anchor="start" x="495.985" y="-2392.9" font-family="Arial" font-size="14.00" fill="#666666">[STRING]</text>
<polygon fill="none" stroke="#000000" points="414.2922,-2351.5 414.2922,-2381.5 626.2922,-2381.5 626.2922,-2351.5 414.2922,-2351.5"/>
<text text-anchor="start" x="421.2922" y="-2362.9" font-family="Arial" font-size="14.00" fill="#000000">block_number </text>
<text text-anchor="start" x="513.0888" y="-2362.9" font-family="Arial" font-size="14.00" fill="#666666">[INTEGER]</text>
<polygon fill="none" stroke="#000000" points="414.2922,-2321.5 414.2922,-2351.5 626.2922,-2351.5 626.2922,-2321.5 414.2922,-2321.5"/>
<text text-anchor="start" x="421.119" y="-2332.9" font-family="Arial" font-size="14.00" fill="#000000">block_timestamp </text>
<text text-anchor="start" x="530.0208" y="-2332.9" font-family="Arial" font-size="14.00" fill="#666666">[TIMESTAMP]</text>
<polygon fill="none" stroke="#000000" points="414.2922,-2291.5 414.2922,-2321.5 626.2922,-2321.5 626.2922,-2291.5 414.2922,-2291.5"/>
<text text-anchor="start" x="421.2922" y="-2302.9" font-family="Arial" font-size="14.00" fill="#000000">index </text>
<text text-anchor="start" x="458.6372" y="-2302.9" font-family="Arial" font-size="14.00" fill="#666666">[INTEGER]</text>
<polygon fill="none" stroke="#000000" points="414.2922,-2261.5 414.2922,-2291.5 626.2922,-2291.5 626.2922,-2261.5 414.2922,-2261.5"/>
<text text-anchor="start" x="421.2922" y="-2272.9" font-family="Arial" font-size="14.00" fill="#000000">script_asm </text>
<text text-anchor="start" x="492.849" y="-2272.9" font-family="Arial" font-size="14.00" fill="#666666">[STRING]</text>
<polygon fill="none" stroke="#000000" points="414.2922,-2231.5 414.2922,-2261.5 626.2922,-2261.5 626.2922,-2231.5 414.2922,-2231.5"/>
<text text-anchor="start" x="421.2922" y="-2242.9" font-family="Arial" font-size="14.00" fill="#000000">script_hex </text>
<text text-anchor="start" x="488.971" y="-2242.9" font-family="Arial" font-size="14.00" fill="#666666">[STRING]</text>
<polygon fill="none" stroke="#000000" points="414.2922,-2201.5 414.2922,-2231.5 626.2922,-2231.5 626.2922,-2201.5 414.2922,-2201.5"/>
<text text-anchor="start" x="421.2922" y="-2212.9" font-family="Arial" font-size="14.00" fill="#000000">required_signatures </text>
<text text-anchor="start" x="548.877" y="-2212.9" font-family="Arial" font-size="14.00" fill="#666666">[INTEGER]</text>
<polygon fill="none" stroke="#000000" points="414.2922,-2171.5 414.2922,-2201.5 626.2922,-2201.5 626.2922,-2171.5 414.2922,-2171.5"/>
<text text-anchor="start" x="421.2922" y="-2182.9" font-family="Arial" font-size="14.00" fill="#000000">type </text>
<text text-anchor="start" x="451.6386" y="-2182.9" font-family="Arial" font-size="14.00" fill="#666666">[STRING]</text>
<polygon fill="none" stroke="#000000" points="414.2922,-2141.5 414.2922,-2171.5 626.2922,-2171.5 626.2922,-2141.5 414.2922,-2141.5"/>
<text text-anchor="start" x="421.2922" y="-2152.9" font-family="Arial" font-size="14.00" fill="#000000">addresses </text>
<text text-anchor="start" x="489.7564" y="-2152.9" font-family="Arial" font-size="14.00" fill="#666666">[STRING]</text>
<polygon fill="none" stroke="#000000" points="414.2922,-2111.5 414.2922,-2141.5 626.2922,-2141.5 626.2922,-2111.5 414.2922,-2111.5"/>
<text text-anchor="start" x="421.2922" y="-2122.9" font-family="Arial" font-size="14.00" fill="#000000">value </text>
<text text-anchor="start" x="458.6372" y="-2122.9" font-family="Arial" font-size="14.00" fill="#666666">[NUMERIC]</text>
</g>
<!-- outputs&#45;&gt;blocks -->
<g id="edge6" class="edge">
<title>outputs:block_hash&#45;&gt;blocks:hash</title>
<path fill="none" stroke="#000000" stroke-dasharray="5,2" d="M636.3039,-2394.5861C692.1536,-2371.0931 629.1219,-2138.0241 626.2922,-2069 595.9802,-1329.5982 1154.3151,-417.5 414.2922,-417.5"/>
<polygon fill="#000000" stroke="#000000" points="636.1144,-2394.6223 625.4473,-2392.08 631.2033,-2395.5612 626.2922,-2396.5 626.2922,-2396.5 626.2922,-2396.5 631.2033,-2395.5612 627.1372,-2400.92 636.1144,-2394.6223 636.1144,-2394.6223"/>
<text text-anchor="start" x="549.1427" y="-2406.5" font-family="Arial" font-size="10.00" fill="#000000">outputs&#45;&gt;blocks</text>
</g>
<!-- outputs&#45;&gt;transactions -->
<g id="edge5" class="edge">
<title>outputs:transaction_hash&#45;&gt;transactions:hash</title>
<path fill="none" stroke="#000000" stroke-dasharray="5,2" d="M406.0381,-2420.3353C365.7993,-2350.6135 448.1699,-1712.487 449.2922,-1688 451.1949,-1646.488 490.8478,-1594.5 449.2922,-1594.5"/>
<polygon fill="#000000" stroke="#000000" points="406.2801,-2420.5161 411.5994,-2430.1054 410.2862,-2423.508 414.2922,-2426.5 414.2922,-2426.5 414.2922,-2426.5 410.2862,-2423.508 416.985,-2422.8946 406.2801,-2420.5161 406.2801,-2420.5161"/>
<text text-anchor="start" x="312.3607" y="-2436.5" font-family="Arial" font-size="10.00" fill="#000000">outputs&#45;&gt;transactions</text>
</g>
<!-- transactions&#45;&gt;blocks -->
<g id="edge1" class="edge">
<title>transactions:block_hash&#45;&gt;blocks:hash</title>
<path fill="none" stroke="#000000" stroke-dasharray="5,2" d="M459.1302,-1441.6038C543.0163,-1389.2102 461.9542,-642.3796 449.2922,-547 441.4462,-487.8979 473.9128,-417.5 414.2922,-417.5"/>
<polygon fill="#000000" stroke="#000000" points="458.8852,-1441.6759 448.0214,-1440.1832 454.0887,-1443.0879 449.2922,-1444.5 449.2922,-1444.5 449.2922,-1444.5 454.0887,-1443.0879 450.5631,-1448.8168 458.8852,-1441.6759 458.8852,-1441.6759"/>
<text text-anchor="start" x="456.5892" y="-1454.5" font-family="Arial" font-size="10.00" fill="#000000">transactions&#45;&gt;blocks</text>
</g>
<!-- transactions&#45;2021&#45;10&#45;28T23_18_45 -->
<g id="node5" class="node">
<title>transactions&#45;2021&#45;10&#45;28T23_18_45</title>
<polygon fill="#efefef" stroke="transparent" points="730.2922,-2786.5 730.2922,-2821.5 1118.2922,-2821.5 1118.2922,-2786.5 730.2922,-2786.5"/>
<polygon fill="none" stroke="#000000" points="730.2922,-2786.5 730.2922,-2821.5 1118.2922,-2821.5 1118.2922,-2786.5 730.2922,-2786.5"/>
<text text-anchor="start" x="736.908" y="-2799.3" font-family="Arial Bold" font-size="18.00" fill="#000000">transactions&#45;2021&#45;10&#45;28T23_18_45</text>
<text text-anchor="start" x="1023.0018" y="-2799.3" font-family="Arial" font-size="14.00" fill="#000000"> </text>
<text text-anchor="start" x="1026.8924" y="-2799.3" font-family="Arial" font-size="14.00" fill="#666666">[SNAPSHOT]</text>
<polygon fill="none" stroke="#000000" points="730.2922,-2756.5 730.2922,-2786.5 1118.2922,-2786.5 1118.2922,-2756.5 730.2922,-2756.5"/>
<text text-anchor="start" x="737.2922" y="-2767.9" font-family="Arial" font-size="14.00" fill="#000000">hash </text>
<text text-anchor="start" x="771.5306" y="-2767.9" font-family="Arial" font-size="14.00" fill="#666666">[STRING]</text>
<polygon fill="none" stroke="#000000" points="730.2922,-2726.5 730.2922,-2756.5 1118.2922,-2756.5 1118.2922,-2726.5 730.2922,-2726.5"/>
<text text-anchor="start" x="737.2922" y="-2737.9" font-family="Arial" font-size="14.00" fill="#000000">size </text>
<text text-anchor="start" x="766.072" y="-2737.9" font-family="Arial" font-size="14.00" fill="#666666">[INTEGER]</text>
<polygon fill="none" stroke="#000000" points="730.2922,-2696.5 730.2922,-2726.5 1118.2922,-2726.5 1118.2922,-2696.5 730.2922,-2696.5"/>
<text text-anchor="start" x="737.2922" y="-2707.9" font-family="Arial" font-size="14.00" fill="#000000">virtual_size </text>
<text text-anchor="start" x="811.1842" y="-2707.9" font-family="Arial" font-size="14.00" fill="#666666">[INTEGER]</text>
<polygon fill="none" stroke="#000000" points="730.2922,-2666.5 730.2922,-2696.5 1118.2922,-2696.5 1118.2922,-2666.5 730.2922,-2666.5"/>
<text text-anchor="start" x="737.2922" y="-2677.9" font-family="Arial" font-size="14.00" fill="#000000">version </text>
<text text-anchor="start" x="786.2978" y="-2677.9" font-family="Arial" font-size="14.00" fill="#666666">[INTEGER]</text>
<polygon fill="none" stroke="#000000" points="730.2922,-2636.5 730.2922,-2666.5 1118.2922,-2666.5 1118.2922,-2636.5 730.2922,-2636.5"/>
<text text-anchor="start" x="737.2922" y="-2647.9" font-family="Arial" font-size="14.00" fill="#000000">lock_time </text>
<text text-anchor="start" x="800.295" y="-2647.9" font-family="Arial" font-size="14.00" fill="#666666">[INTEGER]</text>
<polygon fill="none" stroke="#000000" points="730.2922,-2606.5 730.2922,-2636.5 1118.2922,-2636.5 1118.2922,-2606.5 730.2922,-2606.5"/>
<text text-anchor="start" x="737.2922" y="-2617.9" font-family="Arial" font-size="14.00" fill="#000000">block_hash </text>
<text text-anchor="start" x="811.985" y="-2617.9" font-family="Arial" font-size="14.00" fill="#666666">[STRING]</text>
<polygon fill="none" stroke="#000000" points="730.2922,-2576.5 730.2922,-2606.5 1118.2922,-2606.5 1118.2922,-2576.5 730.2922,-2576.5"/>
<text text-anchor="start" x="737.2922" y="-2587.9" font-family="Arial" font-size="14.00" fill="#000000">block_number </text>
<text text-anchor="start" x="829.0888" y="-2587.9" font-family="Arial" font-size="14.00" fill="#666666">[INTEGER]</text>
<polygon fill="none" stroke="#000000" points="730.2922,-2546.5 730.2922,-2576.5 1118.2922,-2576.5 1118.2922,-2546.5 730.2922,-2546.5"/>
<text text-anchor="start" x="737.2922" y="-2557.9" font-family="Arial" font-size="14.00" fill="#000000">block_timestamp </text>
<text text-anchor="start" x="846.194" y="-2557.9" font-family="Arial" font-size="14.00" fill="#666666">[TIMESTAMP]</text>
<polygon fill="none" stroke="#000000" points="730.2922,-2516.5 730.2922,-2546.5 1118.2922,-2546.5 1118.2922,-2516.5 730.2922,-2516.5"/>
<text text-anchor="start" x="737.2922" y="-2527.9" font-family="Arial" font-size="14.00" fill="#000000">block_timestamp_month </text>
<text text-anchor="start" x="892.8756" y="-2527.9" font-family="Arial" font-size="14.00" fill="#666666">[DATE]</text>
<polygon fill="none" stroke="#000000" points="730.2922,-2486.5 730.2922,-2516.5 1118.2922,-2516.5 1118.2922,-2486.5 730.2922,-2486.5"/>
<text text-anchor="start" x="737.2922" y="-2497.9" font-family="Arial" font-size="14.00" fill="#000000">input_count </text>
<text text-anchor="start" x="813.5488" y="-2497.9" font-family="Arial" font-size="14.00" fill="#666666">[INTEGER]</text>
<polygon fill="none" stroke="#000000" points="730.2922,-2456.5 730.2922,-2486.5 1118.2922,-2486.5 1118.2922,-2456.5 730.2922,-2456.5"/>
<text text-anchor="start" x="737.2922" y="-2467.9" font-family="Arial" font-size="14.00" fill="#000000">output_count </text>
<text text-anchor="start" x="822.1154" y="-2467.9" font-family="Arial" font-size="14.00" fill="#666666">[INTEGER]</text>
<polygon fill="none" stroke="#000000" points="730.2922,-2426.5 730.2922,-2456.5 1118.2922,-2456.5 1118.2922,-2426.5 730.2922,-2426.5"/>
<text text-anchor="start" x="737.2922" y="-2437.9" font-family="Arial" font-size="14.00" fill="#000000">input_value </text>
<text text-anchor="start" x="812.7648" y="-2437.9" font-family="Arial" font-size="14.00" fill="#666666">[NUMERIC]</text>
<polygon fill="none" stroke="#000000" points="730.2922,-2396.5 730.2922,-2426.5 1118.2922,-2426.5 1118.2922,-2396.5 730.2922,-2396.5"/>
<text text-anchor="start" x="737.2922" y="-2407.9" font-family="Arial" font-size="14.00" fill="#000000">output_value </text>
<text text-anchor="start" x="821.3314" y="-2407.9" font-family="Arial" font-size="14.00" fill="#666666">[NUMERIC]</text>
<polygon fill="none" stroke="#000000" points="730.2922,-2366.5 730.2922,-2396.5 1118.2922,-2396.5 1118.2922,-2366.5 730.2922,-2366.5"/>
<text text-anchor="start" x="737.2922" y="-2377.9" font-family="Arial" font-size="14.00" fill="#000000">is_coinbase </text>
<text text-anchor="start" x="815.0916" y="-2377.9" font-family="Arial" font-size="14.00" fill="#666666">[BOOLEAN]</text>
<polygon fill="none" stroke="#000000" points="730.2922,-2336.5 730.2922,-2366.5 1118.2922,-2366.5 1118.2922,-2336.5 730.2922,-2336.5"/>
<text text-anchor="start" x="737.2922" y="-2347.9" font-family="Arial" font-size="14.00" fill="#000000">fee </text>
<text text-anchor="start" x="760.6386" y="-2347.9" font-family="Arial" font-size="14.00" fill="#666666">[NUMERIC]</text>
<polygon fill="none" stroke="#000000" points="730.2922,-2306.5 730.2922,-2336.5 1118.2922,-2336.5 1118.2922,-2306.5 730.2922,-2306.5"/>
<text text-anchor="start" x="737.2922" y="-2317.9" font-family="Arial" font-size="14.00" fill="#000000">inputs </text>
<text text-anchor="start" x="778.5278" y="-2317.9" font-family="Arial" font-size="14.00" fill="#666666">[RECORD]</text>
<polygon fill="none" stroke="#000000" points="730.2922,-2276.5 730.2922,-2306.5 1118.2922,-2306.5 1118.2922,-2276.5 730.2922,-2276.5"/>
<text text-anchor="start" x="737.2922" y="-2287.9" font-family="Arial" font-size="14.00" fill="#000000">inputs.index </text>
<text text-anchor="start" x="815.8728" y="-2287.9" font-family="Arial" font-size="14.00" fill="#666666">[INTEGER]</text>
<polygon fill="none" stroke="#000000" points="730.2922,-2246.5 730.2922,-2276.5 1118.2922,-2276.5 1118.2922,-2246.5 730.2922,-2246.5"/>
<text text-anchor="start" x="737.2922" y="-2257.9" font-family="Arial" font-size="14.00" fill="#000000">inputs.spent_transaction_hash </text>
<text text-anchor="start" x="931.0312" y="-2257.9" font-family="Arial" font-size="14.00" fill="#666666">[STRING]</text>
<polygon fill="none" stroke="#000000" points="730.2922,-2216.5 730.2922,-2246.5 1118.2922,-2246.5 1118.2922,-2216.5 730.2922,-2216.5"/>
<text text-anchor="start" x="737.2922" y="-2227.9" font-family="Arial" font-size="14.00" fill="#000000">inputs.spent_output_index </text>
<text text-anchor="start" x="904.588" y="-2227.9" font-family="Arial" font-size="14.00" fill="#666666">[INTEGER]</text>
<polygon fill="none" stroke="#000000" points="730.2922,-2186.5 730.2922,-2216.5 1118.2922,-2216.5 1118.2922,-2186.5 730.2922,-2186.5"/>
<text text-anchor="start" x="737.2922" y="-2197.9" font-family="Arial" font-size="14.00" fill="#000000">inputs.script_asm </text>
<text text-anchor="start" x="850.0846" y="-2197.9" font-family="Arial" font-size="14.00" fill="#666666">[STRING]</text>
<polygon fill="none" stroke="#000000" points="730.2922,-2156.5 730.2922,-2186.5 1118.2922,-2186.5 1118.2922,-2156.5 730.2922,-2156.5"/>
<text text-anchor="start" x="737.2922" y="-2167.9" font-family="Arial" font-size="14.00" fill="#000000">inputs.script_hex </text>
<text text-anchor="start" x="846.2066" y="-2167.9" font-family="Arial" font-size="14.00" fill="#666666">[STRING]</text>
<polygon fill="none" stroke="#000000" points="730.2922,-2126.5 730.2922,-2156.5 1118.2922,-2156.5 1118.2922,-2126.5 730.2922,-2126.5"/>
<text text-anchor="start" x="737.2922" y="-2137.9" font-family="Arial" font-size="14.00" fill="#000000">inputs.sequence </text>
<text text-anchor="start" x="843.114" y="-2137.9" font-family="Arial" font-size="14.00" fill="#666666">[INTEGER]</text>
<polygon fill="none" stroke="#000000" points="730.2922,-2096.5 730.2922,-2126.5 1118.2922,-2126.5 1118.2922,-2096.5 730.2922,-2096.5"/>
<text text-anchor="start" x="737.2922" y="-2107.9" font-family="Arial" font-size="14.00" fill="#000000">inputs.required_signatures </text>
<text text-anchor="start" x="906.1126" y="-2107.9" font-family="Arial" font-size="14.00" fill="#666666">[INTEGER]</text>
<polygon fill="none" stroke="#000000" points="730.2922,-2066.5 730.2922,-2096.5 1118.2922,-2096.5 1118.2922,-2066.5 730.2922,-2066.5"/>
<text text-anchor="start" x="737.2922" y="-2077.9" font-family="Arial" font-size="14.00" fill="#000000">inputs.type </text>
<text text-anchor="start" x="808.8742" y="-2077.9" font-family="Arial" font-size="14.00" fill="#666666">[STRING]</text>
<polygon fill="none" stroke="#000000" points="730.2922,-2036.5 730.2922,-2066.5 1118.2922,-2066.5 1118.2922,-2036.5 730.2922,-2036.5"/>
<text text-anchor="start" x="737.2922" y="-2047.9" font-family="Arial" font-size="14.00" fill="#000000">inputs.addresses </text>
<text text-anchor="start" x="846.992" y="-2047.9" font-family="Arial" font-size="14.00" fill="#666666">[STRING]</text>
<polygon fill="none" stroke="#000000" points="730.2922,-2006.5 730.2922,-2036.5 1118.2922,-2036.5 1118.2922,-2006.5 730.2922,-2006.5"/>
<text text-anchor="start" x="737.2922" y="-2017.9" font-family="Arial" font-size="14.00" fill="#000000">inputs.value </text>
<text text-anchor="start" x="815.8728" y="-2017.9" font-family="Arial" font-size="14.00" fill="#666666">[NUMERIC]</text>
<polygon fill="none" stroke="#000000" points="730.2922,-1976.5 730.2922,-2006.5 1118.2922,-2006.5 1118.2922,-1976.5 730.2922,-1976.5"/>
<text text-anchor="start" x="737.2922" y="-1987.9" font-family="Arial" font-size="14.00" fill="#000000">outputs </text>
<text text-anchor="start" x="787.0944" y="-1987.9" font-family="Arial" font-size="14.00" fill="#666666">[RECORD]</text>
<polygon fill="none" stroke="#000000" points="730.2922,-1946.5 730.2922,-1976.5 1118.2922,-1976.5 1118.2922,-1946.5 730.2922,-1946.5"/>
<text text-anchor="start" x="737.2922" y="-1957.9" font-family="Arial" font-size="14.00" fill="#000000">outputs.index </text>
<text text-anchor="start" x="824.4394" y="-1957.9" font-family="Arial" font-size="14.00" fill="#666666">[INTEGER]</text>
<polygon fill="none" stroke="#000000" points="730.2922,-1916.5 730.2922,-1946.5 1118.2922,-1946.5 1118.2922,-1916.5 730.2922,-1916.5"/>
<text text-anchor="start" x="737.2922" y="-1927.9" font-family="Arial" font-size="14.00" fill="#000000">outputs.script_asm </text>
<text text-anchor="start" x="858.6512" y="-1927.9" font-family="Arial" font-size="14.00" fill="#666666">[STRING]</text>
<polygon fill="none" stroke="#000000" points="730.2922,-1886.5 730.2922,-1916.5 1118.2922,-1916.5 1118.2922,-1886.5 730.2922,-1886.5"/>
<text text-anchor="start" x="737.2922" y="-1897.9" font-family="Arial" font-size="14.00" fill="#000000">outputs.script_hex </text>
<text text-anchor="start" x="854.7732" y="-1897.9" font-family="Arial" font-size="14.00" fill="#666666">[STRING]</text>
<polygon fill="none" stroke="#000000" points="730.2922,-1856.5 730.2922,-1886.5 1118.2922,-1886.5 1118.2922,-1856.5 730.2922,-1856.5"/>
<text text-anchor="start" x="737.2922" y="-1867.9" font-family="Arial" font-size="14.00" fill="#000000">outputs.required_signatures </text>
<text text-anchor="start" x="914.6792" y="-1867.9" font-family="Arial" font-size="14.00" fill="#666666">[INTEGER]</text>
<polygon fill="none" stroke="#000000" points="730.2922,-1826.5 730.2922,-1856.5 1118.2922,-1856.5 1118.2922,-1826.5 730.2922,-1826.5"/>
<text text-anchor="start" x="737.2922" y="-1837.9" font-family="Arial" font-size="14.00" fill="#000000">outputs.type </text>
<text text-anchor="start" x="817.4408" y="-1837.9" font-family="Arial" font-size="14.00" fill="#666666">[STRING]</text>
<polygon fill="none" stroke="#000000" points="730.2922,-1796.5 730.2922,-1826.5 1118.2922,-1826.5 1118.2922,-1796.5 730.2922,-1796.5"/>
<text text-anchor="start" x="737.2922" y="-1807.9" font-family="Arial" font-size="14.00" fill="#000000">outputs.addresses </text>
<text text-anchor="start" x="855.5586" y="-1807.9" font-family="Arial" font-size="14.00" fill="#666666">[STRING]</text>
<polygon fill="none" stroke="#000000" points="730.2922,-1766.5 730.2922,-1796.5 1118.2922,-1796.5 1118.2922,-1766.5 730.2922,-1766.5"/>
<text text-anchor="start" x="737.2922" y="-1777.9" font-family="Arial" font-size="14.00" fill="#000000">outputs.value </text>
<text text-anchor="start" x="824.4394" y="-1777.9" font-family="Arial" font-size="14.00" fill="#666666">[NUMERIC]</text>
</g>
</g>
</svg>
