<?xml version="1.0" encoding="UTF-8" standalone="no"?>
<!DOCTYPE svg PUBLIC "-//W3C//DTD SVG 1.1//EN"
 "http://www.w3.org/Graphics/SVG/1.1/DTD/svg11.dtd">
<!-- Generated by graphviz version 2.40.1 (20161225.0304)
 -->
<!-- Title: transactions Pages: 1 -->
<svg width="660pt" height="2279pt"
 viewBox="0.00 0.00 660.00 2279.00" xmlns="http://www.w3.org/2000/svg" xmlns:xlink="http://www.w3.org/1999/xlink">
<g id="graph0" class="graph" transform="scale(1 1) rotate(0) translate(4 2275)">
<title>transactions</title>
<polygon fill="#ffffff" stroke="transparent" points="-4,4 -4,-2275 656,-2275 656,4 -4,4"/>
<!-- transactions -->
<g id="node1" class="node">
<title>transactions</title>
<polygon fill="#efefef" stroke="transparent" points="46,-1612.5 46,-1647.5 314,-1647.5 314,-1612.5 46,-1612.5"/>
<polygon fill="none" stroke="#000000" points="46,-1612.5 46,-1647.5 314,-1647.5 314,-1612.5 46,-1612.5"/>
<text text-anchor="start" x="103.4807" y="-1625.3" font-family="Arial Bold" font-size="18.00" fill="#000000">transactions</text>
<text text-anchor="start" x="200.5025" y="-1625.3" font-family="Arial" font-size="14.00" fill="#000000"> </text>
<text text-anchor="start" x="204.3931" y="-1625.3" font-family="Arial" font-size="14.00" fill="#666666">[TABLE]</text>
<polygon fill="none" stroke="#000000" points="46,-1582.5 46,-1612.5 314,-1612.5 314,-1582.5 46,-1582.5"/>
<text text-anchor="start" x="53" y="-1593.9" font-family="Arial" font-size="14.00" fill="#000000">hash </text>
<text text-anchor="start" x="87.2384" y="-1593.9" font-family="Arial" font-size="14.00" fill="#666666">[STRING]</text>
<polygon fill="none" stroke="#000000" points="46,-1552.5 46,-1582.5 314,-1582.5 314,-1552.5 46,-1552.5"/>
<text text-anchor="start" x="53" y="-1563.9" font-family="Arial" font-size="14.00" fill="#000000">size </text>
<text text-anchor="start" x="81.7798" y="-1563.9" font-family="Arial" font-size="14.00" fill="#666666">[INTEGER]</text>
<polygon fill="none" stroke="#000000" points="46,-1522.5 46,-1552.5 314,-1552.5 314,-1522.5 46,-1522.5"/>
<text text-anchor="start" x="53" y="-1533.9" font-family="Arial" font-size="14.00" fill="#000000">virtual_size </text>
<text text-anchor="start" x="126.892" y="-1533.9" font-family="Arial" font-size="14.00" fill="#666666">[INTEGER]</text>
<polygon fill="none" stroke="#000000" points="46,-1492.5 46,-1522.5 314,-1522.5 314,-1492.5 46,-1492.5"/>
<text text-anchor="start" x="53" y="-1503.9" font-family="Arial" font-size="14.00" fill="#000000">version </text>
<text text-anchor="start" x="102.0056" y="-1503.9" font-family="Arial" font-size="14.00" fill="#666666">[INTEGER]</text>
<polygon fill="none" stroke="#000000" points="46,-1462.5 46,-1492.5 314,-1492.5 314,-1462.5 46,-1462.5"/>
<text text-anchor="start" x="53" y="-1473.9" font-family="Arial" font-size="14.00" fill="#000000">lock_time </text>
<text text-anchor="start" x="116.0028" y="-1473.9" font-family="Arial" font-size="14.00" fill="#666666">[INTEGER]</text>
<polygon fill="none" stroke="#000000" points="46,-1432.5 46,-1462.5 314,-1462.5 314,-1432.5 46,-1432.5"/>
<text text-anchor="start" x="53" y="-1443.9" font-family="Arial" font-size="14.00" fill="#000000">block_hash </text>
<text text-anchor="start" x="127.6928" y="-1443.9" font-family="Arial" font-size="14.00" fill="#666666">[STRING]</text>
<polygon fill="none" stroke="#000000" points="46,-1402.5 46,-1432.5 314,-1432.5 314,-1402.5 46,-1402.5"/>
<text text-anchor="start" x="53" y="-1413.9" font-family="Arial" font-size="14.00" fill="#000000">block_number </text>
<text text-anchor="start" x="144.7966" y="-1413.9" font-family="Arial" font-size="14.00" fill="#666666">[INTEGER]</text>
<polygon fill="none" stroke="#000000" points="46,-1372.5 46,-1402.5 314,-1402.5 314,-1372.5 46,-1372.5"/>
<text text-anchor="start" x="53" y="-1383.9" font-family="Arial" font-size="14.00" fill="#000000">block_timestamp </text>
<text text-anchor="start" x="161.9018" y="-1383.9" font-family="Arial" font-size="14.00" fill="#666666">[TIMESTAMP]</text>
<polygon fill="none" stroke="#000000" points="46,-1342.5 46,-1372.5 314,-1372.5 314,-1342.5 46,-1342.5"/>
<text text-anchor="start" x="53" y="-1353.9" font-family="Arial" font-size="14.00" fill="#000000">block_timestamp_month </text>
<text text-anchor="start" x="208.5834" y="-1353.9" font-family="Arial" font-size="14.00" fill="#666666">[DATE]</text>
<polygon fill="none" stroke="#000000" points="46,-1312.5 46,-1342.5 314,-1342.5 314,-1312.5 46,-1312.5"/>
<text text-anchor="start" x="53" y="-1323.9" font-family="Arial" font-size="14.00" fill="#000000">input_count </text>
<text text-anchor="start" x="129.2566" y="-1323.9" font-family="Arial" font-size="14.00" fill="#666666">[INTEGER]</text>
<polygon fill="none" stroke="#000000" points="46,-1282.5 46,-1312.5 314,-1312.5 314,-1282.5 46,-1282.5"/>
<text text-anchor="start" x="53" y="-1293.9" font-family="Arial" font-size="14.00" fill="#000000">output_count </text>
<text text-anchor="start" x="137.8232" y="-1293.9" font-family="Arial" font-size="14.00" fill="#666666">[INTEGER]</text>
<polygon fill="none" stroke="#000000" points="46,-1252.5 46,-1282.5 314,-1282.5 314,-1252.5 46,-1252.5"/>
<text text-anchor="start" x="53" y="-1263.9" font-family="Arial" font-size="14.00" fill="#000000">input_value </text>
<text text-anchor="start" x="128.4726" y="-1263.9" font-family="Arial" font-size="14.00" fill="#666666">[NUMERIC]</text>
<polygon fill="none" stroke="#000000" points="46,-1222.5 46,-1252.5 314,-1252.5 314,-1222.5 46,-1222.5"/>
<text text-anchor="start" x="53" y="-1233.9" font-family="Arial" font-size="14.00" fill="#000000">output_value </text>
<text text-anchor="start" x="137.0392" y="-1233.9" font-family="Arial" font-size="14.00" fill="#666666">[NUMERIC]</text>
<polygon fill="none" stroke="#000000" points="46,-1192.5 46,-1222.5 314,-1222.5 314,-1192.5 46,-1192.5"/>
<text text-anchor="start" x="53" y="-1203.9" font-family="Arial" font-size="14.00" fill="#000000">is_coinbase </text>
<text text-anchor="start" x="130.7994" y="-1203.9" font-family="Arial" font-size="14.00" fill="#666666">[BOOLEAN]</text>
<polygon fill="none" stroke="#000000" points="46,-1162.5 46,-1192.5 314,-1192.5 314,-1162.5 46,-1162.5"/>
<text text-anchor="start" x="53" y="-1173.9" font-family="Arial" font-size="14.00" fill="#000000">fee </text>
<text text-anchor="start" x="76.3464" y="-1173.9" font-family="Arial" font-size="14.00" fill="#666666">[NUMERIC]</text>
<polygon fill="none" stroke="#000000" points="46,-1132.5 46,-1162.5 314,-1162.5 314,-1132.5 46,-1132.5"/>
<text text-anchor="start" x="53" y="-1143.9" font-family="Arial" font-size="14.00" fill="#000000">inputs </text>
<text text-anchor="start" x="94.2356" y="-1143.9" font-family="Arial" font-size="14.00" fill="#666666">[RECORD]</text>
<polygon fill="none" stroke="#000000" points="46,-1102.5 46,-1132.5 314,-1132.5 314,-1102.5 46,-1102.5"/>
<text text-anchor="start" x="53" y="-1113.9" font-family="Arial" font-size="14.00" fill="#000000">inputs.index </text>
<text text-anchor="start" x="131.5806" y="-1113.9" font-family="Arial" font-size="14.00" fill="#666666">[INTEGER]</text>
<polygon fill="none" stroke="#000000" points="46,-1072.5 46,-1102.5 314,-1102.5 314,-1072.5 46,-1072.5"/>
<text text-anchor="start" x="52.7981" y="-1083.9" font-family="Arial" font-size="14.00" fill="#000000">inputs.spent_transaction_hash </text>
<text text-anchor="start" x="246.5371" y="-1083.9" font-family="Arial" font-size="14.00" fill="#666666">[STRING]</text>
<polygon fill="none" stroke="#000000" points="46,-1042.5 46,-1072.5 314,-1072.5 314,-1042.5 46,-1042.5"/>
<text text-anchor="start" x="53" y="-1053.9" font-family="Arial" font-size="14.00" fill="#000000">inputs.spent_output_index </text>
<text text-anchor="start" x="220.2958" y="-1053.9" font-family="Arial" font-size="14.00" fill="#666666">[INTEGER]</text>
<polygon fill="none" stroke="#000000" points="46,-1012.5 46,-1042.5 314,-1042.5 314,-1012.5 46,-1012.5"/>
<text text-anchor="start" x="53" y="-1023.9" font-family="Arial" font-size="14.00" fill="#000000">inputs.script_asm </text>
<text text-anchor="start" x="165.7924" y="-1023.9" font-family="Arial" font-size="14.00" fill="#666666">[STRING]</text>
<polygon fill="none" stroke="#000000" points="46,-982.5 46,-1012.5 314,-1012.5 314,-982.5 46,-982.5"/>
<text text-anchor="start" x="53" y="-993.9" font-family="Arial" font-size="14.00" fill="#000000">inputs.script_hex </text>
<text text-anchor="start" x="161.9144" y="-993.9" font-family="Arial" font-size="14.00" fill="#666666">[STRING]</text>
<polygon fill="none" stroke="#000000" points="46,-952.5 46,-982.5 314,-982.5 314,-952.5 46,-952.5"/>
<text text-anchor="start" x="53" y="-963.9" font-family="Arial" font-size="14.00" fill="#000000">inputs.sequence </text>
<text text-anchor="start" x="158.8218" y="-963.9" font-family="Arial" font-size="14.00" fill="#666666">[INTEGER]</text>
<polygon fill="none" stroke="#000000" points="46,-922.5 46,-952.5 314,-952.5 314,-922.5 46,-922.5"/>
<text text-anchor="start" x="53" y="-933.9" font-family="Arial" font-size="14.00" fill="#000000">inputs.required_signatures </text>
<text text-anchor="start" x="221.8204" y="-933.9" font-family="Arial" font-size="14.00" fill="#666666">[INTEGER]</text>
<polygon fill="none" stroke="#000000" points="46,-892.5 46,-922.5 314,-922.5 314,-892.5 46,-892.5"/>
<text text-anchor="start" x="53" y="-903.9" font-family="Arial" font-size="14.00" fill="#000000">inputs.type </text>
<text text-anchor="start" x="124.582" y="-903.9" font-family="Arial" font-size="14.00" fill="#666666">[STRING]</text>
<polygon fill="none" stroke="#000000" points="46,-862.5 46,-892.5 314,-892.5 314,-862.5 46,-862.5"/>
<text text-anchor="start" x="53" y="-873.9" font-family="Arial" font-size="14.00" fill="#000000">inputs.addresses </text>
<text text-anchor="start" x="162.6998" y="-873.9" font-family="Arial" font-size="14.00" fill="#666666">[STRING]</text>
<polygon fill="none" stroke="#000000" points="46,-832.5 46,-862.5 314,-862.5 314,-832.5 46,-832.5"/>
<text text-anchor="start" x="53" y="-843.9" font-family="Arial" font-size="14.00" fill="#000000">inputs.value </text>
<text text-anchor="start" x="131.5806" y="-843.9" font-family="Arial" font-size="14.00" fill="#666666">[NUMERIC]</text>
<polygon fill="none" stroke="#000000" points="46,-802.5 46,-832.5 314,-832.5 314,-802.5 46,-802.5"/>
<text text-anchor="start" x="53" y="-813.9" font-family="Arial" font-size="14.00" fill="#000000">outputs </text>
<text text-anchor="start" x="102.8022" y="-813.9" font-family="Arial" font-size="14.00" fill="#666666">[RECORD]</text>
<polygon fill="none" stroke="#000000" points="46,-772.5 46,-802.5 314,-802.5 314,-772.5 46,-772.5"/>
<text text-anchor="start" x="53" y="-783.9" font-family="Arial" font-size="14.00" fill="#000000">outputs.index </text>
<text text-anchor="start" x="140.1472" y="-783.9" font-family="Arial" font-size="14.00" fill="#666666">[INTEGER]</text>
<polygon fill="none" stroke="#000000" points="46,-742.5 46,-772.5 314,-772.5 314,-742.5 46,-742.5"/>
<text text-anchor="start" x="53" y="-753.9" font-family="Arial" font-size="14.00" fill="#000000">outputs.script_asm </text>
<text text-anchor="start" x="174.359" y="-753.9" font-family="Arial" font-size="14.00" fill="#666666">[STRING]</text>
<polygon fill="none" stroke="#000000" points="46,-712.5 46,-742.5 314,-742.5 314,-712.5 46,-712.5"/>
<text text-anchor="start" x="53" y="-723.9" font-family="Arial" font-size="14.00" fill="#000000">outputs.script_hex </text>
<text text-anchor="start" x="170.481" y="-723.9" font-family="Arial" font-size="14.00" fill="#666666">[STRING]</text>
<polygon fill="none" stroke="#000000" points="46,-682.5 46,-712.5 314,-712.5 314,-682.5 46,-682.5"/>
<text text-anchor="start" x="53" y="-693.9" font-family="Arial" font-size="14.00" fill="#000000">outputs.required_signatures </text>
<text text-anchor="start" x="230.387" y="-693.9" font-family="Arial" font-size="14.00" fill="#666666">[INTEGER]</text>
<polygon fill="none" stroke="#000000" points="46,-652.5 46,-682.5 314,-682.5 314,-652.5 46,-652.5"/>
<text text-anchor="start" x="53" y="-663.9" font-family="Arial" font-size="14.00" fill="#000000">outputs.type </text>
<text text-anchor="start" x="133.1486" y="-663.9" font-family="Arial" font-size="14.00" fill="#666666">[STRING]</text>
<polygon fill="none" stroke="#000000" points="46,-622.5 46,-652.5 314,-652.5 314,-622.5 46,-622.5"/>
<text text-anchor="start" x="53" y="-633.9" font-family="Arial" font-size="14.00" fill="#000000">outputs.addresses </text>
<text text-anchor="start" x="171.2664" y="-633.9" font-family="Arial" font-size="14.00" fill="#666666">[STRING]</text>
<polygon fill="none" stroke="#000000" points="46,-592.5 46,-622.5 314,-622.5 314,-592.5 46,-592.5"/>
<text text-anchor="start" x="53" y="-603.9" font-family="Arial" font-size="14.00" fill="#000000">outputs.value </text>
<text text-anchor="start" x="140.1472" y="-603.9" font-family="Arial" font-size="14.00" fill="#666666">[NUMERIC]</text>
<polygon fill="none" stroke="#000000" stroke-width="3" points="44.5,-591.5 44.5,-1649.5 315.5,-1649.5 315.5,-591.5 44.5,-591.5"/>
</g>
<!-- blocks -->
<g id="node4" class="node">
<title>blocks</title>
<polygon fill="#efefef" stroke="transparent" points="81,-432.5 81,-467.5 279,-467.5 279,-432.5 81,-432.5"/>
<polygon fill="none" stroke="#000000" points="81,-432.5 81,-467.5 279,-467.5 279,-432.5 81,-432.5"/>
<text text-anchor="start" x="126.4883" y="-445.3" font-family="Arial Bold" font-size="18.00" fill="#000000">blocks</text>
<text text-anchor="start" x="177.4949" y="-445.3" font-family="Arial" font-size="14.00" fill="#000000"> </text>
<text text-anchor="start" x="181.3855" y="-445.3" font-family="Arial" font-size="14.00" fill="#666666">[TABLE]</text>
<polygon fill="none" stroke="#000000" points="81,-402.5 81,-432.5 279,-432.5 279,-402.5 81,-402.5"/>
<text text-anchor="start" x="88" y="-413.9" font-family="Arial" font-size="14.00" fill="#000000">hash </text>
<text text-anchor="start" x="122.2384" y="-413.9" font-family="Arial" font-size="14.00" fill="#666666">[STRING]</text>
<polygon fill="none" stroke="#000000" points="81,-372.5 81,-402.5 279,-402.5 279,-372.5 81,-372.5"/>
<text text-anchor="start" x="88" y="-383.9" font-family="Arial" font-size="14.00" fill="#000000">size </text>
<text text-anchor="start" x="116.7798" y="-383.9" font-family="Arial" font-size="14.00" fill="#666666">[INTEGER]</text>
<polygon fill="none" stroke="#000000" points="81,-342.5 81,-372.5 279,-372.5 279,-342.5 81,-342.5"/>
<text text-anchor="start" x="88" y="-353.9" font-family="Arial" font-size="14.00" fill="#000000">stripped_size </text>
<text text-anchor="start" x="174.3506" y="-353.9" font-family="Arial" font-size="14.00" fill="#666666">[INTEGER]</text>
<polygon fill="none" stroke="#000000" points="81,-312.5 81,-342.5 279,-342.5 279,-312.5 81,-312.5"/>
<text text-anchor="start" x="88" y="-323.9" font-family="Arial" font-size="14.00" fill="#000000">weight </text>
<text text-anchor="start" x="132.3422" y="-323.9" font-family="Arial" font-size="14.00" fill="#666666">[INTEGER]</text>
<polygon fill="none" stroke="#000000" points="81,-282.5 81,-312.5 279,-312.5 279,-282.5 81,-282.5"/>
<text text-anchor="start" x="88" y="-293.9" font-family="Arial" font-size="14.00" fill="#000000">number </text>
<text text-anchor="start" x="139.3422" y="-293.9" font-family="Arial" font-size="14.00" fill="#666666">[INTEGER]</text>
<polygon fill="none" stroke="#000000" points="81,-252.5 81,-282.5 279,-282.5 279,-252.5 81,-252.5"/>
<text text-anchor="start" x="88" y="-263.9" font-family="Arial" font-size="14.00" fill="#000000">version </text>
<text text-anchor="start" x="137.0056" y="-263.9" font-family="Arial" font-size="14.00" fill="#666666">[INTEGER]</text>
<polygon fill="none" stroke="#000000" points="81,-222.5 81,-252.5 279,-252.5 279,-222.5 81,-222.5"/>
<text text-anchor="start" x="88" y="-233.9" font-family="Arial" font-size="14.00" fill="#000000">merkle_root </text>
<text text-anchor="start" x="165.7826" y="-233.9" font-family="Arial" font-size="14.00" fill="#666666">[STRING]</text>
<polygon fill="none" stroke="#000000" points="81,-192.5 81,-222.5 279,-222.5 279,-192.5 81,-192.5"/>
<text text-anchor="start" x="88" y="-203.9" font-family="Arial" font-size="14.00" fill="#000000">timestamp </text>
<text text-anchor="start" x="156.4474" y="-203.9" font-family="Arial" font-size="14.00" fill="#666666">[TIMESTAMP]</text>
<polygon fill="none" stroke="#000000" points="81,-162.5 81,-192.5 279,-192.5 279,-162.5 81,-162.5"/>
<text text-anchor="start" x="88" y="-173.9" font-family="Arial" font-size="14.00" fill="#000000">timestamp_month </text>
<text text-anchor="start" x="203.129" y="-173.9" font-family="Arial" font-size="14.00" fill="#666666">[DATE]</text>
<polygon fill="none" stroke="#000000" points="81,-132.5 81,-162.5 279,-162.5 279,-132.5 81,-132.5"/>
<text text-anchor="start" x="88" y="-143.9" font-family="Arial" font-size="14.00" fill="#000000">nonce </text>
<text text-anchor="start" x="130.021" y="-143.9" font-family="Arial" font-size="14.00" fill="#666666">[STRING]</text>
<polygon fill="none" stroke="#000000" points="81,-102.5 81,-132.5 279,-132.5 279,-102.5 81,-102.5"/>
<text text-anchor="start" x="88" y="-113.9" font-family="Arial" font-size="14.00" fill="#000000">bits </text>
<text text-anchor="start" x="113.6704" y="-113.9" font-family="Arial" font-size="14.00" fill="#666666">[STRING]</text>
<polygon fill="none" stroke="#000000" points="81,-72.5 81,-102.5 279,-102.5 279,-72.5 81,-72.5"/>
<text text-anchor="start" x="88" y="-83.9" font-family="Arial" font-size="14.00" fill="#000000">coinbase_param </text>
<text text-anchor="start" x="195.3618" y="-83.9" font-family="Arial" font-size="14.00" fill="#666666">[STRING]</text>
<polygon fill="none" stroke="#000000" points="81,-42.5 81,-72.5 279,-72.5 279,-42.5 81,-42.5"/>
<text text-anchor="start" x="87.8128" y="-53.9" font-family="Arial" font-size="14.00" fill="#000000">transaction_count </text>
<text text-anchor="start" x="202.1858" y="-53.9" font-family="Arial" font-size="14.00" fill="#666666">[INTEGER]</text>
</g>
<!-- transactions&#45;&gt;blocks -->
<g id="edge4" class="edge">
<title>transactions:block_hash&#45;&gt;blocks:hash</title>
<path fill="none" stroke="#000000" stroke-dasharray="5,2" d="M324.3152,-1447.3239C771.488,-1431.9682 733.5754,-417.5 279,-417.5"/>
<polygon fill="#000000" stroke="#000000" points="323.9985,-1447.3292 313.9231,-1443.0007 318.9993,-1447.4146 314,-1447.5 314,-1447.5 314,-1447.5 318.9993,-1447.4146 314.0769,-1451.9993 323.9985,-1447.3292 323.9985,-1447.3292"/>
<text text-anchor="start" x="321.297" y="-1457.5" font-family="Arial" font-size="10.00" fill="#000000">transactions&#45;&gt;blocks</text>
</g>
<!-- inputs -->
<g id="node2" class="node">
<title>inputs</title>
<polygon fill="#efefef" stroke="transparent" points="66,-2192.5 66,-2227.5 293,-2227.5 293,-2192.5 66,-2192.5"/>
<polygon fill="none" stroke="#000000" points="66,-2192.5 66,-2227.5 293,-2227.5 293,-2192.5 66,-2192.5"/>
<text text-anchor="start" x="131.7674" y="-2205.3" font-family="Arial Bold" font-size="18.00" fill="#000000">inputs</text>
<text text-anchor="start" x="179.7824" y="-2205.3" font-family="Arial" font-size="14.00" fill="#000000"> </text>
<text text-anchor="start" x="183.673" y="-2205.3" font-family="Arial" font-size="14.00" fill="#666666">[VIEW]</text>
<polygon fill="none" stroke="#000000" points="66,-2162.5 66,-2192.5 293,-2192.5 293,-2162.5 66,-2162.5"/>
<text text-anchor="start" x="73" y="-2173.9" font-family="Arial" font-size="14.00" fill="#000000">transaction_hash </text>
<text text-anchor="start" x="183.4824" y="-2173.9" font-family="Arial" font-size="14.00" fill="#666666">[STRING]</text>
<polygon fill="none" stroke="#000000" points="66,-2132.5 66,-2162.5 293,-2162.5 293,-2132.5 66,-2132.5"/>
<text text-anchor="start" x="73" y="-2143.9" font-family="Arial" font-size="14.00" fill="#000000">block_hash </text>
<text text-anchor="start" x="147.6928" y="-2143.9" font-family="Arial" font-size="14.00" fill="#666666">[STRING]</text>
<polygon fill="none" stroke="#000000" points="66,-2102.5 66,-2132.5 293,-2132.5 293,-2102.5 66,-2102.5"/>
<text text-anchor="start" x="73" y="-2113.9" font-family="Arial" font-size="14.00" fill="#000000">block_number </text>
<text text-anchor="start" x="164.7966" y="-2113.9" font-family="Arial" font-size="14.00" fill="#666666">[INTEGER]</text>
<polygon fill="none" stroke="#000000" points="66,-2072.5 66,-2102.5 293,-2102.5 293,-2072.5 66,-2072.5"/>
<text text-anchor="start" x="73" y="-2083.9" font-family="Arial" font-size="14.00" fill="#000000">block_timestamp </text>
<text text-anchor="start" x="181.9018" y="-2083.9" font-family="Arial" font-size="14.00" fill="#666666">[TIMESTAMP]</text>
<polygon fill="none" stroke="#000000" points="66,-2042.5 66,-2072.5 293,-2072.5 293,-2042.5 66,-2042.5"/>
<text text-anchor="start" x="73" y="-2053.9" font-family="Arial" font-size="14.00" fill="#000000">index </text>
<text text-anchor="start" x="110.345" y="-2053.9" font-family="Arial" font-size="14.00" fill="#666666">[INTEGER]</text>
<polygon fill="none" stroke="#000000" points="66,-2012.5 66,-2042.5 293,-2042.5 293,-2012.5 66,-2012.5"/>
<text text-anchor="start" x="72.9159" y="-2023.9" font-family="Arial" font-size="14.00" fill="#000000">spent_transaction_hash </text>
<text text-anchor="start" x="225.4193" y="-2023.9" font-family="Arial" font-size="14.00" fill="#666666">[STRING]</text>
<polygon fill="none" stroke="#000000" points="66,-1982.5 66,-2012.5 293,-2012.5 293,-1982.5 66,-1982.5"/>
<text text-anchor="start" x="73" y="-1993.9" font-family="Arial" font-size="14.00" fill="#000000">spent_output_index </text>
<text text-anchor="start" x="199.0602" y="-1993.9" font-family="Arial" font-size="14.00" fill="#666666">[INTEGER]</text>
<polygon fill="none" stroke="#000000" points="66,-1952.5 66,-1982.5 293,-1982.5 293,-1952.5 66,-1952.5"/>
<text text-anchor="start" x="73" y="-1963.9" font-family="Arial" font-size="14.00" fill="#000000">script_asm </text>
<text text-anchor="start" x="144.5568" y="-1963.9" font-family="Arial" font-size="14.00" fill="#666666">[STRING]</text>
<polygon fill="none" stroke="#000000" points="66,-1922.5 66,-1952.5 293,-1952.5 293,-1922.5 66,-1922.5"/>
<text text-anchor="start" x="73" y="-1933.9" font-family="Arial" font-size="14.00" fill="#000000">script_hex </text>
<text text-anchor="start" x="140.6788" y="-1933.9" font-family="Arial" font-size="14.00" fill="#666666">[STRING]</text>
<polygon fill="none" stroke="#000000" points="66,-1892.5 66,-1922.5 293,-1922.5 293,-1892.5 66,-1892.5"/>
<text text-anchor="start" x="73" y="-1903.9" font-family="Arial" font-size="14.00" fill="#000000">sequence </text>
<text text-anchor="start" x="137.5862" y="-1903.9" font-family="Arial" font-size="14.00" fill="#666666">[INTEGER]</text>
<polygon fill="none" stroke="#000000" points="66,-1862.5 66,-1892.5 293,-1892.5 293,-1862.5 66,-1862.5"/>
<text text-anchor="start" x="73" y="-1873.9" font-family="Arial" font-size="14.00" fill="#000000">required_signatures </text>
<text text-anchor="start" x="200.5848" y="-1873.9" font-family="Arial" font-size="14.00" fill="#666666">[INTEGER]</text>
<polygon fill="none" stroke="#000000" points="66,-1832.5 66,-1862.5 293,-1862.5 293,-1832.5 66,-1832.5"/>
<text text-anchor="start" x="73" y="-1843.9" font-family="Arial" font-size="14.00" fill="#000000">type </text>
<text text-anchor="start" x="103.3464" y="-1843.9" font-family="Arial" font-size="14.00" fill="#666666">[STRING]</text>
<polygon fill="none" stroke="#000000" points="66,-1802.5 66,-1832.5 293,-1832.5 293,-1802.5 66,-1802.5"/>
<text text-anchor="start" x="73" y="-1813.9" font-family="Arial" font-size="14.00" fill="#000000">addresses </text>
<text text-anchor="start" x="141.4642" y="-1813.9" font-family="Arial" font-size="14.00" fill="#666666">[STRING]</text>
<polygon fill="none" stroke="#000000" points="66,-1772.5 66,-1802.5 293,-1802.5 293,-1772.5 66,-1772.5"/>
<text text-anchor="start" x="73" y="-1783.9" font-family="Arial" font-size="14.00" fill="#000000">value </text>
<text text-anchor="start" x="110.345" y="-1783.9" font-family="Arial" font-size="14.00" fill="#666666">[NUMERIC]</text>
</g>
<!-- inputs&#45;&gt;transactions -->
<g id="edge1" class="edge">
<title>inputs:transaction_hash&#45;&gt;transactions:hash</title>
<path fill="none" stroke="#000000" stroke-dasharray="5,2" d="M301.7941,-2172.6011C340.4417,-2126.209 323.4285,-1765.1849 293,-1730 220.4322,-1646.0888 118.5678,-1777.9112 46,-1694 17.945,-1661.5596 3.1111,-1597.5 46,-1597.5"/>
<polygon fill="#000000" stroke="#000000" points="301.736,-2172.6334 290.81,-2173.5688 297.368,-2175.0667 293,-2177.5 293,-2177.5 293,-2177.5 297.368,-2175.0667 295.19,-2181.4312 301.736,-2172.6334 301.736,-2172.6334"/>
<text text-anchor="start" x="300.128" y="-2187.5" font-family="Arial" font-size="10.00" fill="#000000">inputs&#45;&gt;transactions</text>
</g>
<!-- inputs&#45;&gt;transactions -->
<g id="edge2" class="edge">
<title>inputs:spent_transaction_hash&#45;&gt;transactions:hash</title>
<path fill="none" stroke="#000000" stroke-dasharray="5,2" d="M303.0593,-2025.3522C356.5492,-2001.0209 333.8804,-1777.2705 293,-1730 220.4322,-1646.0888 118.5678,-1777.9112 46,-1694 17.945,-1661.5596 3.1111,-1597.5 46,-1597.5"/>
<polygon fill="#000000" stroke="#000000" points="302.7796,-2025.4119 292.0603,-2023.0992 297.8898,-2026.4559 293,-2027.5 293,-2027.5 293,-2027.5 297.8898,-2026.4559 293.9397,-2031.9008 302.7796,-2025.4119 302.7796,-2025.4119"/>
<text text-anchor="start" x="300.128" y="-2037.5" font-family="Arial" font-size="10.00" fill="#000000">inputs&#45;&gt;transactions</text>
</g>
<!-- outputs -->
<g id="node3" class="node">
<title>outputs</title>
<polygon fill="#efefef" stroke="transparent" points="397,-2147.5 397,-2182.5 609,-2182.5 609,-2147.5 397,-2147.5"/>
<polygon fill="none" stroke="#000000" points="397,-2147.5 397,-2182.5 609,-2182.5 609,-2147.5 397,-2147.5"/>
<text text-anchor="start" x="449.7603" y="-2160.3" font-family="Arial Bold" font-size="18.00" fill="#000000">outputs</text>
<text text-anchor="start" x="508.7895" y="-2160.3" font-family="Arial" font-size="14.00" fill="#000000"> </text>
<text text-anchor="start" x="512.6801" y="-2160.3" font-family="Arial" font-size="14.00" fill="#666666">[VIEW]</text>
<polygon fill="none" stroke="#000000" points="397,-2117.5 397,-2147.5 609,-2147.5 609,-2117.5 397,-2117.5"/>
<text text-anchor="start" x="404" y="-2128.9" font-family="Arial" font-size="14.00" fill="#000000">transaction_hash </text>
<text text-anchor="start" x="514.4824" y="-2128.9" font-family="Arial" font-size="14.00" fill="#666666">[STRING]</text>
<polygon fill="none" stroke="#000000" points="397,-2087.5 397,-2117.5 609,-2117.5 609,-2087.5 397,-2087.5"/>
<text text-anchor="start" x="404" y="-2098.9" font-family="Arial" font-size="14.00" fill="#000000">block_hash </text>
<text text-anchor="start" x="478.6928" y="-2098.9" font-family="Arial" font-size="14.00" fill="#666666">[STRING]</text>
<polygon fill="none" stroke="#000000" points="397,-2057.5 397,-2087.5 609,-2087.5 609,-2057.5 397,-2057.5"/>
<text text-anchor="start" x="404" y="-2068.9" font-family="Arial" font-size="14.00" fill="#000000">block_number </text>
<text text-anchor="start" x="495.7966" y="-2068.9" font-family="Arial" font-size="14.00" fill="#666666">[INTEGER]</text>
<polygon fill="none" stroke="#000000" points="397,-2027.5 397,-2057.5 609,-2057.5 609,-2027.5 397,-2027.5"/>
<text text-anchor="start" x="403.8268" y="-2038.9" font-family="Arial" font-size="14.00" fill="#000000">block_timestamp </text>
<text text-anchor="start" x="512.7286" y="-2038.9" font-family="Arial" font-size="14.00" fill="#666666">[TIMESTAMP]</text>
<polygon fill="none" stroke="#000000" points="397,-1997.5 397,-2027.5 609,-2027.5 609,-1997.5 397,-1997.5"/>
<text text-anchor="start" x="404" y="-2008.9" font-family="Arial" font-size="14.00" fill="#000000">index </text>
<text text-anchor="start" x="441.345" y="-2008.9" font-family="Arial" font-size="14.00" fill="#666666">[INTEGER]</text>
<polygon fill="none" stroke="#000000" points="397,-1967.5 397,-1997.5 609,-1997.5 609,-1967.5 397,-1967.5"/>
<text text-anchor="start" x="404" y="-1978.9" font-family="Arial" font-size="14.00" fill="#000000">script_asm </text>
<text text-anchor="start" x="475.5568" y="-1978.9" font-family="Arial" font-size="14.00" fill="#666666">[STRING]</text>
<polygon fill="none" stroke="#000000" points="397,-1937.5 397,-1967.5 609,-1967.5 609,-1937.5 397,-1937.5"/>
<text text-anchor="start" x="404" y="-1948.9" font-family="Arial" font-size="14.00" fill="#000000">script_hex </text>
<text text-anchor="start" x="471.6788" y="-1948.9" font-family="Arial" font-size="14.00" fill="#666666">[STRING]</text>
<polygon fill="none" stroke="#000000" points="397,-1907.5 397,-1937.5 609,-1937.5 609,-1907.5 397,-1907.5"/>
<text text-anchor="start" x="404" y="-1918.9" font-family="Arial" font-size="14.00" fill="#000000">required_signatures </text>
<text text-anchor="start" x="531.5848" y="-1918.9" font-family="Arial" font-size="14.00" fill="#666666">[INTEGER]</text>
<polygon fill="none" stroke="#000000" points="397,-1877.5 397,-1907.5 609,-1907.5 609,-1877.5 397,-1877.5"/>
<text text-anchor="start" x="404" y="-1888.9" font-family="Arial" font-size="14.00" fill="#000000">type </text>
<text text-anchor="start" x="434.3464" y="-1888.9" font-family="Arial" font-size="14.00" fill="#666666">[STRING]</text>
<polygon fill="none" stroke="#000000" points="397,-1847.5 397,-1877.5 609,-1877.5 609,-1847.5 397,-1847.5"/>
<text text-anchor="start" x="404" y="-1858.9" font-family="Arial" font-size="14.00" fill="#000000">addresses </text>
<text text-anchor="start" x="472.4642" y="-1858.9" font-family="Arial" font-size="14.00" fill="#666666">[STRING]</text>
<polygon fill="none" stroke="#000000" points="397,-1817.5 397,-1847.5 609,-1847.5 609,-1817.5 397,-1817.5"/>
<text text-anchor="start" x="404" y="-1828.9" font-family="Arial" font-size="14.00" fill="#000000">value </text>
<text text-anchor="start" x="441.345" y="-1828.9" font-family="Arial" font-size="14.00" fill="#666666">[NUMERIC]</text>
</g>
<!-- outputs&#45;&gt;transactions -->
<g id="edge3" class="edge">
<title>outputs:transaction_hash&#45;&gt;transactions:hash</title>
<path fill="none" stroke="#000000" stroke-dasharray="5,2" d="M386.822,-2131.0587C285.9777,-2100.5977 430.6689,-1597.5 314,-1597.5"/>
<polygon fill="#000000" stroke="#000000" points="387.0988,-2131.0978 396.369,-2136.9555 392.0494,-2131.7989 397,-2132.5 397,-2132.5 397,-2132.5 392.0494,-2131.7989 397.631,-2128.0445 387.0988,-2131.0978 387.0988,-2131.0978"/>
<text text-anchor="start" x="295.0685" y="-2142.5" font-family="Arial" font-size="10.00" fill="#000000">outputs&#45;&gt;transactions</text>
</g>
</g>
</svg>
