<?xml version="1.0" encoding="UTF-8" standalone="no"?>
<!DOCTYPE svg PUBLIC "-//W3C//DTD SVG 1.1//EN"
 "http://www.w3.org/Graphics/SVG/1.1/DTD/svg11.dtd">
<!-- Generated by graphviz version 2.40.1 (20161225.0304)
 -->
<!-- Title: backup.blogs Pages: 1 -->
<svg width="703pt" height="562pt"
 viewBox="0.00 0.00 703.00 562.00" xmlns="http://www.w3.org/2000/svg" xmlns:xlink="http://www.w3.org/1999/xlink">
<g id="graph0" class="graph" transform="scale(1 1) rotate(0) translate(4 558)">
<title>backup.blogs</title>
<polygon fill="#ffffff" stroke="transparent" points="-4,4 -4,-558 699,-558 699,4 -4,4"/>
<!-- backup.blogs -->
<g id="node1" class="node">
<title>backup.blogs</title>
<polygon fill="#efefef" stroke="transparent" points="372,-195.5 372,-230.5 625,-230.5 625,-195.5 372,-195.5"/>
<polygon fill="none" stroke="#000000" points="372,-195.5 372,-230.5 625,-230.5 625,-195.5 372,-195.5"/>
<text text-anchor="start" x="381.6961" y="-208.3" font-family="Arial Bold" font-size="18.00" fill="#000000">backup.blogs</text>
<text text-anchor="start" x="487.7359" y="-208.3" font-family="Arial" font-size="14.00" fill="#000000">    </text>
<text text-anchor="start" x="521.9407" y="-208.3" font-family="Arial" font-size="14.00" fill="#666666">[BASE TABLE]</text>
<polygon fill="none" stroke="#000000" points="372,-165.5 372,-195.5 625,-195.5 625,-165.5 372,-165.5"/>
<text text-anchor="start" x="379" y="-176.9" font-family="Arial" font-size="14.00" fill="#000000">id </text>
<text text-anchor="start" x="393.7798" y="-176.9" font-family="Arial" font-size="14.00" fill="#666666">[integer]</text>
<polygon fill="none" stroke="#000000" points="372,-135.5 372,-165.5 625,-165.5 625,-135.5 372,-135.5"/>
<text text-anchor="start" x="379" y="-146.9" font-family="Arial" font-size="14.00" fill="#000000">user_id </text>
<text text-anchor="start" x="428.7882" y="-146.9" font-family="Arial" font-size="14.00" fill="#666666">[integer]</text>
<polygon fill="none" stroke="#000000" points="372,-105.5 372,-135.5 625,-135.5 625,-105.5 372,-105.5"/>
<text text-anchor="start" x="379" y="-116.9" font-family="Arial" font-size="14.00" fill="#000000">dump </text>
<text text-anchor="start" x="417.899" y="-116.9" font-family="Arial" font-size="14.00" fill="#666666">[text]</text>
<polygon fill="none" stroke="#000000" points="372,-75.5 372,-105.5 625,-105.5 625,-75.5 372,-75.5"/>
<text text-anchor="start" x="379" y="-86.9" font-family="Arial" font-size="14.00" fill="#000000">created </text>
<text text-anchor="start" x="429.5722" y="-86.9" font-family="Arial" font-size="14.00" fill="#666666">[timestamp without time zone]</text>
<polygon fill="none" stroke="#000000" points="372,-45.5 372,-75.5 625,-75.5 625,-45.5 372,-45.5"/>
<text text-anchor="start" x="378.6915" y="-56.9" font-family="Arial" font-size="14.00" fill="#000000">updated </text>
<text text-anchor="start" x="433.1683" y="-56.9" font-family="Arial" font-size="14.00" fill="#666666">[timestamp without time zone]</text>
<polygon fill="none" stroke="#000000" stroke-width="3" points="370,-44.5 370,-232.5 626,-232.5 626,-44.5 370,-44.5"/>
</g>
<!-- backup.blog_options -->
<g id="node2" class="node">
<title>backup.blog_options</title>
<polygon fill="#efefef" stroke="transparent" points="346,-475.5 346,-510.5 652,-510.5 652,-475.5 346,-475.5"/>
<polygon fill="none" stroke="#000000" points="346,-475.5 346,-510.5 652,-510.5 652,-475.5 346,-475.5"/>
<text text-anchor="start" x="352.6824" y="-488.3" font-family="Arial Bold" font-size="18.00" fill="#000000">backup.blog_options</text>
<text text-anchor="start" x="517.7496" y="-488.3" font-family="Arial" font-size="14.00" fill="#000000">    </text>
<text text-anchor="start" x="551.9544" y="-488.3" font-family="Arial" font-size="14.00" fill="#666666">[BASE TABLE]</text>
<polygon fill="none" stroke="#000000" points="346,-445.5 346,-475.5 652,-475.5 652,-445.5 346,-445.5"/>
<text text-anchor="start" x="353" y="-456.9" font-family="Arial" font-size="14.00" fill="#000000">id    </text>
<text text-anchor="start" x="398.094" y="-456.9" font-family="Arial" font-size="14.00" fill="#666666">[integer]</text>
<polygon fill="none" stroke="#000000" points="346,-415.5 346,-445.5 652,-445.5 652,-415.5 346,-415.5"/>
<text text-anchor="start" x="353" y="-426.9" font-family="Arial" font-size="14.00" fill="#000000">blog_id    </text>
<text text-anchor="start" x="432.331" y="-426.9" font-family="Arial" font-size="14.00" fill="#666666">[integer]</text>
<polygon fill="none" stroke="#000000" points="346,-385.5 346,-415.5 652,-415.5 652,-385.5 346,-385.5"/>
<text text-anchor="start" x="353" y="-396.9" font-family="Arial" font-size="14.00" fill="#000000">label    </text>
<text text-anchor="start" x="416.7658" y="-396.9" font-family="Arial" font-size="14.00" fill="#666666">[text]</text>
<polygon fill="none" stroke="#000000" points="346,-355.5 346,-385.5 652,-385.5 652,-355.5 346,-355.5"/>
<text text-anchor="start" x="353" y="-366.9" font-family="Arial" font-size="14.00" fill="#000000">updated    </text>
<text text-anchor="start" x="437.791" y="-366.9" font-family="Arial" font-size="14.00" fill="#666666">[timestamp without time zone]</text>
</g>
<!-- backup.blog_options&#45;&gt;backup.blogs -->
<g id="edge1" class="edge">
<title>backup.blog_options:blog_id&#45;&gt;backup.blogs:id</title>
<path fill="none" stroke="#000000" d="M336.0035,-429.3798C296.3551,-419.6848 313.9415,-349.4608 346,-313 428.5577,-219.1053 542.4423,-370.8947 625,-277 653.3201,-244.7909 667.8889,-180.5 625,-180.5"/>
<polygon fill="#000000" stroke="#000000" points="336.0622,-429.3862 345.4988,-434.972 341.0311,-429.9431 346,-430.5 346,-430.5 346,-430.5 341.0311,-429.9431 346.5012,-426.028 336.0622,-429.3862 336.0622,-429.3862"/>
<text text-anchor="start" x="6.6045" y="-440.5" font-family="Arial" font-size="10.00" fill="#000000">FOREIGN KEY (blog_id) REFERENCES blogs(id) ON DELETE CASCADE</text>
</g>
</g>
</svg>
