<?xml version="1.0" encoding="UTF-8" standalone="no"?>
<!DOCTYPE svg PUBLIC "-//W3C//DTD SVG 1.1//EN"
 "http://www.w3.org/Graphics/SVG/1.1/DTD/svg11.dtd">
<!-- Generated by graphviz version 12.1.2 (20240928.0832)
 -->
<!-- Title: backup.blog_options Pages: 1 -->
<svg width="691pt" height="571pt"
 viewBox="0.00 0.00 691.04 571.20" xmlns="http://www.w3.org/2000/svg" xmlns:xlink="http://www.w3.org/1999/xlink">
<g id="graph0" class="graph" transform="scale(1 1) rotate(0) translate(4 567.2)">
<title>backup.blog_options</title>
<polygon fill="white" stroke="none" points="-4,4 -4,-567.2 687.04,-567.2 687.04,4 -4,4"/>
<!-- backup.blog_options -->
<g id="node1" class="node">
<title>backup.blog_options</title>
<polygon fill="#efefef" stroke="none" points="46.2,-481.4 46.2,-517 335.18,-517 335.18,-481.4 46.2,-481.4"/>
<polygon fill="none" stroke="black" points="46.2,-481.4 46.2,-517 335.18,-517 335.18,-481.4 46.2,-481.4"/>
<text text-anchor="start" x="53.2" y="-494.8" font-family="Arial Bold" font-size="18.00">backup.blog_options</text>
<text text-anchor="start" x="203.69" y="-494.8" font-family="Arial" font-size="14.00">    </text>
<text text-anchor="start" x="234.8" y="-494.8" font-family="Arial" font-size="14.00" fill="#666666">[BASE TABLE]</text>
<polygon fill="none" stroke="black" points="46.2,-450.6 46.2,-481.4 335.18,-481.4 335.18,-450.6 46.2,-450.6"/>
<text text-anchor="start" x="53.2" y="-462.8" font-family="Arial" font-size="14.00">id </text>
<text text-anchor="start" x="67.99" y="-462.8" font-family="Arial" font-size="14.00" fill="#666666">[integer]</text>
<polygon fill="none" stroke="black" points="46.2,-419.8 46.2,-450.6 335.18,-450.6 335.18,-419.8 46.2,-419.8"/>
<text text-anchor="start" x="53.2" y="-432" font-family="Arial" font-size="14.00">blog_id </text>
<text text-anchor="start" x="102.24" y="-432" font-family="Arial" font-size="14.00" fill="#666666">[integer]</text>
<polygon fill="none" stroke="black" points="46.2,-389 46.2,-419.8 335.18,-419.8 335.18,-389 46.2,-389"/>
<text text-anchor="start" x="53.2" y="-401.2" font-family="Arial" font-size="14.00">label </text>
<text text-anchor="start" x="86.67" y="-401.2" font-family="Arial" font-size="14.00" fill="#666666">[text]</text>
<polygon fill="none" stroke="black" points="46.2,-358.2 46.2,-389 335.18,-389 335.18,-358.2 46.2,-358.2"/>
<text text-anchor="start" x="53.2" y="-370.4" font-family="Arial" font-size="14.00">updated </text>
<text text-anchor="start" x="107.7" y="-370.4" font-family="Arial" font-size="14.00" fill="#666666">[timestamp without time zone]</text>
<polygon fill="none" stroke="black" stroke-width="3" points="44.7,-356.7 44.7,-518.5 336.68,-518.5 336.68,-356.7 44.7,-356.7"/>
</g>
<!-- backup.blogs -->
<g id="node2" class="node">
<title>backup.blogs</title>
<polygon fill="#efefef" stroke="none" points="63.85,-197.2 63.85,-232.8 317.53,-232.8 317.53,-197.2 63.85,-197.2"/>
<polygon fill="none" stroke="black" points="63.85,-197.2 63.85,-232.8 317.53,-232.8 317.53,-197.2 63.85,-197.2"/>
<text text-anchor="start" x="80.7" y="-210.6" font-family="Arial Bold" font-size="18.00">backup.blogs</text>
<text text-anchor="start" x="176.19" y="-210.6" font-family="Arial" font-size="14.00">    </text>
<text text-anchor="start" x="207.3" y="-210.6" font-family="Arial" font-size="14.00" fill="#666666">[BASE TABLE]</text>
<polygon fill="none" stroke="black" points="63.85,-166.4 63.85,-197.2 317.53,-197.2 317.53,-166.4 63.85,-166.4"/>
<text text-anchor="start" x="70.85" y="-178.6" font-family="Arial" font-size="14.00">id </text>
<text text-anchor="start" x="85.63" y="-178.6" font-family="Arial" font-size="14.00" fill="#666666">[integer]</text>
<polygon fill="none" stroke="black" points="63.85,-135.6 63.85,-166.4 317.53,-166.4 317.53,-135.6 63.85,-135.6"/>
<text text-anchor="start" x="70.85" y="-147.8" font-family="Arial" font-size="14.00">user_id </text>
<text text-anchor="start" x="120.65" y="-147.8" font-family="Arial" font-size="14.00" fill="#666666">[integer]</text>
<polygon fill="none" stroke="black" points="63.85,-104.8 63.85,-135.6 317.53,-135.6 317.53,-104.8 63.85,-104.8"/>
<text text-anchor="start" x="70.85" y="-117" font-family="Arial" font-size="14.00">dump </text>
<text text-anchor="start" x="109.76" y="-117" font-family="Arial" font-size="14.00" fill="#666666">[text]</text>
<polygon fill="none" stroke="black" points="63.85,-74 63.85,-104.8 317.53,-104.8 317.53,-74 63.85,-74"/>
<text text-anchor="start" x="70.85" y="-86.2" font-family="Arial" font-size="14.00">created </text>
<text text-anchor="start" x="121.43" y="-86.2" font-family="Arial" font-size="14.00" fill="#666666">[timestamp without time zone]</text>
<polygon fill="none" stroke="black" points="63.85,-43.2 63.85,-74 317.53,-74 317.53,-43.2 63.85,-43.2"/>
<text text-anchor="start" x="70.85" y="-55.4" font-family="Arial" font-size="14.00">updated </text>
<text text-anchor="start" x="125.34" y="-55.4" font-family="Arial" font-size="14.00" fill="#666666">[timestamp without time zone]</text>
</g>
<!-- backup.blog_options&#45;&gt;backup.blogs -->
<g id="edge1" class="edge">
<title>backup.blog_options:blog_id&#45;&gt;backup.blogs:id</title>
<path fill="none" stroke="black" d="M346.38,-434.47C447.87,-419.61 427.9,-181.8 318.53,-181.8"/>
<polygon fill="black" stroke="black" points="346.48,-434.47 336.19,-430.69 341.16,-434.84 336.84,-435.15 336.84,-435.15 336.84,-435.15 341.16,-434.84 336.83,-439.66 346.48,-434.47"/>
<text text-anchor="start" x="343.18" y="-445.2" font-family="Arial" font-size="10.00">FOREIGN KEY (blog_id) REFERENCES blogs(id) ON DELETE CASCADE</text>
</g>
</g>
</svg>
