<?xml version="1.0" encoding="UTF-8" standalone="no"?>
<!DOCTYPE svg PUBLIC "-//W3C//DTD SVG 1.1//EN"
 "http://www.w3.org/Graphics/SVG/1.1/DTD/svg11.dtd">
<!-- Generated by graphviz version 2.40.1 (20161225.0304)
 -->
<!-- Title: public.comments Pages: 1 -->
<svg width="877pt" height="1109pt"
 viewBox="0.00 0.00 877.00 1109.00" xmlns="http://www.w3.org/2000/svg" xmlns:xlink="http://www.w3.org/1999/xlink">
<g id="graph0" class="graph" transform="scale(1 1) rotate(0) translate(4 1105)">
<title>public.comments</title>
<polygon fill="#ffffff" stroke="transparent" points="-4,4 -4,-1105 873,-1105 873,4 -4,4"/>
<!-- public.comments -->
<g id="node1" class="node">
<title>public.comments</title>
<polygon fill="#efefef" stroke="transparent" points="236,-652.5 236,-687.5 512,-687.5 512,-652.5 236,-652.5"/>
<polygon fill="none" stroke="#000000" points="236,-652.5 236,-687.5 512,-687.5 512,-652.5 236,-652.5"/>
<text text-anchor="start" x="242.7088" y="-665.3" font-family="Arial Bold" font-size="18.00" fill="#000000">public.comments</text>
<text text-anchor="start" x="377.7232" y="-665.3" font-family="Arial" font-size="14.00" fill="#000000">    </text>
<text text-anchor="start" x="411.928" y="-665.3" font-family="Arial" font-size="14.00" fill="#666666">[BASE TABLE]</text>
<polygon fill="none" stroke="#000000" points="236,-622.5 236,-652.5 512,-652.5 512,-622.5 236,-622.5"/>
<text text-anchor="start" x="243" y="-633.9" font-family="Arial" font-size="14.00" fill="#000000">id </text>
<text text-anchor="start" x="257.7798" y="-633.9" font-family="Arial" font-size="14.00" fill="#666666">[bigint]</text>
<polygon fill="none" stroke="#000000" points="236,-592.5 236,-622.5 512,-622.5 512,-592.5 236,-592.5"/>
<text text-anchor="start" x="243" y="-603.9" font-family="Arial" font-size="14.00" fill="#000000">post_id </text>
<text text-anchor="start" x="292.0182" y="-603.9" font-family="Arial" font-size="14.00" fill="#666666">[bigint]</text>
<polygon fill="none" stroke="#000000" points="236,-562.5 236,-592.5 512,-592.5 512,-562.5 236,-562.5"/>
<text text-anchor="start" x="243" y="-573.9" font-family="Arial" font-size="14.00" fill="#000000">user_id </text>
<text text-anchor="start" x="292.7882" y="-573.9" font-family="Arial" font-size="14.00" fill="#666666">[integer]</text>
<polygon fill="none" stroke="#000000" points="236,-532.5 236,-562.5 512,-562.5 512,-532.5 236,-532.5"/>
<text text-anchor="start" x="243" y="-543.9" font-family="Arial" font-size="14.00" fill="#000000">comment </text>
<text text-anchor="start" x="304.4502" y="-543.9" font-family="Arial" font-size="14.00" fill="#666666">[text]</text>
<polygon fill="none" stroke="#000000" points="236,-502.5 236,-532.5 512,-532.5 512,-502.5 236,-502.5"/>
<text text-anchor="start" x="243" y="-513.9" font-family="Arial" font-size="14.00" fill="#000000">post_id_desc </text>
<text text-anchor="start" x="329.366" y="-513.9" font-family="Arial" font-size="14.00" fill="#666666">[bigint]</text>
<polygon fill="none" stroke="#000000" points="236,-472.5 236,-502.5 512,-502.5 512,-472.5 236,-472.5"/>
<text text-anchor="start" x="243" y="-483.9" font-family="Arial" font-size="14.00" fill="#000000">created </text>
<text text-anchor="start" x="293.5722" y="-483.9" font-family="Arial" font-size="14.00" fill="#666666">[timestamp without time zone]</text>
<polygon fill="none" stroke="#000000" points="236,-442.5 236,-472.5 512,-472.5 512,-442.5 236,-442.5"/>
<text text-anchor="start" x="243" y="-453.9" font-family="Arial" font-size="14.00" fill="#000000">updated </text>
<text text-anchor="start" x="297.4768" y="-453.9" font-family="Arial" font-size="14.00" fill="#666666">[timestamp without time zone]</text>
<polygon fill="none" stroke="#000000" stroke-width="3" points="234.5,-441.5 234.5,-689.5 513.5,-689.5 513.5,-441.5 234.5,-441.5"/>
</g>
<!-- public.posts -->
<g id="node3" class="node">
<title>public.posts</title>
<polygon fill="#efefef" stroke="transparent" points="69,-282.5 69,-317.5 322,-317.5 322,-282.5 69,-282.5"/>
<polygon fill="none" stroke="#000000" points="69,-282.5 69,-317.5 322,-317.5 322,-282.5 69,-282.5"/>
<text text-anchor="start" x="99.3612" y="-295.3" font-family="Arial Bold" font-size="18.00" fill="#000000">public.posts</text>
<text text-anchor="start" x="194.385" y="-295.3" font-family="Arial" font-size="14.00" fill="#000000"> </text>
<text text-anchor="start" x="198.2756" y="-295.3" font-family="Arial" font-size="14.00" fill="#666666">[BASE TABLE]</text>
<polygon fill="none" stroke="#000000" points="69,-252.5 69,-282.5 322,-282.5 322,-252.5 69,-252.5"/>
<text text-anchor="start" x="76" y="-263.9" font-family="Arial" font-size="14.00" fill="#000000">id </text>
<text text-anchor="start" x="90.7798" y="-263.9" font-family="Arial" font-size="14.00" fill="#666666">[bigint]</text>
<polygon fill="none" stroke="#000000" points="69,-222.5 69,-252.5 322,-252.5 322,-222.5 69,-222.5"/>
<text text-anchor="start" x="76" y="-233.9" font-family="Arial" font-size="14.00" fill="#000000">user_id </text>
<text text-anchor="start" x="125.7882" y="-233.9" font-family="Arial" font-size="14.00" fill="#666666">[integer]</text>
<polygon fill="none" stroke="#000000" points="69,-192.5 69,-222.5 322,-222.5 322,-192.5 69,-192.5"/>
<text text-anchor="start" x="76" y="-203.9" font-family="Arial" font-size="14.00" fill="#000000">title </text>
<text text-anchor="start" x="101.6676" y="-203.9" font-family="Arial" font-size="14.00" fill="#666666">[varchar(255)]</text>
<polygon fill="none" stroke="#000000" points="69,-162.5 69,-192.5 322,-192.5 322,-162.5 69,-162.5"/>
<text text-anchor="start" x="76" y="-173.9" font-family="Arial" font-size="14.00" fill="#000000">body </text>
<text text-anchor="start" x="110.2384" y="-173.9" font-family="Arial" font-size="14.00" fill="#666666">[text]</text>
<polygon fill="none" stroke="#000000" points="69,-132.5 69,-162.5 322,-162.5 322,-132.5 69,-132.5"/>
<text text-anchor="start" x="76" y="-143.9" font-family="Arial" font-size="14.00" fill="#000000">post_type </text>
<text text-anchor="start" x="140.5848" y="-143.9" font-family="Arial" font-size="14.00" fill="#666666">[post_types]</text>
<polygon fill="none" stroke="#000000" points="69,-102.5 69,-132.5 322,-132.5 322,-102.5 69,-102.5"/>
<text text-anchor="start" x="76" y="-113.9" font-family="Arial" font-size="14.00" fill="#000000">labels </text>
<text text-anchor="start" x="116.4516" y="-113.9" font-family="Arial" font-size="14.00" fill="#666666">[varchar(50)[]]</text>
<polygon fill="none" stroke="#000000" points="69,-72.5 69,-102.5 322,-102.5 322,-72.5 69,-72.5"/>
<text text-anchor="start" x="76" y="-83.9" font-family="Arial" font-size="14.00" fill="#000000">created </text>
<text text-anchor="start" x="126.5722" y="-83.9" font-family="Arial" font-size="14.00" fill="#666666">[timestamp without time zone]</text>
<polygon fill="none" stroke="#000000" points="69,-42.5 69,-72.5 322,-72.5 322,-42.5 69,-42.5"/>
<text text-anchor="start" x="75.6915" y="-53.9" font-family="Arial" font-size="14.00" fill="#000000">updated </text>
<text text-anchor="start" x="130.1683" y="-53.9" font-family="Arial" font-size="14.00" fill="#666666">[timestamp without time zone]</text>
</g>
<!-- public.comments&#45;&gt;public.posts -->
<g id="edge2" class="edge">
<title>public.comments:post_id&#45;&gt;public.posts:id</title>
<path fill="none" stroke="#000000" d="M225.6483,-606.9041C145.7196,-597.223 186.1936,-471.8433 236,-397 258.9561,-362.5043 299.0439,-395.4957 322,-361 345.0223,-326.4047 363.5556,-267.5 322,-267.5"/>
<polygon fill="#000000" stroke="#000000" points="226.0165,-606.9252 235.7413,-611.9926 231.0083,-607.2126 236,-607.5 236,-607.5 236,-607.5 231.0083,-607.2126 236.2587,-603.0074 226.0165,-606.9252 226.0165,-606.9252"/>
<text text-anchor="start" x="6.8845" y="-617.5" font-family="Arial" font-size="10.00" fill="#000000">FOREIGN KEY (post_id) REFERENCES posts(id)</text>
</g>
<!-- public.users -->
<g id="node5" class="node">
<title>public.users</title>
<polygon fill="#efefef" stroke="transparent" points="426,-252.5 426,-287.5 679,-287.5 679,-252.5 426,-252.5"/>
<polygon fill="none" stroke="#000000" points="426,-252.5 426,-287.5 679,-287.5 679,-252.5 426,-252.5"/>
<text text-anchor="start" x="455.8662" y="-265.3" font-family="Arial Bold" font-size="18.00" fill="#000000">public.users</text>
<text text-anchor="start" x="551.88" y="-265.3" font-family="Arial" font-size="14.00" fill="#000000"> </text>
<text text-anchor="start" x="555.7706" y="-265.3" font-family="Arial" font-size="14.00" fill="#666666">[BASE TABLE]</text>
<polygon fill="none" stroke="#000000" points="426,-222.5 426,-252.5 679,-252.5 679,-222.5 426,-222.5"/>
<text text-anchor="start" x="433" y="-233.9" font-family="Arial" font-size="14.00" fill="#000000">id </text>
<text text-anchor="start" x="447.7798" y="-233.9" font-family="Arial" font-size="14.00" fill="#666666">[integer]</text>
<polygon fill="none" stroke="#000000" points="426,-192.5 426,-222.5 679,-222.5 679,-192.5 426,-192.5"/>
<text text-anchor="start" x="433" y="-203.9" font-family="Arial" font-size="14.00" fill="#000000">username </text>
<text text-anchor="start" x="499.1248" y="-203.9" font-family="Arial" font-size="14.00" fill="#666666">[varchar(50)]</text>
<polygon fill="none" stroke="#000000" points="426,-162.5 426,-192.5 679,-192.5 679,-162.5 426,-162.5"/>
<text text-anchor="start" x="433" y="-173.9" font-family="Arial" font-size="14.00" fill="#000000">password </text>
<text text-anchor="start" x="496.7882" y="-173.9" font-family="Arial" font-size="14.00" fill="#666666">[varchar(50)]</text>
<polygon fill="none" stroke="#000000" points="426,-132.5 426,-162.5 679,-162.5 679,-132.5 426,-132.5"/>
<text text-anchor="start" x="433" y="-143.9" font-family="Arial" font-size="14.00" fill="#000000">email </text>
<text text-anchor="start" x="470.3296" y="-143.9" font-family="Arial" font-size="14.00" fill="#666666">[varchar(355)]</text>
<polygon fill="none" stroke="#000000" points="426,-102.5 426,-132.5 679,-132.5 679,-102.5 426,-102.5"/>
<text text-anchor="start" x="433" y="-113.9" font-family="Arial" font-size="14.00" fill="#000000">created </text>
<text text-anchor="start" x="483.5722" y="-113.9" font-family="Arial" font-size="14.00" fill="#666666">[timestamp without time zone]</text>
<polygon fill="none" stroke="#000000" points="426,-72.5 426,-102.5 679,-102.5 679,-72.5 426,-72.5"/>
<text text-anchor="start" x="432.6915" y="-83.9" font-family="Arial" font-size="14.00" fill="#000000">updated </text>
<text text-anchor="start" x="487.1683" y="-83.9" font-family="Arial" font-size="14.00" fill="#666666">[timestamp without time zone]</text>
</g>
<!-- public.comments&#45;&gt;public.users -->
<g id="edge4" class="edge">
<title>public.comments:user_id&#45;&gt;public.users:id</title>
<path fill="none" stroke="#000000" d="M522.0668,-576.856C588.221,-567.8214 545.885,-465.7183 512,-397 490.6918,-353.7872 447.3082,-374.2128 426,-331 407.6218,-293.7293 384.4444,-237.5 426,-237.5"/>
<polygon fill="#000000" stroke="#000000" points="521.9796,-576.8615 511.7127,-573.0092 516.9898,-577.1807 512,-577.5 512,-577.5 512,-577.5 516.9898,-577.1807 512.2873,-581.9908 521.9796,-576.8615 521.9796,-576.8615"/>
<text text-anchor="start" x="519.3345" y="-587.5" font-family="Arial" font-size="10.00" fill="#000000">FOREIGN KEY (user_id) REFERENCES users(id)</text>
</g>
<!-- public.logs -->
<g id="node2" class="node">
<title>public.logs</title>
<polygon fill="#efefef" stroke="transparent" points="64,-1022.5 64,-1057.5 313,-1057.5 313,-1022.5 64,-1022.5"/>
<polygon fill="none" stroke="#000000" points="64,-1022.5 64,-1057.5 313,-1057.5 313,-1022.5 64,-1022.5"/>
<text text-anchor="start" x="97.3652" y="-1035.3" font-family="Arial Bold" font-size="18.00" fill="#000000">public.logs</text>
<text text-anchor="start" x="182.381" y="-1035.3" font-family="Arial" font-size="14.00" fill="#000000"> </text>
<text text-anchor="start" x="186.2716" y="-1035.3" font-family="Arial" font-size="14.00" fill="#666666">[BASE TABLE]</text>
<polygon fill="none" stroke="#000000" points="64,-992.5 64,-1022.5 313,-1022.5 313,-992.5 64,-992.5"/>
<text text-anchor="start" x="71" y="-1003.9" font-family="Arial" font-size="14.00" fill="#000000">id </text>
<text text-anchor="start" x="85.7798" y="-1003.9" font-family="Arial" font-size="14.00" fill="#666666">[uuid]</text>
<polygon fill="none" stroke="#000000" points="64,-962.5 64,-992.5 313,-992.5 313,-962.5 64,-962.5"/>
<text text-anchor="start" x="71" y="-973.9" font-family="Arial" font-size="14.00" fill="#000000">user_id </text>
<text text-anchor="start" x="120.7882" y="-973.9" font-family="Arial" font-size="14.00" fill="#666666">[integer]</text>
<polygon fill="none" stroke="#000000" points="64,-932.5 64,-962.5 313,-962.5 313,-932.5 64,-932.5"/>
<text text-anchor="start" x="71" y="-943.9" font-family="Arial" font-size="14.00" fill="#000000">post_id </text>
<text text-anchor="start" x="120.0182" y="-943.9" font-family="Arial" font-size="14.00" fill="#666666">[bigint]</text>
<polygon fill="none" stroke="#000000" points="64,-902.5 64,-932.5 313,-932.5 313,-902.5 64,-902.5"/>
<text text-anchor="start" x="71" y="-913.9" font-family="Arial" font-size="14.00" fill="#000000">comment_id </text>
<text text-anchor="start" x="151.122" y="-913.9" font-family="Arial" font-size="14.00" fill="#666666">[bigint]</text>
<polygon fill="none" stroke="#000000" points="64,-872.5 64,-902.5 313,-902.5 313,-872.5 64,-872.5"/>
<text text-anchor="start" x="71" y="-883.9" font-family="Arial" font-size="14.00" fill="#000000">comment_star_id </text>
<text text-anchor="start" x="182.2384" y="-883.9" font-family="Arial" font-size="14.00" fill="#666666">[uuid]</text>
<polygon fill="none" stroke="#000000" points="64,-842.5 64,-872.5 313,-872.5 313,-842.5 64,-842.5"/>
<text text-anchor="start" x="71" y="-853.9" font-family="Arial" font-size="14.00" fill="#000000">payload </text>
<text text-anchor="start" x="123.9102" y="-853.9" font-family="Arial" font-size="14.00" fill="#666666">[text]</text>
<polygon fill="none" stroke="#000000" points="64,-812.5 64,-842.5 313,-842.5 313,-812.5 64,-812.5"/>
<text text-anchor="start" x="70.6438" y="-823.9" font-family="Arial" font-size="14.00" fill="#000000">created </text>
<text text-anchor="start" x="121.216" y="-823.9" font-family="Arial" font-size="14.00" fill="#666666">[timestamp without time zone]</text>
</g>
<!-- public.logs&#45;&gt;public.comments -->
<g id="edge1" class="edge">
<title>public.logs:comment_id&#45;&gt;public.comments:id</title>
<path fill="none" stroke="#000000" stroke-dasharray="5,2" d="M323.2327,-916.6361C375.1008,-907.1746 346.2017,-822.1741 313,-770 292.718,-738.1283 256.282,-765.8717 236,-734 212.974,-697.8163 193.1111,-637.5 236,-637.5"/>
<polygon fill="#000000" stroke="#000000" points="322.9646,-916.6587 312.6214,-913.016 317.9823,-917.0793 313,-917.5 313,-917.5 313,-917.5 317.9823,-917.0793 313.3786,-921.984 322.9646,-916.6587 322.9646,-916.6587"/>
<text text-anchor="start" x="320.3245" y="-927.5" font-family="Arial" font-size="10.00" fill="#000000">Additional Relation</text>
</g>
<!-- public.comment_stars -->
<g id="node4" class="node">
<title>public.comment_stars</title>
<polygon fill="#efefef" stroke="transparent" points="417,-1007.5 417,-1042.5 703,-1042.5 703,-1007.5 417,-1007.5"/>
<polygon fill="none" stroke="#000000" points="417,-1007.5 417,-1042.5 703,-1042.5 703,-1007.5 417,-1007.5"/>
<text text-anchor="start" x="423.8625" y="-1020.3" font-family="Arial Bold" font-size="18.00" fill="#000000">public.comment_stars</text>
<text text-anchor="start" x="598.8837" y="-1020.3" font-family="Arial" font-size="14.00" fill="#000000"> </text>
<text text-anchor="start" x="602.7743" y="-1020.3" font-family="Arial" font-size="14.00" fill="#666666">[BASE TABLE]</text>
<polygon fill="none" stroke="#000000" points="417,-977.5 417,-1007.5 703,-1007.5 703,-977.5 417,-977.5"/>
<text text-anchor="start" x="424" y="-988.9" font-family="Arial" font-size="14.00" fill="#000000">id </text>
<text text-anchor="start" x="438.7798" y="-988.9" font-family="Arial" font-size="14.00" fill="#666666">[uuid]</text>
<polygon fill="none" stroke="#000000" points="417,-947.5 417,-977.5 703,-977.5 703,-947.5 417,-947.5"/>
<text text-anchor="start" x="424" y="-958.9" font-family="Arial" font-size="14.00" fill="#000000">user_id </text>
<text text-anchor="start" x="473.7882" y="-958.9" font-family="Arial" font-size="14.00" fill="#666666">[integer]</text>
<polygon fill="none" stroke="#000000" points="417,-917.5 417,-947.5 703,-947.5 703,-917.5 417,-917.5"/>
<text text-anchor="start" x="424" y="-928.9" font-family="Arial" font-size="14.00" fill="#000000">comment_post_id </text>
<text text-anchor="start" x="538.3604" y="-928.9" font-family="Arial" font-size="14.00" fill="#666666">[bigint]</text>
<polygon fill="none" stroke="#000000" points="417,-887.5 417,-917.5 703,-917.5 703,-887.5 417,-887.5"/>
<text text-anchor="start" x="424" y="-898.9" font-family="Arial" font-size="14.00" fill="#000000">comment_user_id </text>
<text text-anchor="start" x="539.1304" y="-898.9" font-family="Arial" font-size="14.00" fill="#666666">[integer]</text>
<polygon fill="none" stroke="#000000" points="417,-857.5 417,-887.5 703,-887.5 703,-857.5 417,-857.5"/>
<text text-anchor="start" x="424" y="-868.9" font-family="Arial" font-size="14.00" fill="#000000">created </text>
<text text-anchor="start" x="474.5722" y="-868.9" font-family="Arial" font-size="14.00" fill="#666666">[timestamp without time zone]</text>
<polygon fill="none" stroke="#000000" points="417,-827.5 417,-857.5 703,-857.5 703,-827.5 417,-827.5"/>
<text text-anchor="start" x="424" y="-838.9" font-family="Arial" font-size="14.00" fill="#000000">updated </text>
<text text-anchor="start" x="478.4768" y="-838.9" font-family="Arial" font-size="14.00" fill="#666666">[timestamp without time zone]</text>
</g>
<!-- public.comment_stars&#45;&gt;public.comments -->
<g id="edge3" class="edge">
<title>public.comment_stars:comment_post_id&#45;&gt;public.comments:post_id</title>
<path fill="none" stroke="#000000" d="M406.7813,-931.6448C355.0642,-922.2764 385.2547,-838.0728 417,-785 441.5995,-743.8739 487.4005,-775.1261 512,-734 540.8603,-685.7504 568.2222,-607.5 512,-607.5"/>
<polygon fill="#000000" stroke="#000000" points="407.0348,-931.6659 416.6247,-936.9843 412.0174,-932.083 417,-932.5 417,-932.5 417,-932.5 412.0174,-932.083 417.3753,-928.0157 407.0348,-931.6659 407.0348,-931.6659"/>
<text text-anchor="start" x="423.533" y="-942.5" font-family="Arial" font-size="10.00" fill="#000000">FOREIGN KEY (comment_post_id, comment_user_id) REFERENCES comments(post_id, user_id)</text>
</g>
</g>
</svg>
