<?xml version="1.0" encoding="UTF-8" standalone="no"?>
<!DOCTYPE svg PUBLIC "-//W3C//DTD SVG 1.1//EN"
 "http://www.w3.org/Graphics/SVG/1.1/DTD/svg11.dtd">
<!-- Generated by graphviz version 2.40.1 (20161225.0304)
 -->
<!-- Title: public.CamelizeTable Pages: 1 -->
<svg width="775pt" height="472pt"
 viewBox="0.00 0.00 774.50 472.00" xmlns="http://www.w3.org/2000/svg" xmlns:xlink="http://www.w3.org/1999/xlink">
<g id="graph0" class="graph" transform="scale(1 1) rotate(0) translate(4 468)">
<title>public.CamelizeTable</title>
<polygon fill="#ffffff" stroke="transparent" points="-4,4 -4,-468 770.5,-468 770.5,4 -4,4"/>
<!-- public.CamelizeTable -->
<g id="node1" class="node">
<title>public.CamelizeTable</title>
<polygon fill="#efefef" stroke="transparent" points="438,-105.5 438,-140.5 721,-140.5 721,-105.5 438,-105.5"/>
<polygon fill="none" stroke="#000000" points="438,-105.5 438,-140.5 721,-140.5 721,-105.5 438,-105.5"/>
<text text-anchor="start" x="444.8673" y="-118.3" font-family="Arial Bold" font-size="18.00" fill="#000000">public.CamelizeTable</text>
<text text-anchor="start" x="616.8789" y="-118.3" font-family="Arial" font-size="14.00" fill="#000000"> </text>
<text text-anchor="start" x="620.7695" y="-118.3" font-family="Arial" font-size="14.00" fill="#666666">[BASE TABLE]</text>
<polygon fill="none" stroke="#000000" points="438,-75.5 438,-105.5 721,-105.5 721,-75.5 438,-75.5"/>
<text text-anchor="start" x="445" y="-86.9" font-family="Arial" font-size="14.00" fill="#000000">id </text>
<text text-anchor="start" x="459.7798" y="-86.9" font-family="Arial" font-size="14.00" fill="#666666">[uuid]</text>
<polygon fill="none" stroke="#000000" points="438,-45.5 438,-75.5 721,-75.5 721,-45.5 438,-45.5"/>
<text text-anchor="start" x="445" y="-56.9" font-family="Arial" font-size="14.00" fill="#000000">created </text>
<text text-anchor="start" x="495.5722" y="-56.9" font-family="Arial" font-size="14.00" fill="#666666">[timestamp without time zone]</text>
<polygon fill="none" stroke="#000000" stroke-width="3" points="436,-44.5 436,-142.5 722,-142.5 722,-44.5 436,-44.5"/>
</g>
<!-- public.hyphen&#45;table -->
<g id="node2" class="node">
<title>public.hyphen&#45;table</title>
<polygon fill="#efefef" stroke="transparent" points="446,-385.5 446,-420.5 713,-420.5 713,-385.5 446,-385.5"/>
<polygon fill="none" stroke="#000000" points="446,-385.5 446,-420.5 713,-420.5 713,-385.5 446,-385.5"/>
<text text-anchor="start" x="452.8494" y="-398.3" font-family="Arial Bold" font-size="18.00" fill="#000000">public.hyphen&#45;table</text>
<text text-anchor="start" x="608.8968" y="-398.3" font-family="Arial" font-size="14.00" fill="#000000"> </text>
<text text-anchor="start" x="612.7874" y="-398.3" font-family="Arial" font-size="14.00" fill="#666666">[BASE TABLE]</text>
<polygon fill="none" stroke="#000000" points="446,-355.5 446,-385.5 713,-385.5 713,-355.5 446,-355.5"/>
<text text-anchor="start" x="453" y="-366.9" font-family="Arial" font-size="14.00" fill="#000000">id </text>
<text text-anchor="start" x="467.7798" y="-366.9" font-family="Arial" font-size="14.00" fill="#666666">[uuid]</text>
<polygon fill="none" stroke="#000000" points="446,-325.5 446,-355.5 713,-355.5 713,-325.5 446,-325.5"/>
<text text-anchor="start" x="453" y="-336.9" font-family="Arial" font-size="14.00" fill="#000000">hyphen&#45;column </text>
<text text-anchor="start" x="552.5792" y="-336.9" font-family="Arial" font-size="14.00" fill="#666666">[text]</text>
<polygon fill="none" stroke="#000000" points="446,-295.5 446,-325.5 713,-325.5 713,-295.5 446,-295.5"/>
<text text-anchor="start" x="453" y="-306.9" font-family="Arial" font-size="14.00" fill="#000000">CamelizeTableId </text>
<text text-anchor="start" x="561.899" y="-306.9" font-family="Arial" font-size="14.00" fill="#666666">[uuid]</text>
<polygon fill="none" stroke="#000000" points="446,-265.5 446,-295.5 713,-295.5 713,-265.5 446,-265.5"/>
<text text-anchor="start" x="453" y="-276.9" font-family="Arial" font-size="14.00" fill="#000000">created </text>
<text text-anchor="start" x="503.5722" y="-276.9" font-family="Arial" font-size="14.00" fill="#666666">[timestamp without time zone]</text>
</g>
<!-- public.hyphen&#45;table&#45;&gt;public.CamelizeTable -->
<g id="edge1" class="edge">
<title>public.hyphen&#45;table:CamelizeTableId&#45;&gt;public.CamelizeTable:id</title>
<path fill="none" stroke="#000000" d="M436.2932,-307.39C396.2352,-280.6501 392.5186,-90.5 438,-90.5"/>
<polygon fill="#000000" stroke="#000000" points="436.4768,-307.4488 444.627,-314.7854 441.2384,-308.9744 446,-310.5 446,-310.5 446,-310.5 441.2384,-308.9744 447.373,-306.2146 436.4768,-307.4488 436.4768,-307.4488"/>
<text text-anchor="start" x="6.734" y="-320.5" font-family="Arial" font-size="10.00" fill="#000000">FOREIGN KEY (&quot;CamelizeTableId&quot;) REFERENCES &quot;CamelizeTable&quot;(id) ON DELETE CASCADE</text>
</g>
</g>
</svg>
