<?xml version="1.0" encoding="UTF-8" standalone="no"?>
<!DOCTYPE svg PUBLIC "-//W3C//DTD SVG 1.1//EN"
 "http://www.w3.org/Graphics/SVG/1.1/DTD/svg11.dtd">
<!-- Generated by graphviz version 2.40.1 (20161225.0304)
 -->
<!-- Title: public.users Pages: 1 -->
<svg width="2367pt" height="712pt"
 viewBox="0.00 0.00 2367.00 712.00" xmlns="http://www.w3.org/2000/svg" xmlns:xlink="http://www.w3.org/1999/xlink">
<g id="graph0" class="graph" transform="scale(1 1) rotate(0) translate(4 708)">
<title>public.users</title>
<polygon fill="#ffffff" stroke="transparent" points="-4,4 -4,-708 2363,-708 2363,4 -4,4"/>
<!-- public.users -->
<g id="node1" class="node">
<title>public.users</title>
<polygon fill="#efefef" stroke="transparent" points="1047,-225.5 1047,-260.5 1300,-260.5 1300,-225.5 1047,-225.5"/>
<polygon fill="none" stroke="#000000" points="1047,-225.5 1047,-260.5 1300,-260.5 1300,-225.5 1047,-225.5"/>
<text text-anchor="start" x="1061.7091" y="-238.3" font-family="Arial Bold" font-size="18.00" fill="#000000">public.users</text>
<text text-anchor="start" x="1157.7229" y="-238.3" font-family="Arial" font-size="14.00" fill="#000000">    </text>
<text text-anchor="start" x="1191.9277" y="-238.3" font-family="Arial" font-size="14.00" fill="#666666">[BASE TABLE]</text>
<polygon fill="none" stroke="#000000" points="1047,-195.5 1047,-225.5 1300,-225.5 1300,-195.5 1047,-195.5"/>
<text text-anchor="start" x="1054" y="-206.9" font-family="Arial" font-size="14.00" fill="#000000">id </text>
<text text-anchor="start" x="1068.7798" y="-206.9" font-family="Arial" font-size="14.00" fill="#666666">[integer]</text>
<polygon fill="none" stroke="#000000" points="1047,-165.5 1047,-195.5 1300,-195.5 1300,-165.5 1047,-165.5"/>
<text text-anchor="start" x="1054" y="-176.9" font-family="Arial" font-size="14.00" fill="#000000">username </text>
<text text-anchor="start" x="1120.1248" y="-176.9" font-family="Arial" font-size="14.00" fill="#666666">[varchar(50)]</text>
<polygon fill="none" stroke="#000000" points="1047,-135.5 1047,-165.5 1300,-165.5 1300,-135.5 1047,-135.5"/>
<text text-anchor="start" x="1054" y="-146.9" font-family="Arial" font-size="14.00" fill="#000000">password </text>
<text text-anchor="start" x="1117.7882" y="-146.9" font-family="Arial" font-size="14.00" fill="#666666">[varchar(50)]</text>
<polygon fill="none" stroke="#000000" points="1047,-105.5 1047,-135.5 1300,-135.5 1300,-105.5 1047,-105.5"/>
<text text-anchor="start" x="1054" y="-116.9" font-family="Arial" font-size="14.00" fill="#000000">email </text>
<text text-anchor="start" x="1091.3296" y="-116.9" font-family="Arial" font-size="14.00" fill="#666666">[varchar(355)]</text>
<polygon fill="none" stroke="#000000" points="1047,-75.5 1047,-105.5 1300,-105.5 1300,-75.5 1047,-75.5"/>
<text text-anchor="start" x="1054" y="-86.9" font-family="Arial" font-size="14.00" fill="#000000">created </text>
<text text-anchor="start" x="1104.5722" y="-86.9" font-family="Arial" font-size="14.00" fill="#666666">[timestamp without time zone]</text>
<polygon fill="none" stroke="#000000" points="1047,-45.5 1047,-75.5 1300,-75.5 1300,-45.5 1047,-45.5"/>
<text text-anchor="start" x="1053.6915" y="-56.9" font-family="Arial" font-size="14.00" fill="#000000">updated </text>
<text text-anchor="start" x="1108.1683" y="-56.9" font-family="Arial" font-size="14.00" fill="#666666">[timestamp without time zone]</text>
<polygon fill="none" stroke="#000000" stroke-width="3" points="1045,-44.5 1045,-262.5 1301,-262.5 1301,-44.5 1045,-44.5"/>
</g>
<!-- public.user_options -->
<g id="node2" class="node">
<title>public.user_options</title>
<polygon fill="#efefef" stroke="transparent" points="43,-565.5 43,-600.5 339,-600.5 339,-565.5 43,-565.5"/>
<polygon fill="none" stroke="#000000" points="43,-565.5 43,-600.5 339,-600.5 339,-565.5 43,-565.5"/>
<text text-anchor="start" x="49.6954" y="-578.3" font-family="Arial Bold" font-size="18.00" fill="#000000">public.user_options</text>
<text text-anchor="start" x="204.7366" y="-578.3" font-family="Arial" font-size="14.00" fill="#000000">    </text>
<text text-anchor="start" x="238.9414" y="-578.3" font-family="Arial" font-size="14.00" fill="#666666">[BASE TABLE]</text>
<polygon fill="none" stroke="#000000" points="43,-535.5 43,-565.5 339,-565.5 339,-535.5 43,-535.5"/>
<text text-anchor="start" x="50" y="-546.9" font-family="Arial" font-size="14.00" fill="#000000">user_id    </text>
<text text-anchor="start" x="130.1024" y="-546.9" font-family="Arial" font-size="14.00" fill="#666666">[integer]</text>
<polygon fill="none" stroke="#000000" points="43,-505.5 43,-535.5 339,-535.5 339,-505.5 43,-505.5"/>
<text text-anchor="start" x="50" y="-516.9" font-family="Arial" font-size="14.00" fill="#000000">show_email    </text>
<text text-anchor="start" x="158.0982" y="-516.9" font-family="Arial" font-size="14.00" fill="#666666">[boolean]</text>
<polygon fill="none" stroke="#000000" points="43,-475.5 43,-505.5 339,-505.5 339,-475.5 43,-475.5"/>
<text text-anchor="start" x="50" y="-486.9" font-family="Arial" font-size="14.00" fill="#000000">created    </text>
<text text-anchor="start" x="130.8864" y="-486.9" font-family="Arial" font-size="14.00" fill="#666666">[timestamp without time zone]</text>
<polygon fill="none" stroke="#000000" points="43,-445.5 43,-475.5 339,-475.5 339,-445.5 43,-445.5"/>
<text text-anchor="start" x="50" y="-456.9" font-family="Arial" font-size="14.00" fill="#000000">updated    </text>
<text text-anchor="start" x="134.791" y="-456.9" font-family="Arial" font-size="14.00" fill="#666666">[timestamp without time zone]</text>
</g>
<!-- public.user_options&#45;&gt;public.users -->
<g id="edge1" class="edge">
<title>public.user_options:user_id&#45;&gt;public.users:id</title>
<path fill="none" stroke="#000000" d="M349.2174,-549.8637C425.6122,-539.5346 324.9223,-406.0905 391,-343 498.5654,-240.2974 898.2783,-210.5 1047,-210.5"/>
<polygon fill="#000000" stroke="#000000" points="348.9807,-549.8783 338.7203,-546.0087 343.9903,-550.1892 339,-550.5 339,-550.5 339,-550.5 343.9903,-550.1892 339.2797,-554.9913 348.9807,-549.8783 348.9807,-549.8783"/>
<text text-anchor="start" x="172.5535" y="-534.5" font-family="Arial" font-size="10.00" fill="#000000">FOREIGN KEY (user_id) REFERENCES users(id) ON DELETE CASCADE</text>
</g>
<!-- public.posts -->
<g id="node3" class="node">
<title>public.posts</title>
<polygon fill="#efefef" stroke="transparent" points="444,-625.5 444,-660.5 727,-660.5 727,-625.5 444,-625.5"/>
<polygon fill="none" stroke="#000000" points="444,-625.5 444,-660.5 727,-660.5 727,-625.5 444,-625.5"/>
<text text-anchor="start" x="474.2041" y="-638.3" font-family="Arial Bold" font-size="18.00" fill="#000000">public.posts</text>
<text text-anchor="start" x="569.2279" y="-638.3" font-family="Arial" font-size="14.00" fill="#000000">    </text>
<text text-anchor="start" x="603.4327" y="-638.3" font-family="Arial" font-size="14.00" fill="#666666">[BASE TABLE]</text>
<polygon fill="none" stroke="#000000" points="444,-595.5 444,-625.5 727,-625.5 727,-595.5 444,-595.5"/>
<text text-anchor="start" x="451" y="-606.9" font-family="Arial" font-size="14.00" fill="#000000">id    </text>
<text text-anchor="start" x="496.094" y="-606.9" font-family="Arial" font-size="14.00" fill="#666666">[bigint]</text>
<polygon fill="none" stroke="#000000" points="444,-565.5 444,-595.5 727,-595.5 727,-565.5 444,-565.5"/>
<text text-anchor="start" x="451" y="-576.9" font-family="Arial" font-size="14.00" fill="#000000">user_id    </text>
<text text-anchor="start" x="531.1024" y="-576.9" font-family="Arial" font-size="14.00" fill="#666666">[integer]</text>
<polygon fill="none" stroke="#000000" points="444,-535.5 444,-565.5 727,-565.5 727,-535.5 444,-535.5"/>
<text text-anchor="start" x="451" y="-546.9" font-family="Arial" font-size="14.00" fill="#000000">title    </text>
<text text-anchor="start" x="506.9818" y="-546.9" font-family="Arial" font-size="14.00" fill="#666666">[varchar(255)]</text>
<polygon fill="none" stroke="#000000" points="444,-505.5 444,-535.5 727,-535.5 727,-505.5 444,-505.5"/>
<text text-anchor="start" x="451" y="-516.9" font-family="Arial" font-size="14.00" fill="#000000">body    </text>
<text text-anchor="start" x="515.5526" y="-516.9" font-family="Arial" font-size="14.00" fill="#666666">[text]</text>
<polygon fill="none" stroke="#000000" points="444,-475.5 444,-505.5 727,-505.5 727,-475.5 444,-475.5"/>
<text text-anchor="start" x="451" y="-486.9" font-family="Arial" font-size="14.00" fill="#000000">post_type    </text>
<text text-anchor="start" x="545.899" y="-486.9" font-family="Arial" font-size="14.00" fill="#666666">[post_types]</text>
<polygon fill="none" stroke="#000000" points="444,-445.5 444,-475.5 727,-475.5 727,-445.5 444,-445.5"/>
<text text-anchor="start" x="451" y="-456.9" font-family="Arial" font-size="14.00" fill="#000000">labels    </text>
<text text-anchor="start" x="521.7658" y="-456.9" font-family="Arial" font-size="14.00" fill="#666666">[varchar(50)[]]</text>
<polygon fill="none" stroke="#000000" points="444,-415.5 444,-445.5 727,-445.5 727,-415.5 444,-415.5"/>
<text text-anchor="start" x="451" y="-426.9" font-family="Arial" font-size="14.00" fill="#000000">created    </text>
<text text-anchor="start" x="531.8864" y="-426.9" font-family="Arial" font-size="14.00" fill="#666666">[timestamp without time zone]</text>
<polygon fill="none" stroke="#000000" points="444,-385.5 444,-415.5 727,-415.5 727,-385.5 444,-385.5"/>
<text text-anchor="start" x="450.5344" y="-396.9" font-family="Arial" font-size="14.00" fill="#000000">updated    </text>
<text text-anchor="start" x="535.3254" y="-396.9" font-family="Arial" font-size="14.00" fill="#666666">[timestamp without time zone]</text>
</g>
<!-- public.posts&#45;&gt;public.users -->
<g id="edge2" class="edge">
<title>public.posts:user_id&#45;&gt;public.users:id</title>
<path fill="none" stroke="#000000" d="M737.0044,-580.0041C826.9796,-570.4561 713.8135,-425.3085 778,-343 859.9553,-237.9059 913.728,-210.5 1047,-210.5"/>
<polygon fill="#000000" stroke="#000000" points="736.9877,-580.0048 726.7772,-576.0055 731.9939,-580.2524 727,-580.5 727,-580.5 727,-580.5 731.9939,-580.2524 727.2228,-584.9945 736.9877,-580.0048 736.9877,-580.0048"/>
<text text-anchor="start" x="734.2185" y="-590.5" font-family="Arial" font-size="10.00" fill="#000000">FOREIGN KEY (user_id) REFERENCES users(id) ON DELETE SET NULL (user_id)</text>
</g>
<!-- public.comments -->
<g id="node4" class="node">
<title>public.comments</title>
<polygon fill="#efefef" stroke="transparent" points="831,-610.5 831,-645.5 1114,-645.5 1114,-610.5 831,-610.5"/>
<polygon fill="none" stroke="#000000" points="831,-610.5 831,-645.5 1114,-645.5 1114,-610.5 831,-610.5"/>
<text text-anchor="start" x="841.2088" y="-623.3" font-family="Arial Bold" font-size="18.00" fill="#000000">public.comments</text>
<text text-anchor="start" x="976.2232" y="-623.3" font-family="Arial" font-size="14.00" fill="#000000">    </text>
<text text-anchor="start" x="1010.428" y="-623.3" font-family="Arial" font-size="14.00" fill="#666666">[BASE TABLE]</text>
<polygon fill="none" stroke="#000000" points="831,-580.5 831,-610.5 1114,-610.5 1114,-580.5 831,-580.5"/>
<text text-anchor="start" x="838" y="-591.9" font-family="Arial" font-size="14.00" fill="#000000">id    </text>
<text text-anchor="start" x="883.094" y="-591.9" font-family="Arial" font-size="14.00" fill="#666666">[bigint]</text>
<polygon fill="none" stroke="#000000" points="831,-550.5 831,-580.5 1114,-580.5 1114,-550.5 831,-550.5"/>
<text text-anchor="start" x="838" y="-561.9" font-family="Arial" font-size="14.00" fill="#000000">post_id    </text>
<text text-anchor="start" x="917.3324" y="-561.9" font-family="Arial" font-size="14.00" fill="#666666">[bigint]</text>
<polygon fill="none" stroke="#000000" points="831,-520.5 831,-550.5 1114,-550.5 1114,-520.5 831,-520.5"/>
<text text-anchor="start" x="838" y="-531.9" font-family="Arial" font-size="14.00" fill="#000000">user_id    </text>
<text text-anchor="start" x="918.1024" y="-531.9" font-family="Arial" font-size="14.00" fill="#666666">[integer]</text>
<polygon fill="none" stroke="#000000" points="831,-490.5 831,-520.5 1114,-520.5 1114,-490.5 831,-490.5"/>
<text text-anchor="start" x="838" y="-501.9" font-family="Arial" font-size="14.00" fill="#000000">comment    </text>
<text text-anchor="start" x="929.7644" y="-501.9" font-family="Arial" font-size="14.00" fill="#666666">[text]</text>
<polygon fill="none" stroke="#000000" points="831,-460.5 831,-490.5 1114,-490.5 1114,-460.5 831,-460.5"/>
<text text-anchor="start" x="838" y="-471.9" font-family="Arial" font-size="14.00" fill="#000000">post_id_desc    </text>
<text text-anchor="start" x="954.6802" y="-471.9" font-family="Arial" font-size="14.00" fill="#666666">[bigint]</text>
<polygon fill="none" stroke="#000000" points="831,-430.5 831,-460.5 1114,-460.5 1114,-430.5 831,-430.5"/>
<text text-anchor="start" x="838" y="-441.9" font-family="Arial" font-size="14.00" fill="#000000">created    </text>
<text text-anchor="start" x="918.8864" y="-441.9" font-family="Arial" font-size="14.00" fill="#666666">[timestamp without time zone]</text>
<polygon fill="none" stroke="#000000" points="831,-400.5 831,-430.5 1114,-430.5 1114,-400.5 831,-400.5"/>
<text text-anchor="start" x="837.5344" y="-411.9" font-family="Arial" font-size="14.00" fill="#000000">updated    </text>
<text text-anchor="start" x="922.3254" y="-411.9" font-family="Arial" font-size="14.00" fill="#666666">[timestamp without time zone]</text>
</g>
<!-- public.comments&#45;&gt;public.users -->
<g id="edge3" class="edge">
<title>public.comments:user_id&#45;&gt;public.users:id</title>
<path fill="none" stroke="#000000" d="M1124.2982,-534.8106C1188.7964,-525.5655 1147.3866,-425.3722 1114,-358 1097.3832,-324.4683 1063.6168,-340.5317 1047,-307 1027.9563,-268.5709 1004.1111,-210.5 1047,-210.5"/>
<polygon fill="#000000" stroke="#000000" points="1123.9777,-534.832 1113.6994,-531.01 1118.9888,-535.166 1114,-535.5 1114,-535.5 1114,-535.5 1118.9888,-535.166 1114.3006,-539.99 1123.9777,-534.832 1123.9777,-534.832"/>
<text text-anchor="start" x="1121.3345" y="-545.5" font-family="Arial" font-size="10.00" fill="#000000">FOREIGN KEY (user_id) REFERENCES users(id)</text>
</g>
<!-- public.comment_stars -->
<g id="node5" class="node">
<title>public.comment_stars</title>
<polygon fill="#efefef" stroke="transparent" points="1218,-595.5 1218,-630.5 1534,-630.5 1534,-595.5 1218,-595.5"/>
<polygon fill="none" stroke="#000000" points="1218,-595.5 1218,-630.5 1534,-630.5 1534,-595.5 1218,-595.5"/>
<text text-anchor="start" x="1224.7054" y="-608.3" font-family="Arial Bold" font-size="18.00" fill="#000000">public.comment_stars</text>
<text text-anchor="start" x="1399.7266" y="-608.3" font-family="Arial" font-size="14.00" fill="#000000">    </text>
<text text-anchor="start" x="1433.9314" y="-608.3" font-family="Arial" font-size="14.00" fill="#666666">[BASE TABLE]</text>
<polygon fill="none" stroke="#000000" points="1218,-565.5 1218,-595.5 1534,-595.5 1534,-565.5 1218,-565.5"/>
<text text-anchor="start" x="1225" y="-576.9" font-family="Arial" font-size="14.00" fill="#000000">id    </text>
<text text-anchor="start" x="1270.094" y="-576.9" font-family="Arial" font-size="14.00" fill="#666666">[uuid]</text>
<polygon fill="none" stroke="#000000" points="1218,-535.5 1218,-565.5 1534,-565.5 1534,-535.5 1218,-535.5"/>
<text text-anchor="start" x="1225" y="-546.9" font-family="Arial" font-size="14.00" fill="#000000">user_id    </text>
<text text-anchor="start" x="1305.1024" y="-546.9" font-family="Arial" font-size="14.00" fill="#666666">[integer]</text>
<polygon fill="none" stroke="#000000" points="1218,-505.5 1218,-535.5 1534,-535.5 1534,-505.5 1218,-505.5"/>
<text text-anchor="start" x="1225" y="-516.9" font-family="Arial" font-size="14.00" fill="#000000">comment_post_id    </text>
<text text-anchor="start" x="1369.6746" y="-516.9" font-family="Arial" font-size="14.00" fill="#666666">[bigint]</text>
<polygon fill="none" stroke="#000000" points="1218,-475.5 1218,-505.5 1534,-505.5 1534,-475.5 1218,-475.5"/>
<text text-anchor="start" x="1225" y="-486.9" font-family="Arial" font-size="14.00" fill="#000000">comment_user_id    </text>
<text text-anchor="start" x="1370.4446" y="-486.9" font-family="Arial" font-size="14.00" fill="#666666">[integer]</text>
<polygon fill="none" stroke="#000000" points="1218,-445.5 1218,-475.5 1534,-475.5 1534,-445.5 1218,-445.5"/>
<text text-anchor="start" x="1225" y="-456.9" font-family="Arial" font-size="14.00" fill="#000000">created    </text>
<text text-anchor="start" x="1305.8864" y="-456.9" font-family="Arial" font-size="14.00" fill="#666666">[timestamp without time zone]</text>
<polygon fill="none" stroke="#000000" points="1218,-415.5 1218,-445.5 1534,-445.5 1534,-415.5 1218,-415.5"/>
<text text-anchor="start" x="1225" y="-426.9" font-family="Arial" font-size="14.00" fill="#000000">updated    </text>
<text text-anchor="start" x="1309.791" y="-426.9" font-family="Arial" font-size="14.00" fill="#666666">[timestamp without time zone]</text>
</g>
<!-- public.comment_stars&#45;&gt;public.users -->
<g id="edge4" class="edge">
<title>public.comment_stars:comment_user_id&#45;&gt;public.users:id</title>
<path fill="none" stroke="#000000" d="M1207.6893,-489.375C1170.1427,-480.1786 1197.1216,-416.6058 1218,-373 1238.2033,-330.8044 1279.7967,-349.1956 1300,-307 1318.5216,-268.3166 1342.8889,-210.5 1300,-210.5"/>
<polygon fill="#000000" stroke="#000000" points="1208.059,-489.4152 1217.5118,-494.9734 1213.0295,-489.9576 1218,-490.5 1218,-490.5 1218,-490.5 1213.0295,-489.9576 1218.4882,-486.0266 1208.059,-489.4152 1208.059,-489.4152"/>
<text text-anchor="start" x="1224.998" y="-500.5" font-family="Arial" font-size="10.00" fill="#000000">FOREIGN KEY (comment_user_id) REFERENCES users(id)</text>
</g>
<!-- administrator.blogs -->
<g id="node6" class="node">
<title>administrator.blogs</title>
<polygon fill="#efefef" stroke="transparent" points="1639,-595.5 1639,-630.5 1932,-630.5 1932,-595.5 1639,-595.5"/>
<polygon fill="none" stroke="#000000" points="1639,-595.5 1639,-630.5 1932,-630.5 1932,-595.5 1639,-595.5"/>
<text text-anchor="start" x="1645.7083" y="-608.3" font-family="Arial Bold" font-size="18.00" fill="#000000">administrator.blogs</text>
<text text-anchor="start" x="1797.7237" y="-608.3" font-family="Arial" font-size="14.00" fill="#000000">    </text>
<text text-anchor="start" x="1831.9285" y="-608.3" font-family="Arial" font-size="14.00" fill="#666666">[BASE TABLE]</text>
<polygon fill="none" stroke="#000000" points="1639,-565.5 1639,-595.5 1932,-595.5 1932,-565.5 1639,-565.5"/>
<text text-anchor="start" x="1646" y="-576.9" font-family="Arial" font-size="14.00" fill="#000000">id    </text>
<text text-anchor="start" x="1691.094" y="-576.9" font-family="Arial" font-size="14.00" fill="#666666">[integer]</text>
<polygon fill="none" stroke="#000000" points="1639,-535.5 1639,-565.5 1932,-565.5 1932,-535.5 1639,-535.5"/>
<text text-anchor="start" x="1646" y="-546.9" font-family="Arial" font-size="14.00" fill="#000000">user_id    </text>
<text text-anchor="start" x="1726.1024" y="-546.9" font-family="Arial" font-size="14.00" fill="#666666">[integer]</text>
<polygon fill="none" stroke="#000000" points="1639,-505.5 1639,-535.5 1932,-535.5 1932,-505.5 1639,-505.5"/>
<text text-anchor="start" x="1646" y="-516.9" font-family="Arial" font-size="14.00" fill="#000000">name    </text>
<text text-anchor="start" x="1715.2132" y="-516.9" font-family="Arial" font-size="14.00" fill="#666666">[text]</text>
<polygon fill="none" stroke="#000000" points="1639,-475.5 1639,-505.5 1932,-505.5 1932,-475.5 1639,-475.5"/>
<text text-anchor="start" x="1646" y="-486.9" font-family="Arial" font-size="14.00" fill="#000000">description    </text>
<text text-anchor="start" x="1747.8822" y="-486.9" font-family="Arial" font-size="14.00" fill="#666666">[text]</text>
<polygon fill="none" stroke="#000000" points="1639,-445.5 1639,-475.5 1932,-475.5 1932,-445.5 1639,-445.5"/>
<text text-anchor="start" x="1646" y="-456.9" font-family="Arial" font-size="14.00" fill="#000000">created    </text>
<text text-anchor="start" x="1726.8864" y="-456.9" font-family="Arial" font-size="14.00" fill="#666666">[timestamp without time zone]</text>
<polygon fill="none" stroke="#000000" points="1639,-415.5 1639,-445.5 1932,-445.5 1932,-415.5 1639,-415.5"/>
<text text-anchor="start" x="1646" y="-426.9" font-family="Arial" font-size="14.00" fill="#000000">updated    </text>
<text text-anchor="start" x="1730.791" y="-426.9" font-family="Arial" font-size="14.00" fill="#666666">[timestamp without time zone]</text>
</g>
<!-- administrator.blogs&#45;&gt;public.users -->
<g id="edge5" class="edge">
<title>administrator.blogs:user_id&#45;&gt;public.users:id</title>
<path fill="none" stroke="#000000" d="M1628.7315,-549.8969C1551.616,-540.1008 1644.4682,-413.3371 1586,-343 1496.4488,-235.2701 1440.0897,-210.5 1300,-210.5"/>
<polygon fill="#000000" stroke="#000000" points="1629.0172,-549.9135 1638.7361,-554.9923 1634.0086,-550.2068 1639,-550.5 1639,-550.5 1639,-550.5 1634.0086,-550.2068 1639.2639,-546.0077 1629.0172,-549.9135 1629.0172,-549.9135"/>
<text text-anchor="start" x="1646.0535" y="-560.5" font-family="Arial" font-size="10.00" fill="#000000">FOREIGN KEY (user_id) REFERENCES users(id) ON DELETE CASCADE</text>
</g>
<!-- public.logs -->
<g id="node7" class="node">
<title>public.logs</title>
<polygon fill="#efefef" stroke="transparent" points="2036,-610.5 2036,-645.5 2316,-645.5 2316,-610.5 2036,-610.5"/>
<polygon fill="none" stroke="#000000" points="2036,-610.5 2036,-645.5 2316,-645.5 2316,-610.5 2036,-610.5"/>
<text text-anchor="start" x="2069.7081" y="-623.3" font-family="Arial Bold" font-size="18.00" fill="#000000">public.logs</text>
<text text-anchor="start" x="2154.7239" y="-623.3" font-family="Arial" font-size="14.00" fill="#000000">    </text>
<text text-anchor="start" x="2188.9287" y="-623.3" font-family="Arial" font-size="14.00" fill="#666666">[BASE TABLE]</text>
<polygon fill="none" stroke="#000000" points="2036,-580.5 2036,-610.5 2316,-610.5 2316,-580.5 2036,-580.5"/>
<text text-anchor="start" x="2043" y="-591.9" font-family="Arial" font-size="14.00" fill="#000000">id    </text>
<text text-anchor="start" x="2088.094" y="-591.9" font-family="Arial" font-size="14.00" fill="#666666">[uuid]</text>
<polygon fill="none" stroke="#000000" points="2036,-550.5 2036,-580.5 2316,-580.5 2316,-550.5 2036,-550.5"/>
<text text-anchor="start" x="2043" y="-561.9" font-family="Arial" font-size="14.00" fill="#000000">user_id    </text>
<text text-anchor="start" x="2123.1024" y="-561.9" font-family="Arial" font-size="14.00" fill="#666666">[integer]</text>
<polygon fill="none" stroke="#000000" points="2036,-520.5 2036,-550.5 2316,-550.5 2316,-520.5 2036,-520.5"/>
<text text-anchor="start" x="2043" y="-531.9" font-family="Arial" font-size="14.00" fill="#000000">post_id    </text>
<text text-anchor="start" x="2122.3324" y="-531.9" font-family="Arial" font-size="14.00" fill="#666666">[bigint]</text>
<polygon fill="none" stroke="#000000" points="2036,-490.5 2036,-520.5 2316,-520.5 2316,-490.5 2036,-490.5"/>
<text text-anchor="start" x="2043" y="-501.9" font-family="Arial" font-size="14.00" fill="#000000">comment_id    </text>
<text text-anchor="start" x="2153.4362" y="-501.9" font-family="Arial" font-size="14.00" fill="#666666">[bigint]</text>
<polygon fill="none" stroke="#000000" points="2036,-460.5 2036,-490.5 2316,-490.5 2316,-460.5 2036,-460.5"/>
<text text-anchor="start" x="2043" y="-471.9" font-family="Arial" font-size="14.00" fill="#000000">comment_star_id    </text>
<text text-anchor="start" x="2184.5526" y="-471.9" font-family="Arial" font-size="14.00" fill="#666666">[uuid]</text>
<polygon fill="none" stroke="#000000" points="2036,-430.5 2036,-460.5 2316,-460.5 2316,-430.5 2036,-430.5"/>
<text text-anchor="start" x="2043" y="-441.9" font-family="Arial" font-size="14.00" fill="#000000">payload    </text>
<text text-anchor="start" x="2126.2244" y="-441.9" font-family="Arial" font-size="14.00" fill="#666666">[text]</text>
<polygon fill="none" stroke="#000000" points="2036,-400.5 2036,-430.5 2316,-430.5 2316,-400.5 2036,-400.5"/>
<text text-anchor="start" x="2042.9867" y="-411.9" font-family="Arial" font-size="14.00" fill="#000000">created    </text>
<text text-anchor="start" x="2123.8731" y="-411.9" font-family="Arial" font-size="14.00" fill="#666666">[timestamp without time zone]</text>
</g>
<!-- public.logs&#45;&gt;public.users -->
<g id="edge6" class="edge">
<title>public.logs:user_id&#45;&gt;public.users:id</title>
<path fill="none" stroke="#000000" stroke-dasharray="5,2" d="M2025.8504,-564.9154C1943.0593,-554.6167 2054.5253,-410.8785 1984,-343 1872.4485,-235.6351 1454.8256,-210.5 1300,-210.5"/>
<polygon fill="#000000" stroke="#000000" points="2026.0165,-564.9249 2035.7412,-569.9926 2031.0083,-565.2124 2036,-565.5 2036,-565.5 2036,-565.5 2031.0083,-565.2124 2036.2588,-561.0074 2026.0165,-564.9249 2026.0165,-564.9249"/>
<text text-anchor="start" x="1994.274" y="-549.5" font-family="Arial" font-size="10.00" fill="#000000">logs&#45;&gt;users</text>
</g>
</g>
</svg>
