<?xml version="1.0" encoding="UTF-8" standalone="no"?>
<!DOCTYPE svg PUBLIC "-//W3C//DTD SVG 1.1//EN"
 "http://www.w3.org/Graphics/SVG/1.1/DTD/svg11.dtd">
<!-- Generated by graphviz version 12.1.2 (20240928.0832)
 -->
<!-- Title: public.logs Pages: 1 -->
<svg width="1474pt" height="756pt"
 viewBox="0.00 0.00 1473.72 756.00" xmlns="http://www.w3.org/2000/svg" xmlns:xlink="http://www.w3.org/1999/xlink">
<g id="graph0" class="graph" transform="scale(1 1) rotate(0) translate(4 752)">
<title>public.logs</title>
<polygon fill="white" stroke="none" points="-4,4 -4,-752 1469.72,-752 1469.72,4 -4,4"/>
<!-- public.logs -->
<g id="node1" class="node">
<title>public.logs</title>
<polygon fill="#efefef" stroke="none" points="584.16,-666.2 584.16,-701.8 833.93,-701.8 833.93,-666.2 584.16,-666.2"/>
<polygon fill="none" stroke="black" points="584.16,-666.2 584.16,-701.8 833.93,-701.8 833.93,-666.2 584.16,-666.2"/>
<text text-anchor="start" x="607.05" y="-679.6" font-family="Arial Bold" font-size="18.00">public.logs</text>
<text text-anchor="start" x="686.54" y="-679.6" font-family="Arial" font-size="14.00">    </text>
<text text-anchor="start" x="717.66" y="-679.6" font-family="Arial" font-size="14.00" fill="#666666">[BASE TABLE]</text>
<polygon fill="none" stroke="black" points="584.16,-635.4 584.16,-666.2 833.93,-666.2 833.93,-635.4 584.16,-635.4"/>
<text text-anchor="start" x="591.16" y="-647.6" font-family="Arial" font-size="14.00">id </text>
<text text-anchor="start" x="605.94" y="-647.6" font-family="Arial" font-size="14.00" fill="#666666">[uuid]</text>
<polygon fill="none" stroke="black" points="584.16,-604.6 584.16,-635.4 833.93,-635.4 833.93,-604.6 584.16,-604.6"/>
<text text-anchor="start" x="591.16" y="-616.8" font-family="Arial" font-size="14.00">user_id </text>
<text text-anchor="start" x="640.96" y="-616.8" font-family="Arial" font-size="14.00" fill="#666666">[integer]</text>
<polygon fill="none" stroke="black" points="584.16,-573.8 584.16,-604.6 833.93,-604.6 833.93,-573.8 584.16,-573.8"/>
<text text-anchor="start" x="591.16" y="-586" font-family="Arial" font-size="14.00">post_id </text>
<text text-anchor="start" x="640.19" y="-586" font-family="Arial" font-size="14.00" fill="#666666">[bigint]</text>
<polygon fill="none" stroke="black" points="584.16,-543 584.16,-573.8 833.93,-573.8 833.93,-543 584.16,-543"/>
<text text-anchor="start" x="591.16" y="-555.2" font-family="Arial" font-size="14.00">comment_id </text>
<text text-anchor="start" x="671.3" y="-555.2" font-family="Arial" font-size="14.00" fill="#666666">[bigint]</text>
<polygon fill="none" stroke="black" points="584.16,-512.2 584.16,-543 833.93,-543 833.93,-512.2 584.16,-512.2"/>
<text text-anchor="start" x="591.16" y="-524.4" font-family="Arial" font-size="14.00">comment_star_id </text>
<text text-anchor="start" x="702.42" y="-524.4" font-family="Arial" font-size="14.00" fill="#666666">[uuid]</text>
<polygon fill="none" stroke="black" points="584.16,-481.4 584.16,-512.2 833.93,-512.2 833.93,-481.4 584.16,-481.4"/>
<text text-anchor="start" x="591.16" y="-493.6" font-family="Arial" font-size="14.00">payload </text>
<text text-anchor="start" x="644.09" y="-493.6" font-family="Arial" font-size="14.00" fill="#666666">[text]</text>
<polygon fill="none" stroke="black" points="584.16,-450.6 584.16,-481.4 833.93,-481.4 833.93,-450.6 584.16,-450.6"/>
<text text-anchor="start" x="591.16" y="-462.8" font-family="Arial" font-size="14.00">created </text>
<text text-anchor="start" x="641.74" y="-462.8" font-family="Arial" font-size="14.00" fill="#666666">[timestamp without time zone]</text>
<polygon fill="none" stroke="black" stroke-width="3" points="582.66,-449.1 582.66,-703.3 835.43,-703.3 835.43,-449.1 582.66,-449.1"/>
</g>
<!-- public.users -->
<g id="node2" class="node">
<title>public.users</title>
<polygon fill="#efefef" stroke="none" points="43.2,-258.8 43.2,-294.4 296.88,-294.4 296.88,-258.8 43.2,-258.8"/>
<polygon fill="none" stroke="black" points="43.2,-258.8 43.2,-294.4 296.88,-294.4 296.88,-258.8 43.2,-258.8"/>
<text text-anchor="start" x="64.55" y="-272.2" font-family="Arial Bold" font-size="18.00">public.users</text>
<text text-anchor="start" x="151.04" y="-272.2" font-family="Arial" font-size="14.00">    </text>
<text text-anchor="start" x="182.16" y="-272.2" font-family="Arial" font-size="14.00" fill="#666666">[BASE TABLE]</text>
<polygon fill="none" stroke="black" points="43.2,-228 43.2,-258.8 296.88,-258.8 296.88,-228 43.2,-228"/>
<text text-anchor="start" x="50.2" y="-240.2" font-family="Arial" font-size="14.00">id </text>
<text text-anchor="start" x="64.99" y="-240.2" font-family="Arial" font-size="14.00" fill="#666666">[integer]</text>
<polygon fill="none" stroke="black" points="43.2,-197.2 43.2,-228 296.88,-228 296.88,-197.2 43.2,-197.2"/>
<text text-anchor="start" x="50.2" y="-209.4" font-family="Arial" font-size="14.00">username </text>
<text text-anchor="start" x="116.34" y="-209.4" font-family="Arial" font-size="14.00" fill="#666666">[varchar(50)]</text>
<polygon fill="none" stroke="black" points="43.2,-166.4 43.2,-197.2 296.88,-197.2 296.88,-166.4 43.2,-166.4"/>
<text text-anchor="start" x="50.2" y="-178.6" font-family="Arial" font-size="14.00">password </text>
<text text-anchor="start" x="114.01" y="-178.6" font-family="Arial" font-size="14.00" fill="#666666">[varchar(50)]</text>
<polygon fill="none" stroke="black" points="43.2,-135.6 43.2,-166.4 296.88,-166.4 296.88,-135.6 43.2,-135.6"/>
<text text-anchor="start" x="50.2" y="-147.8" font-family="Arial" font-size="14.00">email </text>
<text text-anchor="start" x="87.54" y="-147.8" font-family="Arial" font-size="14.00" fill="#666666">[varchar(355)]</text>
<polygon fill="none" stroke="black" points="43.2,-104.8 43.2,-135.6 296.88,-135.6 296.88,-104.8 43.2,-104.8"/>
<text text-anchor="start" x="50.2" y="-117" font-family="Arial" font-size="14.00">created </text>
<text text-anchor="start" x="100.79" y="-117" font-family="Arial" font-size="14.00" fill="#666666">[timestamp without time zone]</text>
<polygon fill="none" stroke="black" points="43.2,-74 43.2,-104.8 296.88,-104.8 296.88,-74 43.2,-74"/>
<text text-anchor="start" x="50.2" y="-86.2" font-family="Arial" font-size="14.00">updated </text>
<text text-anchor="start" x="104.7" y="-86.2" font-family="Arial" font-size="14.00" fill="#666666">[timestamp without time zone]</text>
</g>
<!-- public.logs&#45;&gt;public.users -->
<g id="edge1" class="edge">
<title>public.logs:user_id&#45;&gt;public.users:id</title>
<path fill="none" stroke="black" stroke-dasharray="5,2" d="M573.09,-619.82C430.41,-614.48 429.48,-494.19 349.04,-368.4 316.7,-317.83 357.91,-243.4 297.88,-243.4"/>
<polygon fill="black" stroke="black" points="572.82,-619.81 582.74,-624.49 578.16,-619.91 582.49,-619.99 582.49,-619.99 582.49,-619.99 578.16,-619.91 582.9,-615.49 572.82,-619.81"/>
<text text-anchor="start" x="524.19" y="-630" font-family="Arial" font-size="10.00">logs&#45;&gt;users</text>
</g>
<!-- public.posts -->
<g id="node3" class="node">
<title>public.posts</title>
<polygon fill="#efefef" stroke="none" points="401.2,-289.6 401.2,-325.2 654.88,-325.2 654.88,-289.6 401.2,-289.6"/>
<polygon fill="none" stroke="black" points="401.2,-289.6 401.2,-325.2 654.88,-325.2 654.88,-289.6 401.2,-289.6"/>
<text text-anchor="start" x="422.55" y="-303" font-family="Arial Bold" font-size="18.00">public.posts</text>
<text text-anchor="start" x="509.05" y="-303" font-family="Arial" font-size="14.00">    </text>
<text text-anchor="start" x="540.16" y="-303" font-family="Arial" font-size="14.00" fill="#666666">[BASE TABLE]</text>
<polygon fill="none" stroke="black" points="401.2,-258.8 401.2,-289.6 654.88,-289.6 654.88,-258.8 401.2,-258.8"/>
<text text-anchor="start" x="408.2" y="-271" font-family="Arial" font-size="14.00">id </text>
<text text-anchor="start" x="422.99" y="-271" font-family="Arial" font-size="14.00" fill="#666666">[bigint]</text>
<polygon fill="none" stroke="black" points="401.2,-228 401.2,-258.8 654.88,-258.8 654.88,-228 401.2,-228"/>
<text text-anchor="start" x="408.2" y="-240.2" font-family="Arial" font-size="14.00">user_id </text>
<text text-anchor="start" x="458.01" y="-240.2" font-family="Arial" font-size="14.00" fill="#666666">[integer]</text>
<polygon fill="none" stroke="black" points="401.2,-197.2 401.2,-228 654.88,-228 654.88,-197.2 401.2,-197.2"/>
<text text-anchor="start" x="408.2" y="-209.4" font-family="Arial" font-size="14.00">title </text>
<text text-anchor="start" x="433.88" y="-209.4" font-family="Arial" font-size="14.00" fill="#666666">[varchar(255)]</text>
<polygon fill="none" stroke="black" points="401.2,-166.4 401.2,-197.2 654.88,-197.2 654.88,-166.4 401.2,-166.4"/>
<text text-anchor="start" x="408.2" y="-178.6" font-family="Arial" font-size="14.00">body </text>
<text text-anchor="start" x="442.45" y="-178.6" font-family="Arial" font-size="14.00" fill="#666666">[text]</text>
<polygon fill="none" stroke="black" points="401.2,-135.6 401.2,-166.4 654.88,-166.4 654.88,-135.6 401.2,-135.6"/>
<text text-anchor="start" x="408.2" y="-147.8" font-family="Arial" font-size="14.00">post_type </text>
<text text-anchor="start" x="472.8" y="-147.8" font-family="Arial" font-size="14.00" fill="#666666">[post_types]</text>
<polygon fill="none" stroke="black" points="401.2,-104.8 401.2,-135.6 654.88,-135.6 654.88,-104.8 401.2,-104.8"/>
<text text-anchor="start" x="408.2" y="-117" font-family="Arial" font-size="14.00">labels </text>
<text text-anchor="start" x="448.67" y="-117" font-family="Arial" font-size="14.00" fill="#666666">[varchar(50)[]]</text>
<polygon fill="none" stroke="black" points="401.2,-74 401.2,-104.8 654.88,-104.8 654.88,-74 401.2,-74"/>
<text text-anchor="start" x="408.2" y="-86.2" font-family="Arial" font-size="14.00">created </text>
<text text-anchor="start" x="458.79" y="-86.2" font-family="Arial" font-size="14.00" fill="#666666">[timestamp without time zone]</text>
<polygon fill="none" stroke="black" points="401.2,-43.2 401.2,-74 654.88,-74 654.88,-43.2 401.2,-43.2"/>
<text text-anchor="start" x="408.2" y="-55.4" font-family="Arial" font-size="14.00">updated </text>
<text text-anchor="start" x="462.7" y="-55.4" font-family="Arial" font-size="14.00" fill="#666666">[timestamp without time zone]</text>
</g>
<!-- public.logs&#45;&gt;public.posts -->
<g id="edge2" class="edge">
<title>public.logs:post_id&#45;&gt;public.posts:id</title>
<path fill="none" stroke="black" stroke-dasharray="5,2" d="M572.81,-588.52C504.62,-578.97 542.97,-471.17 584.16,-404.4 602.67,-374.38 636.29,-398.37 654.88,-368.4 676.95,-332.82 697.75,-274.2 655.88,-274.2"/>
<polygon fill="black" stroke="black" points="572.84,-588.52 582.53,-593.67 578.17,-588.87 582.49,-589.16 582.49,-589.16 582.49,-589.16 578.17,-588.87 583.12,-584.69 572.84,-588.52"/>
<text text-anchor="start" x="492.77" y="-599.2" font-family="Arial" font-size="10.00">Additional Relation</text>
</g>
<!-- public.comments -->
<g id="node4" class="node">
<title>public.comments</title>
<polygon fill="#efefef" stroke="none" points="759.06,-274.2 759.06,-309.8 1021.02,-309.8 1021.02,-274.2 759.06,-274.2"/>
<polygon fill="none" stroke="black" points="759.06,-274.2 759.06,-309.8 1021.02,-309.8 1021.02,-274.2 759.06,-274.2"/>
<text text-anchor="start" x="766.06" y="-287.6" font-family="Arial Bold" font-size="18.00">public.comments</text>
<text text-anchor="start" x="889.53" y="-287.6" font-family="Arial" font-size="14.00">    </text>
<text text-anchor="start" x="920.65" y="-287.6" font-family="Arial" font-size="14.00" fill="#666666">[BASE TABLE]</text>
<polygon fill="none" stroke="black" points="759.06,-243.4 759.06,-274.2 1021.02,-274.2 1021.02,-243.4 759.06,-243.4"/>
<text text-anchor="start" x="766.06" y="-255.6" font-family="Arial" font-size="14.00">id </text>
<text text-anchor="start" x="780.84" y="-255.6" font-family="Arial" font-size="14.00" fill="#666666">[bigint]</text>
<polygon fill="none" stroke="black" points="759.06,-212.6 759.06,-243.4 1021.02,-243.4 1021.02,-212.6 759.06,-212.6"/>
<text text-anchor="start" x="766.06" y="-224.8" font-family="Arial" font-size="14.00">post_id </text>
<text text-anchor="start" x="815.09" y="-224.8" font-family="Arial" font-size="14.00" fill="#666666">[bigint]</text>
<polygon fill="none" stroke="black" points="759.06,-181.8 759.06,-212.6 1021.02,-212.6 1021.02,-181.8 759.06,-181.8"/>
<text text-anchor="start" x="766.06" y="-194" font-family="Arial" font-size="14.00">user_id </text>
<text text-anchor="start" x="815.86" y="-194" font-family="Arial" font-size="14.00" fill="#666666">[integer]</text>
<polygon fill="none" stroke="black" points="759.06,-151 759.06,-181.8 1021.02,-181.8 1021.02,-151 759.06,-151"/>
<text text-anchor="start" x="766.06" y="-163.2" font-family="Arial" font-size="14.00">comment </text>
<text text-anchor="start" x="827.52" y="-163.2" font-family="Arial" font-size="14.00" fill="#666666">[text]</text>
<polygon fill="none" stroke="black" points="759.06,-120.2 759.06,-151 1021.02,-151 1021.02,-120.2 759.06,-120.2"/>
<text text-anchor="start" x="766.06" y="-132.4" font-family="Arial" font-size="14.00">post_id_desc </text>
<text text-anchor="start" x="852.45" y="-132.4" font-family="Arial" font-size="14.00" fill="#666666">[bigint]</text>
<polygon fill="none" stroke="black" points="759.06,-89.4 759.06,-120.2 1021.02,-120.2 1021.02,-89.4 759.06,-89.4"/>
<text text-anchor="start" x="766.06" y="-101.6" font-family="Arial" font-size="14.00">created </text>
<text text-anchor="start" x="816.64" y="-101.6" font-family="Arial" font-size="14.00" fill="#666666">[timestamp without time zone]</text>
<polygon fill="none" stroke="black" points="759.06,-58.6 759.06,-89.4 1021.02,-89.4 1021.02,-58.6 759.06,-58.6"/>
<text text-anchor="start" x="766.06" y="-70.8" font-family="Arial" font-size="14.00">updated </text>
<text text-anchor="start" x="820.55" y="-70.8" font-family="Arial" font-size="14.00" fill="#666666">[timestamp without time zone]</text>
</g>
<!-- public.logs&#45;&gt;public.comments -->
<g id="edge3" class="edge">
<title>public.logs:comment_id&#45;&gt;public.comments:id</title>
<path fill="none" stroke="black" stroke-dasharray="5,2" d="M845.22,-557.58C899.3,-548.27 864.25,-461.56 833.93,-404.4 815.01,-368.75 778.05,-388.61 759.06,-353 739.36,-316.06 716.19,-258.8 758.06,-258.8"/>
<polygon fill="black" stroke="black" points="845.23,-557.58 834.9,-553.89 839.91,-558 835.59,-558.35 835.59,-558.35 835.59,-558.35 839.91,-558 835.62,-562.86 845.23,-557.58"/>
<text text-anchor="start" x="841.93" y="-568.4" font-family="Arial" font-size="10.00">Additional Relation</text>
</g>
<!-- public.comment_stars -->
<g id="node5" class="node">
<title>public.comment_stars</title>
<polygon fill="#efefef" stroke="none" points="1125.56,-258.8 1125.56,-294.4 1422.52,-294.4 1422.52,-258.8 1125.56,-258.8"/>
<polygon fill="none" stroke="black" points="1125.56,-258.8 1125.56,-294.4 1422.52,-294.4 1422.52,-258.8 1125.56,-258.8"/>
<text text-anchor="start" x="1132.56" y="-272.2" font-family="Arial Bold" font-size="18.00">public.comment_stars</text>
<text text-anchor="start" x="1291.03" y="-272.2" font-family="Arial" font-size="14.00">    </text>
<text text-anchor="start" x="1322.15" y="-272.2" font-family="Arial" font-size="14.00" fill="#666666">[BASE TABLE]</text>
<polygon fill="none" stroke="black" points="1125.56,-228 1125.56,-258.8 1422.52,-258.8 1422.52,-228 1125.56,-228"/>
<text text-anchor="start" x="1132.56" y="-240.2" font-family="Arial" font-size="14.00">id </text>
<text text-anchor="start" x="1147.35" y="-240.2" font-family="Arial" font-size="14.00" fill="#666666">[uuid]</text>
<polygon fill="none" stroke="black" points="1125.56,-197.2 1125.56,-228 1422.52,-228 1422.52,-197.2 1125.56,-197.2"/>
<text text-anchor="start" x="1132.56" y="-209.4" font-family="Arial" font-size="14.00">user_id </text>
<text text-anchor="start" x="1182.37" y="-209.4" font-family="Arial" font-size="14.00" fill="#666666">[integer]</text>
<polygon fill="none" stroke="black" points="1125.56,-166.4 1125.56,-197.2 1422.52,-197.2 1422.52,-166.4 1125.56,-166.4"/>
<text text-anchor="start" x="1132.56" y="-178.6" font-family="Arial" font-size="14.00">comment_post_id </text>
<text text-anchor="start" x="1246.96" y="-178.6" font-family="Arial" font-size="14.00" fill="#666666">[bigint]</text>
<polygon fill="none" stroke="black" points="1125.56,-135.6 1125.56,-166.4 1422.52,-166.4 1422.52,-135.6 1125.56,-135.6"/>
<text text-anchor="start" x="1132.56" y="-147.8" font-family="Arial" font-size="14.00">comment_user_id </text>
<text text-anchor="start" x="1247.73" y="-147.8" font-family="Arial" font-size="14.00" fill="#666666">[integer]</text>
<polygon fill="none" stroke="black" points="1125.56,-104.8 1125.56,-135.6 1422.52,-135.6 1422.52,-104.8 1125.56,-104.8"/>
<text text-anchor="start" x="1132.56" y="-117" font-family="Arial" font-size="14.00">created </text>
<text text-anchor="start" x="1183.15" y="-117" font-family="Arial" font-size="14.00" fill="#666666">[timestamp without time zone]</text>
<polygon fill="none" stroke="black" points="1125.56,-74 1125.56,-104.8 1422.52,-104.8 1422.52,-74 1125.56,-74"/>
<text text-anchor="start" x="1132.56" y="-86.2" font-family="Arial" font-size="14.00">updated </text>
<text text-anchor="start" x="1187.06" y="-86.2" font-family="Arial" font-size="14.00" fill="#666666">[timestamp without time zone]</text>
</g>
<!-- public.logs&#45;&gt;public.comment_stars -->
<g id="edge4" class="edge">
<title>public.logs:comment_star_id&#45;&gt;public.comment_stars:id</title>
<path fill="none" stroke="black" stroke-dasharray="5,2" d="M845.15,-527.46C963.92,-524.25 994.59,-464.2 1073.04,-368.4 1111.11,-321.91 1064.47,-243.4 1124.56,-243.4"/>
<polygon fill="black" stroke="black" points="845.26,-527.46 835.2,-523.1 839.93,-527.53 835.6,-527.59 835.6,-527.59 835.6,-527.59 839.93,-527.53 835.32,-532.1 845.26,-527.46"/>
<text text-anchor="start" x="841.93" y="-537.6" font-family="Arial" font-size="10.00">Additional Relation</text>
</g>
</g>
</svg>
