<?xml version="1.0" encoding="UTF-8" standalone="no"?>
<!DOCTYPE svg PUBLIC "-//W3C//DTD SVG 1.1//EN"
 "http://www.w3.org/Graphics/SVG/1.1/DTD/svg11.dtd">
<!-- Generated by graphviz version 2.40.1 (20161225.0304)
 -->
<!-- Title: time.bar Pages: 1 -->
<svg width="542pt" height="412pt"
 viewBox="0.00 0.00 542.00 412.00" xmlns="http://www.w3.org/2000/svg" xmlns:xlink="http://www.w3.org/1999/xlink">
<g id="graph0" class="graph" transform="scale(1 1) rotate(0) translate(4 408)">
<title>time.bar</title>
<polygon fill="#ffffff" stroke="transparent" points="-4,4 -4,-408 538,-408 538,4 -4,4"/>
<!-- time.bar -->
<g id="node1" class="node">
<title>time.bar</title>
<polygon fill="#efefef" stroke="transparent" points="60,-75.5 60,-110.5 266,-110.5 266,-75.5 60,-75.5"/>
<polygon fill="none" stroke="#000000" points="60,-75.5 60,-110.5 266,-110.5 266,-75.5 60,-75.5"/>
<text text-anchor="start" x="66.7152" y="-88.3" font-family="Arial Bold" font-size="18.00" fill="#000000">time.bar</text>
<text text-anchor="start" x="131.7168" y="-88.3" font-family="Arial" font-size="14.00" fill="#000000">    </text>
<text text-anchor="start" x="165.9216" y="-88.3" font-family="Arial" font-size="14.00" fill="#666666">[BASE TABLE]</text>
<polygon fill="none" stroke="#000000" points="60,-45.5 60,-75.5 266,-75.5 266,-45.5 60,-45.5"/>
<text text-anchor="start" x="67" y="-56.9" font-family="Arial" font-size="14.00" fill="#000000">id </text>
<text text-anchor="start" x="81.7798" y="-56.9" font-family="Arial" font-size="14.00" fill="#666666">[integer]</text>
<polygon fill="none" stroke="#000000" stroke-width="3" points="58.5,-44.5 58.5,-112.5 267.5,-112.5 267.5,-44.5 58.5,-44.5"/>
</g>
<!-- time.referencing -->
<g id="node2" class="node">
<title>time.referencing</title>
<polygon fill="#efefef" stroke="transparent" points="43,-325.5 43,-360.5 283,-360.5 283,-325.5 43,-325.5"/>
<polygon fill="none" stroke="#000000" points="43,-325.5 43,-360.5 283,-360.5 283,-325.5 43,-325.5"/>
<text text-anchor="start" x="49.8656" y="-338.3" font-family="Arial Bold" font-size="18.00" fill="#000000">time.referencing</text>
<text text-anchor="start" x="178.8806" y="-338.3" font-family="Arial" font-size="14.00" fill="#000000"> </text>
<text text-anchor="start" x="182.7712" y="-338.3" font-family="Arial" font-size="14.00" fill="#666666">[BASE TABLE]</text>
<polygon fill="none" stroke="#000000" points="43,-295.5 43,-325.5 283,-325.5 283,-295.5 43,-295.5"/>
<text text-anchor="start" x="50" y="-306.9" font-family="Arial" font-size="14.00" fill="#000000">id </text>
<text text-anchor="start" x="64.7798" y="-306.9" font-family="Arial" font-size="14.00" fill="#666666">[integer]</text>
<polygon fill="none" stroke="#000000" points="43,-265.5 43,-295.5 283,-295.5 283,-265.5 43,-265.5"/>
<text text-anchor="start" x="50" y="-276.9" font-family="Arial" font-size="14.00" fill="#000000">bar_id </text>
<text text-anchor="start" x="92.7882" y="-276.9" font-family="Arial" font-size="14.00" fill="#666666">[integer]</text>
<polygon fill="none" stroke="#000000" points="43,-235.5 43,-265.5 283,-265.5 283,-235.5 43,-235.5"/>
<text text-anchor="start" x="50" y="-246.9" font-family="Arial" font-size="14.00" fill="#000000">ht_id </text>
<text text-anchor="start" x="84.2356" y="-246.9" font-family="Arial" font-size="14.00" fill="#666666">[integer]</text>
</g>
<!-- time.referencing&#45;&gt;time.bar -->
<g id="edge1" class="edge">
<title>time.referencing:bar_id&#45;&gt;time.bar:id</title>
<path fill="none" stroke="#000000" d="M292.9628,-277.9883C337.1991,-254.9387 346.736,-80.236 312,-45.5 265.1738,1.3262 163,20.7222 163,-45.5"/>
<polygon fill="#000000" stroke="#000000" points="292.6966,-278.0553 281.8999,-276.1365 287.8483,-279.2777 283,-280.5 283,-280.5 283,-280.5 287.8483,-279.2777 284.1001,-284.8635 292.6966,-278.0553 292.6966,-278.0553"/>
<text text-anchor="start" x="290.453" y="-290.5" font-family="Arial" font-size="10.00" fill="#000000">FOREIGN KEY (bar_id) REFERENCES &quot;time&quot;.bar(id)</text>
</g>
</g>
</svg>
