<?xml version="1.0" encoding="UTF-8" standalone="no"?>
<!DOCTYPE svg PUBLIC "-//W3C//DTD SVG 1.1//EN"
 "http://www.w3.org/Graphics/SVG/1.1/DTD/svg11.dtd">
<!-- Generated by graphviz version 2.40.1 (20161225.0304)
 -->
<!-- Title: time.hyphenated&#45;table Pages: 1 -->
<svg width="523pt" height="421pt"
 viewBox="0.00 0.00 523.47 421.19" xmlns="http://www.w3.org/2000/svg" xmlns:xlink="http://www.w3.org/1999/xlink">
<g id="graph0" class="graph" transform="scale(1 1) rotate(0) translate(4 417.187)">
<title>time.hyphenated&#45;table</title>
<polygon fill="#ffffff" stroke="transparent" points="-4,4 -4,-417.187 519.467,-417.187 519.467,4 -4,4"/>
<!-- time.hyphenated&#45;table -->
<g id="node1" class="node">
<title>time.hyphenated&#45;table</title>
<polygon fill="#efefef" stroke="transparent" points="169,-84.687 169,-119.687 458,-119.687 458,-84.687 169,-84.687"/>
<polygon fill="none" stroke="#000000" points="169,-84.687 169,-119.687 458,-119.687 458,-84.687 169,-84.687"/>
<text text-anchor="start" x="175.8451" y="-97.487" font-family="Arial Bold" font-size="18.00" fill="#000000">time.hyphenated&#45;table</text>
<text text-anchor="start" x="353.9011" y="-97.487" font-family="Arial" font-size="14.00" fill="#000000"> </text>
<text text-anchor="start" x="357.7917" y="-97.487" font-family="Arial" font-size="14.00" fill="#666666">[BASE TABLE]</text>
<polygon fill="none" stroke="#000000" points="169,-54.687 169,-84.687 458,-84.687 458,-54.687 169,-54.687"/>
<text text-anchor="start" x="176" y="-66.087" font-family="Arial" font-size="14.00" fill="#000000">id </text>
<text text-anchor="start" x="190.7798" y="-66.087" font-family="Arial" font-size="14.00" fill="#666666">[integer]</text>
<polygon fill="none" stroke="#000000" stroke-width="3" points="167,-53.687 167,-121.687 459,-121.687 459,-53.687 167,-53.687"/>
</g>
<!-- time.referencing -->
<g id="node2" class="node">
<title>time.referencing</title>
<polygon fill="#efefef" stroke="transparent" points="194,-334.687 194,-369.687 434,-369.687 434,-334.687 194,-334.687"/>
<polygon fill="none" stroke="#000000" points="194,-334.687 194,-369.687 434,-369.687 434,-334.687 194,-334.687"/>
<text text-anchor="start" x="200.8656" y="-347.487" font-family="Arial Bold" font-size="18.00" fill="#000000">time.referencing</text>
<text text-anchor="start" x="329.8806" y="-347.487" font-family="Arial" font-size="14.00" fill="#000000"> </text>
<text text-anchor="start" x="333.7712" y="-347.487" font-family="Arial" font-size="14.00" fill="#666666">[BASE TABLE]</text>
<polygon fill="none" stroke="#000000" points="194,-304.687 194,-334.687 434,-334.687 434,-304.687 194,-304.687"/>
<text text-anchor="start" x="201" y="-316.087" font-family="Arial" font-size="14.00" fill="#000000">id </text>
<text text-anchor="start" x="215.7798" y="-316.087" font-family="Arial" font-size="14.00" fill="#666666">[integer]</text>
<polygon fill="none" stroke="#000000" points="194,-274.687 194,-304.687 434,-304.687 434,-274.687 194,-274.687"/>
<text text-anchor="start" x="201" y="-286.087" font-family="Arial" font-size="14.00" fill="#000000">bar_id </text>
<text text-anchor="start" x="243.7882" y="-286.087" font-family="Arial" font-size="14.00" fill="#666666">[integer]</text>
<polygon fill="none" stroke="#000000" points="194,-244.687 194,-274.687 434,-274.687 434,-244.687 194,-244.687"/>
<text text-anchor="start" x="201" y="-256.087" font-family="Arial" font-size="14.00" fill="#000000">ht_id </text>
<text text-anchor="start" x="235.2356" y="-256.087" font-family="Arial" font-size="14.00" fill="#666666">[integer]</text>
</g>
<!-- time.referencing&#45;&gt;time.hyphenated&#45;table -->
<g id="edge1" class="edge">
<title>time.referencing:ht_id&#45;&gt;time.hyphenated&#45;table:id</title>
<path fill="none" stroke="#000000" d="M314.6851,-234.3525C325.242,-160.5047 454.9312,-238.8777 503.5,-166.187 517.2655,-145.5848 521.0205,-72.2075 503.5,-54.687 443.9459,4.8671 314,29.5352 314,-54.687"/>
<polygon fill="#000000" stroke="#000000" points="314.6616,-234.7089 309.5099,-244.3893 314.3308,-239.698 314,-244.687 314,-244.687 314,-244.687 314.3308,-239.698 318.4901,-244.9847 314.6616,-234.7089 314.6616,-234.7089"/>
<text text-anchor="start" x="6.5545" y="-254.687" font-family="Arial" font-size="10.00" fill="#000000">FOREIGN KEY (ht_id) REFERENCES &quot;time&quot;.&quot;hyphenated&#45;table&quot;(id)</text>
</g>
</g>
</svg>
