<?xml version="1.0" encoding="UTF-8" standalone="no"?>
<!DOCTYPE svg PUBLIC "-//W3C//DTD SVG 1.1//EN"
 "http://www.w3.org/Graphics/SVG/1.1/DTD/svg11.dtd">
<!-- Generated by graphviz version 12.1.2 (20240928.0832)
 -->
<!-- Title: comments Pages: 1 -->
<svg width="935pt" height="1068pt"
 viewBox="0.00 0.00 934.84 1068.00" xmlns="http://www.w3.org/2000/svg" xmlns:xlink="http://www.w3.org/1999/xlink">
<g id="graph0" class="graph" transform="scale(1 1) rotate(0) translate(4 1064)">
<title>comments</title>
<polygon fill="white" stroke="none" points="-4,4 -4,-1064 930.84,-1064 930.84,4 -4,4"/>
<!-- comments -->
<g id="node1" class="node">
<title>comments</title>
<polygon fill="#efefef" stroke="none" points="240.05,-635.4 240.05,-671 452.53,-671 452.53,-635.4 240.05,-635.4"/>
<polygon fill="none" stroke="black" points="240.05,-635.4 240.05,-671 452.53,-671 452.53,-635.4 240.05,-635.4"/>
<text text-anchor="start" x="247.05" y="-648.8" font-family="Arial Bold" font-size="18.00">comments</text>
<text text-anchor="start" x="321.04" y="-648.8" font-family="Arial" font-size="14.00">    </text>
<text text-anchor="start" x="352.16" y="-648.8" font-family="Arial" font-size="14.00" fill="#666666">[BASE TABLE]</text>
<polygon fill="none" stroke="black" points="240.05,-604.6 240.05,-635.4 452.53,-635.4 452.53,-604.6 240.05,-604.6"/>
<text text-anchor="start" x="247.05" y="-616.8" font-family="Arial" font-size="14.00">id </text>
<text text-anchor="start" x="261.84" y="-616.8" font-family="Arial" font-size="14.00" fill="#666666">[bigint]</text>
<polygon fill="none" stroke="black" points="240.05,-573.8 240.05,-604.6 452.53,-604.6 452.53,-573.8 240.05,-573.8"/>
<text text-anchor="start" x="247.05" y="-586" font-family="Arial" font-size="14.00">post_id </text>
<text text-anchor="start" x="296.09" y="-586" font-family="Arial" font-size="14.00" fill="#666666">[bigint]</text>
<polygon fill="none" stroke="black" points="240.05,-543 240.05,-573.8 452.53,-573.8 452.53,-543 240.05,-543"/>
<text text-anchor="start" x="247.05" y="-555.2" font-family="Arial" font-size="14.00">user_id </text>
<text text-anchor="start" x="296.86" y="-555.2" font-family="Arial" font-size="14.00" fill="#666666">[int]</text>
<polygon fill="none" stroke="black" points="240.05,-512.2 240.05,-543 452.53,-543 452.53,-512.2 240.05,-512.2"/>
<text text-anchor="start" x="247.05" y="-524.4" font-family="Arial" font-size="14.00">comment </text>
<text text-anchor="start" x="308.52" y="-524.4" font-family="Arial" font-size="14.00" fill="#666666">[text]</text>
<polygon fill="none" stroke="black" points="240.05,-481.4 240.05,-512.2 452.53,-512.2 452.53,-481.4 240.05,-481.4"/>
<text text-anchor="start" x="247.05" y="-493.6" font-family="Arial" font-size="14.00">post_id_desc </text>
<text text-anchor="start" x="333.45" y="-493.6" font-family="Arial" font-size="14.00" fill="#666666">[bigint]</text>
<polygon fill="none" stroke="black" points="240.05,-450.6 240.05,-481.4 452.53,-481.4 452.53,-450.6 240.05,-450.6"/>
<text text-anchor="start" x="247.05" y="-462.8" font-family="Arial" font-size="14.00">created </text>
<text text-anchor="start" x="297.64" y="-462.8" font-family="Arial" font-size="14.00" fill="#666666">[datetime]</text>
<polygon fill="none" stroke="black" points="240.05,-419.8 240.05,-450.6 452.53,-450.6 452.53,-419.8 240.05,-419.8"/>
<text text-anchor="start" x="247.05" y="-432" font-family="Arial" font-size="14.00">updated </text>
<text text-anchor="start" x="301.55" y="-432" font-family="Arial" font-size="14.00" fill="#666666">[datetime]</text>
<polygon fill="none" stroke="black" stroke-width="3" points="238.55,-418.3 238.55,-672.5 454.03,-672.5 454.03,-418.3 238.55,-418.3"/>
</g>
<!-- posts -->
<g id="node2" class="node">
<title>posts</title>
<polygon fill="#efefef" stroke="none" points="54.71,-258.8 54.71,-294.4 315.87,-294.4 315.87,-258.8 54.71,-258.8"/>
<polygon fill="none" stroke="black" points="54.71,-258.8 54.71,-294.4 315.87,-294.4 315.87,-258.8 54.71,-258.8"/>
<text text-anchor="start" x="104.54" y="-272.2" font-family="Arial Bold" font-size="18.00">posts</text>
<text text-anchor="start" x="141.55" y="-272.2" font-family="Arial" font-size="14.00">    </text>
<text text-anchor="start" x="172.67" y="-272.2" font-family="Arial" font-size="14.00" fill="#666666">[BASE TABLE]</text>
<polygon fill="none" stroke="black" points="54.71,-228 54.71,-258.8 315.87,-258.8 315.87,-228 54.71,-228"/>
<text text-anchor="start" x="61.71" y="-240.2" font-family="Arial" font-size="14.00">id </text>
<text text-anchor="start" x="76.5" y="-240.2" font-family="Arial" font-size="14.00" fill="#666666">[bigint]</text>
<polygon fill="none" stroke="black" points="54.71,-197.2 54.71,-228 315.87,-228 315.87,-197.2 54.71,-197.2"/>
<text text-anchor="start" x="61.71" y="-209.4" font-family="Arial" font-size="14.00">user_id </text>
<text text-anchor="start" x="111.52" y="-209.4" font-family="Arial" font-size="14.00" fill="#666666">[int]</text>
<polygon fill="none" stroke="black" points="54.71,-166.4 54.71,-197.2 315.87,-197.2 315.87,-166.4 54.71,-166.4"/>
<text text-anchor="start" x="61.71" y="-178.6" font-family="Arial" font-size="14.00">title </text>
<text text-anchor="start" x="87.39" y="-178.6" font-family="Arial" font-size="14.00" fill="#666666">[varchar(255)]</text>
<polygon fill="none" stroke="black" points="54.71,-135.6 54.71,-166.4 315.87,-166.4 315.87,-135.6 54.71,-135.6"/>
<text text-anchor="start" x="61.71" y="-147.8" font-family="Arial" font-size="14.00">body </text>
<text text-anchor="start" x="95.96" y="-147.8" font-family="Arial" font-size="14.00" fill="#666666">[text]</text>
<polygon fill="none" stroke="black" points="54.71,-104.8 54.71,-135.6 315.87,-135.6 315.87,-104.8 54.71,-104.8"/>
<text text-anchor="start" x="61.71" y="-117" font-family="Arial" font-size="14.00">post_type </text>
<text text-anchor="start" x="126.31" y="-117" font-family="Arial" font-size="14.00" fill="#666666">[enum(&#39;public&#39;,&#39;private&#39;,&#39;draft&#39;)]</text>
<polygon fill="none" stroke="black" points="54.71,-74 54.71,-104.8 315.87,-104.8 315.87,-74 54.71,-74"/>
<text text-anchor="start" x="61.71" y="-86.2" font-family="Arial" font-size="14.00">created </text>
<text text-anchor="start" x="112.3" y="-86.2" font-family="Arial" font-size="14.00" fill="#666666">[datetime]</text>
<polygon fill="none" stroke="black" points="54.71,-43.2 54.71,-74 315.87,-74 315.87,-43.2 54.71,-43.2"/>
<text text-anchor="start" x="61.71" y="-55.4" font-family="Arial" font-size="14.00">updated </text>
<text text-anchor="start" x="116.21" y="-55.4" font-family="Arial" font-size="14.00" fill="#666666">[datetime]</text>
</g>
<!-- comments&#45;&gt;posts -->
<g id="edge1" class="edge">
<title>comments:post_id&#45;&gt;posts:id</title>
<path fill="none" stroke="black" d="M228.71,-588.62C146.7,-579.02 190.62,-451.4 240.05,-373.6 260.06,-342.12 295.77,-369.02 315.87,-337.6 338.43,-302.33 358.74,-243.4 316.87,-243.4"/>
<polygon fill="black" stroke="black" points="228.74,-588.63 238.47,-593.67 234.06,-588.92 238.39,-589.16 238.39,-589.16 238.39,-589.16 234.06,-588.92 238.97,-584.69 228.74,-588.63"/>
<text text-anchor="start" x="7" y="-599.2" font-family="Arial" font-size="10.00">FOREIGN KEY (post_id) REFERENCES posts (id)</text>
</g>
<!-- users -->
<g id="node4" class="node">
<title>users</title>
<polygon fill="#efefef" stroke="none" points="420.55,-243.4 420.55,-279 596.03,-279 596.03,-243.4 420.55,-243.4"/>
<polygon fill="none" stroke="black" points="420.55,-243.4 420.55,-279 596.03,-279 596.03,-243.4 420.55,-243.4"/>
<text text-anchor="start" x="427.55" y="-256.8" font-family="Arial Bold" font-size="18.00">users</text>
<text text-anchor="start" x="464.54" y="-256.8" font-family="Arial" font-size="14.00">    </text>
<text text-anchor="start" x="495.66" y="-256.8" font-family="Arial" font-size="14.00" fill="#666666">[BASE TABLE]</text>
<polygon fill="none" stroke="black" points="420.55,-212.6 420.55,-243.4 596.03,-243.4 596.03,-212.6 420.55,-212.6"/>
<text text-anchor="start" x="427.55" y="-224.8" font-family="Arial" font-size="14.00">id </text>
<text text-anchor="start" x="442.34" y="-224.8" font-family="Arial" font-size="14.00" fill="#666666">[int]</text>
<polygon fill="none" stroke="black" points="420.55,-181.8 420.55,-212.6 596.03,-212.6 596.03,-181.8 420.55,-181.8"/>
<text text-anchor="start" x="427.55" y="-194" font-family="Arial" font-size="14.00">username </text>
<text text-anchor="start" x="493.69" y="-194" font-family="Arial" font-size="14.00" fill="#666666">[varchar(50)]</text>
<polygon fill="none" stroke="black" points="420.55,-151 420.55,-181.8 596.03,-181.8 596.03,-151 420.55,-151"/>
<text text-anchor="start" x="427.55" y="-163.2" font-family="Arial" font-size="14.00">password </text>
<text text-anchor="start" x="491.36" y="-163.2" font-family="Arial" font-size="14.00" fill="#666666">[varchar(50)]</text>
<polygon fill="none" stroke="black" points="420.55,-120.2 420.55,-151 596.03,-151 596.03,-120.2 420.55,-120.2"/>
<text text-anchor="start" x="427.55" y="-132.4" font-family="Arial" font-size="14.00">email </text>
<text text-anchor="start" x="464.9" y="-132.4" font-family="Arial" font-size="14.00" fill="#666666">[varchar(355)]</text>
<polygon fill="none" stroke="black" points="420.55,-89.4 420.55,-120.2 596.03,-120.2 596.03,-89.4 420.55,-89.4"/>
<text text-anchor="start" x="427.55" y="-101.6" font-family="Arial" font-size="14.00">created </text>
<text text-anchor="start" x="478.14" y="-101.6" font-family="Arial" font-size="14.00" fill="#666666">[timestamp]</text>
<polygon fill="none" stroke="black" points="420.55,-58.6 420.55,-89.4 596.03,-89.4 596.03,-58.6 420.55,-58.6"/>
<text text-anchor="start" x="427.55" y="-70.8" font-family="Arial" font-size="14.00">updated </text>
<text text-anchor="start" x="482.05" y="-70.8" font-family="Arial" font-size="14.00" fill="#666666">[timestamp]</text>
</g>
<!-- comments&#45;&gt;users -->
<g id="edge3" class="edge">
<title>comments:user_id&#45;&gt;users:id</title>
<path fill="none" stroke="black" d="M463.75,-557.77C530.32,-548.94 474.28,-448.97 452.53,-373.6 445.07,-347.75 428.08,-348.03 420.55,-322.2 408.84,-282 377.68,-228 419.55,-228"/>
<polygon fill="black" stroke="black" points="463.84,-557.77 453.59,-553.89 458.52,-558.09 454.2,-558.36 454.2,-558.36 454.2,-558.36 458.52,-558.09 454.14,-562.87 463.84,-557.77"/>
<text text-anchor="start" x="460.53" y="-568.4" font-family="Arial" font-size="10.00">FOREIGN KEY (user_id) REFERENCES users (id)</text>
</g>
<!-- comment_stars -->
<g id="node3" class="node">
<title>comment_stars</title>
<polygon fill="#efefef" stroke="none" points="222.56,-981.2 222.56,-1016.8 470.02,-1016.8 470.02,-981.2 222.56,-981.2"/>
<polygon fill="none" stroke="black" points="222.56,-981.2 222.56,-1016.8 470.02,-1016.8 470.02,-981.2 222.56,-981.2"/>
<text text-anchor="start" x="229.56" y="-994.6" font-family="Arial Bold" font-size="18.00">comment_stars</text>
<text text-anchor="start" x="338.53" y="-994.6" font-family="Arial" font-size="14.00">    </text>
<text text-anchor="start" x="369.65" y="-994.6" font-family="Arial" font-size="14.00" fill="#666666">[BASE TABLE]</text>
<polygon fill="none" stroke="black" points="222.56,-950.4 222.56,-981.2 470.02,-981.2 470.02,-950.4 222.56,-950.4"/>
<text text-anchor="start" x="229.56" y="-962.6" font-family="Arial" font-size="14.00">id </text>
<text text-anchor="start" x="244.35" y="-962.6" font-family="Arial" font-size="14.00" fill="#666666">[bigint]</text>
<polygon fill="none" stroke="black" points="222.56,-919.6 222.56,-950.4 470.02,-950.4 470.02,-919.6 222.56,-919.6"/>
<text text-anchor="start" x="229.56" y="-931.8" font-family="Arial" font-size="14.00">user_id </text>
<text text-anchor="start" x="279.37" y="-931.8" font-family="Arial" font-size="14.00" fill="#666666">[int]</text>
<polygon fill="none" stroke="black" points="222.56,-888.8 222.56,-919.6 470.02,-919.6 470.02,-888.8 222.56,-888.8"/>
<text text-anchor="start" x="229.56" y="-901" font-family="Arial" font-size="14.00">comment_post_id </text>
<text text-anchor="start" x="343.95" y="-901" font-family="Arial" font-size="14.00" fill="#666666">[bigint]</text>
<polygon fill="none" stroke="black" points="222.56,-858 222.56,-888.8 470.02,-888.8 470.02,-858 222.56,-858"/>
<text text-anchor="start" x="229.56" y="-870.2" font-family="Arial" font-size="14.00">comment_user_id </text>
<text text-anchor="start" x="344.72" y="-870.2" font-family="Arial" font-size="14.00" fill="#666666">[int]</text>
<polygon fill="none" stroke="black" points="222.56,-827.2 222.56,-858 470.02,-858 470.02,-827.2 222.56,-827.2"/>
<text text-anchor="start" x="229.56" y="-839.4" font-family="Arial" font-size="14.00">created </text>
<text text-anchor="start" x="280.15" y="-839.4" font-family="Arial" font-size="14.00" fill="#666666">[timestamp]</text>
<polygon fill="none" stroke="black" points="222.56,-796.4 222.56,-827.2 470.02,-827.2 470.02,-796.4 222.56,-796.4"/>
<text text-anchor="start" x="229.56" y="-808.6" font-family="Arial" font-size="14.00">updated </text>
<text text-anchor="start" x="284.06" y="-808.6" font-family="Arial" font-size="14.00" fill="#666666">[timestamp]</text>
</g>
<!-- comment_stars&#45;&gt;comments -->
<g id="edge2" class="edge">
<title>comment_stars:comment_post_id&#45;&gt;comments:post_id</title>
<path fill="none" stroke="black" d="M481.4,-903.6C610.27,-888.41 590.18,-589.2 453.53,-589.2"/>
<polygon fill="black" stroke="black" points="481.34,-903.6 471.1,-899.69 476.02,-903.91 471.69,-904.16 471.69,-904.16 471.69,-904.16 476.02,-903.91 471.62,-908.67 481.34,-903.6"/>
<text text-anchor="start" x="478.02" y="-914.2" font-family="Arial" font-size="10.00">FOREIGN KEY (comment_post_id, comment_user_id) REFERENCES comments (post_id, user_id)</text>
</g>
</g>
</svg>
