<?xml version="1.0" encoding="UTF-8" standalone="no"?>
<!DOCTYPE svg PUBLIC "-//W3C//DTD SVG 1.1//EN"
 "http://www.w3.org/Graphics/SVG/1.1/DTD/svg11.dtd">
<!-- Generated by graphviz version 12.1.2 (20240928.0832)
 -->
<!-- Title: users Pages: 1 -->
<svg width="1358pt" height="694pt"
 viewBox="0.00 0.00 1358.37 694.40" xmlns="http://www.w3.org/2000/svg" xmlns:xlink="http://www.w3.org/1999/xlink">
<g id="graph0" class="graph" transform="scale(1 1) rotate(0) translate(4 690.4)">
<title>users</title>
<polygon fill="white" stroke="none" points="-4,4 -4,-690.4 1354.37,-690.4 1354.37,4 -4,4"/>
<!-- users -->
<g id="node1" class="node">
<title>users</title>
<polygon fill="#efefef" stroke="none" points="583.19,-231 583.19,-266.6 758.67,-266.6 758.67,-231 583.19,-231"/>
<polygon fill="none" stroke="black" points="583.19,-231 583.19,-266.6 758.67,-266.6 758.67,-231 583.19,-231"/>
<text text-anchor="start" x="590.19" y="-244.4" font-family="Arial Bold" font-size="18.00">users</text>
<text text-anchor="start" x="627.18" y="-244.4" font-family="Arial" font-size="14.00">    </text>
<text text-anchor="start" x="658.3" y="-244.4" font-family="Arial" font-size="14.00" fill="#666666">[BASE TABLE]</text>
<polygon fill="none" stroke="black" points="583.19,-200.2 583.19,-231 758.67,-231 758.67,-200.2 583.19,-200.2"/>
<text text-anchor="start" x="590.19" y="-212.4" font-family="Arial" font-size="14.00">id </text>
<text text-anchor="start" x="604.98" y="-212.4" font-family="Arial" font-size="14.00" fill="#666666">[int]</text>
<polygon fill="none" stroke="black" points="583.19,-169.4 583.19,-200.2 758.67,-200.2 758.67,-169.4 583.19,-169.4"/>
<text text-anchor="start" x="590.19" y="-181.6" font-family="Arial" font-size="14.00">username </text>
<text text-anchor="start" x="656.34" y="-181.6" font-family="Arial" font-size="14.00" fill="#666666">[varchar(50)]</text>
<polygon fill="none" stroke="black" points="583.19,-138.6 583.19,-169.4 758.67,-169.4 758.67,-138.6 583.19,-138.6"/>
<text text-anchor="start" x="590.19" y="-150.8" font-family="Arial" font-size="14.00">password </text>
<text text-anchor="start" x="654" y="-150.8" font-family="Arial" font-size="14.00" fill="#666666">[varchar(50)]</text>
<polygon fill="none" stroke="black" points="583.19,-107.8 583.19,-138.6 758.67,-138.6 758.67,-107.8 583.19,-107.8"/>
<text text-anchor="start" x="590.19" y="-120" font-family="Arial" font-size="14.00">email </text>
<text text-anchor="start" x="627.54" y="-120" font-family="Arial" font-size="14.00" fill="#666666">[varchar(355)]</text>
<polygon fill="none" stroke="black" points="583.19,-77 583.19,-107.8 758.67,-107.8 758.67,-77 583.19,-77"/>
<text text-anchor="start" x="590.19" y="-89.2" font-family="Arial" font-size="14.00">created </text>
<text text-anchor="start" x="640.78" y="-89.2" font-family="Arial" font-size="14.00" fill="#666666">[timestamp]</text>
<polygon fill="none" stroke="black" points="583.19,-46.2 583.19,-77 758.67,-77 758.67,-46.2 583.19,-46.2"/>
<text text-anchor="start" x="590.19" y="-58.4" font-family="Arial" font-size="14.00">updated </text>
<text text-anchor="start" x="644.69" y="-58.4" font-family="Arial" font-size="14.00" fill="#666666">[timestamp]</text>
<polygon fill="none" stroke="black" stroke-width="3" points="581.69,-44.7 581.69,-268.1 760.17,-268.1 760.17,-44.7 581.69,-44.7"/>
</g>
<!-- comment_stars -->
<g id="node2" class="node">
<title>comment_stars</title>
<polygon fill="#efefef" stroke="none" points="43.2,-592.2 43.2,-627.8 290.66,-627.8 290.66,-592.2 43.2,-592.2"/>
<polygon fill="none" stroke="black" points="43.2,-592.2 43.2,-627.8 290.66,-627.8 290.66,-592.2 43.2,-592.2"/>
<text text-anchor="start" x="50.2" y="-605.6" font-family="Arial Bold" font-size="18.00">comment_stars</text>
<text text-anchor="start" x="159.18" y="-605.6" font-family="Arial" font-size="14.00">    </text>
<text text-anchor="start" x="190.29" y="-605.6" font-family="Arial" font-size="14.00" fill="#666666">[BASE TABLE]</text>
<polygon fill="none" stroke="black" points="43.2,-561.4 43.2,-592.2 290.66,-592.2 290.66,-561.4 43.2,-561.4"/>
<text text-anchor="start" x="50.2" y="-573.6" font-family="Arial" font-size="14.00">id </text>
<text text-anchor="start" x="64.99" y="-573.6" font-family="Arial" font-size="14.00" fill="#666666">[bigint]</text>
<polygon fill="none" stroke="black" points="43.2,-530.6 43.2,-561.4 290.66,-561.4 290.66,-530.6 43.2,-530.6"/>
<text text-anchor="start" x="50.2" y="-542.8" font-family="Arial" font-size="14.00">user_id </text>
<text text-anchor="start" x="100.01" y="-542.8" font-family="Arial" font-size="14.00" fill="#666666">[int]</text>
<polygon fill="none" stroke="black" points="43.2,-499.8 43.2,-530.6 290.66,-530.6 290.66,-499.8 43.2,-499.8"/>
<text text-anchor="start" x="50.2" y="-512" font-family="Arial" font-size="14.00">comment_post_id </text>
<text text-anchor="start" x="164.59" y="-512" font-family="Arial" font-size="14.00" fill="#666666">[bigint]</text>
<polygon fill="none" stroke="black" points="43.2,-469 43.2,-499.8 290.66,-499.8 290.66,-469 43.2,-469"/>
<text text-anchor="start" x="50.2" y="-481.2" font-family="Arial" font-size="14.00">comment_user_id </text>
<text text-anchor="start" x="165.37" y="-481.2" font-family="Arial" font-size="14.00" fill="#666666">[int]</text>
<polygon fill="none" stroke="black" points="43.2,-438.2 43.2,-469 290.66,-469 290.66,-438.2 43.2,-438.2"/>
<text text-anchor="start" x="50.2" y="-450.4" font-family="Arial" font-size="14.00">created </text>
<text text-anchor="start" x="100.79" y="-450.4" font-family="Arial" font-size="14.00" fill="#666666">[timestamp]</text>
<polygon fill="none" stroke="black" points="43.2,-407.4 43.2,-438.2 290.66,-438.2 290.66,-407.4 43.2,-407.4"/>
<text text-anchor="start" x="50.2" y="-419.6" font-family="Arial" font-size="14.00">updated </text>
<text text-anchor="start" x="104.7" y="-419.6" font-family="Arial" font-size="14.00" fill="#666666">[timestamp]</text>
</g>
<!-- comment_stars&#45;&gt;users -->
<g id="edge1" class="edge">
<title>comment_stars:comment_user_id&#45;&gt;users:id</title>
<path fill="none" stroke="black" d="M301.8,-483.53C349.95,-474.36 303.3,-394.71 342.93,-348.8 422.46,-256.67 460.49,-215.6 582.19,-215.6"/>
<polygon fill="black" stroke="black" points="301.96,-483.52 291.61,-479.89 296.65,-483.97 292.33,-484.34 292.33,-484.34 292.33,-484.34 296.65,-483.97 292.38,-488.85 301.96,-483.52"/>
<text text-anchor="start" x="155.24" y="-468.4" font-family="Arial" font-size="10.00">FOREIGN KEY (comment_user_id) REFERENCES users (id)</text>
</g>
<!-- comments -->
<g id="node3" class="node">
<title>comments</title>
<polygon fill="#efefef" stroke="none" points="394.69,-607.6 394.69,-643.2 607.17,-643.2 607.17,-607.6 394.69,-607.6"/>
<polygon fill="none" stroke="black" points="394.69,-607.6 394.69,-643.2 607.17,-643.2 607.17,-607.6 394.69,-607.6"/>
<text text-anchor="start" x="401.69" y="-621" font-family="Arial Bold" font-size="18.00">comments</text>
<text text-anchor="start" x="475.68" y="-621" font-family="Arial" font-size="14.00">    </text>
<text text-anchor="start" x="506.8" y="-621" font-family="Arial" font-size="14.00" fill="#666666">[BASE TABLE]</text>
<polygon fill="none" stroke="black" points="394.69,-576.8 394.69,-607.6 607.17,-607.6 607.17,-576.8 394.69,-576.8"/>
<text text-anchor="start" x="401.69" y="-589" font-family="Arial" font-size="14.00">id </text>
<text text-anchor="start" x="416.48" y="-589" font-family="Arial" font-size="14.00" fill="#666666">[bigint]</text>
<polygon fill="none" stroke="black" points="394.69,-546 394.69,-576.8 607.17,-576.8 607.17,-546 394.69,-546"/>
<text text-anchor="start" x="401.69" y="-558.2" font-family="Arial" font-size="14.00">post_id </text>
<text text-anchor="start" x="450.73" y="-558.2" font-family="Arial" font-size="14.00" fill="#666666">[bigint]</text>
<polygon fill="none" stroke="black" points="394.69,-515.2 394.69,-546 607.17,-546 607.17,-515.2 394.69,-515.2"/>
<text text-anchor="start" x="401.69" y="-527.4" font-family="Arial" font-size="14.00">user_id </text>
<text text-anchor="start" x="451.5" y="-527.4" font-family="Arial" font-size="14.00" fill="#666666">[int]</text>
<polygon fill="none" stroke="black" points="394.69,-484.4 394.69,-515.2 607.17,-515.2 607.17,-484.4 394.69,-484.4"/>
<text text-anchor="start" x="401.69" y="-496.6" font-family="Arial" font-size="14.00">comment </text>
<text text-anchor="start" x="463.16" y="-496.6" font-family="Arial" font-size="14.00" fill="#666666">[text]</text>
<polygon fill="none" stroke="black" points="394.69,-453.6 394.69,-484.4 607.17,-484.4 607.17,-453.6 394.69,-453.6"/>
<text text-anchor="start" x="401.69" y="-465.8" font-family="Arial" font-size="14.00">post_id_desc </text>
<text text-anchor="start" x="488.09" y="-465.8" font-family="Arial" font-size="14.00" fill="#666666">[bigint]</text>
<polygon fill="none" stroke="black" points="394.69,-422.8 394.69,-453.6 607.17,-453.6 607.17,-422.8 394.69,-422.8"/>
<text text-anchor="start" x="401.69" y="-435" font-family="Arial" font-size="14.00">created </text>
<text text-anchor="start" x="452.28" y="-435" font-family="Arial" font-size="14.00" fill="#666666">[datetime]</text>
<polygon fill="none" stroke="black" points="394.69,-392 394.69,-422.8 607.17,-422.8 607.17,-392 394.69,-392"/>
<text text-anchor="start" x="401.69" y="-404.2" font-family="Arial" font-size="14.00">updated </text>
<text text-anchor="start" x="456.19" y="-404.2" font-family="Arial" font-size="14.00" fill="#666666">[datetime]</text>
</g>
<!-- comments&#45;&gt;users -->
<g id="edge2" class="edge">
<title>comments:user_id&#45;&gt;users:id</title>
<path fill="none" stroke="black" d="M618.23,-529.98C683.81,-521.26 629.72,-422.6 607.17,-348.8 601.55,-330.41 588.85,-331.17 583.19,-312.8 570.47,-271.51 538.99,-215.6 582.19,-215.6"/>
<polygon fill="black" stroke="black" points="618.49,-529.96 608.23,-526.09 613.16,-530.29 608.84,-530.56 608.84,-530.56 608.84,-530.56 613.16,-530.29 608.78,-535.07 618.49,-529.96"/>
<text text-anchor="start" x="615.17" y="-540.6" font-family="Arial" font-size="10.00">FOREIGN KEY (user_id) REFERENCES users (id)</text>
</g>
<!-- posts -->
<g id="node4" class="node">
<title>posts</title>
<polygon fill="#efefef" stroke="none" points="711.36,-607.6 711.36,-643.2 972.51,-643.2 972.51,-607.6 711.36,-607.6"/>
<polygon fill="none" stroke="black" points="711.36,-607.6 711.36,-643.2 972.51,-643.2 972.51,-607.6 711.36,-607.6"/>
<text text-anchor="start" x="761.18" y="-621" font-family="Arial Bold" font-size="18.00">posts</text>
<text text-anchor="start" x="798.19" y="-621" font-family="Arial" font-size="14.00">    </text>
<text text-anchor="start" x="829.31" y="-621" font-family="Arial" font-size="14.00" fill="#666666">[BASE TABLE]</text>
<polygon fill="none" stroke="black" points="711.36,-576.8 711.36,-607.6 972.51,-607.6 972.51,-576.8 711.36,-576.8"/>
<text text-anchor="start" x="718.36" y="-589" font-family="Arial" font-size="14.00">id </text>
<text text-anchor="start" x="733.14" y="-589" font-family="Arial" font-size="14.00" fill="#666666">[bigint]</text>
<polygon fill="none" stroke="black" points="711.36,-546 711.36,-576.8 972.51,-576.8 972.51,-546 711.36,-546"/>
<text text-anchor="start" x="718.36" y="-558.2" font-family="Arial" font-size="14.00">user_id </text>
<text text-anchor="start" x="768.16" y="-558.2" font-family="Arial" font-size="14.00" fill="#666666">[int]</text>
<polygon fill="none" stroke="black" points="711.36,-515.2 711.36,-546 972.51,-546 972.51,-515.2 711.36,-515.2"/>
<text text-anchor="start" x="718.36" y="-527.4" font-family="Arial" font-size="14.00">title </text>
<text text-anchor="start" x="744.03" y="-527.4" font-family="Arial" font-size="14.00" fill="#666666">[varchar(255)]</text>
<polygon fill="none" stroke="black" points="711.36,-484.4 711.36,-515.2 972.51,-515.2 972.51,-484.4 711.36,-484.4"/>
<text text-anchor="start" x="718.36" y="-496.6" font-family="Arial" font-size="14.00">body </text>
<text text-anchor="start" x="752.6" y="-496.6" font-family="Arial" font-size="14.00" fill="#666666">[text]</text>
<polygon fill="none" stroke="black" points="711.36,-453.6 711.36,-484.4 972.51,-484.4 972.51,-453.6 711.36,-453.6"/>
<text text-anchor="start" x="718.36" y="-465.8" font-family="Arial" font-size="14.00">post_type </text>
<text text-anchor="start" x="782.96" y="-465.8" font-family="Arial" font-size="14.00" fill="#666666">[enum(&#39;public&#39;,&#39;private&#39;,&#39;draft&#39;)]</text>
<polygon fill="none" stroke="black" points="711.36,-422.8 711.36,-453.6 972.51,-453.6 972.51,-422.8 711.36,-422.8"/>
<text text-anchor="start" x="718.36" y="-435" font-family="Arial" font-size="14.00">created </text>
<text text-anchor="start" x="768.94" y="-435" font-family="Arial" font-size="14.00" fill="#666666">[datetime]</text>
<polygon fill="none" stroke="black" points="711.36,-392 711.36,-422.8 972.51,-422.8 972.51,-392 711.36,-392"/>
<text text-anchor="start" x="718.36" y="-404.2" font-family="Arial" font-size="14.00">updated </text>
<text text-anchor="start" x="772.85" y="-404.2" font-family="Arial" font-size="14.00" fill="#666666">[datetime]</text>
</g>
<!-- posts&#45;&gt;users -->
<g id="edge3" class="edge">
<title>posts:user_id&#45;&gt;users:id</title>
<path fill="none" stroke="black" d="M700.61,-558.42C667.32,-535.57 691.92,-387.78 711.36,-348.8 723.15,-325.15 746.82,-336.41 758.67,-312.8 778.06,-274.19 802.88,-215.6 759.67,-215.6"/>
<polygon fill="black" stroke="black" points="700.47,-558.38 708.72,-565.61 705.57,-559.94 709.72,-561.2 709.72,-561.2 709.72,-561.2 705.57,-559.94 711.35,-557 700.47,-558.38"/>
<text text-anchor="start" x="717.36" y="-571.4" font-family="Arial" font-size="10.00">FOREIGN KEY (user_id) REFERENCES users (id)</text>
</g>
<!-- user_options -->
<g id="node5" class="node">
<title>user_options</title>
<polygon fill="#efefef" stroke="none" points="1076.69,-561.4 1076.69,-597 1307.17,-597 1307.17,-561.4 1076.69,-561.4"/>
<polygon fill="none" stroke="black" points="1076.69,-561.4 1076.69,-597 1307.17,-597 1307.17,-561.4 1076.69,-561.4"/>
<text text-anchor="start" x="1083.69" y="-574.8" font-family="Arial Bold" font-size="18.00">user_options</text>
<text text-anchor="start" x="1175.69" y="-574.8" font-family="Arial" font-size="14.00">    </text>
<text text-anchor="start" x="1206.8" y="-574.8" font-family="Arial" font-size="14.00" fill="#666666">[BASE TABLE]</text>
<polygon fill="none" stroke="black" points="1076.69,-530.6 1076.69,-561.4 1307.17,-561.4 1307.17,-530.6 1076.69,-530.6"/>
<text text-anchor="start" x="1083.69" y="-542.8" font-family="Arial" font-size="14.00">user_id </text>
<text text-anchor="start" x="1133.5" y="-542.8" font-family="Arial" font-size="14.00" fill="#666666">[int]</text>
<polygon fill="none" stroke="black" points="1076.69,-499.8 1076.69,-530.6 1307.17,-530.6 1307.17,-499.8 1076.69,-499.8"/>
<text text-anchor="start" x="1083.69" y="-512" font-family="Arial" font-size="14.00">show_email </text>
<text text-anchor="start" x="1161.5" y="-512" font-family="Arial" font-size="14.00" fill="#666666">[tinyint(1)]</text>
<polygon fill="none" stroke="black" points="1076.69,-469 1076.69,-499.8 1307.17,-499.8 1307.17,-469 1076.69,-469"/>
<text text-anchor="start" x="1083.69" y="-481.2" font-family="Arial" font-size="14.00">created </text>
<text text-anchor="start" x="1134.28" y="-481.2" font-family="Arial" font-size="14.00" fill="#666666">[timestamp]</text>
<polygon fill="none" stroke="black" points="1076.69,-438.2 1076.69,-469 1307.17,-469 1307.17,-438.2 1076.69,-438.2"/>
<text text-anchor="start" x="1083.69" y="-450.4" font-family="Arial" font-size="14.00">updated </text>
<text text-anchor="start" x="1138.19" y="-450.4" font-family="Arial" font-size="14.00" fill="#666666">[timestamp]</text>
</g>
<!-- user_options&#45;&gt;users -->
<g id="edge4" class="edge">
<title>user_options:user_id&#45;&gt;users:id</title>
<path fill="none" stroke="black" d="M1065.47,-545.37C992.85,-535.7 1079.42,-416.36 1024.93,-348.8 942.12,-246.11 891.6,-215.6 759.67,-215.6"/>
<polygon fill="black" stroke="black" points="1065.38,-545.37 1075.08,-550.47 1070.7,-545.69 1075.02,-545.96 1075.02,-545.96 1075.02,-545.96 1070.7,-545.69 1075.63,-541.49 1065.38,-545.37"/>
<text text-anchor="start" x="1022.65" y="-530" font-family="Arial" font-size="10.00">FOREIGN KEY (user_id) REFERENCES users (id)</text>
</g>
</g>
</svg>
