<?xml version="1.0" encoding="UTF-8" standalone="no"?>
<!DOCTYPE svg PUBLIC "-//W3C//DTD SVG 1.1//EN"
 "http://www.w3.org/Graphics/SVG/1.1/DTD/svg11.dtd">
<!-- Generated by graphviz version 2.40.1 (20161225.0304)
 -->
<!-- Title: comment_stars Pages: 1 -->
<svg width="946pt" height="652pt"
 viewBox="0.00 0.00 946.00 652.00" xmlns="http://www.w3.org/2000/svg" xmlns:xlink="http://www.w3.org/1999/xlink">
<g id="graph0" class="graph" transform="scale(1 1) rotate(0) translate(4 648)">
<title>comment_stars</title>
<polygon fill="#ffffff" stroke="transparent" points="-4,4 -4,-648 942,-648 942,4 -4,4"/>
<!-- comment_stars -->
<g id="node1" class="node">
<title>comment_stars</title>
<polygon fill="#efefef" stroke="transparent" points="282,-562.5 282,-597.5 656,-597.5 656,-562.5 282,-562.5"/>
<polygon fill="none" stroke="#000000" points="282,-562.5 282,-597.5 656,-597.5 656,-562.5 282,-562.5"/>
<text text-anchor="start" x="356.5368" y="-575.3" font-family="Arial Bold" font-size="18.00" fill="#000000">comment_stars</text>
<text text-anchor="start" x="479.5488" y="-575.3" font-family="Arial" font-size="14.00" fill="#000000"> </text>
<text text-anchor="start" x="483.4394" y="-575.3" font-family="Arial" font-size="14.00" fill="#666666">[BASIC TABLE]</text>
<polygon fill="none" stroke="#000000" points="282,-532.5 282,-562.5 656,-562.5 656,-532.5 282,-532.5"/>
<text text-anchor="start" x="289" y="-543.9" font-family="Arial" font-size="14.00" fill="#000000">user_id </text>
<text text-anchor="start" x="338.7882" y="-543.9" font-family="Arial" font-size="14.00" fill="#666666">[INT64]</text>
<polygon fill="none" stroke="#000000" points="282,-502.5 282,-532.5 656,-532.5 656,-502.5 282,-502.5"/>
<text text-anchor="start" x="289" y="-513.9" font-family="Arial" font-size="14.00" fill="#000000">comment_star_id </text>
<text text-anchor="start" x="400.2384" y="-513.9" font-family="Arial" font-size="14.00" fill="#666666">[INT64]</text>
<polygon fill="none" stroke="#000000" points="282,-472.5 282,-502.5 656,-502.5 656,-472.5 282,-472.5"/>
<text text-anchor="start" x="289" y="-483.9" font-family="Arial" font-size="14.00" fill="#000000">comment_post_id </text>
<text text-anchor="start" x="403.3604" y="-483.9" font-family="Arial" font-size="14.00" fill="#666666">[INT64]</text>
<polygon fill="none" stroke="#000000" points="282,-442.5 282,-472.5 656,-472.5 656,-442.5 282,-442.5"/>
<text text-anchor="start" x="289" y="-453.9" font-family="Arial" font-size="14.00" fill="#000000">comment_user_id </text>
<text text-anchor="start" x="404.1304" y="-453.9" font-family="Arial" font-size="14.00" fill="#666666">[INT64]</text>
<polygon fill="none" stroke="#000000" points="282,-412.5 282,-442.5 656,-442.5 656,-412.5 282,-412.5"/>
<text text-anchor="start" x="289" y="-423.9" font-family="Arial" font-size="14.00" fill="#000000">created </text>
<text text-anchor="start" x="339.5722" y="-423.9" font-family="Arial" font-size="14.00" fill="#666666">[TIMESTAMP]</text>
<polygon fill="none" stroke="#000000" points="282,-382.5 282,-412.5 656,-412.5 656,-382.5 282,-382.5"/>
<text text-anchor="start" x="288.7409" y="-393.9" font-family="Arial" font-size="14.00" fill="#000000">updated </text>
<text text-anchor="start" x="343.2177" y="-393.9" font-family="Arial" font-size="14.00" fill="#666666">[TIMESTAMP (allow_commit_timestamp=TRUE)]</text>
<polygon fill="none" stroke="#000000" stroke-width="3" points="280.5,-381.5 280.5,-599.5 657.5,-599.5 657.5,-381.5 280.5,-381.5"/>
</g>
<!-- users -->
<g id="node2" class="node">
<title>users</title>
<polygon fill="#efefef" stroke="transparent" points="43,-222.5 43,-257.5 417,-257.5 417,-222.5 43,-222.5"/>
<polygon fill="none" stroke="#000000" points="43,-222.5 43,-257.5 417,-257.5 417,-222.5 43,-222.5"/>
<text text-anchor="start" x="157.0405" y="-235.3" font-family="Arial Bold" font-size="18.00" fill="#000000">users</text>
<text text-anchor="start" x="201.0451" y="-235.3" font-family="Arial" font-size="14.00" fill="#000000"> </text>
<text text-anchor="start" x="204.9357" y="-235.3" font-family="Arial" font-size="14.00" fill="#666666">[BASIC TABLE]</text>
<polygon fill="none" stroke="#000000" points="43,-192.5 43,-222.5 417,-222.5 417,-192.5 43,-192.5"/>
<text text-anchor="start" x="50" y="-203.9" font-family="Arial" font-size="14.00" fill="#000000">user_id </text>
<text text-anchor="start" x="99.7882" y="-203.9" font-family="Arial" font-size="14.00" fill="#666666">[INT64]</text>
<polygon fill="none" stroke="#000000" points="43,-162.5 43,-192.5 417,-192.5 417,-162.5 43,-162.5"/>
<text text-anchor="start" x="50" y="-173.9" font-family="Arial" font-size="14.00" fill="#000000">username </text>
<text text-anchor="start" x="116.1248" y="-173.9" font-family="Arial" font-size="14.00" fill="#666666">[STRING(50)]</text>
<polygon fill="none" stroke="#000000" points="43,-132.5 43,-162.5 417,-162.5 417,-132.5 43,-132.5"/>
<text text-anchor="start" x="50" y="-143.9" font-family="Arial" font-size="14.00" fill="#000000">password </text>
<text text-anchor="start" x="113.7882" y="-143.9" font-family="Arial" font-size="14.00" fill="#666666">[STRING(50)]</text>
<polygon fill="none" stroke="#000000" points="43,-102.5 43,-132.5 417,-132.5 417,-102.5 43,-102.5"/>
<text text-anchor="start" x="50" y="-113.9" font-family="Arial" font-size="14.00" fill="#000000">email </text>
<text text-anchor="start" x="87.3296" y="-113.9" font-family="Arial" font-size="14.00" fill="#666666">[STRING(255)]</text>
<polygon fill="none" stroke="#000000" points="43,-72.5 43,-102.5 417,-102.5 417,-72.5 43,-72.5"/>
<text text-anchor="start" x="50" y="-83.9" font-family="Arial" font-size="14.00" fill="#000000">created </text>
<text text-anchor="start" x="100.5722" y="-83.9" font-family="Arial" font-size="14.00" fill="#666666">[TIMESTAMP]</text>
<polygon fill="none" stroke="#000000" points="43,-42.5 43,-72.5 417,-72.5 417,-42.5 43,-42.5"/>
<text text-anchor="start" x="49.7409" y="-53.9" font-family="Arial" font-size="14.00" fill="#000000">updated </text>
<text text-anchor="start" x="104.2177" y="-53.9" font-family="Arial" font-size="14.00" fill="#666666">[TIMESTAMP (allow_commit_timestamp=TRUE)]</text>
</g>
<!-- comment_stars&#45;&gt;users -->
<g id="edge1" class="edge">
<title>comment_stars:user_id&#45;&gt;users:user_id</title>
<path fill="none" stroke="#000000" d="M271.6255,-546.8878C191.3317,-536.9455 227.229,-408.2905 282,-337 319.8316,-287.758 379.1684,-350.242 417,-301 442.3171,-268.0469 458.5556,-207.5 417,-207.5"/>
<polygon fill="#000000" stroke="#000000" points="272.0174,-546.9109 281.7349,-551.9922 277.0087,-547.2054 282,-547.5 282,-547.5 282,-547.5 277.0087,-547.2054 282.2651,-543.0078 272.0174,-546.9109 272.0174,-546.9109"/>
<text text-anchor="start" x="18.936" y="-557.5" font-family="Arial" font-size="10.00" fill="#000000">INTERLEAVE IN PARENT users ON DELETE CASCADE</text>
</g>
<!-- comments -->
<g id="node3" class="node">
<title>comments</title>
<polygon fill="#efefef" stroke="transparent" points="521,-222.5 521,-257.5 895,-257.5 895,-222.5 521,-222.5"/>
<polygon fill="none" stroke="#000000" points="521,-222.5 521,-257.5 895,-257.5 895,-222.5 521,-222.5"/>
<text text-anchor="start" x="615.5402" y="-235.3" font-family="Arial Bold" font-size="18.00" fill="#000000">comments</text>
<text text-anchor="start" x="698.5454" y="-235.3" font-family="Arial" font-size="14.00" fill="#000000"> </text>
<text text-anchor="start" x="702.436" y="-235.3" font-family="Arial" font-size="14.00" fill="#666666">[BASIC TABLE]</text>
<polygon fill="none" stroke="#000000" points="521,-192.5 521,-222.5 895,-222.5 895,-192.5 521,-192.5"/>
<text text-anchor="start" x="528" y="-203.9" font-family="Arial" font-size="14.00" fill="#000000">user_id </text>
<text text-anchor="start" x="577.7882" y="-203.9" font-family="Arial" font-size="14.00" fill="#666666">[INT64]</text>
<polygon fill="none" stroke="#000000" points="521,-162.5 521,-192.5 895,-192.5 895,-162.5 521,-162.5"/>
<text text-anchor="start" x="528" y="-173.9" font-family="Arial" font-size="14.00" fill="#000000">post_id </text>
<text text-anchor="start" x="577.0182" y="-173.9" font-family="Arial" font-size="14.00" fill="#666666">[INT64]</text>
<polygon fill="none" stroke="#000000" points="521,-132.5 521,-162.5 895,-162.5 895,-132.5 521,-132.5"/>
<text text-anchor="start" x="528" y="-143.9" font-family="Arial" font-size="14.00" fill="#000000">comment_id </text>
<text text-anchor="start" x="608.122" y="-143.9" font-family="Arial" font-size="14.00" fill="#666666">[INT64]</text>
<polygon fill="none" stroke="#000000" points="521,-102.5 521,-132.5 895,-132.5 895,-102.5 521,-102.5"/>
<text text-anchor="start" x="528" y="-113.9" font-family="Arial" font-size="14.00" fill="#000000">comment </text>
<text text-anchor="start" x="589.4502" y="-113.9" font-family="Arial" font-size="14.00" fill="#666666">[STRING(MAX)]</text>
<polygon fill="none" stroke="#000000" points="521,-72.5 521,-102.5 895,-102.5 895,-72.5 521,-72.5"/>
<text text-anchor="start" x="528" y="-83.9" font-family="Arial" font-size="14.00" fill="#000000">created </text>
<text text-anchor="start" x="578.5722" y="-83.9" font-family="Arial" font-size="14.00" fill="#666666">[TIMESTAMP]</text>
<polygon fill="none" stroke="#000000" points="521,-42.5 521,-72.5 895,-72.5 895,-42.5 521,-42.5"/>
<text text-anchor="start" x="527.7409" y="-53.9" font-family="Arial" font-size="14.00" fill="#000000">updated </text>
<text text-anchor="start" x="582.2177" y="-53.9" font-family="Arial" font-size="14.00" fill="#666666">[TIMESTAMP (allow_commit_timestamp=TRUE)]</text>
</g>
<!-- comment_stars&#45;&gt;comments -->
<g id="edge2" class="edge">
<title>comment_stars:comment_post_id&#45;&gt;comments:post_id</title>
<path fill="none" stroke="#000000" stroke-dasharray="5,2" d="M666.1521,-486.6488C719.9864,-476.9734 694.5226,-387.1414 656,-337 618.1684,-287.758 558.8316,-350.242 521,-301 487.5597,-257.4737 466.1111,-177.5 521,-177.5"/>
<polygon fill="#000000" stroke="#000000" points="665.965,-486.6644 655.624,-483.0157 660.9825,-487.0822 656,-487.5 656,-487.5 656,-487.5 660.9825,-487.0822 656.376,-491.9843 665.965,-486.6644 665.965,-486.6644"/>
<text text-anchor="start" x="663.189" y="-497.5" font-family="Arial" font-size="10.00" fill="#000000">comments&#45;&gt;comment_stars</text>
</g>
</g>
</svg>
