<?xml version="1.0" encoding="UTF-8" standalone="no"?>
<!DOCTYPE svg PUBLIC "-//W3C//DTD SVG 1.1//EN"
 "http://www.w3.org/Graphics/SVG/1.1/DTD/svg11.dtd">
<!-- Generated by graphviz version 2.40.1 (20161225.0304)
 -->
<!-- Title: comments Pages: 1 -->
<svg width="946pt" height="1049pt"
 viewBox="0.00 0.00 946.00 1049.00" xmlns="http://www.w3.org/2000/svg" xmlns:xlink="http://www.w3.org/1999/xlink">
<g id="graph0" class="graph" transform="scale(1 1) rotate(0) translate(4 1045)">
<title>comments</title>
<polygon fill="#ffffff" stroke="transparent" points="-4,4 -4,-1045 942,-1045 942,4 -4,4"/>
<!-- comments -->
<g id="node1" class="node">
<title>comments</title>
<polygon fill="#efefef" stroke="transparent" points="282,-622.5 282,-657.5 656,-657.5 656,-622.5 282,-622.5"/>
<polygon fill="none" stroke="#000000" points="282,-622.5 282,-657.5 656,-657.5 656,-622.5 282,-622.5"/>
<text text-anchor="start" x="376.5402" y="-635.3" font-family="Arial Bold" font-size="18.00" fill="#000000">comments</text>
<text text-anchor="start" x="459.5454" y="-635.3" font-family="Arial" font-size="14.00" fill="#000000"> </text>
<text text-anchor="start" x="463.436" y="-635.3" font-family="Arial" font-size="14.00" fill="#666666">[BASIC TABLE]</text>
<polygon fill="none" stroke="#000000" points="282,-592.5 282,-622.5 656,-622.5 656,-592.5 282,-592.5"/>
<text text-anchor="start" x="289" y="-603.9" font-family="Arial" font-size="14.00" fill="#000000">user_id </text>
<text text-anchor="start" x="338.7882" y="-603.9" font-family="Arial" font-size="14.00" fill="#666666">[INT64]</text>
<polygon fill="none" stroke="#000000" points="282,-562.5 282,-592.5 656,-592.5 656,-562.5 282,-562.5"/>
<text text-anchor="start" x="289" y="-573.9" font-family="Arial" font-size="14.00" fill="#000000">post_id </text>
<text text-anchor="start" x="338.0182" y="-573.9" font-family="Arial" font-size="14.00" fill="#666666">[INT64]</text>
<polygon fill="none" stroke="#000000" points="282,-532.5 282,-562.5 656,-562.5 656,-532.5 282,-532.5"/>
<text text-anchor="start" x="289" y="-543.9" font-family="Arial" font-size="14.00" fill="#000000">comment_id </text>
<text text-anchor="start" x="369.122" y="-543.9" font-family="Arial" font-size="14.00" fill="#666666">[INT64]</text>
<polygon fill="none" stroke="#000000" points="282,-502.5 282,-532.5 656,-532.5 656,-502.5 282,-502.5"/>
<text text-anchor="start" x="289" y="-513.9" font-family="Arial" font-size="14.00" fill="#000000">comment </text>
<text text-anchor="start" x="350.4502" y="-513.9" font-family="Arial" font-size="14.00" fill="#666666">[STRING(MAX)]</text>
<polygon fill="none" stroke="#000000" points="282,-472.5 282,-502.5 656,-502.5 656,-472.5 282,-472.5"/>
<text text-anchor="start" x="289" y="-483.9" font-family="Arial" font-size="14.00" fill="#000000">created </text>
<text text-anchor="start" x="339.5722" y="-483.9" font-family="Arial" font-size="14.00" fill="#666666">[TIMESTAMP]</text>
<polygon fill="none" stroke="#000000" points="282,-442.5 282,-472.5 656,-472.5 656,-442.5 282,-442.5"/>
<text text-anchor="start" x="288.7409" y="-453.9" font-family="Arial" font-size="14.00" fill="#000000">updated </text>
<text text-anchor="start" x="343.2177" y="-453.9" font-family="Arial" font-size="14.00" fill="#666666">[TIMESTAMP (allow_commit_timestamp=TRUE)]</text>
<polygon fill="none" stroke="#000000" stroke-width="3" points="280.5,-441.5 280.5,-659.5 657.5,-659.5 657.5,-441.5 280.5,-441.5"/>
</g>
<!-- posts -->
<g id="node2" class="node">
<title>posts</title>
<polygon fill="#efefef" stroke="transparent" points="43,-282.5 43,-317.5 417,-317.5 417,-282.5 43,-282.5"/>
<polygon fill="none" stroke="#000000" points="43,-282.5 43,-317.5 417,-317.5 417,-282.5 43,-282.5"/>
<text text-anchor="start" x="157.5355" y="-295.3" font-family="Arial Bold" font-size="18.00" fill="#000000">posts</text>
<text text-anchor="start" x="200.5501" y="-295.3" font-family="Arial" font-size="14.00" fill="#000000"> </text>
<text text-anchor="start" x="204.4407" y="-295.3" font-family="Arial" font-size="14.00" fill="#666666">[BASIC TABLE]</text>
<polygon fill="none" stroke="#000000" points="43,-252.5 43,-282.5 417,-282.5 417,-252.5 43,-252.5"/>
<text text-anchor="start" x="50" y="-263.9" font-family="Arial" font-size="14.00" fill="#000000">user_id </text>
<text text-anchor="start" x="99.7882" y="-263.9" font-family="Arial" font-size="14.00" fill="#666666">[INT64]</text>
<polygon fill="none" stroke="#000000" points="43,-222.5 43,-252.5 417,-252.5 417,-222.5 43,-222.5"/>
<text text-anchor="start" x="50" y="-233.9" font-family="Arial" font-size="14.00" fill="#000000">post_id </text>
<text text-anchor="start" x="99.0182" y="-233.9" font-family="Arial" font-size="14.00" fill="#666666">[INT64]</text>
<polygon fill="none" stroke="#000000" points="43,-192.5 43,-222.5 417,-222.5 417,-192.5 43,-192.5"/>
<text text-anchor="start" x="50" y="-203.9" font-family="Arial" font-size="14.00" fill="#000000">title </text>
<text text-anchor="start" x="75.6676" y="-203.9" font-family="Arial" font-size="14.00" fill="#666666">[STRING(255)]</text>
<polygon fill="none" stroke="#000000" points="43,-162.5 43,-192.5 417,-192.5 417,-162.5 43,-162.5"/>
<text text-anchor="start" x="50" y="-173.9" font-family="Arial" font-size="14.00" fill="#000000">body </text>
<text text-anchor="start" x="84.2384" y="-173.9" font-family="Arial" font-size="14.00" fill="#666666">[STRING(MAX)]</text>
<polygon fill="none" stroke="#000000" points="43,-132.5 43,-162.5 417,-162.5 417,-132.5 43,-132.5"/>
<text text-anchor="start" x="50" y="-143.9" font-family="Arial" font-size="14.00" fill="#000000">image </text>
<text text-anchor="start" x="92.0056" y="-143.9" font-family="Arial" font-size="14.00" fill="#666666">[BYTES(MAX)]</text>
<polygon fill="none" stroke="#000000" points="43,-102.5 43,-132.5 417,-132.5 417,-102.5 43,-102.5"/>
<text text-anchor="start" x="50" y="-113.9" font-family="Arial" font-size="14.00" fill="#000000">labels </text>
<text text-anchor="start" x="90.4516" y="-113.9" font-family="Arial" font-size="14.00" fill="#666666">[ARRAY&lt;STRING(50)&gt;]</text>
<polygon fill="none" stroke="#000000" points="43,-72.5 43,-102.5 417,-102.5 417,-72.5 43,-72.5"/>
<text text-anchor="start" x="50" y="-83.9" font-family="Arial" font-size="14.00" fill="#000000">created </text>
<text text-anchor="start" x="100.5722" y="-83.9" font-family="Arial" font-size="14.00" fill="#666666">[TIMESTAMP]</text>
<polygon fill="none" stroke="#000000" points="43,-42.5 43,-72.5 417,-72.5 417,-42.5 43,-42.5"/>
<text text-anchor="start" x="49.7409" y="-53.9" font-family="Arial" font-size="14.00" fill="#000000">updated </text>
<text text-anchor="start" x="104.2177" y="-53.9" font-family="Arial" font-size="14.00" fill="#666666">[TIMESTAMP (allow_commit_timestamp=TRUE)]</text>
</g>
<!-- comments&#45;&gt;posts -->
<g id="edge1" class="edge">
<title>comments:user_id&#45;&gt;posts:user_id</title>
<path fill="none" stroke="#000000" d="M271.6255,-606.8878C191.3317,-596.9455 227.229,-468.2905 282,-397 319.8316,-347.758 379.1684,-410.242 417,-361 442.3171,-328.0469 458.5556,-267.5 417,-267.5"/>
<polygon fill="#000000" stroke="#000000" points="272.0174,-606.9109 281.7349,-611.9922 277.0087,-607.2054 282,-607.5 282,-607.5 282,-607.5 277.0087,-607.2054 282.2651,-603.0078 272.0174,-606.9109 272.0174,-606.9109"/>
<text text-anchor="start" x="20.211" y="-617.5" font-family="Arial" font-size="10.00" fill="#000000">INTERLEAVE IN PARENT posts ON DELETE CASCADE</text>
</g>
<!-- users -->
<g id="node3" class="node">
<title>users</title>
<polygon fill="#efefef" stroke="transparent" points="521,-252.5 521,-287.5 895,-287.5 895,-252.5 521,-252.5"/>
<polygon fill="none" stroke="#000000" points="521,-252.5 521,-287.5 895,-287.5 895,-252.5 521,-252.5"/>
<text text-anchor="start" x="635.0405" y="-265.3" font-family="Arial Bold" font-size="18.00" fill="#000000">users</text>
<text text-anchor="start" x="679.0451" y="-265.3" font-family="Arial" font-size="14.00" fill="#000000"> </text>
<text text-anchor="start" x="682.9357" y="-265.3" font-family="Arial" font-size="14.00" fill="#666666">[BASIC TABLE]</text>
<polygon fill="none" stroke="#000000" points="521,-222.5 521,-252.5 895,-252.5 895,-222.5 521,-222.5"/>
<text text-anchor="start" x="528" y="-233.9" font-family="Arial" font-size="14.00" fill="#000000">user_id </text>
<text text-anchor="start" x="577.7882" y="-233.9" font-family="Arial" font-size="14.00" fill="#666666">[INT64]</text>
<polygon fill="none" stroke="#000000" points="521,-192.5 521,-222.5 895,-222.5 895,-192.5 521,-192.5"/>
<text text-anchor="start" x="528" y="-203.9" font-family="Arial" font-size="14.00" fill="#000000">username </text>
<text text-anchor="start" x="594.1248" y="-203.9" font-family="Arial" font-size="14.00" fill="#666666">[STRING(50)]</text>
<polygon fill="none" stroke="#000000" points="521,-162.5 521,-192.5 895,-192.5 895,-162.5 521,-162.5"/>
<text text-anchor="start" x="528" y="-173.9" font-family="Arial" font-size="14.00" fill="#000000">password </text>
<text text-anchor="start" x="591.7882" y="-173.9" font-family="Arial" font-size="14.00" fill="#666666">[STRING(50)]</text>
<polygon fill="none" stroke="#000000" points="521,-132.5 521,-162.5 895,-162.5 895,-132.5 521,-132.5"/>
<text text-anchor="start" x="528" y="-143.9" font-family="Arial" font-size="14.00" fill="#000000">email </text>
<text text-anchor="start" x="565.3296" y="-143.9" font-family="Arial" font-size="14.00" fill="#666666">[STRING(255)]</text>
<polygon fill="none" stroke="#000000" points="521,-102.5 521,-132.5 895,-132.5 895,-102.5 521,-102.5"/>
<text text-anchor="start" x="528" y="-113.9" font-family="Arial" font-size="14.00" fill="#000000">created </text>
<text text-anchor="start" x="578.5722" y="-113.9" font-family="Arial" font-size="14.00" fill="#666666">[TIMESTAMP]</text>
<polygon fill="none" stroke="#000000" points="521,-72.5 521,-102.5 895,-102.5 895,-72.5 521,-72.5"/>
<text text-anchor="start" x="527.7409" y="-83.9" font-family="Arial" font-size="14.00" fill="#000000">updated </text>
<text text-anchor="start" x="582.2177" y="-83.9" font-family="Arial" font-size="14.00" fill="#666666">[TIMESTAMP (allow_commit_timestamp=TRUE)]</text>
</g>
<!-- comments&#45;&gt;users -->
<g id="edge2" class="edge">
<title>comments:user_id&#45;&gt;users:user_id</title>
<path fill="none" stroke="#000000" stroke-dasharray="5,2" d="M666.3417,-606.9106C746.1084,-597.3339 703.6047,-473.2626 656,-397 620.635,-340.3453 556.365,-387.6547 521,-331 498.9954,-295.7486 479.4444,-237.5 521,-237.5"/>
<polygon fill="#000000" stroke="#000000" points="665.9838,-606.9309 655.7439,-603.0073 660.9919,-607.2155 656,-607.5 656,-607.5 656,-607.5 660.9919,-607.2155 656.2561,-611.9927 665.9838,-606.9309 665.9838,-606.9309"/>
<text text-anchor="start" x="663.1355" y="-617.5" font-family="Arial" font-size="10.00" fill="#000000">comments&#45;&gt;users</text>
</g>
<!-- comment_stars -->
<g id="node4" class="node">
<title>comment_stars</title>
<polygon fill="#efefef" stroke="transparent" points="282,-962.5 282,-997.5 656,-997.5 656,-962.5 282,-962.5"/>
<polygon fill="none" stroke="#000000" points="282,-962.5 282,-997.5 656,-997.5 656,-962.5 282,-962.5"/>
<text text-anchor="start" x="356.5368" y="-975.3" font-family="Arial Bold" font-size="18.00" fill="#000000">comment_stars</text>
<text text-anchor="start" x="479.5488" y="-975.3" font-family="Arial" font-size="14.00" fill="#000000"> </text>
<text text-anchor="start" x="483.4394" y="-975.3" font-family="Arial" font-size="14.00" fill="#666666">[BASIC TABLE]</text>
<polygon fill="none" stroke="#000000" points="282,-932.5 282,-962.5 656,-962.5 656,-932.5 282,-932.5"/>
<text text-anchor="start" x="289" y="-943.9" font-family="Arial" font-size="14.00" fill="#000000">user_id </text>
<text text-anchor="start" x="338.7882" y="-943.9" font-family="Arial" font-size="14.00" fill="#666666">[INT64]</text>
<polygon fill="none" stroke="#000000" points="282,-902.5 282,-932.5 656,-932.5 656,-902.5 282,-902.5"/>
<text text-anchor="start" x="289" y="-913.9" font-family="Arial" font-size="14.00" fill="#000000">comment_star_id </text>
<text text-anchor="start" x="400.2384" y="-913.9" font-family="Arial" font-size="14.00" fill="#666666">[INT64]</text>
<polygon fill="none" stroke="#000000" points="282,-872.5 282,-902.5 656,-902.5 656,-872.5 282,-872.5"/>
<text text-anchor="start" x="289" y="-883.9" font-family="Arial" font-size="14.00" fill="#000000">comment_post_id </text>
<text text-anchor="start" x="403.3604" y="-883.9" font-family="Arial" font-size="14.00" fill="#666666">[INT64]</text>
<polygon fill="none" stroke="#000000" points="282,-842.5 282,-872.5 656,-872.5 656,-842.5 282,-842.5"/>
<text text-anchor="start" x="289" y="-853.9" font-family="Arial" font-size="14.00" fill="#000000">comment_user_id </text>
<text text-anchor="start" x="404.1304" y="-853.9" font-family="Arial" font-size="14.00" fill="#666666">[INT64]</text>
<polygon fill="none" stroke="#000000" points="282,-812.5 282,-842.5 656,-842.5 656,-812.5 282,-812.5"/>
<text text-anchor="start" x="289" y="-823.9" font-family="Arial" font-size="14.00" fill="#000000">created </text>
<text text-anchor="start" x="339.5722" y="-823.9" font-family="Arial" font-size="14.00" fill="#666666">[TIMESTAMP]</text>
<polygon fill="none" stroke="#000000" points="282,-782.5 282,-812.5 656,-812.5 656,-782.5 282,-782.5"/>
<text text-anchor="start" x="288.7409" y="-793.9" font-family="Arial" font-size="14.00" fill="#000000">updated </text>
<text text-anchor="start" x="343.2177" y="-793.9" font-family="Arial" font-size="14.00" fill="#666666">[TIMESTAMP (allow_commit_timestamp=TRUE)]</text>
</g>
<!-- comment_stars&#45;&gt;comments -->
<g id="edge3" class="edge">
<title>comment_stars:comment_post_id&#45;&gt;comments:post_id</title>
<path fill="none" stroke="#000000" stroke-dasharray="5,2" d="M666.2283,-886.9106C793.689,-871.9577 790.2795,-577.5 656,-577.5"/>
<polygon fill="#000000" stroke="#000000" points="665.9834,-886.9246 655.7411,-883.0075 660.9917,-887.2123 656,-887.5 656,-887.5 656,-887.5 660.9917,-887.2123 656.2589,-891.9925 665.9834,-886.9246 665.9834,-886.9246"/>
<text text-anchor="start" x="663.189" y="-897.5" font-family="Arial" font-size="10.00" fill="#000000">comments&#45;&gt;comment_stars</text>
</g>
</g>
</svg>
