<?xml version="1.0" encoding="UTF-8" standalone="no"?>
<!DOCTYPE svg PUBLIC "-//W3C//DTD SVG 1.1//EN"
 "http://www.w3.org/Graphics/SVG/1.1/DTD/svg11.dtd">
<!-- Generated by graphviz version 2.40.1 (20161225.0304)
 -->
<!-- Title: logs Pages: 1 -->
<svg width="946pt" height="742pt"
 viewBox="0.00 0.00 946.00 742.00" xmlns="http://www.w3.org/2000/svg" xmlns:xlink="http://www.w3.org/1999/xlink">
<g id="graph0" class="graph" transform="scale(1 1) rotate(0) translate(4 738)">
<title>logs</title>
<polygon fill="#ffffff" stroke="transparent" points="-4,4 -4,-738 942,-738 942,4 -4,4"/>
<!-- logs -->
<g id="node1" class="node">
<title>logs</title>
<polygon fill="#efefef" stroke="transparent" points="383,-652.5 383,-687.5 554,-687.5 554,-652.5 383,-652.5"/>
<polygon fill="none" stroke="#000000" points="383,-652.5 383,-687.5 554,-687.5 554,-652.5 383,-652.5"/>
<text text-anchor="start" x="401.0395" y="-665.3" font-family="Arial Bold" font-size="18.00" fill="#000000">logs</text>
<text text-anchor="start" x="434.0461" y="-665.3" font-family="Arial" font-size="14.00" fill="#000000"> </text>
<text text-anchor="start" x="437.9367" y="-665.3" font-family="Arial" font-size="14.00" fill="#666666">[BASIC TABLE]</text>
<polygon fill="none" stroke="#000000" points="383,-622.5 383,-652.5 554,-652.5 554,-622.5 383,-622.5"/>
<text text-anchor="start" x="390" y="-633.9" font-family="Arial" font-size="14.00" fill="#000000">log_id </text>
<text text-anchor="start" x="431.2342" y="-633.9" font-family="Arial" font-size="14.00" fill="#666666">[INT64]</text>
<polygon fill="none" stroke="#000000" points="383,-592.5 383,-622.5 554,-622.5 554,-592.5 383,-592.5"/>
<text text-anchor="start" x="390" y="-603.9" font-family="Arial" font-size="14.00" fill="#000000">user_id </text>
<text text-anchor="start" x="439.7882" y="-603.9" font-family="Arial" font-size="14.00" fill="#666666">[INT64]</text>
<polygon fill="none" stroke="#000000" points="383,-562.5 383,-592.5 554,-592.5 554,-562.5 383,-562.5"/>
<text text-anchor="start" x="390" y="-573.9" font-family="Arial" font-size="14.00" fill="#000000">post_id </text>
<text text-anchor="start" x="439.0182" y="-573.9" font-family="Arial" font-size="14.00" fill="#666666">[INT64]</text>
<polygon fill="none" stroke="#000000" points="383,-532.5 383,-562.5 554,-562.5 554,-532.5 383,-532.5"/>
<text text-anchor="start" x="390" y="-543.9" font-family="Arial" font-size="14.00" fill="#000000">comment_id </text>
<text text-anchor="start" x="470.122" y="-543.9" font-family="Arial" font-size="14.00" fill="#666666">[INT64]</text>
<polygon fill="none" stroke="#000000" points="383,-502.5 383,-532.5 554,-532.5 554,-502.5 383,-502.5"/>
<text text-anchor="start" x="389.9327" y="-513.9" font-family="Arial" font-size="14.00" fill="#000000">comment_star_id </text>
<text text-anchor="start" x="501.1711" y="-513.9" font-family="Arial" font-size="14.00" fill="#666666">[INT64]</text>
<polygon fill="none" stroke="#000000" points="383,-472.5 383,-502.5 554,-502.5 554,-472.5 383,-472.5"/>
<text text-anchor="start" x="390" y="-483.9" font-family="Arial" font-size="14.00" fill="#000000">payload </text>
<text text-anchor="start" x="442.9102" y="-483.9" font-family="Arial" font-size="14.00" fill="#666666">[STRING(MAX)]</text>
<polygon fill="none" stroke="#000000" points="383,-442.5 383,-472.5 554,-472.5 554,-442.5 383,-442.5"/>
<text text-anchor="start" x="390" y="-453.9" font-family="Arial" font-size="14.00" fill="#000000">created </text>
<text text-anchor="start" x="440.5722" y="-453.9" font-family="Arial" font-size="14.00" fill="#666666">[TIMESTAMP]</text>
<polygon fill="none" stroke="#000000" stroke-width="3" points="381,-441.5 381,-689.5 555,-689.5 555,-441.5 381,-441.5"/>
</g>
<!-- users -->
<g id="node2" class="node">
<title>users</title>
<polygon fill="#efefef" stroke="transparent" points="43,-252.5 43,-287.5 417,-287.5 417,-252.5 43,-252.5"/>
<polygon fill="none" stroke="#000000" points="43,-252.5 43,-287.5 417,-287.5 417,-252.5 43,-252.5"/>
<text text-anchor="start" x="157.0405" y="-265.3" font-family="Arial Bold" font-size="18.00" fill="#000000">users</text>
<text text-anchor="start" x="201.0451" y="-265.3" font-family="Arial" font-size="14.00" fill="#000000"> </text>
<text text-anchor="start" x="204.9357" y="-265.3" font-family="Arial" font-size="14.00" fill="#666666">[BASIC TABLE]</text>
<polygon fill="none" stroke="#000000" points="43,-222.5 43,-252.5 417,-252.5 417,-222.5 43,-222.5"/>
<text text-anchor="start" x="50" y="-233.9" font-family="Arial" font-size="14.00" fill="#000000">user_id </text>
<text text-anchor="start" x="99.7882" y="-233.9" font-family="Arial" font-size="14.00" fill="#666666">[INT64]</text>
<polygon fill="none" stroke="#000000" points="43,-192.5 43,-222.5 417,-222.5 417,-192.5 43,-192.5"/>
<text text-anchor="start" x="50" y="-203.9" font-family="Arial" font-size="14.00" fill="#000000">username </text>
<text text-anchor="start" x="116.1248" y="-203.9" font-family="Arial" font-size="14.00" fill="#666666">[STRING(50)]</text>
<polygon fill="none" stroke="#000000" points="43,-162.5 43,-192.5 417,-192.5 417,-162.5 43,-162.5"/>
<text text-anchor="start" x="50" y="-173.9" font-family="Arial" font-size="14.00" fill="#000000">password </text>
<text text-anchor="start" x="113.7882" y="-173.9" font-family="Arial" font-size="14.00" fill="#666666">[STRING(50)]</text>
<polygon fill="none" stroke="#000000" points="43,-132.5 43,-162.5 417,-162.5 417,-132.5 43,-132.5"/>
<text text-anchor="start" x="50" y="-143.9" font-family="Arial" font-size="14.00" fill="#000000">email </text>
<text text-anchor="start" x="87.3296" y="-143.9" font-family="Arial" font-size="14.00" fill="#666666">[STRING(255)]</text>
<polygon fill="none" stroke="#000000" points="43,-102.5 43,-132.5 417,-132.5 417,-102.5 43,-102.5"/>
<text text-anchor="start" x="50" y="-113.9" font-family="Arial" font-size="14.00" fill="#000000">created </text>
<text text-anchor="start" x="100.5722" y="-113.9" font-family="Arial" font-size="14.00" fill="#666666">[TIMESTAMP]</text>
<polygon fill="none" stroke="#000000" points="43,-72.5 43,-102.5 417,-102.5 417,-72.5 43,-72.5"/>
<text text-anchor="start" x="49.7409" y="-83.9" font-family="Arial" font-size="14.00" fill="#000000">updated </text>
<text text-anchor="start" x="104.2177" y="-83.9" font-family="Arial" font-size="14.00" fill="#666666">[TIMESTAMP (allow_commit_timestamp=TRUE)]</text>
</g>
<!-- logs&#45;&gt;users -->
<g id="edge1" class="edge">
<title>logs:user_id&#45;&gt;users:user_id</title>
<path fill="none" stroke="#000000" stroke-dasharray="5,2" d="M372.7793,-606.9614C294.9559,-598.2017 361.8183,-484.3701 383,-397 390.7744,-364.9321 409.2256,-363.0679 417,-331 426.791,-290.6143 458.5556,-237.5 417,-237.5"/>
<polygon fill="#000000" stroke="#000000" points="373.0139,-606.9737 382.7632,-611.9938 378.0069,-607.2369 383,-607.5 383,-607.5 383,-607.5 378.0069,-607.2369 383.2368,-603.0062 373.0139,-606.9737 373.0139,-606.9737"/>
<text text-anchor="start" x="325.024" y="-617.5" font-family="Arial" font-size="10.00" fill="#000000">logs&#45;&gt;users</text>
</g>
<!-- posts -->
<g id="node3" class="node">
<title>posts</title>
<polygon fill="#efefef" stroke="transparent" points="521,-282.5 521,-317.5 895,-317.5 895,-282.5 521,-282.5"/>
<polygon fill="none" stroke="#000000" points="521,-282.5 521,-317.5 895,-317.5 895,-282.5 521,-282.5"/>
<text text-anchor="start" x="635.5355" y="-295.3" font-family="Arial Bold" font-size="18.00" fill="#000000">posts</text>
<text text-anchor="start" x="678.5501" y="-295.3" font-family="Arial" font-size="14.00" fill="#000000"> </text>
<text text-anchor="start" x="682.4407" y="-295.3" font-family="Arial" font-size="14.00" fill="#666666">[BASIC TABLE]</text>
<polygon fill="none" stroke="#000000" points="521,-252.5 521,-282.5 895,-282.5 895,-252.5 521,-252.5"/>
<text text-anchor="start" x="528" y="-263.9" font-family="Arial" font-size="14.00" fill="#000000">user_id </text>
<text text-anchor="start" x="577.7882" y="-263.9" font-family="Arial" font-size="14.00" fill="#666666">[INT64]</text>
<polygon fill="none" stroke="#000000" points="521,-222.5 521,-252.5 895,-252.5 895,-222.5 521,-222.5"/>
<text text-anchor="start" x="528" y="-233.9" font-family="Arial" font-size="14.00" fill="#000000">post_id </text>
<text text-anchor="start" x="577.0182" y="-233.9" font-family="Arial" font-size="14.00" fill="#666666">[INT64]</text>
<polygon fill="none" stroke="#000000" points="521,-192.5 521,-222.5 895,-222.5 895,-192.5 521,-192.5"/>
<text text-anchor="start" x="528" y="-203.9" font-family="Arial" font-size="14.00" fill="#000000">title </text>
<text text-anchor="start" x="553.6676" y="-203.9" font-family="Arial" font-size="14.00" fill="#666666">[STRING(255)]</text>
<polygon fill="none" stroke="#000000" points="521,-162.5 521,-192.5 895,-192.5 895,-162.5 521,-162.5"/>
<text text-anchor="start" x="528" y="-173.9" font-family="Arial" font-size="14.00" fill="#000000">body </text>
<text text-anchor="start" x="562.2384" y="-173.9" font-family="Arial" font-size="14.00" fill="#666666">[STRING(MAX)]</text>
<polygon fill="none" stroke="#000000" points="521,-132.5 521,-162.5 895,-162.5 895,-132.5 521,-132.5"/>
<text text-anchor="start" x="528" y="-143.9" font-family="Arial" font-size="14.00" fill="#000000">image </text>
<text text-anchor="start" x="570.0056" y="-143.9" font-family="Arial" font-size="14.00" fill="#666666">[BYTES(MAX)]</text>
<polygon fill="none" stroke="#000000" points="521,-102.5 521,-132.5 895,-132.5 895,-102.5 521,-102.5"/>
<text text-anchor="start" x="528" y="-113.9" font-family="Arial" font-size="14.00" fill="#000000">labels </text>
<text text-anchor="start" x="568.4516" y="-113.9" font-family="Arial" font-size="14.00" fill="#666666">[ARRAY&lt;STRING(50)&gt;]</text>
<polygon fill="none" stroke="#000000" points="521,-72.5 521,-102.5 895,-102.5 895,-72.5 521,-72.5"/>
<text text-anchor="start" x="528" y="-83.9" font-family="Arial" font-size="14.00" fill="#000000">created </text>
<text text-anchor="start" x="578.5722" y="-83.9" font-family="Arial" font-size="14.00" fill="#666666">[TIMESTAMP]</text>
<polygon fill="none" stroke="#000000" points="521,-42.5 521,-72.5 895,-72.5 895,-42.5 521,-42.5"/>
<text text-anchor="start" x="527.7409" y="-53.9" font-family="Arial" font-size="14.00" fill="#000000">updated </text>
<text text-anchor="start" x="582.2177" y="-53.9" font-family="Arial" font-size="14.00" fill="#666666">[TIMESTAMP (allow_commit_timestamp=TRUE)]</text>
</g>
<!-- logs&#45;&gt;posts -->
<g id="edge2" class="edge">
<title>logs:post_id&#45;&gt;posts:post_id</title>
<path fill="none" stroke="#000000" stroke-dasharray="5,2" d="M564.0298,-576.8723C629.6721,-568.0629 581.776,-468.4065 554,-397 546.1314,-376.7714 528.8686,-381.2286 521,-361 501.1015,-309.8449 466.1111,-237.5 521,-237.5"/>
<polygon fill="#000000" stroke="#000000" points="563.9805,-576.8753 553.7189,-573.0088 558.9902,-577.1876 554,-577.5 554,-577.5 554,-577.5 558.9902,-577.1876 554.2811,-581.9912 563.9805,-576.8753 563.9805,-576.8753"/>
<text text-anchor="start" x="561.299" y="-587.5" font-family="Arial" font-size="10.00" fill="#000000">logs&#45;&gt;posts</text>
</g>
</g>
</svg>
