<?xml version="1.0" encoding="UTF-8" standalone="no"?>
<!DOCTYPE svg PUBLIC "-//W3C//DTD SVG 1.1//EN"
 "http://www.w3.org/Graphics/SVG/1.1/DTD/svg11.dtd">
<!-- Generated by graphviz version 2.40.1 (20161225.0304)
 -->
<!-- Title: user_options Pages: 1 -->
<svg width="698pt" height="592pt"
 viewBox="0.00 0.00 698.00 592.00" xmlns="http://www.w3.org/2000/svg" xmlns:xlink="http://www.w3.org/1999/xlink">
<g id="graph0" class="graph" transform="scale(1 1) rotate(0) translate(4 588)">
<title>user_options</title>
<polygon fill="#ffffff" stroke="transparent" points="-4,4 -4,-588 694,-588 694,4 -4,4"/>
<!-- user_options -->
<g id="node1" class="node">
<title>user_options</title>
<polygon fill="#efefef" stroke="transparent" points="46,-502.5 46,-537.5 420,-537.5 420,-502.5 46,-502.5"/>
<polygon fill="none" stroke="#000000" points="46,-502.5 46,-537.5 420,-537.5 420,-502.5 46,-502.5"/>
<text text-anchor="start" x="130.5268" y="-515.3" font-family="Arial Bold" font-size="18.00" fill="#000000">user_options</text>
<text text-anchor="start" x="233.5588" y="-515.3" font-family="Arial" font-size="14.00" fill="#000000"> </text>
<text text-anchor="start" x="237.4494" y="-515.3" font-family="Arial" font-size="14.00" fill="#666666">[BASIC TABLE]</text>
<polygon fill="none" stroke="#000000" points="46,-472.5 46,-502.5 420,-502.5 420,-472.5 46,-472.5"/>
<text text-anchor="start" x="53" y="-483.9" font-family="Arial" font-size="14.00" fill="#000000">user_id </text>
<text text-anchor="start" x="102.7882" y="-483.9" font-family="Arial" font-size="14.00" fill="#666666">[INT64]</text>
<polygon fill="none" stroke="#000000" points="46,-442.5 46,-472.5 420,-472.5 420,-442.5 46,-442.5"/>
<text text-anchor="start" x="53" y="-453.9" font-family="Arial" font-size="14.00" fill="#000000">show_email </text>
<text text-anchor="start" x="130.784" y="-453.9" font-family="Arial" font-size="14.00" fill="#666666">[BOOL]</text>
<polygon fill="none" stroke="#000000" points="46,-412.5 46,-442.5 420,-442.5 420,-412.5 46,-412.5"/>
<text text-anchor="start" x="53" y="-423.9" font-family="Arial" font-size="14.00" fill="#000000">created </text>
<text text-anchor="start" x="103.5722" y="-423.9" font-family="Arial" font-size="14.00" fill="#666666">[TIMESTAMP]</text>
<polygon fill="none" stroke="#000000" points="46,-382.5 46,-412.5 420,-412.5 420,-382.5 46,-382.5"/>
<text text-anchor="start" x="52.7409" y="-393.9" font-family="Arial" font-size="14.00" fill="#000000">updated </text>
<text text-anchor="start" x="107.2177" y="-393.9" font-family="Arial" font-size="14.00" fill="#666666">[TIMESTAMP (allow_commit_timestamp=TRUE)]</text>
<polygon fill="none" stroke="#000000" stroke-width="3" points="44.5,-381.5 44.5,-539.5 421.5,-539.5 421.5,-381.5 44.5,-381.5"/>
</g>
<!-- users -->
<g id="node2" class="node">
<title>users</title>
<polygon fill="#efefef" stroke="transparent" points="46,-222.5 46,-257.5 420,-257.5 420,-222.5 46,-222.5"/>
<polygon fill="none" stroke="#000000" points="46,-222.5 46,-257.5 420,-257.5 420,-222.5 46,-222.5"/>
<text text-anchor="start" x="160.0405" y="-235.3" font-family="Arial Bold" font-size="18.00" fill="#000000">users</text>
<text text-anchor="start" x="204.0451" y="-235.3" font-family="Arial" font-size="14.00" fill="#000000"> </text>
<text text-anchor="start" x="207.9357" y="-235.3" font-family="Arial" font-size="14.00" fill="#666666">[BASIC TABLE]</text>
<polygon fill="none" stroke="#000000" points="46,-192.5 46,-222.5 420,-222.5 420,-192.5 46,-192.5"/>
<text text-anchor="start" x="53" y="-203.9" font-family="Arial" font-size="14.00" fill="#000000">user_id </text>
<text text-anchor="start" x="102.7882" y="-203.9" font-family="Arial" font-size="14.00" fill="#666666">[INT64]</text>
<polygon fill="none" stroke="#000000" points="46,-162.5 46,-192.5 420,-192.5 420,-162.5 46,-162.5"/>
<text text-anchor="start" x="53" y="-173.9" font-family="Arial" font-size="14.00" fill="#000000">username </text>
<text text-anchor="start" x="119.1248" y="-173.9" font-family="Arial" font-size="14.00" fill="#666666">[STRING(50)]</text>
<polygon fill="none" stroke="#000000" points="46,-132.5 46,-162.5 420,-162.5 420,-132.5 46,-132.5"/>
<text text-anchor="start" x="53" y="-143.9" font-family="Arial" font-size="14.00" fill="#000000">password </text>
<text text-anchor="start" x="116.7882" y="-143.9" font-family="Arial" font-size="14.00" fill="#666666">[STRING(50)]</text>
<polygon fill="none" stroke="#000000" points="46,-102.5 46,-132.5 420,-132.5 420,-102.5 46,-102.5"/>
<text text-anchor="start" x="53" y="-113.9" font-family="Arial" font-size="14.00" fill="#000000">email </text>
<text text-anchor="start" x="90.3296" y="-113.9" font-family="Arial" font-size="14.00" fill="#666666">[STRING(255)]</text>
<polygon fill="none" stroke="#000000" points="46,-72.5 46,-102.5 420,-102.5 420,-72.5 46,-72.5"/>
<text text-anchor="start" x="53" y="-83.9" font-family="Arial" font-size="14.00" fill="#000000">created </text>
<text text-anchor="start" x="103.5722" y="-83.9" font-family="Arial" font-size="14.00" fill="#666666">[TIMESTAMP]</text>
<polygon fill="none" stroke="#000000" points="46,-42.5 46,-72.5 420,-72.5 420,-42.5 46,-42.5"/>
<text text-anchor="start" x="52.7409" y="-53.9" font-family="Arial" font-size="14.00" fill="#000000">updated </text>
<text text-anchor="start" x="107.2177" y="-53.9" font-family="Arial" font-size="14.00" fill="#666666">[TIMESTAMP (allow_commit_timestamp=TRUE)]</text>
</g>
<!-- user_options&#45;&gt;users -->
<g id="edge1" class="edge">
<title>user_options:user_id&#45;&gt;users:user_id</title>
<path fill="none" stroke="#000000" d="M429.9741,-484.9069C482.0226,-456.6795 478.6979,-207.5 420,-207.5"/>
<polygon fill="#000000" stroke="#000000" points="429.6783,-484.9837 418.8677,-483.1448 424.8391,-486.2419 420,-487.5 420,-487.5 420,-487.5 424.8391,-486.2419 421.1323,-491.8552 429.6783,-484.9837 429.6783,-484.9837"/>
<text text-anchor="start" x="426.936" y="-497.5" font-family="Arial" font-size="10.00" fill="#000000">INTERLEAVE IN PARENT users ON DELETE CASCADE</text>
</g>
</g>
</svg>
