<?xml version="1.0" encoding="UTF-8" standalone="no"?>
<!DOCTYPE svg PUBLIC "-//W3C//DTD SVG 1.1//EN"
 "http://www.w3.org/Graphics/SVG/1.1/DTD/svg11.dtd">
<!-- Generated by graphviz version 2.40.1 (20161225.0304)
 -->
<!-- Title: users Pages: 1 -->
<svg width="2178pt" height="712pt"
 viewBox="0.00 0.00 2177.50 712.00" xmlns="http://www.w3.org/2000/svg" xmlns:xlink="http://www.w3.org/1999/xlink">
<g id="graph0" class="graph" transform="scale(1 1) rotate(0) translate(4 708)">
<title>users</title>
<polygon fill="#ffffff" stroke="transparent" points="-4,4 -4,-708 2173.5,-708 2173.5,4 -4,4"/>
<!-- users -->
<g id="node1" class="node">
<title>users</title>
<polygon fill="#efefef" stroke="transparent" points="999,-225.5 999,-260.5 1373,-260.5 1373,-225.5 999,-225.5"/>
<polygon fill="none" stroke="#000000" points="999,-225.5 999,-260.5 1373,-260.5 1373,-225.5 999,-225.5"/>
<text text-anchor="start" x="1113.0405" y="-238.3" font-family="Arial Bold" font-size="18.00" fill="#000000">users</text>
<text text-anchor="start" x="1157.0451" y="-238.3" font-family="Arial" font-size="14.00" fill="#000000"> </text>
<text text-anchor="start" x="1160.9357" y="-238.3" font-family="Arial" font-size="14.00" fill="#666666">[BASIC TABLE]</text>
<polygon fill="none" stroke="#000000" points="999,-195.5 999,-225.5 1373,-225.5 1373,-195.5 999,-195.5"/>
<text text-anchor="start" x="1006" y="-206.9" font-family="Arial" font-size="14.00" fill="#000000">user_id </text>
<text text-anchor="start" x="1055.7882" y="-206.9" font-family="Arial" font-size="14.00" fill="#666666">[INT64]</text>
<polygon fill="none" stroke="#000000" points="999,-165.5 999,-195.5 1373,-195.5 1373,-165.5 999,-165.5"/>
<text text-anchor="start" x="1006" y="-176.9" font-family="Arial" font-size="14.00" fill="#000000">username </text>
<text text-anchor="start" x="1072.1248" y="-176.9" font-family="Arial" font-size="14.00" fill="#666666">[STRING(50)]</text>
<polygon fill="none" stroke="#000000" points="999,-135.5 999,-165.5 1373,-165.5 1373,-135.5 999,-135.5"/>
<text text-anchor="start" x="1006" y="-146.9" font-family="Arial" font-size="14.00" fill="#000000">password </text>
<text text-anchor="start" x="1069.7882" y="-146.9" font-family="Arial" font-size="14.00" fill="#666666">[STRING(50)]</text>
<polygon fill="none" stroke="#000000" points="999,-105.5 999,-135.5 1373,-135.5 1373,-105.5 999,-105.5"/>
<text text-anchor="start" x="1006" y="-116.9" font-family="Arial" font-size="14.00" fill="#000000">email </text>
<text text-anchor="start" x="1043.3296" y="-116.9" font-family="Arial" font-size="14.00" fill="#666666">[STRING(255)]</text>
<polygon fill="none" stroke="#000000" points="999,-75.5 999,-105.5 1373,-105.5 1373,-75.5 999,-75.5"/>
<text text-anchor="start" x="1006" y="-86.9" font-family="Arial" font-size="14.00" fill="#000000">created </text>
<text text-anchor="start" x="1056.5722" y="-86.9" font-family="Arial" font-size="14.00" fill="#666666">[TIMESTAMP]</text>
<polygon fill="none" stroke="#000000" points="999,-45.5 999,-75.5 1373,-75.5 1373,-45.5 999,-45.5"/>
<text text-anchor="start" x="1005.7409" y="-56.9" font-family="Arial" font-size="14.00" fill="#000000">updated </text>
<text text-anchor="start" x="1060.2177" y="-56.9" font-family="Arial" font-size="14.00" fill="#666666">[TIMESTAMP (allow_commit_timestamp=TRUE)]</text>
<polygon fill="none" stroke="#000000" stroke-width="3" points="997.5,-44.5 997.5,-262.5 1374.5,-262.5 1374.5,-44.5 997.5,-44.5"/>
</g>
<!-- comment_stars -->
<g id="node2" class="node">
<title>comment_stars</title>
<polygon fill="#efefef" stroke="transparent" points="43,-595.5 43,-630.5 417,-630.5 417,-595.5 43,-595.5"/>
<polygon fill="none" stroke="#000000" points="43,-595.5 43,-630.5 417,-630.5 417,-595.5 43,-595.5"/>
<text text-anchor="start" x="117.5368" y="-608.3" font-family="Arial Bold" font-size="18.00" fill="#000000">comment_stars</text>
<text text-anchor="start" x="240.5488" y="-608.3" font-family="Arial" font-size="14.00" fill="#000000"> </text>
<text text-anchor="start" x="244.4394" y="-608.3" font-family="Arial" font-size="14.00" fill="#666666">[BASIC TABLE]</text>
<polygon fill="none" stroke="#000000" points="43,-565.5 43,-595.5 417,-595.5 417,-565.5 43,-565.5"/>
<text text-anchor="start" x="50" y="-576.9" font-family="Arial" font-size="14.00" fill="#000000">user_id </text>
<text text-anchor="start" x="99.7882" y="-576.9" font-family="Arial" font-size="14.00" fill="#666666">[INT64]</text>
<polygon fill="none" stroke="#000000" points="43,-535.5 43,-565.5 417,-565.5 417,-535.5 43,-535.5"/>
<text text-anchor="start" x="50" y="-546.9" font-family="Arial" font-size="14.00" fill="#000000">comment_star_id </text>
<text text-anchor="start" x="161.2384" y="-546.9" font-family="Arial" font-size="14.00" fill="#666666">[INT64]</text>
<polygon fill="none" stroke="#000000" points="43,-505.5 43,-535.5 417,-535.5 417,-505.5 43,-505.5"/>
<text text-anchor="start" x="50" y="-516.9" font-family="Arial" font-size="14.00" fill="#000000">comment_post_id </text>
<text text-anchor="start" x="164.3604" y="-516.9" font-family="Arial" font-size="14.00" fill="#666666">[INT64]</text>
<polygon fill="none" stroke="#000000" points="43,-475.5 43,-505.5 417,-505.5 417,-475.5 43,-475.5"/>
<text text-anchor="start" x="50" y="-486.9" font-family="Arial" font-size="14.00" fill="#000000">comment_user_id </text>
<text text-anchor="start" x="165.1304" y="-486.9" font-family="Arial" font-size="14.00" fill="#666666">[INT64]</text>
<polygon fill="none" stroke="#000000" points="43,-445.5 43,-475.5 417,-475.5 417,-445.5 43,-445.5"/>
<text text-anchor="start" x="50" y="-456.9" font-family="Arial" font-size="14.00" fill="#000000">created </text>
<text text-anchor="start" x="100.5722" y="-456.9" font-family="Arial" font-size="14.00" fill="#666666">[TIMESTAMP]</text>
<polygon fill="none" stroke="#000000" points="43,-415.5 43,-445.5 417,-445.5 417,-415.5 43,-415.5"/>
<text text-anchor="start" x="49.7409" y="-426.9" font-family="Arial" font-size="14.00" fill="#000000">updated </text>
<text text-anchor="start" x="104.2177" y="-426.9" font-family="Arial" font-size="14.00" fill="#666666">[TIMESTAMP (allow_commit_timestamp=TRUE)]</text>
</g>
<!-- comment_stars&#45;&gt;users -->
<g id="edge1" class="edge">
<title>comment_stars:user_id&#45;&gt;users:user_id</title>
<path fill="none" stroke="#000000" d="M426.988,-579.9798C516.5626,-569.9674 396.2249,-417.9492 469,-343 553.572,-255.9015 877.5974,-210.5 999,-210.5"/>
<polygon fill="#000000" stroke="#000000" points="426.9865,-579.9798 416.7659,-576.0061 421.9932,-580.2399 417,-580.5 417,-580.5 417,-580.5 421.9932,-580.2399 417.2341,-584.9939 426.9865,-579.9798 426.9865,-579.9798"/>
<text text-anchor="start" x="288.936" y="-564.5" font-family="Arial" font-size="10.00" fill="#000000">INTERLEAVE IN PARENT users ON DELETE CASCADE</text>
</g>
<!-- posts -->
<g id="node3" class="node">
<title>posts</title>
<polygon fill="#efefef" stroke="transparent" points="521,-625.5 521,-660.5 895,-660.5 895,-625.5 521,-625.5"/>
<polygon fill="none" stroke="#000000" points="521,-625.5 521,-660.5 895,-660.5 895,-625.5 521,-625.5"/>
<text text-anchor="start" x="635.5355" y="-638.3" font-family="Arial Bold" font-size="18.00" fill="#000000">posts</text>
<text text-anchor="start" x="678.5501" y="-638.3" font-family="Arial" font-size="14.00" fill="#000000"> </text>
<text text-anchor="start" x="682.4407" y="-638.3" font-family="Arial" font-size="14.00" fill="#666666">[BASIC TABLE]</text>
<polygon fill="none" stroke="#000000" points="521,-595.5 521,-625.5 895,-625.5 895,-595.5 521,-595.5"/>
<text text-anchor="start" x="528" y="-606.9" font-family="Arial" font-size="14.00" fill="#000000">user_id </text>
<text text-anchor="start" x="577.7882" y="-606.9" font-family="Arial" font-size="14.00" fill="#666666">[INT64]</text>
<polygon fill="none" stroke="#000000" points="521,-565.5 521,-595.5 895,-595.5 895,-565.5 521,-565.5"/>
<text text-anchor="start" x="528" y="-576.9" font-family="Arial" font-size="14.00" fill="#000000">post_id </text>
<text text-anchor="start" x="577.0182" y="-576.9" font-family="Arial" font-size="14.00" fill="#666666">[INT64]</text>
<polygon fill="none" stroke="#000000" points="521,-535.5 521,-565.5 895,-565.5 895,-535.5 521,-535.5"/>
<text text-anchor="start" x="528" y="-546.9" font-family="Arial" font-size="14.00" fill="#000000">title </text>
<text text-anchor="start" x="553.6676" y="-546.9" font-family="Arial" font-size="14.00" fill="#666666">[STRING(255)]</text>
<polygon fill="none" stroke="#000000" points="521,-505.5 521,-535.5 895,-535.5 895,-505.5 521,-505.5"/>
<text text-anchor="start" x="528" y="-516.9" font-family="Arial" font-size="14.00" fill="#000000">body </text>
<text text-anchor="start" x="562.2384" y="-516.9" font-family="Arial" font-size="14.00" fill="#666666">[STRING(MAX)]</text>
<polygon fill="none" stroke="#000000" points="521,-475.5 521,-505.5 895,-505.5 895,-475.5 521,-475.5"/>
<text text-anchor="start" x="528" y="-486.9" font-family="Arial" font-size="14.00" fill="#000000">image </text>
<text text-anchor="start" x="570.0056" y="-486.9" font-family="Arial" font-size="14.00" fill="#666666">[BYTES(MAX)]</text>
<polygon fill="none" stroke="#000000" points="521,-445.5 521,-475.5 895,-475.5 895,-445.5 521,-445.5"/>
<text text-anchor="start" x="528" y="-456.9" font-family="Arial" font-size="14.00" fill="#000000">labels </text>
<text text-anchor="start" x="568.4516" y="-456.9" font-family="Arial" font-size="14.00" fill="#666666">[ARRAY&lt;STRING(50)&gt;]</text>
<polygon fill="none" stroke="#000000" points="521,-415.5 521,-445.5 895,-445.5 895,-415.5 521,-415.5"/>
<text text-anchor="start" x="528" y="-426.9" font-family="Arial" font-size="14.00" fill="#000000">created </text>
<text text-anchor="start" x="578.5722" y="-426.9" font-family="Arial" font-size="14.00" fill="#666666">[TIMESTAMP]</text>
<polygon fill="none" stroke="#000000" points="521,-385.5 521,-415.5 895,-415.5 895,-385.5 521,-385.5"/>
<text text-anchor="start" x="527.7409" y="-396.9" font-family="Arial" font-size="14.00" fill="#000000">updated </text>
<text text-anchor="start" x="582.2177" y="-396.9" font-family="Arial" font-size="14.00" fill="#666666">[TIMESTAMP (allow_commit_timestamp=TRUE)]</text>
</g>
<!-- posts&#45;&gt;users -->
<g id="edge2" class="edge">
<title>posts:user_id&#45;&gt;users:user_id</title>
<path fill="none" stroke="#000000" d="M904.7846,-608.4163C952.7183,-586.4857 931.0815,-397.7414 947,-343 964.6644,-282.2547 935.7384,-210.5 999,-210.5"/>
<polygon fill="#000000" stroke="#000000" points="904.7807,-608.417 894.0627,-606.0987 899.8903,-609.4585 895,-610.5 895,-610.5 895,-610.5 899.8903,-609.4585 895.9373,-614.9013 904.7807,-608.417 904.7807,-608.417"/>
<text text-anchor="start" x="901.936" y="-620.5" font-family="Arial" font-size="10.00" fill="#000000">INTERLEAVE IN PARENT users ON DELETE CASCADE</text>
</g>
<!-- user_options -->
<g id="node4" class="node">
<title>user_options</title>
<polygon fill="#efefef" stroke="transparent" points="999,-565.5 999,-600.5 1373,-600.5 1373,-565.5 999,-565.5"/>
<polygon fill="none" stroke="#000000" points="999,-565.5 999,-600.5 1373,-600.5 1373,-565.5 999,-565.5"/>
<text text-anchor="start" x="1083.5268" y="-578.3" font-family="Arial Bold" font-size="18.00" fill="#000000">user_options</text>
<text text-anchor="start" x="1186.5588" y="-578.3" font-family="Arial" font-size="14.00" fill="#000000"> </text>
<text text-anchor="start" x="1190.4494" y="-578.3" font-family="Arial" font-size="14.00" fill="#666666">[BASIC TABLE]</text>
<polygon fill="none" stroke="#000000" points="999,-535.5 999,-565.5 1373,-565.5 1373,-535.5 999,-535.5"/>
<text text-anchor="start" x="1006" y="-546.9" font-family="Arial" font-size="14.00" fill="#000000">user_id </text>
<text text-anchor="start" x="1055.7882" y="-546.9" font-family="Arial" font-size="14.00" fill="#666666">[INT64]</text>
<polygon fill="none" stroke="#000000" points="999,-505.5 999,-535.5 1373,-535.5 1373,-505.5 999,-505.5"/>
<text text-anchor="start" x="1006" y="-516.9" font-family="Arial" font-size="14.00" fill="#000000">show_email </text>
<text text-anchor="start" x="1083.784" y="-516.9" font-family="Arial" font-size="14.00" fill="#666666">[BOOL]</text>
<polygon fill="none" stroke="#000000" points="999,-475.5 999,-505.5 1373,-505.5 1373,-475.5 999,-475.5"/>
<text text-anchor="start" x="1006" y="-486.9" font-family="Arial" font-size="14.00" fill="#000000">created </text>
<text text-anchor="start" x="1056.5722" y="-486.9" font-family="Arial" font-size="14.00" fill="#666666">[TIMESTAMP]</text>
<polygon fill="none" stroke="#000000" points="999,-445.5 999,-475.5 1373,-475.5 1373,-445.5 999,-445.5"/>
<text text-anchor="start" x="1005.7409" y="-456.9" font-family="Arial" font-size="14.00" fill="#000000">updated </text>
<text text-anchor="start" x="1060.2177" y="-456.9" font-family="Arial" font-size="14.00" fill="#666666">[TIMESTAMP (allow_commit_timestamp=TRUE)]</text>
</g>
<!-- user_options&#45;&gt;users -->
<g id="edge3" class="edge">
<title>user_options:user_id&#45;&gt;users:user_id</title>
<path fill="none" stroke="#000000" d="M1381.1624,-544.5987C1410.5472,-499.4502 1407.8264,-210.5 1373,-210.5"/>
<polygon fill="#000000" stroke="#000000" points="1381.1039,-544.641 1370.3634,-546.8533 1377.0519,-547.5705 1373,-550.5 1373,-550.5 1373,-550.5 1377.0519,-547.5705 1375.6366,-554.1467 1381.1039,-544.641 1381.1039,-544.641"/>
<text text-anchor="start" x="1244.936" y="-534.5" font-family="Arial" font-size="10.00" fill="#000000">INTERLEAVE IN PARENT users ON DELETE CASCADE</text>
</g>
<!-- comments -->
<g id="node5" class="node">
<title>comments</title>
<polygon fill="#efefef" stroke="transparent" points="1477,-595.5 1477,-630.5 1851,-630.5 1851,-595.5 1477,-595.5"/>
<polygon fill="none" stroke="#000000" points="1477,-595.5 1477,-630.5 1851,-630.5 1851,-595.5 1477,-595.5"/>
<text text-anchor="start" x="1571.5402" y="-608.3" font-family="Arial Bold" font-size="18.00" fill="#000000">comments</text>
<text text-anchor="start" x="1654.5454" y="-608.3" font-family="Arial" font-size="14.00" fill="#000000"> </text>
<text text-anchor="start" x="1658.436" y="-608.3" font-family="Arial" font-size="14.00" fill="#666666">[BASIC TABLE]</text>
<polygon fill="none" stroke="#000000" points="1477,-565.5 1477,-595.5 1851,-595.5 1851,-565.5 1477,-565.5"/>
<text text-anchor="start" x="1484" y="-576.9" font-family="Arial" font-size="14.00" fill="#000000">user_id </text>
<text text-anchor="start" x="1533.7882" y="-576.9" font-family="Arial" font-size="14.00" fill="#666666">[INT64]</text>
<polygon fill="none" stroke="#000000" points="1477,-535.5 1477,-565.5 1851,-565.5 1851,-535.5 1477,-535.5"/>
<text text-anchor="start" x="1484" y="-546.9" font-family="Arial" font-size="14.00" fill="#000000">post_id </text>
<text text-anchor="start" x="1533.0182" y="-546.9" font-family="Arial" font-size="14.00" fill="#666666">[INT64]</text>
<polygon fill="none" stroke="#000000" points="1477,-505.5 1477,-535.5 1851,-535.5 1851,-505.5 1477,-505.5"/>
<text text-anchor="start" x="1484" y="-516.9" font-family="Arial" font-size="14.00" fill="#000000">comment_id </text>
<text text-anchor="start" x="1564.122" y="-516.9" font-family="Arial" font-size="14.00" fill="#666666">[INT64]</text>
<polygon fill="none" stroke="#000000" points="1477,-475.5 1477,-505.5 1851,-505.5 1851,-475.5 1477,-475.5"/>
<text text-anchor="start" x="1484" y="-486.9" font-family="Arial" font-size="14.00" fill="#000000">comment </text>
<text text-anchor="start" x="1545.4502" y="-486.9" font-family="Arial" font-size="14.00" fill="#666666">[STRING(MAX)]</text>
<polygon fill="none" stroke="#000000" points="1477,-445.5 1477,-475.5 1851,-475.5 1851,-445.5 1477,-445.5"/>
<text text-anchor="start" x="1484" y="-456.9" font-family="Arial" font-size="14.00" fill="#000000">created </text>
<text text-anchor="start" x="1534.5722" y="-456.9" font-family="Arial" font-size="14.00" fill="#666666">[TIMESTAMP]</text>
<polygon fill="none" stroke="#000000" points="1477,-415.5 1477,-445.5 1851,-445.5 1851,-415.5 1477,-415.5"/>
<text text-anchor="start" x="1483.7409" y="-426.9" font-family="Arial" font-size="14.00" fill="#000000">updated </text>
<text text-anchor="start" x="1538.2177" y="-426.9" font-family="Arial" font-size="14.00" fill="#666666">[TIMESTAMP (allow_commit_timestamp=TRUE)]</text>
</g>
<!-- comments&#45;&gt;users -->
<g id="edge4" class="edge">
<title>comments:user_id&#45;&gt;users:user_id</title>
<path fill="none" stroke="#000000" stroke-dasharray="5,2" d="M1467.155,-578.1356C1425.1786,-556.4145 1439.6536,-391.2647 1425,-343 1406.6216,-282.4669 1436.2616,-210.5 1373,-210.5"/>
<polygon fill="#000000" stroke="#000000" points="1467.2765,-578.1647 1475.9491,-584.8756 1472.1382,-579.3324 1477,-580.5 1477,-580.5 1477,-580.5 1472.1382,-579.3324 1478.0509,-576.1244 1467.2765,-578.1647 1467.2765,-578.1647"/>
<text text-anchor="start" x="1391.1355" y="-590.5" font-family="Arial" font-size="10.00" fill="#000000">comments&#45;&gt;users</text>
</g>
<!-- logs -->
<g id="node6" class="node">
<title>logs</title>
<polygon fill="#efefef" stroke="transparent" points="1956,-610.5 1956,-645.5 2127,-645.5 2127,-610.5 1956,-610.5"/>
<polygon fill="none" stroke="#000000" points="1956,-610.5 1956,-645.5 2127,-645.5 2127,-610.5 1956,-610.5"/>
<text text-anchor="start" x="1974.0395" y="-623.3" font-family="Arial Bold" font-size="18.00" fill="#000000">logs</text>
<text text-anchor="start" x="2007.0461" y="-623.3" font-family="Arial" font-size="14.00" fill="#000000"> </text>
<text text-anchor="start" x="2010.9367" y="-623.3" font-family="Arial" font-size="14.00" fill="#666666">[BASIC TABLE]</text>
<polygon fill="none" stroke="#000000" points="1956,-580.5 1956,-610.5 2127,-610.5 2127,-580.5 1956,-580.5"/>
<text text-anchor="start" x="1963" y="-591.9" font-family="Arial" font-size="14.00" fill="#000000">log_id </text>
<text text-anchor="start" x="2004.2342" y="-591.9" font-family="Arial" font-size="14.00" fill="#666666">[INT64]</text>
<polygon fill="none" stroke="#000000" points="1956,-550.5 1956,-580.5 2127,-580.5 2127,-550.5 1956,-550.5"/>
<text text-anchor="start" x="1963" y="-561.9" font-family="Arial" font-size="14.00" fill="#000000">user_id </text>
<text text-anchor="start" x="2012.7882" y="-561.9" font-family="Arial" font-size="14.00" fill="#666666">[INT64]</text>
<polygon fill="none" stroke="#000000" points="1956,-520.5 1956,-550.5 2127,-550.5 2127,-520.5 1956,-520.5"/>
<text text-anchor="start" x="1963" y="-531.9" font-family="Arial" font-size="14.00" fill="#000000">post_id </text>
<text text-anchor="start" x="2012.0182" y="-531.9" font-family="Arial" font-size="14.00" fill="#666666">[INT64]</text>
<polygon fill="none" stroke="#000000" points="1956,-490.5 1956,-520.5 2127,-520.5 2127,-490.5 1956,-490.5"/>
<text text-anchor="start" x="1963" y="-501.9" font-family="Arial" font-size="14.00" fill="#000000">comment_id </text>
<text text-anchor="start" x="2043.122" y="-501.9" font-family="Arial" font-size="14.00" fill="#666666">[INT64]</text>
<polygon fill="none" stroke="#000000" points="1956,-460.5 1956,-490.5 2127,-490.5 2127,-460.5 1956,-460.5"/>
<text text-anchor="start" x="1962.9327" y="-471.9" font-family="Arial" font-size="14.00" fill="#000000">comment_star_id </text>
<text text-anchor="start" x="2074.1711" y="-471.9" font-family="Arial" font-size="14.00" fill="#666666">[INT64]</text>
<polygon fill="none" stroke="#000000" points="1956,-430.5 1956,-460.5 2127,-460.5 2127,-430.5 1956,-430.5"/>
<text text-anchor="start" x="1963" y="-441.9" font-family="Arial" font-size="14.00" fill="#000000">payload </text>
<text text-anchor="start" x="2015.9102" y="-441.9" font-family="Arial" font-size="14.00" fill="#666666">[STRING(MAX)]</text>
<polygon fill="none" stroke="#000000" points="1956,-400.5 1956,-430.5 2127,-430.5 2127,-400.5 1956,-400.5"/>
<text text-anchor="start" x="1963" y="-411.9" font-family="Arial" font-size="14.00" fill="#000000">created </text>
<text text-anchor="start" x="2013.5722" y="-411.9" font-family="Arial" font-size="14.00" fill="#666666">[TIMESTAMP]</text>
</g>
<!-- logs&#45;&gt;users -->
<g id="edge5" class="edge">
<title>logs:user_id&#45;&gt;users:user_id</title>
<path fill="none" stroke="#000000" stroke-dasharray="5,2" d="M1945.8299,-564.9224C1862.7758,-554.746 1971.8974,-412.6688 1903,-343 1817.6347,-256.6789 1494.4026,-210.5 1373,-210.5"/>
<polygon fill="#000000" stroke="#000000" points="1946.0161,-564.9329 1955.7448,-569.9928 1951.008,-565.2164 1956,-565.5 1956,-565.5 1956,-565.5 1951.008,-565.2164 1956.2552,-561.0072 1946.0161,-564.9329 1946.0161,-564.9329"/>
<text text-anchor="start" x="1914.274" y="-549.5" font-family="Arial" font-size="10.00" fill="#000000">logs&#45;&gt;users</text>
</g>
</g>
</svg>
