<?xml version="1.0" encoding="UTF-8" standalone="no"?>
<!DOCTYPE svg PUBLIC "-//W3C//DTD SVG 1.1//EN"
 "http://www.w3.org/Graphics/SVG/1.1/DTD/svg11.dtd">
<!-- Generated by graphviz version 12.1.2 (20240928.0832)
 -->
<!-- Title: testdb Pages: 1 -->
<svg width="2052pt" height="1436pt"
 viewBox="0.00 0.00 2051.58 1435.60" xmlns="http://www.w3.org/2000/svg" xmlns:xlink="http://www.w3.org/1999/xlink">
<g id="graph0" class="graph" transform="scale(1 1) rotate(0) translate(4 1431.6)">
<title>testdb</title>
<polygon fill="white" stroke="none" points="-4,4 -4,-1431.6 2047.58,-1431.6 2047.58,4 -4,4"/>
<!-- comment_stars -->
<g id="node1" class="node">
<title>comment_stars</title>
<polygon fill="#efefef" stroke="none" points="456.82,-1333.4 456.82,-1369 704.28,-1369 704.28,-1333.4 456.82,-1333.4"/>
<polygon fill="none" stroke="black" points="456.82,-1333.4 456.82,-1369 704.28,-1369 704.28,-1333.4 456.82,-1333.4"/>
<text text-anchor="start" x="463.82" y="-1346.8" font-family="Arial Bold" font-size="18.00">comment_stars</text>
<text text-anchor="start" x="572.79" y="-1346.8" font-family="Arial" font-size="14.00">    </text>
<text text-anchor="start" x="603.91" y="-1346.8" font-family="Arial" font-size="14.00" fill="#666666">[BASE TABLE]</text>
<polygon fill="none" stroke="black" points="456.82,-1302.6 456.82,-1333.4 704.28,-1333.4 704.28,-1302.6 456.82,-1302.6"/>
<text text-anchor="start" x="463.82" y="-1314.8" font-family="Arial" font-size="14.00">id </text>
<text text-anchor="start" x="478.6" y="-1314.8" font-family="Arial" font-size="14.00" fill="#666666">[bigint]</text>
<polygon fill="none" stroke="black" points="456.82,-1271.8 456.82,-1302.6 704.28,-1302.6 704.28,-1271.8 456.82,-1271.8"/>
<text text-anchor="start" x="463.82" y="-1284" font-family="Arial" font-size="14.00">user_id </text>
<text text-anchor="start" x="513.62" y="-1284" font-family="Arial" font-size="14.00" fill="#666666">[int]</text>
<polygon fill="none" stroke="black" points="456.82,-1241 456.82,-1271.8 704.28,-1271.8 704.28,-1241 456.82,-1241"/>
<text text-anchor="start" x="463.82" y="-1253.2" font-family="Arial" font-size="14.00">comment_post_id </text>
<text text-anchor="start" x="578.21" y="-1253.2" font-family="Arial" font-size="14.00" fill="#666666">[bigint]</text>
<polygon fill="none" stroke="black" points="456.82,-1210.2 456.82,-1241 704.28,-1241 704.28,-1210.2 456.82,-1210.2"/>
<text text-anchor="start" x="463.82" y="-1222.4" font-family="Arial" font-size="14.00">comment_user_id </text>
<text text-anchor="start" x="578.98" y="-1222.4" font-family="Arial" font-size="14.00" fill="#666666">[int]</text>
<polygon fill="none" stroke="black" points="456.82,-1179.4 456.82,-1210.2 704.28,-1210.2 704.28,-1179.4 456.82,-1179.4"/>
<text text-anchor="start" x="463.82" y="-1191.6" font-family="Arial" font-size="14.00">created </text>
<text text-anchor="start" x="514.4" y="-1191.6" font-family="Arial" font-size="14.00" fill="#666666">[timestamp]</text>
<polygon fill="none" stroke="black" points="456.82,-1148.6 456.82,-1179.4 704.28,-1179.4 704.28,-1148.6 456.82,-1148.6"/>
<text text-anchor="start" x="463.82" y="-1160.8" font-family="Arial" font-size="14.00">updated </text>
<text text-anchor="start" x="518.31" y="-1160.8" font-family="Arial" font-size="14.00" fill="#666666">[timestamp]</text>
</g>
<!-- comments -->
<g id="node2" class="node">
<title>comments</title>
<polygon fill="#efefef" stroke="none" points="386.31,-975.2 386.31,-1010.8 598.79,-1010.8 598.79,-975.2 386.31,-975.2"/>
<polygon fill="none" stroke="black" points="386.31,-975.2 386.31,-1010.8 598.79,-1010.8 598.79,-975.2 386.31,-975.2"/>
<text text-anchor="start" x="393.31" y="-988.6" font-family="Arial Bold" font-size="18.00">comments</text>
<text text-anchor="start" x="467.3" y="-988.6" font-family="Arial" font-size="14.00">    </text>
<text text-anchor="start" x="498.41" y="-988.6" font-family="Arial" font-size="14.00" fill="#666666">[BASE TABLE]</text>
<polygon fill="none" stroke="black" points="386.31,-944.4 386.31,-975.2 598.79,-975.2 598.79,-944.4 386.31,-944.4"/>
<text text-anchor="start" x="393.31" y="-956.6" font-family="Arial" font-size="14.00">id </text>
<text text-anchor="start" x="408.1" y="-956.6" font-family="Arial" font-size="14.00" fill="#666666">[bigint]</text>
<polygon fill="none" stroke="black" points="386.31,-913.6 386.31,-944.4 598.79,-944.4 598.79,-913.6 386.31,-913.6"/>
<text text-anchor="start" x="393.31" y="-925.8" font-family="Arial" font-size="14.00">post_id </text>
<text text-anchor="start" x="442.35" y="-925.8" font-family="Arial" font-size="14.00" fill="#666666">[bigint]</text>
<polygon fill="none" stroke="black" points="386.31,-882.8 386.31,-913.6 598.79,-913.6 598.79,-882.8 386.31,-882.8"/>
<text text-anchor="start" x="393.31" y="-895" font-family="Arial" font-size="14.00">user_id </text>
<text text-anchor="start" x="443.12" y="-895" font-family="Arial" font-size="14.00" fill="#666666">[int]</text>
<polygon fill="none" stroke="black" points="386.31,-852 386.31,-882.8 598.79,-882.8 598.79,-852 386.31,-852"/>
<text text-anchor="start" x="393.31" y="-864.2" font-family="Arial" font-size="14.00">comment </text>
<text text-anchor="start" x="454.77" y="-864.2" font-family="Arial" font-size="14.00" fill="#666666">[text]</text>
<polygon fill="none" stroke="black" points="386.31,-821.2 386.31,-852 598.79,-852 598.79,-821.2 386.31,-821.2"/>
<text text-anchor="start" x="393.31" y="-833.4" font-family="Arial" font-size="14.00">post_id_desc </text>
<text text-anchor="start" x="479.7" y="-833.4" font-family="Arial" font-size="14.00" fill="#666666">[bigint]</text>
<polygon fill="none" stroke="black" points="386.31,-790.4 386.31,-821.2 598.79,-821.2 598.79,-790.4 386.31,-790.4"/>
<text text-anchor="start" x="393.31" y="-802.6" font-family="Arial" font-size="14.00">created </text>
<text text-anchor="start" x="443.9" y="-802.6" font-family="Arial" font-size="14.00" fill="#666666">[datetime]</text>
<polygon fill="none" stroke="black" points="386.31,-759.6 386.31,-790.4 598.79,-790.4 598.79,-759.6 386.31,-759.6"/>
<text text-anchor="start" x="393.31" y="-771.8" font-family="Arial" font-size="14.00">updated </text>
<text text-anchor="start" x="447.81" y="-771.8" font-family="Arial" font-size="14.00" fill="#666666">[datetime]</text>
</g>
<!-- comment_stars&#45;&gt;comments -->
<g id="edge2" class="edge">
<title>comment_stars:comment_post_id&#45;&gt;comments:post_id</title>
<path fill="none" stroke="black" d="M445.66,-1255.56C391.95,-1246 420.21,-1157.22 456.82,-1105.4 495.54,-1050.59 560.03,-1108.78 598.79,-1054 630.87,-1008.65 655.34,-929 599.79,-929"/>
<polygon fill="black" stroke="black" points="445.52,-1255.55 455.11,-1260.86 450.83,-1255.99 455.15,-1256.34 455.15,-1256.34 455.15,-1256.34 450.83,-1255.99 455.85,-1251.89 445.52,-1255.55"/>
<text text-anchor="start" x="7" y="-1266.4" font-family="Arial" font-size="10.00">FOREIGN KEY (comment_post_id, comment_user_id) REFERENCES comments (post_id, user_id)</text>
</g>
<!-- users -->
<g id="node8" class="node">
<title>users</title>
<polygon fill="#efefef" stroke="none" points="562.81,-228 562.81,-263.6 738.29,-263.6 738.29,-228 562.81,-228"/>
<polygon fill="none" stroke="black" points="562.81,-228 562.81,-263.6 738.29,-263.6 738.29,-228 562.81,-228"/>
<text text-anchor="start" x="569.81" y="-241.4" font-family="Arial Bold" font-size="18.00">users</text>
<text text-anchor="start" x="606.8" y="-241.4" font-family="Arial" font-size="14.00">    </text>
<text text-anchor="start" x="637.92" y="-241.4" font-family="Arial" font-size="14.00" fill="#666666">[BASE TABLE]</text>
<polygon fill="none" stroke="black" points="562.81,-197.2 562.81,-228 738.29,-228 738.29,-197.2 562.81,-197.2"/>
<text text-anchor="start" x="569.81" y="-209.4" font-family="Arial" font-size="14.00">id </text>
<text text-anchor="start" x="584.59" y="-209.4" font-family="Arial" font-size="14.00" fill="#666666">[int]</text>
<polygon fill="none" stroke="black" points="562.81,-166.4 562.81,-197.2 738.29,-197.2 738.29,-166.4 562.81,-166.4"/>
<text text-anchor="start" x="569.81" y="-178.6" font-family="Arial" font-size="14.00">username </text>
<text text-anchor="start" x="635.95" y="-178.6" font-family="Arial" font-size="14.00" fill="#666666">[varchar(50)]</text>
<polygon fill="none" stroke="black" points="562.81,-135.6 562.81,-166.4 738.29,-166.4 738.29,-135.6 562.81,-135.6"/>
<text text-anchor="start" x="569.81" y="-147.8" font-family="Arial" font-size="14.00">password </text>
<text text-anchor="start" x="633.61" y="-147.8" font-family="Arial" font-size="14.00" fill="#666666">[varchar(50)]</text>
<polygon fill="none" stroke="black" points="562.81,-104.8 562.81,-135.6 738.29,-135.6 738.29,-104.8 562.81,-104.8"/>
<text text-anchor="start" x="569.81" y="-117" font-family="Arial" font-size="14.00">email </text>
<text text-anchor="start" x="607.15" y="-117" font-family="Arial" font-size="14.00" fill="#666666">[varchar(355)]</text>
<polygon fill="none" stroke="black" points="562.81,-74 562.81,-104.8 738.29,-104.8 738.29,-74 562.81,-74"/>
<text text-anchor="start" x="569.81" y="-86.2" font-family="Arial" font-size="14.00">created </text>
<text text-anchor="start" x="620.39" y="-86.2" font-family="Arial" font-size="14.00" fill="#666666">[timestamp]</text>
<polygon fill="none" stroke="black" points="562.81,-43.2 562.81,-74 738.29,-74 738.29,-43.2 562.81,-43.2"/>
<text text-anchor="start" x="569.81" y="-55.4" font-family="Arial" font-size="14.00">updated </text>
<text text-anchor="start" x="624.3" y="-55.4" font-family="Arial" font-size="14.00" fill="#666666">[timestamp]</text>
</g>
<!-- comment_stars&#45;&gt;users -->
<g id="edge1" class="edge">
<title>comment_stars:comment_user_id&#45;&gt;users:id</title>
<path fill="none" stroke="black" d="M715.48,-1224.53C751.09,-1215.76 705.4,-1154.85 704.28,-1105.4 700.44,-935.94 611.46,-493.76 688.55,-342.8 700.96,-318.5 725.75,-331.04 738.29,-306.8 757.53,-269.61 781.16,-212.6 739.29,-212.6"/>
<polygon fill="black" stroke="black" points="715.56,-1224.52 705.14,-1221.09 710.25,-1225.08 705.95,-1225.53 705.95,-1225.53 705.95,-1225.53 710.25,-1225.08 706.08,-1230.04 715.56,-1224.52"/>
<text text-anchor="start" x="712.28" y="-1235.6" font-family="Arial" font-size="10.00">FOREIGN KEY (comment_user_id) REFERENCES users (id)</text>
</g>
<!-- posts -->
<g id="node6" class="node">
<title>posts</title>
<polygon fill="#efefef" stroke="none" points="298.97,-601.6 298.97,-637.2 560.13,-637.2 560.13,-601.6 298.97,-601.6"/>
<polygon fill="none" stroke="black" points="298.97,-601.6 298.97,-637.2 560.13,-637.2 560.13,-601.6 298.97,-601.6"/>
<text text-anchor="start" x="348.8" y="-615" font-family="Arial Bold" font-size="18.00">posts</text>
<text text-anchor="start" x="385.81" y="-615" font-family="Arial" font-size="14.00">    </text>
<text text-anchor="start" x="416.93" y="-615" font-family="Arial" font-size="14.00" fill="#666666">[BASE TABLE]</text>
<polygon fill="none" stroke="black" points="298.97,-570.8 298.97,-601.6 560.13,-601.6 560.13,-570.8 298.97,-570.8"/>
<text text-anchor="start" x="305.97" y="-583" font-family="Arial" font-size="14.00">id </text>
<text text-anchor="start" x="320.76" y="-583" font-family="Arial" font-size="14.00" fill="#666666">[bigint]</text>
<polygon fill="none" stroke="black" points="298.97,-540 298.97,-570.8 560.13,-570.8 560.13,-540 298.97,-540"/>
<text text-anchor="start" x="305.97" y="-552.2" font-family="Arial" font-size="14.00">user_id </text>
<text text-anchor="start" x="355.78" y="-552.2" font-family="Arial" font-size="14.00" fill="#666666">[int]</text>
<polygon fill="none" stroke="black" points="298.97,-509.2 298.97,-540 560.13,-540 560.13,-509.2 298.97,-509.2"/>
<text text-anchor="start" x="305.97" y="-521.4" font-family="Arial" font-size="14.00">title </text>
<text text-anchor="start" x="331.65" y="-521.4" font-family="Arial" font-size="14.00" fill="#666666">[varchar(255)]</text>
<polygon fill="none" stroke="black" points="298.97,-478.4 298.97,-509.2 560.13,-509.2 560.13,-478.4 298.97,-478.4"/>
<text text-anchor="start" x="305.97" y="-490.6" font-family="Arial" font-size="14.00">body </text>
<text text-anchor="start" x="340.22" y="-490.6" font-family="Arial" font-size="14.00" fill="#666666">[text]</text>
<polygon fill="none" stroke="black" points="298.97,-447.6 298.97,-478.4 560.13,-478.4 560.13,-447.6 298.97,-447.6"/>
<text text-anchor="start" x="305.97" y="-459.8" font-family="Arial" font-size="14.00">post_type </text>
<text text-anchor="start" x="370.57" y="-459.8" font-family="Arial" font-size="14.00" fill="#666666">[enum(&#39;public&#39;,&#39;private&#39;,&#39;draft&#39;)]</text>
<polygon fill="none" stroke="black" points="298.97,-416.8 298.97,-447.6 560.13,-447.6 560.13,-416.8 298.97,-416.8"/>
<text text-anchor="start" x="305.97" y="-429" font-family="Arial" font-size="14.00">created </text>
<text text-anchor="start" x="356.56" y="-429" font-family="Arial" font-size="14.00" fill="#666666">[datetime]</text>
<polygon fill="none" stroke="black" points="298.97,-386 298.97,-416.8 560.13,-416.8 560.13,-386 298.97,-386"/>
<text text-anchor="start" x="305.97" y="-398.2" font-family="Arial" font-size="14.00">updated </text>
<text text-anchor="start" x="360.47" y="-398.2" font-family="Arial" font-size="14.00" fill="#666666">[datetime]</text>
</g>
<!-- comments&#45;&gt;posts -->
<g id="edge3" class="edge">
<title>comments:post_id&#45;&gt;posts:id</title>
<path fill="none" stroke="black" d="M375.32,-928.43C293.5,-918.74 328.7,-786.82 386.31,-716.4 436.26,-655.34 509.99,-741.31 560.13,-680.4 586.73,-648.07 602.99,-586.2 561.13,-586.2"/>
<polygon fill="black" stroke="black" points="374.99,-928.42 384.72,-933.47 380.32,-928.72 384.64,-928.96 384.64,-928.96 384.64,-928.96 380.32,-928.72 385.23,-924.49 374.99,-928.42"/>
<text text-anchor="start" x="153.26" y="-939" font-family="Arial" font-size="10.00">FOREIGN KEY (post_id) REFERENCES posts (id)</text>
</g>
<!-- comments&#45;&gt;users -->
<g id="edge4" class="edge">
<title>comments:user_id&#45;&gt;users:id</title>
<path fill="none" stroke="black" d="M607.01,-890.89C636.29,-829.81 644.3,-404.98 612.55,-342.8 600.14,-318.5 575.35,-331.04 562.81,-306.8 543.57,-269.61 519.94,-212.6 561.81,-212.6"/>
<polygon fill="black" stroke="black" points="607.05,-890.85 596.82,-894.8 603.3,-894.64 600.26,-897.72 600.26,-897.72 600.26,-897.72 603.3,-894.64 603.22,-901.13 607.05,-890.85"/>
<text text-anchor="start" x="606.79" y="-908.2" font-family="Arial" font-size="10.00">FOREIGN KEY (user_id) REFERENCES users (id)</text>
</g>
<!-- hyphen&#45;table -->
<g id="node3" class="node">
<title>hyphen&#45;table</title>
<polygon fill="#efefef" stroke="none" points="808.32,-1287.2 808.32,-1322.8 1040.78,-1322.8 1040.78,-1287.2 808.32,-1287.2"/>
<polygon fill="none" stroke="black" points="808.32,-1287.2 808.32,-1322.8 1040.78,-1322.8 1040.78,-1287.2 808.32,-1287.2"/>
<text text-anchor="start" x="815.32" y="-1300.6" font-family="Arial Bold" font-size="18.00">hyphen&#45;table</text>
<text text-anchor="start" x="909.29" y="-1300.6" font-family="Arial" font-size="14.00">    </text>
<text text-anchor="start" x="940.4" y="-1300.6" font-family="Arial" font-size="14.00" fill="#666666">[BASE TABLE]</text>
<polygon fill="none" stroke="black" points="808.32,-1256.4 808.32,-1287.2 1040.78,-1287.2 1040.78,-1256.4 808.32,-1256.4"/>
<text text-anchor="start" x="815.32" y="-1268.6" font-family="Arial" font-size="14.00">id </text>
<text text-anchor="start" x="830.11" y="-1268.6" font-family="Arial" font-size="14.00" fill="#666666">[bigint]</text>
<polygon fill="none" stroke="black" points="808.32,-1225.6 808.32,-1256.4 1040.78,-1256.4 1040.78,-1225.6 808.32,-1225.6"/>
<text text-anchor="start" x="815.32" y="-1237.8" font-family="Arial" font-size="14.00">hyphen&#45;column </text>
<text text-anchor="start" x="914.94" y="-1237.8" font-family="Arial" font-size="14.00" fill="#666666">[text]</text>
<polygon fill="none" stroke="black" points="808.32,-1194.8 808.32,-1225.6 1040.78,-1225.6 1040.78,-1194.8 808.32,-1194.8"/>
<text text-anchor="start" x="815.32" y="-1207" font-family="Arial" font-size="14.00">created </text>
<text text-anchor="start" x="865.91" y="-1207" font-family="Arial" font-size="14.00" fill="#666666">[datetime]</text>
</g>
<!-- long_long_long_long_long_long_long_long_table_name -->
<g id="node4" class="node">
<title>long_long_long_long_long_long_long_long_table_name</title>
<polygon fill="#efefef" stroke="none" points="1144.82,-1271.8 1144.82,-1307.4 1694.28,-1307.4 1694.28,-1271.8 1144.82,-1271.8"/>
<polygon fill="none" stroke="black" points="1144.82,-1271.8 1144.82,-1307.4 1694.28,-1307.4 1694.28,-1271.8 1144.82,-1271.8"/>
<text text-anchor="start" x="1151.82" y="-1285.2" font-family="Arial Bold" font-size="18.00">long_long_long_long_long_long_long_long_table_name</text>
<text text-anchor="start" x="1562.79" y="-1285.2" font-family="Arial" font-size="14.00">    </text>
<text text-anchor="start" x="1593.91" y="-1285.2" font-family="Arial" font-size="14.00" fill="#666666">[BASE TABLE]</text>
<polygon fill="none" stroke="black" points="1144.82,-1241 1144.82,-1271.8 1694.28,-1271.8 1694.28,-1241 1144.82,-1241"/>
<text text-anchor="start" x="1151.82" y="-1253.2" font-family="Arial" font-size="14.00">id </text>
<text text-anchor="start" x="1166.61" y="-1253.2" font-family="Arial" font-size="14.00" fill="#666666">[bigint]</text>
<polygon fill="none" stroke="black" points="1144.82,-1210.2 1144.82,-1241 1694.28,-1241 1694.28,-1210.2 1144.82,-1210.2"/>
<text text-anchor="start" x="1151.82" y="-1222.4" font-family="Arial" font-size="14.00">created </text>
<text text-anchor="start" x="1202.41" y="-1222.4" font-family="Arial" font-size="14.00" fill="#666666">[datetime]</text>
</g>
<!-- post_comments -->
<g id="node5" class="node">
<title>post_comments</title>
<polygon fill="#efefef" stroke="none" points="1798.71,-1348.8 1798.71,-1384.4 2000.38,-1384.4 2000.38,-1348.8 1798.71,-1348.8"/>
<polygon fill="none" stroke="black" points="1798.71,-1348.8 1798.71,-1384.4 2000.38,-1384.4 2000.38,-1348.8 1798.71,-1348.8"/>
<text text-anchor="start" x="1805.71" y="-1362.2" font-family="Arial Bold" font-size="18.00">post_comments</text>
<text text-anchor="start" x="1918.71" y="-1362.2" font-family="Arial" font-size="14.00">    </text>
<text text-anchor="start" x="1949.82" y="-1362.2" font-family="Arial" font-size="14.00" fill="#666666">[VIEW]</text>
<polygon fill="none" stroke="black" points="1798.71,-1318 1798.71,-1348.8 2000.38,-1348.8 2000.38,-1318 1798.71,-1318"/>
<text text-anchor="start" x="1805.71" y="-1330.2" font-family="Arial" font-size="14.00">id </text>
<text text-anchor="start" x="1820.5" y="-1330.2" font-family="Arial" font-size="14.00" fill="#666666">[bigint]</text>
<polygon fill="none" stroke="black" points="1798.71,-1287.2 1798.71,-1318 2000.38,-1318 2000.38,-1287.2 1798.71,-1287.2"/>
<text text-anchor="start" x="1805.71" y="-1299.4" font-family="Arial" font-size="14.00">title </text>
<text text-anchor="start" x="1831.39" y="-1299.4" font-family="Arial" font-size="14.00" fill="#666666">[varchar(255)]</text>
<polygon fill="none" stroke="black" points="1798.71,-1256.4 1798.71,-1287.2 2000.38,-1287.2 2000.38,-1256.4 1798.71,-1256.4"/>
<text text-anchor="start" x="1805.71" y="-1268.6" font-family="Arial" font-size="14.00">post_user </text>
<text text-anchor="start" x="1871.09" y="-1268.6" font-family="Arial" font-size="14.00" fill="#666666">[varchar(50)]</text>
<polygon fill="none" stroke="black" points="1798.71,-1225.6 1798.71,-1256.4 2000.38,-1256.4 2000.38,-1225.6 1798.71,-1225.6"/>
<text text-anchor="start" x="1805.71" y="-1237.8" font-family="Arial" font-size="14.00">comment </text>
<text text-anchor="start" x="1867.18" y="-1237.8" font-family="Arial" font-size="14.00" fill="#666666">[text]</text>
<polygon fill="none" stroke="black" points="1798.71,-1194.8 1798.71,-1225.6 2000.38,-1225.6 2000.38,-1194.8 1798.71,-1194.8"/>
<text text-anchor="start" x="1805.71" y="-1207" font-family="Arial" font-size="14.00">comment_user </text>
<text text-anchor="start" x="1902.2" y="-1207" font-family="Arial" font-size="14.00" fill="#666666">[varchar(50)]</text>
<polygon fill="none" stroke="black" points="1798.71,-1164 1798.71,-1194.8 2000.38,-1194.8 2000.38,-1164 1798.71,-1164"/>
<text text-anchor="start" x="1805.71" y="-1176.2" font-family="Arial" font-size="14.00">created </text>
<text text-anchor="start" x="1856.3" y="-1176.2" font-family="Arial" font-size="14.00" fill="#666666">[datetime]</text>
<polygon fill="none" stroke="black" points="1798.71,-1133.2 1798.71,-1164 2000.38,-1164 2000.38,-1133.2 1798.71,-1133.2"/>
<text text-anchor="start" x="1805.71" y="-1145.4" font-family="Arial" font-size="14.00">updated </text>
<text text-anchor="start" x="1860.21" y="-1145.4" font-family="Arial" font-size="14.00" fill="#666666">[datetime]</text>
</g>
<!-- posts&#45;&gt;users -->
<g id="edge5" class="edge">
<title>posts:user_id&#45;&gt;users:id</title>
<path fill="none" stroke="black" d="M563.22,-545.51C567.21,-489.3 553.25,-212.6 561.81,-212.6"/>
<polygon fill="black" stroke="black" points="563.27,-545.29 556.79,-554.14 562.16,-550.51 561.26,-554.75 561.26,-554.75 561.26,-554.75 562.16,-550.51 565.6,-556.01 563.27,-545.29"/>
<text text-anchor="start" x="568.13" y="-565.4" font-family="Arial" font-size="10.00">FOREIGN KEY (user_id) REFERENCES users (id)</text>
</g>
<!-- user_options -->
<g id="node7" class="node">
<title>user_options</title>
<polygon fill="#efefef" stroke="none" points="740.31,-555.4 740.31,-591 970.79,-591 970.79,-555.4 740.31,-555.4"/>
<polygon fill="none" stroke="black" points="740.31,-555.4 740.31,-591 970.79,-591 970.79,-555.4 740.31,-555.4"/>
<text text-anchor="start" x="747.31" y="-568.8" font-family="Arial Bold" font-size="18.00">user_options</text>
<text text-anchor="start" x="839.3" y="-568.8" font-family="Arial" font-size="14.00">    </text>
<text text-anchor="start" x="870.42" y="-568.8" font-family="Arial" font-size="14.00" fill="#666666">[BASE TABLE]</text>
<polygon fill="none" stroke="black" points="740.31,-524.6 740.31,-555.4 970.79,-555.4 970.79,-524.6 740.31,-524.6"/>
<text text-anchor="start" x="747.31" y="-536.8" font-family="Arial" font-size="14.00">user_id </text>
<text text-anchor="start" x="797.11" y="-536.8" font-family="Arial" font-size="14.00" fill="#666666">[int]</text>
<polygon fill="none" stroke="black" points="740.31,-493.8 740.31,-524.6 970.79,-524.6 970.79,-493.8 740.31,-493.8"/>
<text text-anchor="start" x="747.31" y="-506" font-family="Arial" font-size="14.00">show_email </text>
<text text-anchor="start" x="825.12" y="-506" font-family="Arial" font-size="14.00" fill="#666666">[tinyint(1)]</text>
<polygon fill="none" stroke="black" points="740.31,-463 740.31,-493.8 970.79,-493.8 970.79,-463 740.31,-463"/>
<text text-anchor="start" x="747.31" y="-475.2" font-family="Arial" font-size="14.00">created </text>
<text text-anchor="start" x="797.89" y="-475.2" font-family="Arial" font-size="14.00" fill="#666666">[timestamp]</text>
<polygon fill="none" stroke="black" points="740.31,-432.2 740.31,-463 970.79,-463 970.79,-432.2 740.31,-432.2"/>
<text text-anchor="start" x="747.31" y="-444.4" font-family="Arial" font-size="14.00">updated </text>
<text text-anchor="start" x="801.8" y="-444.4" font-family="Arial" font-size="14.00" fill="#666666">[timestamp]</text>
</g>
<!-- user_options&#45;&gt;users -->
<g id="edge6" class="edge">
<title>user_options:user_id&#45;&gt;users:id</title>
<path fill="none" stroke="black" d="M729.05,-539.38C608.29,-523.59 881.11,-212.6 739.29,-212.6"/>
<polygon fill="black" stroke="black" points="728.99,-539.37 738.7,-544.47 734.32,-539.7 738.64,-539.96 738.64,-539.96 738.64,-539.96 734.32,-539.7 739.25,-535.49 728.99,-539.37"/>
<text text-anchor="start" x="626.23" y="-524" font-family="Arial" font-size="10.00">FOREIGN KEY (user_id) REFERENCES users (id)</text>
</g>
</g>
</svg>
