<?xml version="1.0" encoding="UTF-8" standalone="no"?>
<!DOCTYPE svg PUBLIC "-//W3C//DTD SVG 1.1//EN"
 "http://www.w3.org/Graphics/SVG/1.1/DTD/svg11.dtd">
<!-- Generated by graphviz version 2.40.1 (20161225.0304)
 -->
<!-- Title: testdb Pages: 1 -->
<svg width="1353pt" height="1380pt"
 viewBox="0.00 0.00 1352.50 1380.00" xmlns="http://www.w3.org/2000/svg" xmlns:xlink="http://www.w3.org/1999/xlink">
<g id="graph0" class="graph" transform="scale(1 1) rotate(0) translate(4 1376)">
<title>testdb</title>
<polygon fill="#ffffff" stroke="transparent" points="-4,4 -4,-1376 1348.5,-1376 1348.5,4 -4,4"/>
<!-- comment_stars -->
<g id="node1" class="node">
<title>comment_stars</title>
<polygon fill="#efefef" stroke="transparent" points="455,-1278.5 455,-1313.5 689,-1313.5 689,-1278.5 455,-1278.5"/>
<polygon fill="none" stroke="#000000" points="455,-1278.5 455,-1313.5 689,-1313.5 689,-1278.5 455,-1278.5"/>
<text text-anchor="start" x="461.8671" y="-1291.3" font-family="Arial Bold" font-size="18.00" fill="#000000">comment_stars</text>
<text text-anchor="start" x="584.8791" y="-1291.3" font-family="Arial" font-size="14.00" fill="#000000"> </text>
<text text-anchor="start" x="588.7697" y="-1291.3" font-family="Arial" font-size="14.00" fill="#666666">[BASE TABLE]</text>
<polygon fill="none" stroke="#000000" points="455,-1248.5 455,-1278.5 689,-1278.5 689,-1248.5 455,-1248.5"/>
<text text-anchor="start" x="462" y="-1259.9" font-family="Arial" font-size="14.00" fill="#000000">id </text>
<text text-anchor="start" x="476.7798" y="-1259.9" font-family="Arial" font-size="14.00" fill="#666666">[bigint(20)]</text>
<polygon fill="none" stroke="#000000" points="455,-1218.5 455,-1248.5 689,-1248.5 689,-1218.5 455,-1218.5"/>
<text text-anchor="start" x="462" y="-1229.9" font-family="Arial" font-size="14.00" fill="#000000">user_id </text>
<text text-anchor="start" x="511.7882" y="-1229.9" font-family="Arial" font-size="14.00" fill="#666666">[int(11)]</text>
<polygon fill="none" stroke="#000000" points="455,-1188.5 455,-1218.5 689,-1218.5 689,-1188.5 455,-1188.5"/>
<text text-anchor="start" x="462" y="-1199.9" font-family="Arial" font-size="14.00" fill="#000000">comment_post_id </text>
<text text-anchor="start" x="576.3604" y="-1199.9" font-family="Arial" font-size="14.00" fill="#666666">[bigint(20)]</text>
<polygon fill="none" stroke="#000000" points="455,-1158.5 455,-1188.5 689,-1188.5 689,-1158.5 455,-1158.5"/>
<text text-anchor="start" x="462" y="-1169.9" font-family="Arial" font-size="14.00" fill="#000000">comment_user_id </text>
<text text-anchor="start" x="577.1304" y="-1169.9" font-family="Arial" font-size="14.00" fill="#666666">[int(11)]</text>
<polygon fill="none" stroke="#000000" points="455,-1128.5 455,-1158.5 689,-1158.5 689,-1128.5 455,-1128.5"/>
<text text-anchor="start" x="462" y="-1139.9" font-family="Arial" font-size="14.00" fill="#000000">created </text>
<text text-anchor="start" x="512.5722" y="-1139.9" font-family="Arial" font-size="14.00" fill="#666666">[timestamp]</text>
<polygon fill="none" stroke="#000000" points="455,-1098.5 455,-1128.5 689,-1128.5 689,-1098.5 455,-1098.5"/>
<text text-anchor="start" x="462" y="-1109.9" font-family="Arial" font-size="14.00" fill="#000000">updated </text>
<text text-anchor="start" x="516.4768" y="-1109.9" font-family="Arial" font-size="14.00" fill="#666666">[timestamp]</text>
</g>
<!-- comments -->
<g id="node2" class="node">
<title>comments</title>
<polygon fill="#efefef" stroke="transparent" points="391,-926.5 391,-961.5 585,-961.5 585,-926.5 391,-926.5"/>
<polygon fill="none" stroke="#000000" points="391,-926.5 391,-961.5 585,-961.5 585,-926.5 391,-926.5"/>
<text text-anchor="start" x="397.8705" y="-939.3" font-family="Arial Bold" font-size="18.00" fill="#000000">comments</text>
<text text-anchor="start" x="480.8757" y="-939.3" font-family="Arial" font-size="14.00" fill="#000000"> </text>
<text text-anchor="start" x="484.7663" y="-939.3" font-family="Arial" font-size="14.00" fill="#666666">[BASE TABLE]</text>
<polygon fill="none" stroke="#000000" points="391,-896.5 391,-926.5 585,-926.5 585,-896.5 391,-896.5"/>
<text text-anchor="start" x="398" y="-907.9" font-family="Arial" font-size="14.00" fill="#000000">id </text>
<text text-anchor="start" x="412.7798" y="-907.9" font-family="Arial" font-size="14.00" fill="#666666">[bigint(20)]</text>
<polygon fill="none" stroke="#000000" points="391,-866.5 391,-896.5 585,-896.5 585,-866.5 391,-866.5"/>
<text text-anchor="start" x="398" y="-877.9" font-family="Arial" font-size="14.00" fill="#000000">post_id </text>
<text text-anchor="start" x="447.0182" y="-877.9" font-family="Arial" font-size="14.00" fill="#666666">[bigint(20)]</text>
<polygon fill="none" stroke="#000000" points="391,-836.5 391,-866.5 585,-866.5 585,-836.5 391,-836.5"/>
<text text-anchor="start" x="398" y="-847.9" font-family="Arial" font-size="14.00" fill="#000000">user_id </text>
<text text-anchor="start" x="447.7882" y="-847.9" font-family="Arial" font-size="14.00" fill="#666666">[int(11)]</text>
<polygon fill="none" stroke="#000000" points="391,-806.5 391,-836.5 585,-836.5 585,-806.5 391,-806.5"/>
<text text-anchor="start" x="398" y="-817.9" font-family="Arial" font-size="14.00" fill="#000000">comment </text>
<text text-anchor="start" x="459.4502" y="-817.9" font-family="Arial" font-size="14.00" fill="#666666">[text]</text>
<polygon fill="none" stroke="#000000" points="391,-776.5 391,-806.5 585,-806.5 585,-776.5 391,-776.5"/>
<text text-anchor="start" x="398" y="-787.9" font-family="Arial" font-size="14.00" fill="#000000">created </text>
<text text-anchor="start" x="448.5722" y="-787.9" font-family="Arial" font-size="14.00" fill="#666666">[datetime]</text>
<polygon fill="none" stroke="#000000" points="391,-746.5 391,-776.5 585,-776.5 585,-746.5 391,-746.5"/>
<text text-anchor="start" x="398" y="-757.9" font-family="Arial" font-size="14.00" fill="#000000">updated </text>
<text text-anchor="start" x="452.4768" y="-757.9" font-family="Arial" font-size="14.00" fill="#666666">[datetime]</text>
</g>
<!-- comment_stars&#45;&gt;comments -->
<g id="edge2" class="edge">
<title>comment_stars:comment_post_id&#45;&gt;comments:post_id</title>
<path fill="none" stroke="#000000" d="M444.7515,-1202.6257C392.7135,-1193.0522 420.1593,-1107.0942 455,-1056 489.966,-1004.7221 550.034,-1056.2779 585,-1005 615.9232,-959.6509 639.8889,-881.5 585,-881.5"/>
<polygon fill="#000000" stroke="#000000" points="445.0362,-1202.6499 454.6175,-1207.9837 450.0181,-1203.075 455,-1203.5 455,-1203.5 455,-1203.5 450.0181,-1203.075 455.3825,-1199.0163 445.0362,-1202.6499 445.0362,-1202.6499"/>
<text text-anchor="start" x="7.1435" y="-1213.5" font-family="Arial" font-size="10.00" fill="#000000">FOREIGN KEY (comment_post_id, comment_user_id) REFERENCES comments (post_id, user_id)</text>
</g>
<!-- users -->
<g id="node7" class="node">
<title>users</title>
<polygon fill="#efefef" stroke="transparent" points="557,-222.5 557,-257.5 716,-257.5 716,-222.5 557,-222.5"/>
<polygon fill="none" stroke="#000000" points="557,-222.5 557,-257.5 716,-257.5 716,-222.5 557,-222.5"/>
<text text-anchor="start" x="565.8708" y="-235.3" font-family="Arial Bold" font-size="18.00" fill="#000000">users</text>
<text text-anchor="start" x="609.8754" y="-235.3" font-family="Arial" font-size="14.00" fill="#000000"> </text>
<text text-anchor="start" x="613.766" y="-235.3" font-family="Arial" font-size="14.00" fill="#666666">[BASE TABLE]</text>
<polygon fill="none" stroke="#000000" points="557,-192.5 557,-222.5 716,-222.5 716,-192.5 557,-192.5"/>
<text text-anchor="start" x="564" y="-203.9" font-family="Arial" font-size="14.00" fill="#000000">id </text>
<text text-anchor="start" x="578.7798" y="-203.9" font-family="Arial" font-size="14.00" fill="#666666">[int(11)]</text>
<polygon fill="none" stroke="#000000" points="557,-162.5 557,-192.5 716,-192.5 716,-162.5 557,-162.5"/>
<text text-anchor="start" x="563.7693" y="-173.9" font-family="Arial" font-size="14.00" fill="#000000">username </text>
<text text-anchor="start" x="629.8941" y="-173.9" font-family="Arial" font-size="14.00" fill="#666666">[varchar(50)]</text>
<polygon fill="none" stroke="#000000" points="557,-132.5 557,-162.5 716,-162.5 716,-132.5 557,-132.5"/>
<text text-anchor="start" x="564" y="-143.9" font-family="Arial" font-size="14.00" fill="#000000">password </text>
<text text-anchor="start" x="627.7882" y="-143.9" font-family="Arial" font-size="14.00" fill="#666666">[varchar(50)]</text>
<polygon fill="none" stroke="#000000" points="557,-102.5 557,-132.5 716,-132.5 716,-102.5 557,-102.5"/>
<text text-anchor="start" x="564" y="-113.9" font-family="Arial" font-size="14.00" fill="#000000">email </text>
<text text-anchor="start" x="601.3296" y="-113.9" font-family="Arial" font-size="14.00" fill="#666666">[varchar(355)]</text>
<polygon fill="none" stroke="#000000" points="557,-72.5 557,-102.5 716,-102.5 716,-72.5 557,-72.5"/>
<text text-anchor="start" x="564" y="-83.9" font-family="Arial" font-size="14.00" fill="#000000">created </text>
<text text-anchor="start" x="614.5722" y="-83.9" font-family="Arial" font-size="14.00" fill="#666666">[timestamp]</text>
<polygon fill="none" stroke="#000000" points="557,-42.5 557,-72.5 716,-72.5 716,-42.5 557,-42.5"/>
<text text-anchor="start" x="564" y="-53.9" font-family="Arial" font-size="14.00" fill="#000000">updated </text>
<text text-anchor="start" x="618.4768" y="-53.9" font-family="Arial" font-size="14.00" fill="#666666">[timestamp]</text>
</g>
<!-- comment_stars&#45;&gt;users -->
<g id="edge1" class="edge">
<title>comment_stars:comment_user_id&#45;&gt;users:id</title>
<path fill="none" stroke="#000000" d="M698.9801,-1172.4532C733.8876,-1163.8811 689.8718,-1104.3385 689,-1056 686.1183,-896.2179 609.0902,-482.5834 675,-337 685.0013,-314.9088 705.9987,-323.0912 716,-301 733.1388,-263.1434 757.5556,-207.5 716,-207.5"/>
<polygon fill="#000000" stroke="#000000" points="698.9454,-1172.4567 688.5305,-1169.0246 693.9727,-1172.9784 689,-1173.5 689,-1173.5 689,-1173.5 693.9727,-1172.9784 689.4695,-1177.9754 698.9454,-1172.4567 698.9454,-1172.4567"/>
<text text-anchor="start" x="695.6085" y="-1183.5" font-family="Arial" font-size="10.00" fill="#000000">FOREIGN KEY (comment_user_id) REFERENCES users (id)</text>
</g>
<!-- posts -->
<g id="node5" class="node">
<title>posts</title>
<polygon fill="#efefef" stroke="transparent" points="284,-589.5 284,-624.5 547,-624.5 547,-589.5 284,-589.5"/>
<polygon fill="none" stroke="#000000" points="284,-589.5 284,-624.5 547,-624.5 547,-589.5 284,-589.5"/>
<text text-anchor="start" x="345.3658" y="-602.3" font-family="Arial Bold" font-size="18.00" fill="#000000">posts</text>
<text text-anchor="start" x="388.3804" y="-602.3" font-family="Arial" font-size="14.00" fill="#000000"> </text>
<text text-anchor="start" x="392.271" y="-602.3" font-family="Arial" font-size="14.00" fill="#666666">[BASE TABLE]</text>
<polygon fill="none" stroke="#000000" points="284,-559.5 284,-589.5 547,-589.5 547,-559.5 284,-559.5"/>
<text text-anchor="start" x="291" y="-570.9" font-family="Arial" font-size="14.00" fill="#000000">id </text>
<text text-anchor="start" x="305.7798" y="-570.9" font-family="Arial" font-size="14.00" fill="#666666">[bigint(20)]</text>
<polygon fill="none" stroke="#000000" points="284,-529.5 284,-559.5 547,-559.5 547,-529.5 284,-529.5"/>
<text text-anchor="start" x="291" y="-540.9" font-family="Arial" font-size="14.00" fill="#000000">user_id </text>
<text text-anchor="start" x="340.7882" y="-540.9" font-family="Arial" font-size="14.00" fill="#666666">[int(11)]</text>
<polygon fill="none" stroke="#000000" points="284,-499.5 284,-529.5 547,-529.5 547,-499.5 284,-499.5"/>
<text text-anchor="start" x="291" y="-510.9" font-family="Arial" font-size="14.00" fill="#000000">title </text>
<text text-anchor="start" x="316.6676" y="-510.9" font-family="Arial" font-size="14.00" fill="#666666">[varchar(255)]</text>
<polygon fill="none" stroke="#000000" points="284,-469.5 284,-499.5 547,-499.5 547,-469.5 284,-469.5"/>
<text text-anchor="start" x="291" y="-480.9" font-family="Arial" font-size="14.00" fill="#000000">body </text>
<text text-anchor="start" x="325.2384" y="-480.9" font-family="Arial" font-size="14.00" fill="#666666">[text]</text>
<polygon fill="none" stroke="#000000" points="284,-439.5 284,-469.5 547,-469.5 547,-439.5 284,-439.5"/>
<text text-anchor="start" x="290.697" y="-450.9" font-family="Arial" font-size="14.00" fill="#000000">post_type </text>
<text text-anchor="start" x="355.2818" y="-450.9" font-family="Arial" font-size="14.00" fill="#666666">[enum(&#39;public&#39;,&#39;private&#39;,&#39;draft&#39;)]</text>
<polygon fill="none" stroke="#000000" points="284,-409.5 284,-439.5 547,-439.5 547,-409.5 284,-409.5"/>
<text text-anchor="start" x="291" y="-420.9" font-family="Arial" font-size="14.00" fill="#000000">created </text>
<text text-anchor="start" x="341.5722" y="-420.9" font-family="Arial" font-size="14.00" fill="#666666">[datetime]</text>
<polygon fill="none" stroke="#000000" points="284,-379.5 284,-409.5 547,-409.5 547,-379.5 284,-379.5"/>
<text text-anchor="start" x="291" y="-390.9" font-family="Arial" font-size="14.00" fill="#000000">updated </text>
<text text-anchor="start" x="345.4768" y="-390.9" font-family="Arial" font-size="14.00" fill="#666666">[datetime]</text>
</g>
<!-- comments&#45;&gt;posts -->
<g id="edge3" class="edge">
<title>comments:post_id&#45;&gt;posts:id</title>
<path fill="none" stroke="#000000" d="M381.0182,-880.8146C314.8254,-871.2084 344.0938,-762.9634 391,-704 435.298,-648.3152 502.702,-723.6848 547,-668 572.8705,-635.4795 588.5556,-574.5 547,-574.5"/>
<polygon fill="#000000" stroke="#000000" points="381.0235,-880.8148 390.6917,-885.9894 386.0117,-881.1574 391,-881.5 391,-881.5 391,-881.5 386.0117,-881.1574 391.3083,-877.0106 381.0235,-880.8148 381.0235,-880.8148"/>
<text text-anchor="start" x="159.495" y="-891.5" font-family="Arial" font-size="10.00" fill="#000000">FOREIGN KEY (post_id) REFERENCES posts (id)</text>
</g>
<!-- comments&#45;&gt;users -->
<g id="edge4" class="edge">
<title>comments:user_id&#45;&gt;users:id</title>
<path fill="none" stroke="#000000" d="M595.1104,-850.8948C660.473,-842.3952 595.2392,-746.0383 598,-668 603.2012,-520.9809 658.6732,-471.0166 598,-337 587.9987,-314.9088 567.0013,-323.0912 557,-301 539.8612,-263.1434 515.4444,-207.5 557,-207.5"/>
<polygon fill="#000000" stroke="#000000" points="594.9821,-850.9024 584.7311,-847.008 589.9911,-851.2012 585,-851.5 585,-851.5 585,-851.5 589.9911,-851.2012 585.2689,-855.992 594.9821,-850.9024 594.9821,-850.9024"/>
<text text-anchor="start" x="591.945" y="-861.5" font-family="Arial" font-size="10.00" fill="#000000">FOREIGN KEY (user_id) REFERENCES users (id)</text>
</g>
<!-- hyphen&#45;table -->
<g id="node3" class="node">
<title>hyphen&#45;table</title>
<polygon fill="#efefef" stroke="transparent" points="794,-1233.5 794,-1268.5 1009,-1268.5 1009,-1233.5 794,-1233.5"/>
<polygon fill="none" stroke="#000000" points="794,-1233.5 794,-1268.5 1009,-1268.5 1009,-1233.5 794,-1233.5"/>
<text text-anchor="start" x="800.854" y="-1246.3" font-family="Arial Bold" font-size="18.00" fill="#000000">hyphen&#45;table</text>
<text text-anchor="start" x="904.8922" y="-1246.3" font-family="Arial" font-size="14.00" fill="#000000"> </text>
<text text-anchor="start" x="908.7828" y="-1246.3" font-family="Arial" font-size="14.00" fill="#666666">[BASE TABLE]</text>
<polygon fill="none" stroke="#000000" points="794,-1203.5 794,-1233.5 1009,-1233.5 1009,-1203.5 794,-1203.5"/>
<text text-anchor="start" x="801" y="-1214.9" font-family="Arial" font-size="14.00" fill="#000000">id </text>
<text text-anchor="start" x="815.7798" y="-1214.9" font-family="Arial" font-size="14.00" fill="#666666">[bigint(20)]</text>
<polygon fill="none" stroke="#000000" points="794,-1173.5 794,-1203.5 1009,-1203.5 1009,-1173.5 794,-1173.5"/>
<text text-anchor="start" x="801" y="-1184.9" font-family="Arial" font-size="14.00" fill="#000000">hyphen&#45;column </text>
<text text-anchor="start" x="900.5792" y="-1184.9" font-family="Arial" font-size="14.00" fill="#666666">[text]</text>
<polygon fill="none" stroke="#000000" points="794,-1143.5 794,-1173.5 1009,-1173.5 1009,-1143.5 794,-1143.5"/>
<text text-anchor="start" x="801" y="-1154.9" font-family="Arial" font-size="14.00" fill="#000000">created </text>
<text text-anchor="start" x="851.5722" y="-1154.9" font-family="Arial" font-size="14.00" fill="#666666">[datetime]</text>
</g>
<!-- post_comments -->
<g id="node4" class="node">
<title>post_comments</title>
<polygon fill="#efefef" stroke="transparent" points="1113,-1293.5 1113,-1328.5 1302,-1328.5 1302,-1293.5 1113,-1293.5"/>
<polygon fill="none" stroke="#000000" points="1113,-1293.5 1113,-1328.5 1302,-1328.5 1302,-1293.5 1113,-1293.5"/>
<text text-anchor="start" x="1120.2619" y="-1306.3" font-family="Arial Bold" font-size="18.00" fill="#000000">post_comments</text>
<text text-anchor="start" x="1247.2879" y="-1306.3" font-family="Arial" font-size="14.00" fill="#000000"> </text>
<text text-anchor="start" x="1251.1785" y="-1306.3" font-family="Arial" font-size="14.00" fill="#666666">[VIEW]</text>
<polygon fill="none" stroke="#000000" points="1113,-1263.5 1113,-1293.5 1302,-1293.5 1302,-1263.5 1113,-1263.5"/>
<text text-anchor="start" x="1120" y="-1274.9" font-family="Arial" font-size="14.00" fill="#000000">id </text>
<text text-anchor="start" x="1134.7798" y="-1274.9" font-family="Arial" font-size="14.00" fill="#666666">[bigint(20)]</text>
<polygon fill="none" stroke="#000000" points="1113,-1233.5 1113,-1263.5 1302,-1263.5 1302,-1233.5 1113,-1233.5"/>
<text text-anchor="start" x="1120" y="-1244.9" font-family="Arial" font-size="14.00" fill="#000000">title </text>
<text text-anchor="start" x="1145.6676" y="-1244.9" font-family="Arial" font-size="14.00" fill="#666666">[varchar(255)]</text>
<polygon fill="none" stroke="#000000" points="1113,-1203.5 1113,-1233.5 1302,-1233.5 1302,-1203.5 1113,-1203.5"/>
<text text-anchor="start" x="1120" y="-1214.9" font-family="Arial" font-size="14.00" fill="#000000">post_user </text>
<text text-anchor="start" x="1185.3548" y="-1214.9" font-family="Arial" font-size="14.00" fill="#666666">[varchar(50)]</text>
<polygon fill="none" stroke="#000000" points="1113,-1173.5 1113,-1203.5 1302,-1203.5 1302,-1173.5 1113,-1173.5"/>
<text text-anchor="start" x="1120" y="-1184.9" font-family="Arial" font-size="14.00" fill="#000000">comment </text>
<text text-anchor="start" x="1181.4502" y="-1184.9" font-family="Arial" font-size="14.00" fill="#666666">[text]</text>
<polygon fill="none" stroke="#000000" points="1113,-1143.5 1113,-1173.5 1302,-1173.5 1302,-1143.5 1113,-1143.5"/>
<text text-anchor="start" x="1119.6024" y="-1154.9" font-family="Arial" font-size="14.00" fill="#000000">comment_user </text>
<text text-anchor="start" x="1216.061" y="-1154.9" font-family="Arial" font-size="14.00" fill="#666666">[varchar(50)]</text>
<polygon fill="none" stroke="#000000" points="1113,-1113.5 1113,-1143.5 1302,-1143.5 1302,-1113.5 1113,-1113.5"/>
<text text-anchor="start" x="1120" y="-1124.9" font-family="Arial" font-size="14.00" fill="#000000">created </text>
<text text-anchor="start" x="1170.5722" y="-1124.9" font-family="Arial" font-size="14.00" fill="#666666">[datetime]</text>
<polygon fill="none" stroke="#000000" points="1113,-1083.5 1113,-1113.5 1302,-1113.5 1302,-1083.5 1113,-1083.5"/>
<text text-anchor="start" x="1120" y="-1094.9" font-family="Arial" font-size="14.00" fill="#000000">updated </text>
<text text-anchor="start" x="1174.4768" y="-1094.9" font-family="Arial" font-size="14.00" fill="#666666">[datetime]</text>
</g>
<!-- posts&#45;&gt;users -->
<g id="edge5" class="edge">
<title>posts:user_id&#45;&gt;users:id</title>
<path fill="none" stroke="#000000" d="M554.5195,-537.4613C574.0586,-489.067 522.7584,-207.5 557,-207.5"/>
<polygon fill="#000000" stroke="#000000" points="554.3006,-537.6661 543.9248,-541.2147 550.6503,-541.0831 547,-544.5 547,-544.5 547,-544.5 550.6503,-541.0831 550.0752,-547.7853 554.3006,-537.6661 554.3006,-537.6661"/>
<text text-anchor="start" x="553.945" y="-554.5" font-family="Arial" font-size="10.00" fill="#000000">FOREIGN KEY (user_id) REFERENCES users (id)</text>
</g>
<!-- user_options -->
<g id="node6" class="node">
<title>user_options</title>
<polygon fill="#efefef" stroke="transparent" points="727,-544.5 727,-579.5 941,-579.5 941,-544.5 727,-544.5"/>
<polygon fill="none" stroke="#000000" points="727,-544.5 727,-579.5 941,-579.5 941,-544.5 727,-544.5"/>
<text text-anchor="start" x="733.8571" y="-557.3" font-family="Arial Bold" font-size="18.00" fill="#000000">user_options</text>
<text text-anchor="start" x="836.8891" y="-557.3" font-family="Arial" font-size="14.00" fill="#000000"> </text>
<text text-anchor="start" x="840.7797" y="-557.3" font-family="Arial" font-size="14.00" fill="#666666">[BASE TABLE]</text>
<polygon fill="none" stroke="#000000" points="727,-514.5 727,-544.5 941,-544.5 941,-514.5 727,-514.5"/>
<text text-anchor="start" x="734" y="-525.9" font-family="Arial" font-size="14.00" fill="#000000">user_id </text>
<text text-anchor="start" x="783.7882" y="-525.9" font-family="Arial" font-size="14.00" fill="#666666">[int(11)]</text>
<polygon fill="none" stroke="#000000" points="727,-484.5 727,-514.5 941,-514.5 941,-484.5 727,-484.5"/>
<text text-anchor="start" x="734" y="-495.9" font-family="Arial" font-size="14.00" fill="#000000">show_email </text>
<text text-anchor="start" x="811.784" y="-495.9" font-family="Arial" font-size="14.00" fill="#666666">[tinyint(1)]</text>
<polygon fill="none" stroke="#000000" points="727,-454.5 727,-484.5 941,-484.5 941,-454.5 727,-454.5"/>
<text text-anchor="start" x="734" y="-465.9" font-family="Arial" font-size="14.00" fill="#000000">created </text>
<text text-anchor="start" x="784.5722" y="-465.9" font-family="Arial" font-size="14.00" fill="#666666">[timestamp]</text>
<polygon fill="none" stroke="#000000" points="727,-424.5 727,-454.5 941,-454.5 941,-424.5 727,-424.5"/>
<text text-anchor="start" x="734" y="-435.9" font-family="Arial" font-size="14.00" fill="#000000">updated </text>
<text text-anchor="start" x="788.4768" y="-435.9" font-family="Arial" font-size="14.00" fill="#666666">[timestamp]</text>
</g>
<!-- user_options&#45;&gt;users -->
<g id="edge6" class="edge">
<title>user_options:user_id&#45;&gt;users:id</title>
<path fill="none" stroke="#000000" d="M716.8885,-528.8878C597.5202,-513.356 855.5588,-207.5 716,-207.5"/>
<polygon fill="#000000" stroke="#000000" points="717.0183,-528.8955 726.728,-533.9918 722.0091,-529.1978 727,-529.5 727,-529.5 727,-529.5 722.0091,-529.1978 727.272,-525.0082 717.0183,-528.8955 717.0183,-528.8955"/>
<text text-anchor="start" x="613.945" y="-513.5" font-family="Arial" font-size="10.00" fill="#000000">FOREIGN KEY (user_id) REFERENCES users (id)</text>
</g>
</g>
</svg>
