<?xml version="1.0" encoding="UTF-8" standalone="no"?>
<!DOCTYPE svg PUBLIC "-//W3C//DTD SVG 1.1//EN"
 "http://www.w3.org/Graphics/SVG/1.1/DTD/svg11.dtd">
<!-- Generated by graphviz version 12.1.2 (20240928.0832)
 -->
<!-- Title: testdb Pages: 1 -->
<svg width="2067pt" height="1436pt"
 viewBox="0.00 0.00 2067.28 1435.60" xmlns="http://www.w3.org/2000/svg" xmlns:xlink="http://www.w3.org/1999/xlink">
<g id="graph0" class="graph" transform="scale(1 1) rotate(0) translate(4 1431.6)">
<title>testdb</title>
<polygon fill="white" stroke="none" points="-4,4 -4,-1431.6 2063.28,-1431.6 2063.28,4 -4,4"/>
<!-- comment_stars -->
<g id="node1" class="node">
<title>comment_stars</title>
<polygon fill="#efefef" stroke="none" points="456.82,-1333.4 456.82,-1369 704.28,-1369 704.28,-1333.4 456.82,-1333.4"/>
<polygon fill="none" stroke="black" points="456.82,-1333.4 456.82,-1369 704.28,-1369 704.28,-1333.4 456.82,-1333.4"/>
<text text-anchor="start" x="463.82" y="-1346.8" font-family="Arial Bold" font-size="18.00">comment_stars</text>
<text text-anchor="start" x="572.79" y="-1346.8" font-family="Arial" font-size="14.00">    </text>
<text text-anchor="start" x="603.91" y="-1346.8" font-family="Arial" font-size="14.00" fill="#666666">[BASE TABLE]</text>
<polygon fill="none" stroke="black" points="456.82,-1302.6 456.82,-1333.4 704.28,-1333.4 704.28,-1302.6 456.82,-1302.6"/>
<text text-anchor="start" x="463.82" y="-1314.8" font-family="Arial" font-size="14.00">id    </text>
<text text-anchor="start" x="505.83" y="-1314.8" font-family="Arial" font-size="14.00" fill="#666666">[bigint]</text>
<polygon fill="none" stroke="black" points="456.82,-1271.8 456.82,-1302.6 704.28,-1302.6 704.28,-1271.8 456.82,-1271.8"/>
<text text-anchor="start" x="463.82" y="-1284" font-family="Arial" font-size="14.00">user_id    </text>
<text text-anchor="start" x="540.85" y="-1284" font-family="Arial" font-size="14.00" fill="#666666">[int]</text>
<polygon fill="none" stroke="black" points="456.82,-1241 456.82,-1271.8 704.28,-1271.8 704.28,-1241 456.82,-1241"/>
<text text-anchor="start" x="463.82" y="-1253.2" font-family="Arial" font-size="14.00">comment_post_id    </text>
<text text-anchor="start" x="605.44" y="-1253.2" font-family="Arial" font-size="14.00" fill="#666666">[bigint]</text>
<polygon fill="none" stroke="black" points="456.82,-1210.2 456.82,-1241 704.28,-1241 704.28,-1210.2 456.82,-1210.2"/>
<text text-anchor="start" x="463.82" y="-1222.4" font-family="Arial" font-size="14.00">comment_user_id    </text>
<text text-anchor="start" x="606.21" y="-1222.4" font-family="Arial" font-size="14.00" fill="#666666">[int]</text>
<polygon fill="none" stroke="black" points="456.82,-1179.4 456.82,-1210.2 704.28,-1210.2 704.28,-1179.4 456.82,-1179.4"/>
<text text-anchor="start" x="463.82" y="-1191.6" font-family="Arial" font-size="14.00">created    </text>
<text text-anchor="start" x="541.63" y="-1191.6" font-family="Arial" font-size="14.00" fill="#666666">[timestamp]</text>
<polygon fill="none" stroke="black" points="456.82,-1148.6 456.82,-1179.4 704.28,-1179.4 704.28,-1148.6 456.82,-1148.6"/>
<text text-anchor="start" x="463.82" y="-1160.8" font-family="Arial" font-size="14.00">updated    </text>
<text text-anchor="start" x="545.54" y="-1160.8" font-family="Arial" font-size="14.00" fill="#666666">[timestamp]</text>
</g>
<!-- comments -->
<g id="node2" class="node">
<title>comments</title>
<polygon fill="#efefef" stroke="none" points="386.31,-975.2 386.31,-1010.8 598.79,-1010.8 598.79,-975.2 386.31,-975.2"/>
<polygon fill="none" stroke="black" points="386.31,-975.2 386.31,-1010.8 598.79,-1010.8 598.79,-975.2 386.31,-975.2"/>
<text text-anchor="start" x="393.31" y="-988.6" font-family="Arial Bold" font-size="18.00">comments</text>
<text text-anchor="start" x="467.3" y="-988.6" font-family="Arial" font-size="14.00">    </text>
<text text-anchor="start" x="498.41" y="-988.6" font-family="Arial" font-size="14.00" fill="#666666">[BASE TABLE]</text>
<polygon fill="none" stroke="black" points="386.31,-944.4 386.31,-975.2 598.79,-975.2 598.79,-944.4 386.31,-944.4"/>
<text text-anchor="start" x="393.31" y="-956.6" font-family="Arial" font-size="14.00">id    </text>
<text text-anchor="start" x="435.32" y="-956.6" font-family="Arial" font-size="14.00" fill="#666666">[bigint]</text>
<polygon fill="none" stroke="black" points="386.31,-913.6 386.31,-944.4 598.79,-944.4 598.79,-913.6 386.31,-913.6"/>
<text text-anchor="start" x="393.31" y="-925.8" font-family="Arial" font-size="14.00">post_id    </text>
<text text-anchor="start" x="469.57" y="-925.8" font-family="Arial" font-size="14.00" fill="#666666">[bigint]</text>
<polygon fill="none" stroke="black" points="386.31,-882.8 386.31,-913.6 598.79,-913.6 598.79,-882.8 386.31,-882.8"/>
<text text-anchor="start" x="393.31" y="-895" font-family="Arial" font-size="14.00">user_id    </text>
<text text-anchor="start" x="470.35" y="-895" font-family="Arial" font-size="14.00" fill="#666666">[int]</text>
<polygon fill="none" stroke="black" points="386.31,-852 386.31,-882.8 598.79,-882.8 598.79,-852 386.31,-852"/>
<text text-anchor="start" x="393.31" y="-864.2" font-family="Arial" font-size="14.00">comment    </text>
<text text-anchor="start" x="482" y="-864.2" font-family="Arial" font-size="14.00" fill="#666666">[text]</text>
<polygon fill="none" stroke="black" points="386.31,-821.2 386.31,-852 598.79,-852 598.79,-821.2 386.31,-821.2"/>
<text text-anchor="start" x="393.31" y="-833.4" font-family="Arial" font-size="14.00">post_id_desc    </text>
<text text-anchor="start" x="506.93" y="-833.4" font-family="Arial" font-size="14.00" fill="#666666">[bigint]</text>
<polygon fill="none" stroke="black" points="386.31,-790.4 386.31,-821.2 598.79,-821.2 598.79,-790.4 386.31,-790.4"/>
<text text-anchor="start" x="393.31" y="-802.6" font-family="Arial" font-size="14.00">created    </text>
<text text-anchor="start" x="471.12" y="-802.6" font-family="Arial" font-size="14.00" fill="#666666">[datetime]</text>
<polygon fill="none" stroke="black" points="386.31,-759.6 386.31,-790.4 598.79,-790.4 598.79,-759.6 386.31,-759.6"/>
<text text-anchor="start" x="393.31" y="-771.8" font-family="Arial" font-size="14.00">updated    </text>
<text text-anchor="start" x="475.03" y="-771.8" font-family="Arial" font-size="14.00" fill="#666666">[datetime]</text>
</g>
<!-- comment_stars&#45;&gt;comments -->
<g id="edge2" class="edge">
<title>comment_stars:comment_post_id&#45;&gt;comments:post_id</title>
<path fill="none" stroke="black" d="M445.66,-1255.56C391.95,-1246 420.21,-1157.22 456.82,-1105.4 495.54,-1050.59 560.03,-1108.78 598.79,-1054 630.87,-1008.65 655.34,-929 599.79,-929"/>
<polygon fill="black" stroke="black" points="445.52,-1255.55 455.11,-1260.86 450.83,-1255.99 455.15,-1256.34 455.15,-1256.34 455.15,-1256.34 450.83,-1255.99 455.85,-1251.89 445.52,-1255.55"/>
<text text-anchor="start" x="7" y="-1266.4" font-family="Arial" font-size="10.00">FOREIGN KEY (comment_post_id, comment_user_id) REFERENCES comments (post_id, user_id)</text>
</g>
<!-- users -->
<g id="node8" class="node">
<title>users</title>
<polygon fill="#efefef" stroke="none" points="557.18,-228 557.18,-263.6 743.91,-263.6 743.91,-228 557.18,-228"/>
<polygon fill="none" stroke="black" points="557.18,-228 557.18,-263.6 743.91,-263.6 743.91,-228 557.18,-228"/>
<text text-anchor="start" x="569.81" y="-241.4" font-family="Arial Bold" font-size="18.00">users</text>
<text text-anchor="start" x="606.8" y="-241.4" font-family="Arial" font-size="14.00">    </text>
<text text-anchor="start" x="637.92" y="-241.4" font-family="Arial" font-size="14.00" fill="#666666">[BASE TABLE]</text>
<polygon fill="none" stroke="black" points="557.18,-197.2 557.18,-228 743.91,-228 743.91,-197.2 557.18,-197.2"/>
<text text-anchor="start" x="564.18" y="-209.4" font-family="Arial" font-size="14.00">id    </text>
<text text-anchor="start" x="606.2" y="-209.4" font-family="Arial" font-size="14.00" fill="#666666">[int]</text>
<polygon fill="none" stroke="black" points="557.18,-166.4 557.18,-197.2 743.91,-197.2 743.91,-166.4 557.18,-166.4"/>
<text text-anchor="start" x="564.18" y="-178.6" font-family="Arial" font-size="14.00">username    </text>
<text text-anchor="start" x="657.56" y="-178.6" font-family="Arial" font-size="14.00" fill="#666666">[varchar(50)]</text>
<polygon fill="none" stroke="black" points="557.18,-135.6 557.18,-166.4 743.91,-166.4 743.91,-135.6 557.18,-135.6"/>
<text text-anchor="start" x="564.18" y="-147.8" font-family="Arial" font-size="14.00">password    </text>
<text text-anchor="start" x="655.22" y="-147.8" font-family="Arial" font-size="14.00" fill="#666666">[varchar(50)]</text>
<polygon fill="none" stroke="black" points="557.18,-104.8 557.18,-135.6 743.91,-135.6 743.91,-104.8 557.18,-104.8"/>
<text text-anchor="start" x="564.18" y="-117" font-family="Arial" font-size="14.00">email    </text>
<text text-anchor="start" x="628.76" y="-117" font-family="Arial" font-size="14.00" fill="#666666">[varchar(355)]</text>
<polygon fill="none" stroke="black" points="557.18,-74 557.18,-104.8 743.91,-104.8 743.91,-74 557.18,-74"/>
<text text-anchor="start" x="564.18" y="-86.2" font-family="Arial" font-size="14.00">created    </text>
<text text-anchor="start" x="642" y="-86.2" font-family="Arial" font-size="14.00" fill="#666666">[timestamp]</text>
<polygon fill="none" stroke="black" points="557.18,-43.2 557.18,-74 743.91,-74 743.91,-43.2 557.18,-43.2"/>
<text text-anchor="start" x="564.18" y="-55.4" font-family="Arial" font-size="14.00">updated    </text>
<text text-anchor="start" x="645.91" y="-55.4" font-family="Arial" font-size="14.00" fill="#666666">[timestamp]</text>
</g>
<!-- comment_stars&#45;&gt;users -->
<g id="edge1" class="edge">
<title>comment_stars:comment_user_id&#45;&gt;users:id</title>
<path fill="none" stroke="black" d="M715.48,-1224.53C751.09,-1215.76 705.4,-1154.85 704.28,-1105.4 700.44,-935.94 607.71,-491.79 688.55,-342.8 702.55,-317 729.78,-332.52 743.91,-306.8 764.08,-270.11 786.78,-212.6 744.91,-212.6"/>
<polygon fill="black" stroke="black" points="715.56,-1224.52 705.14,-1221.09 710.25,-1225.08 705.95,-1225.53 705.95,-1225.53 705.95,-1225.53 710.25,-1225.08 706.08,-1230.04 715.56,-1224.52"/>
<text text-anchor="start" x="712.28" y="-1235.6" font-family="Arial" font-size="10.00">FOREIGN KEY (comment_user_id) REFERENCES users (id)</text>
</g>
<!-- posts -->
<g id="node6" class="node">
<title>posts</title>
<polygon fill="#efefef" stroke="none" points="272.36,-601.6 272.36,-637.2 560.74,-637.2 560.74,-601.6 272.36,-601.6"/>
<polygon fill="none" stroke="black" points="272.36,-601.6 272.36,-637.2 560.74,-637.2 560.74,-601.6 272.36,-601.6"/>
<text text-anchor="start" x="335.8" y="-615" font-family="Arial Bold" font-size="18.00">posts</text>
<text text-anchor="start" x="372.81" y="-615" font-family="Arial" font-size="14.00">    </text>
<text text-anchor="start" x="403.93" y="-615" font-family="Arial" font-size="14.00" fill="#666666">[BASE TABLE]</text>
<polygon fill="none" stroke="black" points="272.36,-570.8 272.36,-601.6 560.74,-601.6 560.74,-570.8 272.36,-570.8"/>
<text text-anchor="start" x="279.36" y="-583" font-family="Arial" font-size="14.00">id    </text>
<text text-anchor="start" x="321.37" y="-583" font-family="Arial" font-size="14.00" fill="#666666">[bigint]</text>
<polygon fill="none" stroke="black" points="272.36,-540 272.36,-570.8 560.74,-570.8 560.74,-540 272.36,-540"/>
<text text-anchor="start" x="279.36" y="-552.2" font-family="Arial" font-size="14.00">user_id    </text>
<text text-anchor="start" x="356.39" y="-552.2" font-family="Arial" font-size="14.00" fill="#666666">[int]</text>
<polygon fill="none" stroke="black" points="272.36,-509.2 272.36,-540 560.74,-540 560.74,-509.2 272.36,-509.2"/>
<text text-anchor="start" x="279.36" y="-521.4" font-family="Arial" font-size="14.00">title    </text>
<text text-anchor="start" x="332.26" y="-521.4" font-family="Arial" font-size="14.00" fill="#666666">[varchar(255)]</text>
<polygon fill="none" stroke="black" points="272.36,-478.4 272.36,-509.2 560.74,-509.2 560.74,-478.4 272.36,-478.4"/>
<text text-anchor="start" x="279.36" y="-490.6" font-family="Arial" font-size="14.00">body    </text>
<text text-anchor="start" x="340.83" y="-490.6" font-family="Arial" font-size="14.00" fill="#666666">[text]</text>
<polygon fill="none" stroke="black" points="272.36,-447.6 272.36,-478.4 560.74,-478.4 560.74,-447.6 272.36,-447.6"/>
<text text-anchor="start" x="279.36" y="-459.8" font-family="Arial" font-size="14.00">post_type    </text>
<text text-anchor="start" x="371.19" y="-459.8" font-family="Arial" font-size="14.00" fill="#666666">[enum(&#39;public&#39;,&#39;private&#39;,&#39;draft&#39;)]</text>
<polygon fill="none" stroke="black" points="272.36,-416.8 272.36,-447.6 560.74,-447.6 560.74,-416.8 272.36,-416.8"/>
<text text-anchor="start" x="279.36" y="-429" font-family="Arial" font-size="14.00">created    </text>
<text text-anchor="start" x="357.17" y="-429" font-family="Arial" font-size="14.00" fill="#666666">[datetime]</text>
<polygon fill="none" stroke="black" points="272.36,-386 272.36,-416.8 560.74,-416.8 560.74,-386 272.36,-386"/>
<text text-anchor="start" x="279.36" y="-398.2" font-family="Arial" font-size="14.00">updated    </text>
<text text-anchor="start" x="361.08" y="-398.2" font-family="Arial" font-size="14.00" fill="#666666">[datetime]</text>
</g>
<!-- comments&#45;&gt;posts -->
<g id="edge3" class="edge">
<title>comments:post_id&#45;&gt;posts:id</title>
<path fill="none" stroke="black" d="M375.32,-928.43C293.5,-918.74 328.68,-786.8 386.31,-716.4 436.45,-655.15 510.42,-741.5 560.74,-680.4 587.36,-648.08 603.61,-586.2 561.74,-586.2"/>
<polygon fill="black" stroke="black" points="374.99,-928.42 384.72,-933.47 380.32,-928.72 384.64,-928.96 384.64,-928.96 384.64,-928.96 380.32,-928.72 385.23,-924.49 374.99,-928.42"/>
<text text-anchor="start" x="153.26" y="-939" font-family="Arial" font-size="10.00">FOREIGN KEY (post_id) REFERENCES posts (id)</text>
</g>
<!-- comments&#45;&gt;users -->
<g id="edge4" class="edge">
<title>comments:user_id&#45;&gt;users:id</title>
<path fill="none" stroke="black" d="M607.1,-891.27C637.73,-831.6 646.36,-405.11 612.55,-342.8 598.55,-317 571.32,-332.52 557.18,-306.8 537.02,-270.11 514.31,-212.6 556.18,-212.6"/>
<polygon fill="black" stroke="black" points="607.29,-891.1 596.94,-894.7 603.42,-894.76 600.27,-897.74 600.27,-897.74 600.27,-897.74 603.42,-894.76 603.12,-901.24 607.29,-891.1"/>
<text text-anchor="start" x="606.79" y="-908.2" font-family="Arial" font-size="10.00">FOREIGN KEY (user_id) REFERENCES users (id)</text>
</g>
<!-- hyphen&#45;table -->
<g id="node3" class="node">
<title>hyphen&#45;table</title>
<polygon fill="#efefef" stroke="none" points="808.32,-1287.2 808.32,-1322.8 1040.78,-1322.8 1040.78,-1287.2 808.32,-1287.2"/>
<polygon fill="none" stroke="black" points="808.32,-1287.2 808.32,-1322.8 1040.78,-1322.8 1040.78,-1287.2 808.32,-1287.2"/>
<text text-anchor="start" x="815.32" y="-1300.6" font-family="Arial Bold" font-size="18.00">hyphen&#45;table</text>
<text text-anchor="start" x="909.29" y="-1300.6" font-family="Arial" font-size="14.00">    </text>
<text text-anchor="start" x="940.4" y="-1300.6" font-family="Arial" font-size="14.00" fill="#666666">[BASE TABLE]</text>
<polygon fill="none" stroke="black" points="808.32,-1256.4 808.32,-1287.2 1040.78,-1287.2 1040.78,-1256.4 808.32,-1256.4"/>
<text text-anchor="start" x="815.32" y="-1268.6" font-family="Arial" font-size="14.00">id    </text>
<text text-anchor="start" x="857.34" y="-1268.6" font-family="Arial" font-size="14.00" fill="#666666">[bigint]</text>
<polygon fill="none" stroke="black" points="808.32,-1225.6 808.32,-1256.4 1040.78,-1256.4 1040.78,-1225.6 808.32,-1225.6"/>
<text text-anchor="start" x="815.32" y="-1237.8" font-family="Arial" font-size="14.00">hyphen&#45;column    </text>
<text text-anchor="start" x="942.16" y="-1237.8" font-family="Arial" font-size="14.00" fill="#666666">[text]</text>
<polygon fill="none" stroke="black" points="808.32,-1194.8 808.32,-1225.6 1040.78,-1225.6 1040.78,-1194.8 808.32,-1194.8"/>
<text text-anchor="start" x="815.32" y="-1207" font-family="Arial" font-size="14.00">created    </text>
<text text-anchor="start" x="893.14" y="-1207" font-family="Arial" font-size="14.00" fill="#666666">[datetime]</text>
</g>
<!-- long_long_long_long_long_long_long_long_table_name -->
<g id="node4" class="node">
<title>long_long_long_long_long_long_long_long_table_name</title>
<polygon fill="#efefef" stroke="none" points="1144.82,-1271.8 1144.82,-1307.4 1694.28,-1307.4 1694.28,-1271.8 1144.82,-1271.8"/>
<polygon fill="none" stroke="black" points="1144.82,-1271.8 1144.82,-1307.4 1694.28,-1307.4 1694.28,-1271.8 1144.82,-1271.8"/>
<text text-anchor="start" x="1151.82" y="-1285.2" font-family="Arial Bold" font-size="18.00">long_long_long_long_long_long_long_long_table_name</text>
<text text-anchor="start" x="1562.79" y="-1285.2" font-family="Arial" font-size="14.00">    </text>
<text text-anchor="start" x="1593.91" y="-1285.2" font-family="Arial" font-size="14.00" fill="#666666">[BASE TABLE]</text>
<polygon fill="none" stroke="black" points="1144.82,-1241 1144.82,-1271.8 1694.28,-1271.8 1694.28,-1241 1144.82,-1241"/>
<text text-anchor="start" x="1151.82" y="-1253.2" font-family="Arial" font-size="14.00">id    </text>
<text text-anchor="start" x="1193.83" y="-1253.2" font-family="Arial" font-size="14.00" fill="#666666">[bigint]</text>
<polygon fill="none" stroke="black" points="1144.82,-1210.2 1144.82,-1241 1694.28,-1241 1694.28,-1210.2 1144.82,-1210.2"/>
<text text-anchor="start" x="1151.82" y="-1222.4" font-family="Arial" font-size="14.00">created    </text>
<text text-anchor="start" x="1229.63" y="-1222.4" font-family="Arial" font-size="14.00" fill="#666666">[datetime]</text>
</g>
<!-- post_comments -->
<g id="node5" class="node">
<title>post_comments</title>
<polygon fill="#efefef" stroke="none" points="1799.01,-1348.8 1799.01,-1384.4 2016.08,-1384.4 2016.08,-1348.8 1799.01,-1348.8"/>
<polygon fill="none" stroke="black" points="1799.01,-1348.8 1799.01,-1384.4 2016.08,-1384.4 2016.08,-1348.8 1799.01,-1348.8"/>
<text text-anchor="start" x="1813.71" y="-1362.2" font-family="Arial Bold" font-size="18.00">post_comments</text>
<text text-anchor="start" x="1926.71" y="-1362.2" font-family="Arial" font-size="14.00">    </text>
<text text-anchor="start" x="1957.82" y="-1362.2" font-family="Arial" font-size="14.00" fill="#666666">[VIEW]</text>
<polygon fill="none" stroke="black" points="1799.01,-1318 1799.01,-1348.8 2016.08,-1348.8 2016.08,-1318 1799.01,-1318"/>
<text text-anchor="start" x="1806.01" y="-1330.2" font-family="Arial" font-size="14.00">id    </text>
<text text-anchor="start" x="1848.03" y="-1330.2" font-family="Arial" font-size="14.00" fill="#666666">[bigint]</text>
<polygon fill="none" stroke="black" points="1799.01,-1287.2 1799.01,-1318 2016.08,-1318 2016.08,-1287.2 1799.01,-1287.2"/>
<text text-anchor="start" x="1806.01" y="-1299.4" font-family="Arial" font-size="14.00">title    </text>
<text text-anchor="start" x="1858.92" y="-1299.4" font-family="Arial" font-size="14.00" fill="#666666">[varchar(255)]</text>
<polygon fill="none" stroke="black" points="1799.01,-1256.4 1799.01,-1287.2 2016.08,-1287.2 2016.08,-1256.4 1799.01,-1256.4"/>
<text text-anchor="start" x="1806.01" y="-1268.6" font-family="Arial" font-size="14.00">post_user    </text>
<text text-anchor="start" x="1898.61" y="-1268.6" font-family="Arial" font-size="14.00" fill="#666666">[varchar(50)]</text>
<polygon fill="none" stroke="black" points="1799.01,-1225.6 1799.01,-1256.4 2016.08,-1256.4 2016.08,-1225.6 1799.01,-1225.6"/>
<text text-anchor="start" x="1806.01" y="-1237.8" font-family="Arial" font-size="14.00">comment    </text>
<text text-anchor="start" x="1894.7" y="-1237.8" font-family="Arial" font-size="14.00" fill="#666666">[text]</text>
<polygon fill="none" stroke="black" points="1799.01,-1194.8 1799.01,-1225.6 2016.08,-1225.6 2016.08,-1194.8 1799.01,-1194.8"/>
<text text-anchor="start" x="1806.01" y="-1207" font-family="Arial" font-size="14.00">comment_user    </text>
<text text-anchor="start" x="1929.72" y="-1207" font-family="Arial" font-size="14.00" fill="#666666">[varchar(50)]</text>
<polygon fill="none" stroke="black" points="1799.01,-1164 1799.01,-1194.8 2016.08,-1194.8 2016.08,-1164 1799.01,-1164"/>
<text text-anchor="start" x="1806.01" y="-1176.2" font-family="Arial" font-size="14.00">created    </text>
<text text-anchor="start" x="1883.83" y="-1176.2" font-family="Arial" font-size="14.00" fill="#666666">[datetime]</text>
<polygon fill="none" stroke="black" points="1799.01,-1133.2 1799.01,-1164 2016.08,-1164 2016.08,-1133.2 1799.01,-1133.2"/>
<text text-anchor="start" x="1806.01" y="-1145.4" font-family="Arial" font-size="14.00">updated    </text>
<text text-anchor="start" x="1887.74" y="-1145.4" font-family="Arial" font-size="14.00" fill="#666666">[datetime]</text>
</g>
<!-- posts&#45;&gt;users -->
<g id="edge5" class="edge">
<title>posts:user_id&#45;&gt;users:id</title>
<path fill="none" stroke="black" d="M572.03,-554.95C665.12,-546.25 563.01,-413.48 557.18,-306.8 554.9,-264.99 514.31,-212.6 556.18,-212.6"/>
<polygon fill="black" stroke="black" points="572.06,-554.95 561.88,-550.89 566.73,-555.18 562.41,-555.37 562.41,-555.37 562.41,-555.37 566.73,-555.18 562.27,-559.88 572.06,-554.95"/>
<text text-anchor="start" x="568.74" y="-565.4" font-family="Arial" font-size="10.00">FOREIGN KEY (user_id) REFERENCES users (id)</text>
</g>
<!-- user_options -->
<g id="node7" class="node">
<title>user_options</title>
<polygon fill="#efefef" stroke="none" points="740.31,-555.4 740.31,-591 970.79,-591 970.79,-555.4 740.31,-555.4"/>
<polygon fill="none" stroke="black" points="740.31,-555.4 740.31,-591 970.79,-591 970.79,-555.4 740.31,-555.4"/>
<text text-anchor="start" x="747.31" y="-568.8" font-family="Arial Bold" font-size="18.00">user_options</text>
<text text-anchor="start" x="839.3" y="-568.8" font-family="Arial" font-size="14.00">    </text>
<text text-anchor="start" x="870.42" y="-568.8" font-family="Arial" font-size="14.00" fill="#666666">[BASE TABLE]</text>
<polygon fill="none" stroke="black" points="740.31,-524.6 740.31,-555.4 970.79,-555.4 970.79,-524.6 740.31,-524.6"/>
<text text-anchor="start" x="747.31" y="-536.8" font-family="Arial" font-size="14.00">user_id    </text>
<text text-anchor="start" x="824.34" y="-536.8" font-family="Arial" font-size="14.00" fill="#666666">[int]</text>
<polygon fill="none" stroke="black" points="740.31,-493.8 740.31,-524.6 970.79,-524.6 970.79,-493.8 740.31,-493.8"/>
<text text-anchor="start" x="747.31" y="-506" font-family="Arial" font-size="14.00">show_email    </text>
<text text-anchor="start" x="852.35" y="-506" font-family="Arial" font-size="14.00" fill="#666666">[tinyint(1)]</text>
<polygon fill="none" stroke="black" points="740.31,-463 740.31,-493.8 970.79,-493.8 970.79,-463 740.31,-463"/>
<text text-anchor="start" x="747.31" y="-475.2" font-family="Arial" font-size="14.00">created    </text>
<text text-anchor="start" x="825.12" y="-475.2" font-family="Arial" font-size="14.00" fill="#666666">[timestamp]</text>
<polygon fill="none" stroke="black" points="740.31,-432.2 740.31,-463 970.79,-463 970.79,-432.2 740.31,-432.2"/>
<text text-anchor="start" x="747.31" y="-444.4" font-family="Arial" font-size="14.00">updated    </text>
<text text-anchor="start" x="829.03" y="-444.4" font-family="Arial" font-size="14.00" fill="#666666">[timestamp]</text>
</g>
<!-- user_options&#45;&gt;users -->
<g id="edge6" class="edge">
<title>user_options:user_id&#45;&gt;users:id</title>
<path fill="none" stroke="black" d="M729.06,-539.38C608.55,-523.59 886.75,-212.6 744.91,-212.6"/>
<polygon fill="black" stroke="black" points="728.99,-539.37 738.7,-544.47 734.32,-539.7 738.64,-539.96 738.64,-539.96 738.64,-539.96 734.32,-539.7 739.25,-535.49 728.99,-539.37"/>
<text text-anchor="start" x="626.23" y="-524" font-family="Arial" font-size="10.00">FOREIGN KEY (user_id) REFERENCES users (id)</text>
</g>
</g>
</svg>
