<?xml version="1.0" encoding="UTF-8" standalone="no"?>
<!DOCTYPE svg PUBLIC "-//W3C//DTD SVG 1.1//EN"
 "http://www.w3.org/Graphics/SVG/1.1/DTD/svg11.dtd">
<!-- Generated by graphviz version 12.1.2 (20240928.0832)
 -->
<!-- Title: users Pages: 1 -->
<svg width="1386pt" height="694pt"
 viewBox="0.00 0.00 1386.37 694.40" xmlns="http://www.w3.org/2000/svg" xmlns:xlink="http://www.w3.org/1999/xlink">
<g id="graph0" class="graph" transform="scale(1 1) rotate(0) translate(4 690.4)">
<title>users</title>
<polygon fill="white" stroke="none" points="-4,4 -4,-690.4 1382.37,-690.4 1382.37,4 -4,4"/>
<!-- users -->
<g id="node1" class="node">
<title>users</title>
<polygon fill="#efefef" stroke="none" points="590.19,-231 590.19,-266.6 765.67,-266.6 765.67,-231 590.19,-231"/>
<polygon fill="none" stroke="black" points="590.19,-231 590.19,-266.6 765.67,-266.6 765.67,-231 590.19,-231"/>
<text text-anchor="start" x="597.19" y="-244.4" font-family="Arial Bold" font-size="18.00">users</text>
<text text-anchor="start" x="634.18" y="-244.4" font-family="Arial" font-size="14.00">    </text>
<text text-anchor="start" x="665.3" y="-244.4" font-family="Arial" font-size="14.00" fill="#666666">[BASE TABLE]</text>
<polygon fill="none" stroke="black" points="590.19,-200.2 590.19,-231 765.67,-231 765.67,-200.2 590.19,-200.2"/>
<text text-anchor="start" x="597.19" y="-212.4" font-family="Arial" font-size="14.00">id </text>
<text text-anchor="start" x="611.98" y="-212.4" font-family="Arial" font-size="14.00" fill="#666666">[int]</text>
<polygon fill="none" stroke="black" points="590.19,-169.4 590.19,-200.2 765.67,-200.2 765.67,-169.4 590.19,-169.4"/>
<text text-anchor="start" x="597.19" y="-181.6" font-family="Arial" font-size="14.00">username </text>
<text text-anchor="start" x="663.34" y="-181.6" font-family="Arial" font-size="14.00" fill="#666666">[varchar(50)]</text>
<polygon fill="none" stroke="black" points="590.19,-138.6 590.19,-169.4 765.67,-169.4 765.67,-138.6 590.19,-138.6"/>
<text text-anchor="start" x="597.19" y="-150.8" font-family="Arial" font-size="14.00">password </text>
<text text-anchor="start" x="661" y="-150.8" font-family="Arial" font-size="14.00" fill="#666666">[varchar(50)]</text>
<polygon fill="none" stroke="black" points="590.19,-107.8 590.19,-138.6 765.67,-138.6 765.67,-107.8 590.19,-107.8"/>
<text text-anchor="start" x="597.19" y="-120" font-family="Arial" font-size="14.00">email </text>
<text text-anchor="start" x="634.54" y="-120" font-family="Arial" font-size="14.00" fill="#666666">[varchar(355)]</text>
<polygon fill="none" stroke="black" points="590.19,-77 590.19,-107.8 765.67,-107.8 765.67,-77 590.19,-77"/>
<text text-anchor="start" x="597.19" y="-89.2" font-family="Arial" font-size="14.00">created </text>
<text text-anchor="start" x="647.78" y="-89.2" font-family="Arial" font-size="14.00" fill="#666666">[timestamp]</text>
<polygon fill="none" stroke="black" points="590.19,-46.2 590.19,-77 765.67,-77 765.67,-46.2 590.19,-46.2"/>
<text text-anchor="start" x="597.19" y="-58.4" font-family="Arial" font-size="14.00">updated </text>
<text text-anchor="start" x="651.69" y="-58.4" font-family="Arial" font-size="14.00" fill="#666666">[timestamp]</text>
<polygon fill="none" stroke="black" stroke-width="3" points="588.69,-44.7 588.69,-268.1 767.17,-268.1 767.17,-44.7 588.69,-44.7"/>
</g>
<!-- comment_stars -->
<g id="node2" class="node">
<title>comment_stars</title>
<polygon fill="#efefef" stroke="none" points="43.2,-592.2 43.2,-627.8 290.66,-627.8 290.66,-592.2 43.2,-592.2"/>
<polygon fill="none" stroke="black" points="43.2,-592.2 43.2,-627.8 290.66,-627.8 290.66,-592.2 43.2,-592.2"/>
<text text-anchor="start" x="50.2" y="-605.6" font-family="Arial Bold" font-size="18.00">comment_stars</text>
<text text-anchor="start" x="159.18" y="-605.6" font-family="Arial" font-size="14.00">    </text>
<text text-anchor="start" x="190.29" y="-605.6" font-family="Arial" font-size="14.00" fill="#666666">[BASE TABLE]</text>
<polygon fill="none" stroke="black" points="43.2,-561.4 43.2,-592.2 290.66,-592.2 290.66,-561.4 43.2,-561.4"/>
<text text-anchor="start" x="50.2" y="-573.6" font-family="Arial" font-size="14.00">id    </text>
<text text-anchor="start" x="92.21" y="-573.6" font-family="Arial" font-size="14.00" fill="#666666">[bigint]</text>
<polygon fill="none" stroke="black" points="43.2,-530.6 43.2,-561.4 290.66,-561.4 290.66,-530.6 43.2,-530.6"/>
<text text-anchor="start" x="50.2" y="-542.8" font-family="Arial" font-size="14.00">user_id    </text>
<text text-anchor="start" x="127.23" y="-542.8" font-family="Arial" font-size="14.00" fill="#666666">[int]</text>
<polygon fill="none" stroke="black" points="43.2,-499.8 43.2,-530.6 290.66,-530.6 290.66,-499.8 43.2,-499.8"/>
<text text-anchor="start" x="50.2" y="-512" font-family="Arial" font-size="14.00">comment_post_id    </text>
<text text-anchor="start" x="191.82" y="-512" font-family="Arial" font-size="14.00" fill="#666666">[bigint]</text>
<polygon fill="none" stroke="black" points="43.2,-469 43.2,-499.8 290.66,-499.8 290.66,-469 43.2,-469"/>
<text text-anchor="start" x="50.2" y="-481.2" font-family="Arial" font-size="14.00">comment_user_id    </text>
<text text-anchor="start" x="192.59" y="-481.2" font-family="Arial" font-size="14.00" fill="#666666">[int]</text>
<polygon fill="none" stroke="black" points="43.2,-438.2 43.2,-469 290.66,-469 290.66,-438.2 43.2,-438.2"/>
<text text-anchor="start" x="50.2" y="-450.4" font-family="Arial" font-size="14.00">created    </text>
<text text-anchor="start" x="128.01" y="-450.4" font-family="Arial" font-size="14.00" fill="#666666">[timestamp]</text>
<polygon fill="none" stroke="black" points="43.2,-407.4 43.2,-438.2 290.66,-438.2 290.66,-407.4 43.2,-407.4"/>
<text text-anchor="start" x="50.2" y="-419.6" font-family="Arial" font-size="14.00">updated    </text>
<text text-anchor="start" x="131.92" y="-419.6" font-family="Arial" font-size="14.00" fill="#666666">[timestamp]</text>
</g>
<!-- comment_stars&#45;&gt;users -->
<g id="edge1" class="edge">
<title>comment_stars:comment_user_id&#45;&gt;users:id</title>
<path fill="none" stroke="black" d="M301.8,-483.53C349.92,-474.33 303.02,-394.47 342.93,-348.8 424.81,-255.1 464.76,-215.6 589.19,-215.6"/>
<polygon fill="black" stroke="black" points="301.96,-483.51 291.61,-479.89 296.65,-483.97 292.33,-484.34 292.33,-484.34 292.33,-484.34 296.65,-483.97 292.38,-488.85 301.96,-483.51"/>
<text text-anchor="start" x="155.24" y="-468.4" font-family="Arial" font-size="10.00">FOREIGN KEY (comment_user_id) REFERENCES users (id)</text>
</g>
<!-- comments -->
<g id="node3" class="node">
<title>comments</title>
<polygon fill="#efefef" stroke="none" points="394.69,-607.6 394.69,-643.2 607.17,-643.2 607.17,-607.6 394.69,-607.6"/>
<polygon fill="none" stroke="black" points="394.69,-607.6 394.69,-643.2 607.17,-643.2 607.17,-607.6 394.69,-607.6"/>
<text text-anchor="start" x="401.69" y="-621" font-family="Arial Bold" font-size="18.00">comments</text>
<text text-anchor="start" x="475.68" y="-621" font-family="Arial" font-size="14.00">    </text>
<text text-anchor="start" x="506.8" y="-621" font-family="Arial" font-size="14.00" fill="#666666">[BASE TABLE]</text>
<polygon fill="none" stroke="black" points="394.69,-576.8 394.69,-607.6 607.17,-607.6 607.17,-576.8 394.69,-576.8"/>
<text text-anchor="start" x="401.69" y="-589" font-family="Arial" font-size="14.00">id    </text>
<text text-anchor="start" x="443.71" y="-589" font-family="Arial" font-size="14.00" fill="#666666">[bigint]</text>
<polygon fill="none" stroke="black" points="394.69,-546 394.69,-576.8 607.17,-576.8 607.17,-546 394.69,-546"/>
<text text-anchor="start" x="401.69" y="-558.2" font-family="Arial" font-size="14.00">post_id    </text>
<text text-anchor="start" x="477.96" y="-558.2" font-family="Arial" font-size="14.00" fill="#666666">[bigint]</text>
<polygon fill="none" stroke="black" points="394.69,-515.2 394.69,-546 607.17,-546 607.17,-515.2 394.69,-515.2"/>
<text text-anchor="start" x="401.69" y="-527.4" font-family="Arial" font-size="14.00">user_id    </text>
<text text-anchor="start" x="478.73" y="-527.4" font-family="Arial" font-size="14.00" fill="#666666">[int]</text>
<polygon fill="none" stroke="black" points="394.69,-484.4 394.69,-515.2 607.17,-515.2 607.17,-484.4 394.69,-484.4"/>
<text text-anchor="start" x="401.69" y="-496.6" font-family="Arial" font-size="14.00">comment    </text>
<text text-anchor="start" x="490.38" y="-496.6" font-family="Arial" font-size="14.00" fill="#666666">[text]</text>
<polygon fill="none" stroke="black" points="394.69,-453.6 394.69,-484.4 607.17,-484.4 607.17,-453.6 394.69,-453.6"/>
<text text-anchor="start" x="401.69" y="-465.8" font-family="Arial" font-size="14.00">post_id_desc    </text>
<text text-anchor="start" x="515.31" y="-465.8" font-family="Arial" font-size="14.00" fill="#666666">[bigint]</text>
<polygon fill="none" stroke="black" points="394.69,-422.8 394.69,-453.6 607.17,-453.6 607.17,-422.8 394.69,-422.8"/>
<text text-anchor="start" x="401.69" y="-435" font-family="Arial" font-size="14.00">created    </text>
<text text-anchor="start" x="479.51" y="-435" font-family="Arial" font-size="14.00" fill="#666666">[datetime]</text>
<polygon fill="none" stroke="black" points="394.69,-392 394.69,-422.8 607.17,-422.8 607.17,-392 394.69,-392"/>
<text text-anchor="start" x="401.69" y="-404.2" font-family="Arial" font-size="14.00">updated    </text>
<text text-anchor="start" x="483.42" y="-404.2" font-family="Arial" font-size="14.00" fill="#666666">[datetime]</text>
</g>
<!-- comments&#45;&gt;users -->
<g id="edge2" class="edge">
<title>comments:user_id&#45;&gt;users:id</title>
<path fill="none" stroke="black" d="M618.2,-529.99C683.32,-521.39 624.24,-424.06 607.17,-348.8 603.26,-331.55 594.15,-330.04 590.19,-312.8 580.53,-270.69 545.99,-215.6 589.19,-215.6"/>
<polygon fill="black" stroke="black" points="618.49,-529.97 608.23,-526.09 613.16,-530.3 608.84,-530.56 608.84,-530.56 608.84,-530.56 613.16,-530.3 608.78,-535.07 618.49,-529.97"/>
<text text-anchor="start" x="615.17" y="-540.6" font-family="Arial" font-size="10.00">FOREIGN KEY (user_id) REFERENCES users (id)</text>
</g>
<!-- posts -->
<g id="node4" class="node">
<title>posts</title>
<polygon fill="#efefef" stroke="none" points="711.74,-607.6 711.74,-643.2 1000.12,-643.2 1000.12,-607.6 711.74,-607.6"/>
<polygon fill="none" stroke="black" points="711.74,-607.6 711.74,-643.2 1000.12,-643.2 1000.12,-607.6 711.74,-607.6"/>
<text text-anchor="start" x="775.18" y="-621" font-family="Arial Bold" font-size="18.00">posts</text>
<text text-anchor="start" x="812.19" y="-621" font-family="Arial" font-size="14.00">    </text>
<text text-anchor="start" x="843.31" y="-621" font-family="Arial" font-size="14.00" fill="#666666">[BASE TABLE]</text>
<polygon fill="none" stroke="black" points="711.74,-576.8 711.74,-607.6 1000.12,-607.6 1000.12,-576.8 711.74,-576.8"/>
<text text-anchor="start" x="718.74" y="-589" font-family="Arial" font-size="14.00">id    </text>
<text text-anchor="start" x="760.76" y="-589" font-family="Arial" font-size="14.00" fill="#666666">[bigint]</text>
<polygon fill="none" stroke="black" points="711.74,-546 711.74,-576.8 1000.12,-576.8 1000.12,-546 711.74,-546"/>
<text text-anchor="start" x="718.74" y="-558.2" font-family="Arial" font-size="14.00">user_id    </text>
<text text-anchor="start" x="795.78" y="-558.2" font-family="Arial" font-size="14.00" fill="#666666">[int]</text>
<polygon fill="none" stroke="black" points="711.74,-515.2 711.74,-546 1000.12,-546 1000.12,-515.2 711.74,-515.2"/>
<text text-anchor="start" x="718.74" y="-527.4" font-family="Arial" font-size="14.00">title    </text>
<text text-anchor="start" x="771.65" y="-527.4" font-family="Arial" font-size="14.00" fill="#666666">[varchar(255)]</text>
<polygon fill="none" stroke="black" points="711.74,-484.4 711.74,-515.2 1000.12,-515.2 1000.12,-484.4 711.74,-484.4"/>
<text text-anchor="start" x="718.74" y="-496.6" font-family="Arial" font-size="14.00">body    </text>
<text text-anchor="start" x="780.22" y="-496.6" font-family="Arial" font-size="14.00" fill="#666666">[text]</text>
<polygon fill="none" stroke="black" points="711.74,-453.6 711.74,-484.4 1000.12,-484.4 1000.12,-453.6 711.74,-453.6"/>
<text text-anchor="start" x="718.74" y="-465.8" font-family="Arial" font-size="14.00">post_type    </text>
<text text-anchor="start" x="810.57" y="-465.8" font-family="Arial" font-size="14.00" fill="#666666">[enum(&#39;public&#39;,&#39;private&#39;,&#39;draft&#39;)]</text>
<polygon fill="none" stroke="black" points="711.74,-422.8 711.74,-453.6 1000.12,-453.6 1000.12,-422.8 711.74,-422.8"/>
<text text-anchor="start" x="718.74" y="-435" font-family="Arial" font-size="14.00">created    </text>
<text text-anchor="start" x="796.56" y="-435" font-family="Arial" font-size="14.00" fill="#666666">[datetime]</text>
<polygon fill="none" stroke="black" points="711.74,-392 711.74,-422.8 1000.12,-422.8 1000.12,-392 711.74,-392"/>
<text text-anchor="start" x="718.74" y="-404.2" font-family="Arial" font-size="14.00">updated    </text>
<text text-anchor="start" x="800.47" y="-404.2" font-family="Arial" font-size="14.00" fill="#666666">[datetime]</text>
</g>
<!-- posts&#45;&gt;users -->
<g id="edge3" class="edge">
<title>posts:user_id&#45;&gt;users:id</title>
<path fill="none" stroke="black" d="M700.97,-558.41C667.52,-535.47 691.11,-387.16 711.74,-348.8 725.39,-323.42 751.95,-338.14 765.67,-312.8 786.24,-274.81 809.88,-215.6 766.67,-215.6"/>
<polygon fill="black" stroke="black" points="700.86,-558.38 709.11,-565.61 705.96,-559.94 710.1,-561.2 710.1,-561.2 710.1,-561.2 705.96,-559.94 711.74,-557 700.86,-558.38"/>
<text text-anchor="start" x="717.74" y="-571.4" font-family="Arial" font-size="10.00">FOREIGN KEY (user_id) REFERENCES users (id)</text>
</g>
<!-- user_options -->
<g id="node5" class="node">
<title>user_options</title>
<polygon fill="#efefef" stroke="none" points="1104.69,-561.4 1104.69,-597 1335.17,-597 1335.17,-561.4 1104.69,-561.4"/>
<polygon fill="none" stroke="black" points="1104.69,-561.4 1104.69,-597 1335.17,-597 1335.17,-561.4 1104.69,-561.4"/>
<text text-anchor="start" x="1111.69" y="-574.8" font-family="Arial Bold" font-size="18.00">user_options</text>
<text text-anchor="start" x="1203.69" y="-574.8" font-family="Arial" font-size="14.00">    </text>
<text text-anchor="start" x="1234.8" y="-574.8" font-family="Arial" font-size="14.00" fill="#666666">[BASE TABLE]</text>
<polygon fill="none" stroke="black" points="1104.69,-530.6 1104.69,-561.4 1335.17,-561.4 1335.17,-530.6 1104.69,-530.6"/>
<text text-anchor="start" x="1111.69" y="-542.8" font-family="Arial" font-size="14.00">user_id    </text>
<text text-anchor="start" x="1188.72" y="-542.8" font-family="Arial" font-size="14.00" fill="#666666">[int]</text>
<polygon fill="none" stroke="black" points="1104.69,-499.8 1104.69,-530.6 1335.17,-530.6 1335.17,-499.8 1104.69,-499.8"/>
<text text-anchor="start" x="1111.69" y="-512" font-family="Arial" font-size="14.00">show_email    </text>
<text text-anchor="start" x="1216.73" y="-512" font-family="Arial" font-size="14.00" fill="#666666">[tinyint(1)]</text>
<polygon fill="none" stroke="black" points="1104.69,-469 1104.69,-499.8 1335.17,-499.8 1335.17,-469 1104.69,-469"/>
<text text-anchor="start" x="1111.69" y="-481.2" font-family="Arial" font-size="14.00">created    </text>
<text text-anchor="start" x="1189.5" y="-481.2" font-family="Arial" font-size="14.00" fill="#666666">[timestamp]</text>
<polygon fill="none" stroke="black" points="1104.69,-438.2 1104.69,-469 1335.17,-469 1335.17,-438.2 1104.69,-438.2"/>
<text text-anchor="start" x="1111.69" y="-450.4" font-family="Arial" font-size="14.00">updated    </text>
<text text-anchor="start" x="1193.41" y="-450.4" font-family="Arial" font-size="14.00" fill="#666666">[timestamp]</text>
</g>
<!-- user_options&#45;&gt;users -->
<g id="edge4" class="edge">
<title>user_options:user_id&#45;&gt;users:id</title>
<path fill="none" stroke="black" d="M1093.46,-545.37C1020.77,-535.63 1107.6,-415.52 1051.93,-348.8 962.3,-241.36 906.6,-215.6 766.67,-215.6"/>
<polygon fill="black" stroke="black" points="1093.38,-545.36 1103.08,-550.47 1098.7,-545.69 1103.02,-545.96 1103.02,-545.96 1103.02,-545.96 1098.7,-545.69 1103.63,-541.49 1093.38,-545.36"/>
<text text-anchor="start" x="1050.65" y="-530" font-family="Arial" font-size="10.00">FOREIGN KEY (user_id) REFERENCES users (id)</text>
</g>
</g>
</svg>
