<?xml version="1.0" encoding="UTF-8" standalone="no"?>
<!DOCTYPE svg PUBLIC "-//W3C//DTD SVG 1.1//EN"
 "http://www.w3.org/Graphics/SVG/1.1/DTD/svg11.dtd">
<!-- Generated by graphviz version 12.1.2 (20240928.0832)
 -->
<!-- Title: access_log Pages: 1 -->
<svg width="303pt" height="167pt"
 viewBox="0.00 0.00 302.86 166.80" xmlns="http://www.w3.org/2000/svg" xmlns:xlink="http://www.w3.org/1999/xlink">
<g id="graph0" class="graph" transform="scale(1 1) rotate(0) translate(4 162.8)">
<title>access_log</title>
<polygon fill="white" stroke="none" points="-4,4 -4,-162.8 298.86,-162.8 298.86,4 -4,4"/>
<!-- access_log -->
<g id="node1" class="node">
<title>access_log</title>
<polygon fill="#efefef" stroke="none" points="46.2,-77 46.2,-112.6 248.66,-112.6 248.66,-77 46.2,-77"/>
<polygon fill="none" stroke="black" points="46.2,-77 46.2,-112.6 248.66,-112.6 248.66,-77 46.2,-77"/>
<text text-anchor="start" x="53.2" y="-90.4" font-family="Arial Bold" font-size="18.00">access_log</text>
<text text-anchor="start" x="131.17" y="-90.4" font-family="Arial" font-size="14.00">    </text>
<text text-anchor="start" x="162.28" y="-90.4" font-family="Arial" font-size="14.00" fill="#666666">[virtual table]</text>
<polygon fill="none" stroke="black" points="46.2,-46.2 46.2,-77 248.66,-77 248.66,-46.2 46.2,-46.2"/>
<text text-anchor="start" x="53.2" y="-58.4" font-family="Arial" font-size="14.00">logs </text>
<text text-anchor="start" x="82.77" y="-58.4" font-family="Arial" font-size="14.00" fill="#666666">[]</text>
<polygon fill="none" stroke="black" stroke-width="3" points="44.7,-44.7 44.7,-114.1 250.16,-114.1 250.16,-44.7 44.7,-44.7"/>
</g>
</g>
</svg>
