<?xml version="1.0" encoding="UTF-8" standalone="no"?>
<!DOCTYPE svg PUBLIC "-//W3C//DTD SVG 1.1//EN"
 "http://www.w3.org/Graphics/SVG/1.1/DTD/svg11.dtd">
<!-- Generated by graphviz version 2.40.1 (20161225.0304)
 -->
<!-- Title: check_constraints Pages: 1 -->
<svg width="330pt" height="315pt"
 viewBox="0.00 0.00 330.00 315.00" xmlns="http://www.w3.org/2000/svg" xmlns:xlink="http://www.w3.org/1999/xlink">
<g id="graph0" class="graph" transform="scale(1 1) rotate(0) translate(4 311)">
<title>check_constraints</title>
<polygon fill="#ffffff" stroke="transparent" points="-4,4 -4,-311 326,-311 326,4 -4,4"/>
<!-- check_constraints -->
<g id="node1" class="node">
<title>check_constraints</title>
<polygon fill="#efefef" stroke="transparent" points="46,-225.5 46,-260.5 276,-260.5 276,-225.5 46,-225.5"/>
<polygon fill="none" stroke="#000000" points="46,-225.5 46,-260.5 276,-260.5 276,-225.5 46,-225.5"/>
<text text-anchor="start" x="52.8174" y="-238.3" font-family="Arial Bold" font-size="18.00" fill="#000000">check_constraints</text>
<text text-anchor="start" x="196.8516" y="-238.3" font-family="Arial" font-size="14.00" fill="#000000">    </text>
<text text-anchor="start" x="231.0564" y="-238.3" font-family="Arial" font-size="14.00" fill="#666666">[table]</text>
<polygon fill="none" stroke="#000000" points="46,-195.5 46,-225.5 276,-225.5 276,-195.5 46,-195.5"/>
<text text-anchor="start" x="53" y="-206.9" font-family="Arial" font-size="14.00" fill="#000000">id </text>
<text text-anchor="start" x="67.7798" y="-206.9" font-family="Arial" font-size="14.00" fill="#666666">[INTEGER]</text>
<polygon fill="none" stroke="#000000" points="46,-165.5 46,-195.5 276,-195.5 276,-165.5 46,-165.5"/>
<text text-anchor="start" x="53" y="-176.9" font-family="Arial" font-size="14.00" fill="#000000">col </text>
<text text-anchor="start" x="74.7798" y="-176.9" font-family="Arial" font-size="14.00" fill="#666666">[TEXT]</text>
<polygon fill="none" stroke="#000000" points="46,-135.5 46,-165.5 276,-165.5 276,-135.5 46,-135.5"/>
<text text-anchor="start" x="53" y="-146.9" font-family="Arial" font-size="14.00" fill="#000000">brackets </text>
<text text-anchor="start" x="109.7896" y="-146.9" font-family="Arial" font-size="14.00" fill="#666666">[TEXT]</text>
<polygon fill="none" stroke="#000000" points="46,-105.5 46,-135.5 276,-135.5 276,-105.5 46,-105.5"/>
<text text-anchor="start" x="53" y="-116.9" font-family="Arial" font-size="14.00" fill="#000000">checkcheck </text>
<text text-anchor="start" x="130.021" y="-116.9" font-family="Arial" font-size="14.00" fill="#666666">[TEXT]</text>
<polygon fill="none" stroke="#000000" points="46,-75.5 46,-105.5 276,-105.5 276,-75.5 46,-75.5"/>
<text text-anchor="start" x="53" y="-86.9" font-family="Arial" font-size="14.00" fill="#000000">downcase </text>
<text text-anchor="start" x="119.9102" y="-86.9" font-family="Arial" font-size="14.00" fill="#666666">[TEXT]</text>
<polygon fill="none" stroke="#000000" points="46,-45.5 46,-75.5 276,-75.5 276,-45.5 46,-45.5"/>
<text text-anchor="start" x="53" y="-56.9" font-family="Arial" font-size="14.00" fill="#000000">nl </text>
<text text-anchor="start" x="67.7798" y="-56.9" font-family="Arial" font-size="14.00" fill="#666666">[TEXT]</text>
<polygon fill="none" stroke="#000000" stroke-width="3" points="44.5,-44.5 44.5,-262.5 277.5,-262.5 277.5,-44.5 44.5,-44.5"/>
</g>
</g>
</svg>
