<?xml version="1.0" encoding="UTF-8" standalone="no"?>
<!DOCTYPE svg PUBLIC "-//W3C//DTD SVG 1.1//EN"
 "http://www.w3.org/Graphics/SVG/1.1/DTD/svg11.dtd">
<!-- Generated by graphviz version 12.1.2 (20240928.0832)
 -->
<!-- Title: check_constraints Pages: 1 -->
<svg width="313pt" height="321pt"
 viewBox="0.00 0.00 312.61 320.80" xmlns="http://www.w3.org/2000/svg" xmlns:xlink="http://www.w3.org/1999/xlink">
<g id="graph0" class="graph" transform="scale(1 1) rotate(0) translate(4 316.8)">
<title>check_constraints</title>
<polygon fill="white" stroke="none" points="-4,4 -4,-316.8 308.61,-316.8 308.61,4 -4,4"/>
<!-- check_constraints -->
<g id="node1" class="node">
<title>check_constraints</title>
<polygon fill="#efefef" stroke="none" points="46.2,-231 46.2,-266.6 258.41,-266.6 258.41,-231 46.2,-231"/>
<polygon fill="none" stroke="black" points="46.2,-231 46.2,-266.6 258.41,-266.6 258.41,-231 46.2,-231"/>
<text text-anchor="start" x="53.2" y="-244.4" font-family="Arial Bold" font-size="18.00">check_constraints</text>
<text text-anchor="start" x="182.15" y="-244.4" font-family="Arial" font-size="14.00">    </text>
<text text-anchor="start" x="213.27" y="-244.4" font-family="Arial" font-size="14.00" fill="#666666">[table]</text>
<polygon fill="none" stroke="black" points="46.2,-200.2 46.2,-231 258.41,-231 258.41,-200.2 46.2,-200.2"/>
<text text-anchor="start" x="53.2" y="-212.4" font-family="Arial" font-size="14.00">id </text>
<text text-anchor="start" x="67.99" y="-212.4" font-family="Arial" font-size="14.00" fill="#666666">[INTEGER]</text>
<polygon fill="none" stroke="black" points="46.2,-169.4 46.2,-200.2 258.41,-200.2 258.41,-169.4 46.2,-169.4"/>
<text text-anchor="start" x="53.2" y="-181.6" font-family="Arial" font-size="14.00">col </text>
<text text-anchor="start" x="74.99" y="-181.6" font-family="Arial" font-size="14.00" fill="#666666">[TEXT]</text>
<polygon fill="none" stroke="black" points="46.2,-138.6 46.2,-169.4 258.41,-169.4 258.41,-138.6 46.2,-138.6"/>
<text text-anchor="start" x="53.2" y="-150.8" font-family="Arial" font-size="14.00">brackets </text>
<text text-anchor="start" x="110" y="-150.8" font-family="Arial" font-size="14.00" fill="#666666">[TEXT]</text>
<polygon fill="none" stroke="black" points="46.2,-107.8 46.2,-138.6 258.41,-138.6 258.41,-107.8 46.2,-107.8"/>
<text text-anchor="start" x="53.2" y="-120" font-family="Arial" font-size="14.00">checkcheck </text>
<text text-anchor="start" x="130.23" y="-120" font-family="Arial" font-size="14.00" fill="#666666">[TEXT]</text>
<polygon fill="none" stroke="black" points="46.2,-77 46.2,-107.8 258.41,-107.8 258.41,-77 46.2,-77"/>
<text text-anchor="start" x="53.2" y="-89.2" font-family="Arial" font-size="14.00">downcase </text>
<text text-anchor="start" x="120.13" y="-89.2" font-family="Arial" font-size="14.00" fill="#666666">[TEXT]</text>
<polygon fill="none" stroke="black" points="46.2,-46.2 46.2,-77 258.41,-77 258.41,-46.2 46.2,-46.2"/>
<text text-anchor="start" x="53.2" y="-58.4" font-family="Arial" font-size="14.00">nl </text>
<text text-anchor="start" x="67.99" y="-58.4" font-family="Arial" font-size="14.00" fill="#666666">[TEXT]</text>
<polygon fill="none" stroke="black" stroke-width="3" points="44.7,-44.7 44.7,-268.1 259.91,-268.1 259.91,-44.7 44.7,-44.7"/>
</g>
</g>
</svg>
