<?xml version="1.0" encoding="UTF-8" standalone="no"?>
<!DOCTYPE svg PUBLIC "-//W3C//DTD SVG 1.1//EN"
 "http://www.w3.org/Graphics/SVG/1.1/DTD/svg11.dtd">
<!-- Generated by graphviz version 2.40.1 (20161225.0304)
 -->
<!-- Title: comments Pages: 1 -->
<svg width="1438pt" height="1019pt"
 viewBox="0.00 0.00 1438.00 1019.00" xmlns="http://www.w3.org/2000/svg" xmlns:xlink="http://www.w3.org/1999/xlink">
<g id="graph0" class="graph" transform="scale(1 1) rotate(0) translate(4 1015)">
<title>comments</title>
<polygon fill="#ffffff" stroke="transparent" points="-4,4 -4,-1015 1434,-1015 1434,4 -4,4"/>
<!-- comments -->
<g id="node1" class="node">
<title>comments</title>
<polygon fill="#efefef" stroke="transparent" points="546,-562.5 546,-597.5 687,-597.5 687,-562.5 546,-562.5"/>
<polygon fill="none" stroke="#000000" points="546,-562.5 546,-597.5 687,-597.5 687,-562.5 546,-562.5"/>
<text text-anchor="start" x="553.989" y="-575.3" font-family="Arial Bold" font-size="18.00" fill="#000000">comments</text>
<text text-anchor="start" x="636.9942" y="-575.3" font-family="Arial" font-size="14.00" fill="#000000"> </text>
<text text-anchor="start" x="640.8848" y="-575.3" font-family="Arial" font-size="14.00" fill="#666666">[table]</text>
<polygon fill="none" stroke="#000000" points="546,-532.5 546,-562.5 687,-562.5 687,-532.5 546,-532.5"/>
<text text-anchor="start" x="553" y="-543.9" font-family="Arial" font-size="14.00" fill="#000000">id </text>
<text text-anchor="start" x="567.7798" y="-543.9" font-family="Arial" font-size="14.00" fill="#666666">[INTEGER]</text>
<polygon fill="none" stroke="#000000" points="546,-502.5 546,-532.5 687,-532.5 687,-502.5 546,-502.5"/>
<text text-anchor="start" x="553" y="-513.9" font-family="Arial" font-size="14.00" fill="#000000">post_id </text>
<text text-anchor="start" x="602.0182" y="-513.9" font-family="Arial" font-size="14.00" fill="#666666">[INTEGER]</text>
<polygon fill="none" stroke="#000000" points="546,-472.5 546,-502.5 687,-502.5 687,-472.5 546,-472.5"/>
<text text-anchor="start" x="553" y="-483.9" font-family="Arial" font-size="14.00" fill="#000000">user_id </text>
<text text-anchor="start" x="602.7882" y="-483.9" font-family="Arial" font-size="14.00" fill="#666666">[INTEGER]</text>
<polygon fill="none" stroke="#000000" points="546,-442.5 546,-472.5 687,-472.5 687,-442.5 546,-442.5"/>
<text text-anchor="start" x="553" y="-453.9" font-family="Arial" font-size="14.00" fill="#000000">comment </text>
<text text-anchor="start" x="614.4502" y="-453.9" font-family="Arial" font-size="14.00" fill="#666666">[TEXT]</text>
<polygon fill="none" stroke="#000000" points="546,-412.5 546,-442.5 687,-442.5 687,-412.5 546,-412.5"/>
<text text-anchor="start" x="553" y="-423.9" font-family="Arial" font-size="14.00" fill="#000000">created </text>
<text text-anchor="start" x="603.5722" y="-423.9" font-family="Arial" font-size="14.00" fill="#666666">[NUMERIC]</text>
<polygon fill="none" stroke="#000000" points="546,-382.5 546,-412.5 687,-412.5 687,-382.5 546,-382.5"/>
<text text-anchor="start" x="552.7139" y="-393.9" font-family="Arial" font-size="14.00" fill="#000000">updated </text>
<text text-anchor="start" x="607.1907" y="-393.9" font-family="Arial" font-size="14.00" fill="#666666">[NUMERIC]</text>
<polygon fill="none" stroke="#000000" stroke-width="3" points="544,-381.5 544,-599.5 688,-599.5 688,-381.5 544,-381.5"/>
</g>
<!-- posts -->
<g id="node3" class="node">
<title>posts</title>
<polygon fill="#efefef" stroke="transparent" points="424,-222.5 424,-257.5 565,-257.5 565,-222.5 424,-222.5"/>
<polygon fill="none" stroke="#000000" points="424,-222.5 424,-257.5 565,-257.5 565,-222.5 424,-222.5"/>
<text text-anchor="start" x="451.9843" y="-235.3" font-family="Arial Bold" font-size="18.00" fill="#000000">posts</text>
<text text-anchor="start" x="494.9989" y="-235.3" font-family="Arial" font-size="14.00" fill="#000000"> </text>
<text text-anchor="start" x="498.8895" y="-235.3" font-family="Arial" font-size="14.00" fill="#666666">[table]</text>
<polygon fill="none" stroke="#000000" points="424,-192.5 424,-222.5 565,-222.5 565,-192.5 424,-192.5"/>
<text text-anchor="start" x="431" y="-203.9" font-family="Arial" font-size="14.00" fill="#000000">id </text>
<text text-anchor="start" x="445.7798" y="-203.9" font-family="Arial" font-size="14.00" fill="#666666">[INTEGER]</text>
<polygon fill="none" stroke="#000000" points="424,-162.5 424,-192.5 565,-192.5 565,-162.5 424,-162.5"/>
<text text-anchor="start" x="431" y="-173.9" font-family="Arial" font-size="14.00" fill="#000000">user_id </text>
<text text-anchor="start" x="480.7882" y="-173.9" font-family="Arial" font-size="14.00" fill="#666666">[INTEGER]</text>
<polygon fill="none" stroke="#000000" points="424,-132.5 424,-162.5 565,-162.5 565,-132.5 424,-132.5"/>
<text text-anchor="start" x="431" y="-143.9" font-family="Arial" font-size="14.00" fill="#000000">title </text>
<text text-anchor="start" x="456.6676" y="-143.9" font-family="Arial" font-size="14.00" fill="#666666">[TEXT]</text>
<polygon fill="none" stroke="#000000" points="424,-102.5 424,-132.5 565,-132.5 565,-102.5 424,-102.5"/>
<text text-anchor="start" x="431" y="-113.9" font-family="Arial" font-size="14.00" fill="#000000">body </text>
<text text-anchor="start" x="465.2384" y="-113.9" font-family="Arial" font-size="14.00" fill="#666666">[TEXT]</text>
<polygon fill="none" stroke="#000000" points="424,-72.5 424,-102.5 565,-102.5 565,-72.5 424,-72.5"/>
<text text-anchor="start" x="431" y="-83.9" font-family="Arial" font-size="14.00" fill="#000000">created </text>
<text text-anchor="start" x="481.5722" y="-83.9" font-family="Arial" font-size="14.00" fill="#666666">[NUMERIC]</text>
<polygon fill="none" stroke="#000000" points="424,-42.5 424,-72.5 565,-72.5 565,-42.5 424,-42.5"/>
<text text-anchor="start" x="430.7139" y="-53.9" font-family="Arial" font-size="14.00" fill="#000000">updated </text>
<text text-anchor="start" x="485.1907" y="-53.9" font-family="Arial" font-size="14.00" fill="#666666">[NUMERIC]</text>
</g>
<!-- comments&#45;&gt;posts -->
<g id="edge2" class="edge">
<title>comments:post_id&#45;&gt;posts:id</title>
<path fill="none" stroke="#000000" d="M535.6304,-516.8366C471.3989,-507.9328 527.6161,-411.2189 546,-337 550.3498,-319.439 560.6502,-318.561 565,-301 574.9913,-260.6634 606.5556,-207.5 565,-207.5"/>
<polygon fill="#000000" stroke="#000000" points="536.0204,-516.8615 545.7127,-521.9908 541.0102,-517.1807 546,-517.5 546,-517.5 546,-517.5 541.0102,-517.1807 546.2873,-513.0092 536.0204,-516.8615 536.0204,-516.8615"/>
<text text-anchor="start" x="6.8905" y="-527.5" font-family="Arial" font-size="10.00" fill="#000000">FOREIGN KEY (post_id) REFERENCES posts (id) ON UPDATE NO ACTION ON DELETE NO ACTION MATCH NONE</text>
</g>
<!-- users -->
<g id="node5" class="node">
<title>users</title>
<polygon fill="#efefef" stroke="transparent" points="669,-222.5 669,-257.5 810,-257.5 810,-222.5 669,-222.5"/>
<polygon fill="none" stroke="#000000" points="669,-222.5 669,-257.5 810,-257.5 810,-222.5 669,-222.5"/>
<text text-anchor="start" x="696.4893" y="-235.3" font-family="Arial Bold" font-size="18.00" fill="#000000">users</text>
<text text-anchor="start" x="740.4939" y="-235.3" font-family="Arial" font-size="14.00" fill="#000000"> </text>
<text text-anchor="start" x="744.3845" y="-235.3" font-family="Arial" font-size="14.00" fill="#666666">[table]</text>
<polygon fill="none" stroke="#000000" points="669,-192.5 669,-222.5 810,-222.5 810,-192.5 669,-192.5"/>
<text text-anchor="start" x="676" y="-203.9" font-family="Arial" font-size="14.00" fill="#000000">id </text>
<text text-anchor="start" x="690.7798" y="-203.9" font-family="Arial" font-size="14.00" fill="#666666">[INTEGER]</text>
<polygon fill="none" stroke="#000000" points="669,-162.5 669,-192.5 810,-192.5 810,-162.5 669,-162.5"/>
<text text-anchor="start" x="676" y="-173.9" font-family="Arial" font-size="14.00" fill="#000000">username </text>
<text text-anchor="start" x="742.1248" y="-173.9" font-family="Arial" font-size="14.00" fill="#666666">[TEXT]</text>
<polygon fill="none" stroke="#000000" points="669,-132.5 669,-162.5 810,-162.5 810,-132.5 669,-132.5"/>
<text text-anchor="start" x="676" y="-143.9" font-family="Arial" font-size="14.00" fill="#000000">password </text>
<text text-anchor="start" x="739.7882" y="-143.9" font-family="Arial" font-size="14.00" fill="#666666">[TEXT]</text>
<polygon fill="none" stroke="#000000" points="669,-102.5 669,-132.5 810,-132.5 810,-102.5 669,-102.5"/>
<text text-anchor="start" x="676" y="-113.9" font-family="Arial" font-size="14.00" fill="#000000">email </text>
<text text-anchor="start" x="713.3296" y="-113.9" font-family="Arial" font-size="14.00" fill="#666666">[TEXT]</text>
<polygon fill="none" stroke="#000000" points="669,-72.5 669,-102.5 810,-102.5 810,-72.5 669,-72.5"/>
<text text-anchor="start" x="676" y="-83.9" font-family="Arial" font-size="14.00" fill="#000000">created </text>
<text text-anchor="start" x="726.5722" y="-83.9" font-family="Arial" font-size="14.00" fill="#666666">[NUMERIC]</text>
<polygon fill="none" stroke="#000000" points="669,-42.5 669,-72.5 810,-72.5 810,-42.5 669,-42.5"/>
<text text-anchor="start" x="675.7139" y="-53.9" font-family="Arial" font-size="14.00" fill="#000000">updated </text>
<text text-anchor="start" x="730.1907" y="-53.9" font-family="Arial" font-size="14.00" fill="#666666">[NUMERIC]</text>
</g>
<!-- comments&#45;&gt;users -->
<g id="edge4" class="edge">
<title>comments:user_id&#45;&gt;users:id</title>
<path fill="none" stroke="#000000" d="M697.2543,-486.6973C748.1685,-477.8909 701.4975,-398.4123 687,-337 682.8901,-319.59 673.1099,-318.41 669,-301 659.4525,-260.5561 627.4444,-207.5 669,-207.5"/>
<polygon fill="#000000" stroke="#000000" points="696.9695,-486.7195 686.6488,-483.0137 691.9848,-487.1097 687,-487.5 687,-487.5 687,-487.5 691.9848,-487.1097 687.3512,-491.9863 696.9695,-486.7195 696.9695,-486.7195"/>
<text text-anchor="start" x="694.3405" y="-497.5" font-family="Arial" font-size="10.00" fill="#000000">FOREIGN KEY (user_id) REFERENCES users (id) ON UPDATE NO ACTION ON DELETE NO ACTION MATCH NONE</text>
</g>
<!-- logs -->
<g id="node2" class="node">
<title>logs</title>
<polygon fill="#efefef" stroke="transparent" points="369,-932.5 369,-967.5 564,-967.5 564,-932.5 369,-932.5"/>
<polygon fill="none" stroke="#000000" points="369,-932.5 369,-967.5 564,-967.5 564,-932.5 369,-932.5"/>
<text text-anchor="start" x="428.9883" y="-945.3" font-family="Arial Bold" font-size="18.00" fill="#000000">logs</text>
<text text-anchor="start" x="461.9949" y="-945.3" font-family="Arial" font-size="14.00" fill="#000000"> </text>
<text text-anchor="start" x="465.8855" y="-945.3" font-family="Arial" font-size="14.00" fill="#666666">[table]</text>
<polygon fill="none" stroke="#000000" points="369,-902.5 369,-932.5 564,-932.5 564,-902.5 369,-902.5"/>
<text text-anchor="start" x="376" y="-913.9" font-family="Arial" font-size="14.00" fill="#000000">id </text>
<text text-anchor="start" x="390.7798" y="-913.9" font-family="Arial" font-size="14.00" fill="#666666">[INTEGER]</text>
<polygon fill="none" stroke="#000000" points="369,-872.5 369,-902.5 564,-902.5 564,-872.5 369,-872.5"/>
<text text-anchor="start" x="376" y="-883.9" font-family="Arial" font-size="14.00" fill="#000000">user_id </text>
<text text-anchor="start" x="425.7882" y="-883.9" font-family="Arial" font-size="14.00" fill="#666666">[INTEGER]</text>
<polygon fill="none" stroke="#000000" points="369,-842.5 369,-872.5 564,-872.5 564,-842.5 369,-842.5"/>
<text text-anchor="start" x="376" y="-853.9" font-family="Arial" font-size="14.00" fill="#000000">post_id </text>
<text text-anchor="start" x="425.0182" y="-853.9" font-family="Arial" font-size="14.00" fill="#666666">[INTEGER]</text>
<polygon fill="none" stroke="#000000" points="369,-812.5 369,-842.5 564,-842.5 564,-812.5 369,-812.5"/>
<text text-anchor="start" x="376" y="-823.9" font-family="Arial" font-size="14.00" fill="#000000">comment_id </text>
<text text-anchor="start" x="456.122" y="-823.9" font-family="Arial" font-size="14.00" fill="#666666">[INTEGER]</text>
<polygon fill="none" stroke="#000000" points="369,-782.5 369,-812.5 564,-812.5 564,-782.5 369,-782.5"/>
<text text-anchor="start" x="375.8801" y="-793.9" font-family="Arial" font-size="14.00" fill="#000000">comment_star_id </text>
<text text-anchor="start" x="487.1185" y="-793.9" font-family="Arial" font-size="14.00" fill="#666666">[INTEGER]</text>
<polygon fill="none" stroke="#000000" points="369,-752.5 369,-782.5 564,-782.5 564,-752.5 369,-752.5"/>
<text text-anchor="start" x="376" y="-763.9" font-family="Arial" font-size="14.00" fill="#000000">payload </text>
<text text-anchor="start" x="428.9102" y="-763.9" font-family="Arial" font-size="14.00" fill="#666666">[TEXT]</text>
<polygon fill="none" stroke="#000000" points="369,-722.5 369,-752.5 564,-752.5 564,-722.5 369,-722.5"/>
<text text-anchor="start" x="376" y="-733.9" font-family="Arial" font-size="14.00" fill="#000000">created </text>
<text text-anchor="start" x="426.5722" y="-733.9" font-family="Arial" font-size="14.00" fill="#666666">[NUMERIC]</text>
</g>
<!-- logs&#45;&gt;comments -->
<g id="edge1" class="edge">
<title>logs:comment_id&#45;&gt;comments:id</title>
<path fill="none" stroke="#000000" stroke-dasharray="5,2" d="M574.0499,-826.7133C623.9492,-818.0824 578.2085,-740.1881 564,-680 559.8901,-662.59 550.1099,-661.41 546,-644 536.1462,-602.2584 503.1111,-547.5 546,-547.5"/>
<polygon fill="#000000" stroke="#000000" points="573.9695,-826.7195 563.6488,-823.0137 568.9848,-827.1097 564,-827.5 564,-827.5 564,-827.5 568.9848,-827.1097 564.3512,-831.9863 573.9695,-826.7195 573.9695,-826.7195"/>
<text text-anchor="start" x="571.3245" y="-837.5" font-family="Arial" font-size="10.00" fill="#000000">Additional Relation</text>
</g>
<!-- comment_stars -->
<g id="node4" class="node">
<title>comment_stars</title>
<polygon fill="#efefef" stroke="transparent" points="668,-917.5 668,-952.5 867,-952.5 867,-917.5 668,-917.5"/>
<polygon fill="none" stroke="#000000" points="668,-917.5 668,-952.5 867,-952.5 867,-917.5 668,-917.5"/>
<text text-anchor="start" x="684.9856" y="-930.3" font-family="Arial Bold" font-size="18.00" fill="#000000">comment_stars</text>
<text text-anchor="start" x="807.9976" y="-930.3" font-family="Arial" font-size="14.00" fill="#000000"> </text>
<text text-anchor="start" x="811.8882" y="-930.3" font-family="Arial" font-size="14.00" fill="#666666">[table]</text>
<polygon fill="none" stroke="#000000" points="668,-887.5 668,-917.5 867,-917.5 867,-887.5 668,-887.5"/>
<text text-anchor="start" x="675" y="-898.9" font-family="Arial" font-size="14.00" fill="#000000">id </text>
<text text-anchor="start" x="689.7798" y="-898.9" font-family="Arial" font-size="14.00" fill="#666666">[INTEGER]</text>
<polygon fill="none" stroke="#000000" points="668,-857.5 668,-887.5 867,-887.5 867,-857.5 668,-857.5"/>
<text text-anchor="start" x="675" y="-868.9" font-family="Arial" font-size="14.00" fill="#000000">user_id </text>
<text text-anchor="start" x="724.7882" y="-868.9" font-family="Arial" font-size="14.00" fill="#666666">[INTEGER]</text>
<polygon fill="none" stroke="#000000" points="668,-827.5 668,-857.5 867,-857.5 867,-827.5 668,-827.5"/>
<text text-anchor="start" x="675" y="-838.9" font-family="Arial" font-size="14.00" fill="#000000">comment_post_id </text>
<text text-anchor="start" x="789.3604" y="-838.9" font-family="Arial" font-size="14.00" fill="#666666">[INTEGER]</text>
<polygon fill="none" stroke="#000000" points="668,-797.5 668,-827.5 867,-827.5 867,-797.5 668,-797.5"/>
<text text-anchor="start" x="674.9341" y="-808.9" font-family="Arial" font-size="14.00" fill="#000000">comment_user_id </text>
<text text-anchor="start" x="790.0645" y="-808.9" font-family="Arial" font-size="14.00" fill="#666666">[INTEGER]</text>
<polygon fill="none" stroke="#000000" points="668,-767.5 668,-797.5 867,-797.5 867,-767.5 668,-767.5"/>
<text text-anchor="start" x="675" y="-778.9" font-family="Arial" font-size="14.00" fill="#000000">created </text>
<text text-anchor="start" x="725.5722" y="-778.9" font-family="Arial" font-size="14.00" fill="#666666">[NUMERIC]</text>
<polygon fill="none" stroke="#000000" points="668,-737.5 668,-767.5 867,-767.5 867,-737.5 668,-737.5"/>
<text text-anchor="start" x="675" y="-748.9" font-family="Arial" font-size="14.00" fill="#000000">updated </text>
<text text-anchor="start" x="729.4768" y="-748.9" font-family="Arial" font-size="14.00" fill="#666666">[NUMERIC]</text>
</g>
<!-- comment_stars&#45;&gt;comments -->
<g id="edge3" class="edge">
<title>comment_stars:comment_post_id&#45;&gt;comments:post_id</title>
<path fill="none" stroke="#000000" d="M657.9812,-841.7198C608.4178,-833.1587 657.0312,-755.8619 668,-695 672.2902,-671.195 682.7098,-667.805 687,-644 696.9719,-588.6692 743.2222,-517.5 687,-517.5"/>
<polygon fill="#000000" stroke="#000000" points="658.0302,-841.7235 667.6506,-846.9864 663.0151,-842.1117 668,-842.5 668,-842.5 668,-842.5 663.0151,-842.1117 668.3494,-838.0136 658.0302,-841.7235 658.0302,-841.7235"/>
<text text-anchor="start" x="674.539" y="-852.5" font-family="Arial" font-size="10.00" fill="#000000">FOREIGN KEY (comment_post_id, comment_user_id) REFERENCES comments (post_id, user_id) ON UPDATE NO ACTION ON DELETE NO ACTION MATCH NONE</text>
</g>
</g>
</svg>
