<?xml version="1.0" encoding="UTF-8" standalone="no"?>
<!DOCTYPE svg PUBLIC "-//W3C//DTD SVG 1.1//EN"
 "http://www.w3.org/Graphics/SVG/1.1/DTD/svg11.dtd">
<!-- Generated by graphviz version 2.40.1 (20161225.0304)
 -->
<!-- Title: comment_stars Pages: 1 -->
<svg width="1572pt" height="1019pt"
 viewBox="0.00 0.00 1572.00 1019.00" xmlns="http://www.w3.org/2000/svg" xmlns:xlink="http://www.w3.org/1999/xlink">
<g id="graph0" class="graph" transform="scale(1 1) rotate(0) translate(4 1015)">
<title>comment_stars</title>
<polygon fill="#ffffff" stroke="transparent" points="-4,4 -4,-1015 1568,-1015 1568,4 -4,4"/>
<!-- comment_stars -->
<g id="node1" class="node">
<title>comment_stars</title>
<polygon fill="#efefef" stroke="transparent" points="762,-562.5 762,-597.5 971,-597.5 971,-562.5 762,-562.5"/>
<polygon fill="none" stroke="#000000" points="762,-562.5 762,-597.5 971,-597.5 971,-562.5 762,-562.5"/>
<text text-anchor="start" x="768.8285" y="-575.3" font-family="Arial Bold" font-size="18.00" fill="#000000">comment_stars</text>
<text text-anchor="start" x="891.8405" y="-575.3" font-family="Arial" font-size="14.00" fill="#000000">    </text>
<text text-anchor="start" x="926.0453" y="-575.3" font-family="Arial" font-size="14.00" fill="#666666">[table]</text>
<polygon fill="none" stroke="#000000" points="762,-532.5 762,-562.5 971,-562.5 971,-532.5 762,-532.5"/>
<text text-anchor="start" x="769" y="-543.9" font-family="Arial" font-size="14.00" fill="#000000">id </text>
<text text-anchor="start" x="783.7798" y="-543.9" font-family="Arial" font-size="14.00" fill="#666666">[INTEGER]</text>
<polygon fill="none" stroke="#000000" points="762,-502.5 762,-532.5 971,-532.5 971,-502.5 762,-502.5"/>
<text text-anchor="start" x="769" y="-513.9" font-family="Arial" font-size="14.00" fill="#000000">user_id </text>
<text text-anchor="start" x="818.7882" y="-513.9" font-family="Arial" font-size="14.00" fill="#666666">[INTEGER]</text>
<polygon fill="none" stroke="#000000" points="762,-472.5 762,-502.5 971,-502.5 971,-472.5 762,-472.5"/>
<text text-anchor="start" x="769" y="-483.9" font-family="Arial" font-size="14.00" fill="#000000">comment_post_id </text>
<text text-anchor="start" x="883.3604" y="-483.9" font-family="Arial" font-size="14.00" fill="#666666">[INTEGER]</text>
<polygon fill="none" stroke="#000000" points="762,-442.5 762,-472.5 971,-472.5 971,-442.5 762,-442.5"/>
<text text-anchor="start" x="769" y="-453.9" font-family="Arial" font-size="14.00" fill="#000000">comment_user_id </text>
<text text-anchor="start" x="884.1304" y="-453.9" font-family="Arial" font-size="14.00" fill="#666666">[INTEGER]</text>
<polygon fill="none" stroke="#000000" points="762,-412.5 762,-442.5 971,-442.5 971,-412.5 762,-412.5"/>
<text text-anchor="start" x="769" y="-423.9" font-family="Arial" font-size="14.00" fill="#000000">created </text>
<text text-anchor="start" x="819.5722" y="-423.9" font-family="Arial" font-size="14.00" fill="#666666">[NUMERIC]</text>
<polygon fill="none" stroke="#000000" points="762,-382.5 762,-412.5 971,-412.5 971,-382.5 762,-382.5"/>
<text text-anchor="start" x="769" y="-393.9" font-family="Arial" font-size="14.00" fill="#000000">updated </text>
<text text-anchor="start" x="823.4768" y="-393.9" font-family="Arial" font-size="14.00" fill="#666666">[NUMERIC]</text>
<polygon fill="none" stroke="#000000" stroke-width="3" points="760,-381.5 760,-599.5 972,-599.5 972,-381.5 760,-381.5"/>
</g>
<!-- comments -->
<g id="node3" class="node">
<title>comments</title>
<polygon fill="#efefef" stroke="transparent" points="644,-222.5 644,-257.5 815,-257.5 815,-222.5 644,-222.5"/>
<polygon fill="none" stroke="#000000" points="644,-222.5 644,-257.5 815,-257.5 815,-222.5 644,-222.5"/>
<text text-anchor="start" x="651.8319" y="-235.3" font-family="Arial Bold" font-size="18.00" fill="#000000">comments</text>
<text text-anchor="start" x="734.8371" y="-235.3" font-family="Arial" font-size="14.00" fill="#000000">    </text>
<text text-anchor="start" x="769.0419" y="-235.3" font-family="Arial" font-size="14.00" fill="#666666">[table]</text>
<polygon fill="none" stroke="#000000" points="644,-192.5 644,-222.5 815,-222.5 815,-192.5 644,-192.5"/>
<text text-anchor="start" x="651" y="-203.9" font-family="Arial" font-size="14.00" fill="#000000">id    </text>
<text text-anchor="start" x="696.094" y="-203.9" font-family="Arial" font-size="14.00" fill="#666666">[INTEGER]</text>
<polygon fill="none" stroke="#000000" points="644,-162.5 644,-192.5 815,-192.5 815,-162.5 644,-162.5"/>
<text text-anchor="start" x="651" y="-173.9" font-family="Arial" font-size="14.00" fill="#000000">post_id    </text>
<text text-anchor="start" x="730.3324" y="-173.9" font-family="Arial" font-size="14.00" fill="#666666">[INTEGER]</text>
<polygon fill="none" stroke="#000000" points="644,-132.5 644,-162.5 815,-162.5 815,-132.5 644,-132.5"/>
<text text-anchor="start" x="651" y="-143.9" font-family="Arial" font-size="14.00" fill="#000000">user_id    </text>
<text text-anchor="start" x="731.1024" y="-143.9" font-family="Arial" font-size="14.00" fill="#666666">[INTEGER]</text>
<polygon fill="none" stroke="#000000" points="644,-102.5 644,-132.5 815,-132.5 815,-102.5 644,-102.5"/>
<text text-anchor="start" x="651" y="-113.9" font-family="Arial" font-size="14.00" fill="#000000">comment    </text>
<text text-anchor="start" x="742.7644" y="-113.9" font-family="Arial" font-size="14.00" fill="#666666">[TEXT]</text>
<polygon fill="none" stroke="#000000" points="644,-72.5 644,-102.5 815,-102.5 815,-72.5 644,-72.5"/>
<text text-anchor="start" x="651" y="-83.9" font-family="Arial" font-size="14.00" fill="#000000">created    </text>
<text text-anchor="start" x="731.8864" y="-83.9" font-family="Arial" font-size="14.00" fill="#666666">[NUMERIC]</text>
<polygon fill="none" stroke="#000000" points="644,-42.5 644,-72.5 815,-72.5 815,-42.5 644,-42.5"/>
<text text-anchor="start" x="650.5568" y="-53.9" font-family="Arial" font-size="14.00" fill="#000000">updated    </text>
<text text-anchor="start" x="735.3478" y="-53.9" font-family="Arial" font-size="14.00" fill="#666666">[NUMERIC]</text>
</g>
<!-- comment_stars&#45;&gt;comments -->
<g id="edge2" class="edge">
<title>comment_stars:comment_post_id&#45;&gt;comments:post_id</title>
<path fill="none" stroke="#000000" d="M751.7783,-487.4344C459.1315,-483.6003 808.7337,-312.8315 815,-301 840.69,-252.4942 869.8889,-177.5 815,-177.5"/>
<polygon fill="#000000" stroke="#000000" points="752.0002,-487.4358 761.9711,-491.9999 757.0001,-487.4679 762,-487.5 762,-487.5 762,-487.5 757.0001,-487.4679 762.0289,-483.0001 752.0002,-487.4358 752.0002,-487.4358"/>
<text text-anchor="start" x="6.539" y="-497.5" font-family="Arial" font-size="10.00" fill="#000000">FOREIGN KEY (comment_post_id, comment_user_id) REFERENCES comments (post_id, user_id) ON UPDATE NO ACTION ON DELETE NO ACTION MATCH NONE</text>
</g>
<!-- users -->
<g id="node4" class="node">
<title>users</title>
<polygon fill="#efefef" stroke="transparent" points="919,-222.5 919,-257.5 1090,-257.5 1090,-222.5 919,-222.5"/>
<polygon fill="none" stroke="#000000" points="919,-222.5 919,-257.5 1090,-257.5 1090,-222.5 919,-222.5"/>
<text text-anchor="start" x="946.3322" y="-235.3" font-family="Arial Bold" font-size="18.00" fill="#000000">users</text>
<text text-anchor="start" x="990.3368" y="-235.3" font-family="Arial" font-size="14.00" fill="#000000">    </text>
<text text-anchor="start" x="1024.5416" y="-235.3" font-family="Arial" font-size="14.00" fill="#666666">[table]</text>
<polygon fill="none" stroke="#000000" points="919,-192.5 919,-222.5 1090,-222.5 1090,-192.5 919,-192.5"/>
<text text-anchor="start" x="926" y="-203.9" font-family="Arial" font-size="14.00" fill="#000000">id    </text>
<text text-anchor="start" x="971.094" y="-203.9" font-family="Arial" font-size="14.00" fill="#666666">[INTEGER]</text>
<polygon fill="none" stroke="#000000" points="919,-162.5 919,-192.5 1090,-192.5 1090,-162.5 919,-162.5"/>
<text text-anchor="start" x="926" y="-173.9" font-family="Arial" font-size="14.00" fill="#000000">username    </text>
<text text-anchor="start" x="1022.439" y="-173.9" font-family="Arial" font-size="14.00" fill="#666666">[TEXT]</text>
<polygon fill="none" stroke="#000000" points="919,-132.5 919,-162.5 1090,-162.5 1090,-132.5 919,-132.5"/>
<text text-anchor="start" x="926" y="-143.9" font-family="Arial" font-size="14.00" fill="#000000">password    </text>
<text text-anchor="start" x="1020.1024" y="-143.9" font-family="Arial" font-size="14.00" fill="#666666">[TEXT]</text>
<polygon fill="none" stroke="#000000" points="919,-102.5 919,-132.5 1090,-132.5 1090,-102.5 919,-102.5"/>
<text text-anchor="start" x="926" y="-113.9" font-family="Arial" font-size="14.00" fill="#000000">email    </text>
<text text-anchor="start" x="993.6438" y="-113.9" font-family="Arial" font-size="14.00" fill="#666666">[TEXT]</text>
<polygon fill="none" stroke="#000000" points="919,-72.5 919,-102.5 1090,-102.5 1090,-72.5 919,-72.5"/>
<text text-anchor="start" x="926" y="-83.9" font-family="Arial" font-size="14.00" fill="#000000">created    </text>
<text text-anchor="start" x="1006.8864" y="-83.9" font-family="Arial" font-size="14.00" fill="#666666">[NUMERIC]</text>
<polygon fill="none" stroke="#000000" points="919,-42.5 919,-72.5 1090,-72.5 1090,-42.5 919,-42.5"/>
<text text-anchor="start" x="925.5568" y="-53.9" font-family="Arial" font-size="14.00" fill="#000000">updated    </text>
<text text-anchor="start" x="1010.3478" y="-53.9" font-family="Arial" font-size="14.00" fill="#666666">[NUMERIC]</text>
</g>
<!-- comment_stars&#45;&gt;users -->
<g id="edge3" class="edge">
<title>comment_stars:comment_user_id&#45;&gt;users:id</title>
<path fill="none" stroke="#000000" d="M981.1068,-456.4507C1020.5386,-447.3524 994.1078,-381.1029 971,-337 957.9544,-312.1015 932.0456,-325.8985 919,-301 899.7138,-264.1909 877.4444,-207.5 919,-207.5"/>
<polygon fill="#000000" stroke="#000000" points="980.9465,-456.4672 970.5353,-453.0241 975.9733,-456.9836 971,-457.5 971,-457.5 971,-457.5 975.9733,-456.9836 971.4647,-461.9759 980.9465,-456.4672 980.9465,-456.4672"/>
<text text-anchor="start" x="978.004" y="-467.5" font-family="Arial" font-size="10.00" fill="#000000">FOREIGN KEY (comment_user_id) REFERENCES users (id) ON UPDATE NO ACTION ON DELETE NO ACTION MATCH NONE</text>
</g>
<!-- logs -->
<g id="node2" class="node">
<title>logs</title>
<polygon fill="#efefef" stroke="transparent" points="754,-932.5 754,-967.5 979,-967.5 979,-932.5 754,-932.5"/>
<polygon fill="none" stroke="#000000" points="754,-932.5 754,-967.5 979,-967.5 979,-932.5 754,-932.5"/>
<text text-anchor="start" x="813.8312" y="-945.3" font-family="Arial Bold" font-size="18.00" fill="#000000">logs</text>
<text text-anchor="start" x="846.8378" y="-945.3" font-family="Arial" font-size="14.00" fill="#000000">    </text>
<text text-anchor="start" x="881.0426" y="-945.3" font-family="Arial" font-size="14.00" fill="#666666">[table]</text>
<polygon fill="none" stroke="#000000" points="754,-902.5 754,-932.5 979,-932.5 979,-902.5 754,-902.5"/>
<text text-anchor="start" x="761" y="-913.9" font-family="Arial" font-size="14.00" fill="#000000">id    </text>
<text text-anchor="start" x="806.094" y="-913.9" font-family="Arial" font-size="14.00" fill="#666666">[INTEGER]</text>
<polygon fill="none" stroke="#000000" points="754,-872.5 754,-902.5 979,-902.5 979,-872.5 754,-872.5"/>
<text text-anchor="start" x="761" y="-883.9" font-family="Arial" font-size="14.00" fill="#000000">user_id    </text>
<text text-anchor="start" x="841.1024" y="-883.9" font-family="Arial" font-size="14.00" fill="#666666">[INTEGER]</text>
<polygon fill="none" stroke="#000000" points="754,-842.5 754,-872.5 979,-872.5 979,-842.5 754,-842.5"/>
<text text-anchor="start" x="761" y="-853.9" font-family="Arial" font-size="14.00" fill="#000000">post_id    </text>
<text text-anchor="start" x="840.3324" y="-853.9" font-family="Arial" font-size="14.00" fill="#666666">[INTEGER]</text>
<polygon fill="none" stroke="#000000" points="754,-812.5 754,-842.5 979,-842.5 979,-812.5 754,-812.5"/>
<text text-anchor="start" x="761" y="-823.9" font-family="Arial" font-size="14.00" fill="#000000">comment_id    </text>
<text text-anchor="start" x="871.4362" y="-823.9" font-family="Arial" font-size="14.00" fill="#666666">[INTEGER]</text>
<polygon fill="none" stroke="#000000" points="754,-782.5 754,-812.5 979,-812.5 979,-782.5 754,-782.5"/>
<text text-anchor="start" x="760.723" y="-793.9" font-family="Arial" font-size="14.00" fill="#000000">comment_star_id    </text>
<text text-anchor="start" x="902.2756" y="-793.9" font-family="Arial" font-size="14.00" fill="#666666">[INTEGER]</text>
<polygon fill="none" stroke="#000000" points="754,-752.5 754,-782.5 979,-782.5 979,-752.5 754,-752.5"/>
<text text-anchor="start" x="761" y="-763.9" font-family="Arial" font-size="14.00" fill="#000000">payload    </text>
<text text-anchor="start" x="844.2244" y="-763.9" font-family="Arial" font-size="14.00" fill="#666666">[TEXT]</text>
<polygon fill="none" stroke="#000000" points="754,-722.5 754,-752.5 979,-752.5 979,-722.5 754,-722.5"/>
<text text-anchor="start" x="761" y="-733.9" font-family="Arial" font-size="14.00" fill="#000000">created    </text>
<text text-anchor="start" x="841.8864" y="-733.9" font-family="Arial" font-size="14.00" fill="#666666">[NUMERIC]</text>
</g>
<!-- logs&#45;&gt;comment_stars -->
<g id="edge1" class="edge">
<title>logs:comment_star_id&#45;&gt;comment_stars:id</title>
<path fill="none" stroke="#000000" stroke-dasharray="5,2" d="M743.9266,-796.7828C643.4328,-782.1191 654.306,-547.5 762,-547.5"/>
<polygon fill="#000000" stroke="#000000" points="744.0252,-796.7898 753.6804,-801.9886 749.0126,-797.1449 754,-797.5 754,-797.5 754,-797.5 749.0126,-797.1449 754.3196,-793.0114 744.0252,-796.7898 744.0252,-796.7898"/>
<text text-anchor="start" x="664.3245" y="-807.5" font-family="Arial" font-size="10.00" fill="#000000">Additional Relation</text>
</g>
</g>
</svg>
