<?xml version="1.0" encoding="UTF-8" standalone="no"?>
<!DOCTYPE svg PUBLIC "-//W3C//DTD SVG 1.1//EN"
 "http://www.w3.org/Graphics/SVG/1.1/DTD/svg11.dtd">
<!-- Generated by graphviz version 12.1.2 (20240928.0832)
 -->
<!-- Title: comments Pages: 1 -->
<svg width="1448pt" height="1037pt"
 viewBox="0.00 0.00 1447.78 1037.20" xmlns="http://www.w3.org/2000/svg" xmlns:xlink="http://www.w3.org/1999/xlink">
<g id="graph0" class="graph" transform="scale(1 1) rotate(0) translate(4 1033.2)">
<title>comments</title>
<polygon fill="white" stroke="none" points="-4,4 -4,-1033.2 1443.78,-1033.2 1443.78,4 -4,4"/>
<!-- comments -->
<g id="node1" class="node">
<title>comments</title>
<polygon fill="#efefef" stroke="none" points="547.3,-573.8 547.3,-609.4 704.54,-609.4 704.54,-573.8 547.3,-573.8"/>
<polygon fill="none" stroke="black" points="547.3,-573.8 547.3,-609.4 704.54,-609.4 704.54,-573.8 547.3,-573.8"/>
<text text-anchor="start" x="554.3" y="-587.2" font-family="Arial Bold" font-size="18.00">comments</text>
<text text-anchor="start" x="628.29" y="-587.2" font-family="Arial" font-size="14.00">    </text>
<text text-anchor="start" x="659.4" y="-587.2" font-family="Arial" font-size="14.00" fill="#666666">[table]</text>
<polygon fill="none" stroke="black" points="547.3,-543 547.3,-573.8 704.54,-573.8 704.54,-543 547.3,-543"/>
<text text-anchor="start" x="554.3" y="-555.2" font-family="Arial" font-size="14.00">id </text>
<text text-anchor="start" x="569.09" y="-555.2" font-family="Arial" font-size="14.00" fill="#666666">[INTEGER]</text>
<polygon fill="none" stroke="black" points="547.3,-512.2 547.3,-543 704.54,-543 704.54,-512.2 547.3,-512.2"/>
<text text-anchor="start" x="554.3" y="-524.4" font-family="Arial" font-size="14.00">post_id </text>
<text text-anchor="start" x="603.33" y="-524.4" font-family="Arial" font-size="14.00" fill="#666666">[INTEGER]</text>
<polygon fill="none" stroke="black" points="547.3,-481.4 547.3,-512.2 704.54,-512.2 704.54,-481.4 547.3,-481.4"/>
<text text-anchor="start" x="554.3" y="-493.6" font-family="Arial" font-size="14.00">user_id </text>
<text text-anchor="start" x="604.11" y="-493.6" font-family="Arial" font-size="14.00" fill="#666666">[INTEGER]</text>
<polygon fill="none" stroke="black" points="547.3,-450.6 547.3,-481.4 704.54,-481.4 704.54,-450.6 547.3,-450.6"/>
<text text-anchor="start" x="554.3" y="-462.8" font-family="Arial" font-size="14.00">comment </text>
<text text-anchor="start" x="615.76" y="-462.8" font-family="Arial" font-size="14.00" fill="#666666">[TEXT]</text>
<polygon fill="none" stroke="black" points="547.3,-419.8 547.3,-450.6 704.54,-450.6 704.54,-419.8 547.3,-419.8"/>
<text text-anchor="start" x="554.3" y="-432" font-family="Arial" font-size="14.00">created </text>
<text text-anchor="start" x="604.89" y="-432" font-family="Arial" font-size="14.00" fill="#666666">[NUMERIC]</text>
<polygon fill="none" stroke="black" points="547.3,-389 547.3,-419.8 704.54,-419.8 704.54,-389 547.3,-389"/>
<text text-anchor="start" x="554.3" y="-401.2" font-family="Arial" font-size="14.00">updated </text>
<text text-anchor="start" x="608.8" y="-401.2" font-family="Arial" font-size="14.00" fill="#666666">[NUMERIC]</text>
<polygon fill="none" stroke="black" stroke-width="3" points="545.8,-387.5 545.8,-610.9 706.04,-610.9 706.04,-387.5 545.8,-387.5"/>
</g>
<!-- posts -->
<g id="node3" class="node">
<title>posts</title>
<polygon fill="#efefef" stroke="none" points="405.5,-228 405.5,-263.6 574.34,-263.6 574.34,-228 405.5,-228"/>
<polygon fill="none" stroke="black" points="405.5,-228 405.5,-263.6 574.34,-263.6 574.34,-228 405.5,-228"/>
<text text-anchor="start" x="436.79" y="-241.4" font-family="Arial Bold" font-size="18.00">posts</text>
<text text-anchor="start" x="473.8" y="-241.4" font-family="Arial" font-size="14.00">    </text>
<text text-anchor="start" x="504.92" y="-241.4" font-family="Arial" font-size="14.00" fill="#666666">[table]</text>
<polygon fill="none" stroke="black" points="405.5,-197.2 405.5,-228 574.34,-228 574.34,-197.2 405.5,-197.2"/>
<text text-anchor="start" x="412.5" y="-209.4" font-family="Arial" font-size="14.00">id    </text>
<text text-anchor="start" x="454.52" y="-209.4" font-family="Arial" font-size="14.00" fill="#666666">[INTEGER]</text>
<polygon fill="none" stroke="black" points="405.5,-166.4 405.5,-197.2 574.34,-197.2 574.34,-166.4 405.5,-166.4"/>
<text text-anchor="start" x="412.5" y="-178.6" font-family="Arial" font-size="14.00">user_id    </text>
<text text-anchor="start" x="489.54" y="-178.6" font-family="Arial" font-size="14.00" fill="#666666">[INTEGER]</text>
<polygon fill="none" stroke="black" points="405.5,-135.6 405.5,-166.4 574.34,-166.4 574.34,-135.6 405.5,-135.6"/>
<text text-anchor="start" x="412.5" y="-147.8" font-family="Arial" font-size="14.00">title    </text>
<text text-anchor="start" x="465.41" y="-147.8" font-family="Arial" font-size="14.00" fill="#666666">[TEXT]</text>
<polygon fill="none" stroke="black" points="405.5,-104.8 405.5,-135.6 574.34,-135.6 574.34,-104.8 405.5,-104.8"/>
<text text-anchor="start" x="412.5" y="-117" font-family="Arial" font-size="14.00">body    </text>
<text text-anchor="start" x="473.98" y="-117" font-family="Arial" font-size="14.00" fill="#666666">[TEXT]</text>
<polygon fill="none" stroke="black" points="405.5,-74 405.5,-104.8 574.34,-104.8 574.34,-74 405.5,-74"/>
<text text-anchor="start" x="412.5" y="-86.2" font-family="Arial" font-size="14.00">created    </text>
<text text-anchor="start" x="490.32" y="-86.2" font-family="Arial" font-size="14.00" fill="#666666">[NUMERIC]</text>
<polygon fill="none" stroke="black" points="405.5,-43.2 405.5,-74 574.34,-74 574.34,-43.2 405.5,-43.2"/>
<text text-anchor="start" x="412.5" y="-55.4" font-family="Arial" font-size="14.00">updated    </text>
<text text-anchor="start" x="494.23" y="-55.4" font-family="Arial" font-size="14.00" fill="#666666">[NUMERIC]</text>
</g>
<!-- comments&#45;&gt;posts -->
<g id="edge2" class="edge">
<title>comments:post_id&#45;&gt;posts:id</title>
<path fill="none" stroke="black" d="M536.06,-526.96C469.22,-518.05 522.27,-417.14 547.3,-342.8 553.69,-323.84 567.9,-325.75 574.34,-306.8 587.8,-267.15 617.21,-212.6 575.34,-212.6"/>
<polygon fill="black" stroke="black" points="535.99,-526.96 545.69,-532.07 541.31,-527.29 545.63,-527.56 545.63,-527.56 545.63,-527.56 541.31,-527.29 546.24,-523.09 535.99,-526.96"/>
<text text-anchor="start" x="7" y="-537.6" font-family="Arial" font-size="10.00">FOREIGN KEY (post_id) REFERENCES posts (id) ON UPDATE NO ACTION ON DELETE NO ACTION MATCH NONE</text>
</g>
<!-- users -->
<g id="node5" class="node">
<title>users</title>
<polygon fill="#efefef" stroke="none" points="678.5,-228 678.5,-263.6 847.34,-263.6 847.34,-228 678.5,-228"/>
<polygon fill="none" stroke="black" points="678.5,-228 678.5,-263.6 847.34,-263.6 847.34,-228 678.5,-228"/>
<text text-anchor="start" x="709.8" y="-241.4" font-family="Arial Bold" font-size="18.00">users</text>
<text text-anchor="start" x="746.79" y="-241.4" font-family="Arial" font-size="14.00">    </text>
<text text-anchor="start" x="777.91" y="-241.4" font-family="Arial" font-size="14.00" fill="#666666">[table]</text>
<polygon fill="none" stroke="black" points="678.5,-197.2 678.5,-228 847.34,-228 847.34,-197.2 678.5,-197.2"/>
<text text-anchor="start" x="685.5" y="-209.4" font-family="Arial" font-size="14.00">id    </text>
<text text-anchor="start" x="727.52" y="-209.4" font-family="Arial" font-size="14.00" fill="#666666">[INTEGER]</text>
<polygon fill="none" stroke="black" points="678.5,-166.4 678.5,-197.2 847.34,-197.2 847.34,-166.4 678.5,-166.4"/>
<text text-anchor="start" x="685.5" y="-178.6" font-family="Arial" font-size="14.00">username    </text>
<text text-anchor="start" x="778.88" y="-178.6" font-family="Arial" font-size="14.00" fill="#666666">[TEXT]</text>
<polygon fill="none" stroke="black" points="678.5,-135.6 678.5,-166.4 847.34,-166.4 847.34,-135.6 678.5,-135.6"/>
<text text-anchor="start" x="685.5" y="-147.8" font-family="Arial" font-size="14.00">password    </text>
<text text-anchor="start" x="776.54" y="-147.8" font-family="Arial" font-size="14.00" fill="#666666">[TEXT]</text>
<polygon fill="none" stroke="black" points="678.5,-104.8 678.5,-135.6 847.34,-135.6 847.34,-104.8 678.5,-104.8"/>
<text text-anchor="start" x="685.5" y="-117" font-family="Arial" font-size="14.00">email    </text>
<text text-anchor="start" x="750.08" y="-117" font-family="Arial" font-size="14.00" fill="#666666">[TEXT]</text>
<polygon fill="none" stroke="black" points="678.5,-74 678.5,-104.8 847.34,-104.8 847.34,-74 678.5,-74"/>
<text text-anchor="start" x="685.5" y="-86.2" font-family="Arial" font-size="14.00">created    </text>
<text text-anchor="start" x="763.32" y="-86.2" font-family="Arial" font-size="14.00" fill="#666666">[NUMERIC]</text>
<polygon fill="none" stroke="black" points="678.5,-43.2 678.5,-74 847.34,-74 847.34,-43.2 678.5,-43.2"/>
<text text-anchor="start" x="685.5" y="-55.4" font-family="Arial" font-size="14.00">updated    </text>
<text text-anchor="start" x="767.23" y="-55.4" font-family="Arial" font-size="14.00" fill="#666666">[NUMERIC]</text>
</g>
<!-- comments&#45;&gt;users -->
<g id="edge4" class="edge">
<title>comments:user_id&#45;&gt;users:id</title>
<path fill="none" stroke="black" d="M715.75,-496.02C768.8,-487.14 724.67,-404.29 704.54,-342.8 698.4,-324.03 684.68,-325.55 678.5,-306.8 665.4,-267.04 635.63,-212.6 677.5,-212.6"/>
<polygon fill="black" stroke="black" points="715.85,-496.01 705.53,-492.29 710.53,-496.42 706.21,-496.75 706.21,-496.75 706.21,-496.75 710.53,-496.42 706.22,-501.26 715.85,-496.01"/>
<text text-anchor="start" x="712.54" y="-506.8" font-family="Arial" font-size="10.00">FOREIGN KEY (user_id) REFERENCES users (id) ON UPDATE NO ACTION ON DELETE NO ACTION MATCH NONE</text>
</g>
<!-- logs -->
<g id="node2" class="node">
<title>logs</title>
<polygon fill="#efefef" stroke="none" points="350.67,-950.4 350.67,-986 573.17,-986 573.17,-950.4 350.67,-950.4"/>
<polygon fill="none" stroke="black" points="350.67,-950.4 350.67,-986 573.17,-986 573.17,-950.4 350.67,-950.4"/>
<text text-anchor="start" x="412.29" y="-963.8" font-family="Arial Bold" font-size="18.00">logs</text>
<text text-anchor="start" x="442.3" y="-963.8" font-family="Arial" font-size="14.00">    </text>
<text text-anchor="start" x="473.41" y="-963.8" font-family="Arial" font-size="14.00" fill="#666666">[table]</text>
<polygon fill="none" stroke="black" points="350.67,-919.6 350.67,-950.4 573.17,-950.4 573.17,-919.6 350.67,-919.6"/>
<text text-anchor="start" x="357.67" y="-931.8" font-family="Arial" font-size="14.00">id    </text>
<text text-anchor="start" x="399.68" y="-931.8" font-family="Arial" font-size="14.00" fill="#666666">[INTEGER]</text>
<polygon fill="none" stroke="black" points="350.67,-888.8 350.67,-919.6 573.17,-919.6 573.17,-888.8 350.67,-888.8"/>
<text text-anchor="start" x="357.67" y="-901" font-family="Arial" font-size="14.00">user_id    </text>
<text text-anchor="start" x="434.7" y="-901" font-family="Arial" font-size="14.00" fill="#666666">[INTEGER]</text>
<polygon fill="none" stroke="black" points="350.67,-858 350.67,-888.8 573.17,-888.8 573.17,-858 350.67,-858"/>
<text text-anchor="start" x="357.67" y="-870.2" font-family="Arial" font-size="14.00">post_id    </text>
<text text-anchor="start" x="433.93" y="-870.2" font-family="Arial" font-size="14.00" fill="#666666">[INTEGER]</text>
<polygon fill="none" stroke="black" points="350.67,-827.2 350.67,-858 573.17,-858 573.17,-827.2 350.67,-827.2"/>
<text text-anchor="start" x="357.67" y="-839.4" font-family="Arial" font-size="14.00">comment_id    </text>
<text text-anchor="start" x="465.04" y="-839.4" font-family="Arial" font-size="14.00" fill="#666666">[INTEGER]</text>
<polygon fill="none" stroke="black" points="350.67,-796.4 350.67,-827.2 573.17,-827.2 573.17,-796.4 350.67,-796.4"/>
<text text-anchor="start" x="357.67" y="-808.6" font-family="Arial" font-size="14.00">comment_star_id    </text>
<text text-anchor="start" x="496.17" y="-808.6" font-family="Arial" font-size="14.00" fill="#666666">[INTEGER]</text>
<polygon fill="none" stroke="black" points="350.67,-765.6 350.67,-796.4 573.17,-796.4 573.17,-765.6 350.67,-765.6"/>
<text text-anchor="start" x="357.67" y="-777.8" font-family="Arial" font-size="14.00">payload    </text>
<text text-anchor="start" x="437.83" y="-777.8" font-family="Arial" font-size="14.00" fill="#666666">[TEXT]</text>
<polygon fill="none" stroke="black" points="350.67,-734.8 350.67,-765.6 573.17,-765.6 573.17,-734.8 350.67,-734.8"/>
<text text-anchor="start" x="357.67" y="-747" font-family="Arial" font-size="14.00">created    </text>
<text text-anchor="start" x="435.48" y="-747" font-family="Arial" font-size="14.00" fill="#666666">[NUMERIC]</text>
</g>
<!-- logs&#45;&gt;comments -->
<g id="edge1" class="edge">
<title>logs:comment_id&#45;&gt;comments:id</title>
<path fill="none" stroke="black" stroke-dasharray="5,2" d="M584.5,-841.78C636.01,-832.8 592.78,-751.8 573.17,-691.6 567.07,-672.87 553.44,-674.32 547.3,-655.6 533.84,-614.55 503.1,-558.4 546.3,-558.4"/>
<polygon fill="black" stroke="black" points="584.47,-841.78 574.15,-838.09 579.16,-842.2 574.84,-842.55 574.84,-842.55 574.84,-842.55 579.16,-842.2 574.86,-847.06 584.47,-841.78"/>
<text text-anchor="start" x="581.17" y="-852.6" font-family="Arial" font-size="10.00">Additional Relation</text>
</g>
<!-- comment_stars -->
<g id="node4" class="node">
<title>comment_stars</title>
<polygon fill="#efefef" stroke="none" points="677.72,-935 677.72,-970.6 904.12,-970.6 904.12,-935 677.72,-935"/>
<polygon fill="none" stroke="black" points="677.72,-935 677.72,-970.6 904.12,-970.6 904.12,-935 677.72,-935"/>
<text text-anchor="start" x="701.81" y="-948.4" font-family="Arial Bold" font-size="18.00">comment_stars</text>
<text text-anchor="start" x="810.78" y="-948.4" font-family="Arial" font-size="14.00">    </text>
<text text-anchor="start" x="841.9" y="-948.4" font-family="Arial" font-size="14.00" fill="#666666">[table]</text>
<polygon fill="none" stroke="black" points="677.72,-904.2 677.72,-935 904.12,-935 904.12,-904.2 677.72,-904.2"/>
<text text-anchor="start" x="684.72" y="-916.4" font-family="Arial" font-size="14.00">id    </text>
<text text-anchor="start" x="726.73" y="-916.4" font-family="Arial" font-size="14.00" fill="#666666">[INTEGER]</text>
<polygon fill="none" stroke="black" points="677.72,-873.4 677.72,-904.2 904.12,-904.2 904.12,-873.4 677.72,-873.4"/>
<text text-anchor="start" x="684.72" y="-885.6" font-family="Arial" font-size="14.00">user_id    </text>
<text text-anchor="start" x="761.75" y="-885.6" font-family="Arial" font-size="14.00" fill="#666666">[INTEGER]</text>
<polygon fill="none" stroke="black" points="677.72,-842.6 677.72,-873.4 904.12,-873.4 904.12,-842.6 677.72,-842.6"/>
<text text-anchor="start" x="684.72" y="-854.8" font-family="Arial" font-size="14.00">comment_post_id    </text>
<text text-anchor="start" x="826.34" y="-854.8" font-family="Arial" font-size="14.00" fill="#666666">[INTEGER]</text>
<polygon fill="none" stroke="black" points="677.72,-811.8 677.72,-842.6 904.12,-842.6 904.12,-811.8 677.72,-811.8"/>
<text text-anchor="start" x="684.72" y="-824" font-family="Arial" font-size="14.00">comment_user_id    </text>
<text text-anchor="start" x="827.11" y="-824" font-family="Arial" font-size="14.00" fill="#666666">[INTEGER]</text>
<polygon fill="none" stroke="black" points="677.72,-781 677.72,-811.8 904.12,-811.8 904.12,-781 677.72,-781"/>
<text text-anchor="start" x="684.72" y="-793.2" font-family="Arial" font-size="14.00">created    </text>
<text text-anchor="start" x="762.53" y="-793.2" font-family="Arial" font-size="14.00" fill="#666666">[NUMERIC]</text>
<polygon fill="none" stroke="black" points="677.72,-750.2 677.72,-781 904.12,-781 904.12,-750.2 677.72,-750.2"/>
<text text-anchor="start" x="684.72" y="-762.4" font-family="Arial" font-size="14.00">updated    </text>
<text text-anchor="start" x="766.44" y="-762.4" font-family="Arial" font-size="14.00" fill="#666666">[NUMERIC]</text>
</g>
<!-- comment_stars&#45;&gt;comments -->
<g id="edge3" class="edge">
<title>comment_stars:comment_post_id&#45;&gt;comments:post_id</title>
<path fill="none" stroke="black" d="M666.43,-857.19C615.37,-848.34 662.44,-768.44 677.72,-707 683.94,-681.99 698.31,-680.6 704.54,-655.6 718.31,-600.4 762.43,-527.6 705.54,-527.6"/>
<polygon fill="black" stroke="black" points="666.42,-857.19 676.04,-862.46 671.74,-857.61 676.05,-857.95 676.05,-857.95 676.05,-857.95 671.74,-857.61 676.74,-853.49 666.42,-857.19"/>
<text text-anchor="start" x="683.72" y="-868" font-family="Arial" font-size="10.00">FOREIGN KEY (comment_post_id, comment_user_id) REFERENCES comments (post_id, user_id) ON UPDATE NO ACTION ON DELETE NO ACTION MATCH NONE</text>
</g>
</g>
</svg>
