<?xml version="1.0" encoding="UTF-8" standalone="no"?>
<!DOCTYPE svg PUBLIC "-//W3C//DTD SVG 1.1//EN"
 "http://www.w3.org/Graphics/SVG/1.1/DTD/svg11.dtd">
<!-- Generated by graphviz version 2.40.1 (20161225.0304)
 -->
<!-- Title: comments Pages: 1 -->
<svg width="1452pt" height="1019pt"
 viewBox="0.00 0.00 1452.00 1019.00" xmlns="http://www.w3.org/2000/svg" xmlns:xlink="http://www.w3.org/1999/xlink">
<g id="graph0" class="graph" transform="scale(1 1) rotate(0) translate(4 1015)">
<title>comments</title>
<polygon fill="#ffffff" stroke="transparent" points="-4,4 -4,-1015 1448,-1015 1448,4 -4,4"/>
<!-- comments -->
<g id="node1" class="node">
<title>comments</title>
<polygon fill="#efefef" stroke="transparent" points="546,-562.5 546,-597.5 715,-597.5 715,-562.5 546,-562.5"/>
<polygon fill="none" stroke="#000000" points="546,-562.5 546,-597.5 715,-597.5 715,-562.5 546,-562.5"/>
<text text-anchor="start" x="552.8319" y="-575.3" font-family="Arial Bold" font-size="18.00" fill="#000000">comments</text>
<text text-anchor="start" x="635.8371" y="-575.3" font-family="Arial" font-size="14.00" fill="#000000">    </text>
<text text-anchor="start" x="670.0419" y="-575.3" font-family="Arial" font-size="14.00" fill="#666666">[table]</text>
<polygon fill="none" stroke="#000000" points="546,-532.5 546,-562.5 715,-562.5 715,-532.5 546,-532.5"/>
<text text-anchor="start" x="553" y="-543.9" font-family="Arial" font-size="14.00" fill="#000000">id </text>
<text text-anchor="start" x="567.7798" y="-543.9" font-family="Arial" font-size="14.00" fill="#666666">[INTEGER]</text>
<polygon fill="none" stroke="#000000" points="546,-502.5 546,-532.5 715,-532.5 715,-502.5 546,-502.5"/>
<text text-anchor="start" x="553" y="-513.9" font-family="Arial" font-size="14.00" fill="#000000">post_id </text>
<text text-anchor="start" x="602.0182" y="-513.9" font-family="Arial" font-size="14.00" fill="#666666">[INTEGER]</text>
<polygon fill="none" stroke="#000000" points="546,-472.5 546,-502.5 715,-502.5 715,-472.5 546,-472.5"/>
<text text-anchor="start" x="553" y="-483.9" font-family="Arial" font-size="14.00" fill="#000000">user_id </text>
<text text-anchor="start" x="602.7882" y="-483.9" font-family="Arial" font-size="14.00" fill="#666666">[INTEGER]</text>
<polygon fill="none" stroke="#000000" points="546,-442.5 546,-472.5 715,-472.5 715,-442.5 546,-442.5"/>
<text text-anchor="start" x="553" y="-453.9" font-family="Arial" font-size="14.00" fill="#000000">comment </text>
<text text-anchor="start" x="614.4502" y="-453.9" font-family="Arial" font-size="14.00" fill="#666666">[TEXT]</text>
<polygon fill="none" stroke="#000000" points="546,-412.5 546,-442.5 715,-442.5 715,-412.5 546,-412.5"/>
<text text-anchor="start" x="553" y="-423.9" font-family="Arial" font-size="14.00" fill="#000000">created </text>
<text text-anchor="start" x="603.5722" y="-423.9" font-family="Arial" font-size="14.00" fill="#666666">[NUMERIC]</text>
<polygon fill="none" stroke="#000000" points="546,-382.5 546,-412.5 715,-412.5 715,-382.5 546,-382.5"/>
<text text-anchor="start" x="553" y="-393.9" font-family="Arial" font-size="14.00" fill="#000000">updated </text>
<text text-anchor="start" x="607.4768" y="-393.9" font-family="Arial" font-size="14.00" fill="#666666">[NUMERIC]</text>
<polygon fill="none" stroke="#000000" stroke-width="3" points="544,-381.5 544,-599.5 716,-599.5 716,-381.5 544,-381.5"/>
</g>
<!-- posts -->
<g id="node3" class="node">
<title>posts</title>
<polygon fill="#efefef" stroke="transparent" points="408,-222.5 408,-257.5 579,-257.5 579,-222.5 408,-222.5"/>
<polygon fill="none" stroke="#000000" points="408,-222.5 408,-257.5 579,-257.5 579,-222.5 408,-222.5"/>
<text text-anchor="start" x="435.8272" y="-235.3" font-family="Arial Bold" font-size="18.00" fill="#000000">posts</text>
<text text-anchor="start" x="478.8418" y="-235.3" font-family="Arial" font-size="14.00" fill="#000000">    </text>
<text text-anchor="start" x="513.0466" y="-235.3" font-family="Arial" font-size="14.00" fill="#666666">[table]</text>
<polygon fill="none" stroke="#000000" points="408,-192.5 408,-222.5 579,-222.5 579,-192.5 408,-192.5"/>
<text text-anchor="start" x="415" y="-203.9" font-family="Arial" font-size="14.00" fill="#000000">id    </text>
<text text-anchor="start" x="460.094" y="-203.9" font-family="Arial" font-size="14.00" fill="#666666">[INTEGER]</text>
<polygon fill="none" stroke="#000000" points="408,-162.5 408,-192.5 579,-192.5 579,-162.5 408,-162.5"/>
<text text-anchor="start" x="415" y="-173.9" font-family="Arial" font-size="14.00" fill="#000000">user_id    </text>
<text text-anchor="start" x="495.1024" y="-173.9" font-family="Arial" font-size="14.00" fill="#666666">[INTEGER]</text>
<polygon fill="none" stroke="#000000" points="408,-132.5 408,-162.5 579,-162.5 579,-132.5 408,-132.5"/>
<text text-anchor="start" x="415" y="-143.9" font-family="Arial" font-size="14.00" fill="#000000">title    </text>
<text text-anchor="start" x="470.9818" y="-143.9" font-family="Arial" font-size="14.00" fill="#666666">[TEXT]</text>
<polygon fill="none" stroke="#000000" points="408,-102.5 408,-132.5 579,-132.5 579,-102.5 408,-102.5"/>
<text text-anchor="start" x="415" y="-113.9" font-family="Arial" font-size="14.00" fill="#000000">body    </text>
<text text-anchor="start" x="479.5526" y="-113.9" font-family="Arial" font-size="14.00" fill="#666666">[TEXT]</text>
<polygon fill="none" stroke="#000000" points="408,-72.5 408,-102.5 579,-102.5 579,-72.5 408,-72.5"/>
<text text-anchor="start" x="415" y="-83.9" font-family="Arial" font-size="14.00" fill="#000000">created    </text>
<text text-anchor="start" x="495.8864" y="-83.9" font-family="Arial" font-size="14.00" fill="#666666">[NUMERIC]</text>
<polygon fill="none" stroke="#000000" points="408,-42.5 408,-72.5 579,-72.5 579,-42.5 408,-42.5"/>
<text text-anchor="start" x="414.5568" y="-53.9" font-family="Arial" font-size="14.00" fill="#000000">updated    </text>
<text text-anchor="start" x="499.3478" y="-53.9" font-family="Arial" font-size="14.00" fill="#666666">[NUMERIC]</text>
</g>
<!-- comments&#45;&gt;posts -->
<g id="edge2" class="edge">
<title>comments:post_id&#45;&gt;posts:id</title>
<path fill="none" stroke="#000000" d="M535.9702,-516.8723C470.3279,-508.0629 518.224,-408.4065 546,-337 553.8686,-316.7714 571.1314,-321.2286 579,-301 594.0648,-262.2713 620.5556,-207.5 579,-207.5"/>
<polygon fill="#000000" stroke="#000000" points="536.0195,-516.8753 545.7189,-521.9912 541.0098,-517.1876 546,-517.5 546,-517.5 546,-517.5 541.0098,-517.1876 546.2811,-513.0088 536.0195,-516.8753 536.0195,-516.8753"/>
<text text-anchor="start" x="6.8905" y="-527.5" font-family="Arial" font-size="10.00" fill="#000000">FOREIGN KEY (post_id) REFERENCES posts (id) ON UPDATE NO ACTION ON DELETE NO ACTION MATCH NONE</text>
</g>
<!-- users -->
<g id="node5" class="node">
<title>users</title>
<polygon fill="#efefef" stroke="transparent" points="683,-222.5 683,-257.5 854,-257.5 854,-222.5 683,-222.5"/>
<polygon fill="none" stroke="#000000" points="683,-222.5 683,-257.5 854,-257.5 854,-222.5 683,-222.5"/>
<text text-anchor="start" x="710.3322" y="-235.3" font-family="Arial Bold" font-size="18.00" fill="#000000">users</text>
<text text-anchor="start" x="754.3368" y="-235.3" font-family="Arial" font-size="14.00" fill="#000000">    </text>
<text text-anchor="start" x="788.5416" y="-235.3" font-family="Arial" font-size="14.00" fill="#666666">[table]</text>
<polygon fill="none" stroke="#000000" points="683,-192.5 683,-222.5 854,-222.5 854,-192.5 683,-192.5"/>
<text text-anchor="start" x="690" y="-203.9" font-family="Arial" font-size="14.00" fill="#000000">id    </text>
<text text-anchor="start" x="735.094" y="-203.9" font-family="Arial" font-size="14.00" fill="#666666">[INTEGER]</text>
<polygon fill="none" stroke="#000000" points="683,-162.5 683,-192.5 854,-192.5 854,-162.5 683,-162.5"/>
<text text-anchor="start" x="690" y="-173.9" font-family="Arial" font-size="14.00" fill="#000000">username    </text>
<text text-anchor="start" x="786.439" y="-173.9" font-family="Arial" font-size="14.00" fill="#666666">[TEXT]</text>
<polygon fill="none" stroke="#000000" points="683,-132.5 683,-162.5 854,-162.5 854,-132.5 683,-132.5"/>
<text text-anchor="start" x="690" y="-143.9" font-family="Arial" font-size="14.00" fill="#000000">password    </text>
<text text-anchor="start" x="784.1024" y="-143.9" font-family="Arial" font-size="14.00" fill="#666666">[TEXT]</text>
<polygon fill="none" stroke="#000000" points="683,-102.5 683,-132.5 854,-132.5 854,-102.5 683,-102.5"/>
<text text-anchor="start" x="690" y="-113.9" font-family="Arial" font-size="14.00" fill="#000000">email    </text>
<text text-anchor="start" x="757.6438" y="-113.9" font-family="Arial" font-size="14.00" fill="#666666">[TEXT]</text>
<polygon fill="none" stroke="#000000" points="683,-72.5 683,-102.5 854,-102.5 854,-72.5 683,-72.5"/>
<text text-anchor="start" x="690" y="-83.9" font-family="Arial" font-size="14.00" fill="#000000">created    </text>
<text text-anchor="start" x="770.8864" y="-83.9" font-family="Arial" font-size="14.00" fill="#666666">[NUMERIC]</text>
<polygon fill="none" stroke="#000000" points="683,-42.5 683,-72.5 854,-72.5 854,-42.5 683,-42.5"/>
<text text-anchor="start" x="689.5568" y="-53.9" font-family="Arial" font-size="14.00" fill="#000000">updated    </text>
<text text-anchor="start" x="774.3478" y="-53.9" font-family="Arial" font-size="14.00" fill="#666666">[NUMERIC]</text>
</g>
<!-- comments&#45;&gt;users -->
<g id="edge4" class="edge">
<title>comments:user_id&#45;&gt;users:id</title>
<path fill="none" stroke="#000000" d="M725.0081,-486.7292C777.2307,-477.9536 737.471,-396.1033 715,-337 707.3923,-316.9902 690.6077,-321.0098 683,-301 668.232,-262.1571 641.4444,-207.5 683,-207.5"/>
<polygon fill="#000000" stroke="#000000" points="724.9705,-486.732 714.6544,-483.0133 719.9852,-487.116 715,-487.5 715,-487.5 715,-487.5 719.9852,-487.116 715.3456,-491.9867 724.9705,-486.732 724.9705,-486.732"/>
<text text-anchor="start" x="722.3405" y="-497.5" font-family="Arial" font-size="10.00" fill="#000000">FOREIGN KEY (user_id) REFERENCES users (id) ON UPDATE NO ACTION ON DELETE NO ACTION MATCH NONE</text>
</g>
<!-- logs -->
<g id="node2" class="node">
<title>logs</title>
<polygon fill="#efefef" stroke="transparent" points="353,-932.5 353,-967.5 578,-967.5 578,-932.5 353,-932.5"/>
<polygon fill="none" stroke="#000000" points="353,-932.5 353,-967.5 578,-967.5 578,-932.5 353,-932.5"/>
<text text-anchor="start" x="412.8312" y="-945.3" font-family="Arial Bold" font-size="18.00" fill="#000000">logs</text>
<text text-anchor="start" x="445.8378" y="-945.3" font-family="Arial" font-size="14.00" fill="#000000">    </text>
<text text-anchor="start" x="480.0426" y="-945.3" font-family="Arial" font-size="14.00" fill="#666666">[table]</text>
<polygon fill="none" stroke="#000000" points="353,-902.5 353,-932.5 578,-932.5 578,-902.5 353,-902.5"/>
<text text-anchor="start" x="360" y="-913.9" font-family="Arial" font-size="14.00" fill="#000000">id    </text>
<text text-anchor="start" x="405.094" y="-913.9" font-family="Arial" font-size="14.00" fill="#666666">[INTEGER]</text>
<polygon fill="none" stroke="#000000" points="353,-872.5 353,-902.5 578,-902.5 578,-872.5 353,-872.5"/>
<text text-anchor="start" x="360" y="-883.9" font-family="Arial" font-size="14.00" fill="#000000">user_id    </text>
<text text-anchor="start" x="440.1024" y="-883.9" font-family="Arial" font-size="14.00" fill="#666666">[INTEGER]</text>
<polygon fill="none" stroke="#000000" points="353,-842.5 353,-872.5 578,-872.5 578,-842.5 353,-842.5"/>
<text text-anchor="start" x="360" y="-853.9" font-family="Arial" font-size="14.00" fill="#000000">post_id    </text>
<text text-anchor="start" x="439.3324" y="-853.9" font-family="Arial" font-size="14.00" fill="#666666">[INTEGER]</text>
<polygon fill="none" stroke="#000000" points="353,-812.5 353,-842.5 578,-842.5 578,-812.5 353,-812.5"/>
<text text-anchor="start" x="360" y="-823.9" font-family="Arial" font-size="14.00" fill="#000000">comment_id    </text>
<text text-anchor="start" x="470.4362" y="-823.9" font-family="Arial" font-size="14.00" fill="#666666">[INTEGER]</text>
<polygon fill="none" stroke="#000000" points="353,-782.5 353,-812.5 578,-812.5 578,-782.5 353,-782.5"/>
<text text-anchor="start" x="359.723" y="-793.9" font-family="Arial" font-size="14.00" fill="#000000">comment_star_id    </text>
<text text-anchor="start" x="501.2756" y="-793.9" font-family="Arial" font-size="14.00" fill="#666666">[INTEGER]</text>
<polygon fill="none" stroke="#000000" points="353,-752.5 353,-782.5 578,-782.5 578,-752.5 353,-752.5"/>
<text text-anchor="start" x="360" y="-763.9" font-family="Arial" font-size="14.00" fill="#000000">payload    </text>
<text text-anchor="start" x="443.2244" y="-763.9" font-family="Arial" font-size="14.00" fill="#666666">[TEXT]</text>
<polygon fill="none" stroke="#000000" points="353,-722.5 353,-752.5 578,-752.5 578,-722.5 353,-722.5"/>
<text text-anchor="start" x="360" y="-733.9" font-family="Arial" font-size="14.00" fill="#000000">created    </text>
<text text-anchor="start" x="440.8864" y="-733.9" font-family="Arial" font-size="14.00" fill="#666666">[NUMERIC]</text>
</g>
<!-- logs&#45;&gt;comments -->
<g id="edge1" class="edge">
<title>logs:comment_id&#45;&gt;comments:id</title>
<path fill="none" stroke="#000000" stroke-dasharray="5,2" d="M588.1247,-826.6903C638.8293,-817.8125 599.9776,-737.8055 578,-680 570.3923,-659.9902 553.6077,-664.0098 546,-644 530.7581,-603.9108 503.1111,-547.5 546,-547.5"/>
<polygon fill="#000000" stroke="#000000" points="587.9682,-826.7028 577.6412,-823.0143 582.9841,-827.1014 578,-827.5 578,-827.5 578,-827.5 582.9841,-827.1014 578.3588,-831.9857 587.9682,-826.7028 587.9682,-826.7028"/>
<text text-anchor="start" x="585.3245" y="-837.5" font-family="Arial" font-size="10.00" fill="#000000">Additional Relation</text>
</g>
<!-- comment_stars -->
<g id="node4" class="node">
<title>comment_stars</title>
<polygon fill="#efefef" stroke="transparent" points="682,-917.5 682,-952.5 911,-952.5 911,-917.5 682,-917.5"/>
<polygon fill="none" stroke="#000000" points="682,-917.5 682,-952.5 911,-952.5 911,-917.5 682,-917.5"/>
<text text-anchor="start" x="698.8285" y="-930.3" font-family="Arial Bold" font-size="18.00" fill="#000000">comment_stars</text>
<text text-anchor="start" x="821.8405" y="-930.3" font-family="Arial" font-size="14.00" fill="#000000">    </text>
<text text-anchor="start" x="856.0453" y="-930.3" font-family="Arial" font-size="14.00" fill="#666666">[table]</text>
<polygon fill="none" stroke="#000000" points="682,-887.5 682,-917.5 911,-917.5 911,-887.5 682,-887.5"/>
<text text-anchor="start" x="689" y="-898.9" font-family="Arial" font-size="14.00" fill="#000000">id    </text>
<text text-anchor="start" x="734.094" y="-898.9" font-family="Arial" font-size="14.00" fill="#666666">[INTEGER]</text>
<polygon fill="none" stroke="#000000" points="682,-857.5 682,-887.5 911,-887.5 911,-857.5 682,-857.5"/>
<text text-anchor="start" x="689" y="-868.9" font-family="Arial" font-size="14.00" fill="#000000">user_id    </text>
<text text-anchor="start" x="769.1024" y="-868.9" font-family="Arial" font-size="14.00" fill="#666666">[INTEGER]</text>
<polygon fill="none" stroke="#000000" points="682,-827.5 682,-857.5 911,-857.5 911,-827.5 682,-827.5"/>
<text text-anchor="start" x="689" y="-838.9" font-family="Arial" font-size="14.00" fill="#000000">comment_post_id    </text>
<text text-anchor="start" x="833.6746" y="-838.9" font-family="Arial" font-size="14.00" fill="#666666">[INTEGER]</text>
<polygon fill="none" stroke="#000000" points="682,-797.5 682,-827.5 911,-827.5 911,-797.5 682,-797.5"/>
<text text-anchor="start" x="688.777" y="-808.9" font-family="Arial" font-size="14.00" fill="#000000">comment_user_id    </text>
<text text-anchor="start" x="834.2216" y="-808.9" font-family="Arial" font-size="14.00" fill="#666666">[INTEGER]</text>
<polygon fill="none" stroke="#000000" points="682,-767.5 682,-797.5 911,-797.5 911,-767.5 682,-767.5"/>
<text text-anchor="start" x="689" y="-778.9" font-family="Arial" font-size="14.00" fill="#000000">created    </text>
<text text-anchor="start" x="769.8864" y="-778.9" font-family="Arial" font-size="14.00" fill="#666666">[NUMERIC]</text>
<polygon fill="none" stroke="#000000" points="682,-737.5 682,-767.5 911,-767.5 911,-737.5 682,-737.5"/>
<text text-anchor="start" x="689" y="-748.9" font-family="Arial" font-size="14.00" fill="#000000">updated    </text>
<text text-anchor="start" x="773.791" y="-748.9" font-family="Arial" font-size="14.00" fill="#666666">[NUMERIC]</text>
</g>
<!-- comment_stars&#45;&gt;comments -->
<g id="edge3" class="edge">
<title>comment_stars:comment_post_id&#45;&gt;comments:post_id</title>
<path fill="none" stroke="#000000" d="M671.9182,-841.7048C621.6762,-832.983 664.4848,-754.3103 682,-695 689.6464,-669.1075 707.3536,-669.8925 715,-644 730.9234,-590.0798 771.2222,-517.5 715,-517.5"/>
<polygon fill="#000000" stroke="#000000" points="672.031,-841.7136 681.6461,-846.9861 677.0155,-842.1068 682,-842.5 682,-842.5 682,-842.5 677.0155,-842.1068 682.3539,-838.0139 672.031,-841.7136 672.031,-841.7136"/>
<text text-anchor="start" x="688.539" y="-852.5" font-family="Arial" font-size="10.00" fill="#000000">FOREIGN KEY (comment_post_id, comment_user_id) REFERENCES comments (post_id, user_id) ON UPDATE NO ACTION ON DELETE NO ACTION MATCH NONE</text>
</g>
</g>
</svg>
