<?xml version="1.0" encoding="UTF-8" standalone="no"?>
<!DOCTYPE svg PUBLIC "-//W3C//DTD SVG 1.1//EN"
 "http://www.w3.org/Graphics/SVG/1.1/DTD/svg11.dtd">
<!-- Generated by graphviz version 12.1.2 (20240928.0832)
 -->
<!-- Title: comments Pages: 1 -->
<svg width="1447pt" height="1037pt"
 viewBox="0.00 0.00 1447.40 1037.20" xmlns="http://www.w3.org/2000/svg" xmlns:xlink="http://www.w3.org/1999/xlink">
<g id="graph0" class="graph" transform="scale(1 1) rotate(0) translate(4 1033.2)">
<title>comments</title>
<polygon fill="white" stroke="none" points="-4,4 -4,-1033.2 1443.4,-1033.2 1443.4,4 -4,4"/>
<!-- comments -->
<g id="node1" class="node">
<title>comments</title>
<polygon fill="#efefef" stroke="none" points="547.3,-573.8 547.3,-609.4 704.54,-609.4 704.54,-573.8 547.3,-573.8"/>
<polygon fill="none" stroke="black" points="547.3,-573.8 547.3,-609.4 704.54,-609.4 704.54,-573.8 547.3,-573.8"/>
<text text-anchor="start" x="554.3" y="-587.2" font-family="Arial Bold" font-size="18.00">comments</text>
<text text-anchor="start" x="628.29" y="-587.2" font-family="Arial" font-size="14.00">    </text>
<text text-anchor="start" x="659.4" y="-587.2" font-family="Arial" font-size="14.00" fill="#666666">[table]</text>
<polygon fill="none" stroke="black" points="547.3,-543 547.3,-573.8 704.54,-573.8 704.54,-543 547.3,-543"/>
<text text-anchor="start" x="554.3" y="-555.2" font-family="Arial" font-size="14.00">id </text>
<text text-anchor="start" x="569.09" y="-555.2" font-family="Arial" font-size="14.00" fill="#666666">[INTEGER]</text>
<polygon fill="none" stroke="black" points="547.3,-512.2 547.3,-543 704.54,-543 704.54,-512.2 547.3,-512.2"/>
<text text-anchor="start" x="554.3" y="-524.4" font-family="Arial" font-size="14.00">post_id </text>
<text text-anchor="start" x="603.33" y="-524.4" font-family="Arial" font-size="14.00" fill="#666666">[INTEGER]</text>
<polygon fill="none" stroke="black" points="547.3,-481.4 547.3,-512.2 704.54,-512.2 704.54,-481.4 547.3,-481.4"/>
<text text-anchor="start" x="554.3" y="-493.6" font-family="Arial" font-size="14.00">user_id </text>
<text text-anchor="start" x="604.11" y="-493.6" font-family="Arial" font-size="14.00" fill="#666666">[INTEGER]</text>
<polygon fill="none" stroke="black" points="547.3,-450.6 547.3,-481.4 704.54,-481.4 704.54,-450.6 547.3,-450.6"/>
<text text-anchor="start" x="554.3" y="-462.8" font-family="Arial" font-size="14.00">comment </text>
<text text-anchor="start" x="615.76" y="-462.8" font-family="Arial" font-size="14.00" fill="#666666">[TEXT]</text>
<polygon fill="none" stroke="black" points="547.3,-419.8 547.3,-450.6 704.54,-450.6 704.54,-419.8 547.3,-419.8"/>
<text text-anchor="start" x="554.3" y="-432" font-family="Arial" font-size="14.00">created </text>
<text text-anchor="start" x="604.89" y="-432" font-family="Arial" font-size="14.00" fill="#666666">[NUMERIC]</text>
<polygon fill="none" stroke="black" points="547.3,-389 547.3,-419.8 704.54,-419.8 704.54,-389 547.3,-389"/>
<text text-anchor="start" x="554.3" y="-401.2" font-family="Arial" font-size="14.00">updated </text>
<text text-anchor="start" x="608.8" y="-401.2" font-family="Arial" font-size="14.00" fill="#666666">[NUMERIC]</text>
<polygon fill="none" stroke="black" stroke-width="3" points="545.8,-387.5 545.8,-610.9 706.04,-610.9 706.04,-387.5 545.8,-387.5"/>
</g>
<!-- posts -->
<g id="node3" class="node">
<title>posts</title>
<polygon fill="#efefef" stroke="none" points="432.12,-228 432.12,-263.6 573.72,-263.6 573.72,-228 432.12,-228"/>
<polygon fill="none" stroke="black" points="432.12,-228 432.12,-263.6 573.72,-263.6 573.72,-228 432.12,-228"/>
<text text-anchor="start" x="449.79" y="-241.4" font-family="Arial Bold" font-size="18.00">posts</text>
<text text-anchor="start" x="486.8" y="-241.4" font-family="Arial" font-size="14.00">    </text>
<text text-anchor="start" x="517.92" y="-241.4" font-family="Arial" font-size="14.00" fill="#666666">[table]</text>
<polygon fill="none" stroke="black" points="432.12,-197.2 432.12,-228 573.72,-228 573.72,-197.2 432.12,-197.2"/>
<text text-anchor="start" x="439.12" y="-209.4" font-family="Arial" font-size="14.00">id </text>
<text text-anchor="start" x="453.9" y="-209.4" font-family="Arial" font-size="14.00" fill="#666666">[INTEGER]</text>
<polygon fill="none" stroke="black" points="432.12,-166.4 432.12,-197.2 573.72,-197.2 573.72,-166.4 432.12,-166.4"/>
<text text-anchor="start" x="439.12" y="-178.6" font-family="Arial" font-size="14.00">user_id </text>
<text text-anchor="start" x="488.92" y="-178.6" font-family="Arial" font-size="14.00" fill="#666666">[INTEGER]</text>
<polygon fill="none" stroke="black" points="432.12,-135.6 432.12,-166.4 573.72,-166.4 573.72,-135.6 432.12,-135.6"/>
<text text-anchor="start" x="439.12" y="-147.8" font-family="Arial" font-size="14.00">title </text>
<text text-anchor="start" x="464.79" y="-147.8" font-family="Arial" font-size="14.00" fill="#666666">[TEXT]</text>
<polygon fill="none" stroke="black" points="432.12,-104.8 432.12,-135.6 573.72,-135.6 573.72,-104.8 432.12,-104.8"/>
<text text-anchor="start" x="439.12" y="-117" font-family="Arial" font-size="14.00">body </text>
<text text-anchor="start" x="473.37" y="-117" font-family="Arial" font-size="14.00" fill="#666666">[TEXT]</text>
<polygon fill="none" stroke="black" points="432.12,-74 432.12,-104.8 573.72,-104.8 573.72,-74 432.12,-74"/>
<text text-anchor="start" x="439.12" y="-86.2" font-family="Arial" font-size="14.00">created </text>
<text text-anchor="start" x="489.7" y="-86.2" font-family="Arial" font-size="14.00" fill="#666666">[NUMERIC]</text>
<polygon fill="none" stroke="black" points="432.12,-43.2 432.12,-74 573.72,-74 573.72,-43.2 432.12,-43.2"/>
<text text-anchor="start" x="439.12" y="-55.4" font-family="Arial" font-size="14.00">updated </text>
<text text-anchor="start" x="493.61" y="-55.4" font-family="Arial" font-size="14.00" fill="#666666">[NUMERIC]</text>
</g>
<!-- comments&#45;&gt;posts -->
<g id="edge2" class="edge">
<title>comments:post_id&#45;&gt;posts:id</title>
<path fill="none" stroke="black" d="M536.06,-526.97C469.25,-518.06 522.68,-417.28 547.3,-342.8 553.53,-323.96 567.44,-325.63 573.72,-306.8 586.97,-267.08 616.59,-212.6 574.72,-212.6"/>
<polygon fill="black" stroke="black" points="535.99,-526.96 545.69,-532.07 541.31,-527.29 545.63,-527.56 545.63,-527.56 545.63,-527.56 541.31,-527.29 546.24,-523.09 535.99,-526.96"/>
<text text-anchor="start" x="7" y="-537.6" font-family="Arial" font-size="10.00">FOREIGN KEY (post_id) REFERENCES posts (id) ON UPDATE NO ACTION ON DELETE NO ACTION MATCH NONE</text>
</g>
<!-- users -->
<g id="node5" class="node">
<title>users</title>
<polygon fill="#efefef" stroke="none" points="678.12,-228 678.12,-263.6 819.72,-263.6 819.72,-228 678.12,-228"/>
<polygon fill="none" stroke="black" points="678.12,-228 678.12,-263.6 819.72,-263.6 819.72,-228 678.12,-228"/>
<text text-anchor="start" x="695.8" y="-241.4" font-family="Arial Bold" font-size="18.00">users</text>
<text text-anchor="start" x="732.79" y="-241.4" font-family="Arial" font-size="14.00">    </text>
<text text-anchor="start" x="763.91" y="-241.4" font-family="Arial" font-size="14.00" fill="#666666">[table]</text>
<polygon fill="none" stroke="black" points="678.12,-197.2 678.12,-228 819.72,-228 819.72,-197.2 678.12,-197.2"/>
<text text-anchor="start" x="685.12" y="-209.4" font-family="Arial" font-size="14.00">id </text>
<text text-anchor="start" x="699.9" y="-209.4" font-family="Arial" font-size="14.00" fill="#666666">[INTEGER]</text>
<polygon fill="none" stroke="black" points="678.12,-166.4 678.12,-197.2 819.72,-197.2 819.72,-166.4 678.12,-166.4"/>
<text text-anchor="start" x="685.12" y="-178.6" font-family="Arial" font-size="14.00">username </text>
<text text-anchor="start" x="751.26" y="-178.6" font-family="Arial" font-size="14.00" fill="#666666">[TEXT]</text>
<polygon fill="none" stroke="black" points="678.12,-135.6 678.12,-166.4 819.72,-166.4 819.72,-135.6 678.12,-135.6"/>
<text text-anchor="start" x="685.12" y="-147.8" font-family="Arial" font-size="14.00">password </text>
<text text-anchor="start" x="748.92" y="-147.8" font-family="Arial" font-size="14.00" fill="#666666">[TEXT]</text>
<polygon fill="none" stroke="black" points="678.12,-104.8 678.12,-135.6 819.72,-135.6 819.72,-104.8 678.12,-104.8"/>
<text text-anchor="start" x="685.12" y="-117" font-family="Arial" font-size="14.00">email </text>
<text text-anchor="start" x="722.46" y="-117" font-family="Arial" font-size="14.00" fill="#666666">[TEXT]</text>
<polygon fill="none" stroke="black" points="678.12,-74 678.12,-104.8 819.72,-104.8 819.72,-74 678.12,-74"/>
<text text-anchor="start" x="685.12" y="-86.2" font-family="Arial" font-size="14.00">created </text>
<text text-anchor="start" x="735.7" y="-86.2" font-family="Arial" font-size="14.00" fill="#666666">[NUMERIC]</text>
<polygon fill="none" stroke="black" points="678.12,-43.2 678.12,-74 819.72,-74 819.72,-43.2 678.12,-43.2"/>
<text text-anchor="start" x="685.12" y="-55.4" font-family="Arial" font-size="14.00">updated </text>
<text text-anchor="start" x="739.61" y="-55.4" font-family="Arial" font-size="14.00" fill="#666666">[NUMERIC]</text>
</g>
<!-- comments&#45;&gt;users -->
<g id="edge4" class="edge">
<title>comments:user_id&#45;&gt;users:id</title>
<path fill="none" stroke="black" d="M715.75,-496.02C768.82,-487.13 724.88,-404.22 704.54,-342.8 698.3,-323.96 684.4,-325.63 678.12,-306.8 664.87,-267.08 635.25,-212.6 677.12,-212.6"/>
<polygon fill="black" stroke="black" points="715.85,-496.01 705.53,-492.29 710.53,-496.42 706.21,-496.75 706.21,-496.75 706.21,-496.75 710.53,-496.42 706.22,-501.26 715.85,-496.01"/>
<text text-anchor="start" x="712.54" y="-506.8" font-family="Arial" font-size="10.00">FOREIGN KEY (user_id) REFERENCES users (id) ON UPDATE NO ACTION ON DELETE NO ACTION MATCH NONE</text>
</g>
<!-- logs -->
<g id="node2" class="node">
<title>logs</title>
<polygon fill="#efefef" stroke="none" points="377.28,-950.4 377.28,-986 572.56,-986 572.56,-950.4 377.28,-950.4"/>
<polygon fill="none" stroke="black" points="377.28,-950.4 377.28,-986 572.56,-986 572.56,-950.4 377.28,-950.4"/>
<text text-anchor="start" x="425.29" y="-963.8" font-family="Arial Bold" font-size="18.00">logs</text>
<text text-anchor="start" x="455.3" y="-963.8" font-family="Arial" font-size="14.00">    </text>
<text text-anchor="start" x="486.41" y="-963.8" font-family="Arial" font-size="14.00" fill="#666666">[table]</text>
<polygon fill="none" stroke="black" points="377.28,-919.6 377.28,-950.4 572.56,-950.4 572.56,-919.6 377.28,-919.6"/>
<text text-anchor="start" x="384.28" y="-931.8" font-family="Arial" font-size="14.00">id </text>
<text text-anchor="start" x="399.07" y="-931.8" font-family="Arial" font-size="14.00" fill="#666666">[INTEGER]</text>
<polygon fill="none" stroke="black" points="377.28,-888.8 377.28,-919.6 572.56,-919.6 572.56,-888.8 377.28,-888.8"/>
<text text-anchor="start" x="384.28" y="-901" font-family="Arial" font-size="14.00">user_id </text>
<text text-anchor="start" x="434.09" y="-901" font-family="Arial" font-size="14.00" fill="#666666">[INTEGER]</text>
<polygon fill="none" stroke="black" points="377.28,-858 377.28,-888.8 572.56,-888.8 572.56,-858 377.28,-858"/>
<text text-anchor="start" x="384.28" y="-870.2" font-family="Arial" font-size="14.00">post_id </text>
<text text-anchor="start" x="433.32" y="-870.2" font-family="Arial" font-size="14.00" fill="#666666">[INTEGER]</text>
<polygon fill="none" stroke="black" points="377.28,-827.2 377.28,-858 572.56,-858 572.56,-827.2 377.28,-827.2"/>
<text text-anchor="start" x="384.28" y="-839.4" font-family="Arial" font-size="14.00">comment_id </text>
<text text-anchor="start" x="464.43" y="-839.4" font-family="Arial" font-size="14.00" fill="#666666">[INTEGER]</text>
<polygon fill="none" stroke="black" points="377.28,-796.4 377.28,-827.2 572.56,-827.2 572.56,-796.4 377.28,-796.4"/>
<text text-anchor="start" x="384.28" y="-808.6" font-family="Arial" font-size="14.00">comment_star_id </text>
<text text-anchor="start" x="495.55" y="-808.6" font-family="Arial" font-size="14.00" fill="#666666">[INTEGER]</text>
<polygon fill="none" stroke="black" points="377.28,-765.6 377.28,-796.4 572.56,-796.4 572.56,-765.6 377.28,-765.6"/>
<text text-anchor="start" x="384.28" y="-777.8" font-family="Arial" font-size="14.00">payload </text>
<text text-anchor="start" x="437.21" y="-777.8" font-family="Arial" font-size="14.00" fill="#666666">[TEXT]</text>
<polygon fill="none" stroke="black" points="377.28,-734.8 377.28,-765.6 572.56,-765.6 572.56,-734.8 377.28,-734.8"/>
<text text-anchor="start" x="384.28" y="-747" font-family="Arial" font-size="14.00">created </text>
<text text-anchor="start" x="434.87" y="-747" font-family="Arial" font-size="14.00" fill="#666666">[NUMERIC]</text>
</g>
<!-- logs&#45;&gt;comments -->
<g id="edge1" class="edge">
<title>logs:comment_id&#45;&gt;comments:id</title>
<path fill="none" stroke="black" stroke-dasharray="5,2" d="M583.88,-841.78C635.36,-832.81 591.82,-751.91 572.56,-691.6 566.61,-672.98 553.28,-674.21 547.3,-655.6 534.08,-614.47 503.1,-558.4 546.3,-558.4"/>
<polygon fill="black" stroke="black" points="583.86,-841.78 573.54,-838.09 578.54,-842.21 574.22,-842.55 574.22,-842.55 574.22,-842.55 578.54,-842.21 574.25,-847.06 583.86,-841.78"/>
<text text-anchor="start" x="580.56" y="-852.6" font-family="Arial" font-size="10.00">Additional Relation</text>
</g>
<!-- comment_stars -->
<g id="node4" class="node">
<title>comment_stars</title>
<polygon fill="#efefef" stroke="none" points="677.33,-935 677.33,-970.6 876.51,-970.6 876.51,-935 677.33,-935"/>
<polygon fill="none" stroke="black" points="677.33,-935 677.33,-970.6 876.51,-970.6 876.51,-935 677.33,-935"/>
<text text-anchor="start" x="687.81" y="-948.4" font-family="Arial Bold" font-size="18.00">comment_stars</text>
<text text-anchor="start" x="796.78" y="-948.4" font-family="Arial" font-size="14.00">    </text>
<text text-anchor="start" x="827.9" y="-948.4" font-family="Arial" font-size="14.00" fill="#666666">[table]</text>
<polygon fill="none" stroke="black" points="677.33,-904.2 677.33,-935 876.51,-935 876.51,-904.2 677.33,-904.2"/>
<text text-anchor="start" x="684.33" y="-916.4" font-family="Arial" font-size="14.00">id </text>
<text text-anchor="start" x="699.12" y="-916.4" font-family="Arial" font-size="14.00" fill="#666666">[INTEGER]</text>
<polygon fill="none" stroke="black" points="677.33,-873.4 677.33,-904.2 876.51,-904.2 876.51,-873.4 677.33,-873.4"/>
<text text-anchor="start" x="684.33" y="-885.6" font-family="Arial" font-size="14.00">user_id </text>
<text text-anchor="start" x="734.14" y="-885.6" font-family="Arial" font-size="14.00" fill="#666666">[INTEGER]</text>
<polygon fill="none" stroke="black" points="677.33,-842.6 677.33,-873.4 876.51,-873.4 876.51,-842.6 677.33,-842.6"/>
<text text-anchor="start" x="684.33" y="-854.8" font-family="Arial" font-size="14.00">comment_post_id </text>
<text text-anchor="start" x="798.73" y="-854.8" font-family="Arial" font-size="14.00" fill="#666666">[INTEGER]</text>
<polygon fill="none" stroke="black" points="677.33,-811.8 677.33,-842.6 876.51,-842.6 876.51,-811.8 677.33,-811.8"/>
<text text-anchor="start" x="684.33" y="-824" font-family="Arial" font-size="14.00">comment_user_id </text>
<text text-anchor="start" x="799.5" y="-824" font-family="Arial" font-size="14.00" fill="#666666">[INTEGER]</text>
<polygon fill="none" stroke="black" points="677.33,-781 677.33,-811.8 876.51,-811.8 876.51,-781 677.33,-781"/>
<text text-anchor="start" x="684.33" y="-793.2" font-family="Arial" font-size="14.00">created </text>
<text text-anchor="start" x="734.92" y="-793.2" font-family="Arial" font-size="14.00" fill="#666666">[NUMERIC]</text>
<polygon fill="none" stroke="black" points="677.33,-750.2 677.33,-781 876.51,-781 876.51,-750.2 677.33,-750.2"/>
<text text-anchor="start" x="684.33" y="-762.4" font-family="Arial" font-size="14.00">updated </text>
<text text-anchor="start" x="738.83" y="-762.4" font-family="Arial" font-size="14.00" fill="#666666">[NUMERIC]</text>
</g>
<!-- comment_stars&#45;&gt;comments -->
<g id="edge3" class="edge">
<title>comment_stars:comment_post_id&#45;&gt;comments:post_id</title>
<path fill="none" stroke="black" d="M666.05,-857.19C614.97,-848.33 661.87,-768.39 677.33,-707 683.65,-681.94 698.21,-680.66 704.54,-655.6 718.47,-600.44 762.43,-527.6 705.54,-527.6"/>
<polygon fill="black" stroke="black" points="666.03,-857.19 675.65,-862.46 671.35,-857.61 675.67,-857.95 675.67,-857.95 675.67,-857.95 671.35,-857.61 676.35,-853.49 666.03,-857.19"/>
<text text-anchor="start" x="683.33" y="-868" font-family="Arial" font-size="10.00">FOREIGN KEY (comment_post_id, comment_user_id) REFERENCES comments (post_id, user_id) ON UPDATE NO ACTION ON DELETE NO ACTION MATCH NONE</text>
</g>
</g>
</svg>
