<?xml version="1.0" encoding="UTF-8" standalone="no"?>
<!DOCTYPE svg PUBLIC "-//W3C//DTD SVG 1.1//EN"
 "http://www.w3.org/Graphics/SVG/1.1/DTD/svg11.dtd">
<!-- Generated by graphviz version 2.40.1 (20161225.0304)
 -->
<!-- Title: testdb.sqlite3 Pages: 1 -->
<svg width="2676pt" height="1687pt"
 viewBox="0.00 0.00 2675.50 1687.00" xmlns="http://www.w3.org/2000/svg" xmlns:xlink="http://www.w3.org/1999/xlink">
<g id="graph0" class="graph" transform="scale(1 1) rotate(0) translate(4 1683)">
<title>testdb.sqlite3</title>
<polygon fill="#ffffff" stroke="transparent" points="-4,4 -4,-1683 2671.5,-1683 2671.5,4 -4,4"/>
<!-- users -->
<g id="node1" class="node">
<title>users</title>
<polygon fill="#efefef" stroke="transparent" points="686,-222.5 686,-257.5 827,-257.5 827,-222.5 686,-222.5"/>
<polygon fill="none" stroke="#000000" points="686,-222.5 686,-257.5 827,-257.5 827,-222.5 686,-222.5"/>
<text text-anchor="start" x="698.3322" y="-235.3" font-family="Arial Bold" font-size="18.00" fill="#000000">users</text>
<text text-anchor="start" x="742.3368" y="-235.3" font-family="Arial" font-size="14.00" fill="#000000">    </text>
<text text-anchor="start" x="776.5416" y="-235.3" font-family="Arial" font-size="14.00" fill="#666666">[table]</text>
<polygon fill="none" stroke="#000000" points="686,-192.5 686,-222.5 827,-222.5 827,-192.5 686,-192.5"/>
<text text-anchor="start" x="693" y="-203.9" font-family="Arial" font-size="14.00" fill="#000000">id </text>
<text text-anchor="start" x="707.7798" y="-203.9" font-family="Arial" font-size="14.00" fill="#666666">[INTEGER]</text>
<polygon fill="none" stroke="#000000" points="686,-162.5 686,-192.5 827,-192.5 827,-162.5 686,-162.5"/>
<text text-anchor="start" x="693" y="-173.9" font-family="Arial" font-size="14.00" fill="#000000">username </text>
<text text-anchor="start" x="759.1248" y="-173.9" font-family="Arial" font-size="14.00" fill="#666666">[TEXT]</text>
<polygon fill="none" stroke="#000000" points="686,-132.5 686,-162.5 827,-162.5 827,-132.5 686,-132.5"/>
<text text-anchor="start" x="693" y="-143.9" font-family="Arial" font-size="14.00" fill="#000000">password </text>
<text text-anchor="start" x="756.7882" y="-143.9" font-family="Arial" font-size="14.00" fill="#666666">[TEXT]</text>
<polygon fill="none" stroke="#000000" points="686,-102.5 686,-132.5 827,-132.5 827,-102.5 686,-102.5"/>
<text text-anchor="start" x="693" y="-113.9" font-family="Arial" font-size="14.00" fill="#000000">email </text>
<text text-anchor="start" x="730.3296" y="-113.9" font-family="Arial" font-size="14.00" fill="#666666">[TEXT]</text>
<polygon fill="none" stroke="#000000" points="686,-72.5 686,-102.5 827,-102.5 827,-72.5 686,-72.5"/>
<text text-anchor="start" x="693" y="-83.9" font-family="Arial" font-size="14.00" fill="#000000">created </text>
<text text-anchor="start" x="743.5722" y="-83.9" font-family="Arial" font-size="14.00" fill="#666666">[NUMERIC]</text>
<polygon fill="none" stroke="#000000" points="686,-42.5 686,-72.5 827,-72.5 827,-42.5 686,-42.5"/>
<text text-anchor="start" x="692.7139" y="-53.9" font-family="Arial" font-size="14.00" fill="#000000">updated </text>
<text text-anchor="start" x="747.1907" y="-53.9" font-family="Arial" font-size="14.00" fill="#666666">[NUMERIC]</text>
</g>
<!-- user_options -->
<g id="node2" class="node">
<title>user_options</title>
<polygon fill="#efefef" stroke="transparent" points="354,-529.5 354,-564.5 543,-564.5 543,-529.5 354,-529.5"/>
<polygon fill="none" stroke="#000000" points="354,-529.5 354,-564.5 543,-564.5 543,-529.5 354,-529.5"/>
<text text-anchor="start" x="360.8185" y="-542.3" font-family="Arial Bold" font-size="18.00" fill="#000000">user_options</text>
<text text-anchor="start" x="463.8505" y="-542.3" font-family="Arial" font-size="14.00" fill="#000000">    </text>
<text text-anchor="start" x="498.0553" y="-542.3" font-family="Arial" font-size="14.00" fill="#666666">[table]</text>
<polygon fill="none" stroke="#000000" points="354,-499.5 354,-529.5 543,-529.5 543,-499.5 354,-499.5"/>
<text text-anchor="start" x="361" y="-510.9" font-family="Arial" font-size="14.00" fill="#000000">user_id </text>
<text text-anchor="start" x="410.7882" y="-510.9" font-family="Arial" font-size="14.00" fill="#666666">[INTEGER]</text>
<polygon fill="none" stroke="#000000" points="354,-469.5 354,-499.5 543,-499.5 543,-469.5 354,-469.5"/>
<text text-anchor="start" x="361" y="-480.9" font-family="Arial" font-size="14.00" fill="#000000">show_email </text>
<text text-anchor="start" x="438.784" y="-480.9" font-family="Arial" font-size="14.00" fill="#666666">[INTEGER]</text>
<polygon fill="none" stroke="#000000" points="354,-439.5 354,-469.5 543,-469.5 543,-439.5 354,-439.5"/>
<text text-anchor="start" x="361" y="-450.9" font-family="Arial" font-size="14.00" fill="#000000">created </text>
<text text-anchor="start" x="411.5722" y="-450.9" font-family="Arial" font-size="14.00" fill="#666666">[NUMERIC]</text>
<polygon fill="none" stroke="#000000" points="354,-409.5 354,-439.5 543,-439.5 543,-409.5 354,-409.5"/>
<text text-anchor="start" x="361" y="-420.9" font-family="Arial" font-size="14.00" fill="#000000">updated </text>
<text text-anchor="start" x="415.4768" y="-420.9" font-family="Arial" font-size="14.00" fill="#666666">[NUMERIC]</text>
</g>
<!-- user_options&#45;&gt;users -->
<g id="edge1" class="edge">
<title>user_options:user_id&#45;&gt;users:id</title>
<path fill="none" stroke="#000000" d="M553.3126,-513.8893C620.5031,-505.3176 565.6881,-408.3091 600,-337 629.9571,-274.7413 616.9089,-207.5 686,-207.5"/>
<polygon fill="#000000" stroke="#000000" points="552.9825,-513.9088 542.7339,-510.0079 547.9913,-514.2044 543,-514.5 543,-514.5 543,-514.5 547.9913,-514.2044 543.2661,-518.9921 552.9825,-513.9088 552.9825,-513.9088"/>
<text text-anchor="start" x="9.9495" y="-524.5" font-family="Arial" font-size="10.00" fill="#000000">FOREIGN KEY (user_id) REFERENCES users (id) ON UPDATE NO ACTION ON DELETE CASCADE MATCH NONE</text>
</g>
<!-- posts -->
<g id="node3" class="node">
<title>posts</title>
<polygon fill="#efefef" stroke="transparent" points="686,-559.5 686,-594.5 827,-594.5 827,-559.5 686,-559.5"/>
<polygon fill="none" stroke="#000000" points="686,-559.5 686,-594.5 827,-594.5 827,-559.5 686,-559.5"/>
<text text-anchor="start" x="698.8272" y="-572.3" font-family="Arial Bold" font-size="18.00" fill="#000000">posts</text>
<text text-anchor="start" x="741.8418" y="-572.3" font-family="Arial" font-size="14.00" fill="#000000">    </text>
<text text-anchor="start" x="776.0466" y="-572.3" font-family="Arial" font-size="14.00" fill="#666666">[table]</text>
<polygon fill="none" stroke="#000000" points="686,-529.5 686,-559.5 827,-559.5 827,-529.5 686,-529.5"/>
<text text-anchor="start" x="693" y="-540.9" font-family="Arial" font-size="14.00" fill="#000000">id </text>
<text text-anchor="start" x="707.7798" y="-540.9" font-family="Arial" font-size="14.00" fill="#666666">[INTEGER]</text>
<polygon fill="none" stroke="#000000" points="686,-499.5 686,-529.5 827,-529.5 827,-499.5 686,-499.5"/>
<text text-anchor="start" x="693" y="-510.9" font-family="Arial" font-size="14.00" fill="#000000">user_id </text>
<text text-anchor="start" x="742.7882" y="-510.9" font-family="Arial" font-size="14.00" fill="#666666">[INTEGER]</text>
<polygon fill="none" stroke="#000000" points="686,-469.5 686,-499.5 827,-499.5 827,-469.5 686,-469.5"/>
<text text-anchor="start" x="693" y="-480.9" font-family="Arial" font-size="14.00" fill="#000000">title </text>
<text text-anchor="start" x="718.6676" y="-480.9" font-family="Arial" font-size="14.00" fill="#666666">[TEXT]</text>
<polygon fill="none" stroke="#000000" points="686,-439.5 686,-469.5 827,-469.5 827,-439.5 686,-439.5"/>
<text text-anchor="start" x="693" y="-450.9" font-family="Arial" font-size="14.00" fill="#000000">body </text>
<text text-anchor="start" x="727.2384" y="-450.9" font-family="Arial" font-size="14.00" fill="#666666">[TEXT]</text>
<polygon fill="none" stroke="#000000" points="686,-409.5 686,-439.5 827,-439.5 827,-409.5 686,-409.5"/>
<text text-anchor="start" x="693" y="-420.9" font-family="Arial" font-size="14.00" fill="#000000">created </text>
<text text-anchor="start" x="743.5722" y="-420.9" font-family="Arial" font-size="14.00" fill="#666666">[NUMERIC]</text>
<polygon fill="none" stroke="#000000" points="686,-379.5 686,-409.5 827,-409.5 827,-379.5 686,-379.5"/>
<text text-anchor="start" x="692.7139" y="-390.9" font-family="Arial" font-size="14.00" fill="#000000">updated </text>
<text text-anchor="start" x="747.1907" y="-390.9" font-family="Arial" font-size="14.00" fill="#666666">[NUMERIC]</text>
</g>
<!-- posts&#45;&gt;users -->
<g id="edge2" class="edge">
<title>posts:user_id&#45;&gt;users:id</title>
<path fill="none" stroke="#000000" d="M676.1346,-512.2054C617.9537,-484.112 621.2422,-207.5 686,-207.5"/>
<polygon fill="#000000" stroke="#000000" points="676.26,-512.2345 684.9805,-518.883 681.13,-513.3672 686,-514.5 686,-514.5 686,-514.5 681.13,-513.3672 687.0195,-510.117 676.26,-512.2345 676.26,-512.2345"/>
<text text-anchor="start" x="692.9495" y="-524.5" font-family="Arial" font-size="10.00" fill="#000000">FOREIGN KEY (user_id) REFERENCES users (id) ON UPDATE NO ACTION ON DELETE CASCADE MATCH NONE</text>
</g>
<!-- comments -->
<g id="node4" class="node">
<title>comments</title>
<polygon fill="#efefef" stroke="transparent" points="724,-896.5 724,-931.5 893,-931.5 893,-896.5 724,-896.5"/>
<polygon fill="none" stroke="#000000" points="724,-896.5 724,-931.5 893,-931.5 893,-896.5 724,-896.5"/>
<text text-anchor="start" x="730.8319" y="-909.3" font-family="Arial Bold" font-size="18.00" fill="#000000">comments</text>
<text text-anchor="start" x="813.8371" y="-909.3" font-family="Arial" font-size="14.00" fill="#000000">    </text>
<text text-anchor="start" x="848.0419" y="-909.3" font-family="Arial" font-size="14.00" fill="#666666">[table]</text>
<polygon fill="none" stroke="#000000" points="724,-866.5 724,-896.5 893,-896.5 893,-866.5 724,-866.5"/>
<text text-anchor="start" x="731" y="-877.9" font-family="Arial" font-size="14.00" fill="#000000">id </text>
<text text-anchor="start" x="745.7798" y="-877.9" font-family="Arial" font-size="14.00" fill="#666666">[INTEGER]</text>
<polygon fill="none" stroke="#000000" points="724,-836.5 724,-866.5 893,-866.5 893,-836.5 724,-836.5"/>
<text text-anchor="start" x="731" y="-847.9" font-family="Arial" font-size="14.00" fill="#000000">post_id </text>
<text text-anchor="start" x="780.0182" y="-847.9" font-family="Arial" font-size="14.00" fill="#666666">[INTEGER]</text>
<polygon fill="none" stroke="#000000" points="724,-806.5 724,-836.5 893,-836.5 893,-806.5 724,-806.5"/>
<text text-anchor="start" x="731" y="-817.9" font-family="Arial" font-size="14.00" fill="#000000">user_id </text>
<text text-anchor="start" x="780.7882" y="-817.9" font-family="Arial" font-size="14.00" fill="#666666">[INTEGER]</text>
<polygon fill="none" stroke="#000000" points="724,-776.5 724,-806.5 893,-806.5 893,-776.5 724,-776.5"/>
<text text-anchor="start" x="731" y="-787.9" font-family="Arial" font-size="14.00" fill="#000000">comment </text>
<text text-anchor="start" x="792.4502" y="-787.9" font-family="Arial" font-size="14.00" fill="#666666">[TEXT]</text>
<polygon fill="none" stroke="#000000" points="724,-746.5 724,-776.5 893,-776.5 893,-746.5 724,-746.5"/>
<text text-anchor="start" x="731" y="-757.9" font-family="Arial" font-size="14.00" fill="#000000">created </text>
<text text-anchor="start" x="781.5722" y="-757.9" font-family="Arial" font-size="14.00" fill="#666666">[NUMERIC]</text>
<polygon fill="none" stroke="#000000" points="724,-716.5 724,-746.5 893,-746.5 893,-716.5 724,-716.5"/>
<text text-anchor="start" x="731" y="-727.9" font-family="Arial" font-size="14.00" fill="#000000">updated </text>
<text text-anchor="start" x="785.4768" y="-727.9" font-family="Arial" font-size="14.00" fill="#666666">[NUMERIC]</text>
</g>
<!-- comments&#45;&gt;users -->
<g id="edge3" class="edge">
<title>comments:user_id&#45;&gt;users:id</title>
<path fill="none" stroke="#000000" d="M902.1036,-817.2513C955.1637,-763.003 892.2649,-207.5 827,-207.5"/>
<polygon fill="#000000" stroke="#000000" points="902.0617,-817.2708 891.0969,-817.4222 897.5308,-819.3854 893,-821.5 893,-821.5 893,-821.5 897.5308,-819.3854 894.9031,-825.5778 902.0617,-817.2708 902.0617,-817.2708"/>
<text text-anchor="start" x="900.3405" y="-831.5" font-family="Arial" font-size="10.00" fill="#000000">FOREIGN KEY (user_id) REFERENCES users (id) ON UPDATE NO ACTION ON DELETE NO ACTION MATCH NONE</text>
</g>
<!-- comments&#45;&gt;posts -->
<g id="edge4" class="edge">
<title>comments:post_id&#45;&gt;posts:id</title>
<path fill="none" stroke="#000000" d="M713.635,-850.7707C648.2534,-840.9977 680.4782,-735.315 724,-674 752.0688,-634.4557 798.9312,-677.5443 827,-638 851.0531,-604.1132 868.5556,-544.5 827,-544.5"/>
<polygon fill="#000000" stroke="#000000" points="714.0247,-850.798 723.6841,-855.9889 719.0123,-851.149 724,-851.5 724,-851.5 724,-851.5 719.0123,-851.149 724.3159,-847.0111 714.0247,-850.798 714.0247,-850.798"/>
<text text-anchor="start" x="184.8905" y="-861.5" font-family="Arial" font-size="10.00" fill="#000000">FOREIGN KEY (post_id) REFERENCES posts (id) ON UPDATE NO ACTION ON DELETE NO ACTION MATCH NONE</text>
</g>
<!-- comment_stars -->
<g id="node5" class="node">
<title>comment_stars</title>
<polygon fill="#efefef" stroke="transparent" points="762,-1233.5 762,-1268.5 971,-1268.5 971,-1233.5 762,-1233.5"/>
<polygon fill="none" stroke="#000000" points="762,-1233.5 762,-1268.5 971,-1268.5 971,-1233.5 762,-1233.5"/>
<text text-anchor="start" x="768.8285" y="-1246.3" font-family="Arial Bold" font-size="18.00" fill="#000000">comment_stars</text>
<text text-anchor="start" x="891.8405" y="-1246.3" font-family="Arial" font-size="14.00" fill="#000000">    </text>
<text text-anchor="start" x="926.0453" y="-1246.3" font-family="Arial" font-size="14.00" fill="#666666">[table]</text>
<polygon fill="none" stroke="#000000" points="762,-1203.5 762,-1233.5 971,-1233.5 971,-1203.5 762,-1203.5"/>
<text text-anchor="start" x="769" y="-1214.9" font-family="Arial" font-size="14.00" fill="#000000">id </text>
<text text-anchor="start" x="783.7798" y="-1214.9" font-family="Arial" font-size="14.00" fill="#666666">[INTEGER]</text>
<polygon fill="none" stroke="#000000" points="762,-1173.5 762,-1203.5 971,-1203.5 971,-1173.5 762,-1173.5"/>
<text text-anchor="start" x="769" y="-1184.9" font-family="Arial" font-size="14.00" fill="#000000">user_id </text>
<text text-anchor="start" x="818.7882" y="-1184.9" font-family="Arial" font-size="14.00" fill="#666666">[INTEGER]</text>
<polygon fill="none" stroke="#000000" points="762,-1143.5 762,-1173.5 971,-1173.5 971,-1143.5 762,-1143.5"/>
<text text-anchor="start" x="769" y="-1154.9" font-family="Arial" font-size="14.00" fill="#000000">comment_post_id </text>
<text text-anchor="start" x="883.3604" y="-1154.9" font-family="Arial" font-size="14.00" fill="#666666">[INTEGER]</text>
<polygon fill="none" stroke="#000000" points="762,-1113.5 762,-1143.5 971,-1143.5 971,-1113.5 762,-1113.5"/>
<text text-anchor="start" x="769" y="-1124.9" font-family="Arial" font-size="14.00" fill="#000000">comment_user_id </text>
<text text-anchor="start" x="884.1304" y="-1124.9" font-family="Arial" font-size="14.00" fill="#666666">[INTEGER]</text>
<polygon fill="none" stroke="#000000" points="762,-1083.5 762,-1113.5 971,-1113.5 971,-1083.5 762,-1083.5"/>
<text text-anchor="start" x="769" y="-1094.9" font-family="Arial" font-size="14.00" fill="#000000">created </text>
<text text-anchor="start" x="819.5722" y="-1094.9" font-family="Arial" font-size="14.00" fill="#666666">[NUMERIC]</text>
<polygon fill="none" stroke="#000000" points="762,-1053.5 762,-1083.5 971,-1083.5 971,-1053.5 762,-1053.5"/>
<text text-anchor="start" x="769" y="-1064.9" font-family="Arial" font-size="14.00" fill="#000000">updated </text>
<text text-anchor="start" x="823.4768" y="-1064.9" font-family="Arial" font-size="14.00" fill="#666666">[NUMERIC]</text>
</g>
<!-- comment_stars&#45;&gt;users -->
<g id="edge5" class="edge">
<title>comment_stars:comment_user_id&#45;&gt;users:id</title>
<path fill="none" stroke="#000000" d="M981.202,-1128.3107C1382.8971,-1113.2734 1237.8673,-207.5 827,-207.5"/>
<polygon fill="#000000" stroke="#000000" points="980.9983,-1128.3144 970.9165,-1124.0008 975.9991,-1128.4072 971,-1128.5 971,-1128.5 971,-1128.5 975.9991,-1128.4072 971.0835,-1132.9992 980.9983,-1128.3144 980.9983,-1128.3144"/>
<text text-anchor="start" x="978.004" y="-1138.5" font-family="Arial" font-size="10.00" fill="#000000">FOREIGN KEY (comment_user_id) REFERENCES users (id) ON UPDATE NO ACTION ON DELETE NO ACTION MATCH NONE</text>
</g>
<!-- comment_stars&#45;&gt;comments -->
<g id="edge6" class="edge">
<title>comment_stars:comment_post_id&#45;&gt;comments:post_id</title>
<path fill="none" stroke="#000000" d="M751.726,-1157.6074C699.4134,-1147.8357 724.5096,-1060.1829 762,-1011 798.6042,-962.9796 856.3958,-1023.0204 893,-975 926.275,-931.3472 947.8889,-851.5 893,-851.5"/>
<polygon fill="#000000" stroke="#000000" points="752.0375,-1157.6343 761.6105,-1162.9831 757.0188,-1158.0672 762,-1158.5 762,-1158.5 762,-1158.5 757.0188,-1158.0672 762.3895,-1154.0169 752.0375,-1157.6343 752.0375,-1157.6343"/>
<text text-anchor="start" x="6.539" y="-1168.5" font-family="Arial" font-size="10.00" fill="#000000">FOREIGN KEY (comment_post_id, comment_user_id) REFERENCES comments (post_id, user_id) ON UPDATE NO ACTION ON DELETE NO ACTION MATCH NONE</text>
</g>
<!-- logs -->
<g id="node6" class="node">
<title>logs</title>
<polygon fill="#efefef" stroke="transparent" points="573,-1600.5 573,-1635.5 768,-1635.5 768,-1600.5 573,-1600.5"/>
<polygon fill="none" stroke="#000000" points="573,-1600.5 573,-1635.5 768,-1635.5 768,-1600.5 573,-1600.5"/>
<text text-anchor="start" x="617.8312" y="-1613.3" font-family="Arial Bold" font-size="18.00" fill="#000000">logs</text>
<text text-anchor="start" x="650.8378" y="-1613.3" font-family="Arial" font-size="14.00" fill="#000000">    </text>
<text text-anchor="start" x="685.0426" y="-1613.3" font-family="Arial" font-size="14.00" fill="#666666">[table]</text>
<polygon fill="none" stroke="#000000" points="573,-1570.5 573,-1600.5 768,-1600.5 768,-1570.5 573,-1570.5"/>
<text text-anchor="start" x="580" y="-1581.9" font-family="Arial" font-size="14.00" fill="#000000">id </text>
<text text-anchor="start" x="594.7798" y="-1581.9" font-family="Arial" font-size="14.00" fill="#666666">[INTEGER]</text>
<polygon fill="none" stroke="#000000" points="573,-1540.5 573,-1570.5 768,-1570.5 768,-1540.5 573,-1540.5"/>
<text text-anchor="start" x="580" y="-1551.9" font-family="Arial" font-size="14.00" fill="#000000">user_id </text>
<text text-anchor="start" x="629.7882" y="-1551.9" font-family="Arial" font-size="14.00" fill="#666666">[INTEGER]</text>
<polygon fill="none" stroke="#000000" points="573,-1510.5 573,-1540.5 768,-1540.5 768,-1510.5 573,-1510.5"/>
<text text-anchor="start" x="580" y="-1521.9" font-family="Arial" font-size="14.00" fill="#000000">post_id </text>
<text text-anchor="start" x="629.0182" y="-1521.9" font-family="Arial" font-size="14.00" fill="#666666">[INTEGER]</text>
<polygon fill="none" stroke="#000000" points="573,-1480.5 573,-1510.5 768,-1510.5 768,-1480.5 573,-1480.5"/>
<text text-anchor="start" x="580" y="-1491.9" font-family="Arial" font-size="14.00" fill="#000000">comment_id </text>
<text text-anchor="start" x="660.122" y="-1491.9" font-family="Arial" font-size="14.00" fill="#666666">[INTEGER]</text>
<polygon fill="none" stroke="#000000" points="573,-1450.5 573,-1480.5 768,-1480.5 768,-1450.5 573,-1450.5"/>
<text text-anchor="start" x="579.8801" y="-1461.9" font-family="Arial" font-size="14.00" fill="#000000">comment_star_id </text>
<text text-anchor="start" x="691.1185" y="-1461.9" font-family="Arial" font-size="14.00" fill="#666666">[INTEGER]</text>
<polygon fill="none" stroke="#000000" points="573,-1420.5 573,-1450.5 768,-1450.5 768,-1420.5 573,-1420.5"/>
<text text-anchor="start" x="580" y="-1431.9" font-family="Arial" font-size="14.00" fill="#000000">payload </text>
<text text-anchor="start" x="632.9102" y="-1431.9" font-family="Arial" font-size="14.00" fill="#666666">[TEXT]</text>
<polygon fill="none" stroke="#000000" points="573,-1390.5 573,-1420.5 768,-1420.5 768,-1390.5 573,-1390.5"/>
<text text-anchor="start" x="580" y="-1401.9" font-family="Arial" font-size="14.00" fill="#000000">created </text>
<text text-anchor="start" x="630.5722" y="-1401.9" font-family="Arial" font-size="14.00" fill="#666666">[NUMERIC]</text>
</g>
<!-- logs&#45;&gt;users -->
<g id="edge7" class="edge">
<title>logs:user_id&#45;&gt;users:id</title>
<path fill="none" stroke="#000000" stroke-dasharray="5,2" d="M563.0085,-1554.9804C487.6367,-1546.5261 570.3738,-1436.5809 573,-1348 579.6696,-1123.0369 583.0344,-556.4455 633,-337 646.8065,-276.3627 623.8107,-207.5 686,-207.5"/>
<polygon fill="#000000" stroke="#000000" points="563.0135,-1554.9805 572.7662,-1559.9939 568.0067,-1555.2403 573,-1555.5 573,-1555.5 573,-1555.5 568.0067,-1555.2403 573.2338,-1551.0061 563.0135,-1554.9805 563.0135,-1554.9805"/>
<text text-anchor="start" x="515.024" y="-1565.5" font-family="Arial" font-size="10.00" fill="#000000">logs&#45;&gt;users</text>
</g>
<!-- logs&#45;&gt;posts -->
<g id="edge8" class="edge">
<title>logs:post_id&#45;&gt;posts:id</title>
<path fill="none" stroke="#000000" stroke-dasharray="5,2" d="M562.9669,-1525.4525C192.9311,-1521.8901 623.7827,-1319.1971 628,-1312 671.237,-1238.2139 600.4791,-544.5 686,-544.5"/>
<polygon fill="#000000" stroke="#000000" points="563.0001,-1525.4525 572.9786,-1529.9999 568.0001,-1525.4763 573,-1525.5 573,-1525.5 573,-1525.5 568.0001,-1525.4763 573.0214,-1521.0001 563.0001,-1525.4525 563.0001,-1525.4525"/>
<text text-anchor="start" x="483.3245" y="-1535.5" font-family="Arial" font-size="10.00" fill="#000000">Additional Relation</text>
</g>
<!-- logs&#45;&gt;comments -->
<g id="edge9" class="edge">
<title>logs:comment_id&#45;&gt;comments:id</title>
<path fill="none" stroke="#000000" stroke-dasharray="5,2" d="M778.2025,-1494.6541C829.7453,-1485.3863 798.0632,-1402.0434 768,-1348 753.2511,-1321.4865 724.7489,-1338.5135 710,-1312 644.9671,-1195.0931 702.8002,-1144.5839 710,-1011 713.1156,-953.193 666.1091,-881.5 724,-881.5"/>
<polygon fill="#000000" stroke="#000000" points="777.9658,-1494.6737 767.6282,-1491.0154 772.9829,-1495.0868 768,-1495.5 768,-1495.5 768,-1495.5 772.9829,-1495.0868 768.3718,-1499.9846 777.9658,-1494.6737 777.9658,-1494.6737"/>
<text text-anchor="start" x="775.3245" y="-1505.5" font-family="Arial" font-size="10.00" fill="#000000">Additional Relation</text>
</g>
<!-- logs&#45;&gt;comment_stars -->
<g id="edge10" class="edge">
<title>logs:comment_star_id&#45;&gt;comment_stars:id</title>
<path fill="none" stroke="#000000" stroke-dasharray="5,2" d="M778.0055,-1464.7501C828.9549,-1456.2051 767.3233,-1376.3207 762,-1312 758.5725,-1270.586 720.4444,-1218.5 762,-1218.5"/>
<polygon fill="#000000" stroke="#000000" points="777.972,-1464.7525 767.6636,-1461.0126 772.986,-1465.1262 768,-1465.5 768,-1465.5 768,-1465.5 772.986,-1465.1262 768.3364,-1469.9874 777.972,-1464.7525 777.972,-1464.7525"/>
<text text-anchor="start" x="775.3245" y="-1475.5" font-family="Arial" font-size="10.00" fill="#000000">Additional Relation</text>
</g>
<!-- post_comments -->
<g id="node7" class="node">
<title>post_comments</title>
<polygon fill="#efefef" stroke="transparent" points="872,-1600.5 872,-1635.5 1083,-1635.5 1083,-1600.5 872,-1600.5"/>
<polygon fill="none" stroke="#000000" points="872,-1600.5 872,-1635.5 1083,-1635.5 1083,-1600.5 872,-1600.5"/>
<text text-anchor="start" x="878.9961" y="-1613.3" font-family="Arial Bold" font-size="18.00" fill="#000000">post_comments</text>
<text text-anchor="start" x="1006.0221" y="-1613.3" font-family="Arial" font-size="14.00" fill="#000000">    </text>
<text text-anchor="start" x="1040.2269" y="-1613.3" font-family="Arial" font-size="14.00" fill="#666666">[view]</text>
<polygon fill="none" stroke="#000000" points="872,-1570.5 872,-1600.5 1083,-1600.5 1083,-1570.5 872,-1570.5"/>
<text text-anchor="start" x="879" y="-1581.9" font-family="Arial" font-size="14.00" fill="#000000">id </text>
<text text-anchor="start" x="893.7798" y="-1581.9" font-family="Arial" font-size="14.00" fill="#666666">[INTEGER]</text>
<polygon fill="none" stroke="#000000" points="872,-1540.5 872,-1570.5 1083,-1570.5 1083,-1540.5 872,-1540.5"/>
<text text-anchor="start" x="879" y="-1551.9" font-family="Arial" font-size="14.00" fill="#000000">title </text>
<text text-anchor="start" x="904.6676" y="-1551.9" font-family="Arial" font-size="14.00" fill="#666666">[TEXT]</text>
<polygon fill="none" stroke="#000000" points="872,-1510.5 872,-1540.5 1083,-1540.5 1083,-1510.5 872,-1510.5"/>
<text text-anchor="start" x="879" y="-1521.9" font-family="Arial" font-size="14.00" fill="#000000">post_user </text>
<text text-anchor="start" x="944.3548" y="-1521.9" font-family="Arial" font-size="14.00" fill="#666666">[TEXT]</text>
<polygon fill="none" stroke="#000000" points="872,-1480.5 872,-1510.5 1083,-1510.5 1083,-1480.5 872,-1480.5"/>
<text text-anchor="start" x="879" y="-1491.9" font-family="Arial" font-size="14.00" fill="#000000">comment </text>
<text text-anchor="start" x="940.4502" y="-1491.9" font-family="Arial" font-size="14.00" fill="#666666">[TEXT]</text>
<polygon fill="none" stroke="#000000" points="872,-1450.5 872,-1480.5 1083,-1480.5 1083,-1450.5 872,-1450.5"/>
<text text-anchor="start" x="879" y="-1461.9" font-family="Arial" font-size="14.00" fill="#000000">comment_user </text>
<text text-anchor="start" x="975.4586" y="-1461.9" font-family="Arial" font-size="14.00" fill="#666666">[TEXT]</text>
<polygon fill="none" stroke="#000000" points="872,-1420.5 872,-1450.5 1083,-1450.5 1083,-1420.5 872,-1420.5"/>
<text text-anchor="start" x="879" y="-1431.9" font-family="Arial" font-size="14.00" fill="#000000">created </text>
<text text-anchor="start" x="929.5722" y="-1431.9" font-family="Arial" font-size="14.00" fill="#666666">[NUMERIC]</text>
<polygon fill="none" stroke="#000000" points="872,-1390.5 872,-1420.5 1083,-1420.5 1083,-1390.5 872,-1390.5"/>
<text text-anchor="start" x="879" y="-1401.9" font-family="Arial" font-size="14.00" fill="#000000">updated </text>
<text text-anchor="start" x="933.4768" y="-1401.9" font-family="Arial" font-size="14.00" fill="#666666">[NUMERIC]</text>
</g>
<!-- CamelizeTable -->
<g id="node8" class="node">
<title>CamelizeTable</title>
<polygon fill="#efefef" stroke="transparent" points="1187,-1525.5 1187,-1560.5 1393,-1560.5 1393,-1525.5 1187,-1525.5"/>
<polygon fill="none" stroke="#000000" points="1187,-1525.5 1187,-1560.5 1393,-1560.5 1393,-1525.5 1187,-1525.5"/>
<text text-anchor="start" x="1193.8333" y="-1538.3" font-family="Arial Bold" font-size="18.00" fill="#000000">CamelizeTable</text>
<text text-anchor="start" x="1313.8357" y="-1538.3" font-family="Arial" font-size="14.00" fill="#000000">    </text>
<text text-anchor="start" x="1348.0405" y="-1538.3" font-family="Arial" font-size="14.00" fill="#666666">[table]</text>
<polygon fill="none" stroke="#000000" points="1187,-1495.5 1187,-1525.5 1393,-1525.5 1393,-1495.5 1187,-1495.5"/>
<text text-anchor="start" x="1194" y="-1506.9" font-family="Arial" font-size="14.00" fill="#000000">id </text>
<text text-anchor="start" x="1208.7798" y="-1506.9" font-family="Arial" font-size="14.00" fill="#666666">[INTEGER]</text>
<polygon fill="none" stroke="#000000" points="1187,-1465.5 1187,-1495.5 1393,-1495.5 1393,-1465.5 1187,-1465.5"/>
<text text-anchor="start" x="1194" y="-1476.9" font-family="Arial" font-size="14.00" fill="#000000">created </text>
<text text-anchor="start" x="1244.5722" y="-1476.9" font-family="Arial" font-size="14.00" fill="#666666">[NUMERIC]</text>
</g>
<!-- hyphen&#45;table -->
<g id="node9" class="node">
<title>hyphen&#45;table</title>
<polygon fill="#efefef" stroke="transparent" points="1497,-1540.5 1497,-1575.5 1687,-1575.5 1687,-1540.5 1497,-1540.5"/>
<polygon fill="none" stroke="#000000" points="1497,-1540.5 1497,-1575.5 1687,-1575.5 1687,-1540.5 1497,-1540.5"/>
<text text-anchor="start" x="1503.8154" y="-1553.3" font-family="Arial Bold" font-size="18.00" fill="#000000">hyphen&#45;table</text>
<text text-anchor="start" x="1607.8536" y="-1553.3" font-family="Arial" font-size="14.00" fill="#000000">    </text>
<text text-anchor="start" x="1642.0584" y="-1553.3" font-family="Arial" font-size="14.00" fill="#666666">[table]</text>
<polygon fill="none" stroke="#000000" points="1497,-1510.5 1497,-1540.5 1687,-1540.5 1687,-1510.5 1497,-1510.5"/>
<text text-anchor="start" x="1504" y="-1521.9" font-family="Arial" font-size="14.00" fill="#000000">id </text>
<text text-anchor="start" x="1518.7798" y="-1521.9" font-family="Arial" font-size="14.00" fill="#666666">[INTEGER]</text>
<polygon fill="none" stroke="#000000" points="1497,-1480.5 1497,-1510.5 1687,-1510.5 1687,-1480.5 1497,-1480.5"/>
<text text-anchor="start" x="1504" y="-1491.9" font-family="Arial" font-size="14.00" fill="#000000">hyphen&#45;column </text>
<text text-anchor="start" x="1603.5792" y="-1491.9" font-family="Arial" font-size="14.00" fill="#666666">[TEXT]</text>
<polygon fill="none" stroke="#000000" points="1497,-1450.5 1497,-1480.5 1687,-1480.5 1687,-1450.5 1497,-1450.5"/>
<text text-anchor="start" x="1504" y="-1461.9" font-family="Arial" font-size="14.00" fill="#000000">created </text>
<text text-anchor="start" x="1554.5722" y="-1461.9" font-family="Arial" font-size="14.00" fill="#666666">[NUMERIC]</text>
</g>
<!-- check_constraints -->
<g id="node10" class="node">
<title>check_constraints</title>
<polygon fill="#efefef" stroke="transparent" points="1791,-1585.5 1791,-1620.5 2021,-1620.5 2021,-1585.5 1791,-1585.5"/>
<polygon fill="none" stroke="#000000" points="1791,-1585.5 1791,-1620.5 2021,-1620.5 2021,-1585.5 1791,-1585.5"/>
<text text-anchor="start" x="1797.8174" y="-1598.3" font-family="Arial Bold" font-size="18.00" fill="#000000">check_constraints</text>
<text text-anchor="start" x="1941.8516" y="-1598.3" font-family="Arial" font-size="14.00" fill="#000000">    </text>
<text text-anchor="start" x="1976.0564" y="-1598.3" font-family="Arial" font-size="14.00" fill="#666666">[table]</text>
<polygon fill="none" stroke="#000000" points="1791,-1555.5 1791,-1585.5 2021,-1585.5 2021,-1555.5 1791,-1555.5"/>
<text text-anchor="start" x="1798" y="-1566.9" font-family="Arial" font-size="14.00" fill="#000000">id </text>
<text text-anchor="start" x="1812.7798" y="-1566.9" font-family="Arial" font-size="14.00" fill="#666666">[INTEGER]</text>
<polygon fill="none" stroke="#000000" points="1791,-1525.5 1791,-1555.5 2021,-1555.5 2021,-1525.5 1791,-1525.5"/>
<text text-anchor="start" x="1798" y="-1536.9" font-family="Arial" font-size="14.00" fill="#000000">col </text>
<text text-anchor="start" x="1819.7798" y="-1536.9" font-family="Arial" font-size="14.00" fill="#666666">[TEXT]</text>
<polygon fill="none" stroke="#000000" points="1791,-1495.5 1791,-1525.5 2021,-1525.5 2021,-1495.5 1791,-1495.5"/>
<text text-anchor="start" x="1798" y="-1506.9" font-family="Arial" font-size="14.00" fill="#000000">brackets </text>
<text text-anchor="start" x="1854.7896" y="-1506.9" font-family="Arial" font-size="14.00" fill="#666666">[TEXT]</text>
<polygon fill="none" stroke="#000000" points="1791,-1465.5 1791,-1495.5 2021,-1495.5 2021,-1465.5 1791,-1465.5"/>
<text text-anchor="start" x="1798" y="-1476.9" font-family="Arial" font-size="14.00" fill="#000000">checkcheck </text>
<text text-anchor="start" x="1875.021" y="-1476.9" font-family="Arial" font-size="14.00" fill="#666666">[TEXT]</text>
<polygon fill="none" stroke="#000000" points="1791,-1435.5 1791,-1465.5 2021,-1465.5 2021,-1435.5 1791,-1435.5"/>
<text text-anchor="start" x="1798" y="-1446.9" font-family="Arial" font-size="14.00" fill="#000000">downcase </text>
<text text-anchor="start" x="1864.9102" y="-1446.9" font-family="Arial" font-size="14.00" fill="#666666">[TEXT]</text>
<polygon fill="none" stroke="#000000" points="1791,-1405.5 1791,-1435.5 2021,-1435.5 2021,-1405.5 1791,-1405.5"/>
<text text-anchor="start" x="1798" y="-1416.9" font-family="Arial" font-size="14.00" fill="#000000">nl </text>
<text text-anchor="start" x="1812.7798" y="-1416.9" font-family="Arial" font-size="14.00" fill="#666666">[TEXT]</text>
</g>
<!-- syslog -->
<g id="node11" class="node">
<title>syslog</title>
<polygon fill="#efefef" stroke="transparent" points="2125,-1510.5 2125,-1545.5 2303,-1545.5 2303,-1510.5 2125,-1510.5"/>
<polygon fill="none" stroke="#000000" points="2125,-1510.5 2125,-1545.5 2303,-1545.5 2303,-1510.5 2125,-1510.5"/>
<text text-anchor="start" x="2131.7211" y="-1523.3" font-family="Arial Bold" font-size="18.00" fill="#000000">syslog</text>
<text text-anchor="start" x="2182.7277" y="-1523.3" font-family="Arial" font-size="14.00" fill="#000000">    </text>
<text text-anchor="start" x="2216.9325" y="-1523.3" font-family="Arial" font-size="14.00" fill="#666666">[virtual table]</text>
<polygon fill="none" stroke="#000000" points="2125,-1480.5 2125,-1510.5 2303,-1510.5 2303,-1480.5 2125,-1480.5"/>
<text text-anchor="start" x="2132" y="-1491.9" font-family="Arial" font-size="14.00" fill="#000000">logs </text>
<text text-anchor="start" x="2161.5624" y="-1491.9" font-family="Arial" font-size="14.00" fill="#666666">[]</text>
</g>
<!-- access_log -->
<g id="node12" class="node">
<title>access_log</title>
<polygon fill="#efefef" stroke="transparent" points="2408,-1510.5 2408,-1545.5 2625,-1545.5 2625,-1510.5 2408,-1510.5"/>
<polygon fill="none" stroke="#000000" points="2408,-1510.5 2408,-1545.5 2625,-1545.5 2625,-1510.5 2408,-1510.5"/>
<text text-anchor="start" x="2414.7118" y="-1523.3" font-family="Arial Bold" font-size="18.00" fill="#000000">access_log</text>
<text text-anchor="start" x="2504.737" y="-1523.3" font-family="Arial" font-size="14.00" fill="#000000">    </text>
<text text-anchor="start" x="2538.9418" y="-1523.3" font-family="Arial" font-size="14.00" fill="#666666">[virtual table]</text>
<polygon fill="none" stroke="#000000" points="2408,-1480.5 2408,-1510.5 2625,-1510.5 2625,-1480.5 2408,-1480.5"/>
<text text-anchor="start" x="2415" y="-1491.9" font-family="Arial" font-size="14.00" fill="#000000">logs </text>
<text text-anchor="start" x="2444.5624" y="-1491.9" font-family="Arial" font-size="14.00" fill="#666666">[]</text>
</g>
</g>
</svg>
