<?xml version="1.0" encoding="UTF-8" standalone="no"?>
<!DOCTYPE svg PUBLIC "-//W3C//DTD SVG 1.1//EN"
 "http://www.w3.org/Graphics/SVG/1.1/DTD/svg11.dtd">
<!-- Generated by graphviz version 12.1.2 (20240928.0832)
 -->
<!-- Title: search_users Pages: 1 -->
<svg width="317pt" height="198pt"
 viewBox="0.00 0.00 316.85 197.60" xmlns="http://www.w3.org/2000/svg" xmlns:xlink="http://www.w3.org/1999/xlink">
<g id="graph0" class="graph" transform="scale(1 1) rotate(0) translate(4 193.6)">
<title>search_users</title>
<polygon fill="white" stroke="none" points="-4,4 -4,-193.6 312.85,-193.6 312.85,4 -4,4"/>
<!-- search_users -->
<g id="node1" class="node">
<title>search_users</title>
<polygon fill="#efefef" stroke="none" points="46.2,-107.8 46.2,-143.4 262.65,-143.4 262.65,-107.8 46.2,-107.8"/>
<polygon fill="none" stroke="black" points="46.2,-107.8 46.2,-143.4 262.65,-143.4 262.65,-107.8 46.2,-107.8"/>
<text text-anchor="start" x="53.2" y="-121.2" font-family="Arial Bold" font-size="18.00">search_users</text>
<text text-anchor="start" x="145.16" y="-121.2" font-family="Arial" font-size="14.00">    </text>
<text text-anchor="start" x="176.28" y="-121.2" font-family="Arial" font-size="14.00" fill="#666666">[virtual table]</text>
<polygon fill="none" stroke="black" points="46.2,-77 46.2,-107.8 262.65,-107.8 262.65,-77 46.2,-77"/>
<text text-anchor="start" x="53.2" y="-89.2" font-family="Arial" font-size="14.00">username </text>
<text text-anchor="start" x="119.34" y="-89.2" font-family="Arial" font-size="14.00" fill="#666666">[]</text>
<polygon fill="none" stroke="black" points="46.2,-46.2 46.2,-77 262.65,-77 262.65,-46.2 46.2,-46.2"/>
<text text-anchor="start" x="53.2" y="-58.4" font-family="Arial" font-size="14.00">email </text>
<text text-anchor="start" x="90.54" y="-58.4" font-family="Arial" font-size="14.00" fill="#666666">[]</text>
<polygon fill="none" stroke="black" stroke-width="3" points="44.7,-44.7 44.7,-144.9 264.15,-144.9 264.15,-44.7 44.7,-44.7"/>
</g>
</g>
</svg>
