<?xml version="1.0" encoding="UTF-8" standalone="no"?>
<!DOCTYPE svg PUBLIC "-//W3C//DTD SVG 1.1//EN"
 "http://www.w3.org/Graphics/SVG/1.1/DTD/svg11.dtd">
<!-- Generated by graphviz version 12.1.2 (20240928.0832)
 -->
<!-- Title: search_logs Pages: 1 -->
<svg width="310pt" height="167pt"
 viewBox="0.00 0.00 309.86 166.80" xmlns="http://www.w3.org/2000/svg" xmlns:xlink="http://www.w3.org/1999/xlink">
<g id="graph0" class="graph" transform="scale(1 1) rotate(0) translate(4 162.8)">
<title>search_logs</title>
<polygon fill="white" stroke="none" points="-4,4 -4,-162.8 305.86,-162.8 305.86,4 -4,4"/>
<!-- search_logs -->
<g id="node1" class="node">
<title>search_logs</title>
<polygon fill="#efefef" stroke="none" points="46.2,-77 46.2,-112.6 255.66,-112.6 255.66,-77 46.2,-77"/>
<polygon fill="none" stroke="black" points="46.2,-77 46.2,-112.6 255.66,-112.6 255.66,-77 46.2,-77"/>
<text text-anchor="start" x="53.2" y="-90.4" font-family="Arial Bold" font-size="18.00">search_logs</text>
<text text-anchor="start" x="138.17" y="-90.4" font-family="Arial" font-size="14.00">    </text>
<text text-anchor="start" x="169.29" y="-90.4" font-family="Arial" font-size="14.00" fill="#666666">[virtual table]</text>
<polygon fill="none" stroke="black" points="46.2,-46.2 46.2,-77 255.66,-77 255.66,-46.2 46.2,-46.2"/>
<text text-anchor="start" x="53.2" y="-58.4" font-family="Arial" font-size="14.00">payload </text>
<text text-anchor="start" x="106.13" y="-58.4" font-family="Arial" font-size="14.00" fill="#666666">[]</text>
<polygon fill="none" stroke="black" stroke-width="3" points="44.7,-44.7 44.7,-114.1 257.16,-114.1 257.16,-44.7 44.7,-44.7"/>
</g>
</g>
</svg>
