<?xml version="1.0" encoding="UTF-8" standalone="no"?>
<!DOCTYPE svg PUBLIC "-//W3C//DTD SVG 1.1//EN"
 "http://www.w3.org/Graphics/SVG/1.1/DTD/svg11.dtd">
<!-- Generated by graphviz version 12.1.2 (20240928.0832)
 -->
<!-- Title: user_options Pages: 1 -->
<svg width="771pt" height="602pt"
 viewBox="0.00 0.00 770.64 602.00" xmlns="http://www.w3.org/2000/svg" xmlns:xlink="http://www.w3.org/1999/xlink">
<g id="graph0" class="graph" transform="scale(1 1) rotate(0) translate(4 598)">
<title>user_options</title>
<polygon fill="white" stroke="none" points="-4,4 -4,-598 766.64,-598 766.64,4 -4,4"/>
<!-- user_options -->
<g id="node1" class="node">
<title>user_options</title>
<polygon fill="#efefef" stroke="none" points="46.2,-512.2 46.2,-547.8 221.45,-547.8 221.45,-512.2 46.2,-512.2"/>
<polygon fill="none" stroke="black" points="46.2,-512.2 46.2,-547.8 221.45,-547.8 221.45,-512.2 46.2,-512.2"/>
<text text-anchor="start" x="53.2" y="-525.6" font-family="Arial Bold" font-size="18.00">user_options</text>
<text text-anchor="start" x="145.2" y="-525.6" font-family="Arial" font-size="14.00">    </text>
<text text-anchor="start" x="176.31" y="-525.6" font-family="Arial" font-size="14.00" fill="#666666">[table]</text>
<polygon fill="none" stroke="black" points="46.2,-481.4 46.2,-512.2 221.45,-512.2 221.45,-481.4 46.2,-481.4"/>
<text text-anchor="start" x="53.2" y="-493.6" font-family="Arial" font-size="14.00">user_id </text>
<text text-anchor="start" x="103.01" y="-493.6" font-family="Arial" font-size="14.00" fill="#666666">[INTEGER]</text>
<polygon fill="none" stroke="black" points="46.2,-450.6 46.2,-481.4 221.45,-481.4 221.45,-450.6 46.2,-450.6"/>
<text text-anchor="start" x="53.2" y="-462.8" font-family="Arial" font-size="14.00">show_email </text>
<text text-anchor="start" x="131.01" y="-462.8" font-family="Arial" font-size="14.00" fill="#666666">[INTEGER]</text>
<polygon fill="none" stroke="black" points="46.2,-419.8 46.2,-450.6 221.45,-450.6 221.45,-419.8 46.2,-419.8"/>
<text text-anchor="start" x="53.2" y="-432" font-family="Arial" font-size="14.00">created </text>
<text text-anchor="start" x="103.79" y="-432" font-family="Arial" font-size="14.00" fill="#666666">[NUMERIC]</text>
<polygon fill="none" stroke="black" points="46.2,-389 46.2,-419.8 221.45,-419.8 221.45,-389 46.2,-389"/>
<text text-anchor="start" x="53.2" y="-401.2" font-family="Arial" font-size="14.00">updated </text>
<text text-anchor="start" x="107.7" y="-401.2" font-family="Arial" font-size="14.00" fill="#666666">[NUMERIC]</text>
<polygon fill="none" stroke="black" stroke-width="3" points="44.7,-387.5 44.7,-549.3 222.95,-549.3 222.95,-387.5 44.7,-387.5"/>
</g>
<!-- users -->
<g id="node2" class="node">
<title>users</title>
<polygon fill="#efefef" stroke="none" points="49.41,-228 49.41,-263.6 218.24,-263.6 218.24,-228 49.41,-228"/>
<polygon fill="none" stroke="black" points="49.41,-228 49.41,-263.6 218.24,-263.6 218.24,-228 49.41,-228"/>
<text text-anchor="start" x="80.7" y="-241.4" font-family="Arial Bold" font-size="18.00">users</text>
<text text-anchor="start" x="117.69" y="-241.4" font-family="Arial" font-size="14.00">    </text>
<text text-anchor="start" x="148.81" y="-241.4" font-family="Arial" font-size="14.00" fill="#666666">[table]</text>
<polygon fill="none" stroke="black" points="49.41,-197.2 49.41,-228 218.24,-228 218.24,-197.2 49.41,-197.2"/>
<text text-anchor="start" x="56.41" y="-209.4" font-family="Arial" font-size="14.00">id    </text>
<text text-anchor="start" x="98.42" y="-209.4" font-family="Arial" font-size="14.00" fill="#666666">[INTEGER]</text>
<polygon fill="none" stroke="black" points="49.41,-166.4 49.41,-197.2 218.24,-197.2 218.24,-166.4 49.41,-166.4"/>
<text text-anchor="start" x="56.41" y="-178.6" font-family="Arial" font-size="14.00">username    </text>
<text text-anchor="start" x="149.78" y="-178.6" font-family="Arial" font-size="14.00" fill="#666666">[TEXT]</text>
<polygon fill="none" stroke="black" points="49.41,-135.6 49.41,-166.4 218.24,-166.4 218.24,-135.6 49.41,-135.6"/>
<text text-anchor="start" x="56.41" y="-147.8" font-family="Arial" font-size="14.00">password    </text>
<text text-anchor="start" x="147.44" y="-147.8" font-family="Arial" font-size="14.00" fill="#666666">[TEXT]</text>
<polygon fill="none" stroke="black" points="49.41,-104.8 49.41,-135.6 218.24,-135.6 218.24,-104.8 49.41,-104.8"/>
<text text-anchor="start" x="56.41" y="-117" font-family="Arial" font-size="14.00">email    </text>
<text text-anchor="start" x="120.98" y="-117" font-family="Arial" font-size="14.00" fill="#666666">[TEXT]</text>
<polygon fill="none" stroke="black" points="49.41,-74 49.41,-104.8 218.24,-104.8 218.24,-74 49.41,-74"/>
<text text-anchor="start" x="56.41" y="-86.2" font-family="Arial" font-size="14.00">created    </text>
<text text-anchor="start" x="134.22" y="-86.2" font-family="Arial" font-size="14.00" fill="#666666">[NUMERIC]</text>
<polygon fill="none" stroke="black" points="49.41,-43.2 49.41,-74 218.24,-74 218.24,-43.2 49.41,-43.2"/>
<text text-anchor="start" x="56.41" y="-55.4" font-family="Arial" font-size="14.00">updated    </text>
<text text-anchor="start" x="138.13" y="-55.4" font-family="Arial" font-size="14.00" fill="#666666">[NUMERIC]</text>
</g>
<!-- user_options&#45;&gt;users -->
<g id="edge1" class="edge">
<title>user_options:user_id&#45;&gt;users:id</title>
<path fill="none" stroke="black" d="M232.54,-494.17C285.05,-465.52 278.82,-212.6 219.24,-212.6"/>
<polygon fill="black" stroke="black" points="232.45,-494.19 221.64,-492.36 227.29,-495.54 223.1,-496.63 223.1,-496.63 223.1,-496.63 227.29,-495.54 223.91,-501.07 232.45,-494.19"/>
<text text-anchor="start" x="229.45" y="-506.8" font-family="Arial" font-size="10.00">FOREIGN KEY (user_id) REFERENCES users (id) ON UPDATE NO ACTION ON DELETE CASCADE MATCH NONE</text>
</g>
</g>
</svg>
