<?xml version="1.0" encoding="UTF-8" standalone="no"?>
<!DOCTYPE svg PUBLIC "-//W3C//DTD SVG 1.1//EN"
 "http://www.w3.org/Graphics/SVG/1.1/DTD/svg11.dtd">
<!-- Generated by graphviz version 2.40.1 (20161225.0304)
 -->
<!-- Title: user_options Pages: 1 -->
<svg width="783pt" height="592pt"
 viewBox="0.00 0.00 782.50 592.00" xmlns="http://www.w3.org/2000/svg" xmlns:xlink="http://www.w3.org/1999/xlink">
<g id="graph0" class="graph" transform="scale(1 1) rotate(0) translate(4 588)">
<title>user_options</title>
<polygon fill="#ffffff" stroke="transparent" points="-4,4 -4,-588 778.5,-588 778.5,4 -4,4"/>
<!-- user_options -->
<g id="node1" class="node">
<title>user_options</title>
<polygon fill="#efefef" stroke="transparent" points="540,-502.5 540,-537.5 729,-537.5 729,-502.5 540,-502.5"/>
<polygon fill="none" stroke="#000000" points="540,-502.5 540,-537.5 729,-537.5 729,-502.5 540,-502.5"/>
<text text-anchor="start" x="546.8185" y="-515.3" font-family="Arial Bold" font-size="18.00" fill="#000000">user_options</text>
<text text-anchor="start" x="649.8505" y="-515.3" font-family="Arial" font-size="14.00" fill="#000000">    </text>
<text text-anchor="start" x="684.0553" y="-515.3" font-family="Arial" font-size="14.00" fill="#666666">[table]</text>
<polygon fill="none" stroke="#000000" points="540,-472.5 540,-502.5 729,-502.5 729,-472.5 540,-472.5"/>
<text text-anchor="start" x="547" y="-483.9" font-family="Arial" font-size="14.00" fill="#000000">user_id </text>
<text text-anchor="start" x="596.7882" y="-483.9" font-family="Arial" font-size="14.00" fill="#666666">[INTEGER]</text>
<polygon fill="none" stroke="#000000" points="540,-442.5 540,-472.5 729,-472.5 729,-442.5 540,-442.5"/>
<text text-anchor="start" x="547" y="-453.9" font-family="Arial" font-size="14.00" fill="#000000">show_email </text>
<text text-anchor="start" x="624.784" y="-453.9" font-family="Arial" font-size="14.00" fill="#666666">[INTEGER]</text>
<polygon fill="none" stroke="#000000" points="540,-412.5 540,-442.5 729,-442.5 729,-412.5 540,-412.5"/>
<text text-anchor="start" x="547" y="-423.9" font-family="Arial" font-size="14.00" fill="#000000">created </text>
<text text-anchor="start" x="597.5722" y="-423.9" font-family="Arial" font-size="14.00" fill="#666666">[NUMERIC]</text>
<polygon fill="none" stroke="#000000" points="540,-382.5 540,-412.5 729,-412.5 729,-382.5 540,-382.5"/>
<text text-anchor="start" x="547" y="-393.9" font-family="Arial" font-size="14.00" fill="#000000">updated </text>
<text text-anchor="start" x="601.4768" y="-393.9" font-family="Arial" font-size="14.00" fill="#666666">[NUMERIC]</text>
<polygon fill="none" stroke="#000000" stroke-width="3" points="538,-381.5 538,-539.5 730,-539.5 730,-381.5 538,-381.5"/>
</g>
<!-- users -->
<g id="node2" class="node">
<title>users</title>
<polygon fill="#efefef" stroke="transparent" points="564,-222.5 564,-257.5 705,-257.5 705,-222.5 564,-222.5"/>
<polygon fill="none" stroke="#000000" points="564,-222.5 564,-257.5 705,-257.5 705,-222.5 564,-222.5"/>
<text text-anchor="start" x="591.4893" y="-235.3" font-family="Arial Bold" font-size="18.00" fill="#000000">users</text>
<text text-anchor="start" x="635.4939" y="-235.3" font-family="Arial" font-size="14.00" fill="#000000"> </text>
<text text-anchor="start" x="639.3845" y="-235.3" font-family="Arial" font-size="14.00" fill="#666666">[table]</text>
<polygon fill="none" stroke="#000000" points="564,-192.5 564,-222.5 705,-222.5 705,-192.5 564,-192.5"/>
<text text-anchor="start" x="571" y="-203.9" font-family="Arial" font-size="14.00" fill="#000000">id </text>
<text text-anchor="start" x="585.7798" y="-203.9" font-family="Arial" font-size="14.00" fill="#666666">[INTEGER]</text>
<polygon fill="none" stroke="#000000" points="564,-162.5 564,-192.5 705,-192.5 705,-162.5 564,-162.5"/>
<text text-anchor="start" x="571" y="-173.9" font-family="Arial" font-size="14.00" fill="#000000">username </text>
<text text-anchor="start" x="637.1248" y="-173.9" font-family="Arial" font-size="14.00" fill="#666666">[TEXT]</text>
<polygon fill="none" stroke="#000000" points="564,-132.5 564,-162.5 705,-162.5 705,-132.5 564,-132.5"/>
<text text-anchor="start" x="571" y="-143.9" font-family="Arial" font-size="14.00" fill="#000000">password </text>
<text text-anchor="start" x="634.7882" y="-143.9" font-family="Arial" font-size="14.00" fill="#666666">[TEXT]</text>
<polygon fill="none" stroke="#000000" points="564,-102.5 564,-132.5 705,-132.5 705,-102.5 564,-102.5"/>
<text text-anchor="start" x="571" y="-113.9" font-family="Arial" font-size="14.00" fill="#000000">email </text>
<text text-anchor="start" x="608.3296" y="-113.9" font-family="Arial" font-size="14.00" fill="#666666">[TEXT]</text>
<polygon fill="none" stroke="#000000" points="564,-72.5 564,-102.5 705,-102.5 705,-72.5 564,-72.5"/>
<text text-anchor="start" x="571" y="-83.9" font-family="Arial" font-size="14.00" fill="#000000">created </text>
<text text-anchor="start" x="621.5722" y="-83.9" font-family="Arial" font-size="14.00" fill="#666666">[NUMERIC]</text>
<polygon fill="none" stroke="#000000" points="564,-42.5 564,-72.5 705,-72.5 705,-42.5 564,-42.5"/>
<text text-anchor="start" x="570.7139" y="-53.9" font-family="Arial" font-size="14.00" fill="#000000">updated </text>
<text text-anchor="start" x="625.1907" y="-53.9" font-family="Arial" font-size="14.00" fill="#666666">[NUMERIC]</text>
</g>
<!-- user_options&#45;&gt;users -->
<g id="edge1" class="edge">
<title>user_options:user_id&#45;&gt;users:id</title>
<path fill="none" stroke="#000000" d="M530.2116,-484.9069C480.3917,-456.6795 505.0869,-207.5 564,-207.5"/>
<polygon fill="#000000" stroke="#000000" points="530.3334,-484.9391 538.8476,-491.8499 535.1667,-486.2196 540,-487.5 540,-487.5 540,-487.5 535.1667,-486.2196 541.1524,-483.1501 530.3334,-484.9391 530.3334,-484.9391"/>
<text text-anchor="start" x="6.9495" y="-497.5" font-family="Arial" font-size="10.00" fill="#000000">FOREIGN KEY (user_id) REFERENCES users (id) ON UPDATE NO ACTION ON DELETE CASCADE MATCH NONE</text>
</g>
</g>
</svg>
