<?xml version="1.0" encoding="UTF-8" standalone="no"?>
<!DOCTYPE svg PUBLIC "-//W3C//DTD SVG 1.1//EN"
 "http://www.w3.org/Graphics/SVG/1.1/DTD/svg11.dtd">
<!-- Generated by graphviz version 2.40.1 (20161225.0304)
 -->
<!-- Title: users Pages: 1 -->
<svg width="1804pt" height="682pt"
 viewBox="0.00 0.00 1803.50 682.00" xmlns="http://www.w3.org/2000/svg" xmlns:xlink="http://www.w3.org/1999/xlink">
<g id="graph0" class="graph" transform="scale(1 1) rotate(0) translate(4 678)">
<title>users</title>
<polygon fill="#ffffff" stroke="transparent" points="-4,4 -4,-678 1799.5,-678 1799.5,4 -4,4"/>
<!-- users -->
<g id="node1" class="node">
<title>users</title>
<polygon fill="#efefef" stroke="transparent" points="935,-225.5 935,-260.5 1076,-260.5 1076,-225.5 935,-225.5"/>
<polygon fill="none" stroke="#000000" points="935,-225.5 935,-260.5 1076,-260.5 1076,-225.5 935,-225.5"/>
<text text-anchor="start" x="947.3322" y="-238.3" font-family="Arial Bold" font-size="18.00" fill="#000000">users</text>
<text text-anchor="start" x="991.3368" y="-238.3" font-family="Arial" font-size="14.00" fill="#000000">    </text>
<text text-anchor="start" x="1025.5416" y="-238.3" font-family="Arial" font-size="14.00" fill="#666666">[table]</text>
<polygon fill="none" stroke="#000000" points="935,-195.5 935,-225.5 1076,-225.5 1076,-195.5 935,-195.5"/>
<text text-anchor="start" x="942" y="-206.9" font-family="Arial" font-size="14.00" fill="#000000">id </text>
<text text-anchor="start" x="956.7798" y="-206.9" font-family="Arial" font-size="14.00" fill="#666666">[INTEGER]</text>
<polygon fill="none" stroke="#000000" points="935,-165.5 935,-195.5 1076,-195.5 1076,-165.5 935,-165.5"/>
<text text-anchor="start" x="942" y="-176.9" font-family="Arial" font-size="14.00" fill="#000000">username </text>
<text text-anchor="start" x="1008.1248" y="-176.9" font-family="Arial" font-size="14.00" fill="#666666">[TEXT]</text>
<polygon fill="none" stroke="#000000" points="935,-135.5 935,-165.5 1076,-165.5 1076,-135.5 935,-135.5"/>
<text text-anchor="start" x="942" y="-146.9" font-family="Arial" font-size="14.00" fill="#000000">password </text>
<text text-anchor="start" x="1005.7882" y="-146.9" font-family="Arial" font-size="14.00" fill="#666666">[TEXT]</text>
<polygon fill="none" stroke="#000000" points="935,-105.5 935,-135.5 1076,-135.5 1076,-105.5 935,-105.5"/>
<text text-anchor="start" x="942" y="-116.9" font-family="Arial" font-size="14.00" fill="#000000">email </text>
<text text-anchor="start" x="979.3296" y="-116.9" font-family="Arial" font-size="14.00" fill="#666666">[TEXT]</text>
<polygon fill="none" stroke="#000000" points="935,-75.5 935,-105.5 1076,-105.5 1076,-75.5 935,-75.5"/>
<text text-anchor="start" x="942" y="-86.9" font-family="Arial" font-size="14.00" fill="#000000">created </text>
<text text-anchor="start" x="992.5722" y="-86.9" font-family="Arial" font-size="14.00" fill="#666666">[NUMERIC]</text>
<polygon fill="none" stroke="#000000" points="935,-45.5 935,-75.5 1076,-75.5 1076,-45.5 935,-45.5"/>
<text text-anchor="start" x="941.7139" y="-56.9" font-family="Arial" font-size="14.00" fill="#000000">updated </text>
<text text-anchor="start" x="996.1907" y="-56.9" font-family="Arial" font-size="14.00" fill="#666666">[NUMERIC]</text>
<polygon fill="none" stroke="#000000" stroke-width="3" points="933,-44.5 933,-262.5 1077,-262.5 1077,-44.5 933,-44.5"/>
</g>
<!-- user_options -->
<g id="node2" class="node">
<title>user_options</title>
<polygon fill="#efefef" stroke="transparent" points="348,-550.5 348,-585.5 540,-585.5 540,-550.5 348,-550.5"/>
<polygon fill="none" stroke="#000000" points="348,-550.5 348,-585.5 540,-585.5 540,-550.5 348,-550.5"/>
<text text-anchor="start" x="356.3185" y="-563.3" font-family="Arial Bold" font-size="18.00" fill="#000000">user_options</text>
<text text-anchor="start" x="459.3505" y="-563.3" font-family="Arial" font-size="14.00" fill="#000000">    </text>
<text text-anchor="start" x="493.5553" y="-563.3" font-family="Arial" font-size="14.00" fill="#666666">[table]</text>
<polygon fill="none" stroke="#000000" points="348,-520.5 348,-550.5 540,-550.5 540,-520.5 348,-520.5"/>
<text text-anchor="start" x="355" y="-531.9" font-family="Arial" font-size="14.00" fill="#000000">user_id    </text>
<text text-anchor="start" x="435.1024" y="-531.9" font-family="Arial" font-size="14.00" fill="#666666">[INTEGER]</text>
<polygon fill="none" stroke="#000000" points="348,-490.5 348,-520.5 540,-520.5 540,-490.5 348,-490.5"/>
<text text-anchor="start" x="354.9502" y="-501.9" font-family="Arial" font-size="14.00" fill="#000000">show_email    </text>
<text text-anchor="start" x="463.0484" y="-501.9" font-family="Arial" font-size="14.00" fill="#666666">[INTEGER]</text>
<polygon fill="none" stroke="#000000" points="348,-460.5 348,-490.5 540,-490.5 540,-460.5 348,-460.5"/>
<text text-anchor="start" x="355" y="-471.9" font-family="Arial" font-size="14.00" fill="#000000">created    </text>
<text text-anchor="start" x="435.8864" y="-471.9" font-family="Arial" font-size="14.00" fill="#666666">[NUMERIC]</text>
<polygon fill="none" stroke="#000000" points="348,-430.5 348,-460.5 540,-460.5 540,-430.5 348,-430.5"/>
<text text-anchor="start" x="355" y="-441.9" font-family="Arial" font-size="14.00" fill="#000000">updated    </text>
<text text-anchor="start" x="439.791" y="-441.9" font-family="Arial" font-size="14.00" fill="#666666">[NUMERIC]</text>
</g>
<!-- user_options&#45;&gt;users -->
<g id="edge1" class="edge">
<title>user_options:user_id&#45;&gt;users:id</title>
<path fill="none" stroke="#000000" d="M549.9968,-534.8738C621.0149,-525.2139 535.1352,-406.1602 592,-343 701.3464,-221.5481 771.5766,-210.5 935,-210.5"/>
<polygon fill="#000000" stroke="#000000" points="549.9804,-534.8747 539.7186,-531.0088 544.9902,-535.1874 540,-535.5 540,-535.5 540,-535.5 544.9902,-535.1874 540.2814,-539.9912 549.9804,-534.8747 549.9804,-534.8747"/>
<text text-anchor="start" x="6.9495" y="-545.5" font-family="Arial" font-size="10.00" fill="#000000">FOREIGN KEY (user_id) REFERENCES users (id) ON UPDATE NO ACTION ON DELETE CASCADE MATCH NONE</text>
</g>
<!-- posts -->
<g id="node3" class="node">
<title>posts</title>
<polygon fill="#efefef" stroke="transparent" points="645,-580.5 645,-615.5 816,-615.5 816,-580.5 645,-580.5"/>
<polygon fill="none" stroke="#000000" points="645,-580.5 645,-615.5 816,-615.5 816,-580.5 645,-580.5"/>
<text text-anchor="start" x="672.8272" y="-593.3" font-family="Arial Bold" font-size="18.00" fill="#000000">posts</text>
<text text-anchor="start" x="715.8418" y="-593.3" font-family="Arial" font-size="14.00" fill="#000000">    </text>
<text text-anchor="start" x="750.0466" y="-593.3" font-family="Arial" font-size="14.00" fill="#666666">[table]</text>
<polygon fill="none" stroke="#000000" points="645,-550.5 645,-580.5 816,-580.5 816,-550.5 645,-550.5"/>
<text text-anchor="start" x="652" y="-561.9" font-family="Arial" font-size="14.00" fill="#000000">id    </text>
<text text-anchor="start" x="697.094" y="-561.9" font-family="Arial" font-size="14.00" fill="#666666">[INTEGER]</text>
<polygon fill="none" stroke="#000000" points="645,-520.5 645,-550.5 816,-550.5 816,-520.5 645,-520.5"/>
<text text-anchor="start" x="652" y="-531.9" font-family="Arial" font-size="14.00" fill="#000000">user_id    </text>
<text text-anchor="start" x="732.1024" y="-531.9" font-family="Arial" font-size="14.00" fill="#666666">[INTEGER]</text>
<polygon fill="none" stroke="#000000" points="645,-490.5 645,-520.5 816,-520.5 816,-490.5 645,-490.5"/>
<text text-anchor="start" x="652" y="-501.9" font-family="Arial" font-size="14.00" fill="#000000">title    </text>
<text text-anchor="start" x="707.9818" y="-501.9" font-family="Arial" font-size="14.00" fill="#666666">[TEXT]</text>
<polygon fill="none" stroke="#000000" points="645,-460.5 645,-490.5 816,-490.5 816,-460.5 645,-460.5"/>
<text text-anchor="start" x="652" y="-471.9" font-family="Arial" font-size="14.00" fill="#000000">body    </text>
<text text-anchor="start" x="716.5526" y="-471.9" font-family="Arial" font-size="14.00" fill="#666666">[TEXT]</text>
<polygon fill="none" stroke="#000000" points="645,-430.5 645,-460.5 816,-460.5 816,-430.5 645,-430.5"/>
<text text-anchor="start" x="652" y="-441.9" font-family="Arial" font-size="14.00" fill="#000000">created    </text>
<text text-anchor="start" x="732.8864" y="-441.9" font-family="Arial" font-size="14.00" fill="#666666">[NUMERIC]</text>
<polygon fill="none" stroke="#000000" points="645,-400.5 645,-430.5 816,-430.5 816,-400.5 645,-400.5"/>
<text text-anchor="start" x="651.5568" y="-411.9" font-family="Arial" font-size="14.00" fill="#000000">updated    </text>
<text text-anchor="start" x="736.3478" y="-411.9" font-family="Arial" font-size="14.00" fill="#666666">[NUMERIC]</text>
</g>
<!-- posts&#45;&gt;users -->
<g id="edge2" class="edge">
<title>posts:user_id&#45;&gt;users:id</title>
<path fill="none" stroke="#000000" d="M826.1123,-534.9549C898.9981,-526.5328 836.5786,-422.238 867,-343 890.7241,-281.2064 868.8087,-210.5 935,-210.5"/>
<polygon fill="#000000" stroke="#000000" points="825.9855,-534.9617 815.7578,-531.0065 820.9928,-535.2308 816,-535.5 816,-535.5 816,-535.5 820.9928,-535.2308 816.2422,-539.9935 825.9855,-534.9617 825.9855,-534.9617"/>
<text text-anchor="start" x="282.9495" y="-519.5" font-family="Arial" font-size="10.00" fill="#000000">FOREIGN KEY (user_id) REFERENCES users (id) ON UPDATE NO ACTION ON DELETE CASCADE MATCH NONE</text>
</g>
<!-- comments -->
<g id="node4" class="node">
<title>comments</title>
<polygon fill="#efefef" stroke="transparent" points="920,-580.5 920,-615.5 1091,-615.5 1091,-580.5 920,-580.5"/>
<polygon fill="none" stroke="#000000" points="920,-580.5 920,-615.5 1091,-615.5 1091,-580.5 920,-580.5"/>
<text text-anchor="start" x="927.8319" y="-593.3" font-family="Arial Bold" font-size="18.00" fill="#000000">comments</text>
<text text-anchor="start" x="1010.8371" y="-593.3" font-family="Arial" font-size="14.00" fill="#000000">    </text>
<text text-anchor="start" x="1045.0419" y="-593.3" font-family="Arial" font-size="14.00" fill="#666666">[table]</text>
<polygon fill="none" stroke="#000000" points="920,-550.5 920,-580.5 1091,-580.5 1091,-550.5 920,-550.5"/>
<text text-anchor="start" x="927" y="-561.9" font-family="Arial" font-size="14.00" fill="#000000">id    </text>
<text text-anchor="start" x="972.094" y="-561.9" font-family="Arial" font-size="14.00" fill="#666666">[INTEGER]</text>
<polygon fill="none" stroke="#000000" points="920,-520.5 920,-550.5 1091,-550.5 1091,-520.5 920,-520.5"/>
<text text-anchor="start" x="927" y="-531.9" font-family="Arial" font-size="14.00" fill="#000000">post_id    </text>
<text text-anchor="start" x="1006.3324" y="-531.9" font-family="Arial" font-size="14.00" fill="#666666">[INTEGER]</text>
<polygon fill="none" stroke="#000000" points="920,-490.5 920,-520.5 1091,-520.5 1091,-490.5 920,-490.5"/>
<text text-anchor="start" x="927" y="-501.9" font-family="Arial" font-size="14.00" fill="#000000">user_id    </text>
<text text-anchor="start" x="1007.1024" y="-501.9" font-family="Arial" font-size="14.00" fill="#666666">[INTEGER]</text>
<polygon fill="none" stroke="#000000" points="920,-460.5 920,-490.5 1091,-490.5 1091,-460.5 920,-460.5"/>
<text text-anchor="start" x="927" y="-471.9" font-family="Arial" font-size="14.00" fill="#000000">comment    </text>
<text text-anchor="start" x="1018.7644" y="-471.9" font-family="Arial" font-size="14.00" fill="#666666">[TEXT]</text>
<polygon fill="none" stroke="#000000" points="920,-430.5 920,-460.5 1091,-460.5 1091,-430.5 920,-430.5"/>
<text text-anchor="start" x="927" y="-441.9" font-family="Arial" font-size="14.00" fill="#000000">created    </text>
<text text-anchor="start" x="1007.8864" y="-441.9" font-family="Arial" font-size="14.00" fill="#666666">[NUMERIC]</text>
<polygon fill="none" stroke="#000000" points="920,-400.5 920,-430.5 1091,-430.5 1091,-400.5 920,-400.5"/>
<text text-anchor="start" x="926.5568" y="-411.9" font-family="Arial" font-size="14.00" fill="#000000">updated    </text>
<text text-anchor="start" x="1011.3478" y="-411.9" font-family="Arial" font-size="14.00" fill="#666666">[NUMERIC]</text>
</g>
<!-- comments&#45;&gt;users -->
<g id="edge3" class="edge">
<title>comments:user_id&#45;&gt;users:id</title>
<path fill="none" stroke="#000000" d="M910.2839,-503.1254C856.0826,-475.2071 872.8213,-210.5 935,-210.5"/>
<polygon fill="#000000" stroke="#000000" points="910.2859,-503.1258 918.9316,-509.8713 915.1429,-504.3129 920,-505.5 920,-505.5 920,-505.5 915.1429,-504.3129 921.0684,-501.1287 910.2859,-503.1258 910.2859,-503.1258"/>
<text text-anchor="start" x="927.3405" y="-515.5" font-family="Arial" font-size="10.00" fill="#000000">FOREIGN KEY (user_id) REFERENCES users (id) ON UPDATE NO ACTION ON DELETE NO ACTION MATCH NONE</text>
</g>
<!-- comment_stars -->
<g id="node5" class="node">
<title>comment_stars</title>
<polygon fill="#efefef" stroke="transparent" points="1195,-580.5 1195,-615.5 1424,-615.5 1424,-580.5 1195,-580.5"/>
<polygon fill="none" stroke="#000000" points="1195,-580.5 1195,-615.5 1424,-615.5 1424,-580.5 1195,-580.5"/>
<text text-anchor="start" x="1211.8285" y="-593.3" font-family="Arial Bold" font-size="18.00" fill="#000000">comment_stars</text>
<text text-anchor="start" x="1334.8405" y="-593.3" font-family="Arial" font-size="14.00" fill="#000000">    </text>
<text text-anchor="start" x="1369.0453" y="-593.3" font-family="Arial" font-size="14.00" fill="#666666">[table]</text>
<polygon fill="none" stroke="#000000" points="1195,-550.5 1195,-580.5 1424,-580.5 1424,-550.5 1195,-550.5"/>
<text text-anchor="start" x="1202" y="-561.9" font-family="Arial" font-size="14.00" fill="#000000">id    </text>
<text text-anchor="start" x="1247.094" y="-561.9" font-family="Arial" font-size="14.00" fill="#666666">[INTEGER]</text>
<polygon fill="none" stroke="#000000" points="1195,-520.5 1195,-550.5 1424,-550.5 1424,-520.5 1195,-520.5"/>
<text text-anchor="start" x="1202" y="-531.9" font-family="Arial" font-size="14.00" fill="#000000">user_id    </text>
<text text-anchor="start" x="1282.1024" y="-531.9" font-family="Arial" font-size="14.00" fill="#666666">[INTEGER]</text>
<polygon fill="none" stroke="#000000" points="1195,-490.5 1195,-520.5 1424,-520.5 1424,-490.5 1195,-490.5"/>
<text text-anchor="start" x="1202" y="-501.9" font-family="Arial" font-size="14.00" fill="#000000">comment_post_id    </text>
<text text-anchor="start" x="1346.6746" y="-501.9" font-family="Arial" font-size="14.00" fill="#666666">[INTEGER]</text>
<polygon fill="none" stroke="#000000" points="1195,-460.5 1195,-490.5 1424,-490.5 1424,-460.5 1195,-460.5"/>
<text text-anchor="start" x="1201.777" y="-471.9" font-family="Arial" font-size="14.00" fill="#000000">comment_user_id    </text>
<text text-anchor="start" x="1347.2216" y="-471.9" font-family="Arial" font-size="14.00" fill="#666666">[INTEGER]</text>
<polygon fill="none" stroke="#000000" points="1195,-430.5 1195,-460.5 1424,-460.5 1424,-430.5 1195,-430.5"/>
<text text-anchor="start" x="1202" y="-441.9" font-family="Arial" font-size="14.00" fill="#000000">created    </text>
<text text-anchor="start" x="1282.8864" y="-441.9" font-family="Arial" font-size="14.00" fill="#666666">[NUMERIC]</text>
<polygon fill="none" stroke="#000000" points="1195,-400.5 1195,-430.5 1424,-430.5 1424,-400.5 1195,-400.5"/>
<text text-anchor="start" x="1202" y="-411.9" font-family="Arial" font-size="14.00" fill="#000000">updated    </text>
<text text-anchor="start" x="1286.791" y="-411.9" font-family="Arial" font-size="14.00" fill="#666666">[NUMERIC]</text>
</g>
<!-- comment_stars&#45;&gt;users -->
<g id="edge4" class="edge">
<title>comment_stars:comment_user_id&#45;&gt;users:id</title>
<path fill="none" stroke="#000000" d="M1184.8808,-474.7484C1135.8721,-466.797 1167.3425,-397.3527 1143,-343 1116.0274,-282.7746 1141.9895,-210.5 1076,-210.5"/>
<polygon fill="#000000" stroke="#000000" points="1185.0275,-474.7592 1194.6666,-479.9876 1190.0137,-475.1296 1195,-475.5 1195,-475.5 1195,-475.5 1190.0137,-475.1296 1195.3334,-471.0124 1185.0275,-474.7592 1185.0275,-474.7592"/>
<text text-anchor="start" x="1202.004" y="-485.5" font-family="Arial" font-size="10.00" fill="#000000">FOREIGN KEY (comment_user_id) REFERENCES users (id) ON UPDATE NO ACTION ON DELETE NO ACTION MATCH NONE</text>
</g>
<!-- logs -->
<g id="node6" class="node">
<title>logs</title>
<polygon fill="#efefef" stroke="transparent" points="1528,-595.5 1528,-630.5 1753,-630.5 1753,-595.5 1528,-595.5"/>
<polygon fill="none" stroke="#000000" points="1528,-595.5 1528,-630.5 1753,-630.5 1753,-595.5 1528,-595.5"/>
<text text-anchor="start" x="1587.8312" y="-608.3" font-family="Arial Bold" font-size="18.00" fill="#000000">logs</text>
<text text-anchor="start" x="1620.8378" y="-608.3" font-family="Arial" font-size="14.00" fill="#000000">    </text>
<text text-anchor="start" x="1655.0426" y="-608.3" font-family="Arial" font-size="14.00" fill="#666666">[table]</text>
<polygon fill="none" stroke="#000000" points="1528,-565.5 1528,-595.5 1753,-595.5 1753,-565.5 1528,-565.5"/>
<text text-anchor="start" x="1535" y="-576.9" font-family="Arial" font-size="14.00" fill="#000000">id    </text>
<text text-anchor="start" x="1580.094" y="-576.9" font-family="Arial" font-size="14.00" fill="#666666">[INTEGER]</text>
<polygon fill="none" stroke="#000000" points="1528,-535.5 1528,-565.5 1753,-565.5 1753,-535.5 1528,-535.5"/>
<text text-anchor="start" x="1535" y="-546.9" font-family="Arial" font-size="14.00" fill="#000000">user_id    </text>
<text text-anchor="start" x="1615.1024" y="-546.9" font-family="Arial" font-size="14.00" fill="#666666">[INTEGER]</text>
<polygon fill="none" stroke="#000000" points="1528,-505.5 1528,-535.5 1753,-535.5 1753,-505.5 1528,-505.5"/>
<text text-anchor="start" x="1535" y="-516.9" font-family="Arial" font-size="14.00" fill="#000000">post_id    </text>
<text text-anchor="start" x="1614.3324" y="-516.9" font-family="Arial" font-size="14.00" fill="#666666">[INTEGER]</text>
<polygon fill="none" stroke="#000000" points="1528,-475.5 1528,-505.5 1753,-505.5 1753,-475.5 1528,-475.5"/>
<text text-anchor="start" x="1535" y="-486.9" font-family="Arial" font-size="14.00" fill="#000000">comment_id    </text>
<text text-anchor="start" x="1645.4362" y="-486.9" font-family="Arial" font-size="14.00" fill="#666666">[INTEGER]</text>
<polygon fill="none" stroke="#000000" points="1528,-445.5 1528,-475.5 1753,-475.5 1753,-445.5 1528,-445.5"/>
<text text-anchor="start" x="1534.723" y="-456.9" font-family="Arial" font-size="14.00" fill="#000000">comment_star_id    </text>
<text text-anchor="start" x="1676.2756" y="-456.9" font-family="Arial" font-size="14.00" fill="#666666">[INTEGER]</text>
<polygon fill="none" stroke="#000000" points="1528,-415.5 1528,-445.5 1753,-445.5 1753,-415.5 1528,-415.5"/>
<text text-anchor="start" x="1535" y="-426.9" font-family="Arial" font-size="14.00" fill="#000000">payload    </text>
<text text-anchor="start" x="1618.2244" y="-426.9" font-family="Arial" font-size="14.00" fill="#666666">[TEXT]</text>
<polygon fill="none" stroke="#000000" points="1528,-385.5 1528,-415.5 1753,-415.5 1753,-385.5 1528,-385.5"/>
<text text-anchor="start" x="1535" y="-396.9" font-family="Arial" font-size="14.00" fill="#000000">created    </text>
<text text-anchor="start" x="1615.8864" y="-396.9" font-family="Arial" font-size="14.00" fill="#666666">[NUMERIC]</text>
</g>
<!-- logs&#45;&gt;users -->
<g id="edge5" class="edge">
<title>logs:user_id&#45;&gt;users:id</title>
<path fill="none" stroke="#000000" stroke-dasharray="5,2" d="M1517.7646,-549.8814C1441.0814,-539.8367 1538.1565,-409.9571 1476,-343 1412.2933,-274.373 1169.6387,-210.5 1076,-210.5"/>
<polygon fill="#000000" stroke="#000000" points="1518.0182,-549.8966 1527.7285,-554.9918 1523.0091,-550.1983 1528,-550.5 1528,-550.5 1528,-550.5 1523.0091,-550.1983 1528.2715,-546.0082 1518.0182,-549.8966 1518.0182,-549.8966"/>
<text text-anchor="start" x="1486.274" y="-534.5" font-family="Arial" font-size="10.00" fill="#000000">logs&#45;&gt;users</text>
</g>
</g>
</svg>
