<?xml version="1.0" encoding="UTF-8" standalone="no"?>
<!DOCTYPE svg PUBLIC "-//W3C//DTD SVG 1.1//EN"
 "http://www.w3.org/Graphics/SVG/1.1/DTD/svg11.dtd">
<!-- Generated by graphviz version 2.40.1 (20161225.0304)
 -->
<!-- Title: country_names_area Pages: 1 -->
<svg width="339pt" height="225pt"
 viewBox="0.00 0.00 339.00 225.00" xmlns="http://www.w3.org/2000/svg" xmlns:xlink="http://www.w3.org/1999/xlink">
<g id="graph0" class="graph" transform="scale(1 1) rotate(0) translate(4 221)">
<title>country_names_area</title>
<polygon fill="#ffffff" stroke="transparent" points="-4,4 -4,-221 335,-221 335,4 -4,4"/>
<!-- country_names_area -->
<g id="node1" class="node">
<title>country_names_area</title>
<polygon fill="#efefef" stroke="transparent" points="46.5,-135.5 46.5,-170.5 285.5,-170.5 285.5,-135.5 46.5,-135.5"/>
<polygon fill="none" stroke="#000000" points="46.5,-135.5 46.5,-170.5 285.5,-170.5 285.5,-135.5 46.5,-135.5"/>
<text text-anchor="start" x="53.4681" y="-148.3" font-family="Arial Bold" font-size="18.00" fill="#000000">country_names_area</text>
<text text-anchor="start" x="222.5151" y="-148.3" font-family="Arial" font-size="14.00" fill="#000000"> </text>
<text text-anchor="start" x="226.4057" y="-148.3" font-family="Arial" font-size="14.00" fill="#666666">[TABLE]</text>
<polygon fill="none" stroke="#000000" points="46.5,-105.5 46.5,-135.5 285.5,-135.5 285.5,-105.5 46.5,-105.5"/>
<text text-anchor="start" x="53.5" y="-116.9" font-family="Arial" font-size="14.00" fill="#000000">country_code </text>
<text text-anchor="start" x="141.42" y="-116.9" font-family="Arial" font-size="14.00" fill="#666666">[STRING]</text>
<polygon fill="none" stroke="#000000" points="46.5,-75.5 46.5,-105.5 285.5,-105.5 285.5,-75.5 46.5,-75.5"/>
<text text-anchor="start" x="53.5" y="-86.9" font-family="Arial" font-size="14.00" fill="#000000">country_name </text>
<text text-anchor="start" x="146.0806" y="-86.9" font-family="Arial" font-size="14.00" fill="#666666">[STRING]</text>
<polygon fill="none" stroke="#000000" points="46.5,-45.5 46.5,-75.5 285.5,-75.5 285.5,-45.5 46.5,-45.5"/>
<text text-anchor="start" x="53.5" y="-56.9" font-family="Arial" font-size="14.00" fill="#000000">country_area </text>
<text text-anchor="start" x="139.0806" y="-56.9" font-family="Arial" font-size="14.00" fill="#666666">[FLOAT]</text>
<polygon fill="none" stroke="#000000" stroke-width="3" points="44.5,-44.5 44.5,-172.5 286.5,-172.5 286.5,-44.5 44.5,-44.5"/>
</g>
</g>
</svg>
