<?xml version="1.0" encoding="UTF-8" standalone="no"?>
<!DOCTYPE svg PUBLIC "-//W3C//DTD SVG 1.1//EN"
 "http://www.w3.org/Graphics/SVG/1.1/DTD/svg11.dtd">
<!-- Generated by graphviz version 2.40.1 (20161225.0304)
 -->
<!-- Title: midyear_population Pages: 1 -->
<svg width="327pt" height="255pt"
 viewBox="0.00 0.00 327.00 255.00" xmlns="http://www.w3.org/2000/svg" xmlns:xlink="http://www.w3.org/1999/xlink">
<g id="graph0" class="graph" transform="scale(1 1) rotate(0) translate(4 251)">
<title>midyear_population</title>
<polygon fill="#ffffff" stroke="transparent" points="-4,4 -4,-251 323,-251 323,4 -4,4"/>
<!-- midyear_population -->
<g id="node1" class="node">
<title>midyear_population</title>
<polygon fill="#efefef" stroke="transparent" points="46.5,-165.5 46.5,-200.5 273.5,-200.5 273.5,-165.5 46.5,-165.5"/>
<polygon fill="none" stroke="#000000" points="46.5,-165.5 46.5,-200.5 273.5,-200.5 273.5,-165.5 46.5,-165.5"/>
<text text-anchor="start" x="53.4729" y="-178.3" font-family="Arial Bold" font-size="18.00" fill="#000000">midyear_population</text>
<text text-anchor="start" x="210.5103" y="-178.3" font-family="Arial" font-size="14.00" fill="#000000"> </text>
<text text-anchor="start" x="214.4009" y="-178.3" font-family="Arial" font-size="14.00" fill="#666666">[TABLE]</text>
<polygon fill="none" stroke="#000000" points="46.5,-135.5 46.5,-165.5 273.5,-165.5 273.5,-135.5 46.5,-135.5"/>
<text text-anchor="start" x="53.5" y="-146.9" font-family="Arial" font-size="14.00" fill="#000000">country_code </text>
<text text-anchor="start" x="141.42" y="-146.9" font-family="Arial" font-size="14.00" fill="#666666">[STRING]</text>
<polygon fill="none" stroke="#000000" points="46.5,-105.5 46.5,-135.5 273.5,-135.5 273.5,-105.5 46.5,-105.5"/>
<text text-anchor="start" x="53.5" y="-116.9" font-family="Arial" font-size="14.00" fill="#000000">country_name </text>
<text text-anchor="start" x="146.0806" y="-116.9" font-family="Arial" font-size="14.00" fill="#666666">[STRING]</text>
<polygon fill="none" stroke="#000000" points="46.5,-75.5 46.5,-105.5 273.5,-105.5 273.5,-75.5 46.5,-75.5"/>
<text text-anchor="start" x="53.5" y="-86.9" font-family="Arial" font-size="14.00" fill="#000000">year </text>
<text text-anchor="start" x="84.6164" y="-86.9" font-family="Arial" font-size="14.00" fill="#666666">[INTEGER]</text>
<polygon fill="none" stroke="#000000" points="46.5,-45.5 46.5,-75.5 273.5,-75.5 273.5,-45.5 46.5,-45.5"/>
<text text-anchor="start" x="53.5" y="-56.9" font-family="Arial" font-size="14.00" fill="#000000">midyear_population </text>
<text text-anchor="start" x="179.5308" y="-56.9" font-family="Arial" font-size="14.00" fill="#666666">[INTEGER]</text>
<polygon fill="none" stroke="#000000" stroke-width="3" points="44.5,-44.5 44.5,-202.5 274.5,-202.5 274.5,-44.5 44.5,-44.5"/>
</g>
</g>
</svg>
