<?xml version="1.0" encoding="UTF-8" standalone="no"?>
<!DOCTYPE svg PUBLIC "-//W3C//DTD SVG 1.1//EN"
 "http://www.w3.org/Graphics/SVG/1.1/DTD/svg11.dtd">
<!-- Generated by graphviz version 2.40.1 (20161225.0304)
 -->
<!-- Title: midyear_population_age_sex Pages: 1 -->
<svg width="405pt" height="3315pt"
 viewBox="0.00 0.00 405.00 3315.00" xmlns="http://www.w3.org/2000/svg" xmlns:xlink="http://www.w3.org/1999/xlink">
<g id="graph0" class="graph" transform="scale(1 1) rotate(0) translate(4 3311)">
<title>midyear_population_age_sex</title>
<polygon fill="#ffffff" stroke="transparent" points="-4,4 -4,-3311 401,-3311 401,4 -4,4"/>
<!-- midyear_population_age_sex -->
<g id="node1" class="node">
<title>midyear_population_age_sex</title>
<polygon fill="#efefef" stroke="transparent" points="46.5,-3225.5 46.5,-3260.5 351.5,-3260.5 351.5,-3225.5 46.5,-3225.5"/>
<polygon fill="none" stroke="#000000" points="46.5,-3225.5 46.5,-3260.5 351.5,-3260.5 351.5,-3225.5 46.5,-3225.5"/>
<text text-anchor="start" x="53.4543" y="-3238.3" font-family="Arial Bold" font-size="18.00" fill="#000000">midyear_population_age_sex</text>
<text text-anchor="start" x="288.5289" y="-3238.3" font-family="Arial" font-size="14.00" fill="#000000"> </text>
<text text-anchor="start" x="292.4195" y="-3238.3" font-family="Arial" font-size="14.00" fill="#666666">[TABLE]</text>
<polygon fill="none" stroke="#000000" points="46.5,-3195.5 46.5,-3225.5 351.5,-3225.5 351.5,-3195.5 46.5,-3195.5"/>
<text text-anchor="start" x="53.5" y="-3206.9" font-family="Arial" font-size="14.00" fill="#000000">country_code </text>
<text text-anchor="start" x="141.42" y="-3206.9" font-family="Arial" font-size="14.00" fill="#666666">[STRING]</text>
<polygon fill="none" stroke="#000000" points="46.5,-3165.5 46.5,-3195.5 351.5,-3195.5 351.5,-3165.5 46.5,-3165.5"/>
<text text-anchor="start" x="53.5" y="-3176.9" font-family="Arial" font-size="14.00" fill="#000000">country_name </text>
<text text-anchor="start" x="146.0806" y="-3176.9" font-family="Arial" font-size="14.00" fill="#666666">[STRING]</text>
<polygon fill="none" stroke="#000000" points="46.5,-3135.5 46.5,-3165.5 351.5,-3165.5 351.5,-3135.5 46.5,-3135.5"/>
<text text-anchor="start" x="53.5" y="-3146.9" font-family="Arial" font-size="14.00" fill="#000000">year </text>
<text text-anchor="start" x="84.6164" y="-3146.9" font-family="Arial" font-size="14.00" fill="#666666">[INTEGER]</text>
<polygon fill="none" stroke="#000000" points="46.5,-3105.5 46.5,-3135.5 351.5,-3135.5 351.5,-3105.5 46.5,-3105.5"/>
<text text-anchor="start" x="53.5" y="-3116.9" font-family="Arial" font-size="14.00" fill="#000000">sex </text>
<text text-anchor="start" x="79.1732" y="-3116.9" font-family="Arial" font-size="14.00" fill="#666666">[STRING]</text>
<polygon fill="none" stroke="#000000" points="46.5,-3075.5 46.5,-3105.5 351.5,-3105.5 351.5,-3075.5 46.5,-3075.5"/>
<text text-anchor="start" x="53.5" y="-3086.9" font-family="Arial" font-size="14.00" fill="#000000">max_age </text>
<text text-anchor="start" x="114.9642" y="-3086.9" font-family="Arial" font-size="14.00" fill="#666666">[INTEGER]</text>
<polygon fill="none" stroke="#000000" points="46.5,-3045.5 46.5,-3075.5 351.5,-3075.5 351.5,-3045.5 46.5,-3045.5"/>
<text text-anchor="start" x="53.5" y="-3056.9" font-family="Arial" font-size="14.00" fill="#000000">population_age_0 </text>
<text text-anchor="start" x="168.6682" y="-3056.9" font-family="Arial" font-size="14.00" fill="#666666">[INTEGER]</text>
<polygon fill="none" stroke="#000000" points="46.5,-3015.5 46.5,-3045.5 351.5,-3045.5 351.5,-3015.5 46.5,-3015.5"/>
<text text-anchor="start" x="53.5" y="-3026.9" font-family="Arial" font-size="14.00" fill="#000000">population_age_1 </text>
<text text-anchor="start" x="168.6682" y="-3026.9" font-family="Arial" font-size="14.00" fill="#666666">[INTEGER]</text>
<polygon fill="none" stroke="#000000" points="46.5,-2985.5 46.5,-3015.5 351.5,-3015.5 351.5,-2985.5 46.5,-2985.5"/>
<text text-anchor="start" x="53.5" y="-2996.9" font-family="Arial" font-size="14.00" fill="#000000">population_age_2 </text>
<text text-anchor="start" x="168.6682" y="-2996.9" font-family="Arial" font-size="14.00" fill="#666666">[INTEGER]</text>
<polygon fill="none" stroke="#000000" points="46.5,-2955.5 46.5,-2985.5 351.5,-2985.5 351.5,-2955.5 46.5,-2955.5"/>
<text text-anchor="start" x="53.5" y="-2966.9" font-family="Arial" font-size="14.00" fill="#000000">population_age_3 </text>
<text text-anchor="start" x="168.6682" y="-2966.9" font-family="Arial" font-size="14.00" fill="#666666">[INTEGER]</text>
<polygon fill="none" stroke="#000000" points="46.5,-2925.5 46.5,-2955.5 351.5,-2955.5 351.5,-2925.5 46.5,-2925.5"/>
<text text-anchor="start" x="53.5" y="-2936.9" font-family="Arial" font-size="14.00" fill="#000000">population_age_4 </text>
<text text-anchor="start" x="168.6682" y="-2936.9" font-family="Arial" font-size="14.00" fill="#666666">[INTEGER]</text>
<polygon fill="none" stroke="#000000" points="46.5,-2895.5 46.5,-2925.5 351.5,-2925.5 351.5,-2895.5 46.5,-2895.5"/>
<text text-anchor="start" x="53.5" y="-2906.9" font-family="Arial" font-size="14.00" fill="#000000">population_age_5 </text>
<text text-anchor="start" x="168.6682" y="-2906.9" font-family="Arial" font-size="14.00" fill="#666666">[INTEGER]</text>
<polygon fill="none" stroke="#000000" points="46.5,-2865.5 46.5,-2895.5 351.5,-2895.5 351.5,-2865.5 46.5,-2865.5"/>
<text text-anchor="start" x="53.5" y="-2876.9" font-family="Arial" font-size="14.00" fill="#000000">population_age_6 </text>
<text text-anchor="start" x="168.6682" y="-2876.9" font-family="Arial" font-size="14.00" fill="#666666">[INTEGER]</text>
<polygon fill="none" stroke="#000000" points="46.5,-2835.5 46.5,-2865.5 351.5,-2865.5 351.5,-2835.5 46.5,-2835.5"/>
<text text-anchor="start" x="53.5" y="-2846.9" font-family="Arial" font-size="14.00" fill="#000000">population_age_7 </text>
<text text-anchor="start" x="168.6682" y="-2846.9" font-family="Arial" font-size="14.00" fill="#666666">[INTEGER]</text>
<polygon fill="none" stroke="#000000" points="46.5,-2805.5 46.5,-2835.5 351.5,-2835.5 351.5,-2805.5 46.5,-2805.5"/>
<text text-anchor="start" x="53.5" y="-2816.9" font-family="Arial" font-size="14.00" fill="#000000">population_age_8 </text>
<text text-anchor="start" x="168.6682" y="-2816.9" font-family="Arial" font-size="14.00" fill="#666666">[INTEGER]</text>
<polygon fill="none" stroke="#000000" points="46.5,-2775.5 46.5,-2805.5 351.5,-2805.5 351.5,-2775.5 46.5,-2775.5"/>
<text text-anchor="start" x="53.5" y="-2786.9" font-family="Arial" font-size="14.00" fill="#000000">population_age_9 </text>
<text text-anchor="start" x="168.6682" y="-2786.9" font-family="Arial" font-size="14.00" fill="#666666">[INTEGER]</text>
<polygon fill="none" stroke="#000000" points="46.5,-2745.5 46.5,-2775.5 351.5,-2775.5 351.5,-2745.5 46.5,-2745.5"/>
<text text-anchor="start" x="53.5" y="-2756.9" font-family="Arial" font-size="14.00" fill="#000000">population_age_10 </text>
<text text-anchor="start" x="176.4508" y="-2756.9" font-family="Arial" font-size="14.00" fill="#666666">[INTEGER]</text>
<polygon fill="none" stroke="#000000" points="46.5,-2715.5 46.5,-2745.5 351.5,-2745.5 351.5,-2715.5 46.5,-2715.5"/>
<text text-anchor="start" x="53.5" y="-2726.9" font-family="Arial" font-size="14.00" fill="#000000">population_age_11 </text>
<text text-anchor="start" x="176.4508" y="-2726.9" font-family="Arial" font-size="14.00" fill="#666666">[INTEGER]</text>
<polygon fill="none" stroke="#000000" points="46.5,-2685.5 46.5,-2715.5 351.5,-2715.5 351.5,-2685.5 46.5,-2685.5"/>
<text text-anchor="start" x="53.5" y="-2696.9" font-family="Arial" font-size="14.00" fill="#000000">population_age_12 </text>
<text text-anchor="start" x="176.4508" y="-2696.9" font-family="Arial" font-size="14.00" fill="#666666">[INTEGER]</text>
<polygon fill="none" stroke="#000000" points="46.5,-2655.5 46.5,-2685.5 351.5,-2685.5 351.5,-2655.5 46.5,-2655.5"/>
<text text-anchor="start" x="53.5" y="-2666.9" font-family="Arial" font-size="14.00" fill="#000000">population_age_13 </text>
<text text-anchor="start" x="176.4508" y="-2666.9" font-family="Arial" font-size="14.00" fill="#666666">[INTEGER]</text>
<polygon fill="none" stroke="#000000" points="46.5,-2625.5 46.5,-2655.5 351.5,-2655.5 351.5,-2625.5 46.5,-2625.5"/>
<text text-anchor="start" x="53.5" y="-2636.9" font-family="Arial" font-size="14.00" fill="#000000">population_age_14 </text>
<text text-anchor="start" x="176.4508" y="-2636.9" font-family="Arial" font-size="14.00" fill="#666666">[INTEGER]</text>
<polygon fill="none" stroke="#000000" points="46.5,-2595.5 46.5,-2625.5 351.5,-2625.5 351.5,-2595.5 46.5,-2595.5"/>
<text text-anchor="start" x="53.5" y="-2606.9" font-family="Arial" font-size="14.00" fill="#000000">population_age_15 </text>
<text text-anchor="start" x="176.4508" y="-2606.9" font-family="Arial" font-size="14.00" fill="#666666">[INTEGER]</text>
<polygon fill="none" stroke="#000000" points="46.5,-2565.5 46.5,-2595.5 351.5,-2595.5 351.5,-2565.5 46.5,-2565.5"/>
<text text-anchor="start" x="53.5" y="-2576.9" font-family="Arial" font-size="14.00" fill="#000000">population_age_16 </text>
<text text-anchor="start" x="176.4508" y="-2576.9" font-family="Arial" font-size="14.00" fill="#666666">[INTEGER]</text>
<polygon fill="none" stroke="#000000" points="46.5,-2535.5 46.5,-2565.5 351.5,-2565.5 351.5,-2535.5 46.5,-2535.5"/>
<text text-anchor="start" x="53.5" y="-2546.9" font-family="Arial" font-size="14.00" fill="#000000">population_age_17 </text>
<text text-anchor="start" x="176.4508" y="-2546.9" font-family="Arial" font-size="14.00" fill="#666666">[INTEGER]</text>
<polygon fill="none" stroke="#000000" points="46.5,-2505.5 46.5,-2535.5 351.5,-2535.5 351.5,-2505.5 46.5,-2505.5"/>
<text text-anchor="start" x="53.5" y="-2516.9" font-family="Arial" font-size="14.00" fill="#000000">population_age_18 </text>
<text text-anchor="start" x="176.4508" y="-2516.9" font-family="Arial" font-size="14.00" fill="#666666">[INTEGER]</text>
<polygon fill="none" stroke="#000000" points="46.5,-2475.5 46.5,-2505.5 351.5,-2505.5 351.5,-2475.5 46.5,-2475.5"/>
<text text-anchor="start" x="53.5" y="-2486.9" font-family="Arial" font-size="14.00" fill="#000000">population_age_19 </text>
<text text-anchor="start" x="176.4508" y="-2486.9" font-family="Arial" font-size="14.00" fill="#666666">[INTEGER]</text>
<polygon fill="none" stroke="#000000" points="46.5,-2445.5 46.5,-2475.5 351.5,-2475.5 351.5,-2445.5 46.5,-2445.5"/>
<text text-anchor="start" x="53.5" y="-2456.9" font-family="Arial" font-size="14.00" fill="#000000">population_age_20 </text>
<text text-anchor="start" x="176.4508" y="-2456.9" font-family="Arial" font-size="14.00" fill="#666666">[INTEGER]</text>
<polygon fill="none" stroke="#000000" points="46.5,-2415.5 46.5,-2445.5 351.5,-2445.5 351.5,-2415.5 46.5,-2415.5"/>
<text text-anchor="start" x="53.5" y="-2426.9" font-family="Arial" font-size="14.00" fill="#000000">population_age_21 </text>
<text text-anchor="start" x="176.4508" y="-2426.9" font-family="Arial" font-size="14.00" fill="#666666">[INTEGER]</text>
<polygon fill="none" stroke="#000000" points="46.5,-2385.5 46.5,-2415.5 351.5,-2415.5 351.5,-2385.5 46.5,-2385.5"/>
<text text-anchor="start" x="53.5" y="-2396.9" font-family="Arial" font-size="14.00" fill="#000000">population_age_22 </text>
<text text-anchor="start" x="176.4508" y="-2396.9" font-family="Arial" font-size="14.00" fill="#666666">[INTEGER]</text>
<polygon fill="none" stroke="#000000" points="46.5,-2355.5 46.5,-2385.5 351.5,-2385.5 351.5,-2355.5 46.5,-2355.5"/>
<text text-anchor="start" x="53.5" y="-2366.9" font-family="Arial" font-size="14.00" fill="#000000">population_age_23 </text>
<text text-anchor="start" x="176.4508" y="-2366.9" font-family="Arial" font-size="14.00" fill="#666666">[INTEGER]</text>
<polygon fill="none" stroke="#000000" points="46.5,-2325.5 46.5,-2355.5 351.5,-2355.5 351.5,-2325.5 46.5,-2325.5"/>
<text text-anchor="start" x="53.5" y="-2336.9" font-family="Arial" font-size="14.00" fill="#000000">population_age_24 </text>
<text text-anchor="start" x="176.4508" y="-2336.9" font-family="Arial" font-size="14.00" fill="#666666">[INTEGER]</text>
<polygon fill="none" stroke="#000000" points="46.5,-2295.5 46.5,-2325.5 351.5,-2325.5 351.5,-2295.5 46.5,-2295.5"/>
<text text-anchor="start" x="53.5" y="-2306.9" font-family="Arial" font-size="14.00" fill="#000000">population_age_25 </text>
<text text-anchor="start" x="176.4508" y="-2306.9" font-family="Arial" font-size="14.00" fill="#666666">[INTEGER]</text>
<polygon fill="none" stroke="#000000" points="46.5,-2265.5 46.5,-2295.5 351.5,-2295.5 351.5,-2265.5 46.5,-2265.5"/>
<text text-anchor="start" x="53.5" y="-2276.9" font-family="Arial" font-size="14.00" fill="#000000">population_age_26 </text>
<text text-anchor="start" x="176.4508" y="-2276.9" font-family="Arial" font-size="14.00" fill="#666666">[INTEGER]</text>
<polygon fill="none" stroke="#000000" points="46.5,-2235.5 46.5,-2265.5 351.5,-2265.5 351.5,-2235.5 46.5,-2235.5"/>
<text text-anchor="start" x="53.5" y="-2246.9" font-family="Arial" font-size="14.00" fill="#000000">population_age_27 </text>
<text text-anchor="start" x="176.4508" y="-2246.9" font-family="Arial" font-size="14.00" fill="#666666">[INTEGER]</text>
<polygon fill="none" stroke="#000000" points="46.5,-2205.5 46.5,-2235.5 351.5,-2235.5 351.5,-2205.5 46.5,-2205.5"/>
<text text-anchor="start" x="53.5" y="-2216.9" font-family="Arial" font-size="14.00" fill="#000000">population_age_28 </text>
<text text-anchor="start" x="176.4508" y="-2216.9" font-family="Arial" font-size="14.00" fill="#666666">[INTEGER]</text>
<polygon fill="none" stroke="#000000" points="46.5,-2175.5 46.5,-2205.5 351.5,-2205.5 351.5,-2175.5 46.5,-2175.5"/>
<text text-anchor="start" x="53.5" y="-2186.9" font-family="Arial" font-size="14.00" fill="#000000">population_age_29 </text>
<text text-anchor="start" x="176.4508" y="-2186.9" font-family="Arial" font-size="14.00" fill="#666666">[INTEGER]</text>
<polygon fill="none" stroke="#000000" points="46.5,-2145.5 46.5,-2175.5 351.5,-2175.5 351.5,-2145.5 46.5,-2145.5"/>
<text text-anchor="start" x="53.5" y="-2156.9" font-family="Arial" font-size="14.00" fill="#000000">population_age_30 </text>
<text text-anchor="start" x="176.4508" y="-2156.9" font-family="Arial" font-size="14.00" fill="#666666">[INTEGER]</text>
<polygon fill="none" stroke="#000000" points="46.5,-2115.5 46.5,-2145.5 351.5,-2145.5 351.5,-2115.5 46.5,-2115.5"/>
<text text-anchor="start" x="53.5" y="-2126.9" font-family="Arial" font-size="14.00" fill="#000000">population_age_31 </text>
<text text-anchor="start" x="176.4508" y="-2126.9" font-family="Arial" font-size="14.00" fill="#666666">[INTEGER]</text>
<polygon fill="none" stroke="#000000" points="46.5,-2085.5 46.5,-2115.5 351.5,-2115.5 351.5,-2085.5 46.5,-2085.5"/>
<text text-anchor="start" x="53.5" y="-2096.9" font-family="Arial" font-size="14.00" fill="#000000">population_age_32 </text>
<text text-anchor="start" x="176.4508" y="-2096.9" font-family="Arial" font-size="14.00" fill="#666666">[INTEGER]</text>
<polygon fill="none" stroke="#000000" points="46.5,-2055.5 46.5,-2085.5 351.5,-2085.5 351.5,-2055.5 46.5,-2055.5"/>
<text text-anchor="start" x="53.5" y="-2066.9" font-family="Arial" font-size="14.00" fill="#000000">population_age_33 </text>
<text text-anchor="start" x="176.4508" y="-2066.9" font-family="Arial" font-size="14.00" fill="#666666">[INTEGER]</text>
<polygon fill="none" stroke="#000000" points="46.5,-2025.5 46.5,-2055.5 351.5,-2055.5 351.5,-2025.5 46.5,-2025.5"/>
<text text-anchor="start" x="53.5" y="-2036.9" font-family="Arial" font-size="14.00" fill="#000000">population_age_34 </text>
<text text-anchor="start" x="176.4508" y="-2036.9" font-family="Arial" font-size="14.00" fill="#666666">[INTEGER]</text>
<polygon fill="none" stroke="#000000" points="46.5,-1995.5 46.5,-2025.5 351.5,-2025.5 351.5,-1995.5 46.5,-1995.5"/>
<text text-anchor="start" x="53.5" y="-2006.9" font-family="Arial" font-size="14.00" fill="#000000">population_age_35 </text>
<text text-anchor="start" x="176.4508" y="-2006.9" font-family="Arial" font-size="14.00" fill="#666666">[INTEGER]</text>
<polygon fill="none" stroke="#000000" points="46.5,-1965.5 46.5,-1995.5 351.5,-1995.5 351.5,-1965.5 46.5,-1965.5"/>
<text text-anchor="start" x="53.5" y="-1976.9" font-family="Arial" font-size="14.00" fill="#000000">population_age_36 </text>
<text text-anchor="start" x="176.4508" y="-1976.9" font-family="Arial" font-size="14.00" fill="#666666">[INTEGER]</text>
<polygon fill="none" stroke="#000000" points="46.5,-1935.5 46.5,-1965.5 351.5,-1965.5 351.5,-1935.5 46.5,-1935.5"/>
<text text-anchor="start" x="53.5" y="-1946.9" font-family="Arial" font-size="14.00" fill="#000000">population_age_37 </text>
<text text-anchor="start" x="176.4508" y="-1946.9" font-family="Arial" font-size="14.00" fill="#666666">[INTEGER]</text>
<polygon fill="none" stroke="#000000" points="46.5,-1905.5 46.5,-1935.5 351.5,-1935.5 351.5,-1905.5 46.5,-1905.5"/>
<text text-anchor="start" x="53.5" y="-1916.9" font-family="Arial" font-size="14.00" fill="#000000">population_age_38 </text>
<text text-anchor="start" x="176.4508" y="-1916.9" font-family="Arial" font-size="14.00" fill="#666666">[INTEGER]</text>
<polygon fill="none" stroke="#000000" points="46.5,-1875.5 46.5,-1905.5 351.5,-1905.5 351.5,-1875.5 46.5,-1875.5"/>
<text text-anchor="start" x="53.5" y="-1886.9" font-family="Arial" font-size="14.00" fill="#000000">population_age_39 </text>
<text text-anchor="start" x="176.4508" y="-1886.9" font-family="Arial" font-size="14.00" fill="#666666">[INTEGER]</text>
<polygon fill="none" stroke="#000000" points="46.5,-1845.5 46.5,-1875.5 351.5,-1875.5 351.5,-1845.5 46.5,-1845.5"/>
<text text-anchor="start" x="53.5" y="-1856.9" font-family="Arial" font-size="14.00" fill="#000000">population_age_40 </text>
<text text-anchor="start" x="176.4508" y="-1856.9" font-family="Arial" font-size="14.00" fill="#666666">[INTEGER]</text>
<polygon fill="none" stroke="#000000" points="46.5,-1815.5 46.5,-1845.5 351.5,-1845.5 351.5,-1815.5 46.5,-1815.5"/>
<text text-anchor="start" x="53.5" y="-1826.9" font-family="Arial" font-size="14.00" fill="#000000">population_age_41 </text>
<text text-anchor="start" x="176.4508" y="-1826.9" font-family="Arial" font-size="14.00" fill="#666666">[INTEGER]</text>
<polygon fill="none" stroke="#000000" points="46.5,-1785.5 46.5,-1815.5 351.5,-1815.5 351.5,-1785.5 46.5,-1785.5"/>
<text text-anchor="start" x="53.5" y="-1796.9" font-family="Arial" font-size="14.00" fill="#000000">population_age_42 </text>
<text text-anchor="start" x="176.4508" y="-1796.9" font-family="Arial" font-size="14.00" fill="#666666">[INTEGER]</text>
<polygon fill="none" stroke="#000000" points="46.5,-1755.5 46.5,-1785.5 351.5,-1785.5 351.5,-1755.5 46.5,-1755.5"/>
<text text-anchor="start" x="53.5" y="-1766.9" font-family="Arial" font-size="14.00" fill="#000000">population_age_43 </text>
<text text-anchor="start" x="176.4508" y="-1766.9" font-family="Arial" font-size="14.00" fill="#666666">[INTEGER]</text>
<polygon fill="none" stroke="#000000" points="46.5,-1725.5 46.5,-1755.5 351.5,-1755.5 351.5,-1725.5 46.5,-1725.5"/>
<text text-anchor="start" x="53.5" y="-1736.9" font-family="Arial" font-size="14.00" fill="#000000">population_age_44 </text>
<text text-anchor="start" x="176.4508" y="-1736.9" font-family="Arial" font-size="14.00" fill="#666666">[INTEGER]</text>
<polygon fill="none" stroke="#000000" points="46.5,-1695.5 46.5,-1725.5 351.5,-1725.5 351.5,-1695.5 46.5,-1695.5"/>
<text text-anchor="start" x="53.5" y="-1706.9" font-family="Arial" font-size="14.00" fill="#000000">population_age_45 </text>
<text text-anchor="start" x="176.4508" y="-1706.9" font-family="Arial" font-size="14.00" fill="#666666">[INTEGER]</text>
<polygon fill="none" stroke="#000000" points="46.5,-1665.5 46.5,-1695.5 351.5,-1695.5 351.5,-1665.5 46.5,-1665.5"/>
<text text-anchor="start" x="53.5" y="-1676.9" font-family="Arial" font-size="14.00" fill="#000000">population_age_46 </text>
<text text-anchor="start" x="176.4508" y="-1676.9" font-family="Arial" font-size="14.00" fill="#666666">[INTEGER]</text>
<polygon fill="none" stroke="#000000" points="46.5,-1635.5 46.5,-1665.5 351.5,-1665.5 351.5,-1635.5 46.5,-1635.5"/>
<text text-anchor="start" x="53.5" y="-1646.9" font-family="Arial" font-size="14.00" fill="#000000">population_age_47 </text>
<text text-anchor="start" x="176.4508" y="-1646.9" font-family="Arial" font-size="14.00" fill="#666666">[INTEGER]</text>
<polygon fill="none" stroke="#000000" points="46.5,-1605.5 46.5,-1635.5 351.5,-1635.5 351.5,-1605.5 46.5,-1605.5"/>
<text text-anchor="start" x="53.5" y="-1616.9" font-family="Arial" font-size="14.00" fill="#000000">population_age_48 </text>
<text text-anchor="start" x="176.4508" y="-1616.9" font-family="Arial" font-size="14.00" fill="#666666">[INTEGER]</text>
<polygon fill="none" stroke="#000000" points="46.5,-1575.5 46.5,-1605.5 351.5,-1605.5 351.5,-1575.5 46.5,-1575.5"/>
<text text-anchor="start" x="53.5" y="-1586.9" font-family="Arial" font-size="14.00" fill="#000000">population_age_49 </text>
<text text-anchor="start" x="176.4508" y="-1586.9" font-family="Arial" font-size="14.00" fill="#666666">[INTEGER]</text>
<polygon fill="none" stroke="#000000" points="46.5,-1545.5 46.5,-1575.5 351.5,-1575.5 351.5,-1545.5 46.5,-1545.5"/>
<text text-anchor="start" x="53.5" y="-1556.9" font-family="Arial" font-size="14.00" fill="#000000">population_age_50 </text>
<text text-anchor="start" x="176.4508" y="-1556.9" font-family="Arial" font-size="14.00" fill="#666666">[INTEGER]</text>
<polygon fill="none" stroke="#000000" points="46.5,-1515.5 46.5,-1545.5 351.5,-1545.5 351.5,-1515.5 46.5,-1515.5"/>
<text text-anchor="start" x="53.5" y="-1526.9" font-family="Arial" font-size="14.00" fill="#000000">population_age_51 </text>
<text text-anchor="start" x="176.4508" y="-1526.9" font-family="Arial" font-size="14.00" fill="#666666">[INTEGER]</text>
<polygon fill="none" stroke="#000000" points="46.5,-1485.5 46.5,-1515.5 351.5,-1515.5 351.5,-1485.5 46.5,-1485.5"/>
<text text-anchor="start" x="53.5" y="-1496.9" font-family="Arial" font-size="14.00" fill="#000000">population_age_52 </text>
<text text-anchor="start" x="176.4508" y="-1496.9" font-family="Arial" font-size="14.00" fill="#666666">[INTEGER]</text>
<polygon fill="none" stroke="#000000" points="46.5,-1455.5 46.5,-1485.5 351.5,-1485.5 351.5,-1455.5 46.5,-1455.5"/>
<text text-anchor="start" x="53.5" y="-1466.9" font-family="Arial" font-size="14.00" fill="#000000">population_age_53 </text>
<text text-anchor="start" x="176.4508" y="-1466.9" font-family="Arial" font-size="14.00" fill="#666666">[INTEGER]</text>
<polygon fill="none" stroke="#000000" points="46.5,-1425.5 46.5,-1455.5 351.5,-1455.5 351.5,-1425.5 46.5,-1425.5"/>
<text text-anchor="start" x="53.5" y="-1436.9" font-family="Arial" font-size="14.00" fill="#000000">population_age_54 </text>
<text text-anchor="start" x="176.4508" y="-1436.9" font-family="Arial" font-size="14.00" fill="#666666">[INTEGER]</text>
<polygon fill="none" stroke="#000000" points="46.5,-1395.5 46.5,-1425.5 351.5,-1425.5 351.5,-1395.5 46.5,-1395.5"/>
<text text-anchor="start" x="53.5" y="-1406.9" font-family="Arial" font-size="14.00" fill="#000000">population_age_55 </text>
<text text-anchor="start" x="176.4508" y="-1406.9" font-family="Arial" font-size="14.00" fill="#666666">[INTEGER]</text>
<polygon fill="none" stroke="#000000" points="46.5,-1365.5 46.5,-1395.5 351.5,-1395.5 351.5,-1365.5 46.5,-1365.5"/>
<text text-anchor="start" x="53.5" y="-1376.9" font-family="Arial" font-size="14.00" fill="#000000">population_age_56 </text>
<text text-anchor="start" x="176.4508" y="-1376.9" font-family="Arial" font-size="14.00" fill="#666666">[INTEGER]</text>
<polygon fill="none" stroke="#000000" points="46.5,-1335.5 46.5,-1365.5 351.5,-1365.5 351.5,-1335.5 46.5,-1335.5"/>
<text text-anchor="start" x="53.5" y="-1346.9" font-family="Arial" font-size="14.00" fill="#000000">population_age_57 </text>
<text text-anchor="start" x="176.4508" y="-1346.9" font-family="Arial" font-size="14.00" fill="#666666">[INTEGER]</text>
<polygon fill="none" stroke="#000000" points="46.5,-1305.5 46.5,-1335.5 351.5,-1335.5 351.5,-1305.5 46.5,-1305.5"/>
<text text-anchor="start" x="53.5" y="-1316.9" font-family="Arial" font-size="14.00" fill="#000000">population_age_58 </text>
<text text-anchor="start" x="176.4508" y="-1316.9" font-family="Arial" font-size="14.00" fill="#666666">[INTEGER]</text>
<polygon fill="none" stroke="#000000" points="46.5,-1275.5 46.5,-1305.5 351.5,-1305.5 351.5,-1275.5 46.5,-1275.5"/>
<text text-anchor="start" x="53.5" y="-1286.9" font-family="Arial" font-size="14.00" fill="#000000">population_age_59 </text>
<text text-anchor="start" x="176.4508" y="-1286.9" font-family="Arial" font-size="14.00" fill="#666666">[INTEGER]</text>
<polygon fill="none" stroke="#000000" points="46.5,-1245.5 46.5,-1275.5 351.5,-1275.5 351.5,-1245.5 46.5,-1245.5"/>
<text text-anchor="start" x="53.5" y="-1256.9" font-family="Arial" font-size="14.00" fill="#000000">population_age_60 </text>
<text text-anchor="start" x="176.4508" y="-1256.9" font-family="Arial" font-size="14.00" fill="#666666">[INTEGER]</text>
<polygon fill="none" stroke="#000000" points="46.5,-1215.5 46.5,-1245.5 351.5,-1245.5 351.5,-1215.5 46.5,-1215.5"/>
<text text-anchor="start" x="53.5" y="-1226.9" font-family="Arial" font-size="14.00" fill="#000000">population_age_61 </text>
<text text-anchor="start" x="176.4508" y="-1226.9" font-family="Arial" font-size="14.00" fill="#666666">[INTEGER]</text>
<polygon fill="none" stroke="#000000" points="46.5,-1185.5 46.5,-1215.5 351.5,-1215.5 351.5,-1185.5 46.5,-1185.5"/>
<text text-anchor="start" x="53.5" y="-1196.9" font-family="Arial" font-size="14.00" fill="#000000">population_age_62 </text>
<text text-anchor="start" x="176.4508" y="-1196.9" font-family="Arial" font-size="14.00" fill="#666666">[INTEGER]</text>
<polygon fill="none" stroke="#000000" points="46.5,-1155.5 46.5,-1185.5 351.5,-1185.5 351.5,-1155.5 46.5,-1155.5"/>
<text text-anchor="start" x="53.5" y="-1166.9" font-family="Arial" font-size="14.00" fill="#000000">population_age_63 </text>
<text text-anchor="start" x="176.4508" y="-1166.9" font-family="Arial" font-size="14.00" fill="#666666">[INTEGER]</text>
<polygon fill="none" stroke="#000000" points="46.5,-1125.5 46.5,-1155.5 351.5,-1155.5 351.5,-1125.5 46.5,-1125.5"/>
<text text-anchor="start" x="53.5" y="-1136.9" font-family="Arial" font-size="14.00" fill="#000000">population_age_64 </text>
<text text-anchor="start" x="176.4508" y="-1136.9" font-family="Arial" font-size="14.00" fill="#666666">[INTEGER]</text>
<polygon fill="none" stroke="#000000" points="46.5,-1095.5 46.5,-1125.5 351.5,-1125.5 351.5,-1095.5 46.5,-1095.5"/>
<text text-anchor="start" x="53.5" y="-1106.9" font-family="Arial" font-size="14.00" fill="#000000">population_age_65 </text>
<text text-anchor="start" x="176.4508" y="-1106.9" font-family="Arial" font-size="14.00" fill="#666666">[INTEGER]</text>
<polygon fill="none" stroke="#000000" points="46.5,-1065.5 46.5,-1095.5 351.5,-1095.5 351.5,-1065.5 46.5,-1065.5"/>
<text text-anchor="start" x="53.5" y="-1076.9" font-family="Arial" font-size="14.00" fill="#000000">population_age_66 </text>
<text text-anchor="start" x="176.4508" y="-1076.9" font-family="Arial" font-size="14.00" fill="#666666">[INTEGER]</text>
<polygon fill="none" stroke="#000000" points="46.5,-1035.5 46.5,-1065.5 351.5,-1065.5 351.5,-1035.5 46.5,-1035.5"/>
<text text-anchor="start" x="53.5" y="-1046.9" font-family="Arial" font-size="14.00" fill="#000000">population_age_67 </text>
<text text-anchor="start" x="176.4508" y="-1046.9" font-family="Arial" font-size="14.00" fill="#666666">[INTEGER]</text>
<polygon fill="none" stroke="#000000" points="46.5,-1005.5 46.5,-1035.5 351.5,-1035.5 351.5,-1005.5 46.5,-1005.5"/>
<text text-anchor="start" x="53.5" y="-1016.9" font-family="Arial" font-size="14.00" fill="#000000">population_age_68 </text>
<text text-anchor="start" x="176.4508" y="-1016.9" font-family="Arial" font-size="14.00" fill="#666666">[INTEGER]</text>
<polygon fill="none" stroke="#000000" points="46.5,-975.5 46.5,-1005.5 351.5,-1005.5 351.5,-975.5 46.5,-975.5"/>
<text text-anchor="start" x="53.5" y="-986.9" font-family="Arial" font-size="14.00" fill="#000000">population_age_69 </text>
<text text-anchor="start" x="176.4508" y="-986.9" font-family="Arial" font-size="14.00" fill="#666666">[INTEGER]</text>
<polygon fill="none" stroke="#000000" points="46.5,-945.5 46.5,-975.5 351.5,-975.5 351.5,-945.5 46.5,-945.5"/>
<text text-anchor="start" x="53.5" y="-956.9" font-family="Arial" font-size="14.00" fill="#000000">population_age_70 </text>
<text text-anchor="start" x="176.4508" y="-956.9" font-family="Arial" font-size="14.00" fill="#666666">[INTEGER]</text>
<polygon fill="none" stroke="#000000" points="46.5,-915.5 46.5,-945.5 351.5,-945.5 351.5,-915.5 46.5,-915.5"/>
<text text-anchor="start" x="53.5" y="-926.9" font-family="Arial" font-size="14.00" fill="#000000">population_age_71 </text>
<text text-anchor="start" x="176.4508" y="-926.9" font-family="Arial" font-size="14.00" fill="#666666">[INTEGER]</text>
<polygon fill="none" stroke="#000000" points="46.5,-885.5 46.5,-915.5 351.5,-915.5 351.5,-885.5 46.5,-885.5"/>
<text text-anchor="start" x="53.5" y="-896.9" font-family="Arial" font-size="14.00" fill="#000000">population_age_72 </text>
<text text-anchor="start" x="176.4508" y="-896.9" font-family="Arial" font-size="14.00" fill="#666666">[INTEGER]</text>
<polygon fill="none" stroke="#000000" points="46.5,-855.5 46.5,-885.5 351.5,-885.5 351.5,-855.5 46.5,-855.5"/>
<text text-anchor="start" x="53.5" y="-866.9" font-family="Arial" font-size="14.00" fill="#000000">population_age_73 </text>
<text text-anchor="start" x="176.4508" y="-866.9" font-family="Arial" font-size="14.00" fill="#666666">[INTEGER]</text>
<polygon fill="none" stroke="#000000" points="46.5,-825.5 46.5,-855.5 351.5,-855.5 351.5,-825.5 46.5,-825.5"/>
<text text-anchor="start" x="53.5" y="-836.9" font-family="Arial" font-size="14.00" fill="#000000">population_age_74 </text>
<text text-anchor="start" x="176.4508" y="-836.9" font-family="Arial" font-size="14.00" fill="#666666">[INTEGER]</text>
<polygon fill="none" stroke="#000000" points="46.5,-795.5 46.5,-825.5 351.5,-825.5 351.5,-795.5 46.5,-795.5"/>
<text text-anchor="start" x="53.5" y="-806.9" font-family="Arial" font-size="14.00" fill="#000000">population_age_75 </text>
<text text-anchor="start" x="176.4508" y="-806.9" font-family="Arial" font-size="14.00" fill="#666666">[INTEGER]</text>
<polygon fill="none" stroke="#000000" points="46.5,-765.5 46.5,-795.5 351.5,-795.5 351.5,-765.5 46.5,-765.5"/>
<text text-anchor="start" x="53.5" y="-776.9" font-family="Arial" font-size="14.00" fill="#000000">population_age_76 </text>
<text text-anchor="start" x="176.4508" y="-776.9" font-family="Arial" font-size="14.00" fill="#666666">[INTEGER]</text>
<polygon fill="none" stroke="#000000" points="46.5,-735.5 46.5,-765.5 351.5,-765.5 351.5,-735.5 46.5,-735.5"/>
<text text-anchor="start" x="53.5" y="-746.9" font-family="Arial" font-size="14.00" fill="#000000">population_age_77 </text>
<text text-anchor="start" x="176.4508" y="-746.9" font-family="Arial" font-size="14.00" fill="#666666">[INTEGER]</text>
<polygon fill="none" stroke="#000000" points="46.5,-705.5 46.5,-735.5 351.5,-735.5 351.5,-705.5 46.5,-705.5"/>
<text text-anchor="start" x="53.5" y="-716.9" font-family="Arial" font-size="14.00" fill="#000000">population_age_78 </text>
<text text-anchor="start" x="176.4508" y="-716.9" font-family="Arial" font-size="14.00" fill="#666666">[INTEGER]</text>
<polygon fill="none" stroke="#000000" points="46.5,-675.5 46.5,-705.5 351.5,-705.5 351.5,-675.5 46.5,-675.5"/>
<text text-anchor="start" x="53.5" y="-686.9" font-family="Arial" font-size="14.00" fill="#000000">population_age_79 </text>
<text text-anchor="start" x="176.4508" y="-686.9" font-family="Arial" font-size="14.00" fill="#666666">[INTEGER]</text>
<polygon fill="none" stroke="#000000" points="46.5,-645.5 46.5,-675.5 351.5,-675.5 351.5,-645.5 46.5,-645.5"/>
<text text-anchor="start" x="53.5" y="-656.9" font-family="Arial" font-size="14.00" fill="#000000">population_age_80 </text>
<text text-anchor="start" x="176.4508" y="-656.9" font-family="Arial" font-size="14.00" fill="#666666">[INTEGER]</text>
<polygon fill="none" stroke="#000000" points="46.5,-615.5 46.5,-645.5 351.5,-645.5 351.5,-615.5 46.5,-615.5"/>
<text text-anchor="start" x="53.5" y="-626.9" font-family="Arial" font-size="14.00" fill="#000000">population_age_81 </text>
<text text-anchor="start" x="176.4508" y="-626.9" font-family="Arial" font-size="14.00" fill="#666666">[INTEGER]</text>
<polygon fill="none" stroke="#000000" points="46.5,-585.5 46.5,-615.5 351.5,-615.5 351.5,-585.5 46.5,-585.5"/>
<text text-anchor="start" x="53.5" y="-596.9" font-family="Arial" font-size="14.00" fill="#000000">population_age_82 </text>
<text text-anchor="start" x="176.4508" y="-596.9" font-family="Arial" font-size="14.00" fill="#666666">[INTEGER]</text>
<polygon fill="none" stroke="#000000" points="46.5,-555.5 46.5,-585.5 351.5,-585.5 351.5,-555.5 46.5,-555.5"/>
<text text-anchor="start" x="53.5" y="-566.9" font-family="Arial" font-size="14.00" fill="#000000">population_age_83 </text>
<text text-anchor="start" x="176.4508" y="-566.9" font-family="Arial" font-size="14.00" fill="#666666">[INTEGER]</text>
<polygon fill="none" stroke="#000000" points="46.5,-525.5 46.5,-555.5 351.5,-555.5 351.5,-525.5 46.5,-525.5"/>
<text text-anchor="start" x="53.5" y="-536.9" font-family="Arial" font-size="14.00" fill="#000000">population_age_84 </text>
<text text-anchor="start" x="176.4508" y="-536.9" font-family="Arial" font-size="14.00" fill="#666666">[INTEGER]</text>
<polygon fill="none" stroke="#000000" points="46.5,-495.5 46.5,-525.5 351.5,-525.5 351.5,-495.5 46.5,-495.5"/>
<text text-anchor="start" x="53.5" y="-506.9" font-family="Arial" font-size="14.00" fill="#000000">population_age_85 </text>
<text text-anchor="start" x="176.4508" y="-506.9" font-family="Arial" font-size="14.00" fill="#666666">[INTEGER]</text>
<polygon fill="none" stroke="#000000" points="46.5,-465.5 46.5,-495.5 351.5,-495.5 351.5,-465.5 46.5,-465.5"/>
<text text-anchor="start" x="53.5" y="-476.9" font-family="Arial" font-size="14.00" fill="#000000">population_age_86 </text>
<text text-anchor="start" x="176.4508" y="-476.9" font-family="Arial" font-size="14.00" fill="#666666">[INTEGER]</text>
<polygon fill="none" stroke="#000000" points="46.5,-435.5 46.5,-465.5 351.5,-465.5 351.5,-435.5 46.5,-435.5"/>
<text text-anchor="start" x="53.5" y="-446.9" font-family="Arial" font-size="14.00" fill="#000000">population_age_87 </text>
<text text-anchor="start" x="176.4508" y="-446.9" font-family="Arial" font-size="14.00" fill="#666666">[INTEGER]</text>
<polygon fill="none" stroke="#000000" points="46.5,-405.5 46.5,-435.5 351.5,-435.5 351.5,-405.5 46.5,-405.5"/>
<text text-anchor="start" x="53.5" y="-416.9" font-family="Arial" font-size="14.00" fill="#000000">population_age_88 </text>
<text text-anchor="start" x="176.4508" y="-416.9" font-family="Arial" font-size="14.00" fill="#666666">[INTEGER]</text>
<polygon fill="none" stroke="#000000" points="46.5,-375.5 46.5,-405.5 351.5,-405.5 351.5,-375.5 46.5,-375.5"/>
<text text-anchor="start" x="53.5" y="-386.9" font-family="Arial" font-size="14.00" fill="#000000">population_age_89 </text>
<text text-anchor="start" x="176.4508" y="-386.9" font-family="Arial" font-size="14.00" fill="#666666">[INTEGER]</text>
<polygon fill="none" stroke="#000000" points="46.5,-345.5 46.5,-375.5 351.5,-375.5 351.5,-345.5 46.5,-345.5"/>
<text text-anchor="start" x="53.5" y="-356.9" font-family="Arial" font-size="14.00" fill="#000000">population_age_90 </text>
<text text-anchor="start" x="176.4508" y="-356.9" font-family="Arial" font-size="14.00" fill="#666666">[INTEGER]</text>
<polygon fill="none" stroke="#000000" points="46.5,-315.5 46.5,-345.5 351.5,-345.5 351.5,-315.5 46.5,-315.5"/>
<text text-anchor="start" x="53.5" y="-326.9" font-family="Arial" font-size="14.00" fill="#000000">population_age_91 </text>
<text text-anchor="start" x="176.4508" y="-326.9" font-family="Arial" font-size="14.00" fill="#666666">[INTEGER]</text>
<polygon fill="none" stroke="#000000" points="46.5,-285.5 46.5,-315.5 351.5,-315.5 351.5,-285.5 46.5,-285.5"/>
<text text-anchor="start" x="53.5" y="-296.9" font-family="Arial" font-size="14.00" fill="#000000">population_age_92 </text>
<text text-anchor="start" x="176.4508" y="-296.9" font-family="Arial" font-size="14.00" fill="#666666">[INTEGER]</text>
<polygon fill="none" stroke="#000000" points="46.5,-255.5 46.5,-285.5 351.5,-285.5 351.5,-255.5 46.5,-255.5"/>
<text text-anchor="start" x="53.5" y="-266.9" font-family="Arial" font-size="14.00" fill="#000000">population_age_93 </text>
<text text-anchor="start" x="176.4508" y="-266.9" font-family="Arial" font-size="14.00" fill="#666666">[INTEGER]</text>
<polygon fill="none" stroke="#000000" points="46.5,-225.5 46.5,-255.5 351.5,-255.5 351.5,-225.5 46.5,-225.5"/>
<text text-anchor="start" x="53.5" y="-236.9" font-family="Arial" font-size="14.00" fill="#000000">population_age_94 </text>
<text text-anchor="start" x="176.4508" y="-236.9" font-family="Arial" font-size="14.00" fill="#666666">[INTEGER]</text>
<polygon fill="none" stroke="#000000" points="46.5,-195.5 46.5,-225.5 351.5,-225.5 351.5,-195.5 46.5,-195.5"/>
<text text-anchor="start" x="53.5" y="-206.9" font-family="Arial" font-size="14.00" fill="#000000">population_age_95 </text>
<text text-anchor="start" x="176.4508" y="-206.9" font-family="Arial" font-size="14.00" fill="#666666">[INTEGER]</text>
<polygon fill="none" stroke="#000000" points="46.5,-165.5 46.5,-195.5 351.5,-195.5 351.5,-165.5 46.5,-165.5"/>
<text text-anchor="start" x="53.5" y="-176.9" font-family="Arial" font-size="14.00" fill="#000000">population_age_96 </text>
<text text-anchor="start" x="176.4508" y="-176.9" font-family="Arial" font-size="14.00" fill="#666666">[INTEGER]</text>
<polygon fill="none" stroke="#000000" points="46.5,-135.5 46.5,-165.5 351.5,-165.5 351.5,-135.5 46.5,-135.5"/>
<text text-anchor="start" x="53.5" y="-146.9" font-family="Arial" font-size="14.00" fill="#000000">population_age_97 </text>
<text text-anchor="start" x="176.4508" y="-146.9" font-family="Arial" font-size="14.00" fill="#666666">[INTEGER]</text>
<polygon fill="none" stroke="#000000" points="46.5,-105.5 46.5,-135.5 351.5,-135.5 351.5,-105.5 46.5,-105.5"/>
<text text-anchor="start" x="53.5" y="-116.9" font-family="Arial" font-size="14.00" fill="#000000">population_age_98 </text>
<text text-anchor="start" x="176.4508" y="-116.9" font-family="Arial" font-size="14.00" fill="#666666">[INTEGER]</text>
<polygon fill="none" stroke="#000000" points="46.5,-75.5 46.5,-105.5 351.5,-105.5 351.5,-75.5 46.5,-75.5"/>
<text text-anchor="start" x="53.5" y="-86.9" font-family="Arial" font-size="14.00" fill="#000000">population_age_99 </text>
<text text-anchor="start" x="176.4508" y="-86.9" font-family="Arial" font-size="14.00" fill="#666666">[INTEGER]</text>
<polygon fill="none" stroke="#000000" points="46.5,-45.5 46.5,-75.5 351.5,-75.5 351.5,-45.5 46.5,-45.5"/>
<text text-anchor="start" x="53.5" y="-56.9" font-family="Arial" font-size="14.00" fill="#000000">population_age_100 </text>
<text text-anchor="start" x="184.2334" y="-56.9" font-family="Arial" font-size="14.00" fill="#666666">[INTEGER]</text>
<polygon fill="none" stroke="#000000" stroke-width="3" points="44.5,-44.5 44.5,-3262.5 352.5,-3262.5 352.5,-44.5 44.5,-44.5"/>
</g>
</g>
</svg>
