<?xml version="1.0" encoding="UTF-8" standalone="no"?>
<!DOCTYPE svg PUBLIC "-//W3C//DTD SVG 1.1//EN"
 "http://www.w3.org/Graphics/SVG/1.1/DTD/svg11.dtd">
<!-- Generated by graphviz version 2.40.1 (20161225.0304)
 -->
<!-- Title: midyear_population_agespecific Pages: 1 -->
<svg width="427pt" height="315pt"
 viewBox="0.00 0.00 427.00 315.00" xmlns="http://www.w3.org/2000/svg" xmlns:xlink="http://www.w3.org/1999/xlink">
<g id="graph0" class="graph" transform="scale(1 1) rotate(0) translate(4 311)">
<title>midyear_population_agespecific</title>
<polygon fill="#ffffff" stroke="transparent" points="-4,4 -4,-311 423,-311 423,4 -4,4"/>
<!-- midyear_population_agespecific -->
<g id="node1" class="node">
<title>midyear_population_agespecific</title>
<polygon fill="#efefef" stroke="transparent" points="46.5,-225.5 46.5,-260.5 373.5,-260.5 373.5,-225.5 46.5,-225.5"/>
<polygon fill="none" stroke="#000000" points="46.5,-225.5 46.5,-260.5 373.5,-260.5 373.5,-225.5 46.5,-225.5"/>
<text text-anchor="start" x="53.459" y="-238.3" font-family="Arial Bold" font-size="18.00" fill="#000000">midyear_population_agespecific</text>
<text text-anchor="start" x="310.5242" y="-238.3" font-family="Arial" font-size="14.00" fill="#000000"> </text>
<text text-anchor="start" x="314.4148" y="-238.3" font-family="Arial" font-size="14.00" fill="#666666">[TABLE]</text>
<polygon fill="none" stroke="#000000" points="46.5,-195.5 46.5,-225.5 373.5,-225.5 373.5,-195.5 46.5,-195.5"/>
<text text-anchor="start" x="53.5" y="-206.9" font-family="Arial" font-size="14.00" fill="#000000">country_code </text>
<text text-anchor="start" x="141.42" y="-206.9" font-family="Arial" font-size="14.00" fill="#666666">[STRING]</text>
<polygon fill="none" stroke="#000000" points="46.5,-165.5 46.5,-195.5 373.5,-195.5 373.5,-165.5 46.5,-165.5"/>
<text text-anchor="start" x="53.5" y="-176.9" font-family="Arial" font-size="14.00" fill="#000000">country_name </text>
<text text-anchor="start" x="146.0806" y="-176.9" font-family="Arial" font-size="14.00" fill="#666666">[STRING]</text>
<polygon fill="none" stroke="#000000" points="46.5,-135.5 46.5,-165.5 373.5,-165.5 373.5,-135.5 46.5,-135.5"/>
<text text-anchor="start" x="53.5" y="-146.9" font-family="Arial" font-size="14.00" fill="#000000">year </text>
<text text-anchor="start" x="84.6164" y="-146.9" font-family="Arial" font-size="14.00" fill="#666666">[INTEGER]</text>
<polygon fill="none" stroke="#000000" points="46.5,-105.5 46.5,-135.5 373.5,-135.5 373.5,-105.5 46.5,-105.5"/>
<text text-anchor="start" x="53.5" y="-116.9" font-family="Arial" font-size="14.00" fill="#000000">sex </text>
<text text-anchor="start" x="79.1732" y="-116.9" font-family="Arial" font-size="14.00" fill="#666666">[STRING]</text>
<polygon fill="none" stroke="#000000" points="46.5,-75.5 46.5,-105.5 373.5,-105.5 373.5,-75.5 46.5,-75.5"/>
<text text-anchor="start" x="53.5" y="-86.9" font-family="Arial" font-size="14.00" fill="#000000">population </text>
<text text-anchor="start" x="121.9726" y="-86.9" font-family="Arial" font-size="14.00" fill="#666666">[INTEGER]</text>
<polygon fill="none" stroke="#000000" points="46.5,-45.5 46.5,-75.5 373.5,-75.5 373.5,-45.5 46.5,-45.5"/>
<text text-anchor="start" x="53.5" y="-56.9" font-family="Arial" font-size="14.00" fill="#000000">age </text>
<text text-anchor="start" x="80.7384" y="-56.9" font-family="Arial" font-size="14.00" fill="#666666">[INTEGER]</text>
<polygon fill="none" stroke="#000000" stroke-width="3" points="44.5,-44.5 44.5,-262.5 374.5,-262.5 374.5,-44.5 44.5,-44.5"/>
</g>
</g>
</svg>
