<?xml version="1.0" encoding="UTF-8" standalone="no"?>
<!DOCTYPE svg PUBLIC "-//W3C//DTD SVG 1.1//EN"
 "http://www.w3.org/Graphics/SVG/1.1/DTD/svg11.dtd">
<!-- Generated by graphviz version 2.40.1 (20161225.0304)
 -->
<!-- Title: mortality_life_expectancy Pages: 1 -->
<svg width="372pt" height="585pt"
 viewBox="0.00 0.00 372.00 585.00" xmlns="http://www.w3.org/2000/svg" xmlns:xlink="http://www.w3.org/1999/xlink">
<g id="graph0" class="graph" transform="scale(1 1) rotate(0) translate(4 581)">
<title>mortality_life_expectancy</title>
<polygon fill="#ffffff" stroke="transparent" points="-4,4 -4,-581 368,-581 368,4 -4,4"/>
<!-- mortality_life_expectancy -->
<g id="node1" class="node">
<title>mortality_life_expectancy</title>
<polygon fill="#efefef" stroke="transparent" points="46,-495.5 46,-530.5 318,-530.5 318,-495.5 46,-495.5"/>
<polygon fill="none" stroke="#000000" points="46,-495.5 46,-530.5 318,-530.5 318,-495.5 46,-495.5"/>
<text text-anchor="start" x="52.9756" y="-508.3" font-family="Arial Bold" font-size="18.00" fill="#000000">mortality_life_expectancy</text>
<text text-anchor="start" x="255.0076" y="-508.3" font-family="Arial" font-size="14.00" fill="#000000"> </text>
<text text-anchor="start" x="258.8982" y="-508.3" font-family="Arial" font-size="14.00" fill="#666666">[TABLE]</text>
<polygon fill="none" stroke="#000000" points="46,-465.5 46,-495.5 318,-495.5 318,-465.5 46,-465.5"/>
<text text-anchor="start" x="53" y="-476.9" font-family="Arial" font-size="14.00" fill="#000000">country_code </text>
<text text-anchor="start" x="140.92" y="-476.9" font-family="Arial" font-size="14.00" fill="#666666">[STRING]</text>
<polygon fill="none" stroke="#000000" points="46,-435.5 46,-465.5 318,-465.5 318,-435.5 46,-435.5"/>
<text text-anchor="start" x="53" y="-446.9" font-family="Arial" font-size="14.00" fill="#000000">country_name </text>
<text text-anchor="start" x="145.5806" y="-446.9" font-family="Arial" font-size="14.00" fill="#666666">[STRING]</text>
<polygon fill="none" stroke="#000000" points="46,-405.5 46,-435.5 318,-435.5 318,-405.5 46,-405.5"/>
<text text-anchor="start" x="53" y="-416.9" font-family="Arial" font-size="14.00" fill="#000000">year </text>
<text text-anchor="start" x="84.1164" y="-416.9" font-family="Arial" font-size="14.00" fill="#666666">[INTEGER]</text>
<polygon fill="none" stroke="#000000" points="46,-375.5 46,-405.5 318,-405.5 318,-375.5 46,-375.5"/>
<text text-anchor="start" x="53" y="-386.9" font-family="Arial" font-size="14.00" fill="#000000">infant_mortality </text>
<text text-anchor="start" x="151.7896" y="-386.9" font-family="Arial" font-size="14.00" fill="#666666">[FLOAT]</text>
<polygon fill="none" stroke="#000000" points="46,-345.5 46,-375.5 318,-375.5 318,-345.5 46,-345.5"/>
<text text-anchor="start" x="53" y="-356.9" font-family="Arial" font-size="14.00" fill="#000000">infant_mortality_male </text>
<text text-anchor="start" x="189.9046" y="-356.9" font-family="Arial" font-size="14.00" fill="#666666">[FLOAT]</text>
<polygon fill="none" stroke="#000000" points="46,-315.5 46,-345.5 318,-345.5 318,-315.5 46,-315.5"/>
<text text-anchor="start" x="53" y="-326.9" font-family="Arial" font-size="14.00" fill="#000000">infant_mortality_female </text>
<text text-anchor="start" x="201.5778" y="-326.9" font-family="Arial" font-size="14.00" fill="#666666">[FLOAT]</text>
<polygon fill="none" stroke="#000000" points="46,-285.5 46,-315.5 318,-315.5 318,-285.5 46,-285.5"/>
<text text-anchor="start" x="53" y="-296.9" font-family="Arial" font-size="14.00" fill="#000000">life_expectancy </text>
<text text-anchor="start" x="153.3632" y="-296.9" font-family="Arial" font-size="14.00" fill="#666666">[FLOAT]</text>
<polygon fill="none" stroke="#000000" points="46,-255.5 46,-285.5 318,-285.5 318,-255.5 46,-255.5"/>
<text text-anchor="start" x="53" y="-266.9" font-family="Arial" font-size="14.00" fill="#000000">life_expectancy_male </text>
<text text-anchor="start" x="191.4782" y="-266.9" font-family="Arial" font-size="14.00" fill="#666666">[FLOAT]</text>
<polygon fill="none" stroke="#000000" points="46,-225.5 46,-255.5 318,-255.5 318,-225.5 46,-225.5"/>
<text text-anchor="start" x="53" y="-236.9" font-family="Arial" font-size="14.00" fill="#000000">life_expectancy_female </text>
<text text-anchor="start" x="203.1514" y="-236.9" font-family="Arial" font-size="14.00" fill="#666666">[FLOAT]</text>
<polygon fill="none" stroke="#000000" points="46,-195.5 46,-225.5 318,-225.5 318,-195.5 46,-195.5"/>
<text text-anchor="start" x="53" y="-206.9" font-family="Arial" font-size="14.00" fill="#000000">mortality_rate_under5 </text>
<text text-anchor="start" x="193.0266" y="-206.9" font-family="Arial" font-size="14.00" fill="#666666">[FLOAT]</text>
<polygon fill="none" stroke="#000000" points="46,-165.5 46,-195.5 318,-195.5 318,-165.5 46,-165.5"/>
<text text-anchor="start" x="53" y="-176.9" font-family="Arial" font-size="14.00" fill="#000000">mortality_rate_under5_male </text>
<text text-anchor="start" x="231.1416" y="-176.9" font-family="Arial" font-size="14.00" fill="#666666">[FLOAT]</text>
<polygon fill="none" stroke="#000000" points="46,-135.5 46,-165.5 318,-165.5 318,-135.5 46,-135.5"/>
<text text-anchor="start" x="53" y="-146.9" font-family="Arial" font-size="14.00" fill="#000000">mortality_rate_under5_female </text>
<text text-anchor="start" x="242.8148" y="-146.9" font-family="Arial" font-size="14.00" fill="#666666">[FLOAT]</text>
<polygon fill="none" stroke="#000000" points="46,-105.5 46,-135.5 318,-135.5 318,-105.5 46,-105.5"/>
<text text-anchor="start" x="53" y="-116.9" font-family="Arial" font-size="14.00" fill="#000000">mortality_rate_1to4 </text>
<text text-anchor="start" x="176.6914" y="-116.9" font-family="Arial" font-size="14.00" fill="#666666">[FLOAT]</text>
<polygon fill="none" stroke="#000000" points="46,-75.5 46,-105.5 318,-105.5 318,-75.5 46,-75.5"/>
<text text-anchor="start" x="53" y="-86.9" font-family="Arial" font-size="14.00" fill="#000000">mortality_rate_1to4_male </text>
<text text-anchor="start" x="214.8064" y="-86.9" font-family="Arial" font-size="14.00" fill="#666666">[FLOAT]</text>
<polygon fill="none" stroke="#000000" points="46,-45.5 46,-75.5 318,-75.5 318,-45.5 46,-45.5"/>
<text text-anchor="start" x="53" y="-56.9" font-family="Arial" font-size="14.00" fill="#000000">mortality_rate_1to4_female </text>
<text text-anchor="start" x="226.4796" y="-56.9" font-family="Arial" font-size="14.00" fill="#666666">[FLOAT]</text>
<polygon fill="none" stroke="#000000" stroke-width="3" points="44.5,-44.5 44.5,-532.5 319.5,-532.5 319.5,-44.5 44.5,-44.5"/>
</g>
</g>
</svg>
